%FSLAX43Y43*%
%MOMM*%
%SFA1B1*%

%IPPOS*%
%AMD20*
4,1,8,-0.474980,-1.600200,0.474980,-1.600200,0.949960,-1.125220,0.949960,1.125220,0.474980,1.600200,-0.474980,1.600200,-0.949960,1.125220,-0.949960,-1.125220,-0.474980,-1.600200,0.0*
%
%ADD10R,0.899160X0.800100*%
%ADD11R,0.800100X0.899160*%
%ADD12R,2.301240X2.301240*%
%ADD13R,1.198880X1.399540*%
%ADD14O,1.800860X0.299720*%
%ADD15O,0.299720X1.800860*%
%ADD16R,0.508000X1.501140*%
%ADD17R,1.399540X1.198880*%
%ADD18R,2.199640X2.199640*%
%ADD19O,0.599440X2.199640*%
G04~CAMADD=20~4~0.0~0.0~748.0~1260.0~0.0~187.0~0~0.0~0.0~0.0~0.0~0~0.0~0.0~0.0~0.0~0~0.0~0.0~0.0~180.0~748.0~1260.0*
%ADD20D20*%
%ADD21R,0.599440X1.399540*%
%ADD22R,0.599440X1.800860*%
%ADD23R,1.016000X2.540000*%
%ADD24R,3.048000X3.683000*%
%ADD25R,2.540000X1.016000*%
%ADD26R,2.400300X3.098800*%
%ADD27R,2.199640X0.449580*%
%ADD28R,2.032000X0.635000*%
%ADD29R,1.198880X0.299720*%
%ADD30R,0.299720X1.198880*%
%LNlp_led_cube_8x8x8-1*%
%LPD*%
G54D10*
X45084Y82991D03*
Y84394D03*
X59689Y70291D03*
Y71694D03*
X41909Y69281D03*
Y67878D03*
Y63566D03*
Y62163D03*
X43179Y63566D03*
Y62163D03*
X54609Y63566D03*
Y62163D03*
X53339D03*
Y63566D03*
X52069Y62163D03*
Y63566D03*
X50799Y62163D03*
Y63566D03*
X49529Y62163D03*
Y63566D03*
X46989Y62163D03*
Y63566D03*
X45719Y62163D03*
Y63566D03*
X122300Y60137D03*
Y58734D03*
X119633Y74609D03*
Y76012D03*
Y71815D03*
Y73218D03*
X107314Y64703D03*
Y66106D03*
X97408Y85791D03*
Y84388D03*
X96011Y85791D03*
Y84388D03*
X88010D03*
Y85791D03*
X80136Y78038D03*
Y79441D03*
X77850D03*
Y78038D03*
X152653Y89595D03*
Y90998D03*
X109346Y58734D03*
Y60137D03*
Y61655D03*
Y63058D03*
X163194Y58988D03*
Y60391D03*
X161543D03*
Y58988D03*
X163194Y61782D03*
Y63185D03*
Y64576D03*
Y65979D03*
X161416Y68005D03*
Y69408D03*
X133984Y68011D03*
Y66608D03*
X146938Y54797D03*
Y56200D03*
G54D11*
X57470Y68325D03*
X56067D03*
X53406Y80644D03*
X52003D03*
X57470Y66928D03*
X56067D03*
Y65531D03*
X57470D03*
X70545Y57022D03*
X71948D03*
X78673Y82422D03*
X80076D03*
X78673Y83819D03*
X80076D03*
X95697Y53593D03*
X94294D03*
X149666Y88645D03*
X151069D03*
X116652Y53974D03*
X115249D03*
X113477D03*
X112074D03*
X159953Y65658D03*
X161356D03*
X78673Y88518D03*
X80076D03*
X78673Y86867D03*
X80076D03*
X149926Y57784D03*
X148523D03*
G54D12*
X74005Y60324D03*
X69504D03*
X153451Y56514D03*
X157952D03*
G54D13*
X66050Y60324D03*
X64251D03*
X140705Y71627D03*
X142504D03*
X147055D03*
X148854D03*
X147055Y80263D03*
X148854D03*
X140705D03*
X142504D03*
X134355D03*
X136154D03*
X128005D03*
X129804D03*
X134355Y71627D03*
X136154D03*
X128005D03*
X129804D03*
G54D14*
X86431Y77754D03*
Y77254D03*
Y76756D03*
Y76255D03*
Y75755D03*
Y75255D03*
Y74754D03*
Y74254D03*
Y73753D03*
Y73256D03*
Y72755D03*
Y72255D03*
Y71754D03*
Y71254D03*
Y70754D03*
Y70253D03*
Y69756D03*
Y69255D03*
Y68755D03*
Y68254D03*
Y67754D03*
Y67254D03*
Y66753D03*
Y66255D03*
Y65755D03*
X101528D03*
Y66255D03*
Y66753D03*
Y67254D03*
Y67754D03*
Y68254D03*
Y68755D03*
Y69255D03*
Y69756D03*
Y70253D03*
Y70754D03*
Y71254D03*
Y71754D03*
Y72255D03*
Y72755D03*
Y73256D03*
Y73753D03*
Y74254D03*
Y74754D03*
Y75255D03*
Y75755D03*
Y76255D03*
Y76756D03*
Y77254D03*
Y77754D03*
G54D15*
X87980Y64206D03*
X88480D03*
X88978D03*
X89479D03*
X89979D03*
X90479D03*
X90980D03*
X91480D03*
X91981D03*
X92478D03*
X92979D03*
X93479D03*
X93979D03*
X94480D03*
X94980D03*
X95481D03*
X95978D03*
X96479D03*
X96979D03*
X97480D03*
X97980D03*
X98480D03*
X98981D03*
X99479D03*
X99979D03*
Y79303D03*
X99479D03*
X98981D03*
X98480D03*
X97980D03*
X97480D03*
X96979D03*
X96479D03*
X95978D03*
X95481D03*
X94980D03*
X94480D03*
X93979D03*
X93479D03*
X92979D03*
X92478D03*
X91981D03*
X91480D03*
X90980D03*
X90479D03*
X89979D03*
X89479D03*
X88978D03*
X88480D03*
X87980D03*
G54D16*
X113466Y70213D03*
X114767D03*
X116067D03*
X117368D03*
X117419Y77563D03*
X116017D03*
X114767D03*
X113466D03*
G54D17*
X87121Y100065D03*
Y101864D03*
X76961D03*
Y100065D03*
X89661D03*
Y101864D03*
X79501D03*
Y100065D03*
X82041Y101864D03*
Y100065D03*
X84581D03*
Y101864D03*
X141731D03*
Y100065D03*
X144271D03*
Y101864D03*
X109346D03*
Y100065D03*
X116966D03*
Y101864D03*
X119506Y100065D03*
Y101864D03*
X92201Y100065D03*
Y101864D03*
X74421D03*
Y100065D03*
X106806Y101864D03*
Y100065D03*
X114426D03*
Y101864D03*
X111886D03*
Y100065D03*
X146811D03*
Y101864D03*
X136651D03*
Y100065D03*
X149351D03*
Y101864D03*
X139191D03*
Y100065D03*
X122046D03*
Y101864D03*
X104266D03*
Y100065D03*
X134111Y101864D03*
Y100065D03*
X151891D03*
Y101864D03*
X52196D03*
Y100065D03*
X54736D03*
Y101864D03*
X49656D03*
Y100065D03*
X57276D03*
Y101864D03*
X47116D03*
Y100065D03*
X59816D03*
Y101864D03*
X44576D03*
Y100065D03*
X62356D03*
Y101864D03*
G54D18*
X49951Y89748D03*
Y84749D03*
X54950Y89748D03*
Y84749D03*
G54D19*
X120395Y61582D03*
X119125D03*
X117855D03*
X116585D03*
X115315D03*
X114045D03*
X112775D03*
X111505D03*
X120395Y56781D03*
X119125D03*
X117855D03*
X116585D03*
X115315D03*
X114045D03*
X112775D03*
X111505D03*
G54D20*
X142239Y85481D03*
X148589Y85470D03*
Y76834D03*
X142239D03*
X135889D03*
Y85470D03*
X129539D03*
Y76834D03*
G54D21*
X143741Y82781D03*
X140738D03*
X150091Y82770D03*
X147088D03*
X150091Y74134D03*
X147088D03*
X143741D03*
X140738D03*
X137391D03*
X134388D03*
X137391Y82770D03*
X134388D03*
X131041D03*
X128038D03*
X131041Y74134D03*
X128038D03*
G54D22*
X142239Y82981D03*
X148589Y82971D03*
Y74335D03*
X142239D03*
X135889D03*
Y82971D03*
X129539D03*
Y74335D03*
G54D23*
X129285Y62610D03*
Y56768D03*
G54D24*
X147256Y62229D03*
X137223D03*
G54D25*
X145160Y51815D03*
X139318D03*
G54D26*
X156209Y62229D03*
G54D27*
X153334Y60355D03*
Y62854D03*
Y64104D03*
Y61605D03*
X159085D03*
Y64104D03*
Y62854D03*
Y60355D03*
G54D28*
X74802Y88518D03*
Y87248D03*
Y85978D03*
Y84708D03*
Y83438D03*
X69976D03*
Y84708D03*
Y85978D03*
Y87248D03*
Y88518D03*
G54D29*
X44594Y76537D03*
Y76037D03*
Y75537D03*
Y75036D03*
Y74536D03*
Y74035D03*
Y73538D03*
Y73037D03*
Y72537D03*
Y72036D03*
Y71536D03*
Y71036D03*
X53195D03*
Y71536D03*
Y72036D03*
Y72537D03*
Y73037D03*
Y73538D03*
Y74035D03*
Y74536D03*
Y75036D03*
Y75537D03*
Y76037D03*
Y76537D03*
G54D30*
X46144Y69486D03*
X46644D03*
X47144D03*
X47645D03*
X48145D03*
X48646D03*
X49143D03*
X49644D03*
X50144D03*
X50645D03*
X51145D03*
X51645D03*
Y78087D03*
X51145D03*
X50645D03*
X50144D03*
X49644D03*
X49143D03*
X48646D03*
X48145D03*
X47645D03*
X47144D03*
X46644D03*
X46144D03*
M02*