%FSLAX43Y43*%
%MOMM*%
%SFA1B1*%

%IPPOS*%
%ADD70C,0.099060*%
%LNlp_led_cube_8x8x8-1*%
%LPD*%
G54D70*
X44533Y82494D02*
X45636D01*
X44533Y84891D02*
X45636D01*
X44533Y82494D02*
Y84891D01*
X45636Y82494D02*
Y84891D01*
X45084Y83218D02*
Y84167D01*
X44610Y83692D02*
X45559D01*
X51645Y61666D02*
X52748D01*
X51645Y64063D02*
X52748D01*
Y61666D02*
Y64063D01*
X51645Y61666D02*
Y64063D01*
X52196Y62390D02*
Y63339D01*
X51722Y62864D02*
X52671D01*
X43390Y61666D02*
X44493D01*
X43390Y64063D02*
X44493D01*
Y61666D02*
Y64063D01*
X43390Y61666D02*
Y64063D01*
X43941Y62390D02*
Y63339D01*
X43467Y62864D02*
X44416D01*
X48978Y51506D02*
X50081D01*
X48978Y53903D02*
X50081D01*
Y51506D02*
Y53903D01*
X48978Y51506D02*
Y53903D01*
X49529Y52230D02*
Y53179D01*
X49055Y52704D02*
X50004D01*
X47708Y51506D02*
X48811D01*
X47708Y53903D02*
X48811D01*
Y51506D02*
Y53903D01*
X47708Y51506D02*
Y53903D01*
X48259Y52230D02*
Y53179D01*
X47785Y52704D02*
X48734D01*
X53494Y68209D02*
X54594D01*
X53494Y65808D02*
X54594D01*
X53494D02*
Y68209D01*
X54594Y65808D02*
Y68209D01*
X54043Y66535D02*
Y67485D01*
X53568Y67010D02*
X54518D01*
X59138Y69794D02*
X60241D01*
X59138Y72191D02*
X60241D01*
X59138Y69794D02*
Y72191D01*
X60241Y69794D02*
Y72191D01*
X59689Y70518D02*
Y71467D01*
X59215Y70992D02*
X60164D01*
X57967Y67774D02*
Y68877D01*
X55570Y67774D02*
Y68877D01*
Y67774D02*
X57967D01*
X55570Y68877D02*
X57967D01*
X56294Y68325D02*
X57243D01*
X56768Y67851D02*
Y68800D01*
X53903Y80093D02*
Y81196D01*
X51506Y80093D02*
Y81196D01*
Y80093D02*
X53903D01*
X51506Y81196D02*
X53903D01*
X52230Y80644D02*
X53179D01*
X52704Y80170D02*
Y81119D01*
X41358Y69778D02*
X42461D01*
X41358Y67381D02*
X42461D01*
Y69778*
X41358Y67381D02*
Y69778D01*
X41909Y68105D02*
Y69054D01*
X41435Y68579D02*
X42384D01*
X44322Y71254D02*
Y72255D01*
X43822Y71754D02*
X44823D01*
X42923Y71005D02*
X45722D01*
X42923Y72504D02*
X45722D01*
X42923Y71005D02*
Y72504D01*
X45722Y71005D02*
Y72504D01*
X57967Y66377D02*
Y67480D01*
X55570Y66377D02*
Y67480D01*
Y66377D02*
X57967D01*
X55570Y67480D02*
X57967D01*
X56294Y66928D02*
X57243D01*
X56768Y66454D02*
Y67403D01*
X55570Y64980D02*
Y66083D01*
X57967Y64980D02*
Y66083D01*
X55570D02*
X57967D01*
X55570Y64980D02*
X57967D01*
X56294Y65531D02*
X57243D01*
X56768Y65057D02*
Y66006D01*
X41358Y64063D02*
X42461D01*
X41358Y61666D02*
X42461D01*
Y64063*
X41358Y61666D02*
Y64063D01*
X41909Y62390D02*
Y63339D01*
X41435Y62864D02*
X42384D01*
X42628Y64063D02*
X43731D01*
X42628Y61666D02*
X43731D01*
Y64063*
X42628Y61666D02*
Y64063D01*
X43179Y62390D02*
Y63339D01*
X42705Y62864D02*
X43654D01*
X54058Y64063D02*
X55161D01*
X54058Y61666D02*
X55161D01*
Y64063*
X54058Y61666D02*
Y64063D01*
X54609Y62390D02*
Y63339D01*
X54135Y62864D02*
X55084D01*
X52788Y61666D02*
X53891D01*
X52788Y64063D02*
X53891D01*
X52788Y61666D02*
Y64063D01*
X53891Y61666D02*
Y64063D01*
X53339Y62390D02*
Y63339D01*
X52865Y62864D02*
X53814D01*
X51518Y61666D02*
X52621D01*
X51518Y64063D02*
X52621D01*
X51518Y61666D02*
Y64063D01*
X52621Y61666D02*
Y64063D01*
X52069Y62390D02*
Y63339D01*
X51595Y62864D02*
X52544D01*
X50248Y61666D02*
X51351D01*
X50248Y64063D02*
X51351D01*
X50248Y61666D02*
Y64063D01*
X51351Y61666D02*
Y64063D01*
X50799Y62390D02*
Y63339D01*
X50325Y62864D02*
X51274D01*
X48978Y61666D02*
X50081D01*
X48978Y64063D02*
X50081D01*
X48978Y61666D02*
Y64063D01*
X50081Y61666D02*
Y64063D01*
X49529Y62390D02*
Y63339D01*
X49055Y62864D02*
X50004D01*
X46438Y61666D02*
X47541D01*
X46438Y64063D02*
X47541D01*
X46438Y61666D02*
Y64063D01*
X47541Y61666D02*
Y64063D01*
X46989Y62390D02*
Y63339D01*
X46515Y62864D02*
X47464D01*
X45168Y61666D02*
X46271D01*
X45168Y64063D02*
X46271D01*
X45168Y61666D02*
Y64063D01*
X46271Y61666D02*
Y64063D01*
X45719Y62390D02*
Y63339D01*
X45245Y62864D02*
X46194D01*
X68524Y60027D02*
Y61130D01*
X70921Y60027D02*
Y61130D01*
X68524Y60027D02*
X70921D01*
X68524Y61130D02*
X70921D01*
X69248Y60578D02*
X70197D01*
X69722Y60104D02*
Y61053D01*
X77287Y59519D02*
Y60622D01*
X79684Y59519D02*
Y60622D01*
X77287Y59519D02*
X79684D01*
X77287Y60622D02*
X79684D01*
X78011Y60070D02*
X78960D01*
X78485Y59596D02*
Y60545D01*
X83240Y59519D02*
Y60622D01*
X80843Y59519D02*
Y60622D01*
X83240*
X80843Y59519D02*
X83240D01*
X81567Y60070D02*
X82516D01*
X82041Y59596D02*
Y60545D01*
X87713Y58729D02*
X88816D01*
X87713Y56332D02*
X88816D01*
X87713D02*
Y58729D01*
X88816Y56332D02*
Y58729D01*
X88264Y57056D02*
Y58005D01*
X87790Y57530D02*
X88739D01*
X75493Y60027D02*
Y61130D01*
X73096Y60027D02*
Y61130D01*
X75493*
X73096Y60027D02*
X75493D01*
X73820Y60578D02*
X74769D01*
X74294Y60104D02*
Y61053D01*
X70048Y56471D02*
Y57574D01*
X72445Y56471D02*
Y57574D01*
X70048D02*
X72445D01*
X70048Y56471D02*
X72445D01*
X70772Y57022D02*
X71721D01*
X71246Y56548D02*
Y57497D01*
X66901Y59375D02*
Y61274D01*
X63400Y59375D02*
Y61274D01*
Y59375D02*
X66901D01*
X63400Y61274D02*
X66901D01*
X64650Y60324D02*
X65651D01*
X65150Y59824D02*
Y60825D01*
X75001Y57233D02*
Y58336D01*
X77398Y57233D02*
Y58336D01*
X75001Y57233D02*
X77398D01*
X75001Y58336D02*
X77398D01*
X75725Y57784D02*
X76674D01*
X76199Y57310D02*
Y58259D01*
X75001Y55709D02*
Y56812D01*
X77398Y55709D02*
Y56812D01*
X75001Y55709D02*
X77398D01*
X75001Y56812D02*
X77398D01*
X75725Y56260D02*
X76674D01*
X76199Y55786D02*
Y56735D01*
X73588Y55709D02*
Y56812D01*
X71191Y55709D02*
Y56812D01*
X73588*
X71191Y55709D02*
X73588D01*
X71915Y56260D02*
X72864D01*
X72389Y55786D02*
Y56735D01*
X73588Y57233D02*
Y58336D01*
X71191Y57233D02*
Y58336D01*
X73588*
X71191Y57233D02*
X73588D01*
X71915Y57784D02*
X72864D01*
X72389Y57310D02*
Y58259D01*
X59138Y47553D02*
X60241D01*
X59138Y45156D02*
X60241D01*
X59138D02*
Y47553D01*
X60241Y45156D02*
Y47553D01*
X59689Y45880D02*
Y46829D01*
X59215Y46354D02*
X60164D01*
X81998Y47553D02*
X83101D01*
X81998Y45156D02*
X83101D01*
X81998D02*
Y47553D01*
X83101Y45156D02*
Y47553D01*
X82549Y45880D02*
Y46829D01*
X82075Y46354D02*
X83024D01*
X84538Y47553D02*
X85641D01*
X84538Y45156D02*
X85641D01*
X84538D02*
Y47553D01*
X85641Y45156D02*
Y47553D01*
X85089Y45880D02*
Y46829D01*
X84615Y46354D02*
X85564D01*
X121749Y60634D02*
X122852D01*
X121749Y58237D02*
X122852D01*
Y60634*
X121749Y58237D02*
Y60634D01*
X122300Y58961D02*
Y59910D01*
X121826Y59435D02*
X122775D01*
X85280Y63055D02*
Y80454D01*
X102679Y63055D02*
Y80454D01*
X85280D02*
X102679D01*
X85280Y63055D02*
X102679D01*
X93479Y71754D02*
X94480D01*
X93979Y71254D02*
Y72255D01*
X119082Y74112D02*
X120185D01*
X119082Y76509D02*
X120185D01*
X119082Y74112D02*
Y76509D01*
X120185Y74112D02*
Y76509D01*
X119633Y74836D02*
Y75785D01*
X119159Y75310D02*
X120108D01*
X119082Y71318D02*
X120185D01*
X119082Y73715D02*
X120185D01*
X119082Y71318D02*
Y73715D01*
X120185Y71318D02*
Y73715D01*
X119633Y72042D02*
Y72991D01*
X119159Y72516D02*
X120108D01*
X106763Y64206D02*
X107866D01*
X106763Y66603D02*
X107866D01*
X106763Y64206D02*
Y66603D01*
X107866Y64206D02*
Y66603D01*
X107314Y64930D02*
Y65879D01*
X106840Y65404D02*
X107789D01*
X96857Y86288D02*
X97960D01*
X96857Y83891D02*
X97960D01*
Y86288*
X96857Y83891D02*
Y86288D01*
X97408Y84615D02*
Y85564D01*
X96934Y85089D02*
X97883D01*
X95460Y86288D02*
X96563D01*
X95460Y83891D02*
X96563D01*
Y86288*
X95460Y83891D02*
Y86288D01*
X96011Y84615D02*
Y85564D01*
X95537Y85089D02*
X96486D01*
X87459Y83891D02*
X88562D01*
X87459Y86288D02*
X88562D01*
X87459Y83891D02*
Y86288D01*
X88562Y83891D02*
Y86288D01*
X88010Y84615D02*
Y85564D01*
X87536Y85089D02*
X88485D01*
X78176Y81871D02*
Y82974D01*
X80573Y81871D02*
Y82974D01*
X78176D02*
X80573D01*
X78176Y81871D02*
X80573D01*
X78900Y82422D02*
X79849D01*
X79374Y81948D02*
Y82897D01*
X79585Y77541D02*
X80688D01*
X79585Y79938D02*
X80688D01*
X79585Y77541D02*
Y79938D01*
X80688Y77541D02*
Y79938D01*
X80136Y78265D02*
Y79214D01*
X79662Y78739D02*
X80611D01*
X77299Y79938D02*
X78402D01*
X77299Y77541D02*
X78402D01*
Y79938*
X77299Y77541D02*
Y79938D01*
X77850Y78265D02*
Y79214D01*
X77376Y78739D02*
X78325D01*
X78176Y83268D02*
Y84371D01*
X80573Y83268D02*
Y84371D01*
X78176D02*
X80573D01*
X78176Y83268D02*
X80573D01*
X78900Y83819D02*
X79849D01*
X79374Y83345D02*
Y84294D01*
X50248Y46299D02*
X51351D01*
X50248Y48696D02*
X51351D01*
Y46299D02*
Y48696D01*
X50248Y46299D02*
Y48696D01*
X50799Y47023D02*
Y47972D01*
X50325Y47497D02*
X51274D01*
X46438Y46299D02*
X47541D01*
X46438Y48696D02*
X47541D01*
Y46299D02*
Y48696D01*
X46438Y46299D02*
Y48696D01*
X46989Y47023D02*
Y47972D01*
X46515Y47497D02*
X47464D01*
X96194Y53042D02*
Y54145D01*
X93797Y53042D02*
Y54145D01*
Y53042D02*
X96194D01*
X93797Y54145D02*
X96194D01*
X94521Y53593D02*
X95470D01*
X94995Y53119D02*
Y54068D01*
X149169Y88094D02*
Y89197D01*
X151566Y88094D02*
Y89197D01*
X149169D02*
X151566D01*
X149169Y88094D02*
X151566D01*
X149893Y88645D02*
X150842D01*
X150367Y88171D02*
Y89120D01*
X152102Y89098D02*
X153205D01*
X152102Y91495D02*
X153205D01*
X152102Y89098D02*
Y91495D01*
X153205Y89098D02*
Y91495D01*
X152653Y89822D02*
Y90771D01*
X152179Y90296D02*
X153128D01*
X89982Y99214D02*
X91881D01*
X89982Y102715D02*
X91881D01*
Y99214D02*
Y102715D01*
X89982Y99214D02*
Y102715D01*
X90931Y100464D02*
Y101465D01*
X90431Y100964D02*
X91432D01*
X79822Y102715D02*
X81721D01*
X79822Y99214D02*
X81721D01*
X79822D02*
Y102715D01*
X81721Y99214D02*
Y102715D01*
X80771Y100464D02*
Y101465D01*
X80271Y100964D02*
X81272D01*
X86172Y99214D02*
X88071D01*
X86172Y102715D02*
X88071D01*
X86172Y99214D02*
Y102715D01*
X88071Y99214D02*
Y102715D01*
X87121Y100464D02*
Y101465D01*
X86621Y100964D02*
X87622D01*
X76012Y102715D02*
X77911D01*
X76012Y99214D02*
X77911D01*
Y102715*
X76012Y99214D02*
Y102715D01*
X76961Y100464D02*
Y101465D01*
X76461Y100964D02*
X77462D01*
X88712Y99214D02*
X90611D01*
X88712Y102715D02*
X90611D01*
X88712Y99214D02*
Y102715D01*
X90611Y99214D02*
Y102715D01*
X89661Y100464D02*
Y101465D01*
X89161Y100964D02*
X90162D01*
X78552Y102715D02*
X80451D01*
X78552Y99214D02*
X80451D01*
Y102715*
X78552Y99214D02*
Y102715D01*
X79501Y100464D02*
Y101465D01*
X79001Y100964D02*
X80002D01*
X87442Y99214D02*
X89341D01*
X87442Y102715D02*
X89341D01*
Y99214D02*
Y102715D01*
X87442Y99214D02*
Y102715D01*
X88391Y100464D02*
Y101465D01*
X87891Y100964D02*
X88892D01*
X82362Y102715D02*
X84261D01*
X82362Y99214D02*
X84261D01*
X82362D02*
Y102715D01*
X84261Y99214D02*
Y102715D01*
X83311Y100464D02*
Y101465D01*
X82811Y100964D02*
X83812D01*
X114747Y99214D02*
X116646D01*
X114747Y102715D02*
X116646D01*
Y99214D02*
Y102715D01*
X114747Y99214D02*
Y102715D01*
X115696Y100464D02*
Y101465D01*
X115196Y100964D02*
X116197D01*
X81092Y102715D02*
X82991D01*
X81092Y99214D02*
X82991D01*
Y102715*
X81092Y99214D02*
Y102715D01*
X82041Y100464D02*
Y101465D01*
X81541Y100964D02*
X82542D01*
X83632Y99214D02*
X85531D01*
X83632Y102715D02*
X85531D01*
X83632Y99214D02*
Y102715D01*
X85531Y99214D02*
Y102715D01*
X84581Y100464D02*
Y101465D01*
X84081Y100964D02*
X85082D01*
X84902Y99214D02*
X86801D01*
X84902Y102715D02*
X86801D01*
Y99214D02*
Y102715D01*
X84902Y99214D02*
Y102715D01*
X85851Y100464D02*
Y101465D01*
X85351Y100964D02*
X86352D01*
X140782Y102715D02*
X142681D01*
X140782Y99214D02*
X142681D01*
Y102715*
X140782Y99214D02*
Y102715D01*
X141731Y100464D02*
Y101465D01*
X141231Y100964D02*
X142232D01*
X143322Y99214D02*
X145221D01*
X143322Y102715D02*
X145221D01*
X143322Y99214D02*
Y102715D01*
X145221Y99214D02*
Y102715D01*
X144271Y100464D02*
Y101465D01*
X143771Y100964D02*
X144772D01*
X107127Y102715D02*
X109026D01*
X107127Y99214D02*
X109026D01*
X107127D02*
Y102715D01*
X109026Y99214D02*
Y102715D01*
X108076Y100464D02*
Y101465D01*
X107576Y100964D02*
X108577D01*
X122367Y99214D02*
X124266D01*
X122367Y102715D02*
X124266D01*
Y99214D02*
Y102715D01*
X122367Y99214D02*
Y102715D01*
X123316Y100464D02*
Y101465D01*
X122816Y100964D02*
X123817D01*
X142052Y102715D02*
X143951D01*
X142052Y99214D02*
X143951D01*
X142052D02*
Y102715D01*
X143951Y99214D02*
Y102715D01*
X143001Y100464D02*
Y101465D01*
X142501Y100964D02*
X143502D01*
X147132Y99214D02*
X149031D01*
X147132Y102715D02*
X149031D01*
Y99214D02*
Y102715D01*
X147132Y99214D02*
Y102715D01*
X148081Y100464D02*
Y101465D01*
X147581Y100964D02*
X148582D01*
X117287Y99214D02*
X119186D01*
X117287Y102715D02*
X119186D01*
Y99214D02*
Y102715D01*
X117287Y99214D02*
Y102715D01*
X118236Y100464D02*
Y101465D01*
X117736Y100964D02*
X118737D01*
X112207Y102715D02*
X114106D01*
X112207Y99214D02*
X114106D01*
X112207D02*
Y102715D01*
X114106Y99214D02*
Y102715D01*
X113156Y100464D02*
Y101465D01*
X112656Y100964D02*
X113657D01*
X74742Y102715D02*
X76641D01*
X74742Y99214D02*
X76641D01*
X74742D02*
Y102715D01*
X76641Y99214D02*
Y102715D01*
X75691Y100464D02*
Y101465D01*
X75191Y100964D02*
X76192D01*
X108397Y102715D02*
X110296D01*
X108397Y99214D02*
X110296D01*
Y102715*
X108397Y99214D02*
Y102715D01*
X109346Y100464D02*
Y101465D01*
X108846Y100964D02*
X109847D01*
X116017Y99214D02*
X117916D01*
X116017Y102715D02*
X117916D01*
X116017Y99214D02*
Y102715D01*
X117916Y99214D02*
Y102715D01*
X116966Y100464D02*
Y101465D01*
X116466Y100964D02*
X117467D01*
X109667Y102715D02*
X111566D01*
X109667Y99214D02*
X111566D01*
X109667D02*
Y102715D01*
X111566Y99214D02*
Y102715D01*
X110616Y100464D02*
Y101465D01*
X110116Y100964D02*
X111117D01*
X118557Y99214D02*
X120456D01*
X118557Y102715D02*
X120456D01*
X118557Y99214D02*
Y102715D01*
X120456Y99214D02*
Y102715D01*
X119506Y100464D02*
Y101465D01*
X119006Y100964D02*
X120007D01*
X119827Y99214D02*
X121726D01*
X119827Y102715D02*
X121726D01*
Y99214D02*
Y102715D01*
X119827Y99214D02*
Y102715D01*
X120776Y100464D02*
Y101465D01*
X120276Y100964D02*
X121277D01*
X91252Y99214D02*
X93151D01*
X91252Y102715D02*
X93151D01*
X91252Y99214D02*
Y102715D01*
X93151Y99214D02*
Y102715D01*
X92201Y100464D02*
Y101465D01*
X91701Y100964D02*
X92702D01*
X73472Y102715D02*
X75371D01*
X73472Y99214D02*
X75371D01*
Y102715*
X73472Y99214D02*
Y102715D01*
X74421Y100464D02*
Y101465D01*
X73921Y100964D02*
X74922D01*
X144592Y99214D02*
X146491D01*
X144592Y102715D02*
X146491D01*
Y99214D02*
Y102715D01*
X144592Y99214D02*
Y102715D01*
X145541Y100464D02*
Y101465D01*
X145041Y100964D02*
X146042D01*
X105857Y102715D02*
X107756D01*
X105857Y99214D02*
X107756D01*
Y102715*
X105857Y99214D02*
Y102715D01*
X106806Y100464D02*
Y101465D01*
X106306Y100964D02*
X107307D01*
X113477Y99214D02*
X115376D01*
X113477Y102715D02*
X115376D01*
X113477Y99214D02*
Y102715D01*
X115376Y99214D02*
Y102715D01*
X114426Y100464D02*
Y101465D01*
X113926Y100964D02*
X114927D01*
X110937Y102715D02*
X112836D01*
X110937Y99214D02*
X112836D01*
Y102715*
X110937Y99214D02*
Y102715D01*
X111886Y100464D02*
Y101465D01*
X111386Y100964D02*
X112387D01*
X92522Y99214D02*
X94421D01*
X92522Y102715D02*
X94421D01*
Y99214D02*
Y102715D01*
X92522Y99214D02*
Y102715D01*
X93471Y100464D02*
Y101465D01*
X92971Y100964D02*
X93972D01*
X77282Y102715D02*
X79181D01*
X77282Y99214D02*
X79181D01*
X77282D02*
Y102715D01*
X79181Y99214D02*
Y102715D01*
X78231Y100464D02*
Y101465D01*
X77731Y100964D02*
X78732D01*
X139512Y102715D02*
X141411D01*
X139512Y99214D02*
X141411D01*
X139512D02*
Y102715D01*
X141411Y99214D02*
Y102715D01*
X140461Y100464D02*
Y101465D01*
X139961Y100964D02*
X140962D01*
X104587Y102715D02*
X106486D01*
X104587Y99214D02*
X106486D01*
X104587D02*
Y102715D01*
X106486Y99214D02*
Y102715D01*
X105536Y100464D02*
Y101465D01*
X105036Y100964D02*
X106037D01*
X149672Y99214D02*
X151571D01*
X149672Y102715D02*
X151571D01*
Y99214D02*
Y102715D01*
X149672Y99214D02*
Y102715D01*
X150621Y100464D02*
Y101465D01*
X150121Y100964D02*
X151122D01*
X145862Y99214D02*
X147761D01*
X145862Y102715D02*
X147761D01*
X145862Y99214D02*
Y102715D01*
X147761Y99214D02*
Y102715D01*
X146811Y100464D02*
Y101465D01*
X146311Y100964D02*
X147312D01*
X135702Y102715D02*
X137601D01*
X135702Y99214D02*
X137601D01*
Y102715*
X135702Y99214D02*
Y102715D01*
X136651Y100464D02*
Y101465D01*
X136151Y100964D02*
X137152D01*
X148402Y99214D02*
X150301D01*
X148402Y102715D02*
X150301D01*
X148402Y99214D02*
Y102715D01*
X150301Y99214D02*
Y102715D01*
X149351Y100464D02*
Y101465D01*
X148851Y100964D02*
X149852D01*
X136972Y102715D02*
X138871D01*
X136972Y99214D02*
X138871D01*
X136972D02*
Y102715D01*
X138871Y99214D02*
Y102715D01*
X137921Y100464D02*
Y101465D01*
X137421Y100964D02*
X138422D01*
X138242Y102715D02*
X140141D01*
X138242Y99214D02*
X140141D01*
Y102715*
X138242Y99214D02*
Y102715D01*
X139191Y100464D02*
Y101465D01*
X138691Y100964D02*
X139692D01*
X152212Y99214D02*
X154111D01*
X152212Y102715D02*
X154111D01*
Y99214D02*
Y102715D01*
X152212Y99214D02*
Y102715D01*
X153161Y100464D02*
Y101465D01*
X152661Y100964D02*
X153662D01*
X121097Y99214D02*
X122996D01*
X121097Y102715D02*
X122996D01*
X121097Y99214D02*
Y102715D01*
X122996Y99214D02*
Y102715D01*
X122046Y100464D02*
Y101465D01*
X121546Y100964D02*
X122547D01*
X103317Y102715D02*
X105216D01*
X103317Y99214D02*
X105216D01*
Y102715*
X103317Y99214D02*
Y102715D01*
X104266Y100464D02*
Y101465D01*
X103766Y100964D02*
X104767D01*
X133162Y102715D02*
X135061D01*
X133162Y99214D02*
X135061D01*
Y102715*
X133162Y99214D02*
Y102715D01*
X134111Y100464D02*
Y101465D01*
X133611Y100964D02*
X134612D01*
X150942Y99214D02*
X152841D01*
X150942Y102715D02*
X152841D01*
X150942Y99214D02*
Y102715D01*
X152841Y99214D02*
Y102715D01*
X151891Y100464D02*
Y101465D01*
X151391Y100964D02*
X152392D01*
X134432Y102715D02*
X136331D01*
X134432Y99214D02*
X136331D01*
X134432D02*
Y102715D01*
X136331Y99214D02*
Y102715D01*
X135381Y100464D02*
Y101465D01*
X134881Y100964D02*
X135882D01*
X55057Y99214D02*
X56956D01*
X55057Y102715D02*
X56956D01*
Y99214D02*
Y102715D01*
X55057Y99214D02*
Y102715D01*
X56006Y100464D02*
Y101465D01*
X55506Y100964D02*
X56507D01*
X51247Y102715D02*
X53146D01*
X51247Y99214D02*
X53146D01*
Y102715*
X51247Y99214D02*
Y102715D01*
X52196Y100464D02*
Y101465D01*
X51696Y100964D02*
X52697D01*
X52517Y102715D02*
X54416D01*
X52517Y99214D02*
X54416D01*
X52517D02*
Y102715D01*
X54416Y99214D02*
Y102715D01*
X53466Y100464D02*
Y101465D01*
X52966Y100964D02*
X53967D01*
X57597Y99214D02*
X59496D01*
X57597Y102715D02*
X59496D01*
Y99214D02*
Y102715D01*
X57597Y99214D02*
Y102715D01*
X58546Y100464D02*
Y101465D01*
X58046Y100964D02*
X59047D01*
X53787Y99214D02*
X55686D01*
X53787Y102715D02*
X55686D01*
X53787Y99214D02*
Y102715D01*
X55686Y99214D02*
Y102715D01*
X54736Y100464D02*
Y101465D01*
X54236Y100964D02*
X55237D01*
X48707Y102715D02*
X50606D01*
X48707Y99214D02*
X50606D01*
Y102715*
X48707Y99214D02*
Y102715D01*
X49656Y100464D02*
Y101465D01*
X49156Y100964D02*
X50157D01*
X56327Y99214D02*
X58226D01*
X56327Y102715D02*
X58226D01*
X56327Y99214D02*
Y102715D01*
X58226Y99214D02*
Y102715D01*
X57276Y100464D02*
Y101465D01*
X56776Y100964D02*
X57777D01*
X49977Y102715D02*
X51876D01*
X49977Y99214D02*
X51876D01*
X49977D02*
Y102715D01*
X51876Y99214D02*
Y102715D01*
X50926Y100464D02*
Y101465D01*
X50426Y100964D02*
X51427D01*
X60137Y99214D02*
X62036D01*
X60137Y102715D02*
X62036D01*
Y99214D02*
Y102715D01*
X60137Y99214D02*
Y102715D01*
X61086Y100464D02*
Y101465D01*
X60586Y100964D02*
X61587D01*
X46167Y102715D02*
X48066D01*
X46167Y99214D02*
X48066D01*
Y102715*
X46167Y99214D02*
Y102715D01*
X47116Y100464D02*
Y101465D01*
X46616Y100964D02*
X47617D01*
X58867Y99214D02*
X60766D01*
X58867Y102715D02*
X60766D01*
X58867Y99214D02*
Y102715D01*
X60766Y99214D02*
Y102715D01*
X59816Y100464D02*
Y101465D01*
X59316Y100964D02*
X60317D01*
X47437Y102715D02*
X49336D01*
X47437Y99214D02*
X49336D01*
X47437D02*
Y102715D01*
X49336Y99214D02*
Y102715D01*
X48386Y100464D02*
Y101465D01*
X47886Y100964D02*
X48887D01*
X62677Y99214D02*
X64576D01*
X62677Y102715D02*
X64576D01*
Y99214D02*
Y102715D01*
X62677Y99214D02*
Y102715D01*
X63626Y100464D02*
Y101465D01*
X63126Y100964D02*
X64127D01*
X43627Y102715D02*
X45526D01*
X43627Y99214D02*
X45526D01*
Y102715*
X43627Y99214D02*
Y102715D01*
X44576Y100464D02*
Y101465D01*
X44076Y100964D02*
X45077D01*
X61407Y99214D02*
X63306D01*
X61407Y102715D02*
X63306D01*
X61407Y99214D02*
Y102715D01*
X63306Y99214D02*
Y102715D01*
X62356Y100464D02*
Y101465D01*
X61856Y100964D02*
X62857D01*
X44897Y102715D02*
X46796D01*
X44897Y99214D02*
X46796D01*
X44897D02*
Y102715D01*
X46796Y99214D02*
Y102715D01*
X45846Y100464D02*
Y101465D01*
X45346Y100964D02*
X46347D01*
X50114Y88574D02*
Y98176D01*
X59613Y88574D02*
Y98176D01*
X50114Y88574D02*
X59613D01*
X50114Y98176D02*
X59613D01*
X54363Y92074D02*
X55364D01*
X54863Y91574D02*
Y92575D01*
X79959Y88574D02*
Y98176D01*
X89458Y88574D02*
Y98176D01*
X79959Y88574D02*
X89458D01*
X79959Y98176D02*
X89458D01*
X84208Y92074D02*
X85209D01*
X84708Y91574D02*
Y92575D01*
X109804Y88574D02*
Y98176D01*
X119303Y88574D02*
Y98176D01*
X109804Y88574D02*
X119303D01*
X109804Y98176D02*
X119303D01*
X114053Y92074D02*
X115054D01*
X114553Y91574D02*
Y92575D01*
X139649Y88574D02*
Y98176D01*
X149148Y88574D02*
Y98176D01*
X139649Y88574D02*
X149148D01*
X139649Y98176D02*
X149148D01*
X143898Y92074D02*
X144899D01*
X144398Y91574D02*
Y92575D01*
X91130Y70695D02*
Y71798D01*
X93527Y70695D02*
Y71798D01*
X91130Y70695D02*
X93527D01*
X91130Y71798D02*
X93527D01*
X91854Y71246D02*
X92803D01*
X92328Y70772D02*
Y71721D01*
X132798Y47553D02*
X133901D01*
X132798Y45156D02*
X133901D01*
X132798D02*
Y47553D01*
X133901Y45156D02*
Y47553D01*
X133349Y45880D02*
Y46829D01*
X132875Y46354D02*
X133824D01*
X135338Y47553D02*
X136441D01*
X135338Y45156D02*
X136441D01*
X135338D02*
Y47553D01*
X136441Y45156D02*
Y47553D01*
X135889Y45880D02*
Y46829D01*
X135415Y46354D02*
X136364D01*
X115450Y59181D02*
X116451D01*
X115950Y58681D02*
Y59682D01*
X121201Y55432D02*
Y62931D01*
X110700Y55432D02*
Y62931D01*
X121201*
X110700Y55432D02*
X121201D01*
X117149Y53423D02*
Y54526D01*
X114752Y53423D02*
Y54526D01*
Y53423D02*
X117149D01*
X114752Y54526D02*
X117149D01*
X115476Y53974D02*
X116425D01*
X115950Y53500D02*
Y54449D01*
X113974Y53423D02*
Y54526D01*
X111577Y53423D02*
Y54526D01*
Y53423D02*
X113974D01*
X111577Y54526D02*
X113974D01*
X112301Y53974D02*
X113250D01*
X112775Y53500D02*
Y54449D01*
X108795Y58237D02*
X109898D01*
X108795Y60634D02*
X109898D01*
X108795Y58237D02*
Y60634D01*
X109898Y58237D02*
Y60634D01*
X109346Y58961D02*
Y59910D01*
X108872Y59435D02*
X109821D01*
X108795Y61158D02*
X109898D01*
X108795Y63555D02*
X109898D01*
X108795Y61158D02*
Y63555D01*
X109898Y61158D02*
Y63555D01*
X109346Y61882D02*
Y62831D01*
X108872Y62356D02*
X109821D01*
X139854Y70678D02*
Y72577D01*
X143355Y70678D02*
Y72577D01*
X139854D02*
X143355D01*
X139854Y70678D02*
X143355D01*
X141104Y71627D02*
X142105D01*
X141604Y71127D02*
Y72128D01*
X146204Y70678D02*
Y72577D01*
X149705Y70678D02*
Y72577D01*
X146204D02*
X149705D01*
X146204Y70678D02*
X149705D01*
X147454Y71627D02*
X148455D01*
X147954Y71127D02*
Y72128D01*
X146204Y79314D02*
Y81213D01*
X149705Y79314D02*
Y81213D01*
X146204D02*
X149705D01*
X146204Y79314D02*
X149705D01*
X147454Y80263D02*
X148455D01*
X147954Y79763D02*
Y80764D01*
X139854Y79314D02*
Y81213D01*
X143355Y79314D02*
Y81213D01*
X139854D02*
X143355D01*
X139854Y79314D02*
X143355D01*
X141104Y80263D02*
X142105D01*
X141604Y79763D02*
Y80764D01*
X133504Y79314D02*
Y81213D01*
X137005Y79314D02*
Y81213D01*
X133504D02*
X137005D01*
X133504Y79314D02*
X137005D01*
X134754Y80263D02*
X135755D01*
X135254Y79763D02*
Y80764D01*
X127154Y79314D02*
Y81213D01*
X130655Y79314D02*
Y81213D01*
X127154D02*
X130655D01*
X127154Y79314D02*
X130655D01*
X128404Y80263D02*
X129405D01*
X128904Y79763D02*
Y80764D01*
X133504Y70678D02*
Y72577D01*
X137005Y70678D02*
Y72577D01*
X133504D02*
X137005D01*
X133504Y70678D02*
X137005D01*
X134754Y71627D02*
X135755D01*
X135254Y71127D02*
Y72128D01*
X127154Y70678D02*
Y72577D01*
X130655Y70678D02*
Y72577D01*
X127154D02*
X130655D01*
X127154Y70678D02*
X130655D01*
X128404Y71627D02*
X129405D01*
X128904Y71127D02*
Y72128D01*
X141739Y84581D02*
X142740D01*
X142239Y84081D02*
Y85082D01*
X144790Y81831D02*
Y87332D01*
X139689Y81831D02*
Y87332D01*
X144790*
X139689Y81831D02*
X144790D01*
X148089Y84571D02*
X149090D01*
X148589Y84071D02*
Y85072D01*
X151140Y81821D02*
Y87320D01*
X146039Y81821D02*
Y87320D01*
X151140*
X146039Y81821D02*
X151140D01*
X148089Y75935D02*
X149090D01*
X148589Y75435D02*
Y76436D01*
X151140Y73185D02*
Y78684D01*
X146039Y73185D02*
Y78684D01*
X151140*
X146039Y73185D02*
X151140D01*
X141739Y75935D02*
X142740D01*
X142239Y75435D02*
Y76436D01*
X144790Y73185D02*
Y78684D01*
X139689Y73185D02*
Y78684D01*
X144790*
X139689Y73185D02*
X144790D01*
X135389Y75935D02*
X136390D01*
X135889Y75435D02*
Y76436D01*
X138440Y73185D02*
Y78684D01*
X133339Y73185D02*
Y78684D01*
X138440*
X133339Y73185D02*
X138440D01*
X135389Y84571D02*
X136390D01*
X135889Y84071D02*
Y85072D01*
X138440Y81821D02*
Y87320D01*
X133339Y81821D02*
Y87320D01*
X138440*
X133339Y81821D02*
X138440D01*
X129039Y84571D02*
X130040D01*
X129539Y84071D02*
Y85072D01*
X132090Y81821D02*
Y87320D01*
X126989Y81821D02*
Y87320D01*
X132090*
X126989Y81821D02*
X132090D01*
X129039Y75935D02*
X130040D01*
X129539Y75435D02*
Y76436D01*
X132090Y73185D02*
Y78684D01*
X126989Y73185D02*
Y78684D01*
X132090*
X126989Y73185D02*
X132090D01*
X162643Y58491D02*
X163746D01*
X162643Y60888D02*
X163746D01*
X162643Y58491D02*
Y60888D01*
X163746Y58491D02*
Y60888D01*
X163194Y59215D02*
Y60164D01*
X162720Y59689D02*
X163669D01*
X160992Y60888D02*
X162095D01*
X160992Y58491D02*
X162095D01*
Y60888*
X160992Y58491D02*
Y60888D01*
X161543Y59215D02*
Y60164D01*
X161069Y59689D02*
X162018D01*
X162643Y61285D02*
X163746D01*
X162643Y63682D02*
X163746D01*
X162643Y61285D02*
Y63682D01*
X163746Y61285D02*
Y63682D01*
X163194Y62009D02*
Y62958D01*
X162720Y62483D02*
X163669D01*
X162643Y64079D02*
X163746D01*
X162643Y66476D02*
X163746D01*
X162643Y64079D02*
Y66476D01*
X163746Y64079D02*
Y66476D01*
X163194Y64803D02*
Y65752D01*
X162720Y65277D02*
X163669D01*
X160865Y67508D02*
X161968D01*
X160865Y69905D02*
X161968D01*
X160865Y67508D02*
Y69905D01*
X161968Y67508D02*
Y69905D01*
X161416Y68232D02*
Y69181D01*
X160942Y68706D02*
X161891D01*
X159456Y65107D02*
Y66210D01*
X161853Y65107D02*
Y66210D01*
X159456D02*
X161853D01*
X159456Y65107D02*
X161853D01*
X160180Y65658D02*
X161129D01*
X160654Y65184D02*
Y66133D01*
X143593Y47553D02*
X144696D01*
X143593Y45156D02*
X144696D01*
X143593D02*
Y47553D01*
X144696Y45156D02*
Y47553D01*
X144144Y45880D02*
Y46829D01*
X143670Y46354D02*
X144619D01*
X133433Y68508D02*
X134536D01*
X133433Y66111D02*
X134536D01*
Y68508*
X133433Y66111D02*
Y68508D01*
X133984Y66835D02*
Y67784D01*
X133510Y67309D02*
X134459D01*
X146387Y54300D02*
X147490D01*
X146387Y56697D02*
X147490D01*
X146387Y54300D02*
Y56697D01*
X147490Y54300D02*
Y56697D01*
X146938Y55024D02*
Y55973D01*
X146464Y55498D02*
X147413D01*
X78176Y87967D02*
Y89070D01*
X80573Y87967D02*
Y89070D01*
X78176D02*
X80573D01*
X78176Y87967D02*
X80573D01*
X78900Y88518D02*
X79849D01*
X79374Y88044D02*
Y88993D01*
X78176Y86316D02*
Y87419D01*
X80573Y86316D02*
Y87419D01*
X78176D02*
X80573D01*
X78176Y86316D02*
X80573D01*
X78900Y86867D02*
X79849D01*
X79374Y86393D02*
Y87342D01*
X150423Y57233D02*
Y58336D01*
X148026Y57233D02*
Y58336D01*
Y57233D02*
X150423D01*
X148026Y58336D02*
X150423D01*
X148750Y57784D02*
X149699D01*
X149224Y57310D02*
Y58259D01*
M02*