%FSAX43Y43*%
%MOMM*%
G71*
G01*
G75*
G04 Layer_Color=16711935*
%ADD10R,2.540X1.016*%
%ADD11R,2.300X2.300*%
%ADD12R,0.800X0.900*%
%ADD13R,0.800X0.350*%
%ADD14R,0.450X2.200*%
%ADD15R,3.100X2.400*%
%ADD16R,0.900X0.800*%
%ADD17R,1.000X1.300*%
%ADD18R,3.683X3.048*%
%ADD19C,0.381*%
%ADD20C,0.254*%
%ADD21C,0.889*%
%ADD22C,0.762*%
%ADD23C,0.508*%
%ADD24C,1.016*%
%ADD25C,1.270*%
%ADD26R,4.318X2.921*%
%ADD27R,4.699X3.810*%
%ADD28R,1.270X1.270*%
%ADD29R,1.172X0.820*%
%ADD30R,1.016X1.016*%
%ADD31R,1.143X1.074*%
%ADD32R,1.001X1.074*%
%ADD33R,1.143X1.074*%
%ADD34R,3.302X2.159*%
%ADD35R,3.937X2.540*%
%ADD36R,2.032X2.032*%
%ADD37R,2.024X2.159*%
%ADD38R,2.032X2.159*%
%ADD39R,2.257X2.180*%
%ADD40R,2.794X2.794*%
%ADD41R,10.287X1.778*%
%ADD42R,10.287X1.651*%
%ADD43R,0.635X0.762*%
%ADD44R,2.591X1.778*%
%ADD45R,1.575X1.397*%
%ADD46R,2.540X1.016*%
%ADD47R,1.473X29.972*%
%ADD48R,2.540X1.778*%
%ADD49R,1.524X1.397*%
%ADD50R,1.397X29.972*%
%ADD51R,7.112X2.413*%
%ADD52R,2.794X6.731*%
%ADD53R,1.016X6.731*%
%ADD54C,0.508*%
%ADD55C,1.524*%
%ADD56C,1.016*%
%ADD57R,1.500X1.500*%
%ADD58C,1.500*%
%ADD59R,1.500X1.500*%
%ADD60C,4.000*%
%ADD61R,1.524X1.524*%
%ADD62R,2.000X2.000*%
%ADD63C,2.000*%
%ADD64C,1.600*%
%ADD65C,1.778*%
%ADD66R,1.100X1.700*%
%ADD67R,2.413X3.048*%
%ADD68R,2.413X2.540*%
%ADD69R,1.898X2.032*%
%ADD70R,1.397X1.397*%
%ADD71R,2.286X2.286*%
%ADD72R,1.898X2.024*%
%ADD73R,1.898X2.041*%
%ADD74R,1.898X2.215*%
%ADD75C,0.250*%
%ADD76C,0.127*%
%ADD77C,0.200*%
%ADD78C,0.100*%
%ADD79R,2.743X1.219*%
%ADD80R,2.503X2.503*%
%ADD81R,1.003X1.103*%
%ADD82R,1.003X0.553*%
%ADD83R,0.653X2.403*%
%ADD84R,3.303X2.603*%
%ADD85R,1.103X1.003*%
%ADD86R,1.203X1.503*%
%ADD87R,3.886X3.251*%
%ADD88C,0.711*%
%ADD89C,1.727*%
%ADD90C,1.219*%
%ADD91R,1.703X1.703*%
%ADD92C,1.703*%
%ADD93R,1.703X1.703*%
%ADD94C,4.203*%
%ADD95R,2.203X2.203*%
%ADD96C,2.203*%
%ADD97C,1.803*%
%ADD98C,1.981*%
%ADD99R,1.303X1.903*%
G36*
X0084019Y0078466D02*
X0084204Y0078390D01*
X0084363Y0078267D01*
X0084486Y0078108D01*
X0084562Y0077923D01*
X0084589Y0077724D01*
X0084562Y0077525D01*
X0084486Y0077340D01*
X0084363Y0077181D01*
X0084204Y0077058D01*
X0084019Y0076982D01*
X0083820Y0076955D01*
X0083621Y0076982D01*
X0083436Y0077058D01*
X0083277Y0077181D01*
X0083154Y0077340D01*
X0083078Y0077525D01*
X0083051Y0077724D01*
X0083078Y0077923D01*
X0083154Y0078108D01*
X0083277Y0078267D01*
X0083436Y0078390D01*
X0083621Y0078466D01*
X0083820Y0078493D01*
X0084019Y0078466D01*
D02*
G37*
G36*
X0101799D02*
X0101984Y0078390D01*
X0102143Y0078267D01*
X0102266Y0078108D01*
X0102342Y0077923D01*
X0102369Y0077724D01*
X0102342Y0077525D01*
X0102266Y0077340D01*
X0102143Y0077181D01*
X0101984Y0077058D01*
X0101799Y0076982D01*
X0101600Y0076955D01*
X0101401Y0076982D01*
X0101216Y0077058D01*
X0101057Y0077181D01*
X0100934Y0077340D01*
X0100858Y0077525D01*
X0100831Y0077724D01*
X0100858Y0077923D01*
X0100934Y0078108D01*
X0101057Y0078267D01*
X0101216Y0078390D01*
X0101401Y0078466D01*
X0101600Y0078493D01*
X0101799Y0078466D01*
D02*
G37*
G36*
X0076399D02*
X0076584Y0078390D01*
X0076743Y0078267D01*
X0076866Y0078108D01*
X0076942Y0077923D01*
X0076969Y0077724D01*
X0076942Y0077525D01*
X0076866Y0077340D01*
X0076743Y0077181D01*
X0076584Y0077058D01*
X0076399Y0076982D01*
X0076200Y0076955D01*
X0076001Y0076982D01*
X0075816Y0077058D01*
X0075657Y0077181D01*
X0075534Y0077340D01*
X0075458Y0077525D01*
X0075431Y0077724D01*
X0075458Y0077923D01*
X0075534Y0078108D01*
X0075657Y0078267D01*
X0075816Y0078390D01*
X0076001Y0078466D01*
X0076200Y0078493D01*
X0076399Y0078466D01*
D02*
G37*
G36*
X0061794D02*
X0061979Y0078390D01*
X0062138Y0078267D01*
X0062261Y0078108D01*
X0062337Y0077923D01*
X0062364Y0077724D01*
X0062337Y0077525D01*
X0062261Y0077340D01*
X0062138Y0077181D01*
X0061979Y0077058D01*
X0061794Y0076982D01*
X0061595Y0076955D01*
X0061396Y0076982D01*
X0061211Y0077058D01*
X0061052Y0077181D01*
X0060929Y0077340D01*
X0060853Y0077525D01*
X0060826Y0077724D01*
X0060853Y0077923D01*
X0060929Y0078108D01*
X0061052Y0078267D01*
X0061211Y0078390D01*
X0061396Y0078466D01*
X0061595Y0078493D01*
X0061794Y0078466D01*
D02*
G37*
G36*
X0069414D02*
X0069599Y0078390D01*
X0069758Y0078267D01*
X0069881Y0078108D01*
X0069957Y0077923D01*
X0069984Y0077724D01*
X0069957Y0077525D01*
X0069881Y0077340D01*
X0069758Y0077181D01*
X0069599Y0077058D01*
X0069414Y0076982D01*
X0069215Y0076955D01*
X0069016Y0076982D01*
X0068831Y0077058D01*
X0068672Y0077181D01*
X0068549Y0077340D01*
X0068473Y0077525D01*
X0068446Y0077724D01*
X0068473Y0077923D01*
X0068549Y0078108D01*
X0068672Y0078267D01*
X0068831Y0078390D01*
X0069016Y0078466D01*
X0069215Y0078493D01*
X0069414Y0078466D01*
D02*
G37*
G36*
X0061794Y0081006D02*
X0061979Y0080930D01*
X0062138Y0080807D01*
X0062261Y0080648D01*
X0062337Y0080463D01*
X0062364Y0080264D01*
X0062337Y0080065D01*
X0062261Y0079880D01*
X0062138Y0079721D01*
X0061979Y0079598D01*
X0061794Y0079522D01*
X0061595Y0079495D01*
X0061396Y0079522D01*
X0061211Y0079598D01*
X0061052Y0079721D01*
X0060929Y0079880D01*
X0060853Y0080065D01*
X0060826Y0080264D01*
X0060853Y0080463D01*
X0060929Y0080648D01*
X0061052Y0080807D01*
X0061211Y0080930D01*
X0061396Y0081006D01*
X0061595Y0081033D01*
X0061794Y0081006D01*
D02*
G37*
G36*
X0069414D02*
X0069599Y0080930D01*
X0069758Y0080807D01*
X0069881Y0080648D01*
X0069957Y0080463D01*
X0069984Y0080264D01*
X0069957Y0080065D01*
X0069881Y0079880D01*
X0069758Y0079721D01*
X0069599Y0079598D01*
X0069414Y0079522D01*
X0069215Y0079495D01*
X0069016Y0079522D01*
X0068831Y0079598D01*
X0068672Y0079721D01*
X0068549Y0079880D01*
X0068473Y0080065D01*
X0068446Y0080264D01*
X0068473Y0080463D01*
X0068549Y0080648D01*
X0068672Y0080807D01*
X0068831Y0080930D01*
X0069016Y0081006D01*
X0069215Y0081033D01*
X0069414Y0081006D01*
D02*
G37*
G36*
X0044014D02*
X0044199Y0080930D01*
X0044358Y0080807D01*
X0044481Y0080648D01*
X0044557Y0080463D01*
X0044584Y0080264D01*
X0044557Y0080065D01*
X0044481Y0079880D01*
X0044358Y0079721D01*
X0044199Y0079598D01*
X0044014Y0079522D01*
X0043815Y0079495D01*
X0043616Y0079522D01*
X0043431Y0079598D01*
X0043272Y0079721D01*
X0043149Y0079880D01*
X0043073Y0080065D01*
X0043046Y0080264D01*
X0043073Y0080463D01*
X0043149Y0080648D01*
X0043272Y0080807D01*
X0043431Y0080930D01*
X0043616Y0081006D01*
X0043815Y0081033D01*
X0044014Y0081006D01*
D02*
G37*
G36*
X0109419Y0078466D02*
X0109604Y0078390D01*
X0109763Y0078267D01*
X0109886Y0078108D01*
X0109962Y0077923D01*
X0109989Y0077724D01*
X0109962Y0077525D01*
X0109886Y0077340D01*
X0109763Y0077181D01*
X0109604Y0077058D01*
X0109419Y0076982D01*
X0109220Y0076955D01*
X0109021Y0076982D01*
X0108836Y0077058D01*
X0108677Y0077181D01*
X0108554Y0077340D01*
X0108478Y0077525D01*
X0108451Y0077724D01*
X0108478Y0077923D01*
X0108554Y0078108D01*
X0108677Y0078267D01*
X0108836Y0078390D01*
X0109021Y0078466D01*
X0109220Y0078493D01*
X0109419Y0078466D01*
D02*
G37*
G36*
X0036394Y0081006D02*
X0036579Y0080930D01*
X0036738Y0080807D01*
X0036861Y0080648D01*
X0036937Y0080463D01*
X0036964Y0080264D01*
X0036937Y0080065D01*
X0036861Y0079880D01*
X0036738Y0079721D01*
X0036579Y0079598D01*
X0036394Y0079522D01*
X0036195Y0079495D01*
X0035996Y0079522D01*
X0035811Y0079598D01*
X0035652Y0079721D01*
X0035529Y0079880D01*
X0035453Y0080065D01*
X0035426Y0080264D01*
X0035453Y0080463D01*
X0035529Y0080648D01*
X0035652Y0080807D01*
X0035811Y0080930D01*
X0035996Y0081006D01*
X0036195Y0081033D01*
X0036394Y0081006D01*
D02*
G37*
G36*
X0069414Y0075926D02*
X0069599Y0075850D01*
X0069758Y0075727D01*
X0069881Y0075568D01*
X0069957Y0075383D01*
X0069984Y0075184D01*
X0069957Y0074985D01*
X0069881Y0074800D01*
X0069758Y0074641D01*
X0069599Y0074518D01*
X0069414Y0074442D01*
X0069215Y0074415D01*
X0069016Y0074442D01*
X0068831Y0074518D01*
X0068672Y0074641D01*
X0068549Y0074800D01*
X0068473Y0074985D01*
X0068446Y0075184D01*
X0068473Y0075383D01*
X0068549Y0075568D01*
X0068672Y0075727D01*
X0068831Y0075850D01*
X0069016Y0075926D01*
X0069215Y0075953D01*
X0069414Y0075926D01*
D02*
G37*
G36*
X0076399D02*
X0076584Y0075850D01*
X0076743Y0075727D01*
X0076866Y0075568D01*
X0076942Y0075383D01*
X0076969Y0075184D01*
X0076942Y0074985D01*
X0076866Y0074800D01*
X0076743Y0074641D01*
X0076584Y0074518D01*
X0076399Y0074442D01*
X0076200Y0074415D01*
X0076001Y0074442D01*
X0075816Y0074518D01*
X0075657Y0074641D01*
X0075534Y0074800D01*
X0075458Y0074985D01*
X0075431Y0075184D01*
X0075458Y0075383D01*
X0075534Y0075568D01*
X0075657Y0075727D01*
X0075816Y0075850D01*
X0076001Y0075926D01*
X0076200Y0075953D01*
X0076399Y0075926D01*
D02*
G37*
G36*
X0061794D02*
X0061979Y0075850D01*
X0062138Y0075727D01*
X0062261Y0075568D01*
X0062337Y0075383D01*
X0062364Y0075184D01*
X0062337Y0074985D01*
X0062261Y0074800D01*
X0062138Y0074641D01*
X0061979Y0074518D01*
X0061794Y0074442D01*
X0061595Y0074415D01*
X0061396Y0074442D01*
X0061211Y0074518D01*
X0061052Y0074641D01*
X0060929Y0074800D01*
X0060853Y0074985D01*
X0060826Y0075184D01*
X0060853Y0075383D01*
X0060929Y0075568D01*
X0061052Y0075727D01*
X0061211Y0075850D01*
X0061396Y0075926D01*
X0061595Y0075953D01*
X0061794Y0075926D01*
D02*
G37*
G36*
X0036394D02*
X0036579Y0075850D01*
X0036738Y0075727D01*
X0036861Y0075568D01*
X0036937Y0075383D01*
X0036964Y0075184D01*
X0036937Y0074985D01*
X0036861Y0074800D01*
X0036738Y0074641D01*
X0036579Y0074518D01*
X0036394Y0074442D01*
X0036195Y0074415D01*
X0035996Y0074442D01*
X0035811Y0074518D01*
X0035652Y0074641D01*
X0035529Y0074800D01*
X0035453Y0074985D01*
X0035426Y0075184D01*
X0035453Y0075383D01*
X0035529Y0075568D01*
X0035652Y0075727D01*
X0035811Y0075850D01*
X0035996Y0075926D01*
X0036195Y0075953D01*
X0036394Y0075926D01*
D02*
G37*
G36*
X0044014D02*
X0044199Y0075850D01*
X0044358Y0075727D01*
X0044481Y0075568D01*
X0044557Y0075383D01*
X0044584Y0075184D01*
X0044557Y0074985D01*
X0044481Y0074800D01*
X0044358Y0074641D01*
X0044199Y0074518D01*
X0044014Y0074442D01*
X0043815Y0074415D01*
X0043616Y0074442D01*
X0043431Y0074518D01*
X0043272Y0074641D01*
X0043149Y0074800D01*
X0043073Y0074985D01*
X0043046Y0075184D01*
X0043073Y0075383D01*
X0043149Y0075568D01*
X0043272Y0075727D01*
X0043431Y0075850D01*
X0043616Y0075926D01*
X0043815Y0075953D01*
X0044014Y0075926D01*
D02*
G37*
G36*
X0036394Y0078466D02*
X0036579Y0078390D01*
X0036738Y0078267D01*
X0036861Y0078108D01*
X0036937Y0077923D01*
X0036964Y0077724D01*
X0036937Y0077525D01*
X0036861Y0077340D01*
X0036738Y0077181D01*
X0036579Y0077058D01*
X0036394Y0076982D01*
X0036195Y0076955D01*
X0035996Y0076982D01*
X0035811Y0077058D01*
X0035652Y0077181D01*
X0035529Y0077340D01*
X0035453Y0077525D01*
X0035426Y0077724D01*
X0035453Y0077923D01*
X0035529Y0078108D01*
X0035652Y0078267D01*
X0035811Y0078390D01*
X0035996Y0078466D01*
X0036195Y0078493D01*
X0036394Y0078466D01*
D02*
G37*
G36*
X0044014D02*
X0044199Y0078390D01*
X0044358Y0078267D01*
X0044481Y0078108D01*
X0044557Y0077923D01*
X0044584Y0077724D01*
X0044557Y0077525D01*
X0044481Y0077340D01*
X0044358Y0077181D01*
X0044199Y0077058D01*
X0044014Y0076982D01*
X0043815Y0076955D01*
X0043616Y0076982D01*
X0043431Y0077058D01*
X0043272Y0077181D01*
X0043149Y0077340D01*
X0043073Y0077525D01*
X0043046Y0077724D01*
X0043073Y0077923D01*
X0043149Y0078108D01*
X0043272Y0078267D01*
X0043431Y0078390D01*
X0043616Y0078466D01*
X0043815Y0078493D01*
X0044014Y0078466D01*
D02*
G37*
G36*
X0109419Y0075926D02*
X0109604Y0075850D01*
X0109763Y0075727D01*
X0109886Y0075568D01*
X0109962Y0075383D01*
X0109989Y0075184D01*
X0109962Y0074985D01*
X0109886Y0074800D01*
X0109763Y0074641D01*
X0109604Y0074518D01*
X0109419Y0074442D01*
X0109220Y0074415D01*
X0109021Y0074442D01*
X0108836Y0074518D01*
X0108677Y0074641D01*
X0108554Y0074800D01*
X0108478Y0074985D01*
X0108451Y0075184D01*
X0108478Y0075383D01*
X0108554Y0075568D01*
X0108677Y0075727D01*
X0108836Y0075850D01*
X0109021Y0075926D01*
X0109220Y0075953D01*
X0109419Y0075926D01*
D02*
G37*
G36*
X0084019D02*
X0084204Y0075850D01*
X0084363Y0075727D01*
X0084486Y0075568D01*
X0084562Y0075383D01*
X0084589Y0075184D01*
X0084562Y0074985D01*
X0084486Y0074800D01*
X0084363Y0074641D01*
X0084204Y0074518D01*
X0084019Y0074442D01*
X0083820Y0074415D01*
X0083621Y0074442D01*
X0083436Y0074518D01*
X0083277Y0074641D01*
X0083154Y0074800D01*
X0083078Y0074985D01*
X0083051Y0075184D01*
X0083078Y0075383D01*
X0083154Y0075568D01*
X0083277Y0075727D01*
X0083436Y0075850D01*
X0083621Y0075926D01*
X0083820Y0075953D01*
X0084019Y0075926D01*
D02*
G37*
G36*
X0101799D02*
X0101984Y0075850D01*
X0102143Y0075727D01*
X0102266Y0075568D01*
X0102342Y0075383D01*
X0102369Y0075184D01*
X0102342Y0074985D01*
X0102266Y0074800D01*
X0102143Y0074641D01*
X0101984Y0074518D01*
X0101799Y0074442D01*
X0101600Y0074415D01*
X0101401Y0074442D01*
X0101216Y0074518D01*
X0101057Y0074641D01*
X0100934Y0074800D01*
X0100858Y0074985D01*
X0100831Y0075184D01*
X0100858Y0075383D01*
X0100934Y0075568D01*
X0101057Y0075727D01*
X0101216Y0075850D01*
X0101401Y0075926D01*
X0101600Y0075953D01*
X0101799Y0075926D01*
D02*
G37*
G36*
X0061794Y0086086D02*
X0061979Y0086010D01*
X0062138Y0085887D01*
X0062261Y0085728D01*
X0062337Y0085543D01*
X0062364Y0085344D01*
X0062337Y0085145D01*
X0062261Y0084960D01*
X0062138Y0084801D01*
X0061979Y0084678D01*
X0061794Y0084602D01*
X0061595Y0084575D01*
X0061396Y0084602D01*
X0061211Y0084678D01*
X0061052Y0084801D01*
X0060929Y0084960D01*
X0060853Y0085145D01*
X0060826Y0085344D01*
X0060853Y0085543D01*
X0060929Y0085728D01*
X0061052Y0085887D01*
X0061211Y0086010D01*
X0061396Y0086086D01*
X0061595Y0086113D01*
X0061794Y0086086D01*
D02*
G37*
G36*
X0069414D02*
X0069599Y0086010D01*
X0069758Y0085887D01*
X0069881Y0085728D01*
X0069957Y0085543D01*
X0069984Y0085344D01*
X0069957Y0085145D01*
X0069881Y0084960D01*
X0069758Y0084801D01*
X0069599Y0084678D01*
X0069414Y0084602D01*
X0069215Y0084575D01*
X0069016Y0084602D01*
X0068831Y0084678D01*
X0068672Y0084801D01*
X0068549Y0084960D01*
X0068473Y0085145D01*
X0068446Y0085344D01*
X0068473Y0085543D01*
X0068549Y0085728D01*
X0068672Y0085887D01*
X0068831Y0086010D01*
X0069016Y0086086D01*
X0069215Y0086113D01*
X0069414Y0086086D01*
D02*
G37*
G36*
X0044014D02*
X0044199Y0086010D01*
X0044358Y0085887D01*
X0044481Y0085728D01*
X0044557Y0085543D01*
X0044584Y0085344D01*
X0044557Y0085145D01*
X0044481Y0084960D01*
X0044358Y0084801D01*
X0044199Y0084678D01*
X0044014Y0084602D01*
X0043815Y0084575D01*
X0043616Y0084602D01*
X0043431Y0084678D01*
X0043272Y0084801D01*
X0043149Y0084960D01*
X0043073Y0085145D01*
X0043046Y0085344D01*
X0043073Y0085543D01*
X0043149Y0085728D01*
X0043272Y0085887D01*
X0043431Y0086010D01*
X0043616Y0086086D01*
X0043815Y0086113D01*
X0044014Y0086086D01*
D02*
G37*
G36*
X0101799Y0083546D02*
X0101984Y0083470D01*
X0102143Y0083347D01*
X0102266Y0083188D01*
X0102342Y0083003D01*
X0102369Y0082804D01*
X0102342Y0082605D01*
X0102266Y0082420D01*
X0102143Y0082261D01*
X0101984Y0082138D01*
X0101799Y0082062D01*
X0101600Y0082035D01*
X0101401Y0082062D01*
X0101216Y0082138D01*
X0101057Y0082261D01*
X0100934Y0082420D01*
X0100858Y0082605D01*
X0100831Y0082804D01*
X0100858Y0083003D01*
X0100934Y0083188D01*
X0101057Y0083347D01*
X0101216Y0083470D01*
X0101401Y0083546D01*
X0101600Y0083573D01*
X0101799Y0083546D01*
D02*
G37*
G36*
X0109419D02*
X0109604Y0083470D01*
X0109763Y0083347D01*
X0109886Y0083188D01*
X0109962Y0083003D01*
X0109989Y0082804D01*
X0109962Y0082605D01*
X0109886Y0082420D01*
X0109763Y0082261D01*
X0109604Y0082138D01*
X0109419Y0082062D01*
X0109220Y0082035D01*
X0109021Y0082062D01*
X0108836Y0082138D01*
X0108677Y0082261D01*
X0108554Y0082420D01*
X0108478Y0082605D01*
X0108451Y0082804D01*
X0108478Y0083003D01*
X0108554Y0083188D01*
X0108677Y0083347D01*
X0108836Y0083470D01*
X0109021Y0083546D01*
X0109220Y0083573D01*
X0109419Y0083546D01*
D02*
G37*
G36*
X0036957Y0084582D02*
X0035433D01*
Y0086106D01*
X0036957D01*
Y0084582D01*
D02*
G37*
G36*
X0076962D02*
X0075438D01*
Y0086106D01*
X0076962D01*
Y0084582D01*
D02*
G37*
G36*
X0109419Y0086086D02*
X0109604Y0086010D01*
X0109763Y0085887D01*
X0109886Y0085728D01*
X0109962Y0085543D01*
X0109989Y0085344D01*
X0109962Y0085145D01*
X0109886Y0084960D01*
X0109763Y0084801D01*
X0109604Y0084678D01*
X0109419Y0084602D01*
X0109220Y0084575D01*
X0109021Y0084602D01*
X0108836Y0084678D01*
X0108677Y0084801D01*
X0108554Y0084960D01*
X0108478Y0085145D01*
X0108451Y0085344D01*
X0108478Y0085543D01*
X0108554Y0085728D01*
X0108677Y0085887D01*
X0108836Y0086010D01*
X0109021Y0086086D01*
X0109220Y0086113D01*
X0109419Y0086086D01*
D02*
G37*
G36*
X0084019D02*
X0084204Y0086010D01*
X0084363Y0085887D01*
X0084486Y0085728D01*
X0084562Y0085543D01*
X0084589Y0085344D01*
X0084562Y0085145D01*
X0084486Y0084960D01*
X0084363Y0084801D01*
X0084204Y0084678D01*
X0084019Y0084602D01*
X0083820Y0084575D01*
X0083621Y0084602D01*
X0083436Y0084678D01*
X0083277Y0084801D01*
X0083154Y0084960D01*
X0083078Y0085145D01*
X0083051Y0085344D01*
X0083078Y0085543D01*
X0083154Y0085728D01*
X0083277Y0085887D01*
X0083436Y0086010D01*
X0083621Y0086086D01*
X0083820Y0086113D01*
X0084019Y0086086D01*
D02*
G37*
G36*
X0101799D02*
X0101984Y0086010D01*
X0102143Y0085887D01*
X0102266Y0085728D01*
X0102342Y0085543D01*
X0102369Y0085344D01*
X0102342Y0085145D01*
X0102266Y0084960D01*
X0102143Y0084801D01*
X0101984Y0084678D01*
X0101799Y0084602D01*
X0101600Y0084575D01*
X0101401Y0084602D01*
X0101216Y0084678D01*
X0101057Y0084801D01*
X0100934Y0084960D01*
X0100858Y0085145D01*
X0100831Y0085344D01*
X0100858Y0085543D01*
X0100934Y0085728D01*
X0101057Y0085887D01*
X0101216Y0086010D01*
X0101401Y0086086D01*
X0101600Y0086113D01*
X0101799Y0086086D01*
D02*
G37*
G36*
X0109419Y0081006D02*
X0109604Y0080930D01*
X0109763Y0080807D01*
X0109886Y0080648D01*
X0109962Y0080463D01*
X0109989Y0080264D01*
X0109962Y0080065D01*
X0109886Y0079880D01*
X0109763Y0079721D01*
X0109604Y0079598D01*
X0109419Y0079522D01*
X0109220Y0079495D01*
X0109021Y0079522D01*
X0108836Y0079598D01*
X0108677Y0079721D01*
X0108554Y0079880D01*
X0108478Y0080065D01*
X0108451Y0080264D01*
X0108478Y0080463D01*
X0108554Y0080648D01*
X0108677Y0080807D01*
X0108836Y0080930D01*
X0109021Y0081006D01*
X0109220Y0081033D01*
X0109419Y0081006D01*
D02*
G37*
G36*
X0036394Y0083546D02*
X0036579Y0083470D01*
X0036738Y0083347D01*
X0036861Y0083188D01*
X0036937Y0083003D01*
X0036964Y0082804D01*
X0036937Y0082605D01*
X0036861Y0082420D01*
X0036738Y0082261D01*
X0036579Y0082138D01*
X0036394Y0082062D01*
X0036195Y0082035D01*
X0035996Y0082062D01*
X0035811Y0082138D01*
X0035652Y0082261D01*
X0035529Y0082420D01*
X0035453Y0082605D01*
X0035426Y0082804D01*
X0035453Y0083003D01*
X0035529Y0083188D01*
X0035652Y0083347D01*
X0035811Y0083470D01*
X0035996Y0083546D01*
X0036195Y0083573D01*
X0036394Y0083546D01*
D02*
G37*
G36*
X0101799Y0081006D02*
X0101984Y0080930D01*
X0102143Y0080807D01*
X0102266Y0080648D01*
X0102342Y0080463D01*
X0102369Y0080264D01*
X0102342Y0080065D01*
X0102266Y0079880D01*
X0102143Y0079721D01*
X0101984Y0079598D01*
X0101799Y0079522D01*
X0101600Y0079495D01*
X0101401Y0079522D01*
X0101216Y0079598D01*
X0101057Y0079721D01*
X0100934Y0079880D01*
X0100858Y0080065D01*
X0100831Y0080264D01*
X0100858Y0080463D01*
X0100934Y0080648D01*
X0101057Y0080807D01*
X0101216Y0080930D01*
X0101401Y0081006D01*
X0101600Y0081033D01*
X0101799Y0081006D01*
D02*
G37*
G36*
X0076399D02*
X0076584Y0080930D01*
X0076743Y0080807D01*
X0076866Y0080648D01*
X0076942Y0080463D01*
X0076969Y0080264D01*
X0076942Y0080065D01*
X0076866Y0079880D01*
X0076743Y0079721D01*
X0076584Y0079598D01*
X0076399Y0079522D01*
X0076200Y0079495D01*
X0076001Y0079522D01*
X0075816Y0079598D01*
X0075657Y0079721D01*
X0075534Y0079880D01*
X0075458Y0080065D01*
X0075431Y0080264D01*
X0075458Y0080463D01*
X0075534Y0080648D01*
X0075657Y0080807D01*
X0075816Y0080930D01*
X0076001Y0081006D01*
X0076200Y0081033D01*
X0076399Y0081006D01*
D02*
G37*
G36*
X0084019D02*
X0084204Y0080930D01*
X0084363Y0080807D01*
X0084486Y0080648D01*
X0084562Y0080463D01*
X0084589Y0080264D01*
X0084562Y0080065D01*
X0084486Y0079880D01*
X0084363Y0079721D01*
X0084204Y0079598D01*
X0084019Y0079522D01*
X0083820Y0079495D01*
X0083621Y0079522D01*
X0083436Y0079598D01*
X0083277Y0079721D01*
X0083154Y0079880D01*
X0083078Y0080065D01*
X0083051Y0080264D01*
X0083078Y0080463D01*
X0083154Y0080648D01*
X0083277Y0080807D01*
X0083436Y0080930D01*
X0083621Y0081006D01*
X0083820Y0081033D01*
X0084019Y0081006D01*
D02*
G37*
G36*
X0076399Y0083546D02*
X0076584Y0083470D01*
X0076743Y0083347D01*
X0076866Y0083188D01*
X0076942Y0083003D01*
X0076969Y0082804D01*
X0076942Y0082605D01*
X0076866Y0082420D01*
X0076743Y0082261D01*
X0076584Y0082138D01*
X0076399Y0082062D01*
X0076200Y0082035D01*
X0076001Y0082062D01*
X0075816Y0082138D01*
X0075657Y0082261D01*
X0075534Y0082420D01*
X0075458Y0082605D01*
X0075431Y0082804D01*
X0075458Y0083003D01*
X0075534Y0083188D01*
X0075657Y0083347D01*
X0075816Y0083470D01*
X0076001Y0083546D01*
X0076200Y0083573D01*
X0076399Y0083546D01*
D02*
G37*
G36*
X0084019D02*
X0084204Y0083470D01*
X0084363Y0083347D01*
X0084486Y0083188D01*
X0084562Y0083003D01*
X0084589Y0082804D01*
X0084562Y0082605D01*
X0084486Y0082420D01*
X0084363Y0082261D01*
X0084204Y0082138D01*
X0084019Y0082062D01*
X0083820Y0082035D01*
X0083621Y0082062D01*
X0083436Y0082138D01*
X0083277Y0082261D01*
X0083154Y0082420D01*
X0083078Y0082605D01*
X0083051Y0082804D01*
X0083078Y0083003D01*
X0083154Y0083188D01*
X0083277Y0083347D01*
X0083436Y0083470D01*
X0083621Y0083546D01*
X0083820Y0083573D01*
X0084019Y0083546D01*
D02*
G37*
G36*
X0069414D02*
X0069599Y0083470D01*
X0069758Y0083347D01*
X0069881Y0083188D01*
X0069957Y0083003D01*
X0069984Y0082804D01*
X0069957Y0082605D01*
X0069881Y0082420D01*
X0069758Y0082261D01*
X0069599Y0082138D01*
X0069414Y0082062D01*
X0069215Y0082035D01*
X0069016Y0082062D01*
X0068831Y0082138D01*
X0068672Y0082261D01*
X0068549Y0082420D01*
X0068473Y0082605D01*
X0068446Y0082804D01*
X0068473Y0083003D01*
X0068549Y0083188D01*
X0068672Y0083347D01*
X0068831Y0083470D01*
X0069016Y0083546D01*
X0069215Y0083573D01*
X0069414Y0083546D01*
D02*
G37*
G36*
X0044014D02*
X0044199Y0083470D01*
X0044358Y0083347D01*
X0044481Y0083188D01*
X0044557Y0083003D01*
X0044584Y0082804D01*
X0044557Y0082605D01*
X0044481Y0082420D01*
X0044358Y0082261D01*
X0044199Y0082138D01*
X0044014Y0082062D01*
X0043815Y0082035D01*
X0043616Y0082062D01*
X0043431Y0082138D01*
X0043272Y0082261D01*
X0043149Y0082420D01*
X0043073Y0082605D01*
X0043046Y0082804D01*
X0043073Y0083003D01*
X0043149Y0083188D01*
X0043272Y0083347D01*
X0043431Y0083470D01*
X0043616Y0083546D01*
X0043815Y0083573D01*
X0044014Y0083546D01*
D02*
G37*
G36*
X0061794D02*
X0061979Y0083470D01*
X0062138Y0083347D01*
X0062261Y0083188D01*
X0062337Y0083003D01*
X0062364Y0082804D01*
X0062337Y0082605D01*
X0062261Y0082420D01*
X0062138Y0082261D01*
X0061979Y0082138D01*
X0061794Y0082062D01*
X0061595Y0082035D01*
X0061396Y0082062D01*
X0061211Y0082138D01*
X0061052Y0082261D01*
X0060929Y0082420D01*
X0060853Y0082605D01*
X0060826Y0082804D01*
X0060853Y0083003D01*
X0060929Y0083188D01*
X0061052Y0083347D01*
X0061211Y0083470D01*
X0061396Y0083546D01*
X0061595Y0083573D01*
X0061794Y0083546D01*
D02*
G37*
G36*
X0084019Y0065766D02*
X0084204Y0065690D01*
X0084363Y0065567D01*
X0084486Y0065408D01*
X0084562Y0065223D01*
X0084589Y0065024D01*
X0084562Y0064825D01*
X0084486Y0064640D01*
X0084363Y0064481D01*
X0084204Y0064358D01*
X0084019Y0064282D01*
X0083820Y0064255D01*
X0083621Y0064282D01*
X0083436Y0064358D01*
X0083277Y0064481D01*
X0083154Y0064640D01*
X0083078Y0064825D01*
X0083051Y0065024D01*
X0083078Y0065223D01*
X0083154Y0065408D01*
X0083277Y0065567D01*
X0083436Y0065690D01*
X0083621Y0065766D01*
X0083820Y0065793D01*
X0084019Y0065766D01*
D02*
G37*
G36*
X0101799D02*
X0101984Y0065690D01*
X0102143Y0065567D01*
X0102266Y0065408D01*
X0102342Y0065223D01*
X0102369Y0065024D01*
X0102342Y0064825D01*
X0102266Y0064640D01*
X0102143Y0064481D01*
X0101984Y0064358D01*
X0101799Y0064282D01*
X0101600Y0064255D01*
X0101401Y0064282D01*
X0101216Y0064358D01*
X0101057Y0064481D01*
X0100934Y0064640D01*
X0100858Y0064825D01*
X0100831Y0065024D01*
X0100858Y0065223D01*
X0100934Y0065408D01*
X0101057Y0065567D01*
X0101216Y0065690D01*
X0101401Y0065766D01*
X0101600Y0065793D01*
X0101799Y0065766D01*
D02*
G37*
G36*
X0076399D02*
X0076584Y0065690D01*
X0076743Y0065567D01*
X0076866Y0065408D01*
X0076942Y0065223D01*
X0076969Y0065024D01*
X0076942Y0064825D01*
X0076866Y0064640D01*
X0076743Y0064481D01*
X0076584Y0064358D01*
X0076399Y0064282D01*
X0076200Y0064255D01*
X0076001Y0064282D01*
X0075816Y0064358D01*
X0075657Y0064481D01*
X0075534Y0064640D01*
X0075458Y0064825D01*
X0075431Y0065024D01*
X0075458Y0065223D01*
X0075534Y0065408D01*
X0075657Y0065567D01*
X0075816Y0065690D01*
X0076001Y0065766D01*
X0076200Y0065793D01*
X0076399Y0065766D01*
D02*
G37*
G36*
X0061794D02*
X0061979Y0065690D01*
X0062138Y0065567D01*
X0062261Y0065408D01*
X0062337Y0065223D01*
X0062364Y0065024D01*
X0062337Y0064825D01*
X0062261Y0064640D01*
X0062138Y0064481D01*
X0061979Y0064358D01*
X0061794Y0064282D01*
X0061595Y0064255D01*
X0061396Y0064282D01*
X0061211Y0064358D01*
X0061052Y0064481D01*
X0060929Y0064640D01*
X0060853Y0064825D01*
X0060826Y0065024D01*
X0060853Y0065223D01*
X0060929Y0065408D01*
X0061052Y0065567D01*
X0061211Y0065690D01*
X0061396Y0065766D01*
X0061595Y0065793D01*
X0061794Y0065766D01*
D02*
G37*
G36*
X0069414D02*
X0069599Y0065690D01*
X0069758Y0065567D01*
X0069881Y0065408D01*
X0069957Y0065223D01*
X0069984Y0065024D01*
X0069957Y0064825D01*
X0069881Y0064640D01*
X0069758Y0064481D01*
X0069599Y0064358D01*
X0069414Y0064282D01*
X0069215Y0064255D01*
X0069016Y0064282D01*
X0068831Y0064358D01*
X0068672Y0064481D01*
X0068549Y0064640D01*
X0068473Y0064825D01*
X0068446Y0065024D01*
X0068473Y0065223D01*
X0068549Y0065408D01*
X0068672Y0065567D01*
X0068831Y0065690D01*
X0069016Y0065766D01*
X0069215Y0065793D01*
X0069414Y0065766D01*
D02*
G37*
G36*
X0061794Y0068306D02*
X0061979Y0068230D01*
X0062138Y0068107D01*
X0062261Y0067948D01*
X0062337Y0067763D01*
X0062364Y0067564D01*
X0062337Y0067365D01*
X0062261Y0067180D01*
X0062138Y0067021D01*
X0061979Y0066898D01*
X0061794Y0066822D01*
X0061595Y0066795D01*
X0061396Y0066822D01*
X0061211Y0066898D01*
X0061052Y0067021D01*
X0060929Y0067180D01*
X0060853Y0067365D01*
X0060826Y0067564D01*
X0060853Y0067763D01*
X0060929Y0067948D01*
X0061052Y0068107D01*
X0061211Y0068230D01*
X0061396Y0068306D01*
X0061595Y0068333D01*
X0061794Y0068306D01*
D02*
G37*
G36*
X0069414D02*
X0069599Y0068230D01*
X0069758Y0068107D01*
X0069881Y0067948D01*
X0069957Y0067763D01*
X0069984Y0067564D01*
X0069957Y0067365D01*
X0069881Y0067180D01*
X0069758Y0067021D01*
X0069599Y0066898D01*
X0069414Y0066822D01*
X0069215Y0066795D01*
X0069016Y0066822D01*
X0068831Y0066898D01*
X0068672Y0067021D01*
X0068549Y0067180D01*
X0068473Y0067365D01*
X0068446Y0067564D01*
X0068473Y0067763D01*
X0068549Y0067948D01*
X0068672Y0068107D01*
X0068831Y0068230D01*
X0069016Y0068306D01*
X0069215Y0068333D01*
X0069414Y0068306D01*
D02*
G37*
G36*
X0044014D02*
X0044199Y0068230D01*
X0044358Y0068107D01*
X0044481Y0067948D01*
X0044557Y0067763D01*
X0044584Y0067564D01*
X0044557Y0067365D01*
X0044481Y0067180D01*
X0044358Y0067021D01*
X0044199Y0066898D01*
X0044014Y0066822D01*
X0043815Y0066795D01*
X0043616Y0066822D01*
X0043431Y0066898D01*
X0043272Y0067021D01*
X0043149Y0067180D01*
X0043073Y0067365D01*
X0043046Y0067564D01*
X0043073Y0067763D01*
X0043149Y0067948D01*
X0043272Y0068107D01*
X0043431Y0068230D01*
X0043616Y0068306D01*
X0043815Y0068333D01*
X0044014Y0068306D01*
D02*
G37*
G36*
X0109419Y0065766D02*
X0109604Y0065690D01*
X0109763Y0065567D01*
X0109886Y0065408D01*
X0109962Y0065223D01*
X0109989Y0065024D01*
X0109962Y0064825D01*
X0109886Y0064640D01*
X0109763Y0064481D01*
X0109604Y0064358D01*
X0109419Y0064282D01*
X0109220Y0064255D01*
X0109021Y0064282D01*
X0108836Y0064358D01*
X0108677Y0064481D01*
X0108554Y0064640D01*
X0108478Y0064825D01*
X0108451Y0065024D01*
X0108478Y0065223D01*
X0108554Y0065408D01*
X0108677Y0065567D01*
X0108836Y0065690D01*
X0109021Y0065766D01*
X0109220Y0065793D01*
X0109419Y0065766D01*
D02*
G37*
G36*
X0036394Y0068306D02*
X0036579Y0068230D01*
X0036738Y0068107D01*
X0036861Y0067948D01*
X0036937Y0067763D01*
X0036964Y0067564D01*
X0036937Y0067365D01*
X0036861Y0067180D01*
X0036738Y0067021D01*
X0036579Y0066898D01*
X0036394Y0066822D01*
X0036195Y0066795D01*
X0035996Y0066822D01*
X0035811Y0066898D01*
X0035652Y0067021D01*
X0035529Y0067180D01*
X0035453Y0067365D01*
X0035426Y0067564D01*
X0035453Y0067763D01*
X0035529Y0067948D01*
X0035652Y0068107D01*
X0035811Y0068230D01*
X0035996Y0068306D01*
X0036195Y0068333D01*
X0036394Y0068306D01*
D02*
G37*
G36*
X0076399Y0063226D02*
X0076584Y0063150D01*
X0076743Y0063027D01*
X0076866Y0062868D01*
X0076942Y0062683D01*
X0076969Y0062484D01*
X0076942Y0062285D01*
X0076866Y0062100D01*
X0076743Y0061941D01*
X0076584Y0061818D01*
X0076399Y0061742D01*
X0076200Y0061715D01*
X0076001Y0061742D01*
X0075816Y0061818D01*
X0075657Y0061941D01*
X0075534Y0062100D01*
X0075458Y0062285D01*
X0075431Y0062484D01*
X0075458Y0062683D01*
X0075534Y0062868D01*
X0075657Y0063027D01*
X0075816Y0063150D01*
X0076001Y0063226D01*
X0076200Y0063253D01*
X0076399Y0063226D01*
D02*
G37*
G36*
X0084019D02*
X0084204Y0063150D01*
X0084363Y0063027D01*
X0084486Y0062868D01*
X0084562Y0062683D01*
X0084589Y0062484D01*
X0084562Y0062285D01*
X0084486Y0062100D01*
X0084363Y0061941D01*
X0084204Y0061818D01*
X0084019Y0061742D01*
X0083820Y0061715D01*
X0083621Y0061742D01*
X0083436Y0061818D01*
X0083277Y0061941D01*
X0083154Y0062100D01*
X0083078Y0062285D01*
X0083051Y0062484D01*
X0083078Y0062683D01*
X0083154Y0062868D01*
X0083277Y0063027D01*
X0083436Y0063150D01*
X0083621Y0063226D01*
X0083820Y0063253D01*
X0084019Y0063226D01*
D02*
G37*
G36*
X0061794D02*
X0061979Y0063150D01*
X0062138Y0063027D01*
X0062261Y0062868D01*
X0062337Y0062683D01*
X0062364Y0062484D01*
X0062337Y0062285D01*
X0062261Y0062100D01*
X0062138Y0061941D01*
X0061979Y0061818D01*
X0061794Y0061742D01*
X0061595Y0061715D01*
X0061396Y0061742D01*
X0061211Y0061818D01*
X0061052Y0061941D01*
X0060929Y0062100D01*
X0060853Y0062285D01*
X0060826Y0062484D01*
X0060853Y0062683D01*
X0060929Y0062868D01*
X0061052Y0063027D01*
X0061211Y0063150D01*
X0061396Y0063226D01*
X0061595Y0063253D01*
X0061794Y0063226D01*
D02*
G37*
G36*
X0036394D02*
X0036579Y0063150D01*
X0036738Y0063027D01*
X0036861Y0062868D01*
X0036937Y0062683D01*
X0036964Y0062484D01*
X0036937Y0062285D01*
X0036861Y0062100D01*
X0036738Y0061941D01*
X0036579Y0061818D01*
X0036394Y0061742D01*
X0036195Y0061715D01*
X0035996Y0061742D01*
X0035811Y0061818D01*
X0035652Y0061941D01*
X0035529Y0062100D01*
X0035453Y0062285D01*
X0035426Y0062484D01*
X0035453Y0062683D01*
X0035529Y0062868D01*
X0035652Y0063027D01*
X0035811Y0063150D01*
X0035996Y0063226D01*
X0036195Y0063253D01*
X0036394Y0063226D01*
D02*
G37*
G36*
X0044014D02*
X0044199Y0063150D01*
X0044358Y0063027D01*
X0044481Y0062868D01*
X0044557Y0062683D01*
X0044584Y0062484D01*
X0044557Y0062285D01*
X0044481Y0062100D01*
X0044358Y0061941D01*
X0044199Y0061818D01*
X0044014Y0061742D01*
X0043815Y0061715D01*
X0043616Y0061742D01*
X0043431Y0061818D01*
X0043272Y0061941D01*
X0043149Y0062100D01*
X0043073Y0062285D01*
X0043046Y0062484D01*
X0043073Y0062683D01*
X0043149Y0062868D01*
X0043272Y0063027D01*
X0043431Y0063150D01*
X0043616Y0063226D01*
X0043815Y0063253D01*
X0044014Y0063226D01*
D02*
G37*
G36*
X0036394Y0065766D02*
X0036579Y0065690D01*
X0036738Y0065567D01*
X0036861Y0065408D01*
X0036937Y0065223D01*
X0036964Y0065024D01*
X0036937Y0064825D01*
X0036861Y0064640D01*
X0036738Y0064481D01*
X0036579Y0064358D01*
X0036394Y0064282D01*
X0036195Y0064255D01*
X0035996Y0064282D01*
X0035811Y0064358D01*
X0035652Y0064481D01*
X0035529Y0064640D01*
X0035453Y0064825D01*
X0035426Y0065024D01*
X0035453Y0065223D01*
X0035529Y0065408D01*
X0035652Y0065567D01*
X0035811Y0065690D01*
X0035996Y0065766D01*
X0036195Y0065793D01*
X0036394Y0065766D01*
D02*
G37*
G36*
X0044014D02*
X0044199Y0065690D01*
X0044358Y0065567D01*
X0044481Y0065408D01*
X0044557Y0065223D01*
X0044584Y0065024D01*
X0044557Y0064825D01*
X0044481Y0064640D01*
X0044358Y0064481D01*
X0044199Y0064358D01*
X0044014Y0064282D01*
X0043815Y0064255D01*
X0043616Y0064282D01*
X0043431Y0064358D01*
X0043272Y0064481D01*
X0043149Y0064640D01*
X0043073Y0064825D01*
X0043046Y0065024D01*
X0043073Y0065223D01*
X0043149Y0065408D01*
X0043272Y0065567D01*
X0043431Y0065690D01*
X0043616Y0065766D01*
X0043815Y0065793D01*
X0044014Y0065766D01*
D02*
G37*
G36*
X0109982Y0061722D02*
X0108458D01*
Y0063246D01*
X0109982D01*
Y0061722D01*
D02*
G37*
G36*
X0101799Y0063226D02*
X0101984Y0063150D01*
X0102143Y0063027D01*
X0102266Y0062868D01*
X0102342Y0062683D01*
X0102369Y0062484D01*
X0102342Y0062285D01*
X0102266Y0062100D01*
X0102143Y0061941D01*
X0101984Y0061818D01*
X0101799Y0061742D01*
X0101600Y0061715D01*
X0101401Y0061742D01*
X0101216Y0061818D01*
X0101057Y0061941D01*
X0100934Y0062100D01*
X0100858Y0062285D01*
X0100831Y0062484D01*
X0100858Y0062683D01*
X0100934Y0062868D01*
X0101057Y0063027D01*
X0101216Y0063150D01*
X0101401Y0063226D01*
X0101600Y0063253D01*
X0101799Y0063226D01*
D02*
G37*
G36*
X0069977Y0061722D02*
X0068453D01*
Y0063246D01*
X0069977D01*
Y0061722D01*
D02*
G37*
G36*
X0044014Y0073386D02*
X0044199Y0073310D01*
X0044358Y0073187D01*
X0044481Y0073028D01*
X0044557Y0072843D01*
X0044584Y0072644D01*
X0044557Y0072445D01*
X0044481Y0072260D01*
X0044358Y0072101D01*
X0044199Y0071978D01*
X0044014Y0071902D01*
X0043815Y0071875D01*
X0043616Y0071902D01*
X0043431Y0071978D01*
X0043272Y0072101D01*
X0043149Y0072260D01*
X0043073Y0072445D01*
X0043046Y0072644D01*
X0043073Y0072843D01*
X0043149Y0073028D01*
X0043272Y0073187D01*
X0043431Y0073310D01*
X0043616Y0073386D01*
X0043815Y0073413D01*
X0044014Y0073386D01*
D02*
G37*
G36*
X0061794D02*
X0061979Y0073310D01*
X0062138Y0073187D01*
X0062261Y0073028D01*
X0062337Y0072843D01*
X0062364Y0072644D01*
X0062337Y0072445D01*
X0062261Y0072260D01*
X0062138Y0072101D01*
X0061979Y0071978D01*
X0061794Y0071902D01*
X0061595Y0071875D01*
X0061396Y0071902D01*
X0061211Y0071978D01*
X0061052Y0072101D01*
X0060929Y0072260D01*
X0060853Y0072445D01*
X0060826Y0072644D01*
X0060853Y0072843D01*
X0060929Y0073028D01*
X0061052Y0073187D01*
X0061211Y0073310D01*
X0061396Y0073386D01*
X0061595Y0073413D01*
X0061794Y0073386D01*
D02*
G37*
G36*
X0036394D02*
X0036579Y0073310D01*
X0036738Y0073187D01*
X0036861Y0073028D01*
X0036937Y0072843D01*
X0036964Y0072644D01*
X0036937Y0072445D01*
X0036861Y0072260D01*
X0036738Y0072101D01*
X0036579Y0071978D01*
X0036394Y0071902D01*
X0036195Y0071875D01*
X0035996Y0071902D01*
X0035811Y0071978D01*
X0035652Y0072101D01*
X0035529Y0072260D01*
X0035453Y0072445D01*
X0035426Y0072644D01*
X0035453Y0072843D01*
X0035529Y0073028D01*
X0035652Y0073187D01*
X0035811Y0073310D01*
X0035996Y0073386D01*
X0036195Y0073413D01*
X0036394Y0073386D01*
D02*
G37*
G36*
X0101799Y0070846D02*
X0101984Y0070770D01*
X0102143Y0070647D01*
X0102266Y0070488D01*
X0102342Y0070303D01*
X0102369Y0070104D01*
X0102342Y0069905D01*
X0102266Y0069720D01*
X0102143Y0069561D01*
X0101984Y0069438D01*
X0101799Y0069362D01*
X0101600Y0069335D01*
X0101401Y0069362D01*
X0101216Y0069438D01*
X0101057Y0069561D01*
X0100934Y0069720D01*
X0100858Y0069905D01*
X0100831Y0070104D01*
X0100858Y0070303D01*
X0100934Y0070488D01*
X0101057Y0070647D01*
X0101216Y0070770D01*
X0101401Y0070846D01*
X0101600Y0070873D01*
X0101799Y0070846D01*
D02*
G37*
G36*
X0109419D02*
X0109604Y0070770D01*
X0109763Y0070647D01*
X0109886Y0070488D01*
X0109962Y0070303D01*
X0109989Y0070104D01*
X0109962Y0069905D01*
X0109886Y0069720D01*
X0109763Y0069561D01*
X0109604Y0069438D01*
X0109419Y0069362D01*
X0109220Y0069335D01*
X0109021Y0069362D01*
X0108836Y0069438D01*
X0108677Y0069561D01*
X0108554Y0069720D01*
X0108478Y0069905D01*
X0108451Y0070104D01*
X0108478Y0070303D01*
X0108554Y0070488D01*
X0108677Y0070647D01*
X0108836Y0070770D01*
X0109021Y0070846D01*
X0109220Y0070873D01*
X0109419Y0070846D01*
D02*
G37*
G36*
X0101799Y0073386D02*
X0101984Y0073310D01*
X0102143Y0073187D01*
X0102266Y0073028D01*
X0102342Y0072843D01*
X0102369Y0072644D01*
X0102342Y0072445D01*
X0102266Y0072260D01*
X0102143Y0072101D01*
X0101984Y0071978D01*
X0101799Y0071902D01*
X0101600Y0071875D01*
X0101401Y0071902D01*
X0101216Y0071978D01*
X0101057Y0072101D01*
X0100934Y0072260D01*
X0100858Y0072445D01*
X0100831Y0072644D01*
X0100858Y0072843D01*
X0100934Y0073028D01*
X0101057Y0073187D01*
X0101216Y0073310D01*
X0101401Y0073386D01*
X0101600Y0073413D01*
X0101799Y0073386D01*
D02*
G37*
G36*
X0109419D02*
X0109604Y0073310D01*
X0109763Y0073187D01*
X0109886Y0073028D01*
X0109962Y0072843D01*
X0109989Y0072644D01*
X0109962Y0072445D01*
X0109886Y0072260D01*
X0109763Y0072101D01*
X0109604Y0071978D01*
X0109419Y0071902D01*
X0109220Y0071875D01*
X0109021Y0071902D01*
X0108836Y0071978D01*
X0108677Y0072101D01*
X0108554Y0072260D01*
X0108478Y0072445D01*
X0108451Y0072644D01*
X0108478Y0072843D01*
X0108554Y0073028D01*
X0108677Y0073187D01*
X0108836Y0073310D01*
X0109021Y0073386D01*
X0109220Y0073413D01*
X0109419Y0073386D01*
D02*
G37*
G36*
X0084019D02*
X0084204Y0073310D01*
X0084363Y0073187D01*
X0084486Y0073028D01*
X0084562Y0072843D01*
X0084589Y0072644D01*
X0084562Y0072445D01*
X0084486Y0072260D01*
X0084363Y0072101D01*
X0084204Y0071978D01*
X0084019Y0071902D01*
X0083820Y0071875D01*
X0083621Y0071902D01*
X0083436Y0071978D01*
X0083277Y0072101D01*
X0083154Y0072260D01*
X0083078Y0072445D01*
X0083051Y0072644D01*
X0083078Y0072843D01*
X0083154Y0073028D01*
X0083277Y0073187D01*
X0083436Y0073310D01*
X0083621Y0073386D01*
X0083820Y0073413D01*
X0084019Y0073386D01*
D02*
G37*
G36*
X0069414D02*
X0069599Y0073310D01*
X0069758Y0073187D01*
X0069881Y0073028D01*
X0069957Y0072843D01*
X0069984Y0072644D01*
X0069957Y0072445D01*
X0069881Y0072260D01*
X0069758Y0072101D01*
X0069599Y0071978D01*
X0069414Y0071902D01*
X0069215Y0071875D01*
X0069016Y0071902D01*
X0068831Y0071978D01*
X0068672Y0072101D01*
X0068549Y0072260D01*
X0068473Y0072445D01*
X0068446Y0072644D01*
X0068473Y0072843D01*
X0068549Y0073028D01*
X0068672Y0073187D01*
X0068831Y0073310D01*
X0069016Y0073386D01*
X0069215Y0073413D01*
X0069414Y0073386D01*
D02*
G37*
G36*
X0076399D02*
X0076584Y0073310D01*
X0076743Y0073187D01*
X0076866Y0073028D01*
X0076942Y0072843D01*
X0076969Y0072644D01*
X0076942Y0072445D01*
X0076866Y0072260D01*
X0076743Y0072101D01*
X0076584Y0071978D01*
X0076399Y0071902D01*
X0076200Y0071875D01*
X0076001Y0071902D01*
X0075816Y0071978D01*
X0075657Y0072101D01*
X0075534Y0072260D01*
X0075458Y0072445D01*
X0075431Y0072644D01*
X0075458Y0072843D01*
X0075534Y0073028D01*
X0075657Y0073187D01*
X0075816Y0073310D01*
X0076001Y0073386D01*
X0076200Y0073413D01*
X0076399Y0073386D01*
D02*
G37*
G36*
X0109419Y0068306D02*
X0109604Y0068230D01*
X0109763Y0068107D01*
X0109886Y0067948D01*
X0109962Y0067763D01*
X0109989Y0067564D01*
X0109962Y0067365D01*
X0109886Y0067180D01*
X0109763Y0067021D01*
X0109604Y0066898D01*
X0109419Y0066822D01*
X0109220Y0066795D01*
X0109021Y0066822D01*
X0108836Y0066898D01*
X0108677Y0067021D01*
X0108554Y0067180D01*
X0108478Y0067365D01*
X0108451Y0067564D01*
X0108478Y0067763D01*
X0108554Y0067948D01*
X0108677Y0068107D01*
X0108836Y0068230D01*
X0109021Y0068306D01*
X0109220Y0068333D01*
X0109419Y0068306D01*
D02*
G37*
G36*
X0036394Y0070846D02*
X0036579Y0070770D01*
X0036738Y0070647D01*
X0036861Y0070488D01*
X0036937Y0070303D01*
X0036964Y0070104D01*
X0036937Y0069905D01*
X0036861Y0069720D01*
X0036738Y0069561D01*
X0036579Y0069438D01*
X0036394Y0069362D01*
X0036195Y0069335D01*
X0035996Y0069362D01*
X0035811Y0069438D01*
X0035652Y0069561D01*
X0035529Y0069720D01*
X0035453Y0069905D01*
X0035426Y0070104D01*
X0035453Y0070303D01*
X0035529Y0070488D01*
X0035652Y0070647D01*
X0035811Y0070770D01*
X0035996Y0070846D01*
X0036195Y0070873D01*
X0036394Y0070846D01*
D02*
G37*
G36*
X0101799Y0068306D02*
X0101984Y0068230D01*
X0102143Y0068107D01*
X0102266Y0067948D01*
X0102342Y0067763D01*
X0102369Y0067564D01*
X0102342Y0067365D01*
X0102266Y0067180D01*
X0102143Y0067021D01*
X0101984Y0066898D01*
X0101799Y0066822D01*
X0101600Y0066795D01*
X0101401Y0066822D01*
X0101216Y0066898D01*
X0101057Y0067021D01*
X0100934Y0067180D01*
X0100858Y0067365D01*
X0100831Y0067564D01*
X0100858Y0067763D01*
X0100934Y0067948D01*
X0101057Y0068107D01*
X0101216Y0068230D01*
X0101401Y0068306D01*
X0101600Y0068333D01*
X0101799Y0068306D01*
D02*
G37*
G36*
X0076399D02*
X0076584Y0068230D01*
X0076743Y0068107D01*
X0076866Y0067948D01*
X0076942Y0067763D01*
X0076969Y0067564D01*
X0076942Y0067365D01*
X0076866Y0067180D01*
X0076743Y0067021D01*
X0076584Y0066898D01*
X0076399Y0066822D01*
X0076200Y0066795D01*
X0076001Y0066822D01*
X0075816Y0066898D01*
X0075657Y0067021D01*
X0075534Y0067180D01*
X0075458Y0067365D01*
X0075431Y0067564D01*
X0075458Y0067763D01*
X0075534Y0067948D01*
X0075657Y0068107D01*
X0075816Y0068230D01*
X0076001Y0068306D01*
X0076200Y0068333D01*
X0076399Y0068306D01*
D02*
G37*
G36*
X0084019D02*
X0084204Y0068230D01*
X0084363Y0068107D01*
X0084486Y0067948D01*
X0084562Y0067763D01*
X0084589Y0067564D01*
X0084562Y0067365D01*
X0084486Y0067180D01*
X0084363Y0067021D01*
X0084204Y0066898D01*
X0084019Y0066822D01*
X0083820Y0066795D01*
X0083621Y0066822D01*
X0083436Y0066898D01*
X0083277Y0067021D01*
X0083154Y0067180D01*
X0083078Y0067365D01*
X0083051Y0067564D01*
X0083078Y0067763D01*
X0083154Y0067948D01*
X0083277Y0068107D01*
X0083436Y0068230D01*
X0083621Y0068306D01*
X0083820Y0068333D01*
X0084019Y0068306D01*
D02*
G37*
G36*
X0076399Y0070846D02*
X0076584Y0070770D01*
X0076743Y0070647D01*
X0076866Y0070488D01*
X0076942Y0070303D01*
X0076969Y0070104D01*
X0076942Y0069905D01*
X0076866Y0069720D01*
X0076743Y0069561D01*
X0076584Y0069438D01*
X0076399Y0069362D01*
X0076200Y0069335D01*
X0076001Y0069362D01*
X0075816Y0069438D01*
X0075657Y0069561D01*
X0075534Y0069720D01*
X0075458Y0069905D01*
X0075431Y0070104D01*
X0075458Y0070303D01*
X0075534Y0070488D01*
X0075657Y0070647D01*
X0075816Y0070770D01*
X0076001Y0070846D01*
X0076200Y0070873D01*
X0076399Y0070846D01*
D02*
G37*
G36*
X0084019D02*
X0084204Y0070770D01*
X0084363Y0070647D01*
X0084486Y0070488D01*
X0084562Y0070303D01*
X0084589Y0070104D01*
X0084562Y0069905D01*
X0084486Y0069720D01*
X0084363Y0069561D01*
X0084204Y0069438D01*
X0084019Y0069362D01*
X0083820Y0069335D01*
X0083621Y0069362D01*
X0083436Y0069438D01*
X0083277Y0069561D01*
X0083154Y0069720D01*
X0083078Y0069905D01*
X0083051Y0070104D01*
X0083078Y0070303D01*
X0083154Y0070488D01*
X0083277Y0070647D01*
X0083436Y0070770D01*
X0083621Y0070846D01*
X0083820Y0070873D01*
X0084019Y0070846D01*
D02*
G37*
G36*
X0069414D02*
X0069599Y0070770D01*
X0069758Y0070647D01*
X0069881Y0070488D01*
X0069957Y0070303D01*
X0069984Y0070104D01*
X0069957Y0069905D01*
X0069881Y0069720D01*
X0069758Y0069561D01*
X0069599Y0069438D01*
X0069414Y0069362D01*
X0069215Y0069335D01*
X0069016Y0069362D01*
X0068831Y0069438D01*
X0068672Y0069561D01*
X0068549Y0069720D01*
X0068473Y0069905D01*
X0068446Y0070104D01*
X0068473Y0070303D01*
X0068549Y0070488D01*
X0068672Y0070647D01*
X0068831Y0070770D01*
X0069016Y0070846D01*
X0069215Y0070873D01*
X0069414Y0070846D01*
D02*
G37*
G36*
X0044014D02*
X0044199Y0070770D01*
X0044358Y0070647D01*
X0044481Y0070488D01*
X0044557Y0070303D01*
X0044584Y0070104D01*
X0044557Y0069905D01*
X0044481Y0069720D01*
X0044358Y0069561D01*
X0044199Y0069438D01*
X0044014Y0069362D01*
X0043815Y0069335D01*
X0043616Y0069362D01*
X0043431Y0069438D01*
X0043272Y0069561D01*
X0043149Y0069720D01*
X0043073Y0069905D01*
X0043046Y0070104D01*
X0043073Y0070303D01*
X0043149Y0070488D01*
X0043272Y0070647D01*
X0043431Y0070770D01*
X0043616Y0070846D01*
X0043815Y0070873D01*
X0044014Y0070846D01*
D02*
G37*
G36*
X0061794D02*
X0061979Y0070770D01*
X0062138Y0070647D01*
X0062261Y0070488D01*
X0062337Y0070303D01*
X0062364Y0070104D01*
X0062337Y0069905D01*
X0062261Y0069720D01*
X0062138Y0069561D01*
X0061979Y0069438D01*
X0061794Y0069362D01*
X0061595Y0069335D01*
X0061396Y0069362D01*
X0061211Y0069438D01*
X0061052Y0069561D01*
X0060929Y0069720D01*
X0060853Y0069905D01*
X0060826Y0070104D01*
X0060853Y0070303D01*
X0060929Y0070488D01*
X0061052Y0070647D01*
X0061211Y0070770D01*
X0061396Y0070846D01*
X0061595Y0070873D01*
X0061794Y0070846D01*
D02*
G37*
G36*
X0084019Y0108946D02*
X0084204Y0108870D01*
X0084363Y0108747D01*
X0084486Y0108588D01*
X0084562Y0108403D01*
X0084589Y0108204D01*
X0084562Y0108005D01*
X0084486Y0107820D01*
X0084363Y0107661D01*
X0084204Y0107538D01*
X0084019Y0107462D01*
X0083820Y0107435D01*
X0083621Y0107462D01*
X0083436Y0107538D01*
X0083277Y0107661D01*
X0083154Y0107820D01*
X0083078Y0108005D01*
X0083051Y0108204D01*
X0083078Y0108403D01*
X0083154Y0108588D01*
X0083277Y0108747D01*
X0083436Y0108870D01*
X0083621Y0108946D01*
X0083820Y0108973D01*
X0084019Y0108946D01*
D02*
G37*
G36*
X0101799D02*
X0101984Y0108870D01*
X0102143Y0108747D01*
X0102266Y0108588D01*
X0102342Y0108403D01*
X0102369Y0108204D01*
X0102342Y0108005D01*
X0102266Y0107820D01*
X0102143Y0107661D01*
X0101984Y0107538D01*
X0101799Y0107462D01*
X0101600Y0107435D01*
X0101401Y0107462D01*
X0101216Y0107538D01*
X0101057Y0107661D01*
X0100934Y0107820D01*
X0100858Y0108005D01*
X0100831Y0108204D01*
X0100858Y0108403D01*
X0100934Y0108588D01*
X0101057Y0108747D01*
X0101216Y0108870D01*
X0101401Y0108946D01*
X0101600Y0108973D01*
X0101799Y0108946D01*
D02*
G37*
G36*
X0076399D02*
X0076584Y0108870D01*
X0076743Y0108747D01*
X0076866Y0108588D01*
X0076942Y0108403D01*
X0076969Y0108204D01*
X0076942Y0108005D01*
X0076866Y0107820D01*
X0076743Y0107661D01*
X0076584Y0107538D01*
X0076399Y0107462D01*
X0076200Y0107435D01*
X0076001Y0107462D01*
X0075816Y0107538D01*
X0075657Y0107661D01*
X0075534Y0107820D01*
X0075458Y0108005D01*
X0075431Y0108204D01*
X0075458Y0108403D01*
X0075534Y0108588D01*
X0075657Y0108747D01*
X0075816Y0108870D01*
X0076001Y0108946D01*
X0076200Y0108973D01*
X0076399Y0108946D01*
D02*
G37*
G36*
X0061794D02*
X0061979Y0108870D01*
X0062138Y0108747D01*
X0062261Y0108588D01*
X0062337Y0108403D01*
X0062364Y0108204D01*
X0062337Y0108005D01*
X0062261Y0107820D01*
X0062138Y0107661D01*
X0061979Y0107538D01*
X0061794Y0107462D01*
X0061595Y0107435D01*
X0061396Y0107462D01*
X0061211Y0107538D01*
X0061052Y0107661D01*
X0060929Y0107820D01*
X0060853Y0108005D01*
X0060826Y0108204D01*
X0060853Y0108403D01*
X0060929Y0108588D01*
X0061052Y0108747D01*
X0061211Y0108870D01*
X0061396Y0108946D01*
X0061595Y0108973D01*
X0061794Y0108946D01*
D02*
G37*
G36*
X0069414D02*
X0069599Y0108870D01*
X0069758Y0108747D01*
X0069881Y0108588D01*
X0069957Y0108403D01*
X0069984Y0108204D01*
X0069957Y0108005D01*
X0069881Y0107820D01*
X0069758Y0107661D01*
X0069599Y0107538D01*
X0069414Y0107462D01*
X0069215Y0107435D01*
X0069016Y0107462D01*
X0068831Y0107538D01*
X0068672Y0107661D01*
X0068549Y0107820D01*
X0068473Y0108005D01*
X0068446Y0108204D01*
X0068473Y0108403D01*
X0068549Y0108588D01*
X0068672Y0108747D01*
X0068831Y0108870D01*
X0069016Y0108946D01*
X0069215Y0108973D01*
X0069414Y0108946D01*
D02*
G37*
G36*
X0061794Y0111486D02*
X0061979Y0111410D01*
X0062138Y0111287D01*
X0062261Y0111128D01*
X0062337Y0110943D01*
X0062364Y0110744D01*
X0062337Y0110545D01*
X0062261Y0110360D01*
X0062138Y0110201D01*
X0061979Y0110078D01*
X0061794Y0110002D01*
X0061595Y0109975D01*
X0061396Y0110002D01*
X0061211Y0110078D01*
X0061052Y0110201D01*
X0060929Y0110360D01*
X0060853Y0110545D01*
X0060826Y0110744D01*
X0060853Y0110943D01*
X0060929Y0111128D01*
X0061052Y0111287D01*
X0061211Y0111410D01*
X0061396Y0111486D01*
X0061595Y0111513D01*
X0061794Y0111486D01*
D02*
G37*
G36*
X0069414D02*
X0069599Y0111410D01*
X0069758Y0111287D01*
X0069881Y0111128D01*
X0069957Y0110943D01*
X0069984Y0110744D01*
X0069957Y0110545D01*
X0069881Y0110360D01*
X0069758Y0110201D01*
X0069599Y0110078D01*
X0069414Y0110002D01*
X0069215Y0109975D01*
X0069016Y0110002D01*
X0068831Y0110078D01*
X0068672Y0110201D01*
X0068549Y0110360D01*
X0068473Y0110545D01*
X0068446Y0110744D01*
X0068473Y0110943D01*
X0068549Y0111128D01*
X0068672Y0111287D01*
X0068831Y0111410D01*
X0069016Y0111486D01*
X0069215Y0111513D01*
X0069414Y0111486D01*
D02*
G37*
G36*
X0044014D02*
X0044199Y0111410D01*
X0044358Y0111287D01*
X0044481Y0111128D01*
X0044557Y0110943D01*
X0044584Y0110744D01*
X0044557Y0110545D01*
X0044481Y0110360D01*
X0044358Y0110201D01*
X0044199Y0110078D01*
X0044014Y0110002D01*
X0043815Y0109975D01*
X0043616Y0110002D01*
X0043431Y0110078D01*
X0043272Y0110201D01*
X0043149Y0110360D01*
X0043073Y0110545D01*
X0043046Y0110744D01*
X0043073Y0110943D01*
X0043149Y0111128D01*
X0043272Y0111287D01*
X0043431Y0111410D01*
X0043616Y0111486D01*
X0043815Y0111513D01*
X0044014Y0111486D01*
D02*
G37*
G36*
X0109419Y0108946D02*
X0109604Y0108870D01*
X0109763Y0108747D01*
X0109886Y0108588D01*
X0109962Y0108403D01*
X0109989Y0108204D01*
X0109962Y0108005D01*
X0109886Y0107820D01*
X0109763Y0107661D01*
X0109604Y0107538D01*
X0109419Y0107462D01*
X0109220Y0107435D01*
X0109021Y0107462D01*
X0108836Y0107538D01*
X0108677Y0107661D01*
X0108554Y0107820D01*
X0108478Y0108005D01*
X0108451Y0108204D01*
X0108478Y0108403D01*
X0108554Y0108588D01*
X0108677Y0108747D01*
X0108836Y0108870D01*
X0109021Y0108946D01*
X0109220Y0108973D01*
X0109419Y0108946D01*
D02*
G37*
G36*
X0036394Y0111486D02*
X0036579Y0111410D01*
X0036738Y0111287D01*
X0036861Y0111128D01*
X0036937Y0110943D01*
X0036964Y0110744D01*
X0036937Y0110545D01*
X0036861Y0110360D01*
X0036738Y0110201D01*
X0036579Y0110078D01*
X0036394Y0110002D01*
X0036195Y0109975D01*
X0035996Y0110002D01*
X0035811Y0110078D01*
X0035652Y0110201D01*
X0035529Y0110360D01*
X0035453Y0110545D01*
X0035426Y0110744D01*
X0035453Y0110943D01*
X0035529Y0111128D01*
X0035652Y0111287D01*
X0035811Y0111410D01*
X0035996Y0111486D01*
X0036195Y0111513D01*
X0036394Y0111486D01*
D02*
G37*
G36*
X0069414Y0106406D02*
X0069599Y0106330D01*
X0069758Y0106207D01*
X0069881Y0106048D01*
X0069957Y0105863D01*
X0069984Y0105664D01*
X0069957Y0105465D01*
X0069881Y0105280D01*
X0069758Y0105121D01*
X0069599Y0104998D01*
X0069414Y0104922D01*
X0069215Y0104895D01*
X0069016Y0104922D01*
X0068831Y0104998D01*
X0068672Y0105121D01*
X0068549Y0105280D01*
X0068473Y0105465D01*
X0068446Y0105664D01*
X0068473Y0105863D01*
X0068549Y0106048D01*
X0068672Y0106207D01*
X0068831Y0106330D01*
X0069016Y0106406D01*
X0069215Y0106433D01*
X0069414Y0106406D01*
D02*
G37*
G36*
X0076399D02*
X0076584Y0106330D01*
X0076743Y0106207D01*
X0076866Y0106048D01*
X0076942Y0105863D01*
X0076969Y0105664D01*
X0076942Y0105465D01*
X0076866Y0105280D01*
X0076743Y0105121D01*
X0076584Y0104998D01*
X0076399Y0104922D01*
X0076200Y0104895D01*
X0076001Y0104922D01*
X0075816Y0104998D01*
X0075657Y0105121D01*
X0075534Y0105280D01*
X0075458Y0105465D01*
X0075431Y0105664D01*
X0075458Y0105863D01*
X0075534Y0106048D01*
X0075657Y0106207D01*
X0075816Y0106330D01*
X0076001Y0106406D01*
X0076200Y0106433D01*
X0076399Y0106406D01*
D02*
G37*
G36*
X0061794D02*
X0061979Y0106330D01*
X0062138Y0106207D01*
X0062261Y0106048D01*
X0062337Y0105863D01*
X0062364Y0105664D01*
X0062337Y0105465D01*
X0062261Y0105280D01*
X0062138Y0105121D01*
X0061979Y0104998D01*
X0061794Y0104922D01*
X0061595Y0104895D01*
X0061396Y0104922D01*
X0061211Y0104998D01*
X0061052Y0105121D01*
X0060929Y0105280D01*
X0060853Y0105465D01*
X0060826Y0105664D01*
X0060853Y0105863D01*
X0060929Y0106048D01*
X0061052Y0106207D01*
X0061211Y0106330D01*
X0061396Y0106406D01*
X0061595Y0106433D01*
X0061794Y0106406D01*
D02*
G37*
G36*
X0036394D02*
X0036579Y0106330D01*
X0036738Y0106207D01*
X0036861Y0106048D01*
X0036937Y0105863D01*
X0036964Y0105664D01*
X0036937Y0105465D01*
X0036861Y0105280D01*
X0036738Y0105121D01*
X0036579Y0104998D01*
X0036394Y0104922D01*
X0036195Y0104895D01*
X0035996Y0104922D01*
X0035811Y0104998D01*
X0035652Y0105121D01*
X0035529Y0105280D01*
X0035453Y0105465D01*
X0035426Y0105664D01*
X0035453Y0105863D01*
X0035529Y0106048D01*
X0035652Y0106207D01*
X0035811Y0106330D01*
X0035996Y0106406D01*
X0036195Y0106433D01*
X0036394Y0106406D01*
D02*
G37*
G36*
X0044014D02*
X0044199Y0106330D01*
X0044358Y0106207D01*
X0044481Y0106048D01*
X0044557Y0105863D01*
X0044584Y0105664D01*
X0044557Y0105465D01*
X0044481Y0105280D01*
X0044358Y0105121D01*
X0044199Y0104998D01*
X0044014Y0104922D01*
X0043815Y0104895D01*
X0043616Y0104922D01*
X0043431Y0104998D01*
X0043272Y0105121D01*
X0043149Y0105280D01*
X0043073Y0105465D01*
X0043046Y0105664D01*
X0043073Y0105863D01*
X0043149Y0106048D01*
X0043272Y0106207D01*
X0043431Y0106330D01*
X0043616Y0106406D01*
X0043815Y0106433D01*
X0044014Y0106406D01*
D02*
G37*
G36*
X0036394Y0108946D02*
X0036579Y0108870D01*
X0036738Y0108747D01*
X0036861Y0108588D01*
X0036937Y0108403D01*
X0036964Y0108204D01*
X0036937Y0108005D01*
X0036861Y0107820D01*
X0036738Y0107661D01*
X0036579Y0107538D01*
X0036394Y0107462D01*
X0036195Y0107435D01*
X0035996Y0107462D01*
X0035811Y0107538D01*
X0035652Y0107661D01*
X0035529Y0107820D01*
X0035453Y0108005D01*
X0035426Y0108204D01*
X0035453Y0108403D01*
X0035529Y0108588D01*
X0035652Y0108747D01*
X0035811Y0108870D01*
X0035996Y0108946D01*
X0036195Y0108973D01*
X0036394Y0108946D01*
D02*
G37*
G36*
X0044014D02*
X0044199Y0108870D01*
X0044358Y0108747D01*
X0044481Y0108588D01*
X0044557Y0108403D01*
X0044584Y0108204D01*
X0044557Y0108005D01*
X0044481Y0107820D01*
X0044358Y0107661D01*
X0044199Y0107538D01*
X0044014Y0107462D01*
X0043815Y0107435D01*
X0043616Y0107462D01*
X0043431Y0107538D01*
X0043272Y0107661D01*
X0043149Y0107820D01*
X0043073Y0108005D01*
X0043046Y0108204D01*
X0043073Y0108403D01*
X0043149Y0108588D01*
X0043272Y0108747D01*
X0043431Y0108870D01*
X0043616Y0108946D01*
X0043815Y0108973D01*
X0044014Y0108946D01*
D02*
G37*
G36*
X0109419Y0106406D02*
X0109604Y0106330D01*
X0109763Y0106207D01*
X0109886Y0106048D01*
X0109962Y0105863D01*
X0109989Y0105664D01*
X0109962Y0105465D01*
X0109886Y0105280D01*
X0109763Y0105121D01*
X0109604Y0104998D01*
X0109419Y0104922D01*
X0109220Y0104895D01*
X0109021Y0104922D01*
X0108836Y0104998D01*
X0108677Y0105121D01*
X0108554Y0105280D01*
X0108478Y0105465D01*
X0108451Y0105664D01*
X0108478Y0105863D01*
X0108554Y0106048D01*
X0108677Y0106207D01*
X0108836Y0106330D01*
X0109021Y0106406D01*
X0109220Y0106433D01*
X0109419Y0106406D01*
D02*
G37*
G36*
X0084019D02*
X0084204Y0106330D01*
X0084363Y0106207D01*
X0084486Y0106048D01*
X0084562Y0105863D01*
X0084589Y0105664D01*
X0084562Y0105465D01*
X0084486Y0105280D01*
X0084363Y0105121D01*
X0084204Y0104998D01*
X0084019Y0104922D01*
X0083820Y0104895D01*
X0083621Y0104922D01*
X0083436Y0104998D01*
X0083277Y0105121D01*
X0083154Y0105280D01*
X0083078Y0105465D01*
X0083051Y0105664D01*
X0083078Y0105863D01*
X0083154Y0106048D01*
X0083277Y0106207D01*
X0083436Y0106330D01*
X0083621Y0106406D01*
X0083820Y0106433D01*
X0084019Y0106406D01*
D02*
G37*
G36*
X0101799D02*
X0101984Y0106330D01*
X0102143Y0106207D01*
X0102266Y0106048D01*
X0102342Y0105863D01*
X0102369Y0105664D01*
X0102342Y0105465D01*
X0102266Y0105280D01*
X0102143Y0105121D01*
X0101984Y0104998D01*
X0101799Y0104922D01*
X0101600Y0104895D01*
X0101401Y0104922D01*
X0101216Y0104998D01*
X0101057Y0105121D01*
X0100934Y0105280D01*
X0100858Y0105465D01*
X0100831Y0105664D01*
X0100858Y0105863D01*
X0100934Y0106048D01*
X0101057Y0106207D01*
X0101216Y0106330D01*
X0101401Y0106406D01*
X0101600Y0106433D01*
X0101799Y0106406D01*
D02*
G37*
G36*
X0061794Y0116566D02*
X0061979Y0116490D01*
X0062138Y0116367D01*
X0062261Y0116208D01*
X0062337Y0116023D01*
X0062364Y0115824D01*
X0062337Y0115625D01*
X0062261Y0115440D01*
X0062138Y0115281D01*
X0061979Y0115158D01*
X0061794Y0115082D01*
X0061595Y0115055D01*
X0061396Y0115082D01*
X0061211Y0115158D01*
X0061052Y0115281D01*
X0060929Y0115440D01*
X0060853Y0115625D01*
X0060826Y0115824D01*
X0060853Y0116023D01*
X0060929Y0116208D01*
X0061052Y0116367D01*
X0061211Y0116490D01*
X0061396Y0116566D01*
X0061595Y0116593D01*
X0061794Y0116566D01*
D02*
G37*
G36*
X0069414D02*
X0069599Y0116490D01*
X0069758Y0116367D01*
X0069881Y0116208D01*
X0069957Y0116023D01*
X0069984Y0115824D01*
X0069957Y0115625D01*
X0069881Y0115440D01*
X0069758Y0115281D01*
X0069599Y0115158D01*
X0069414Y0115082D01*
X0069215Y0115055D01*
X0069016Y0115082D01*
X0068831Y0115158D01*
X0068672Y0115281D01*
X0068549Y0115440D01*
X0068473Y0115625D01*
X0068446Y0115824D01*
X0068473Y0116023D01*
X0068549Y0116208D01*
X0068672Y0116367D01*
X0068831Y0116490D01*
X0069016Y0116566D01*
X0069215Y0116593D01*
X0069414Y0116566D01*
D02*
G37*
G36*
X0044014D02*
X0044199Y0116490D01*
X0044358Y0116367D01*
X0044481Y0116208D01*
X0044557Y0116023D01*
X0044584Y0115824D01*
X0044557Y0115625D01*
X0044481Y0115440D01*
X0044358Y0115281D01*
X0044199Y0115158D01*
X0044014Y0115082D01*
X0043815Y0115055D01*
X0043616Y0115082D01*
X0043431Y0115158D01*
X0043272Y0115281D01*
X0043149Y0115440D01*
X0043073Y0115625D01*
X0043046Y0115824D01*
X0043073Y0116023D01*
X0043149Y0116208D01*
X0043272Y0116367D01*
X0043431Y0116490D01*
X0043616Y0116566D01*
X0043815Y0116593D01*
X0044014Y0116566D01*
D02*
G37*
G36*
X0101799Y0114026D02*
X0101984Y0113950D01*
X0102143Y0113827D01*
X0102266Y0113668D01*
X0102342Y0113483D01*
X0102369Y0113284D01*
X0102342Y0113085D01*
X0102266Y0112900D01*
X0102143Y0112741D01*
X0101984Y0112618D01*
X0101799Y0112542D01*
X0101600Y0112515D01*
X0101401Y0112542D01*
X0101216Y0112618D01*
X0101057Y0112741D01*
X0100934Y0112900D01*
X0100858Y0113085D01*
X0100831Y0113284D01*
X0100858Y0113483D01*
X0100934Y0113668D01*
X0101057Y0113827D01*
X0101216Y0113950D01*
X0101401Y0114026D01*
X0101600Y0114053D01*
X0101799Y0114026D01*
D02*
G37*
G36*
X0109419D02*
X0109604Y0113950D01*
X0109763Y0113827D01*
X0109886Y0113668D01*
X0109962Y0113483D01*
X0109989Y0113284D01*
X0109962Y0113085D01*
X0109886Y0112900D01*
X0109763Y0112741D01*
X0109604Y0112618D01*
X0109419Y0112542D01*
X0109220Y0112515D01*
X0109021Y0112542D01*
X0108836Y0112618D01*
X0108677Y0112741D01*
X0108554Y0112900D01*
X0108478Y0113085D01*
X0108451Y0113284D01*
X0108478Y0113483D01*
X0108554Y0113668D01*
X0108677Y0113827D01*
X0108836Y0113950D01*
X0109021Y0114026D01*
X0109220Y0114053D01*
X0109419Y0114026D01*
D02*
G37*
G36*
X0036957Y0115062D02*
X0035433D01*
Y0116586D01*
X0036957D01*
Y0115062D01*
D02*
G37*
G36*
X0076962D02*
X0075438D01*
Y0116586D01*
X0076962D01*
Y0115062D01*
D02*
G37*
G36*
X0109419Y0116566D02*
X0109604Y0116490D01*
X0109763Y0116367D01*
X0109886Y0116208D01*
X0109962Y0116023D01*
X0109989Y0115824D01*
X0109962Y0115625D01*
X0109886Y0115440D01*
X0109763Y0115281D01*
X0109604Y0115158D01*
X0109419Y0115082D01*
X0109220Y0115055D01*
X0109021Y0115082D01*
X0108836Y0115158D01*
X0108677Y0115281D01*
X0108554Y0115440D01*
X0108478Y0115625D01*
X0108451Y0115824D01*
X0108478Y0116023D01*
X0108554Y0116208D01*
X0108677Y0116367D01*
X0108836Y0116490D01*
X0109021Y0116566D01*
X0109220Y0116593D01*
X0109419Y0116566D01*
D02*
G37*
G36*
X0084019D02*
X0084204Y0116490D01*
X0084363Y0116367D01*
X0084486Y0116208D01*
X0084562Y0116023D01*
X0084589Y0115824D01*
X0084562Y0115625D01*
X0084486Y0115440D01*
X0084363Y0115281D01*
X0084204Y0115158D01*
X0084019Y0115082D01*
X0083820Y0115055D01*
X0083621Y0115082D01*
X0083436Y0115158D01*
X0083277Y0115281D01*
X0083154Y0115440D01*
X0083078Y0115625D01*
X0083051Y0115824D01*
X0083078Y0116023D01*
X0083154Y0116208D01*
X0083277Y0116367D01*
X0083436Y0116490D01*
X0083621Y0116566D01*
X0083820Y0116593D01*
X0084019Y0116566D01*
D02*
G37*
G36*
X0101799D02*
X0101984Y0116490D01*
X0102143Y0116367D01*
X0102266Y0116208D01*
X0102342Y0116023D01*
X0102369Y0115824D01*
X0102342Y0115625D01*
X0102266Y0115440D01*
X0102143Y0115281D01*
X0101984Y0115158D01*
X0101799Y0115082D01*
X0101600Y0115055D01*
X0101401Y0115082D01*
X0101216Y0115158D01*
X0101057Y0115281D01*
X0100934Y0115440D01*
X0100858Y0115625D01*
X0100831Y0115824D01*
X0100858Y0116023D01*
X0100934Y0116208D01*
X0101057Y0116367D01*
X0101216Y0116490D01*
X0101401Y0116566D01*
X0101600Y0116593D01*
X0101799Y0116566D01*
D02*
G37*
G36*
X0109419Y0111486D02*
X0109604Y0111410D01*
X0109763Y0111287D01*
X0109886Y0111128D01*
X0109962Y0110943D01*
X0109989Y0110744D01*
X0109962Y0110545D01*
X0109886Y0110360D01*
X0109763Y0110201D01*
X0109604Y0110078D01*
X0109419Y0110002D01*
X0109220Y0109975D01*
X0109021Y0110002D01*
X0108836Y0110078D01*
X0108677Y0110201D01*
X0108554Y0110360D01*
X0108478Y0110545D01*
X0108451Y0110744D01*
X0108478Y0110943D01*
X0108554Y0111128D01*
X0108677Y0111287D01*
X0108836Y0111410D01*
X0109021Y0111486D01*
X0109220Y0111513D01*
X0109419Y0111486D01*
D02*
G37*
G36*
X0036394Y0114026D02*
X0036579Y0113950D01*
X0036738Y0113827D01*
X0036861Y0113668D01*
X0036937Y0113483D01*
X0036964Y0113284D01*
X0036937Y0113085D01*
X0036861Y0112900D01*
X0036738Y0112741D01*
X0036579Y0112618D01*
X0036394Y0112542D01*
X0036195Y0112515D01*
X0035996Y0112542D01*
X0035811Y0112618D01*
X0035652Y0112741D01*
X0035529Y0112900D01*
X0035453Y0113085D01*
X0035426Y0113284D01*
X0035453Y0113483D01*
X0035529Y0113668D01*
X0035652Y0113827D01*
X0035811Y0113950D01*
X0035996Y0114026D01*
X0036195Y0114053D01*
X0036394Y0114026D01*
D02*
G37*
G36*
X0101799Y0111486D02*
X0101984Y0111410D01*
X0102143Y0111287D01*
X0102266Y0111128D01*
X0102342Y0110943D01*
X0102369Y0110744D01*
X0102342Y0110545D01*
X0102266Y0110360D01*
X0102143Y0110201D01*
X0101984Y0110078D01*
X0101799Y0110002D01*
X0101600Y0109975D01*
X0101401Y0110002D01*
X0101216Y0110078D01*
X0101057Y0110201D01*
X0100934Y0110360D01*
X0100858Y0110545D01*
X0100831Y0110744D01*
X0100858Y0110943D01*
X0100934Y0111128D01*
X0101057Y0111287D01*
X0101216Y0111410D01*
X0101401Y0111486D01*
X0101600Y0111513D01*
X0101799Y0111486D01*
D02*
G37*
G36*
X0076399D02*
X0076584Y0111410D01*
X0076743Y0111287D01*
X0076866Y0111128D01*
X0076942Y0110943D01*
X0076969Y0110744D01*
X0076942Y0110545D01*
X0076866Y0110360D01*
X0076743Y0110201D01*
X0076584Y0110078D01*
X0076399Y0110002D01*
X0076200Y0109975D01*
X0076001Y0110002D01*
X0075816Y0110078D01*
X0075657Y0110201D01*
X0075534Y0110360D01*
X0075458Y0110545D01*
X0075431Y0110744D01*
X0075458Y0110943D01*
X0075534Y0111128D01*
X0075657Y0111287D01*
X0075816Y0111410D01*
X0076001Y0111486D01*
X0076200Y0111513D01*
X0076399Y0111486D01*
D02*
G37*
G36*
X0084019D02*
X0084204Y0111410D01*
X0084363Y0111287D01*
X0084486Y0111128D01*
X0084562Y0110943D01*
X0084589Y0110744D01*
X0084562Y0110545D01*
X0084486Y0110360D01*
X0084363Y0110201D01*
X0084204Y0110078D01*
X0084019Y0110002D01*
X0083820Y0109975D01*
X0083621Y0110002D01*
X0083436Y0110078D01*
X0083277Y0110201D01*
X0083154Y0110360D01*
X0083078Y0110545D01*
X0083051Y0110744D01*
X0083078Y0110943D01*
X0083154Y0111128D01*
X0083277Y0111287D01*
X0083436Y0111410D01*
X0083621Y0111486D01*
X0083820Y0111513D01*
X0084019Y0111486D01*
D02*
G37*
G36*
X0076399Y0114026D02*
X0076584Y0113950D01*
X0076743Y0113827D01*
X0076866Y0113668D01*
X0076942Y0113483D01*
X0076969Y0113284D01*
X0076942Y0113085D01*
X0076866Y0112900D01*
X0076743Y0112741D01*
X0076584Y0112618D01*
X0076399Y0112542D01*
X0076200Y0112515D01*
X0076001Y0112542D01*
X0075816Y0112618D01*
X0075657Y0112741D01*
X0075534Y0112900D01*
X0075458Y0113085D01*
X0075431Y0113284D01*
X0075458Y0113483D01*
X0075534Y0113668D01*
X0075657Y0113827D01*
X0075816Y0113950D01*
X0076001Y0114026D01*
X0076200Y0114053D01*
X0076399Y0114026D01*
D02*
G37*
G36*
X0084019D02*
X0084204Y0113950D01*
X0084363Y0113827D01*
X0084486Y0113668D01*
X0084562Y0113483D01*
X0084589Y0113284D01*
X0084562Y0113085D01*
X0084486Y0112900D01*
X0084363Y0112741D01*
X0084204Y0112618D01*
X0084019Y0112542D01*
X0083820Y0112515D01*
X0083621Y0112542D01*
X0083436Y0112618D01*
X0083277Y0112741D01*
X0083154Y0112900D01*
X0083078Y0113085D01*
X0083051Y0113284D01*
X0083078Y0113483D01*
X0083154Y0113668D01*
X0083277Y0113827D01*
X0083436Y0113950D01*
X0083621Y0114026D01*
X0083820Y0114053D01*
X0084019Y0114026D01*
D02*
G37*
G36*
X0069414D02*
X0069599Y0113950D01*
X0069758Y0113827D01*
X0069881Y0113668D01*
X0069957Y0113483D01*
X0069984Y0113284D01*
X0069957Y0113085D01*
X0069881Y0112900D01*
X0069758Y0112741D01*
X0069599Y0112618D01*
X0069414Y0112542D01*
X0069215Y0112515D01*
X0069016Y0112542D01*
X0068831Y0112618D01*
X0068672Y0112741D01*
X0068549Y0112900D01*
X0068473Y0113085D01*
X0068446Y0113284D01*
X0068473Y0113483D01*
X0068549Y0113668D01*
X0068672Y0113827D01*
X0068831Y0113950D01*
X0069016Y0114026D01*
X0069215Y0114053D01*
X0069414Y0114026D01*
D02*
G37*
G36*
X0044014D02*
X0044199Y0113950D01*
X0044358Y0113827D01*
X0044481Y0113668D01*
X0044557Y0113483D01*
X0044584Y0113284D01*
X0044557Y0113085D01*
X0044481Y0112900D01*
X0044358Y0112741D01*
X0044199Y0112618D01*
X0044014Y0112542D01*
X0043815Y0112515D01*
X0043616Y0112542D01*
X0043431Y0112618D01*
X0043272Y0112741D01*
X0043149Y0112900D01*
X0043073Y0113085D01*
X0043046Y0113284D01*
X0043073Y0113483D01*
X0043149Y0113668D01*
X0043272Y0113827D01*
X0043431Y0113950D01*
X0043616Y0114026D01*
X0043815Y0114053D01*
X0044014Y0114026D01*
D02*
G37*
G36*
X0061794D02*
X0061979Y0113950D01*
X0062138Y0113827D01*
X0062261Y0113668D01*
X0062337Y0113483D01*
X0062364Y0113284D01*
X0062337Y0113085D01*
X0062261Y0112900D01*
X0062138Y0112741D01*
X0061979Y0112618D01*
X0061794Y0112542D01*
X0061595Y0112515D01*
X0061396Y0112542D01*
X0061211Y0112618D01*
X0061052Y0112741D01*
X0060929Y0112900D01*
X0060853Y0113085D01*
X0060826Y0113284D01*
X0060853Y0113483D01*
X0060929Y0113668D01*
X0061052Y0113827D01*
X0061211Y0113950D01*
X0061396Y0114026D01*
X0061595Y0114053D01*
X0061794Y0114026D01*
D02*
G37*
G36*
X0084019Y0096246D02*
X0084204Y0096170D01*
X0084363Y0096047D01*
X0084486Y0095888D01*
X0084562Y0095703D01*
X0084589Y0095504D01*
X0084562Y0095305D01*
X0084486Y0095120D01*
X0084363Y0094961D01*
X0084204Y0094838D01*
X0084019Y0094762D01*
X0083820Y0094735D01*
X0083621Y0094762D01*
X0083436Y0094838D01*
X0083277Y0094961D01*
X0083154Y0095120D01*
X0083078Y0095305D01*
X0083051Y0095504D01*
X0083078Y0095703D01*
X0083154Y0095888D01*
X0083277Y0096047D01*
X0083436Y0096170D01*
X0083621Y0096246D01*
X0083820Y0096273D01*
X0084019Y0096246D01*
D02*
G37*
G36*
X0101799D02*
X0101984Y0096170D01*
X0102143Y0096047D01*
X0102266Y0095888D01*
X0102342Y0095703D01*
X0102369Y0095504D01*
X0102342Y0095305D01*
X0102266Y0095120D01*
X0102143Y0094961D01*
X0101984Y0094838D01*
X0101799Y0094762D01*
X0101600Y0094735D01*
X0101401Y0094762D01*
X0101216Y0094838D01*
X0101057Y0094961D01*
X0100934Y0095120D01*
X0100858Y0095305D01*
X0100831Y0095504D01*
X0100858Y0095703D01*
X0100934Y0095888D01*
X0101057Y0096047D01*
X0101216Y0096170D01*
X0101401Y0096246D01*
X0101600Y0096273D01*
X0101799Y0096246D01*
D02*
G37*
G36*
X0076399D02*
X0076584Y0096170D01*
X0076743Y0096047D01*
X0076866Y0095888D01*
X0076942Y0095703D01*
X0076969Y0095504D01*
X0076942Y0095305D01*
X0076866Y0095120D01*
X0076743Y0094961D01*
X0076584Y0094838D01*
X0076399Y0094762D01*
X0076200Y0094735D01*
X0076001Y0094762D01*
X0075816Y0094838D01*
X0075657Y0094961D01*
X0075534Y0095120D01*
X0075458Y0095305D01*
X0075431Y0095504D01*
X0075458Y0095703D01*
X0075534Y0095888D01*
X0075657Y0096047D01*
X0075816Y0096170D01*
X0076001Y0096246D01*
X0076200Y0096273D01*
X0076399Y0096246D01*
D02*
G37*
G36*
X0061794D02*
X0061979Y0096170D01*
X0062138Y0096047D01*
X0062261Y0095888D01*
X0062337Y0095703D01*
X0062364Y0095504D01*
X0062337Y0095305D01*
X0062261Y0095120D01*
X0062138Y0094961D01*
X0061979Y0094838D01*
X0061794Y0094762D01*
X0061595Y0094735D01*
X0061396Y0094762D01*
X0061211Y0094838D01*
X0061052Y0094961D01*
X0060929Y0095120D01*
X0060853Y0095305D01*
X0060826Y0095504D01*
X0060853Y0095703D01*
X0060929Y0095888D01*
X0061052Y0096047D01*
X0061211Y0096170D01*
X0061396Y0096246D01*
X0061595Y0096273D01*
X0061794Y0096246D01*
D02*
G37*
G36*
X0069414D02*
X0069599Y0096170D01*
X0069758Y0096047D01*
X0069881Y0095888D01*
X0069957Y0095703D01*
X0069984Y0095504D01*
X0069957Y0095305D01*
X0069881Y0095120D01*
X0069758Y0094961D01*
X0069599Y0094838D01*
X0069414Y0094762D01*
X0069215Y0094735D01*
X0069016Y0094762D01*
X0068831Y0094838D01*
X0068672Y0094961D01*
X0068549Y0095120D01*
X0068473Y0095305D01*
X0068446Y0095504D01*
X0068473Y0095703D01*
X0068549Y0095888D01*
X0068672Y0096047D01*
X0068831Y0096170D01*
X0069016Y0096246D01*
X0069215Y0096273D01*
X0069414Y0096246D01*
D02*
G37*
G36*
X0061794Y0098786D02*
X0061979Y0098710D01*
X0062138Y0098587D01*
X0062261Y0098428D01*
X0062337Y0098243D01*
X0062364Y0098044D01*
X0062337Y0097845D01*
X0062261Y0097660D01*
X0062138Y0097501D01*
X0061979Y0097378D01*
X0061794Y0097302D01*
X0061595Y0097275D01*
X0061396Y0097302D01*
X0061211Y0097378D01*
X0061052Y0097501D01*
X0060929Y0097660D01*
X0060853Y0097845D01*
X0060826Y0098044D01*
X0060853Y0098243D01*
X0060929Y0098428D01*
X0061052Y0098587D01*
X0061211Y0098710D01*
X0061396Y0098786D01*
X0061595Y0098813D01*
X0061794Y0098786D01*
D02*
G37*
G36*
X0069414D02*
X0069599Y0098710D01*
X0069758Y0098587D01*
X0069881Y0098428D01*
X0069957Y0098243D01*
X0069984Y0098044D01*
X0069957Y0097845D01*
X0069881Y0097660D01*
X0069758Y0097501D01*
X0069599Y0097378D01*
X0069414Y0097302D01*
X0069215Y0097275D01*
X0069016Y0097302D01*
X0068831Y0097378D01*
X0068672Y0097501D01*
X0068549Y0097660D01*
X0068473Y0097845D01*
X0068446Y0098044D01*
X0068473Y0098243D01*
X0068549Y0098428D01*
X0068672Y0098587D01*
X0068831Y0098710D01*
X0069016Y0098786D01*
X0069215Y0098813D01*
X0069414Y0098786D01*
D02*
G37*
G36*
X0044014D02*
X0044199Y0098710D01*
X0044358Y0098587D01*
X0044481Y0098428D01*
X0044557Y0098243D01*
X0044584Y0098044D01*
X0044557Y0097845D01*
X0044481Y0097660D01*
X0044358Y0097501D01*
X0044199Y0097378D01*
X0044014Y0097302D01*
X0043815Y0097275D01*
X0043616Y0097302D01*
X0043431Y0097378D01*
X0043272Y0097501D01*
X0043149Y0097660D01*
X0043073Y0097845D01*
X0043046Y0098044D01*
X0043073Y0098243D01*
X0043149Y0098428D01*
X0043272Y0098587D01*
X0043431Y0098710D01*
X0043616Y0098786D01*
X0043815Y0098813D01*
X0044014Y0098786D01*
D02*
G37*
G36*
X0109419Y0096246D02*
X0109604Y0096170D01*
X0109763Y0096047D01*
X0109886Y0095888D01*
X0109962Y0095703D01*
X0109989Y0095504D01*
X0109962Y0095305D01*
X0109886Y0095120D01*
X0109763Y0094961D01*
X0109604Y0094838D01*
X0109419Y0094762D01*
X0109220Y0094735D01*
X0109021Y0094762D01*
X0108836Y0094838D01*
X0108677Y0094961D01*
X0108554Y0095120D01*
X0108478Y0095305D01*
X0108451Y0095504D01*
X0108478Y0095703D01*
X0108554Y0095888D01*
X0108677Y0096047D01*
X0108836Y0096170D01*
X0109021Y0096246D01*
X0109220Y0096273D01*
X0109419Y0096246D01*
D02*
G37*
G36*
X0036394Y0098786D02*
X0036579Y0098710D01*
X0036738Y0098587D01*
X0036861Y0098428D01*
X0036937Y0098243D01*
X0036964Y0098044D01*
X0036937Y0097845D01*
X0036861Y0097660D01*
X0036738Y0097501D01*
X0036579Y0097378D01*
X0036394Y0097302D01*
X0036195Y0097275D01*
X0035996Y0097302D01*
X0035811Y0097378D01*
X0035652Y0097501D01*
X0035529Y0097660D01*
X0035453Y0097845D01*
X0035426Y0098044D01*
X0035453Y0098243D01*
X0035529Y0098428D01*
X0035652Y0098587D01*
X0035811Y0098710D01*
X0035996Y0098786D01*
X0036195Y0098813D01*
X0036394Y0098786D01*
D02*
G37*
G36*
X0076399Y0093706D02*
X0076584Y0093630D01*
X0076743Y0093507D01*
X0076866Y0093348D01*
X0076942Y0093163D01*
X0076969Y0092964D01*
X0076942Y0092765D01*
X0076866Y0092580D01*
X0076743Y0092421D01*
X0076584Y0092298D01*
X0076399Y0092222D01*
X0076200Y0092195D01*
X0076001Y0092222D01*
X0075816Y0092298D01*
X0075657Y0092421D01*
X0075534Y0092580D01*
X0075458Y0092765D01*
X0075431Y0092964D01*
X0075458Y0093163D01*
X0075534Y0093348D01*
X0075657Y0093507D01*
X0075816Y0093630D01*
X0076001Y0093706D01*
X0076200Y0093733D01*
X0076399Y0093706D01*
D02*
G37*
G36*
X0084019D02*
X0084204Y0093630D01*
X0084363Y0093507D01*
X0084486Y0093348D01*
X0084562Y0093163D01*
X0084589Y0092964D01*
X0084562Y0092765D01*
X0084486Y0092580D01*
X0084363Y0092421D01*
X0084204Y0092298D01*
X0084019Y0092222D01*
X0083820Y0092195D01*
X0083621Y0092222D01*
X0083436Y0092298D01*
X0083277Y0092421D01*
X0083154Y0092580D01*
X0083078Y0092765D01*
X0083051Y0092964D01*
X0083078Y0093163D01*
X0083154Y0093348D01*
X0083277Y0093507D01*
X0083436Y0093630D01*
X0083621Y0093706D01*
X0083820Y0093733D01*
X0084019Y0093706D01*
D02*
G37*
G36*
X0061794D02*
X0061979Y0093630D01*
X0062138Y0093507D01*
X0062261Y0093348D01*
X0062337Y0093163D01*
X0062364Y0092964D01*
X0062337Y0092765D01*
X0062261Y0092580D01*
X0062138Y0092421D01*
X0061979Y0092298D01*
X0061794Y0092222D01*
X0061595Y0092195D01*
X0061396Y0092222D01*
X0061211Y0092298D01*
X0061052Y0092421D01*
X0060929Y0092580D01*
X0060853Y0092765D01*
X0060826Y0092964D01*
X0060853Y0093163D01*
X0060929Y0093348D01*
X0061052Y0093507D01*
X0061211Y0093630D01*
X0061396Y0093706D01*
X0061595Y0093733D01*
X0061794Y0093706D01*
D02*
G37*
G36*
X0036394D02*
X0036579Y0093630D01*
X0036738Y0093507D01*
X0036861Y0093348D01*
X0036937Y0093163D01*
X0036964Y0092964D01*
X0036937Y0092765D01*
X0036861Y0092580D01*
X0036738Y0092421D01*
X0036579Y0092298D01*
X0036394Y0092222D01*
X0036195Y0092195D01*
X0035996Y0092222D01*
X0035811Y0092298D01*
X0035652Y0092421D01*
X0035529Y0092580D01*
X0035453Y0092765D01*
X0035426Y0092964D01*
X0035453Y0093163D01*
X0035529Y0093348D01*
X0035652Y0093507D01*
X0035811Y0093630D01*
X0035996Y0093706D01*
X0036195Y0093733D01*
X0036394Y0093706D01*
D02*
G37*
G36*
X0044014D02*
X0044199Y0093630D01*
X0044358Y0093507D01*
X0044481Y0093348D01*
X0044557Y0093163D01*
X0044584Y0092964D01*
X0044557Y0092765D01*
X0044481Y0092580D01*
X0044358Y0092421D01*
X0044199Y0092298D01*
X0044014Y0092222D01*
X0043815Y0092195D01*
X0043616Y0092222D01*
X0043431Y0092298D01*
X0043272Y0092421D01*
X0043149Y0092580D01*
X0043073Y0092765D01*
X0043046Y0092964D01*
X0043073Y0093163D01*
X0043149Y0093348D01*
X0043272Y0093507D01*
X0043431Y0093630D01*
X0043616Y0093706D01*
X0043815Y0093733D01*
X0044014Y0093706D01*
D02*
G37*
G36*
X0036394Y0096246D02*
X0036579Y0096170D01*
X0036738Y0096047D01*
X0036861Y0095888D01*
X0036937Y0095703D01*
X0036964Y0095504D01*
X0036937Y0095305D01*
X0036861Y0095120D01*
X0036738Y0094961D01*
X0036579Y0094838D01*
X0036394Y0094762D01*
X0036195Y0094735D01*
X0035996Y0094762D01*
X0035811Y0094838D01*
X0035652Y0094961D01*
X0035529Y0095120D01*
X0035453Y0095305D01*
X0035426Y0095504D01*
X0035453Y0095703D01*
X0035529Y0095888D01*
X0035652Y0096047D01*
X0035811Y0096170D01*
X0035996Y0096246D01*
X0036195Y0096273D01*
X0036394Y0096246D01*
D02*
G37*
G36*
X0044014D02*
X0044199Y0096170D01*
X0044358Y0096047D01*
X0044481Y0095888D01*
X0044557Y0095703D01*
X0044584Y0095504D01*
X0044557Y0095305D01*
X0044481Y0095120D01*
X0044358Y0094961D01*
X0044199Y0094838D01*
X0044014Y0094762D01*
X0043815Y0094735D01*
X0043616Y0094762D01*
X0043431Y0094838D01*
X0043272Y0094961D01*
X0043149Y0095120D01*
X0043073Y0095305D01*
X0043046Y0095504D01*
X0043073Y0095703D01*
X0043149Y0095888D01*
X0043272Y0096047D01*
X0043431Y0096170D01*
X0043616Y0096246D01*
X0043815Y0096273D01*
X0044014Y0096246D01*
D02*
G37*
G36*
X0109982Y0092202D02*
X0108458D01*
Y0093726D01*
X0109982D01*
Y0092202D01*
D02*
G37*
G36*
X0101799Y0093706D02*
X0101984Y0093630D01*
X0102143Y0093507D01*
X0102266Y0093348D01*
X0102342Y0093163D01*
X0102369Y0092964D01*
X0102342Y0092765D01*
X0102266Y0092580D01*
X0102143Y0092421D01*
X0101984Y0092298D01*
X0101799Y0092222D01*
X0101600Y0092195D01*
X0101401Y0092222D01*
X0101216Y0092298D01*
X0101057Y0092421D01*
X0100934Y0092580D01*
X0100858Y0092765D01*
X0100831Y0092964D01*
X0100858Y0093163D01*
X0100934Y0093348D01*
X0101057Y0093507D01*
X0101216Y0093630D01*
X0101401Y0093706D01*
X0101600Y0093733D01*
X0101799Y0093706D01*
D02*
G37*
G36*
X0069977Y0092202D02*
X0068453D01*
Y0093726D01*
X0069977D01*
Y0092202D01*
D02*
G37*
G36*
X0044014Y0103866D02*
X0044199Y0103790D01*
X0044358Y0103667D01*
X0044481Y0103508D01*
X0044557Y0103323D01*
X0044584Y0103124D01*
X0044557Y0102925D01*
X0044481Y0102740D01*
X0044358Y0102581D01*
X0044199Y0102458D01*
X0044014Y0102382D01*
X0043815Y0102355D01*
X0043616Y0102382D01*
X0043431Y0102458D01*
X0043272Y0102581D01*
X0043149Y0102740D01*
X0043073Y0102925D01*
X0043046Y0103124D01*
X0043073Y0103323D01*
X0043149Y0103508D01*
X0043272Y0103667D01*
X0043431Y0103790D01*
X0043616Y0103866D01*
X0043815Y0103893D01*
X0044014Y0103866D01*
D02*
G37*
G36*
X0061794D02*
X0061979Y0103790D01*
X0062138Y0103667D01*
X0062261Y0103508D01*
X0062337Y0103323D01*
X0062364Y0103124D01*
X0062337Y0102925D01*
X0062261Y0102740D01*
X0062138Y0102581D01*
X0061979Y0102458D01*
X0061794Y0102382D01*
X0061595Y0102355D01*
X0061396Y0102382D01*
X0061211Y0102458D01*
X0061052Y0102581D01*
X0060929Y0102740D01*
X0060853Y0102925D01*
X0060826Y0103124D01*
X0060853Y0103323D01*
X0060929Y0103508D01*
X0061052Y0103667D01*
X0061211Y0103790D01*
X0061396Y0103866D01*
X0061595Y0103893D01*
X0061794Y0103866D01*
D02*
G37*
G36*
X0036394D02*
X0036579Y0103790D01*
X0036738Y0103667D01*
X0036861Y0103508D01*
X0036937Y0103323D01*
X0036964Y0103124D01*
X0036937Y0102925D01*
X0036861Y0102740D01*
X0036738Y0102581D01*
X0036579Y0102458D01*
X0036394Y0102382D01*
X0036195Y0102355D01*
X0035996Y0102382D01*
X0035811Y0102458D01*
X0035652Y0102581D01*
X0035529Y0102740D01*
X0035453Y0102925D01*
X0035426Y0103124D01*
X0035453Y0103323D01*
X0035529Y0103508D01*
X0035652Y0103667D01*
X0035811Y0103790D01*
X0035996Y0103866D01*
X0036195Y0103893D01*
X0036394Y0103866D01*
D02*
G37*
G36*
X0101799Y0101326D02*
X0101984Y0101250D01*
X0102143Y0101127D01*
X0102266Y0100968D01*
X0102342Y0100783D01*
X0102369Y0100584D01*
X0102342Y0100385D01*
X0102266Y0100200D01*
X0102143Y0100041D01*
X0101984Y0099918D01*
X0101799Y0099842D01*
X0101600Y0099815D01*
X0101401Y0099842D01*
X0101216Y0099918D01*
X0101057Y0100041D01*
X0100934Y0100200D01*
X0100858Y0100385D01*
X0100831Y0100584D01*
X0100858Y0100783D01*
X0100934Y0100968D01*
X0101057Y0101127D01*
X0101216Y0101250D01*
X0101401Y0101326D01*
X0101600Y0101353D01*
X0101799Y0101326D01*
D02*
G37*
G36*
X0109419D02*
X0109604Y0101250D01*
X0109763Y0101127D01*
X0109886Y0100968D01*
X0109962Y0100783D01*
X0109989Y0100584D01*
X0109962Y0100385D01*
X0109886Y0100200D01*
X0109763Y0100041D01*
X0109604Y0099918D01*
X0109419Y0099842D01*
X0109220Y0099815D01*
X0109021Y0099842D01*
X0108836Y0099918D01*
X0108677Y0100041D01*
X0108554Y0100200D01*
X0108478Y0100385D01*
X0108451Y0100584D01*
X0108478Y0100783D01*
X0108554Y0100968D01*
X0108677Y0101127D01*
X0108836Y0101250D01*
X0109021Y0101326D01*
X0109220Y0101353D01*
X0109419Y0101326D01*
D02*
G37*
G36*
X0101799Y0103866D02*
X0101984Y0103790D01*
X0102143Y0103667D01*
X0102266Y0103508D01*
X0102342Y0103323D01*
X0102369Y0103124D01*
X0102342Y0102925D01*
X0102266Y0102740D01*
X0102143Y0102581D01*
X0101984Y0102458D01*
X0101799Y0102382D01*
X0101600Y0102355D01*
X0101401Y0102382D01*
X0101216Y0102458D01*
X0101057Y0102581D01*
X0100934Y0102740D01*
X0100858Y0102925D01*
X0100831Y0103124D01*
X0100858Y0103323D01*
X0100934Y0103508D01*
X0101057Y0103667D01*
X0101216Y0103790D01*
X0101401Y0103866D01*
X0101600Y0103893D01*
X0101799Y0103866D01*
D02*
G37*
G36*
X0109419D02*
X0109604Y0103790D01*
X0109763Y0103667D01*
X0109886Y0103508D01*
X0109962Y0103323D01*
X0109989Y0103124D01*
X0109962Y0102925D01*
X0109886Y0102740D01*
X0109763Y0102581D01*
X0109604Y0102458D01*
X0109419Y0102382D01*
X0109220Y0102355D01*
X0109021Y0102382D01*
X0108836Y0102458D01*
X0108677Y0102581D01*
X0108554Y0102740D01*
X0108478Y0102925D01*
X0108451Y0103124D01*
X0108478Y0103323D01*
X0108554Y0103508D01*
X0108677Y0103667D01*
X0108836Y0103790D01*
X0109021Y0103866D01*
X0109220Y0103893D01*
X0109419Y0103866D01*
D02*
G37*
G36*
X0084019D02*
X0084204Y0103790D01*
X0084363Y0103667D01*
X0084486Y0103508D01*
X0084562Y0103323D01*
X0084589Y0103124D01*
X0084562Y0102925D01*
X0084486Y0102740D01*
X0084363Y0102581D01*
X0084204Y0102458D01*
X0084019Y0102382D01*
X0083820Y0102355D01*
X0083621Y0102382D01*
X0083436Y0102458D01*
X0083277Y0102581D01*
X0083154Y0102740D01*
X0083078Y0102925D01*
X0083051Y0103124D01*
X0083078Y0103323D01*
X0083154Y0103508D01*
X0083277Y0103667D01*
X0083436Y0103790D01*
X0083621Y0103866D01*
X0083820Y0103893D01*
X0084019Y0103866D01*
D02*
G37*
G36*
X0069414D02*
X0069599Y0103790D01*
X0069758Y0103667D01*
X0069881Y0103508D01*
X0069957Y0103323D01*
X0069984Y0103124D01*
X0069957Y0102925D01*
X0069881Y0102740D01*
X0069758Y0102581D01*
X0069599Y0102458D01*
X0069414Y0102382D01*
X0069215Y0102355D01*
X0069016Y0102382D01*
X0068831Y0102458D01*
X0068672Y0102581D01*
X0068549Y0102740D01*
X0068473Y0102925D01*
X0068446Y0103124D01*
X0068473Y0103323D01*
X0068549Y0103508D01*
X0068672Y0103667D01*
X0068831Y0103790D01*
X0069016Y0103866D01*
X0069215Y0103893D01*
X0069414Y0103866D01*
D02*
G37*
G36*
X0076399D02*
X0076584Y0103790D01*
X0076743Y0103667D01*
X0076866Y0103508D01*
X0076942Y0103323D01*
X0076969Y0103124D01*
X0076942Y0102925D01*
X0076866Y0102740D01*
X0076743Y0102581D01*
X0076584Y0102458D01*
X0076399Y0102382D01*
X0076200Y0102355D01*
X0076001Y0102382D01*
X0075816Y0102458D01*
X0075657Y0102581D01*
X0075534Y0102740D01*
X0075458Y0102925D01*
X0075431Y0103124D01*
X0075458Y0103323D01*
X0075534Y0103508D01*
X0075657Y0103667D01*
X0075816Y0103790D01*
X0076001Y0103866D01*
X0076200Y0103893D01*
X0076399Y0103866D01*
D02*
G37*
G36*
X0109419Y0098786D02*
X0109604Y0098710D01*
X0109763Y0098587D01*
X0109886Y0098428D01*
X0109962Y0098243D01*
X0109989Y0098044D01*
X0109962Y0097845D01*
X0109886Y0097660D01*
X0109763Y0097501D01*
X0109604Y0097378D01*
X0109419Y0097302D01*
X0109220Y0097275D01*
X0109021Y0097302D01*
X0108836Y0097378D01*
X0108677Y0097501D01*
X0108554Y0097660D01*
X0108478Y0097845D01*
X0108451Y0098044D01*
X0108478Y0098243D01*
X0108554Y0098428D01*
X0108677Y0098587D01*
X0108836Y0098710D01*
X0109021Y0098786D01*
X0109220Y0098813D01*
X0109419Y0098786D01*
D02*
G37*
G36*
X0036394Y0101326D02*
X0036579Y0101250D01*
X0036738Y0101127D01*
X0036861Y0100968D01*
X0036937Y0100783D01*
X0036964Y0100584D01*
X0036937Y0100385D01*
X0036861Y0100200D01*
X0036738Y0100041D01*
X0036579Y0099918D01*
X0036394Y0099842D01*
X0036195Y0099815D01*
X0035996Y0099842D01*
X0035811Y0099918D01*
X0035652Y0100041D01*
X0035529Y0100200D01*
X0035453Y0100385D01*
X0035426Y0100584D01*
X0035453Y0100783D01*
X0035529Y0100968D01*
X0035652Y0101127D01*
X0035811Y0101250D01*
X0035996Y0101326D01*
X0036195Y0101353D01*
X0036394Y0101326D01*
D02*
G37*
G36*
X0101799Y0098786D02*
X0101984Y0098710D01*
X0102143Y0098587D01*
X0102266Y0098428D01*
X0102342Y0098243D01*
X0102369Y0098044D01*
X0102342Y0097845D01*
X0102266Y0097660D01*
X0102143Y0097501D01*
X0101984Y0097378D01*
X0101799Y0097302D01*
X0101600Y0097275D01*
X0101401Y0097302D01*
X0101216Y0097378D01*
X0101057Y0097501D01*
X0100934Y0097660D01*
X0100858Y0097845D01*
X0100831Y0098044D01*
X0100858Y0098243D01*
X0100934Y0098428D01*
X0101057Y0098587D01*
X0101216Y0098710D01*
X0101401Y0098786D01*
X0101600Y0098813D01*
X0101799Y0098786D01*
D02*
G37*
G36*
X0076399D02*
X0076584Y0098710D01*
X0076743Y0098587D01*
X0076866Y0098428D01*
X0076942Y0098243D01*
X0076969Y0098044D01*
X0076942Y0097845D01*
X0076866Y0097660D01*
X0076743Y0097501D01*
X0076584Y0097378D01*
X0076399Y0097302D01*
X0076200Y0097275D01*
X0076001Y0097302D01*
X0075816Y0097378D01*
X0075657Y0097501D01*
X0075534Y0097660D01*
X0075458Y0097845D01*
X0075431Y0098044D01*
X0075458Y0098243D01*
X0075534Y0098428D01*
X0075657Y0098587D01*
X0075816Y0098710D01*
X0076001Y0098786D01*
X0076200Y0098813D01*
X0076399Y0098786D01*
D02*
G37*
G36*
X0084019D02*
X0084204Y0098710D01*
X0084363Y0098587D01*
X0084486Y0098428D01*
X0084562Y0098243D01*
X0084589Y0098044D01*
X0084562Y0097845D01*
X0084486Y0097660D01*
X0084363Y0097501D01*
X0084204Y0097378D01*
X0084019Y0097302D01*
X0083820Y0097275D01*
X0083621Y0097302D01*
X0083436Y0097378D01*
X0083277Y0097501D01*
X0083154Y0097660D01*
X0083078Y0097845D01*
X0083051Y0098044D01*
X0083078Y0098243D01*
X0083154Y0098428D01*
X0083277Y0098587D01*
X0083436Y0098710D01*
X0083621Y0098786D01*
X0083820Y0098813D01*
X0084019Y0098786D01*
D02*
G37*
G36*
X0076399Y0101326D02*
X0076584Y0101250D01*
X0076743Y0101127D01*
X0076866Y0100968D01*
X0076942Y0100783D01*
X0076969Y0100584D01*
X0076942Y0100385D01*
X0076866Y0100200D01*
X0076743Y0100041D01*
X0076584Y0099918D01*
X0076399Y0099842D01*
X0076200Y0099815D01*
X0076001Y0099842D01*
X0075816Y0099918D01*
X0075657Y0100041D01*
X0075534Y0100200D01*
X0075458Y0100385D01*
X0075431Y0100584D01*
X0075458Y0100783D01*
X0075534Y0100968D01*
X0075657Y0101127D01*
X0075816Y0101250D01*
X0076001Y0101326D01*
X0076200Y0101353D01*
X0076399Y0101326D01*
D02*
G37*
G36*
X0084019D02*
X0084204Y0101250D01*
X0084363Y0101127D01*
X0084486Y0100968D01*
X0084562Y0100783D01*
X0084589Y0100584D01*
X0084562Y0100385D01*
X0084486Y0100200D01*
X0084363Y0100041D01*
X0084204Y0099918D01*
X0084019Y0099842D01*
X0083820Y0099815D01*
X0083621Y0099842D01*
X0083436Y0099918D01*
X0083277Y0100041D01*
X0083154Y0100200D01*
X0083078Y0100385D01*
X0083051Y0100584D01*
X0083078Y0100783D01*
X0083154Y0100968D01*
X0083277Y0101127D01*
X0083436Y0101250D01*
X0083621Y0101326D01*
X0083820Y0101353D01*
X0084019Y0101326D01*
D02*
G37*
G36*
X0069414D02*
X0069599Y0101250D01*
X0069758Y0101127D01*
X0069881Y0100968D01*
X0069957Y0100783D01*
X0069984Y0100584D01*
X0069957Y0100385D01*
X0069881Y0100200D01*
X0069758Y0100041D01*
X0069599Y0099918D01*
X0069414Y0099842D01*
X0069215Y0099815D01*
X0069016Y0099842D01*
X0068831Y0099918D01*
X0068672Y0100041D01*
X0068549Y0100200D01*
X0068473Y0100385D01*
X0068446Y0100584D01*
X0068473Y0100783D01*
X0068549Y0100968D01*
X0068672Y0101127D01*
X0068831Y0101250D01*
X0069016Y0101326D01*
X0069215Y0101353D01*
X0069414Y0101326D01*
D02*
G37*
G36*
X0044014D02*
X0044199Y0101250D01*
X0044358Y0101127D01*
X0044481Y0100968D01*
X0044557Y0100783D01*
X0044584Y0100584D01*
X0044557Y0100385D01*
X0044481Y0100200D01*
X0044358Y0100041D01*
X0044199Y0099918D01*
X0044014Y0099842D01*
X0043815Y0099815D01*
X0043616Y0099842D01*
X0043431Y0099918D01*
X0043272Y0100041D01*
X0043149Y0100200D01*
X0043073Y0100385D01*
X0043046Y0100584D01*
X0043073Y0100783D01*
X0043149Y0100968D01*
X0043272Y0101127D01*
X0043431Y0101250D01*
X0043616Y0101326D01*
X0043815Y0101353D01*
X0044014Y0101326D01*
D02*
G37*
G36*
X0061794D02*
X0061979Y0101250D01*
X0062138Y0101127D01*
X0062261Y0100968D01*
X0062337Y0100783D01*
X0062364Y0100584D01*
X0062337Y0100385D01*
X0062261Y0100200D01*
X0062138Y0100041D01*
X0061979Y0099918D01*
X0061794Y0099842D01*
X0061595Y0099815D01*
X0061396Y0099842D01*
X0061211Y0099918D01*
X0061052Y0100041D01*
X0060929Y0100200D01*
X0060853Y0100385D01*
X0060826Y0100584D01*
X0060853Y0100783D01*
X0060929Y0100968D01*
X0061052Y0101127D01*
X0061211Y0101250D01*
X0061396Y0101326D01*
X0061595Y0101353D01*
X0061794Y0101326D01*
D02*
G37*
D81*
X0104710Y0093853D02*
D03*
X0106110D02*
D03*
X0104710Y0062484D02*
D03*
X0106110D02*
D03*
X0064705D02*
D03*
X0066105D02*
D03*
X0080710Y0084455D02*
D03*
X0079310D02*
D03*
X0040705Y0115824D02*
D03*
X0039305D02*
D03*
X0064705Y0093853D02*
D03*
X0066105D02*
D03*
X0080710Y0115824D02*
D03*
X0079310D02*
D03*
X0040705Y0085344D02*
D03*
X0039305D02*
D03*
X0136463Y0097155D02*
D03*
X0135063D02*
D03*
X0128970Y0098425D02*
D03*
X0127570D02*
D03*
X0122109Y0092710D02*
D03*
X0123509D02*
D03*
D85*
X0123876Y0084898D02*
D03*
Y0086298D02*
D03*
Y0077405D02*
D03*
Y0078805D02*
D03*
Y0069912D02*
D03*
Y0071312D02*
D03*
Y0062419D02*
D03*
Y0063819D02*
D03*
X0135509Y0084898D02*
D03*
Y0086298D02*
D03*
Y0077405D02*
D03*
Y0078805D02*
D03*
Y0069912D02*
D03*
Y0071312D02*
D03*
Y0062419D02*
D03*
Y0063819D02*
D03*
D88*
X0121031Y0072390D02*
D03*
X0132588Y0064897D02*
D03*
Y0072390D02*
D03*
X0132715Y0087122D02*
D03*
X0122428Y0089027D02*
D03*
X0129286Y0077470D02*
D03*
X0112014Y0060706D02*
D03*
Y0056896D02*
D03*
X0063500Y0092456D02*
D03*
X0103505Y0084074D02*
D03*
Y0092456D02*
D03*
X0081407Y0085979D02*
D03*
X0114935Y0086995D02*
D03*
X0114300Y0087630D02*
D03*
X0113665Y0088265D02*
D03*
X0113030Y0088900D02*
D03*
X0112395Y0089535D02*
D03*
X0111760Y0090170D02*
D03*
X0111125Y0090805D02*
D03*
X0110490Y0091440D02*
D03*
X0074930Y0086995D02*
D03*
X0074295Y0087630D02*
D03*
X0073660Y0088265D02*
D03*
X0073025Y0088900D02*
D03*
X0072390Y0089535D02*
D03*
X0071755Y0090170D02*
D03*
X0071120Y0090805D02*
D03*
X0070485Y0091440D02*
D03*
X0030480D02*
D03*
X0031115Y0090805D02*
D03*
X0031750Y0090170D02*
D03*
X0032385Y0089535D02*
D03*
X0033020Y0088900D02*
D03*
X0033655Y0088265D02*
D03*
X0034290Y0087630D02*
D03*
X0034925Y0086995D02*
D03*
X0114935Y0095504D02*
D03*
X0114300Y0098044D02*
D03*
X0113665Y0100584D02*
D03*
X0113030Y0103124D02*
D03*
X0112395Y0105664D02*
D03*
X0111760Y0108204D02*
D03*
X0111125Y0110744D02*
D03*
X0110490Y0113284D02*
D03*
X0070485D02*
D03*
X0071120Y0110744D02*
D03*
X0071755Y0108204D02*
D03*
X0072390Y0105664D02*
D03*
X0073025Y0103124D02*
D03*
X0073660Y0100584D02*
D03*
X0074295Y0098044D02*
D03*
X0074930Y0095504D02*
D03*
X0030480Y0113284D02*
D03*
X0031115Y0110744D02*
D03*
X0031750Y0108204D02*
D03*
X0032385Y0105664D02*
D03*
X0033020Y0103124D02*
D03*
X0033655Y0100584D02*
D03*
X0034290Y0098044D02*
D03*
X0034925Y0095504D02*
D03*
X0074930Y0065024D02*
D03*
X0074295Y0067564D02*
D03*
X0073660Y0070104D02*
D03*
X0073025Y0072644D02*
D03*
X0072390Y0075184D02*
D03*
X0071755Y0077724D02*
D03*
X0071120Y0080264D02*
D03*
X0070485Y0082804D02*
D03*
X0034925Y0065024D02*
D03*
X0034290Y0067564D02*
D03*
X0033655Y0070104D02*
D03*
X0033020Y0072644D02*
D03*
X0032385Y0075184D02*
D03*
X0031750Y0077724D02*
D03*
X0031115Y0080264D02*
D03*
X0030480Y0082804D02*
D03*
X0110490D02*
D03*
X0111125Y0080264D02*
D03*
X0111760Y0077724D02*
D03*
X0112395Y0075184D02*
D03*
X0113030Y0072644D02*
D03*
X0113665Y0070104D02*
D03*
X0114300Y0067564D02*
D03*
X0114935Y0065024D02*
D03*
X0123876Y0083693D02*
D03*
Y0076200D02*
D03*
Y0068707D02*
D03*
Y0061214D02*
D03*
X0135509Y0076200D02*
D03*
Y0068707D02*
D03*
Y0061214D02*
D03*
Y0083693D02*
D03*
D89*
X0125730Y0057150D02*
D03*
X0127889Y0088011D02*
D03*
X0116586Y0097917D02*
D03*
X0127508Y0100965D02*
D03*
X0130302D02*
D03*
X0058166Y0115824D02*
D03*
X0098171D02*
D03*
X0058166Y0085344D02*
D03*
Y0092964D02*
D03*
X0098171Y0085344D02*
D03*
Y0092964D02*
D03*
X0131318Y0093218D02*
D03*
X0134112D02*
D03*
D90*
X0119126Y0082753D02*
D03*
Y0075260D02*
D03*
Y0067767D02*
D03*
Y0060274D02*
D03*
X0130759Y0075260D02*
D03*
Y0067767D02*
D03*
Y0060274D02*
D03*
Y0082753D02*
D03*
D91*
X0126263Y0052705D02*
D03*
X0038202Y0050165D02*
D03*
X0097892Y0050292D02*
D03*
D92*
X0126263Y0050165D02*
D03*
X0123723Y0052705D02*
D03*
Y0050165D02*
D03*
X0121183Y0052705D02*
D03*
Y0050165D02*
D03*
X0118643Y0052705D02*
D03*
Y0050165D02*
D03*
X0053975Y0082829D02*
D03*
X0051435Y0080289D02*
D03*
X0053975D02*
D03*
X0051435Y0077749D02*
D03*
X0053975D02*
D03*
X0051435Y0075209D02*
D03*
X0053975D02*
D03*
X0051435Y0072669D02*
D03*
X0053975D02*
D03*
X0051435Y0070129D02*
D03*
X0053975D02*
D03*
X0051435Y0067589D02*
D03*
X0053975D02*
D03*
X0051435Y0065049D02*
D03*
X0053975D02*
D03*
X0125603Y0095250D02*
D03*
X0093980Y0082829D02*
D03*
X0091440Y0080289D02*
D03*
X0093980D02*
D03*
X0091440Y0077749D02*
D03*
X0093980D02*
D03*
X0091440Y0075209D02*
D03*
X0093980D02*
D03*
X0091440Y0072669D02*
D03*
X0093980D02*
D03*
X0091440Y0070129D02*
D03*
X0093980D02*
D03*
X0091440Y0067589D02*
D03*
X0093980D02*
D03*
X0091440Y0065049D02*
D03*
X0093980D02*
D03*
X0053975Y0113309D02*
D03*
X0051435Y0110769D02*
D03*
X0053975D02*
D03*
X0051435Y0108229D02*
D03*
X0053975D02*
D03*
X0051435Y0105689D02*
D03*
X0053975D02*
D03*
X0051435Y0103149D02*
D03*
X0053975D02*
D03*
X0051435Y0100609D02*
D03*
X0053975D02*
D03*
X0051435Y0098069D02*
D03*
X0053975D02*
D03*
X0051435Y0095529D02*
D03*
X0053975D02*
D03*
X0093980Y0113309D02*
D03*
X0091440Y0110769D02*
D03*
X0093980D02*
D03*
X0091440Y0108229D02*
D03*
X0093980D02*
D03*
X0091440Y0105689D02*
D03*
X0093980D02*
D03*
X0091440Y0103149D02*
D03*
X0093980D02*
D03*
X0091440Y0100609D02*
D03*
X0093980D02*
D03*
X0091440Y0098069D02*
D03*
X0093980D02*
D03*
X0091440Y0095529D02*
D03*
X0093980D02*
D03*
X0038202Y0052705D02*
D03*
X0040742Y0050165D02*
D03*
Y0052705D02*
D03*
X0043282Y0050165D02*
D03*
Y0052705D02*
D03*
X0045822Y0050165D02*
D03*
Y0052705D02*
D03*
X0048362Y0050165D02*
D03*
Y0052705D02*
D03*
X0050902Y0050165D02*
D03*
Y0052705D02*
D03*
X0053442Y0050165D02*
D03*
Y0052705D02*
D03*
X0055982Y0050165D02*
D03*
Y0052705D02*
D03*
X0097892Y0052832D02*
D03*
X0100432Y0050292D02*
D03*
Y0052832D02*
D03*
X0102972Y0050292D02*
D03*
Y0052832D02*
D03*
X0105512Y0050292D02*
D03*
Y0052832D02*
D03*
D93*
X0051435Y0082829D02*
D03*
X0125603Y0092710D02*
D03*
X0091440Y0082829D02*
D03*
X0051435Y0113309D02*
D03*
X0091440D02*
D03*
D94*
X0029210Y0116205D02*
D03*
X0135255Y0049530D02*
D03*
Y0116205D02*
D03*
X0029210Y0049530D02*
D03*
D95*
X0133985Y0107315D02*
D03*
D96*
Y0111125D02*
D03*
D97*
X0136525Y0102235D02*
D03*
Y0099695D02*
D03*
D98*
X0120142Y0110617D02*
D03*
D99*
X0096440Y0110744D02*
D03*
X0099140D02*
D03*
X0096440Y0105664D02*
D03*
X0099140D02*
D03*
X0096440Y0100584D02*
D03*
X0099140D02*
D03*
X0096440Y0095504D02*
D03*
X0099140D02*
D03*
X0088980Y0098044D02*
D03*
X0086280D02*
D03*
X0088980Y0103124D02*
D03*
X0086280D02*
D03*
X0088980Y0108204D02*
D03*
X0086280D02*
D03*
X0088980Y0113284D02*
D03*
X0086280D02*
D03*
X0048975Y0103124D02*
D03*
X0046275D02*
D03*
X0048975Y0095504D02*
D03*
X0046275D02*
D03*
X0048975Y0108204D02*
D03*
X0046275D02*
D03*
X0048975Y0113284D02*
D03*
X0046275D02*
D03*
X0056435Y0095504D02*
D03*
X0059135D02*
D03*
X0056435Y0100584D02*
D03*
X0059135D02*
D03*
X0056435Y0105664D02*
D03*
X0059135D02*
D03*
X0056435Y0110744D02*
D03*
X0059135D02*
D03*
X0096440Y0080264D02*
D03*
X0099140D02*
D03*
X0096440Y0075184D02*
D03*
X0099140D02*
D03*
X0096440Y0070104D02*
D03*
X0099140D02*
D03*
X0096440Y0065024D02*
D03*
X0099140D02*
D03*
X0088980Y0067564D02*
D03*
X0086280D02*
D03*
X0088980Y0072644D02*
D03*
X0086280D02*
D03*
X0088980Y0077724D02*
D03*
X0086280D02*
D03*
X0088980Y0082804D02*
D03*
X0086280D02*
D03*
X0048975D02*
D03*
X0046275D02*
D03*
X0048975Y0077724D02*
D03*
X0046275D02*
D03*
X0048975Y0072644D02*
D03*
X0046275D02*
D03*
X0048975Y0067564D02*
D03*
X0046275D02*
D03*
X0056435Y0065024D02*
D03*
X0059135D02*
D03*
X0056435Y0070104D02*
D03*
X0059135D02*
D03*
X0056435Y0075184D02*
D03*
X0059135D02*
D03*
X0056435Y0080264D02*
D03*
X0059135D02*
D03*
X0088980Y0065024D02*
D03*
X0086280D02*
D03*
X0048975Y0080264D02*
D03*
X0046275D02*
D03*
X0048975Y0075184D02*
D03*
X0046275D02*
D03*
X0056435Y0072644D02*
D03*
X0059135D02*
D03*
X0048975Y0070104D02*
D03*
X0046275D02*
D03*
X0048975Y0065024D02*
D03*
X0046275D02*
D03*
X0056435Y0067564D02*
D03*
X0059135D02*
D03*
X0056435Y0077724D02*
D03*
X0059135D02*
D03*
X0056435Y0082804D02*
D03*
X0059135D02*
D03*
X0096440Y0067564D02*
D03*
X0099140D02*
D03*
X0048975Y0110744D02*
D03*
X0046275D02*
D03*
X0088980D02*
D03*
X0086280D02*
D03*
X0096440Y0108204D02*
D03*
X0099140D02*
D03*
X0056435D02*
D03*
X0059135D02*
D03*
X0096440Y0077724D02*
D03*
X0099140D02*
D03*
X0096440Y0103124D02*
D03*
X0099140D02*
D03*
X0096440Y0113284D02*
D03*
X0099140D02*
D03*
X0096440Y0072644D02*
D03*
X0099140D02*
D03*
X0056435Y0103124D02*
D03*
X0059135D02*
D03*
X0096440Y0082804D02*
D03*
X0099140D02*
D03*
X0056435Y0113284D02*
D03*
X0059135D02*
D03*
X0056435Y0098044D02*
D03*
X0059135D02*
D03*
X0096440D02*
D03*
X0099140D02*
D03*
X0088980Y0095504D02*
D03*
X0086280D02*
D03*
X0048975Y0098044D02*
D03*
X0046275D02*
D03*
X0088980Y0100584D02*
D03*
X0086280D02*
D03*
X0048975D02*
D03*
X0046275D02*
D03*
X0088980Y0070104D02*
D03*
X0086280D02*
D03*
X0088980Y0105664D02*
D03*
X0086280D02*
D03*
X0048975D02*
D03*
X0046275D02*
D03*
X0088980Y0075184D02*
D03*
X0086280D02*
D03*
X0088980Y0080264D02*
D03*
X0086280D02*
D03*
M02*
