M48
;Layer_Color=9474304
;FILE_FORMAT=4:3
METRIC
;TYPE=PLATED
T1F00S00C0.254
T2F00S00C0.508
T3F00S00C0.762
T4F00S00C0.800
T5F00S00C0.900
T6F00S00C0.965
T7F00S00C1.100
T8F00S00C1.270
T9F00S00C2.600
%
T01
X0123876Y0061214
Y0068707
X0121031Y0072390
X0123876Y0076200
X0129286Y0077470
X0135509Y0076200
X0132588Y0072390
X0135509Y0068707
X0132588Y0064897
X0135509Y0061214
X0112014Y0060706
Y0056896
X0114935Y0065024
X0114300Y0067564
X0113665Y0070104
X0113030Y0072644
X0112395Y0075184
X0111760Y0077724
X0071755
X0072390Y0075184
X0073025Y0072644
X0073660Y0070104
X0074295Y0067564
X0074930Y0065024
X0034925
X0034290Y0067564
X0033655Y0070104
X0033020Y0072644
X0032385Y0075184
X0031750Y0077724
X0031115Y0080264
X0030480Y0082804
Y0091440
X0031115Y0090805
X0031750Y0090170
X0032385Y0089535
X0033020Y0088900
X0033655Y0088265
X0034290Y0087630
X0034925Y0086995
Y0095504
X0034290Y0098044
X0033655Y0100584
X0033020Y0103124
X0032385Y0105664
X0031750Y0108204
X0031115Y0110744
X0030480Y0113284
X0070485
X0071120Y0110744
X0071755Y0108204
X0072390Y0105664
X0073025Y0103124
X0073660Y0100584
X0074295Y0098044
X0074930Y0095504
Y0086995
X0074295Y0087630
X0073660Y0088265
X0073025Y0088900
X0072390Y0089535
X0071755Y0090170
X0071120Y0090805
X0070485Y0091440
X0063500Y0092456
X0070485Y0082804
X0071120Y0080264
X0081407Y0085979
X0103505Y0084074
X0110490Y0082804
X0111125Y0080264
X0114935Y0086995
X0114300Y0087630
X0113665Y0088265
X0113030Y0088900
X0112395Y0089535
X0111760Y0090170
X0111125Y0090805
X0110490Y0091440
X0103505Y0092456
X0114935Y0095504
X0114300Y0098044
X0113665Y0100584
X0113030Y0103124
X0112395Y0105664
X0111760Y0108204
X0111125Y0110744
X0110490Y0113284
X0122428Y0089027
X0123876Y0083693
X0135509
X0132715Y0087122
T02
X0119126Y0060274
Y0067767
Y0075260
X0130759
Y0067767
Y0060274
Y0082753
X0119126
T03
X0125730Y0057150
X0058166Y0085344
Y0092964
Y0115824
X0098171
Y0092964
Y0085344
X0116586Y0097917
X0127508Y0100965
X0130302
X0131318Y0093218
X0134112
X0127889Y0088011
T04
X0136525Y0099695
Y0102235
T05
X0121183Y0050165
X0123723
X0126263
Y0052705
X0123723
X0121183
X0118643
Y0050165
X0105512Y0050292
X0102972
X0100432
X0097892
Y0052832
X0100432
X0102972
X0105512
X0093980Y0065049
Y0067589
Y0070129
Y0072669
Y0075209
Y0077749
X0091440
Y0075209
Y0072669
Y0070129
Y0067589
Y0065049
X0053975
Y0067589
Y0070129
Y0072669
Y0075209
Y0077749
X0051435
Y0075209
Y0072669
Y0070129
Y0067589
Y0065049
X0050902Y0052705
X0048362
X0045822
X0043282
X0040742
Y0050165
X0043282
X0045822
X0048362
X0050902
X0053442
Y0052705
X0055982
Y0050165
X0038202
Y0052705
X0051435Y0080289
Y0082829
X0053975
Y0080289
Y0095529
Y0098069
Y0100609
Y0103149
Y0105689
Y0108229
Y0110769
Y0113309
X0051435
Y0110769
Y0108229
Y0105689
Y0103149
Y0100609
Y0098069
Y0095529
X0091440
Y0098069
Y0100609
Y0103149
Y0105689
Y0108229
Y0110769
Y0113309
X0093980
Y0110769
Y0108229
Y0105689
Y0103149
Y0100609
Y0098069
Y0095529
Y0082829
X0091440
Y0080289
X0093980
X0125603Y0092710
Y0095250
T06
X0083820Y0062484
Y0065024
Y0067564
Y0070104
Y0072644
Y0075184
Y0077724
X0101600
Y0075184
Y0072644
Y0070104
Y0067564
Y0065024
Y0062484
X0109220
Y0065024
Y0067564
Y0070104
Y0072644
Y0075184
Y0077724
X0076200
Y0075184
Y0072644
Y0070104
Y0067564
Y0065024
Y0062484
X0069215
Y0065024
Y0067564
Y0070104
Y0072644
Y0075184
Y0077724
X0061595
Y0075184
Y0072644
Y0070104
Y0067564
Y0065024
Y0062484
X0043815
Y0065024
Y0067564
Y0070104
Y0072644
Y0075184
Y0077724
X0036195
Y0075184
Y0072644
Y0070104
Y0067564
Y0065024
Y0062484
Y0080264
Y0082804
Y0085344
Y0092964
Y0095504
Y0098044
Y0100584
Y0103124
Y0105664
Y0108204
Y0110744
Y0113284
Y0115824
X0043815
Y0113284
Y0110744
Y0108204
Y0105664
Y0103124
Y0100584
Y0098044
Y0095504
Y0092964
Y0085344
Y0082804
Y0080264
X0061595
Y0082804
Y0085344
X0069215
Y0082804
Y0080264
X0076200
Y0082804
Y0085344
Y0092964
Y0095504
Y0098044
Y0100584
Y0103124
Y0105664
Y0108204
Y0110744
Y0113284
Y0115824
X0069215
Y0113284
Y0110744
Y0108204
Y0105664
Y0103124
Y0100584
Y0098044
Y0095504
Y0092964
X0061595
Y0095504
Y0098044
Y0100584
Y0103124
Y0105664
Y0108204
Y0110744
Y0113284
Y0115824
X0083820
Y0113284
Y0110744
Y0108204
Y0105664
Y0103124
Y0100584
Y0098044
Y0095504
Y0092964
Y0085344
Y0082804
Y0080264
X0101600
Y0082804
Y0085344
X0109220
Y0082804
Y0080264
Y0092964
Y0095504
Y0098044
Y0100584
Y0103124
Y0105664
Y0108204
Y0110744
Y0113284
Y0115824
X0101600
Y0113284
Y0110744
Y0108204
Y0105664
Y0103124
Y0100584
Y0098044
Y0095504
Y0092964
T07
X0133985Y0107315
Y0111125
T08
X0120142Y0110617
T09
X0135255Y0049530
X0029210
Y0116205
X0135255
M30
