%FSAX43Y43*%
%MOMM*%
G71*
G01*
G75*
G04 Layer_Color=8421504*
%ADD10R,2.540X1.016*%
%ADD11R,2.300X2.300*%
%ADD12R,0.800X0.900*%
%ADD13R,0.800X0.350*%
%ADD14R,0.450X2.200*%
%ADD15R,3.100X2.400*%
%ADD16R,0.900X0.800*%
%ADD17R,1.000X1.300*%
%ADD18R,3.683X3.048*%
%ADD19C,0.381*%
%ADD20C,0.254*%
%ADD21C,0.889*%
%ADD22C,0.762*%
%ADD23C,0.508*%
%ADD24C,1.016*%
%ADD25C,1.270*%
%ADD26R,4.318X2.921*%
%ADD27R,4.699X3.810*%
%ADD28R,1.270X1.270*%
%ADD29R,1.172X0.820*%
%ADD30R,1.016X1.016*%
%ADD31R,1.143X1.074*%
%ADD32R,1.001X1.074*%
%ADD33R,1.143X1.074*%
%ADD34R,3.302X2.159*%
%ADD35R,3.937X2.540*%
%ADD36R,2.032X2.032*%
%ADD37R,2.024X2.159*%
%ADD38R,2.032X2.159*%
%ADD39R,2.257X2.180*%
%ADD40R,2.794X2.794*%
%ADD41R,10.287X1.778*%
%ADD42R,10.287X1.651*%
%ADD43R,0.635X0.762*%
%ADD44R,2.591X1.778*%
%ADD45R,1.575X1.397*%
%ADD46R,2.540X1.016*%
%ADD47R,1.473X29.972*%
%ADD48R,2.540X1.778*%
%ADD49R,1.524X1.397*%
%ADD50R,1.397X29.972*%
%ADD51R,7.112X2.413*%
%ADD52R,2.794X6.731*%
%ADD53R,1.016X6.731*%
%ADD54C,0.508*%
%ADD55C,1.524*%
%ADD56C,1.016*%
%ADD57R,1.500X1.500*%
%ADD58C,1.500*%
%ADD59R,1.500X1.500*%
%ADD60C,4.000*%
%ADD61R,1.524X1.524*%
%ADD62R,2.000X2.000*%
%ADD63C,2.000*%
%ADD64C,1.600*%
%ADD65C,1.778*%
%ADD66R,1.100X1.700*%
%ADD67R,2.413X3.048*%
%ADD68R,2.413X2.540*%
%ADD69R,1.898X2.032*%
%ADD70R,1.397X1.397*%
%ADD71R,2.286X2.286*%
%ADD72R,1.898X2.024*%
%ADD73R,1.898X2.041*%
%ADD74R,1.898X2.215*%
%ADD75C,0.250*%
%ADD76C,0.127*%
%ADD77C,0.200*%
%ADD78C,0.100*%
D10*
X0131826Y0100965D02*
D03*
X0125984D02*
D03*
X0135636Y0093218D02*
D03*
X0129794D02*
D03*
D11*
X0127254Y0116423D02*
D03*
Y0111923D02*
D03*
D12*
X0123687Y0071120D02*
D03*
X0122287D02*
D03*
X0135320D02*
D03*
X0133920D02*
D03*
X0121020Y0066294D02*
D03*
X0119620D02*
D03*
X0123687D02*
D03*
X0122287D02*
D03*
X0121020Y0071120D02*
D03*
X0119620D02*
D03*
X0132653D02*
D03*
X0131253D02*
D03*
X0132653Y0066294D02*
D03*
X0131253D02*
D03*
X0135320D02*
D03*
X0133920D02*
D03*
X0123687Y0058801D02*
D03*
X0122287D02*
D03*
X0135320D02*
D03*
X0133920D02*
D03*
X0121020Y0063627D02*
D03*
X0119620D02*
D03*
X0123687D02*
D03*
X0122287D02*
D03*
X0135320D02*
D03*
X0133920D02*
D03*
X0121020Y0058801D02*
D03*
X0119620D02*
D03*
X0132653Y0063627D02*
D03*
X0131253D02*
D03*
X0132653Y0058801D02*
D03*
X0131253D02*
D03*
X0123687Y0081280D02*
D03*
X0122287D02*
D03*
X0123687Y0086106D02*
D03*
X0122287D02*
D03*
X0121020Y0081280D02*
D03*
X0119620D02*
D03*
X0121020Y0086106D02*
D03*
X0119620D02*
D03*
X0135320Y0081280D02*
D03*
X0133920D02*
D03*
X0132653D02*
D03*
X0131253D02*
D03*
X0132653Y0086106D02*
D03*
X0131253D02*
D03*
X0135320D02*
D03*
X0133920D02*
D03*
X0123687Y0073787D02*
D03*
X0122287D02*
D03*
X0121020Y0078613D02*
D03*
X0119620D02*
D03*
X0121020Y0073787D02*
D03*
X0119620D02*
D03*
X0123687Y0078613D02*
D03*
X0122287D02*
D03*
X0132653D02*
D03*
X0131253D02*
D03*
X0132653Y0073787D02*
D03*
X0131253D02*
D03*
X0135320Y0078613D02*
D03*
X0133920D02*
D03*
X0135320Y0073787D02*
D03*
X0133920D02*
D03*
X0122490Y0117348D02*
D03*
X0123890D02*
D03*
D13*
X0122936Y0069647D02*
D03*
X0120523Y0068707D02*
D03*
Y0069647D02*
D03*
X0122936Y0068707D02*
D03*
X0120523Y0067767D02*
D03*
X0122936D02*
D03*
X0134569Y0069647D02*
D03*
X0132156Y0068707D02*
D03*
Y0069647D02*
D03*
X0134569Y0068707D02*
D03*
X0132156Y0067767D02*
D03*
X0134569D02*
D03*
X0122936Y0062154D02*
D03*
X0120523Y0061214D02*
D03*
Y0062154D02*
D03*
X0122936Y0061214D02*
D03*
X0120523Y0060274D02*
D03*
X0122936D02*
D03*
X0134569Y0062154D02*
D03*
X0132156Y0061214D02*
D03*
Y0062154D02*
D03*
X0134569Y0061214D02*
D03*
X0132156Y0060274D02*
D03*
X0134569D02*
D03*
X0122936Y0084633D02*
D03*
X0120523Y0083693D02*
D03*
Y0084633D02*
D03*
X0122936Y0083693D02*
D03*
X0120523Y0082753D02*
D03*
X0122936D02*
D03*
X0134569Y0084633D02*
D03*
X0132156Y0083693D02*
D03*
Y0084633D02*
D03*
X0134569Y0083693D02*
D03*
X0132156Y0082753D02*
D03*
X0134569D02*
D03*
X0122936Y0077140D02*
D03*
X0120523Y0076200D02*
D03*
Y0077140D02*
D03*
X0122936Y0076200D02*
D03*
X0120523Y0075260D02*
D03*
X0122936D02*
D03*
X0134569Y0077140D02*
D03*
X0132156Y0076200D02*
D03*
Y0077140D02*
D03*
X0134569Y0076200D02*
D03*
X0132156Y0075260D02*
D03*
X0134569D02*
D03*
D14*
X0122017Y0113492D02*
D03*
X0119517D02*
D03*
X0118267D02*
D03*
X0120767D02*
D03*
Y0107742D02*
D03*
X0118267D02*
D03*
X0119517D02*
D03*
X0122017D02*
D03*
D15*
X0120142Y0110617D02*
D03*
D16*
X0116078Y0115508D02*
D03*
Y0114108D02*
D03*
X0124206Y0112076D02*
D03*
Y0113476D02*
D03*
X0114554Y0109917D02*
D03*
Y0111317D02*
D03*
X0123825Y0104075D02*
D03*
Y0105475D02*
D03*
D17*
X0117513Y0117348D02*
D03*
X0115913D02*
D03*
X0120815D02*
D03*
X0119215D02*
D03*
D18*
X0118110Y0093789D02*
D03*
Y0103823D02*
D03*
M02*
