%FSAX43Y43*%
%MOMM*%
G71*
G01*
G75*
G04 Layer_Color=32768*
%ADD10R,2.540X1.016*%
%ADD11R,2.300X2.300*%
%ADD12R,0.800X0.900*%
%ADD13R,0.800X0.350*%
%ADD14R,0.450X2.200*%
%ADD15R,3.100X2.400*%
%ADD16R,0.900X0.800*%
%ADD17R,1.000X1.300*%
%ADD18R,3.683X3.048*%
%ADD19C,0.381*%
%ADD20C,0.254*%
%ADD21C,0.889*%
%ADD22C,0.762*%
%ADD23C,0.508*%
%ADD24C,1.016*%
%ADD25C,1.270*%
%ADD26R,4.318X2.921*%
%ADD27R,4.699X3.810*%
%ADD28R,1.270X1.270*%
%ADD29R,1.172X0.820*%
%ADD30R,1.016X1.016*%
%ADD31R,1.143X1.074*%
%ADD32R,1.001X1.074*%
%ADD33R,1.143X1.074*%
%ADD34R,3.302X2.159*%
%ADD35R,3.937X2.540*%
%ADD36R,2.032X2.032*%
%ADD37R,2.024X2.159*%
%ADD38R,2.032X2.159*%
%ADD39R,2.257X2.180*%
%ADD40R,2.794X2.794*%
%ADD41R,10.287X1.778*%
%ADD42R,10.287X1.651*%
%ADD43R,0.635X0.762*%
%ADD44R,2.591X1.778*%
%ADD45R,1.575X1.397*%
%ADD46R,2.540X1.016*%
%ADD47R,1.473X29.972*%
%ADD48R,2.540X1.778*%
%ADD49R,1.524X1.397*%
%ADD50R,1.397X29.972*%
%ADD51R,7.112X2.413*%
%ADD52R,2.794X6.731*%
%ADD53R,1.016X6.731*%
%ADD54C,0.508*%
%ADD55C,1.524*%
%ADD56C,1.016*%
%ADD57R,1.500X1.500*%
%ADD58C,1.500*%
%ADD59R,1.500X1.500*%
%ADD60C,4.000*%
%ADD61R,1.524X1.524*%
%ADD62R,2.000X2.000*%
%ADD63C,2.000*%
%ADD64C,1.600*%
%ADD65C,1.778*%
%ADD66R,1.100X1.700*%
%ADD67R,2.413X3.048*%
%ADD68R,2.413X2.540*%
%ADD69R,1.898X2.032*%
%ADD70R,1.397X1.397*%
%ADD71R,2.286X2.286*%
%ADD72R,1.898X2.024*%
%ADD73R,1.898X2.041*%
%ADD74R,1.898X2.215*%
%ADD75C,0.250*%
%ADD76C,0.127*%
%ADD77C,0.200*%
%ADD78C,0.100*%
%ADD79R,2.743X1.219*%
%ADD80R,2.503X2.503*%
%ADD81R,1.003X1.103*%
%ADD82R,1.003X0.553*%
%ADD83R,0.653X2.403*%
%ADD84R,3.303X2.603*%
%ADD85R,1.103X1.003*%
%ADD86R,1.203X1.503*%
%ADD87R,3.886X3.251*%
%ADD88C,0.711*%
%ADD89C,1.727*%
%ADD90C,1.219*%
%ADD91R,1.703X1.703*%
%ADD92C,1.703*%
%ADD93R,1.703X1.703*%
%ADD94C,4.203*%
%ADD95R,2.203X2.203*%
%ADD96C,2.203*%
%ADD97C,1.803*%
%ADD98C,1.981*%
%ADD99R,1.303X1.903*%
D78*
X0097790Y0110244D02*
Y0111244D01*
X0097290Y0110744D02*
X0098290D01*
X0095790Y0109794D02*
X0099790D01*
X0095790Y0111694D02*
X0099790D01*
X0095790Y0109794D02*
Y0111694D01*
X0099790Y0109794D02*
Y0111694D01*
X0097790Y0105164D02*
Y0106164D01*
X0097290Y0105664D02*
X0098290D01*
X0095790Y0104714D02*
X0099790D01*
X0095790Y0106614D02*
X0099790D01*
X0095790Y0104714D02*
Y0106614D01*
X0099790Y0104714D02*
Y0106614D01*
X0097790Y0100084D02*
Y0101084D01*
X0097290Y0100584D02*
X0098290D01*
X0095790Y0099634D02*
X0099790D01*
X0095790Y0101534D02*
X0099790D01*
X0095790Y0099634D02*
Y0101534D01*
X0099790Y0099634D02*
Y0101534D01*
X0097790Y0095004D02*
Y0096004D01*
X0097290Y0095504D02*
X0098290D01*
X0095790Y0094554D02*
X0099790D01*
X0095790Y0096454D02*
X0099790D01*
X0095790Y0094554D02*
Y0096454D01*
X0099790Y0094554D02*
Y0096454D01*
X0087630Y0097544D02*
Y0098544D01*
X0087130Y0098044D02*
X0088130D01*
X0085630Y0098994D02*
X0089630D01*
X0085630Y0097094D02*
X0089630D01*
Y0098994D01*
X0085630Y0097094D02*
Y0098994D01*
X0087630Y0102624D02*
Y0103624D01*
X0087130Y0103124D02*
X0088130D01*
X0085630Y0104074D02*
X0089630D01*
X0085630Y0102174D02*
X0089630D01*
Y0104074D01*
X0085630Y0102174D02*
Y0104074D01*
X0087630Y0107704D02*
Y0108704D01*
X0087130Y0108204D02*
X0088130D01*
X0085630Y0109154D02*
X0089630D01*
X0085630Y0107254D02*
X0089630D01*
Y0109154D01*
X0085630Y0107254D02*
Y0109154D01*
X0087630Y0112784D02*
Y0113784D01*
X0087130Y0113284D02*
X0088130D01*
X0085630Y0114234D02*
X0089630D01*
X0085630Y0112334D02*
X0089630D01*
Y0114234D01*
X0085630Y0112334D02*
Y0114234D01*
X0047625Y0102624D02*
Y0103624D01*
X0047125Y0103124D02*
X0048125D01*
X0045625Y0104074D02*
X0049625D01*
X0045625Y0102174D02*
X0049625D01*
Y0104074D01*
X0045625Y0102174D02*
Y0104074D01*
X0047625Y0095004D02*
Y0096004D01*
X0047125Y0095504D02*
X0048125D01*
X0045625Y0096454D02*
X0049625D01*
X0045625Y0094554D02*
X0049625D01*
Y0096454D01*
X0045625Y0094554D02*
Y0096454D01*
X0047625Y0107704D02*
Y0108704D01*
X0047125Y0108204D02*
X0048125D01*
X0045625Y0109154D02*
X0049625D01*
X0045625Y0107254D02*
X0049625D01*
Y0109154D01*
X0045625Y0107254D02*
Y0109154D01*
X0047625Y0112784D02*
Y0113784D01*
X0047125Y0113284D02*
X0048125D01*
X0045625Y0114234D02*
X0049625D01*
X0045625Y0112334D02*
X0049625D01*
Y0114234D01*
X0045625Y0112334D02*
Y0114234D01*
X0057785Y0095004D02*
Y0096004D01*
X0057285Y0095504D02*
X0058285D01*
X0055785Y0094554D02*
X0059785D01*
X0055785Y0096454D02*
X0059785D01*
X0055785Y0094554D02*
Y0096454D01*
X0059785Y0094554D02*
Y0096454D01*
X0057785Y0100084D02*
Y0101084D01*
X0057285Y0100584D02*
X0058285D01*
X0055785Y0099634D02*
X0059785D01*
X0055785Y0101534D02*
X0059785D01*
X0055785Y0099634D02*
Y0101534D01*
X0059785Y0099634D02*
Y0101534D01*
X0057785Y0105164D02*
Y0106164D01*
X0057285Y0105664D02*
X0058285D01*
X0055785Y0104714D02*
X0059785D01*
X0055785Y0106614D02*
X0059785D01*
X0055785Y0104714D02*
Y0106614D01*
X0059785Y0104714D02*
Y0106614D01*
X0057785Y0110244D02*
Y0111244D01*
X0057285Y0110744D02*
X0058285D01*
X0055785Y0109794D02*
X0059785D01*
X0055785Y0111694D02*
X0059785D01*
X0055785Y0109794D02*
Y0111694D01*
X0059785Y0109794D02*
Y0111694D01*
X0097790Y0079764D02*
Y0080764D01*
X0097290Y0080264D02*
X0098290D01*
X0095790Y0079314D02*
X0099790D01*
X0095790Y0081214D02*
X0099790D01*
X0095790Y0079314D02*
Y0081214D01*
X0099790Y0079314D02*
Y0081214D01*
X0097790Y0074684D02*
Y0075684D01*
X0097290Y0075184D02*
X0098290D01*
X0095790Y0074234D02*
X0099790D01*
X0095790Y0076134D02*
X0099790D01*
X0095790Y0074234D02*
Y0076134D01*
X0099790Y0074234D02*
Y0076134D01*
X0097790Y0069604D02*
Y0070604D01*
X0097290Y0070104D02*
X0098290D01*
X0095790Y0069154D02*
X0099790D01*
X0095790Y0071054D02*
X0099790D01*
X0095790Y0069154D02*
Y0071054D01*
X0099790Y0069154D02*
Y0071054D01*
X0097790Y0064524D02*
Y0065524D01*
X0097290Y0065024D02*
X0098290D01*
X0095790Y0064074D02*
X0099790D01*
X0095790Y0065974D02*
X0099790D01*
X0095790Y0064074D02*
Y0065974D01*
X0099790Y0064074D02*
Y0065974D01*
X0087630Y0067064D02*
Y0068064D01*
X0087130Y0067564D02*
X0088130D01*
X0085630Y0068514D02*
X0089630D01*
X0085630Y0066614D02*
X0089630D01*
Y0068514D01*
X0085630Y0066614D02*
Y0068514D01*
X0087630Y0072144D02*
Y0073144D01*
X0087130Y0072644D02*
X0088130D01*
X0085630Y0073594D02*
X0089630D01*
X0085630Y0071694D02*
X0089630D01*
Y0073594D01*
X0085630Y0071694D02*
Y0073594D01*
X0087630Y0077224D02*
Y0078224D01*
X0087130Y0077724D02*
X0088130D01*
X0085630Y0078674D02*
X0089630D01*
X0085630Y0076774D02*
X0089630D01*
Y0078674D01*
X0085630Y0076774D02*
Y0078674D01*
X0087630Y0082304D02*
Y0083304D01*
X0087130Y0082804D02*
X0088130D01*
X0085630Y0083754D02*
X0089630D01*
X0085630Y0081854D02*
X0089630D01*
Y0083754D01*
X0085630Y0081854D02*
Y0083754D01*
X0047625Y0082304D02*
Y0083304D01*
X0047125Y0082804D02*
X0048125D01*
X0045625Y0083754D02*
X0049625D01*
X0045625Y0081854D02*
X0049625D01*
Y0083754D01*
X0045625Y0081854D02*
Y0083754D01*
X0047625Y0077224D02*
Y0078224D01*
X0047125Y0077724D02*
X0048125D01*
X0045625Y0078674D02*
X0049625D01*
X0045625Y0076774D02*
X0049625D01*
Y0078674D01*
X0045625Y0076774D02*
Y0078674D01*
X0047625Y0072144D02*
Y0073144D01*
X0047125Y0072644D02*
X0048125D01*
X0045625Y0073594D02*
X0049625D01*
X0045625Y0071694D02*
X0049625D01*
Y0073594D01*
X0045625Y0071694D02*
Y0073594D01*
X0047625Y0067064D02*
Y0068064D01*
X0047125Y0067564D02*
X0048125D01*
X0045625Y0068514D02*
X0049625D01*
X0045625Y0066614D02*
X0049625D01*
Y0068514D01*
X0045625Y0066614D02*
Y0068514D01*
X0057785Y0064524D02*
Y0065524D01*
X0057285Y0065024D02*
X0058285D01*
X0055785Y0064074D02*
X0059785D01*
X0055785Y0065974D02*
X0059785D01*
X0055785Y0064074D02*
Y0065974D01*
X0059785Y0064074D02*
Y0065974D01*
X0057785Y0069604D02*
Y0070604D01*
X0057285Y0070104D02*
X0058285D01*
X0055785Y0069154D02*
X0059785D01*
X0055785Y0071054D02*
X0059785D01*
X0055785Y0069154D02*
Y0071054D01*
X0059785Y0069154D02*
Y0071054D01*
X0057785Y0074684D02*
Y0075684D01*
X0057285Y0075184D02*
X0058285D01*
X0055785Y0074234D02*
X0059785D01*
X0055785Y0076134D02*
X0059785D01*
X0055785Y0074234D02*
Y0076134D01*
X0059785Y0074234D02*
Y0076134D01*
X0057785Y0079764D02*
Y0080764D01*
X0057285Y0080264D02*
X0058285D01*
X0055785Y0079314D02*
X0059785D01*
X0055785Y0081214D02*
X0059785D01*
X0055785Y0079314D02*
Y0081214D01*
X0059785Y0079314D02*
Y0081214D01*
X0105410Y0093378D02*
Y0094328D01*
X0104935Y0093853D02*
X0105885D01*
X0104210Y0093303D02*
X0106610D01*
X0104210Y0094403D02*
X0106610D01*
X0104210Y0093303D02*
Y0094403D01*
X0106610Y0093303D02*
Y0094403D01*
X0105410Y0062009D02*
Y0062959D01*
X0104935Y0062484D02*
X0105885D01*
X0104210Y0061934D02*
X0106610D01*
X0104210Y0063034D02*
X0106610D01*
X0104210Y0061934D02*
Y0063034D01*
X0106610Y0061934D02*
Y0063034D01*
X0065405Y0062009D02*
Y0062959D01*
X0064930Y0062484D02*
X0065880D01*
X0064205Y0061934D02*
X0066605D01*
X0064205Y0063034D02*
X0066605D01*
X0064205Y0061934D02*
Y0063034D01*
X0066605Y0061934D02*
Y0063034D01*
X0080010Y0083980D02*
Y0084930D01*
X0079535Y0084455D02*
X0080485D01*
X0078810Y0085005D02*
X0081210D01*
X0078810Y0083905D02*
X0081210D01*
Y0085005D01*
X0078810Y0083905D02*
Y0085005D01*
X0040005Y0115349D02*
Y0116299D01*
X0039530Y0115824D02*
X0040480D01*
X0038805Y0116374D02*
X0041205D01*
X0038805Y0115274D02*
X0041205D01*
Y0116374D01*
X0038805Y0115274D02*
Y0116374D01*
X0065405Y0093378D02*
Y0094328D01*
X0064930Y0093853D02*
X0065880D01*
X0064205Y0093303D02*
X0066605D01*
X0064205Y0094403D02*
X0066605D01*
X0064205Y0093303D02*
Y0094403D01*
X0066605Y0093303D02*
Y0094403D01*
X0080010Y0115349D02*
Y0116299D01*
X0079535Y0115824D02*
X0080485D01*
X0078810Y0116374D02*
X0081210D01*
X0078810Y0115274D02*
X0081210D01*
Y0116374D01*
X0078810Y0115274D02*
Y0116374D01*
X0040005Y0084869D02*
Y0085819D01*
X0039530Y0085344D02*
X0040480D01*
X0038805Y0085894D02*
X0041205D01*
X0038805Y0084794D02*
X0041205D01*
Y0085894D01*
X0038805Y0084794D02*
Y0085894D01*
X0087630Y0064524D02*
Y0065524D01*
X0087130Y0065024D02*
X0088130D01*
X0085630Y0065974D02*
X0089630D01*
X0085630Y0064074D02*
X0089630D01*
Y0065974D01*
X0085630Y0064074D02*
Y0065974D01*
X0123401Y0085598D02*
X0124351D01*
X0123876Y0085123D02*
Y0086073D01*
X0124426Y0084398D02*
Y0086798D01*
X0123326Y0084398D02*
Y0086798D01*
Y0084398D02*
X0124426D01*
X0123326Y0086798D02*
X0124426D01*
X0123401Y0078105D02*
X0124351D01*
X0123876Y0077630D02*
Y0078580D01*
X0124426Y0076905D02*
Y0079305D01*
X0123326Y0076905D02*
Y0079305D01*
Y0076905D02*
X0124426D01*
X0123326Y0079305D02*
X0124426D01*
X0123401Y0070612D02*
X0124351D01*
X0123876Y0070137D02*
Y0071087D01*
X0124426Y0069412D02*
Y0071812D01*
X0123326Y0069412D02*
Y0071812D01*
Y0069412D02*
X0124426D01*
X0123326Y0071812D02*
X0124426D01*
X0123401Y0063119D02*
X0124351D01*
X0123876Y0062644D02*
Y0063594D01*
X0124426Y0061919D02*
Y0064319D01*
X0123326Y0061919D02*
Y0064319D01*
Y0061919D02*
X0124426D01*
X0123326Y0064319D02*
X0124426D01*
X0135034Y0085598D02*
X0135984D01*
X0135509Y0085123D02*
Y0086073D01*
X0136059Y0084398D02*
Y0086798D01*
X0134959Y0084398D02*
Y0086798D01*
Y0084398D02*
X0136059D01*
X0134959Y0086798D02*
X0136059D01*
X0135034Y0078105D02*
X0135984D01*
X0135509Y0077630D02*
Y0078580D01*
X0136059Y0076905D02*
Y0079305D01*
X0134959Y0076905D02*
Y0079305D01*
Y0076905D02*
X0136059D01*
X0134959Y0079305D02*
X0136059D01*
X0135034Y0070612D02*
X0135984D01*
X0135509Y0070137D02*
Y0071087D01*
X0136059Y0069412D02*
Y0071812D01*
X0134959Y0069412D02*
Y0071812D01*
Y0069412D02*
X0136059D01*
X0134959Y0071812D02*
X0136059D01*
X0135034Y0063119D02*
X0135984D01*
X0135509Y0062644D02*
Y0063594D01*
X0136059Y0061919D02*
Y0064319D01*
X0134959Y0061919D02*
Y0064319D01*
Y0061919D02*
X0136059D01*
X0134959Y0064319D02*
X0136059D01*
X0122987Y0070645D02*
Y0071595D01*
X0122512Y0071120D02*
X0123462D01*
X0121787Y0070570D02*
X0124187D01*
X0121787Y0071670D02*
X0124187D01*
Y0070570D02*
Y0071670D01*
X0121787Y0070570D02*
Y0071670D01*
X0134620Y0070645D02*
Y0071595D01*
X0134145Y0071120D02*
X0135095D01*
X0133420Y0070570D02*
X0135820D01*
X0133420Y0071670D02*
X0135820D01*
Y0070570D02*
Y0071670D01*
X0133420Y0070570D02*
Y0071670D01*
X0120320Y0065819D02*
Y0066769D01*
X0119845Y0066294D02*
X0120795D01*
X0119120Y0065744D02*
X0121520D01*
X0119120Y0066844D02*
X0121520D01*
Y0065744D02*
Y0066844D01*
X0119120Y0065744D02*
Y0066844D01*
X0122987Y0065819D02*
Y0066769D01*
X0122512Y0066294D02*
X0123462D01*
X0121787Y0065744D02*
X0124187D01*
X0121787Y0066844D02*
X0124187D01*
Y0065744D02*
Y0066844D01*
X0121787Y0065744D02*
Y0066844D01*
X0120320Y0070645D02*
Y0071595D01*
X0119845Y0071120D02*
X0120795D01*
X0119120Y0070570D02*
X0121520D01*
X0119120Y0071670D02*
X0121520D01*
Y0070570D02*
Y0071670D01*
X0119120Y0070570D02*
Y0071670D01*
X0131953Y0070645D02*
Y0071595D01*
X0131478Y0071120D02*
X0132428D01*
X0130753Y0070570D02*
X0133153D01*
X0130753Y0071670D02*
X0133153D01*
Y0070570D02*
Y0071670D01*
X0130753Y0070570D02*
Y0071670D01*
X0131953Y0065819D02*
Y0066769D01*
X0131478Y0066294D02*
X0132428D01*
X0130753Y0065744D02*
X0133153D01*
X0130753Y0066844D02*
X0133153D01*
Y0065744D02*
Y0066844D01*
X0130753Y0065744D02*
Y0066844D01*
X0134620Y0065819D02*
Y0066769D01*
X0134145Y0066294D02*
X0135095D01*
X0133420Y0065744D02*
X0135820D01*
X0133420Y0066844D02*
X0135820D01*
Y0065744D02*
Y0066844D01*
X0133420Y0065744D02*
Y0066844D01*
X0122987Y0058326D02*
Y0059276D01*
X0122512Y0058801D02*
X0123462D01*
X0121787Y0058251D02*
X0124187D01*
X0121787Y0059351D02*
X0124187D01*
Y0058251D02*
Y0059351D01*
X0121787Y0058251D02*
Y0059351D01*
X0134620Y0058326D02*
Y0059276D01*
X0134145Y0058801D02*
X0135095D01*
X0133420Y0058251D02*
X0135820D01*
X0133420Y0059351D02*
X0135820D01*
Y0058251D02*
Y0059351D01*
X0133420Y0058251D02*
Y0059351D01*
X0120320Y0063152D02*
Y0064102D01*
X0119845Y0063627D02*
X0120795D01*
X0119120Y0063077D02*
X0121520D01*
X0119120Y0064177D02*
X0121520D01*
Y0063077D02*
Y0064177D01*
X0119120Y0063077D02*
Y0064177D01*
X0122987Y0063152D02*
Y0064102D01*
X0122512Y0063627D02*
X0123462D01*
X0121787Y0063077D02*
X0124187D01*
X0121787Y0064177D02*
X0124187D01*
Y0063077D02*
Y0064177D01*
X0121787Y0063077D02*
Y0064177D01*
X0134620Y0063152D02*
Y0064102D01*
X0134145Y0063627D02*
X0135095D01*
X0133420Y0063077D02*
X0135820D01*
X0133420Y0064177D02*
X0135820D01*
Y0063077D02*
Y0064177D01*
X0133420Y0063077D02*
Y0064177D01*
X0120320Y0058326D02*
Y0059276D01*
X0119845Y0058801D02*
X0120795D01*
X0119120Y0058251D02*
X0121520D01*
X0119120Y0059351D02*
X0121520D01*
Y0058251D02*
Y0059351D01*
X0119120Y0058251D02*
Y0059351D01*
X0131953Y0063152D02*
Y0064102D01*
X0131478Y0063627D02*
X0132428D01*
X0130753Y0063077D02*
X0133153D01*
X0130753Y0064177D02*
X0133153D01*
Y0063077D02*
Y0064177D01*
X0130753Y0063077D02*
Y0064177D01*
X0131953Y0058326D02*
Y0059276D01*
X0131478Y0058801D02*
X0132428D01*
X0130753Y0058251D02*
X0133153D01*
X0130753Y0059351D02*
X0133153D01*
Y0058251D02*
Y0059351D01*
X0130753Y0058251D02*
Y0059351D01*
X0120904Y0067132D02*
Y0070282D01*
X0122554D01*
X0120904Y0067132D02*
X0122554D01*
Y0070282D01*
X0132537Y0067132D02*
Y0070282D01*
X0134187D01*
X0132537Y0067132D02*
X0134187D01*
Y0070282D01*
X0120904Y0059639D02*
Y0062789D01*
X0122554D01*
X0120904Y0059639D02*
X0122554D01*
Y0062789D01*
X0132537Y0059639D02*
Y0062789D01*
X0134187D01*
X0132537Y0059639D02*
X0134187D01*
Y0062789D01*
X0122987Y0080805D02*
Y0081755D01*
X0122512Y0081280D02*
X0123462D01*
X0121787Y0080730D02*
X0124187D01*
X0121787Y0081830D02*
X0124187D01*
Y0080730D02*
Y0081830D01*
X0121787Y0080730D02*
Y0081830D01*
X0122987Y0085631D02*
Y0086581D01*
X0122512Y0086106D02*
X0123462D01*
X0121787Y0085556D02*
X0124187D01*
X0121787Y0086656D02*
X0124187D01*
Y0085556D02*
Y0086656D01*
X0121787Y0085556D02*
Y0086656D01*
X0120320Y0080805D02*
Y0081755D01*
X0119845Y0081280D02*
X0120795D01*
X0119120Y0080730D02*
X0121520D01*
X0119120Y0081830D02*
X0121520D01*
Y0080730D02*
Y0081830D01*
X0119120Y0080730D02*
Y0081830D01*
X0120320Y0085631D02*
Y0086581D01*
X0119845Y0086106D02*
X0120795D01*
X0119120Y0085556D02*
X0121520D01*
X0119120Y0086656D02*
X0121520D01*
Y0085556D02*
Y0086656D01*
X0119120Y0085556D02*
Y0086656D01*
X0120904Y0082118D02*
Y0085268D01*
X0122554D01*
X0120904Y0082118D02*
X0122554D01*
Y0085268D01*
X0134620Y0080805D02*
Y0081755D01*
X0134145Y0081280D02*
X0135095D01*
X0133420Y0080730D02*
X0135820D01*
X0133420Y0081830D02*
X0135820D01*
Y0080730D02*
Y0081830D01*
X0133420Y0080730D02*
Y0081830D01*
X0131953Y0080805D02*
Y0081755D01*
X0131478Y0081280D02*
X0132428D01*
X0130753Y0080730D02*
X0133153D01*
X0130753Y0081830D02*
X0133153D01*
Y0080730D02*
Y0081830D01*
X0130753Y0080730D02*
Y0081830D01*
X0131953Y0085631D02*
Y0086581D01*
X0131478Y0086106D02*
X0132428D01*
X0130753Y0085556D02*
X0133153D01*
X0130753Y0086656D02*
X0133153D01*
Y0085556D02*
Y0086656D01*
X0130753Y0085556D02*
Y0086656D01*
X0134620Y0085631D02*
Y0086581D01*
X0134145Y0086106D02*
X0135095D01*
X0133420Y0085556D02*
X0135820D01*
X0133420Y0086656D02*
X0135820D01*
Y0085556D02*
Y0086656D01*
X0133420Y0085556D02*
Y0086656D01*
X0132537Y0082118D02*
Y0085268D01*
X0134187D01*
X0132537Y0082118D02*
X0134187D01*
Y0085268D01*
X0122987Y0073312D02*
Y0074262D01*
X0122512Y0073787D02*
X0123462D01*
X0121787Y0073237D02*
X0124187D01*
X0121787Y0074337D02*
X0124187D01*
Y0073237D02*
Y0074337D01*
X0121787Y0073237D02*
Y0074337D01*
X0120320Y0078138D02*
Y0079088D01*
X0119845Y0078613D02*
X0120795D01*
X0119120Y0078063D02*
X0121520D01*
X0119120Y0079163D02*
X0121520D01*
Y0078063D02*
Y0079163D01*
X0119120Y0078063D02*
Y0079163D01*
X0120320Y0073312D02*
Y0074262D01*
X0119845Y0073787D02*
X0120795D01*
X0119120Y0073237D02*
X0121520D01*
X0119120Y0074337D02*
X0121520D01*
Y0073237D02*
Y0074337D01*
X0119120Y0073237D02*
Y0074337D01*
X0122987Y0078138D02*
Y0079088D01*
X0122512Y0078613D02*
X0123462D01*
X0121787Y0078063D02*
X0124187D01*
X0121787Y0079163D02*
X0124187D01*
Y0078063D02*
Y0079163D01*
X0121787Y0078063D02*
Y0079163D01*
X0120904Y0074625D02*
Y0077775D01*
X0122554D01*
X0120904Y0074625D02*
X0122554D01*
Y0077775D01*
X0132537Y0074625D02*
Y0077775D01*
X0134187D01*
X0132537Y0074625D02*
X0134187D01*
Y0077775D01*
X0131953Y0078138D02*
Y0079088D01*
X0131478Y0078613D02*
X0132428D01*
X0130753Y0078063D02*
X0133153D01*
X0130753Y0079163D02*
X0133153D01*
Y0078063D02*
Y0079163D01*
X0130753Y0078063D02*
Y0079163D01*
X0131953Y0073312D02*
Y0074262D01*
X0131478Y0073787D02*
X0132428D01*
X0130753Y0073237D02*
X0133153D01*
X0130753Y0074337D02*
X0133153D01*
Y0073237D02*
Y0074337D01*
X0130753Y0073237D02*
Y0074337D01*
X0134620Y0078138D02*
Y0079088D01*
X0134145Y0078613D02*
X0135095D01*
X0133420Y0078063D02*
X0135820D01*
X0133420Y0079163D02*
X0135820D01*
Y0078063D02*
Y0079163D01*
X0133420Y0078063D02*
Y0079163D01*
X0134620Y0073312D02*
Y0074262D01*
X0134145Y0073787D02*
X0135095D01*
X0133420Y0073237D02*
X0135820D01*
X0133420Y0074337D02*
X0135820D01*
Y0073237D02*
Y0074337D01*
X0133420Y0073237D02*
Y0074337D01*
X0047625Y0079764D02*
Y0080764D01*
X0047125Y0080264D02*
X0048125D01*
X0045625Y0081214D02*
X0049625D01*
X0045625Y0079314D02*
X0049625D01*
Y0081214D01*
X0045625Y0079314D02*
Y0081214D01*
X0047625Y0074684D02*
Y0075684D01*
X0047125Y0075184D02*
X0048125D01*
X0045625Y0076134D02*
X0049625D01*
X0045625Y0074234D02*
X0049625D01*
Y0076134D01*
X0045625Y0074234D02*
Y0076134D01*
X0057785Y0072144D02*
Y0073144D01*
X0057285Y0072644D02*
X0058285D01*
X0055785Y0071694D02*
X0059785D01*
X0055785Y0073594D02*
X0059785D01*
X0055785Y0071694D02*
Y0073594D01*
X0059785Y0071694D02*
Y0073594D01*
X0047625Y0069604D02*
Y0070604D01*
X0047125Y0070104D02*
X0048125D01*
X0045625Y0071054D02*
X0049625D01*
X0045625Y0069154D02*
X0049625D01*
Y0071054D01*
X0045625Y0069154D02*
Y0071054D01*
X0047625Y0064524D02*
Y0065524D01*
X0047125Y0065024D02*
X0048125D01*
X0045625Y0065974D02*
X0049625D01*
X0045625Y0064074D02*
X0049625D01*
Y0065974D01*
X0045625Y0064074D02*
Y0065974D01*
X0057785Y0067064D02*
Y0068064D01*
X0057285Y0067564D02*
X0058285D01*
X0055785Y0066614D02*
X0059785D01*
X0055785Y0068514D02*
X0059785D01*
X0055785Y0066614D02*
Y0068514D01*
X0059785Y0066614D02*
Y0068514D01*
X0057785Y0077224D02*
Y0078224D01*
X0057285Y0077724D02*
X0058285D01*
X0055785Y0076774D02*
X0059785D01*
X0055785Y0078674D02*
X0059785D01*
X0055785Y0076774D02*
Y0078674D01*
X0059785Y0076774D02*
Y0078674D01*
X0057785Y0082304D02*
Y0083304D01*
X0057285Y0082804D02*
X0058285D01*
X0055785Y0081854D02*
X0059785D01*
X0055785Y0083754D02*
X0059785D01*
X0055785Y0081854D02*
Y0083754D01*
X0059785Y0081854D02*
Y0083754D01*
X0097790Y0067064D02*
Y0068064D01*
X0097290Y0067564D02*
X0098290D01*
X0095790Y0066614D02*
X0099790D01*
X0095790Y0068514D02*
X0099790D01*
X0095790Y0066614D02*
Y0068514D01*
X0099790Y0066614D02*
Y0068514D01*
X0047625Y0110244D02*
Y0111244D01*
X0047125Y0110744D02*
X0048125D01*
X0045625Y0111694D02*
X0049625D01*
X0045625Y0109794D02*
X0049625D01*
Y0111694D01*
X0045625Y0109794D02*
Y0111694D01*
X0087630Y0110244D02*
Y0111244D01*
X0087130Y0110744D02*
X0088130D01*
X0085630Y0111694D02*
X0089630D01*
X0085630Y0109794D02*
X0089630D01*
Y0111694D01*
X0085630Y0109794D02*
Y0111694D01*
X0097790Y0107704D02*
Y0108704D01*
X0097290Y0108204D02*
X0098290D01*
X0095790Y0107254D02*
X0099790D01*
X0095790Y0109154D02*
X0099790D01*
X0095790Y0107254D02*
Y0109154D01*
X0099790Y0107254D02*
Y0109154D01*
X0057785Y0107704D02*
Y0108704D01*
X0057285Y0108204D02*
X0058285D01*
X0055785Y0107254D02*
X0059785D01*
X0055785Y0109154D02*
X0059785D01*
X0055785Y0107254D02*
Y0109154D01*
X0059785Y0107254D02*
Y0109154D01*
X0097790Y0077224D02*
Y0078224D01*
X0097290Y0077724D02*
X0098290D01*
X0095790Y0076774D02*
X0099790D01*
X0095790Y0078674D02*
X0099790D01*
X0095790Y0076774D02*
Y0078674D01*
X0099790Y0076774D02*
Y0078674D01*
X0097790Y0102624D02*
Y0103624D01*
X0097290Y0103124D02*
X0098290D01*
X0095790Y0102174D02*
X0099790D01*
X0095790Y0104074D02*
X0099790D01*
X0095790Y0102174D02*
Y0104074D01*
X0099790Y0102174D02*
Y0104074D01*
X0097790Y0112784D02*
Y0113784D01*
X0097290Y0113284D02*
X0098290D01*
X0095790Y0112334D02*
X0099790D01*
X0095790Y0114234D02*
X0099790D01*
X0095790Y0112334D02*
Y0114234D01*
X0099790Y0112334D02*
Y0114234D01*
X0097790Y0072144D02*
Y0073144D01*
X0097290Y0072644D02*
X0098290D01*
X0095790Y0071694D02*
X0099790D01*
X0095790Y0073594D02*
X0099790D01*
X0095790Y0071694D02*
Y0073594D01*
X0099790Y0071694D02*
Y0073594D01*
X0057785Y0102624D02*
Y0103624D01*
X0057285Y0103124D02*
X0058285D01*
X0055785Y0102174D02*
X0059785D01*
X0055785Y0104074D02*
X0059785D01*
X0055785Y0102174D02*
Y0104074D01*
X0059785Y0102174D02*
Y0104074D01*
X0097790Y0082304D02*
Y0083304D01*
X0097290Y0082804D02*
X0098290D01*
X0095790Y0081854D02*
X0099790D01*
X0095790Y0083754D02*
X0099790D01*
X0095790Y0081854D02*
Y0083754D01*
X0099790Y0081854D02*
Y0083754D01*
X0057785Y0112784D02*
Y0113784D01*
X0057285Y0113284D02*
X0058285D01*
X0055785Y0112334D02*
X0059785D01*
X0055785Y0114234D02*
X0059785D01*
X0055785Y0112334D02*
Y0114234D01*
X0059785Y0112334D02*
Y0114234D01*
X0057785Y0097544D02*
Y0098544D01*
X0057285Y0098044D02*
X0058285D01*
X0055785Y0097094D02*
X0059785D01*
X0055785Y0098994D02*
X0059785D01*
X0055785Y0097094D02*
Y0098994D01*
X0059785Y0097094D02*
Y0098994D01*
X0097790Y0097544D02*
Y0098544D01*
X0097290Y0098044D02*
X0098290D01*
X0095790Y0097094D02*
X0099790D01*
X0095790Y0098994D02*
X0099790D01*
X0095790Y0097094D02*
Y0098994D01*
X0099790Y0097094D02*
Y0098994D01*
X0087630Y0095004D02*
Y0096004D01*
X0087130Y0095504D02*
X0088130D01*
X0085630Y0096454D02*
X0089630D01*
X0085630Y0094554D02*
X0089630D01*
Y0096454D01*
X0085630Y0094554D02*
Y0096454D01*
X0047625Y0097544D02*
Y0098544D01*
X0047125Y0098044D02*
X0048125D01*
X0045625Y0098994D02*
X0049625D01*
X0045625Y0097094D02*
X0049625D01*
Y0098994D01*
X0045625Y0097094D02*
Y0098994D01*
X0087630Y0100084D02*
Y0101084D01*
X0087130Y0100584D02*
X0088130D01*
X0085630Y0101534D02*
X0089630D01*
X0085630Y0099634D02*
X0089630D01*
Y0101534D01*
X0085630Y0099634D02*
Y0101534D01*
X0047625Y0100084D02*
Y0101084D01*
X0047125Y0100584D02*
X0048125D01*
X0045625Y0101534D02*
X0049625D01*
X0045625Y0099634D02*
X0049625D01*
Y0101534D01*
X0045625Y0099634D02*
Y0101534D01*
X0087630Y0069604D02*
Y0070604D01*
X0087130Y0070104D02*
X0088130D01*
X0085630Y0071054D02*
X0089630D01*
X0085630Y0069154D02*
X0089630D01*
Y0071054D01*
X0085630Y0069154D02*
Y0071054D01*
X0087630Y0105164D02*
Y0106164D01*
X0087130Y0105664D02*
X0088130D01*
X0085630Y0106614D02*
X0089630D01*
X0085630Y0104714D02*
X0089630D01*
Y0106614D01*
X0085630Y0104714D02*
Y0106614D01*
X0047625Y0105164D02*
Y0106164D01*
X0047125Y0105664D02*
X0048125D01*
X0045625Y0106614D02*
X0049625D01*
X0045625Y0104714D02*
X0049625D01*
Y0106614D01*
X0045625Y0104714D02*
Y0106614D01*
X0087630Y0074684D02*
Y0075684D01*
X0087130Y0075184D02*
X0088130D01*
X0085630Y0076134D02*
X0089630D01*
X0085630Y0074234D02*
X0089630D01*
Y0076134D01*
X0085630Y0074234D02*
Y0076134D01*
X0087630Y0079764D02*
Y0080764D01*
X0087130Y0080264D02*
X0088130D01*
X0085630Y0081214D02*
X0089630D01*
X0085630Y0079314D02*
X0089630D01*
Y0081214D01*
X0085630Y0079314D02*
Y0081214D01*
X0135763Y0096680D02*
Y0097630D01*
X0135288Y0097155D02*
X0136238D01*
X0134563Y0097705D02*
X0136963D01*
X0134563Y0096605D02*
X0136963D01*
Y0097705D01*
X0134563Y0096605D02*
Y0097705D01*
X0115603Y0114808D02*
X0116553D01*
X0116078Y0114333D02*
Y0115283D01*
X0116628Y0113608D02*
Y0116008D01*
X0115528Y0113608D02*
Y0116008D01*
X0116628D01*
X0115528Y0113608D02*
X0116628D01*
X0123731Y0112776D02*
X0124681D01*
X0124206Y0112301D02*
Y0113251D01*
X0123656Y0111576D02*
Y0113976D01*
X0124756Y0111576D02*
Y0113976D01*
X0123656Y0111576D02*
X0124756D01*
X0123656Y0113976D02*
X0124756D01*
X0118113Y0116598D02*
Y0118098D01*
X0115313Y0116598D02*
Y0118098D01*
Y0116598D02*
X0118113D01*
X0115313Y0118098D02*
X0118113D01*
X0116213Y0117348D02*
X0117213D01*
X0116713Y0116848D02*
Y0117848D01*
X0121415Y0116598D02*
Y0118098D01*
X0118615Y0116598D02*
Y0118098D01*
Y0116598D02*
X0121415D01*
X0118615Y0118098D02*
X0121415D01*
X0119515Y0117348D02*
X0120515D01*
X0120015Y0116848D02*
Y0117848D01*
X0123190Y0116873D02*
Y0117823D01*
X0122715Y0117348D02*
X0123665D01*
X0121990Y0117898D02*
X0124390D01*
X0121990Y0116798D02*
X0124390D01*
X0121990D02*
Y0117898D01*
X0124390Y0116798D02*
Y0117898D01*
X0114079Y0110617D02*
X0115029D01*
X0114554Y0110142D02*
Y0111092D01*
X0114004Y0109417D02*
Y0111817D01*
X0115104Y0109417D02*
Y0111817D01*
X0114004Y0109417D02*
X0115104D01*
X0114004Y0111817D02*
X0115104D01*
X0123350Y0104775D02*
X0124300D01*
X0123825Y0104300D02*
Y0105250D01*
X0123275Y0103575D02*
Y0105975D01*
X0124375Y0103575D02*
Y0105975D01*
X0123275Y0103575D02*
X0124375D01*
X0123275Y0105975D02*
X0124375D01*
X0128270Y0097950D02*
Y0098900D01*
X0127795Y0098425D02*
X0128745D01*
X0127070Y0098975D02*
X0129470D01*
X0127070Y0097875D02*
X0129470D01*
Y0098975D01*
X0127070Y0097875D02*
Y0098975D01*
X0122809Y0092235D02*
Y0093185D01*
X0122334Y0092710D02*
X0123284D01*
X0121609Y0092160D02*
X0124009D01*
X0121609Y0093260D02*
X0124009D01*
X0121609Y0092160D02*
Y0093260D01*
X0124009Y0092160D02*
Y0093260D01*
M02*
