%FSLAX43Y43*%
%MOMM*%
%SFA1B1*%

%IPPOS*%
%ADD9500C,0.253999*%
%ADD9501C,0.380999*%
%ADD9502C,0.507999*%
%ADD9503C,0.710999*%
%ADD9504C,0.761998*%
%ADD9505C,0.799998*%
%ADD9506C,0.888998*%
%ADD9507C,0.899998*%
%ADD9508C,1.015998*%
%ADD9509C,1.089998*%
%ADD9510C,1.269997*%
%ADD9511C,1.499997*%
%ADD9512C,1.574997*%
%ADD9513C,2.285995*%
%ADD9514C,2.599995*%
%ADD9515C,2.666995*%
%ADD9516C,3.259993*%
%ADD9517C,3.301993*%
%LNlp_led_cube_8x8x8-1*%
%LPD*%
G54D9500*
X121538Y76580D03*
X129412D03*
X137413D03*
X145287D03*
X56387Y76199D03*
X55752Y75057D03*
X55117Y77088D03*
X53847Y73659D03*
X52958Y71754D03*
X51180D03*
X49402Y70992D03*
X47878Y69341D03*
X48259Y66547D03*
X44195Y67309D03*
X42925D03*
X42673Y68452D03*
X41782Y69214D03*
X40069Y69403D03*
X43052Y73024D03*
X43687Y74802D03*
X45211D03*
X45592Y72897D03*
X46227Y77088D03*
X44231Y77560D03*
X51053Y76326D03*
X51561Y62102D03*
X46862Y62483D03*
X45592D03*
X43052D03*
X41782D03*
X40512Y62102D03*
X38353Y76199D03*
X43687Y84454D03*
X44703Y83692D03*
X46100Y82295D03*
X49529Y80644D03*
X57149Y96011D03*
Y96900D03*
X67309D03*
Y95249D03*
X68198Y96011D03*
X86994D03*
Y96900D03*
X96138Y86867D03*
X97408Y86232D03*
X98678Y85597D03*
X99948Y84962D03*
X101218Y84327D03*
X102488Y83692D03*
X103758Y83057D03*
X105028Y82422D03*
X116839Y96011D03*
Y96900D03*
X121538Y86105D03*
X129412D03*
X137286Y86130D03*
X145160Y86105D03*
X146684Y96011D03*
Y96900D03*
G54D9501*
X80517Y60705D03*
X81787D03*
X84327Y61848D03*
X81152Y66674D03*
X80009D03*
X79628Y73301D03*
X86105Y72770D03*
X86486Y77088D03*
X85978Y78104D03*
X88010Y78739D03*
X90169Y77342D03*
X91058Y76580D03*
X89280Y75691D03*
X90169Y74802D03*
X93979Y78485D03*
X94233Y70357D03*
X88264Y68071D03*
X88725Y55117D03*
X115188Y61213D03*
X116458D03*
X115188Y65673D03*
X106241Y70541D03*
X106679Y72643D03*
Y74929D03*
X103377Y77723D03*
X112210Y77342D03*
X74929Y74040D03*
X73786D03*
X74040Y70230D03*
X75310D03*
X76453Y71247D03*
X78104Y66293D03*
X74548D03*
X70357Y59308D03*
Y57784D03*
X66547Y70357D03*
X58038Y48513D03*
X53212Y84073D03*
X43687Y86232D03*
X50139Y101980D03*
X51409D03*
Y103250D03*
X50139D03*
X66547Y80644D03*
X69722Y82422D03*
X73151D03*
X73024Y84962D03*
X76199Y82549D03*
X77977Y81660D03*
X86994Y83311D03*
X86867Y84581D03*
X87756Y85470D03*
X89915Y84454D03*
X90931Y83438D03*
X85978Y87121D03*
X81254Y101980D03*
X79984D03*
Y103250D03*
X81254D03*
X109829D03*
Y101980D03*
X111099D03*
Y103250D03*
X125475Y91312D03*
X133349D03*
X141223D03*
X141350Y81533D03*
X133476D03*
X125221Y82422D03*
X139674Y101980D03*
X140944D03*
Y103250D03*
X139674D03*
G54D9502*
X103377Y64642D03*
X114045Y78866D03*
X77596Y89280D03*
X54101Y93979D03*
X86899Y89153D03*
X117093Y94233D03*
X120649Y91058D03*
X128523D03*
X136397Y91083D03*
X144271Y91058D03*
X144398Y81533D03*
X136524D03*
X128523D03*
X120649D03*
G54D9503*
X86899Y89153D03*
G54D9504*
X125475Y58673D03*
X128269D03*
X136270Y56768D03*
X139064D03*
X135127Y68198D03*
X144017Y70738D03*
X103377Y53593D03*
X68452Y52640D03*
Y54673D03*
X65912D03*
Y52640D03*
X61086Y84708D03*
X62356Y92963D03*
X70357Y91947D03*
X65404Y101472D03*
X50799Y99313D03*
X80644Y99948D03*
X94868Y100710D03*
X110489Y99313D03*
X127126Y100964D03*
X140334Y99948D03*
G54D9505*
X129412Y45084D03*
X131952D03*
X134492D03*
X137032D03*
X140207D03*
X142747D03*
X83692D03*
X81152D03*
X78612D03*
X76072D03*
X58292D03*
X55752D03*
G54D9506*
X40512Y57022D03*
X43052D03*
X45592D03*
X48132D03*
X50672D03*
X49402Y59562D03*
X46862D03*
X44322D03*
X41782D03*
X39242D03*
G54D9507*
X119252Y68198D03*
X121792D03*
X158622Y56768D03*
Y54228D03*
X79349Y108203D03*
X76809D03*
X74269D03*
X71729D03*
Y110743D03*
X74269D03*
X76809D03*
X79349D03*
X59664D03*
X57124D03*
X54584D03*
X52044D03*
X49504D03*
X46964D03*
X44424D03*
X41884D03*
Y108203D03*
X44424D03*
X46964D03*
X49504D03*
X52044D03*
X54584D03*
X57124D03*
X59664D03*
X81889D03*
Y110743D03*
X84429D03*
Y108203D03*
X86969D03*
Y110743D03*
X89509D03*
Y108203D03*
X101574D03*
Y110743D03*
X104114D03*
Y108203D03*
X106654D03*
Y110743D03*
X109194D03*
Y108203D03*
X111734D03*
Y110743D03*
X114274D03*
Y108203D03*
X116814D03*
Y110743D03*
X119354D03*
Y108203D03*
X131419D03*
Y110743D03*
X133959D03*
Y108203D03*
X136499D03*
Y110743D03*
X139039D03*
Y108203D03*
X141579D03*
Y110743D03*
X144119D03*
Y108203D03*
X146659D03*
Y110743D03*
X149199D03*
Y108203D03*
X154177Y91718D03*
X156717D03*
Y89178D03*
X154177D03*
Y86638D03*
X156717D03*
Y84098D03*
X154177D03*
G54D9508*
X88200Y45592D03*
X92772D03*
X51688Y46608D03*
X49148D03*
X40766D03*
X38226D03*
G54D9509*
X107477Y47703D03*
X110247D03*
X113017D03*
X115787D03*
X117172Y50543D03*
X114402D03*
X111632D03*
X108862D03*
X106092D03*
G54D9510*
X147446Y65658D03*
X93915Y48132D03*
X86931D03*
G54D9511*
X62623Y72770D03*
X70123D03*
G54D9512*
X53212Y53720D03*
X36702D03*
G54D9513*
X60832Y49973D03*
X73532D03*
G54D9514*
X157987Y46354D03*
X32892D03*
Y111378D03*
X157987D03*
G54D9515*
X149668Y47306D03*
Y53529D03*
X154114Y50354D03*
G54D9516*
X124127Y49123D03*
X99137D03*
G54D9517*
X50672Y50672D03*
X39242D03*
M02*