%FSLAX43Y43*%
%MOMM*%
%SFA1B1*%

%IPPOS*%
%ADD10R,0.799998X0.899998*%
%ADD11R,0.899998X0.799998*%
%ADD29C,0.253999*%
%ADD30C,0.380999*%
%ADD31C,0.634999*%
%ADD32C,0.507999*%
%ADD55R,2.285995X2.285995*%
%ADD57R,1.269997X1.269997*%
%ADD59C,0.507999*%
%ADD60C,0.761998*%
%ADD61C,3.999992*%
%ADD62R,1.499997X1.499997*%
%ADD63C,1.499997*%
%ADD64C,1.523997*%
%ADD65C,1.777996*%
%ADD66C,1.269997*%
%ADD67C,2.031996*%
%ADD68R,1.523997X1.523997*%
%ADD69C,3.555993*%
%ADD70C,1.599997*%
%ADD71C,1.689997*%
%ADD72R,1.689997X1.689997*%
%ADD73C,4.759990*%
%ADD74C,3.809992*%
%ADD75C,2.999994*%
%ADD76R,1.499997X1.499997*%
%ADD77C,1.015998*%
%ADD78R,1.599997X0.399999*%
%ADD79R,2.793994X2.539995*%
%ADD80R,0.999998X1.799996*%
%ADD81R,0.999998X1.299997*%
%ADD82R,9.524981X2.158996*%
%ADD83R,3.682993X3.936992*%
%ADD84R,2.285995X2.539995*%
%ADD85R,2.285995X2.158996*%
%LNlp_led_cube_8x8x8-1*%
%LPD*%
G36*
X161409Y42932D02*
X29470D01*
Y114800*
X161409*
Y42932*
G37*
%LNlp_led_cube_8x8x8-2*%
%LPC*%
G36*
X125602Y59681D02*
Y58800D01*
X126483*
X126465Y58938*
X126362Y59185*
X126200Y59398*
X125987Y59560*
X125740Y59663*
X125602Y59681*
G37*
G36*
X125348D02*
X125210Y59663D01*
X124963Y59560*
X124750Y59398*
X124588Y59185*
X124485Y58938*
X124467Y58800*
X125348*
Y59681*
G37*
G36*
X73616Y60012D02*
X73089D01*
Y59435*
X73616*
Y60012*
G37*
G36*
X84327Y62495D02*
X84079Y62446D01*
X83869Y62306*
X83729Y62096*
X83680Y61848*
X83729Y61600*
X83869Y61390*
X83939Y61344*
Y60408*
X83623*
Y59100*
Y59008*
Y58481*
X85031*
Y59008*
Y59100*
Y60408*
X84715*
Y61344*
X84785Y61390*
X84925Y61600*
X84974Y61848*
X84925Y62096*
X84785Y62306*
X84575Y62446*
X84327Y62495*
G37*
G36*
X41782Y60459D02*
X41550Y60428D01*
X41334Y60339*
X41148Y60196*
X41005Y60010*
X40916Y59794*
X40885Y59562*
X40916Y59330*
X41005Y59114*
X41148Y58928*
X41334Y58785*
X41550Y58696*
X41782Y58665*
X42014Y58696*
X42230Y58785*
X42416Y58928*
X42559Y59114*
X42648Y59330*
X42679Y59562*
X42648Y59794*
X42559Y60010*
X42416Y60196*
X42230Y60339*
X42014Y60428*
X41782Y60459*
G37*
G36*
X39242D02*
X39010Y60428D01*
X38794Y60339*
X38608Y60196*
X38465Y60010*
X38376Y59794*
X38345Y59562*
X38376Y59330*
X38465Y59114*
X38608Y58928*
X38794Y58785*
X39010Y58696*
X39242Y58665*
X39474Y58696*
X39690Y58785*
X39876Y58928*
X40019Y59114*
X40108Y59330*
X40139Y59562*
X40108Y59794*
X40019Y60010*
X39876Y60196*
X39690Y60339*
X39474Y60428*
X39242Y60459*
G37*
G36*
X46862D02*
X46630Y60428D01*
X46414Y60339*
X46228Y60196*
X46085Y60010*
X45996Y59794*
X45965Y59562*
X45996Y59330*
X46085Y59114*
X46228Y58928*
X46394Y58801*
X46353Y58680*
X44831*
X44790Y58801*
X44956Y58928*
X45099Y59114*
X45188Y59330*
X45219Y59562*
X45188Y59794*
X45099Y60010*
X44956Y60196*
X44770Y60339*
X44554Y60428*
X44322Y60459*
X44090Y60428*
X43874Y60339*
X43688Y60196*
X43545Y60010*
X43456Y59794*
X43425Y59562*
X43456Y59330*
X43545Y59114*
X43688Y58928*
X43874Y58785*
X43934Y58761*
Y57531*
X43813Y57490*
X43686Y57656*
X43500Y57799*
X43284Y57888*
X43052Y57919*
X42820Y57888*
X42604Y57799*
X42418Y57656*
X42275Y57470*
X42186Y57254*
X42155Y57022*
X42186Y56790*
X42275Y56574*
X42418Y56388*
X42604Y56245*
X42820Y56156*
X43052Y56125*
X43284Y56156*
X43500Y56245*
X43686Y56388*
X43813Y56554*
X43934Y56513*
Y55582*
X43618*
Y54274*
Y54182*
Y53655*
X44322*
Y53528*
X44449*
Y52874*
X45592*
Y53528*
X45719*
Y53655*
X46423*
Y54182*
Y54274*
Y54540*
X47308*
X47457Y54569*
X47583Y54653*
X48407Y55477*
X48491Y55603*
X48520Y55752*
Y56221*
X48580Y56245*
X48766Y56388*
X48909Y56574*
X48998Y56790*
X49029Y57022*
X48998Y57254*
X48909Y57470*
X48766Y57656*
X48580Y57799*
X48364Y57888*
X48132Y57919*
X47900Y57888*
X47840Y57863*
X47137Y58567*
X47113Y58582*
X47125Y58709*
X47310Y58785*
X47496Y58928*
X47639Y59114*
X47728Y59330*
X47759Y59562*
X47728Y59794*
X47639Y60010*
X47496Y60196*
X47310Y60339*
X47094Y60428*
X46862Y60459*
G37*
G36*
X49402D02*
X49170Y60428D01*
X48954Y60339*
X48768Y60196*
X48625Y60010*
X48536Y59794*
X48505Y59562*
X48536Y59330*
X48625Y59114*
X48768Y58928*
X48954Y58785*
X49170Y58696*
X49402Y58665*
X49634Y58696*
X49850Y58785*
X50036Y58928*
X50179Y59114*
X50268Y59330*
X50299Y59562*
X50268Y59794*
X50179Y60010*
X50036Y60196*
X49850Y60339*
X49634Y60428*
X49402Y60459*
G37*
G36*
X73721Y61467D02*
X73194D01*
Y60890*
X73721*
Y61467*
G37*
G36*
Y62298D02*
X73194D01*
Y61721*
X73721*
Y62298*
G37*
G36*
X71711Y61975D02*
X71184D01*
Y61398*
X71711*
Y61975*
G37*
G36*
X64958Y62806D02*
X64431D01*
Y62229*
X64958*
Y62806*
G37*
G36*
X79458Y62298D02*
X78931D01*
Y61721*
X79458*
Y62298*
G37*
G36*
Y61467D02*
X78931D01*
Y60890*
X79458*
Y61467*
G37*
G36*
X78104Y66940D02*
X77856Y66891D01*
X77646Y66751*
X77506Y66541*
X77457Y66293*
X77506Y66045*
X77646Y65835*
X77716Y65789*
Y65658*
X76453*
Y62610*
X77016*
Y62298*
X76750*
Y60890*
X78058*
X78150*
X78677*
Y61594*
Y62298*
X78150*
X78058*
X77792*
Y62610*
X79755*
Y65658*
X78492*
Y65789*
X78562Y65835*
X78702Y66045*
X78751Y66293*
X78702Y66541*
X78562Y66751*
X78352Y66891*
X78104Y66940*
G37*
G36*
X64958Y61975D02*
X64431D01*
Y61398*
X64958*
Y61975*
G37*
G36*
X81787Y61352D02*
X81539Y61303D01*
X81329Y61163*
X81215Y60993*
X81089*
X80975Y61163*
X80765Y61303*
X80517Y61352*
X80269Y61303*
X80059Y61163*
X79919Y60953*
X79870Y60705*
X79919Y60457*
X80059Y60247*
X80129Y60201*
Y51914*
X78337Y50123*
X78253Y49997*
X78224Y49848*
Y49232*
X77908*
Y47924*
Y47832*
Y47631*
X76896*
X76723Y47597*
X76576Y47498*
X75752Y46674*
X75653Y46527*
X75619Y46354*
Y46037*
X75540Y46005*
X75320Y45836*
X75151Y45616*
X75045Y45359*
X75009Y45084*
X75045Y44809*
X75151Y44552*
X75320Y44332*
X75540Y44163*
X75797Y44057*
X76072Y44021*
X76347Y44057*
X76604Y44163*
X76824Y44332*
X76993Y44552*
X77099Y44809*
X77135Y45084*
X77099Y45359*
X76993Y45616*
X76824Y45836*
X76604Y46005*
X76525Y46037*
Y46166*
X77084Y46725*
X77908*
Y46524*
X79316*
Y47832*
Y47924*
Y49232*
X79000*
Y49687*
X80646Y51333*
X80764Y51284*
Y49232*
X80448*
Y47924*
Y47832*
Y46524*
X80699*
Y46037*
X80620Y46005*
X80400Y45836*
X80231Y45616*
X80125Y45359*
X80089Y45084*
X80125Y44809*
X80231Y44552*
X80400Y44332*
X80620Y44163*
X80877Y44057*
X81152Y44021*
X81427Y44057*
X81684Y44163*
X81904Y44332*
X82073Y44552*
X82179Y44809*
X82215Y45084*
X82179Y45359*
X82073Y45616*
X81904Y45836*
X81684Y46005*
X81605Y46037*
Y46524*
X81856*
Y47832*
Y47924*
Y49232*
X81540*
Y59909*
X81705Y60074*
X81787Y60058*
X82035Y60107*
X82245Y60247*
X82385Y60457*
X82434Y60705*
X82385Y60953*
X82245Y61163*
X82035Y61303*
X81787Y61352*
G37*
G36*
X68498Y60012D02*
X68427D01*
X68406*
X67098*
Y59696*
X66674*
X66525Y59667*
X66399Y59583*
X64367Y57551*
X64283Y57425*
X64254Y57276*
Y53910*
X64283Y53762*
X64367Y53636*
X64973Y53030*
X64922Y52906*
X64887Y52640*
X64922Y52375*
X65025Y52128*
X65187Y51916*
X65400Y51753*
X65647Y51651*
X65912Y51616*
X66177Y51651*
X66424Y51753*
X66637Y51916*
X66799Y52128*
X66902Y52375*
X66937Y52640*
X66902Y52906*
X66799Y53153*
X66637Y53365*
X66424Y53528*
X66267Y53593*
Y53720*
X66424Y53785*
X66637Y53948*
X66799Y54160*
X66902Y54407*
X66937Y54673*
X66902Y54938*
X66799Y55185*
X66637Y55397*
X66424Y55560*
X66300Y55611*
Y56607*
X66981Y57287*
X67098Y57239*
Y57080*
X68406*
X68498*
X69806*
Y57254*
X69918Y57314*
X70109Y57186*
X70357Y57137*
X70605Y57186*
X70796Y57314*
X70908Y57254*
Y57080*
X72216*
X72308*
X72835*
Y57784*
X72962*
Y57911*
X73616*
Y58488*
Y58604*
Y59181*
X72962*
Y59308*
X72835*
Y60012*
X72308*
X72216*
X70908*
Y59838*
X70796Y59778*
X70605Y59906*
X70357Y59955*
X70109Y59906*
X69918Y59778*
X69806Y59838*
Y60012*
X68498*
G37*
G36*
X136143Y56641D02*
X135262D01*
X135280Y56503*
X135383Y56256*
X135545Y56043*
X135758Y55881*
X136005Y55778*
X136143Y55760*
Y56641*
G37*
G36*
X158622Y57781D02*
X158360Y57746D01*
X158116Y57645*
X157906Y57484*
X157745Y57274*
X157644Y57030*
X157609Y56768*
X157644Y56506*
X157745Y56262*
X157906Y56052*
X158116Y55891*
X158360Y55790*
X158622Y55755*
X158884Y55790*
X159128Y55891*
X159338Y56052*
X159499Y56262*
X159600Y56506*
X159635Y56768*
X159600Y57030*
X159499Y57274*
X159338Y57484*
X159128Y57645*
X158884Y57746*
X158622Y57781*
G37*
G36*
X40512Y57919D02*
X40280Y57888D01*
X40064Y57799*
X39878Y57656*
X39735Y57470*
X39646Y57254*
X39615Y57022*
X39646Y56790*
X39735Y56574*
X39878Y56388*
X40064Y56245*
X40280Y56156*
X40512Y56125*
X40744Y56156*
X40960Y56245*
X41146Y56388*
X41289Y56574*
X41378Y56790*
X41409Y57022*
X41378Y57254*
X41289Y57470*
X41146Y57656*
X40960Y57799*
X40744Y57888*
X40512Y57919*
G37*
G36*
X137278Y56641D02*
X136397D01*
Y55760*
X136535Y55778*
X136782Y55881*
X136995Y56043*
X137157Y56256*
X137260Y56503*
X137278Y56641*
G37*
G36*
X44195Y53401D02*
X43618D01*
Y52874*
X44195*
Y53401*
G37*
G36*
X69468Y55688D02*
X67436D01*
Y53657*
X67924*
X67949Y53532*
X67940Y53528*
X67727Y53365*
X67565Y53153*
X67462Y52906*
X67444Y52768*
X69460*
X69442Y52906*
X69339Y53153*
X69177Y53365*
X68964Y53528*
X68955Y53532*
X68980Y53657*
X69468*
Y55688*
G37*
G36*
X139064Y57793D02*
X138799Y57758D01*
X138552Y57655*
X138339Y57493*
X138177Y57280*
X138074Y57033*
X138039Y56768*
X138074Y56503*
X138177Y56256*
X138339Y56043*
X138552Y55881*
X138799Y55778*
X139064Y55743*
X139329Y55778*
X139576Y55881*
X139789Y56043*
X139951Y56256*
X140054Y56503*
X140089Y56768*
X140054Y57033*
X139951Y57280*
X139789Y57493*
X139576Y57655*
X139329Y57758*
X139064Y57793*
G37*
G36*
X46423Y53401D02*
X45846D01*
Y52874*
X46423*
Y53401*
G37*
G36*
X50672Y57919D02*
X50440Y57888D01*
X50224Y57799*
X50038Y57656*
X49895Y57470*
X49806Y57254*
X49775Y57022*
X49806Y56790*
X49895Y56574*
X50038Y56388*
X50224Y56245*
X50440Y56156*
X50672Y56125*
X50904Y56156*
X51120Y56245*
X51306Y56388*
X51449Y56574*
X51538Y56790*
X51569Y57022*
X51538Y57254*
X51449Y57470*
X51306Y57656*
X51120Y57799*
X50904Y57888*
X50672Y57919*
G37*
G36*
X126483Y58546D02*
X125602D01*
Y57665*
X125740Y57683*
X125987Y57786*
X126200Y57948*
X126362Y58161*
X126465Y58408*
X126483Y58546*
G37*
G36*
X125348D02*
X124467D01*
X124485Y58408*
X124588Y58161*
X124750Y57948*
X124963Y57786*
X125210Y57683*
X125348Y57665*
Y58546*
G37*
G36*
X85031Y58227D02*
X84454D01*
Y57700*
X85031*
Y58227*
G37*
G36*
X84200D02*
X83623D01*
Y57700*
X84200*
Y58227*
G37*
G36*
X136397Y57776D02*
Y56895D01*
X137278*
X137260Y57033*
X137157Y57280*
X136995Y57493*
X136782Y57655*
X136535Y57758*
X136397Y57776*
G37*
G36*
X136143D02*
X136005Y57758D01*
X135758Y57655*
X135545Y57493*
X135383Y57280*
X135280Y57033*
X135262Y56895*
X136143*
Y57776*
G37*
G36*
X128269Y59698D02*
X128004Y59663D01*
X127757Y59560*
X127544Y59398*
X127382Y59185*
X127279Y58938*
X127244Y58673*
X127279Y58408*
X127382Y58161*
X127544Y57948*
X127757Y57786*
X128004Y57683*
X128269Y57648*
X128534Y57683*
X128781Y57786*
X128994Y57948*
X129156Y58161*
X129259Y58408*
X129294Y58673*
X129259Y58938*
X129156Y59185*
X128994Y59398*
X128781Y59560*
X128534Y59663*
X128269Y59698*
G37*
G36*
X73616Y57657D02*
X73089D01*
Y57080*
X73616*
Y57657*
G37*
G36*
X71711Y62806D02*
X71184D01*
Y62229*
X71711*
Y62806*
G37*
G36*
X143890Y70611D02*
X143009D01*
X143027Y70473*
X143130Y70226*
X143292Y70013*
X143505Y69851*
X143752Y69748*
X143890Y69730*
Y70611*
G37*
G36*
X49402Y71510D02*
X49204Y71471D01*
X49036Y71358*
X48923Y71190*
X48884Y70992*
X48923Y70794*
X49036Y70626*
X49204Y70513*
X49363Y70482*
X49649Y70196*
Y69806*
X49333*
Y68498*
Y68406*
Y67879*
X50741*
Y68406*
Y68498*
Y69806*
X50425*
Y70357*
X50396Y70506*
X50312Y70632*
X49912Y71031*
X49881Y71190*
X49768Y71358*
X49600Y71471*
X49402Y71510*
G37*
G36*
X94106Y70230D02*
X93611D01*
X93635Y70109*
X93775Y69899*
X93985Y69759*
X94106Y69735*
Y70230*
G37*
G36*
X145025Y70611D02*
X144144D01*
Y69730*
X144282Y69748*
X144529Y69851*
X144742Y70013*
X144904Y70226*
X145007Y70473*
X145025Y70611*
G37*
G36*
X88391Y68693D02*
Y68198D01*
X88886*
X88862Y68319*
X88722Y68529*
X88512Y68669*
X88391Y68693*
G37*
G36*
X88137D02*
X88016Y68669D01*
X87806Y68529*
X87666Y68319*
X87642Y68198*
X88137*
Y68693*
G37*
G36*
X135254Y69206D02*
Y68325D01*
X136135*
X136117Y68463*
X136014Y68710*
X135852Y68923*
X135639Y69085*
X135392Y69188*
X135254Y69206*
G37*
G36*
X135000D02*
X134862Y69188D01*
X134615Y69085*
X134402Y68923*
X134240Y68710*
X134137Y68463*
X134119Y68325*
X135000*
Y69206*
G37*
G36*
X94855Y70230D02*
X94360D01*
Y69735*
X94481Y69759*
X94691Y69899*
X94831Y70109*
X94855Y70230*
G37*
G36*
X70123Y74532D02*
X69779Y74499D01*
X69449Y74398*
X69144Y74235*
X68877Y74016*
X68658Y73749*
X68495Y73444*
X68394Y73114*
X68361Y72770*
X68394Y72426*
X68495Y72096*
X68658Y71791*
X68877Y71524*
X69144Y71305*
X69449Y71142*
X69779Y71041*
X70123Y71008*
X70467Y71041*
X70797Y71142*
X71102Y71305*
X71369Y71524*
X71588Y71791*
X71751Y72096*
X71852Y72426*
X71885Y72770*
X71852Y73114*
X71751Y73444*
X71588Y73749*
X71369Y74016*
X71102Y74235*
X70797Y74398*
X70467Y74499*
X70123Y74532*
G37*
G36*
X144144Y71746D02*
Y70865D01*
X145025*
X145007Y71003*
X144904Y71250*
X144742Y71463*
X144529Y71625*
X144282Y71728*
X144144Y71746*
G37*
G36*
X64373Y72643D02*
X62750D01*
Y71020*
X62967Y71041*
X63297Y71142*
X63602Y71305*
X63869Y71524*
X64088Y71791*
X64251Y72096*
X64352Y72426*
X64373Y72643*
G37*
G36*
X62496D02*
X60873D01*
X60894Y72426*
X60995Y72096*
X61158Y71791*
X61377Y71524*
X61644Y71305*
X61949Y71142*
X62279Y71041*
X62496Y71020*
Y72643*
G37*
G36*
X94360Y70979D02*
Y70484D01*
X94855*
X94831Y70605*
X94691Y70815*
X94481Y70955*
X94360Y70979*
G37*
G36*
X94106D02*
X93985Y70955D01*
X93775Y70815*
X93635Y70605*
X93611Y70484*
X94106*
Y70979*
G37*
G36*
X143890Y71746D02*
X143752Y71728D01*
X143505Y71625*
X143292Y71463*
X143130Y71250*
X143027Y71003*
X143009Y70865*
X143890*
Y71746*
G37*
G36*
X53847Y74177D02*
X53649Y74138D01*
X53481Y74025*
X53368Y73857*
X53329Y73659*
X53368Y73461*
X53481Y73293*
X53649Y73180*
X53808Y73149*
X56874Y70082*
X57000Y69998*
X57149Y69969*
X66043*
X66089Y69899*
X66299Y69759*
X66547Y69710*
X66795Y69759*
X67005Y69899*
X67051Y69969*
X72389*
X72538Y69998*
X72664Y70082*
X73440Y70858*
X73618*
X73655Y70737*
X73582Y70688*
X73442Y70478*
X73393Y70230*
X73404Y70172*
X69660Y66427*
X67662*
X67513Y66398*
X67387Y66314*
X66636Y65562*
X65717*
Y63254*
X66083*
Y62806*
X65831*
X65739*
X65212*
Y62102*
Y61398*
X65739*
X65831*
X67139*
Y62806*
X66859*
Y63254*
X67225*
Y65053*
X67823Y65651*
X68917*
Y65562*
Y63254*
X69283*
Y62806*
X69003*
Y61398*
X70311*
X70403*
X70930*
Y62102*
Y62806*
X70403*
X70311*
X70059*
Y63254*
X70425*
Y64796*
X75228Y69599*
X75310Y69583*
X75558Y69632*
X75768Y69772*
X75908Y69982*
X75957Y70230*
X75908Y70478*
X75768Y70688*
X75695Y70737*
X75732Y70858*
X75949*
X75995Y70789*
X76205Y70649*
X76453Y70599*
X76701Y70649*
X76911Y70789*
X77051Y70999*
X77100Y71247*
X77051Y71494*
X76911Y71704*
X76701Y71845*
X76453Y71894*
X76205Y71845*
X75995Y71704*
X75949Y71635*
X73279*
X73130Y71606*
X73004Y71521*
X72228Y70745*
X67051*
X67005Y70815*
X66795Y70955*
X66547Y71004*
X66299Y70955*
X66089Y70815*
X66043Y70745*
X57310*
X54357Y73698*
X54326Y73857*
X54213Y74025*
X54045Y74138*
X53847Y74177*
G37*
G36*
X88886Y67944D02*
X88391D01*
Y67449*
X88512Y67473*
X88722Y67613*
X88862Y67823*
X88886Y67944*
G37*
G36*
X103377Y65411D02*
X103178Y65384D01*
X102993Y65308*
X102834Y65185*
X102711Y65026*
X102635Y64841*
X102608Y64642*
X102635Y64443*
X102711Y64258*
X102834Y64099*
X102993Y63976*
X103178Y63900*
X103377Y63873*
X103576Y63900*
X103761Y63976*
X103920Y64099*
X104043Y64258*
X104119Y64443*
X104146Y64642*
X104119Y64841*
X104043Y65026*
X103920Y65185*
X103761Y65308*
X103576Y65384*
X103377Y65411*
G37*
G36*
X48963Y63561D02*
X48386D01*
Y63034*
X48963*
Y63561*
G37*
G36*
X147319Y65531D02*
X146310D01*
X146332Y65360*
X146448Y65082*
X146631Y64843*
X146870Y64660*
X147148Y64544*
X147319Y64522*
Y65531*
G37*
G36*
X48259Y67065D02*
X48061Y67026D01*
X47893Y66913*
X47780Y66745*
X47741Y66547*
X47780Y66349*
X47871Y66214*
Y65742*
X47555*
Y64434*
Y64342*
Y63815*
X48963*
Y64342*
Y64434*
Y65742*
X48647*
Y66214*
X48738Y66349*
X48777Y66547*
X48738Y66745*
X48625Y66913*
X48457Y67026*
X48259Y67065*
G37*
G36*
X39877Y63561D02*
X39300D01*
Y63034*
X39877*
Y63561*
G37*
G36*
X74548Y66940D02*
X74300Y66891D01*
X74090Y66751*
X73950Y66541*
X73901Y66293*
X73950Y66045*
X74090Y65835*
X74160Y65789*
Y65658*
X72897*
Y62610*
X74860*
Y62298*
X74594*
X74502*
X73975*
Y61594*
Y60890*
X74502*
X74594*
X75902*
Y62298*
X75636*
Y62610*
X76199*
Y65658*
X74936*
Y65789*
X75006Y65835*
X75146Y66045*
X75195Y66293*
X75146Y66541*
X75006Y66751*
X74796Y66891*
X74548Y66940*
G37*
G36*
X48132Y63561D02*
X47555D01*
Y63034*
X48132*
Y63561*
G37*
G36*
X40708D02*
X40131D01*
Y63034*
X40708*
Y63561*
G37*
G36*
X148582Y65531D02*
X147573D01*
Y64522*
X147744Y64544*
X148022Y64660*
X148261Y64843*
X148444Y65082*
X148560Y65360*
X148582Y65531*
G37*
G36*
X136135Y68071D02*
X135254D01*
Y67190*
X135392Y67208*
X135639Y67311*
X135852Y67473*
X136014Y67686*
X136117Y67933*
X136135Y68071*
G37*
G36*
X135000D02*
X134119D01*
X134137Y67933*
X134240Y67686*
X134402Y67473*
X134615Y67311*
X134862Y67208*
X135000Y67190*
Y68071*
G37*
G36*
X88137Y67944D02*
X87642D01*
X87666Y67823*
X87806Y67613*
X88016Y67473*
X88137Y67449*
Y67944*
G37*
G36*
X122796Y69202D02*
X120788D01*
Y67194*
X122796*
Y69202*
G37*
G36*
X147573Y66794D02*
Y65785D01*
X148582*
X148560Y65956*
X148444Y66234*
X148261Y66473*
X148022Y66656*
X147744Y66772*
X147573Y66794*
G37*
G36*
X147319D02*
X147148Y66772D01*
X146870Y66656*
X146631Y66473*
X146448Y66234*
X146332Y65956*
X146310Y65785*
X147319*
Y66794*
G37*
G36*
X50741Y67625D02*
X50164D01*
Y67098*
X50741*
Y67625*
G37*
G36*
X49910D02*
X49333D01*
Y67098*
X49910*
Y67625*
G37*
G36*
X99010Y48996D02*
X96505D01*
X96527Y48710*
X96624Y48307*
X96783Y47923*
X96999Y47570*
X97269Y47255*
X97584Y46985*
X97937Y46769*
X98321Y46610*
X98724Y46513*
X99010Y46491*
Y48996*
G37*
G36*
X158114Y48606D02*
Y46481D01*
X160239*
X160208Y46796*
X160080Y47221*
X159870Y47612*
X159589Y47956*
X159245Y48237*
X158854Y48446*
X158429Y48575*
X158114Y48606*
G37*
G36*
X124000Y48996D02*
X121495D01*
X121517Y48710*
X121614Y48307*
X121773Y47923*
X121989Y47570*
X122259Y47255*
X122574Y46985*
X122927Y46769*
X123311Y46610*
X123714Y46513*
X124000Y46491*
Y48996*
G37*
G36*
X101769D02*
X99264D01*
Y46491*
X99550Y46513*
X99953Y46610*
X100337Y46769*
X100690Y46985*
X101005Y47255*
X101275Y47570*
X101491Y47923*
X101650Y48307*
X101747Y48710*
X101769Y48996*
G37*
G36*
X32765Y48606D02*
X32450Y48575D01*
X32025Y48446*
X31634Y48237*
X31290Y47956*
X31009Y47612*
X30800Y47221*
X30671Y46796*
X30640Y46481*
X32765*
Y48606*
G37*
G36*
X88327Y46600D02*
Y45719D01*
X89209*
X89190Y45857*
X89088Y46104*
X88925Y46317*
X88713Y46479*
X88466Y46582*
X88327Y46600*
G37*
G36*
X157860Y48606D02*
X157545Y48575D01*
X157120Y48446*
X156729Y48237*
X156385Y47956*
X156104Y47612*
X155894Y47221*
X155766Y46796*
X155735Y46481*
X157860*
Y48606*
G37*
G36*
X33019D02*
Y46481D01*
X35144*
X35113Y46796*
X34985Y47221*
X34775Y47612*
X34494Y47956*
X34150Y48237*
X33759Y48446*
X33334Y48575*
X33019Y48606*
G37*
G36*
X126759Y48996D02*
X124254D01*
Y46491*
X124540Y46513*
X124943Y46610*
X125327Y46769*
X125680Y46985*
X125995Y47255*
X126265Y47570*
X126481Y47923*
X126640Y48307*
X126737Y48710*
X126759Y48996*
G37*
G36*
X93915Y49285D02*
X93617Y49246D01*
X93339Y49130*
X93100Y48947*
X92917Y48708*
X92802Y48430*
X92763Y48132*
X92802Y47834*
X92917Y47556*
X93100Y47317*
X93339Y47134*
X93617Y47018*
X93915Y46979*
X94214Y47018*
X94492Y47134*
X94731Y47317*
X94914Y47556*
X95029Y47834*
X95068Y48132*
X95029Y48430*
X94914Y48708*
X94731Y48947*
X94492Y49130*
X94214Y49246*
X93915Y49285*
G37*
G36*
X86931D02*
X86632Y49246D01*
X86354Y49130*
X86115Y48947*
X85932Y48708*
X85817Y48430*
X85778Y48132*
X85817Y47834*
X85932Y47556*
X86115Y47317*
X86354Y47134*
X86632Y47018*
X86931Y46979*
X87229Y47018*
X87507Y47134*
X87746Y47317*
X87929Y47556*
X88044Y47834*
X88083Y48132*
X88044Y48430*
X87929Y48708*
X87746Y48947*
X87507Y49130*
X87229Y49246*
X86931Y49285*
G37*
G36*
X149795Y49463D02*
Y47434D01*
X151825*
X151796Y47730*
X151673Y48137*
X151472Y48512*
X151203Y48841*
X150874Y49110*
X150499Y49311*
X150092Y49434*
X149795Y49463*
G37*
G36*
X149541D02*
X149245Y49434D01*
X148838Y49311*
X148463Y49110*
X148134Y48841*
X147865Y48512*
X147664Y48137*
X147541Y47730*
X147512Y47434*
X149541*
Y49463*
G37*
G36*
X110247Y48811D02*
X109960Y48774D01*
X109693Y48663*
X109463Y48487*
X109287Y48257*
X109176Y47990*
X109139Y47703*
X109176Y47416*
X109287Y47149*
X109463Y46919*
X109693Y46743*
X109960Y46632*
X110247Y46595*
X110534Y46632*
X110801Y46743*
X111031Y46919*
X111207Y47149*
X111318Y47416*
X111355Y47703*
X111318Y47990*
X111207Y48257*
X111031Y48487*
X110801Y48663*
X110534Y48774*
X110247Y48811*
G37*
G36*
X107477D02*
X107190Y48774D01*
X106923Y48663*
X106693Y48487*
X106517Y48257*
X106406Y47990*
X106369Y47703*
X106406Y47416*
X106517Y47149*
X106693Y46919*
X106923Y46743*
X107190Y46632*
X107477Y46595*
X107764Y46632*
X108031Y46743*
X108261Y46919*
X108437Y47149*
X108548Y47416*
X108585Y47703*
X108548Y47990*
X108437Y48257*
X108261Y48487*
X108031Y48663*
X107764Y48774*
X107477Y48811*
G37*
G36*
X115787D02*
X115500Y48774D01*
X115233Y48663*
X115003Y48487*
X114827Y48257*
X114716Y47990*
X114679Y47703*
X114716Y47416*
X114827Y47149*
X115003Y46919*
X115233Y46743*
X115500Y46632*
X115787Y46595*
X116074Y46632*
X116341Y46743*
X116571Y46919*
X116747Y47149*
X116858Y47416*
X116895Y47703*
X116858Y47990*
X116747Y48257*
X116571Y48487*
X116341Y48663*
X116074Y48774*
X115787Y48811*
G37*
G36*
X113017D02*
X112730Y48774D01*
X112463Y48663*
X112233Y48487*
X112057Y48257*
X111946Y47990*
X111909Y47703*
X111946Y47416*
X112057Y47149*
X112233Y46919*
X112463Y46743*
X112730Y46632*
X113017Y46595*
X113304Y46632*
X113571Y46743*
X113801Y46919*
X113977Y47149*
X114088Y47416*
X114125Y47703*
X114088Y47990*
X113977Y48257*
X113801Y48487*
X113571Y48663*
X113304Y48774*
X113017Y48811*
G37*
G36*
X88074Y46600D02*
X87935Y46582D01*
X87688Y46479*
X87476Y46317*
X87313Y46104*
X87211Y45857*
X87192Y45719*
X88074*
Y46600*
G37*
G36*
X142747Y46147D02*
X142472Y46111D01*
X142215Y46005*
X141995Y45836*
X141826Y45616*
X141720Y45359*
X141684Y45084*
X141720Y44809*
X141826Y44552*
X141995Y44332*
X142215Y44163*
X142472Y44057*
X142747Y44021*
X143022Y44057*
X143279Y44163*
X143499Y44332*
X143668Y44552*
X143774Y44809*
X143810Y45084*
X143774Y45359*
X143668Y45616*
X143499Y45836*
X143279Y46005*
X143022Y46111*
X142747Y46147*
G37*
G36*
X137032D02*
X136757Y46111D01*
X136500Y46005*
X136280Y45836*
X136111Y45616*
X136005Y45359*
X135969Y45084*
X136005Y44809*
X136111Y44552*
X136280Y44332*
X136500Y44163*
X136757Y44057*
X137032Y44021*
X137307Y44057*
X137564Y44163*
X137784Y44332*
X137953Y44552*
X138059Y44809*
X138095Y45084*
X138059Y45359*
X137953Y45616*
X137784Y45836*
X137564Y46005*
X137307Y46111*
X137032Y46147*
G37*
G36*
X35144Y46227D02*
X33019D01*
Y44102*
X33334Y44133*
X33759Y44262*
X34150Y44471*
X34494Y44752*
X34775Y45096*
X34985Y45487*
X35113Y45912*
X35144Y46227*
G37*
G36*
X32765D02*
X30640D01*
X30671Y45912*
X30800Y45487*
X31009Y45096*
X31290Y44752*
X31634Y44471*
X32025Y44262*
X32450Y44133*
X32765Y44102*
Y46227*
G37*
G36*
X78612Y46147D02*
X78337Y46111D01*
X78080Y46005*
X77860Y45836*
X77691Y45616*
X77585Y45359*
X77549Y45084*
X77585Y44809*
X77691Y44552*
X77860Y44332*
X78080Y44163*
X78337Y44057*
X78612Y44021*
X78887Y44057*
X79144Y44163*
X79364Y44332*
X79533Y44552*
X79639Y44809*
X79675Y45084*
X79639Y45359*
X79533Y45616*
X79364Y45836*
X79144Y46005*
X78887Y46111*
X78612Y46147*
G37*
G36*
X58292D02*
X58017Y46111D01*
X57760Y46005*
X57540Y45836*
X57371Y45616*
X57265Y45359*
X57229Y45084*
X57265Y44809*
X57371Y44552*
X57540Y44332*
X57760Y44163*
X58017Y44057*
X58292Y44021*
X58567Y44057*
X58824Y44163*
X59044Y44332*
X59213Y44552*
X59319Y44809*
X59355Y45084*
X59319Y45359*
X59213Y45616*
X59044Y45836*
X58824Y46005*
X58567Y46111*
X58292Y46147*
G37*
G36*
X131952D02*
X131677Y46111D01*
X131420Y46005*
X131200Y45836*
X131031Y45616*
X130925Y45359*
X130889Y45084*
X130925Y44809*
X131031Y44552*
X131200Y44332*
X131420Y44163*
X131677Y44057*
X131952Y44021*
X132227Y44057*
X132484Y44163*
X132704Y44332*
X132873Y44552*
X132979Y44809*
X133015Y45084*
X132979Y45359*
X132873Y45616*
X132704Y45836*
X132484Y46005*
X132227Y46111*
X131952Y46147*
G37*
G36*
X83692D02*
X83417Y46111D01*
X83160Y46005*
X82940Y45836*
X82771Y45616*
X82665Y45359*
X82629Y45084*
X82665Y44809*
X82771Y44552*
X82940Y44332*
X83160Y44163*
X83417Y44057*
X83692Y44021*
X83967Y44057*
X84224Y44163*
X84444Y44332*
X84613Y44552*
X84719Y44809*
X84755Y45084*
X84719Y45359*
X84613Y45616*
X84444Y45836*
X84224Y46005*
X83967Y46111*
X83692Y46147*
G37*
G36*
X157860Y46227D02*
X155735D01*
X155766Y45912*
X155894Y45487*
X156104Y45096*
X156385Y44752*
X156729Y44471*
X157120Y44262*
X157545Y44133*
X157860Y44102*
Y46227*
G37*
G36*
X151825Y47180D02*
X149795D01*
Y45150*
X150092Y45179*
X150499Y45302*
X150874Y45503*
X151203Y45772*
X151472Y46101*
X151673Y46476*
X151796Y46883*
X151825Y47180*
G37*
G36*
X149541D02*
X147512D01*
X147541Y46883*
X147664Y46476*
X147865Y46101*
X148134Y45772*
X148463Y45503*
X148838Y45302*
X149245Y45179*
X149541Y45150*
Y47180*
G37*
G36*
X49148Y47633D02*
X48883Y47598D01*
X48636Y47495*
X48423Y47333*
X48261Y47120*
X48158Y46873*
X48123Y46608*
X48158Y46343*
X48261Y46096*
X48423Y45883*
X48636Y45721*
X48883Y45618*
X49148Y45583*
X49413Y45618*
X49660Y45721*
X49873Y45883*
X50035Y46096*
X50138Y46343*
X50173Y46608*
X50138Y46873*
X50035Y47120*
X49873Y47333*
X49660Y47495*
X49413Y47598*
X49148Y47633*
G37*
G36*
X38226D02*
X37961Y47598D01*
X37714Y47495*
X37501Y47333*
X37339Y47120*
X37236Y46873*
X37201Y46608*
X37236Y46343*
X37339Y46096*
X37501Y45883*
X37714Y45721*
X37961Y45618*
X38226Y45583*
X38491Y45618*
X38738Y45721*
X38951Y45883*
X39113Y46096*
X39216Y46343*
X39251Y46608*
X39216Y46873*
X39113Y47120*
X38951Y47333*
X38738Y47495*
X38491Y47598*
X38226Y47633*
G37*
G36*
X88725Y55764D02*
X88477Y55715D01*
X88267Y55575*
X88126Y55365*
X88077Y55117*
X88126Y54869*
X88267Y54659*
X88477Y54519*
X88725Y54470*
X88730Y54471*
X90224Y52977*
Y47687*
X90258Y47514*
X90357Y47367*
X91807Y45916*
X91783Y45857*
X91748Y45592*
X91783Y45327*
X91885Y45080*
X92048Y44867*
X92260Y44705*
X92507Y44602*
X92772Y44567*
X93038Y44602*
X93285Y44705*
X93497Y44867*
X93660Y45080*
X93762Y45327*
X93797Y45592*
X93762Y45857*
X93660Y46104*
X93497Y46317*
X93285Y46479*
X93038Y46582*
X92772Y46617*
X92507Y46582*
X92448Y46557*
X91130Y47875*
Y53165*
X91096Y53338*
X90997Y53485*
X89371Y55112*
X89372Y55117*
X89323Y55365*
X89182Y55575*
X88972Y55715*
X88725Y55764*
G37*
G36*
X160239Y46227D02*
X158114D01*
Y44102*
X158429Y44133*
X158854Y44262*
X159245Y44471*
X159589Y44752*
X159870Y45096*
X160080Y45487*
X160208Y45912*
X160239Y46227*
G37*
G36*
X89209Y45465D02*
X88327D01*
Y44584*
X88466Y44602*
X88713Y44705*
X88925Y44867*
X89088Y45080*
X89190Y45327*
X89209Y45465*
G37*
G36*
X88074D02*
X87192D01*
X87211Y45327*
X87313Y45080*
X87476Y44867*
X87688Y44705*
X87935Y44602*
X88074Y44584*
Y45465*
G37*
G36*
X56456Y49232D02*
X55048D01*
Y47924*
Y47832*
Y46524*
X55299*
Y46037*
X55220Y46005*
X55000Y45836*
X54831Y45616*
X54725Y45359*
X54689Y45084*
X54725Y44809*
X54831Y44552*
X55000Y44332*
X55220Y44163*
X55477Y44057*
X55752Y44021*
X56027Y44057*
X56284Y44163*
X56504Y44332*
X56673Y44552*
X56779Y44809*
X56815Y45084*
X56779Y45359*
X56673Y45616*
X56504Y45836*
X56284Y46005*
X56205Y46037*
Y46524*
X56456*
Y47832*
Y47924*
Y48190*
X57490*
X57580Y48055*
X57790Y47915*
X58038Y47866*
X58286Y47915*
X58496Y48055*
X58636Y48265*
X58685Y48513*
X58636Y48761*
X58496Y48971*
X58286Y49111*
X58038Y49160*
X57790Y49111*
X57580Y48971*
X57577Y48966*
X56456*
Y49232*
G37*
G36*
X73405Y52003D02*
X73134Y51976D01*
X72751Y51860*
X72398Y51671*
X72088Y51417*
X71834Y51108*
X71646Y50755*
X71529Y50372*
X71503Y50101*
X73405*
Y52003*
G37*
G36*
X60959D02*
Y50101D01*
X62861*
X62835Y50372*
X62718Y50755*
X62530Y51108*
X62276Y51417*
X61966Y51671*
X61613Y51860*
X61230Y51976*
X60959Y52003*
G37*
G36*
X153987Y52511D02*
X153690Y52482D01*
X153283Y52359*
X152908Y52158*
X152579Y51889*
X152310Y51560*
X152109Y51185*
X151986Y50778*
X151957Y50481*
X153987*
Y52511*
G37*
G36*
X73659Y52003D02*
Y50101D01*
X75561*
X75535Y50372*
X75418Y50755*
X75230Y51108*
X74976Y51417*
X74666Y51671*
X74313Y51860*
X73930Y51976*
X73659Y52003*
G37*
G36*
X105965Y50416D02*
X105000D01*
X105021Y50256*
X105132Y49989*
X105308Y49759*
X105538Y49583*
X105805Y49472*
X105965Y49451*
Y50416*
G37*
G36*
X118271Y51642D02*
X116073D01*
Y49444*
X118271*
Y51642*
G37*
G36*
X60705Y52003D02*
X60434Y51976D01*
X60051Y51860*
X59698Y51671*
X59388Y51417*
X59134Y51108*
X58946Y50755*
X58829Y50372*
X58803Y50101*
X60705*
Y52003*
G37*
G36*
X107184Y50416D02*
X106219D01*
Y49451*
X106379Y49472*
X106646Y49583*
X106876Y49759*
X107052Y49989*
X107163Y50256*
X107184Y50416*
G37*
G36*
X154241Y52511D02*
Y50481D01*
X156270*
X156241Y50778*
X156118Y51185*
X155917Y51560*
X155648Y51889*
X155319Y52158*
X154944Y52359*
X154537Y52482*
X154241Y52511*
G37*
G36*
X36702Y55001D02*
X36370Y54957D01*
X36062Y54829*
X35796Y54626*
X35593Y54360*
X35465Y54052*
X35421Y53720*
X35465Y53388*
X35593Y53080*
X35796Y52814*
X36062Y52611*
X36370Y52483*
X36702Y52439*
X37034Y52483*
X37342Y52611*
X37608Y52814*
X37811Y53080*
X37939Y53388*
X37983Y53720*
X37939Y54052*
X37811Y54360*
X37608Y54626*
X37342Y54829*
X37034Y54957*
X36702Y55001*
G37*
G36*
X69460Y52513D02*
X68579D01*
Y51632*
X68717Y51651*
X68964Y51753*
X69177Y51916*
X69339Y52128*
X69442Y52375*
X69460Y52513*
G37*
G36*
X103377Y54618D02*
X103112Y54583D01*
X102865Y54480*
X102652Y54318*
X102490Y54105*
X102387Y53858*
X102352Y53593*
X102387Y53328*
X102490Y53081*
X102652Y52868*
X102865Y52706*
X103112Y52603*
X103377Y52568*
X103642Y52603*
X103889Y52706*
X104102Y52868*
X104264Y53081*
X104367Y53328*
X104402Y53593*
X104367Y53858*
X104264Y54105*
X104102Y54318*
X103889Y54480*
X103642Y54583*
X103377Y54618*
G37*
G36*
X53212Y55001D02*
X52880Y54957D01*
X52572Y54829*
X52306Y54626*
X52103Y54360*
X51975Y54052*
X51931Y53720*
X51975Y53388*
X52103Y53080*
X52306Y52814*
X52572Y52611*
X52880Y52483*
X53212Y52439*
X53544Y52483*
X53852Y52611*
X54118Y52814*
X54321Y53080*
X54449Y53388*
X54493Y53720*
X54449Y54052*
X54321Y54360*
X54118Y54626*
X53852Y54829*
X53544Y54957*
X53212Y55001*
G37*
G36*
X106219Y51635D02*
Y50670D01*
X107184*
X107163Y50830*
X107052Y51097*
X106876Y51327*
X106646Y51503*
X106379Y51614*
X106219Y51635*
G37*
G36*
X105965D02*
X105805Y51614D01*
X105538Y51503*
X105308Y51327*
X105132Y51097*
X105021Y50830*
X105000Y50670*
X105965*
Y51635*
G37*
G36*
X68325Y52513D02*
X67444D01*
X67462Y52375*
X67565Y52128*
X67727Y51916*
X67940Y51753*
X68187Y51651*
X68325Y51632*
Y52513*
G37*
G36*
X149668Y55699D02*
X149245Y55657D01*
X148838Y55534*
X148463Y55333*
X148134Y55064*
X147865Y54735*
X147664Y54360*
X147541Y53953*
X147499Y53529*
X147541Y53106*
X147664Y52699*
X147865Y52324*
X148134Y51995*
X148463Y51726*
X148838Y51525*
X149245Y51402*
X149668Y51360*
X150092Y51402*
X150499Y51525*
X150874Y51726*
X151203Y51995*
X151472Y52324*
X151673Y52699*
X159511*
X159610Y52719*
X159694Y52775*
X159750Y52859*
X159770Y52958*
Y55117*
X159750Y55216*
X159694Y55300*
X159610Y55356*
X159511Y55376*
X150794*
X150499Y55534*
X150092Y55657*
X149668Y55699*
G37*
G36*
X114402Y51651D02*
X114115Y51614D01*
X113848Y51503*
X113618Y51327*
X113442Y51097*
X113331Y50830*
X113294Y50543*
X113331Y50256*
X113442Y49989*
X113618Y49759*
X113848Y49583*
X114115Y49472*
X114402Y49435*
X114689Y49472*
X114956Y49583*
X115186Y49759*
X115362Y49989*
X115473Y50256*
X115510Y50543*
X115473Y50830*
X115362Y51097*
X115186Y51327*
X114956Y51503*
X114689Y51614*
X114402Y51651*
G37*
G36*
X153987Y50228D02*
X151957D01*
X151986Y49931*
X152109Y49524*
X152310Y49149*
X152579Y48820*
X152908Y48551*
X153283Y48350*
X153690Y48227*
X153987Y48198*
Y50228*
G37*
G36*
X75561Y49846D02*
X73659D01*
Y47944*
X73930Y47971*
X74313Y48087*
X74666Y48276*
X74976Y48530*
X75230Y48839*
X75418Y49192*
X75535Y49575*
X75561Y49846*
G37*
G36*
X140080Y49232D02*
X139503D01*
Y48705*
X140080*
Y49232*
G37*
G36*
X156270Y50228D02*
X154241D01*
Y48198*
X154537Y48227*
X154944Y48350*
X155319Y48551*
X155648Y48820*
X155917Y49149*
X156118Y49524*
X156241Y49931*
X156270Y50228*
G37*
G36*
X60705Y49846D02*
X58803D01*
X58829Y49575*
X58946Y49192*
X59134Y48839*
X59388Y48530*
X59698Y48276*
X60051Y48087*
X60434Y47971*
X60705Y47944*
Y49846*
G37*
G36*
X140911Y48451D02*
X139503D01*
Y47924*
Y47832*
Y46524*
X139754*
Y46037*
X139675Y46005*
X139455Y45836*
X139286Y45616*
X139180Y45359*
X139144Y45084*
X139180Y44809*
X139286Y44552*
X139455Y44332*
X139675Y44163*
X139932Y44057*
X140207Y44021*
X140482Y44057*
X140739Y44163*
X140959Y44332*
X141128Y44552*
X141234Y44809*
X141270Y45084*
X141234Y45359*
X141128Y45616*
X140959Y45836*
X140739Y46005*
X140660Y46037*
Y46524*
X140911*
Y47832*
Y47924*
Y48451*
G37*
G36*
X73405Y49846D02*
X71503D01*
X71529Y49575*
X71646Y49192*
X71834Y48839*
X72088Y48530*
X72398Y48276*
X72751Y48087*
X73134Y47971*
X73405Y47944*
Y49846*
G37*
G36*
X62861D02*
X60959D01*
Y47944*
X61230Y47971*
X61613Y48087*
X61966Y48276*
X62276Y48530*
X62530Y48839*
X62718Y49192*
X62835Y49575*
X62861Y49846*
G37*
G36*
X140911Y49232D02*
X140334D01*
Y48705*
X140911*
Y49232*
G37*
G36*
X124254Y51755D02*
Y49250D01*
X126759*
X126737Y49536*
X126640Y49939*
X126481Y50323*
X126265Y50676*
X125995Y50991*
X125680Y51261*
X125327Y51477*
X124943Y51636*
X124540Y51733*
X124254Y51755*
G37*
G36*
X124000D02*
X123714Y51733D01*
X123311Y51636*
X122927Y51477*
X122574Y51261*
X122259Y50991*
X121989Y50676*
X121773Y50323*
X121614Y49939*
X121517Y49536*
X121495Y49250*
X124000*
Y51755*
G37*
G36*
X111632Y51651D02*
X111345Y51614D01*
X111078Y51503*
X110848Y51327*
X110672Y51097*
X110561Y50830*
X110524Y50543*
X110561Y50256*
X110672Y49989*
X110848Y49759*
X111078Y49583*
X111345Y49472*
X111632Y49435*
X111919Y49472*
X112186Y49583*
X112416Y49759*
X112592Y49989*
X112703Y50256*
X112740Y50543*
X112703Y50830*
X112592Y51097*
X112416Y51327*
X112186Y51503*
X111919Y51614*
X111632Y51651*
G37*
G36*
X108862D02*
X108575Y51614D01*
X108308Y51503*
X108078Y51327*
X107902Y51097*
X107791Y50830*
X107754Y50543*
X107791Y50256*
X107902Y49989*
X108078Y49759*
X108308Y49583*
X108575Y49472*
X108862Y49435*
X109149Y49472*
X109416Y49583*
X109646Y49759*
X109822Y49989*
X109933Y50256*
X109970Y50543*
X109933Y50830*
X109822Y51097*
X109646Y51327*
X109416Y51503*
X109149Y51614*
X108862Y51651*
G37*
G36*
X50672Y52586D02*
X50299Y52549D01*
X49939Y52441*
X49609Y52264*
X49318Y52026*
X49080Y51735*
X48903Y51405*
X48795Y51045*
X48758Y50672*
X48795Y50299*
X48903Y49939*
X49080Y49609*
X49318Y49318*
X49609Y49080*
X49939Y48903*
X50299Y48795*
X50672Y48758*
X51045Y48795*
X51405Y48903*
X51735Y49080*
X52026Y49318*
X52264Y49609*
X52441Y49939*
X52549Y50299*
X52586Y50672*
X52549Y51045*
X52441Y51405*
X52264Y51735*
X52026Y52026*
X51735Y52264*
X51405Y52441*
X51045Y52549*
X50672Y52586*
G37*
G36*
X39242D02*
X38869Y52549D01*
X38509Y52441*
X38179Y52264*
X37888Y52026*
X37650Y51735*
X37473Y51405*
X37365Y51045*
X37328Y50672*
X37365Y50299*
X37473Y49939*
X37650Y49609*
X37888Y49318*
X38179Y49080*
X38509Y48903*
X38869Y48795*
X39242Y48758*
X39615Y48795*
X39975Y48903*
X40305Y49080*
X40596Y49318*
X40834Y49609*
X41011Y49939*
X41119Y50299*
X41156Y50672*
X41119Y51045*
X41011Y51405*
X40834Y51735*
X40596Y52026*
X40305Y52264*
X39975Y52441*
X39615Y52549*
X39242Y52586*
G37*
G36*
X99264Y51755D02*
Y49250D01*
X101769*
X101747Y49536*
X101650Y49939*
X101491Y50323*
X101275Y50676*
X101005Y50991*
X100690Y51261*
X100337Y51477*
X99953Y51636*
X99550Y51733*
X99264Y51755*
G37*
G36*
X99010D02*
X98724Y51733D01*
X98321Y51636*
X97937Y51477*
X97584Y51261*
X97269Y50991*
X96999Y50676*
X96783Y50323*
X96624Y49939*
X96527Y49536*
X96505Y49250*
X99010*
Y51755*
G37*
G36*
X50672Y99186D02*
X49791D01*
X49809Y99048*
X49912Y98801*
X50074Y98588*
X50287Y98426*
X50534Y98323*
X50672Y98305*
Y99186*
G37*
G36*
X48551Y97976D02*
X46443D01*
Y97649*
Y97580*
X48551*
Y97649*
Y97976*
G37*
G36*
X110362Y99186D02*
X109481D01*
X109499Y99048*
X109602Y98801*
X109764Y98588*
X109977Y98426*
X110224Y98323*
X110362Y98305*
Y99186*
G37*
G36*
X51807D02*
X50926D01*
Y98305*
X51064Y98323*
X51311Y98426*
X51524Y98588*
X51686Y98801*
X51789Y99048*
X51807Y99186*
G37*
G36*
X138086Y96676D02*
X135978D01*
Y96349*
Y96280*
X138086*
Y96349*
Y96676*
G37*
G36*
X108241D02*
X106133D01*
Y96349*
Y96280*
X108241*
Y96349*
Y96676*
G37*
G36*
X78396Y97326D02*
X76288D01*
Y96999*
Y96930*
X78396*
Y96999*
Y97326*
G37*
G36*
X48551D02*
X46443D01*
Y96999*
Y96930*
X48551*
Y96999*
Y97326*
G37*
G36*
X111497Y99186D02*
X110616D01*
Y98305*
X110754Y98323*
X111001Y98426*
X111214Y98588*
X111376Y98801*
X111479Y99048*
X111497Y99186*
G37*
G36*
X50926Y100321D02*
Y99440D01*
X51807*
X51789Y99578*
X51686Y99825*
X51524Y100038*
X51311Y100200*
X51064Y100303*
X50926Y100321*
G37*
G36*
X50672D02*
X50534Y100303D01*
X50287Y100200*
X50074Y100038*
X49912Y99825*
X49809Y99578*
X49791Y99440*
X50672*
Y100321*
G37*
G36*
X110616D02*
Y99440D01*
X111497*
X111479Y99578*
X111376Y99825*
X111214Y100038*
X111001Y100200*
X110754Y100303*
X110616Y100321*
G37*
G36*
X110362D02*
X110224Y100303D01*
X109977Y100200*
X109764Y100038*
X109602Y99825*
X109499Y99578*
X109481Y99440*
X110362*
Y100321*
G37*
G36*
X81652Y99821D02*
X80771D01*
Y98940*
X80909Y98958*
X81156Y99061*
X81369Y99223*
X81531Y99436*
X81634Y99683*
X81652Y99821*
G37*
G36*
X80517D02*
X79636D01*
X79654Y99683*
X79757Y99436*
X79919Y99223*
X80132Y99061*
X80379Y98958*
X80517Y98940*
Y99821*
G37*
G36*
X141342D02*
X140461D01*
Y98940*
X140599Y98958*
X140846Y99061*
X141059Y99223*
X141221Y99436*
X141324Y99683*
X141342Y99821*
G37*
G36*
X140207D02*
X139326D01*
X139344Y99683*
X139447Y99436*
X139609Y99223*
X139822Y99061*
X140069Y98958*
X140207Y98940*
Y99821*
G37*
G36*
X78396Y96676D02*
X76288D01*
Y96349*
Y96280*
X78396*
Y96349*
Y96676*
G37*
G36*
X52280Y93725D02*
X51753D01*
Y93148*
X52280*
Y93725*
G37*
G36*
X78396Y96026D02*
X76288D01*
Y95699*
Y95049*
X76863*
Y94741*
X76898Y94568*
X76996Y94421*
X77885Y93532*
X78032Y93433*
X78206Y93399*
X79417*
Y93148*
X80725*
X80817*
X81344*
Y93852*
Y94556*
X80817*
X80725*
X79417*
Y94305*
X78393*
X77770Y94929*
Y95049*
X78396*
Y95699*
Y96026*
G37*
G36*
X108241D02*
X106133D01*
Y95699*
Y95049*
X106708*
Y94741*
X106743Y94568*
X106841Y94421*
X107730Y93532*
X107877Y93433*
X108051Y93399*
X109262*
Y93148*
X110570*
X110662*
X111189*
Y93852*
Y94556*
X110662*
X110570*
X109262*
Y94305*
X108238*
X107615Y94929*
Y95049*
X108241*
Y95699*
Y96026*
G37*
G36*
X82125Y93725D02*
X81598D01*
Y93148*
X82125*
Y93725*
G37*
G36*
X62229Y93971D02*
X62091Y93953D01*
X61844Y93850*
X61631Y93688*
X61469Y93475*
X61366Y93228*
X61348Y93090*
X62229*
Y93971*
G37*
G36*
X70484Y92955D02*
Y92074D01*
X71365*
X71347Y92212*
X71244Y92459*
X71082Y92672*
X70869Y92834*
X70622Y92937*
X70484Y92955*
G37*
G36*
X48551Y96026D02*
X46443D01*
Y95699*
Y95049*
X47018*
Y94741*
X47053Y94568*
X47151Y94421*
X48040Y93532*
X48187Y93433*
X48361Y93399*
X49572*
Y93148*
X50880*
X50972*
X51499*
Y93852*
Y94556*
X50972*
X50880*
X49572*
Y94305*
X48548*
X47925Y94929*
Y95049*
X48551*
Y95699*
Y96026*
G37*
G36*
X62483Y93971D02*
Y93090D01*
X63364*
X63346Y93228*
X63243Y93475*
X63081Y93688*
X62868Y93850*
X62621Y93953*
X62483Y93971*
G37*
G36*
X138086Y96026D02*
X135978D01*
Y95699*
Y95049*
X136553*
Y94741*
X136588Y94568*
X136686Y94421*
X137575Y93532*
X137722Y93433*
X137896Y93399*
X139107*
Y93148*
X140415*
X140507*
X141034*
Y93852*
Y94556*
X140507*
X140415*
X139107*
Y94305*
X138083*
X137460Y94929*
Y95049*
X138086*
Y95699*
Y96026*
G37*
G36*
X141815Y94556D02*
X141288D01*
Y93979*
X141815*
Y94556*
G37*
G36*
X111970D02*
X111443D01*
Y93979*
X111970*
Y94556*
G37*
G36*
X48551Y96676D02*
X46443D01*
Y96349*
Y96280*
X48551*
Y96349*
Y96676*
G37*
G36*
X67309Y97418D02*
X67111Y97379D01*
X66943Y97266*
X66830Y97098*
X66791Y96900*
X66830Y96702*
X66921Y96567*
Y95582*
X66830Y95447*
X66791Y95249*
X66830Y95051*
X66943Y94883*
X67111Y94770*
X67309Y94731*
X67507Y94770*
X67675Y94883*
X67788Y95051*
X67827Y95249*
X67788Y95447*
X67732Y95531*
X67774Y95650*
X67819Y95664*
X67832Y95645*
X68000Y95532*
X68198Y95493*
X68396Y95532*
X68564Y95645*
X68677Y95813*
X68716Y96011*
X68677Y96209*
X68564Y96377*
X68396Y96490*
X68198Y96529*
X68000Y96490*
X67832Y96377*
X67819Y96358*
X67697Y96395*
Y96567*
X67788Y96702*
X67827Y96900*
X67788Y97098*
X67675Y97266*
X67507Y97379*
X67309Y97418*
G37*
G36*
X141815Y93725D02*
X141288D01*
Y93148*
X141815*
Y93725*
G37*
G36*
X111970D02*
X111443D01*
Y93148*
X111970*
Y93725*
G37*
G36*
X82125Y94556D02*
X81598D01*
Y93979*
X82125*
Y94556*
G37*
G36*
X52280D02*
X51753D01*
Y93979*
X52280*
Y94556*
G37*
G36*
X94741Y100583D02*
X93860D01*
X93878Y100445*
X93981Y100198*
X94143Y99985*
X94356Y99823*
X94603Y99720*
X94741Y99702*
Y100583*
G37*
G36*
X84429Y111756D02*
X84167Y111721D01*
X83922Y111620*
X83713Y111459*
X83552Y111249*
X83450Y111005*
X83416Y110743*
X83450Y110481*
X83552Y110237*
X83713Y110027*
X83922Y109866*
X84167Y109765*
X84429Y109730*
X84691Y109765*
X84935Y109866*
X85145Y110027*
X85306Y110237*
X85407Y110481*
X85441Y110743*
X85407Y111005*
X85306Y111249*
X85145Y111459*
X84935Y111620*
X84691Y111721*
X84429Y111756*
G37*
G36*
X76809D02*
X76547Y111721D01*
X76302Y111620*
X76093Y111459*
X75932Y111249*
X75830Y111005*
X75796Y110743*
X75830Y110481*
X75932Y110237*
X76093Y110027*
X76302Y109866*
X76547Y109765*
X76809Y109730*
X77071Y109765*
X77315Y109866*
X77525Y110027*
X77686Y110237*
X77787Y110481*
X77821Y110743*
X77787Y111005*
X77686Y111249*
X77525Y111459*
X77315Y111620*
X77071Y111721*
X76809Y111756*
G37*
G36*
X106654D02*
X106392Y111721D01*
X106147Y111620*
X105938Y111459*
X105777Y111249*
X105675Y111005*
X105641Y110743*
X105675Y110481*
X105777Y110237*
X105938Y110027*
X106147Y109866*
X106392Y109765*
X106654Y109730*
X106916Y109765*
X107160Y109866*
X107370Y110027*
X107531Y110237*
X107632Y110481*
X107666Y110743*
X107632Y111005*
X107531Y111249*
X107370Y111459*
X107160Y111620*
X106916Y111721*
X106654Y111756*
G37*
G36*
X89509D02*
X89246Y111721D01*
X89002Y111620*
X88793Y111459*
X88632Y111249*
X88530Y111005*
X88496Y110743*
X88530Y110481*
X88545Y110446*
X87918Y109819*
X87820Y109672*
X87785Y109498*
Y108985*
X87671Y108929*
X87475Y109080*
X87231Y109181*
X86969Y109216*
X86706Y109181*
X86462Y109080*
X86266Y108929*
X86152Y108985*
Y109285*
X86653Y109787*
X86706Y109765*
X86969Y109730*
X87231Y109765*
X87475Y109866*
X87685Y110027*
X87846Y110237*
X87947Y110481*
X87981Y110743*
X87947Y111005*
X87846Y111249*
X87685Y111459*
X87475Y111620*
X87231Y111721*
X86969Y111756*
X86706Y111721*
X86462Y111620*
X86253Y111459*
X86092Y111249*
X85990Y111005*
X85956Y110743*
X85990Y110481*
X86012Y110428*
X85378Y109793*
X85280Y109646*
X85245Y109473*
Y108985*
X85131Y108929*
X84935Y109080*
X84691Y109181*
X84429Y109216*
X84167Y109181*
X83922Y109080*
X83713Y108919*
X83707Y108911*
X83586Y108952*
Y109473*
X83552Y109646*
X83503Y109720*
X83454Y109793*
X82837Y110410*
X82867Y110481*
X82901Y110743*
X82867Y111005*
X82766Y111249*
X82605Y111459*
X82395Y111620*
X82151Y111721*
X81889Y111756*
X81627Y111721*
X81382Y111620*
X81173Y111459*
X81012Y111249*
X80910Y111005*
X80876Y110743*
X80910Y110481*
X81012Y110237*
X81173Y110027*
X81382Y109866*
X81627Y109765*
X81889Y109730*
X82151Y109765*
X82186Y109779*
X82680Y109285*
Y109005*
X82566Y108949*
X82395Y109080*
X82151Y109181*
X81889Y109216*
X81627Y109181*
X81382Y109080*
X81173Y108919*
X81012Y108709*
X80910Y108465*
X80876Y108203*
X80910Y107941*
X81012Y107697*
X81173Y107487*
X81382Y107326*
X81410Y107315*
Y104037*
X81423Y103971*
X81333Y103882*
X81254Y103897*
X81006Y103848*
X80796Y103708*
X80682Y103538*
X80555*
X80441Y103708*
X80231Y103848*
X79984Y103897*
X79883Y103877*
X79793Y103967*
X79802Y104012*
Y107304*
X79855Y107326*
X80065Y107487*
X80226Y107697*
X80327Y107941*
X80361Y108203*
X80327Y108465*
X80226Y108709*
X80065Y108919*
X79855Y109080*
X79611Y109181*
X79349Y109216*
X79087Y109181*
X78842Y109080*
X78646Y108929*
X78532Y108985*
Y109311*
X79015Y109794*
X79087Y109765*
X79349Y109730*
X79611Y109765*
X79855Y109866*
X80065Y110027*
X80226Y110237*
X80327Y110481*
X80361Y110743*
X80327Y111005*
X80226Y111249*
X80065Y111459*
X79855Y111620*
X79611Y111721*
X79349Y111756*
X79087Y111721*
X78842Y111620*
X78633Y111459*
X78472Y111249*
X78370Y111005*
X78336Y110743*
X78370Y110481*
X78385Y110446*
X77758Y109819*
X77660Y109672*
X77625Y109498*
Y108985*
X77511Y108929*
X77315Y109080*
X77071Y109181*
X76809Y109216*
X76547Y109181*
X76302Y109080*
X76106Y108929*
X75992Y108985*
Y109448*
X75957Y109621*
X75859Y109768*
X75217Y110410*
X75247Y110481*
X75281Y110743*
X75247Y111005*
X75146Y111249*
X74985Y111459*
X74775Y111620*
X74531Y111721*
X74269Y111756*
X74006Y111721*
X73762Y111620*
X73553Y111459*
X73392Y111249*
X73290Y111005*
X73256Y110743*
X73290Y110481*
X73392Y110237*
X73553Y110027*
X73762Y109866*
X74006Y109765*
X74269Y109730*
X74531Y109765*
X74566Y109779*
X75085Y109260*
Y108985*
X74971Y108929*
X74775Y109080*
X74531Y109181*
X74269Y109216*
X74006Y109181*
X73762Y109080*
X73566Y108929*
X73452Y108985*
Y109473*
X73417Y109646*
X73368Y109720*
X73319Y109793*
X72685Y110428*
X72707Y110481*
X72741Y110743*
X72707Y111005*
X72606Y111249*
X72445Y111459*
X72235Y111620*
X71991Y111721*
X71729Y111756*
X71466Y111721*
X71222Y111620*
X71013Y111459*
X70852Y111249*
X70750Y111005*
X70716Y110743*
X70750Y110481*
X70852Y110237*
X71013Y110027*
X71222Y109866*
X71466Y109765*
X71729Y109730*
X71991Y109765*
X72044Y109787*
X72506Y109324*
X72458Y109207*
X70725*
Y107199*
X71250*
Y101878*
X71284Y101705*
X71383Y101558*
X74267Y98674*
X74219Y98556*
X62035*
X61862Y98522*
X61803Y98482*
X61715Y98423*
X57723Y94432*
X54714*
X54644Y94522*
X54550Y94595*
Y95049*
X55151*
Y95699*
Y95765*
X56703*
X56783Y95645*
X56951Y95532*
X57149Y95493*
X57347Y95532*
X57515Y95645*
X57628Y95813*
X57667Y96011*
X57628Y96209*
X57515Y96377*
X57493Y96392*
Y96519*
X57515Y96534*
X57628Y96702*
X57667Y96900*
X57628Y97098*
X57515Y97266*
X57347Y97379*
X57149Y97418*
X56951Y97379*
X56783Y97266*
X56733Y97191*
X55151*
Y97649*
Y97976*
X53043*
Y97841*
X52577*
X52428Y97812*
X52302Y97728*
X52218Y97602*
X52189Y97453*
Y95503*
X52218Y95354*
X52302Y95228*
X52428Y95144*
X52577Y95115*
X53043*
Y95049*
X53644*
Y94589*
X53558Y94522*
X53435Y94363*
X53359Y94178*
X53332Y93979*
X53359Y93780*
X53435Y93595*
X53558Y93436*
X53717Y93313*
X53902Y93237*
X54101Y93210*
X54300Y93237*
X54485Y93313*
X54644Y93436*
X54714Y93526*
X57911*
X58084Y93560*
X58231Y93659*
X62223Y97650*
X76288*
Y97649*
Y97580*
X78396*
Y97649*
Y97650*
X79122*
X81590Y95183*
X81737Y95084*
X81910Y95050*
X82888*
Y95049*
X84996*
Y95050*
X85790*
X86446Y94395*
Y89926*
X86265Y89787*
X86223Y89733*
X78209*
X78139Y89823*
X77980Y89946*
X77795Y90022*
X77596Y90049*
X77397Y90022*
X77212Y89946*
X77053Y89823*
X76930Y89664*
X76854Y89479*
X76827Y89280*
X76854Y89081*
X76930Y88896*
X77053Y88737*
X77143Y88667*
Y84134*
X76204Y83195*
X76199Y83196*
X75951Y83147*
X75741Y83007*
X75601Y82797*
X75552Y82549*
X75601Y82301*
X75695Y82160*
X75635Y82048*
X74074*
X73782Y82340*
X73798Y82422*
X73749Y82670*
X73609Y82880*
X73399Y83020*
X73151Y83069*
X72903Y83020*
X72693Y82880*
X72553Y82670*
X72504Y82422*
X72553Y82174*
X72693Y81964*
X72903Y81824*
X73151Y81775*
X73233Y81791*
X73638Y81385*
X73764Y81301*
X73913Y81272*
X77473*
X77519Y81202*
X77729Y81062*
X77977Y81013*
X78225Y81062*
X78435Y81202*
X78575Y81412*
X78624Y81660*
X78575Y81908*
X78435Y82118*
X78225Y82258*
X77977Y82307*
X77729Y82258*
X77519Y82118*
X77473Y82048*
X76763*
X76703Y82160*
X76797Y82301*
X76846Y82549*
X76845Y82554*
X77916Y83626*
X78015Y83773*
X78049Y83946*
X78037Y84009*
X78049Y84073*
Y88667*
X78139Y88737*
X78209Y88827*
X86072*
X86122Y88705*
X86265Y88519*
X86450Y88376*
X86667Y88287*
X86899Y88256*
X87131Y88287*
X87347Y88376*
X87533Y88519*
X87672Y88700*
X91124*
X99247Y80578*
X99394Y80479*
X99567Y80445*
X111825*
X113291Y78979*
X113276Y78866*
X113303Y78667*
X113379Y78482*
X113502Y78323*
X113527Y78303*
Y73405*
X113566Y73207*
X113679Y73039*
X118272Y68446*
X118239Y68198*
X118274Y67936*
X118375Y67692*
X118536Y67482*
X118746Y67321*
X118990Y67220*
X119252Y67185*
X119514Y67220*
X119758Y67321*
X119968Y67482*
X120129Y67692*
X120230Y67936*
X120265Y68198*
X120230Y68460*
X120129Y68704*
X119968Y68914*
X119758Y69075*
X119514Y69176*
X119252Y69211*
X119004Y69178*
X114563Y73620*
Y78303*
X114588Y78323*
X114711Y78482*
X114787Y78667*
X114814Y78866*
X114787Y79065*
X114711Y79250*
X114588Y79409*
X114429Y79532*
X114244Y79608*
X114045Y79635*
X113932Y79620*
X112333Y81218*
X112186Y81317*
X112013Y81351*
X99755*
X91632Y89473*
X91485Y89572*
X91312Y89606*
X87672*
X87533Y89787*
X87352Y89926*
Y94582*
X87317Y94756*
X87219Y94903*
X86632Y95490*
X86713Y95588*
X86796Y95532*
X86994Y95493*
X87192Y95532*
X87360Y95645*
X87473Y95813*
X87512Y96011*
X87473Y96209*
X87360Y96377*
X87338Y96392*
Y96519*
X87360Y96534*
X87473Y96702*
X87512Y96900*
X87473Y97098*
X87360Y97266*
X87192Y97379*
X86994Y97418*
X86796Y97379*
X86628Y97266*
X86578Y97191*
X84996*
Y97649*
Y97976*
X82888*
Y97907*
Y97841*
X82426*
X82277Y97812*
X82151Y97728*
X82067Y97602*
X82038Y97453*
Y96182*
X81920Y96134*
X79630Y98423*
X79483Y98522*
X79310Y98556*
X78396*
Y98557*
Y98949*
Y99599*
Y100249*
Y100899*
Y101226*
X76288*
Y101156*
X76114*
X75992Y101279*
Y107421*
X76106Y107477*
X76302Y107326*
X76547Y107225*
X76809Y107190*
X77071Y107225*
X77315Y107326*
X77511Y107477*
X77625Y107421*
Y104903*
X77130Y104407*
X76288*
Y103499*
Y102849*
Y102199*
Y101549*
Y101480*
X78396*
Y101549*
Y101550*
X79507*
X79526Y101522*
X79736Y101382*
X79984Y101333*
X80231Y101382*
X80441Y101522*
X80555Y101692*
X80682*
X80796Y101522*
X81006Y101382*
X81254Y101333*
X81501Y101382*
X81711Y101522*
X81730Y101550*
X82888*
Y101549*
Y101480*
X84996*
Y101549*
Y102199*
Y102849*
Y103499*
Y104407*
X84104*
X83586Y104924*
Y107454*
X83707Y107495*
X83713Y107487*
X83922Y107326*
X84167Y107225*
X84429Y107190*
X84691Y107225*
X84935Y107326*
X85131Y107477*
X85245Y107421*
Y101279*
X85123Y101156*
X84996*
Y101226*
X82888*
Y100899*
Y100249*
Y99599*
Y98949*
Y98299*
Y98230*
X84996*
Y98299*
Y98300*
X86409*
X86582Y98334*
X86729Y98433*
X89804Y101507*
X89902Y101654*
X89936Y101828*
Y107293*
X90015Y107326*
X90225Y107487*
X90386Y107697*
X90487Y107941*
X90521Y108203*
X90487Y108465*
X90386Y108709*
X90225Y108919*
X90015Y109080*
X89771Y109181*
X89509Y109216*
X89246Y109181*
X89002Y109080*
X88806Y108929*
X88692Y108985*
Y109311*
X89175Y109794*
X89246Y109765*
X89509Y109730*
X89771Y109765*
X90015Y109866*
X90225Y110027*
X90386Y110237*
X90487Y110481*
X90521Y110743*
X90487Y111005*
X90386Y111249*
X90225Y111459*
X90015Y111620*
X89771Y111721*
X89509Y111756*
G37*
G36*
X46964D02*
X46701Y111721D01*
X46457Y111620*
X46248Y111459*
X46087Y111249*
X45985Y111005*
X45951Y110743*
X45985Y110481*
X46087Y110237*
X46248Y110027*
X46457Y109866*
X46701Y109765*
X46964Y109730*
X47226Y109765*
X47470Y109866*
X47680Y110027*
X47841Y110237*
X47942Y110481*
X47976Y110743*
X47942Y111005*
X47841Y111249*
X47680Y111459*
X47470Y111620*
X47226Y111721*
X46964Y111756*
G37*
G36*
X160239Y111251D02*
X158114D01*
Y109126*
X158429Y109157*
X158854Y109285*
X159245Y109495*
X159589Y109776*
X159870Y110120*
X160080Y110511*
X160208Y110936*
X160239Y111251*
G37*
G36*
X59664Y111756D02*
X59402Y111721D01*
X59157Y111620*
X58948Y111459*
X58787Y111249*
X58685Y111005*
X58651Y110743*
X58685Y110481*
X58700Y110446*
X58073Y109819*
X57975Y109672*
X57940Y109498*
Y108985*
X57826Y108929*
X57630Y109080*
X57386Y109181*
X57124Y109216*
X56861Y109181*
X56617Y109080*
X56421Y108929*
X56307Y108985*
Y109285*
X56808Y109787*
X56861Y109765*
X57124Y109730*
X57386Y109765*
X57630Y109866*
X57840Y110027*
X58001Y110237*
X58102Y110481*
X58136Y110743*
X58102Y111005*
X58001Y111249*
X57840Y111459*
X57630Y111620*
X57386Y111721*
X57124Y111756*
X56861Y111721*
X56617Y111620*
X56408Y111459*
X56247Y111249*
X56145Y111005*
X56111Y110743*
X56145Y110481*
X56167Y110428*
X55533Y109793*
X55435Y109646*
X55400Y109473*
Y108985*
X55286Y108929*
X55090Y109080*
X54846Y109181*
X54584Y109216*
X54321Y109181*
X54077Y109080*
X53868Y108919*
X53862Y108911*
X53741Y108952*
Y109473*
X53707Y109646*
X53658Y109720*
X53609Y109793*
X52992Y110410*
X53022Y110481*
X53056Y110743*
X53022Y111005*
X52921Y111249*
X52760Y111459*
X52550Y111620*
X52306Y111721*
X52044Y111756*
X51782Y111721*
X51537Y111620*
X51328Y111459*
X51167Y111249*
X51065Y111005*
X51031Y110743*
X51065Y110481*
X51167Y110237*
X51328Y110027*
X51537Y109866*
X51782Y109765*
X52044Y109730*
X52306Y109765*
X52341Y109779*
X52835Y109285*
Y109005*
X52721Y108949*
X52550Y109080*
X52306Y109181*
X52044Y109216*
X51782Y109181*
X51537Y109080*
X51328Y108919*
X51167Y108709*
X51065Y108465*
X51031Y108203*
X51065Y107941*
X51167Y107697*
X51328Y107487*
X51537Y107326*
X51565Y107315*
Y104037*
X51578Y103971*
X51488Y103882*
X51409Y103897*
X51161Y103848*
X50951Y103708*
X50837Y103538*
X50710*
X50596Y103708*
X50386Y103848*
X50139Y103897*
X50038Y103877*
X49948Y103967*
X49957Y104012*
Y107304*
X50010Y107326*
X50220Y107487*
X50381Y107697*
X50482Y107941*
X50516Y108203*
X50482Y108465*
X50381Y108709*
X50220Y108919*
X50010Y109080*
X49766Y109181*
X49504Y109216*
X49242Y109181*
X48997Y109080*
X48801Y108929*
X48687Y108985*
Y109311*
X49170Y109794*
X49242Y109765*
X49504Y109730*
X49766Y109765*
X50010Y109866*
X50220Y110027*
X50381Y110237*
X50482Y110481*
X50516Y110743*
X50482Y111005*
X50381Y111249*
X50220Y111459*
X50010Y111620*
X49766Y111721*
X49504Y111756*
X49242Y111721*
X48997Y111620*
X48788Y111459*
X48627Y111249*
X48525Y111005*
X48491Y110743*
X48525Y110481*
X48540Y110446*
X47913Y109819*
X47815Y109672*
X47780Y109498*
Y108985*
X47666Y108929*
X47470Y109080*
X47226Y109181*
X46964Y109216*
X46701Y109181*
X46457Y109080*
X46261Y108929*
X46147Y108985*
Y109448*
X46112Y109621*
X46014Y109768*
X45372Y110410*
X45402Y110481*
X45436Y110743*
X45402Y111005*
X45301Y111249*
X45140Y111459*
X44930Y111620*
X44686Y111721*
X44424Y111756*
X44161Y111721*
X43917Y111620*
X43708Y111459*
X43547Y111249*
X43445Y111005*
X43411Y110743*
X43445Y110481*
X43547Y110237*
X43708Y110027*
X43917Y109866*
X44161Y109765*
X44424Y109730*
X44686Y109765*
X44721Y109779*
X45240Y109260*
Y108985*
X45126Y108929*
X44930Y109080*
X44686Y109181*
X44424Y109216*
X44161Y109181*
X43917Y109080*
X43721Y108929*
X43607Y108985*
Y109473*
X43572Y109646*
X43523Y109720*
X43474Y109793*
X42840Y110428*
X42862Y110481*
X42896Y110743*
X42862Y111005*
X42761Y111249*
X42600Y111459*
X42390Y111620*
X42146Y111721*
X41884Y111756*
X41622Y111721*
X41377Y111620*
X41168Y111459*
X41007Y111249*
X40905Y111005*
X40871Y110743*
X40905Y110481*
X41007Y110237*
X41168Y110027*
X41377Y109866*
X41622Y109765*
X41884Y109730*
X42146Y109765*
X42199Y109787*
X42661Y109324*
X42613Y109207*
X40880*
Y107199*
X41405*
Y101878*
X41439Y101705*
X41538Y101558*
X44663Y98433*
X44810Y98334*
X44984Y98300*
X46443*
Y98299*
Y98230*
X48551*
Y98299*
Y98949*
Y99599*
Y100249*
Y100899*
Y101226*
X46443*
Y101156*
X46269*
X46147Y101279*
Y107421*
X46261Y107477*
X46457Y107326*
X46701Y107225*
X46964Y107190*
X47226Y107225*
X47470Y107326*
X47666Y107477*
X47780Y107421*
Y104903*
X47285Y104407*
X46443*
Y103499*
Y102849*
Y102199*
Y101549*
Y101480*
X48551*
Y101549*
Y101550*
X49662*
X49681Y101522*
X49891Y101382*
X50139Y101333*
X50386Y101382*
X50596Y101522*
X50710Y101692*
X50837*
X50951Y101522*
X51161Y101382*
X51409Y101333*
X51656Y101382*
X51866Y101522*
X51885Y101550*
X53043*
Y101549*
Y101480*
X55151*
Y101549*
Y102199*
Y102849*
Y103499*
Y104407*
X54259*
X53741Y104924*
Y107454*
X53862Y107495*
X53868Y107487*
X54077Y107326*
X54321Y107225*
X54584Y107190*
X54846Y107225*
X55090Y107326*
X55286Y107477*
X55400Y107421*
Y101279*
X55278Y101156*
X55151*
Y101157*
Y101226*
X53043*
Y100899*
Y100249*
Y99599*
Y98949*
Y98299*
Y98230*
X55151*
Y98299*
Y98300*
X56564*
X56737Y98334*
X56884Y98433*
X59959Y101507*
X60057Y101654*
X60091Y101828*
Y107293*
X60170Y107326*
X60380Y107487*
X60541Y107697*
X60642Y107941*
X60676Y108203*
X60642Y108465*
X60541Y108709*
X60380Y108919*
X60170Y109080*
X59926Y109181*
X59664Y109216*
X59402Y109181*
X59157Y109080*
X58961Y108929*
X58847Y108985*
Y109311*
X59330Y109794*
X59402Y109765*
X59664Y109730*
X59926Y109765*
X60170Y109866*
X60380Y110027*
X60541Y110237*
X60642Y110481*
X60676Y110743*
X60642Y111005*
X60541Y111249*
X60380Y111459*
X60170Y111620*
X59926Y111721*
X59664Y111756*
G37*
G36*
X54584D02*
X54321Y111721D01*
X54077Y111620*
X53868Y111459*
X53707Y111249*
X53605Y111005*
X53571Y110743*
X53605Y110481*
X53707Y110237*
X53868Y110027*
X54077Y109866*
X54321Y109765*
X54584Y109730*
X54846Y109765*
X55090Y109866*
X55300Y110027*
X55461Y110237*
X55562Y110481*
X55596Y110743*
X55562Y111005*
X55461Y111249*
X55300Y111459*
X55090Y111620*
X54846Y111721*
X54584Y111756*
G37*
G36*
X114274D02*
X114011Y111721D01*
X113767Y111620*
X113558Y111459*
X113397Y111249*
X113295Y111005*
X113261Y110743*
X113295Y110481*
X113397Y110237*
X113558Y110027*
X113767Y109866*
X114011Y109765*
X114274Y109730*
X114536Y109765*
X114780Y109866*
X114990Y110027*
X115151Y110237*
X115252Y110481*
X115286Y110743*
X115252Y111005*
X115151Y111249*
X114990Y111459*
X114780Y111620*
X114536Y111721*
X114274Y111756*
G37*
G36*
X33019Y113630D02*
Y111505D01*
X35144*
X35113Y111820*
X34985Y112245*
X34775Y112636*
X34494Y112980*
X34150Y113261*
X33759Y113470*
X33334Y113599*
X33019Y113630*
G37*
G36*
X32765D02*
X32450Y113599D01*
X32025Y113470*
X31634Y113261*
X31290Y112980*
X31009Y112636*
X30800Y112245*
X30671Y111820*
X30640Y111505*
X32765*
Y113630*
G37*
G36*
X158114D02*
Y111505D01*
X160239*
X160208Y111820*
X160080Y112245*
X159870Y112636*
X159589Y112980*
X159245Y113261*
X158854Y113470*
X158429Y113599*
X158114Y113630*
G37*
G36*
X157860D02*
X157545Y113599D01*
X157120Y113470*
X156729Y113261*
X156385Y112980*
X156104Y112636*
X155894Y112245*
X155766Y111820*
X155735Y111505*
X157860*
Y113630*
G37*
G36*
X136499Y111756D02*
X136237Y111721D01*
X135992Y111620*
X135783Y111459*
X135622Y111249*
X135520Y111005*
X135486Y110743*
X135520Y110481*
X135622Y110237*
X135783Y110027*
X135992Y109866*
X136237Y109765*
X136499Y109730*
X136761Y109765*
X137005Y109866*
X137215Y110027*
X137376Y110237*
X137477Y110481*
X137511Y110743*
X137477Y111005*
X137376Y111249*
X137215Y111459*
X137005Y111620*
X136761Y111721*
X136499Y111756*
G37*
G36*
X119354D02*
X119091Y111721D01*
X118847Y111620*
X118638Y111459*
X118477Y111249*
X118375Y111005*
X118341Y110743*
X118375Y110481*
X118390Y110446*
X117763Y109819*
X117665Y109672*
X117630Y109498*
Y108985*
X117516Y108929*
X117320Y109080*
X117076Y109181*
X116814Y109216*
X116551Y109181*
X116307Y109080*
X116111Y108929*
X115997Y108985*
Y109285*
X116498Y109787*
X116551Y109765*
X116814Y109730*
X117076Y109765*
X117320Y109866*
X117530Y110027*
X117691Y110237*
X117792Y110481*
X117826Y110743*
X117792Y111005*
X117691Y111249*
X117530Y111459*
X117320Y111620*
X117076Y111721*
X116814Y111756*
X116551Y111721*
X116307Y111620*
X116098Y111459*
X115937Y111249*
X115835Y111005*
X115801Y110743*
X115835Y110481*
X115857Y110428*
X115223Y109793*
X115125Y109646*
X115090Y109473*
Y108985*
X114976Y108929*
X114780Y109080*
X114536Y109181*
X114274Y109216*
X114011Y109181*
X113767Y109080*
X113558Y108919*
X113552Y108911*
X113431Y108952*
Y109473*
X113397Y109646*
X113348Y109720*
X113299Y109793*
X112682Y110410*
X112712Y110481*
X112746Y110743*
X112712Y111005*
X112611Y111249*
X112450Y111459*
X112240Y111620*
X111996Y111721*
X111734Y111756*
X111472Y111721*
X111227Y111620*
X111018Y111459*
X110857Y111249*
X110755Y111005*
X110721Y110743*
X110755Y110481*
X110857Y110237*
X111018Y110027*
X111227Y109866*
X111472Y109765*
X111734Y109730*
X111996Y109765*
X112031Y109779*
X112525Y109285*
Y109005*
X112411Y108949*
X112240Y109080*
X111996Y109181*
X111734Y109216*
X111472Y109181*
X111227Y109080*
X111018Y108919*
X110857Y108709*
X110755Y108465*
X110721Y108203*
X110755Y107941*
X110857Y107697*
X111018Y107487*
X111227Y107326*
X111255Y107315*
Y104037*
X111268Y103971*
X111178Y103882*
X111099Y103897*
X110851Y103848*
X110641Y103708*
X110527Y103538*
X110400*
X110286Y103708*
X110076Y103848*
X109829Y103897*
X109728Y103877*
X109638Y103967*
X109647Y104012*
Y107304*
X109700Y107326*
X109910Y107487*
X110071Y107697*
X110172Y107941*
X110206Y108203*
X110172Y108465*
X110071Y108709*
X109910Y108919*
X109700Y109080*
X109456Y109181*
X109194Y109216*
X108932Y109181*
X108687Y109080*
X108491Y108929*
X108377Y108985*
Y109311*
X108860Y109794*
X108932Y109765*
X109194Y109730*
X109456Y109765*
X109700Y109866*
X109910Y110027*
X110071Y110237*
X110172Y110481*
X110206Y110743*
X110172Y111005*
X110071Y111249*
X109910Y111459*
X109700Y111620*
X109456Y111721*
X109194Y111756*
X108932Y111721*
X108687Y111620*
X108478Y111459*
X108317Y111249*
X108215Y111005*
X108181Y110743*
X108215Y110481*
X108230Y110446*
X107603Y109819*
X107505Y109672*
X107470Y109498*
Y108985*
X107356Y108929*
X107160Y109080*
X106916Y109181*
X106654Y109216*
X106392Y109181*
X106147Y109080*
X105951Y108929*
X105837Y108985*
Y109448*
X105802Y109621*
X105704Y109768*
X105062Y110410*
X105092Y110481*
X105126Y110743*
X105092Y111005*
X104991Y111249*
X104830Y111459*
X104620Y111620*
X104376Y111721*
X104114Y111756*
X103852Y111721*
X103607Y111620*
X103398Y111459*
X103237Y111249*
X103135Y111005*
X103101Y110743*
X103135Y110481*
X103237Y110237*
X103398Y110027*
X103607Y109866*
X103852Y109765*
X104114Y109730*
X104376Y109765*
X104411Y109779*
X104930Y109260*
Y108985*
X104816Y108929*
X104620Y109080*
X104376Y109181*
X104114Y109216*
X103852Y109181*
X103607Y109080*
X103411Y108929*
X103297Y108985*
Y109473*
X103262Y109646*
X103213Y109720*
X103164Y109793*
X102530Y110428*
X102552Y110481*
X102586Y110743*
X102552Y111005*
X102451Y111249*
X102290Y111459*
X102080Y111620*
X101836Y111721*
X101574Y111756*
X101311Y111721*
X101067Y111620*
X100858Y111459*
X100697Y111249*
X100595Y111005*
X100561Y110743*
X100595Y110481*
X100697Y110237*
X100858Y110027*
X101067Y109866*
X101311Y109765*
X101574Y109730*
X101836Y109765*
X101889Y109787*
X102351Y109324*
X102303Y109207*
X100570*
Y107199*
X101095*
Y101878*
X101129Y101705*
X101228Y101558*
X104353Y98433*
X104500Y98334*
X104674Y98300*
X106133*
Y98299*
Y98230*
X108241*
Y98299*
Y98949*
Y99599*
Y100249*
Y100899*
Y101226*
X106133*
Y101156*
X105959*
X105837Y101279*
Y107421*
X105951Y107477*
X106147Y107326*
X106392Y107225*
X106654Y107190*
X106916Y107225*
X107160Y107326*
X107356Y107477*
X107470Y107421*
Y104903*
X106975Y104407*
X106133*
Y103499*
Y102849*
Y102199*
Y101549*
Y101480*
X108241*
Y101549*
Y101550*
X109352*
X109371Y101522*
X109581Y101382*
X109829Y101333*
X110076Y101382*
X110286Y101522*
X110400Y101692*
X110527*
X110641Y101522*
X110851Y101382*
X111099Y101333*
X111346Y101382*
X111556Y101522*
X111575Y101550*
X112733*
Y101549*
Y101480*
X114841*
Y101549*
Y102199*
Y102849*
Y103499*
Y104407*
X113949*
X113431Y104924*
Y107454*
X113552Y107495*
X113558Y107487*
X113767Y107326*
X114011Y107225*
X114274Y107190*
X114536Y107225*
X114780Y107326*
X114976Y107477*
X115090Y107421*
Y101279*
X114968Y101156*
X114841*
Y101226*
X112733*
Y100899*
Y100249*
Y99599*
Y98949*
Y98299*
Y98230*
X114841*
Y98299*
Y98300*
X116254*
X116427Y98334*
X116574Y98433*
X119649Y101507*
X119747Y101654*
X119781Y101828*
Y107293*
X119860Y107326*
X120070Y107487*
X120231Y107697*
X120332Y107941*
X120366Y108203*
X120332Y108465*
X120231Y108709*
X120070Y108919*
X119860Y109080*
X119616Y109181*
X119354Y109216*
X119091Y109181*
X118847Y109080*
X118651Y108929*
X118537Y108985*
Y109311*
X119020Y109794*
X119091Y109765*
X119354Y109730*
X119616Y109765*
X119860Y109866*
X120070Y110027*
X120231Y110237*
X120332Y110481*
X120366Y110743*
X120332Y111005*
X120231Y111249*
X120070Y111459*
X119860Y111620*
X119616Y111721*
X119354Y111756*
G37*
G36*
X149199D02*
X148937Y111721D01*
X148692Y111620*
X148483Y111459*
X148322Y111249*
X148220Y111005*
X148186Y110743*
X148220Y110481*
X148235Y110446*
X147608Y109819*
X147510Y109672*
X147475Y109498*
Y108985*
X147361Y108929*
X147165Y109080*
X146921Y109181*
X146659Y109216*
X146397Y109181*
X146152Y109080*
X145956Y108929*
X145842Y108985*
Y109285*
X146343Y109787*
X146397Y109765*
X146659Y109730*
X146921Y109765*
X147165Y109866*
X147375Y110027*
X147536Y110237*
X147637Y110481*
X147671Y110743*
X147637Y111005*
X147536Y111249*
X147375Y111459*
X147165Y111620*
X146921Y111721*
X146659Y111756*
X146397Y111721*
X146152Y111620*
X145943Y111459*
X145782Y111249*
X145680Y111005*
X145646Y110743*
X145680Y110481*
X145702Y110428*
X145068Y109793*
X144970Y109646*
X144935Y109473*
Y108985*
X144821Y108929*
X144625Y109080*
X144381Y109181*
X144119Y109216*
X143856Y109181*
X143612Y109080*
X143403Y108919*
X143397Y108911*
X143276Y108952*
Y109473*
X143242Y109646*
X143193Y109720*
X143144Y109793*
X142527Y110410*
X142557Y110481*
X142591Y110743*
X142557Y111005*
X142456Y111249*
X142295Y111459*
X142085Y111620*
X141841Y111721*
X141579Y111756*
X141317Y111721*
X141072Y111620*
X140863Y111459*
X140702Y111249*
X140600Y111005*
X140566Y110743*
X140600Y110481*
X140702Y110237*
X140863Y110027*
X141072Y109866*
X141317Y109765*
X141579Y109730*
X141841Y109765*
X141876Y109779*
X142370Y109285*
Y109005*
X142256Y108949*
X142085Y109080*
X141841Y109181*
X141579Y109216*
X141317Y109181*
X141072Y109080*
X140863Y108919*
X140702Y108709*
X140600Y108465*
X140566Y108203*
X140600Y107941*
X140702Y107697*
X140863Y107487*
X141072Y107326*
X141100Y107315*
Y104037*
X141113Y103971*
X141023Y103882*
X140944Y103897*
X140696Y103848*
X140486Y103708*
X140372Y103538*
X140245*
X140131Y103708*
X139921Y103848*
X139674Y103897*
X139573Y103877*
X139483Y103967*
X139492Y104012*
Y107304*
X139545Y107326*
X139755Y107487*
X139916Y107697*
X140017Y107941*
X140051Y108203*
X140017Y108465*
X139916Y108709*
X139755Y108919*
X139545Y109080*
X139301Y109181*
X139039Y109216*
X138776Y109181*
X138532Y109080*
X138336Y108929*
X138222Y108985*
Y109311*
X138705Y109794*
X138776Y109765*
X139039Y109730*
X139301Y109765*
X139545Y109866*
X139755Y110027*
X139916Y110237*
X140017Y110481*
X140051Y110743*
X140017Y111005*
X139916Y111249*
X139755Y111459*
X139545Y111620*
X139301Y111721*
X139039Y111756*
X138776Y111721*
X138532Y111620*
X138323Y111459*
X138162Y111249*
X138060Y111005*
X138026Y110743*
X138060Y110481*
X138075Y110446*
X137448Y109819*
X137350Y109672*
X137315Y109498*
Y108985*
X137201Y108929*
X137005Y109080*
X136761Y109181*
X136499Y109216*
X136237Y109181*
X135992Y109080*
X135796Y108929*
X135682Y108985*
Y109448*
X135647Y109621*
X135549Y109768*
X134907Y110410*
X134937Y110481*
X134971Y110743*
X134937Y111005*
X134836Y111249*
X134675Y111459*
X134465Y111620*
X134221Y111721*
X133959Y111756*
X133696Y111721*
X133452Y111620*
X133243Y111459*
X133082Y111249*
X132980Y111005*
X132946Y110743*
X132980Y110481*
X133082Y110237*
X133243Y110027*
X133452Y109866*
X133696Y109765*
X133959Y109730*
X134221Y109765*
X134256Y109779*
X134775Y109260*
Y108985*
X134661Y108929*
X134465Y109080*
X134221Y109181*
X133959Y109216*
X133696Y109181*
X133452Y109080*
X133256Y108929*
X133142Y108985*
Y109473*
X133107Y109646*
X133058Y109720*
X133009Y109793*
X132375Y110428*
X132397Y110481*
X132431Y110743*
X132397Y111005*
X132296Y111249*
X132135Y111459*
X131925Y111620*
X131681Y111721*
X131419Y111756*
X131157Y111721*
X130912Y111620*
X130703Y111459*
X130542Y111249*
X130440Y111005*
X130406Y110743*
X130440Y110481*
X130542Y110237*
X130703Y110027*
X130912Y109866*
X131157Y109765*
X131419Y109730*
X131681Y109765*
X131734Y109787*
X132196Y109324*
X132148Y109207*
X130415*
Y107199*
X130940*
Y101878*
X130974Y101705*
X131073Y101558*
X134198Y98433*
X134345Y98334*
X134519Y98300*
X135978*
Y98299*
Y97906*
X133267*
X133094Y97872*
X132947Y97773*
X129859Y94686*
X117706*
X117636Y94776*
X117477Y94899*
X117292Y94975*
X117093Y95002*
X116980Y94987*
X116477Y95490*
X116558Y95588*
X116641Y95532*
X116839Y95493*
X117037Y95532*
X117205Y95645*
X117318Y95813*
X117357Y96011*
X117318Y96209*
X117205Y96377*
X117183Y96392*
Y96519*
X117205Y96534*
X117318Y96702*
X117357Y96900*
X117318Y97098*
X117205Y97266*
X117037Y97379*
X116839Y97418*
X116641Y97379*
X116473Y97266*
X116423Y97191*
X114841*
Y97649*
Y97976*
X112733*
Y97907*
Y97841*
X112267*
X112118Y97812*
X111992Y97728*
X111908Y97602*
X111879Y97453*
Y95956*
X111286*
X109469Y97773*
X109322Y97872*
X109149Y97906*
X108241*
Y97907*
Y97976*
X106133*
Y97649*
Y96999*
Y96930*
X108241*
Y96999*
Y97000*
X108961*
X110778Y95183*
X110925Y95084*
X111099Y95050*
X112733*
Y95049*
X114841*
Y95050*
X115635*
X116339Y94346*
X116324Y94233*
X116351Y94034*
X116427Y93849*
X116550Y93690*
X116709Y93567*
X116894Y93491*
X117093Y93464*
X117292Y93491*
X117477Y93567*
X117636Y93690*
X117706Y93780*
X130047*
X130220Y93814*
X130367Y93913*
X133455Y97000*
X135978*
Y96999*
Y96930*
X138086*
Y96999*
Y97000*
X138806*
X140623Y95183*
X140770Y95084*
X140944Y95050*
X142578*
Y95049*
X144686*
Y95699*
Y95765*
X146238*
X146318Y95645*
X146486Y95532*
X146684Y95493*
X146882Y95532*
X147050Y95645*
X147163Y95813*
X147202Y96011*
X147163Y96209*
X147050Y96377*
X147028Y96392*
Y96519*
X147050Y96534*
X147163Y96702*
X147202Y96900*
X147163Y97098*
X147050Y97266*
X146882Y97379*
X146684Y97418*
X146486Y97379*
X146318Y97266*
X146268Y97191*
X144686*
Y97649*
Y97976*
X142578*
Y97841*
X142112*
X141963Y97812*
X141837Y97728*
X141753Y97602*
X141724Y97453*
Y95956*
X141131*
X139314Y97773*
X139167Y97872*
X138994Y97906*
X138086*
Y98299*
Y98949*
Y99599*
Y100249*
Y100899*
Y101226*
X135978*
Y101156*
X135804*
X135682Y101279*
Y107421*
X135796Y107477*
X135992Y107326*
X136237Y107225*
X136499Y107190*
X136761Y107225*
X137005Y107326*
X137201Y107477*
X137315Y107421*
Y104903*
X136820Y104407*
X135978*
Y103499*
Y102849*
Y102199*
Y101549*
Y101480*
X138086*
Y101549*
Y101550*
X139197*
X139216Y101522*
X139426Y101382*
X139674Y101333*
X139921Y101382*
X140131Y101522*
X140245Y101692*
X140372*
X140486Y101522*
X140696Y101382*
X140944Y101333*
X141191Y101382*
X141401Y101522*
X141420Y101550*
X142578*
Y101549*
Y101480*
X144686*
Y101549*
Y102199*
Y102849*
Y103499*
Y104407*
X143794*
X143276Y104924*
Y107454*
X143397Y107495*
X143403Y107487*
X143612Y107326*
X143856Y107225*
X144119Y107190*
X144381Y107225*
X144625Y107326*
X144821Y107477*
X144935Y107421*
Y101279*
X144813Y101156*
X144686*
Y101157*
Y101226*
X142578*
Y100899*
Y100249*
Y99599*
Y98949*
Y98299*
Y98230*
X144686*
Y98299*
Y98300*
X146099*
X146272Y98334*
X146419Y98433*
X149494Y101507*
X149592Y101654*
X149626Y101828*
Y107293*
X149705Y107326*
X149915Y107487*
X150076Y107697*
X150177Y107941*
X150211Y108203*
X150177Y108465*
X150076Y108709*
X149915Y108919*
X149705Y109080*
X149461Y109181*
X149199Y109216*
X148937Y109181*
X148692Y109080*
X148496Y108929*
X148382Y108985*
Y109311*
X148865Y109794*
X148937Y109765*
X149199Y109730*
X149461Y109765*
X149705Y109866*
X149915Y110027*
X150076Y110237*
X150177Y110481*
X150211Y110743*
X150177Y111005*
X150076Y111249*
X149915Y111459*
X149705Y111620*
X149461Y111721*
X149199Y111756*
G37*
G36*
X144119D02*
X143856Y111721D01*
X143612Y111620*
X143403Y111459*
X143242Y111249*
X143140Y111005*
X143106Y110743*
X143140Y110481*
X143242Y110237*
X143403Y110027*
X143612Y109866*
X143856Y109765*
X144119Y109730*
X144381Y109765*
X144625Y109866*
X144835Y110027*
X144996Y110237*
X145097Y110481*
X145131Y110743*
X145097Y111005*
X144996Y111249*
X144835Y111459*
X144625Y111620*
X144381Y111721*
X144119Y111756*
G37*
G36*
X157860Y111251D02*
X155735D01*
X155766Y110936*
X155894Y110511*
X156104Y110120*
X156385Y109776*
X156729Y109495*
X157120Y109285*
X157545Y109157*
X157860Y109126*
Y111251*
G37*
G36*
X140207Y100956D02*
X140069Y100938D01*
X139822Y100835*
X139609Y100673*
X139447Y100460*
X139344Y100213*
X139326Y100075*
X140207*
Y100956*
G37*
G36*
X80771D02*
Y100075D01*
X81652*
X81634Y100213*
X81531Y100460*
X81369Y100673*
X81156Y100835*
X80909Y100938*
X80771Y100956*
G37*
G36*
X65277Y101345D02*
X64396D01*
X64414Y101207*
X64517Y100960*
X64679Y100747*
X64892Y100585*
X65139Y100482*
X65277Y100464*
Y101345*
G37*
G36*
X140461Y100956D02*
Y100075D01*
X141342*
X141324Y100213*
X141221Y100460*
X141059Y100673*
X140846Y100835*
X140599Y100938*
X140461Y100956*
G37*
G36*
X126999Y100837D02*
X126118D01*
X126136Y100699*
X126239Y100452*
X126401Y100239*
X126614Y100077*
X126861Y99974*
X126999Y99956*
Y100837*
G37*
G36*
X95876Y100583D02*
X94995D01*
Y99702*
X95133Y99720*
X95380Y99823*
X95593Y99985*
X95755Y100198*
X95858Y100445*
X95876Y100583*
G37*
G36*
X80517Y100956D02*
X80379Y100938D01*
X80132Y100835*
X79919Y100673*
X79757Y100460*
X79654Y100213*
X79636Y100075*
X80517*
Y100956*
G37*
G36*
X128134Y100837D02*
X127253D01*
Y99956*
X127391Y99974*
X127638Y100077*
X127851Y100239*
X128013Y100452*
X128116Y100699*
X128134Y100837*
G37*
G36*
X66412Y101345D02*
X65531D01*
Y100464*
X65669Y100482*
X65916Y100585*
X66129Y100747*
X66291Y100960*
X66394Y101207*
X66412Y101345*
G37*
G36*
X65531Y102480D02*
Y101599D01*
X66412*
X66394Y101737*
X66291Y101984*
X66129Y102197*
X65916Y102359*
X65669Y102462*
X65531Y102480*
G37*
G36*
X65277D02*
X65139Y102462D01*
X64892Y102359*
X64679Y102197*
X64517Y101984*
X64414Y101737*
X64396Y101599*
X65277*
Y102480*
G37*
G36*
X35144Y111251D02*
X33019D01*
Y109126*
X33334Y109157*
X33759Y109285*
X34150Y109495*
X34494Y109776*
X34775Y110120*
X34985Y110511*
X35113Y110936*
X35144Y111251*
G37*
G36*
X32765D02*
X30640D01*
X30671Y110936*
X30800Y110511*
X31009Y110120*
X31290Y109776*
X31634Y109495*
X32025Y109285*
X32450Y109157*
X32765Y109126*
Y111251*
G37*
G36*
X94995Y101718D02*
Y100837D01*
X95876*
X95858Y100975*
X95755Y101222*
X95593Y101435*
X95380Y101597*
X95133Y101700*
X94995Y101718*
G37*
G36*
X94741D02*
X94603Y101700D01*
X94356Y101597*
X94143Y101435*
X93981Y101222*
X93878Y100975*
X93860Y100837*
X94741*
Y101718*
G37*
G36*
X127253Y101972D02*
Y101091D01*
X128134*
X128116Y101229*
X128013Y101476*
X127851Y101689*
X127638Y101851*
X127391Y101954*
X127253Y101972*
G37*
G36*
X126999D02*
X126861Y101954D01*
X126614Y101851*
X126401Y101689*
X126239Y101476*
X126136Y101229*
X126118Y101091*
X126999*
Y101972*
G37*
G36*
X70230Y92955D02*
X70092Y92937D01*
X69845Y92834*
X69632Y92672*
X69470Y92459*
X69367Y92212*
X69349Y92074*
X70230*
Y92955*
G37*
G36*
X103999Y77596D02*
X103504D01*
Y77101*
X103625Y77125*
X103835Y77265*
X103975Y77475*
X103999Y77596*
G37*
G36*
X103250D02*
X102755D01*
X102779Y77475*
X102919Y77265*
X103129Y77125*
X103250Y77101*
Y77596*
G37*
G36*
X103504Y78345D02*
Y77850D01*
X103999*
X103975Y77971*
X103835Y78181*
X103625Y78321*
X103504Y78345*
G37*
G36*
X103250D02*
X103129Y78321D01*
X102919Y78181*
X102779Y77971*
X102755Y77850*
X103250*
Y78345*
G37*
G36*
X43687Y75320D02*
X43489Y75281D01*
X43354Y75190*
X41655*
X41506Y75161*
X41380Y75077*
X40910Y74607*
X40826Y74481*
X40797Y74332*
Y74182*
X40431*
X40339*
X39712*
Y73278*
Y72374*
X40339*
X40431*
X41939*
Y74182*
X41750*
X41702Y74299*
X41816Y74414*
X43354*
X43489Y74323*
X43687Y74284*
X43885Y74323*
X44053Y74436*
X44166Y74604*
X44205Y74802*
X44166Y75000*
X44053Y75168*
X43885Y75281*
X43687Y75320*
G37*
G36*
X79755Y73924D02*
Y73428D01*
X80250*
X80226Y73549*
X80086Y73759*
X79876Y73900*
X79755Y73924*
G37*
G36*
X112210Y77989D02*
X111962Y77940D01*
X111752Y77800*
X111706Y77730*
X109994*
X109845Y77701*
X109719Y77617*
X107617Y75515*
X107533Y75389*
X107504Y75240*
Y72353*
X106323Y71172*
X106241Y71188*
X105993Y71139*
X105783Y70999*
X105643Y70789*
X105594Y70541*
X105643Y70293*
X105783Y70083*
X105993Y69943*
X106241Y69894*
X106489Y69943*
X106699Y70083*
X106839Y70293*
X106888Y70541*
X106872Y70623*
X108167Y71917*
X108251Y72043*
X108280Y72192*
Y75079*
X110155Y76954*
X111706*
X111752Y76884*
X111962Y76744*
X112210Y76695*
X112458Y76744*
X112668Y76884*
X112808Y77094*
X112857Y77342*
X112808Y77590*
X112668Y77800*
X112458Y77940*
X112210Y77989*
G37*
G36*
X49529Y81162D02*
X49331Y81123D01*
X49163Y81010*
X49050Y80842*
X49011Y80644*
X49050Y80446*
X49163Y80278*
X49331Y80165*
X49490Y80134*
X50665Y78959*
Y76659*
X50574Y76524*
X50535Y76326*
X50574Y76128*
X50687Y75960*
X50855Y75847*
X51053Y75808*
X51251Y75847*
X51419Y75960*
X51532Y76128*
X51571Y76326*
X51532Y76524*
X51441Y76659*
Y79120*
X51412Y79269*
X51328Y79395*
X50039Y80683*
X50008Y80842*
X49895Y81010*
X49727Y81123*
X49529Y81162*
G37*
G36*
X93852Y78358D02*
X93357D01*
X93381Y78237*
X93521Y78027*
X93731Y77887*
X93852Y77863*
Y78358*
G37*
G36*
X125094Y82295D02*
X124599D01*
X124623Y82174*
X124763Y81964*
X124973Y81824*
X125094Y81800*
Y82295*
G37*
G36*
X134098Y81406D02*
X133603D01*
Y80911*
X133724Y80935*
X133934Y81075*
X134074Y81285*
X134098Y81406*
G37*
G36*
X125094Y83044D02*
X124973Y83020D01*
X124763Y82880*
X124623Y82670*
X124599Y82549*
X125094*
Y83044*
G37*
G36*
X125843Y82295D02*
X125348D01*
Y81800*
X125469Y81824*
X125679Y81964*
X125819Y82174*
X125843Y82295*
G37*
G36*
X93852Y79107D02*
X93731Y79083D01*
X93521Y78943*
X93381Y78733*
X93357Y78612*
X93852*
Y79107*
G37*
G36*
X94601Y78358D02*
X94106D01*
Y77863*
X94227Y77887*
X94437Y78027*
X94577Y78237*
X94601Y78358*
G37*
G36*
X133349Y81406D02*
X132854D01*
X132878Y81285*
X133018Y81075*
X133228Y80935*
X133349Y80911*
Y81406*
G37*
G36*
X94106Y79107D02*
Y78612D01*
X94601*
X94577Y78733*
X94437Y78943*
X94227Y79083*
X94106Y79107*
G37*
G36*
X79501Y73924D02*
X79380Y73900D01*
X79170Y73759*
X79030Y73549*
X79006Y73428*
X79501*
Y73924*
G37*
G36*
X42925Y72897D02*
X42559D01*
X42573Y72826*
X42686Y72658*
X42854Y72545*
X42925Y72531*
Y72897*
G37*
G36*
X46085Y72770D02*
X45719D01*
Y72404*
X45790Y72418*
X45958Y72531*
X46071Y72699*
X46085Y72770*
G37*
G36*
X79501Y73174D02*
X79006D01*
X79030Y73054*
X79170Y72844*
X79380Y72703*
X79501Y72679*
Y73174*
G37*
G36*
X43545Y72897D02*
X43179D01*
Y72531*
X43250Y72545*
X43418Y72658*
X43531Y72826*
X43545Y72897*
G37*
G36*
X106679Y75576D02*
X106431Y75527D01*
X106221Y75387*
X106081Y75177*
X106032Y74929*
X106081Y74681*
X106221Y74471*
X106291Y74425*
Y73147*
X106221Y73101*
X106081Y72891*
X106032Y72643*
X106081Y72395*
X106221Y72185*
X106431Y72045*
X106679Y71996*
X106927Y72045*
X107137Y72185*
X107277Y72395*
X107326Y72643*
X107277Y72891*
X107137Y73101*
X107067Y73147*
Y74425*
X107137Y74471*
X107277Y74681*
X107326Y74929*
X107277Y75177*
X107137Y75387*
X106927Y75527*
X106679Y75576*
G37*
G36*
X52958Y72272D02*
X52760Y72233D01*
X52592Y72120*
X52479Y71952*
X52440Y71754*
X52479Y71556*
X52570Y71421*
Y71080*
X52452Y71031*
X51690Y71793*
X51659Y71952*
X51546Y72120*
X51378Y72233*
X51180Y72272*
X50982Y72233*
X50814Y72120*
X50701Y71952*
X50662Y71754*
X50701Y71556*
X50814Y71388*
X50982Y71275*
X51141Y71244*
X52062Y70323*
Y62486*
X51940Y62449*
X51927Y62468*
X51759Y62581*
X51561Y62620*
X51363Y62581*
X51195Y62468*
X51082Y62300*
X51051Y62141*
X50892Y61982*
X47246*
X47209Y62104*
X47228Y62117*
X47341Y62285*
X47380Y62483*
X47341Y62681*
X47250Y62816*
Y66674*
X47221Y66823*
X47137Y66949*
X45250Y68835*
X45299Y68953*
X47545*
X47680Y68862*
X47878Y68823*
X48076Y68862*
X48244Y68975*
X48357Y69143*
X48396Y69341*
X48357Y69539*
X48244Y69707*
X48076Y69820*
X47878Y69859*
X47680Y69820*
X47545Y69729*
X45118*
X44470Y70378*
X44344Y70462*
X44195Y70491*
X40769*
X40620Y70462*
X40494Y70378*
X40030Y69913*
X39871Y69882*
X39703Y69769*
X39590Y69601*
X39551Y69403*
X39590Y69205*
X39681Y69070*
Y65742*
X39300*
Y64434*
Y64342*
Y63815*
X40708*
Y64342*
Y64434*
Y65742*
X40457*
Y69070*
X40548Y69205*
X40579Y69364*
X40930Y69715*
X41398*
X41435Y69593*
X41416Y69580*
X41303Y69412*
X41264Y69214*
X41303Y69016*
X41416Y68848*
X41584Y68735*
X41782Y68696*
X41980Y68735*
X42082Y68803*
X42205Y68772*
X42236Y68714*
X42194Y68650*
X42155Y68452*
X42194Y68254*
X42306Y68086*
X42474Y67973*
X42673Y67934*
X42871Y67973*
X43006Y68064*
X44161*
X44293Y67931*
X44233Y67819*
X44195Y67827*
X43997Y67788*
X43829Y67675*
X43716Y67507*
X43685Y67348*
X43547Y67211*
X43435Y67271*
X43443Y67309*
X43404Y67507*
X43291Y67675*
X43123Y67788*
X42925Y67827*
X42727Y67788*
X42559Y67675*
X42446Y67507*
X42415Y67348*
X41507Y66441*
X41423Y66315*
X41394Y66166*
Y62816*
X41303Y62681*
X41264Y62483*
X41303Y62285*
X41416Y62117*
X41435Y62104*
X41398Y61982*
X41181*
X41022Y62141*
X40991Y62300*
X40878Y62468*
X40710Y62581*
X40512Y62620*
X40314Y62581*
X40146Y62468*
X40033Y62300*
X39994Y62102*
X40033Y61904*
X40146Y61736*
X40314Y61623*
X40473Y61592*
X40745Y61319*
X40871Y61235*
X41020Y61206*
X51053*
X51202Y61235*
X51328Y61319*
X51600Y61592*
X51759Y61623*
X51927Y61736*
X51940Y61755*
X52062Y61718*
Y56929*
X46574Y51441*
X43687*
X43538Y51412*
X43412Y51328*
X42777Y50693*
X42693Y50567*
X42664Y50418*
Y50375*
X42348*
Y49067*
Y48975*
Y47667*
X42542*
X42591Y47550*
X42102Y47061*
X41678*
X41653Y47120*
X41491Y47333*
X41278Y47495*
X41031Y47598*
X40766Y47633*
X40501Y47598*
X40254Y47495*
X40041Y47333*
X39879Y47120*
X39776Y46873*
X39741Y46608*
X39776Y46343*
X39879Y46096*
X40041Y45883*
X40254Y45721*
X40501Y45618*
X40766Y45583*
X41031Y45618*
X41278Y45721*
X41491Y45883*
X41653Y46096*
X41678Y46155*
X42290*
X42463Y46189*
X42610Y46288*
X43372Y47050*
X43471Y47197*
X43505Y47370*
Y47667*
X43756*
Y48975*
Y49067*
Y50375*
X43724*
X43676Y50492*
X43848Y50665*
X46422*
X46503Y50567*
X46474Y50418*
Y50375*
X46158*
Y49067*
Y48975*
Y47667*
X47566*
Y47806*
X49849*
X50723Y46932*
X50698Y46873*
X50663Y46608*
X50698Y46343*
X50801Y46096*
X50963Y45883*
X51176Y45721*
X51423Y45618*
X51688Y45583*
X51953Y45618*
X52200Y45721*
X52413Y45883*
X52575Y46096*
X52678Y46343*
X52713Y46608*
X52678Y46873*
X52575Y47120*
X52413Y47333*
X52200Y47495*
X51953Y47598*
X51688Y47633*
X51423Y47598*
X51364Y47573*
X50357Y48579*
X50210Y48678*
X50037Y48712*
X47566*
Y48975*
Y49067*
Y50375*
X47534*
X47486Y50492*
X53233Y56239*
X53317Y56365*
X53346Y56514*
Y71421*
X53437Y71556*
X53476Y71754*
X53437Y71952*
X53324Y72120*
X53156Y72233*
X52958Y72272*
G37*
G36*
X45465Y72770D02*
X45099D01*
X45113Y72699*
X45226Y72531*
X45394Y72418*
X45465Y72404*
Y72770*
G37*
G36*
X39458Y73151D02*
X38831D01*
Y72374*
X39458*
Y73151*
G37*
G36*
X80250Y73174D02*
X79755D01*
Y72679*
X79876Y72703*
X80086Y72844*
X80226Y73054*
X80250Y73174*
G37*
G36*
X43179Y73517D02*
Y73151D01*
X43545*
X43531Y73222*
X43418Y73390*
X43250Y73503*
X43179Y73517*
G37*
G36*
X42925D02*
X42854Y73503D01*
X42686Y73390*
X42573Y73222*
X42559Y73151*
X42925*
Y73517*
G37*
G36*
X39458Y74182D02*
X38831D01*
Y73405*
X39458*
Y74182*
G37*
G36*
X88437Y73474D02*
X88366D01*
X88345*
X87037*
Y73158*
X86609*
X86563Y73228*
X86353Y73368*
X86105Y73417*
X85857Y73368*
X85647Y73228*
X85507Y73018*
X85458Y72770*
X85507Y72522*
X85647Y72312*
X85857Y72172*
X86105Y72123*
X86353Y72172*
X86563Y72312*
X86609Y72382*
X87037*
Y72066*
X88345*
X88437*
X89745*
Y73474*
X88437*
G37*
G36*
X62750Y74520D02*
Y72897D01*
X64373*
X64352Y73114*
X64251Y73444*
X64088Y73749*
X63869Y74016*
X63602Y74235*
X63297Y74398*
X62967Y74499*
X62750Y74520*
G37*
G36*
X62496D02*
X62279Y74499D01*
X61949Y74398*
X61644Y74235*
X61377Y74016*
X61158Y73749*
X60995Y73444*
X60894Y73114*
X60873Y72897*
X62496*
Y74520*
G37*
G36*
X45719Y73390D02*
Y73024D01*
X46085*
X46071Y73095*
X45958Y73263*
X45790Y73376*
X45719Y73390*
G37*
G36*
X45465D02*
X45394Y73376D01*
X45226Y73263*
X45113Y73095*
X45099Y73024*
X45465*
Y73390*
G37*
G36*
X141845Y91185D02*
X141350D01*
Y90690*
X141471Y90714*
X141681Y90854*
X141821Y91064*
X141845Y91185*
G37*
G36*
X141096D02*
X140601D01*
X140625Y91064*
X140765Y90854*
X140975Y90714*
X141096Y90690*
Y91185*
G37*
G36*
X71365Y91820D02*
X70484D01*
Y90939*
X70622Y90957*
X70869Y91060*
X71082Y91222*
X71244Y91435*
X71347Y91682*
X71365Y91820*
G37*
G36*
X70230D02*
X69349D01*
X69367Y91682*
X69470Y91435*
X69632Y91222*
X69845Y91060*
X70092Y90957*
X70230Y90939*
Y91820*
G37*
G36*
X133971Y91185D02*
X133476D01*
Y90690*
X133597Y90714*
X133807Y90854*
X133947Y91064*
X133971Y91185*
G37*
G36*
X125348D02*
X124853D01*
X124877Y91064*
X125017Y90854*
X125227Y90714*
X125348Y90690*
Y91185*
G37*
G36*
X86105Y87743D02*
Y87248D01*
X86600*
X86576Y87369*
X86436Y87579*
X86226Y87719*
X86105Y87743*
G37*
G36*
X133222Y91185D02*
X132727D01*
X132751Y91064*
X132891Y90854*
X133101Y90714*
X133222Y90690*
Y91185*
G37*
G36*
X126097D02*
X125602D01*
Y90690*
X125723Y90714*
X125933Y90854*
X126073Y91064*
X126097Y91185*
G37*
G36*
X141350Y91934D02*
Y91439D01*
X141845*
X141821Y91560*
X141681Y91770*
X141471Y91910*
X141350Y91934*
G37*
G36*
X141096D02*
X140975Y91910D01*
X140765Y91770*
X140625Y91560*
X140601Y91439*
X141096*
Y91934*
G37*
G36*
X63364Y92836D02*
X62483D01*
Y91955*
X62621Y91973*
X62868Y92076*
X63081Y92238*
X63243Y92451*
X63346Y92698*
X63364Y92836*
G37*
G36*
X62229D02*
X61348D01*
X61366Y92698*
X61469Y92451*
X61631Y92238*
X61844Y92076*
X62091Y91973*
X62229Y91955*
Y92836*
G37*
G36*
X133476Y91934D02*
Y91439D01*
X133971*
X133947Y91560*
X133807Y91770*
X133597Y91910*
X133476Y91934*
G37*
G36*
X125348D02*
X125227Y91910D01*
X125017Y91770*
X124877Y91560*
X124853Y91439*
X125348*
Y91934*
G37*
G36*
X156717Y92731D02*
X156455Y92697D01*
X156211Y92595*
X156001Y92434*
X155840Y92225*
X155739Y91980*
X155704Y91718*
X155725Y91562*
X155298Y91143*
X155181Y91193*
Y92722*
X153173*
Y92301*
X144931*
X144708Y92257*
X144519Y92130*
X144207Y91818*
X144072Y91800*
X143887Y91724*
X143728Y91601*
X143605Y91442*
X143529Y91257*
X143502Y91058*
X143529Y90859*
X143605Y90674*
X143728Y90515*
X143887Y90392*
X143945Y90368*
X143920Y90244*
X138061*
X137157Y91147*
X137139Y91282*
X137063Y91468*
X136940Y91627*
X136781Y91749*
X136596Y91826*
X136397Y91852*
X136198Y91826*
X136013Y91749*
X135854Y91627*
X135731Y91468*
X135655Y91282*
X135628Y91083*
X135655Y90884*
X135731Y90699*
X135854Y90540*
X136013Y90418*
X136198Y90341*
X136333Y90323*
X137407Y89249*
X137596Y89123*
X137710Y89100*
X137697Y88974*
X131177*
X129268Y90883*
X129292Y91058*
X129265Y91257*
X129189Y91442*
X129066Y91601*
X128907Y91724*
X128722Y91800*
X128523Y91827*
X128324Y91800*
X128139Y91724*
X127980Y91601*
X127857Y91442*
X127781Y91257*
X127754Y91058*
X127781Y90859*
X127857Y90674*
X127980Y90515*
X128081Y90437*
X128111Y90392*
X130524Y87979*
X130713Y87853*
X130826Y87830*
X130814Y87704*
X124827*
X121409Y91122*
X121391Y91257*
X121315Y91442*
X121192Y91601*
X121033Y91724*
X120848Y91800*
X120649Y91827*
X120450Y91800*
X120265Y91724*
X120106Y91601*
X119983Y91442*
X119907Y91257*
X119880Y91058*
X119907Y90859*
X119983Y90674*
X120106Y90515*
X120265Y90392*
X120450Y90316*
X120585Y90298*
X124174Y86709*
X124315Y86615*
X124278Y86493*
X122842*
X122194Y87142*
X122068Y87226*
X121919Y87255*
X96471*
X96336Y87346*
X96138Y87385*
X95940Y87346*
X95772Y87233*
X95659Y87065*
X95620Y86867*
X95659Y86669*
X95772Y86501*
X95940Y86388*
X96138Y86349*
X96336Y86388*
X96471Y86479*
X96839*
X96920Y86380*
X96890Y86232*
X96929Y86034*
X97042Y85866*
X97210Y85753*
X97408Y85714*
X97606Y85753*
X97741Y85844*
X98109*
X98190Y85745*
X98160Y85597*
X98199Y85399*
X98312Y85231*
X98480Y85118*
X98678Y85079*
X98876Y85118*
X99011Y85209*
X99379*
X99460Y85110*
X99430Y84962*
X99469Y84764*
X99582Y84596*
X99750Y84483*
X99948Y84444*
X100146Y84483*
X100281Y84574*
X100649*
X100730Y84475*
X100700Y84327*
X100739Y84129*
X100852Y83961*
X101020Y83848*
X101218Y83809*
X101416Y83848*
X101551Y83939*
X101919*
X102000Y83840*
X101970Y83692*
X102009Y83494*
X102122Y83326*
X102290Y83213*
X102488Y83174*
X102686Y83213*
X102821Y83304*
X103189*
X103270Y83205*
X103240Y83057*
X103279Y82859*
X103392Y82691*
X103560Y82578*
X103758Y82539*
X103956Y82578*
X104091Y82669*
X104459*
X104540Y82570*
X104510Y82422*
X104549Y82224*
X104662Y82056*
X104830Y81943*
X105028Y81904*
X105226Y81943*
X105361Y82034*
X112360*
X117326Y77067*
X117452Y76983*
X117601Y76954*
X120615*
X121028Y76541*
X121059Y76382*
X121172Y76214*
X121340Y76101*
X121538Y76062*
X121736Y76101*
X121904Y76214*
X122017Y76382*
X122056Y76580*
X122017Y76778*
X121904Y76946*
X121736Y77059*
X121577Y77090*
X121323Y77344*
X121372Y77462*
X127981*
X128902Y76541*
X128933Y76382*
X129046Y76214*
X129214Y76101*
X129412Y76062*
X129610Y76101*
X129778Y76214*
X129891Y76382*
X129930Y76580*
X129891Y76778*
X129778Y76946*
X129610Y77059*
X129451Y77090*
X128562Y77979*
X128611Y78097*
X135728*
X136979Y76845*
X136934Y76778*
X136895Y76580*
X136934Y76382*
X137047Y76214*
X137215Y76101*
X137413Y76062*
X137611Y76101*
X137779Y76214*
X137892Y76382*
X137931Y76580*
X137892Y76778*
X137801Y76913*
Y76961*
X137772Y77110*
X137688Y77236*
X136436Y78487*
X136485Y78605*
X142713*
X144777Y76541*
X144808Y76382*
X144921Y76214*
X145089Y76101*
X145287Y76062*
X145485Y76101*
X145653Y76214*
X145766Y76382*
X145805Y76580*
X145766Y76778*
X145653Y76946*
X145485Y77059*
X145326Y77090*
X143149Y79268*
X143023Y79352*
X142874Y79381*
X118353*
X113279Y84456*
X113327Y84574*
X119853*
X119866Y84560*
X119992Y84476*
X120141Y84447*
X122573*
X122621Y84329*
X120585Y82293*
X120450Y82275*
X120265Y82199*
X120106Y82076*
X119983Y81917*
X119907Y81732*
X119880Y81533*
X119907Y81334*
X119983Y81149*
X120106Y80990*
X120265Y80867*
X120450Y80791*
X120649Y80764*
X120848Y80791*
X121033Y80867*
X121192Y80990*
X121315Y81149*
X121391Y81334*
X121409Y81469*
X123430Y83490*
X129671*
X129683Y83364*
X129570Y83341*
X129381Y83215*
X128459Y82293*
X128324Y82275*
X128139Y82199*
X127980Y82076*
X127857Y81917*
X127781Y81732*
X127754Y81533*
X127781Y81334*
X127857Y81149*
X127980Y80990*
X128139Y80867*
X128324Y80791*
X128523Y80764*
X128722Y80791*
X128907Y80867*
X129066Y80990*
X129189Y81149*
X129265Y81334*
X129283Y81469*
X130034Y82220*
X133143*
X133180Y82099*
X133018Y81991*
X132878Y81781*
X132854Y81660*
X134098*
X134074Y81781*
X133934Y81991*
X133772Y82099*
X133809Y82220*
X135970*
X136011Y82100*
X135981Y82076*
X135858Y81917*
X135782Y81732*
X135755Y81533*
X135782Y81334*
X135858Y81149*
X135981Y80990*
X136140Y80867*
X136325Y80791*
X136460Y80773*
X137382Y79851*
X137571Y79725*
X137794Y79680*
X152882*
X153105Y79725*
X153294Y79851*
X156550Y83108*
X156717Y83086*
X156979Y83120*
X157223Y83221*
X157433Y83382*
X157594Y83592*
X157695Y83836*
X157730Y84098*
X157695Y84361*
X157594Y84605*
X157433Y84814*
X157223Y84975*
X156979Y85077*
X156717Y85111*
X156455Y85077*
X156211Y84975*
X156001Y84814*
X155840Y84605*
X155739Y84361*
X155704Y84098*
X155726Y83932*
X152640Y80846*
X151734*
X151721Y80972*
X151835Y80995*
X152024Y81121*
X154010Y83108*
X154177Y83086*
X154439Y83120*
X154683Y83221*
X154893Y83382*
X155054Y83592*
X155155Y83836*
X155190Y84098*
X155155Y84361*
X155054Y84605*
X155003Y84672*
X155059Y84786*
X155422*
X155530Y84807*
X155639Y84828*
X155642Y84829*
X155645Y84830*
X155737Y84892*
X155830Y84952*
X156540Y85649*
X156717Y85626*
X156979Y85660*
X157223Y85761*
X157433Y85922*
X157594Y86132*
X157695Y86376*
X157730Y86638*
X157695Y86900*
X157594Y87145*
X157433Y87354*
X157223Y87515*
X156979Y87617*
X156717Y87651*
X156455Y87617*
X156211Y87515*
X156001Y87354*
X155840Y87145*
X155739Y86900*
X155704Y86638*
X155725Y86482*
X155184Y85951*
X155059*
X155003Y86065*
X155054Y86132*
X155155Y86376*
X155190Y86638*
X155155Y86900*
X155054Y87145*
X155003Y87212*
X155059Y87326*
X155422*
X155530Y87347*
X155639Y87368*
X155642Y87369*
X155645Y87370*
X155737Y87432*
X155830Y87492*
X156540Y88189*
X156717Y88166*
X156979Y88200*
X157223Y88301*
X157433Y88462*
X157594Y88672*
X157695Y88916*
X157730Y89178*
X157695Y89440*
X157594Y89685*
X157433Y89894*
X157223Y90055*
X156979Y90157*
X156717Y90191*
X156455Y90157*
X156211Y90055*
X156001Y89894*
X155840Y89685*
X155739Y89440*
X155704Y89178*
X155725Y89022*
X155184Y88491*
X155059*
X155003Y88605*
X155054Y88672*
X155155Y88916*
X155190Y89178*
X155155Y89440*
X155054Y89685*
X155003Y89752*
X155059Y89866*
X155422*
X155530Y89887*
X155639Y89908*
X155642Y89909*
X155645Y89910*
X155737Y89972*
X155830Y90032*
X156540Y90729*
X156717Y90706*
X156979Y90740*
X157223Y90841*
X157433Y91002*
X157594Y91212*
X157695Y91456*
X157730Y91718*
X157695Y91980*
X157594Y92225*
X157433Y92434*
X157223Y92595*
X156979Y92697*
X156717Y92731*
G37*
G36*
X133222Y91934D02*
X133101Y91910D01*
X132891Y91770*
X132751Y91560*
X132727Y91439*
X133222*
Y91934*
G37*
G36*
X125602D02*
Y91439D01*
X126097*
X126073Y91560*
X125933Y91770*
X125723Y91910*
X125602Y91934*
G37*
G36*
X53085Y84695D02*
X52964Y84671D01*
X52754Y84531*
X52614Y84321*
X52590Y84200*
X53085*
Y84695*
G37*
G36*
X62094Y84581D02*
X61213D01*
Y83700*
X61351Y83718*
X61598Y83821*
X61811Y83983*
X61973Y84196*
X62076Y84443*
X62094Y84581*
G37*
G36*
X87756Y86117D02*
X87508Y86068D01*
X87298Y85928*
X87252Y85858*
X86486*
X86337Y85829*
X86211Y85745*
X85322Y84856*
X85238Y84730*
X85209Y84581*
Y82329*
X82896Y80016*
X66970*
X66933Y80138*
X67005Y80186*
X67145Y80396*
X67194Y80644*
X67178Y80726*
X68486Y82034*
X69218*
X69264Y81964*
X69474Y81824*
X69722Y81775*
X69970Y81824*
X70180Y81964*
X70320Y82174*
X70369Y82422*
X70320Y82670*
X70180Y82880*
X70110Y82926*
Y83658*
X71026Y84574*
X72520*
X72566Y84504*
X72776Y84364*
X73024Y84315*
X73272Y84364*
X73482Y84504*
X73622Y84714*
X73671Y84962*
X73622Y85210*
X73482Y85420*
X73272Y85560*
X73024Y85609*
X72776Y85560*
X72566Y85420*
X72520Y85350*
X70865*
X70716Y85321*
X70590Y85237*
X69447Y84094*
X69363Y83968*
X69334Y83819*
Y82926*
X69264Y82880*
X69218Y82810*
X68325*
X68201Y82786*
X68176Y82781*
X68050Y82697*
X66629Y81275*
X66547Y81291*
X66299Y81242*
X66089Y81102*
X65949Y80892*
X65900Y80644*
X65949Y80396*
X66089Y80186*
X66161Y80138*
X66124Y80016*
X59850*
X58567Y81300*
X58441Y81384*
X58292Y81413*
X54008*
X50693Y84729*
X50567Y84813*
X50418Y84842*
X44020*
X43885Y84933*
X43687Y84972*
X43489Y84933*
X43321Y84820*
X43208Y84652*
X43169Y84454*
X43208Y84256*
X43321Y84088*
X43489Y83975*
X43687Y83936*
X43885Y83975*
X44020Y84066*
X44207*
X44267Y83954*
X44224Y83890*
X44185Y83692*
X44224Y83494*
X44337Y83326*
X44505Y83213*
X44703Y83174*
X44901Y83213*
X45021Y83294*
X45143Y83257*
X45172Y83186*
X44809Y82824*
X44725Y82698*
X44696Y82549*
Y78574*
X44192Y78070*
X44033Y78039*
X43865Y77926*
X43752Y77758*
X43713Y77560*
X43752Y77362*
X43865Y77194*
X44033Y77081*
X44231Y77042*
X44429Y77081*
X44597Y77194*
X44710Y77362*
X44741Y77521*
X45359Y78138*
X45443Y78264*
X45472Y78413*
Y82198*
X45599Y82211*
X45621Y82097*
X45734Y81929*
X45902Y81816*
X46100Y81777*
X46298Y81816*
X46433Y81907*
X47409*
X47458Y81789*
X45952Y80284*
X45868Y80158*
X45839Y80009*
Y77421*
X45748Y77286*
X45709Y77088*
X45748Y76890*
X45861Y76722*
X46029Y76609*
X46227Y76570*
X46425Y76609*
X46593Y76722*
X46706Y76890*
X46745Y77088*
X46706Y77286*
X46615Y77421*
Y79848*
X48166Y81399*
X50050*
X52731Y78718*
X52857Y78634*
X53005Y78605*
X53505*
X53554Y78487*
X52937Y77871*
X52853Y77745*
X52824Y77596*
Y76106*
X52035Y75317*
X46642*
X45486Y76474*
X45360Y76558*
X45211Y76587*
X38686*
X38551Y76678*
X38353Y76717*
X38155Y76678*
X37987Y76565*
X37874Y76397*
X37835Y76199*
X37874Y76001*
X37987Y75833*
X38155Y75720*
X38353Y75681*
X38551Y75720*
X38686Y75811*
X45050*
X45468Y75393*
X45408Y75281*
X45211Y75320*
X45013Y75281*
X44845Y75168*
X44732Y75000*
X44693Y74802*
X44732Y74604*
X44845Y74436*
X45013Y74323*
X45172Y74292*
X45317Y74146*
X45443Y74062*
X45592Y74033*
X52406*
X52555Y74062*
X52681Y74146*
X53995Y75460*
X54079Y75586*
X54108Y75735*
Y77225*
X54472Y77589*
X54733*
X54770Y77467*
X54751Y77454*
X54638Y77286*
X54599Y77088*
X54638Y76890*
X54751Y76722*
X54919Y76609*
X55117Y76570*
X55315Y76609*
X55450Y76700*
X56003*
X56040Y76578*
X56021Y76565*
X55908Y76397*
X55869Y76199*
X55908Y76001*
X56021Y75833*
X56189Y75720*
X56348Y75689*
X56471Y75566*
X56422Y75448*
X56080*
X55950Y75535*
X55752Y75574*
X55554Y75535*
X55386Y75423*
X55273Y75255*
X55234Y75057*
X55273Y74858*
X55386Y74690*
X55554Y74578*
X55752Y74539*
X55950Y74578*
X56090Y74672*
X73369*
X73406Y74550*
X73328Y74498*
X73188Y74288*
X73139Y74040*
X73188Y73792*
X73328Y73582*
X73538Y73442*
X73786Y73393*
X73868Y73409*
X74400Y72876*
X74526Y72792*
X74675Y72763*
X76800*
X79621Y69942*
Y67178*
X79551Y67132*
X79411Y66922*
X79362Y66674*
X79411Y66426*
X79551Y66216*
X79761Y66076*
X80009Y66027*
X80257Y66076*
X80467Y66216*
X80517Y66291*
X80644*
X80694Y66216*
X80904Y66076*
X81152Y66027*
X81400Y66076*
X81610Y66216*
X81750Y66426*
X81799Y66674*
X81750Y66922*
X81610Y67132*
X81540Y67178*
Y69678*
X81511Y69827*
X81427Y69953*
X77065Y74315*
X76939Y74399*
X76790Y74428*
X75433*
X75387Y74498*
X75309Y74550*
X75346Y74672*
X87104*
X87122Y74668*
X87270Y74698*
X87396Y74782*
X88559Y75945*
X88671Y75885*
X88633Y75691*
X88682Y75443*
X88822Y75233*
X89032Y75093*
X89280Y75044*
X89469Y75081*
X89559Y74991*
X89522Y74802*
X89571Y74554*
X89711Y74344*
X89921Y74204*
X90169Y74155*
X90417Y74204*
X90627Y74344*
X90673Y74414*
X97037*
X104924Y66526*
X105050Y66442*
X105199Y66413*
X112503*
X116070Y62846*
Y61717*
X116000Y61671*
X115886Y61501*
X115759*
X115646Y61671*
X115436Y61811*
X115188Y61860*
X114940Y61811*
X114730Y61671*
X114590Y61461*
X114541Y61213*
X114590Y60965*
X114730Y60755*
X114800Y60709*
Y57403*
X114829Y57254*
X114913Y57128*
X118977Y53064*
X119103Y52980*
X119252Y52951*
X127346*
X129024Y51273*
Y49232*
X128708*
Y47924*
Y47832*
Y46524*
X128959*
Y46037*
X128880Y46005*
X128660Y45836*
X128491Y45616*
X128385Y45359*
X128349Y45084*
X128385Y44809*
X128491Y44552*
X128660Y44332*
X128880Y44163*
X129137Y44057*
X129412Y44021*
X129687Y44057*
X129944Y44163*
X130164Y44332*
X130333Y44552*
X130439Y44809*
X130475Y45084*
X130439Y45359*
X130333Y45616*
X130164Y45836*
X129944Y46005*
X129865Y46037*
Y46524*
X130116*
Y47832*
Y47924*
Y49232*
X129800*
Y51176*
X129918Y51224*
X131564Y49579*
Y49232*
X131248*
Y47924*
Y47832*
Y46524*
X132656*
Y46725*
X133480*
X134039Y46166*
Y46037*
X133960Y46005*
X133740Y45836*
X133571Y45616*
X133465Y45359*
X133429Y45084*
X133465Y44809*
X133571Y44552*
X133740Y44332*
X133960Y44163*
X134217Y44057*
X134492Y44021*
X134767Y44057*
X135024Y44163*
X135244Y44332*
X135413Y44552*
X135519Y44809*
X135555Y45084*
X135519Y45359*
X135413Y45616*
X135244Y45836*
X135024Y46005*
X134945Y46037*
Y46354*
X134911Y46527*
X134862Y46601*
X134812Y46674*
X133988Y47498*
X133841Y47597*
X133668Y47631*
X132656*
Y47832*
Y47924*
Y49232*
X132340*
Y49739*
X132311Y49888*
X132227Y50014*
X127992Y54249*
X127866Y54333*
X127717Y54362*
X119540*
X116846Y57056*
Y60709*
X116916Y60755*
X117056Y60965*
X117105Y61213*
X117056Y61461*
X116916Y61671*
X116846Y61717*
Y63006*
X116817Y63155*
X116733Y63281*
X115093Y64921*
X115153Y65033*
X115188Y65026*
X115436Y65075*
X115646Y65216*
X115786Y65426*
X115835Y65673*
X115786Y65921*
X115646Y66131*
X115436Y66272*
X115188Y66321*
X115106Y66305*
X113827Y67584*
X113701Y67668*
X113552Y67697*
X105570*
X97302Y75966*
X97176Y76050*
X97027Y76079*
X91622*
X91562Y76191*
X91656Y76332*
X91705Y76580*
X91656Y76828*
X91516Y77038*
X91306Y77178*
X91058Y77227*
X90895Y77195*
X90805Y77285*
X90816Y77342*
X90767Y77590*
X90627Y77800*
X90417Y77940*
X90169Y77989*
X89921Y77940*
X89711Y77800*
X89665Y77730*
X89030*
X88982Y77848*
X91206Y80072*
X91290Y80198*
X91319Y80346*
Y82934*
X91389Y82980*
X91529Y83190*
X91578Y83438*
X91529Y83686*
X91389Y83896*
X91179Y84036*
X90931Y84085*
X90683Y84036*
X90473Y83896*
X90333Y83686*
X90284Y83438*
X90333Y83190*
X90473Y82980*
X90543Y82934*
Y80507*
X88772Y78737*
X88651Y78774*
X88608Y78987*
X88518Y79122*
Y79145*
X88561Y79248*
X88667Y79269*
X88793Y79353*
X89809Y80369*
X89893Y80495*
X89898Y80520*
X89922Y80644*
Y83808*
X90163Y83856*
X90373Y83996*
X90513Y84206*
X90562Y84454*
X90513Y84702*
X90373Y84912*
X90163Y85052*
X89915Y85101*
X89667Y85052*
X89457Y84912*
X89317Y84702*
X89268Y84454*
X89285Y84365*
X89259Y84348*
X89175Y84222*
X89146Y84073*
Y80805*
X88357Y80016*
X85685*
X85636Y80134*
X87269Y81766*
X87353Y81892*
X87382Y82041*
Y82807*
X87452Y82853*
X87592Y83063*
X87641Y83311*
X87592Y83559*
X87452Y83769*
X87242Y83909*
X87222Y83913*
X87197Y84038*
X87325Y84123*
X87465Y84333*
X87514Y84581*
X87477Y84770*
X87567Y84860*
X87756Y84823*
X88004Y84872*
X88214Y85012*
X88354Y85222*
X88403Y85470*
X88354Y85718*
X88214Y85928*
X88004Y86068*
X87756Y86117*
G37*
G36*
X53339Y84695D02*
Y84200D01*
X53834*
X53810Y84321*
X53670Y84531*
X53460Y84671*
X53339Y84695*
G37*
G36*
X53085Y83946D02*
X52590D01*
X52614Y83825*
X52754Y83615*
X52964Y83475*
X53085Y83451*
Y83946*
G37*
G36*
X125348Y83044D02*
Y82549D01*
X125843*
X125819Y82670*
X125679Y82880*
X125469Y83020*
X125348Y83044*
G37*
G36*
X60959Y84581D02*
X60078D01*
X60096Y84443*
X60199Y84196*
X60361Y83983*
X60574Y83821*
X60821Y83718*
X60959Y83700*
Y84581*
G37*
G36*
X53834Y83946D02*
X53339D01*
Y83451*
X53460Y83475*
X53670Y83615*
X53810Y83825*
X53834Y83946*
G37*
G36*
X60959Y85716D02*
X60821Y85698D01*
X60574Y85595*
X60361Y85433*
X60199Y85220*
X60096Y84973*
X60078Y84835*
X60959*
Y85716*
G37*
G36*
X85851Y86994D02*
X85356D01*
X85380Y86873*
X85520Y86663*
X85730Y86523*
X85851Y86499*
Y86994*
G37*
G36*
X43814Y86854D02*
Y86359D01*
X44309*
X44285Y86480*
X44145Y86690*
X43935Y86830*
X43814Y86854*
G37*
G36*
X85851Y87743D02*
X85730Y87719D01*
X85520Y87579*
X85380Y87369*
X85356Y87248*
X85851*
Y87743*
G37*
G36*
X86600Y86994D02*
X86105D01*
Y86499*
X86226Y86523*
X86436Y86663*
X86576Y86873*
X86600Y86994*
G37*
G36*
X43560Y86105D02*
X43065D01*
X43089Y85984*
X43229Y85774*
X43439Y85634*
X43560Y85610*
Y86105*
G37*
G36*
X61213Y85716D02*
Y84835D01*
X62094*
X62076Y84973*
X61973Y85220*
X61811Y85433*
X61598Y85595*
X61351Y85698*
X61213Y85716*
G37*
G36*
X44309Y86105D02*
X43814D01*
Y85610*
X43935Y85634*
X44145Y85774*
X44285Y85984*
X44309Y86105*
G37*
G36*
X43560Y86854D02*
X43439Y86830D01*
X43229Y86690*
X43089Y86480*
X43065Y86359*
X43560*
Y86854*
G37*
%LNlp_led_cube_8x8x8-3*%
%LPD*%
G36*
X143885Y82100D02*
X143855Y82076D01*
X143732Y81917*
X143656Y81732*
X143629Y81533*
X143656Y81334*
X143732Y81149*
X143855Y80990*
X143885Y80966*
X143844Y80846*
X141683*
X141646Y80967*
X141808Y81075*
X141948Y81285*
X141972Y81406*
X140728*
X140752Y81285*
X140892Y81075*
X141054Y80967*
X141017Y80846*
X138035*
X137284Y81597*
X137266Y81732*
X137190Y81917*
X137067Y82076*
X137037Y82100*
X137078Y82220*
X141017*
X141054Y82099*
X140892Y81991*
X140752Y81781*
X140728Y81660*
X141972*
X141948Y81781*
X141808Y81991*
X141646Y82099*
X141683Y82220*
X143844*
X143885Y82100*
G37*
G54D10*
X72962Y57784D03*
X71562D03*
X72962Y59308D03*
X71562D03*
X67752D03*
X69152D03*
X67752Y57784D03*
X69152D03*
X51626Y93852D03*
X50226D03*
X81471D03*
X80071D03*
X139761D03*
X141161D03*
X109916D03*
X111316D03*
X75248Y61594D03*
X73848D03*
X77404D03*
X78804D03*
X66485Y62102D03*
X65085D03*
X69657D03*
X71057D03*
X89091Y72770D03*
X87691D03*
G54D11*
X50037Y67752D03*
Y69152D03*
X45719Y54928D03*
Y53528D03*
X48259Y65088D03*
Y63688D03*
X44322Y54928D03*
Y53528D03*
X140207Y47178D03*
Y48578D03*
X129412Y47178D03*
Y48578D03*
X131952Y47178D03*
Y48578D03*
X78612Y47178D03*
Y48578D03*
X81152Y47178D03*
Y48578D03*
X55752Y47178D03*
Y48578D03*
X84327Y58354D03*
Y59754D03*
X43052Y49721D03*
Y48321D03*
X46862Y49721D03*
Y48321D03*
X40004Y65088D03*
Y63688D03*
G54D29*
X41020Y61594D02*
X51053D01*
X40512Y62102D02*
X41020Y61594D01*
X51053D02*
X51561Y62102D01*
X48132Y55752D02*
Y57022D01*
X47308Y54928D02*
X48132Y55752D01*
X45592Y54928D02*
X47308D01*
X44322D02*
Y59562D01*
Y58292D02*
X46862D01*
X48132Y57022*
X51180Y71754D02*
X52450Y70484D01*
Y56768D02*
Y70484D01*
X52958Y56514D02*
Y71754D01*
X46735Y51053D02*
X52450Y56768D01*
X46862Y50418D02*
X52958Y56514D01*
X46862Y49721D02*
Y50418D01*
X43052Y49848D02*
Y50418D01*
X43687Y51053*
X46735*
X107892Y75240D02*
X109994Y77342D01*
X112210*
X107892Y72192D02*
Y75240D01*
X106241Y70541D02*
X107892Y72192D01*
X106679Y72643D02*
Y74929D01*
X70357Y57784D02*
X71562D01*
X70357Y59308D02*
X71562D01*
X69152D02*
X70357D01*
X69152Y57784D02*
X70357D01*
X66674Y59308D02*
X67752D01*
X64642Y57276D02*
X66674Y59308D01*
X66928Y57784D02*
X67752D01*
X65912Y56768D02*
X66928Y57784D01*
X65912Y54673D02*
Y56768D01*
X64642Y53910D02*
Y57276D01*
Y53910D02*
X65912Y52640D01*
X69671Y62116D02*
Y64408D01*
X66471Y62116D02*
Y64408D01*
X77404Y61594D02*
Y63434D01*
X75248Y61594D02*
Y63434D01*
X146633Y110718D02*
Y110743D01*
X139013Y108203D02*
X139039Y108178D01*
X131393Y110743D02*
X131419D01*
X116788Y110718D02*
Y110743D01*
X109168Y108203D02*
X109194Y108178D01*
X101548Y110743D02*
X101574D01*
X86943Y110718D02*
Y110743D01*
X79323Y108203D02*
X79349Y108178D01*
X71703Y110743D02*
X71729D01*
X57098Y110718D02*
Y110743D01*
X49478Y108203D02*
X49504Y108178D01*
X41858Y110743D02*
X41884D01*
X131952Y48578D02*
Y49739D01*
X129412Y48578D02*
Y51434D01*
X127717Y53974D02*
X131952Y49739D01*
X127507Y53339D02*
X129412Y51434D01*
X80517Y51753D02*
Y60705D01*
X81152Y48578D02*
Y60070D01*
X81787Y60705*
X78612Y49848D02*
X80517Y51753D01*
X78612Y48578D02*
Y49848D01*
X55752Y48578D02*
X57973D01*
X115188Y57403D02*
Y61213D01*
Y57403D02*
X119252Y53339D01*
X127507*
X116458Y56895D02*
Y61213D01*
Y56895D02*
X119379Y53974D01*
X127717*
X43052Y66166D02*
X44195Y67309D01*
X41782Y66166D02*
X42925Y67309D01*
X41782Y62483D02*
Y66166D01*
X43052Y62483D02*
Y66166D01*
X42673Y68452D02*
X44322D01*
X41782Y69214D02*
X44322D01*
X40069Y69403D02*
X40769Y70103D01*
X40069Y65088D02*
Y69403D01*
X40769Y70103D02*
X44195D01*
X44957Y69341*
X47878*
X44322Y68452D02*
X45592Y67182D01*
X44322Y69214D02*
X46862Y66674D01*
X45592Y62483D02*
Y67182D01*
X46862Y62483D02*
Y66674D01*
X50037Y69152D02*
Y70357D01*
X49402Y70992D02*
X50037Y70357D01*
X48259Y65088D02*
Y66547D01*
X53847Y73659D02*
X57149Y70357D01*
X49529Y80644D02*
X51053Y79120D01*
Y76326D02*
Y79120D01*
X38353Y76199D02*
X45211D01*
X44231Y77560D02*
X45084Y78413D01*
Y82549*
X46227Y77088D02*
Y80009D01*
X48005Y81787*
X45084Y82549D02*
X45719Y83184D01*
X43687Y84454D02*
X50418D01*
X44703Y83692D02*
X50462D01*
X45719Y83184D02*
X50251D01*
X46100Y82295D02*
X50422D01*
X50418Y84454D02*
X53847Y81025D01*
X50462Y83692D02*
X53637Y80517D01*
X50251Y83184D02*
X53426Y80009D01*
X50422Y82295D02*
X53216Y79501D01*
X50211Y81787D02*
X53005Y78993D01*
X48005Y81787D02*
X50211D01*
X53847Y81025D02*
X58292D01*
X53637Y80517D02*
X58038D01*
X53426Y80009D02*
X57784D01*
X53216Y79501D02*
X57530D01*
X53005Y78993D02*
X57276D01*
X55117Y77088D02*
X56895D01*
X56387Y76199D02*
X57022Y75564D01*
X86867*
X55749Y75060D02*
X87118D01*
X53212Y77596D02*
X54101Y78485D01*
X53720Y77386D02*
X54311Y77977D01*
X56768*
X54101Y78485D02*
X57022D01*
X56895Y77088D02*
X57911Y76072D01*
X57530Y79501D02*
X58927Y78104D01*
X57784Y80009D02*
X59181Y78612D01*
X58038Y80517D02*
X59435Y79120D01*
X58292Y81025D02*
X59689Y79628D01*
X57022Y78485D02*
X58419Y77088D01*
X57276Y78993D02*
X58673Y77596D01*
X57911Y76072D02*
X86657D01*
X58419Y77088D02*
X84962D01*
X56768Y77977D02*
X58165Y76580D01*
X58673Y77596D02*
X84073D01*
X58927Y78104D02*
X83819D01*
X59181Y78612D02*
X83565D01*
X59435Y79120D02*
X83311D01*
X59689Y79628D02*
X83057D01*
X57149Y70357D02*
X66547D01*
X72389D01*
X73279Y71247*
X76453*
X69560Y64479D02*
X75324Y70244D01*
X74675Y73151D02*
X76961D01*
X73786Y74040D02*
X74675Y73151D01*
X76961D02*
X80009Y70103D01*
X81152Y66674D02*
Y69678D01*
X74929Y74040D02*
X76790D01*
X81152Y69678*
X80009Y66674D02*
Y70103D01*
X73913Y81660D02*
X77977D01*
X73151Y82422D02*
X73913Y81660D01*
X90931Y80346D02*
Y83438D01*
X86105Y83819D02*
X86867Y84581D01*
X85597D02*
X86486Y85470D01*
X87756*
X86994Y82041D02*
Y83311D01*
X85597Y82168D02*
Y84581D01*
X87122Y75057D02*
X88645Y76580D01*
X86867Y75564D02*
X88645Y77342D01*
Y76580D02*
X91058D01*
X88645Y77342D02*
X90169D01*
X86657Y76072D02*
X90931Y80346D01*
X84962Y77088D02*
X85978Y78104D01*
X84073Y77596D02*
X85470Y78993D01*
X83819Y78104D02*
X85343Y79628D01*
X83565Y78612D02*
X86994Y82041D01*
X83311Y79120D02*
X86105Y81914D01*
X83057Y79628D02*
X85597Y82168D01*
X88518Y79628D02*
X89534Y80644D01*
Y84073*
X85470Y78993D02*
X87756D01*
X85343Y79628D02*
X88518D01*
X87756Y78993D02*
X88010Y78739D01*
X58165Y76580D02*
X85978D01*
X86486Y77088*
X86105Y81914D02*
Y83819D01*
Y72770D02*
X87691D01*
X90169Y74802D02*
X97198D01*
X89280Y75691D02*
X97027D01*
X116458Y61213D02*
Y63006D01*
X66547Y80644D02*
X68325Y82422D01*
X69722*
X70865Y84962D02*
X73024D01*
X69722Y83819D02*
X70865Y84962D01*
X69722Y82422D02*
Y83819D01*
X41185Y73278D02*
Y74332D01*
X41655Y74802*
X43687*
X66457Y64834D02*
X67662Y66039D01*
X69821*
X74026Y70244*
X74548Y64134D02*
Y66293D01*
X78104Y64134D02*
Y66293D01*
X84327Y59754D02*
Y61848D01*
X54097Y96803D02*
X57052D01*
X54097Y96153D02*
X57007D01*
X57149Y96011*
X57052Y96803D02*
X57149Y96900D01*
X53212Y75945D02*
Y77596D01*
X53720Y75735D02*
Y77386D01*
X83942Y96803D02*
X86897D01*
X86994Y96900*
X83942Y96153D02*
X86852D01*
X86994Y96011*
X67309Y95249D02*
Y96900D01*
X144271Y91058D02*
X144373Y90956D01*
X154152Y91693D02*
X154177Y91718D01*
X156717Y86613D02*
Y86638D01*
X144398Y81533D02*
X144423Y81558D01*
X128523Y90804D02*
Y91058D01*
X122681Y86105D02*
X129412D01*
X121919Y86867D02*
X122681Y86105D01*
X142874Y78993D02*
X145287Y76580D01*
X137413D02*
Y76961D01*
X135889Y78485D02*
X137413Y76961D01*
X128142Y77850D02*
X129412Y76580D01*
X97198Y74802D02*
X105199Y66801D01*
X112663*
X116458Y63006*
X97027Y75691D02*
X105409Y67309D01*
X113552*
X115188Y65673*
X96138Y86867D02*
X121919D01*
X97408Y86232D02*
X121411D01*
X121538Y86105*
X136880Y85724D02*
X137286Y86130D01*
X98678Y85597D02*
X120522D01*
X130301Y85724D02*
X136880D01*
X129920Y85343D02*
X130301Y85724D01*
X120522Y85597D02*
X120776Y85343D01*
X129920*
X120141Y84835D02*
X143890D01*
X145160Y86105*
X99948Y84962D02*
X120014D01*
X120141Y84835*
X120776Y77342D02*
X121538Y76580D01*
X102488Y83692D02*
X112775D01*
X117982Y78485*
X135889*
X118192Y78993D02*
X142874D01*
X112858Y84327D02*
X118192Y78993D01*
X101218Y84327D02*
X112858D01*
X103758Y83057D02*
X112648D01*
X117855Y77850*
X128142*
X105028Y82422D02*
X112521D01*
X117601Y77342*
X120776*
X116697Y96153D02*
X116839Y96011D01*
X113787Y96153D02*
X116697D01*
X116742Y96803D02*
X116839Y96900D01*
X113787Y96803D02*
X116742D01*
X146542Y96153D02*
X146684Y96011D01*
X143632Y96153D02*
X146542D01*
X146587Y96803D02*
X146684Y96900D01*
X143632Y96803D02*
X146587D01*
X45211Y76199D02*
X46481Y74929D01*
X52196*
X53212Y75945*
X45211Y74802D02*
X45592Y74421D01*
X52406*
X53720Y75735*
X86772Y89280D02*
X86899Y89153D01*
X52577Y97453D02*
X54097D01*
X52577Y95503D02*
Y97453D01*
Y95503D02*
X54097D01*
X82426D02*
X83946D01*
X82426D02*
Y97453D01*
X83946*
X112267Y95503D02*
X113787D01*
X112267D02*
Y97453D01*
X113787*
X142112Y95503D02*
X143632D01*
X142112D02*
Y97453D01*
X143632*
G54D30*
X140967Y102003D02*
X143607D01*
X137007D02*
X139651D01*
X139077Y102653D02*
X139674Y103250D01*
X137007Y102653D02*
X139077D01*
X140944Y103250D02*
X141541Y102653D01*
X143607*
X149173Y101828D02*
Y108203D01*
X146099Y98753D02*
X149173Y101828D01*
X143607Y98753D02*
X146099D01*
X143607Y99403D02*
X145733D01*
X147929Y101599*
Y109498*
X149173Y110743*
X146633Y101320D02*
Y108203D01*
X145367Y100053D02*
X146633Y101320D01*
X143607Y100053D02*
X145367D01*
X134519Y98753D02*
X137007D01*
X131393Y101878D02*
X134519Y98753D01*
X131393Y101878D02*
Y108203D01*
X145389Y101091D02*
Y109473D01*
X145001Y100703D02*
X145389Y101091D01*
X143607Y100703D02*
X145001D01*
X145389Y109473D02*
X146633Y110718D01*
X142823Y104736D02*
X143607Y103953D01*
X142823Y104736D02*
Y109473D01*
X141553Y110743D02*
X142823Y109473D01*
X142288Y103303D02*
X143607D01*
X141553Y104037D02*
X142288Y103303D01*
X141553Y104037D02*
Y108203D01*
X137769Y104715D02*
Y109498D01*
X137007Y103953D02*
X137769Y104715D01*
Y109498D02*
X139013Y110743D01*
X139039Y104012D02*
Y108178D01*
X138330Y103303D02*
X139039Y104012D01*
X137007Y103303D02*
X138330D01*
X133933Y110743D02*
X135229Y109448D01*
Y101091D02*
Y109448D01*
Y101091D02*
X135617Y100703D01*
X137007*
X131419Y110743D02*
X132689Y109473D01*
Y101599D02*
Y109473D01*
Y101599D02*
X134885Y99403D01*
X137007*
X133933Y101370D02*
Y108203D01*
Y101370D02*
X135251Y100053D01*
X137007*
X140944Y95503D02*
X143607D01*
X138994Y97453D02*
X140944Y95503D01*
X137007Y94741D02*
Y95503D01*
Y94741D02*
X137896Y93852D01*
X139736*
X111122Y102003D02*
X113762D01*
X107162D02*
X109806D01*
X109232Y102653D02*
X109829Y103250D01*
X107162Y102653D02*
X109232D01*
X111099Y103250D02*
X111696Y102653D01*
X113762*
X119328Y101828D02*
Y108203D01*
X116254Y98753D02*
X119328Y101828D01*
X113762Y98753D02*
X116254D01*
X113762Y99403D02*
X115888D01*
X118084Y101599*
Y109498*
X119328Y110743*
X116788Y101320D02*
Y108203D01*
X115522Y100053D02*
X116788Y101320D01*
X113762Y100053D02*
X115522D01*
X104674Y98753D02*
X107162D01*
X101548Y101878D02*
X104674Y98753D01*
X101548Y101878D02*
Y108203D01*
X115544Y101091D02*
Y109473D01*
X115156Y100703D02*
X115544Y101091D01*
X113762Y100703D02*
X115156D01*
X115544Y109473D02*
X116788Y110718D01*
X112978Y104736D02*
X113762Y103953D01*
X112978Y104736D02*
Y109473D01*
X111708Y110743D02*
X112978Y109473D01*
X112443Y103303D02*
X113762D01*
X111708Y104037D02*
X112443Y103303D01*
X111708Y104037D02*
Y108203D01*
X107924Y104715D02*
Y109498D01*
X107162Y103953D02*
X107924Y104715D01*
Y109498D02*
X109168Y110743D01*
X109194Y104012D02*
Y108178D01*
X108485Y103303D02*
X109194Y104012D01*
X107162Y103303D02*
X108485D01*
X104088Y110743D02*
X105384Y109448D01*
Y101091D02*
Y109448D01*
Y101091D02*
X105772Y100703D01*
X107162*
X101574Y110743D02*
X102844Y109473D01*
Y101599D02*
Y109473D01*
Y101599D02*
X105040Y99403D01*
X107162*
X104088Y101370D02*
Y108203D01*
Y101370D02*
X105406Y100053D01*
X107162*
X111099Y95503D02*
X113762D01*
X109149Y97453D02*
X111099Y95503D01*
X107162Y97453D02*
X109149D01*
X107162Y94741D02*
Y95503D01*
Y94741D02*
X108051Y93852D01*
X109891*
X81277Y102003D02*
X83917D01*
X77317D02*
X79961D01*
X79387Y102653D02*
X79984Y103250D01*
X77317Y102653D02*
X79387D01*
X81254Y103250D02*
X81851Y102653D01*
X83917*
X89483Y101828D02*
Y108203D01*
X86409Y98753D02*
X89483Y101828D01*
X83917Y98753D02*
X86409D01*
X83917Y99403D02*
X86043D01*
X88239Y101599*
Y109498*
X89483Y110743*
X86943Y101320D02*
Y108203D01*
X85677Y100053D02*
X86943Y101320D01*
X83917Y100053D02*
X85677D01*
X74829Y98753D02*
X77317D01*
X71703Y101878D02*
X74829Y98753D01*
X71703Y101878D02*
Y108203D01*
X85699Y101091D02*
Y109473D01*
X85311Y100703D02*
X85699Y101091D01*
X83917Y100703D02*
X85311D01*
X85699Y109473D02*
X86943Y110718D01*
X83133Y104736D02*
X83917Y103953D01*
X83133Y104736D02*
Y109473D01*
X81863Y110743D02*
X83133Y109473D01*
X82598Y103303D02*
X83917D01*
X81863Y104037D02*
X82598Y103303D01*
X81863Y104037D02*
Y108203D01*
X78079Y104715D02*
Y109498D01*
X77317Y103953D02*
X78079Y104715D01*
Y109498D02*
X79323Y110743D01*
X79349Y104012D02*
Y108178D01*
X78640Y103303D02*
X79349Y104012D01*
X77317Y103303D02*
X78640D01*
X74243Y110743D02*
X75539Y109448D01*
Y101091D02*
Y109448D01*
Y101091D02*
X75927Y100703D01*
X77317*
X71729Y110743D02*
X72999Y109473D01*
Y101599D02*
Y109473D01*
Y101599D02*
X75195Y99403D01*
X77317*
X74243Y101370D02*
Y108203D01*
Y101370D02*
X75561Y100053D01*
X77317*
Y94741D02*
Y95503D01*
Y94741D02*
X78206Y93852D01*
X80046*
X51432Y102003D02*
X54072D01*
X47472D02*
X50116D01*
X49542Y102653D02*
X50139Y103250D01*
X47472Y102653D02*
X49542D01*
X51409Y103250D02*
X52006Y102653D01*
X54072*
X59638Y101828D02*
Y108203D01*
X56564Y98753D02*
X59638Y101828D01*
X54072Y98753D02*
X56564D01*
X54072Y99403D02*
X56198D01*
X58394Y101599*
Y109498*
X59638Y110743*
X57098Y101320D02*
Y108203D01*
X55832Y100053D02*
X57098Y101320D01*
X54072Y100053D02*
X55832D01*
X44984Y98753D02*
X47472D01*
X41858Y101878D02*
X44984Y98753D01*
X41858Y101878D02*
Y108203D01*
X55854Y101091D02*
Y109473D01*
X55466Y100703D02*
X55854Y101091D01*
X54072Y100703D02*
X55466D01*
X55854Y109473D02*
X57098Y110718D01*
X53288Y104736D02*
X54072Y103953D01*
X53288Y104736D02*
Y109473D01*
X52018Y110743D02*
X53288Y109473D01*
X52753Y103303D02*
X54072D01*
X52018Y104037D02*
X52753Y103303D01*
X52018Y104037D02*
Y108203D01*
X48234Y104715D02*
Y109498D01*
X47472Y103953D02*
X48234Y104715D01*
Y109498D02*
X49478Y110743D01*
X49504Y104012D02*
Y108178D01*
X48795Y103303D02*
X49504Y104012D01*
X47472Y103303D02*
X48795D01*
X44398Y110743D02*
X45694Y109448D01*
Y101091D02*
Y109448D01*
Y101091D02*
X46082Y100703D01*
X47472*
X41884Y110743D02*
X43154Y109473D01*
Y101599D02*
Y109473D01*
Y101599D02*
X45350Y99403D01*
X47472*
X44398Y101370D02*
Y108203D01*
Y101370D02*
X45716Y100053D01*
X47472*
Y94741D02*
Y95503D01*
Y94741D02*
X48361Y93852D01*
X50201*
X79310Y98103D02*
X81910Y95503D01*
X83938*
X137032Y97453D02*
X138994D01*
X137032D02*
Y98103D01*
X140207Y45084D02*
Y47178D01*
X134492Y45084D02*
Y46354D01*
X133668Y47178D02*
X134492Y46354D01*
X131952Y47178D02*
X133668D01*
X129412Y45084D02*
Y47178D01*
X76896D02*
X78612D01*
X76072Y46354D02*
X76896Y47178D01*
X76072Y45084D02*
Y46354D01*
X81152Y45084D02*
Y47178D01*
X90677Y47687D02*
X92772Y45592D01*
X90677Y53165D02*
Y47687D01*
X88725Y55117D02*
X90677Y53165D01*
X55752Y45084D02*
Y47178D01*
X47051Y48259D02*
X50037D01*
X51688Y46608*
X40766D02*
X42290D01*
X43052Y47370*
Y48321*
X76199Y82549D02*
X77596Y83946D01*
Y84073D02*
Y89280D01*
X54097Y93983D02*
Y95503D01*
X112013Y80898D02*
X114045Y78866D01*
X86899Y89153D02*
X91312D01*
X99567Y80898*
X112013*
X113787Y95503D02*
X115823D01*
X133267Y97453D02*
X137032D01*
X115823Y95503D02*
X117093Y94233D01*
X130047*
X133267Y97453*
X83942Y95503D02*
X85978D01*
X86899Y94582*
Y89153D02*
Y94582D01*
X77342Y98103D02*
X79310D01*
X54101Y93979D02*
X57911D01*
X62035Y98103*
X77342*
X77596Y89280D02*
X86772D01*
G54D31*
X144931Y91718D02*
X154177D01*
X144271Y91058D02*
X144931Y91718D01*
X155422Y90448D02*
X156717Y91718D01*
X146303Y90448D02*
X155422D01*
Y87908D02*
X156717Y89178D01*
X120649Y91058D02*
X124586Y87121D01*
X136397Y91083D02*
X137819Y89661D01*
X145516*
X146303Y90448*
X128523Y90804D02*
X130936Y88391D01*
X155422Y85368D02*
X156717Y86638D01*
X120649Y81533D02*
X123189Y84073D01*
X128523Y81533D02*
X129793Y82803D01*
X144398Y81533D02*
X151612D01*
X154177Y84098*
X129793Y82803D02*
X149732D01*
X152297Y85368*
X155422*
X123189Y84073D02*
X148081D01*
X150646Y86638*
X154177*
X124586Y87121D02*
X148716D01*
X149503Y87908*
X155422*
X130936Y88391D02*
X147192D01*
X147979Y89178*
X154177*
X152882Y80263D02*
X156717Y84098D01*
X136524Y81533D02*
X137794Y80263D01*
X152882*
G54D32*
X114045Y73405D02*
Y78866D01*
Y73405D02*
X119252Y68198D01*
G54D55*
X65404Y101472D03*
X62356Y92963D03*
X70357Y91947D03*
X61086Y84708D03*
X94868Y100710D03*
X140334Y99948D03*
X127126Y100964D03*
X135127Y68198D03*
X110489Y99313D03*
X80644Y99948D03*
X50799Y99313D03*
G54D57*
X125475Y91312D03*
X133349D03*
X141223D03*
X133476Y81533D03*
X125221Y82422D03*
X141350Y81533D03*
G54D59*
X40512Y62102D03*
X51561D03*
X41782Y62483D03*
X43052D03*
X45592D03*
X46862D03*
X44195Y67309D03*
X42925D03*
X42673Y68452D03*
X41782Y69214D03*
X40069Y69403D03*
X47878Y69341D03*
X51180Y71754D03*
X52958D03*
X49402Y70992D03*
X43052Y73024D03*
X43687Y74802D03*
X45592Y72897D03*
X48259Y66547D03*
X53847Y73659D03*
X55752Y75057D03*
X51053Y76326D03*
X49529Y80644D03*
X45211Y74802D03*
X44231Y77560D03*
X38353Y76199D03*
X46227Y77088D03*
X43687Y84454D03*
X44703Y83692D03*
X46100Y82295D03*
X56387Y76199D03*
X55117Y77088D03*
X57149Y96011D03*
Y96900D03*
X86994D03*
Y96011D03*
X68198D03*
X67309Y95249D03*
Y96900D03*
X121538Y86105D03*
Y76580D03*
X129412D03*
Y86105D03*
X137286Y86130D03*
X137413Y76580D03*
X145287D03*
X145160Y86105D03*
X96138Y86867D03*
X97408Y86232D03*
X98678Y85597D03*
X99948Y84962D03*
X101218Y84327D03*
X102488Y83692D03*
X103758Y83057D03*
X105028Y82422D03*
X116839Y96011D03*
Y96900D03*
X146684Y96011D03*
Y96900D03*
G54D60*
X106679Y72643D03*
X112210Y77342D03*
X106241Y70541D03*
X106679Y74929D03*
X70357Y59308D03*
Y57784D03*
X140944Y101980D03*
X139674D03*
X140944Y103250D03*
X139674D03*
X111099Y101980D03*
X109829D03*
X111099Y103250D03*
X109829D03*
X81254Y101980D03*
X79984D03*
X81254Y103250D03*
X79984D03*
X51409Y101980D03*
X50139D03*
X51409Y103250D03*
X50139D03*
X115188Y61213D03*
X116458D03*
X80517Y60705D03*
X81787D03*
X88725Y55117D03*
X58038Y48513D03*
X43687Y86232D03*
X53212Y84073D03*
X66547Y70357D03*
X76453Y71247D03*
X75310Y70230D03*
X74040D03*
X79628Y73301D03*
X81152Y66674D03*
X80009D03*
X73786Y74040D03*
X74929D03*
X73151Y82422D03*
X73024Y84962D03*
X76199Y82549D03*
X77977Y81660D03*
X85978Y87121D03*
X89915Y84454D03*
X86994Y83311D03*
X86867Y84581D03*
X87756Y85470D03*
X90931Y83438D03*
X91058Y76580D03*
X90169Y77342D03*
X86486Y77088D03*
X85978Y78104D03*
X88010Y78739D03*
X93979Y78485D03*
X86105Y72770D03*
X94233Y70357D03*
X89280Y75691D03*
X90169Y74802D03*
X115188Y65673D03*
X103377Y77723D03*
X66547Y80644D03*
X69722Y82422D03*
X74548Y66293D03*
X78104D03*
X84327Y61848D03*
X125221Y82422D03*
X125475Y91312D03*
X133349D03*
X141223D03*
X133476Y81533D03*
X141350D03*
X88264Y68071D03*
G54D61*
X32892Y46354D03*
Y111378D03*
X157987D03*
Y46354D03*
G54D62*
X41884Y108203D03*
X101574D03*
X131419D03*
X71729D03*
X121792Y68198D03*
G54D63*
X41884Y110743D03*
X44424Y108203D03*
Y110743D03*
X46964Y108203D03*
Y110743D03*
X49504Y108203D03*
Y110743D03*
X52044Y108203D03*
Y110743D03*
X54584Y108203D03*
Y110743D03*
X57124Y108203D03*
Y110743D03*
X59664Y108203D03*
Y110743D03*
X101574D03*
X104114Y108203D03*
Y110743D03*
X106654Y108203D03*
Y110743D03*
X109194Y108203D03*
Y110743D03*
X111734Y108203D03*
Y110743D03*
X114274Y108203D03*
Y110743D03*
X116814Y108203D03*
Y110743D03*
X119354Y108203D03*
Y110743D03*
X131419D03*
X133959Y108203D03*
Y110743D03*
X136499Y108203D03*
Y110743D03*
X139039Y108203D03*
Y110743D03*
X141579Y108203D03*
Y110743D03*
X144119Y108203D03*
Y110743D03*
X146659Y108203D03*
Y110743D03*
X149199Y108203D03*
Y110743D03*
X71729D03*
X74269Y108203D03*
Y110743D03*
X76809Y108203D03*
Y110743D03*
X79349Y108203D03*
Y110743D03*
X81889Y108203D03*
Y110743D03*
X84429Y108203D03*
Y110743D03*
X86969Y108203D03*
Y110743D03*
X89509Y108203D03*
Y110743D03*
X156717Y91718D03*
X154177Y89178D03*
X156717D03*
X154177Y86638D03*
X156717D03*
X154177Y84098D03*
X156717D03*
X158622Y56768D03*
X119252Y68198D03*
G54D64*
X88200Y45592D03*
X92772D03*
X49148Y46608D03*
X51688D03*
X40766D03*
X38226D03*
X68452Y52640D03*
X65912D03*
Y54673D03*
X128269Y58673D03*
X125475D03*
X139064Y56768D03*
X136270D03*
X103377Y53593D03*
X80644Y99948D03*
X50799Y99313D03*
X110489D03*
X140334Y99948D03*
X144017Y70738D03*
X135127Y68198D03*
X62356Y92963D03*
X70357Y91947D03*
X61086Y84708D03*
X94868Y100710D03*
X65404Y101472D03*
X127126Y100964D03*
G54D65*
X86931Y48132D03*
X93915D03*
X147446Y65658D03*
G54D66*
X39242Y59562D03*
X40512Y57022D03*
X41782Y59562D03*
X43052Y57022D03*
X44322Y59562D03*
X46862D03*
X49402D03*
X45592Y57022D03*
X48132D03*
X50672D03*
X86899Y89153D03*
G54D67*
X53212Y53720D03*
X36702D03*
G54D68*
X68452Y54673D03*
G54D69*
X73532Y49973D03*
X60832D03*
G54D70*
X58292Y45084D03*
X55752D03*
X83692D03*
X81152D03*
X78612D03*
X76072D03*
X131952D03*
X129412D03*
X137032D03*
X134492D03*
X142747D03*
X140207D03*
G54D71*
X106092Y50543D03*
X107477Y47703D03*
X108862Y50543D03*
X110247Y47703D03*
X111632Y50543D03*
X113017Y47703D03*
X114402Y50543D03*
X115787Y47703D03*
G54D72*
X117172Y50543D03*
G54D73*
X124127Y49123D03*
X99137D03*
G54D74*
X149668Y47306D03*
X154114Y50354D03*
X149668Y53529D03*
G54D75*
X62623Y72770D03*
X70123D03*
G54D76*
X154177Y91718D03*
X158622Y54228D03*
G54D77*
X103377Y64642D03*
X77596Y89280D03*
X86899Y89153D03*
X54101Y93979D03*
X144271Y91058D03*
X120649Y81533D03*
X136397Y91083D03*
X128523Y81533D03*
Y91058D03*
X120649D03*
X136524Y81533D03*
X144398D03*
X114045Y78866D03*
X117093Y94233D03*
G54D78*
X47497Y95503D03*
Y96153D03*
Y96803D03*
Y97453D03*
Y98753D03*
Y99403D03*
Y100053D03*
Y98103D03*
X54097Y97453D03*
Y96803D03*
Y96153D03*
Y95503D03*
Y100053D03*
Y99403D03*
Y98753D03*
Y98103D03*
X47497Y101353D03*
Y102003D03*
Y102653D03*
Y103303D03*
Y103953D03*
X54097D03*
Y103303D03*
Y102653D03*
Y102003D03*
Y101353D03*
X47497Y100703D03*
X54097D03*
X137032Y95503D03*
Y96153D03*
Y96803D03*
Y97453D03*
Y98753D03*
Y99403D03*
Y100053D03*
Y98103D03*
X143632Y97453D03*
Y96803D03*
Y96153D03*
Y95503D03*
Y100053D03*
Y99403D03*
Y98753D03*
Y98103D03*
X137032Y101353D03*
Y102003D03*
Y102653D03*
Y103303D03*
Y103953D03*
X143632D03*
Y103303D03*
Y102653D03*
Y102003D03*
Y101353D03*
X137032Y100703D03*
X143632D03*
X107187Y95503D03*
Y96153D03*
Y96803D03*
Y97453D03*
Y98753D03*
Y99403D03*
Y100053D03*
Y98103D03*
X113787Y97453D03*
Y96803D03*
Y96153D03*
Y95503D03*
Y100053D03*
Y99403D03*
Y98753D03*
Y98103D03*
X107187Y101353D03*
Y102003D03*
Y102653D03*
Y103303D03*
Y103953D03*
X113787D03*
Y103303D03*
Y102653D03*
Y102003D03*
Y101353D03*
X107187Y100703D03*
X113787D03*
X77342Y95503D03*
Y96153D03*
Y96803D03*
Y97453D03*
Y98753D03*
Y99403D03*
Y100053D03*
Y98103D03*
X83942Y97453D03*
Y96803D03*
Y96153D03*
Y95503D03*
Y100053D03*
Y99403D03*
Y98753D03*
Y98103D03*
X77342Y101353D03*
Y102003D03*
Y102653D03*
Y103303D03*
Y103953D03*
X83942D03*
Y103303D03*
Y102653D03*
Y102003D03*
Y101353D03*
X77342Y100703D03*
X83942D03*
G54D79*
X74548Y64134D03*
X78104D03*
G54D80*
X69671Y64408D03*
X66471D03*
G54D81*
X41185Y73278D03*
X39585D03*
G54D82*
X154748Y54038D03*
G54D83*
X62673Y72706D03*
G54D84*
X147446Y65658D03*
G54D85*
X144017Y70674D03*
M02*