%FSAX43Y43*%
%MOMM*%
G71*
G01*
G75*
G04 Layer_Color=8421504*
%ADD10R,0.800X0.900*%
%ADD11R,0.900X0.800*%
%ADD12R,0.300X1.200*%
%ADD13R,1.200X0.300*%
%ADD14O,0.300X1.800*%
%ADD15O,1.800X0.300*%
%ADD16R,0.508X1.500*%
%ADD17R,2.200X2.200*%
%ADD18R,2.300X2.300*%
%ADD19R,1.200X1.400*%
%ADD20R,3.048X3.683*%
%ADD21R,2.540X1.016*%
%ADD22O,0.600X2.200*%
%ADD23R,2.032X0.635*%
%ADD24R,0.350X0.800*%
%ADD25R,2.300X2.300*%
%ADD26R,2.200X0.450*%
%ADD27R,2.400X3.100*%
%ADD28R,1.300X1.000*%
%ADD29C,0.254*%
%ADD30C,0.381*%
%ADD31C,0.635*%
%ADD32C,0.508*%
%ADD33C,0.330*%
%ADD34C,0.762*%
%ADD35R,9.779X2.159*%
%ADD36R,3.048X6.858*%
%ADD37R,0.762X0.635*%
%ADD38R,1.778X2.794*%
%ADD39R,1.397X1.778*%
%ADD40R,1.016X2.286*%
%ADD41R,1.778X2.819*%
%ADD42R,32.258X2.032*%
%ADD43R,0.889X2.286*%
%ADD44R,2.540X8.636*%
%ADD45R,7.620X4.191*%
%ADD46R,3.048X10.414*%
%ADD47R,6.350X3.048*%
%ADD48R,2.286X7.112*%
%ADD49R,3.302X3.048*%
%ADD50R,7.366X1.016*%
%ADD51R,3.429X4.445*%
%ADD52R,4.191X2.032*%
%ADD53R,2.159X11.049*%
%ADD54R,3.556X3.556*%
%ADD55R,2.286X2.286*%
%ADD56R,2.413X2.286*%
%ADD57R,1.270X1.270*%
%ADD58R,2.159X2.159*%
%ADD59C,0.508*%
%ADD60C,0.762*%
%ADD61C,4.000*%
%ADD62R,1.500X1.500*%
%ADD63C,1.500*%
%ADD64C,1.524*%
%ADD65C,1.778*%
%ADD66C,1.270*%
%ADD67C,2.032*%
%ADD68R,1.524X1.524*%
%ADD69C,3.556*%
%ADD70C,1.600*%
%ADD71C,1.690*%
%ADD72R,1.690X1.690*%
%ADD73C,4.760*%
%ADD74C,3.810*%
%ADD75C,3.000*%
%ADD76R,1.500X1.500*%
%ADD77C,1.016*%
%ADD78R,1.600X0.400*%
%ADD79R,2.794X2.540*%
%ADD80R,1.000X1.800*%
%ADD81R,1.000X1.300*%
%ADD82R,9.525X2.159*%
%ADD83R,3.683X3.937*%
%ADD84R,2.286X2.540*%
%ADD85R,2.286X2.159*%
%ADD86C,0.250*%
%ADD87C,0.127*%
%ADD88C,0.200*%
%ADD89C,0.600*%
%ADD90C,0.100*%
%ADD91C,0.152*%
%ADD92C,0.150*%
D10*
X0053532Y0067056D02*
D03*
X0052132D02*
D03*
X0052132Y0068453D02*
D03*
X0053532D02*
D03*
X0052132Y0069850D02*
D03*
X0053532D02*
D03*
X0068010Y0058547D02*
D03*
X0066610D02*
D03*
X0148906Y0061595D02*
D03*
X0150306D02*
D03*
X0152338Y0069469D02*
D03*
X0150938D02*
D03*
X0146747Y0070739D02*
D03*
X0148147D02*
D03*
X0137603Y0051054D02*
D03*
X0139003D02*
D03*
X0140143Y0061849D02*
D03*
X0141543D02*
D03*
X0123255Y0071501D02*
D03*
X0121855D02*
D03*
X0108139Y0055499D02*
D03*
X0109539D02*
D03*
X0111314D02*
D03*
X0112714D02*
D03*
X0090359Y0055118D02*
D03*
X0091759D02*
D03*
X0076138Y0090043D02*
D03*
X0074738D02*
D03*
X0076138Y0088519D02*
D03*
X0074738D02*
D03*
X0076138Y0083947D02*
D03*
X0074738D02*
D03*
X0076138Y0085344D02*
D03*
X0074738D02*
D03*
X0048068Y0082169D02*
D03*
X0049468D02*
D03*
X0055564Y0097155D02*
D03*
X0054164D02*
D03*
X0055564Y0095758D02*
D03*
X0054164D02*
D03*
D11*
X0037973Y0069404D02*
D03*
Y0070804D02*
D03*
X0043053Y0065089D02*
D03*
Y0063689D02*
D03*
X0041783Y0065089D02*
D03*
Y0063689D02*
D03*
X0039243Y0063689D02*
D03*
Y0065089D02*
D03*
X0037973Y0063689D02*
D03*
Y0065089D02*
D03*
X0046863Y0065089D02*
D03*
Y0063689D02*
D03*
X0045593Y0065089D02*
D03*
Y0063689D02*
D03*
X0048133Y0065089D02*
D03*
Y0063689D02*
D03*
X0041148Y0085917D02*
D03*
Y0084517D02*
D03*
X0114046Y0074741D02*
D03*
Y0073341D02*
D03*
Y0077535D02*
D03*
Y0076135D02*
D03*
X0154178Y0063311D02*
D03*
Y0061911D02*
D03*
X0105410Y0061660D02*
D03*
Y0060260D02*
D03*
X0118364Y0060260D02*
D03*
Y0061660D02*
D03*
X0105410Y0064581D02*
D03*
Y0063181D02*
D03*
X0103378Y0067629D02*
D03*
Y0066229D02*
D03*
X0084074Y0087314D02*
D03*
Y0085914D02*
D03*
X0076200Y0080964D02*
D03*
Y0079564D02*
D03*
X0089916Y0087692D02*
D03*
Y0089092D02*
D03*
X0091440Y0087692D02*
D03*
Y0089092D02*
D03*
X0073914Y0079564D02*
D03*
Y0080964D02*
D03*
X0050673Y0063689D02*
D03*
Y0065089D02*
D03*
X0049403Y0065089D02*
D03*
Y0063689D02*
D03*
X0055753Y0073217D02*
D03*
Y0071817D02*
D03*
X0142748Y0086295D02*
D03*
Y0087695D02*
D03*
X0147574Y0086295D02*
D03*
Y0087695D02*
D03*
X0142748Y0088962D02*
D03*
Y0090362D02*
D03*
X0147574Y0088962D02*
D03*
Y0090362D02*
D03*
X0119126Y0076770D02*
D03*
Y0078170D02*
D03*
Y0079437D02*
D03*
Y0080837D02*
D03*
X0123952Y0079437D02*
D03*
Y0080837D02*
D03*
Y0076770D02*
D03*
Y0078170D02*
D03*
X0134874Y0086320D02*
D03*
Y0087720D02*
D03*
X0139700Y0086320D02*
D03*
Y0087720D02*
D03*
X0134874Y0088987D02*
D03*
Y0090387D02*
D03*
X0139700Y0088987D02*
D03*
Y0090387D02*
D03*
X0127000Y0076770D02*
D03*
Y0078170D02*
D03*
X0131953Y0076770D02*
D03*
Y0078170D02*
D03*
X0127000Y0079437D02*
D03*
Y0080837D02*
D03*
X0131953Y0079437D02*
D03*
Y0080837D02*
D03*
X0131826Y0086295D02*
D03*
Y0087695D02*
D03*
X0127000Y0088962D02*
D03*
Y0090362D02*
D03*
X0131826Y0088962D02*
D03*
Y0090362D02*
D03*
X0127000Y0086295D02*
D03*
Y0087695D02*
D03*
X0119126Y0086295D02*
D03*
Y0087695D02*
D03*
X0123952Y0088962D02*
D03*
Y0090362D02*
D03*
X0119126Y0088962D02*
D03*
Y0090362D02*
D03*
X0123952Y0086295D02*
D03*
Y0087695D02*
D03*
X0135001Y0076770D02*
D03*
Y0078170D02*
D03*
X0139827Y0076770D02*
D03*
Y0078170D02*
D03*
X0135001Y0079437D02*
D03*
Y0080837D02*
D03*
X0139827Y0079437D02*
D03*
Y0080837D02*
D03*
X0142875Y0079437D02*
D03*
Y0080837D02*
D03*
Y0076770D02*
D03*
Y0078170D02*
D03*
X0147701Y0076770D02*
D03*
Y0078170D02*
D03*
Y0079437D02*
D03*
Y0080837D02*
D03*
X0097409Y0088454D02*
D03*
Y0089854D02*
D03*
X0096139Y0088454D02*
D03*
Y0089854D02*
D03*
X0098679Y0088454D02*
D03*
Y0089854D02*
D03*
X0099949Y0088454D02*
D03*
Y0089854D02*
D03*
X0105029Y0088454D02*
D03*
Y0089854D02*
D03*
X0102489Y0088454D02*
D03*
Y0089854D02*
D03*
X0101219Y0088454D02*
D03*
Y0089854D02*
D03*
X0103759Y0088454D02*
D03*
Y0089854D02*
D03*
D12*
X0042208Y0079611D02*
D03*
X0042708D02*
D03*
X0043208D02*
D03*
X0043708D02*
D03*
X0044208Y0079611D02*
D03*
X0044708D02*
D03*
X0045208D02*
D03*
X0045708D02*
D03*
X0046208D02*
D03*
X0046708D02*
D03*
X0047208D02*
D03*
X0047708D02*
D03*
X0047708Y0071011D02*
D03*
X0047208D02*
D03*
X0046708D02*
D03*
X0046208D02*
D03*
X0045708Y0071011D02*
D03*
X0045208D02*
D03*
X0044708D02*
D03*
X0044208D02*
D03*
X0043708D02*
D03*
X0043208D02*
D03*
X0042708D02*
D03*
X0042208D02*
D03*
D13*
X0049258Y0078061D02*
D03*
Y0077561D02*
D03*
Y0077061D02*
D03*
Y0076561D02*
D03*
Y0076061D02*
D03*
Y0075561D02*
D03*
Y0075061D02*
D03*
Y0074561D02*
D03*
Y0074061D02*
D03*
Y0073561D02*
D03*
Y0073061D02*
D03*
Y0072561D02*
D03*
X0040658D02*
D03*
Y0073061D02*
D03*
Y0073561D02*
D03*
Y0074061D02*
D03*
Y0074561D02*
D03*
Y0075061D02*
D03*
Y0075561D02*
D03*
Y0076061D02*
D03*
Y0076561D02*
D03*
Y0077061D02*
D03*
Y0077561D02*
D03*
Y0078061D02*
D03*
D14*
X0084043Y0080829D02*
D03*
X0084543D02*
D03*
X0085043D02*
D03*
X0085543D02*
D03*
X0086043D02*
D03*
X0086543D02*
D03*
X0087043D02*
D03*
X0087543D02*
D03*
X0088043D02*
D03*
X0088543D02*
D03*
X0089043D02*
D03*
X0089543D02*
D03*
X0090043D02*
D03*
X0090543D02*
D03*
X0091043D02*
D03*
X0091543D02*
D03*
X0092043D02*
D03*
X0092543D02*
D03*
X0093043D02*
D03*
X0093543D02*
D03*
X0094043D02*
D03*
X0094543D02*
D03*
X0095043D02*
D03*
X0095543D02*
D03*
X0096043D02*
D03*
Y0065729D02*
D03*
X0095543D02*
D03*
X0095043D02*
D03*
X0094543D02*
D03*
X0094043D02*
D03*
X0093543D02*
D03*
X0093043D02*
D03*
X0092543D02*
D03*
X0092043D02*
D03*
X0091543D02*
D03*
X0091043D02*
D03*
X0090543D02*
D03*
X0090043D02*
D03*
X0089543D02*
D03*
X0089043D02*
D03*
X0088543D02*
D03*
X0088043D02*
D03*
X0087543D02*
D03*
X0087043D02*
D03*
X0086543D02*
D03*
X0086043D02*
D03*
X0085543D02*
D03*
X0085043D02*
D03*
X0084543D02*
D03*
X0084043D02*
D03*
D15*
X0097593Y0079279D02*
D03*
Y0078779D02*
D03*
Y0078279D02*
D03*
Y0077779D02*
D03*
Y0077279D02*
D03*
Y0076779D02*
D03*
Y0076279D02*
D03*
Y0075779D02*
D03*
Y0075279D02*
D03*
Y0074779D02*
D03*
Y0074279D02*
D03*
Y0073779D02*
D03*
Y0073279D02*
D03*
Y0072779D02*
D03*
Y0072279D02*
D03*
Y0071779D02*
D03*
Y0071279D02*
D03*
Y0070779D02*
D03*
Y0070279D02*
D03*
Y0069779D02*
D03*
Y0069279D02*
D03*
Y0068779D02*
D03*
Y0068279D02*
D03*
Y0067779D02*
D03*
Y0067279D02*
D03*
X0082493D02*
D03*
Y0067779D02*
D03*
Y0068279D02*
D03*
Y0068779D02*
D03*
Y0069279D02*
D03*
Y0069779D02*
D03*
Y0070279D02*
D03*
Y0070779D02*
D03*
Y0071279D02*
D03*
Y0071779D02*
D03*
Y0072279D02*
D03*
Y0072779D02*
D03*
Y0073279D02*
D03*
Y0073779D02*
D03*
Y0074279D02*
D03*
Y0074779D02*
D03*
Y0075279D02*
D03*
Y0075779D02*
D03*
Y0076279D02*
D03*
Y0076779D02*
D03*
Y0077279D02*
D03*
Y0077779D02*
D03*
Y0078279D02*
D03*
Y0078779D02*
D03*
Y0079279D02*
D03*
D16*
X0108261Y0079088D02*
D03*
X0109561D02*
D03*
X0110811D02*
D03*
X0112211D02*
D03*
X0112161Y0071738D02*
D03*
X0110861D02*
D03*
X0109561D02*
D03*
X0108261D02*
D03*
D17*
X0051014Y0086273D02*
D03*
Y0091273D02*
D03*
X0046014Y0086273D02*
D03*
Y0091273D02*
D03*
D18*
X0065568Y0061849D02*
D03*
X0070068D02*
D03*
X0151602Y0058674D02*
D03*
X0147102D02*
D03*
D19*
X0060314Y0061849D02*
D03*
X0062114D02*
D03*
D20*
X0130111Y0068199D02*
D03*
X0140145D02*
D03*
D21*
X0123952Y0058674D02*
D03*
X0129794D02*
D03*
X0134747Y0056769D02*
D03*
X0140589D02*
D03*
D22*
X0107569Y0058306D02*
D03*
X0108839D02*
D03*
X0110109D02*
D03*
X0111379D02*
D03*
X0112649D02*
D03*
X0113919D02*
D03*
X0115189D02*
D03*
X0116459D02*
D03*
X0107569Y0063106D02*
D03*
X0108839D02*
D03*
X0110109D02*
D03*
X0111379D02*
D03*
X0112649D02*
D03*
X0113919D02*
D03*
X0115189D02*
D03*
X0116459D02*
D03*
D23*
X0066040Y0090043D02*
D03*
Y0088773D02*
D03*
Y0087503D02*
D03*
Y0086233D02*
D03*
Y0084963D02*
D03*
X0070866D02*
D03*
Y0086233D02*
D03*
Y0087503D02*
D03*
Y0088773D02*
D03*
Y0090043D02*
D03*
D24*
X0146101Y0087046D02*
D03*
X0145161Y0089459D02*
D03*
X0146101D02*
D03*
X0145161Y0087046D02*
D03*
X0144221Y0089459D02*
D03*
Y0087046D02*
D03*
X0122479Y0077521D02*
D03*
X0121539Y0079934D02*
D03*
X0122479D02*
D03*
X0121539Y0077521D02*
D03*
X0120599Y0079934D02*
D03*
Y0077521D02*
D03*
X0138227Y0087071D02*
D03*
X0137287Y0089484D02*
D03*
X0138227D02*
D03*
X0137287Y0087071D02*
D03*
X0136347Y0089484D02*
D03*
Y0087071D02*
D03*
X0130353Y0077521D02*
D03*
X0129413Y0079934D02*
D03*
X0130353D02*
D03*
X0129413Y0077521D02*
D03*
X0128473Y0079934D02*
D03*
Y0077521D02*
D03*
X0130353Y0087046D02*
D03*
X0129413Y0089459D02*
D03*
X0130353D02*
D03*
X0129413Y0087046D02*
D03*
X0128473Y0089459D02*
D03*
Y0087046D02*
D03*
X0122479D02*
D03*
X0121539Y0089459D02*
D03*
X0122479D02*
D03*
X0121539Y0087046D02*
D03*
X0120599Y0089459D02*
D03*
Y0087046D02*
D03*
X0138354Y0077521D02*
D03*
X0137414Y0079934D02*
D03*
X0138354D02*
D03*
X0137414Y0077521D02*
D03*
X0136474Y0079934D02*
D03*
Y0077521D02*
D03*
X0146228D02*
D03*
X0145288Y0079934D02*
D03*
X0146228D02*
D03*
X0145288Y0077521D02*
D03*
X0144348Y0079934D02*
D03*
Y0077521D02*
D03*
D25*
X0157988Y0061504D02*
D03*
Y0066004D02*
D03*
D26*
X0150322Y0063784D02*
D03*
Y0066284D02*
D03*
Y0067534D02*
D03*
Y0065034D02*
D03*
X0144572D02*
D03*
Y0067534D02*
D03*
Y0066284D02*
D03*
Y0063784D02*
D03*
D27*
X0147447Y0065659D02*
D03*
D28*
X0154178Y0068288D02*
D03*
Y0069888D02*
D03*
Y0064986D02*
D03*
Y0066586D02*
D03*
M02*
