%FSAX43Y43*%
%MOMM*%
G71*
G01*
G75*
G04 Layer_Color=128*
%ADD10R,0.800X0.900*%
%ADD11R,0.900X0.800*%
%ADD12R,0.300X1.200*%
%ADD13R,1.200X0.300*%
%ADD14O,0.300X1.800*%
%ADD15O,1.800X0.300*%
%ADD16R,0.508X1.500*%
%ADD17R,2.200X2.200*%
%ADD18R,2.300X2.300*%
%ADD19R,1.200X1.400*%
%ADD20R,3.048X3.683*%
%ADD21R,2.540X1.016*%
%ADD22O,0.600X2.200*%
%ADD23R,2.032X0.635*%
%ADD24R,0.350X0.800*%
%ADD25R,2.300X2.300*%
%ADD26R,2.200X0.450*%
%ADD27R,2.400X3.100*%
%ADD28R,1.300X1.000*%
%ADD29C,0.254*%
%ADD30C,0.381*%
%ADD31C,0.635*%
%ADD32C,0.508*%
%ADD33C,0.330*%
%ADD34C,0.762*%
%ADD35R,9.779X2.159*%
%ADD36R,3.048X6.858*%
%ADD37R,0.762X0.635*%
%ADD38R,1.778X2.794*%
%ADD39R,1.397X1.778*%
%ADD40R,1.016X2.286*%
%ADD41R,1.778X2.819*%
%ADD42R,32.258X2.032*%
%ADD43R,0.889X2.286*%
%ADD44R,2.540X8.636*%
%ADD45R,7.620X4.191*%
%ADD46R,3.048X10.414*%
%ADD47R,6.350X3.048*%
%ADD48R,2.286X7.112*%
%ADD49R,3.302X3.048*%
%ADD50R,7.366X1.016*%
%ADD51R,3.429X4.445*%
%ADD52R,4.191X2.032*%
%ADD53R,2.159X11.049*%
%ADD54R,3.556X3.556*%
%ADD55R,2.286X2.286*%
%ADD56R,2.413X2.286*%
%ADD57R,1.270X1.270*%
%ADD58R,2.159X2.159*%
%ADD59C,0.508*%
%ADD60C,0.762*%
%ADD61C,4.000*%
%ADD62R,1.500X1.500*%
%ADD63C,1.500*%
%ADD64C,1.524*%
%ADD65C,1.778*%
%ADD66C,1.270*%
%ADD67C,2.032*%
%ADD68R,1.524X1.524*%
%ADD69C,3.556*%
%ADD70C,1.600*%
%ADD71C,1.690*%
%ADD72R,1.690X1.690*%
%ADD73C,4.760*%
%ADD74C,3.810*%
%ADD75C,3.000*%
%ADD76R,1.500X1.500*%
%ADD77C,1.016*%
%ADD78R,1.600X0.400*%
%ADD79R,2.794X2.540*%
%ADD80R,1.000X1.800*%
%ADD81R,1.000X1.300*%
%ADD82R,9.525X2.159*%
%ADD83R,3.683X3.937*%
%ADD84R,2.286X2.540*%
%ADD85R,2.286X2.159*%
%ADD86C,0.250*%
%ADD87C,0.127*%
%ADD88C,0.200*%
%ADD89C,0.600*%
%ADD90C,0.100*%
%ADD91C,0.152*%
%ADD92C,0.150*%
%ADD93R,1.003X1.103*%
%ADD94R,1.103X1.003*%
%ADD95R,0.503X1.403*%
%ADD96R,1.403X0.503*%
%ADD97O,0.503X2.003*%
%ADD98O,2.003X0.503*%
%ADD99R,0.711X1.703*%
%ADD100R,2.503X2.503*%
%ADD101R,1.403X1.603*%
%ADD102R,3.251X3.886*%
%ADD103R,2.743X1.219*%
%ADD104O,0.803X2.403*%
%ADD105R,2.235X0.838*%
%ADD106R,0.553X1.003*%
%ADD107R,2.503X2.503*%
%ADD108R,2.403X0.653*%
%ADD109R,2.603X3.303*%
%ADD110R,1.503X1.203*%
%ADD111C,0.711*%
%ADD112C,0.965*%
%ADD113C,4.203*%
%ADD114R,1.703X1.703*%
%ADD115C,1.703*%
%ADD116C,1.727*%
%ADD117C,1.981*%
%ADD118C,1.473*%
%ADD119C,2.235*%
%ADD120C,0.203*%
%ADD121R,1.727X1.727*%
%ADD122C,3.759*%
%ADD123C,1.803*%
%ADD124C,1.893*%
%ADD125R,1.893X1.893*%
%ADD126C,4.963*%
%ADD127C,4.013*%
%ADD128C,3.203*%
%ADD129R,1.703X1.703*%
%ADD130C,1.219*%
%ADD131R,1.803X0.603*%
%ADD132R,2.997X2.743*%
%ADD133R,1.203X2.003*%
%ADD134R,1.203X1.503*%
D10*
X0072963Y0057785D02*
D03*
X0071563D02*
D03*
X0072963Y0059309D02*
D03*
X0071563D02*
D03*
X0067753Y0059309D02*
D03*
X0069153D02*
D03*
X0067753Y0057785D02*
D03*
X0069153D02*
D03*
X0051627Y0093853D02*
D03*
X0050227D02*
D03*
X0081472D02*
D03*
X0080072D02*
D03*
X0139762Y0093853D02*
D03*
X0141162D02*
D03*
X0109917D02*
D03*
X0111317D02*
D03*
X0075249Y0061595D02*
D03*
X0073849D02*
D03*
X0077405Y0061595D02*
D03*
X0078805D02*
D03*
X0066486Y0062103D02*
D03*
X0065086D02*
D03*
X0069658Y0062103D02*
D03*
X0071058D02*
D03*
X0089092Y0072771D02*
D03*
X0087692D02*
D03*
D11*
X0050038Y0067753D02*
D03*
Y0069153D02*
D03*
X0045720Y0054929D02*
D03*
Y0053529D02*
D03*
X0048260Y0065089D02*
D03*
Y0063689D02*
D03*
X0044323Y0054929D02*
D03*
Y0053529D02*
D03*
X0140208Y0047179D02*
D03*
Y0048579D02*
D03*
X0129413Y0047179D02*
D03*
Y0048579D02*
D03*
X0131953Y0047179D02*
D03*
Y0048579D02*
D03*
X0078613Y0047179D02*
D03*
Y0048579D02*
D03*
X0081153Y0047179D02*
D03*
Y0048579D02*
D03*
X0055753Y0047179D02*
D03*
Y0048579D02*
D03*
X0084328Y0058355D02*
D03*
Y0059755D02*
D03*
X0043053Y0049722D02*
D03*
Y0048322D02*
D03*
X0046863Y0049722D02*
D03*
Y0048322D02*
D03*
X0040005Y0065089D02*
D03*
Y0063689D02*
D03*
D78*
X0047498Y0095504D02*
D03*
Y0096154D02*
D03*
Y0096804D02*
D03*
Y0097454D02*
D03*
Y0098754D02*
D03*
Y0099404D02*
D03*
Y0100054D02*
D03*
Y0098104D02*
D03*
X0054098Y0097454D02*
D03*
Y0096804D02*
D03*
Y0096154D02*
D03*
Y0095504D02*
D03*
Y0100054D02*
D03*
Y0099404D02*
D03*
Y0098754D02*
D03*
Y0098104D02*
D03*
X0047498Y0101354D02*
D03*
Y0102004D02*
D03*
Y0102654D02*
D03*
Y0103304D02*
D03*
Y0103954D02*
D03*
X0054098D02*
D03*
Y0103304D02*
D03*
Y0102654D02*
D03*
Y0102004D02*
D03*
Y0101354D02*
D03*
X0047498Y0100704D02*
D03*
X0054098D02*
D03*
X0137033Y0095504D02*
D03*
Y0096154D02*
D03*
Y0096804D02*
D03*
Y0097454D02*
D03*
Y0098754D02*
D03*
Y0099404D02*
D03*
Y0100054D02*
D03*
Y0098104D02*
D03*
X0143633Y0097454D02*
D03*
Y0096804D02*
D03*
Y0096154D02*
D03*
Y0095504D02*
D03*
Y0100054D02*
D03*
Y0099404D02*
D03*
Y0098754D02*
D03*
Y0098104D02*
D03*
X0137033Y0101354D02*
D03*
Y0102004D02*
D03*
Y0102654D02*
D03*
Y0103304D02*
D03*
Y0103954D02*
D03*
X0143633D02*
D03*
Y0103304D02*
D03*
Y0102654D02*
D03*
Y0102004D02*
D03*
Y0101354D02*
D03*
X0137033Y0100704D02*
D03*
X0143633D02*
D03*
X0107188Y0095504D02*
D03*
Y0096154D02*
D03*
Y0096804D02*
D03*
Y0097454D02*
D03*
Y0098754D02*
D03*
Y0099404D02*
D03*
Y0100054D02*
D03*
Y0098104D02*
D03*
X0113788Y0097454D02*
D03*
Y0096804D02*
D03*
Y0096154D02*
D03*
Y0095504D02*
D03*
Y0100054D02*
D03*
Y0099404D02*
D03*
Y0098754D02*
D03*
Y0098104D02*
D03*
X0107188Y0101354D02*
D03*
Y0102004D02*
D03*
Y0102654D02*
D03*
Y0103304D02*
D03*
Y0103954D02*
D03*
X0113788D02*
D03*
Y0103304D02*
D03*
Y0102654D02*
D03*
Y0102004D02*
D03*
Y0101354D02*
D03*
X0107188Y0100704D02*
D03*
X0113788D02*
D03*
X0077343Y0095504D02*
D03*
Y0096154D02*
D03*
Y0096804D02*
D03*
Y0097454D02*
D03*
Y0098754D02*
D03*
Y0099404D02*
D03*
Y0100054D02*
D03*
Y0098104D02*
D03*
X0083943Y0097454D02*
D03*
Y0096804D02*
D03*
Y0096154D02*
D03*
Y0095504D02*
D03*
Y0100054D02*
D03*
Y0099404D02*
D03*
Y0098754D02*
D03*
Y0098104D02*
D03*
X0077343Y0101354D02*
D03*
Y0102004D02*
D03*
Y0102654D02*
D03*
Y0103304D02*
D03*
Y0103954D02*
D03*
X0083943D02*
D03*
Y0103304D02*
D03*
Y0102654D02*
D03*
Y0102004D02*
D03*
Y0101354D02*
D03*
X0077343Y0100704D02*
D03*
X0083943D02*
D03*
D79*
X0074549Y0064135D02*
D03*
X0078105D02*
D03*
D80*
X0069672Y0064409D02*
D03*
X0066472D02*
D03*
D81*
X0041186Y0073279D02*
D03*
X0039586D02*
D03*
M02*
