%FSLAX43Y43*%
%MOMM*%
%SFA1B1*%

%IPPOS*%
%ADD9500C,0.253999*%
%ADD9501C,0.507999*%
%ADD9502C,0.761998*%
%ADD9503C,0.799998*%
%ADD9504C,0.899998*%
%ADD9505C,0.964998*%
%ADD9506C,1.099998*%
%ADD9507C,1.269997*%
%ADD9508C,3.199994*%
%LNlp_led_cube_8x8x8-1*%
%LPD*%
G54D9500*
X120014Y56768D03*
Y62112D03*
X129945Y61086D03*
Y68579D03*
X127101Y72262D03*
X129945Y76072D03*
X135356Y77342D03*
X141579Y76072D03*
X138658Y72262D03*
X141579Y68579D03*
X138658Y64769D03*
X141579Y61086D03*
X114934Y65023D03*
X114299Y67563D03*
X113664Y70103D03*
X113029Y72643D03*
X112394Y75183D03*
X111759Y77723D03*
X71754D03*
X72389Y75183D03*
X73024Y72643D03*
X73659Y70103D03*
X74294Y67563D03*
X74929Y65023D03*
X34924D03*
X34289Y67563D03*
X33654Y70103D03*
X33019Y72643D03*
X32384Y75183D03*
X31749Y77723D03*
X31114Y80263D03*
X30479Y82803D03*
X34924Y86994D03*
X34289Y87629D03*
X33654Y88264D03*
X33019Y88899D03*
X32384Y89534D03*
X31749Y90169D03*
X31114Y90804D03*
X30479Y91439D03*
X34924Y95503D03*
X34289Y98043D03*
X33654Y100583D03*
X33019Y103123D03*
X32384Y105663D03*
X31749Y108203D03*
X31114Y110743D03*
X30479Y113283D03*
X70484D03*
X71119Y110743D03*
X71754Y108203D03*
X72389Y105663D03*
X73024Y103123D03*
X73659Y100583D03*
X74294Y98043D03*
X74929Y95503D03*
X70484Y91439D03*
X71119Y90804D03*
X71754Y90169D03*
X72389Y89534D03*
X73024Y88899D03*
X73659Y88264D03*
X74294Y87629D03*
X74929Y86994D03*
X70484Y82803D03*
X71119Y80263D03*
X63499Y92455D03*
X81406Y85978D03*
X103504Y84073D03*
X110489Y82803D03*
X111124Y80263D03*
Y90804D03*
X110489Y91439D03*
X111759Y90169D03*
X112394Y89534D03*
X113029Y88899D03*
X113664Y88264D03*
X114299Y87629D03*
X114934Y86994D03*
Y95503D03*
X114299Y98043D03*
X113664Y100583D03*
X113029Y103123D03*
X112394Y105663D03*
X111759Y108203D03*
X111124Y110743D03*
X110489Y113283D03*
X103504Y92455D03*
X122997Y102423D03*
X125348Y100202D03*
X129945Y83565D03*
X141579D03*
X138785Y86994D03*
G54D9501*
X125196Y60146D03*
Y67639D03*
Y75132D03*
X136829D03*
Y67639D03*
Y60146D03*
Y82625D03*
X125196D03*
G54D9502*
X131800Y57022D03*
X58165Y85343D03*
Y92963D03*
Y115823D03*
X98170D03*
Y92963D03*
Y85343D03*
X118617Y83311D03*
Y80517D03*
X133959Y87883D03*
X133603Y100329D03*
X136397D03*
G54D9503*
X142620Y99059D03*
Y101599D03*
G54D9504*
X124713Y50037D03*
Y52577D03*
X127253D03*
Y50037D03*
X129793D03*
Y52577D03*
X132333D03*
Y50037D03*
X111581Y50164D03*
Y52704D03*
X109041D03*
Y50164D03*
X106501D03*
Y52704D03*
X103961D03*
Y50164D03*
X93979Y65048D03*
X91439D03*
Y67588D03*
X93979D03*
Y70128D03*
X91439D03*
Y72668D03*
X93979D03*
Y75208D03*
X91439D03*
Y77748D03*
X93979D03*
X53974D03*
Y75208D03*
Y72668D03*
Y70128D03*
Y67588D03*
Y65048D03*
X51434D03*
Y67588D03*
Y70128D03*
Y72668D03*
Y75208D03*
Y77748D03*
X50901Y52704D03*
X53441D03*
X55981D03*
Y50164D03*
X53441D03*
X50901D03*
X48361D03*
Y52704D03*
X45821D03*
Y50164D03*
X43281D03*
Y52704D03*
X40741D03*
Y50164D03*
X38201D03*
Y52704D03*
X51434Y80288D03*
X53974D03*
Y82828D03*
X51434D03*
Y95528D03*
X53974D03*
Y98068D03*
X51434D03*
Y100608D03*
X53974D03*
Y103148D03*
X51434D03*
Y105688D03*
X53974D03*
Y108228D03*
X51434D03*
Y110768D03*
X53974D03*
Y113308D03*
X51434D03*
X91439D03*
Y110768D03*
Y108228D03*
Y105688D03*
Y103148D03*
Y100608D03*
Y98068D03*
Y95528D03*
X93979D03*
Y98068D03*
Y100608D03*
Y103148D03*
Y105688D03*
Y108228D03*
Y110768D03*
Y113308D03*
Y82828D03*
Y80288D03*
X91439D03*
Y82828D03*
X133730Y92328D03*
X136270D03*
G54D9505*
X83819Y62483D03*
Y65023D03*
Y67563D03*
Y70103D03*
Y72643D03*
Y75183D03*
Y77723D03*
X101599D03*
Y75183D03*
Y72643D03*
Y70103D03*
Y67563D03*
Y65023D03*
Y62483D03*
X109219D03*
Y65023D03*
Y67563D03*
Y70103D03*
Y72643D03*
Y75183D03*
Y77723D03*
X76199D03*
Y75183D03*
Y72643D03*
Y70103D03*
Y67563D03*
Y65023D03*
Y62483D03*
X69214D03*
Y65023D03*
Y67563D03*
Y70103D03*
Y72643D03*
Y75183D03*
Y77723D03*
X61594D03*
Y75183D03*
Y72643D03*
Y70103D03*
Y67563D03*
Y65023D03*
Y62483D03*
X43814D03*
Y65023D03*
Y67563D03*
Y70103D03*
Y72643D03*
Y75183D03*
Y77723D03*
X36194D03*
Y75183D03*
Y72643D03*
Y70103D03*
Y67563D03*
Y65023D03*
Y62483D03*
Y80263D03*
Y82803D03*
Y85343D03*
Y92963D03*
Y95503D03*
Y98043D03*
Y100583D03*
Y103123D03*
Y105663D03*
Y108203D03*
Y110743D03*
Y113283D03*
Y115823D03*
X43814D03*
Y113283D03*
Y110743D03*
Y108203D03*
Y105663D03*
Y103123D03*
Y100583D03*
Y98043D03*
Y95503D03*
Y92963D03*
Y85343D03*
Y82803D03*
Y80263D03*
X61594D03*
Y82803D03*
Y85343D03*
Y92963D03*
Y95503D03*
Y98043D03*
Y100583D03*
Y103123D03*
Y105663D03*
Y108203D03*
Y110743D03*
Y113283D03*
Y115823D03*
X69214D03*
Y113283D03*
Y110743D03*
Y108203D03*
Y105663D03*
Y103123D03*
Y100583D03*
Y98043D03*
Y95503D03*
Y92963D03*
X76199D03*
Y95503D03*
Y98043D03*
Y100583D03*
Y103123D03*
Y105663D03*
Y108203D03*
Y110743D03*
Y113283D03*
Y115823D03*
Y85343D03*
Y82803D03*
Y80263D03*
X69214D03*
Y82803D03*
Y85343D03*
X83819D03*
Y82803D03*
Y80263D03*
Y92963D03*
Y95503D03*
Y98043D03*
Y100583D03*
Y103123D03*
Y105663D03*
Y108203D03*
Y110743D03*
Y113283D03*
Y115823D03*
X101599D03*
Y113283D03*
Y110743D03*
Y108203D03*
Y105663D03*
Y103123D03*
Y100583D03*
Y98043D03*
Y95503D03*
Y92963D03*
X109219D03*
Y95503D03*
Y98043D03*
Y100583D03*
Y103123D03*
Y105663D03*
Y108203D03*
Y110743D03*
Y113283D03*
Y115823D03*
Y85343D03*
Y82803D03*
Y80263D03*
X101599D03*
Y82803D03*
Y85343D03*
G54D9506*
X140080Y106679D03*
Y110489D03*
G54D9507*
X122300Y107568D03*
G54D9508*
X141350Y49529D03*
X29209D03*
Y116204D03*
X141350D03*
M02*