%FSLAX43Y43*%
%MOMM*%
%SFA1B1*%

%IPPOS*%
%ADD21C,0.253999*%
%ADD94C,0.100000*%
%LNlp_led_cube_8x8x8-1*%
%LPD*%
G54D21*
X116860Y101701D02*
X129260D01*
Y89301D02*
Y101701D01*
X116860Y89301D02*
Y101701D01*
Y89301D02*
X129260D01*
G54D94*
X122497Y99652D02*
Y100752D01*
X124897Y99652D02*
Y100752D01*
X122497Y99652D02*
X124897D01*
X122497Y100752D02*
X124897D01*
X123222Y100202D02*
X124172D01*
X123697Y99727D02*
Y100677D01*
X131501Y91778D02*
Y92878D01*
X129101Y91778D02*
Y92878D01*
X131501*
X129101Y91778D02*
X131501D01*
X129826Y92328D02*
X130776D01*
X130301Y91853D02*
Y92803D01*
X131120Y99779D02*
Y100879D01*
X128720Y99779D02*
Y100879D01*
X131120*
X128720Y99779D02*
X131120D01*
X129445Y100329D02*
X130395D01*
X129920Y99854D02*
Y100804D01*
X116416Y112324D02*
X117516D01*
X116416Y109924D02*
X117516D01*
Y112324*
X116416Y109924D02*
Y112324D01*
X116966Y110649D02*
Y111599D01*
X116491Y111124D02*
X117441D01*
X125306Y113480D02*
X126406D01*
X125306Y115880D02*
X126406D01*
X125306Y113480D02*
Y115880D01*
X126406Y113480D02*
Y115880D01*
X125856Y114205D02*
Y115155D01*
X125381Y114680D02*
X126331D01*
X122173Y116974D02*
Y117974D01*
X121673Y117474D02*
X122673D01*
X120773Y118224D02*
X123573D01*
X120773Y116724D02*
X123573D01*
X120773D02*
Y118224D01*
X123573Y116724D02*
Y118224D01*
X118236Y116974D02*
Y117974D01*
X117736Y117474D02*
X118736D01*
X116836Y118224D02*
X119636D01*
X116836Y116724D02*
X119636D01*
X116836D02*
Y118224D01*
X119636Y116724D02*
Y118224D01*
X125941Y110927D02*
X127041D01*
X125941Y108527D02*
X127041D01*
Y110927*
X125941Y108527D02*
Y110927D01*
X126491Y109252D02*
Y110202D01*
X126016Y109727D02*
X126966D01*
X118194Y113480D02*
X119294D01*
X118194Y115880D02*
X119294D01*
X118194Y113480D02*
Y115880D01*
X119294Y113480D02*
Y115880D01*
X118744Y114205D02*
Y115155D01*
X118269Y114680D02*
X119219D01*
X142070Y94684D02*
X143170D01*
X142070Y97084D02*
X143170D01*
Y94684D02*
Y97084D01*
X142070Y94684D02*
Y97084D01*
X142620Y95409D02*
Y96359D01*
X142145Y95884D02*
X143095D01*
X85629Y79313D02*
Y81213D01*
X89629Y79313D02*
Y81213D01*
X85629Y79313D02*
X89629D01*
X85629Y81213D02*
X89629D01*
X87129Y80263D02*
X88129D01*
X87629Y79763D02*
Y80763D01*
X85629Y74233D02*
Y76133D01*
X89629Y74233D02*
Y76133D01*
X85629Y74233D02*
X89629D01*
X85629Y76133D02*
X89629D01*
X87129Y75183D02*
X88129D01*
X87629Y74683D02*
Y75683D01*
X45624Y104713D02*
Y106613D01*
X49624Y104713D02*
Y106613D01*
X45624Y104713D02*
X49624D01*
X45624Y106613D02*
X49624D01*
X47124Y105663D02*
X48124D01*
X47624Y105163D02*
Y106163D01*
X85629Y104713D02*
Y106613D01*
X89629Y104713D02*
Y106613D01*
X85629Y104713D02*
X89629D01*
X85629Y106613D02*
X89629D01*
X87129Y105663D02*
X88129D01*
X87629Y105163D02*
Y106163D01*
X85629Y69153D02*
Y71053D01*
X89629Y69153D02*
Y71053D01*
X85629Y69153D02*
X89629D01*
X85629Y71053D02*
X89629D01*
X87129Y70103D02*
X88129D01*
X87629Y69603D02*
Y70603D01*
X45624Y99633D02*
Y101533D01*
X49624Y99633D02*
Y101533D01*
X45624Y99633D02*
X49624D01*
X45624Y101533D02*
X49624D01*
X47124Y100583D02*
X48124D01*
X47624Y100083D02*
Y101083D01*
X85629Y99633D02*
Y101533D01*
X89629Y99633D02*
Y101533D01*
X85629Y99633D02*
X89629D01*
X85629Y101533D02*
X89629D01*
X87129Y100583D02*
X88129D01*
X87629Y100083D02*
Y101083D01*
X45624Y97093D02*
Y98993D01*
X49624Y97093D02*
Y98993D01*
X45624Y97093D02*
X49624D01*
X45624Y98993D02*
X49624D01*
X47124Y98043D02*
X48124D01*
X47624Y97543D02*
Y98543D01*
X85629Y94553D02*
Y96453D01*
X89629Y94553D02*
Y96453D01*
X85629Y94553D02*
X89629D01*
X85629Y96453D02*
X89629D01*
X87129Y95503D02*
X88129D01*
X87629Y95003D02*
Y96003D01*
X99789Y97093D02*
Y98993D01*
X95789Y97093D02*
Y98993D01*
X99789*
X95789Y97093D02*
X99789D01*
X97289Y98043D02*
X98289D01*
X97789Y97543D02*
Y98543D01*
X59784Y97093D02*
Y98993D01*
X55784Y97093D02*
Y98993D01*
X59784*
X55784Y97093D02*
X59784D01*
X57284Y98043D02*
X58284D01*
X57784Y97543D02*
Y98543D01*
X59784Y112333D02*
Y114233D01*
X55784Y112333D02*
Y114233D01*
X59784*
X55784Y112333D02*
X59784D01*
X57284Y113283D02*
X58284D01*
X57784Y112783D02*
Y113783D01*
X99789Y81853D02*
Y83753D01*
X95789Y81853D02*
Y83753D01*
X99789*
X95789Y81853D02*
X99789D01*
X97289Y82803D02*
X98289D01*
X97789Y82303D02*
Y83303D01*
X59784Y102173D02*
Y104073D01*
X55784Y102173D02*
Y104073D01*
X59784*
X55784Y102173D02*
X59784D01*
X57284Y103123D02*
X58284D01*
X57784Y102623D02*
Y103623D01*
X99789Y71693D02*
Y73593D01*
X95789Y71693D02*
Y73593D01*
X99789*
X95789Y71693D02*
X99789D01*
X97289Y72643D02*
X98289D01*
X97789Y72143D02*
Y73143D01*
X99789Y112333D02*
Y114233D01*
X95789Y112333D02*
Y114233D01*
X99789*
X95789Y112333D02*
X99789D01*
X97289Y113283D02*
X98289D01*
X97789Y112783D02*
Y113783D01*
X99789Y102173D02*
Y104073D01*
X95789Y102173D02*
Y104073D01*
X99789*
X95789Y102173D02*
X99789D01*
X97289Y103123D02*
X98289D01*
X97789Y102623D02*
Y103623D01*
X99789Y76773D02*
Y78673D01*
X95789Y76773D02*
Y78673D01*
X99789*
X95789Y76773D02*
X99789D01*
X97289Y77723D02*
X98289D01*
X97789Y77223D02*
Y78223D01*
X59784Y107253D02*
Y109153D01*
X55784Y107253D02*
Y109153D01*
X59784*
X55784Y107253D02*
X59784D01*
X57284Y108203D02*
X58284D01*
X57784Y107703D02*
Y108703D01*
X99789Y107253D02*
Y109153D01*
X95789Y107253D02*
Y109153D01*
X99789*
X95789Y107253D02*
X99789D01*
X97289Y108203D02*
X98289D01*
X97789Y107703D02*
Y108703D01*
X85629Y109793D02*
Y111693D01*
X89629Y109793D02*
Y111693D01*
X85629Y109793D02*
X89629D01*
X85629Y111693D02*
X89629D01*
X87129Y110743D02*
X88129D01*
X87629Y110243D02*
Y111243D01*
X45624Y109793D02*
Y111693D01*
X49624Y109793D02*
Y111693D01*
X45624Y109793D02*
X49624D01*
X45624Y111693D02*
X49624D01*
X47124Y110743D02*
X48124D01*
X47624Y110243D02*
Y111243D01*
X99789Y66613D02*
Y68513D01*
X95789Y66613D02*
Y68513D01*
X99789*
X95789Y66613D02*
X99789D01*
X97289Y67563D02*
X98289D01*
X97789Y67063D02*
Y68063D01*
X59784Y81853D02*
Y83753D01*
X55784Y81853D02*
Y83753D01*
X59784*
X55784Y81853D02*
X59784D01*
X57284Y82803D02*
X58284D01*
X57784Y82303D02*
Y83303D01*
X59784Y76773D02*
Y78673D01*
X55784Y76773D02*
Y78673D01*
X59784*
X55784Y76773D02*
X59784D01*
X57284Y77723D02*
X58284D01*
X57784Y77223D02*
Y78223D01*
X59784Y66613D02*
Y68513D01*
X55784Y66613D02*
Y68513D01*
X59784*
X55784Y66613D02*
X59784D01*
X57284Y67563D02*
X58284D01*
X57784Y67063D02*
Y68063D01*
X45624Y64073D02*
Y65973D01*
X49624Y64073D02*
Y65973D01*
X45624Y64073D02*
X49624D01*
X45624Y65973D02*
X49624D01*
X47124Y65023D02*
X48124D01*
X47624Y64523D02*
Y65523D01*
X45624Y69153D02*
Y71053D01*
X49624Y69153D02*
Y71053D01*
X45624Y69153D02*
X49624D01*
X45624Y71053D02*
X49624D01*
X47124Y70103D02*
X48124D01*
X47624Y69603D02*
Y70603D01*
X59784Y71693D02*
Y73593D01*
X55784Y71693D02*
Y73593D01*
X59784*
X55784Y71693D02*
X59784D01*
X57284Y72643D02*
X58284D01*
X57784Y72143D02*
Y73143D01*
X45624Y74233D02*
Y76133D01*
X49624Y74233D02*
Y76133D01*
X45624Y74233D02*
X49624D01*
X45624Y76133D02*
X49624D01*
X47124Y75183D02*
X48124D01*
X47624Y74683D02*
Y75683D01*
X45624Y79313D02*
Y81213D01*
X49624Y79313D02*
Y81213D01*
X45624Y79313D02*
X49624D01*
X45624Y81213D02*
X49624D01*
X47124Y80263D02*
X48124D01*
X47624Y79763D02*
Y80763D01*
X139490Y73109D02*
Y74209D01*
X141890Y73109D02*
Y74209D01*
X139490D02*
X141890D01*
X139490Y73109D02*
X141890D01*
X140215Y73659D02*
X141165D01*
X140690Y73184D02*
Y74134D01*
X139490Y77935D02*
Y79035D01*
X141890Y77935D02*
Y79035D01*
X139490D02*
X141890D01*
X139490Y77935D02*
X141890D01*
X140215Y78485D02*
X141165D01*
X140690Y78010D02*
Y78960D01*
X136823Y73109D02*
Y74209D01*
X139223Y73109D02*
Y74209D01*
X136823D02*
X139223D01*
X136823Y73109D02*
X139223D01*
X137548Y73659D02*
X138498D01*
X138023Y73184D02*
Y74134D01*
X136823Y77935D02*
Y79035D01*
X139223Y77935D02*
Y79035D01*
X136823D02*
X139223D01*
X136823Y77935D02*
X139223D01*
X137548Y78485D02*
X138498D01*
X138023Y78010D02*
Y78960D01*
X140257Y74497D02*
Y77647D01*
X138607Y74497D02*
X140257D01*
X138607Y77647D02*
X140257D01*
X138607Y74497D02*
Y77647D01*
X128624Y74497D02*
Y77647D01*
X126974Y74497D02*
X128624D01*
X126974Y77647D02*
X128624D01*
X126974Y74497D02*
Y77647D01*
X127856Y77935D02*
Y79035D01*
X130256Y77935D02*
Y79035D01*
X127856D02*
X130256D01*
X127856Y77935D02*
X130256D01*
X128581Y78485D02*
X129531D01*
X129056Y78010D02*
Y78960D01*
X125189Y73109D02*
Y74209D01*
X127589Y73109D02*
Y74209D01*
X125189D02*
X127589D01*
X125189Y73109D02*
X127589D01*
X125914Y73659D02*
X126864D01*
X126389Y73184D02*
Y74134D01*
X125189Y77935D02*
Y79035D01*
X127589Y77935D02*
Y79035D01*
X125189D02*
X127589D01*
X125189Y77935D02*
X127589D01*
X125914Y78485D02*
X126864D01*
X126389Y78010D02*
Y78960D01*
X127856Y73109D02*
Y74209D01*
X130256Y73109D02*
Y74209D01*
X127856D02*
X130256D01*
X127856Y73109D02*
X130256D01*
X128581Y73659D02*
X129531D01*
X129056Y73184D02*
Y74134D01*
X140257Y81990D02*
Y85140D01*
X138607Y81990D02*
X140257D01*
X138607Y85140D02*
X140257D01*
X138607Y81990D02*
Y85140D01*
X139490Y85428D02*
Y86528D01*
X141890Y85428D02*
Y86528D01*
X139490D02*
X141890D01*
X139490Y85428D02*
X141890D01*
X140215Y85978D02*
X141165D01*
X140690Y85503D02*
Y86453D01*
X136823Y85428D02*
Y86528D01*
X139223Y85428D02*
Y86528D01*
X136823D02*
X139223D01*
X136823Y85428D02*
X139223D01*
X137548Y85978D02*
X138498D01*
X138023Y85503D02*
Y86453D01*
X136823Y80602D02*
Y81702D01*
X139223Y80602D02*
Y81702D01*
X136823D02*
X139223D01*
X136823Y80602D02*
X139223D01*
X137548Y81152D02*
X138498D01*
X138023Y80677D02*
Y81627D01*
X139490Y80602D02*
Y81702D01*
X141890Y80602D02*
Y81702D01*
X139490D02*
X141890D01*
X139490Y80602D02*
X141890D01*
X140215Y81152D02*
X141165D01*
X140690Y80677D02*
Y81627D01*
X128624Y81990D02*
Y85140D01*
X126974Y81990D02*
X128624D01*
X126974Y85140D02*
X128624D01*
X126974Y81990D02*
Y85140D01*
X125189Y85428D02*
Y86528D01*
X127589Y85428D02*
Y86528D01*
X125189D02*
X127589D01*
X125189Y85428D02*
X127589D01*
X125914Y85978D02*
X126864D01*
X126389Y85503D02*
Y86453D01*
X125189Y80602D02*
Y81702D01*
X127589Y80602D02*
Y81702D01*
X125189D02*
X127589D01*
X125189Y80602D02*
X127589D01*
X125914Y81152D02*
X126864D01*
X126389Y80677D02*
Y81627D01*
X127856Y85428D02*
Y86528D01*
X130256Y85428D02*
Y86528D01*
X127856D02*
X130256D01*
X127856Y85428D02*
X130256D01*
X128581Y85978D02*
X129531D01*
X129056Y85503D02*
Y86453D01*
X127856Y80602D02*
Y81702D01*
X130256Y80602D02*
Y81702D01*
X127856D02*
X130256D01*
X127856Y80602D02*
X130256D01*
X128581Y81152D02*
X129531D01*
X129056Y80677D02*
Y81627D01*
X140257Y59511D02*
Y62661D01*
X138607Y59511D02*
X140257D01*
X138607Y62661D02*
X140257D01*
X138607Y59511D02*
Y62661D01*
X128624Y59511D02*
Y62661D01*
X126974Y59511D02*
X128624D01*
X126974Y62661D02*
X128624D01*
X126974Y59511D02*
Y62661D01*
X140257Y67004D02*
Y70154D01*
X138607Y67004D02*
X140257D01*
X138607Y70154D02*
X140257D01*
X138607Y67004D02*
Y70154D01*
X128624Y67004D02*
Y70154D01*
X126974Y67004D02*
X128624D01*
X126974Y70154D02*
X128624D01*
X126974Y67004D02*
Y70154D01*
X136823Y58123D02*
Y59223D01*
X139223Y58123D02*
Y59223D01*
X136823D02*
X139223D01*
X136823Y58123D02*
X139223D01*
X137548Y58673D02*
X138498D01*
X138023Y58198D02*
Y59148D01*
X136823Y62949D02*
Y64049D01*
X139223Y62949D02*
Y64049D01*
X136823D02*
X139223D01*
X136823Y62949D02*
X139223D01*
X137548Y63499D02*
X138498D01*
X138023Y63024D02*
Y63974D01*
X125189Y58123D02*
Y59223D01*
X127589Y58123D02*
Y59223D01*
X125189D02*
X127589D01*
X125189Y58123D02*
X127589D01*
X125914Y58673D02*
X126864D01*
X126389Y58198D02*
Y59148D01*
X139490Y62949D02*
Y64049D01*
X141890Y62949D02*
Y64049D01*
X139490D02*
X141890D01*
X139490Y62949D02*
X141890D01*
X140215Y63499D02*
X141165D01*
X140690Y63024D02*
Y63974D01*
X127856Y62949D02*
Y64049D01*
X130256Y62949D02*
Y64049D01*
X127856D02*
X130256D01*
X127856Y62949D02*
X130256D01*
X128581Y63499D02*
X129531D01*
X129056Y63024D02*
Y63974D01*
X125189Y62949D02*
Y64049D01*
X127589Y62949D02*
Y64049D01*
X125189D02*
X127589D01*
X125189Y62949D02*
X127589D01*
X125914Y63499D02*
X126864D01*
X126389Y63024D02*
Y63974D01*
X139490Y58123D02*
Y59223D01*
X141890Y58123D02*
Y59223D01*
X139490D02*
X141890D01*
X139490Y58123D02*
X141890D01*
X140215Y58673D02*
X141165D01*
X140690Y58198D02*
Y59148D01*
X127856Y58123D02*
Y59223D01*
X130256Y58123D02*
Y59223D01*
X127856D02*
X130256D01*
X127856Y58123D02*
X130256D01*
X128581Y58673D02*
X129531D01*
X129056Y58198D02*
Y59148D01*
X139490Y65616D02*
Y66716D01*
X141890Y65616D02*
Y66716D01*
X139490D02*
X141890D01*
X139490Y65616D02*
X141890D01*
X140215Y66166D02*
X141165D01*
X140690Y65691D02*
Y66641D01*
X136823Y65616D02*
Y66716D01*
X139223Y65616D02*
Y66716D01*
X136823D02*
X139223D01*
X136823Y65616D02*
X139223D01*
X137548Y66166D02*
X138498D01*
X138023Y65691D02*
Y66641D01*
X136823Y70442D02*
Y71542D01*
X139223Y70442D02*
Y71542D01*
X136823D02*
X139223D01*
X136823Y70442D02*
X139223D01*
X137548Y70992D02*
X138498D01*
X138023Y70517D02*
Y71467D01*
X125189Y70442D02*
Y71542D01*
X127589Y70442D02*
Y71542D01*
X125189D02*
X127589D01*
X125189Y70442D02*
X127589D01*
X125914Y70992D02*
X126864D01*
X126389Y70517D02*
Y71467D01*
X127856Y65616D02*
Y66716D01*
X130256Y65616D02*
Y66716D01*
X127856D02*
X130256D01*
X127856Y65616D02*
X130256D01*
X128581Y66166D02*
X129531D01*
X129056Y65691D02*
Y66641D01*
X125189Y65616D02*
Y66716D01*
X127589Y65616D02*
Y66716D01*
X125189D02*
X127589D01*
X125189Y65616D02*
X127589D01*
X125914Y66166D02*
X126864D01*
X126389Y65691D02*
Y66641D01*
X139490Y70442D02*
Y71542D01*
X141890Y70442D02*
Y71542D01*
X139490D02*
X141890D01*
X139490Y70442D02*
X141890D01*
X140215Y70992D02*
X141165D01*
X140690Y70517D02*
Y71467D01*
X127856Y70442D02*
Y71542D01*
X130256Y70442D02*
Y71542D01*
X127856D02*
X130256D01*
X127856Y70442D02*
X130256D01*
X128581Y70992D02*
X129531D01*
X129056Y70517D02*
Y71467D01*
X141029Y64191D02*
X142129D01*
X141029Y61791D02*
X142129D01*
X141029D02*
Y64191D01*
X142129Y61791D02*
Y64191D01*
X141579Y62516D02*
Y63466D01*
X141104Y62991D02*
X142054D01*
X141029Y71684D02*
X142129D01*
X141029Y69284D02*
X142129D01*
X141029D02*
Y71684D01*
X142129Y69284D02*
Y71684D01*
X141579Y70009D02*
Y70959D01*
X141104Y70484D02*
X142054D01*
X141029Y79177D02*
X142129D01*
X141029Y76777D02*
X142129D01*
X141029D02*
Y79177D01*
X142129Y76777D02*
Y79177D01*
X141579Y77502D02*
Y78452D01*
X141104Y77977D02*
X142054D01*
X141029Y86670D02*
X142129D01*
X141029Y84270D02*
X142129D01*
X141029D02*
Y86670D01*
X142129Y84270D02*
Y86670D01*
X141579Y84995D02*
Y85945D01*
X141104Y85470D02*
X142054D01*
X129395Y64191D02*
X130495D01*
X129395Y61791D02*
X130495D01*
X129395D02*
Y64191D01*
X130495Y61791D02*
Y64191D01*
X129945Y62516D02*
Y63466D01*
X129470Y62991D02*
X130420D01*
X129395Y71684D02*
X130495D01*
X129395Y69284D02*
X130495D01*
X129395D02*
Y71684D01*
X130495Y69284D02*
Y71684D01*
X129945Y70009D02*
Y70959D01*
X129470Y70484D02*
X130420D01*
X129395Y79177D02*
X130495D01*
X129395Y76777D02*
X130495D01*
X129395D02*
Y79177D01*
X130495Y76777D02*
Y79177D01*
X129945Y77502D02*
Y78452D01*
X129470Y77977D02*
X130420D01*
X129395Y86670D02*
X130495D01*
X129395Y84270D02*
X130495D01*
X129395D02*
Y86670D01*
X130495Y84270D02*
Y86670D01*
X129945Y84995D02*
Y85945D01*
X129470Y85470D02*
X130420D01*
X85629Y64073D02*
Y65973D01*
X89629Y64073D02*
Y65973D01*
X85629Y64073D02*
X89629D01*
X85629Y65973D02*
X89629D01*
X87129Y65023D02*
X88129D01*
X87629Y64523D02*
Y65523D01*
X38804Y84793D02*
Y85893D01*
X41204Y84793D02*
Y85893D01*
X38804Y84793D02*
X41204D01*
X38804Y85893D02*
X41204D01*
X39529Y85343D02*
X40479D01*
X40004Y84868D02*
Y85818D01*
X78809Y115273D02*
Y116373D01*
X81209Y115273D02*
Y116373D01*
X78809Y115273D02*
X81209D01*
X78809Y116373D02*
X81209D01*
X79534Y115823D02*
X80484D01*
X80009Y115348D02*
Y116298D01*
X66604Y93302D02*
Y94402D01*
X64204Y93302D02*
Y94402D01*
X66604*
X64204Y93302D02*
X66604D01*
X64929Y93852D02*
X65879D01*
X65404Y93377D02*
Y94327D01*
X38804Y115273D02*
Y116373D01*
X41204Y115273D02*
Y116373D01*
X38804Y115273D02*
X41204D01*
X38804Y116373D02*
X41204D01*
X39529Y115823D02*
X40479D01*
X40004Y115348D02*
Y116298D01*
X78809Y83904D02*
Y85004D01*
X81209Y83904D02*
Y85004D01*
X78809Y83904D02*
X81209D01*
X78809Y85004D02*
X81209D01*
X79534Y84454D02*
X80484D01*
X80009Y83979D02*
Y84929D01*
X66604Y61933D02*
Y63033D01*
X64204Y61933D02*
Y63033D01*
X66604*
X64204Y61933D02*
X66604D01*
X64929Y62483D02*
X65879D01*
X65404Y62008D02*
Y62958D01*
X106609Y61933D02*
Y63033D01*
X104209Y61933D02*
Y63033D01*
X106609*
X104209Y61933D02*
X106609D01*
X104934Y62483D02*
X105884D01*
X105409Y62008D02*
Y62958D01*
X106609Y93302D02*
Y94402D01*
X104209Y93302D02*
Y94402D01*
X106609*
X104209Y93302D02*
X106609D01*
X104934Y93852D02*
X105884D01*
X105409Y93377D02*
Y94327D01*
X59784Y79313D02*
Y81213D01*
X55784Y79313D02*
Y81213D01*
X59784*
X55784Y79313D02*
X59784D01*
X57284Y80263D02*
X58284D01*
X57784Y79763D02*
Y80763D01*
X59784Y74233D02*
Y76133D01*
X55784Y74233D02*
Y76133D01*
X59784*
X55784Y74233D02*
X59784D01*
X57284Y75183D02*
X58284D01*
X57784Y74683D02*
Y75683D01*
X59784Y69153D02*
Y71053D01*
X55784Y69153D02*
Y71053D01*
X59784*
X55784Y69153D02*
X59784D01*
X57284Y70103D02*
X58284D01*
X57784Y69603D02*
Y70603D01*
X59784Y64073D02*
Y65973D01*
X55784Y64073D02*
Y65973D01*
X59784*
X55784Y64073D02*
X59784D01*
X57284Y65023D02*
X58284D01*
X57784Y64523D02*
Y65523D01*
X45624Y66613D02*
Y68513D01*
X49624Y66613D02*
Y68513D01*
X45624Y66613D02*
X49624D01*
X45624Y68513D02*
X49624D01*
X47124Y67563D02*
X48124D01*
X47624Y67063D02*
Y68063D01*
X45624Y71693D02*
Y73593D01*
X49624Y71693D02*
Y73593D01*
X45624Y71693D02*
X49624D01*
X45624Y73593D02*
X49624D01*
X47124Y72643D02*
X48124D01*
X47624Y72143D02*
Y73143D01*
X45624Y76773D02*
Y78673D01*
X49624Y76773D02*
Y78673D01*
X45624Y76773D02*
X49624D01*
X45624Y78673D02*
X49624D01*
X47124Y77723D02*
X48124D01*
X47624Y77223D02*
Y78223D01*
X45624Y81853D02*
Y83753D01*
X49624Y81853D02*
Y83753D01*
X45624Y81853D02*
X49624D01*
X45624Y83753D02*
X49624D01*
X47124Y82803D02*
X48124D01*
X47624Y82303D02*
Y83303D01*
X85629Y81853D02*
Y83753D01*
X89629Y81853D02*
Y83753D01*
X85629Y81853D02*
X89629D01*
X85629Y83753D02*
X89629D01*
X87129Y82803D02*
X88129D01*
X87629Y82303D02*
Y83303D01*
X85629Y76773D02*
Y78673D01*
X89629Y76773D02*
Y78673D01*
X85629Y76773D02*
X89629D01*
X85629Y78673D02*
X89629D01*
X87129Y77723D02*
X88129D01*
X87629Y77223D02*
Y78223D01*
X85629Y71693D02*
Y73593D01*
X89629Y71693D02*
Y73593D01*
X85629Y71693D02*
X89629D01*
X85629Y73593D02*
X89629D01*
X87129Y72643D02*
X88129D01*
X87629Y72143D02*
Y73143D01*
X85629Y66613D02*
Y68513D01*
X89629Y66613D02*
Y68513D01*
X85629Y66613D02*
X89629D01*
X85629Y68513D02*
X89629D01*
X87129Y67563D02*
X88129D01*
X87629Y67063D02*
Y68063D01*
X99789Y64073D02*
Y65973D01*
X95789Y64073D02*
Y65973D01*
X99789*
X95789Y64073D02*
X99789D01*
X97289Y65023D02*
X98289D01*
X97789Y64523D02*
Y65523D01*
X99789Y69153D02*
Y71053D01*
X95789Y69153D02*
Y71053D01*
X99789*
X95789Y69153D02*
X99789D01*
X97289Y70103D02*
X98289D01*
X97789Y69603D02*
Y70603D01*
X99789Y74233D02*
Y76133D01*
X95789Y74233D02*
Y76133D01*
X99789*
X95789Y74233D02*
X99789D01*
X97289Y75183D02*
X98289D01*
X97789Y74683D02*
Y75683D01*
X99789Y79313D02*
Y81213D01*
X95789Y79313D02*
Y81213D01*
X99789*
X95789Y79313D02*
X99789D01*
X97289Y80263D02*
X98289D01*
X97789Y79763D02*
Y80763D01*
X59784Y109793D02*
Y111693D01*
X55784Y109793D02*
Y111693D01*
X59784*
X55784Y109793D02*
X59784D01*
X57284Y110743D02*
X58284D01*
X57784Y110243D02*
Y111243D01*
X59784Y104713D02*
Y106613D01*
X55784Y104713D02*
Y106613D01*
X59784*
X55784Y104713D02*
X59784D01*
X57284Y105663D02*
X58284D01*
X57784Y105163D02*
Y106163D01*
X59784Y99633D02*
Y101533D01*
X55784Y99633D02*
Y101533D01*
X59784*
X55784Y99633D02*
X59784D01*
X57284Y100583D02*
X58284D01*
X57784Y100083D02*
Y101083D01*
X59784Y94553D02*
Y96453D01*
X55784Y94553D02*
Y96453D01*
X59784*
X55784Y94553D02*
X59784D01*
X57284Y95503D02*
X58284D01*
X57784Y95003D02*
Y96003D01*
X45624Y112333D02*
Y114233D01*
X49624Y112333D02*
Y114233D01*
X45624Y112333D02*
X49624D01*
X45624Y114233D02*
X49624D01*
X47124Y113283D02*
X48124D01*
X47624Y112783D02*
Y113783D01*
X45624Y107253D02*
Y109153D01*
X49624Y107253D02*
Y109153D01*
X45624Y107253D02*
X49624D01*
X45624Y109153D02*
X49624D01*
X47124Y108203D02*
X48124D01*
X47624Y107703D02*
Y108703D01*
X45624Y94553D02*
Y96453D01*
X49624Y94553D02*
Y96453D01*
X45624Y94553D02*
X49624D01*
X45624Y96453D02*
X49624D01*
X47124Y95503D02*
X48124D01*
X47624Y95003D02*
Y96003D01*
X45624Y102173D02*
Y104073D01*
X49624Y102173D02*
Y104073D01*
X45624Y102173D02*
X49624D01*
X45624Y104073D02*
X49624D01*
X47124Y103123D02*
X48124D01*
X47624Y102623D02*
Y103623D01*
X85629Y112333D02*
Y114233D01*
X89629Y112333D02*
Y114233D01*
X85629Y112333D02*
X89629D01*
X85629Y114233D02*
X89629D01*
X87129Y113283D02*
X88129D01*
X87629Y112783D02*
Y113783D01*
X85629Y107253D02*
Y109153D01*
X89629Y107253D02*
Y109153D01*
X85629Y107253D02*
X89629D01*
X85629Y109153D02*
X89629D01*
X87129Y108203D02*
X88129D01*
X87629Y107703D02*
Y108703D01*
X85629Y102173D02*
Y104073D01*
X89629Y102173D02*
Y104073D01*
X85629Y102173D02*
X89629D01*
X85629Y104073D02*
X89629D01*
X87129Y103123D02*
X88129D01*
X87629Y102623D02*
Y103623D01*
X85629Y97093D02*
Y98993D01*
X89629Y97093D02*
Y98993D01*
X85629Y97093D02*
X89629D01*
X85629Y98993D02*
X89629D01*
X87129Y98043D02*
X88129D01*
X87629Y97543D02*
Y98543D01*
X99789Y94553D02*
Y96453D01*
X95789Y94553D02*
Y96453D01*
X99789*
X95789Y94553D02*
X99789D01*
X97289Y95503D02*
X98289D01*
X97789Y95003D02*
Y96003D01*
X99789Y99633D02*
Y101533D01*
X95789Y99633D02*
Y101533D01*
X99789*
X95789Y99633D02*
X99789D01*
X97289Y100583D02*
X98289D01*
X97789Y100083D02*
Y101083D01*
X99789Y104713D02*
Y106613D01*
X95789Y104713D02*
Y106613D01*
X99789*
X95789Y104713D02*
X99789D01*
X97289Y105663D02*
X98289D01*
X97789Y105163D02*
Y106163D01*
X99789Y109793D02*
Y111693D01*
X95789Y109793D02*
Y111693D01*
X99789*
X95789Y109793D02*
X99789D01*
X97289Y110743D02*
X98289D01*
X97789Y110243D02*
Y111243D01*
M02*