%FSLAX43Y43*%
%MOMM*%
%SFA1B1*%

%IPPOS*%
%ADD10R,1.015998X2.539995*%
%ADD11R,0.899998X0.799998*%
%ADD12R,0.999998X1.299997*%
%ADD13R,3.099994X2.399995*%
%ADD14R,0.449999X2.199996*%
%ADD15R,0.799998X0.899998*%
%ADD16R,0.799998X0.349999*%
%ADD17R,2.539995X1.015998*%
%ADD18R,3.809992X2.793994*%
%ADD19R,10.999978X3.999992*%
%LNlp_led_cube_8x8x8-1*%
%LPD*%
G54D10*
X118617Y84835D03*
Y78993D03*
G54D11*
X116966Y111824D03*
Y110424D03*
X125856Y113980D03*
Y115380D03*
X126491Y110427D03*
Y109027D03*
X118744Y113980D03*
Y115380D03*
G54D12*
X121373Y117474D03*
X122973D03*
X117436D03*
X119036D03*
G54D13*
X122300Y107568D03*
G54D14*
X124175Y104693D03*
X121675D03*
X120425D03*
X122925D03*
Y110443D03*
X120425D03*
X121675D03*
X124175D03*
G54D15*
X139990Y73659D03*
X141390D03*
X139990Y78485D03*
X141390D03*
X137323Y73659D03*
X138723D03*
X137323Y78485D03*
X138723D03*
X128356D03*
X129756D03*
X125689Y73659D03*
X127089D03*
X125689Y78485D03*
X127089D03*
X128356Y73659D03*
X129756D03*
X139990Y85978D03*
X141390D03*
X137323D03*
X138723D03*
X137323Y81152D03*
X138723D03*
X139990D03*
X141390D03*
X125689Y85978D03*
X127089D03*
X125689Y81152D03*
X127089D03*
X128356Y85978D03*
X129756D03*
X128356Y81152D03*
X129756D03*
X137323Y58673D03*
X138723D03*
X137323Y63499D03*
X138723D03*
X125689Y58673D03*
X127089D03*
X139990Y63499D03*
X141390D03*
X128356D03*
X129756D03*
X125689D03*
X127089D03*
X139990Y58673D03*
X141390D03*
X128356D03*
X129756D03*
X139990Y66166D03*
X141390D03*
X137323D03*
X138723D03*
X137323Y70992D03*
X138723D03*
X125689D03*
X127089D03*
X128356Y66166D03*
X129756D03*
X125689D03*
X127089D03*
X139990Y70992D03*
X141390D03*
X128356D03*
X129756D03*
G54D16*
X140639Y75132D03*
X138226D03*
X140639Y76072D03*
X138226Y77012D03*
Y76072D03*
X140639Y77012D03*
X129006Y75132D03*
X126593D03*
X129006Y76072D03*
X126593Y77012D03*
Y76072D03*
X129006Y77012D03*
X140639Y82625D03*
X138226D03*
X140639Y83565D03*
X138226Y84505D03*
Y83565D03*
X140639Y84505D03*
X129006Y82625D03*
X126593D03*
X129006Y83565D03*
X126593Y84505D03*
Y83565D03*
X129006Y84505D03*
X140639Y60146D03*
X138226D03*
X140639Y61086D03*
X138226Y62026D03*
Y61086D03*
X140639Y62026D03*
X129006Y60146D03*
X126593D03*
X129006Y61086D03*
X126593Y62026D03*
Y61086D03*
X129006Y62026D03*
X140639Y67639D03*
X138226D03*
X140639Y68579D03*
X138226Y69519D03*
Y68579D03*
X140639Y69519D03*
X129006Y67639D03*
X126593D03*
X129006Y68579D03*
X126593Y69519D03*
Y68579D03*
X129006Y69519D03*
G54D17*
X132079Y100329D03*
X137921D03*
G54D18*
X131571Y114934D03*
Y107314D03*
G54D19*
X123062Y99059D03*
Y91947D03*
M02*