%FSLAX43Y43*%
%MOMM*%
%SFA1B1*%

%IPPOS*%
%ADD10R,0.899160X0.800100*%
%ADD11R,0.800100X0.899160*%
%ADD17R,1.399540X1.198880*%
%ADD31C,0.254000*%
%ADD32C,0.508000*%
%ADD33C,0.381000*%
%ADD34C,0.635000*%
%ADD45C,0.762000*%
%ADD46C,2.999740*%
%ADD47C,1.016000*%
%ADD48C,1.524000*%
%ADD49C,1.501140*%
%ADD50R,1.501140X1.501140*%
%ADD51C,1.778000*%
%ADD52C,1.600200*%
%ADD53C,3.810000*%
%ADD54R,1.501140X1.501140*%
%ADD55C,2.032000*%
%ADD56C,1.270000*%
%ADD57C,3.556000*%
%ADD58R,1.524000X1.524000*%
%ADD59C,4.759960*%
%ADD60R,1.689100X1.689100*%
%ADD61C,1.689100*%
%ADD62C,4.000500*%
%ADD63R,1.000760X1.300480*%
%ADD64R,1.000760X1.800860*%
%ADD65R,2.794000X2.540000*%
%ADD66O,2.100580X0.449580*%
%ADD67R,9.525000X2.159000*%
%LNlp_led_cube_8x8x8-1*%
%LPD*%
G36*
X165346Y41409D02*
X33408D01*
Y113276*
X165346*
Y41409*
G37*
%LNlp_led_cube_8x8x8-2*%
%LPC*%
G36*
X99428Y53847D02*
X98932D01*
Y53352*
X99054Y53375*
X99263Y53517*
X99402Y53726*
X99428Y53847*
G37*
G36*
X98678Y54597D02*
X98557Y54574D01*
X98348Y54432*
X98209Y54223*
X98183Y54101*
X98678*
Y54597*
G37*
G36*
X98932D02*
Y54101D01*
X99428*
X99402Y54223*
X99263Y54432*
X99054Y54574*
X98932Y54597*
G37*
G36*
X98678Y53847D02*
X98183D01*
X98209Y53726*
X98348Y53517*
X98557Y53375*
X98678Y53352*
Y53847*
G37*
G36*
X140715Y52824D02*
X140578Y52806D01*
X140329Y52702*
X140119Y52539*
X139956Y52329*
X139852Y52080*
X139834Y51942*
X140715*
Y52824*
G37*
G36*
X140969D02*
Y51942D01*
X141851*
X141833Y52080*
X141729Y52329*
X141566Y52539*
X141356Y52702*
X141107Y52806*
X140969Y52824*
G37*
G36*
X60705Y54744D02*
X60507Y54716D01*
X60322Y54640*
X60162Y54518*
X60040Y54358*
X59964Y54173*
X59936Y53974*
X59964Y53776*
X60040Y53591*
X60162Y53431*
X60322Y53309*
X60507Y53233*
X60705Y53205*
X60904Y53233*
X61089Y53309*
X61249Y53431*
X61371Y53591*
X61447Y53776*
X61475Y53974*
X61447Y54173*
X61371Y54358*
X61249Y54518*
X61089Y54640*
X60904Y54716*
X60705Y54744*
G37*
G36*
X162559Y56258D02*
X162298Y56222D01*
X162054Y56121*
X161843Y55961*
X161683Y55750*
X161582Y55506*
X161546Y55244*
X161582Y54983*
X161683Y54739*
X161843Y54528*
X162054Y54368*
X162298Y54267*
X162559Y54231*
X162821Y54267*
X163065Y54368*
X163276Y54528*
X163436Y54739*
X163537Y54983*
X163573Y55244*
X163537Y55506*
X163436Y55750*
X163276Y55961*
X163065Y56121*
X162821Y56222*
X162559Y56258*
G37*
G36*
X88968Y56702D02*
X88391D01*
Y56177*
X88968*
Y56702*
G37*
G36*
X72435Y58488D02*
X72364D01*
X72344*
X71036*
Y58173*
X70611*
X70462Y58143*
X70337Y58059*
X68305Y56027*
X68221Y55902*
X68191Y55752*
Y52387*
X68221Y52237*
X68305Y52113*
X68910Y51506*
X68859Y51381*
X68826Y51117*
X68859Y50853*
X68963Y50604*
X69126Y50393*
X69336Y50231*
X69585Y50126*
X69849Y50093*
X70114Y50126*
X70363Y50231*
X70573Y50393*
X70736Y50604*
X70840Y50853*
X70873Y51117*
X70840Y51381*
X70736Y51630*
X70573Y51841*
X70363Y52003*
X70205Y52069*
Y52196*
X70363Y52263*
X70573Y52425*
X70736Y52636*
X70840Y52885*
X70873Y53149*
X70840Y53413*
X70736Y53662*
X70573Y53873*
X70363Y54035*
X70238Y54089*
Y55084*
X70919Y55763*
X71036Y55714*
Y55557*
X72344*
X72435*
X73743*
Y55730*
X73855Y55791*
X74046Y55664*
X74294Y55613*
X74543Y55664*
X74734Y55791*
X74846Y55730*
Y55557*
X76154*
X76245*
X76774*
Y56260*
X76901*
Y56387*
X77553*
Y56964*
Y57081*
Y57657*
X76901*
Y57784*
X76774*
Y58488*
X76245*
X76154*
X74846*
Y58315*
X74734Y58254*
X74543Y58381*
X74294Y58432*
X74046Y58381*
X73855Y58254*
X73743Y58315*
Y58488*
X72435*
G37*
G36*
X43179Y58935D02*
X42948Y58905D01*
X42730Y58816*
X42544Y58673*
X42402Y58488*
X42313Y58270*
X42283Y58038*
X42313Y57807*
X42402Y57589*
X42544Y57403*
X42730Y57261*
X42948Y57172*
X43179Y57142*
X43411Y57172*
X43629Y57261*
X43814Y57403*
X43957Y57589*
X44046Y57807*
X44076Y58038*
X44046Y58270*
X43957Y58488*
X43814Y58673*
X43629Y58816*
X43411Y58905*
X43179Y58935*
G37*
G36*
X88137Y56702D02*
X87561D01*
Y56177*
X88137*
Y56702*
G37*
G36*
X44449Y56395D02*
X44218Y56365D01*
X44000Y56276*
X43814Y56133*
X43672Y55948*
X43583Y55730*
X43553Y55498*
X43583Y55267*
X43672Y55049*
X43814Y54863*
X44000Y54721*
X44218Y54632*
X44449Y54602*
X44681Y54632*
X44899Y54721*
X45084Y54863*
X45227Y55049*
X45316Y55267*
X45346Y55498*
X45316Y55730*
X45227Y55948*
X45084Y56133*
X44899Y56276*
X44681Y56365*
X44449Y56395*
G37*
G36*
X54609D02*
X54378Y56365D01*
X54160Y56276*
X53974Y56133*
X53832Y55948*
X53743Y55730*
X53713Y55498*
X53743Y55267*
X53832Y55049*
X53974Y54863*
X54160Y54721*
X54378Y54632*
X54609Y54602*
X54841Y54632*
X55059Y54721*
X55244Y54863*
X55387Y55049*
X55476Y55267*
X55506Y55498*
X55476Y55730*
X55387Y55948*
X55244Y56133*
X55059Y56276*
X54841Y56365*
X54609Y56395*
G37*
G36*
X77553Y56133D02*
X77028D01*
Y55557*
X77553*
Y56133*
G37*
G36*
X72262Y50990D02*
X71381D01*
X71399Y50853*
X71503Y50604*
X71666Y50393*
X71876Y50231*
X72125Y50126*
X72262Y50109*
Y50990*
G37*
G36*
X73398D02*
X72516D01*
Y50109*
X72654Y50126*
X72903Y50231*
X73113Y50393*
X73276Y50604*
X73380Y50853*
X73398Y50990*
G37*
G36*
X143636Y52839D02*
X143372Y52806D01*
X143123Y52702*
X142913Y52539*
X142750Y52329*
X142646Y52080*
X142613Y51815*
X142646Y51551*
X142750Y51302*
X142913Y51092*
X143123Y50929*
X143372Y50825*
X143636Y50792*
X143901Y50825*
X144150Y50929*
X144360Y51092*
X144523Y51302*
X144627Y51551*
X144660Y51815*
X144627Y52080*
X144523Y52329*
X144360Y52539*
X144150Y52702*
X143901Y52806*
X143636Y52839*
G37*
G36*
X153606Y54175D02*
X153182Y54135D01*
X152775Y54010*
X152399Y53809*
X152072Y53540*
X151803Y53212*
X151602Y52837*
X151477Y52430*
X151437Y52006*
X151477Y51582*
X151602Y51175*
X151803Y50799*
X152072Y50472*
X152399Y50203*
X152775Y50002*
X153182Y49877*
X153606Y49837*
X154030Y49877*
X154437Y50002*
X154812Y50203*
X155140Y50472*
X155409Y50799*
X155610Y51175*
X163448*
X163548Y51196*
X163631Y51252*
X163687Y51335*
X163708Y51434*
Y53593*
X163687Y53693*
X163631Y53776*
X163548Y53832*
X163448Y53853*
X154731*
X154437Y54010*
X154030Y54135*
X153606Y54175*
G37*
G36*
X158178Y50987D02*
Y48958D01*
X160207*
X160180Y49255*
X160055Y49662*
X159854Y50037*
X159585Y50365*
X159257Y50634*
X158882Y50835*
X158475Y50960*
X158178Y50987*
G37*
G36*
X109903Y50111D02*
X109743Y50091D01*
X109476Y49979*
X109245Y49804*
X109070Y49573*
X108958Y49306*
X108938Y49146*
X109903*
Y50111*
G37*
G36*
X110157D02*
Y49146D01*
X111122*
X111099Y49306*
X110990Y49573*
X110812Y49804*
X110583Y49979*
X110317Y50091*
X110157Y50111*
G37*
G36*
X140715Y51688D02*
X139834D01*
X139852Y51551*
X139956Y51302*
X140119Y51092*
X140329Y50929*
X140578Y50825*
X140715Y50807*
Y51688*
G37*
G36*
X73405Y54165D02*
X71373D01*
Y52133*
X71861*
X71887Y52009*
X71876Y52003*
X71666Y51841*
X71503Y51630*
X71399Y51381*
X71381Y51244*
X73398*
X73380Y51381*
X73276Y51630*
X73113Y51841*
X72903Y52003*
X72892Y52009*
X72918Y52133*
X73405*
Y54165*
G37*
G36*
X48132Y51876D02*
X47556D01*
Y51351*
X48132*
Y51876*
G37*
G36*
X50233D02*
X49656D01*
Y51351*
X50233*
Y51876*
G37*
G36*
X107314Y53093D02*
X107050Y53060D01*
X106801Y52956*
X106591Y52793*
X106428Y52583*
X106324Y52334*
X106291Y52069*
X106324Y51805*
X106428Y51556*
X106591Y51346*
X106801Y51183*
X107050Y51079*
X107314Y51046*
X107579Y51079*
X107828Y51183*
X108038Y51346*
X108201Y51556*
X108305Y51805*
X108338Y52069*
X108305Y52334*
X108201Y52583*
X108038Y52793*
X107828Y52956*
X107579Y53060*
X107314Y53093*
G37*
G36*
X141851Y51688D02*
X140969D01*
Y50807*
X141107Y50825*
X141356Y50929*
X141566Y51092*
X141729Y51302*
X141833Y51551*
X141851Y51688*
G37*
G36*
X40639Y53477D02*
X40307Y53433D01*
X39999Y53306*
X39733Y53103*
X39530Y52837*
X39403Y52529*
X39359Y52196*
X39403Y51864*
X39530Y51556*
X39733Y51290*
X39999Y51087*
X40307Y50960*
X40639Y50916*
X40972Y50960*
X41280Y51087*
X41546Y51290*
X41749Y51556*
X41876Y51864*
X41920Y52196*
X41876Y52529*
X41749Y52837*
X41546Y53103*
X41280Y53306*
X40972Y53433*
X40639Y53477*
G37*
G36*
X57149D02*
X56817Y53433D01*
X56509Y53306*
X56243Y53103*
X56040Y52837*
X55913Y52529*
X55869Y52196*
X55913Y51864*
X56040Y51556*
X56243Y51290*
X56509Y51087*
X56817Y50960*
X57149Y50916*
X57482Y50960*
X57790Y51087*
X58056Y51290*
X58259Y51556*
X58386Y51864*
X58430Y52196*
X58386Y52529*
X58259Y52837*
X58056Y53103*
X57790Y53306*
X57482Y53433*
X57149Y53477*
G37*
G36*
X45719Y58935D02*
X45488Y58905D01*
X45270Y58816*
X45084Y58673*
X44942Y58488*
X44853Y58270*
X44823Y58038*
X44853Y57807*
X44942Y57589*
X45084Y57403*
X45270Y57261*
X45488Y57172*
X45719Y57142*
X45951Y57172*
X46169Y57261*
X46354Y57403*
X46497Y57589*
X46586Y57807*
X46616Y58038*
X46586Y58270*
X46497Y58488*
X46354Y58673*
X46169Y58816*
X45951Y58905*
X45719Y58935*
G37*
G36*
X78485Y65417D02*
X78237Y65366D01*
X78028Y65227*
X77889Y65018*
X77838Y64769*
X77889Y64521*
X78028Y64312*
X78097Y64267*
Y64134*
X76834*
Y61086*
X78798*
Y60774*
X78531*
X78440*
X77911*
Y60070*
Y59367*
X78440*
X78531*
X79839*
Y60774*
X79575*
Y61086*
X80136*
Y64134*
X78874*
Y64267*
X78943Y64312*
X79082Y64521*
X79133Y64769*
X79082Y65018*
X78943Y65227*
X78734Y65366*
X78485Y65417*
G37*
G36*
X156082Y62102D02*
X155074D01*
X155097Y61932*
X155211Y61653*
X155394Y61414*
X155633Y61231*
X155912Y61117*
X156082Y61094*
Y62102*
G37*
G36*
X157345D02*
X156336D01*
Y61094*
X156507Y61117*
X156786Y61231*
X157025Y61414*
X157208Y61653*
X157322Y61932*
X157345Y62102*
G37*
G36*
X75648Y61282D02*
X75123D01*
Y60705*
X75648*
Y61282*
G37*
G36*
X77657Y60774D02*
X77132D01*
Y60197*
X77657*
Y60774*
G37*
G36*
X83395D02*
X82870D01*
Y60197*
X83395*
Y60774*
G37*
G36*
X68894Y61282D02*
X68369D01*
Y60705*
X68894*
Y61282*
G37*
G36*
X43814Y62036D02*
X43238D01*
Y61511*
X43814*
Y62036*
G37*
G36*
X156082Y63365D02*
X155912Y63342D01*
X155633Y63228*
X155394Y63045*
X155211Y62806*
X155097Y62527*
X155074Y62356*
X156082*
Y63365*
G37*
G36*
X156336D02*
Y62356D01*
X157345*
X157322Y62527*
X157208Y62806*
X157025Y63045*
X156786Y63228*
X156507Y63342*
X156336Y63365*
G37*
G36*
X52196Y65671D02*
X51948Y65620D01*
X51739Y65481*
X51600Y65272*
X51549Y65023*
X51600Y64775*
X51739Y64566*
X51808Y64521*
Y64218*
X51493*
Y62910*
Y62819*
Y62290*
X52900*
Y62819*
Y62910*
Y64218*
X52585*
Y64521*
X52654Y64566*
X52796Y64775*
X52844Y65023*
X52796Y65272*
X52654Y65481*
X52445Y65620*
X52196Y65671*
G37*
G36*
X107314Y63870D02*
X107116Y63845D01*
X106931Y63769*
X106771Y63647*
X106649Y63487*
X106573Y63301*
X106545Y63103*
X106573Y62905*
X106649Y62720*
X106771Y62560*
X106931Y62438*
X107116Y62362*
X107314Y62334*
X107513Y62362*
X107698Y62438*
X107858Y62560*
X107980Y62720*
X108056Y62905*
X108084Y63103*
X108056Y63301*
X107980Y63487*
X107858Y63647*
X107698Y63769*
X107513Y63845*
X107314Y63870*
G37*
G36*
X44645Y62036D02*
X44068D01*
Y61511*
X44645*
Y62036*
G37*
G36*
X52069D02*
X51493D01*
Y61511*
X52069*
Y62036*
G37*
G36*
X52900D02*
X52323D01*
Y61511*
X52900*
Y62036*
G37*
G36*
X88264Y60972D02*
X88016Y60924D01*
X87807Y60782*
X87668Y60573*
X87617Y60324*
X87668Y60076*
X87807Y59867*
X87876Y59822*
Y58884*
X87561*
Y57576*
Y57485*
Y56956*
X88968*
Y57485*
Y57576*
Y58884*
X88653*
Y59822*
X88722Y59867*
X88861Y60076*
X88912Y60324*
X88861Y60573*
X88722Y60782*
X88513Y60924*
X88264Y60972*
G37*
G36*
X77553Y58488D02*
X77028D01*
Y57911*
X77553*
Y58488*
G37*
G36*
X129158Y59301D02*
X129021Y59283D01*
X128772Y59179*
X128562Y59016*
X128399Y58806*
X128295Y58557*
X128277Y58419*
X129158*
Y59301*
G37*
G36*
X130294Y58165D02*
X129412D01*
Y57284*
X129550Y57302*
X129799Y57406*
X130009Y57569*
X130172Y57779*
X130276Y58028*
X130294Y58165*
G37*
G36*
X53339Y58935D02*
X53108Y58905D01*
X52890Y58816*
X52704Y58673*
X52562Y58488*
X52473Y58270*
X52443Y58038*
X52473Y57807*
X52562Y57589*
X52704Y57403*
X52890Y57261*
X53108Y57172*
X53339Y57142*
X53571Y57172*
X53789Y57261*
X53974Y57403*
X54117Y57589*
X54206Y57807*
X54236Y58038*
X54206Y58270*
X54117Y58488*
X53974Y58673*
X53789Y58816*
X53571Y58905*
X53339Y58935*
G37*
G36*
X50799D02*
X50568Y58905D01*
X50350Y58816*
X50164Y58673*
X50022Y58488*
X49933Y58270*
X49903Y58038*
X49933Y57807*
X50022Y57589*
X50164Y57403*
X50332Y57276*
X50291Y57157*
X48767*
X48727Y57276*
X48894Y57403*
X49037Y57589*
X49126Y57807*
X49156Y58038*
X49126Y58270*
X49037Y58488*
X48894Y58673*
X48709Y58816*
X48491Y58905*
X48259Y58935*
X48028Y58905*
X47810Y58816*
X47624Y58673*
X47482Y58488*
X47393Y58270*
X47363Y58038*
X47393Y57807*
X47482Y57589*
X47624Y57403*
X47810Y57261*
X47871Y57238*
Y56768*
Y56006*
X47751Y55966*
X47624Y56133*
X47439Y56276*
X47221Y56365*
X46989Y56395*
X46758Y56365*
X46540Y56276*
X46354Y56133*
X46212Y55948*
X46123Y55730*
X46093Y55498*
X46123Y55267*
X46212Y55049*
X46354Y54863*
X46540Y54721*
X46758Y54632*
X46989Y54602*
X47221Y54632*
X47439Y54721*
X47624Y54863*
X47751Y55031*
X47871Y54990*
Y54058*
X47556*
Y52750*
Y52659*
Y52130*
X48259*
Y52003*
X48386*
Y51351*
X49402*
Y52003*
X49529*
Y52130*
X50233*
Y52659*
Y52750*
Y53017*
X51247*
X51394Y53045*
X51521Y53129*
X52344Y53954*
X52428Y54079*
X52458Y54228*
Y54698*
X52519Y54721*
X52704Y54863*
X52847Y55049*
X52936Y55267*
X52966Y55498*
X52936Y55730*
X52847Y55948*
X52704Y56133*
X52519Y56276*
X52301Y56365*
X52069Y56395*
X51838Y56365*
X51777Y56339*
X51074Y57043*
X51051Y57058*
X51064Y57185*
X51249Y57261*
X51434Y57403*
X51577Y57589*
X51666Y57807*
X51696Y58038*
X51666Y58270*
X51577Y58488*
X51434Y58673*
X51249Y58816*
X51031Y58905*
X50799Y58935*
G37*
G36*
X129158Y58165D02*
X128277D01*
X128295Y58028*
X128399Y57779*
X128562Y57569*
X128772Y57406*
X129021Y57302*
X129158Y57284*
Y58165*
G37*
G36*
X129412Y59301D02*
Y58419D01*
X130294*
X130276Y58557*
X130172Y58806*
X130009Y59016*
X129799Y59179*
X129550Y59283*
X129412Y59301*
G37*
G36*
X68894Y60451D02*
X68369D01*
Y59875*
X68894*
Y60451*
G37*
G36*
X75648D02*
X75123D01*
Y59875*
X75648*
Y60451*
G37*
G36*
X129285Y62110D02*
X129021Y62077D01*
X128772Y61973*
X128562Y61810*
X128399Y61600*
X128295Y61351*
X128262Y61086*
X128295Y60822*
X128399Y60573*
X128562Y60363*
X128772Y60200*
X129021Y60096*
X129285Y60063*
X129550Y60096*
X129799Y60200*
X130009Y60363*
X130172Y60573*
X130276Y60822*
X130309Y61086*
X130276Y61351*
X130172Y61600*
X130009Y61810*
X129799Y61973*
X129550Y62077*
X129285Y62110*
G37*
G36*
X85724Y59829D02*
X85476Y59778D01*
X85267Y59639*
X85153Y59469*
X85026*
X84912Y59639*
X84703Y59778*
X84454Y59829*
X84206Y59778*
X83997Y59639*
X83858Y59430*
X83807Y59181*
X83858Y58933*
X83997Y58724*
X84066Y58679*
Y50391*
X82275Y48600*
X82191Y48473*
X82161Y48326*
Y47708*
X81846*
Y46400*
Y46309*
Y46108*
X80832*
X80660Y46073*
X80512Y45976*
X79689Y45151*
X79590Y45003*
X79557Y44830*
Y44513*
X79479Y44480*
X79258Y44312*
X79090Y44091*
X78983Y43835*
X78945Y43560*
X78983Y43286*
X79090Y43030*
X79258Y42809*
X79479Y42641*
X79735Y42534*
X80009Y42496*
X80284Y42534*
X80540Y42641*
X80761Y42809*
X80929Y43030*
X81036Y43286*
X81074Y43560*
X81036Y43835*
X80929Y44091*
X80761Y44312*
X80540Y44480*
X80462Y44513*
Y44643*
X81020Y45201*
X81846*
Y45001*
X83253*
Y46309*
Y46400*
Y47708*
X82938*
Y48163*
X84584Y49809*
X84701Y49761*
Y47708*
X84386*
Y46400*
Y46309*
Y45001*
X84637*
Y44513*
X84559Y44480*
X84338Y44312*
X84170Y44091*
X84063Y43835*
X84025Y43560*
X84063Y43286*
X84170Y43030*
X84338Y42809*
X84559Y42641*
X84815Y42534*
X85089Y42496*
X85364Y42534*
X85620Y42641*
X85841Y42809*
X86009Y43030*
X86116Y43286*
X86154Y43560*
X86116Y43835*
X86009Y44091*
X85841Y44312*
X85620Y44480*
X85542Y44513*
Y45001*
X85793*
Y46309*
Y46400*
Y47708*
X85478*
Y58386*
X85643Y58552*
X85724Y58534*
X85973Y58582*
X86182Y58724*
X86324Y58933*
X86372Y59181*
X86324Y59430*
X86182Y59639*
X85973Y59778*
X85724Y59829*
G37*
G36*
X77657Y59943D02*
X77132D01*
Y59367*
X77657*
Y59943*
G37*
G36*
X82041Y65417D02*
X81793Y65366D01*
X81584Y65227*
X81442Y65018*
X81394Y64769*
X81442Y64521*
X81584Y64312*
X81653Y64267*
Y64134*
X80390*
Y61086*
X80952*
Y60774*
X80688*
Y59367*
X81996*
X82087*
X82616*
Y60070*
Y60774*
X82087*
X81996*
X81729*
Y61086*
X83692*
Y64134*
X82430*
Y64267*
X82499Y64312*
X82641Y64521*
X82689Y64769*
X82641Y65018*
X82499Y65227*
X82290Y65366*
X82041Y65417*
G37*
G36*
X83395Y59943D02*
X82870D01*
Y59367*
X83395*
Y59943*
G37*
G36*
X36956Y47083D02*
Y44957D01*
X39082*
X39052Y45272*
X38922Y45697*
X38712Y46088*
X38432Y46433*
X38087Y46713*
X37696Y46923*
X37271Y47053*
X36956Y47083*
G37*
G36*
X161797D02*
X161483Y47053D01*
X161058Y46923*
X160667Y46713*
X160322Y46433*
X160042Y46088*
X159832Y45697*
X159702Y45272*
X159672Y44957*
X161797*
Y47083*
G37*
G36*
X162051D02*
Y44957D01*
X164177*
X164147Y45272*
X164017Y45697*
X163807Y46088*
X163527Y46433*
X163182Y46713*
X162791Y46923*
X162366Y47053*
X162051Y47083*
G37*
G36*
X36702D02*
X36388Y47053D01*
X35963Y46923*
X35572Y46713*
X35227Y46433*
X34947Y46088*
X34737Y45697*
X34607Y45272*
X34577Y44957*
X36702*
Y47083*
G37*
G36*
X53085Y46108D02*
X52821Y46075D01*
X52572Y45971*
X52362Y45808*
X52199Y45598*
X52095Y45349*
X52062Y45084*
X52095Y44820*
X52199Y44571*
X52362Y44361*
X52572Y44198*
X52821Y44094*
X53085Y44061*
X53350Y44094*
X53599Y44198*
X53809Y44361*
X53972Y44571*
X54076Y44820*
X54109Y45084*
X54076Y45349*
X53972Y45598*
X53809Y45808*
X53599Y45971*
X53350Y46075*
X53085Y46108*
G37*
G36*
X92011Y45077D02*
X91874Y45059D01*
X91625Y44955*
X91414Y44792*
X91252Y44582*
X91147Y44333*
X91130Y44195*
X92011*
Y45077*
G37*
G36*
X92265D02*
Y44195D01*
X93146*
X93129Y44333*
X93024Y44582*
X92862Y44792*
X92651Y44955*
X92402Y45059*
X92265Y45077*
G37*
G36*
X102948Y47472D02*
X100441D01*
X100464Y47185*
X100561Y46784*
X100721Y46400*
X100937Y46047*
X101206Y45732*
X101521Y45463*
X101874Y45245*
X102257Y45087*
X102661Y44991*
X102948Y44968*
Y47472*
G37*
G36*
X114185Y47289D02*
X113898Y47251D01*
X113631Y47139*
X113400Y46964*
X113225Y46733*
X113113Y46466*
X113075Y46179*
X113113Y45892*
X113225Y45626*
X113400Y45397*
X113631Y45219*
X113898Y45110*
X114185Y45072*
X114472Y45110*
X114739Y45219*
X114968Y45397*
X115145Y45626*
X115255Y45892*
X115293Y46179*
X115255Y46466*
X115145Y46733*
X114968Y46964*
X114739Y47139*
X114472Y47251*
X114185Y47289*
G37*
G36*
X116954D02*
X116667Y47251D01*
X116400Y47139*
X116171Y46964*
X115994Y46733*
X115884Y46466*
X115846Y46179*
X115884Y45892*
X115994Y45626*
X116171Y45397*
X116400Y45219*
X116667Y45110*
X116954Y45072*
X117241Y45110*
X117508Y45219*
X117739Y45397*
X117914Y45626*
X118026Y45892*
X118064Y46179*
X118026Y46466*
X117914Y46733*
X117739Y46964*
X117508Y47139*
X117241Y47251*
X116954Y47289*
G37*
G36*
X119725D02*
X119438Y47251D01*
X119171Y47139*
X118940Y46964*
X118765Y46733*
X118653Y46466*
X118615Y46179*
X118653Y45892*
X118765Y45626*
X118940Y45397*
X119171Y45219*
X119438Y45110*
X119725Y45072*
X120012Y45110*
X120279Y45219*
X120507Y45397*
X120685Y45626*
X120794Y45892*
X120832Y46179*
X120794Y46466*
X120685Y46733*
X120507Y46964*
X120279Y47139*
X120012Y47251*
X119725Y47289*
G37*
G36*
X111414D02*
X111127Y47251D01*
X110860Y47139*
X110632Y46964*
X110454Y46733*
X110345Y46466*
X110307Y46179*
X110345Y45892*
X110454Y45626*
X110632Y45397*
X110860Y45219*
X111127Y45110*
X111414Y45072*
X111701Y45110*
X111968Y45219*
X112199Y45397*
X112374Y45626*
X112486Y45892*
X112524Y46179*
X112486Y46466*
X112374Y46733*
X112199Y46964*
X111968Y47139*
X111701Y47251*
X111414Y47289*
G37*
G36*
X105707Y47472D02*
X103202D01*
Y44968*
X103487Y44991*
X103891Y45087*
X104274Y45245*
X104627Y45463*
X104942Y45732*
X105211Y46047*
X105430Y46400*
X105587Y46784*
X105684Y47185*
X105707Y47472*
G37*
G36*
X127937D02*
X125432D01*
X125455Y47185*
X125552Y46784*
X125709Y46400*
X125928Y46047*
X126197Y45732*
X126512Y45463*
X126865Y45245*
X127248Y45087*
X127652Y44991*
X127937Y44968*
Y47472*
G37*
G36*
X130698D02*
X128191D01*
Y44968*
X128478Y44991*
X128882Y45087*
X129265Y45245*
X129618Y45463*
X129933Y45732*
X130202Y46047*
X130418Y46400*
X130578Y46784*
X130675Y47185*
X130698Y47472*
G37*
G36*
X140969Y44625D02*
X140695Y44587D01*
X140439Y44480*
X140218Y44312*
X140050Y44091*
X139943Y43835*
X139905Y43560*
X139943Y43286*
X140050Y43030*
X140218Y42809*
X140439Y42641*
X140695Y42534*
X140969Y42496*
X141244Y42534*
X141500Y42641*
X141721Y42809*
X141889Y43030*
X141996Y43286*
X142034Y43560*
X141996Y43835*
X141889Y44091*
X141721Y44312*
X141500Y44480*
X141244Y44587*
X140969Y44625*
G37*
G36*
X36702Y44703D02*
X34577D01*
X34607Y44389*
X34737Y43964*
X34947Y43573*
X35227Y43228*
X35572Y42948*
X35963Y42738*
X36388Y42608*
X36702Y42578*
Y44703*
G37*
G36*
X39082D02*
X36956D01*
Y42578*
X37271Y42608*
X37696Y42738*
X38087Y42948*
X38432Y43228*
X38712Y43573*
X38922Y43964*
X39052Y44389*
X39082Y44703*
G37*
G36*
X135889Y44625D02*
X135615Y44587D01*
X135359Y44480*
X135138Y44312*
X134970Y44091*
X134863Y43835*
X134825Y43560*
X134863Y43286*
X134970Y43030*
X135138Y42809*
X135359Y42641*
X135615Y42534*
X135889Y42496*
X136164Y42534*
X136420Y42641*
X136641Y42809*
X136809Y43030*
X136916Y43286*
X136954Y43560*
X136916Y43835*
X136809Y44091*
X136641Y44312*
X136420Y44480*
X136164Y44587*
X135889Y44625*
G37*
G36*
X62229D02*
X61955Y44587D01*
X61699Y44480*
X61478Y44312*
X61310Y44091*
X61203Y43835*
X61165Y43560*
X61203Y43286*
X61310Y43030*
X61478Y42809*
X61699Y42641*
X61955Y42534*
X62229Y42496*
X62504Y42534*
X62760Y42641*
X62981Y42809*
X63149Y43030*
X63256Y43286*
X63294Y43560*
X63256Y43835*
X63149Y44091*
X62981Y44312*
X62760Y44480*
X62504Y44587*
X62229Y44625*
G37*
G36*
X82549D02*
X82275Y44587D01*
X82019Y44480*
X81798Y44312*
X81630Y44091*
X81523Y43835*
X81485Y43560*
X81523Y43286*
X81630Y43030*
X81798Y42809*
X82019Y42641*
X82275Y42534*
X82549Y42496*
X82824Y42534*
X83080Y42641*
X83301Y42809*
X83469Y43030*
X83576Y43286*
X83614Y43560*
X83576Y43835*
X83469Y44091*
X83301Y44312*
X83080Y44480*
X82824Y44587*
X82549Y44625*
G37*
G36*
X87629D02*
X87355Y44587D01*
X87099Y44480*
X86878Y44312*
X86710Y44091*
X86603Y43835*
X86565Y43560*
X86603Y43286*
X86710Y43030*
X86878Y42809*
X87099Y42641*
X87355Y42534*
X87629Y42496*
X87904Y42534*
X88160Y42641*
X88381Y42809*
X88549Y43030*
X88656Y43286*
X88694Y43560*
X88656Y43835*
X88549Y44091*
X88381Y44312*
X88160Y44480*
X87904Y44587*
X87629Y44625*
G37*
G36*
X161797Y44703D02*
X159672D01*
X159702Y44389*
X159832Y43964*
X160042Y43573*
X160322Y43228*
X160667Y42948*
X161058Y42738*
X161483Y42608*
X161797Y42578*
Y44703*
G37*
G36*
X153479Y45656D02*
X151450D01*
X151477Y45359*
X151602Y44952*
X151803Y44576*
X152072Y44249*
X152399Y43980*
X152775Y43779*
X153182Y43654*
X153479Y43627*
Y45656*
G37*
G36*
X155762D02*
X153733D01*
Y43627*
X154030Y43654*
X154437Y43779*
X154812Y43980*
X155140Y44249*
X155409Y44576*
X155610Y44952*
X155735Y45359*
X155762Y45656*
G37*
G36*
X42163Y46108D02*
X41899Y46075D01*
X41650Y45971*
X41440Y45808*
X41277Y45598*
X41173Y45349*
X41140Y45084*
X41173Y44820*
X41277Y44571*
X41440Y44361*
X41650Y44198*
X41899Y44094*
X42163Y44061*
X42428Y44094*
X42677Y44198*
X42887Y44361*
X43050Y44571*
X43154Y44820*
X43187Y45084*
X43154Y45349*
X43050Y45598*
X42887Y45808*
X42677Y45971*
X42428Y46075*
X42163Y46108*
G37*
G36*
X93146Y43941D02*
X92265D01*
Y43060*
X92402Y43078*
X92651Y43182*
X92862Y43345*
X93024Y43555*
X93129Y43804*
X93146Y43941*
G37*
G36*
X164177Y44703D02*
X162051D01*
Y42578*
X162366Y42608*
X162791Y42738*
X163182Y42948*
X163527Y43228*
X163807Y43573*
X164017Y43964*
X164147Y44389*
X164177Y44703*
G37*
G36*
X92661Y54241D02*
X92415Y54190D01*
X92204Y54051*
X92064Y53842*
X92014Y53593*
X92064Y53345*
X92204Y53136*
X92415Y52997*
X92661Y52946*
X92666Y52948*
X94162Y51452*
Y46164*
X94195Y45991*
X94294Y45844*
X95745Y44394*
X95719Y44333*
X95686Y44068*
X95719Y43804*
X95824Y43555*
X95986Y43345*
X96197Y43182*
X96446Y43078*
X96710Y43045*
X96974Y43078*
X97223Y43182*
X97434Y43345*
X97596Y43555*
X97701Y43804*
X97734Y44068*
X97701Y44333*
X97596Y44582*
X97434Y44792*
X97223Y44955*
X96974Y45059*
X96710Y45092*
X96446Y45059*
X96385Y45034*
X95067Y46352*
Y51640*
X95034Y51815*
X94935Y51960*
X93309Y53588*
Y53593*
X93261Y53842*
X93121Y54051*
X92910Y54190*
X92661Y54241*
G37*
G36*
X92011Y43941D02*
X91130D01*
X91147Y43804*
X91252Y43555*
X91414Y43345*
X91625Y43182*
X91874Y43078*
X92011Y43060*
Y43941*
G37*
G36*
X90868Y47762D02*
X90571Y47721D01*
X90291Y47607*
X90053Y47424*
X89870Y47185*
X89755Y46906*
X89715Y46608*
X89755Y46311*
X89870Y46032*
X90053Y45793*
X90291Y45610*
X90571Y45496*
X90868Y45455*
X91165Y45496*
X91445Y45610*
X91683Y45793*
X91866Y46032*
X91981Y46311*
X92021Y46608*
X91981Y46906*
X91866Y47185*
X91683Y47424*
X91445Y47607*
X91165Y47721*
X90868Y47762*
G37*
G36*
X112798Y50129D02*
X112511Y50091D01*
X112245Y49979*
X112016Y49804*
X111841Y49573*
X111729Y49306*
X111691Y49019*
X111729Y48732*
X111841Y48465*
X112016Y48237*
X112245Y48059*
X112511Y47950*
X112798Y47912*
X113085Y47950*
X113355Y48059*
X113583Y48237*
X113758Y48465*
X113870Y48732*
X113908Y49019*
X113870Y49306*
X113758Y49573*
X113583Y49804*
X113355Y49979*
X113085Y50091*
X112798Y50129*
G37*
G36*
X115569D02*
X115282Y50091D01*
X115016Y49979*
X114785Y49804*
X114609Y49573*
X114498Y49306*
X114462Y49019*
X114498Y48732*
X114609Y48465*
X114785Y48237*
X115016Y48059*
X115282Y47950*
X115569Y47912*
X115857Y47950*
X116123Y48059*
X116354Y48237*
X116530Y48465*
X116641Y48732*
X116677Y49019*
X116641Y49306*
X116530Y49573*
X116354Y49804*
X116123Y49979*
X115857Y50091*
X115569Y50129*
G37*
G36*
X118341D02*
X118054Y50091D01*
X117784Y49979*
X117556Y49804*
X117381Y49573*
X117269Y49306*
X117231Y49019*
X117269Y48732*
X117381Y48465*
X117556Y48237*
X117784Y48059*
X118054Y47950*
X118341Y47912*
X118628Y47950*
X118894Y48059*
X119123Y48237*
X119298Y48465*
X119410Y48732*
X119448Y49019*
X119410Y49306*
X119298Y49573*
X119123Y49804*
X118894Y49979*
X118628Y50091*
X118341Y50129*
G37*
G36*
X128191Y50231D02*
Y47726D01*
X130698*
X130675Y48013*
X130578Y48417*
X130418Y48798*
X130202Y49154*
X129933Y49469*
X129618Y49738*
X129265Y49954*
X128882Y50111*
X128478Y50210*
X128191Y50231*
G37*
G36*
X102948D02*
X102661Y50210D01*
X102257Y50111*
X101874Y49954*
X101521Y49738*
X101206Y49469*
X100937Y49154*
X100721Y48798*
X100561Y48417*
X100464Y48013*
X100441Y47726*
X102948*
Y50231*
G37*
G36*
X103202D02*
Y47726D01*
X105707*
X105684Y48013*
X105587Y48417*
X105430Y48798*
X105211Y49154*
X104942Y49469*
X104627Y49738*
X104274Y49954*
X103891Y50111*
X103487Y50210*
X103202Y50231*
G37*
G36*
X127937D02*
X127652Y50210D01*
X127248Y50111*
X126865Y49954*
X126512Y49738*
X126197Y49469*
X125928Y49154*
X125709Y48798*
X125552Y48417*
X125455Y48013*
X125432Y47726*
X127937*
Y50231*
G37*
G36*
X122209Y50119D02*
X120009D01*
Y47922*
X122209*
Y50119*
G37*
G36*
X77342Y50479D02*
X77071Y50452D01*
X76687Y50337*
X76334Y50147*
X76027Y49893*
X75773Y49585*
X75582Y49232*
X75468Y48849*
X75440Y48577*
X77342*
Y50479*
G37*
G36*
X77596D02*
Y48577D01*
X79499*
X79471Y48849*
X79357Y49232*
X79166Y49585*
X78912Y49893*
X78605Y50147*
X78252Y50337*
X77868Y50452*
X77596Y50479*
G37*
G36*
X157924Y50987D02*
X157627Y50960D01*
X157220Y50835*
X156844Y50634*
X156517Y50365*
X156248Y50037*
X156047Y49662*
X155922Y49255*
X155895Y48958*
X157924*
Y50987*
G37*
G36*
X64896Y50479D02*
Y48577D01*
X66799*
X66771Y48849*
X66657Y49232*
X66466Y49585*
X66212Y49893*
X65905Y50147*
X65552Y50337*
X65168Y50452*
X64896Y50479*
G37*
G36*
X109903Y48892D02*
X108938D01*
X108958Y48732*
X109070Y48465*
X109245Y48237*
X109476Y48059*
X109743Y47950*
X109903Y47927*
Y48892*
G37*
G36*
X111122D02*
X110157D01*
Y47927*
X110317Y47950*
X110583Y48059*
X110812Y48237*
X110990Y48465*
X111099Y48732*
X111122Y48892*
G37*
G36*
X64642Y50479D02*
X64371Y50452D01*
X63987Y50337*
X63634Y50147*
X63327Y49893*
X63073Y49585*
X62882Y49232*
X62768Y48849*
X62740Y48577*
X64642*
Y50479*
G37*
G36*
X144848Y46929D02*
X143441D01*
Y46400*
Y46309*
Y45001*
X143692*
Y44513*
X143614Y44480*
X143393Y44312*
X143225Y44091*
X143118Y43835*
X143080Y43560*
X143118Y43286*
X143225Y43030*
X143393Y42809*
X143614Y42641*
X143870Y42534*
X144144Y42496*
X144419Y42534*
X144675Y42641*
X144896Y42809*
X145064Y43030*
X145171Y43286*
X145209Y43560*
X145171Y43835*
X145064Y44091*
X144896Y44312*
X144675Y44480*
X144597Y44513*
Y45001*
X144848*
Y46309*
Y46400*
Y46929*
G37*
G36*
X64642Y48323D02*
X62740D01*
X62768Y48051*
X62882Y47668*
X63073Y47315*
X63327Y47007*
X63634Y46753*
X63987Y46563*
X64371Y46448*
X64642Y46421*
Y48323*
G37*
G36*
X66799D02*
X64896D01*
Y46421*
X65168Y46448*
X65552Y46563*
X65905Y46753*
X66212Y47007*
X66466Y47315*
X66657Y47668*
X66771Y48051*
X66799Y48323*
G37*
G36*
X60393Y47708D02*
X58986D01*
Y46400*
Y46309*
Y45001*
X59237*
Y44513*
X59159Y44480*
X58938Y44312*
X58770Y44091*
X58663Y43835*
X58625Y43560*
X58663Y43286*
X58770Y43030*
X58938Y42809*
X59159Y42641*
X59415Y42534*
X59689Y42496*
X59964Y42534*
X60220Y42641*
X60441Y42809*
X60609Y43030*
X60716Y43286*
X60754Y43560*
X60716Y43835*
X60609Y44091*
X60441Y44312*
X60220Y44480*
X60142Y44513*
Y45001*
X60393*
Y46309*
Y46400*
Y46667*
X61427*
X61518Y46532*
X61727Y46390*
X61975Y46342*
X62224Y46390*
X62433Y46532*
X62575Y46741*
X62623Y46989*
X62575Y47238*
X62433Y47447*
X62224Y47589*
X61975Y47637*
X61727Y47589*
X61518Y47447*
X61516Y47444*
X60393*
Y47708*
G37*
G36*
X97853Y47762D02*
X97556Y47721D01*
X97276Y47607*
X97038Y47424*
X96855Y47185*
X96740Y46906*
X96700Y46608*
X96740Y46311*
X96855Y46032*
X97038Y45793*
X97276Y45610*
X97556Y45496*
X97853Y45455*
X98150Y45496*
X98430Y45610*
X98668Y45793*
X98851Y46032*
X98966Y46311*
X99006Y46608*
X98966Y46906*
X98851Y47185*
X98668Y47424*
X98430Y47607*
X98150Y47721*
X97853Y47762*
G37*
G36*
X153479Y47939D02*
X153182Y47912D01*
X152775Y47787*
X152399Y47586*
X152072Y47317*
X151803Y46989*
X151602Y46614*
X151477Y46207*
X151450Y45910*
X153479*
Y47939*
G37*
G36*
X153733D02*
Y45910D01*
X155762*
X155735Y46207*
X155610Y46614*
X155409Y46989*
X155140Y47317*
X154812Y47586*
X154437Y47787*
X154030Y47912*
X153733Y47939*
G37*
G36*
X77342Y48323D02*
X75440D01*
X75468Y48051*
X75582Y47668*
X75773Y47315*
X76027Y47007*
X76334Y46753*
X76687Y46563*
X77071Y46448*
X77342Y46421*
Y48323*
G37*
G36*
X144848Y47708D02*
X144271D01*
Y47183*
X144848*
Y47708*
G37*
G36*
X43179Y51064D02*
X42806Y51026D01*
X42448Y50916*
X42115Y50741*
X41826Y50502*
X41587Y50213*
X41412Y49880*
X41302Y49522*
X41264Y49148*
X41302Y48775*
X41412Y48417*
X41587Y48084*
X41826Y47795*
X42115Y47556*
X42448Y47381*
X42806Y47271*
X43179Y47233*
X43553Y47271*
X43911Y47381*
X44244Y47556*
X44533Y47795*
X44772Y48084*
X44947Y48417*
X45057Y48775*
X45095Y49148*
X45057Y49522*
X44947Y49880*
X44772Y50213*
X44533Y50502*
X44244Y50741*
X43911Y50916*
X43553Y51026*
X43179Y51064*
G37*
G36*
X54609D02*
X54236Y51026D01*
X53878Y50916*
X53545Y50741*
X53256Y50502*
X53017Y50213*
X52842Y49880*
X52732Y49522*
X52694Y49148*
X52732Y48775*
X52842Y48417*
X53017Y48084*
X53256Y47795*
X53545Y47556*
X53878Y47381*
X54236Y47271*
X54609Y47233*
X54983Y47271*
X55341Y47381*
X55674Y47556*
X55963Y47795*
X56202Y48084*
X56377Y48417*
X56487Y48775*
X56525Y49148*
X56487Y49522*
X56377Y49880*
X56202Y50213*
X55963Y50502*
X55674Y50741*
X55341Y50916*
X54983Y51026*
X54609Y51064*
G37*
G36*
X144017Y47708D02*
X143441D01*
Y47183*
X144017*
Y47708*
G37*
G36*
X79499Y48323D02*
X77596D01*
Y46421*
X77868Y46448*
X78252Y46563*
X78605Y46753*
X78912Y47007*
X79166Y47315*
X79357Y47668*
X79471Y48051*
X79499Y48323*
G37*
G36*
X157924Y48704D02*
X155895D01*
X155922Y48407*
X156047Y48000*
X156248Y47624*
X156517Y47297*
X156844Y47028*
X157220Y46827*
X157627Y46702*
X157924Y46675*
Y48704*
G37*
G36*
X160207D02*
X158178D01*
Y46675*
X158475Y46702*
X158882Y46827*
X159257Y47028*
X159585Y47297*
X159854Y47624*
X160055Y48000*
X160180Y48407*
X160207Y48704*
G37*
G36*
X53916Y66182D02*
X53339D01*
Y65656*
X53916*
Y66182*
G37*
G36*
X123291Y107693D02*
X123029Y107657D01*
X122786Y107556*
X122575Y107396*
X122415Y107185*
X122313Y106941*
X122278Y106679*
X122313Y106418*
X122415Y106174*
X122575Y105963*
X122786Y105803*
X122798Y105796*
Y102720*
X122361*
Y101010*
Y100919*
Y99209*
X122864*
Y95437*
X121409Y93985*
X121290Y94020*
X121249Y94228*
X121107Y94437*
X120898Y94579*
X120690Y94620*
X120655Y94739*
X121097Y95183*
X121196Y95331*
X121229Y95503*
Y99209*
X121732*
Y100919*
Y101010*
Y102720*
X121295*
Y105831*
X121467Y105963*
X121627Y106174*
X121729Y106418*
X121765Y106679*
X121729Y106941*
X121627Y107185*
X121467Y107396*
X121257Y107556*
X121013Y107657*
X120751Y107693*
X120489Y107657*
X120246Y107556*
X120035Y107396*
X119875Y107185*
X119773Y106941*
X119738Y106679*
X119773Y106418*
X119875Y106174*
X120035Y105963*
X120246Y105803*
X120258Y105796*
Y102720*
X119821*
Y101010*
Y100919*
Y99209*
X120324*
Y97934*
X120220Y97863*
X120205Y97858*
X118971Y99093*
X119019Y99209*
X119192*
Y100919*
Y101010*
Y102720*
X118755*
Y105831*
X118927Y105963*
X119087Y106174*
X119189Y106418*
X119225Y106679*
X119189Y106941*
X119087Y107185*
X118927Y107396*
X118717Y107556*
X118473Y107657*
X118211Y107693*
X117949Y107657*
X117706Y107556*
X117495Y107396*
X117335Y107185*
X117233Y106941*
X117198Y106679*
X117233Y106418*
X117335Y106174*
X117495Y105963*
X117706Y105803*
X117718Y105796*
Y102720*
X117281*
Y101010*
Y100919*
Y99209*
X117784*
Y99186*
X117817Y99014*
X117916Y98866*
X119435Y97348*
Y97002*
X119308Y96989*
X119280Y97132*
X119174Y97289*
X119016Y97396*
X118828Y97434*
X117177*
X117002Y97398*
X116857*
X116149Y98104*
Y99209*
X116652*
Y100919*
Y101010*
Y102720*
X116215*
Y105831*
X116387Y105963*
X116547Y106174*
X116649Y106418*
X116685Y106679*
X116649Y106941*
X116547Y107185*
X116387Y107396*
X116177Y107556*
X115933Y107657*
X115671Y107693*
X115409Y107657*
X115166Y107556*
X114955Y107396*
X114795Y107185*
X114693Y106941*
X114658Y106679*
X114693Y106418*
X114795Y106174*
X114955Y105963*
X115166Y105803*
X115178Y105796*
Y102720*
X114741*
Y101010*
Y100919*
Y99209*
X115244*
Y97916*
X115277Y97744*
X115376Y97596*
X115585Y97386*
X115549Y97264*
X115448Y97246*
X115239Y97104*
X115097Y96895*
X115049Y96646*
X115097Y96398*
X115239Y96189*
X115448Y96050*
X115696Y95999*
X115702Y96001*
X115727Y95973*
X115874Y95877*
X116050Y95841*
X116629*
X116710Y95742*
X116690Y95646*
X116710Y95547*
X116629Y95448*
X116413*
X116408Y95453*
X116199Y95595*
X115950Y95643*
X115702Y95595*
X115493Y95453*
X115354Y95244*
X115303Y94995*
X115354Y94747*
X115493Y94538*
X115702Y94396*
X115950Y94348*
X116199Y94396*
X116408Y94538*
X116410Y94541*
X116629*
X116710Y94444*
X116690Y94350*
X116728Y94162*
X116819Y94025*
X116728Y93886*
X116690Y93700*
X116728Y93512*
X116819Y93375*
X116728Y93235*
X116690Y93050*
X116710Y92951*
X116664Y92895*
X116537Y92890*
X116469Y92958*
X116471Y92963*
X116420Y93212*
X116281Y93421*
X116072Y93560*
X115823Y93611*
X115575Y93560*
X115366Y93421*
X115224Y93212*
X115176Y92963*
X115224Y92715*
X115366Y92506*
X115575Y92367*
X115823Y92316*
X115829Y92318*
X116067Y92080*
X116215Y91981*
X116387Y91947*
X116629*
X116687Y91876*
X119291*
X119280Y91937*
X119186Y92074*
X119280Y92212*
X119316Y92400*
X119298Y92499*
X119377Y92595*
X121117*
X121290Y92631*
X121437Y92730*
X123637Y94929*
X123736Y95077*
X123769Y95249*
Y99209*
X124272*
Y100919*
Y101010*
Y102720*
X123835*
Y105831*
X124007Y105963*
X124167Y106174*
X124269Y106418*
X124305Y106679*
X124269Y106941*
X124167Y107185*
X124007Y107396*
X123797Y107556*
X123553Y107657*
X123291Y107693*
G37*
G36*
X153136D02*
X152874Y107657D01*
X152631Y107556*
X152420Y107396*
X152260Y107185*
X152158Y106941*
X152123Y106679*
X152158Y106418*
X152260Y106174*
X152420Y105963*
X152631Y105803*
X152643Y105796*
Y102720*
X152206*
Y101010*
Y100919*
Y99209*
X152709*
Y95437*
X151254Y93985*
X151135Y94020*
X151094Y94228*
X150952Y94437*
X150743Y94579*
X150535Y94620*
X150500Y94739*
X150942Y95183*
X151041Y95331*
X151074Y95503*
Y99209*
X151577*
Y100919*
Y101010*
Y102720*
X151140*
Y105831*
X151312Y105963*
X151472Y106174*
X151574Y106418*
X151610Y106679*
X151574Y106941*
X151472Y107185*
X151312Y107396*
X151102Y107556*
X150858Y107657*
X150596Y107693*
X150334Y107657*
X150091Y107556*
X149880Y107396*
X149720Y107185*
X149618Y106941*
X149583Y106679*
X149618Y106418*
X149720Y106174*
X149880Y105963*
X150091Y105803*
X150103Y105796*
Y102720*
X149666*
Y101010*
Y100919*
Y99209*
X150169*
Y97934*
X150065Y97863*
X150050Y97858*
X148816Y99093*
X148864Y99209*
X149037*
Y100919*
Y101010*
Y102720*
X148600*
Y105831*
X148772Y105963*
X148932Y106174*
X149034Y106418*
X149070Y106679*
X149034Y106941*
X148932Y107185*
X148772Y107396*
X148562Y107556*
X148318Y107657*
X148056Y107693*
X147794Y107657*
X147551Y107556*
X147340Y107396*
X147180Y107185*
X147078Y106941*
X147043Y106679*
X147078Y106418*
X147180Y106174*
X147340Y105963*
X147551Y105803*
X147563Y105796*
Y102720*
X147126*
Y101010*
Y100919*
Y99209*
X147604*
X147629Y99186*
X147662Y99014*
X147761Y98866*
X149280Y97348*
Y97002*
X149153Y96989*
X149125Y97132*
X149019Y97289*
X148861Y97396*
X148673Y97434*
X147022*
X146847Y97398*
X146702*
X145994Y98104*
Y99209*
X146497*
Y100919*
Y101010*
Y102720*
X146060*
Y105831*
X146232Y105963*
X146392Y106174*
X146494Y106418*
X146530Y106679*
X146494Y106941*
X146392Y107185*
X146232Y107396*
X146022Y107556*
X145778Y107657*
X145516Y107693*
X145254Y107657*
X145011Y107556*
X144800Y107396*
X144640Y107185*
X144538Y106941*
X144503Y106679*
X144538Y106418*
X144640Y106174*
X144800Y105963*
X145011Y105803*
X145023Y105796*
Y102720*
X144586*
Y101010*
Y100919*
Y99209*
X145089*
Y97916*
X145122Y97744*
X145221Y97596*
X145430Y97386*
X145394Y97264*
X145293Y97246*
X145084Y97104*
X144942Y96895*
X144894Y96646*
X144942Y96398*
X145084Y96189*
X145293Y96050*
X145541Y95999*
X145547Y96001*
X145572Y95973*
X145719Y95877*
X145895Y95841*
X146474*
X146555Y95742*
X146535Y95646*
X146555Y95547*
X146474Y95448*
X146258*
X146253Y95453*
X146044Y95595*
X145795Y95643*
X145547Y95595*
X145338Y95453*
X145199Y95244*
X145148Y94995*
X145199Y94747*
X145338Y94538*
X145547Y94396*
X145795Y94348*
X146044Y94396*
X146253Y94538*
X146255Y94541*
X146474*
X146555Y94444*
X146535Y94350*
X146573Y94162*
X146664Y94025*
X146573Y93886*
X146535Y93700*
X146573Y93512*
X146664Y93375*
X146573Y93235*
X146535Y93050*
X146555Y92951*
X146509Y92895*
X146382Y92890*
X146314Y92958*
X146316Y92963*
X146268Y93212*
X146126Y93421*
X145917Y93560*
X145668Y93611*
X145420Y93560*
X145211Y93421*
X145072Y93212*
X145021Y92963*
X145072Y92715*
X145211Y92506*
X145420Y92367*
X145547Y92341*
X145536Y92214*
X144602*
X144429Y92179*
X144282Y92082*
X143763Y91564*
X142326*
X142245Y91663*
X142262Y91749*
X142224Y91937*
X142133Y92074*
X142224Y92212*
X142262Y92400*
X142224Y92588*
X142133Y92725*
X142224Y92862*
X142262Y93050*
X142224Y93235*
X142133Y93375*
X142224Y93512*
X142262Y93700*
X142224Y93886*
X142133Y94025*
X142224Y94162*
X142262Y94350*
X142242Y94444*
X142323Y94541*
X142623*
X142656Y94366*
X142798Y94157*
X143007Y94018*
X143255Y93967*
X143504Y94018*
X143713Y94157*
X143852Y94366*
X143903Y94614*
X143852Y94863*
X143713Y95072*
X143700Y95082*
X143725Y95206*
X143824Y95227*
X143972Y95323*
X144465Y95818*
X144564Y95966*
X144597Y96138*
Y98551*
X144564Y98724*
X144465Y98872*
X143957Y99382*
Y100919*
Y101010*
Y102720*
X143520*
Y105831*
X143692Y105963*
X143852Y106174*
X143954Y106418*
X143990Y106679*
X143954Y106941*
X143852Y107185*
X143692Y107396*
X143482Y107556*
X143238Y107657*
X142976Y107693*
X142714Y107657*
X142471Y107556*
X142260Y107396*
X142100Y107185*
X141998Y106941*
X141963Y106679*
X141998Y106418*
X142100Y106174*
X142260Y105963*
X142471Y105803*
X142483Y105796*
Y102720*
X142046*
Y101010*
Y100919*
Y99209*
X142844*
X143692Y98364*
Y97297*
X143578Y97236*
X143377Y97370*
X143128Y97421*
X142880Y97370*
X142671Y97231*
X142532Y97022*
X142481Y96773*
X142351Y96748*
X142323*
X142265Y96817*
X139661*
X139672Y96758*
X139766Y96619*
X139672Y96481*
X139636Y96293*
X139672Y96108*
X139766Y95968*
X139672Y95831*
X139636Y95646*
X139672Y95458*
X139766Y95321*
X139672Y95181*
X139555Y95145*
X139390Y95310*
Y97856*
X140746Y99209*
X141417*
Y100919*
Y101010*
Y102720*
X140980*
Y105831*
X141152Y105963*
X141312Y106174*
X141414Y106418*
X141450Y106679*
X141414Y106941*
X141312Y107185*
X141152Y107396*
X140942Y107556*
X140698Y107657*
X140436Y107693*
X140174Y107657*
X139931Y107556*
X139720Y107396*
X139560Y107185*
X139458Y106941*
X139423Y106679*
X139458Y106418*
X139560Y106174*
X139720Y105963*
X139931Y105803*
X139943Y105796*
Y102720*
X139506*
Y101010*
Y100919*
Y99255*
X138617Y98364*
X138518Y98216*
X138501Y98127*
X138374Y98140*
Y99209*
X138877*
Y100919*
Y101010*
Y102720*
X138440*
Y105831*
X138612Y105963*
X138772Y106174*
X138874Y106418*
X138910Y106679*
X138874Y106941*
X138772Y107185*
X138612Y107396*
X138402Y107556*
X138158Y107657*
X137896Y107693*
X137634Y107657*
X137391Y107556*
X137180Y107396*
X137020Y107185*
X136918Y106941*
X136883Y106679*
X136918Y106418*
X137020Y106174*
X137180Y105963*
X137391Y105803*
X137403Y105796*
Y102720*
X136966*
Y101010*
Y100919*
Y99209*
X137469*
Y94968*
X137355Y94909*
X137281Y94957*
X137032Y95008*
X136784Y94957*
X136575Y94818*
X136433Y94609*
X136385Y94360*
X136433Y94112*
X136575Y93903*
X136580Y93901*
Y93090*
Y93085*
X136469Y93024*
X135834Y93659*
Y99209*
X136337*
Y100919*
Y101010*
Y102720*
X135900*
Y105676*
X136359*
Y107683*
X134353*
Y105676*
X134863*
Y102720*
X134426*
Y101010*
Y100919*
Y99209*
X134929*
Y93471*
X134962Y93299*
X135061Y93151*
X136784Y91429*
X136857Y91381*
X136931Y91330*
X137104Y91297*
X139575*
X139654Y91198*
X139636Y91099*
X139672Y90914*
X139766Y90774*
X139672Y90637*
X139661Y90576*
X142255*
X142321Y90657*
X143499*
Y90266*
X143535Y90093*
X143631Y89946*
X145242Y88336*
X145389Y88237*
X145562Y88204*
X147236*
X147304Y88112*
X147464Y87990*
X147650Y87914*
X147848Y87889*
X148048Y87914*
X148234Y87990*
X148391Y88112*
X148513Y88272*
X148592Y88458*
X148617Y88656*
X148592Y88856*
X148513Y89042*
X148394Y89197*
X148402Y89212*
X148478Y89311*
X148673*
X148861Y89349*
X149019Y89453*
X149125Y89613*
X149161Y89799*
X149143Y89898*
X149222Y89997*
X149423*
X149687Y89733*
X149834Y89634*
X150007Y89601*
X150563*
X150566Y89595*
X150776Y89456*
X151023Y89405*
X151272Y89456*
X151483Y89595*
X151622Y89806*
X151671Y90053*
X151622Y90302*
X151483Y90512*
X151272Y90652*
X151033Y90700*
X150982Y90817*
X150987Y90822*
X151036Y91069*
X150987Y91318*
X150848Y91528*
X150637Y91668*
X150388Y91716*
X150141Y91668*
X149984Y91564*
X149224*
X149143Y91663*
X149161Y91749*
X149125Y91937*
X149031Y92074*
X149125Y92212*
X149161Y92400*
X149143Y92499*
X149222Y92595*
X150962*
X151135Y92631*
X151282Y92730*
X153482Y94929*
X153581Y95077*
X153614Y95249*
Y99209*
X154117*
Y100919*
Y101010*
Y102720*
X153680*
Y105831*
X153852Y105963*
X154012Y106174*
X154114Y106418*
X154150Y106679*
X154114Y106941*
X154012Y107185*
X153852Y107396*
X153642Y107556*
X153398Y107657*
X153136Y107693*
G37*
G36*
X36702Y109727D02*
X34577D01*
X34607Y109413*
X34737Y108988*
X34947Y108597*
X35227Y108252*
X35572Y107972*
X35963Y107762*
X36388Y107632*
X36702Y107602*
Y109727*
G37*
G36*
X63601Y107693D02*
X63339Y107657D01*
X63096Y107556*
X62885Y107396*
X62725Y107185*
X62623Y106941*
X62588Y106679*
X62623Y106418*
X62725Y106174*
X62885Y105963*
X63096Y105803*
X63108Y105796*
Y102720*
X62671*
Y101010*
Y100919*
Y99209*
X63174*
Y95437*
X61719Y93985*
X61600Y94020*
X61556Y94228*
X61417Y94437*
X61208Y94579*
X61000Y94620*
X60965Y94739*
X61407Y95183*
X61506Y95331*
X61539Y95503*
Y99209*
X62042*
Y100919*
Y101010*
Y102720*
X61605*
Y105831*
X61777Y105963*
X61937Y106174*
X62039Y106418*
X62075Y106679*
X62039Y106941*
X61937Y107185*
X61777Y107396*
X61567Y107556*
X61323Y107657*
X61061Y107693*
X60799Y107657*
X60556Y107556*
X60345Y107396*
X60185Y107185*
X60083Y106941*
X60048Y106679*
X60083Y106418*
X60185Y106174*
X60345Y105963*
X60556Y105803*
X60568Y105796*
Y102720*
X60131*
Y101010*
Y100919*
Y99209*
X60634*
Y97934*
X60530Y97863*
X60515Y97858*
X59281Y99093*
X59329Y99209*
X59502*
Y100919*
Y101010*
Y102720*
X59065*
Y105831*
X59237Y105963*
X59397Y106174*
X59499Y106418*
X59535Y106679*
X59499Y106941*
X59397Y107185*
X59237Y107396*
X59027Y107556*
X58783Y107657*
X58521Y107693*
X58259Y107657*
X58016Y107556*
X57805Y107396*
X57645Y107185*
X57543Y106941*
X57508Y106679*
X57543Y106418*
X57645Y106174*
X57805Y105963*
X58016Y105803*
X58028Y105796*
Y102720*
X57591*
Y101010*
Y100919*
Y99209*
X58069*
X58094Y99186*
X58127Y99014*
X58226Y98866*
X59745Y97348*
Y97002*
X59618Y96989*
X59590Y97132*
X59484Y97289*
X59326Y97396*
X59138Y97434*
X57487*
X57312Y97398*
X57167*
X56459Y98104*
Y99209*
X56962*
Y100919*
Y101010*
Y102720*
X56525*
Y105831*
X56697Y105963*
X56857Y106174*
X56959Y106418*
X56995Y106679*
X56959Y106941*
X56857Y107185*
X56697Y107396*
X56487Y107556*
X56243Y107657*
X55981Y107693*
X55719Y107657*
X55476Y107556*
X55265Y107396*
X55105Y107185*
X55003Y106941*
X54968Y106679*
X55003Y106418*
X55105Y106174*
X55265Y105963*
X55476Y105803*
X55488Y105796*
Y102720*
X55051*
Y101010*
Y100919*
Y99209*
X55554*
Y97916*
X55587Y97744*
X55686Y97596*
X55895Y97386*
X55859Y97264*
X55758Y97246*
X55549Y97104*
X55407Y96895*
X55359Y96646*
X55407Y96398*
X55549Y96189*
X55758Y96050*
X56006Y95999*
X56012Y96001*
X56037Y95973*
X56184Y95877*
X56360Y95841*
X56939*
X57020Y95742*
X57000Y95646*
X57020Y95547*
X56939Y95448*
X56723*
X56718Y95453*
X56509Y95595*
X56260Y95643*
X56012Y95595*
X55803Y95453*
X55664Y95244*
X55613Y94995*
X55664Y94747*
X55803Y94538*
X56012Y94396*
X56260Y94348*
X56509Y94396*
X56718Y94538*
X56720Y94541*
X56939*
X57020Y94444*
X57000Y94350*
X57038Y94162*
X57129Y94025*
X57038Y93886*
X57000Y93700*
X57038Y93512*
X57129Y93375*
X57038Y93235*
X57000Y93050*
X57020Y92951*
X56974Y92895*
X56847Y92890*
X56779Y92958*
X56781Y92963*
X56733Y93212*
X56591Y93421*
X56382Y93560*
X56133Y93611*
X55885Y93560*
X55676Y93421*
X55537Y93212*
X55486Y92963*
X55537Y92715*
X55676Y92506*
X55885Y92367*
X56133Y92316*
X56139Y92318*
X56377Y92080*
X56525Y91981*
X56697Y91947*
X56939*
X56997Y91876*
X59601*
X59590Y91937*
X59496Y92074*
X59590Y92212*
X59626Y92400*
X59608Y92499*
X59687Y92595*
X61427*
X61600Y92631*
X61747Y92730*
X63947Y94929*
X64046Y95077*
X64079Y95249*
Y99209*
X64582*
Y100919*
Y101010*
Y102720*
X64145*
Y105831*
X64317Y105963*
X64477Y106174*
X64579Y106418*
X64615Y106679*
X64579Y106941*
X64477Y107185*
X64317Y107396*
X64107Y107556*
X63863Y107657*
X63601Y107693*
G37*
G36*
X53441D02*
X53179Y107657D01*
X52936Y107556*
X52725Y107396*
X52565Y107185*
X52463Y106941*
X52428Y106679*
X52463Y106418*
X52565Y106174*
X52725Y105963*
X52936Y105803*
X52948Y105796*
Y102720*
X52511*
Y101010*
Y100919*
Y99209*
X53309*
X54157Y98364*
Y97297*
X54043Y97236*
X53842Y97370*
X53593Y97421*
X53345Y97370*
X53136Y97231*
X52997Y97022*
X52946Y96773*
X52816Y96748*
X52788*
X52730Y96817*
X50126*
X50137Y96758*
X50231Y96619*
X50137Y96481*
X50101Y96293*
X50137Y96108*
X50231Y95968*
X50137Y95831*
X50101Y95646*
X50137Y95458*
X50231Y95321*
X50137Y95181*
X50020Y95145*
X49855Y95310*
Y97856*
X51211Y99209*
X51882*
Y100919*
Y101010*
Y102720*
X51445*
Y105831*
X51617Y105963*
X51777Y106174*
X51879Y106418*
X51915Y106679*
X51879Y106941*
X51777Y107185*
X51617Y107396*
X51407Y107556*
X51163Y107657*
X50901Y107693*
X50639Y107657*
X50396Y107556*
X50185Y107396*
X50025Y107185*
X49923Y106941*
X49888Y106679*
X49923Y106418*
X50025Y106174*
X50185Y105963*
X50396Y105803*
X50408Y105796*
Y102720*
X49971*
Y101010*
Y100919*
Y99255*
X49082Y98364*
X48983Y98216*
X48966Y98127*
X48839Y98140*
Y99209*
X49342*
Y100919*
Y101010*
Y102720*
X48905*
Y105831*
X49077Y105963*
X49237Y106174*
X49339Y106418*
X49375Y106679*
X49339Y106941*
X49237Y107185*
X49077Y107396*
X48867Y107556*
X48623Y107657*
X48361Y107693*
X48099Y107657*
X47856Y107556*
X47645Y107396*
X47485Y107185*
X47383Y106941*
X47348Y106679*
X47383Y106418*
X47485Y106174*
X47645Y105963*
X47856Y105803*
X47868Y105796*
Y102720*
X47431*
Y101010*
Y100919*
Y99209*
X47934*
Y94968*
X47820Y94909*
X47746Y94957*
X47497Y95008*
X47249Y94957*
X47040Y94818*
X46898Y94609*
X46850Y94360*
X46898Y94112*
X47040Y93903*
X47045Y93901*
Y93090*
Y93085*
X46934Y93024*
X46299Y93659*
Y99209*
X46802*
Y100919*
Y101010*
Y102720*
X46365*
Y105676*
X46824*
Y107683*
X44818*
Y105676*
X45328*
Y102720*
X44891*
Y101010*
Y100919*
Y99209*
X45394*
Y93471*
X45427Y93299*
X45526Y93151*
X47249Y91429*
X47322Y91381*
X47396Y91330*
X47569Y91297*
X50040*
X50096Y91226*
X52702*
X52689Y91287*
X52598Y91424*
X52689Y91561*
X52727Y91749*
X52689Y91937*
X52598Y92074*
X52689Y92212*
X52727Y92400*
X52689Y92588*
X52598Y92725*
X52689Y92862*
X52727Y93050*
X52689Y93235*
X52598Y93375*
X52689Y93512*
X52727Y93700*
X52689Y93886*
X52598Y94025*
X52689Y94162*
X52727Y94350*
X52707Y94444*
X52788Y94541*
X53088*
X53121Y94366*
X53263Y94157*
X53472Y94018*
X53720Y93967*
X53969Y94018*
X54178Y94157*
X54320Y94366*
X54368Y94614*
X54320Y94863*
X54178Y95072*
X54165Y95082*
X54190Y95206*
X54289Y95227*
X54437Y95323*
X54930Y95818*
X55029Y95966*
X55062Y96138*
Y98551*
X55029Y98724*
X54930Y98872*
X54422Y99382*
Y100919*
Y101010*
Y102720*
X53985*
Y105831*
X54157Y105963*
X54317Y106174*
X54419Y106418*
X54455Y106679*
X54419Y106941*
X54317Y107185*
X54157Y107396*
X53947Y107556*
X53703Y107657*
X53441Y107693*
G37*
G36*
X83286D02*
X83024Y107657D01*
X82781Y107556*
X82570Y107396*
X82410Y107185*
X82308Y106941*
X82273Y106679*
X82308Y106418*
X82410Y106174*
X82570Y105963*
X82781Y105803*
X82793Y105796*
Y102720*
X82356*
Y101010*
Y100919*
Y99209*
X83154*
X84002Y98364*
Y97297*
X83888Y97236*
X83687Y97370*
X83438Y97421*
X83190Y97370*
X82981Y97231*
X82842Y97022*
X82791Y96773*
X82661Y96748*
X82633*
X82575Y96817*
X79971*
X79982Y96758*
X80076Y96619*
X79982Y96481*
X79946Y96293*
X79982Y96108*
X80076Y95968*
X79982Y95831*
X79946Y95646*
X79982Y95458*
X80076Y95321*
X79982Y95181*
X79865Y95145*
X79700Y95310*
Y97856*
X81056Y99209*
X81727*
Y100919*
Y101010*
Y102720*
X81290*
Y105831*
X81462Y105963*
X81622Y106174*
X81724Y106418*
X81760Y106679*
X81724Y106941*
X81622Y107185*
X81462Y107396*
X81252Y107556*
X81008Y107657*
X80746Y107693*
X80484Y107657*
X80241Y107556*
X80030Y107396*
X79870Y107185*
X79768Y106941*
X79733Y106679*
X79768Y106418*
X79870Y106174*
X80030Y105963*
X80241Y105803*
X80253Y105796*
Y102720*
X79816*
Y101010*
Y100919*
Y99255*
X78927Y98364*
X78828Y98216*
X78811Y98127*
X78684Y98140*
Y99209*
X79187*
Y100919*
Y101010*
Y102720*
X78750*
Y105831*
X78922Y105963*
X79082Y106174*
X79184Y106418*
X79220Y106679*
X79184Y106941*
X79082Y107185*
X78922Y107396*
X78712Y107556*
X78468Y107657*
X78206Y107693*
X77944Y107657*
X77701Y107556*
X77490Y107396*
X77330Y107185*
X77228Y106941*
X77193Y106679*
X77228Y106418*
X77330Y106174*
X77490Y105963*
X77701Y105803*
X77713Y105796*
Y102720*
X77276*
Y101010*
Y100919*
Y99209*
X77779*
Y94968*
X77665Y94909*
X77591Y94957*
X77342Y95008*
X77094Y94957*
X76885Y94818*
X76746Y94609*
X76695Y94360*
X76746Y94112*
X76885Y93903*
X76890Y93901*
Y93090*
Y93085*
X76779Y93024*
X76144Y93659*
Y99209*
X76647*
Y100919*
Y101010*
Y102720*
X76210*
Y105676*
X76669*
Y107683*
X74663*
Y105676*
X75173*
Y102720*
X74736*
Y101010*
Y100919*
Y99209*
X75239*
Y93471*
X75272Y93299*
X75371Y93151*
X77094Y91429*
X77167Y91381*
X77241Y91330*
X77414Y91297*
X79885*
X79941Y91226*
X82547*
X82534Y91287*
X82443Y91424*
X82534Y91561*
X82572Y91749*
X82534Y91937*
X82443Y92074*
X82534Y92212*
X82572Y92400*
X82534Y92588*
X82443Y92725*
X82534Y92862*
X82572Y93050*
X82534Y93235*
X82443Y93375*
X82534Y93512*
X82572Y93700*
X82534Y93886*
X82443Y94025*
X82534Y94162*
X82572Y94350*
X82552Y94444*
X82633Y94541*
X82933*
X82966Y94366*
X83108Y94157*
X83317Y94018*
X83565Y93967*
X83814Y94018*
X84023Y94157*
X84162Y94366*
X84213Y94614*
X84162Y94863*
X84023Y95072*
X84010Y95082*
X84035Y95206*
X84134Y95227*
X84282Y95323*
X84775Y95818*
X84874Y95966*
X84907Y96138*
Y98551*
X84874Y98724*
X84775Y98872*
X84267Y99382*
Y100919*
Y101010*
Y102720*
X83830*
Y105831*
X84002Y105963*
X84162Y106174*
X84264Y106418*
X84300Y106679*
X84264Y106941*
X84162Y107185*
X84002Y107396*
X83792Y107556*
X83548Y107657*
X83286Y107693*
G37*
G36*
X113131D02*
X112869Y107657D01*
X112626Y107556*
X112415Y107396*
X112255Y107185*
X112153Y106941*
X112118Y106679*
X112153Y106418*
X112255Y106174*
X112415Y105963*
X112626Y105803*
X112638Y105796*
Y102720*
X112201*
Y101010*
Y100919*
Y99209*
X112999*
X113847Y98364*
Y97297*
X113733Y97236*
X113532Y97370*
X113283Y97421*
X113035Y97370*
X112826Y97231*
X112687Y97022*
X112636Y96773*
X112506Y96748*
X112478*
X112420Y96817*
X109816*
X109827Y96758*
X109921Y96619*
X109827Y96481*
X109791Y96293*
X109827Y96108*
X109921Y95968*
X109827Y95831*
X109791Y95646*
X109827Y95458*
X109921Y95321*
X109827Y95181*
X109710Y95145*
X109545Y95310*
Y97856*
X110901Y99209*
X111572*
Y100919*
Y101010*
Y102720*
X111135*
Y105831*
X111307Y105963*
X111467Y106174*
X111569Y106418*
X111605Y106679*
X111569Y106941*
X111467Y107185*
X111307Y107396*
X111097Y107556*
X110853Y107657*
X110591Y107693*
X110329Y107657*
X110086Y107556*
X109875Y107396*
X109715Y107185*
X109613Y106941*
X109578Y106679*
X109613Y106418*
X109715Y106174*
X109875Y105963*
X110086Y105803*
X110098Y105796*
Y102720*
X109661*
Y101010*
Y100919*
Y99255*
X108772Y98364*
X108673Y98216*
X108656Y98127*
X108529Y98140*
Y99209*
X109032*
Y100919*
Y101010*
Y102720*
X108595*
Y105831*
X108767Y105963*
X108927Y106174*
X109029Y106418*
X109065Y106679*
X109029Y106941*
X108927Y107185*
X108767Y107396*
X108557Y107556*
X108313Y107657*
X108051Y107693*
X107789Y107657*
X107546Y107556*
X107335Y107396*
X107175Y107185*
X107073Y106941*
X107038Y106679*
X107073Y106418*
X107175Y106174*
X107335Y105963*
X107546Y105803*
X107558Y105796*
Y102720*
X107121*
Y101010*
Y100919*
Y99209*
X107624*
Y94968*
X107510Y94909*
X107436Y94957*
X107187Y95008*
X106939Y94957*
X106730Y94818*
X106591Y94609*
X106540Y94360*
X106591Y94112*
X106730Y93903*
X106735Y93901*
Y93090*
Y93085*
X106624Y93024*
X105989Y93659*
Y99209*
X106492*
Y100919*
Y101010*
Y102720*
X106055*
Y105676*
X106514*
Y107683*
X104508*
Y105676*
X105018*
Y102720*
X104581*
Y101010*
Y100919*
Y99209*
X105084*
Y93471*
X105117Y93299*
X105216Y93151*
X106939Y91429*
X107012Y91381*
X107086Y91330*
X107259Y91297*
X109730*
X109809Y91198*
X109791Y91099*
X109827Y90914*
X109921Y90774*
X109827Y90637*
X109816Y90576*
X112420*
X112478Y90647*
X113911*
X115079Y89479*
X115227Y89380*
X115399Y89347*
X117002*
X117177Y89311*
X117497*
Y88242*
X117408Y88173*
X117388Y88148*
X91399*
X91379Y88173*
X91290Y88242*
Y89120*
X91254Y89296*
X91158Y89443*
X90721Y89880*
X90769Y89997*
X104645*
X104683Y89794*
X104825Y89585*
X105034Y89446*
X105282Y89395*
X105531Y89446*
X105740Y89585*
X105882Y89794*
X105930Y90042*
X105882Y90291*
X105841Y90347*
X105912Y90454*
X105917Y90451*
X106166Y90502*
X106375Y90642*
X106517Y90853*
X106565Y91099*
X106517Y91348*
X106375Y91556*
X106166Y91699*
X105917Y91747*
X105669Y91699*
X105460Y91556*
X105458Y91554*
X90845*
X90787Y91666*
X90896Y91826*
X90944Y92074*
X90896Y92323*
X90787Y92483*
X90845Y92595*
X91272*
X91445Y92631*
X91592Y92730*
X93792Y94929*
X93891Y95077*
X93924Y95249*
Y99209*
X94427*
Y100919*
Y101010*
Y102720*
X93990*
Y105831*
X94162Y105963*
X94322Y106174*
X94424Y106418*
X94460Y106679*
X94424Y106941*
X94322Y107185*
X94162Y107396*
X93952Y107556*
X93708Y107657*
X93446Y107693*
X93184Y107657*
X92941Y107556*
X92730Y107396*
X92570Y107185*
X92468Y106941*
X92433Y106679*
X92468Y106418*
X92570Y106174*
X92730Y105963*
X92941Y105803*
X92953Y105796*
Y102720*
X92516*
Y101010*
Y100919*
Y99209*
X93019*
Y95437*
X91564Y93985*
X91445Y94020*
X91404Y94228*
X91262Y94437*
X91053Y94579*
X90845Y94620*
X90810Y94739*
X91252Y95183*
X91351Y95331*
X91384Y95503*
Y99209*
X91887*
Y100919*
Y101010*
Y102720*
X91450*
Y105831*
X91622Y105963*
X91782Y106174*
X91884Y106418*
X91920Y106679*
X91884Y106941*
X91782Y107185*
X91622Y107396*
X91412Y107556*
X91168Y107657*
X90906Y107693*
X90644Y107657*
X90401Y107556*
X90190Y107396*
X90030Y107185*
X89928Y106941*
X89893Y106679*
X89928Y106418*
X90030Y106174*
X90190Y105963*
X90401Y105803*
X90413Y105796*
Y102720*
X89976*
Y101010*
Y100919*
Y99209*
X90479*
Y97934*
X90375Y97863*
X90360Y97858*
X89126Y99093*
X89174Y99209*
X89347*
Y100919*
Y101010*
Y102720*
X88910*
Y105831*
X89082Y105963*
X89242Y106174*
X89344Y106418*
X89380Y106679*
X89344Y106941*
X89242Y107185*
X89082Y107396*
X88872Y107556*
X88628Y107657*
X88366Y107693*
X88104Y107657*
X87861Y107556*
X87650Y107396*
X87490Y107185*
X87388Y106941*
X87353Y106679*
X87388Y106418*
X87490Y106174*
X87650Y105963*
X87861Y105803*
X87873Y105796*
Y102720*
X87436*
Y101010*
Y100919*
Y99209*
X87939*
Y99186*
X87972Y99014*
X88071Y98866*
X89590Y97348*
Y97002*
X89463Y96989*
X89435Y97132*
X89329Y97289*
X89171Y97396*
X88983Y97434*
X87332*
X87157Y97398*
X87012*
X86304Y98104*
Y99209*
X86807*
Y100919*
Y101010*
Y102720*
X86370*
Y105831*
X86542Y105963*
X86702Y106174*
X86804Y106418*
X86840Y106679*
X86804Y106941*
X86702Y107185*
X86542Y107396*
X86332Y107556*
X86088Y107657*
X85826Y107693*
X85564Y107657*
X85321Y107556*
X85110Y107396*
X84950Y107185*
X84848Y106941*
X84813Y106679*
X84848Y106418*
X84950Y106174*
X85110Y105963*
X85321Y105803*
X85333Y105796*
Y102720*
X84896*
Y101010*
Y100919*
Y99209*
X85399*
Y97916*
X85432Y97744*
X85531Y97596*
X85740Y97386*
X85704Y97264*
X85603Y97246*
X85394Y97104*
X85255Y96895*
X85204Y96646*
X85255Y96398*
X85394Y96189*
X85603Y96050*
X85851Y95999*
X85857Y96001*
X85882Y95973*
X86029Y95877*
X86205Y95841*
X86784*
X86865Y95742*
X86845Y95646*
X86865Y95547*
X86784Y95448*
X86568*
X86563Y95453*
X86354Y95595*
X86105Y95643*
X85857Y95595*
X85648Y95453*
X85509Y95244*
X85458Y94995*
X85509Y94747*
X85648Y94538*
X85857Y94396*
X86105Y94348*
X86354Y94396*
X86563Y94538*
X86565Y94541*
X86784*
X86865Y94444*
X86845Y94350*
X86883Y94162*
X86974Y94025*
X86883Y93886*
X86845Y93700*
X86883Y93512*
X86974Y93375*
X86883Y93235*
X86845Y93050*
X86865Y92951*
X86819Y92895*
X86692Y92890*
X86624Y92958*
X86626Y92963*
X86578Y93212*
X86436Y93421*
X86227Y93560*
X85978Y93611*
X85730Y93560*
X85521Y93421*
X85379Y93212*
X85331Y92963*
X85379Y92715*
X85521Y92506*
X85730Y92367*
X85978Y92316*
X85984Y92318*
X86222Y92080*
X86370Y91981*
X86542Y91947*
X86784*
X86865Y91848*
X86845Y91749*
X86865Y91650*
X86784Y91554*
X85747*
X85592Y91658*
X85343Y91706*
X85095Y91658*
X84886Y91516*
X84747Y91307*
X84696Y91058*
X84734Y90868*
X84645Y90779*
X84454Y90817*
X84206Y90766*
X83997Y90627*
X83858Y90418*
X83807Y90169*
X83858Y89921*
X83997Y89712*
X84206Y89570*
X84454Y89522*
X84703Y89570*
X84912Y89712*
X84914Y89717*
X85851*
X86024Y89750*
X86172Y89849*
X86319Y89997*
X86784*
X86865Y89898*
X86845Y89799*
X86883Y89613*
X86989Y89453*
X87147Y89349*
X87332Y89311*
X88983*
X89161Y89347*
X89971*
X90383Y88935*
Y88242*
X90294Y88173*
X90274Y88148*
X82097*
X82077Y88173*
X81917Y88295*
X81732Y88371*
X81533Y88399*
X81335Y88371*
X81150Y88295*
X80990Y88173*
X80970Y88148*
X79461*
X78343Y89265*
X78176Y89377*
X77977Y89418*
X74467*
X74429Y89540*
X74498Y89585*
X74637Y89794*
X74688Y90042*
X74637Y90291*
X74599Y90347*
X74670Y90454*
X74675Y90451*
X74924Y90502*
X75133Y90642*
X75275Y90853*
X75323Y91099*
X75275Y91348*
X75133Y91556*
X74924Y91699*
X74675Y91747*
X74427Y91699*
X74218Y91556*
X74216Y91554*
X59687*
X59631Y91622*
X57025*
X57038Y91561*
X57129Y91424*
X57038Y91287*
X57000Y91099*
X57038Y90914*
X57129Y90774*
X57038Y90637*
X57000Y90449*
X57038Y90263*
X57129Y90124*
X57038Y89987*
X57000Y89799*
X57038Y89613*
X57142Y89453*
X57302Y89349*
X57487Y89311*
X59138*
X59316Y89347*
X59491*
X59824Y89011*
X59809Y88899*
X59837Y88701*
X59913Y88516*
X60035Y88356*
X60195Y88234*
X60380Y88158*
X60578Y88130*
X60777Y88158*
X60962Y88234*
X61122Y88356*
X61142Y88381*
X66492*
X66512Y88356*
X66672Y88234*
X66857Y88158*
X67055Y88130*
X67254Y88158*
X67439Y88234*
X67599Y88356*
X67619Y88381*
X77764*
X78882Y87264*
X79049Y87152*
X79247Y87111*
X80970*
X80990Y87086*
X81145Y86967*
Y82583*
X80218Y81655*
X80136Y81673*
X79888Y81625*
X79679Y81483*
X79537Y81274*
X79489Y81025*
X79537Y80777*
X79634Y80637*
X79573Y80525*
X78011*
X77718Y80817*
X77736Y80898*
X77685Y81147*
X77546Y81356*
X77337Y81495*
X77088Y81546*
X76840Y81495*
X76631Y81356*
X76492Y81147*
X76441Y80898*
X76492Y80650*
X76631Y80441*
X76840Y80299*
X77088Y80251*
X77170Y80269*
X77576Y79862*
X77701Y79778*
X77850Y79748*
X81412*
X81457Y79679*
X81666Y79537*
X81914Y79489*
X82163Y79537*
X82372Y79679*
X82511Y79888*
X82562Y80136*
X82511Y80385*
X82372Y80594*
X82163Y80736*
X81914Y80784*
X81666Y80736*
X81457Y80594*
X81412Y80525*
X80700*
X80639Y80637*
X80736Y80777*
X80784Y81025*
X80766Y81107*
X81808Y82148*
X81892Y82273*
X81897Y82298*
X81922Y82422*
Y86967*
X82077Y87086*
X82097Y87111*
X90274*
X90294Y87086*
X90451Y86964*
X90637Y86888*
X90838Y86860*
X91036Y86888*
X91221Y86964*
X91379Y87086*
X91399Y87111*
X117388*
X117408Y87086*
X117566Y86964*
X117751Y86888*
X117952Y86860*
X118150Y86888*
X118336Y86964*
X118493Y87086*
X118617Y87246*
X118694Y87431*
X118719Y87629*
X118694Y87828*
X118617Y88013*
X118493Y88173*
X118404Y88242*
Y89311*
X118828*
X119016Y89349*
X119174Y89453*
X119280Y89613*
X119316Y89799*
X119298Y89898*
X119377Y89997*
X119514*
X119788Y89722*
X119936Y89623*
X120111Y89590*
X120919*
X120921Y89585*
X121132Y89446*
X121378Y89395*
X121627Y89446*
X121838Y89585*
X121978Y89794*
X122026Y90042*
X121978Y90291*
X121838Y90500*
X121627Y90642*
X121378Y90690*
X121150Y90644*
X121081Y90751*
X121119Y90810*
X121170Y91058*
X121119Y91307*
X120980Y91516*
X120771Y91658*
X120522Y91706*
X120274Y91658*
X120119Y91554*
X119377*
X119321Y91622*
X116715*
X116728Y91561*
X116819Y91424*
X116728Y91287*
X116690Y91099*
X116728Y90914*
X116819Y90774*
X116728Y90637*
X116690Y90449*
X116710Y90350*
X116629Y90253*
X115587*
X114421Y91419*
X114274Y91518*
X114099Y91554*
X112478*
X112397Y91650*
X112417Y91749*
X112379Y91937*
X112288Y92074*
X112379Y92212*
X112417Y92400*
X112379Y92588*
X112288Y92725*
X112379Y92862*
X112417Y93050*
X112379Y93235*
X112288Y93375*
X112379Y93512*
X112417Y93700*
X112379Y93886*
X112288Y94025*
X112379Y94162*
X112417Y94350*
X112397Y94444*
X112478Y94541*
X112778*
X112814Y94366*
X112953Y94157*
X113162Y94018*
X113410Y93967*
X113659Y94018*
X113868Y94157*
X114010Y94366*
X114058Y94614*
X114010Y94863*
X113868Y95072*
X113855Y95082*
X113880Y95206*
X113979Y95227*
X114127Y95323*
X114620Y95818*
X114719Y95966*
X114752Y96138*
Y98551*
X114719Y98724*
X114620Y98872*
X114112Y99382*
Y100919*
Y101010*
Y102720*
X113675*
Y105831*
X113847Y105963*
X114007Y106174*
X114109Y106418*
X114145Y106679*
X114109Y106941*
X114007Y107185*
X113847Y107396*
X113637Y107556*
X113393Y107657*
X113131Y107693*
G37*
G36*
X39082Y109727D02*
X36956D01*
Y107602*
X37271Y107632*
X37696Y107762*
X38087Y107972*
X38432Y108252*
X38712Y108597*
X38922Y108988*
X39052Y109413*
X39082Y109727*
G37*
G36*
X50901Y110233D02*
X50639Y110197D01*
X50396Y110096*
X50185Y109936*
X50025Y109725*
X49923Y109481*
X49888Y109219*
X49923Y108958*
X50025Y108714*
X50185Y108503*
X50396Y108343*
X50639Y108242*
X50901Y108206*
X51163Y108242*
X51407Y108343*
X51617Y108503*
X51777Y108714*
X51879Y108958*
X51915Y109219*
X51879Y109481*
X51777Y109725*
X51617Y109936*
X51407Y110096*
X51163Y110197*
X50901Y110233*
G37*
G36*
X53441D02*
X53179Y110197D01*
X52936Y110096*
X52725Y109936*
X52565Y109725*
X52463Y109481*
X52428Y109219*
X52463Y108958*
X52565Y108714*
X52725Y108503*
X52936Y108343*
X53179Y108242*
X53441Y108206*
X53703Y108242*
X53947Y108343*
X54157Y108503*
X54317Y108714*
X54419Y108958*
X54455Y109219*
X54419Y109481*
X54317Y109725*
X54157Y109936*
X53947Y110096*
X53703Y110197*
X53441Y110233*
G37*
G36*
X55981D02*
X55719Y110197D01*
X55476Y110096*
X55265Y109936*
X55105Y109725*
X55003Y109481*
X54968Y109219*
X55003Y108958*
X55105Y108714*
X55265Y108503*
X55476Y108343*
X55719Y108242*
X55981Y108206*
X56243Y108242*
X56487Y108343*
X56697Y108503*
X56857Y108714*
X56959Y108958*
X56995Y109219*
X56959Y109481*
X56857Y109725*
X56697Y109936*
X56487Y110096*
X56243Y110197*
X55981Y110233*
G37*
G36*
X48361D02*
X48099Y110197D01*
X47856Y110096*
X47645Y109936*
X47485Y109725*
X47383Y109481*
X47348Y109219*
X47383Y108958*
X47485Y108714*
X47645Y108503*
X47856Y108343*
X48099Y108242*
X48361Y108206*
X48623Y108242*
X48867Y108343*
X49077Y108503*
X49237Y108714*
X49339Y108958*
X49375Y109219*
X49339Y109481*
X49237Y109725*
X49077Y109936*
X48867Y110096*
X48623Y110197*
X48361Y110233*
G37*
G36*
X161797Y109727D02*
X159672D01*
X159702Y109413*
X159832Y108988*
X160042Y108597*
X160322Y108252*
X160667Y107972*
X161058Y107762*
X161483Y107632*
X161797Y107602*
Y109727*
G37*
G36*
X164177D02*
X162051D01*
Y107602*
X162366Y107632*
X162791Y107762*
X163182Y107972*
X163527Y108252*
X163807Y108597*
X164017Y108988*
X164147Y109413*
X164177Y109727*
G37*
G36*
X45821Y110233D02*
X45559Y110197D01*
X45316Y110096*
X45105Y109936*
X44945Y109725*
X44843Y109481*
X44808Y109219*
X44843Y108958*
X44945Y108714*
X45105Y108503*
X45316Y108343*
X45559Y108242*
X45821Y108206*
X46083Y108242*
X46327Y108343*
X46537Y108503*
X46697Y108714*
X46799Y108958*
X46835Y109219*
X46799Y109481*
X46697Y109725*
X46537Y109936*
X46327Y110096*
X46083Y110197*
X45821Y110233*
G37*
G36*
X81902Y97662D02*
X80657D01*
X80683Y97541*
X80624Y97434*
X80434*
X80246Y97396*
X80088Y97289*
X79982Y97132*
X79971Y97071*
X82547*
X82534Y97132*
X82428Y97289*
X82270Y97396*
X82085Y97434*
X81935*
X81879Y97541*
X81902Y97662*
G37*
G36*
X111747D02*
X110502D01*
X110525Y97541*
X110469Y97434*
X110279*
X110091Y97396*
X109933Y97289*
X109827Y97132*
X109816Y97071*
X112392*
X112379Y97132*
X112273Y97289*
X112115Y97396*
X111930Y97434*
X111780*
X111724Y97541*
X111747Y97662*
G37*
G36*
X141592D02*
X140347D01*
X140373Y97541*
X140314Y97434*
X140124*
X139936Y97396*
X139778Y97289*
X139672Y97132*
X139661Y97071*
X142237*
X142224Y97132*
X142120Y97289*
X141960Y97396*
X141775Y97434*
X141625*
X141569Y97541*
X141592Y97662*
G37*
G36*
X52057D02*
X50812D01*
X50838Y97541*
X50779Y97434*
X50589*
X50401Y97396*
X50243Y97289*
X50137Y97132*
X50126Y97071*
X52702*
X52689Y97132*
X52585Y97289*
X52425Y97396*
X52240Y97434*
X52090*
X52031Y97541*
X52057Y97662*
G37*
G36*
X142237Y90322D02*
X139661D01*
X139672Y90263*
X139766Y90124*
X139672Y89987*
X139636Y89799*
X139672Y89613*
X139778Y89453*
X139936Y89349*
X140124Y89311*
X141775*
X141960Y89349*
X142120Y89453*
X142224Y89613*
X142262Y89799*
X142224Y89987*
X142133Y90124*
X142224Y90263*
X142237Y90322*
G37*
G36*
X52702Y90972D02*
X50126D01*
X50137Y90914*
X50231Y90774*
X50137Y90637*
X50126Y90576*
X52702*
X52689Y90637*
X52598Y90774*
X52689Y90914*
X52702Y90972*
G37*
G36*
X82547D02*
X79971D01*
X79982Y90914*
X80076Y90774*
X79982Y90637*
X79971Y90576*
X82547*
X82534Y90637*
X82443Y90774*
X82534Y90914*
X82547Y90972*
G37*
G36*
X51307Y98412D02*
X51186Y98386D01*
X50977Y98247*
X50838Y98038*
X50812Y97916*
X51307*
Y98412*
G37*
G36*
X111251D02*
Y97916D01*
X111747*
X111724Y98038*
X111582Y98247*
X111373Y98386*
X111251Y98412*
G37*
G36*
X140842D02*
X140721Y98386D01*
X140512Y98247*
X140373Y98038*
X140347Y97916*
X140842*
Y98412*
G37*
G36*
X141096D02*
Y97916D01*
X141592*
X141569Y98038*
X141427Y98247*
X141218Y98386*
X141096Y98412*
G37*
G36*
X110997D02*
X110876Y98386D01*
X110667Y98247*
X110525Y98038*
X110502Y97916*
X110997*
Y98412*
G37*
G36*
X51561D02*
Y97916D01*
X52057*
X52031Y98038*
X51892Y98247*
X51683Y98386*
X51561Y98412*
G37*
G36*
X81152D02*
X81031Y98386D01*
X80822Y98247*
X80683Y98038*
X80657Y97916*
X81152*
Y98412*
G37*
G36*
X81406D02*
Y97916D01*
X81902*
X81879Y98038*
X81737Y98247*
X81528Y98386*
X81406Y98412*
G37*
G36*
X58521Y110233D02*
X58259Y110197D01*
X58016Y110096*
X57805Y109936*
X57645Y109725*
X57543Y109481*
X57508Y109219*
X57543Y108958*
X57645Y108714*
X57805Y108503*
X58016Y108343*
X58259Y108242*
X58521Y108206*
X58783Y108242*
X59027Y108343*
X59237Y108503*
X59397Y108714*
X59499Y108958*
X59535Y109219*
X59499Y109481*
X59397Y109725*
X59237Y109936*
X59027Y110096*
X58783Y110197*
X58521Y110233*
G37*
G36*
X137896D02*
X137634Y110197D01*
X137391Y110096*
X137180Y109936*
X137020Y109725*
X136918Y109481*
X136883Y109219*
X136918Y108958*
X137020Y108714*
X137180Y108503*
X137391Y108343*
X137634Y108242*
X137896Y108206*
X138158Y108242*
X138402Y108343*
X138612Y108503*
X138772Y108714*
X138874Y108958*
X138910Y109219*
X138874Y109481*
X138772Y109725*
X138612Y109936*
X138402Y110096*
X138158Y110197*
X137896Y110233*
G37*
G36*
X140436D02*
X140174Y110197D01*
X139931Y110096*
X139720Y109936*
X139560Y109725*
X139458Y109481*
X139423Y109219*
X139458Y108958*
X139560Y108714*
X139720Y108503*
X139931Y108343*
X140174Y108242*
X140436Y108206*
X140698Y108242*
X140942Y108343*
X141152Y108503*
X141312Y108714*
X141414Y108958*
X141450Y109219*
X141414Y109481*
X141312Y109725*
X141152Y109936*
X140942Y110096*
X140698Y110197*
X140436Y110233*
G37*
G36*
X142976D02*
X142714Y110197D01*
X142471Y110096*
X142260Y109936*
X142100Y109725*
X141998Y109481*
X141963Y109219*
X141998Y108958*
X142100Y108714*
X142260Y108503*
X142471Y108343*
X142714Y108242*
X142976Y108206*
X143238Y108242*
X143482Y108343*
X143692Y108503*
X143852Y108714*
X143954Y108958*
X143990Y109219*
X143954Y109481*
X143852Y109725*
X143692Y109936*
X143482Y110096*
X143238Y110197*
X142976Y110233*
G37*
G36*
X135356D02*
X135094Y110197D01*
X134851Y110096*
X134640Y109936*
X134480Y109725*
X134378Y109481*
X134343Y109219*
X134378Y108958*
X134480Y108714*
X134640Y108503*
X134851Y108343*
X135094Y108242*
X135356Y108206*
X135618Y108242*
X135862Y108343*
X136072Y108503*
X136232Y108714*
X136334Y108958*
X136370Y109219*
X136334Y109481*
X136232Y109725*
X136072Y109936*
X135862Y110096*
X135618Y110197*
X135356Y110233*
G37*
G36*
X118211D02*
X117949Y110197D01*
X117706Y110096*
X117495Y109936*
X117335Y109725*
X117233Y109481*
X117198Y109219*
X117233Y108958*
X117335Y108714*
X117495Y108503*
X117706Y108343*
X117949Y108242*
X118211Y108206*
X118473Y108242*
X118717Y108343*
X118927Y108503*
X119087Y108714*
X119189Y108958*
X119225Y109219*
X119189Y109481*
X119087Y109725*
X118927Y109936*
X118717Y110096*
X118473Y110197*
X118211Y110233*
G37*
G36*
X120751D02*
X120489Y110197D01*
X120246Y110096*
X120035Y109936*
X119875Y109725*
X119773Y109481*
X119738Y109219*
X119773Y108958*
X119875Y108714*
X120035Y108503*
X120246Y108343*
X120489Y108242*
X120751Y108206*
X121013Y108242*
X121257Y108343*
X121467Y108503*
X121627Y108714*
X121729Y108958*
X121765Y109219*
X121729Y109481*
X121627Y109725*
X121467Y109936*
X121257Y110096*
X121013Y110197*
X120751Y110233*
G37*
G36*
X123291D02*
X123029Y110197D01*
X122786Y110096*
X122575Y109936*
X122415Y109725*
X122313Y109481*
X122278Y109219*
X122313Y108958*
X122415Y108714*
X122575Y108503*
X122786Y108343*
X123029Y108242*
X123291Y108206*
X123553Y108242*
X123797Y108343*
X124007Y108503*
X124167Y108714*
X124269Y108958*
X124305Y109219*
X124269Y109481*
X124167Y109725*
X124007Y109936*
X123797Y110096*
X123553Y110197*
X123291Y110233*
G37*
G36*
X145516D02*
X145254Y110197D01*
X145011Y110096*
X144800Y109936*
X144640Y109725*
X144538Y109481*
X144503Y109219*
X144538Y108958*
X144640Y108714*
X144800Y108503*
X145011Y108343*
X145254Y108242*
X145516Y108206*
X145778Y108242*
X146022Y108343*
X146232Y108503*
X146392Y108714*
X146494Y108958*
X146530Y109219*
X146494Y109481*
X146392Y109725*
X146232Y109936*
X146022Y110096*
X145778Y110197*
X145516Y110233*
G37*
G36*
X36956Y112107D02*
Y109981D01*
X39082*
X39052Y110296*
X38922Y110721*
X38712Y111112*
X38432Y111457*
X38087Y111737*
X37696Y111947*
X37271Y112077*
X36956Y112107*
G37*
G36*
X161797D02*
X161483Y112077D01*
X161058Y111947*
X160667Y111737*
X160322Y111457*
X160042Y111112*
X159832Y110721*
X159702Y110296*
X159672Y109981*
X161797*
Y112107*
G37*
G36*
X162051D02*
Y109981D01*
X164177*
X164147Y110296*
X164017Y110721*
X163807Y111112*
X163527Y111457*
X163182Y111737*
X162791Y111947*
X162366Y112077*
X162051Y112107*
G37*
G36*
X36702D02*
X36388Y112077D01*
X35963Y111947*
X35572Y111737*
X35227Y111457*
X34947Y111112*
X34737Y110721*
X34607Y110296*
X34577Y109981*
X36702*
Y112107*
G37*
G36*
X148056Y110233D02*
X147794Y110197D01*
X147551Y110096*
X147340Y109936*
X147180Y109725*
X147078Y109481*
X147043Y109219*
X147078Y108958*
X147180Y108714*
X147340Y108503*
X147551Y108343*
X147794Y108242*
X148056Y108206*
X148318Y108242*
X148562Y108343*
X148772Y108503*
X148932Y108714*
X149034Y108958*
X149070Y109219*
X149034Y109481*
X148932Y109725*
X148772Y109936*
X148562Y110096*
X148318Y110197*
X148056Y110233*
G37*
G36*
X150596D02*
X150334Y110197D01*
X150091Y110096*
X149880Y109936*
X149720Y109725*
X149618Y109481*
X149583Y109219*
X149618Y108958*
X149720Y108714*
X149880Y108503*
X150091Y108343*
X150334Y108242*
X150596Y108206*
X150858Y108242*
X151102Y108343*
X151312Y108503*
X151472Y108714*
X151574Y108958*
X151610Y109219*
X151574Y109481*
X151472Y109725*
X151312Y109936*
X151102Y110096*
X150858Y110197*
X150596Y110233*
G37*
G36*
X153136D02*
X152874Y110197D01*
X152631Y110096*
X152420Y109936*
X152260Y109725*
X152158Y109481*
X152123Y109219*
X152158Y108958*
X152260Y108714*
X152420Y108503*
X152631Y108343*
X152874Y108242*
X153136Y108206*
X153398Y108242*
X153642Y108343*
X153852Y108503*
X154012Y108714*
X154114Y108958*
X154150Y109219*
X154114Y109481*
X154012Y109725*
X153852Y109936*
X153642Y110096*
X153398Y110197*
X153136Y110233*
G37*
G36*
X80746D02*
X80484Y110197D01*
X80241Y110096*
X80030Y109936*
X79870Y109725*
X79768Y109481*
X79733Y109219*
X79768Y108958*
X79870Y108714*
X80030Y108503*
X80241Y108343*
X80484Y108242*
X80746Y108206*
X81008Y108242*
X81252Y108343*
X81462Y108503*
X81622Y108714*
X81724Y108958*
X81760Y109219*
X81724Y109481*
X81622Y109725*
X81462Y109936*
X81252Y110096*
X81008Y110197*
X80746Y110233*
G37*
G36*
X83286D02*
X83024Y110197D01*
X82781Y110096*
X82570Y109936*
X82410Y109725*
X82308Y109481*
X82273Y109219*
X82308Y108958*
X82410Y108714*
X82570Y108503*
X82781Y108343*
X83024Y108242*
X83286Y108206*
X83548Y108242*
X83792Y108343*
X84002Y108503*
X84162Y108714*
X84264Y108958*
X84300Y109219*
X84264Y109481*
X84162Y109725*
X84002Y109936*
X83792Y110096*
X83548Y110197*
X83286Y110233*
G37*
G36*
X85826D02*
X85564Y110197D01*
X85321Y110096*
X85110Y109936*
X84950Y109725*
X84848Y109481*
X84813Y109219*
X84848Y108958*
X84950Y108714*
X85110Y108503*
X85321Y108343*
X85564Y108242*
X85826Y108206*
X86088Y108242*
X86332Y108343*
X86542Y108503*
X86702Y108714*
X86804Y108958*
X86840Y109219*
X86804Y109481*
X86702Y109725*
X86542Y109936*
X86332Y110096*
X86088Y110197*
X85826Y110233*
G37*
G36*
X78206D02*
X77944Y110197D01*
X77701Y110096*
X77490Y109936*
X77330Y109725*
X77228Y109481*
X77193Y109219*
X77228Y108958*
X77330Y108714*
X77490Y108503*
X77701Y108343*
X77944Y108242*
X78206Y108206*
X78468Y108242*
X78712Y108343*
X78922Y108503*
X79082Y108714*
X79184Y108958*
X79220Y109219*
X79184Y109481*
X79082Y109725*
X78922Y109936*
X78712Y110096*
X78468Y110197*
X78206Y110233*
G37*
G36*
X61061D02*
X60799Y110197D01*
X60556Y110096*
X60345Y109936*
X60185Y109725*
X60083Y109481*
X60048Y109219*
X60083Y108958*
X60185Y108714*
X60345Y108503*
X60556Y108343*
X60799Y108242*
X61061Y108206*
X61323Y108242*
X61567Y108343*
X61777Y108503*
X61937Y108714*
X62039Y108958*
X62075Y109219*
X62039Y109481*
X61937Y109725*
X61777Y109936*
X61567Y110096*
X61323Y110197*
X61061Y110233*
G37*
G36*
X63601D02*
X63339Y110197D01*
X63096Y110096*
X62885Y109936*
X62725Y109725*
X62623Y109481*
X62588Y109219*
X62623Y108958*
X62725Y108714*
X62885Y108503*
X63096Y108343*
X63339Y108242*
X63601Y108206*
X63863Y108242*
X64107Y108343*
X64317Y108503*
X64477Y108714*
X64579Y108958*
X64615Y109219*
X64579Y109481*
X64477Y109725*
X64317Y109936*
X64107Y110096*
X63863Y110197*
X63601Y110233*
G37*
G36*
X75666D02*
X75404Y110197D01*
X75161Y110096*
X74950Y109936*
X74790Y109725*
X74688Y109481*
X74653Y109219*
X74688Y108958*
X74790Y108714*
X74950Y108503*
X75161Y108343*
X75404Y108242*
X75666Y108206*
X75928Y108242*
X76172Y108343*
X76382Y108503*
X76542Y108714*
X76644Y108958*
X76680Y109219*
X76644Y109481*
X76542Y109725*
X76382Y109936*
X76172Y110096*
X75928Y110197*
X75666Y110233*
G37*
G36*
X88366D02*
X88104Y110197D01*
X87861Y110096*
X87650Y109936*
X87490Y109725*
X87388Y109481*
X87353Y109219*
X87388Y108958*
X87490Y108714*
X87650Y108503*
X87861Y108343*
X88104Y108242*
X88366Y108206*
X88628Y108242*
X88872Y108343*
X89082Y108503*
X89242Y108714*
X89344Y108958*
X89380Y109219*
X89344Y109481*
X89242Y109725*
X89082Y109936*
X88872Y110096*
X88628Y110197*
X88366Y110233*
G37*
G36*
X110591D02*
X110329Y110197D01*
X110086Y110096*
X109875Y109936*
X109715Y109725*
X109613Y109481*
X109578Y109219*
X109613Y108958*
X109715Y108714*
X109875Y108503*
X110086Y108343*
X110329Y108242*
X110591Y108206*
X110853Y108242*
X111097Y108343*
X111307Y108503*
X111467Y108714*
X111569Y108958*
X111605Y109219*
X111569Y109481*
X111467Y109725*
X111307Y109936*
X111097Y110096*
X110853Y110197*
X110591Y110233*
G37*
G36*
X113131D02*
X112869Y110197D01*
X112626Y110096*
X112415Y109936*
X112255Y109725*
X112153Y109481*
X112118Y109219*
X112153Y108958*
X112255Y108714*
X112415Y108503*
X112626Y108343*
X112869Y108242*
X113131Y108206*
X113393Y108242*
X113637Y108343*
X113847Y108503*
X114007Y108714*
X114109Y108958*
X114145Y109219*
X114109Y109481*
X114007Y109725*
X113847Y109936*
X113637Y110096*
X113393Y110197*
X113131Y110233*
G37*
G36*
X115671D02*
X115409Y110197D01*
X115166Y110096*
X114955Y109936*
X114795Y109725*
X114693Y109481*
X114658Y109219*
X114693Y108958*
X114795Y108714*
X114955Y108503*
X115166Y108343*
X115409Y108242*
X115671Y108206*
X115933Y108242*
X116177Y108343*
X116387Y108503*
X116547Y108714*
X116649Y108958*
X116685Y109219*
X116649Y109481*
X116547Y109725*
X116387Y109936*
X116177Y110096*
X115933Y110197*
X115671Y110233*
G37*
G36*
X108051D02*
X107789Y110197D01*
X107546Y110096*
X107335Y109936*
X107175Y109725*
X107073Y109481*
X107038Y109219*
X107073Y108958*
X107175Y108714*
X107335Y108503*
X107546Y108343*
X107789Y108242*
X108051Y108206*
X108313Y108242*
X108557Y108343*
X108767Y108503*
X108927Y108714*
X109029Y108958*
X109065Y109219*
X109029Y109481*
X108927Y109725*
X108767Y109936*
X108557Y110096*
X108313Y110197*
X108051Y110233*
G37*
G36*
X90906D02*
X90644Y110197D01*
X90401Y110096*
X90190Y109936*
X90030Y109725*
X89928Y109481*
X89893Y109219*
X89928Y108958*
X90030Y108714*
X90190Y108503*
X90401Y108343*
X90644Y108242*
X90906Y108206*
X91168Y108242*
X91412Y108343*
X91622Y108503*
X91782Y108714*
X91884Y108958*
X91920Y109219*
X91884Y109481*
X91782Y109725*
X91622Y109936*
X91412Y110096*
X91168Y110197*
X90906Y110233*
G37*
G36*
X93446D02*
X93184Y110197D01*
X92941Y110096*
X92730Y109936*
X92570Y109725*
X92468Y109481*
X92433Y109219*
X92468Y108958*
X92570Y108714*
X92730Y108503*
X92941Y108343*
X93184Y108242*
X93446Y108206*
X93708Y108242*
X93952Y108343*
X94162Y108503*
X94322Y108714*
X94424Y108958*
X94460Y109219*
X94424Y109481*
X94322Y109725*
X94162Y109936*
X93952Y110096*
X93708Y110197*
X93446Y110233*
G37*
G36*
X105511D02*
X105249Y110197D01*
X105006Y110096*
X104795Y109936*
X104635Y109725*
X104533Y109481*
X104498Y109219*
X104533Y108958*
X104635Y108714*
X104795Y108503*
X105006Y108343*
X105249Y108242*
X105511Y108206*
X105773Y108242*
X106017Y108343*
X106227Y108503*
X106387Y108714*
X106489Y108958*
X106525Y109219*
X106489Y109481*
X106387Y109725*
X106227Y109936*
X106017Y110096*
X105773Y110197*
X105511Y110233*
G37*
G36*
X112392Y90322D02*
X109816D01*
X109827Y90263*
X109921Y90124*
X109827Y89987*
X109791Y89799*
X109827Y89613*
X109933Y89453*
X110091Y89349*
X110279Y89311*
X111930*
X112115Y89349*
X112273Y89453*
X112379Y89613*
X112417Y89799*
X112379Y89987*
X112288Y90124*
X112379Y90263*
X112392Y90322*
G37*
G36*
X50152Y71246D02*
X49656D01*
Y70751*
X49778Y70774*
X49987Y70916*
X50126Y71125*
X50152Y71246*
G37*
G36*
X43395Y71627D02*
X42768D01*
Y70850*
X43395*
Y71627*
G37*
G36*
X46862Y71373D02*
X46367D01*
X46390Y71252*
X46532Y71043*
X46741Y70904*
X46862Y70878*
Y71373*
G37*
G36*
X49402Y71246D02*
X48907D01*
X48933Y71125*
X49072Y70916*
X49281Y70774*
X49402Y70751*
Y71246*
G37*
G36*
X56895Y70878D02*
X56647Y70827D01*
X56438Y70688*
X56296Y70479*
X56248Y70230*
X56296Y69982*
X56438Y69773*
X56507Y69728*
Y69557*
X56390Y69507*
X55747Y70149*
X55765Y70230*
X55717Y70479*
X55575Y70688*
X55366Y70827*
X55117Y70878*
X54869Y70827*
X54660Y70688*
X54521Y70479*
X54470Y70230*
X54521Y69982*
X54660Y69773*
X54869Y69634*
X55117Y69583*
X55199Y69601*
X55999Y68800*
Y61142*
X55887Y61081*
X55747Y61178*
X55498Y61226*
X55250Y61178*
X55041Y61036*
X54899Y60827*
X54851Y60578*
X54856Y60558*
X54775Y60459*
X51363*
X51302Y60571*
X51399Y60711*
X51447Y60959*
X51399Y61208*
X51257Y61417*
X51188Y61462*
Y65150*
X51158Y65300*
X51074Y65425*
X49187Y67312*
X49237Y67429*
X51313*
X51358Y67360*
X51567Y67221*
X51815Y67170*
X52064Y67221*
X52273Y67360*
X52412Y67569*
X52463Y67817*
X52412Y68066*
X52273Y68275*
X52064Y68417*
X51815Y68465*
X51567Y68417*
X51358Y68275*
X51313Y68206*
X49055*
X48407Y68854*
X48282Y68938*
X48132Y68968*
X44706*
X44559Y68938*
X44432Y68854*
X44089Y68511*
X44008Y68526*
X43759Y68478*
X43548Y68338*
X43408Y68127*
X43360Y67878*
X43408Y67632*
X43548Y67421*
X43553Y67419*
Y64218*
X43238*
Y62910*
Y62819*
Y62290*
X44645*
Y62819*
Y62910*
Y64218*
X44330*
Y67332*
X44465Y67421*
X44604Y67632*
X44653Y67878*
X44637Y67962*
X44869Y68191*
X45156*
X45217Y68079*
X45123Y67939*
X45072Y67690*
X45123Y67442*
X45262Y67233*
X45471Y67091*
X45719Y67043*
X45885Y67076*
X45973Y66987*
X45963Y66928*
X46012Y66680*
X46151Y66471*
X46362Y66329*
X46319Y66116*
X46263Y66034*
X46215Y65785*
X46233Y65704*
X45445Y64917*
X45361Y64792*
X45331Y64642*
Y61462*
X45262Y61417*
X45123Y61208*
X45079Y60993*
X44955Y60967*
X44907Y61036*
X44698Y61178*
X44449Y61226*
X44201Y61178*
X43992Y61036*
X43850Y60827*
X43802Y60578*
X43850Y60330*
X43992Y60121*
X44201Y59979*
X44449Y59931*
X44531Y59949*
X44683Y59796*
X44808Y59712*
X44957Y59682*
X54990*
X55140Y59712*
X55265Y59796*
X55417Y59949*
X55498Y59931*
X55747Y59979*
X55887Y60076*
X55999Y60015*
Y55405*
X50512Y49918*
X47624*
X47475Y49888*
X47350Y49804*
X46715Y49169*
X46631Y49044*
X46601Y48894*
Y48851*
X46286*
Y47543*
Y47452*
Y46144*
X46479*
X46527Y46027*
X46040Y45537*
X45615*
X45590Y45598*
X45427Y45808*
X45217Y45971*
X44968Y46075*
X44703Y46108*
X44439Y46075*
X44190Y45971*
X43980Y45808*
X43817Y45598*
X43713Y45349*
X43680Y45084*
X43713Y44820*
X43817Y44571*
X43980Y44361*
X44190Y44198*
X44439Y44094*
X44703Y44061*
X44968Y44094*
X45217Y44198*
X45427Y44361*
X45590Y44571*
X45615Y44632*
X46227*
X46400Y44665*
X46548Y44764*
X47310Y45526*
X47409Y45674*
X47442Y45846*
Y46144*
X47693*
Y47452*
Y47543*
Y48851*
X47663*
X47614Y48968*
X47785Y49141*
X50360*
X50441Y49044*
X50411Y48894*
Y48851*
X50096*
Y47543*
Y47452*
Y46144*
X51503*
Y46283*
X53787*
X54660Y45410*
X54635Y45349*
X54602Y45084*
X54635Y44820*
X54739Y44571*
X54902Y44361*
X55112Y44198*
X55361Y44094*
X55625Y44061*
X55890Y44094*
X56139Y44198*
X56349Y44361*
X56512Y44571*
X56616Y44820*
X56649Y45084*
X56616Y45349*
X56512Y45598*
X56349Y45808*
X56139Y45971*
X55890Y46075*
X55625Y46108*
X55361Y46075*
X55300Y46050*
X54295Y47056*
X54147Y47155*
X53974Y47188*
X51503*
Y47452*
Y47543*
Y48851*
X51473*
X51424Y48968*
X54630Y52176*
X57170Y54716*
X57254Y54841*
X57284Y54990*
Y69728*
X57353Y69773*
X57495Y69982*
X57543Y70230*
X57495Y70479*
X57353Y70688*
X57144Y70827*
X56895Y70878*
G37*
G36*
X156971Y72133D02*
X156710Y72097D01*
X156466Y71996*
X156255Y71836*
X156154Y71701*
X155574*
X155351Y71658*
X155163Y71531*
X151988Y68356*
X151861Y68168*
X151818Y67944*
Y57518*
X146273Y51973*
X146146Y51785*
X146103Y51561*
Y44442*
X145933Y44312*
X145765Y44091*
X145658Y43835*
X145620Y43560*
X145658Y43286*
X145765Y43030*
X145933Y42809*
X146154Y42641*
X146410Y42534*
X146684Y42496*
X146959Y42534*
X147215Y42641*
X147436Y42809*
X147604Y43030*
X147711Y43286*
X147749Y43560*
X147711Y43835*
X147604Y44091*
X147436Y44312*
X147266Y44442*
Y51320*
X152811Y56865*
X152938Y57053*
X152981Y57276*
Y67703*
X155816Y70538*
X156154*
X156255Y70403*
X156466Y70243*
X156710Y70142*
X156971Y70106*
X157233Y70142*
X157477Y70243*
X157688Y70403*
X157848Y70614*
X157949Y70858*
X157985Y71119*
X157949Y71381*
X157848Y71625*
X157688Y71836*
X157477Y71996*
X157233Y72097*
X156971Y72133*
G37*
G36*
X111886Y74053D02*
X111638Y74002D01*
X111429Y73863*
X111290Y73654*
X111239Y73405*
X111290Y73157*
X111429Y72948*
X111498Y72903*
Y71622*
X111429Y71577*
X111290Y71368*
X111239Y71119*
X111290Y70871*
X111429Y70662*
X111638Y70520*
X111886Y70472*
X112135Y70520*
X112344Y70662*
X112483Y70871*
X112534Y71119*
X112483Y71368*
X112344Y71577*
X112275Y71622*
Y72903*
X112344Y72948*
X112483Y73157*
X112534Y73405*
X112483Y73654*
X112344Y73863*
X112135Y74002*
X111886Y74053*
G37*
G36*
X47612Y71373D02*
X47116D01*
Y70878*
X47238Y70904*
X47447Y71043*
X47589Y71252*
X47612Y71373*
G37*
G36*
X49402Y71996D02*
X49281Y71970D01*
X49072Y71831*
X48933Y71622*
X48907Y71500*
X49402*
Y71996*
G37*
G36*
X49656D02*
Y71500D01*
X50152*
X50126Y71622*
X49987Y71831*
X49778Y71970*
X49656Y71996*
G37*
G36*
X46862Y72123D02*
X46741Y72100D01*
X46532Y71958*
X46390Y71749*
X46367Y71627*
X46862*
Y72123*
G37*
G36*
X66687Y72997D02*
Y71373D01*
X68310*
X68290Y71589*
X68188Y71922*
X68026Y72227*
X67807Y72494*
X67541Y72712*
X67236Y72875*
X66903Y72976*
X66687Y72997*
G37*
G36*
X83438Y71650D02*
X82943D01*
X82966Y71531*
X83108Y71320*
X83317Y71180*
X83438Y71155*
Y71650*
G37*
G36*
X84188D02*
X83692D01*
Y71155*
X83814Y71180*
X84023Y71320*
X84162Y71531*
X84188Y71650*
G37*
G36*
X66433Y72997D02*
X66217Y72976D01*
X65887Y72875*
X65582Y72712*
X65313Y72494*
X65095Y72227*
X64932Y71922*
X64833Y71589*
X64810Y71373*
X66433*
Y72997*
G37*
G36*
X91185Y67043D02*
Y66547D01*
X91681*
X91658Y66669*
X91516Y66878*
X91307Y67020*
X91185Y67043*
G37*
G36*
X157975Y69583D02*
X155968D01*
Y67576*
X157975*
Y68127*
X161737*
X162549Y67315*
X162547Y67309*
X162598Y67061*
X162737Y66852*
X162946Y66713*
X163194Y66662*
X163443Y66713*
X163652Y66852*
X163794Y67061*
X163842Y67309*
X163794Y67558*
X163652Y67767*
X163443Y67906*
X163194Y67957*
X163189Y67955*
X162245Y68900*
X162097Y68999*
X161924Y69032*
X157975*
Y69583*
G37*
G36*
X53339Y70116D02*
X53091Y70065D01*
X52882Y69926*
X52743Y69717*
X52692Y69468*
X52743Y69220*
X52882Y69011*
X53091Y68872*
X53339Y68821*
X53421Y68839*
X53654Y68602*
Y68364*
X53339*
Y67055*
Y66964*
Y66436*
X54747*
Y66964*
Y67055*
Y68364*
X54432*
Y68765*
X54401Y68912*
X54317Y69039*
X53969Y69387*
X53987Y69468*
X53936Y69717*
X53797Y69926*
X53588Y70065*
X53339Y70116*
G37*
G36*
X90931Y67043D02*
X90810Y67020D01*
X90601Y66878*
X90462Y66669*
X90436Y66547*
X90931*
Y67043*
G37*
G36*
X54747Y66182D02*
X54170D01*
Y65656*
X54747*
Y66182*
G37*
G36*
X90931Y66293D02*
X90436D01*
X90462Y66172*
X90601Y65963*
X90810Y65821*
X90931Y65798*
Y66293*
G37*
G36*
X91681D02*
X91185D01*
Y65798*
X91307Y65821*
X91516Y65963*
X91658Y66172*
X91681Y66293*
G37*
G36*
X98043Y68706D02*
X97548D01*
X97571Y68585*
X97713Y68376*
X97922Y68237*
X98043Y68211*
Y68706*
G37*
G36*
X74061Y73009D02*
X73718Y72976D01*
X73385Y72875*
X73080Y72712*
X72814Y72494*
X72595Y72227*
X72433Y71922*
X72331Y71589*
X72298Y71246*
X72331Y70904*
X72433Y70571*
X72595Y70266*
X72814Y69999*
X73080Y69781*
X73385Y69618*
X73718Y69517*
X74061Y69484*
X74404Y69517*
X74734Y69618*
X75039Y69781*
X75308Y69999*
X75526Y70266*
X75689Y70571*
X75788Y70904*
X75824Y71246*
X75788Y71589*
X75689Y71922*
X75526Y72227*
X75308Y72494*
X75039Y72712*
X74734Y72875*
X74404Y72976*
X74061Y73009*
G37*
G36*
X66433Y71119D02*
X64810D01*
X64833Y70904*
X64932Y70571*
X65095Y70266*
X65313Y69999*
X65582Y69781*
X65887Y69618*
X66217Y69517*
X66433Y69496*
Y71119*
G37*
G36*
X68310D02*
X66687D01*
Y69496*
X66903Y69517*
X67236Y69618*
X67541Y69781*
X67807Y69999*
X68026Y70266*
X68188Y70571*
X68290Y70904*
X68310Y71119*
G37*
G36*
X58292Y72783D02*
X58044Y72732D01*
X57835Y72593*
X57696Y72384*
X57645Y72135*
X57696Y71887*
X57835Y71678*
X58044Y71539*
X58292Y71488*
X58374Y71506*
X61320Y68559*
X61445Y68475*
X61594Y68445*
X69982*
X70027Y68376*
X70236Y68237*
X70484Y68186*
X70733Y68237*
X70942Y68376*
X70987Y68445*
X76326*
X76476Y68475*
X76601Y68559*
X77378Y69334*
X77556*
X77594Y69212*
X77520Y69164*
X77378Y68955*
X77330Y68706*
X77342Y68648*
X73865Y65171*
X71897*
X71881Y65168*
X71866Y65171*
X71719Y65143*
X71592Y65059*
X70573Y64038*
X69654*
Y61732*
X70020*
Y61282*
X69768*
X69677*
X69148*
Y60578*
Y59875*
X69677*
X69768*
X71076*
Y61282*
X70797*
Y61732*
X71163*
Y63530*
X72029Y64396*
X74025*
X74175Y64424*
X74302Y64508*
X77810Y68018*
X77932Y67985*
Y67988*
X77944Y67952*
X74030Y64038*
X72854*
Y61732*
X73220*
Y61282*
X72941*
Y59875*
X74249*
X74340*
X74869*
Y60578*
Y61282*
X74340*
X74249*
X73997*
Y61732*
X74363*
Y63271*
X79166Y68077*
X79247Y68059*
X79496Y68107*
X79705Y68249*
X79844Y68458*
X79895Y68706*
X79844Y68955*
X79705Y69164*
X79631Y69212*
X79669Y69334*
X79888*
X79933Y69265*
X80142Y69126*
X80390Y69075*
X80639Y69126*
X80848Y69265*
X80987Y69476*
X81038Y69722*
X80987Y69971*
X80848Y70182*
X80639Y70322*
X80390Y70370*
X80142Y70322*
X79933Y70182*
X79888Y70111*
X77215*
X77068Y70083*
X76941Y69997*
X76166Y69222*
X70987*
X70942Y69291*
X70733Y69433*
X70484Y69481*
X70236Y69433*
X70027Y69291*
X69982Y69222*
X61755*
X58922Y72054*
X58940Y72135*
X58892Y72384*
X58750Y72593*
X58541Y72732*
X58292Y72783*
G37*
G36*
X98793Y68706D02*
X98297D01*
Y68211*
X98419Y68237*
X98628Y68376*
X98770Y68585*
X98793Y68706*
G37*
G36*
X98043Y69456D02*
X97922Y69433D01*
X97713Y69291*
X97571Y69082*
X97548Y68960*
X98043*
Y69456*
G37*
G36*
X98297D02*
Y68960D01*
X98793*
X98770Y69082*
X98628Y69291*
X98419Y69433*
X98297Y69456*
G37*
G36*
X47116Y72123D02*
Y71627D01*
X47612*
X47589Y71749*
X47447Y71958*
X47238Y72100*
X47116Y72123*
G37*
G36*
X47497Y84581D02*
X47002D01*
X47025Y84460*
X47167Y84251*
X47376Y84112*
X47497Y84086*
Y84581*
G37*
G36*
X48247D02*
X47751D01*
Y84086*
X47873Y84112*
X48082Y84251*
X48224Y84460*
X48247Y84581*
G37*
G36*
X47497Y85331D02*
X47376Y85308D01*
X47167Y85166*
X47025Y84957*
X47002Y84835*
X47497*
Y85331*
G37*
G36*
X57657Y83299D02*
Y82803D01*
X58153*
X58127Y82925*
X57988Y83134*
X57779Y83273*
X57657Y83299*
G37*
G36*
X58153Y82549D02*
X57657D01*
Y82054*
X57779Y82080*
X57988Y82219*
X58127Y82428*
X58153Y82549*
G37*
G36*
X91693Y84594D02*
X91445Y84546D01*
X91236Y84404*
X91191Y84335*
X90423*
X90274Y84305*
X90149Y84221*
X89260Y83332*
X89176Y83207*
X89146Y83057*
Y81186*
X86453Y78493*
X70906*
X70871Y78615*
X70942Y78663*
X71081Y78872*
X71132Y79120*
X71114Y79202*
X72423Y80510*
X73157*
X73202Y80441*
X73411Y80299*
X73659Y80251*
X73908Y80299*
X74117Y80441*
X74256Y80650*
X74307Y80898*
X74256Y81147*
X74117Y81356*
X74048Y81401*
Y82135*
X74963Y83050*
X76459*
X76504Y82981*
X76713Y82842*
X76961Y82791*
X77210Y82842*
X77419Y82981*
X77561Y83190*
X77609Y83438*
X77561Y83687*
X77419Y83896*
X77210Y84035*
X76961Y84086*
X76713Y84035*
X76504Y83896*
X76459Y83827*
X74802*
X74653Y83797*
X74528Y83713*
X73385Y82570*
X73301Y82445*
X73271Y82295*
Y81401*
X73202Y81356*
X73157Y81287*
X72262*
X72138Y81262*
X72113Y81257*
X71988Y81173*
X70566Y79750*
X70484Y79768*
X70236Y79720*
X70027Y79578*
X69888Y79369*
X69837Y79120*
X69888Y78872*
X70027Y78663*
X70098Y78615*
X70063Y78493*
X63787*
X62504Y79776*
X62379Y79860*
X62229Y79890*
X58199*
X54884Y83205*
X54759Y83289*
X54609Y83319*
X48127*
X48082Y83388*
X47873Y83527*
X47624Y83578*
X47376Y83527*
X47167Y83388*
X47025Y83179*
X46977Y82930*
X47025Y82682*
X47167Y82473*
X47376Y82334*
X47624Y82283*
X47873Y82334*
X47912Y82359*
X48016Y82288*
X47993Y82168*
X48044Y81920*
X48183Y81711*
X48392Y81572*
X48640Y81521*
X48834Y81559*
X48894Y81447*
X48747Y81300*
X48663Y81175*
X48633Y81025*
Y76614*
X48468Y76448*
X48386Y76466*
X48138Y76415*
X47929Y76276*
X47790Y76067*
X47739Y75818*
X47790Y75570*
X47929Y75361*
X48138Y75222*
X48290Y75191*
X48277Y75064*
X42793*
X42748Y75133*
X42539Y75275*
X42290Y75323*
X42042Y75275*
X41833Y75133*
X41694Y74924*
X41643Y74675*
X41694Y74427*
X41833Y74218*
X42042Y74079*
X42290Y74028*
X42539Y74079*
X42748Y74218*
X42793Y74287*
X48988*
X49242Y74030*
X49184Y73919*
X49148Y73926*
X48900Y73878*
X48691Y73736*
X48552Y73527*
X48501Y73278*
X48552Y73030*
X48691Y72821*
X48900Y72679*
X49148Y72631*
X49397Y72679*
X49606Y72821*
X49651Y72890*
X56641*
X56791Y72920*
X56916Y73004*
X57932Y74020*
X58016Y74145*
X58021Y74170*
X58046Y74294*
Y75702*
X58386Y76042*
X58513Y76024*
X58552Y75953*
X58458Y75813*
X58407Y75564*
X58458Y75316*
X58597Y75107*
X58806Y74968*
X59054Y74917*
X59303Y74968*
X59512Y75107*
X59557Y75176*
X59761*
X59822Y75064*
X59725Y74924*
X59677Y74675*
X59725Y74427*
X59829Y74272*
X59761Y74167*
X59689Y74180*
X59441Y74132*
X59232Y73990*
X59093Y73781*
X59042Y73532*
X59093Y73286*
X59232Y73075*
X59441Y72936*
X59689Y72885*
X59938Y72936*
X60147Y73075*
X60192Y73144*
X77302*
X77337Y73022*
X77266Y72974*
X77124Y72765*
X77076Y72516*
X77124Y72268*
X77266Y72059*
X77475Y71917*
X77723Y71869*
X77805Y71887*
X78338Y71353*
X78463Y71269*
X78612Y71239*
X80738*
X83558Y68419*
Y65653*
X83489Y65608*
X83350Y65399*
X83299Y65150*
X83350Y64902*
X83489Y64693*
X83698Y64554*
X83946Y64503*
X84195Y64554*
X84404Y64693*
X84454Y64767*
X84581*
X84632Y64693*
X84841Y64554*
X85089Y64503*
X85338Y64554*
X85547Y64693*
X85686Y64902*
X85737Y65150*
X85686Y65399*
X85547Y65608*
X85478Y65653*
Y68155*
X85448Y68303*
X85364Y68430*
X81003Y72791*
X80876Y72875*
X80728Y72905*
X79369*
X79324Y72974*
X79253Y73022*
X79288Y73144*
X91058*
X91208Y73174*
X91333Y73258*
X92496Y74421*
X92608Y74361*
X92570Y74167*
X92621Y73919*
X92760Y73710*
X92969Y73571*
X93217Y73520*
X93408Y73558*
X93497Y73469*
X93459Y73278*
X93507Y73030*
X93649Y72821*
X93858Y72679*
X94106Y72631*
X94355Y72679*
X94564Y72821*
X94609Y72890*
X100975*
X106829Y67035*
X106956Y66951*
X107104Y66921*
X111269*
X111282Y66794*
X111130Y66766*
X110921Y66624*
X110782Y66415*
X110731Y66166*
X110782Y65918*
X110921Y65709*
X110990Y65664*
Y64124*
X108849Y61983*
X98483*
X98437Y62052*
X98226Y62191*
X97980Y62242*
X97731Y62191*
X97523Y62052*
X97381Y61843*
X97332Y61594*
X97381Y61346*
X97523Y61137*
X97731Y60995*
X97980Y60947*
X98226Y60995*
X98432Y61132*
X98521Y61043*
X98463Y60954*
X98412Y60705*
X98463Y60457*
X98602Y60248*
X98811Y60109*
X99059Y60058*
X99308Y60109*
X99517Y60248*
X99656Y60457*
X99705Y60698*
X109219*
X109369Y60728*
X109494Y60812*
X112542Y63860*
X112626Y63985*
X112656Y64134*
Y64521*
X112725Y64566*
X112867Y64775*
X112915Y65023*
X112867Y65272*
X112725Y65481*
X112516Y65620*
X112267Y65671*
X112019Y65620*
X111879Y65526*
X111813Y65562*
X111808Y65689*
X111836Y65709*
X111975Y65918*
X112026Y66166*
X111975Y66415*
X111836Y66624*
X111627Y66766*
X111475Y66794*
X111488Y66921*
X114393*
X120007Y61307*
Y60192*
X119938Y60147*
X119824Y59977*
X119697*
X119583Y60147*
X119374Y60286*
X119125Y60337*
X118877Y60286*
X118668Y60147*
X118529Y59938*
X118478Y59689*
X118529Y59441*
X118668Y59232*
X118737Y59187*
Y56641*
X118739Y56634*
X118737Y56629*
X118767Y56479*
X118851Y56354*
X123677Y51528*
X123802Y51445*
X123951Y51414*
X124018Y51427*
X131284*
X132961Y49750*
Y47708*
X132646*
Y46400*
Y46309*
Y45001*
X132897*
Y44513*
X132819Y44480*
X132598Y44312*
X132430Y44091*
X132323Y43835*
X132285Y43560*
X132323Y43286*
X132430Y43030*
X132598Y42809*
X132819Y42641*
X133075Y42534*
X133349Y42496*
X133624Y42534*
X133880Y42641*
X134101Y42809*
X134269Y43030*
X134376Y43286*
X134414Y43560*
X134376Y43835*
X134269Y44091*
X134101Y44312*
X133880Y44480*
X133802Y44513*
Y45001*
X134053*
Y46309*
Y46400*
Y47708*
X133738*
Y49651*
X133855Y49700*
X135501Y48054*
Y47708*
X135186*
Y46400*
Y46309*
Y45001*
X136593*
Y45201*
X137419*
X137977Y44643*
Y44513*
X137899Y44480*
X137678Y44312*
X137510Y44091*
X137403Y43835*
X137365Y43560*
X137403Y43286*
X137510Y43030*
X137678Y42809*
X137899Y42641*
X138155Y42534*
X138429Y42496*
X138704Y42534*
X138960Y42641*
X139181Y42809*
X139349Y43030*
X139456Y43286*
X139494Y43560*
X139456Y43835*
X139349Y44091*
X139181Y44312*
X138960Y44480*
X138882Y44513*
Y44830*
X138849Y45003*
X138800Y45077*
X138750Y45151*
X137927Y45976*
X137779Y46073*
X137607Y46108*
X136593*
Y46309*
Y46400*
Y47708*
X136278*
Y48216*
X136248Y48364*
X136164Y48491*
X131930Y52725*
X131803Y52809*
X131655Y52839*
X124353*
X120784Y56408*
Y59187*
X120853Y59232*
X120992Y59441*
X121043Y59689*
X120992Y59938*
X120853Y60147*
X120784Y60192*
Y61467*
X120754Y61617*
X120670Y61742*
X119032Y63383*
X119090Y63494*
X119125Y63487*
X119374Y63538*
X119583Y63677*
X119725Y63886*
X119773Y64134*
X119725Y64383*
X119583Y64592*
X119374Y64731*
X119125Y64782*
X119044Y64764*
X115717Y68092*
X115592Y68176*
X115442Y68206*
X107475*
X101239Y74442*
X101114Y74526*
X100964Y74556*
X95559*
X95498Y74668*
X95595Y74808*
X95643Y75056*
X95595Y75305*
X95453Y75514*
X95244Y75653*
X94995Y75704*
X94833Y75671*
X94741Y75760*
X94754Y75818*
X94703Y76067*
X94564Y76276*
X94355Y76415*
X94106Y76466*
X93858Y76415*
X93649Y76276*
X93604Y76207*
X92969*
X92920Y76324*
X95143Y78549*
X95227Y78673*
X95257Y78823*
Y81412*
X95326Y81457*
X95465Y81666*
X95516Y81914*
X95465Y82163*
X95326Y82372*
X95117Y82511*
X94868Y82562*
X94620Y82511*
X94411Y82372*
X94272Y82163*
X94221Y81914*
X94272Y81666*
X94411Y81457*
X94480Y81412*
Y78983*
X92709Y77213*
X92588Y77251*
X92544Y77464*
X92455Y77599*
Y77622*
X92499Y77723*
X92605Y77746*
X92730Y77830*
X93746Y78846*
X93830Y78971*
X93835Y78996*
X93860Y79120*
Y82285*
X94101Y82334*
X94310Y82473*
X94449Y82682*
X94500Y82930*
X94449Y83179*
X94310Y83388*
X94101Y83527*
X93852Y83578*
X93604Y83527*
X93395Y83388*
X93253Y83179*
X93205Y82930*
X93223Y82849*
X93197Y82824*
X93113Y82699*
X93083Y82549*
Y79281*
X92295Y78493*
X89623*
X89573Y78610*
X91206Y80243*
X91290Y80368*
X91320Y80517*
Y81285*
X91389Y81330*
X91528Y81539*
X91579Y81787*
X91528Y82036*
X91389Y82245*
X91180Y82387*
X91160Y82389*
X91135Y82514*
X91262Y82600*
X91404Y82809*
X91452Y83057*
X91414Y83248*
X91503Y83337*
X91693Y83299*
X91942Y83350*
X92151Y83489*
X92290Y83698*
X92341Y83946*
X92290Y84195*
X92151Y84404*
X91942Y84546*
X91693Y84594*
G37*
G36*
X57403Y83299D02*
X57282Y83273D01*
X57073Y83134*
X56934Y82925*
X56908Y82803*
X57403*
Y83299*
G37*
G36*
X47751Y85331D02*
Y84835D01*
X48247*
X48224Y84957*
X48082Y85166*
X47873Y85308*
X47751Y85331*
G37*
G36*
X160654Y90700D02*
X160393Y90665D01*
X160149Y90563*
X159938Y90403*
X159778Y90192*
X159677Y89949*
X159641Y89687*
X159674Y89441*
X159235Y89001*
X159118Y89049*
Y90690*
X157111*
Y90205*
X152552*
X152354Y90164*
X152186Y90053*
X147995Y85862*
X134746*
X134548Y85821*
X134381Y85709*
X132240Y83568*
X132206Y83573*
X132008Y83545*
X131823Y83469*
X131663Y83347*
X131541Y83187*
X131465Y83002*
X131437Y82803*
X131465Y82605*
X131541Y82420*
X131663Y82260*
X131782Y82168*
X131742Y82049*
X127922*
X125750Y84221*
X125625Y84305*
X125475Y84335*
X101091*
X100942Y84305*
X100817Y84221*
X100665Y84068*
X100583Y84086*
X100335Y84035*
X100126Y83896*
X99987Y83687*
X99936Y83438*
X99987Y83190*
X100081Y83050*
X100020Y82938*
X97530*
X97485Y83007*
X97276Y83149*
X97027Y83197*
X96779Y83149*
X96570Y83007*
X96428Y82798*
X96380Y82549*
X96428Y82301*
X96570Y82092*
X96779Y81950*
X97027Y81902*
X97276Y81950*
X97485Y82092*
X97530Y82161*
X101345*
X101495Y82191*
X101620Y82275*
X102344Y82999*
X102471Y82981*
X102494Y82938*
X102397Y82798*
X102349Y82549*
X102397Y82301*
X102539Y82092*
X102748Y81950*
X102996Y81902*
X103187Y81940*
X103276Y81851*
X103238Y81660*
X103289Y81412*
X103383Y81272*
X103360Y81229*
X103233Y81211*
X103017Y81427*
X102892Y81511*
X102742Y81541*
X101213*
X101168Y81610*
X100959Y81749*
X100710Y81800*
X100462Y81749*
X100253Y81610*
X100114Y81401*
X100063Y81152*
X100114Y80904*
X100253Y80695*
X100462Y80553*
X100710Y80505*
X100959Y80553*
X101046Y80614*
X101137Y80523*
X101130Y80512*
X101079Y80263*
X101130Y80015*
X101269Y79806*
X101478Y79667*
X101726Y79616*
X101975Y79667*
X102184Y79806*
X102229Y79875*
X119473*
X129900Y69448*
X130025Y69364*
X130174Y69334*
X137794*
X137944Y69364*
X138069Y69448*
X138844Y70223*
X144271*
X144421Y70253*
X144546Y70337*
X145448Y71239*
X149738*
X149783Y71170*
X149992Y71028*
X150240Y70980*
X150489Y71028*
X150698Y71170*
X150837Y71379*
X150888Y71627*
X150837Y71876*
X150698Y72085*
X150489Y72224*
X150240Y72275*
X149992Y72224*
X149783Y72085*
X149738Y72016*
X145287*
X145163Y71991*
X145138Y71986*
X145013Y71902*
X144642Y71534*
X144531Y71592*
X144538Y71627*
X144487Y71876*
X144348Y72085*
X144139Y72224*
X143890Y72275*
X143642Y72224*
X143433Y72085*
X143388Y72016*
X138937*
X138813Y71991*
X138788Y71986*
X138663Y71902*
X138292Y71534*
X138181Y71592*
X138188Y71627*
X138137Y71876*
X137998Y72085*
X137789Y72224*
X137540Y72275*
X137292Y72224*
X137083Y72085*
X137038Y72016*
X132460*
X132311Y71986*
X132186Y71902*
X131945Y71661*
X131823Y71699*
X131787Y71876*
X131648Y72085*
X131439Y72224*
X131190Y72275*
X130942Y72224*
X130733Y72085*
X130703Y72039*
X130576Y72026*
X120540Y82062*
X120413Y82146*
X120266Y82176*
X104998*
X104475Y82697*
X104350Y82781*
X104200Y82811*
X103586*
X103499Y82938*
X103560Y83050*
X124934*
X127106Y80878*
X127231Y80794*
X127309Y80779*
X127297Y80652*
X125089*
X125044Y80721*
X124835Y80860*
X124586Y80911*
X124338Y80860*
X124129Y80721*
X123990Y80512*
X123939Y80263*
X123990Y80015*
X124129Y79806*
X124338Y79667*
X124586Y79616*
X124835Y79667*
X124846Y79674*
X124937Y79583*
X124879Y79496*
X124828Y79247*
X124879Y78999*
X125018Y78790*
X125227Y78651*
X125475Y78600*
X125724Y78651*
X125933Y78790*
X125978Y78859*
X131698*
X131848Y78889*
X131973Y78973*
X132875Y79875*
X137038*
X137083Y79806*
X137292Y79667*
X137540Y79616*
X137789Y79667*
X137998Y79806*
X138137Y80015*
X138188Y80263*
X138137Y80512*
X138043Y80652*
X138104Y80764*
X142841*
X143261Y80345*
X143243Y80263*
X143291Y80015*
X143433Y79806*
X143642Y79667*
X143890Y79616*
X144139Y79667*
X144348Y79806*
X144487Y80015*
X144538Y80263*
X144487Y80512*
X144348Y80721*
X144139Y80860*
X143890Y80911*
X143809Y80893*
X143548Y81155*
X143598Y81272*
X148683*
X149611Y80345*
X149593Y80263*
X149641Y80015*
X149783Y79806*
X149992Y79667*
X150240Y79616*
X150489Y79667*
X150698Y79806*
X150837Y80015*
X150888Y80263*
X150837Y80512*
X150698Y80721*
X150489Y80860*
X150240Y80911*
X150159Y80893*
X149118Y81935*
X148993Y82019*
X148843Y82049*
X145371*
X145331Y82168*
X145450Y82260*
X145470Y82285*
X149224*
X149423Y82326*
X149590Y82438*
X153781Y86629*
X157246*
X157358Y86484*
X157302Y86370*
X154304*
X154106Y86329*
X153939Y86217*
X151290Y83568*
X151256Y83573*
X151058Y83545*
X150873Y83469*
X150713Y83347*
X150591Y83187*
X150515Y83002*
X150487Y82803*
X150515Y82605*
X150591Y82420*
X150713Y82260*
X150873Y82138*
X151058Y82062*
X151256Y82034*
X151455Y82062*
X151640Y82138*
X151800Y82260*
X151922Y82420*
X151998Y82605*
X152026Y82803*
X152021Y82837*
X154518Y85333*
X157264*
X157312Y85232*
X157246Y85125*
X156489*
X156291Y85084*
X156123Y84973*
X149519Y78369*
X144652*
X144454Y78328*
X144287Y78216*
X142026Y75956*
X137667*
X137469Y75915*
X137302Y75803*
X136184Y74686*
X132770*
X132750Y74711*
X132590Y74833*
X132405Y74909*
X132206Y74937*
X132008Y74909*
X131823Y74833*
X131663Y74711*
X131541Y74551*
X131465Y74366*
X131437Y74167*
X131465Y73969*
X131541Y73784*
X131663Y73624*
X131823Y73502*
X132008Y73426*
X132206Y73398*
X132405Y73426*
X132590Y73502*
X132750Y73624*
X132770Y73649*
X136397*
X136596Y73690*
X136763Y73802*
X137881Y74919*
X138087*
X138127Y74800*
X138013Y74711*
X137891Y74551*
X137815Y74366*
X137787Y74167*
X137815Y73969*
X137891Y73784*
X138013Y73624*
X138173Y73502*
X138358Y73426*
X138556Y73398*
X138755Y73426*
X138940Y73502*
X139100Y73624*
X139120Y73649*
X142747*
X142946Y73690*
X143113Y73802*
X145374Y76062*
X146067*
X146080Y75935*
X145978Y75915*
X145811Y75803*
X144940Y74932*
X144906Y74937*
X144708Y74909*
X144523Y74833*
X144363Y74711*
X144241Y74551*
X144165Y74366*
X144137Y74167*
X144165Y73969*
X144241Y73784*
X144363Y73624*
X144523Y73502*
X144708Y73426*
X144906Y73398*
X145105Y73426*
X145290Y73502*
X145450Y73624*
X145572Y73784*
X145648Y73969*
X145676Y74167*
X145671Y74201*
X146390Y74919*
X150787*
X150827Y74800*
X150713Y74711*
X150591Y74551*
X150515Y74366*
X150487Y74167*
X150515Y73969*
X150591Y73784*
X150713Y73624*
X150873Y73502*
X151058Y73426*
X151256Y73398*
X151455Y73426*
X151640Y73502*
X151800Y73624*
X151820Y73649*
X152755*
X152953Y73690*
X153121Y73802*
X160408Y81086*
X160654Y81053*
X160916Y81089*
X161160Y81191*
X161371Y81351*
X161531Y81561*
X161632Y81805*
X161668Y82067*
X161632Y82329*
X161531Y82572*
X161371Y82783*
X161160Y82943*
X160916Y83045*
X160654Y83080*
X160393Y83045*
X160149Y82943*
X159938Y82783*
X159778Y82572*
X159677Y82329*
X159641Y82067*
X159674Y81821*
X152542Y74686*
X151820*
X151800Y74711*
X151643Y74833*
X151671Y74957*
X151683Y74960*
X151851Y75072*
X157868Y81086*
X158114Y81053*
X158376Y81089*
X158620Y81191*
X158831Y81351*
X158991Y81561*
X159092Y81805*
X159128Y82067*
X159092Y82329*
X158991Y82572*
X158889Y82704*
X158948Y82819*
X159384*
X159583Y82859*
X159750Y82971*
X160408Y83626*
X160654Y83593*
X160916Y83629*
X161160Y83731*
X161371Y83891*
X161531Y84101*
X161632Y84345*
X161668Y84607*
X161632Y84869*
X161531Y85112*
X161371Y85323*
X161160Y85483*
X160916Y85585*
X160654Y85620*
X160393Y85585*
X160149Y85483*
X159938Y85323*
X159778Y85112*
X159677Y84869*
X159641Y84607*
X159674Y84361*
X159171Y83855*
X158948*
X158889Y83969*
X158991Y84101*
X159092Y84345*
X159128Y84607*
X159092Y84869*
X158991Y85112*
X158910Y85219*
X158965Y85333*
X159359*
X159557Y85374*
X159725Y85486*
X160408Y86166*
X160654Y86133*
X160916Y86169*
X161160Y86271*
X161371Y86431*
X161531Y86641*
X161632Y86885*
X161668Y87147*
X161632Y87409*
X161531Y87652*
X161371Y87863*
X161160Y88023*
X160916Y88125*
X160654Y88160*
X160393Y88125*
X160149Y88023*
X159938Y87863*
X159778Y87652*
X159677Y87409*
X159641Y87147*
X159674Y86901*
X159146Y86370*
X158927*
X158871Y86484*
X158991Y86641*
X159092Y86885*
X159128Y87147*
X159092Y87409*
X158991Y87652*
X158910Y87759*
X158965Y87873*
X159359*
X159557Y87914*
X159725Y88026*
X160408Y88706*
X160654Y88673*
X160916Y88709*
X161160Y88811*
X161371Y88971*
X161531Y89181*
X161632Y89425*
X161668Y89687*
X161632Y89949*
X161531Y90192*
X161371Y90403*
X161160Y90563*
X160916Y90665*
X160654Y90700*
G37*
G36*
X52702Y90322D02*
X50126D01*
X50137Y90263*
X50231Y90124*
X50137Y89987*
X50101Y89799*
X50137Y89613*
X50243Y89453*
X50401Y89349*
X50589Y89311*
X52240*
X52425Y89349*
X52585Y89453*
X52689Y89613*
X52727Y89799*
X52689Y89987*
X52598Y90124*
X52689Y90263*
X52702Y90322*
G37*
G36*
X82547D02*
X79971D01*
X79982Y90263*
X80076Y90124*
X79982Y89987*
X79946Y89799*
X79982Y89613*
X80088Y89453*
X80246Y89349*
X80434Y89311*
X82085*
X82270Y89349*
X82428Y89453*
X82534Y89613*
X82572Y89799*
X82534Y89987*
X82443Y90124*
X82534Y90263*
X82547Y90322*
G37*
G36*
X90042Y86220D02*
Y85724D01*
X90538*
X90512Y85846*
X90373Y86055*
X90164Y86194*
X90042Y86220*
G37*
G36*
X89788Y85470D02*
X89293D01*
X89316Y85349*
X89458Y85140*
X89667Y85001*
X89788Y84975*
Y85470*
G37*
G36*
X90538D02*
X90042D01*
Y84975*
X90164Y85001*
X90373Y85140*
X90512Y85349*
X90538Y85470*
G37*
G36*
X89788Y86220D02*
X89667Y86194D01*
X89458Y86055*
X89316Y85846*
X89293Y85724*
X89788*
Y86220*
G37*
G36*
X47624Y73926D02*
X47376Y73878D01*
X47167Y73736*
X47122Y73667*
X45338*
X45189Y73637*
X45064Y73553*
X44848Y73337*
X44764Y73210*
X44734Y73063*
Y72659*
X44368*
X44277*
X43649*
Y71754*
Y70850*
X44277*
X44368*
X45877*
Y72659*
X45511*
Y72890*
X47104*
X47116Y72864*
X47162Y72829*
X47167Y72821*
X47190Y72806*
X47236Y72768*
X47254Y72763*
X47376Y72679*
X47624Y72631*
X47873Y72679*
X48082Y72821*
X48224Y73030*
X48272Y73278*
X48224Y73527*
X48082Y73736*
X47873Y73878*
X47624Y73926*
G37*
G36*
X117419Y76649D02*
X117170Y76601D01*
X116959Y76461*
X116913Y76390*
X115387*
X115237Y76362*
X115110Y76278*
X112824Y73992*
X112740Y73865*
X112712Y73715*
Y70830*
X111531Y69649*
X111450Y69664*
X111201Y69616*
X110990Y69476*
X110850Y69265*
X110802Y69016*
X110850Y68770*
X110990Y68559*
X111201Y68419*
X111450Y68371*
X111696Y68419*
X111907Y68559*
X112047Y68770*
X112095Y69016*
X112080Y69100*
X113375Y70393*
X113459Y70520*
X113489Y70667*
Y73555*
X115547Y75613*
X116913*
X116959Y75544*
X117170Y75404*
X117419Y75356*
X117665Y75404*
X117876Y75544*
X118016Y75755*
X118064Y76001*
X118016Y76250*
X117876Y76461*
X117665Y76601*
X117419Y76649*
G37*
G36*
X107695Y76707D02*
X107200D01*
X107223Y76586*
X107365Y76377*
X107574Y76238*
X107695Y76212*
Y76707*
G37*
G36*
X83692Y72400D02*
Y71904D01*
X84188*
X84162Y72026*
X84023Y72235*
X83814Y72377*
X83692Y72400*
G37*
G36*
X92374Y71950D02*
X92303D01*
X92283*
X90975*
Y71635*
X90545*
X90500Y71704*
X90291Y71846*
X90042Y71894*
X89794Y71846*
X89585Y71704*
X89446Y71495*
X89395Y71246*
X89446Y70998*
X89585Y70789*
X89794Y70650*
X90042Y70599*
X90291Y70650*
X90500Y70789*
X90545Y70858*
X90975*
Y70543*
X92283*
X92374*
X93682*
Y71950*
X92374*
G37*
G36*
X43395Y72659D02*
X42768D01*
Y71881*
X43395*
Y72659*
G37*
G36*
X83438Y72400D02*
X83317Y72377D01*
X83108Y72235*
X82966Y72026*
X82943Y71904*
X83438*
Y72400*
G37*
G36*
X108445Y76707D02*
X107949D01*
Y76212*
X108071Y76238*
X108280Y76377*
X108419Y76586*
X108445Y76707*
G37*
G36*
X97789Y77584D02*
X97668Y77561D01*
X97459Y77419*
X97317Y77210*
X97294Y77088*
X97789*
Y77584*
G37*
G36*
X98043D02*
Y77088D01*
X98539*
X98516Y77210*
X98374Y77419*
X98165Y77561*
X98043Y77584*
G37*
G36*
X57403Y82549D02*
X56908D01*
X56934Y82428*
X57073Y82219*
X57282Y82080*
X57403Y82054*
Y82549*
G37*
G36*
X107949Y77457D02*
Y76961D01*
X108445*
X108419Y77083*
X108280Y77292*
X108071Y77431*
X107949Y77457*
G37*
G36*
X97789Y76834D02*
X97294D01*
X97317Y76713*
X97459Y76504*
X97668Y76362*
X97789Y76339*
Y76834*
G37*
G36*
X98539D02*
X98043D01*
Y76339*
X98165Y76362*
X98374Y76504*
X98516Y76713*
X98539Y76834*
G37*
G36*
X107695Y77457D02*
X107574Y77431D01*
X107365Y77292*
X107223Y77083*
X107200Y76961*
X107695*
Y77457*
G37*
%LNlp_led_cube_8x8x8-3*%
%LPD*%
G54D10*
X52196Y62163D03*
Y63566D03*
X43941Y62163D03*
Y63566D03*
X49529Y52003D03*
Y53406D03*
X48259Y52003D03*
Y53406D03*
X54043Y67708D03*
Y66309D03*
X88264Y58232D03*
Y56829D03*
X59689Y47056D03*
Y45653D03*
X82549Y47056D03*
Y45653D03*
X85089Y47056D03*
Y45653D03*
X50799Y46796D03*
Y48199D03*
X46989Y46796D03*
Y48199D03*
X133349Y47056D03*
Y45653D03*
X135889Y47056D03*
Y45653D03*
X144144Y47056D03*
Y45653D03*
G54D11*
X69021Y60578D03*
X70424D03*
X77784Y60070D03*
X79187D03*
X82743D03*
X81340D03*
X74996Y60578D03*
X73593D03*
X75498Y57784D03*
X76901D03*
X75498Y56260D03*
X76901D03*
X73091D03*
X71688D03*
X73091Y57784D03*
X71688D03*
X91627Y71246D03*
X93030D03*
G54D17*
X90931Y100065D03*
Y101864D03*
X80771D03*
Y100065D03*
X88391D03*
Y101864D03*
X83311D03*
Y100065D03*
X115696D03*
Y101864D03*
X85851Y100065D03*
Y101864D03*
X108076D03*
Y100065D03*
X123316D03*
Y101864D03*
X143001D03*
Y100065D03*
X148081D03*
Y101864D03*
X118236Y100065D03*
Y101864D03*
X113156D03*
Y100065D03*
X75691Y101864D03*
Y100065D03*
X110616Y101864D03*
Y100065D03*
X120776D03*
Y101864D03*
X145541Y100065D03*
Y101864D03*
X93471Y100065D03*
Y101864D03*
X78231D03*
Y100065D03*
X140461Y101864D03*
Y100065D03*
X105536Y101864D03*
Y100065D03*
X150621D03*
Y101864D03*
X137921D03*
Y100065D03*
X153161D03*
Y101864D03*
X135381D03*
Y100065D03*
X56006D03*
Y101864D03*
X53466D03*
Y100065D03*
X58546D03*
Y101864D03*
X50926D03*
Y100065D03*
X61086D03*
Y101864D03*
X48386D03*
Y100065D03*
X63626D03*
Y101864D03*
X45846D03*
Y100065D03*
G54D31*
X90423Y83946D02*
X91693D01*
X89534Y83057D02*
X90423Y83946D01*
X89534Y81025D02*
Y83057D01*
X86613Y78104D02*
X89534Y81025D01*
X58038Y79501D02*
X62229D01*
X54609Y82930D02*
X58038Y79501D01*
X47624Y82930D02*
X54609D01*
X48640Y82168D02*
X54609D01*
X57784Y78993*
X49656Y81660D02*
X54355D01*
X57530Y78485*
X50037Y80771D02*
X54526D01*
X57320Y77977*
X52577Y80263D02*
X54315D01*
X57109Y77469*
X93471Y82549D02*
X93852Y82930D01*
X93471Y79120D02*
Y82549D01*
X92455Y78104D02*
X93471Y79120D01*
X90042Y82295D02*
X90804Y83057D01*
X90042Y80771D02*
Y82295D01*
X86867Y77596D02*
X90042Y80771D01*
X90931Y80517D02*
Y81787D01*
X87502Y77088D02*
X90931Y80517D01*
X63118Y77088D02*
X87502D01*
X87756Y76580D02*
X89280Y78104D01*
X92455*
X88010Y76072D02*
X89407Y77469D01*
X91693*
X62864Y76580D02*
X87756D01*
X63626Y78104D02*
X86613D01*
X62229Y79501D02*
X63626Y78104D01*
X63372Y77596D02*
X86867D01*
X61975Y78993D02*
X63372Y77596D01*
X57784Y78993D02*
X61975D01*
X57109Y77469D02*
X61213D01*
X57320Y77977D02*
X61467D01*
X57530Y78485D02*
X61721D01*
X63118Y77088*
X49021Y81025D02*
X49656Y81660D01*
X49021Y76453D02*
Y81025D01*
X48386Y75818D02*
X49021Y76453D01*
X61467Y77977D02*
X62864Y76580D01*
X62610Y76072D02*
X88010D01*
X91693Y77469D02*
X91947Y77215D01*
X61213Y77469D02*
X62610Y76072D01*
X50164Y77850D02*
X52577Y80263D01*
X50164Y75564D02*
Y77850D01*
X60959Y74040D02*
X90804D01*
X60324Y74675D02*
X60959Y74040D01*
X88899Y75564D02*
X89915Y76580D01*
X62356Y75564D02*
X88899D01*
X60959Y76961D02*
X62356Y75564D01*
X57657Y74294D02*
Y75862D01*
X56641Y73278D02*
X57657Y74294D01*
X49148Y73278D02*
X56641D01*
X57149Y74548D02*
Y76072D01*
X56387Y73786D02*
X57149Y74548D01*
X50037Y73786D02*
X56387D01*
X57149Y76072D02*
X58038Y76961D01*
X58249Y76453D02*
X60705D01*
X57657Y75862D02*
X58249Y76453D01*
X58038Y76961D02*
X60959D01*
X49148Y74675D02*
X50037Y73786D01*
X42290Y74675D02*
X49148D01*
X60705Y76453D02*
X62102Y75056D01*
X90042*
X90423Y75437*
Y75564*
X54990Y74802D02*
Y77596D01*
X53466Y79120D02*
X54990Y77596D01*
X61848Y74548D02*
X90594D01*
X60832Y75564D02*
X61848Y74548D01*
X59054Y75564D02*
X60832D01*
X94868Y78823D02*
Y81914D01*
X90594Y74548D02*
X94868Y78823D01*
X92582Y75818D02*
X94106D01*
X90804Y74040D02*
X92582Y75818D01*
Y75056D02*
X94995D01*
X91058Y73532D02*
X92582Y75056D01*
X59689Y73532D02*
X91058D01*
X120395Y59689D02*
Y61467D01*
X77088Y80898D02*
X77850Y80136D01*
X81914*
X77215Y69722D02*
X80390D01*
X76326Y68833D02*
X77215Y69722D01*
X58292Y72135D02*
X61594Y68833D01*
X52196Y63566D02*
D01*
Y65023D01*
X50672Y49529D02*
X56387Y55244D01*
X52069Y54228D02*
Y55498D01*
X51247Y53406D02*
X52069Y54228D01*
X49529Y53406D02*
X51247D01*
X50799Y48199D02*
Y48894D01*
X54355Y52450*
X52069Y55498D02*
D01*
X48259Y56768D02*
X50799D01*
X48259D02*
Y58038D01*
D01*
Y53406D02*
Y58038D01*
X48894Y67817D02*
X51815D01*
X48132Y68579D02*
X48894Y67817D01*
X44706Y68579D02*
X48132D01*
X44008Y67878D02*
X44706Y68579D01*
X44957Y60070D02*
X54990D01*
X44449Y60578D02*
X44957Y60070D01*
X54990D02*
X55498Y60578D01*
X55117Y70230D02*
X56387Y68960D01*
Y55244D02*
Y68960D01*
X56895Y54990D02*
Y70230D01*
X54355Y52450D02*
X56895Y54990D01*
X50799Y60959D02*
Y65150D01*
X48259Y67690D02*
X50799Y65150D01*
X45719Y67690D02*
X48259D01*
Y66928D02*
X49529Y65658D01*
X46611Y66928D02*
X48259D01*
X49529Y60959D02*
Y65658D01*
X45719Y64642D02*
X46862Y65785D01*
X45719Y60959D02*
Y64642D01*
X46989D02*
X48132Y65785D01*
X46989Y60959D02*
Y64642D01*
X47419Y73111D02*
X47624Y73278D01*
X50799Y56768D02*
X52069Y55498D01*
X74025Y64785D02*
X77962Y68722D01*
X71897Y64785D02*
X74025D01*
X73621Y63080D02*
X79263Y68722D01*
X70396Y63312D02*
X71866Y64785D01*
X73609Y60594D02*
Y62885D01*
X70408Y60594D02*
Y62885D01*
X82041Y62610D02*
Y64769D01*
X78485Y62610D02*
Y64769D01*
X81340Y60070D02*
Y61909D01*
X79187Y60070D02*
Y61909D01*
X88264Y58232D02*
Y60324D01*
X75498Y56260D02*
D01*
X74294D02*
X75498D01*
X74294Y57784D02*
X75498D01*
X73091D02*
X74294D01*
X73091Y56260D02*
X74294D01*
X70611Y57784D02*
X71688D01*
X68579Y55752D02*
X70611Y57784D01*
X70865Y56260D02*
X71688D01*
X69849Y55244D02*
X70865Y56260D01*
X69849Y53149D02*
Y55244D01*
X68579Y52387D02*
Y55752D01*
Y52387D02*
X69849Y51117D01*
X59689Y47056D02*
X61909D01*
X84454Y50231D02*
Y59181D01*
X85089Y47056D02*
Y58546D01*
X85724Y59181*
X82549Y48326D02*
X84454Y50231D01*
X82549Y47056D02*
Y48326D01*
X112267Y64134D02*
Y65023D01*
X109219Y61086D02*
X112267Y64134D01*
X111378Y63964D02*
Y66166D01*
X99440Y61086D02*
X109219D01*
X99059Y60705D02*
X99440Y61086D01*
X132714Y80263D02*
X137540D01*
X124586D02*
X131063D01*
X104200Y82422D02*
X104835Y81787D01*
X103123Y82422D02*
X104200D01*
X102996Y82549D02*
X103123Y82422D01*
X104835Y81787D02*
X120266D01*
X130426Y71627*
X120055Y81279D02*
X130596Y70738D01*
X104266Y81279D02*
X120055D01*
X103885Y81660D02*
X104266Y81279D01*
X119633Y80263D02*
X130174Y69722D01*
X101726Y80263D02*
X119633D01*
X125475Y83946D02*
X127761Y81660D01*
X101091Y83946D02*
X125475D01*
X100583Y83438D02*
X101091Y83946D01*
X144271Y70611D02*
X145287Y71627D01*
X138683Y70611D02*
X144271D01*
X137794Y69722D02*
X138683Y70611D01*
X130174Y69722D02*
X137794D01*
X137540Y70230D02*
X138937Y71627D01*
X130385Y70230D02*
X137540D01*
X119844Y80771D02*
X130385Y70230D01*
X103123Y80771D02*
X119844D01*
X130426Y71627D02*
X131190D01*
X130596Y70738D02*
X131571D01*
X145287Y71627D02*
X150240D01*
X100710Y81152D02*
X102742D01*
X103123Y80771*
X138937Y71627D02*
X143890D01*
X111450Y69016D02*
X113101Y70667D01*
X111886Y71119D02*
Y73405D01*
X113101Y70667D02*
Y73715D01*
X115387Y76001*
X117419*
X143001Y81152D02*
X143890Y80263D01*
X148843Y81660D02*
X150240Y80263D01*
X132460Y71627D02*
X137540D01*
X131571Y70738D02*
X132460Y71627D01*
X127761Y81660D02*
X148843D01*
X127380Y81152D02*
X143001D01*
X125094Y83438D02*
X127380Y81152D01*
X102234Y83438D02*
X125094D01*
X101345Y82549D02*
X102234Y83438D01*
X97027Y82549D02*
X101345D01*
X140949Y97769D02*
X140969Y97789D01*
X145795Y94995D02*
D01*
X140949Y96944D02*
X141775D01*
X138810Y93852D02*
X138963Y93700D01*
X143001Y100065D02*
D01*
X111104Y97769D02*
X111124Y97789D01*
X115950Y94995D02*
D01*
X111104Y96944D02*
X111930D01*
X108965Y93852D02*
X109118Y93700D01*
X113156Y100065D02*
D01*
X81259Y97769D02*
X81279Y97789D01*
X86105Y94995D02*
D01*
X81259Y96944D02*
X82085D01*
X79120Y93852D02*
X79273Y93700D01*
X83311Y100065D02*
D01*
X51414Y97769D02*
X51434Y97789D01*
X56260Y94995D02*
D01*
X51414Y96944D02*
X52240D01*
X49275Y93852D02*
X49428Y93700D01*
X53466Y100065D02*
D01*
X61061Y106679D02*
X61086Y106654D01*
X48361Y106679D02*
X48386Y106654D01*
X90906Y106679D02*
X90931Y106654D01*
X78206Y106679D02*
X78231Y106654D01*
X150596Y106679D02*
X150621Y106654D01*
X137896Y106679D02*
X137921Y106654D01*
X120751Y106679D02*
X120776Y106654D01*
X108051Y106679D02*
X108076Y106654D01*
X90042Y71246D02*
X91627D01*
X135889Y47056D02*
Y48216D01*
X133349Y47056D02*
Y49910D01*
X131655Y52450D02*
X135889Y48216D01*
X131444Y51815D02*
X133349Y49910D01*
X124205Y52450D02*
X131655D01*
X123951Y51815D02*
X131444D01*
X120395Y56248D02*
X124205Y52438D01*
X119125Y56629D02*
X123951Y51803D01*
X120395Y56260D02*
Y59689D01*
X119125Y56641D02*
Y59689D01*
X45123Y71754D02*
Y73063D01*
X45338Y73278*
X47624*
X53339Y69468D02*
X54043Y68765D01*
Y67708D02*
Y68765D01*
X81533Y82422D02*
Y87629D01*
X80136Y81025D02*
X81533Y82422D01*
X73659Y80898D02*
Y82295D01*
X74802Y83438*
X76961*
X61594Y68833D02*
X70484D01*
X76326*
X72262Y80898D02*
X73659D01*
X70484Y79120D02*
X72262Y80898D01*
X83946Y65150D02*
Y68579D01*
X80728Y72516D02*
X85089Y68155D01*
X78866Y72516D02*
X80728D01*
X85089Y65150D02*
Y68155D01*
X43941Y63566D02*
Y67815D01*
X44008Y67878*
X80898Y71627D02*
X83946Y68579D01*
X77723Y72516D02*
X78612Y71627D01*
X80898*
X46989Y48326D02*
Y48894D01*
X47624Y49529*
X50672*
X115442Y67817D02*
X119125Y64134D01*
X114553Y67309D02*
X120395Y61467D01*
X93217Y74167D02*
X100964D01*
X107314Y67817*
X115442*
X94106Y73278D02*
X101135D01*
X107104Y67309*
X114553*
X125475Y79247D02*
X131698D01*
X132714Y80263*
X97980Y61594D02*
X109009D01*
X111378Y63964*
G54D32*
X117952Y87629D02*
X117982D01*
X90838D02*
X117952D01*
X58546Y101864D02*
Y106654D01*
X61086Y101864D02*
Y106654D01*
X63626Y101864D02*
Y106654D01*
X56006Y101864D02*
Y106654D01*
X53466Y101864D02*
Y106654D01*
X50926Y101853D02*
Y106654D01*
X48386Y101853D02*
Y106654D01*
X45846Y101853D02*
Y106654D01*
X88391Y101864D02*
Y106654D01*
X90931Y101864D02*
Y106654D01*
X93471Y101864D02*
Y106654D01*
X85851Y101864D02*
Y106654D01*
X83311Y101864D02*
Y106654D01*
X80771Y101853D02*
Y106654D01*
X78231Y101853D02*
Y106654D01*
X75691Y101853D02*
Y106654D01*
X148081Y101864D02*
Y106654D01*
X150621Y101864D02*
Y106654D01*
X153161Y101864D02*
Y106654D01*
X145541Y101864D02*
Y106654D01*
X143001Y101864D02*
Y106654D01*
X140461Y101853D02*
Y106654D01*
X137921Y101853D02*
Y106654D01*
X135381Y101853D02*
Y106654D01*
X118236Y101864D02*
Y106654D01*
X120776Y101864D02*
Y106654D01*
X123316Y101864D02*
Y106654D01*
X115696Y101864D02*
Y106654D01*
X113156Y101864D02*
Y106654D01*
X110616Y101853D02*
Y106654D01*
X108076Y101853D02*
Y106654D01*
X105536Y101853D02*
Y106654D01*
X81533Y87629D02*
X90838D01*
X79247D02*
X81533D01*
X77977Y88899D02*
X79247Y87629D01*
X67055Y88899D02*
X77977D01*
X60578D02*
X67055D01*
X132206Y82803D02*
X134746Y85343D01*
X138556Y82803D02*
X139953Y84200D01*
X134746Y85343D02*
X148208D01*
X139953Y84200D02*
X148843D01*
X148208Y85343D02*
X152552Y89687D01*
X148843Y84200D02*
X153034Y88391D01*
X144906Y82803D02*
X149224D01*
X153568Y87147*
X151256Y82803D02*
X154304Y85851D01*
X159359*
X160654Y87147*
X153568D02*
X158114D01*
X153034Y88391D02*
X159359D01*
X160654Y89687*
X152552D02*
X158114D01*
X138556Y74167D02*
X142747D01*
X132206D02*
X136397D01*
X137667Y75437*
X142239*
X144652Y77850*
X149732*
X145160Y76580D02*
X150367D01*
X142747Y74167D02*
X145160Y76580D01*
X144906Y74167D02*
X146176Y75437D01*
X151485*
X149732Y77850D02*
X156489Y84607D01*
X150367Y76580D02*
X157124Y83337D01*
X156489Y84607D02*
X158114D01*
X157124Y83337D02*
X159384D01*
X160654Y84607*
X151485Y75437D02*
X158114Y82067D01*
X151256Y74167D02*
X152755D01*
X160654Y82067*
G54D33*
X59689Y43560D02*
Y45653D01*
X85089Y43560D02*
Y45653D01*
X80832D02*
X82549D01*
X80009Y44830D02*
X80832Y45653D01*
X80009Y43560D02*
Y44830D01*
X46989Y45846D02*
Y46796D01*
X46227Y45084D02*
X46989Y45846D01*
X44703Y45084D02*
X46227D01*
X94614Y46164D02*
X96710Y44068D01*
X94614Y51640D02*
Y46164D01*
X92661Y53593D02*
X94614Y51640D01*
X144602Y91760D02*
X147744D01*
X143997Y91155D02*
X144602Y91760D01*
X140842Y91109D02*
X143951D01*
Y90266D02*
Y91109D01*
Y90266D02*
X145562Y88656D01*
X147848*
Y89799*
X149611Y90449D02*
X150007Y90053D01*
X147848Y90449D02*
X149611D01*
X150007Y90053D02*
X151023D01*
X147744Y91109D02*
X150347D01*
X104876Y90449D02*
X105282Y90042D01*
X88158Y91099D02*
X105917D01*
X88158Y90449D02*
X104876D01*
X89971Y91749D02*
X90296Y92074D01*
X88158Y91749D02*
X89971D01*
X86131Y90449D02*
X88158D01*
X85851Y90169D02*
X86131Y90449D01*
X84454Y90169D02*
X85851D01*
X85343Y91099D02*
X88158D01*
X73634Y90449D02*
X74040Y90042D01*
X58313Y90449D02*
X73634D01*
X58313Y91099D02*
X74675D01*
X140949Y96944D02*
Y97769D01*
X137104Y91749D02*
X140949D01*
X135381Y93471D02*
X137104Y91749D01*
X135381Y93471D02*
Y100065D01*
X137723Y92400D02*
X140949D01*
X137032Y93090D02*
X137723Y92400D01*
X137032Y93090D02*
Y94360D01*
X145795Y94995D02*
X147848D01*
X145668Y92963D02*
X146232Y92400D01*
X147848*
X150215Y93700D02*
X150494Y93979D01*
X147848Y93700D02*
X150215D01*
X153161Y95249D02*
Y100065D01*
X150962Y93050D02*
X153161Y95249D01*
X147848Y93050D02*
X150962D01*
X150621Y95503D02*
Y100065D01*
X149468Y94350D02*
X150621Y95503D01*
X147848Y94350D02*
X149468D01*
X145541Y96646D02*
X145895Y96293D01*
X147848*
X144144Y96138D02*
Y98551D01*
X143001Y99694D02*
X144144Y98551D01*
X143001Y99694D02*
Y100075D01*
X143652Y95646D02*
X144144Y96138D01*
X142648Y96293D02*
X143128Y96773D01*
X140949Y96293D02*
X142648D01*
X142874Y94995D02*
X143255Y94614D01*
X138937Y98043D02*
X140461Y99567D01*
X138937Y95122D02*
Y98043D01*
Y95122D02*
X139710Y94350D01*
X140461Y99567D02*
Y100065D01*
X139710Y94350D02*
X140949D01*
Y94995D02*
X142874D01*
X138343Y93050D02*
X140949D01*
X137921Y93471D02*
X138343Y93050D01*
X137921Y93471D02*
Y100065D01*
X138963Y93700D02*
X140949D01*
X147848Y95646D02*
X149240D01*
X146514Y96944D02*
X147848D01*
X140949Y95646D02*
X143652D01*
X145541Y97916D02*
X146514Y96944D01*
X145541Y97916D02*
Y100065D01*
X148081Y99186D02*
Y100065D01*
X149732Y96138D02*
Y97535D01*
X148081Y99186D02*
X149732Y97535D01*
X149240Y95646D02*
X149732Y96138D01*
X111104Y96944D02*
Y97769D01*
X107259Y91749D02*
X111104D01*
X105536Y93471D02*
X107259Y91749D01*
X105536Y93471D02*
Y100065D01*
X107878Y92400D02*
X111104D01*
X107187Y93090D02*
X107878Y92400D01*
X107187Y93090D02*
Y94360D01*
X115950Y94995D02*
X118003D01*
X115823Y92963D02*
X116387Y92400D01*
X118003*
X120370Y93700D02*
X120649Y93979D01*
X118003Y93700D02*
X120370D01*
X123316Y95249D02*
Y100065D01*
X121117Y93050D02*
X123316Y95249D01*
X118003Y93050D02*
X121117D01*
X120776Y95503D02*
Y100065D01*
X119623Y94350D02*
X120776Y95503D01*
X118003Y94350D02*
X119623D01*
X115696Y96646D02*
X116050Y96293D01*
X118003*
X114299Y96138D02*
Y98551D01*
X113156Y99694D02*
X114299Y98551D01*
X113156Y99694D02*
Y100075D01*
X113807Y95646D02*
X114299Y96138D01*
X112803Y96293D02*
X113283Y96773D01*
X111104Y96293D02*
X112803D01*
X113029Y94995D02*
X113410Y94614D01*
X109092Y98043D02*
X110616Y99567D01*
X109092Y95122D02*
Y98043D01*
Y95122D02*
X109865Y94350D01*
X110616Y99567D02*
Y100065D01*
X109865Y94350D02*
X111104D01*
Y94995D02*
X113029D01*
X108498Y93050D02*
X111104D01*
X108076Y93471D02*
X108498Y93050D01*
X108076Y93471D02*
Y100065D01*
X109118Y93700D02*
X111104D01*
X118003Y95646D02*
X119395D01*
X116669Y96944D02*
X118003D01*
X111104Y95646D02*
X113807D01*
X115696Y97916D02*
X116669Y96944D01*
X115696Y97916D02*
Y100065D01*
X118236Y99186D02*
Y100065D01*
X119887Y96138D02*
Y97535D01*
X118236Y99186D02*
X119887Y97535D01*
X119395Y95646D02*
X119887Y96138D01*
X81259Y96944D02*
Y97769D01*
X77414Y91749D02*
X81259D01*
X75691Y93471D02*
X77414Y91749D01*
X75691Y93471D02*
Y100065D01*
X78033Y92400D02*
X81259D01*
X77342Y93090D02*
X78033Y92400D01*
X77342Y93090D02*
Y94360D01*
X86105Y94995D02*
X88158D01*
X85978Y92963D02*
X86542Y92400D01*
X88158*
X90525Y93700D02*
X90804Y93979D01*
X88158Y93700D02*
X90525D01*
X93471Y95249D02*
Y100065D01*
X91272Y93050D02*
X93471Y95249D01*
X88158Y93050D02*
X91272D01*
X90931Y95503D02*
Y100065D01*
X89778Y94350D02*
X90931Y95503D01*
X88158Y94350D02*
X89778D01*
X85851Y96646D02*
X86205Y96293D01*
X88158*
X84454Y96138D02*
Y98551D01*
X83311Y99694D02*
X84454Y98551D01*
X83311Y99694D02*
Y100075D01*
X83962Y95646D02*
X84454Y96138D01*
X82958Y96293D02*
X83438Y96773D01*
X81259Y96293D02*
X82958D01*
X83184Y94995D02*
X83565Y94614D01*
X79247Y98043D02*
X80771Y99567D01*
X79247Y95122D02*
Y98043D01*
Y95122D02*
X80020Y94350D01*
X80771Y99567D02*
Y100065D01*
X80020Y94350D02*
X81259D01*
Y94995D02*
X83184D01*
X78653Y93050D02*
X81259D01*
X78231Y93471D02*
X78653Y93050D01*
X78231Y93471D02*
Y100065D01*
X79273Y93700D02*
X81259D01*
X88158Y95646D02*
X89550D01*
X86824Y96944D02*
X88158D01*
X81259Y95646D02*
X83962D01*
X85851Y97916D02*
X86824Y96944D01*
X85851Y97916D02*
Y100065D01*
X88391Y99186D02*
Y100065D01*
X90042Y96138D02*
Y97535D01*
X88391Y99186D02*
X90042Y97535D01*
X89550Y95646D02*
X90042Y96138D01*
X51414Y96944D02*
Y97769D01*
X47569Y91749D02*
X51414D01*
X45846Y93471D02*
X47569Y91749D01*
X45846Y93471D02*
Y100065D01*
X48188Y92400D02*
X51414D01*
X47497Y93090D02*
X48188Y92400D01*
X47497Y93090D02*
Y94360D01*
X56260Y94995D02*
X58313D01*
X56133Y92963D02*
X56697Y92400D01*
X58313*
X60680Y93700D02*
X60959Y93979D01*
X58313Y93700D02*
X60680D01*
X63626Y95249D02*
Y100065D01*
X61427Y93050D02*
X63626Y95249D01*
X58313Y93050D02*
X61427D01*
X61086Y95503D02*
Y100065D01*
X59933Y94350D02*
X61086Y95503D01*
X58313Y94350D02*
X59933D01*
X56006Y96646D02*
X56360Y96293D01*
X58313*
X54609Y96138D02*
Y98551D01*
X53466Y99694D02*
X54609Y98551D01*
X53466Y99694D02*
Y100075D01*
X54117Y95646D02*
X54609Y96138D01*
X53113Y96293D02*
X53593Y96773D01*
X51414Y96293D02*
X53113D01*
X53339Y94995D02*
X53720Y94614D01*
X49402Y98043D02*
X50926Y99567D01*
X49402Y95122D02*
Y98043D01*
Y95122D02*
X50175Y94350D01*
X50926Y99567D02*
Y100065D01*
X50175Y94350D02*
X51414D01*
Y94995D02*
X53339D01*
X48808Y93050D02*
X51414D01*
X48386Y93471D02*
X48808Y93050D01*
X48386Y93471D02*
Y100065D01*
X49428Y93700D02*
X51414D01*
X58313Y95646D02*
X59705D01*
X56979Y96944D02*
X58313D01*
X51414Y95646D02*
X54117D01*
X56006Y97916D02*
X56979Y96944D01*
X56006Y97916D02*
Y100065D01*
X58546Y99186D02*
Y100065D01*
X60197Y96138D02*
Y97535D01*
X58546Y99186D02*
X60197Y97535D01*
X59705Y95646D02*
X60197Y96138D01*
X118003Y91099D02*
X120482D01*
X120111Y90042D02*
X121378D01*
X119702Y90449D02*
X120111Y90042D01*
X117972Y90449D02*
X119702D01*
X111071Y91099D02*
X114099D01*
X115399Y89799*
X117972*
X117952Y87629D02*
Y89788D01*
X88158Y89799D02*
X90159D01*
X90838Y89120*
Y87629D02*
Y89120D01*
X138429Y43560D02*
Y44830D01*
X137607Y45653D02*
X138429Y44830D01*
X135889Y45653D02*
X137607D01*
X133349Y43560D02*
Y45653D01*
X156971Y68579D02*
X161924D01*
X163194Y67309*
X144144Y43560D02*
Y45653D01*
X58313Y89799D02*
X59679D01*
X60578Y88899*
X53974Y46735D02*
X55625Y45084D01*
X50987Y46735D02*
X53974D01*
G54D34*
X152399Y57276D02*
Y67944D01*
X146684Y51561D02*
X152399Y57276D01*
X146684Y43560D02*
Y51561D01*
X152399Y67944D02*
X155574Y71119D01*
X156971*
G54D45*
X91693Y83946D03*
X90804Y83057D03*
X90931Y81787D03*
X48640Y82168D03*
X47624Y82930D03*
X48386Y75818D03*
X93852Y82930D03*
X91947Y77215D03*
X50037Y80771D03*
X50164Y75564D03*
X89915Y76580D03*
X42290Y74675D03*
X49148Y73278D03*
X90423Y75564D03*
X53466Y79120D03*
X54990Y74802D03*
X59054Y75564D03*
X94868Y81914D03*
X60324Y74675D03*
X59689Y73532D03*
X94106Y75818D03*
X94995Y75056D03*
X97916Y76961D03*
X119125Y64134D03*
X93217Y74167D03*
X94106Y73278D03*
X81914Y80136D03*
X77088Y80898D03*
X52196Y65023D03*
X58292Y72135D03*
X44008Y67878D03*
X51815Y67817D03*
X49529Y71373D03*
X53339Y69468D03*
X44449Y60578D03*
X55498D03*
X56895Y70230D03*
X55117D03*
X45719Y67690D03*
X46611Y66928D03*
X50799Y60959D03*
X49529D03*
X46862Y65785D03*
X48132D03*
X45719Y60959D03*
X46989D03*
X47624Y73278D03*
X80390Y69722D03*
X77977Y68706D03*
X79247D03*
X82041Y64769D03*
X78485D03*
X88264Y60324D03*
X74294Y57784D03*
Y56260D03*
X61975Y46989D03*
X84454Y59181D03*
X85724D03*
X99059Y60705D03*
X97980Y61594D03*
X112267Y65023D03*
X111378Y66166D03*
X125475Y79247D03*
X124586Y80263D03*
X101726D03*
X100710Y81152D03*
X111450Y69016D03*
X111886Y71119D03*
Y73405D03*
X117419Y76001D03*
X103885Y81660D03*
X102996Y82549D03*
X100583Y83438D03*
X97027Y82549D03*
X80136Y81025D03*
X76961Y83438D03*
X92661Y53593D03*
X150388Y91069D03*
X151023Y90053D03*
X105282Y90042D03*
X105917Y91099D03*
X90296Y92074D03*
X85343Y91058D03*
X84454Y90169D03*
X74040Y90042D03*
X74675Y91099D03*
X145795Y94995D03*
X145668Y92963D03*
X150494Y93979D03*
X145541Y96646D03*
X143128Y96773D03*
X140969Y97789D03*
X143255Y94614D03*
X138810Y93852D03*
X137032Y94360D03*
X115950Y94995D03*
X115823Y92963D03*
X120649Y93979D03*
X115696Y96646D03*
X113283Y96773D03*
X111124Y97789D03*
X113410Y94614D03*
X108965Y93852D03*
X107187Y94360D03*
X86105Y94995D03*
X85978Y92963D03*
X90804Y93979D03*
X85851Y96646D03*
X83438Y96773D03*
X81279Y97789D03*
X83565Y94614D03*
X79120Y93852D03*
X77342Y94360D03*
X56260Y94995D03*
X56133Y92963D03*
X60959Y93979D03*
X56006Y96646D03*
X53593Y96773D03*
X51434Y97789D03*
X53720Y94614D03*
X49275Y93852D03*
X47497Y94360D03*
X120522Y91058D03*
X121378Y90042D03*
X90042Y71246D03*
X119125Y59689D03*
X120395D03*
X163194Y67309D03*
X131190Y71627D03*
X137540D03*
X143890D03*
X150240D03*
Y80263D03*
X143890D03*
X137540D03*
X131063D03*
X47624Y84708D03*
X57530Y82676D03*
X46989Y71500D03*
X91058Y66420D03*
X98805Y53974D03*
X107822Y76834D03*
X98170Y68833D03*
X83565Y71777D03*
X73659Y80898D03*
X89915Y85597D03*
X83946Y65150D03*
X85089D03*
X78866Y72516D03*
X77723D03*
X70484Y68833D03*
Y79120D03*
G54D46*
X74061Y71246D03*
X66560D03*
G54D47*
X60705Y53974D03*
X147848Y88656D03*
X117952Y87629D03*
X90838D03*
X81533D03*
X67055Y88899D03*
X60578D03*
X107314Y63103D03*
X132206Y82803D03*
X138556D03*
X144906D03*
X151256D03*
X132206Y74167D03*
X138556D03*
X144906D03*
X151256D03*
G54D48*
X107314Y52069D03*
X129285Y58292D03*
Y61086D03*
X140842Y51815D03*
X143636D03*
X42163Y45084D03*
X44703D03*
X55625D03*
X53085D03*
X69849Y53149D03*
Y51117D03*
X72389D03*
X96710Y44068D03*
X92138D03*
G54D49*
X160654Y82067D03*
X158114D03*
X160654Y84607D03*
X158114D03*
X160654Y87147D03*
X158114D03*
X160654Y89687D03*
X156971Y71119D03*
X162559Y55244D03*
X63601Y109219D03*
Y106679D03*
X61061Y109219D03*
Y106679D03*
X58521Y109219D03*
Y106679D03*
X55981Y109219D03*
Y106679D03*
X53441Y109219D03*
Y106679D03*
X50901Y109219D03*
Y106679D03*
X48361Y109219D03*
Y106679D03*
X45821Y109219D03*
X93446D03*
Y106679D03*
X90906Y109219D03*
Y106679D03*
X88366Y109219D03*
Y106679D03*
X85826Y109219D03*
Y106679D03*
X83286Y109219D03*
Y106679D03*
X80746Y109219D03*
Y106679D03*
X78206Y109219D03*
Y106679D03*
X75666Y109219D03*
X123291D03*
Y106679D03*
X120751Y109219D03*
Y106679D03*
X118211Y109219D03*
Y106679D03*
X115671Y109219D03*
Y106679D03*
X113131Y109219D03*
Y106679D03*
X110591Y109219D03*
Y106679D03*
X108051Y109219D03*
Y106679D03*
X105511Y109219D03*
X153136D03*
Y106679D03*
X150596Y109219D03*
Y106679D03*
X148056Y109219D03*
Y106679D03*
X145516Y109219D03*
Y106679D03*
X142976Y109219D03*
Y106679D03*
X140436Y109219D03*
Y106679D03*
X137896Y109219D03*
Y106679D03*
X135356Y109219D03*
G54D50*
X158114Y89687D03*
X156971Y68579D03*
X162559Y52704D03*
G54D51*
X156209Y62229D03*
X97853Y46608D03*
X90868D03*
G54D52*
X133349Y43560D03*
X135889D03*
X138429D03*
X140969D03*
X144144D03*
X146684D03*
X59689D03*
X62229D03*
X80009D03*
X82549D03*
X85089D03*
X87629D03*
G54D53*
X153606Y52006D03*
X158051Y48831D03*
X153606Y45783D03*
G54D54*
X45821Y106679D03*
X75666D03*
X105511D03*
X135356D03*
G54D55*
X40639Y52196D03*
X57149D03*
G54D56*
X54609Y55498D03*
X52069D03*
X49529D03*
X53339Y58038D03*
X50799D03*
X48259D03*
X46989Y55498D03*
X45719Y58038D03*
X44449Y55498D03*
X43179Y58038D03*
G54D57*
X64769Y48450D03*
X77469D03*
G54D58*
X72389Y53149D03*
G54D59*
X103075Y47599D03*
X128064D03*
G54D60*
X121109Y49019D03*
G54D61*
X119725Y46179D03*
X118341Y49019D03*
X116954Y46179D03*
X115569Y49019D03*
X114185Y46179D03*
X112798Y49019D03*
X111414Y46179D03*
X110030Y49019D03*
G54D62*
X161924Y109854D03*
Y44830D03*
X36829D03*
Y109854D03*
G54D63*
X43522Y71754D03*
X45123D03*
G54D64*
X70408Y62885D03*
X73609D03*
G54D65*
X82041Y62610D03*
X78485D03*
G54D66*
X58313Y94995D03*
Y95646D03*
Y96293D03*
Y96944D03*
X51414D03*
Y96293D03*
Y95646D03*
Y94995D03*
Y89799D03*
Y90449D03*
Y91099D03*
Y91749D03*
Y92400D03*
Y93050D03*
Y93700D03*
Y94350D03*
X58313Y89799D03*
Y90449D03*
Y91099D03*
Y91749D03*
Y92400D03*
Y93050D03*
Y93700D03*
Y94350D03*
X88158Y94995D03*
Y95646D03*
Y96293D03*
Y96944D03*
X81259D03*
Y96293D03*
Y95646D03*
Y94995D03*
Y89799D03*
Y90449D03*
Y91099D03*
Y91749D03*
Y92400D03*
Y93050D03*
Y93700D03*
Y94350D03*
X88158Y89799D03*
Y90449D03*
Y91099D03*
Y91749D03*
Y92400D03*
Y93050D03*
Y93700D03*
Y94350D03*
X118003Y94995D03*
Y95646D03*
Y96293D03*
Y96944D03*
X111104D03*
Y96293D03*
Y95646D03*
Y94995D03*
Y89799D03*
Y90449D03*
Y91099D03*
Y91749D03*
Y92400D03*
Y93050D03*
Y93700D03*
Y94350D03*
X118003Y89799D03*
Y90449D03*
Y91099D03*
Y91749D03*
Y92400D03*
Y93050D03*
Y93700D03*
Y94350D03*
X147848Y94995D03*
Y95646D03*
Y96293D03*
Y96944D03*
X140949D03*
Y96293D03*
Y95646D03*
Y94995D03*
Y89799D03*
Y90449D03*
Y91099D03*
Y91749D03*
Y92400D03*
Y93050D03*
Y93700D03*
Y94350D03*
X147848Y89799D03*
Y90449D03*
Y91099D03*
Y91749D03*
Y92400D03*
Y93050D03*
Y93700D03*
Y94350D03*
G54D67*
X158686Y52514D03*
M02*