%FSLAX43Y43*%
%MOMM*%
%SFA1B1*%

%IPPOS*%
%ADD74R,1.102360X1.003300*%
%ADD75R,1.003300X1.102360*%
%ADD81R,1.602740X1.402080*%
%ADD94C,0.965200*%
%ADD95C,3.202940*%
%ADD96C,1.219200*%
%ADD97C,1.727200*%
%ADD98C,1.704340*%
%ADD99R,1.704340X1.704340*%
%ADD100C,1.981200*%
%ADD101C,1.803400*%
%ADD102C,4.013200*%
%ADD103R,1.704340X1.704340*%
%ADD104C,0.203200*%
%ADD105C,2.235200*%
%ADD106C,1.473200*%
%ADD107C,3.759200*%
%ADD108R,1.727200X1.727200*%
%ADD109C,4.963160*%
%ADD110R,1.892300X1.892300*%
%ADD111C,1.892300*%
%ADD112C,4.203700*%
%ADD113R,1.203960X1.503680*%
%ADD114R,1.203960X2.004060*%
%ADD115R,2.997200X2.743200*%
%ADD116O,2.303780X0.652780*%
%LNlp_led_cube_8x8x8-1*%
%LPD*%
G54D74*
X52196Y62163D03*
Y63566D03*
X43941Y62163D03*
Y63566D03*
X49529Y52003D03*
Y53406D03*
X48259Y52003D03*
Y53406D03*
X54043Y67708D03*
Y66309D03*
X88264Y58232D03*
Y56829D03*
X59689Y47056D03*
Y45653D03*
X82549Y47056D03*
Y45653D03*
X85089Y47056D03*
Y45653D03*
X50799Y46796D03*
Y48199D03*
X46989Y46796D03*
Y48199D03*
X133349Y47056D03*
Y45653D03*
X135889Y47056D03*
Y45653D03*
X144144Y47056D03*
Y45653D03*
G54D75*
X69021Y60578D03*
X70424D03*
X77784Y60070D03*
X79187D03*
X82743D03*
X81340D03*
X74996Y60578D03*
X73593D03*
X75498Y57784D03*
X76901D03*
X75498Y56260D03*
X76901D03*
X73091D03*
X71688D03*
X73091Y57784D03*
X71688D03*
X91627Y71246D03*
X93030D03*
G54D81*
X90931Y100065D03*
Y101864D03*
X80771D03*
Y100065D03*
X88391D03*
Y101864D03*
X83311D03*
Y100065D03*
X115696D03*
Y101864D03*
X85851Y100065D03*
Y101864D03*
X108076D03*
Y100065D03*
X123316D03*
Y101864D03*
X143001D03*
Y100065D03*
X148081D03*
Y101864D03*
X118236Y100065D03*
Y101864D03*
X113156D03*
Y100065D03*
X75691Y101864D03*
Y100065D03*
X110616Y101864D03*
Y100065D03*
X120776D03*
Y101864D03*
X145541Y100065D03*
Y101864D03*
X93471Y100065D03*
Y101864D03*
X78231D03*
Y100065D03*
X140461Y101864D03*
Y100065D03*
X105536Y101864D03*
Y100065D03*
X150621D03*
Y101864D03*
X137921D03*
Y100065D03*
X153161D03*
Y101864D03*
X135381D03*
Y100065D03*
X56006D03*
Y101864D03*
X53466D03*
Y100065D03*
X58546D03*
Y101864D03*
X50926D03*
Y100065D03*
X61086D03*
Y101864D03*
X48386D03*
Y100065D03*
X63626D03*
Y101864D03*
X45846D03*
Y100065D03*
G54D94*
X91693Y83946D03*
X90804Y83057D03*
X90931Y81787D03*
X48640Y82168D03*
X47624Y82930D03*
X48386Y75818D03*
X93852Y82930D03*
X91947Y77215D03*
X50037Y80771D03*
X50164Y75564D03*
X89915Y76580D03*
X42290Y74675D03*
X49148Y73278D03*
X90423Y75564D03*
X53466Y79120D03*
X54990Y74802D03*
X59054Y75564D03*
X94868Y81914D03*
X60324Y74675D03*
X59689Y73532D03*
X94106Y75818D03*
X94995Y75056D03*
X97916Y76961D03*
X119125Y64134D03*
X93217Y74167D03*
X94106Y73278D03*
X81914Y80136D03*
X77088Y80898D03*
X52196Y65023D03*
X58292Y72135D03*
X44008Y67878D03*
X51815Y67817D03*
X49529Y71373D03*
X53339Y69468D03*
X44449Y60578D03*
X55498D03*
X56895Y70230D03*
X55117D03*
X45719Y67690D03*
X46611Y66928D03*
X50799Y60959D03*
X49529D03*
X46862Y65785D03*
X48132D03*
X45719Y60959D03*
X46989D03*
X47624Y73278D03*
X80390Y69722D03*
X77977Y68706D03*
X79247D03*
X82041Y64769D03*
X78485D03*
X88264Y60324D03*
X74294Y57784D03*
Y56260D03*
X61975Y46989D03*
X84454Y59181D03*
X85724D03*
X99059Y60705D03*
X97980Y61594D03*
X112267Y65023D03*
X111378Y66166D03*
X125475Y79247D03*
X124586Y80263D03*
X101726D03*
X100710Y81152D03*
X111450Y69016D03*
X111886Y71119D03*
Y73405D03*
X117419Y76001D03*
X103885Y81660D03*
X102996Y82549D03*
X100583Y83438D03*
X97027Y82549D03*
X80136Y81025D03*
X76961Y83438D03*
X92661Y53593D03*
X150388Y91069D03*
X151023Y90053D03*
X105282Y90042D03*
X105917Y91099D03*
X90296Y92074D03*
X85343Y91058D03*
X84454Y90169D03*
X74040Y90042D03*
X74675Y91099D03*
X145795Y94995D03*
X145668Y92963D03*
X150494Y93979D03*
X145541Y96646D03*
X143128Y96773D03*
X140969Y97789D03*
X143255Y94614D03*
X138810Y93852D03*
X137032Y94360D03*
X115950Y94995D03*
X115823Y92963D03*
X120649Y93979D03*
X115696Y96646D03*
X113283Y96773D03*
X111124Y97789D03*
X113410Y94614D03*
X108965Y93852D03*
X107187Y94360D03*
X86105Y94995D03*
X85978Y92963D03*
X90804Y93979D03*
X85851Y96646D03*
X83438Y96773D03*
X81279Y97789D03*
X83565Y94614D03*
X79120Y93852D03*
X77342Y94360D03*
X56260Y94995D03*
X56133Y92963D03*
X60959Y93979D03*
X56006Y96646D03*
X53593Y96773D03*
X51434Y97789D03*
X53720Y94614D03*
X49275Y93852D03*
X47497Y94360D03*
X120522Y91058D03*
X121378Y90042D03*
X90042Y71246D03*
X119125Y59689D03*
X120395D03*
X163194Y67309D03*
X131190Y71627D03*
X137540D03*
X143890D03*
X150240D03*
Y80263D03*
X143890D03*
X137540D03*
X131063D03*
X47624Y84708D03*
X57530Y82676D03*
X46989Y71500D03*
X91058Y66420D03*
X98805Y53974D03*
X107822Y76834D03*
X98170Y68833D03*
X83565Y71777D03*
X73659Y80898D03*
X89915Y85597D03*
X83946Y65150D03*
X85089D03*
X78866Y72516D03*
X77723D03*
X70484Y68833D03*
Y79120D03*
G54D95*
X74061Y71246D03*
X66560D03*
G54D96*
X60705Y53974D03*
X147848Y88656D03*
X117952Y87629D03*
X90838D03*
X81533D03*
X67055Y88899D03*
X60578D03*
X107314Y63103D03*
X132206Y82803D03*
X138556D03*
X144906D03*
X151256D03*
X132206Y74167D03*
X138556D03*
X144906D03*
X151256D03*
G54D97*
X107314Y52069D03*
X129285Y58292D03*
Y61086D03*
X140842Y51815D03*
X143636D03*
X42163Y45084D03*
X44703D03*
X55625D03*
X53085D03*
X69849Y53149D03*
Y51117D03*
X72389D03*
X96710Y44068D03*
X92138D03*
G54D98*
X160654Y82067D03*
X158114D03*
X160654Y84607D03*
X158114D03*
X160654Y87147D03*
X158114D03*
X160654Y89687D03*
X156971Y71119D03*
X162559Y55244D03*
X63601Y109219D03*
Y106679D03*
X61061Y109219D03*
Y106679D03*
X58521Y109219D03*
Y106679D03*
X55981Y109219D03*
Y106679D03*
X53441Y109219D03*
Y106679D03*
X50901Y109219D03*
Y106679D03*
X48361Y109219D03*
Y106679D03*
X45821Y109219D03*
X93446D03*
Y106679D03*
X90906Y109219D03*
Y106679D03*
X88366Y109219D03*
Y106679D03*
X85826Y109219D03*
Y106679D03*
X83286Y109219D03*
Y106679D03*
X80746Y109219D03*
Y106679D03*
X78206Y109219D03*
Y106679D03*
X75666Y109219D03*
X123291D03*
Y106679D03*
X120751Y109219D03*
Y106679D03*
X118211Y109219D03*
Y106679D03*
X115671Y109219D03*
Y106679D03*
X113131Y109219D03*
Y106679D03*
X110591Y109219D03*
Y106679D03*
X108051Y109219D03*
Y106679D03*
X105511Y109219D03*
X153136D03*
Y106679D03*
X150596Y109219D03*
Y106679D03*
X148056Y109219D03*
Y106679D03*
X145516Y109219D03*
Y106679D03*
X142976Y109219D03*
Y106679D03*
X140436Y109219D03*
Y106679D03*
X137896Y109219D03*
Y106679D03*
X135356Y109219D03*
G54D99*
X158114Y89687D03*
X156971Y68579D03*
X162559Y52704D03*
G54D100*
X156209Y62229D03*
X97853Y46608D03*
X90868D03*
G54D101*
X133349Y43560D03*
X135889D03*
X138429D03*
X140969D03*
X144144D03*
X146684D03*
X59689D03*
X62229D03*
X80009D03*
X82549D03*
X85089D03*
X87629D03*
G54D102*
X153606Y52006D03*
X158051Y48831D03*
X153606Y45783D03*
G54D103*
X45821Y106679D03*
X75666D03*
X105511D03*
X135356D03*
G54D104*
X43179Y49148D03*
X54609D03*
G54D105*
X40639Y52196D03*
X57149D03*
G54D106*
X54609Y55498D03*
X52069D03*
X49529D03*
X53339Y58038D03*
X50799D03*
X48259D03*
X46989Y55498D03*
X45719Y58038D03*
X44449Y55498D03*
X43179Y58038D03*
G54D107*
X64769Y48450D03*
X77469D03*
G54D108*
X72389Y53149D03*
G54D109*
X103075Y47599D03*
X128064D03*
G54D110*
X121109Y49019D03*
G54D111*
X119725Y46179D03*
X118341Y49019D03*
X116954Y46179D03*
X115569Y49019D03*
X114185Y46179D03*
X112798Y49019D03*
X111414Y46179D03*
X110030Y49019D03*
G54D112*
X161924Y109854D03*
Y44830D03*
X36829D03*
Y109854D03*
G54D113*
X43522Y71754D03*
X45123D03*
G54D114*
X70408Y62885D03*
X73609D03*
G54D115*
X82041Y62610D03*
X78485D03*
G54D116*
X58313Y94995D03*
Y95646D03*
Y96293D03*
Y96944D03*
X51414D03*
Y96293D03*
Y95646D03*
Y94995D03*
Y89799D03*
Y90449D03*
Y91099D03*
Y91749D03*
Y92400D03*
Y93050D03*
Y93700D03*
Y94350D03*
X58313Y89799D03*
Y90449D03*
Y91099D03*
Y91749D03*
Y92400D03*
Y93050D03*
Y93700D03*
Y94350D03*
X88158Y94995D03*
Y95646D03*
Y96293D03*
Y96944D03*
X81259D03*
Y96293D03*
Y95646D03*
Y94995D03*
Y89799D03*
Y90449D03*
Y91099D03*
Y91749D03*
Y92400D03*
Y93050D03*
Y93700D03*
Y94350D03*
X88158Y89799D03*
Y90449D03*
Y91099D03*
Y91749D03*
Y92400D03*
Y93050D03*
Y93700D03*
Y94350D03*
X118003Y94995D03*
Y95646D03*
Y96293D03*
Y96944D03*
X111104D03*
Y96293D03*
Y95646D03*
Y94995D03*
Y89799D03*
Y90449D03*
Y91099D03*
Y91749D03*
Y92400D03*
Y93050D03*
Y93700D03*
Y94350D03*
X118003Y89799D03*
Y90449D03*
Y91099D03*
Y91749D03*
Y92400D03*
Y93050D03*
Y93700D03*
Y94350D03*
X147848Y94995D03*
Y95646D03*
Y96293D03*
Y96944D03*
X140949D03*
Y96293D03*
Y95646D03*
Y94995D03*
Y89799D03*
Y90449D03*
Y91099D03*
Y91749D03*
Y92400D03*
Y93050D03*
Y93700D03*
Y94350D03*
X147848Y89799D03*
Y90449D03*
Y91099D03*
Y91749D03*
Y92400D03*
Y93050D03*
Y93700D03*
Y94350D03*
M02*