%FSLAX43Y43*%
%MOMM*%
%SFA1B1*%

%IPPOS*%
%ADD70C,0.099060*%
%LNlp_led_cube_8x8x8-1*%
%LPD*%
G54D70*
X88379Y77856D02*
D01*
X88378Y77890*
X88374Y77925*
X88368Y77960*
X88359Y77994*
X88349Y78027*
X88336Y78059*
X88320Y78090*
X88303Y78121*
X88283Y78150*
X88262Y78177*
X88238Y78203*
X88213Y78227*
X88186Y78250*
X88158Y78270*
X88129Y78289*
X88098Y78305*
X88066Y78320*
X88033Y78331*
X87999Y78341*
X87965Y78348*
X87931Y78353*
X87896Y78356*
X87861*
X87826Y78353*
X87792Y78348*
X87757Y78341*
X87724Y78331*
X87691Y78320*
X87659Y78305*
X87628Y78289*
X87599Y78270*
X87570Y78250*
X87544Y78227*
X87518Y78203*
X87495Y78177*
X87474Y78150*
X87454Y78121*
X87437Y78090*
X87421Y78059*
X87408Y78027*
X87397Y77994*
X87389Y77960*
X87383Y77925*
X87379Y77890*
X87378Y77856*
X87379Y77821*
X87383Y77786*
X87389Y77752*
X87397Y77718*
X87408Y77684*
X87421Y77652*
X87437Y77621*
X87454Y77590*
X87474Y77561*
X87495Y77534*
X87518Y77508*
X87544Y77484*
X87570Y77461*
X87599Y77441*
X87628Y77422*
X87659Y77406*
X87691Y77392*
X87724Y77380*
X87757Y77370*
X87792Y77363*
X87826Y77358*
X87861Y77356*
X87896*
X87931Y77358*
X87965Y77363*
X87999Y77370*
X88033Y77380*
X88066Y77392*
X88098Y77406*
X88129Y77422*
X88158Y77441*
X88186Y77461*
X88213Y77484*
X88238Y77508*
X88262Y77534*
X88283Y77561*
X88303Y77590*
X88320Y77621*
X88336Y77652*
X88349Y77684*
X88359Y77718*
X88368Y77752*
X88374Y77786*
X88378Y77821*
X88379Y77856*
X53563Y89725D02*
D01*
X53562Y89760*
X53558Y89795*
X53552Y89829*
X53544Y89863*
X53533Y89896*
X53520Y89929*
X53504Y89960*
X53487Y89990*
X53467Y90019*
X53446Y90047*
X53423Y90073*
X53397Y90097*
X53371Y90119*
X53342Y90140*
X53313Y90158*
X53282Y90175*
X53250Y90189*
X53217Y90201*
X53184Y90210*
X53150Y90218*
X53115Y90223*
X53080Y90225*
X53045*
X53010Y90223*
X52976Y90218*
X52942Y90210*
X52908Y90201*
X52875Y90189*
X52843Y90175*
X52812Y90158*
X52783Y90140*
X52755Y90119*
X52728Y90097*
X52703Y90073*
X52679Y90047*
X52658Y90019*
X52638Y89990*
X52621Y89960*
X52606Y89929*
X52592Y89896*
X52582Y89863*
X52573Y89829*
X52567Y89795*
X52563Y89760*
X52562Y89725*
X52563Y89690*
X52567Y89655*
X52573Y89621*
X52582Y89587*
X52592Y89554*
X52606Y89521*
X52621Y89490*
X52638Y89460*
X52658Y89431*
X52679Y89403*
X52703Y89377*
X52728Y89353*
X52755Y89331*
X52783Y89310*
X52812Y89292*
X52843Y89275*
X52875Y89261*
X52908Y89249*
X52942Y89239*
X52976Y89232*
X53010Y89227*
X53045Y89225*
X53080*
X53115Y89227*
X53150Y89232*
X53184Y89239*
X53217Y89249*
X53250Y89261*
X53282Y89275*
X53313Y89292*
X53342Y89310*
X53371Y89331*
X53397Y89353*
X53423Y89377*
X53446Y89403*
X53467Y89431*
X53487Y89460*
X53504Y89490*
X53520Y89521*
X53533Y89554*
X53544Y89587*
X53552Y89621*
X53558Y89655*
X53562Y89690*
X53563Y89725*
X83408D02*
D01*
X83407Y89760*
X83403Y89795*
X83397Y89829*
X83389Y89863*
X83378Y89896*
X83365Y89929*
X83349Y89960*
X83332Y89990*
X83312Y90019*
X83291Y90047*
X83268Y90073*
X83242Y90097*
X83216Y90119*
X83187Y90140*
X83158Y90158*
X83127Y90175*
X83095Y90189*
X83062Y90201*
X83029Y90210*
X82995Y90218*
X82960Y90223*
X82925Y90225*
X82890*
X82855Y90223*
X82821Y90218*
X82787Y90210*
X82753Y90201*
X82720Y90189*
X82688Y90175*
X82657Y90158*
X82628Y90140*
X82600Y90119*
X82573Y90097*
X82548Y90073*
X82524Y90047*
X82503Y90019*
X82483Y89990*
X82466Y89960*
X82451Y89929*
X82437Y89896*
X82427Y89863*
X82418Y89829*
X82412Y89795*
X82408Y89760*
X82407Y89725*
X82408Y89690*
X82412Y89655*
X82418Y89621*
X82427Y89587*
X82437Y89554*
X82451Y89521*
X82466Y89490*
X82483Y89460*
X82503Y89431*
X82524Y89403*
X82548Y89377*
X82573Y89353*
X82600Y89331*
X82628Y89310*
X82657Y89292*
X82688Y89275*
X82720Y89261*
X82753Y89249*
X82787Y89239*
X82821Y89232*
X82855Y89227*
X82890Y89225*
X82925*
X82960Y89227*
X82995Y89232*
X83029Y89239*
X83062Y89249*
X83095Y89261*
X83127Y89275*
X83158Y89292*
X83187Y89310*
X83216Y89331*
X83242Y89353*
X83268Y89377*
X83291Y89403*
X83312Y89431*
X83332Y89460*
X83349Y89490*
X83365Y89521*
X83378Y89554*
X83389Y89587*
X83397Y89621*
X83403Y89655*
X83407Y89690*
X83408Y89725*
X113253D02*
D01*
X113252Y89760*
X113248Y89795*
X113242Y89829*
X113234Y89863*
X113223Y89896*
X113210Y89929*
X113194Y89960*
X113177Y89990*
X113157Y90019*
X113136Y90047*
X113113Y90073*
X113087Y90097*
X113061Y90119*
X113032Y90140*
X113003Y90158*
X112972Y90175*
X112940Y90189*
X112907Y90201*
X112874Y90210*
X112840Y90218*
X112805Y90223*
X112770Y90225*
X112735*
X112700Y90223*
X112666Y90218*
X112632Y90210*
X112598Y90201*
X112565Y90189*
X112533Y90175*
X112502Y90158*
X112473Y90140*
X112445Y90119*
X112418Y90097*
X112393Y90073*
X112369Y90047*
X112348Y90019*
X112328Y89990*
X112311Y89960*
X112296Y89929*
X112282Y89896*
X112272Y89863*
X112263Y89829*
X112257Y89795*
X112253Y89760*
X112252Y89725*
X112253Y89690*
X112257Y89655*
X112263Y89621*
X112272Y89587*
X112282Y89554*
X112296Y89521*
X112311Y89490*
X112328Y89460*
X112348Y89431*
X112369Y89403*
X112393Y89377*
X112418Y89353*
X112445Y89331*
X112473Y89310*
X112502Y89292*
X112533Y89275*
X112565Y89261*
X112598Y89249*
X112632Y89239*
X112666Y89232*
X112700Y89227*
X112735Y89225*
X112770*
X112805Y89227*
X112840Y89232*
X112874Y89239*
X112907Y89249*
X112940Y89261*
X112972Y89275*
X113003Y89292*
X113032Y89310*
X113061Y89331*
X113087Y89353*
X113113Y89377*
X113136Y89403*
X113157Y89431*
X113177Y89460*
X113194Y89490*
X113210Y89521*
X113223Y89554*
X113234Y89587*
X113242Y89621*
X113248Y89655*
X113252Y89690*
X113253Y89725*
X143098D02*
D01*
X143097Y89760*
X143093Y89795*
X143087Y89829*
X143079Y89863*
X143068Y89896*
X143055Y89929*
X143039Y89960*
X143022Y89990*
X143002Y90019*
X142981Y90047*
X142958Y90073*
X142932Y90097*
X142906Y90119*
X142877Y90140*
X142848Y90158*
X142817Y90175*
X142785Y90189*
X142752Y90201*
X142719Y90210*
X142685Y90218*
X142650Y90223*
X142615Y90225*
X142580*
X142545Y90223*
X142511Y90218*
X142477Y90210*
X142443Y90201*
X142410Y90189*
X142378Y90175*
X142347Y90158*
X142318Y90140*
X142290Y90119*
X142263Y90097*
X142238Y90073*
X142214Y90047*
X142193Y90019*
X142173Y89990*
X142156Y89960*
X142141Y89929*
X142127Y89896*
X142117Y89863*
X142108Y89829*
X142102Y89795*
X142098Y89760*
X142097Y89725*
X142098Y89690*
X142102Y89655*
X142108Y89621*
X142117Y89587*
X142127Y89554*
X142141Y89521*
X142156Y89490*
X142173Y89460*
X142193Y89431*
X142214Y89403*
X142238Y89377*
X142263Y89353*
X142290Y89331*
X142318Y89310*
X142347Y89292*
X142378Y89275*
X142410Y89261*
X142443Y89249*
X142477Y89239*
X142511Y89232*
X142545Y89227*
X142580Y89225*
X142615*
X142650Y89227*
X142685Y89232*
X142719Y89239*
X142752Y89249*
X142785Y89261*
X142817Y89275*
X142848Y89292*
X142877Y89310*
X142906Y89331*
X142932Y89353*
X142958Y89377*
X142981Y89403*
X143002Y89431*
X143022Y89460*
X143039Y89490*
X143055Y89521*
X143068Y89554*
X143079Y89587*
X143087Y89621*
X143093Y89655*
X143097Y89690*
X143098Y89725*
X112351Y58082D02*
D01*
X112350Y58117*
X112346Y58151*
X112340Y58186*
X112332Y58220*
X112321Y58253*
X112308Y58285*
X112293Y58317*
X112275Y58347*
X112256Y58376*
X112234Y58403*
X112211Y58429*
X112186Y58454*
X112159Y58476*
X112131Y58497*
X112101Y58515*
X112070Y58531*
X112038Y58546*
X112006Y58558*
X111972Y58567*
X111938Y58574*
X111903Y58579*
X111868Y58582*
X111833*
X111799Y58579*
X111764Y58574*
X111730Y58567*
X111696Y58558*
X111663Y58546*
X111632Y58531*
X111601Y58515*
X111571Y58497*
X111543Y58476*
X111516Y58454*
X111491Y58429*
X111468Y58403*
X111446Y58376*
X111427Y58347*
X111409Y58317*
X111394Y58285*
X111381Y58253*
X111370Y58220*
X111361Y58186*
X111355Y58151*
X111352Y58117*
X111351Y58082*
X111352Y58047*
X111355Y58012*
X111361Y57978*
X111370Y57944*
X111381Y57911*
X111394Y57878*
X111409Y57847*
X111427Y57817*
X111446Y57788*
X111468Y57760*
X111491Y57734*
X111516Y57710*
X111543Y57687*
X111571Y57667*
X111601Y57648*
X111632Y57632*
X111663Y57618*
X111696Y57606*
X111730Y57596*
X111764Y57589*
X111799Y57584*
X111833Y57582*
X111868*
X111903Y57584*
X111938Y57589*
X111972Y57596*
X112006Y57606*
X112038Y57618*
X112070Y57632*
X112101Y57648*
X112131Y57667*
X112159Y57687*
X112186Y57710*
X112211Y57734*
X112234Y57760*
X112256Y57788*
X112275Y57817*
X112293Y57847*
X112308Y57878*
X112321Y57911*
X112332Y57944*
X112340Y57978*
X112346Y58012*
X112350Y58047*
X112351Y58082*
X141389Y84231D02*
D01*
X141387Y84266*
X141384Y84301*
X141378Y84335*
X141369Y84369*
X141358Y84402*
X141345Y84434*
X141330Y84466*
X141313Y84496*
X141293Y84525*
X141272Y84553*
X141248Y84579*
X141223Y84603*
X141196Y84625*
X141168Y84646*
X141138Y84664*
X141108Y84681*
X141076Y84695*
X141043Y84707*
X141009Y84716*
X140975Y84724*
X140941Y84729*
X140906Y84731*
X140871*
X140836Y84729*
X140801Y84724*
X140767Y84716*
X140734Y84707*
X140701Y84695*
X140669Y84681*
X140638Y84664*
X140608Y84646*
X140580Y84625*
X140553Y84603*
X140528Y84579*
X140505Y84553*
X140483Y84525*
X140464Y84496*
X140446Y84466*
X140431Y84434*
X140418Y84402*
X140407Y84369*
X140399Y84335*
X140393Y84301*
X140389Y84266*
X140388Y84231*
X140389Y84196*
X140393Y84161*
X140399Y84127*
X140407Y84093*
X140418Y84060*
X140431Y84027*
X140446Y83996*
X140464Y83966*
X140483Y83937*
X140505Y83909*
X140528Y83883*
X140553Y83859*
X140580Y83837*
X140608Y83816*
X140638Y83798*
X140669Y83781*
X140701Y83767*
X140734Y83755*
X140767Y83745*
X140801Y83738*
X140836Y83733*
X140871Y83731*
X140906*
X140941Y83733*
X140975Y83738*
X141009Y83745*
X141043Y83755*
X141076Y83767*
X141108Y83781*
X141138Y83798*
X141168Y83816*
X141196Y83837*
X141223Y83859*
X141248Y83883*
X141272Y83909*
X141293Y83937*
X141313Y83966*
X141330Y83996*
X141345Y84027*
X141358Y84060*
X141369Y84093*
X141378Y84127*
X141384Y84161*
X141387Y84196*
X141389Y84231*
X147739Y84221D02*
D01*
X147737Y84256*
X147734Y84290*
X147728Y84325*
X147719Y84359*
X147708Y84392*
X147695Y84424*
X147680Y84456*
X147663Y84486*
X147643Y84515*
X147622Y84542*
X147598Y84568*
X147573Y84593*
X147546Y84615*
X147518Y84636*
X147488Y84654*
X147458Y84671*
X147426Y84685*
X147393Y84697*
X147359Y84706*
X147325Y84714*
X147291Y84718*
X147256Y84721*
X147221*
X147186Y84718*
X147151Y84714*
X147117Y84706*
X147084Y84697*
X147051Y84685*
X147019Y84671*
X146988Y84654*
X146958Y84636*
X146930Y84615*
X146903Y84593*
X146878Y84568*
X146855Y84542*
X146833Y84515*
X146814Y84486*
X146796Y84456*
X146781Y84424*
X146768Y84392*
X146757Y84359*
X146749Y84325*
X146743Y84290*
X146739Y84256*
X146738Y84221*
X146739Y84186*
X146743Y84151*
X146749Y84117*
X146757Y84083*
X146768Y84050*
X146781Y84017*
X146796Y83986*
X146814Y83956*
X146833Y83927*
X146855Y83899*
X146878Y83873*
X146903Y83849*
X146930Y83827*
X146958Y83806*
X146988Y83787*
X147019Y83771*
X147051Y83757*
X147084Y83745*
X147117Y83735*
X147151Y83728*
X147186Y83723*
X147221Y83721*
X147256*
X147291Y83723*
X147325Y83728*
X147359Y83735*
X147393Y83745*
X147426Y83757*
X147458Y83771*
X147488Y83787*
X147518Y83806*
X147546Y83827*
X147573Y83849*
X147598Y83873*
X147622Y83899*
X147643Y83927*
X147663Y83956*
X147680Y83986*
X147695Y84017*
X147708Y84050*
X147719Y84083*
X147728Y84117*
X147734Y84151*
X147737Y84186*
X147739Y84221*
Y75585D02*
D01*
X147737Y75620*
X147734Y75654*
X147728Y75689*
X147719Y75723*
X147708Y75756*
X147695Y75788*
X147680Y75820*
X147663Y75850*
X147643Y75879*
X147622Y75906*
X147598Y75932*
X147573Y75957*
X147546Y75979*
X147518Y76000*
X147488Y76018*
X147458Y76035*
X147426Y76049*
X147393Y76061*
X147359Y76070*
X147325Y76078*
X147291Y76082*
X147256Y76085*
X147221*
X147186Y76082*
X147151Y76078*
X147117Y76070*
X147084Y76061*
X147051Y76049*
X147019Y76035*
X146988Y76018*
X146958Y76000*
X146930Y75979*
X146903Y75957*
X146878Y75932*
X146855Y75906*
X146833Y75879*
X146814Y75850*
X146796Y75820*
X146781Y75788*
X146768Y75756*
X146757Y75723*
X146749Y75689*
X146743Y75654*
X146739Y75620*
X146738Y75585*
X146739Y75550*
X146743Y75515*
X146749Y75481*
X146757Y75447*
X146768Y75414*
X146781Y75381*
X146796Y75350*
X146814Y75320*
X146833Y75291*
X146855Y75263*
X146878Y75237*
X146903Y75213*
X146930Y75191*
X146958Y75170*
X146988Y75151*
X147019Y75135*
X147051Y75121*
X147084Y75109*
X147117Y75099*
X147151Y75092*
X147186Y75087*
X147221Y75085*
X147256*
X147291Y75087*
X147325Y75092*
X147359Y75099*
X147393Y75109*
X147426Y75121*
X147458Y75135*
X147488Y75151*
X147518Y75170*
X147546Y75191*
X147573Y75213*
X147598Y75237*
X147622Y75263*
X147643Y75291*
X147663Y75320*
X147680Y75350*
X147695Y75381*
X147708Y75414*
X147719Y75447*
X147728Y75481*
X147734Y75515*
X147737Y75550*
X147739Y75585*
X141389D02*
D01*
X141387Y75620*
X141384Y75654*
X141378Y75689*
X141369Y75723*
X141358Y75756*
X141345Y75788*
X141330Y75820*
X141313Y75850*
X141293Y75879*
X141272Y75906*
X141248Y75932*
X141223Y75957*
X141196Y75979*
X141168Y76000*
X141138Y76018*
X141108Y76035*
X141076Y76049*
X141043Y76061*
X141009Y76070*
X140975Y76078*
X140941Y76082*
X140906Y76085*
X140871*
X140836Y76082*
X140801Y76078*
X140767Y76070*
X140734Y76061*
X140701Y76049*
X140669Y76035*
X140638Y76018*
X140608Y76000*
X140580Y75979*
X140553Y75957*
X140528Y75932*
X140505Y75906*
X140483Y75879*
X140464Y75850*
X140446Y75820*
X140431Y75788*
X140418Y75756*
X140407Y75723*
X140399Y75689*
X140393Y75654*
X140389Y75620*
X140388Y75585*
X140389Y75550*
X140393Y75515*
X140399Y75481*
X140407Y75447*
X140418Y75414*
X140431Y75381*
X140446Y75350*
X140464Y75320*
X140483Y75291*
X140505Y75263*
X140528Y75237*
X140553Y75213*
X140580Y75191*
X140608Y75170*
X140638Y75151*
X140669Y75135*
X140701Y75121*
X140734Y75109*
X140767Y75099*
X140801Y75092*
X140836Y75087*
X140871Y75085*
X140906*
X140941Y75087*
X140975Y75092*
X141009Y75099*
X141043Y75109*
X141076Y75121*
X141108Y75135*
X141138Y75151*
X141168Y75170*
X141196Y75191*
X141223Y75213*
X141248Y75237*
X141272Y75263*
X141293Y75291*
X141313Y75320*
X141330Y75350*
X141345Y75381*
X141358Y75414*
X141369Y75447*
X141378Y75481*
X141384Y75515*
X141387Y75550*
X141389Y75585*
X135039D02*
D01*
X135037Y75620*
X135034Y75654*
X135028Y75689*
X135019Y75723*
X135008Y75756*
X134995Y75788*
X134980Y75820*
X134963Y75850*
X134943Y75879*
X134922Y75906*
X134898Y75932*
X134873Y75957*
X134846Y75979*
X134818Y76000*
X134788Y76018*
X134758Y76035*
X134726Y76049*
X134693Y76061*
X134659Y76070*
X134625Y76078*
X134591Y76082*
X134556Y76085*
X134521*
X134486Y76082*
X134451Y76078*
X134417Y76070*
X134384Y76061*
X134351Y76049*
X134319Y76035*
X134288Y76018*
X134258Y76000*
X134230Y75979*
X134203Y75957*
X134178Y75932*
X134155Y75906*
X134133Y75879*
X134114Y75850*
X134096Y75820*
X134081Y75788*
X134068Y75756*
X134057Y75723*
X134049Y75689*
X134043Y75654*
X134039Y75620*
X134038Y75585*
X134039Y75550*
X134043Y75515*
X134049Y75481*
X134057Y75447*
X134068Y75414*
X134081Y75381*
X134096Y75350*
X134114Y75320*
X134133Y75291*
X134155Y75263*
X134178Y75237*
X134203Y75213*
X134230Y75191*
X134258Y75170*
X134288Y75151*
X134319Y75135*
X134351Y75121*
X134384Y75109*
X134417Y75099*
X134451Y75092*
X134486Y75087*
X134521Y75085*
X134556*
X134591Y75087*
X134625Y75092*
X134659Y75099*
X134693Y75109*
X134726Y75121*
X134758Y75135*
X134788Y75151*
X134818Y75170*
X134846Y75191*
X134873Y75213*
X134898Y75237*
X134922Y75263*
X134943Y75291*
X134963Y75320*
X134980Y75350*
X134995Y75381*
X135008Y75414*
X135019Y75447*
X135028Y75481*
X135034Y75515*
X135037Y75550*
X135039Y75585*
Y84221D02*
D01*
X135037Y84256*
X135034Y84290*
X135028Y84325*
X135019Y84359*
X135008Y84392*
X134995Y84424*
X134980Y84456*
X134963Y84486*
X134943Y84515*
X134922Y84542*
X134898Y84568*
X134873Y84593*
X134846Y84615*
X134818Y84636*
X134788Y84654*
X134758Y84671*
X134726Y84685*
X134693Y84697*
X134659Y84706*
X134625Y84714*
X134591Y84718*
X134556Y84721*
X134521*
X134486Y84718*
X134451Y84714*
X134417Y84706*
X134384Y84697*
X134351Y84685*
X134319Y84671*
X134288Y84654*
X134258Y84636*
X134230Y84615*
X134203Y84593*
X134178Y84568*
X134155Y84542*
X134133Y84515*
X134114Y84486*
X134096Y84456*
X134081Y84424*
X134068Y84392*
X134057Y84359*
X134049Y84325*
X134043Y84290*
X134039Y84256*
X134038Y84221*
X134039Y84186*
X134043Y84151*
X134049Y84117*
X134057Y84083*
X134068Y84050*
X134081Y84017*
X134096Y83986*
X134114Y83956*
X134133Y83927*
X134155Y83899*
X134178Y83873*
X134203Y83849*
X134230Y83827*
X134258Y83806*
X134288Y83787*
X134319Y83771*
X134351Y83757*
X134384Y83745*
X134417Y83735*
X134451Y83728*
X134486Y83723*
X134521Y83721*
X134556*
X134591Y83723*
X134625Y83728*
X134659Y83735*
X134693Y83745*
X134726Y83757*
X134758Y83771*
X134788Y83787*
X134818Y83806*
X134846Y83827*
X134873Y83849*
X134898Y83873*
X134922Y83899*
X134943Y83927*
X134963Y83956*
X134980Y83986*
X134995Y84017*
X135008Y84050*
X135019Y84083*
X135028Y84117*
X135034Y84151*
X135037Y84186*
X135039Y84221*
X128689D02*
D01*
X128687Y84256*
X128684Y84290*
X128678Y84325*
X128669Y84359*
X128658Y84392*
X128645Y84424*
X128630Y84456*
X128613Y84486*
X128593Y84515*
X128572Y84542*
X128548Y84568*
X128523Y84593*
X128496Y84615*
X128468Y84636*
X128438Y84654*
X128408Y84671*
X128376Y84685*
X128343Y84697*
X128309Y84706*
X128275Y84714*
X128241Y84718*
X128206Y84721*
X128171*
X128136Y84718*
X128101Y84714*
X128067Y84706*
X128034Y84697*
X128001Y84685*
X127969Y84671*
X127938Y84654*
X127908Y84636*
X127880Y84615*
X127853Y84593*
X127828Y84568*
X127805Y84542*
X127783Y84515*
X127764Y84486*
X127746Y84456*
X127731Y84424*
X127718Y84392*
X127707Y84359*
X127699Y84325*
X127693Y84290*
X127689Y84256*
X127688Y84221*
X127689Y84186*
X127693Y84151*
X127699Y84117*
X127707Y84083*
X127718Y84050*
X127731Y84017*
X127746Y83986*
X127764Y83956*
X127783Y83927*
X127805Y83899*
X127828Y83873*
X127853Y83849*
X127880Y83827*
X127908Y83806*
X127938Y83787*
X127969Y83771*
X128001Y83757*
X128034Y83745*
X128067Y83735*
X128101Y83728*
X128136Y83723*
X128171Y83721*
X128206*
X128241Y83723*
X128275Y83728*
X128309Y83735*
X128343Y83745*
X128376Y83757*
X128408Y83771*
X128438Y83787*
X128468Y83806*
X128496Y83827*
X128523Y83849*
X128548Y83873*
X128572Y83899*
X128593Y83927*
X128613Y83956*
X128630Y83986*
X128645Y84017*
X128658Y84050*
X128669Y84083*
X128678Y84117*
X128684Y84151*
X128687Y84186*
X128689Y84221*
Y75585D02*
D01*
X128687Y75620*
X128684Y75654*
X128678Y75689*
X128669Y75723*
X128658Y75756*
X128645Y75788*
X128630Y75820*
X128613Y75850*
X128593Y75879*
X128572Y75906*
X128548Y75932*
X128523Y75957*
X128496Y75979*
X128468Y76000*
X128438Y76018*
X128408Y76035*
X128376Y76049*
X128343Y76061*
X128309Y76070*
X128275Y76078*
X128241Y76082*
X128206Y76085*
X128171*
X128136Y76082*
X128101Y76078*
X128067Y76070*
X128034Y76061*
X128001Y76049*
X127969Y76035*
X127938Y76018*
X127908Y76000*
X127880Y75979*
X127853Y75957*
X127828Y75932*
X127805Y75906*
X127783Y75879*
X127764Y75850*
X127746Y75820*
X127731Y75788*
X127718Y75756*
X127707Y75723*
X127699Y75689*
X127693Y75654*
X127689Y75620*
X127688Y75585*
X127689Y75550*
X127693Y75515*
X127699Y75481*
X127707Y75447*
X127718Y75414*
X127731Y75381*
X127746Y75350*
X127764Y75320*
X127783Y75291*
X127805Y75263*
X127828Y75237*
X127853Y75213*
X127880Y75191*
X127908Y75170*
X127938Y75151*
X127969Y75135*
X128001Y75121*
X128034Y75109*
X128067Y75099*
X128101Y75092*
X128136Y75087*
X128171Y75085*
X128206*
X128241Y75087*
X128275Y75092*
X128309Y75099*
X128343Y75109*
X128376Y75121*
X128408Y75135*
X128438Y75151*
X128468Y75170*
X128496Y75191*
X128523Y75213*
X128548Y75237*
X128572Y75263*
X128593Y75291*
X128613Y75320*
X128630Y75350*
X128645Y75381*
X128658Y75414*
X128669Y75447*
X128678Y75481*
X128684Y75515*
X128687Y75550*
X128689Y75585*
X44610Y82819D02*
X45559D01*
X44610Y84566D02*
X45559D01*
X44610Y82819D02*
Y84566D01*
X45559Y82819D02*
Y84566D01*
X51722Y61991D02*
X52671D01*
X51722Y63738D02*
X52671D01*
Y61991D02*
Y63738D01*
X51722Y61991D02*
Y63738D01*
X43467Y61991D02*
X44416D01*
X43467Y63738D02*
X44416D01*
Y61991D02*
Y63738D01*
X43467Y61991D02*
Y63738D01*
X49055Y51831D02*
X50004D01*
X49055Y53578D02*
X50004D01*
Y51831D02*
Y53578D01*
X49055Y51831D02*
Y53578D01*
X47785Y51831D02*
X48734D01*
X47785Y53578D02*
X48734D01*
Y51831D02*
Y53578D01*
X47785Y51831D02*
Y53578D01*
X53568Y67884D02*
X54518D01*
X53568Y66133D02*
X54518D01*
X53568D02*
Y67884D01*
X54518Y66133D02*
Y67884D01*
X59215Y70119D02*
X60164D01*
X59215Y71866D02*
X60164D01*
X59215Y70119D02*
Y71866D01*
X60164Y70119D02*
Y71866D01*
X57642Y67851D02*
Y68800D01*
X55895Y67851D02*
Y68800D01*
Y67851D02*
X57642D01*
X55895Y68800D02*
X57642D01*
X53578Y80170D02*
Y81119D01*
X51831Y80170D02*
Y81119D01*
Y80170D02*
X53578D01*
X51831Y81119D02*
X53578D01*
X41435Y69453D02*
X42384D01*
X41435Y67706D02*
X42384D01*
Y69453*
X41435Y67706D02*
Y69453D01*
X43248Y71053D02*
X45397D01*
X43248Y72456D02*
X45397D01*
X43248Y71053D02*
Y72456D01*
X45397Y71053D02*
Y72456D01*
X57642Y66454D02*
Y67403D01*
X55895Y66454D02*
Y67403D01*
Y66454D02*
X57642D01*
X55895Y67403D02*
X57642D01*
X55895Y65057D02*
Y66006D01*
X57642Y65057D02*
Y66006D01*
X55895D02*
X57642D01*
X55895Y65057D02*
X57642D01*
X41435Y63738D02*
X42384D01*
X41435Y61991D02*
X42384D01*
Y63738*
X41435Y61991D02*
Y63738D01*
X42705D02*
X43654D01*
X42705Y61991D02*
X43654D01*
Y63738*
X42705Y61991D02*
Y63738D01*
X54135D02*
X55084D01*
X54135Y61991D02*
X55084D01*
Y63738*
X54135Y61991D02*
Y63738D01*
X52865Y61991D02*
X53814D01*
X52865Y63738D02*
X53814D01*
X52865Y61991D02*
Y63738D01*
X53814Y61991D02*
Y63738D01*
X51595Y61991D02*
X52544D01*
X51595Y63738D02*
X52544D01*
X51595Y61991D02*
Y63738D01*
X52544Y61991D02*
Y63738D01*
X50325Y61991D02*
X51274D01*
X50325Y63738D02*
X51274D01*
X50325Y61991D02*
Y63738D01*
X51274Y61991D02*
Y63738D01*
X49055Y61991D02*
X50004D01*
X49055Y63738D02*
X50004D01*
X49055Y61991D02*
Y63738D01*
X50004Y61991D02*
Y63738D01*
X46515Y61991D02*
X47464D01*
X46515Y63738D02*
X47464D01*
X46515Y61991D02*
Y63738D01*
X47464Y61991D02*
Y63738D01*
X45245Y61991D02*
X46194D01*
X45245Y63738D02*
X46194D01*
X45245Y61991D02*
Y63738D01*
X46194Y61991D02*
Y63738D01*
X68849Y60104D02*
Y61053D01*
X70596Y60104D02*
Y61053D01*
X68849Y60104D02*
X70596D01*
X68849Y61053D02*
X70596D01*
X77612Y59596D02*
Y60545D01*
X79359Y59596D02*
Y60545D01*
X77612Y59596D02*
X79359D01*
X77612Y60545D02*
X79359D01*
X82915Y59596D02*
Y60545D01*
X81168Y59596D02*
Y60545D01*
X82915*
X81168Y59596D02*
X82915D01*
X87790Y58404D02*
X88739D01*
X87790Y56657D02*
X88739D01*
X87790D02*
Y58404D01*
X88739Y56657D02*
Y58404D01*
X75168Y60104D02*
Y61053D01*
X73421Y60104D02*
Y61053D01*
X75168*
X73421Y60104D02*
X75168D01*
X70373Y56548D02*
Y57497D01*
X72120Y56548D02*
Y57497D01*
X70373D02*
X72120D01*
X70373Y56548D02*
X72120D01*
X66225Y59623D02*
Y61026D01*
X64076Y59623D02*
Y61026D01*
Y59623D02*
X66225D01*
X64076Y61026D02*
X66225D01*
X75326Y57310D02*
Y58259D01*
X77073Y57310D02*
Y58259D01*
X75326Y57310D02*
X77073D01*
X75326Y58259D02*
X77073D01*
X75326Y55786D02*
Y56735D01*
X77073Y55786D02*
Y56735D01*
X75326Y55786D02*
X77073D01*
X75326Y56735D02*
X77073D01*
X73263Y55786D02*
Y56735D01*
X71516Y55786D02*
Y56735D01*
X73263*
X71516Y55786D02*
X73263D01*
Y57310D02*
Y58259D01*
X71516Y57310D02*
Y58259D01*
X73263*
X71516Y57310D02*
X73263D01*
X59215Y47228D02*
X60164D01*
X59215Y45481D02*
X60164D01*
X59215D02*
Y47228D01*
X60164Y45481D02*
Y47228D01*
X82075D02*
X83024D01*
X82075Y45481D02*
X83024D01*
X82075D02*
Y47228D01*
X83024Y45481D02*
Y47228D01*
X84615D02*
X85564D01*
X84615Y45481D02*
X85564D01*
X84615D02*
Y47228D01*
X85564Y45481D02*
Y47228D01*
X121826Y60309D02*
X122775D01*
X121826Y58562D02*
X122775D01*
Y60309*
X121826Y58562D02*
Y60309D01*
X86979Y64754D02*
Y78755D01*
X100980Y64754D02*
Y78755D01*
X86979D02*
X100980D01*
X86979Y64754D02*
X100980D01*
X119159Y74437D02*
X120108D01*
X119159Y76184D02*
X120108D01*
X119159Y74437D02*
Y76184D01*
X120108Y74437D02*
Y76184D01*
X119159Y71643D02*
X120108D01*
X119159Y73390D02*
X120108D01*
X119159Y71643D02*
Y73390D01*
X120108Y71643D02*
Y73390D01*
X106840Y64531D02*
X107789D01*
X106840Y66278D02*
X107789D01*
X106840Y64531D02*
Y66278D01*
X107789Y64531D02*
Y66278D01*
X96934Y85963D02*
X97883D01*
X96934Y84216D02*
X97883D01*
Y85963*
X96934Y84216D02*
Y85963D01*
X95537D02*
X96486D01*
X95537Y84216D02*
X96486D01*
Y85963*
X95537Y84216D02*
Y85963D01*
X87536Y84216D02*
X88485D01*
X87536Y85963D02*
X88485D01*
X87536Y84216D02*
Y85963D01*
X88485Y84216D02*
Y85963D01*
X78501Y81948D02*
Y82897D01*
X80248Y81948D02*
Y82897D01*
X78501D02*
X80248D01*
X78501Y81948D02*
X80248D01*
X79662Y77866D02*
X80611D01*
X79662Y79613D02*
X80611D01*
X79662Y77866D02*
Y79613D01*
X80611Y77866D02*
Y79613D01*
X77376D02*
X78325D01*
X77376Y77866D02*
X78325D01*
Y79613*
X77376Y77866D02*
Y79613D01*
X78501Y83345D02*
Y84294D01*
X80248Y83345D02*
Y84294D01*
X78501D02*
X80248D01*
X78501Y83345D02*
X80248D01*
X50325Y46624D02*
X51274D01*
X50325Y48371D02*
X51274D01*
Y46624D02*
Y48371D01*
X50325Y46624D02*
Y48371D01*
X46515Y46624D02*
X47464D01*
X46515Y48371D02*
X47464D01*
Y46624D02*
Y48371D01*
X46515Y46624D02*
Y48371D01*
X95869Y53119D02*
Y54068D01*
X94122Y53119D02*
Y54068D01*
Y53119D02*
X95869D01*
X94122Y54068D02*
X95869D01*
X149494Y88171D02*
Y89120D01*
X151241Y88171D02*
Y89120D01*
X149494D02*
X151241D01*
X149494Y88171D02*
X151241D01*
X152179Y89423D02*
X153128D01*
X152179Y91170D02*
X153128D01*
X152179Y89423D02*
Y91170D01*
X153128Y89423D02*
Y91170D01*
X90230Y99890D02*
X91633D01*
X90230Y102039D02*
X91633D01*
Y99890D02*
Y102039D01*
X90230Y99890D02*
Y102039D01*
X80070D02*
X81473D01*
X80070Y99890D02*
X81473D01*
X80070D02*
Y102039D01*
X81473Y99890D02*
Y102039D01*
X86420Y99890D02*
X87823D01*
X86420Y102039D02*
X87823D01*
X86420Y99890D02*
Y102039D01*
X87823Y99890D02*
Y102039D01*
X76260D02*
X77663D01*
X76260Y99890D02*
X77663D01*
Y102039*
X76260Y99890D02*
Y102039D01*
X88960Y99890D02*
X90363D01*
X88960Y102039D02*
X90363D01*
X88960Y99890D02*
Y102039D01*
X90363Y99890D02*
Y102039D01*
X78800D02*
X80203D01*
X78800Y99890D02*
X80203D01*
Y102039*
X78800Y99890D02*
Y102039D01*
X87690Y99890D02*
X89093D01*
X87690Y102039D02*
X89093D01*
Y99890D02*
Y102039D01*
X87690Y99890D02*
Y102039D01*
X82610D02*
X84013D01*
X82610Y99890D02*
X84013D01*
X82610D02*
Y102039D01*
X84013Y99890D02*
Y102039D01*
X114995Y99890D02*
X116398D01*
X114995Y102039D02*
X116398D01*
Y99890D02*
Y102039D01*
X114995Y99890D02*
Y102039D01*
X81340D02*
X82743D01*
X81340Y99890D02*
X82743D01*
Y102039*
X81340Y99890D02*
Y102039D01*
X83880Y99890D02*
X85283D01*
X83880Y102039D02*
X85283D01*
X83880Y99890D02*
Y102039D01*
X85283Y99890D02*
Y102039D01*
X85150Y99890D02*
X86553D01*
X85150Y102039D02*
X86553D01*
Y99890D02*
Y102039D01*
X85150Y99890D02*
Y102039D01*
X141030D02*
X142433D01*
X141030Y99890D02*
X142433D01*
Y102039*
X141030Y99890D02*
Y102039D01*
X143570Y99890D02*
X144973D01*
X143570Y102039D02*
X144973D01*
X143570Y99890D02*
Y102039D01*
X144973Y99890D02*
Y102039D01*
X107375D02*
X108778D01*
X107375Y99890D02*
X108778D01*
X107375D02*
Y102039D01*
X108778Y99890D02*
Y102039D01*
X122615Y99890D02*
X124018D01*
X122615Y102039D02*
X124018D01*
Y99890D02*
Y102039D01*
X122615Y99890D02*
Y102039D01*
X142300D02*
X143703D01*
X142300Y99890D02*
X143703D01*
X142300D02*
Y102039D01*
X143703Y99890D02*
Y102039D01*
X147380Y99890D02*
X148783D01*
X147380Y102039D02*
X148783D01*
Y99890D02*
Y102039D01*
X147380Y99890D02*
Y102039D01*
X117535Y99890D02*
X118938D01*
X117535Y102039D02*
X118938D01*
Y99890D02*
Y102039D01*
X117535Y99890D02*
Y102039D01*
X112455D02*
X113858D01*
X112455Y99890D02*
X113858D01*
X112455D02*
Y102039D01*
X113858Y99890D02*
Y102039D01*
X74990D02*
X76393D01*
X74990Y99890D02*
X76393D01*
X74990D02*
Y102039D01*
X76393Y99890D02*
Y102039D01*
X108645D02*
X110048D01*
X108645Y99890D02*
X110048D01*
Y102039*
X108645Y99890D02*
Y102039D01*
X116265Y99890D02*
X117668D01*
X116265Y102039D02*
X117668D01*
X116265Y99890D02*
Y102039D01*
X117668Y99890D02*
Y102039D01*
X109915D02*
X111318D01*
X109915Y99890D02*
X111318D01*
X109915D02*
Y102039D01*
X111318Y99890D02*
Y102039D01*
X118805Y99890D02*
X120208D01*
X118805Y102039D02*
X120208D01*
X118805Y99890D02*
Y102039D01*
X120208Y99890D02*
Y102039D01*
X120075Y99890D02*
X121478D01*
X120075Y102039D02*
X121478D01*
Y99890D02*
Y102039D01*
X120075Y99890D02*
Y102039D01*
X91500Y99890D02*
X92903D01*
X91500Y102039D02*
X92903D01*
X91500Y99890D02*
Y102039D01*
X92903Y99890D02*
Y102039D01*
X73720D02*
X75123D01*
X73720Y99890D02*
X75123D01*
Y102039*
X73720Y99890D02*
Y102039D01*
X144840Y99890D02*
X146243D01*
X144840Y102039D02*
X146243D01*
Y99890D02*
Y102039D01*
X144840Y99890D02*
Y102039D01*
X106105D02*
X107508D01*
X106105Y99890D02*
X107508D01*
Y102039*
X106105Y99890D02*
Y102039D01*
X113725Y99890D02*
X115128D01*
X113725Y102039D02*
X115128D01*
X113725Y99890D02*
Y102039D01*
X115128Y99890D02*
Y102039D01*
X111185D02*
X112588D01*
X111185Y99890D02*
X112588D01*
Y102039*
X111185Y99890D02*
Y102039D01*
X92770Y99890D02*
X94173D01*
X92770Y102039D02*
X94173D01*
Y99890D02*
Y102039D01*
X92770Y99890D02*
Y102039D01*
X77530D02*
X78933D01*
X77530Y99890D02*
X78933D01*
X77530D02*
Y102039D01*
X78933Y99890D02*
Y102039D01*
X139760D02*
X141163D01*
X139760Y99890D02*
X141163D01*
X139760D02*
Y102039D01*
X141163Y99890D02*
Y102039D01*
X104835D02*
X106238D01*
X104835Y99890D02*
X106238D01*
X104835D02*
Y102039D01*
X106238Y99890D02*
Y102039D01*
X149920Y99890D02*
X151323D01*
X149920Y102039D02*
X151323D01*
Y99890D02*
Y102039D01*
X149920Y99890D02*
Y102039D01*
X146110Y99890D02*
X147513D01*
X146110Y102039D02*
X147513D01*
X146110Y99890D02*
Y102039D01*
X147513Y99890D02*
Y102039D01*
X135950D02*
X137353D01*
X135950Y99890D02*
X137353D01*
Y102039*
X135950Y99890D02*
Y102039D01*
X148650Y99890D02*
X150053D01*
X148650Y102039D02*
X150053D01*
X148650Y99890D02*
Y102039D01*
X150053Y99890D02*
Y102039D01*
X137220D02*
X138623D01*
X137220Y99890D02*
X138623D01*
X137220D02*
Y102039D01*
X138623Y99890D02*
Y102039D01*
X138490D02*
X139893D01*
X138490Y99890D02*
X139893D01*
Y102039*
X138490Y99890D02*
Y102039D01*
X152460Y99890D02*
X153863D01*
X152460Y102039D02*
X153863D01*
Y99890D02*
Y102039D01*
X152460Y99890D02*
Y102039D01*
X121345Y99890D02*
X122748D01*
X121345Y102039D02*
X122748D01*
X121345Y99890D02*
Y102039D01*
X122748Y99890D02*
Y102039D01*
X103565D02*
X104968D01*
X103565Y99890D02*
X104968D01*
Y102039*
X103565Y99890D02*
Y102039D01*
X133410D02*
X134813D01*
X133410Y99890D02*
X134813D01*
Y102039*
X133410Y99890D02*
Y102039D01*
X151190Y99890D02*
X152593D01*
X151190Y102039D02*
X152593D01*
X151190Y99890D02*
Y102039D01*
X152593Y99890D02*
Y102039D01*
X134680D02*
X136083D01*
X134680Y99890D02*
X136083D01*
X134680D02*
Y102039D01*
X136083Y99890D02*
Y102039D01*
X55305Y99890D02*
X56708D01*
X55305Y102039D02*
X56708D01*
Y99890D02*
Y102039D01*
X55305Y99890D02*
Y102039D01*
X51495D02*
X52898D01*
X51495Y99890D02*
X52898D01*
Y102039*
X51495Y99890D02*
Y102039D01*
X52765D02*
X54168D01*
X52765Y99890D02*
X54168D01*
X52765D02*
Y102039D01*
X54168Y99890D02*
Y102039D01*
X57845Y99890D02*
X59248D01*
X57845Y102039D02*
X59248D01*
Y99890D02*
Y102039D01*
X57845Y99890D02*
Y102039D01*
X54035Y99890D02*
X55438D01*
X54035Y102039D02*
X55438D01*
X54035Y99890D02*
Y102039D01*
X55438Y99890D02*
Y102039D01*
X48955D02*
X50358D01*
X48955Y99890D02*
X50358D01*
Y102039*
X48955Y99890D02*
Y102039D01*
X56575Y99890D02*
X57978D01*
X56575Y102039D02*
X57978D01*
X56575Y99890D02*
Y102039D01*
X57978Y99890D02*
Y102039D01*
X50225D02*
X51628D01*
X50225Y99890D02*
X51628D01*
X50225D02*
Y102039D01*
X51628Y99890D02*
Y102039D01*
X60385Y99890D02*
X61788D01*
X60385Y102039D02*
X61788D01*
Y99890D02*
Y102039D01*
X60385Y99890D02*
Y102039D01*
X46415D02*
X47818D01*
X46415Y99890D02*
X47818D01*
Y102039*
X46415Y99890D02*
Y102039D01*
X59115Y99890D02*
X60518D01*
X59115Y102039D02*
X60518D01*
X59115Y99890D02*
Y102039D01*
X60518Y99890D02*
Y102039D01*
X47685D02*
X49088D01*
X47685Y99890D02*
X49088D01*
X47685D02*
Y102039D01*
X49088Y99890D02*
Y102039D01*
X62925Y99890D02*
X64328D01*
X62925Y102039D02*
X64328D01*
Y99890D02*
Y102039D01*
X62925Y99890D02*
Y102039D01*
X43875D02*
X45278D01*
X43875Y99890D02*
X45278D01*
Y102039*
X43875Y99890D02*
Y102039D01*
X61655Y99890D02*
X63058D01*
X61655Y102039D02*
X63058D01*
X61655Y99890D02*
Y102039D01*
X63058Y99890D02*
Y102039D01*
X45145D02*
X46548D01*
X45145Y99890D02*
X46548D01*
X45145D02*
Y102039D01*
X46548Y99890D02*
Y102039D01*
X52163Y88823D02*
Y97924D01*
X57564Y88823D02*
Y97924D01*
X52163Y88823D02*
X57564D01*
X52163Y97924D02*
X57564D01*
X82008Y88823D02*
Y97924D01*
X87409Y88823D02*
Y97924D01*
X82008Y88823D02*
X87409D01*
X82008Y97924D02*
X87409D01*
X111853Y88823D02*
Y97924D01*
X117254Y88823D02*
Y97924D01*
X111853Y88823D02*
X117254D01*
X111853Y97924D02*
X117254D01*
X141698Y88823D02*
Y97924D01*
X147099Y88823D02*
Y97924D01*
X141698Y88823D02*
X147099D01*
X141698Y97924D02*
X147099D01*
X91455Y70772D02*
Y71721D01*
X93202Y70772D02*
Y71721D01*
X91455Y70772D02*
X93202D01*
X91455Y71721D02*
X93202D01*
X132875Y47228D02*
X133824D01*
X132875Y45481D02*
X133824D01*
X132875D02*
Y47228D01*
X133824Y45481D02*
Y47228D01*
X135415D02*
X136364D01*
X135415Y45481D02*
X136364D01*
X135415D02*
Y47228D01*
X136364Y45481D02*
Y47228D01*
X120949Y57183D02*
Y61180D01*
X110952Y57183D02*
Y61180D01*
X120949*
X110952Y57183D02*
X120949D01*
X116824Y53500D02*
Y54449D01*
X115077Y53500D02*
Y54449D01*
Y53500D02*
X116824D01*
X115077Y54449D02*
X116824D01*
X113649Y53500D02*
Y54449D01*
X111902Y53500D02*
Y54449D01*
Y53500D02*
X113649D01*
X111902Y54449D02*
X113649D01*
X108872Y58562D02*
X109821D01*
X108872Y60309D02*
X109821D01*
X108872Y58562D02*
Y60309D01*
X109821Y58562D02*
Y60309D01*
X108872Y61483D02*
X109821D01*
X108872Y63230D02*
X109821D01*
X108872Y61483D02*
Y63230D01*
X109821Y61483D02*
Y63230D01*
X140530Y70926D02*
Y72329D01*
X142679Y70926D02*
Y72329D01*
X140530D02*
X142679D01*
X140530Y70926D02*
X142679D01*
X146880D02*
Y72329D01*
X149029Y70926D02*
Y72329D01*
X146880D02*
X149029D01*
X146880Y70926D02*
X149029D01*
X146880Y79562D02*
Y80965D01*
X149029Y79562D02*
Y80965D01*
X146880D02*
X149029D01*
X146880Y79562D02*
X149029D01*
X140530D02*
Y80965D01*
X142679Y79562D02*
Y80965D01*
X140530D02*
X142679D01*
X140530Y79562D02*
X142679D01*
X134180D02*
Y80965D01*
X136329Y79562D02*
Y80965D01*
X134180D02*
X136329D01*
X134180Y79562D02*
X136329D01*
X127830D02*
Y80965D01*
X129979Y79562D02*
Y80965D01*
X127830D02*
X129979D01*
X127830Y79562D02*
X129979D01*
X134180Y70926D02*
Y72329D01*
X136329Y70926D02*
Y72329D01*
X134180D02*
X136329D01*
X134180Y70926D02*
X136329D01*
X127830D02*
Y72329D01*
X129979Y70926D02*
Y72329D01*
X127830D02*
X129979D01*
X127830Y70926D02*
X129979D01*
X144541Y83281D02*
Y85882D01*
X139938Y83281D02*
Y85882D01*
X144541*
X139938Y83281D02*
X144541D01*
X150891Y83271D02*
Y85869D01*
X146288Y83271D02*
Y85869D01*
X150891*
X146288Y83271D02*
X150891D01*
Y74635D02*
Y77233D01*
X146288Y74635D02*
Y77233D01*
X150891*
X146288Y74635D02*
X150891D01*
X144541D02*
Y77233D01*
X139938Y74635D02*
Y77233D01*
X144541*
X139938Y74635D02*
X144541D01*
X138191D02*
Y77233D01*
X133588Y74635D02*
Y77233D01*
X138191*
X133588Y74635D02*
X138191D01*
Y83271D02*
Y85869D01*
X133588Y83271D02*
Y85869D01*
X138191*
X133588Y83271D02*
X138191D01*
X131841D02*
Y85869D01*
X127238Y83271D02*
Y85869D01*
X131841*
X127238Y83271D02*
X131841D01*
Y74635D02*
Y77233D01*
X127238Y74635D02*
Y77233D01*
X131841*
X127238Y74635D02*
X131841D01*
X162720Y58816D02*
X163669D01*
X162720Y60563D02*
X163669D01*
X162720Y58816D02*
Y60563D01*
X163669Y58816D02*
Y60563D01*
X161069D02*
X162018D01*
X161069Y58816D02*
X162018D01*
Y60563*
X161069Y58816D02*
Y60563D01*
X162720Y61610D02*
X163669D01*
X162720Y63357D02*
X163669D01*
X162720Y61610D02*
Y63357D01*
X163669Y61610D02*
Y63357D01*
X162720Y64404D02*
X163669D01*
X162720Y66151D02*
X163669D01*
X162720Y64404D02*
Y66151D01*
X163669Y64404D02*
Y66151D01*
X160942Y67833D02*
X161891D01*
X160942Y69580D02*
X161891D01*
X160942Y67833D02*
Y69580D01*
X161891Y67833D02*
Y69580D01*
X159781Y65184D02*
Y66133D01*
X161528Y65184D02*
Y66133D01*
X159781D02*
X161528D01*
X159781Y65184D02*
X161528D01*
X143670Y47228D02*
X144619D01*
X143670Y45481D02*
X144619D01*
X143670D02*
Y47228D01*
X144619Y45481D02*
Y47228D01*
X133510Y68183D02*
X134459D01*
X133510Y66436D02*
X134459D01*
Y68183*
X133510Y66436D02*
Y68183D01*
X146464Y54625D02*
X147413D01*
X146464Y56372D02*
X147413D01*
X146464Y54625D02*
Y56372D01*
X147413Y54625D02*
Y56372D01*
X78501Y88044D02*
Y88993D01*
X80248Y88044D02*
Y88993D01*
X78501D02*
X80248D01*
X78501Y88044D02*
X80248D01*
X78501Y86393D02*
Y87342D01*
X80248Y86393D02*
Y87342D01*
X78501D02*
X80248D01*
X78501Y86393D02*
X80248D01*
X150098Y57310D02*
Y58259D01*
X148351Y57310D02*
Y58259D01*
Y57310D02*
X150098D01*
X148351Y58259D02*
X150098D01*
M02*