%FSLAX43Y43*%
%MOMM*%
%SFA1B1*%

%IPPOS*%
%ADD9500C,0.381000*%
%ADD9501C,0.508000*%
%ADD9502C,0.762000*%
%ADD9503C,0.800100*%
%ADD9504C,0.889000*%
%ADD9505C,0.899160*%
%ADD9506C,1.016000*%
%ADD9507C,1.089660*%
%ADD9508C,1.270000*%
%ADD9509C,1.501140*%
%ADD9510C,1.574800*%
%ADD9511C,2.286000*%
%ADD9512C,2.600960*%
%ADD9513C,2.667000*%
%ADD9514C,3.258820*%
%ADD9515C,3.302000*%
%LNlp_led_cube_8x8x8-1*%
%LPD*%
G54D9500*
X163194Y67309D03*
X150240Y71627D03*
X143890D03*
X137540D03*
X131190D03*
X125475Y79247D03*
X119125Y64134D03*
Y59689D03*
X120395D03*
X112267Y65023D03*
X111378Y66166D03*
X111450Y69016D03*
X111886Y71119D03*
Y73405D03*
X107822Y76834D03*
X97916Y76961D03*
X94995Y75056D03*
X94106Y75818D03*
X93217Y74167D03*
X94106Y73278D03*
X90423Y75564D03*
X89915Y76580D03*
X91947Y77215D03*
X90042Y71246D03*
X91058Y66420D03*
X85089Y65150D03*
X83946D03*
X82041Y64769D03*
X80390Y69722D03*
X83565Y71777D03*
X84454Y59181D03*
X85724D03*
X88264Y60324D03*
X97980Y61594D03*
X99059Y60705D03*
X98805Y53974D03*
X92661Y53593D03*
X98170Y68833D03*
X117419Y76001D03*
X78866Y72516D03*
X77723D03*
X77977Y68706D03*
X79247D03*
X78485Y64769D03*
X74294Y57784D03*
Y56260D03*
X70484Y68833D03*
Y79120D03*
X60324Y74675D03*
X59689Y73532D03*
X59054Y75564D03*
X58292Y72135D03*
X56895Y70230D03*
X55117D03*
X53339Y69468D03*
X51815Y67817D03*
X52196Y65023D03*
X48132Y65785D03*
X46862D03*
X46611Y66928D03*
X45719Y67690D03*
X44008Y67878D03*
X46989Y71500D03*
X47624Y73278D03*
X49148D03*
X49529Y71373D03*
X50164Y75564D03*
X48386Y75818D03*
X42290Y74675D03*
X54990Y74802D03*
X53466Y79120D03*
X55498Y60578D03*
X50799Y60959D03*
X49529D03*
X46989D03*
X45719D03*
X44449Y60578D03*
X61975Y46989D03*
X57530Y82676D03*
X48640Y82168D03*
X47624Y82930D03*
Y84708D03*
X50037Y80771D03*
X49275Y93852D03*
X47497Y94360D03*
X53720Y94614D03*
X53593Y96773D03*
X56006Y96646D03*
X56260Y94995D03*
X56133Y92963D03*
X60959Y93979D03*
X51434Y97789D03*
X77342Y94360D03*
X79120Y93852D03*
X74675Y91099D03*
X74040Y90042D03*
X76961Y83438D03*
X77088Y80898D03*
X73659D03*
X80136Y81025D03*
X81914Y80136D03*
X90931Y81787D03*
X90804Y83057D03*
X91693Y83946D03*
X93852Y82930D03*
X94868Y81914D03*
X97027Y82549D03*
X100583Y83438D03*
X100710Y81152D03*
X101726Y80263D03*
X103885Y81660D03*
X102996Y82549D03*
X105282Y90042D03*
X105917Y91099D03*
X107187Y94360D03*
X108965Y93852D03*
X113410Y94614D03*
X113283Y96773D03*
X115696Y96646D03*
X115950Y94995D03*
X115823Y92963D03*
X111124Y97789D03*
X90804Y93979D03*
X90296Y92074D03*
X85978Y92963D03*
X86105Y94995D03*
X85851Y96646D03*
X83438Y96773D03*
X83565Y94614D03*
X85343Y91058D03*
X84454Y90169D03*
X89915Y85597D03*
X81279Y97789D03*
X120649Y93979D03*
X120522Y91058D03*
X121378Y90042D03*
X124586Y80263D03*
X131063D03*
X137540D03*
X143890D03*
X150240D03*
X151023Y90053D03*
X150388Y91069D03*
X150494Y93979D03*
X145795Y94995D03*
X145541Y96646D03*
X143128Y96773D03*
X143255Y94614D03*
X145668Y92963D03*
X138810Y93852D03*
X137032Y94360D03*
X140969Y97789D03*
G54D9501*
X132206Y74167D03*
X138556D03*
X144906D03*
X151256D03*
X107314Y63103D03*
X60705Y53974D03*
X60578Y88899D03*
X67055D03*
X81533Y87629D03*
X90838D03*
X117952D03*
X132206Y82803D03*
X138556D03*
X144906D03*
X151256D03*
X147848Y88656D03*
G54D9502*
X129285Y58292D03*
Y61086D03*
X140842Y51815D03*
X143636D03*
X107314Y52069D03*
X72389Y51117D03*
Y53149D03*
X69849D03*
Y51117D03*
G54D9503*
X133349Y43560D03*
X135889D03*
X138429D03*
X140969D03*
X144144D03*
X146684D03*
X87629D03*
X85089D03*
X82549D03*
X80009D03*
X62229D03*
X59689D03*
G54D9504*
X44449Y55498D03*
X46989D03*
X49529D03*
X52069D03*
X54609D03*
X53339Y58038D03*
X50799D03*
X48259D03*
X45719D03*
X43179D03*
G54D9505*
X162559Y52704D03*
Y55244D03*
X156971Y68579D03*
Y71119D03*
X78206Y106679D03*
Y109219D03*
X75666D03*
Y106679D03*
X63601D03*
Y109219D03*
X61061D03*
Y106679D03*
X58521D03*
Y109219D03*
X55981D03*
Y106679D03*
X53441D03*
Y109219D03*
X50901D03*
Y106679D03*
X48361D03*
Y109219D03*
X45821D03*
Y106679D03*
X80746D03*
X83286D03*
X85826D03*
X88366D03*
X90906D03*
X93446D03*
Y109219D03*
X90906D03*
X88366D03*
X85826D03*
X83286D03*
X80746D03*
X105511D03*
X108051D03*
X110591D03*
X113131D03*
X115671D03*
X118211D03*
Y106679D03*
X115671D03*
X113131D03*
X110591D03*
X108051D03*
X105511D03*
X120751D03*
X123291D03*
Y109219D03*
X120751D03*
X135356D03*
X137896D03*
X140436D03*
X142976D03*
X145516D03*
X148056D03*
X150596D03*
X153136D03*
Y106679D03*
X150596D03*
X148056D03*
X145516D03*
X142976D03*
X140436D03*
X137896D03*
X135356D03*
X158114Y89687D03*
Y87147D03*
Y84607D03*
Y82067D03*
X160654D03*
Y84607D03*
Y87147D03*
Y89687D03*
G54D9506*
X92138Y44068D03*
X96710D03*
X55625Y45084D03*
X53085D03*
X44703D03*
X42163D03*
G54D9507*
X119725Y46179D03*
X121109Y49019D03*
X118341D03*
X115569D03*
X112798D03*
X110030D03*
X111414Y46179D03*
X114185D03*
X116954D03*
G54D9508*
X156209Y62229D03*
X97853Y46608D03*
X90868D03*
G54D9509*
X66560Y71246D03*
X74061D03*
G54D9510*
X40639Y52196D03*
X57149D03*
G54D9511*
X64769Y48450D03*
X77469D03*
G54D9512*
X161924Y44830D03*
X36829D03*
Y109854D03*
X161924D03*
G54D9513*
X153606Y45783D03*
Y52006D03*
X158051Y48831D03*
G54D9514*
X128064Y47599D03*
X103075D03*
G54D9515*
X43179Y49148D03*
X54609D03*
M02*