%FSLAX43Y43*%
%MOMM*%
%SFA1B1*%

%IPPOS*%
%ADD10R,0.899160X0.800100*%
%ADD11R,0.800100X0.899160*%
%ADD17R,1.399540X1.198880*%
%ADD63R,1.000760X1.300480*%
%ADD64R,1.000760X1.800860*%
%ADD65R,2.794000X2.540000*%
%ADD66O,2.100580X0.449580*%
%LNlp_led_cube_8x8x8-1*%
%LPD*%
G54D10*
X52196Y62163D03*
Y63566D03*
X43941Y62163D03*
Y63566D03*
X49529Y52003D03*
Y53406D03*
X48259Y52003D03*
Y53406D03*
X54043Y67708D03*
Y66309D03*
X88264Y58232D03*
Y56829D03*
X59689Y47056D03*
Y45653D03*
X82549Y47056D03*
Y45653D03*
X85089Y47056D03*
Y45653D03*
X50799Y46796D03*
Y48199D03*
X46989Y46796D03*
Y48199D03*
X133349Y47056D03*
Y45653D03*
X135889Y47056D03*
Y45653D03*
X144144Y47056D03*
Y45653D03*
G54D11*
X69021Y60578D03*
X70424D03*
X77784Y60070D03*
X79187D03*
X82743D03*
X81340D03*
X74996Y60578D03*
X73593D03*
X75498Y57784D03*
X76901D03*
X75498Y56260D03*
X76901D03*
X73091D03*
X71688D03*
X73091Y57784D03*
X71688D03*
X91627Y71246D03*
X93030D03*
G54D17*
X90931Y100065D03*
Y101864D03*
X80771D03*
Y100065D03*
X88391D03*
Y101864D03*
X83311D03*
Y100065D03*
X115696D03*
Y101864D03*
X85851Y100065D03*
Y101864D03*
X108076D03*
Y100065D03*
X123316D03*
Y101864D03*
X143001D03*
Y100065D03*
X148081D03*
Y101864D03*
X118236Y100065D03*
Y101864D03*
X113156D03*
Y100065D03*
X75691Y101864D03*
Y100065D03*
X110616Y101864D03*
Y100065D03*
X120776D03*
Y101864D03*
X145541Y100065D03*
Y101864D03*
X93471Y100065D03*
Y101864D03*
X78231D03*
Y100065D03*
X140461Y101864D03*
Y100065D03*
X105536Y101864D03*
Y100065D03*
X150621D03*
Y101864D03*
X137921D03*
Y100065D03*
X153161D03*
Y101864D03*
X135381D03*
Y100065D03*
X56006D03*
Y101864D03*
X53466D03*
Y100065D03*
X58546D03*
Y101864D03*
X50926D03*
Y100065D03*
X61086D03*
Y101864D03*
X48386D03*
Y100065D03*
X63626D03*
Y101864D03*
X45846D03*
Y100065D03*
G54D63*
X43522Y71754D03*
X45123D03*
G54D64*
X70408Y62885D03*
X73609D03*
G54D65*
X82041Y62610D03*
X78485D03*
G54D66*
X58313Y94995D03*
Y95646D03*
Y96293D03*
Y96944D03*
X51414D03*
Y96293D03*
Y95646D03*
Y94995D03*
Y89799D03*
Y90449D03*
Y91099D03*
Y91749D03*
Y92400D03*
Y93050D03*
Y93700D03*
Y94350D03*
X58313Y89799D03*
Y90449D03*
Y91099D03*
Y91749D03*
Y92400D03*
Y93050D03*
Y93700D03*
Y94350D03*
X88158Y94995D03*
Y95646D03*
Y96293D03*
Y96944D03*
X81259D03*
Y96293D03*
Y95646D03*
Y94995D03*
Y89799D03*
Y90449D03*
Y91099D03*
Y91749D03*
Y92400D03*
Y93050D03*
Y93700D03*
Y94350D03*
X88158Y89799D03*
Y90449D03*
Y91099D03*
Y91749D03*
Y92400D03*
Y93050D03*
Y93700D03*
Y94350D03*
X118003Y94995D03*
Y95646D03*
Y96293D03*
Y96944D03*
X111104D03*
Y96293D03*
Y95646D03*
Y94995D03*
Y89799D03*
Y90449D03*
Y91099D03*
Y91749D03*
Y92400D03*
Y93050D03*
Y93700D03*
Y94350D03*
X118003Y89799D03*
Y90449D03*
Y91099D03*
Y91749D03*
Y92400D03*
Y93050D03*
Y93700D03*
Y94350D03*
X147848Y94995D03*
Y95646D03*
Y96293D03*
Y96944D03*
X140949D03*
Y96293D03*
Y95646D03*
Y94995D03*
Y89799D03*
Y90449D03*
Y91099D03*
Y91749D03*
Y92400D03*
Y93050D03*
Y93700D03*
Y94350D03*
X147848Y89799D03*
Y90449D03*
Y91099D03*
Y91749D03*
Y92400D03*
Y93050D03*
Y93700D03*
Y94350D03*
M02*