%FSAX43Y43*%
%MOMM*%
G71*
G01*
G75*
G04 Layer_Color=255*
%ADD10R,2.200X2.200*%
%ADD11R,2.032X0.635*%
%ADD12R,1.524X0.508*%
%ADD13R,2.600X8.000*%
%ADD14R,0.800X0.900*%
%ADD15R,1.500X1.700*%
%ADD16R,0.508X1.500*%
%ADD17R,0.900X0.800*%
%ADD18R,0.300X1.200*%
%ADD19R,1.200X0.300*%
%ADD20R,2.540X1.016*%
%ADD21R,1.016X2.540*%
%ADD22R,1.200X1.400*%
%ADD23O,0.600X2.200*%
%ADD24O,0.300X1.800*%
%ADD25O,1.800X0.300*%
%ADD26C,0.508*%
%ADD27C,0.381*%
%ADD28C,0.254*%
%ADD29C,0.635*%
%ADD30C,0.762*%
%ADD31R,1.263X3.045*%
%ADD32R,2.794X2.667*%
%ADD33R,1.725X1.695*%
%ADD34R,2.874X2.980*%
%ADD35R,2.921X2.667*%
%ADD36R,1.270X3.048*%
%ADD37R,3.048X1.270*%
%ADD38R,2.794X3.302*%
%ADD39R,4.826X3.048*%
%ADD40R,3.048X4.826*%
%ADD41R,5.588X5.715*%
%ADD42R,1.143X1.016*%
%ADD43R,1.397X1.270*%
%ADD44R,5.334X5.461*%
%ADD45R,5.207X6.223*%
%ADD46R,1.397X4.445*%
%ADD47R,4.699X5.461*%
%ADD48R,0.353X0.241*%
%ADD49R,3.048X5.080*%
%ADD50R,0.586X1.571*%
%ADD51R,3.937X3.048*%
%ADD52R,4.699X2.413*%
%ADD53R,5.080X4.699*%
%ADD54R,2.032X2.349*%
%ADD55R,2.223X2.547*%
%ADD56R,2.449X2.272*%
%ADD57R,2.921X2.794*%
%ADD58R,5.969X6.350*%
%ADD59R,8.854X9.012*%
%ADD60R,4.572X4.572*%
%ADD61R,2.377X0.544*%
%ADD62R,1.905X0.508*%
%ADD63R,2.711X2.918*%
%ADD64R,1.397X1.524*%
%ADD65R,1.270X1.270*%
%ADD66R,1.778X1.524*%
%ADD67R,1.905X1.778*%
%ADD68R,2.032X2.009*%
%ADD69R,1.651X1.524*%
%ADD70R,3.937X3.937*%
%ADD71R,3.429X3.048*%
%ADD72R,2.794X2.794*%
%ADD73R,3.810X25.781*%
%ADD74R,9.779X2.159*%
%ADD75C,4.760*%
%ADD76R,1.690X1.690*%
%ADD77C,1.690*%
%ADD78C,0.762*%
%ADD79C,0.508*%
%ADD80C,1.524*%
%ADD81C,1.016*%
%ADD82R,2.000X2.000*%
%ADD83C,2.000*%
%ADD84R,1.500X1.500*%
%ADD85C,1.500*%
%ADD86C,1.778*%
%ADD87C,4.000*%
%ADD88C,1.270*%
%ADD89C,2.032*%
%ADD90C,1.600*%
%ADD91R,1.524X1.524*%
%ADD92C,3.556*%
%ADD93C,3.810*%
%ADD94R,1.500X1.500*%
%ADD95C,3.000*%
%ADD96R,2.794X2.540*%
%ADD97R,1.000X1.300*%
%ADD98R,1.000X1.800*%
%ADD99R,1.397X1.397*%
%ADD100R,3.048X2.667*%
%ADD101R,2.667X2.794*%
%ADD102R,0.164X0.331*%
%ADD103R,0.210X0.140*%
%ADD104R,0.210X0.331*%
%ADD105R,0.374X0.725*%
%ADD106R,1.016X1.524*%
%ADD107R,1.270X1.397*%
%ADD108R,4.953X5.080*%
%ADD109R,5.461X5.715*%
%ADD110R,2.159X0.889*%
%ADD111R,3.040X2.506*%
%ADD112R,2.921X3.175*%
%ADD113R,4.826X4.699*%
%ADD114R,5.080X5.080*%
%ADD115R,2.413X2.223*%
%ADD116R,2.603X2.675*%
%ADD117R,2.540X3.048*%
%ADD118R,6.350X6.223*%
%ADD119R,2.667X2.667*%
%ADD120R,5.715X6.350*%
%ADD121R,5.207X3.429*%
%ADD122R,13.843X6.858*%
%ADD123R,4.953X4.953*%
%ADD124R,1.397X1.651*%
%ADD125R,1.905X1.651*%
%ADD126R,3.937X3.683*%
%ADD127R,9.525X2.159*%
D14*
X0088965Y0075819D02*
D03*
X0087565D02*
D03*
X0088965Y0074295D02*
D03*
X0087565D02*
D03*
X0091251Y0078105D02*
D03*
X0089851D02*
D03*
X0093407Y0078105D02*
D03*
X0094807D02*
D03*
X0085660Y0078359D02*
D03*
X0087060D02*
D03*
X0082869Y0078359D02*
D03*
X0081469D02*
D03*
X0083755Y0074295D02*
D03*
X0085155D02*
D03*
X0083755Y0075819D02*
D03*
X0085155D02*
D03*
X0105094Y0089281D02*
D03*
X0103694D02*
D03*
D17*
X0071755Y0063689D02*
D03*
Y0065089D02*
D03*
X0094615Y0063689D02*
D03*
Y0065089D02*
D03*
X0097155Y0063689D02*
D03*
Y0065089D02*
D03*
X0156210Y0063689D02*
D03*
Y0065089D02*
D03*
X0145415Y0063689D02*
D03*
Y0065089D02*
D03*
X0147955Y0063689D02*
D03*
Y0065089D02*
D03*
X0060325Y0071439D02*
D03*
Y0070039D02*
D03*
X0061722Y0071439D02*
D03*
Y0070039D02*
D03*
X0059055Y0066232D02*
D03*
Y0064832D02*
D03*
X0062865Y0066232D02*
D03*
Y0064832D02*
D03*
X0066040Y0084263D02*
D03*
Y0085663D02*
D03*
X0056007Y0081599D02*
D03*
Y0080199D02*
D03*
X0064262Y0081599D02*
D03*
Y0080199D02*
D03*
D75*
X0115140Y0065634D02*
D03*
X0140130D02*
D03*
D76*
X0133175Y0067054D02*
D03*
D77*
X0131790Y0064214D02*
D03*
X0130405Y0067054D02*
D03*
X0129020Y0064214D02*
D03*
X0127635Y0067054D02*
D03*
X0126250Y0064214D02*
D03*
X0124865Y0067054D02*
D03*
X0123480Y0064214D02*
D03*
X0122095Y0067054D02*
D03*
D78*
X0065151Y0095631D02*
D03*
X0059690Y0102489D02*
D03*
X0093980Y0098171D02*
D03*
X0089154Y0098933D02*
D03*
X0090043Y0086741D02*
D03*
X0091313D02*
D03*
X0094107Y0082804D02*
D03*
X0090551D02*
D03*
X0104728Y0071628D02*
D03*
X0086360Y0075819D02*
D03*
Y0074295D02*
D03*
X0096520Y0077216D02*
D03*
X0097790D02*
D03*
X0074041Y0065024D02*
D03*
X0104267Y0084582D02*
D03*
X0110236Y0086868D02*
D03*
X0109982Y0094996D02*
D03*
X0102108Y0089281D02*
D03*
X0095631Y0089812D02*
D03*
X0136779Y0089789D02*
D03*
X0135890Y0084709D02*
D03*
X0142310Y0091948D02*
D03*
X0136779Y0087249D02*
D03*
X0132461Y0077724D02*
D03*
X0131191D02*
D03*
Y0082185D02*
D03*
X0106172Y0091313D02*
D03*
X0105283Y0092202D02*
D03*
X0106172Y0091313D02*
D03*
X0105283Y0092202D02*
D03*
X0101981Y0094615D02*
D03*
X0102489Y0093599D02*
D03*
X0106426Y0099949D02*
D03*
X0103759Y0101981D02*
D03*
X0102870Y0101092D02*
D03*
X0102997Y0099822D02*
D03*
X0105537Y0101346D02*
D03*
X0082550Y0086868D02*
D03*
X0092456Y0087758D02*
D03*
X0104013Y0095250D02*
D03*
X0106172Y0093853D02*
D03*
X0107061Y0093091D02*
D03*
X0100838Y0103124D02*
D03*
X0089027Y0101473D02*
D03*
X0092202Y0099060D02*
D03*
D79*
X0167894Y0091059D02*
D03*
X0153289Y0086487D02*
D03*
X0082550Y0097155D02*
D03*
X0115951Y0080772D02*
D03*
X0110236Y0085289D02*
D03*
X0102616Y0105156D02*
D03*
X0108045Y0093789D02*
D03*
X0118110Y0084455D02*
D03*
X0117475Y0085090D02*
D03*
X0116840Y0085725D02*
D03*
X0116205Y0086360D02*
D03*
X0111125Y0089916D02*
D03*
X0111760Y0090551D02*
D03*
X0054356Y0092710D02*
D03*
X0060234Y0094071D02*
D03*
X0061595Y0089408D02*
D03*
X0059690Y0091313D02*
D03*
X0059210Y0089380D02*
D03*
X0063881Y0085852D02*
D03*
X0056072Y0085914D02*
D03*
X0057785Y0085725D02*
D03*
X0058676Y0084963D02*
D03*
X0061595Y0078994D02*
D03*
X0059055D02*
D03*
X0060234Y0094071D02*
D03*
X0059690Y0100965D02*
D03*
X0060706Y0100203D02*
D03*
X0062103Y0098806D02*
D03*
X0067056Y0092837D02*
D03*
X0065532Y0097155D02*
D03*
X0056515Y0078613D02*
D03*
X0057785Y0078994D02*
D03*
X0065405Y0087503D02*
D03*
X0067183Y0088265D02*
D03*
X0068961D02*
D03*
X0064262Y0083058D02*
D03*
X0062865Y0078994D02*
D03*
X0071755Y0091568D02*
D03*
X0069850Y0090170D02*
D03*
X0067564Y0078613D02*
D03*
X0058928Y0083820D02*
D03*
X0060198D02*
D03*
X0071120Y0093599D02*
D03*
X0061214Y0091313D02*
D03*
X0072390Y0092710D02*
D03*
X0062230Y0093599D02*
D03*
D80*
X0070993Y0103124D02*
D03*
X0104203Y0062103D02*
D03*
X0108775D02*
D03*
X0146050Y0077470D02*
D03*
X0143256D02*
D03*
X0155067Y0075692D02*
D03*
Y0072898D02*
D03*
X0065151Y0063119D02*
D03*
X0067691D02*
D03*
X0056769D02*
D03*
X0054229D02*
D03*
X0084455Y0069151D02*
D03*
X0081915D02*
D03*
Y0071184D02*
D03*
X0119380Y0070104D02*
D03*
D81*
X0074295Y0106553D02*
D03*
X0093599Y0105791D02*
D03*
X0119380Y0081091D02*
D03*
D82*
X0172720Y0097155D02*
D03*
D83*
Y0100965D02*
D03*
D84*
X0146152Y0104775D02*
D03*
X0114402D02*
D03*
D85*
X0146152Y0107315D02*
D03*
X0148692Y0104775D02*
D03*
Y0107315D02*
D03*
X0151232Y0104775D02*
D03*
Y0107315D02*
D03*
X0153772Y0104775D02*
D03*
Y0107315D02*
D03*
X0174625Y0073279D02*
D03*
X0114402Y0107315D02*
D03*
X0116942Y0104775D02*
D03*
Y0107315D02*
D03*
X0119482Y0104775D02*
D03*
Y0107315D02*
D03*
X0122022Y0104775D02*
D03*
Y0107315D02*
D03*
X0124562Y0104775D02*
D03*
Y0107315D02*
D03*
X0127102Y0104775D02*
D03*
Y0107315D02*
D03*
X0129642Y0104775D02*
D03*
Y0107315D02*
D03*
X0132182Y0104775D02*
D03*
Y0107315D02*
D03*
D86*
X0102934Y0064643D02*
D03*
X0109919D02*
D03*
D87*
X0048895Y0062865D02*
D03*
X0173990D02*
D03*
X0048895Y0107950D02*
D03*
X0173990D02*
D03*
D88*
X0055245Y0076073D02*
D03*
X0056515Y0073533D02*
D03*
X0057785Y0076073D02*
D03*
X0059055Y0073533D02*
D03*
X0060325Y0076073D02*
D03*
X0062865D02*
D03*
X0065405D02*
D03*
X0061595Y0073533D02*
D03*
X0064135D02*
D03*
X0066675D02*
D03*
D89*
X0069215Y0070231D02*
D03*
X0052705D02*
D03*
D90*
X0074295Y0061595D02*
D03*
X0071755D02*
D03*
X0094615D02*
D03*
X0092075D02*
D03*
X0099695D02*
D03*
X0097155D02*
D03*
X0147955D02*
D03*
X0145415D02*
D03*
X0153035D02*
D03*
X0150495D02*
D03*
X0158750D02*
D03*
X0156210D02*
D03*
D91*
X0084455Y0071184D02*
D03*
D92*
X0089535Y0066484D02*
D03*
X0076835D02*
D03*
D93*
X0165671Y0063818D02*
D03*
X0170117Y0066866D02*
D03*
X0165671Y0070040D02*
D03*
D94*
X0174625Y0070739D02*
D03*
D95*
X0078499Y0089281D02*
D03*
X0085999D02*
D03*
D96*
X0090551Y0080645D02*
D03*
X0094107D02*
D03*
D97*
X0057188Y0089789D02*
D03*
X0055588D02*
D03*
D98*
X0085649Y0080670D02*
D03*
X0082855Y0080665D02*
D03*
M02*
