M48
;Layer_Color=9474304
;FILE_FORMAT=4:3
METRIC
;TYPE=PLATED
T1F00S00C0.254
T2F00S00C0.381
T3F00S00C0.508
T4F00S00C0.762
T5F00S00C0.800
T6F00S00C0.889
T7F00S00C0.900
T8F00S00C1.016
T9F00S00C1.090
T10F00S00C1.100
T11F00S00C1.270
T12F00S00C1.500
T13F00S00C1.575
T14F00S00C2.286
T15F00S00C2.667
T16F00S00C3.200
T17F00S00C3.260
T18F00S00C3.302
%
T01
X0056515Y0078613
X0057785Y0078994
X0059055
X0061595
X0062865
X0067564Y0078613
X0064262Y0083058
X0063881Y0085852
X0065405Y0087503
X0067183Y0088265
X0068961
X0069850Y0090170
X0071755Y0091568
X0072390Y0092710
X0071120Y0093599
X0067056Y0092837
X0062230Y0093599
X0060234Y0094071
X0059690Y0091313
X0061214
X0061595Y0089408
X0059210Y0089380
X0058676Y0084963
X0058928Y0083820
X0060198
X0057785Y0085725
X0056072Y0085914
X0054356Y0092710
X0059690Y0100965
X0060706Y0100203
X0062103Y0098806
X0065532Y0097155
X0082550
X0102616Y0105156
X0108045Y0093789
X0111125Y0089916
X0111760Y0090551
X0110236Y0085289
X0116840Y0085725
X0117475Y0085090
X0118110Y0084455
X0116205Y0086360
X0115951Y0080772
X0153289Y0086487
X0167894Y0091059
T02
X0131191Y0077724
X0132461
X0104728Y0071628
X0097790Y0077216
X0096520
X0086360Y0075819
Y0074295
X0074041Y0065024
X0065151Y0095631
X0059690Y0102489
X0089027Y0101473
X0089154Y0098933
X0092202Y0099060
X0093980Y0098171
X0095631Y0089812
X0092456Y0087758
X0091313Y0086741
X0090043
X0090551Y0082804
X0094107
X0104267Y0084582
X0102108Y0089281
X0102489Y0093599
X0101981Y0094615
X0104013Y0095250
X0106172Y0093853
X0107061Y0093091
X0106172Y0091313
X0105283Y0092202
X0109982Y0094996
X0110236Y0086868
X0106426Y0099949
X0105537Y0101346
X0103759Y0101981
X0102870Y0101092
X0102997Y0099822
X0100838Y0103124
X0082550Y0086868
X0131191Y0082185
X0135890Y0084709
X0136779Y0087249
Y0089789
X0142310Y0091948
T03
X0074295Y0106553
X0093599Y0105791
X0119380Y0081091
T04
X0119380Y0070104
X0143256Y0077470
X0146050
X0155067Y0075692
Y0072898
X0084455Y0071184
Y0069151
X0081915
Y0071184
X0070993Y0103124
T05
X0158750Y0061595
X0156210
X0153035
X0150495
X0147955
X0145415
X0099695
X0097155
X0094615
X0092075
X0074295
X0071755
T06
X0056515Y0073533
X0059055
X0061595
X0064135
X0066675
X0065405Y0076073
X0062865
X0060325
X0057785
X0055245
T07
X0174625Y0070739
Y0073279
X0116942Y0104775
X0114402
Y0107315
X0116942
X0119482
Y0104775
X0122022
Y0107315
X0124562
Y0104775
X0127102
Y0107315
X0129642
Y0104775
X0132182
Y0107315
X0146152
Y0104775
X0148692
Y0107315
X0151232
Y0104775
X0153772
Y0107315
T08
X0104203Y0062103
X0108775
X0067691Y0063119
X0065151
X0056769
X0054229
T09
X0123480Y0064214
X0126250
X0129020
X0131790
X0133175Y0067054
X0130405
X0127635
X0124865
X0122095
T10
X0172720Y0097155
Y0100965
T11
X0102934Y0064643
X0109919
T12
X0078499Y0089281
X0085999
T13
X0052705Y0070231
X0069215
T14
X0089535Y0066484
X0076835
T15
X0165671Y0063818
Y0070040
X0170117Y0066866
T16
X0173990Y0062865
X0048895
Y0107950
X0173990
T17
X0140130Y0065634
X0115140
T18
X0055245Y0067183
X0066675
M30
