%FSAX43Y43*%
%MOMM*%
G71*
G01*
G75*
G04 Layer_Color=32768*
%ADD10R,2.200X2.200*%
%ADD11R,2.032X0.635*%
%ADD12R,1.524X0.508*%
%ADD13R,2.600X8.000*%
%ADD14R,0.800X0.900*%
%ADD15R,1.500X1.700*%
%ADD16R,0.508X1.500*%
%ADD17R,0.900X0.800*%
%ADD18R,0.300X1.200*%
%ADD19R,1.200X0.300*%
%ADD20R,2.540X1.016*%
%ADD21R,1.016X2.540*%
%ADD22R,1.200X1.400*%
%ADD23O,0.600X2.200*%
%ADD24O,0.300X1.800*%
%ADD25O,1.800X0.300*%
%ADD26C,0.508*%
%ADD27C,0.381*%
%ADD28C,0.254*%
%ADD29C,0.635*%
%ADD30C,0.762*%
%ADD31R,1.263X3.045*%
%ADD32R,2.794X2.667*%
%ADD33R,1.725X1.695*%
%ADD34R,2.874X2.980*%
%ADD35R,2.921X2.667*%
%ADD36R,1.270X3.048*%
%ADD37R,3.048X1.270*%
%ADD38R,2.794X3.302*%
%ADD39R,4.826X3.048*%
%ADD40R,3.048X4.826*%
%ADD41R,5.588X5.715*%
%ADD42R,1.143X1.016*%
%ADD43R,1.397X1.270*%
%ADD44R,5.334X5.461*%
%ADD45R,5.207X6.223*%
%ADD46R,1.397X4.445*%
%ADD47R,4.699X5.461*%
%ADD48R,0.353X0.241*%
%ADD49R,3.048X5.080*%
%ADD50R,0.586X1.571*%
%ADD51R,3.937X3.048*%
%ADD52R,4.699X2.413*%
%ADD53R,5.080X4.699*%
%ADD54R,2.032X2.349*%
%ADD55R,2.223X2.547*%
%ADD56R,2.449X2.272*%
%ADD57R,2.921X2.794*%
%ADD58R,5.969X6.350*%
%ADD59R,8.854X9.012*%
%ADD60R,4.572X4.572*%
%ADD61R,2.377X0.544*%
%ADD62R,1.905X0.508*%
%ADD63R,2.711X2.918*%
%ADD64R,1.397X1.524*%
%ADD65R,1.270X1.270*%
%ADD66R,1.778X1.524*%
%ADD67R,1.905X1.778*%
%ADD68R,2.032X2.009*%
%ADD69R,1.651X1.524*%
%ADD70R,3.937X3.937*%
%ADD71R,3.429X3.048*%
%ADD72R,2.794X2.794*%
%ADD73R,3.810X25.781*%
%ADD74R,9.779X2.159*%
%ADD75C,4.760*%
%ADD76R,1.690X1.690*%
%ADD77C,1.690*%
%ADD78C,0.762*%
%ADD79C,0.508*%
%ADD80C,1.524*%
%ADD81C,1.016*%
%ADD82R,2.000X2.000*%
%ADD83C,2.000*%
%ADD84R,1.500X1.500*%
%ADD85C,1.500*%
%ADD86C,1.778*%
%ADD87C,4.000*%
%ADD88C,1.270*%
%ADD89C,2.032*%
%ADD90C,1.600*%
%ADD91R,1.524X1.524*%
%ADD92C,3.556*%
%ADD93C,3.810*%
%ADD94R,1.500X1.500*%
%ADD95C,3.000*%
%ADD96R,2.794X2.540*%
%ADD97R,1.000X1.300*%
%ADD98R,1.000X1.800*%
%ADD99R,1.397X1.397*%
%ADD100R,3.048X2.667*%
%ADD101R,2.667X2.794*%
%ADD102R,0.164X0.331*%
%ADD103R,0.210X0.140*%
%ADD104R,0.210X0.331*%
%ADD105R,0.374X0.725*%
%ADD106R,1.016X1.524*%
%ADD107R,1.270X1.397*%
%ADD108R,4.953X5.080*%
%ADD109R,5.461X5.715*%
%ADD110R,2.159X0.889*%
%ADD111R,3.040X2.506*%
%ADD112R,2.921X3.175*%
%ADD113R,4.826X4.699*%
%ADD114R,5.080X5.080*%
%ADD115R,2.413X2.223*%
%ADD116R,2.603X2.675*%
%ADD117R,2.540X3.048*%
%ADD118R,6.350X6.223*%
%ADD119R,2.667X2.667*%
%ADD120R,5.715X6.350*%
%ADD121R,5.207X3.429*%
%ADD122R,13.843X6.858*%
%ADD123R,4.953X4.953*%
%ADD124R,1.397X1.651*%
%ADD125R,1.905X1.651*%
%ADD126R,3.937X3.683*%
%ADD127R,9.525X2.159*%
%ADD128C,0.200*%
%ADD129C,0.250*%
%ADD130C,0.127*%
%ADD131C,0.600*%
%ADD132C,0.150*%
%ADD133R,2.235X0.838*%
%ADD134R,1.727X0.711*%
%ADD135R,2.803X8.203*%
%ADD136R,1.003X1.103*%
%ADD137R,1.703X1.903*%
%ADD138R,0.711X1.703*%
%ADD139R,1.103X1.003*%
%ADD140R,0.503X1.403*%
%ADD141R,1.403X0.503*%
%ADD142R,2.743X1.219*%
%ADD143R,1.219X2.743*%
%ADD144R,1.403X1.603*%
%ADD145O,0.803X2.403*%
%ADD146O,0.503X2.003*%
%ADD147O,2.003X0.503*%
%ADD148C,4.963*%
%ADD149R,1.893X1.893*%
%ADD150C,1.893*%
%ADD151C,0.965*%
%ADD152C,0.711*%
%ADD153C,1.727*%
%ADD154C,1.219*%
%ADD155R,2.203X2.203*%
%ADD156C,2.203*%
%ADD157R,1.703X1.703*%
%ADD158C,1.703*%
%ADD159C,1.981*%
%ADD160C,4.203*%
%ADD161C,1.473*%
%ADD162C,2.235*%
%ADD163C,0.203*%
%ADD164C,1.803*%
%ADD165R,1.727X1.727*%
%ADD166C,3.759*%
%ADD167C,4.013*%
%ADD168R,1.703X1.703*%
%ADD169C,3.203*%
%ADD170R,2.997X2.743*%
%ADD171R,1.203X1.503*%
%ADD172R,1.203X2.003*%
%ADD173C,0.100*%
D28*
X0153594Y0098222D02*
X0162382D01*
Y0089484D02*
Y0098222D01*
X0153594Y0089484D02*
Y0098222D01*
Y0089484D02*
X0162382D01*
D173*
X0153772Y0081661D02*
Y0087757D01*
Y0081661D02*
X0161188D01*
X0153772Y0087757D02*
X0161188D01*
Y0081661D02*
Y0087757D01*
X0165989Y0090584D02*
Y0091534D01*
X0165514Y0091059D02*
X0166464D01*
X0164789Y0090509D02*
X0167189D01*
X0164789Y0091609D02*
X0167189D01*
Y0090509D02*
Y0091609D01*
X0164789Y0090509D02*
Y0091609D01*
X0151798Y0091059D02*
X0152748D01*
X0152273Y0090584D02*
Y0091534D01*
X0152823Y0089859D02*
Y0092259D01*
X0151723Y0089859D02*
Y0092259D01*
X0152823D01*
X0151723Y0089859D02*
X0152823D01*
X0165260Y0083439D02*
X0166210D01*
X0165735Y0082964D02*
Y0083914D01*
X0165185Y0082239D02*
Y0084639D01*
X0166285Y0082239D02*
Y0084639D01*
X0165185Y0082239D02*
X0166285D01*
X0165185Y0084639D02*
X0166285D01*
X0088265Y0075344D02*
Y0076294D01*
X0087790Y0075819D02*
X0088740D01*
X0087065Y0076369D02*
X0089465D01*
X0087065Y0075269D02*
X0089465D01*
Y0076369D01*
X0087065Y0075269D02*
Y0076369D01*
X0088265Y0073820D02*
Y0074770D01*
X0087790Y0074295D02*
X0088740D01*
X0087065Y0074845D02*
X0089465D01*
X0087065Y0073745D02*
X0089465D01*
Y0074845D01*
X0087065Y0073745D02*
Y0074845D01*
X0116651Y0078392D02*
Y0079342D01*
X0116176Y0078867D02*
X0117126D01*
X0115451Y0079417D02*
X0117851D01*
X0115451Y0078317D02*
X0117851D01*
X0115451D02*
Y0079417D01*
X0117851Y0078317D02*
Y0079417D01*
X0090551Y0077630D02*
Y0078580D01*
X0090076Y0078105D02*
X0091026D01*
X0089351Y0078655D02*
X0091751D01*
X0089351Y0077555D02*
X0091751D01*
Y0078655D01*
X0089351Y0077555D02*
Y0078655D01*
X0094107Y0077630D02*
Y0078580D01*
X0093632Y0078105D02*
X0094582D01*
X0092907Y0077555D02*
X0095307D01*
X0092907Y0078655D02*
X0095307D01*
X0092907Y0077555D02*
Y0078655D01*
X0095307Y0077555D02*
Y0078655D01*
X0100584Y0104681D02*
Y0105631D01*
X0100109Y0105156D02*
X0101059D01*
X0099384Y0104606D02*
X0101784D01*
X0099384Y0105706D02*
X0101784D01*
Y0104606D02*
Y0105706D01*
X0099384Y0104606D02*
Y0105706D01*
X0116651Y0076995D02*
Y0077945D01*
X0116176Y0077470D02*
X0117126D01*
X0115451Y0076920D02*
X0117851D01*
X0115451Y0078020D02*
X0117851D01*
Y0076920D02*
Y0078020D01*
X0115451Y0076920D02*
Y0078020D01*
X0100584Y0106078D02*
Y0107028D01*
X0100109Y0106553D02*
X0101059D01*
X0099384Y0106003D02*
X0101784D01*
X0099384Y0107103D02*
X0101784D01*
Y0106003D02*
Y0107103D01*
X0099384Y0106003D02*
Y0107103D01*
X0071280Y0064389D02*
X0072230D01*
X0071755Y0063914D02*
Y0064864D01*
X0072305Y0063189D02*
Y0065589D01*
X0071205Y0063189D02*
Y0065589D01*
Y0063189D02*
X0072305D01*
X0071205Y0065589D02*
X0072305D01*
X0094140Y0064389D02*
X0095090D01*
X0094615Y0063914D02*
Y0064864D01*
X0095165Y0063189D02*
Y0065589D01*
X0094065Y0063189D02*
Y0065589D01*
Y0063189D02*
X0095165D01*
X0094065Y0065589D02*
X0095165D01*
X0096680Y0064389D02*
X0097630D01*
X0097155Y0063914D02*
Y0064864D01*
X0097705Y0063189D02*
Y0065589D01*
X0096605Y0063189D02*
Y0065589D01*
Y0063189D02*
X0097705D01*
X0096605Y0065589D02*
X0097705D01*
X0089441Y0096774D02*
X0090391D01*
X0089916Y0096299D02*
Y0097249D01*
X0089366Y0095574D02*
Y0097974D01*
X0090466Y0095574D02*
Y0097974D01*
X0089366Y0095574D02*
X0090466D01*
X0089366Y0097974D02*
X0090466D01*
X0107188Y0071153D02*
Y0072103D01*
X0106713Y0071628D02*
X0107663D01*
X0105988Y0072178D02*
X0108388D01*
X0105988Y0071078D02*
X0108388D01*
X0105988D02*
Y0072178D01*
X0108388Y0071078D02*
Y0072178D01*
X0097950Y0102870D02*
X0098900D01*
X0098425Y0102395D02*
Y0103345D01*
X0098975Y0101670D02*
Y0104070D01*
X0097875Y0101670D02*
Y0104070D01*
X0098975D01*
X0097875Y0101670D02*
X0098975D01*
X0091440Y0101379D02*
Y0102329D01*
X0090965Y0101854D02*
X0091915D01*
X0090240Y0101304D02*
X0092640D01*
X0090240Y0102404D02*
X0092640D01*
Y0101304D02*
Y0102404D01*
X0090240Y0101304D02*
Y0102404D01*
X0091440Y0104554D02*
Y0105504D01*
X0090965Y0105029D02*
X0091915D01*
X0090240Y0104479D02*
X0092640D01*
X0090240Y0105579D02*
X0092640D01*
Y0104479D02*
Y0105579D01*
X0090240Y0104479D02*
Y0105579D01*
X0091440Y0106078D02*
Y0107028D01*
X0090965Y0106553D02*
X0091915D01*
X0090240Y0106003D02*
X0092640D01*
X0090240Y0107103D02*
X0092640D01*
Y0106003D02*
Y0107103D01*
X0090240Y0106003D02*
Y0107103D01*
X0091727Y0096774D02*
X0092677D01*
X0092202Y0096299D02*
Y0097249D01*
X0092752Y0095574D02*
Y0097974D01*
X0091652Y0095574D02*
Y0097974D01*
X0092752D01*
X0091652Y0095574D02*
X0092752D01*
X0143924Y0091440D02*
X0144874D01*
X0144399Y0090965D02*
Y0091915D01*
X0143849Y0090240D02*
Y0092640D01*
X0144949Y0090240D02*
Y0092640D01*
X0143849Y0090240D02*
X0144949D01*
X0143849Y0092640D02*
X0144949D01*
X0143924Y0088646D02*
X0144874D01*
X0144399Y0088171D02*
Y0089121D01*
X0143849Y0087446D02*
Y0089846D01*
X0144949Y0087446D02*
Y0089846D01*
X0143849Y0087446D02*
X0144949D01*
X0143849Y0089846D02*
X0144949D01*
X0086360Y0077884D02*
Y0078834D01*
X0085885Y0078359D02*
X0086835D01*
X0085160Y0077809D02*
X0087560D01*
X0085160Y0078909D02*
X0087560D01*
X0085160Y0077809D02*
Y0078909D01*
X0087560Y0077809D02*
Y0078909D01*
X0082169Y0077884D02*
Y0078834D01*
X0081694Y0078359D02*
X0082644D01*
X0080969Y0078909D02*
X0083369D01*
X0080969Y0077809D02*
X0083369D01*
Y0078909D01*
X0080969Y0077809D02*
Y0078909D01*
X0155735Y0064389D02*
X0156685D01*
X0156210Y0063914D02*
Y0064864D01*
X0156760Y0063189D02*
Y0065589D01*
X0155660Y0063189D02*
Y0065589D01*
Y0063189D02*
X0156760D01*
X0155660Y0065589D02*
X0156760D01*
X0144940Y0064389D02*
X0145890D01*
X0145415Y0063914D02*
Y0064864D01*
X0145965Y0063189D02*
Y0065589D01*
X0144865Y0063189D02*
Y0065589D01*
Y0063189D02*
X0145965D01*
X0144865Y0065589D02*
X0145965D01*
X0147480Y0064389D02*
X0148430D01*
X0147955Y0063914D02*
Y0064864D01*
X0148505Y0063189D02*
Y0065589D01*
X0147405Y0063189D02*
Y0065589D01*
Y0063189D02*
X0148505D01*
X0147405Y0065589D02*
X0148505D01*
X0059850Y0070739D02*
X0060800D01*
X0060325Y0070264D02*
Y0071214D01*
X0059775Y0069539D02*
Y0071939D01*
X0060875Y0069539D02*
Y0071939D01*
X0059775D02*
X0060875D01*
X0059775Y0069539D02*
X0060875D01*
X0061247Y0070739D02*
X0062197D01*
X0061722Y0070264D02*
Y0071214D01*
X0061172Y0069539D02*
Y0071939D01*
X0062272Y0069539D02*
Y0071939D01*
X0061172D02*
X0062272D01*
X0061172Y0069539D02*
X0062272D01*
X0084455Y0073820D02*
Y0074770D01*
X0083980Y0074295D02*
X0084930D01*
X0083255Y0073745D02*
X0085655D01*
X0083255Y0074845D02*
X0085655D01*
X0083255Y0073745D02*
Y0074845D01*
X0085655Y0073745D02*
Y0074845D01*
X0084455Y0075344D02*
Y0076294D01*
X0083980Y0075819D02*
X0084930D01*
X0083255Y0075269D02*
X0085655D01*
X0083255Y0076369D02*
X0085655D01*
X0083255Y0075269D02*
Y0076369D01*
X0085655Y0075269D02*
Y0076369D01*
X0083312Y0074582D02*
Y0075532D01*
X0082837Y0075057D02*
X0083787D01*
X0082112Y0074507D02*
X0084512D01*
X0082112Y0075607D02*
X0084512D01*
Y0074507D02*
Y0075607D01*
X0082112Y0074507D02*
Y0075607D01*
X0077216Y0077859D02*
Y0078859D01*
X0076716Y0078359D02*
X0077716D01*
X0075466Y0079309D02*
X0078966D01*
X0075466Y0077409D02*
X0078966D01*
X0075466D02*
Y0079309D01*
X0078966Y0077409D02*
Y0079309D01*
X0122766Y0073466D02*
X0133266D01*
X0122766Y0080966D02*
X0133266D01*
X0122766Y0073466D02*
Y0080966D01*
X0133266Y0073466D02*
Y0080966D01*
X0128016Y0076716D02*
Y0077716D01*
X0127516Y0077216D02*
X0128516D01*
X0124841Y0071534D02*
Y0072484D01*
X0124366Y0072009D02*
X0125316D01*
X0123641Y0072559D02*
X0126041D01*
X0123641Y0071459D02*
X0126041D01*
X0123641D02*
Y0072559D01*
X0126041Y0071459D02*
Y0072559D01*
X0120937Y0077470D02*
X0121887D01*
X0121412Y0076995D02*
Y0077945D01*
X0121962Y0076270D02*
Y0078670D01*
X0120862Y0076270D02*
Y0078670D01*
X0121962D01*
X0120862Y0076270D02*
X0121962D01*
X0128016Y0071534D02*
Y0072484D01*
X0127541Y0072009D02*
X0128491D01*
X0126816Y0072559D02*
X0129216D01*
X0126816Y0071459D02*
X0129216D01*
X0126816D02*
Y0072559D01*
X0129216Y0071459D02*
Y0072559D01*
X0133891Y0076073D02*
X0134841D01*
X0134366Y0075598D02*
Y0076548D01*
X0134916Y0074873D02*
Y0077273D01*
X0133816Y0074873D02*
Y0077273D01*
X0134916D01*
X0133816Y0074873D02*
X0134916D01*
X0120937Y0080391D02*
X0121887D01*
X0121412Y0079916D02*
Y0080866D01*
X0121962Y0079191D02*
Y0081591D01*
X0120862Y0079191D02*
Y0081591D01*
X0121962D01*
X0120862Y0079191D02*
X0121962D01*
X0058580Y0065532D02*
X0059530D01*
X0059055Y0065057D02*
Y0066007D01*
X0058505Y0064332D02*
Y0066732D01*
X0059605Y0064332D02*
Y0066732D01*
X0058505D02*
X0059605D01*
X0058505Y0064332D02*
X0059605D01*
X0062390Y0065532D02*
X0063340D01*
X0062865Y0065057D02*
Y0066007D01*
X0062315Y0064332D02*
Y0066732D01*
X0063415Y0064332D02*
Y0066732D01*
X0062315D02*
X0063415D01*
X0062315Y0064332D02*
X0063415D01*
X0054770Y0080899D02*
X0055720D01*
X0055245Y0080424D02*
Y0081374D01*
X0054695Y0079699D02*
Y0082099D01*
X0055795Y0079699D02*
Y0082099D01*
X0054695Y0079699D02*
X0055795D01*
X0054695Y0082099D02*
X0055795D01*
X0053500Y0080899D02*
X0054450D01*
X0053975Y0080424D02*
Y0081374D01*
X0053425Y0079699D02*
Y0082099D01*
X0054525Y0079699D02*
Y0082099D01*
X0053425Y0079699D02*
X0054525D01*
X0053425Y0082099D02*
X0054525D01*
X0058580Y0080899D02*
X0059530D01*
X0059055Y0080424D02*
Y0081374D01*
X0059605Y0079699D02*
Y0082099D01*
X0058505Y0079699D02*
Y0082099D01*
X0059605D01*
X0058505Y0079699D02*
X0059605D01*
X0057310Y0080899D02*
X0058260D01*
X0057785Y0080424D02*
Y0081374D01*
X0058335Y0079699D02*
Y0082099D01*
X0057235Y0079699D02*
Y0082099D01*
X0058335D01*
X0057235Y0079699D02*
X0058335D01*
X0061120Y0080899D02*
X0062070D01*
X0061595Y0080424D02*
Y0081374D01*
X0062145Y0079699D02*
Y0082099D01*
X0061045Y0079699D02*
Y0082099D01*
X0062145D01*
X0061045Y0079699D02*
X0062145D01*
X0062390Y0080899D02*
X0063340D01*
X0062865Y0080424D02*
Y0081374D01*
X0063415Y0079699D02*
Y0082099D01*
X0062315Y0079699D02*
Y0082099D01*
X0063415D01*
X0062315Y0079699D02*
X0063415D01*
X0063660Y0080899D02*
X0064610D01*
X0064135Y0080424D02*
Y0081374D01*
X0064685Y0079699D02*
Y0082099D01*
X0063585Y0079699D02*
Y0082099D01*
X0064685D01*
X0063585Y0079699D02*
X0064685D01*
X0064930Y0080899D02*
X0065880D01*
X0065405Y0080424D02*
Y0081374D01*
X0065955Y0079699D02*
Y0082099D01*
X0064855Y0079699D02*
Y0082099D01*
X0065955D01*
X0064855Y0079699D02*
X0065955D01*
X0053500Y0086614D02*
X0054450D01*
X0053975Y0086139D02*
Y0087089D01*
X0053425Y0085414D02*
Y0087814D01*
X0054525Y0085414D02*
Y0087814D01*
X0053425Y0085414D02*
X0054525D01*
X0053425Y0087814D02*
X0054525D01*
X0057788Y0089039D02*
Y0090539D01*
X0054988Y0089039D02*
Y0090539D01*
X0057788D01*
X0054988Y0089039D02*
X0057788D01*
X0055888Y0089789D02*
X0056888D01*
X0056388Y0089289D02*
Y0090289D01*
X0065565Y0084963D02*
X0066515D01*
X0066040Y0084488D02*
Y0085438D01*
X0066590Y0083763D02*
Y0086163D01*
X0065490Y0083763D02*
Y0086163D01*
Y0083763D02*
X0066590D01*
X0065490Y0086163D02*
X0066590D01*
X0068834Y0085885D02*
Y0086835D01*
X0068359Y0086360D02*
X0069309D01*
X0067634Y0086910D02*
X0070034D01*
X0067634Y0085810D02*
X0070034D01*
X0067634D02*
Y0086910D01*
X0070034Y0085810D02*
Y0086910D01*
X0068834Y0084488D02*
Y0085438D01*
X0068359Y0084963D02*
X0069309D01*
X0067634Y0085513D02*
X0070034D01*
X0067634Y0084413D02*
X0070034D01*
X0067634D02*
Y0085513D01*
X0070034Y0084413D02*
Y0085513D01*
X0066200Y0080899D02*
X0067150D01*
X0066675Y0080424D02*
Y0081374D01*
X0066125Y0079699D02*
Y0082099D01*
X0067225Y0079699D02*
Y0082099D01*
X0066125Y0079699D02*
X0067225D01*
X0066125Y0082099D02*
X0067225D01*
X0068834Y0083091D02*
Y0084041D01*
X0068359Y0083566D02*
X0069309D01*
X0067634Y0083016D02*
X0070034D01*
X0067634Y0084116D02*
X0070034D01*
Y0083016D02*
Y0084116D01*
X0067634Y0083016D02*
Y0084116D01*
X0071280Y0089027D02*
X0072230D01*
X0071755Y0088552D02*
Y0089502D01*
X0072305Y0087827D02*
Y0090227D01*
X0071205Y0087827D02*
Y0090227D01*
X0072305D01*
X0071205Y0087827D02*
X0072305D01*
X0064770Y0098204D02*
Y0099154D01*
X0064295Y0098679D02*
X0065245D01*
X0063570Y0099229D02*
X0065970D01*
X0063570Y0098129D02*
X0065970D01*
X0063570D02*
Y0099229D01*
X0065970Y0098129D02*
Y0099229D01*
X0055532Y0080899D02*
X0056482D01*
X0056007Y0080424D02*
Y0081374D01*
X0055457Y0079699D02*
Y0082099D01*
X0056557Y0079699D02*
Y0082099D01*
X0055457D02*
X0056557D01*
X0055457Y0079699D02*
X0056557D01*
X0063787Y0080899D02*
X0064737D01*
X0064262Y0080424D02*
Y0081374D01*
X0063712Y0079699D02*
Y0082099D01*
X0064812Y0079699D02*
Y0082099D01*
X0063712D02*
X0064812D01*
X0063712Y0079699D02*
X0064812D01*
X0056675Y0101727D02*
X0057625D01*
X0057150Y0101252D02*
Y0102202D01*
X0057700Y0100527D02*
Y0102927D01*
X0056600Y0100527D02*
Y0102927D01*
X0057700D01*
X0056600Y0100527D02*
X0057700D01*
X0104394Y0088806D02*
Y0089756D01*
X0103919Y0089281D02*
X0104869D01*
X0103194Y0089831D02*
X0105594D01*
X0103194Y0088731D02*
X0105594D01*
Y0089831D01*
X0103194Y0088731D02*
Y0089831D01*
X0091440Y0099982D02*
Y0100932D01*
X0090965Y0100457D02*
X0091915D01*
X0090240Y0099907D02*
X0092640D01*
X0090240Y0101007D02*
X0092640D01*
Y0099907D02*
Y0101007D01*
X0090240Y0099907D02*
Y0101007D01*
X0106045Y0089289D02*
Y0090289D01*
X0105545Y0089789D02*
X0106545D01*
X0097345Y0081089D02*
X0114745D01*
X0097345Y0098489D02*
X0114745D01*
Y0081089D02*
Y0098489D01*
X0097345Y0081089D02*
Y0098489D01*
M02*
