%FSAX43Y43*%
%MOMM*%
G71*
G01*
G75*
G04 Layer_Color=16711935*
%ADD10R,2.200X2.200*%
%ADD11R,2.032X0.635*%
%ADD12R,1.524X0.508*%
%ADD13R,2.600X8.000*%
%ADD14R,0.800X0.900*%
%ADD15R,1.500X1.700*%
%ADD16R,0.508X1.500*%
%ADD17R,0.900X0.800*%
%ADD18R,0.300X1.200*%
%ADD19R,1.200X0.300*%
%ADD20R,2.540X1.016*%
%ADD21R,1.016X2.540*%
%ADD22R,1.200X1.400*%
%ADD23O,0.600X2.200*%
%ADD24O,0.300X1.800*%
%ADD25O,1.800X0.300*%
%ADD26C,0.508*%
%ADD27C,0.381*%
%ADD28C,0.254*%
%ADD29C,0.635*%
%ADD30C,0.762*%
%ADD31R,1.263X3.045*%
%ADD32R,2.794X2.667*%
%ADD33R,1.725X1.695*%
%ADD34R,2.874X2.980*%
%ADD35R,2.921X2.667*%
%ADD36R,1.270X3.048*%
%ADD37R,3.048X1.270*%
%ADD38R,2.794X3.302*%
%ADD39R,4.826X3.048*%
%ADD40R,3.048X4.826*%
%ADD41R,5.588X5.715*%
%ADD42R,1.143X1.016*%
%ADD43R,1.397X1.270*%
%ADD44R,5.334X5.461*%
%ADD45R,5.207X6.223*%
%ADD46R,1.397X4.445*%
%ADD47R,4.699X5.461*%
%ADD48R,0.353X0.241*%
%ADD49R,3.048X5.080*%
%ADD50R,0.586X1.571*%
%ADD51R,3.937X3.048*%
%ADD52R,4.699X2.413*%
%ADD53R,5.080X4.699*%
%ADD54R,2.032X2.349*%
%ADD55R,2.223X2.547*%
%ADD56R,2.449X2.272*%
%ADD57R,2.921X2.794*%
%ADD58R,5.969X6.350*%
%ADD59R,8.854X9.012*%
%ADD60R,4.572X4.572*%
%ADD61R,2.377X0.544*%
%ADD62R,1.905X0.508*%
%ADD63R,2.711X2.918*%
%ADD64R,1.397X1.524*%
%ADD65R,1.270X1.270*%
%ADD66R,1.778X1.524*%
%ADD67R,1.905X1.778*%
%ADD68R,2.032X2.009*%
%ADD69R,1.651X1.524*%
%ADD70R,3.937X3.937*%
%ADD71R,3.429X3.048*%
%ADD72R,2.794X2.794*%
%ADD73R,3.810X25.781*%
%ADD74R,9.779X2.159*%
%ADD75C,4.760*%
%ADD76R,1.690X1.690*%
%ADD77C,1.690*%
%ADD78C,0.762*%
%ADD79C,0.508*%
%ADD80C,1.524*%
%ADD81C,1.016*%
%ADD82R,2.000X2.000*%
%ADD83C,2.000*%
%ADD84R,1.500X1.500*%
%ADD85C,1.500*%
%ADD86C,1.778*%
%ADD87C,4.000*%
%ADD88C,1.270*%
%ADD89C,2.032*%
%ADD90C,1.600*%
%ADD91R,1.524X1.524*%
%ADD92C,3.556*%
%ADD93C,3.810*%
%ADD94R,1.500X1.500*%
%ADD95C,3.000*%
%ADD96R,2.794X2.540*%
%ADD97R,1.000X1.300*%
%ADD98R,1.000X1.800*%
%ADD99R,1.397X1.397*%
%ADD100R,3.048X2.667*%
%ADD101R,2.667X2.794*%
%ADD102R,0.164X0.331*%
%ADD103R,0.210X0.140*%
%ADD104R,0.210X0.331*%
%ADD105R,0.374X0.725*%
%ADD106R,1.016X1.524*%
%ADD107R,1.270X1.397*%
%ADD108R,4.953X5.080*%
%ADD109R,5.461X5.715*%
%ADD110R,2.159X0.889*%
%ADD111R,3.040X2.506*%
%ADD112R,2.921X3.175*%
%ADD113R,4.826X4.699*%
%ADD114R,5.080X5.080*%
%ADD115R,2.413X2.223*%
%ADD116R,2.603X2.675*%
%ADD117R,2.540X3.048*%
%ADD118R,6.350X6.223*%
%ADD119R,2.667X2.667*%
%ADD120R,5.715X6.350*%
%ADD121R,5.207X3.429*%
%ADD122R,13.843X6.858*%
%ADD123R,4.953X4.953*%
%ADD124R,1.397X1.651*%
%ADD125R,1.905X1.651*%
%ADD126R,3.937X3.683*%
%ADD127R,9.525X2.159*%
%ADD128C,0.200*%
%ADD129C,0.250*%
%ADD130C,0.127*%
%ADD131C,0.600*%
%ADD132C,0.150*%
%ADD133R,2.235X0.838*%
%ADD134R,1.727X0.711*%
%ADD135R,2.803X8.203*%
%ADD136R,1.003X1.103*%
%ADD137R,1.703X1.903*%
%ADD138R,0.711X1.703*%
%ADD139R,1.103X1.003*%
%ADD140R,0.503X1.403*%
%ADD141R,1.403X0.503*%
%ADD142R,2.743X1.219*%
%ADD143R,1.219X2.743*%
%ADD144R,1.403X1.603*%
%ADD145O,0.803X2.403*%
%ADD146O,0.503X2.003*%
%ADD147O,2.003X0.503*%
%ADD148C,4.963*%
%ADD149R,1.893X1.893*%
%ADD150C,1.893*%
%ADD151C,0.965*%
%ADD152C,0.711*%
%ADD153C,1.727*%
%ADD154C,1.219*%
%ADD155R,2.203X2.203*%
%ADD156C,2.203*%
%ADD157R,1.703X1.703*%
%ADD158C,1.703*%
%ADD159C,1.981*%
%ADD160C,4.203*%
%ADD161C,1.473*%
%ADD162C,2.235*%
%ADD163C,0.203*%
%ADD164C,1.803*%
%ADD165R,1.727X1.727*%
%ADD166C,3.759*%
%ADD167C,4.013*%
%ADD168R,1.703X1.703*%
%ADD169C,3.203*%
%ADD170R,2.997X2.743*%
%ADD171R,1.203X1.503*%
%ADD172R,1.203X2.003*%
%ADD173C,0.100*%
D28*
X0159512Y0082042D02*
Y0086995D01*
X0155448Y0082042D02*
Y0086995D01*
Y0082042D02*
X0159512D01*
X0155448Y0086995D02*
X0159512D01*
D173*
X0124416Y0076116D02*
G03*
X0124416Y0076116I-0000500J0000000D01*
G01*
X0100445Y0095889D02*
G03*
X0100445Y0095889I-0000500J0000000D01*
G01*
X0165114Y0090584D02*
X0166864D01*
X0165114Y0091534D02*
X0166864D01*
Y0090584D02*
Y0091534D01*
X0165114Y0090584D02*
Y0091534D01*
X0152748Y0090184D02*
Y0091934D01*
X0151798Y0090184D02*
Y0091934D01*
X0152748D01*
X0151798Y0090184D02*
X0152748D01*
X0165260Y0082564D02*
Y0084314D01*
X0166210Y0082564D02*
Y0084314D01*
X0165260Y0082564D02*
X0166210D01*
X0165260Y0084314D02*
X0166210D01*
X0087390Y0076294D02*
X0089140D01*
X0087390Y0075344D02*
X0089140D01*
Y0076294D01*
X0087390Y0075344D02*
Y0076294D01*
Y0074770D02*
X0089140D01*
X0087390Y0073820D02*
X0089140D01*
Y0074770D01*
X0087390Y0073820D02*
Y0074770D01*
X0115776Y0079342D02*
X0117526D01*
X0115776Y0078392D02*
X0117526D01*
X0115776D02*
Y0079342D01*
X0117526Y0078392D02*
Y0079342D01*
X0089676Y0078580D02*
X0091426D01*
X0089676Y0077630D02*
X0091426D01*
Y0078580D01*
X0089676Y0077630D02*
Y0078580D01*
X0093232Y0077630D02*
X0094982D01*
X0093232Y0078580D02*
X0094982D01*
X0093232Y0077630D02*
Y0078580D01*
X0094982Y0077630D02*
Y0078580D01*
X0099709Y0104681D02*
X0101459D01*
X0099709Y0105631D02*
X0101459D01*
Y0104681D02*
Y0105631D01*
X0099709Y0104681D02*
Y0105631D01*
X0115776Y0076995D02*
X0117526D01*
X0115776Y0077945D02*
X0117526D01*
Y0076995D02*
Y0077945D01*
X0115776Y0076995D02*
Y0077945D01*
X0099709Y0106078D02*
X0101459D01*
X0099709Y0107028D02*
X0101459D01*
Y0106078D02*
Y0107028D01*
X0099709Y0106078D02*
Y0107028D01*
X0072230Y0063514D02*
Y0065264D01*
X0071280Y0063514D02*
Y0065264D01*
Y0063514D02*
X0072230D01*
X0071280Y0065264D02*
X0072230D01*
X0095090Y0063514D02*
Y0065264D01*
X0094140Y0063514D02*
Y0065264D01*
Y0063514D02*
X0095090D01*
X0094140Y0065264D02*
X0095090D01*
X0097630Y0063514D02*
Y0065264D01*
X0096680Y0063514D02*
Y0065264D01*
Y0063514D02*
X0097630D01*
X0096680Y0065264D02*
X0097630D01*
X0089441Y0095899D02*
Y0097649D01*
X0090391Y0095899D02*
Y0097649D01*
X0089441Y0095899D02*
X0090391D01*
X0089441Y0097649D02*
X0090391D01*
X0106313Y0072103D02*
X0108063D01*
X0106313Y0071153D02*
X0108063D01*
X0106313D02*
Y0072103D01*
X0108063Y0071153D02*
Y0072103D01*
X0098900Y0101995D02*
Y0103745D01*
X0097950Y0101995D02*
Y0103745D01*
X0098900D01*
X0097950Y0101995D02*
X0098900D01*
X0090565Y0101379D02*
X0092315D01*
X0090565Y0102329D02*
X0092315D01*
Y0101379D02*
Y0102329D01*
X0090565Y0101379D02*
Y0102329D01*
Y0104554D02*
X0092315D01*
X0090565Y0105504D02*
X0092315D01*
Y0104554D02*
Y0105504D01*
X0090565Y0104554D02*
Y0105504D01*
Y0106078D02*
X0092315D01*
X0090565Y0107028D02*
X0092315D01*
Y0106078D02*
Y0107028D01*
X0090565Y0106078D02*
Y0107028D01*
X0092677Y0095899D02*
Y0097649D01*
X0091727Y0095899D02*
Y0097649D01*
X0092677D01*
X0091727Y0095899D02*
X0092677D01*
X0143924Y0090565D02*
Y0092315D01*
X0144874Y0090565D02*
Y0092315D01*
X0143924Y0090565D02*
X0144874D01*
X0143924Y0092315D02*
X0144874D01*
X0143924Y0087771D02*
Y0089521D01*
X0144874Y0087771D02*
Y0089521D01*
X0143924Y0087771D02*
X0144874D01*
X0143924Y0089521D02*
X0144874D01*
X0085485Y0077884D02*
X0087235D01*
X0085485Y0078834D02*
X0087235D01*
X0085485Y0077884D02*
Y0078834D01*
X0087235Y0077884D02*
Y0078834D01*
X0081294Y0078834D02*
X0083044D01*
X0081294Y0077884D02*
X0083044D01*
Y0078834D01*
X0081294Y0077884D02*
Y0078834D01*
X0156685Y0063514D02*
Y0065264D01*
X0155735Y0063514D02*
Y0065264D01*
Y0063514D02*
X0156685D01*
X0155735Y0065264D02*
X0156685D01*
X0145890Y0063514D02*
Y0065264D01*
X0144940Y0063514D02*
Y0065264D01*
Y0063514D02*
X0145890D01*
X0144940Y0065264D02*
X0145890D01*
X0148430Y0063514D02*
Y0065264D01*
X0147480Y0063514D02*
Y0065264D01*
Y0063514D02*
X0148430D01*
X0147480Y0065264D02*
X0148430D01*
X0059850Y0069864D02*
Y0071614D01*
X0060800Y0069864D02*
Y0071614D01*
X0059850D02*
X0060800D01*
X0059850Y0069864D02*
X0060800D01*
X0061247D02*
Y0071614D01*
X0062197Y0069864D02*
Y0071614D01*
X0061247D02*
X0062197D01*
X0061247Y0069864D02*
X0062197D01*
X0083580Y0073820D02*
X0085330D01*
X0083580Y0074770D02*
X0085330D01*
X0083580Y0073820D02*
Y0074770D01*
X0085330Y0073820D02*
Y0074770D01*
X0083580Y0075344D02*
X0085330D01*
X0083580Y0076294D02*
X0085330D01*
X0083580Y0075344D02*
Y0076294D01*
X0085330Y0075344D02*
Y0076294D01*
X0082437Y0074582D02*
X0084187D01*
X0082437Y0075532D02*
X0084187D01*
Y0074582D02*
Y0075532D01*
X0082437Y0074582D02*
Y0075532D01*
X0076141Y0079059D02*
X0078291D01*
X0076141Y0077659D02*
X0078291D01*
X0076141D02*
Y0079059D01*
X0078291Y0077659D02*
Y0079059D01*
X0123016Y0075216D02*
X0133016D01*
X0123016Y0079216D02*
X0133016D01*
X0123016Y0075216D02*
Y0079216D01*
X0133016Y0075216D02*
Y0079216D01*
X0123966Y0072484D02*
X0125716D01*
X0123966Y0071534D02*
X0125716D01*
X0123966D02*
Y0072484D01*
X0125716Y0071534D02*
Y0072484D01*
X0121887Y0076595D02*
Y0078345D01*
X0120937Y0076595D02*
Y0078345D01*
X0121887D01*
X0120937Y0076595D02*
X0121887D01*
X0127141Y0072484D02*
X0128891D01*
X0127141Y0071534D02*
X0128891D01*
X0127141D02*
Y0072484D01*
X0128891Y0071534D02*
Y0072484D01*
X0134841Y0075198D02*
Y0076948D01*
X0133891Y0075198D02*
Y0076948D01*
X0134841D01*
X0133891Y0075198D02*
X0134841D01*
X0121887Y0079516D02*
Y0081266D01*
X0120937Y0079516D02*
Y0081266D01*
X0121887D01*
X0120937Y0079516D02*
X0121887D01*
X0058580Y0064657D02*
Y0066407D01*
X0059530Y0064657D02*
Y0066407D01*
X0058580D02*
X0059530D01*
X0058580Y0064657D02*
X0059530D01*
X0062390D02*
Y0066407D01*
X0063340Y0064657D02*
Y0066407D01*
X0062390D02*
X0063340D01*
X0062390Y0064657D02*
X0063340D01*
X0054770Y0080024D02*
Y0081774D01*
X0055720Y0080024D02*
Y0081774D01*
X0054770Y0080024D02*
X0055720D01*
X0054770Y0081774D02*
X0055720D01*
X0053500Y0080024D02*
Y0081774D01*
X0054450Y0080024D02*
Y0081774D01*
X0053500Y0080024D02*
X0054450D01*
X0053500Y0081774D02*
X0054450D01*
X0059530Y0080024D02*
Y0081774D01*
X0058580Y0080024D02*
Y0081774D01*
X0059530D01*
X0058580Y0080024D02*
X0059530D01*
X0058260D02*
Y0081774D01*
X0057310Y0080024D02*
Y0081774D01*
X0058260D01*
X0057310Y0080024D02*
X0058260D01*
X0062070D02*
Y0081774D01*
X0061120Y0080024D02*
Y0081774D01*
X0062070D01*
X0061120Y0080024D02*
X0062070D01*
X0063340D02*
Y0081774D01*
X0062390Y0080024D02*
Y0081774D01*
X0063340D01*
X0062390Y0080024D02*
X0063340D01*
X0064610D02*
Y0081774D01*
X0063660Y0080024D02*
Y0081774D01*
X0064610D01*
X0063660Y0080024D02*
X0064610D01*
X0065880D02*
Y0081774D01*
X0064930Y0080024D02*
Y0081774D01*
X0065880D01*
X0064930Y0080024D02*
X0065880D01*
X0053500Y0085739D02*
Y0087489D01*
X0054450Y0085739D02*
Y0087489D01*
X0053500Y0085739D02*
X0054450D01*
X0053500Y0087489D02*
X0054450D01*
X0057463Y0089089D02*
Y0090489D01*
X0055313Y0089089D02*
Y0090489D01*
X0057463D01*
X0055313Y0089089D02*
X0057463D01*
X0066515Y0084088D02*
Y0085838D01*
X0065565Y0084088D02*
Y0085838D01*
Y0084088D02*
X0066515D01*
X0065565Y0085838D02*
X0066515D01*
X0067959Y0086835D02*
X0069709D01*
X0067959Y0085885D02*
X0069709D01*
X0067959D02*
Y0086835D01*
X0069709Y0085885D02*
Y0086835D01*
X0067959Y0085438D02*
X0069709D01*
X0067959Y0084488D02*
X0069709D01*
X0067959D02*
Y0085438D01*
X0069709Y0084488D02*
Y0085438D01*
X0066200Y0080024D02*
Y0081774D01*
X0067150Y0080024D02*
Y0081774D01*
X0066200Y0080024D02*
X0067150D01*
X0066200Y0081774D02*
X0067150D01*
X0067959Y0083091D02*
X0069709D01*
X0067959Y0084041D02*
X0069709D01*
Y0083091D02*
Y0084041D01*
X0067959Y0083091D02*
Y0084041D01*
X0072230Y0088152D02*
Y0089902D01*
X0071280Y0088152D02*
Y0089902D01*
X0072230D01*
X0071280Y0088152D02*
X0072230D01*
X0063895Y0099154D02*
X0065645D01*
X0063895Y0098204D02*
X0065645D01*
X0063895D02*
Y0099154D01*
X0065645Y0098204D02*
Y0099154D01*
X0055532Y0080024D02*
Y0081774D01*
X0056482Y0080024D02*
Y0081774D01*
X0055532D02*
X0056482D01*
X0055532Y0080024D02*
X0056482D01*
X0063787D02*
Y0081774D01*
X0064737Y0080024D02*
Y0081774D01*
X0063787D02*
X0064737D01*
X0063787Y0080024D02*
X0064737D01*
X0057625Y0100852D02*
Y0102602D01*
X0056675Y0100852D02*
Y0102602D01*
X0057625D01*
X0056675Y0100852D02*
X0057625D01*
X0103519Y0089756D02*
X0105269D01*
X0103519Y0088806D02*
X0105269D01*
Y0089756D01*
X0103519Y0088806D02*
Y0089756D01*
X0090565Y0099982D02*
X0092315D01*
X0090565Y0100932D02*
X0092315D01*
Y0099982D02*
Y0100932D01*
X0090565Y0099982D02*
Y0100932D01*
X0099045Y0082789D02*
X0113045D01*
X0099045Y0096789D02*
X0113045D01*
Y0082789D02*
Y0096789D01*
X0099045Y0082789D02*
Y0096789D01*
M02*
