%FSAX43Y43*%
%MOMM*%
G71*
G01*
G75*
G04 Layer_Physical_Order=2*
G04 Layer_Color=16711680*
%ADD10R,2.200X2.200*%
%ADD11R,2.032X0.635*%
%ADD12R,1.524X0.508*%
%ADD13R,2.600X8.000*%
%ADD14R,0.800X0.900*%
%ADD15R,1.500X1.700*%
%ADD16R,0.508X1.500*%
%ADD17R,0.900X0.800*%
%ADD18R,0.300X1.200*%
%ADD19R,1.200X0.300*%
%ADD20R,2.540X1.016*%
%ADD21R,1.016X2.540*%
%ADD22R,1.200X1.400*%
%ADD23O,0.600X2.200*%
%ADD24O,0.300X1.800*%
%ADD25O,1.800X0.300*%
%ADD26C,0.508*%
%ADD27C,0.381*%
%ADD28C,0.254*%
%ADD29C,0.635*%
%ADD30C,0.762*%
%ADD31R,1.263X3.045*%
%ADD32R,2.794X2.667*%
%ADD33R,1.725X1.695*%
%ADD34R,2.874X2.980*%
%ADD35R,2.921X2.667*%
%ADD36R,1.270X3.048*%
%ADD37R,3.048X1.270*%
%ADD38R,2.794X3.302*%
%ADD39R,4.826X3.048*%
%ADD40R,3.048X4.826*%
%ADD41R,5.588X5.715*%
%ADD42R,1.143X1.016*%
%ADD43R,1.397X1.270*%
%ADD44R,5.334X5.461*%
%ADD45R,5.207X6.223*%
%ADD46R,1.397X4.445*%
%ADD47R,4.699X5.461*%
%ADD48R,0.353X0.241*%
%ADD49R,3.048X5.080*%
%ADD50R,0.586X1.571*%
%ADD51R,3.937X3.048*%
%ADD52R,4.699X2.413*%
%ADD53R,5.080X4.699*%
%ADD54R,2.032X2.349*%
%ADD55R,2.223X2.547*%
%ADD56R,2.449X2.272*%
%ADD57R,2.921X2.794*%
%ADD58R,5.969X6.350*%
%ADD59R,8.854X9.012*%
%ADD60R,4.572X4.572*%
%ADD61R,2.377X0.544*%
%ADD62R,1.905X0.508*%
%ADD63R,2.711X2.918*%
%ADD64R,1.397X1.524*%
%ADD65R,1.270X1.270*%
%ADD66R,1.778X1.524*%
%ADD67R,1.905X1.778*%
%ADD68R,2.032X2.009*%
%ADD69R,1.651X1.524*%
%ADD70R,3.937X3.937*%
%ADD71R,3.429X3.048*%
%ADD72R,2.794X2.794*%
%ADD73R,3.810X25.781*%
%ADD74R,9.779X2.159*%
%ADD75C,4.760*%
%ADD76R,1.690X1.690*%
%ADD77C,1.690*%
%ADD78C,0.762*%
%ADD79C,0.508*%
%ADD80C,1.524*%
%ADD81C,1.016*%
%ADD82R,2.000X2.000*%
%ADD83C,2.000*%
%ADD84R,1.500X1.500*%
%ADD85C,1.500*%
%ADD86C,1.778*%
%ADD87C,4.000*%
%ADD88C,1.270*%
%ADD89C,2.032*%
%ADD90C,1.600*%
%ADD91R,1.524X1.524*%
%ADD92C,3.556*%
%ADD93C,3.810*%
%ADD94R,1.500X1.500*%
%ADD95C,3.000*%
%ADD96R,2.794X2.540*%
%ADD97R,1.000X1.300*%
%ADD98R,1.000X1.800*%
%ADD99R,1.397X1.397*%
%ADD100R,3.048X2.667*%
%ADD101R,2.667X2.794*%
%ADD102R,0.164X0.331*%
%ADD103R,0.210X0.140*%
%ADD104R,0.210X0.331*%
%ADD105R,0.374X0.725*%
%ADD106R,1.016X1.524*%
%ADD107R,1.270X1.397*%
%ADD108R,4.953X5.080*%
%ADD109R,5.461X5.715*%
%ADD110R,2.159X0.889*%
%ADD111R,3.040X2.506*%
%ADD112R,2.921X3.175*%
%ADD113R,4.826X4.699*%
%ADD114R,5.080X5.080*%
%ADD115R,2.413X2.223*%
%ADD116R,2.603X2.675*%
%ADD117R,2.540X3.048*%
%ADD118R,6.350X6.223*%
%ADD119R,2.667X2.667*%
%ADD120R,5.715X6.350*%
%ADD121R,5.207X3.429*%
%ADD122R,13.843X6.858*%
%ADD123R,4.953X4.953*%
%ADD124R,1.397X1.651*%
%ADD125R,1.905X1.651*%
%ADD126R,3.937X3.683*%
%ADD127R,9.525X2.159*%
G36*
X0177412Y0059443D02*
X0045473D01*
Y0111499D01*
X0177412D01*
Y0059443D01*
D02*
G37*
%LPC*%
G36*
X0165671Y0072210D02*
X0165248Y0072168D01*
X0164841Y0072045D01*
X0164466Y0071844D01*
X0164137Y0071575D01*
X0163868Y0071246D01*
X0163667Y0070871D01*
X0163544Y0070464D01*
X0163502Y0070040D01*
X0163544Y0069617D01*
X0163667Y0069210D01*
X0163868Y0068835D01*
X0164137Y0068506D01*
X0164466Y0068237D01*
X0164841Y0068036D01*
X0165248Y0067913D01*
X0165671Y0067871D01*
X0166095Y0067913D01*
X0166502Y0068036D01*
X0166877Y0068237D01*
X0167206Y0068506D01*
X0167475Y0068835D01*
X0167676Y0069210D01*
X0175514D01*
X0175613Y0069230D01*
X0175697Y0069286D01*
X0175753Y0069370D01*
X0175773Y0069469D01*
Y0071628D01*
X0175753Y0071727D01*
X0175697Y0071811D01*
X0175613Y0071867D01*
X0175514Y0071887D01*
X0166797D01*
X0166502Y0072045D01*
X0166095Y0072168D01*
X0165671Y0072210D01*
D02*
G37*
G36*
X0084328Y0069024D02*
X0083447D01*
X0083465Y0068886D01*
X0083568Y0068639D01*
X0083730Y0068427D01*
X0083943Y0068264D01*
X0084190Y0068162D01*
X0084328Y0068143D01*
Y0069024D01*
D02*
G37*
G36*
X0085463D02*
X0084582D01*
Y0068143D01*
X0084720Y0068162D01*
X0084967Y0068264D01*
X0085180Y0068427D01*
X0085342Y0068639D01*
X0085445Y0068886D01*
X0085463Y0069024D01*
D02*
G37*
G36*
X0170243Y0069022D02*
Y0066993D01*
X0172273D01*
X0172244Y0067289D01*
X0172121Y0067696D01*
X0171920Y0068071D01*
X0171651Y0068400D01*
X0171322Y0068669D01*
X0170947Y0068870D01*
X0170540Y0068993D01*
X0170243Y0069022D01*
D02*
G37*
G36*
X0121968Y0068146D02*
X0121808Y0068125D01*
X0121541Y0068014D01*
X0121311Y0067838D01*
X0121135Y0067608D01*
X0121024Y0067341D01*
X0121003Y0067181D01*
X0121968D01*
Y0068146D01*
D02*
G37*
G36*
X0122222D02*
Y0067181D01*
X0123187D01*
X0123166Y0067341D01*
X0123055Y0067608D01*
X0122879Y0067838D01*
X0122649Y0068014D01*
X0122382Y0068125D01*
X0122222Y0068146D01*
D02*
G37*
G36*
X0085471Y0072200D02*
X0083439D01*
Y0070168D01*
X0083927D01*
X0083952Y0070043D01*
X0083943Y0070039D01*
X0083730Y0069876D01*
X0083568Y0069664D01*
X0083465Y0069417D01*
X0083447Y0069279D01*
X0085463D01*
X0085445Y0069417D01*
X0085342Y0069664D01*
X0085180Y0069876D01*
X0084967Y0070039D01*
X0084958Y0070043D01*
X0084983Y0070168D01*
X0085471D01*
Y0072200D01*
D02*
G37*
G36*
X0060198Y0069912D02*
X0059621D01*
Y0069385D01*
X0060198D01*
Y0069912D01*
D02*
G37*
G36*
X0062426D02*
X0061849D01*
Y0069385D01*
X0062426D01*
Y0069912D01*
D02*
G37*
G36*
X0052705Y0071512D02*
X0052373Y0071468D01*
X0052065Y0071340D01*
X0051799Y0071137D01*
X0051596Y0070871D01*
X0051468Y0070563D01*
X0051424Y0070231D01*
X0051468Y0069899D01*
X0051596Y0069591D01*
X0051799Y0069325D01*
X0052065Y0069122D01*
X0052373Y0068994D01*
X0052705Y0068950D01*
X0053037Y0068994D01*
X0053345Y0069122D01*
X0053611Y0069325D01*
X0053814Y0069591D01*
X0053942Y0069899D01*
X0053986Y0070231D01*
X0053942Y0070563D01*
X0053814Y0070871D01*
X0053611Y0071137D01*
X0053345Y0071340D01*
X0053037Y0071468D01*
X0052705Y0071512D01*
D02*
G37*
G36*
X0069215D02*
X0068883Y0071468D01*
X0068575Y0071340D01*
X0068309Y0071137D01*
X0068106Y0070871D01*
X0067978Y0070563D01*
X0067934Y0070231D01*
X0067978Y0069899D01*
X0068106Y0069591D01*
X0068309Y0069325D01*
X0068575Y0069122D01*
X0068883Y0068994D01*
X0069215Y0068950D01*
X0069547Y0068994D01*
X0069855Y0069122D01*
X0070121Y0069325D01*
X0070324Y0069591D01*
X0070452Y0069899D01*
X0070496Y0070231D01*
X0070452Y0070563D01*
X0070324Y0070871D01*
X0070121Y0071137D01*
X0069855Y0071340D01*
X0069547Y0071468D01*
X0069215Y0071512D01*
D02*
G37*
G36*
X0119380Y0071129D02*
X0119115Y0071094D01*
X0118868Y0070991D01*
X0118655Y0070829D01*
X0118493Y0070616D01*
X0118390Y0070369D01*
X0118355Y0070104D01*
X0118390Y0069839D01*
X0118493Y0069592D01*
X0118655Y0069379D01*
X0118868Y0069217D01*
X0119115Y0069114D01*
X0119380Y0069079D01*
X0119645Y0069114D01*
X0119892Y0069217D01*
X0120105Y0069379D01*
X0120267Y0069592D01*
X0120370Y0069839D01*
X0120405Y0070104D01*
X0120370Y0070369D01*
X0120267Y0070616D01*
X0120105Y0070829D01*
X0119892Y0070991D01*
X0119645Y0071094D01*
X0119380Y0071129D01*
D02*
G37*
G36*
X0130405Y0068162D02*
X0130118Y0068125D01*
X0129851Y0068014D01*
X0129621Y0067838D01*
X0129445Y0067608D01*
X0129334Y0067341D01*
X0129297Y0067054D01*
X0129334Y0066767D01*
X0129445Y0066500D01*
X0129621Y0066270D01*
X0129851Y0066094D01*
X0130118Y0065983D01*
X0130405Y0065946D01*
X0130692Y0065983D01*
X0130959Y0066094D01*
X0131189Y0066270D01*
X0131365Y0066500D01*
X0131476Y0066767D01*
X0131513Y0067054D01*
X0131476Y0067341D01*
X0131365Y0067608D01*
X0131189Y0067838D01*
X0130959Y0068014D01*
X0130692Y0068125D01*
X0130405Y0068162D01*
D02*
G37*
G36*
X0134274Y0068153D02*
X0132076D01*
Y0065955D01*
X0134274D01*
Y0068153D01*
D02*
G37*
G36*
X0121968Y0066927D02*
X0121003D01*
X0121024Y0066767D01*
X0121135Y0066500D01*
X0121311Y0066270D01*
X0121541Y0066094D01*
X0121808Y0065983D01*
X0121968Y0065962D01*
Y0066927D01*
D02*
G37*
G36*
X0140257Y0068266D02*
Y0065761D01*
X0142762D01*
X0142740Y0066047D01*
X0142643Y0066450D01*
X0142484Y0066834D01*
X0142268Y0067187D01*
X0141998Y0067502D01*
X0141683Y0067772D01*
X0141330Y0067988D01*
X0140946Y0068147D01*
X0140543Y0068244D01*
X0140257Y0068266D01*
D02*
G37*
G36*
X0124865Y0068162D02*
X0124578Y0068125D01*
X0124311Y0068014D01*
X0124081Y0067838D01*
X0123905Y0067608D01*
X0123794Y0067341D01*
X0123757Y0067054D01*
X0123794Y0066767D01*
X0123905Y0066500D01*
X0124081Y0066270D01*
X0124311Y0066094D01*
X0124578Y0065983D01*
X0124865Y0065946D01*
X0125152Y0065983D01*
X0125419Y0066094D01*
X0125649Y0066270D01*
X0125825Y0066500D01*
X0125936Y0066767D01*
X0125973Y0067054D01*
X0125936Y0067341D01*
X0125825Y0067608D01*
X0125649Y0067838D01*
X0125419Y0068014D01*
X0125152Y0068125D01*
X0124865Y0068162D01*
D02*
G37*
G36*
X0127635D02*
X0127348Y0068125D01*
X0127081Y0068014D01*
X0126851Y0067838D01*
X0126675Y0067608D01*
X0126564Y0067341D01*
X0126527Y0067054D01*
X0126564Y0066767D01*
X0126675Y0066500D01*
X0126851Y0066270D01*
X0127081Y0066094D01*
X0127348Y0065983D01*
X0127635Y0065946D01*
X0127922Y0065983D01*
X0128189Y0066094D01*
X0128419Y0066270D01*
X0128595Y0066500D01*
X0128706Y0066767D01*
X0128743Y0067054D01*
X0128706Y0067341D01*
X0128595Y0067608D01*
X0128419Y0067838D01*
X0128189Y0068014D01*
X0127922Y0068125D01*
X0127635Y0068162D01*
D02*
G37*
G36*
X0089408Y0068514D02*
X0089137Y0068487D01*
X0088754Y0068371D01*
X0088401Y0068182D01*
X0088091Y0067928D01*
X0087837Y0067619D01*
X0087649Y0067266D01*
X0087532Y0066883D01*
X0087506Y0066612D01*
X0089408D01*
Y0068514D01*
D02*
G37*
G36*
X0089662D02*
Y0066612D01*
X0091564D01*
X0091538Y0066883D01*
X0091421Y0067266D01*
X0091233Y0067619D01*
X0090979Y0067928D01*
X0090669Y0068182D01*
X0090316Y0068371D01*
X0089933Y0068487D01*
X0089662Y0068514D01*
D02*
G37*
G36*
X0169990Y0069022D02*
X0169693Y0068993D01*
X0169286Y0068870D01*
X0168911Y0068669D01*
X0168582Y0068400D01*
X0168313Y0068071D01*
X0168112Y0067696D01*
X0167989Y0067289D01*
X0167960Y0066993D01*
X0169990D01*
Y0069022D01*
D02*
G37*
G36*
X0123187Y0066927D02*
X0122222D01*
Y0065962D01*
X0122382Y0065983D01*
X0122649Y0066094D01*
X0122879Y0066270D01*
X0123055Y0066500D01*
X0123166Y0066767D01*
X0123187Y0066927D01*
D02*
G37*
G36*
X0076708Y0068514D02*
X0076437Y0068487D01*
X0076054Y0068371D01*
X0075701Y0068182D01*
X0075391Y0067928D01*
X0075137Y0067619D01*
X0074949Y0067266D01*
X0074832Y0066883D01*
X0074806Y0066612D01*
X0076708D01*
Y0068514D01*
D02*
G37*
G36*
X0076962D02*
Y0066612D01*
X0078864D01*
X0078838Y0066883D01*
X0078721Y0067266D01*
X0078533Y0067619D01*
X0078279Y0067928D01*
X0077969Y0068182D01*
X0077616Y0068371D01*
X0077233Y0068487D01*
X0076962Y0068514D01*
D02*
G37*
G36*
X0154940Y0072771D02*
X0154059D01*
X0154077Y0072633D01*
X0154180Y0072386D01*
X0154342Y0072173D01*
X0154555Y0072011D01*
X0154802Y0071908D01*
X0154940Y0071890D01*
Y0072771D01*
D02*
G37*
G36*
X0143129Y0077343D02*
X0142248D01*
X0142266Y0077205D01*
X0142369Y0076958D01*
X0142531Y0076745D01*
X0142744Y0076583D01*
X0142991Y0076480D01*
X0143129Y0076462D01*
Y0077343D01*
D02*
G37*
G36*
X0144264D02*
X0143383D01*
Y0076462D01*
X0143521Y0076480D01*
X0143768Y0076583D01*
X0143981Y0076745D01*
X0144143Y0076958D01*
X0144246Y0077205D01*
X0144264Y0077343D01*
D02*
G37*
G36*
X0089724Y0077978D02*
X0089197D01*
Y0077401D01*
X0089724D01*
Y0077978D01*
D02*
G37*
G36*
X0062865Y0076970D02*
X0062633Y0076939D01*
X0062417Y0076850D01*
X0062231Y0076707D01*
X0062088Y0076521D01*
X0061999Y0076305D01*
X0061968Y0076073D01*
X0061999Y0075841D01*
X0062088Y0075625D01*
X0062231Y0075439D01*
X0062397Y0075312D01*
X0062356Y0075191D01*
X0060834D01*
X0060793Y0075312D01*
X0060959Y0075439D01*
X0061102Y0075625D01*
X0061191Y0075841D01*
X0061222Y0076073D01*
X0061191Y0076305D01*
X0061102Y0076521D01*
X0060959Y0076707D01*
X0060773Y0076850D01*
X0060557Y0076939D01*
X0060325Y0076970D01*
X0060093Y0076939D01*
X0059877Y0076850D01*
X0059691Y0076707D01*
X0059548Y0076521D01*
X0059459Y0076305D01*
X0059428Y0076073D01*
X0059459Y0075841D01*
X0059548Y0075625D01*
X0059691Y0075439D01*
X0059877Y0075296D01*
X0059937Y0075272D01*
Y0074042D01*
X0059816Y0074001D01*
X0059689Y0074167D01*
X0059503Y0074310D01*
X0059287Y0074399D01*
X0059055Y0074430D01*
X0058823Y0074399D01*
X0058607Y0074310D01*
X0058421Y0074167D01*
X0058278Y0073981D01*
X0058189Y0073765D01*
X0058158Y0073533D01*
X0058189Y0073301D01*
X0058278Y0073085D01*
X0058421Y0072899D01*
X0058607Y0072756D01*
X0058823Y0072667D01*
X0059055Y0072636D01*
X0059287Y0072667D01*
X0059503Y0072756D01*
X0059689Y0072899D01*
X0059816Y0073065D01*
X0059937Y0073024D01*
Y0072093D01*
X0059621D01*
Y0070785D01*
X0059621Y0070785D01*
X0059621Y0070693D01*
X0059621D01*
Y0070166D01*
X0060325D01*
Y0070039D01*
X0060452D01*
Y0069385D01*
X0061595D01*
Y0070039D01*
X0061722D01*
Y0070166D01*
X0062426D01*
Y0070693D01*
D01*
Y0070693D01*
X0062426Y0070693D01*
Y0070785D01*
X0062426D01*
Y0071051D01*
X0063311D01*
X0063460Y0071080D01*
X0063586Y0071164D01*
X0064410Y0071988D01*
X0064494Y0072114D01*
X0064523Y0072263D01*
X0064523Y0072263D01*
X0064523Y0072263D01*
Y0072263D01*
Y0072732D01*
X0064583Y0072756D01*
X0064769Y0072899D01*
X0064912Y0073085D01*
X0065001Y0073301D01*
X0065032Y0073533D01*
X0065001Y0073765D01*
X0064912Y0073981D01*
X0064769Y0074167D01*
X0064583Y0074310D01*
X0064367Y0074399D01*
X0064135Y0074430D01*
X0063903Y0074399D01*
X0063843Y0074374D01*
X0063140Y0075078D01*
X0063116Y0075093D01*
X0063128Y0075220D01*
X0063313Y0075296D01*
X0063499Y0075439D01*
X0063642Y0075625D01*
X0063731Y0075841D01*
X0063762Y0076073D01*
X0063731Y0076305D01*
X0063642Y0076521D01*
X0063499Y0076707D01*
X0063313Y0076850D01*
X0063097Y0076939D01*
X0062865Y0076970D01*
D02*
G37*
G36*
X0089619Y0076523D02*
X0089092D01*
Y0075946D01*
X0089619D01*
Y0076523D01*
D02*
G37*
G36*
X0146050Y0078495D02*
X0145785Y0078460D01*
X0145538Y0078357D01*
X0145325Y0078195D01*
X0145163Y0077982D01*
X0145060Y0077735D01*
X0145025Y0077470D01*
X0145060Y0077205D01*
X0145163Y0076958D01*
X0145325Y0076745D01*
X0145538Y0076583D01*
X0145785Y0076480D01*
X0146050Y0076445D01*
X0146315Y0076480D01*
X0146562Y0076583D01*
X0146775Y0076745D01*
X0146937Y0076958D01*
X0147040Y0077205D01*
X0147075Y0077470D01*
X0147040Y0077735D01*
X0146937Y0077982D01*
X0146775Y0078195D01*
X0146562Y0078357D01*
X0146315Y0078460D01*
X0146050Y0078495D01*
D02*
G37*
G36*
X0143129Y0078478D02*
X0142991Y0078460D01*
X0142744Y0078357D01*
X0142531Y0078195D01*
X0142369Y0077982D01*
X0142266Y0077735D01*
X0142248Y0077597D01*
X0143129D01*
Y0078478D01*
D02*
G37*
G36*
X0143383D02*
Y0077597D01*
X0144264D01*
X0144246Y0077735D01*
X0144143Y0077982D01*
X0143981Y0078195D01*
X0143768Y0078357D01*
X0143521Y0078460D01*
X0143383Y0078478D01*
D02*
G37*
G36*
X0081342Y0078232D02*
X0080815D01*
Y0077655D01*
X0081342D01*
Y0078232D01*
D02*
G37*
G36*
X0094107Y0083451D02*
X0093859Y0083402D01*
X0093649Y0083262D01*
X0093509Y0083052D01*
X0093460Y0082804D01*
X0093509Y0082556D01*
X0093649Y0082346D01*
X0093719Y0082300D01*
Y0082169D01*
X0092456D01*
Y0079121D01*
X0093019D01*
Y0078809D01*
X0092753D01*
Y0077401D01*
X0094061D01*
Y0077401D01*
X0094061D01*
X0094061Y0077401D01*
X0094153D01*
Y0077401D01*
X0094680D01*
Y0078105D01*
Y0078809D01*
X0094153D01*
D01*
D01*
X0094153Y0078809D01*
X0094061D01*
Y0078809D01*
X0093795D01*
Y0079121D01*
X0095758D01*
Y0082169D01*
X0094495D01*
Y0082300D01*
X0094565Y0082346D01*
X0094705Y0082556D01*
X0094754Y0082804D01*
X0094705Y0083052D01*
X0094565Y0083262D01*
X0094355Y0083402D01*
X0094107Y0083451D01*
D02*
G37*
G36*
X0095461Y0077978D02*
X0094934D01*
Y0077401D01*
X0095461D01*
Y0077978D01*
D02*
G37*
G36*
X0097790Y0077863D02*
X0097542Y0077814D01*
X0097332Y0077674D01*
X0097218Y0077504D01*
X0097091D01*
X0096978Y0077674D01*
X0096768Y0077814D01*
X0096520Y0077863D01*
X0096272Y0077814D01*
X0096062Y0077674D01*
X0095922Y0077464D01*
X0095873Y0077216D01*
X0095922Y0076968D01*
X0096062Y0076758D01*
X0096132Y0076712D01*
Y0068425D01*
X0094340Y0066634D01*
X0094256Y0066508D01*
X0094227Y0066359D01*
Y0065743D01*
X0093911D01*
Y0064435D01*
X0093911Y0064435D01*
X0093911Y0064343D01*
X0093911D01*
Y0064142D01*
X0092899D01*
X0092899Y0064142D01*
X0092726Y0064108D01*
X0092579Y0064009D01*
X0092579Y0064009D01*
X0091755Y0063185D01*
X0091656Y0063038D01*
X0091622Y0062865D01*
Y0062548D01*
X0091543Y0062516D01*
X0091323Y0062347D01*
X0091154Y0062127D01*
X0091048Y0061870D01*
X0091012Y0061595D01*
X0091048Y0061320D01*
X0091154Y0061063D01*
X0091323Y0060843D01*
X0091543Y0060674D01*
X0091800Y0060568D01*
X0092075Y0060532D01*
X0092350Y0060568D01*
X0092607Y0060674D01*
X0092827Y0060843D01*
X0092996Y0061063D01*
X0093102Y0061320D01*
X0093138Y0061595D01*
X0093102Y0061870D01*
X0092996Y0062127D01*
X0092827Y0062347D01*
X0092607Y0062516D01*
X0092528Y0062548D01*
Y0062677D01*
X0093087Y0063236D01*
X0093911D01*
Y0063035D01*
X0095319D01*
Y0064343D01*
D01*
Y0064343D01*
X0095319Y0064343D01*
Y0064435D01*
X0095319D01*
Y0065743D01*
X0095003D01*
Y0066198D01*
X0096649Y0067844D01*
X0096767Y0067795D01*
Y0065743D01*
X0096451D01*
Y0064435D01*
X0096451Y0064435D01*
X0096451Y0064343D01*
X0096451D01*
Y0063035D01*
X0096702D01*
Y0062548D01*
X0096623Y0062516D01*
X0096403Y0062347D01*
X0096234Y0062127D01*
X0096128Y0061870D01*
X0096092Y0061595D01*
X0096128Y0061320D01*
X0096234Y0061063D01*
X0096403Y0060843D01*
X0096623Y0060674D01*
X0096880Y0060568D01*
X0097155Y0060532D01*
X0097430Y0060568D01*
X0097687Y0060674D01*
X0097907Y0060843D01*
X0098076Y0061063D01*
X0098182Y0061320D01*
X0098218Y0061595D01*
X0098182Y0061870D01*
X0098076Y0062127D01*
X0097907Y0062347D01*
X0097687Y0062516D01*
X0097608Y0062548D01*
Y0063035D01*
X0097859D01*
Y0064343D01*
D01*
Y0064343D01*
X0097859Y0064343D01*
Y0064435D01*
X0097859D01*
Y0065743D01*
X0097543D01*
Y0076420D01*
X0097708Y0076585D01*
X0097790Y0076569D01*
X0098038Y0076618D01*
X0098248Y0076758D01*
X0098388Y0076968D01*
X0098437Y0077216D01*
X0098388Y0077464D01*
X0098248Y0077674D01*
X0098038Y0077814D01*
X0097790Y0077863D01*
D02*
G37*
G36*
X0066675Y0074430D02*
X0066443Y0074399D01*
X0066227Y0074310D01*
X0066041Y0074167D01*
X0065898Y0073981D01*
X0065809Y0073765D01*
X0065778Y0073533D01*
X0065809Y0073301D01*
X0065898Y0073085D01*
X0066041Y0072899D01*
X0066227Y0072756D01*
X0066443Y0072667D01*
X0066675Y0072636D01*
X0066907Y0072667D01*
X0067123Y0072756D01*
X0067309Y0072899D01*
X0067452Y0073085D01*
X0067541Y0073301D01*
X0067572Y0073533D01*
X0067541Y0073765D01*
X0067452Y0073981D01*
X0067309Y0074167D01*
X0067123Y0074310D01*
X0066907Y0074399D01*
X0066675Y0074430D01*
D02*
G37*
G36*
X0154940Y0073906D02*
X0154802Y0073888D01*
X0154555Y0073785D01*
X0154342Y0073623D01*
X0154180Y0073410D01*
X0154077Y0073163D01*
X0154059Y0073025D01*
X0154940D01*
Y0073906D01*
D02*
G37*
G36*
X0155194D02*
Y0073025D01*
X0156075D01*
X0156057Y0073163D01*
X0155954Y0073410D01*
X0155792Y0073623D01*
X0155579Y0073785D01*
X0155332Y0073888D01*
X0155194Y0073906D01*
D02*
G37*
G36*
X0156075Y0072771D02*
X0155194D01*
Y0071890D01*
X0155332Y0071908D01*
X0155579Y0072011D01*
X0155792Y0072173D01*
X0155954Y0072386D01*
X0156057Y0072633D01*
X0156075Y0072771D01*
D02*
G37*
G36*
X0175514Y0098430D02*
X0171704D01*
X0171605Y0098410D01*
X0171603Y0098409D01*
X0171466D01*
Y0098272D01*
X0171465Y0098270D01*
X0171445Y0098171D01*
Y0072390D01*
X0171465Y0072291D01*
X0171521Y0072207D01*
X0171605Y0072151D01*
X0171704Y0072131D01*
X0175514D01*
X0175613Y0072151D01*
X0175697Y0072207D01*
X0175753Y0072291D01*
X0175773Y0072390D01*
Y0098171D01*
X0175753Y0098270D01*
X0175697Y0098354D01*
X0175613Y0098410D01*
X0175514Y0098430D01*
D02*
G37*
G36*
X0056515Y0074430D02*
X0056283Y0074399D01*
X0056067Y0074310D01*
X0055881Y0074167D01*
X0055738Y0073981D01*
X0055649Y0073765D01*
X0055618Y0073533D01*
X0055649Y0073301D01*
X0055738Y0073085D01*
X0055881Y0072899D01*
X0056067Y0072756D01*
X0056283Y0072667D01*
X0056515Y0072636D01*
X0056747Y0072667D01*
X0056963Y0072756D01*
X0057149Y0072899D01*
X0057292Y0073085D01*
X0057381Y0073301D01*
X0057412Y0073533D01*
X0057381Y0073765D01*
X0057292Y0073981D01*
X0057149Y0074167D01*
X0056963Y0074310D01*
X0056747Y0074399D01*
X0056515Y0074430D01*
D02*
G37*
G36*
X0055245Y0076970D02*
X0055013Y0076939D01*
X0054797Y0076850D01*
X0054611Y0076707D01*
X0054468Y0076521D01*
X0054379Y0076305D01*
X0054348Y0076073D01*
X0054379Y0075841D01*
X0054468Y0075625D01*
X0054611Y0075439D01*
X0054797Y0075296D01*
X0055013Y0075207D01*
X0055245Y0075176D01*
X0055477Y0075207D01*
X0055693Y0075296D01*
X0055879Y0075439D01*
X0056022Y0075625D01*
X0056111Y0075841D01*
X0056142Y0076073D01*
X0056111Y0076305D01*
X0056022Y0076521D01*
X0055879Y0076707D01*
X0055693Y0076850D01*
X0055477Y0076939D01*
X0055245Y0076970D01*
D02*
G37*
G36*
X0057785D02*
X0057553Y0076939D01*
X0057337Y0076850D01*
X0057151Y0076707D01*
X0057008Y0076521D01*
X0056919Y0076305D01*
X0056888Y0076073D01*
X0056919Y0075841D01*
X0057008Y0075625D01*
X0057151Y0075439D01*
X0057337Y0075296D01*
X0057553Y0075207D01*
X0057785Y0075176D01*
X0058017Y0075207D01*
X0058233Y0075296D01*
X0058419Y0075439D01*
X0058562Y0075625D01*
X0058651Y0075841D01*
X0058682Y0076073D01*
X0058651Y0076305D01*
X0058562Y0076521D01*
X0058419Y0076707D01*
X0058233Y0076850D01*
X0058017Y0076939D01*
X0057785Y0076970D01*
D02*
G37*
G36*
X0065405D02*
X0065173Y0076939D01*
X0064957Y0076850D01*
X0064771Y0076707D01*
X0064628Y0076521D01*
X0064539Y0076305D01*
X0064508Y0076073D01*
X0064539Y0075841D01*
X0064628Y0075625D01*
X0064771Y0075439D01*
X0064957Y0075296D01*
X0065173Y0075207D01*
X0065405Y0075176D01*
X0065637Y0075207D01*
X0065853Y0075296D01*
X0066039Y0075439D01*
X0066182Y0075625D01*
X0066271Y0075841D01*
X0066302Y0076073D01*
X0066271Y0076305D01*
X0066182Y0076521D01*
X0066039Y0076707D01*
X0065853Y0076850D01*
X0065637Y0076939D01*
X0065405Y0076970D01*
D02*
G37*
G36*
X0089619Y0074168D02*
X0089092D01*
Y0073591D01*
X0089619D01*
Y0074168D01*
D02*
G37*
G36*
X0155067Y0076717D02*
X0154802Y0076682D01*
X0154555Y0076579D01*
X0154342Y0076417D01*
X0154180Y0076204D01*
X0154077Y0075957D01*
X0154042Y0075692D01*
X0154077Y0075427D01*
X0154180Y0075180D01*
X0154342Y0074967D01*
X0154555Y0074805D01*
X0154802Y0074702D01*
X0155067Y0074667D01*
X0155332Y0074702D01*
X0155579Y0074805D01*
X0155792Y0074967D01*
X0155954Y0075180D01*
X0156057Y0075427D01*
X0156092Y0075692D01*
X0156057Y0075957D01*
X0155954Y0076204D01*
X0155792Y0076417D01*
X0155579Y0076579D01*
X0155332Y0076682D01*
X0155067Y0076717D01*
D02*
G37*
G36*
X0084501Y0076523D02*
X0084430Y0076523D01*
X0084409D01*
Y0076523D01*
X0084409D01*
X0084409D01*
X0083101D01*
Y0076207D01*
X0082677D01*
X0082528Y0076178D01*
X0082402Y0076094D01*
X0080370Y0074062D01*
X0080286Y0073936D01*
X0080257Y0073787D01*
Y0070422D01*
X0080257Y0070422D01*
X0080257D01*
X0080286Y0070273D01*
X0080370Y0070147D01*
X0080976Y0069541D01*
X0080925Y0069417D01*
X0080890Y0069151D01*
X0080925Y0068886D01*
X0081028Y0068639D01*
X0081190Y0068427D01*
X0081403Y0068264D01*
X0081650Y0068162D01*
X0081915Y0068127D01*
X0082180Y0068162D01*
X0082427Y0068264D01*
X0082640Y0068427D01*
X0082802Y0068639D01*
X0082905Y0068886D01*
X0082940Y0069151D01*
X0082905Y0069417D01*
X0082802Y0069664D01*
X0082640Y0069876D01*
X0082427Y0070039D01*
X0082270Y0070104D01*
Y0070231D01*
X0082427Y0070296D01*
X0082640Y0070459D01*
X0082802Y0070671D01*
X0082905Y0070918D01*
X0082940Y0071184D01*
X0082905Y0071449D01*
X0082802Y0071696D01*
X0082640Y0071908D01*
X0082427Y0072071D01*
X0082303Y0072122D01*
Y0073118D01*
X0082984Y0073798D01*
X0083101Y0073750D01*
Y0073591D01*
X0084409D01*
Y0073591D01*
X0084409D01*
X0084409Y0073591D01*
X0084501D01*
Y0073591D01*
X0085809D01*
Y0073765D01*
X0085921Y0073825D01*
X0086112Y0073697D01*
X0086360Y0073648D01*
X0086608Y0073697D01*
X0086799Y0073825D01*
X0086911Y0073765D01*
Y0073591D01*
X0088219D01*
Y0073591D01*
X0088219D01*
X0088219Y0073591D01*
X0088311D01*
Y0073591D01*
X0088838D01*
Y0074295D01*
X0088965D01*
Y0074422D01*
X0089619D01*
Y0074999D01*
D01*
Y0074999D01*
X0089619Y0074999D01*
Y0075115D01*
X0089619D01*
Y0075692D01*
X0088965D01*
Y0075819D01*
X0088838D01*
Y0076523D01*
X0088311D01*
D01*
D01*
X0088311Y0076523D01*
X0088219D01*
Y0076523D01*
X0086911D01*
Y0076349D01*
X0086799Y0076289D01*
X0086608Y0076417D01*
X0086360Y0076466D01*
X0086112Y0076417D01*
X0085921Y0076289D01*
X0085809Y0076349D01*
Y0076523D01*
X0084501D01*
Y0076523D01*
D02*
G37*
G36*
X0140003Y0068266D02*
X0139717Y0068244D01*
X0139314Y0068147D01*
X0138930Y0067988D01*
X0138577Y0067772D01*
X0138262Y0067502D01*
X0137992Y0067187D01*
X0137776Y0066834D01*
X0137617Y0066450D01*
X0137520Y0066047D01*
X0137498Y0065761D01*
X0140003D01*
Y0068266D01*
D02*
G37*
G36*
X0054229Y0064144D02*
X0053964Y0064109D01*
X0053717Y0064006D01*
X0053504Y0063844D01*
X0053342Y0063631D01*
X0053239Y0063384D01*
X0053204Y0063119D01*
X0053239Y0062854D01*
X0053342Y0062607D01*
X0053504Y0062394D01*
X0053717Y0062232D01*
X0053964Y0062129D01*
X0054229Y0062094D01*
X0054494Y0062129D01*
X0054741Y0062232D01*
X0054954Y0062394D01*
X0055116Y0062607D01*
X0055219Y0062854D01*
X0055254Y0063119D01*
X0055219Y0063384D01*
X0055116Y0063631D01*
X0054954Y0063844D01*
X0054741Y0064006D01*
X0054494Y0064109D01*
X0054229Y0064144D01*
D02*
G37*
G36*
X0065151D02*
X0064886Y0064109D01*
X0064639Y0064006D01*
X0064426Y0063844D01*
X0064264Y0063631D01*
X0064161Y0063384D01*
X0064126Y0063119D01*
X0064161Y0062854D01*
X0064264Y0062607D01*
X0064426Y0062394D01*
X0064639Y0062232D01*
X0064886Y0062129D01*
X0065151Y0062094D01*
X0065416Y0062129D01*
X0065663Y0062232D01*
X0065876Y0062394D01*
X0066038Y0062607D01*
X0066141Y0062854D01*
X0066176Y0063119D01*
X0066141Y0063384D01*
X0066038Y0063631D01*
X0065876Y0063844D01*
X0065663Y0064006D01*
X0065416Y0064109D01*
X0065151Y0064144D01*
D02*
G37*
G36*
X0104076Y0063111D02*
X0103938Y0063093D01*
X0103691Y0062990D01*
X0103479Y0062828D01*
X0103316Y0062615D01*
X0103214Y0062368D01*
X0103195Y0062230D01*
X0104076D01*
Y0063111D01*
D02*
G37*
G36*
X0105212Y0061976D02*
X0104330D01*
Y0061095D01*
X0104469Y0061113D01*
X0104716Y0061216D01*
X0104928Y0061378D01*
X0105091Y0061591D01*
X0105193Y0061838D01*
X0105212Y0061976D01*
D02*
G37*
G36*
X0165544Y0063690D02*
X0163515D01*
X0163544Y0063394D01*
X0163667Y0062987D01*
X0163868Y0062612D01*
X0164137Y0062283D01*
X0164466Y0062014D01*
X0164841Y0061813D01*
X0165248Y0061690D01*
X0165544Y0061661D01*
Y0063690D01*
D02*
G37*
G36*
X0167828D02*
X0165798D01*
Y0061661D01*
X0166095Y0061690D01*
X0166502Y0061813D01*
X0166877Y0062014D01*
X0167206Y0062283D01*
X0167475Y0062612D01*
X0167676Y0062987D01*
X0167799Y0063394D01*
X0167828Y0063690D01*
D02*
G37*
G36*
X0173863Y0065117D02*
X0173548Y0065086D01*
X0173123Y0064957D01*
X0172732Y0064748D01*
X0172388Y0064467D01*
X0172107Y0064123D01*
X0171898Y0063732D01*
X0171769Y0063307D01*
X0171738Y0062992D01*
X0173863D01*
Y0065117D01*
D02*
G37*
G36*
X0174117D02*
Y0062992D01*
X0176242D01*
X0176211Y0063307D01*
X0176083Y0063732D01*
X0175873Y0064123D01*
X0175592Y0064467D01*
X0175248Y0064748D01*
X0174857Y0064957D01*
X0174432Y0065086D01*
X0174117Y0065117D01*
D02*
G37*
G36*
X0115013Y0065507D02*
X0112508D01*
X0112530Y0065221D01*
X0112627Y0064818D01*
X0112786Y0064434D01*
X0113002Y0064081D01*
X0113272Y0063766D01*
X0113587Y0063496D01*
X0113940Y0063280D01*
X0114324Y0063121D01*
X0114727Y0063024D01*
X0115013Y0063002D01*
Y0065507D01*
D02*
G37*
G36*
X0104330Y0063111D02*
Y0062230D01*
X0105212D01*
X0105193Y0062368D01*
X0105091Y0062615D01*
X0104928Y0062828D01*
X0104716Y0062990D01*
X0104469Y0063093D01*
X0104330Y0063111D01*
D02*
G37*
G36*
X0048768Y0065117D02*
X0048453Y0065086D01*
X0048028Y0064957D01*
X0047637Y0064748D01*
X0047293Y0064467D01*
X0047012Y0064123D01*
X0046803Y0063732D01*
X0046674Y0063307D01*
X0046643Y0062992D01*
X0048768D01*
Y0065117D01*
D02*
G37*
G36*
X0049022D02*
Y0062992D01*
X0051147D01*
X0051116Y0063307D01*
X0050987Y0063732D01*
X0050778Y0064123D01*
X0050497Y0064467D01*
X0050153Y0064748D01*
X0049762Y0064957D01*
X0049337Y0065086D01*
X0049022Y0065117D01*
D02*
G37*
G36*
X0147955Y0062658D02*
X0147680Y0062622D01*
X0147423Y0062516D01*
X0147203Y0062347D01*
X0147034Y0062127D01*
X0146928Y0061870D01*
X0146892Y0061595D01*
X0146928Y0061320D01*
X0147034Y0061063D01*
X0147203Y0060843D01*
X0147423Y0060674D01*
X0147680Y0060568D01*
X0147955Y0060532D01*
X0148230Y0060568D01*
X0148487Y0060674D01*
X0148707Y0060843D01*
X0148876Y0061063D01*
X0148982Y0061320D01*
X0149018Y0061595D01*
X0148982Y0061870D01*
X0148876Y0062127D01*
X0148707Y0062347D01*
X0148487Y0062516D01*
X0148230Y0062622D01*
X0147955Y0062658D01*
D02*
G37*
G36*
X0153035D02*
X0152760Y0062622D01*
X0152503Y0062516D01*
X0152283Y0062347D01*
X0152114Y0062127D01*
X0152008Y0061870D01*
X0151972Y0061595D01*
X0152008Y0061320D01*
X0152114Y0061063D01*
X0152283Y0060843D01*
X0152503Y0060674D01*
X0152760Y0060568D01*
X0153035Y0060532D01*
X0153310Y0060568D01*
X0153567Y0060674D01*
X0153787Y0060843D01*
X0153956Y0061063D01*
X0154062Y0061320D01*
X0154098Y0061595D01*
X0154062Y0061870D01*
X0153956Y0062127D01*
X0153787Y0062347D01*
X0153567Y0062516D01*
X0153310Y0062622D01*
X0153035Y0062658D01*
D02*
G37*
G36*
X0158750D02*
X0158475Y0062622D01*
X0158218Y0062516D01*
X0157998Y0062347D01*
X0157829Y0062127D01*
X0157723Y0061870D01*
X0157687Y0061595D01*
X0157723Y0061320D01*
X0157829Y0061063D01*
X0157998Y0060843D01*
X0158218Y0060674D01*
X0158475Y0060568D01*
X0158750Y0060532D01*
X0159025Y0060568D01*
X0159282Y0060674D01*
X0159502Y0060843D01*
X0159671Y0061063D01*
X0159777Y0061320D01*
X0159813Y0061595D01*
X0159777Y0061870D01*
X0159671Y0062127D01*
X0159502Y0062347D01*
X0159282Y0062516D01*
X0159025Y0062622D01*
X0158750Y0062658D01*
D02*
G37*
G36*
X0074295D02*
X0074020Y0062622D01*
X0073763Y0062516D01*
X0073543Y0062347D01*
X0073374Y0062127D01*
X0073268Y0061870D01*
X0073232Y0061595D01*
X0073268Y0061320D01*
X0073374Y0061063D01*
X0073543Y0060843D01*
X0073763Y0060674D01*
X0074020Y0060568D01*
X0074295Y0060532D01*
X0074570Y0060568D01*
X0074827Y0060674D01*
X0075047Y0060843D01*
X0075216Y0061063D01*
X0075322Y0061320D01*
X0075358Y0061595D01*
X0075322Y0061870D01*
X0075216Y0062127D01*
X0075047Y0062347D01*
X0074827Y0062516D01*
X0074570Y0062622D01*
X0074295Y0062658D01*
D02*
G37*
G36*
X0094615D02*
X0094340Y0062622D01*
X0094083Y0062516D01*
X0093863Y0062347D01*
X0093694Y0062127D01*
X0093588Y0061870D01*
X0093552Y0061595D01*
X0093588Y0061320D01*
X0093694Y0061063D01*
X0093863Y0060843D01*
X0094083Y0060674D01*
X0094340Y0060568D01*
X0094615Y0060532D01*
X0094890Y0060568D01*
X0095147Y0060674D01*
X0095367Y0060843D01*
X0095536Y0061063D01*
X0095642Y0061320D01*
X0095678Y0061595D01*
X0095642Y0061870D01*
X0095536Y0062127D01*
X0095367Y0062347D01*
X0095147Y0062516D01*
X0094890Y0062622D01*
X0094615Y0062658D01*
D02*
G37*
G36*
X0099695D02*
X0099420Y0062622D01*
X0099163Y0062516D01*
X0098943Y0062347D01*
X0098774Y0062127D01*
X0098668Y0061870D01*
X0098632Y0061595D01*
X0098668Y0061320D01*
X0098774Y0061063D01*
X0098943Y0060843D01*
X0099163Y0060674D01*
X0099420Y0060568D01*
X0099695Y0060532D01*
X0099970Y0060568D01*
X0100227Y0060674D01*
X0100447Y0060843D01*
X0100616Y0061063D01*
X0100722Y0061320D01*
X0100758Y0061595D01*
X0100722Y0061870D01*
X0100616Y0062127D01*
X0100447Y0062347D01*
X0100227Y0062516D01*
X0099970Y0062622D01*
X0099695Y0062658D01*
D02*
G37*
G36*
X0176242Y0062738D02*
X0174117D01*
Y0060613D01*
X0174432Y0060644D01*
X0174857Y0060772D01*
X0175248Y0060982D01*
X0175592Y0061263D01*
X0175873Y0061607D01*
X0176083Y0061998D01*
X0176211Y0062423D01*
X0176242Y0062738D01*
D02*
G37*
G36*
X0104728Y0072275D02*
X0104480Y0072226D01*
X0104270Y0072086D01*
X0104129Y0071876D01*
X0104080Y0071628D01*
X0104129Y0071380D01*
X0104270Y0071170D01*
X0104480Y0071030D01*
X0104728Y0070981D01*
X0104733Y0070982D01*
X0106227Y0069488D01*
X0106227Y0064199D01*
X0106227Y0064199D01*
X0106227D01*
X0106261Y0064025D01*
X0106360Y0063878D01*
X0107810Y0062427D01*
X0107786Y0062368D01*
X0107751Y0062103D01*
X0107786Y0061838D01*
X0107888Y0061591D01*
X0108051Y0061378D01*
X0108263Y0061216D01*
X0108510Y0061113D01*
X0108775Y0061078D01*
X0109041Y0061113D01*
X0109288Y0061216D01*
X0109500Y0061378D01*
X0109663Y0061591D01*
X0109765Y0061838D01*
X0109800Y0062103D01*
X0109765Y0062368D01*
X0109663Y0062615D01*
X0109500Y0062828D01*
X0109288Y0062990D01*
X0109041Y0063093D01*
X0108775Y0063128D01*
X0108510Y0063093D01*
X0108451Y0063068D01*
X0107133Y0064386D01*
X0107133Y0069676D01*
X0107099Y0069849D01*
X0107000Y0069996D01*
X0105374Y0071623D01*
X0105375Y0071628D01*
X0105326Y0071876D01*
X0105185Y0072086D01*
X0104975Y0072226D01*
X0104728Y0072275D01*
D02*
G37*
G36*
X0104076Y0061976D02*
X0103195D01*
X0103214Y0061838D01*
X0103316Y0061591D01*
X0103479Y0061378D01*
X0103691Y0061216D01*
X0103938Y0061113D01*
X0104076Y0061095D01*
Y0061976D01*
D02*
G37*
G36*
X0048768Y0062738D02*
X0046643D01*
X0046674Y0062423D01*
X0046803Y0061998D01*
X0047012Y0061607D01*
X0047293Y0061263D01*
X0047637Y0060982D01*
X0048028Y0060772D01*
X0048453Y0060644D01*
X0048768Y0060613D01*
Y0062738D01*
D02*
G37*
G36*
X0051147D02*
X0049022D01*
Y0060613D01*
X0049337Y0060644D01*
X0049762Y0060772D01*
X0050153Y0060982D01*
X0050497Y0061263D01*
X0050778Y0061607D01*
X0050987Y0061998D01*
X0051116Y0062423D01*
X0051147Y0062738D01*
D02*
G37*
G36*
X0173863D02*
X0171738D01*
X0171769Y0062423D01*
X0171898Y0061998D01*
X0172107Y0061607D01*
X0172388Y0061263D01*
X0172732Y0060982D01*
X0173123Y0060772D01*
X0173548Y0060644D01*
X0173863Y0060613D01*
Y0062738D01*
D02*
G37*
G36*
X0117772Y0065507D02*
X0115267D01*
Y0063002D01*
X0115553Y0063024D01*
X0115956Y0063121D01*
X0116340Y0063280D01*
X0116693Y0063496D01*
X0117008Y0063766D01*
X0117278Y0064081D01*
X0117494Y0064434D01*
X0117653Y0064818D01*
X0117750Y0065221D01*
X0117772Y0065507D01*
D02*
G37*
G36*
X0091564Y0066357D02*
X0089662D01*
Y0064455D01*
X0089933Y0064482D01*
X0090316Y0064598D01*
X0090669Y0064787D01*
X0090979Y0065041D01*
X0091233Y0065350D01*
X0091421Y0065703D01*
X0091538Y0066086D01*
X0091564Y0066357D01*
D02*
G37*
G36*
X0169990Y0066739D02*
X0167960D01*
X0167989Y0066442D01*
X0168112Y0066035D01*
X0168313Y0065660D01*
X0168582Y0065331D01*
X0168911Y0065062D01*
X0169286Y0064861D01*
X0169693Y0064738D01*
X0169990Y0064709D01*
Y0066739D01*
D02*
G37*
G36*
X0172273D02*
X0170243D01*
Y0064709D01*
X0170540Y0064738D01*
X0170947Y0064861D01*
X0171322Y0065062D01*
X0171651Y0065331D01*
X0171920Y0065660D01*
X0172121Y0066035D01*
X0172244Y0066442D01*
X0172273Y0066739D01*
D02*
G37*
G36*
X0076708Y0066357D02*
X0074806D01*
X0074832Y0066086D01*
X0074949Y0065703D01*
X0075137Y0065350D01*
X0075391Y0065041D01*
X0075701Y0064787D01*
X0076054Y0064598D01*
X0076437Y0064482D01*
X0076708Y0064455D01*
Y0066357D01*
D02*
G37*
G36*
X0078864D02*
X0076962D01*
Y0064455D01*
X0077233Y0064482D01*
X0077616Y0064598D01*
X0077969Y0064787D01*
X0078279Y0065041D01*
X0078533Y0065350D01*
X0078721Y0065703D01*
X0078838Y0066086D01*
X0078864Y0066357D01*
D02*
G37*
G36*
X0089408D02*
X0087506D01*
X0087532Y0066086D01*
X0087649Y0065703D01*
X0087837Y0065350D01*
X0088091Y0065041D01*
X0088401Y0064787D01*
X0088754Y0064598D01*
X0089137Y0064482D01*
X0089408Y0064455D01*
Y0066357D01*
D02*
G37*
G36*
X0066675Y0069097D02*
X0066302Y0069060D01*
X0065942Y0068952D01*
X0065612Y0068775D01*
X0065321Y0068537D01*
X0065083Y0068246D01*
X0064906Y0067916D01*
X0064798Y0067556D01*
X0064761Y0067183D01*
X0064798Y0066810D01*
X0064906Y0066450D01*
X0065083Y0066120D01*
X0065321Y0065829D01*
X0065612Y0065591D01*
X0065942Y0065414D01*
X0066302Y0065306D01*
X0066675Y0065269D01*
X0067048Y0065306D01*
X0067408Y0065414D01*
X0067738Y0065591D01*
X0068029Y0065829D01*
X0068267Y0066120D01*
X0068444Y0066450D01*
X0068552Y0066810D01*
X0068589Y0067183D01*
X0068552Y0067556D01*
X0068444Y0067916D01*
X0068267Y0068246D01*
X0068029Y0068537D01*
X0067738Y0068775D01*
X0067408Y0068952D01*
X0067048Y0069060D01*
X0066675Y0069097D01*
D02*
G37*
G36*
X0115013Y0068266D02*
X0114727Y0068244D01*
X0114324Y0068147D01*
X0113940Y0067988D01*
X0113587Y0067772D01*
X0113272Y0067502D01*
X0113002Y0067187D01*
X0112786Y0066834D01*
X0112627Y0066450D01*
X0112530Y0066047D01*
X0112508Y0065761D01*
X0115013D01*
Y0068266D01*
D02*
G37*
G36*
X0115267D02*
Y0065761D01*
X0117772D01*
X0117750Y0066047D01*
X0117653Y0066450D01*
X0117494Y0066834D01*
X0117278Y0067187D01*
X0117008Y0067502D01*
X0116693Y0067772D01*
X0116340Y0067988D01*
X0115956Y0068147D01*
X0115553Y0068244D01*
X0115267Y0068266D01*
D02*
G37*
G36*
X0156083Y0065743D02*
X0155506D01*
Y0065216D01*
X0156083D01*
Y0065743D01*
D02*
G37*
G36*
X0156914D02*
X0156337D01*
Y0065216D01*
X0156914D01*
Y0065743D01*
D02*
G37*
G36*
X0055245Y0069097D02*
X0054872Y0069060D01*
X0054512Y0068952D01*
X0054182Y0068775D01*
X0053891Y0068537D01*
X0053653Y0068246D01*
X0053476Y0067916D01*
X0053368Y0067556D01*
X0053331Y0067183D01*
X0053368Y0066810D01*
X0053476Y0066450D01*
X0053653Y0066120D01*
X0053891Y0065829D01*
X0054182Y0065591D01*
X0054512Y0065414D01*
X0054872Y0065306D01*
X0055245Y0065269D01*
X0055618Y0065306D01*
X0055978Y0065414D01*
X0056308Y0065591D01*
X0056599Y0065829D01*
X0056837Y0066120D01*
X0057014Y0066450D01*
X0057122Y0066810D01*
X0057159Y0067183D01*
X0057122Y0067556D01*
X0057014Y0067916D01*
X0056837Y0068246D01*
X0056599Y0068537D01*
X0056308Y0068775D01*
X0055978Y0068952D01*
X0055618Y0069060D01*
X0055245Y0069097D01*
D02*
G37*
G36*
X0126250Y0065322D02*
X0125963Y0065285D01*
X0125696Y0065174D01*
X0125466Y0064998D01*
X0125290Y0064768D01*
X0125179Y0064501D01*
X0125142Y0064214D01*
X0125179Y0063927D01*
X0125290Y0063660D01*
X0125466Y0063430D01*
X0125696Y0063254D01*
X0125963Y0063143D01*
X0126250Y0063106D01*
X0126537Y0063143D01*
X0126804Y0063254D01*
X0127034Y0063430D01*
X0127210Y0063660D01*
X0127321Y0063927D01*
X0127358Y0064214D01*
X0127321Y0064501D01*
X0127210Y0064768D01*
X0127034Y0064998D01*
X0126804Y0065174D01*
X0126537Y0065285D01*
X0126250Y0065322D01*
D02*
G37*
G36*
X0129020D02*
X0128733Y0065285D01*
X0128466Y0065174D01*
X0128236Y0064998D01*
X0128060Y0064768D01*
X0127949Y0064501D01*
X0127912Y0064214D01*
X0127949Y0063927D01*
X0128060Y0063660D01*
X0128236Y0063430D01*
X0128466Y0063254D01*
X0128733Y0063143D01*
X0129020Y0063106D01*
X0129307Y0063143D01*
X0129574Y0063254D01*
X0129804Y0063430D01*
X0129980Y0063660D01*
X0130091Y0063927D01*
X0130128Y0064214D01*
X0130091Y0064501D01*
X0129980Y0064768D01*
X0129804Y0064998D01*
X0129574Y0065174D01*
X0129307Y0065285D01*
X0129020Y0065322D01*
D02*
G37*
G36*
X0131790D02*
X0131503Y0065285D01*
X0131236Y0065174D01*
X0131006Y0064998D01*
X0130830Y0064768D01*
X0130719Y0064501D01*
X0130682Y0064214D01*
X0130719Y0063927D01*
X0130830Y0063660D01*
X0131006Y0063430D01*
X0131236Y0063254D01*
X0131503Y0063143D01*
X0131790Y0063106D01*
X0132077Y0063143D01*
X0132344Y0063254D01*
X0132574Y0063430D01*
X0132750Y0063660D01*
X0132861Y0063927D01*
X0132898Y0064214D01*
X0132861Y0064501D01*
X0132750Y0064768D01*
X0132574Y0064998D01*
X0132344Y0065174D01*
X0132077Y0065285D01*
X0131790Y0065322D01*
D02*
G37*
G36*
X0140003Y0065507D02*
X0137498D01*
X0137520Y0065221D01*
X0137617Y0064818D01*
X0137776Y0064434D01*
X0137992Y0064081D01*
X0138262Y0063766D01*
X0138577Y0063496D01*
X0138930Y0063280D01*
X0139314Y0063121D01*
X0139717Y0063024D01*
X0140003Y0063002D01*
Y0065507D01*
D02*
G37*
G36*
X0142762D02*
X0140257D01*
Y0063002D01*
X0140543Y0063024D01*
X0140946Y0063121D01*
X0141330Y0063280D01*
X0141683Y0063496D01*
X0141998Y0063766D01*
X0142268Y0064081D01*
X0142484Y0064434D01*
X0142643Y0064818D01*
X0142740Y0065221D01*
X0142762Y0065507D01*
D02*
G37*
G36*
X0123480Y0065322D02*
X0123193Y0065285D01*
X0122926Y0065174D01*
X0122696Y0064998D01*
X0122520Y0064768D01*
X0122409Y0064501D01*
X0122372Y0064214D01*
X0122409Y0063927D01*
X0122520Y0063660D01*
X0122696Y0063430D01*
X0122926Y0063254D01*
X0123193Y0063143D01*
X0123480Y0063106D01*
X0123767Y0063143D01*
X0124034Y0063254D01*
X0124264Y0063430D01*
X0124440Y0063660D01*
X0124551Y0063927D01*
X0124588Y0064214D01*
X0124551Y0064501D01*
X0124440Y0064768D01*
X0124264Y0064998D01*
X0124034Y0065174D01*
X0123767Y0065285D01*
X0123480Y0065322D01*
D02*
G37*
G36*
X0165798Y0065974D02*
Y0063944D01*
X0167828D01*
X0167799Y0064241D01*
X0167676Y0064648D01*
X0167475Y0065023D01*
X0167206Y0065352D01*
X0166877Y0065621D01*
X0166502Y0065822D01*
X0166095Y0065945D01*
X0165798Y0065974D01*
D02*
G37*
G36*
X0072459Y0065743D02*
X0071051D01*
Y0064435D01*
X0071051Y0064435D01*
X0071051Y0064343D01*
X0071051D01*
Y0063035D01*
X0071302D01*
Y0062548D01*
X0071223Y0062516D01*
X0071003Y0062347D01*
X0070834Y0062127D01*
X0070728Y0061870D01*
X0070692Y0061595D01*
X0070728Y0061320D01*
X0070834Y0061063D01*
X0071003Y0060843D01*
X0071223Y0060674D01*
X0071480Y0060568D01*
X0071755Y0060532D01*
X0072030Y0060568D01*
X0072287Y0060674D01*
X0072507Y0060843D01*
X0072676Y0061063D01*
X0072782Y0061320D01*
X0072818Y0061595D01*
X0072782Y0061870D01*
X0072676Y0062127D01*
X0072507Y0062347D01*
X0072287Y0062516D01*
X0072208Y0062548D01*
Y0063035D01*
X0072459D01*
Y0064343D01*
D01*
Y0064343D01*
X0072459Y0064343D01*
Y0064435D01*
X0072459D01*
Y0064701D01*
X0073493D01*
X0073583Y0064566D01*
X0073793Y0064426D01*
X0074041Y0064377D01*
X0074289Y0064426D01*
X0074499Y0064566D01*
X0074639Y0064776D01*
X0074688Y0065024D01*
X0074639Y0065272D01*
X0074499Y0065482D01*
X0074289Y0065622D01*
X0074041Y0065671D01*
X0073793Y0065622D01*
X0073583Y0065482D01*
X0073580Y0065477D01*
X0072459D01*
Y0065743D01*
D02*
G37*
G36*
X0156914Y0064962D02*
X0155506D01*
Y0064435D01*
X0155506Y0064435D01*
X0155506Y0064343D01*
X0155506D01*
Y0063035D01*
X0155757D01*
Y0062548D01*
X0155678Y0062516D01*
X0155458Y0062347D01*
X0155289Y0062127D01*
X0155183Y0061870D01*
X0155147Y0061595D01*
X0155183Y0061320D01*
X0155289Y0061063D01*
X0155458Y0060843D01*
X0155678Y0060674D01*
X0155935Y0060568D01*
X0156210Y0060532D01*
X0156485Y0060568D01*
X0156742Y0060674D01*
X0156962Y0060843D01*
X0157131Y0061063D01*
X0157237Y0061320D01*
X0157273Y0061595D01*
X0157237Y0061870D01*
X0157131Y0062127D01*
X0156962Y0062347D01*
X0156742Y0062516D01*
X0156663Y0062548D01*
Y0063035D01*
X0156914D01*
Y0064343D01*
D01*
Y0064343D01*
X0156914Y0064343D01*
Y0064435D01*
X0156914D01*
Y0064962D01*
D02*
G37*
G36*
X0102934Y0065796D02*
X0102635Y0065757D01*
X0102357Y0065641D01*
X0102118Y0065458D01*
X0101935Y0065219D01*
X0101820Y0064941D01*
X0101781Y0064643D01*
X0101820Y0064345D01*
X0101935Y0064067D01*
X0102118Y0063828D01*
X0102357Y0063645D01*
X0102635Y0063529D01*
X0102934Y0063490D01*
X0103232Y0063529D01*
X0103510Y0063645D01*
X0103749Y0063828D01*
X0103932Y0064067D01*
X0104047Y0064345D01*
X0104086Y0064643D01*
X0104047Y0064941D01*
X0103932Y0065219D01*
X0103749Y0065458D01*
X0103510Y0065641D01*
X0103232Y0065757D01*
X0102934Y0065796D01*
D02*
G37*
G36*
X0109919D02*
X0109620Y0065757D01*
X0109342Y0065641D01*
X0109103Y0065458D01*
X0108920Y0065219D01*
X0108805Y0064941D01*
X0108766Y0064643D01*
X0108805Y0064345D01*
X0108920Y0064067D01*
X0109103Y0063828D01*
X0109342Y0063645D01*
X0109620Y0063529D01*
X0109919Y0063490D01*
X0110217Y0063529D01*
X0110495Y0063645D01*
X0110734Y0063828D01*
X0110917Y0064067D01*
X0111032Y0064345D01*
X0111071Y0064643D01*
X0111032Y0064941D01*
X0110917Y0065219D01*
X0110734Y0065458D01*
X0110495Y0065641D01*
X0110217Y0065757D01*
X0109919Y0065796D01*
D02*
G37*
G36*
X0165544Y0065974D02*
X0165248Y0065945D01*
X0164841Y0065822D01*
X0164466Y0065621D01*
X0164137Y0065352D01*
X0163868Y0065023D01*
X0163667Y0064648D01*
X0163544Y0064241D01*
X0163515Y0063944D01*
X0165544D01*
Y0065974D01*
D02*
G37*
G36*
X0087714Y0078232D02*
X0087187D01*
Y0077655D01*
X0087714D01*
Y0078232D01*
D02*
G37*
G36*
X0100711Y0102997D02*
X0100216D01*
X0100240Y0102876D01*
X0100380Y0102666D01*
X0100590Y0102526D01*
X0100711Y0102502D01*
Y0102997D01*
D02*
G37*
G36*
X0101460D02*
X0100965D01*
Y0102502D01*
X0101086Y0102526D01*
X0101296Y0102666D01*
X0101436Y0102876D01*
X0101460Y0102997D01*
D02*
G37*
G36*
X0059563Y0103111D02*
X0059442Y0103087D01*
X0059232Y0102947D01*
X0059092Y0102737D01*
X0059068Y0102616D01*
X0059563D01*
Y0103111D01*
D02*
G37*
G36*
X0060312Y0102362D02*
X0059817D01*
Y0101867D01*
X0059938Y0101891D01*
X0060148Y0102031D01*
X0060288Y0102241D01*
X0060312Y0102362D01*
D02*
G37*
G36*
X0070866Y0102997D02*
X0069985D01*
X0070003Y0102859D01*
X0070106Y0102612D01*
X0070268Y0102399D01*
X0070481Y0102237D01*
X0070728Y0102134D01*
X0070866Y0102116D01*
Y0102997D01*
D02*
G37*
G36*
X0072001D02*
X0071120D01*
Y0102116D01*
X0071258Y0102134D01*
X0071505Y0102237D01*
X0071718Y0102399D01*
X0071880Y0102612D01*
X0071983Y0102859D01*
X0072001Y0102997D01*
D02*
G37*
G36*
X0100711Y0103746D02*
X0100590Y0103722D01*
X0100380Y0103582D01*
X0100240Y0103372D01*
X0100216Y0103251D01*
X0100711D01*
Y0103746D01*
D02*
G37*
G36*
X0100965D02*
Y0103251D01*
X0101460D01*
X0101436Y0103372D01*
X0101296Y0103582D01*
X0101086Y0103722D01*
X0100965Y0103746D01*
D02*
G37*
G36*
X0116942Y0105788D02*
X0116679Y0105753D01*
X0116435Y0105652D01*
X0116226Y0105491D01*
X0116065Y0105281D01*
X0115963Y0105037D01*
X0115929Y0104775D01*
X0115963Y0104513D01*
X0116065Y0104269D01*
X0116226Y0104059D01*
X0116435Y0103898D01*
X0116679Y0103797D01*
X0116942Y0103762D01*
X0117204Y0103797D01*
X0117448Y0103898D01*
X0117658Y0104059D01*
X0117819Y0104269D01*
X0117920Y0104513D01*
X0117954Y0104775D01*
X0117920Y0105037D01*
X0117819Y0105281D01*
X0117658Y0105491D01*
X0117448Y0105652D01*
X0117204Y0105753D01*
X0116942Y0105788D01*
D02*
G37*
G36*
X0059817Y0103111D02*
Y0102616D01*
X0060312D01*
X0060288Y0102737D01*
X0060148Y0102947D01*
X0059938Y0103087D01*
X0059817Y0103111D01*
D02*
G37*
G36*
X0070866Y0104132D02*
X0070728Y0104114D01*
X0070481Y0104011D01*
X0070268Y0103849D01*
X0070106Y0103636D01*
X0070003Y0103389D01*
X0069985Y0103251D01*
X0070866D01*
Y0104132D01*
D02*
G37*
G36*
X0071120D02*
Y0103251D01*
X0072001D01*
X0071983Y0103389D01*
X0071880Y0103636D01*
X0071718Y0103849D01*
X0071505Y0104011D01*
X0071258Y0104114D01*
X0071120Y0104132D01*
D02*
G37*
G36*
X0059563Y0102362D02*
X0059068D01*
X0059092Y0102241D01*
X0059232Y0102031D01*
X0059442Y0101891D01*
X0059563Y0101867D01*
Y0102362D01*
D02*
G37*
G36*
X0109855Y0095618D02*
X0109734Y0095594D01*
X0109524Y0095454D01*
X0109384Y0095244D01*
X0109360Y0095123D01*
X0109855D01*
Y0095618D01*
D02*
G37*
G36*
X0110109D02*
Y0095123D01*
X0110604D01*
X0110580Y0095244D01*
X0110440Y0095454D01*
X0110230Y0095594D01*
X0110109Y0095618D01*
D02*
G37*
G36*
X0065024Y0096253D02*
X0064903Y0096229D01*
X0064693Y0096089D01*
X0064553Y0095879D01*
X0064529Y0095758D01*
X0065024D01*
Y0096253D01*
D02*
G37*
G36*
X0110604Y0094869D02*
X0110109D01*
Y0094374D01*
X0110230Y0094398D01*
X0110440Y0094538D01*
X0110580Y0094748D01*
X0110604Y0094869D01*
D02*
G37*
G36*
X0065024Y0095504D02*
X0064529D01*
X0064553Y0095383D01*
X0064693Y0095173D01*
X0064903Y0095033D01*
X0065024Y0095009D01*
Y0095504D01*
D02*
G37*
G36*
X0065773D02*
X0065278D01*
Y0095009D01*
X0065399Y0095033D01*
X0065609Y0095173D01*
X0065749Y0095383D01*
X0065773Y0095504D01*
D02*
G37*
G36*
X0173968Y0100838D02*
X0172847D01*
Y0099717D01*
X0173047Y0099743D01*
X0173352Y0099870D01*
X0173614Y0100071D01*
X0173815Y0100333D01*
X0173942Y0100638D01*
X0173968Y0100838D01*
D02*
G37*
G36*
X0172593Y0102213D02*
X0172393Y0102187D01*
X0172088Y0102060D01*
X0171826Y0101859D01*
X0171625Y0101597D01*
X0171498Y0101292D01*
X0171472Y0101092D01*
X0172593D01*
Y0102213D01*
D02*
G37*
G36*
X0172847D02*
Y0101092D01*
X0173968D01*
X0173942Y0101292D01*
X0173815Y0101597D01*
X0173614Y0101859D01*
X0173352Y0102060D01*
X0173047Y0102187D01*
X0172847Y0102213D01*
D02*
G37*
G36*
X0065278Y0096253D02*
Y0095758D01*
X0065773D01*
X0065749Y0095879D01*
X0065609Y0096089D01*
X0065399Y0096229D01*
X0065278Y0096253D01*
D02*
G37*
G36*
X0093599Y0106560D02*
X0093400Y0106533D01*
X0093215Y0106457D01*
X0093056Y0106334D01*
X0092933Y0106175D01*
X0092857Y0105990D01*
X0092830Y0105791D01*
X0092857Y0105592D01*
X0092933Y0105407D01*
X0093056Y0105248D01*
X0093146Y0105178D01*
Y0100645D01*
X0092207Y0099706D01*
X0092202Y0099707D01*
X0091954Y0099658D01*
X0091744Y0099518D01*
X0091604Y0099308D01*
X0091555Y0099060D01*
X0091604Y0098812D01*
X0091698Y0098671D01*
X0091638Y0098559D01*
X0090077D01*
X0089785Y0098851D01*
X0089801Y0098933D01*
X0089752Y0099181D01*
X0089612Y0099391D01*
X0089402Y0099531D01*
X0089154Y0099580D01*
X0088906Y0099531D01*
X0088696Y0099391D01*
X0088556Y0099181D01*
X0088507Y0098933D01*
X0088556Y0098685D01*
X0088696Y0098475D01*
X0088906Y0098335D01*
X0089154Y0098286D01*
X0089236Y0098302D01*
X0089641Y0097896D01*
X0089767Y0097812D01*
X0089916Y0097783D01*
X0093476D01*
X0093522Y0097713D01*
X0093732Y0097573D01*
X0093980Y0097524D01*
X0094228Y0097573D01*
X0094438Y0097713D01*
X0094578Y0097923D01*
X0094627Y0098171D01*
X0094578Y0098419D01*
X0094438Y0098629D01*
X0094228Y0098769D01*
X0093980Y0098818D01*
X0093732Y0098769D01*
X0093522Y0098629D01*
X0093476Y0098559D01*
X0092766D01*
X0092706Y0098671D01*
X0092800Y0098812D01*
X0092849Y0099060D01*
X0092848Y0099065D01*
X0093919Y0100137D01*
X0093919Y0100137D01*
X0094018Y0100284D01*
X0094052Y0100457D01*
Y0105178D01*
X0094142Y0105248D01*
X0094265Y0105407D01*
X0094341Y0105592D01*
X0094368Y0105791D01*
X0094341Y0105990D01*
X0094265Y0106175D01*
X0094142Y0106334D01*
X0093983Y0106457D01*
X0093798Y0106533D01*
X0093599Y0106560D01*
D02*
G37*
G36*
X0172593Y0100838D02*
X0171472D01*
X0171498Y0100638D01*
X0171625Y0100333D01*
X0171826Y0100071D01*
X0172088Y0099870D01*
X0172393Y0099743D01*
X0172593Y0099717D01*
Y0100838D01*
D02*
G37*
G36*
X0124562Y0108328D02*
X0124299Y0108293D01*
X0124055Y0108192D01*
X0123846Y0108031D01*
X0123685Y0107821D01*
X0123583Y0107577D01*
X0123549Y0107315D01*
X0123583Y0107053D01*
X0123685Y0106809D01*
X0123846Y0106599D01*
X0124055Y0106438D01*
X0124299Y0106337D01*
X0124562Y0106302D01*
X0124824Y0106337D01*
X0125068Y0106438D01*
X0125278Y0106599D01*
X0125439Y0106809D01*
X0125540Y0107053D01*
X0125574Y0107315D01*
X0125540Y0107577D01*
X0125439Y0107821D01*
X0125278Y0108031D01*
X0125068Y0108192D01*
X0124824Y0108293D01*
X0124562Y0108328D01*
D02*
G37*
G36*
X0127102D02*
X0126840Y0108293D01*
X0126595Y0108192D01*
X0126386Y0108031D01*
X0126225Y0107821D01*
X0126123Y0107577D01*
X0126089Y0107315D01*
X0126123Y0107053D01*
X0126225Y0106809D01*
X0126386Y0106599D01*
X0126595Y0106438D01*
X0126840Y0106337D01*
X0127102Y0106302D01*
X0127364Y0106337D01*
X0127608Y0106438D01*
X0127818Y0106599D01*
X0127979Y0106809D01*
X0128080Y0107053D01*
X0128114Y0107315D01*
X0128080Y0107577D01*
X0127979Y0107821D01*
X0127818Y0108031D01*
X0127608Y0108192D01*
X0127364Y0108293D01*
X0127102Y0108328D01*
D02*
G37*
G36*
X0129642D02*
X0129380Y0108293D01*
X0129135Y0108192D01*
X0128926Y0108031D01*
X0128765Y0107821D01*
X0128663Y0107577D01*
X0128629Y0107315D01*
X0128663Y0107053D01*
X0128765Y0106809D01*
X0128926Y0106599D01*
X0129135Y0106438D01*
X0129380Y0106337D01*
X0129642Y0106302D01*
X0129904Y0106337D01*
X0130148Y0106438D01*
X0130358Y0106599D01*
X0130519Y0106809D01*
X0130620Y0107053D01*
X0130654Y0107315D01*
X0130620Y0107577D01*
X0130519Y0107821D01*
X0130358Y0108031D01*
X0130148Y0108192D01*
X0129904Y0108293D01*
X0129642Y0108328D01*
D02*
G37*
G36*
X0116942D02*
X0116679Y0108293D01*
X0116435Y0108192D01*
X0116226Y0108031D01*
X0116065Y0107821D01*
X0115963Y0107577D01*
X0115929Y0107315D01*
X0115963Y0107053D01*
X0116065Y0106809D01*
X0116226Y0106599D01*
X0116435Y0106438D01*
X0116679Y0106337D01*
X0116942Y0106302D01*
X0117204Y0106337D01*
X0117448Y0106438D01*
X0117658Y0106599D01*
X0117819Y0106809D01*
X0117920Y0107053D01*
X0117954Y0107315D01*
X0117920Y0107577D01*
X0117819Y0107821D01*
X0117658Y0108031D01*
X0117448Y0108192D01*
X0117204Y0108293D01*
X0116942Y0108328D01*
D02*
G37*
G36*
X0119482D02*
X0119219Y0108293D01*
X0118975Y0108192D01*
X0118766Y0108031D01*
X0118605Y0107821D01*
X0118503Y0107577D01*
X0118469Y0107315D01*
X0118503Y0107053D01*
X0118605Y0106809D01*
X0118766Y0106599D01*
X0118975Y0106438D01*
X0119219Y0106337D01*
X0119482Y0106302D01*
X0119744Y0106337D01*
X0119988Y0106438D01*
X0120198Y0106599D01*
X0120359Y0106809D01*
X0120460Y0107053D01*
X0120494Y0107315D01*
X0120460Y0107577D01*
X0120359Y0107821D01*
X0120198Y0108031D01*
X0119988Y0108192D01*
X0119744Y0108293D01*
X0119482Y0108328D01*
D02*
G37*
G36*
X0122022D02*
X0121759Y0108293D01*
X0121515Y0108192D01*
X0121306Y0108031D01*
X0121145Y0107821D01*
X0121043Y0107577D01*
X0121009Y0107315D01*
X0121043Y0107053D01*
X0121145Y0106809D01*
X0121306Y0106599D01*
X0121515Y0106438D01*
X0121759Y0106337D01*
X0122022Y0106302D01*
X0122284Y0106337D01*
X0122528Y0106438D01*
X0122738Y0106599D01*
X0122899Y0106809D01*
X0123000Y0107053D01*
X0123034Y0107315D01*
X0123000Y0107577D01*
X0122899Y0107821D01*
X0122738Y0108031D01*
X0122528Y0108192D01*
X0122284Y0108293D01*
X0122022Y0108328D01*
D02*
G37*
G36*
X0049022Y0110202D02*
Y0108077D01*
X0051147D01*
X0051116Y0108392D01*
X0050987Y0108817D01*
X0050778Y0109208D01*
X0050497Y0109552D01*
X0050153Y0109833D01*
X0049762Y0110043D01*
X0049337Y0110171D01*
X0049022Y0110202D01*
D02*
G37*
G36*
X0173863D02*
X0173548Y0110171D01*
X0173123Y0110043D01*
X0172732Y0109833D01*
X0172388Y0109552D01*
X0172107Y0109208D01*
X0171898Y0108817D01*
X0171769Y0108392D01*
X0171738Y0108077D01*
X0173863D01*
Y0110202D01*
D02*
G37*
G36*
X0174117D02*
Y0108077D01*
X0176242D01*
X0176211Y0108392D01*
X0176083Y0108817D01*
X0175873Y0109208D01*
X0175592Y0109552D01*
X0175248Y0109833D01*
X0174857Y0110043D01*
X0174432Y0110171D01*
X0174117Y0110202D01*
D02*
G37*
G36*
X0132182Y0108328D02*
X0131919Y0108293D01*
X0131675Y0108192D01*
X0131466Y0108031D01*
X0131305Y0107821D01*
X0131203Y0107577D01*
X0131169Y0107315D01*
X0131203Y0107053D01*
X0131305Y0106809D01*
X0131466Y0106599D01*
X0131675Y0106438D01*
X0131919Y0106337D01*
X0132182Y0106302D01*
X0132444Y0106337D01*
X0132688Y0106438D01*
X0132898Y0106599D01*
X0133059Y0106809D01*
X0133160Y0107053D01*
X0133194Y0107315D01*
X0133160Y0107577D01*
X0133059Y0107821D01*
X0132898Y0108031D01*
X0132688Y0108192D01*
X0132444Y0108293D01*
X0132182Y0108328D01*
D02*
G37*
G36*
X0153772D02*
X0153510Y0108293D01*
X0153265Y0108192D01*
X0153056Y0108031D01*
X0152895Y0107821D01*
X0152793Y0107577D01*
X0152759Y0107315D01*
X0152793Y0107053D01*
X0152842Y0106935D01*
X0152252Y0106345D01*
X0152168Y0106219D01*
X0152139Y0106070D01*
Y0105440D01*
X0152018Y0105399D01*
X0151948Y0105491D01*
X0151738Y0105652D01*
X0151494Y0105753D01*
X0151232Y0105788D01*
X0150969Y0105753D01*
X0150725Y0105652D01*
X0150516Y0105491D01*
X0150496Y0105465D01*
X0150375Y0105506D01*
Y0105909D01*
X0150852Y0106386D01*
X0150969Y0106337D01*
X0151232Y0106302D01*
X0151494Y0106337D01*
X0151738Y0106438D01*
X0151948Y0106599D01*
X0152109Y0106809D01*
X0152210Y0107053D01*
X0152244Y0107315D01*
X0152210Y0107577D01*
X0152109Y0107821D01*
X0151948Y0108031D01*
X0151738Y0108192D01*
X0151494Y0108293D01*
X0151232Y0108328D01*
X0150969Y0108293D01*
X0150725Y0108192D01*
X0150516Y0108031D01*
X0150355Y0107821D01*
X0150253Y0107577D01*
X0150219Y0107315D01*
X0150253Y0107053D01*
X0150302Y0106935D01*
X0149712Y0106345D01*
X0149628Y0106219D01*
X0149599Y0106070D01*
Y0105440D01*
X0149478Y0105399D01*
X0149408Y0105491D01*
X0149198Y0105652D01*
X0148954Y0105753D01*
X0148692Y0105788D01*
X0148430Y0105753D01*
X0148185Y0105652D01*
X0147976Y0105491D01*
X0147815Y0105281D01*
X0147713Y0105037D01*
X0147679Y0104775D01*
X0147713Y0104513D01*
X0147762Y0104395D01*
X0147273Y0103906D01*
X0147156Y0103954D01*
Y0105657D01*
X0147422D01*
X0147570Y0105686D01*
X0147696Y0105770D01*
X0148312Y0106386D01*
X0148430Y0106337D01*
X0148692Y0106302D01*
X0148954Y0106337D01*
X0149198Y0106438D01*
X0149408Y0106599D01*
X0149569Y0106809D01*
X0149670Y0107053D01*
X0149704Y0107315D01*
X0149670Y0107577D01*
X0149569Y0107821D01*
X0149408Y0108031D01*
X0149198Y0108192D01*
X0148954Y0108293D01*
X0148692Y0108328D01*
X0148430Y0108293D01*
X0148185Y0108192D01*
X0147976Y0108031D01*
X0147815Y0107821D01*
X0147713Y0107577D01*
X0147679Y0107315D01*
X0147713Y0107053D01*
X0147762Y0106935D01*
X0147261Y0106433D01*
X0146850D01*
X0146809Y0106554D01*
X0146868Y0106599D01*
X0147029Y0106809D01*
X0147130Y0107053D01*
X0147164Y0107315D01*
X0147130Y0107577D01*
X0147029Y0107821D01*
X0146868Y0108031D01*
X0146658Y0108192D01*
X0146414Y0108293D01*
X0146152Y0108328D01*
X0145889Y0108293D01*
X0145645Y0108192D01*
X0145436Y0108031D01*
X0145275Y0107821D01*
X0145173Y0107577D01*
X0145139Y0107315D01*
X0145173Y0107053D01*
X0145275Y0106809D01*
X0145436Y0106599D01*
X0145494Y0106554D01*
X0145454Y0106433D01*
X0136652D01*
X0136503Y0106404D01*
X0136377Y0106320D01*
X0120997Y0090939D01*
X0112093D01*
X0111958Y0091030D01*
X0111760Y0091069D01*
X0111562Y0091030D01*
X0111394Y0090917D01*
X0111281Y0090749D01*
X0111242Y0090551D01*
X0111249Y0090517D01*
X0111159Y0090427D01*
X0111125Y0090434D01*
X0110927Y0090395D01*
X0110759Y0090282D01*
X0110646Y0090114D01*
X0110607Y0089916D01*
X0110646Y0089718D01*
X0110759Y0089550D01*
X0110927Y0089437D01*
X0111125Y0089398D01*
X0111323Y0089437D01*
X0111458Y0089528D01*
X0121285D01*
X0121434Y0089557D01*
X0121560Y0089641D01*
X0121560Y0089641D01*
X0121560Y0089641D01*
X0135035Y0103117D01*
X0147422D01*
X0147570Y0103146D01*
X0147696Y0103230D01*
X0147696Y0103230D01*
X0147696Y0103230D01*
X0148312Y0103846D01*
X0148430Y0103797D01*
X0148692Y0103762D01*
X0148954Y0103797D01*
X0149198Y0103898D01*
X0149408Y0104059D01*
X0149478Y0104151D01*
X0149599Y0104110D01*
Y0103539D01*
X0145762Y0099702D01*
X0132548D01*
X0132400Y0099673D01*
X0132273Y0099589D01*
X0121846Y0089161D01*
X0118618D01*
X0118469Y0089132D01*
X0118343Y0089048D01*
X0116166Y0086870D01*
X0116007Y0086839D01*
X0115839Y0086726D01*
X0115726Y0086558D01*
X0115687Y0086360D01*
X0115726Y0086162D01*
X0115839Y0085994D01*
X0116007Y0085881D01*
X0116205Y0085842D01*
X0116239Y0085849D01*
X0116329Y0085759D01*
X0116322Y0085725D01*
X0116361Y0085527D01*
X0116474Y0085359D01*
X0116642Y0085246D01*
X0116840Y0085207D01*
X0116874Y0085214D01*
X0116964Y0085124D01*
X0116957Y0085090D01*
X0116996Y0084892D01*
X0117109Y0084724D01*
X0117277Y0084611D01*
X0117475Y0084572D01*
X0117509Y0084579D01*
X0117599Y0084489D01*
X0117592Y0084455D01*
X0117631Y0084257D01*
X0117674Y0084193D01*
X0117614Y0084081D01*
X0115985D01*
X0107590Y0092477D01*
X0107539Y0092510D01*
X0107519Y0092633D01*
X0107519Y0092633D01*
X0107519D01*
D01*
X0107659Y0092843D01*
X0107708Y0093091D01*
X0107669Y0093288D01*
X0107775Y0093359D01*
X0107847Y0093310D01*
X0108045Y0093271D01*
X0108243Y0093310D01*
X0108411Y0093423D01*
X0108524Y0093591D01*
X0108563Y0093789D01*
X0108524Y0093987D01*
X0108433Y0094122D01*
Y0101886D01*
X0108404Y0102035D01*
X0108320Y0102161D01*
X0105050Y0105431D01*
X0104924Y0105515D01*
X0104775Y0105544D01*
X0102949D01*
X0102814Y0105635D01*
X0102616Y0105674D01*
X0102418Y0105635D01*
X0102250Y0105522D01*
X0102137Y0105354D01*
X0102098Y0105156D01*
X0102137Y0104958D01*
X0102250Y0104790D01*
X0102418Y0104677D01*
X0102616Y0104638D01*
X0102814Y0104677D01*
X0102949Y0104768D01*
X0104614D01*
X0107657Y0101725D01*
Y0094122D01*
X0107566Y0093987D01*
X0107527Y0093789D01*
X0107551Y0093668D01*
X0107445Y0093598D01*
X0107309Y0093689D01*
X0107061Y0093738D01*
X0106898Y0093706D01*
X0106808Y0093796D01*
X0106819Y0093853D01*
X0106770Y0094101D01*
X0106630Y0094311D01*
X0106420Y0094451D01*
X0106172Y0094500D01*
X0105924Y0094451D01*
X0105714Y0094311D01*
X0105668Y0094241D01*
X0105033D01*
X0104985Y0094359D01*
X0106701Y0096075D01*
X0106785Y0096201D01*
X0106814Y0096349D01*
Y0099445D01*
X0106884Y0099491D01*
X0107024Y0099701D01*
X0107073Y0099949D01*
X0107024Y0100197D01*
X0106884Y0100407D01*
X0106674Y0100547D01*
X0106426Y0100596D01*
X0106178Y0100547D01*
X0106037Y0100453D01*
X0105925Y0100513D01*
Y0100842D01*
X0105995Y0100888D01*
X0106135Y0101098D01*
X0106184Y0101346D01*
X0106135Y0101594D01*
X0105995Y0101804D01*
X0105785Y0101944D01*
X0105537Y0101993D01*
X0105289Y0101944D01*
X0105079Y0101804D01*
X0104939Y0101594D01*
X0104890Y0101346D01*
X0104939Y0101098D01*
X0105079Y0100888D01*
X0105149Y0100842D01*
Y0097316D01*
X0104360Y0096527D01*
X0101688D01*
X0101639Y0096645D01*
X0103272Y0098277D01*
X0103356Y0098403D01*
X0103385Y0098552D01*
Y0099318D01*
X0103455Y0099364D01*
X0103595Y0099574D01*
X0103644Y0099822D01*
X0103595Y0100070D01*
X0103455Y0100280D01*
X0103245Y0100420D01*
X0103225Y0100424D01*
X0103200Y0100549D01*
X0103328Y0100634D01*
X0103468Y0100844D01*
X0103517Y0101092D01*
X0103480Y0101281D01*
X0103570Y0101371D01*
X0103759Y0101334D01*
X0104007Y0101383D01*
X0104217Y0101523D01*
X0104357Y0101733D01*
X0104406Y0101981D01*
X0104357Y0102229D01*
X0104217Y0102439D01*
X0104007Y0102579D01*
X0103759Y0102628D01*
X0103511Y0102579D01*
X0103301Y0102439D01*
X0103255Y0102369D01*
X0102489D01*
X0102340Y0102340D01*
X0102214Y0102256D01*
X0101325Y0101367D01*
X0101241Y0101241D01*
X0101212Y0101092D01*
Y0098840D01*
X0098899Y0096527D01*
X0082647D01*
X0082634Y0096654D01*
X0082748Y0096676D01*
X0082916Y0096789D01*
X0083029Y0096957D01*
X0083068Y0097155D01*
X0083029Y0097353D01*
X0082938Y0097488D01*
Y0098645D01*
X0085378Y0101085D01*
X0088523D01*
X0088569Y0101015D01*
X0088779Y0100875D01*
X0089027Y0100826D01*
X0089275Y0100875D01*
X0089485Y0101015D01*
X0089625Y0101225D01*
X0089674Y0101473D01*
X0089625Y0101721D01*
X0089485Y0101931D01*
X0089275Y0102071D01*
X0089027Y0102120D01*
X0088779Y0102071D01*
X0088569Y0101931D01*
X0088523Y0101861D01*
X0085217D01*
X0085068Y0101832D01*
X0084942Y0101748D01*
X0082275Y0099081D01*
X0082191Y0098955D01*
X0082162Y0098806D01*
Y0097488D01*
X0082071Y0097353D01*
X0082032Y0097155D01*
X0082071Y0096957D01*
X0082184Y0096789D01*
X0082352Y0096676D01*
X0082466Y0096654D01*
X0082453Y0096527D01*
X0075853D01*
X0074570Y0097811D01*
X0074444Y0097895D01*
X0074295Y0097924D01*
X0070011D01*
X0066696Y0101240D01*
X0066570Y0101324D01*
X0066421Y0101353D01*
X0060023D01*
X0059888Y0101444D01*
X0059690Y0101483D01*
X0059492Y0101444D01*
X0059324Y0101331D01*
X0059211Y0101163D01*
X0059172Y0100965D01*
X0059211Y0100767D01*
X0059324Y0100599D01*
X0059492Y0100486D01*
X0059690Y0100447D01*
X0059888Y0100486D01*
X0060023Y0100577D01*
X0060210D01*
X0060270Y0100465D01*
X0060227Y0100401D01*
X0060188Y0100203D01*
X0060227Y0100005D01*
X0060340Y0099837D01*
X0060508Y0099724D01*
X0060706Y0099685D01*
X0060904Y0099724D01*
X0061024Y0099805D01*
X0061146Y0099768D01*
X0061175Y0099697D01*
X0060812Y0099335D01*
X0060728Y0099209D01*
X0060699Y0099060D01*
Y0095085D01*
X0060195Y0094581D01*
X0060036Y0094550D01*
X0059868Y0094437D01*
X0059755Y0094269D01*
X0059716Y0094071D01*
X0059755Y0093873D01*
X0059868Y0093705D01*
X0060036Y0093592D01*
X0060234Y0093553D01*
X0060432Y0093592D01*
X0060600Y0093705D01*
X0060713Y0093873D01*
X0060744Y0094032D01*
X0061362Y0094649D01*
X0061446Y0094775D01*
X0061475Y0094924D01*
Y0098709D01*
X0061602Y0098722D01*
X0061624Y0098608D01*
X0061737Y0098440D01*
X0061905Y0098327D01*
X0062103Y0098288D01*
X0062301Y0098327D01*
X0062436Y0098418D01*
X0063412D01*
X0063461Y0098300D01*
X0061955Y0096795D01*
X0061871Y0096669D01*
X0061842Y0096520D01*
Y0093932D01*
X0061751Y0093797D01*
X0061712Y0093599D01*
X0061751Y0093401D01*
X0061864Y0093233D01*
X0062032Y0093120D01*
X0062230Y0093081D01*
X0062428Y0093120D01*
X0062596Y0093233D01*
X0062709Y0093401D01*
X0062748Y0093599D01*
X0062709Y0093797D01*
X0062618Y0093932D01*
Y0096359D01*
X0064169Y0097910D01*
X0066053D01*
X0068734Y0095229D01*
X0068860Y0095145D01*
X0069008Y0095116D01*
X0069508D01*
X0069557Y0094998D01*
X0068940Y0094382D01*
X0068856Y0094256D01*
X0068827Y0094107D01*
Y0092617D01*
X0068038Y0091828D01*
X0062645D01*
X0061489Y0092985D01*
X0061363Y0093069D01*
X0061214Y0093098D01*
X0054689D01*
X0054554Y0093189D01*
X0054356Y0093228D01*
X0054158Y0093189D01*
X0053990Y0093076D01*
X0053877Y0092908D01*
X0053838Y0092710D01*
X0053877Y0092512D01*
X0053990Y0092344D01*
X0054158Y0092231D01*
X0054356Y0092192D01*
X0054554Y0092231D01*
X0054689Y0092322D01*
X0061053D01*
X0061471Y0091904D01*
X0061411Y0091792D01*
X0061214Y0091831D01*
X0061016Y0091792D01*
X0060848Y0091679D01*
X0060735Y0091511D01*
X0060696Y0091313D01*
X0060735Y0091115D01*
X0060848Y0090947D01*
X0061016Y0090834D01*
X0061175Y0090803D01*
X0061263Y0090715D01*
X0061320Y0090657D01*
X0061446Y0090573D01*
X0061595Y0090544D01*
X0068409D01*
X0068558Y0090573D01*
X0068684Y0090657D01*
X0069998Y0091971D01*
X0070082Y0092097D01*
X0070111Y0092246D01*
Y0093736D01*
X0070475Y0094100D01*
X0070736D01*
X0070773Y0093978D01*
X0070754Y0093965D01*
X0070641Y0093797D01*
X0070602Y0093599D01*
X0070641Y0093401D01*
X0070754Y0093233D01*
X0070922Y0093120D01*
X0071120Y0093081D01*
X0071318Y0093120D01*
X0071453Y0093211D01*
X0072006D01*
X0072043Y0093089D01*
X0072024Y0093076D01*
X0071911Y0092908D01*
X0071872Y0092710D01*
X0071911Y0092512D01*
X0072024Y0092344D01*
X0072192Y0092231D01*
X0072351Y0092200D01*
X0072474Y0092077D01*
X0072425Y0091959D01*
X0072083D01*
X0071953Y0092046D01*
X0071755Y0092085D01*
X0071557Y0092046D01*
X0071389Y0091934D01*
X0071276Y0091766D01*
X0071237Y0091568D01*
X0071276Y0091369D01*
X0071389Y0091201D01*
X0071557Y0091089D01*
X0071755Y0091050D01*
X0071953Y0091089D01*
X0072093Y0091183D01*
X0103107D01*
X0103125Y0091179D01*
X0103273Y0091209D01*
X0103399Y0091293D01*
X0104562Y0092456D01*
X0104674Y0092396D01*
X0104636Y0092202D01*
X0104685Y0091954D01*
X0104825Y0091744D01*
X0105035Y0091604D01*
X0105283Y0091555D01*
X0105472Y0091592D01*
X0105562Y0091502D01*
X0105525Y0091313D01*
X0105574Y0091065D01*
X0105714Y0090855D01*
X0105924Y0090715D01*
X0106172Y0090666D01*
X0106420Y0090715D01*
X0106630Y0090855D01*
X0106676Y0090925D01*
X0107281D01*
X0112529Y0085677D01*
X0112448Y0085579D01*
X0112345Y0085648D01*
X0112196Y0085677D01*
X0110569D01*
X0110434Y0085768D01*
X0110236Y0085807D01*
X0110038Y0085768D01*
X0109870Y0085655D01*
X0109757Y0085487D01*
X0109718Y0085289D01*
X0109757Y0085091D01*
X0109870Y0084923D01*
X0110038Y0084810D01*
X0110236Y0084771D01*
X0110434Y0084810D01*
X0110569Y0084901D01*
X0112035D01*
X0115563Y0081373D01*
Y0081105D01*
X0115472Y0080970D01*
X0115433Y0080772D01*
X0115472Y0080574D01*
X0115585Y0080406D01*
X0115753Y0080293D01*
X0115951Y0080254D01*
X0116149Y0080293D01*
X0116317Y0080406D01*
X0116430Y0080574D01*
X0116469Y0080772D01*
X0116430Y0080970D01*
X0116339Y0081105D01*
Y0081534D01*
X0116310Y0081683D01*
X0116226Y0081809D01*
X0115237Y0082797D01*
X0115318Y0082895D01*
X0115421Y0082826D01*
X0115446Y0082821D01*
X0115570Y0082797D01*
X0128633D01*
X0132073Y0079357D01*
Y0078228D01*
X0132003Y0078182D01*
X0131889Y0078012D01*
X0131762D01*
X0131649Y0078182D01*
X0131439Y0078322D01*
X0131191Y0078371D01*
X0130943Y0078322D01*
X0130733Y0078182D01*
X0130593Y0077972D01*
X0130544Y0077724D01*
X0130593Y0077476D01*
X0130733Y0077266D01*
X0130803Y0077220D01*
Y0073914D01*
X0130803Y0073914D01*
X0130803D01*
X0130832Y0073765D01*
X0130916Y0073639D01*
X0134980Y0069575D01*
X0134980D01*
X0134980Y0069575D01*
X0134980Y0069575D01*
Y0069575D01*
X0135106Y0069491D01*
X0135255Y0069462D01*
X0143349D01*
X0145027Y0067784D01*
Y0065743D01*
X0144711D01*
Y0064435D01*
X0144711Y0064435D01*
X0144711Y0064343D01*
X0144711D01*
Y0063035D01*
X0144962D01*
Y0062548D01*
X0144883Y0062516D01*
X0144663Y0062347D01*
X0144494Y0062127D01*
X0144388Y0061870D01*
X0144352Y0061595D01*
X0144388Y0061320D01*
X0144494Y0061063D01*
X0144663Y0060843D01*
X0144883Y0060674D01*
X0145140Y0060568D01*
X0145415Y0060532D01*
X0145690Y0060568D01*
X0145947Y0060674D01*
X0146167Y0060843D01*
X0146336Y0061063D01*
X0146442Y0061320D01*
X0146478Y0061595D01*
X0146442Y0061870D01*
X0146336Y0062127D01*
X0146167Y0062347D01*
X0145947Y0062516D01*
X0145868Y0062548D01*
Y0063035D01*
X0146119D01*
Y0064343D01*
D01*
Y0064343D01*
X0146119Y0064343D01*
Y0064435D01*
X0146119D01*
Y0065743D01*
X0145803D01*
Y0067687D01*
X0145921Y0067735D01*
X0147567Y0066090D01*
Y0065743D01*
X0147251D01*
Y0064435D01*
X0147251Y0064435D01*
X0147251Y0064343D01*
X0147251D01*
Y0063035D01*
X0148659D01*
Y0063236D01*
X0149483D01*
X0150042Y0062677D01*
Y0062548D01*
X0149963Y0062516D01*
X0149743Y0062347D01*
X0149574Y0062127D01*
X0149468Y0061870D01*
X0149432Y0061595D01*
X0149468Y0061320D01*
X0149574Y0061063D01*
X0149743Y0060843D01*
X0149963Y0060674D01*
X0150220Y0060568D01*
X0150495Y0060532D01*
X0150770Y0060568D01*
X0151027Y0060674D01*
X0151247Y0060843D01*
X0151416Y0061063D01*
X0151522Y0061320D01*
X0151558Y0061595D01*
X0151522Y0061870D01*
X0151416Y0062127D01*
X0151247Y0062347D01*
X0151027Y0062516D01*
X0150948Y0062548D01*
Y0062865D01*
X0150948Y0062865D01*
X0150914Y0063038D01*
X0150865Y0063112D01*
X0150815Y0063185D01*
X0150815Y0063185D01*
X0149991Y0064009D01*
X0149844Y0064108D01*
X0149671Y0064142D01*
X0148659D01*
Y0064343D01*
D01*
Y0064343D01*
X0148659Y0064343D01*
Y0064435D01*
X0148659D01*
Y0065743D01*
X0148343D01*
Y0066250D01*
X0148314Y0066399D01*
X0148230Y0066525D01*
X0143995Y0070760D01*
X0143869Y0070844D01*
X0143720Y0070873D01*
X0135543D01*
X0132849Y0073567D01*
Y0077220D01*
X0132919Y0077266D01*
X0133059Y0077476D01*
X0133108Y0077724D01*
X0133059Y0077972D01*
X0132919Y0078182D01*
X0132849Y0078228D01*
Y0079518D01*
X0132820Y0079666D01*
X0132736Y0079792D01*
X0131096Y0081432D01*
X0131156Y0081544D01*
X0131191Y0081537D01*
X0131439Y0081586D01*
X0131649Y0081727D01*
X0131789Y0081937D01*
X0131838Y0082185D01*
X0131789Y0082432D01*
X0131649Y0082642D01*
X0131439Y0082783D01*
X0131191Y0082832D01*
X0131109Y0082816D01*
X0129957Y0083968D01*
X0129831Y0084052D01*
X0129682Y0084081D01*
X0118606D01*
X0118546Y0084193D01*
X0118589Y0084257D01*
X0118620Y0084416D01*
X0121065Y0086861D01*
X0122682D01*
X0122831Y0086890D01*
X0122957Y0086974D01*
X0122957Y0086974D01*
X0122957Y0086974D01*
X0133384Y0097402D01*
X0147955D01*
X0148104Y0097431D01*
X0148230Y0097515D01*
X0148230Y0097515D01*
X0148230Y0097515D01*
X0154046Y0103332D01*
X0154130Y0103458D01*
X0154160Y0103607D01*
X0154160Y0103607D01*
X0154160Y0103607D01*
Y0103607D01*
Y0103849D01*
X0154278Y0103898D01*
X0154488Y0104059D01*
X0154649Y0104269D01*
X0154750Y0104513D01*
X0154784Y0104775D01*
X0154750Y0105037D01*
X0154649Y0105281D01*
X0154488Y0105491D01*
X0154278Y0105652D01*
X0154034Y0105753D01*
X0153772Y0105788D01*
X0153510Y0105753D01*
X0153265Y0105652D01*
X0153056Y0105491D01*
X0153036Y0105465D01*
X0152915Y0105506D01*
Y0105909D01*
X0153392Y0106386D01*
X0153510Y0106337D01*
X0153772Y0106302D01*
X0154034Y0106337D01*
X0154278Y0106438D01*
X0154488Y0106599D01*
X0154649Y0106809D01*
X0154750Y0107053D01*
X0154784Y0107315D01*
X0154750Y0107577D01*
X0154649Y0107821D01*
X0154488Y0108031D01*
X0154278Y0108192D01*
X0154034Y0108293D01*
X0153772Y0108328D01*
D02*
G37*
G36*
X0048768Y0110202D02*
X0048453Y0110171D01*
X0048028Y0110043D01*
X0047637Y0109833D01*
X0047293Y0109552D01*
X0047012Y0109208D01*
X0046803Y0108817D01*
X0046674Y0108392D01*
X0046643Y0108077D01*
X0048768D01*
Y0110202D01*
D02*
G37*
G36*
X0114402Y0108328D02*
X0114140Y0108293D01*
X0113895Y0108192D01*
X0113686Y0108031D01*
X0113525Y0107821D01*
X0113423Y0107577D01*
X0113389Y0107315D01*
X0113423Y0107053D01*
X0113525Y0106809D01*
X0113686Y0106599D01*
X0113895Y0106438D01*
X0114140Y0106337D01*
X0114402Y0106302D01*
X0114664Y0106337D01*
X0114908Y0106438D01*
X0115118Y0106599D01*
X0115279Y0106809D01*
X0115380Y0107053D01*
X0115414Y0107315D01*
X0115380Y0107577D01*
X0115279Y0107821D01*
X0115118Y0108031D01*
X0114908Y0108192D01*
X0114664Y0108293D01*
X0114402Y0108328D01*
D02*
G37*
G36*
X0127102Y0105788D02*
X0126840Y0105753D01*
X0126595Y0105652D01*
X0126386Y0105491D01*
X0126225Y0105281D01*
X0126123Y0105037D01*
X0126089Y0104775D01*
X0126123Y0104513D01*
X0126225Y0104269D01*
X0126386Y0104059D01*
X0126595Y0103898D01*
X0126840Y0103797D01*
X0127102Y0103762D01*
X0127364Y0103797D01*
X0127608Y0103898D01*
X0127818Y0104059D01*
X0127979Y0104269D01*
X0128080Y0104513D01*
X0128114Y0104775D01*
X0128080Y0105037D01*
X0127979Y0105281D01*
X0127818Y0105491D01*
X0127608Y0105652D01*
X0127364Y0105753D01*
X0127102Y0105788D01*
D02*
G37*
G36*
X0129642D02*
X0129380Y0105753D01*
X0129135Y0105652D01*
X0128926Y0105491D01*
X0128765Y0105281D01*
X0128663Y0105037D01*
X0128629Y0104775D01*
X0128663Y0104513D01*
X0128765Y0104269D01*
X0128926Y0104059D01*
X0129135Y0103898D01*
X0129380Y0103797D01*
X0129642Y0103762D01*
X0129904Y0103797D01*
X0130148Y0103898D01*
X0130358Y0104059D01*
X0130519Y0104269D01*
X0130620Y0104513D01*
X0130654Y0104775D01*
X0130620Y0105037D01*
X0130519Y0105281D01*
X0130358Y0105491D01*
X0130148Y0105652D01*
X0129904Y0105753D01*
X0129642Y0105788D01*
D02*
G37*
G36*
X0132182D02*
X0131919Y0105753D01*
X0131675Y0105652D01*
X0131466Y0105491D01*
X0131305Y0105281D01*
X0131203Y0105037D01*
X0131169Y0104775D01*
X0131203Y0104513D01*
X0131305Y0104269D01*
X0131466Y0104059D01*
X0131675Y0103898D01*
X0131919Y0103797D01*
X0132182Y0103762D01*
X0132444Y0103797D01*
X0132688Y0103898D01*
X0132898Y0104059D01*
X0133059Y0104269D01*
X0133160Y0104513D01*
X0133194Y0104775D01*
X0133160Y0105037D01*
X0133059Y0105281D01*
X0132898Y0105491D01*
X0132688Y0105652D01*
X0132444Y0105753D01*
X0132182Y0105788D01*
D02*
G37*
G36*
X0119482D02*
X0119219Y0105753D01*
X0118975Y0105652D01*
X0118766Y0105491D01*
X0118605Y0105281D01*
X0118503Y0105037D01*
X0118469Y0104775D01*
X0118503Y0104513D01*
X0118605Y0104269D01*
X0118766Y0104059D01*
X0118975Y0103898D01*
X0119219Y0103797D01*
X0119482Y0103762D01*
X0119744Y0103797D01*
X0119988Y0103898D01*
X0120198Y0104059D01*
X0120359Y0104269D01*
X0120460Y0104513D01*
X0120494Y0104775D01*
X0120460Y0105037D01*
X0120359Y0105281D01*
X0120198Y0105491D01*
X0119988Y0105652D01*
X0119744Y0105753D01*
X0119482Y0105788D01*
D02*
G37*
G36*
X0122022D02*
X0121759Y0105753D01*
X0121515Y0105652D01*
X0121306Y0105491D01*
X0121145Y0105281D01*
X0121043Y0105037D01*
X0121009Y0104775D01*
X0121043Y0104513D01*
X0121145Y0104269D01*
X0121306Y0104059D01*
X0121515Y0103898D01*
X0121759Y0103797D01*
X0122022Y0103762D01*
X0122284Y0103797D01*
X0122528Y0103898D01*
X0122738Y0104059D01*
X0122899Y0104269D01*
X0123000Y0104513D01*
X0123034Y0104775D01*
X0123000Y0105037D01*
X0122899Y0105281D01*
X0122738Y0105491D01*
X0122528Y0105652D01*
X0122284Y0105753D01*
X0122022Y0105788D01*
D02*
G37*
G36*
X0124562D02*
X0124299Y0105753D01*
X0124055Y0105652D01*
X0123846Y0105491D01*
X0123685Y0105281D01*
X0123583Y0105037D01*
X0123549Y0104775D01*
X0123583Y0104513D01*
X0123685Y0104269D01*
X0123846Y0104059D01*
X0124055Y0103898D01*
X0124299Y0103797D01*
X0124562Y0103762D01*
X0124824Y0103797D01*
X0125068Y0103898D01*
X0125278Y0104059D01*
X0125439Y0104269D01*
X0125540Y0104513D01*
X0125574Y0104775D01*
X0125540Y0105037D01*
X0125439Y0105281D01*
X0125278Y0105491D01*
X0125068Y0105652D01*
X0124824Y0105753D01*
X0124562Y0105788D01*
D02*
G37*
G36*
X0173863Y0107823D02*
X0171738D01*
X0171769Y0107508D01*
X0171898Y0107083D01*
X0172107Y0106692D01*
X0172388Y0106348D01*
X0172732Y0106067D01*
X0173123Y0105857D01*
X0173548Y0105729D01*
X0173863Y0105698D01*
Y0107823D01*
D02*
G37*
G36*
X0176242D02*
X0174117D01*
Y0105698D01*
X0174432Y0105729D01*
X0174857Y0105857D01*
X0175248Y0106067D01*
X0175592Y0106348D01*
X0175873Y0106692D01*
X0176083Y0107083D01*
X0176211Y0107508D01*
X0176242Y0107823D01*
D02*
G37*
G36*
X0074295Y0107322D02*
X0074096Y0107295D01*
X0073911Y0107219D01*
X0073752Y0107096D01*
X0073629Y0106937D01*
X0073553Y0106752D01*
X0073526Y0106553D01*
X0073553Y0106354D01*
X0073629Y0106169D01*
X0073752Y0106010D01*
X0073911Y0105887D01*
X0074096Y0105811D01*
X0074295Y0105784D01*
X0074494Y0105811D01*
X0074679Y0105887D01*
X0074838Y0106010D01*
X0074961Y0106169D01*
X0075037Y0106354D01*
X0075064Y0106553D01*
X0075037Y0106752D01*
X0074961Y0106937D01*
X0074838Y0107096D01*
X0074679Y0107219D01*
X0074494Y0107295D01*
X0074295Y0107322D01*
D02*
G37*
G36*
X0115406Y0105779D02*
X0113398D01*
Y0103771D01*
X0115406D01*
Y0105779D01*
D02*
G37*
G36*
X0048768Y0107823D02*
X0046643D01*
X0046674Y0107508D01*
X0046803Y0107083D01*
X0047012Y0106692D01*
X0047293Y0106348D01*
X0047637Y0106067D01*
X0048028Y0105857D01*
X0048453Y0105729D01*
X0048768Y0105698D01*
Y0107823D01*
D02*
G37*
G36*
X0051147D02*
X0049022D01*
Y0105698D01*
X0049337Y0105729D01*
X0049762Y0105857D01*
X0050153Y0106067D01*
X0050497Y0106348D01*
X0050778Y0106692D01*
X0050987Y0107083D01*
X0051116Y0107508D01*
X0051147Y0107823D01*
D02*
G37*
G36*
X0104394Y0085204D02*
Y0084709D01*
X0104889D01*
X0104865Y0084830D01*
X0104725Y0085040D01*
X0104515Y0085180D01*
X0104394Y0085204D01*
D02*
G37*
G36*
X0065405Y0088021D02*
X0065207Y0087982D01*
X0065039Y0087869D01*
X0064926Y0087701D01*
X0064887Y0087503D01*
X0064926Y0087305D01*
X0065039Y0087137D01*
X0065207Y0087024D01*
X0065366Y0086993D01*
X0065652Y0086707D01*
Y0086317D01*
X0065336D01*
Y0085009D01*
X0065336Y0085009D01*
X0065336Y0084917D01*
X0065336D01*
Y0084390D01*
X0066744D01*
Y0084917D01*
D01*
Y0084917D01*
X0066744Y0084917D01*
Y0085009D01*
X0066744D01*
Y0086317D01*
X0066428D01*
Y0086868D01*
X0066399Y0087017D01*
X0066315Y0087143D01*
X0065915Y0087542D01*
X0065884Y0087701D01*
X0065771Y0087869D01*
X0065603Y0087982D01*
X0065405Y0088021D01*
D02*
G37*
G36*
X0110109Y0086741D02*
X0109614D01*
X0109638Y0086620D01*
X0109778Y0086410D01*
X0109988Y0086270D01*
X0110109Y0086246D01*
Y0086741D01*
D02*
G37*
G36*
X0104140Y0084455D02*
X0103645D01*
X0103669Y0084334D01*
X0103809Y0084124D01*
X0104019Y0083984D01*
X0104140Y0083960D01*
Y0084455D01*
D02*
G37*
G36*
X0104889D02*
X0104394D01*
Y0083960D01*
X0104515Y0083984D01*
X0104725Y0084124D01*
X0104865Y0084334D01*
X0104889Y0084455D01*
D02*
G37*
G36*
X0104140Y0085204D02*
X0104019Y0085180D01*
X0103809Y0085040D01*
X0103669Y0084830D01*
X0103645Y0084709D01*
X0104140D01*
Y0085204D01*
D02*
G37*
G36*
X0110363Y0087490D02*
Y0086995D01*
X0110858D01*
X0110834Y0087116D01*
X0110694Y0087326D01*
X0110484Y0087466D01*
X0110363Y0087490D01*
D02*
G37*
G36*
X0069850Y0090688D02*
X0069652Y0090649D01*
X0069484Y0090536D01*
X0069371Y0090368D01*
X0069332Y0090170D01*
X0069371Y0089972D01*
X0069484Y0089804D01*
X0069652Y0089691D01*
X0069811Y0089660D01*
X0072877Y0086593D01*
X0072877Y0086593D01*
X0072877Y0086593D01*
Y0086593D01*
X0072877Y0086593D01*
Y0086593D01*
X0073003Y0086509D01*
X0073152Y0086480D01*
X0082046D01*
X0082092Y0086410D01*
X0082302Y0086270D01*
X0082550Y0086221D01*
X0082798Y0086270D01*
X0083008Y0086410D01*
X0083054Y0086480D01*
X0088392D01*
X0088541Y0086509D01*
X0088667Y0086593D01*
X0088667Y0086593D01*
X0089443Y0087369D01*
X0089621D01*
X0089658Y0087248D01*
X0089585Y0087199D01*
X0089445Y0086989D01*
X0089396Y0086741D01*
X0089407Y0086683D01*
X0085409Y0082684D01*
X0083960D01*
X0083812Y0082655D01*
X0083686Y0082571D01*
X0082934Y0081819D01*
X0082101D01*
Y0079511D01*
X0082525D01*
Y0079063D01*
X0082215D01*
D01*
D01*
X0082215Y0079063D01*
X0082123D01*
Y0079063D01*
X0081596D01*
Y0078359D01*
Y0077655D01*
X0082123D01*
Y0077655D01*
X0082123D01*
X0082123Y0077655D01*
X0082215D01*
Y0077655D01*
X0083523D01*
Y0079063D01*
X0083302D01*
Y0079511D01*
X0083609D01*
Y0081395D01*
X0084121Y0081908D01*
X0084895D01*
Y0081824D01*
X0084895D01*
Y0079516D01*
X0085286D01*
Y0079063D01*
X0085006D01*
Y0077655D01*
X0086314D01*
Y0077655D01*
X0086314D01*
X0086314Y0077655D01*
X0086406D01*
Y0077655D01*
X0086933D01*
Y0078359D01*
Y0079063D01*
X0086406D01*
D01*
D01*
X0086406Y0079063D01*
X0086314D01*
Y0079063D01*
X0086062D01*
Y0079516D01*
X0086403D01*
Y0081281D01*
X0091231Y0086110D01*
X0091313Y0086094D01*
X0091561Y0086143D01*
X0091771Y0086283D01*
X0091911Y0086493D01*
X0091960Y0086741D01*
X0091911Y0086989D01*
X0091771Y0087199D01*
X0091698Y0087248D01*
X0091735Y0087369D01*
X0091952D01*
X0091998Y0087300D01*
X0092208Y0087160D01*
X0092456Y0087110D01*
X0092704Y0087160D01*
X0092914Y0087300D01*
X0093054Y0087510D01*
X0093103Y0087758D01*
X0093054Y0088005D01*
X0092914Y0088215D01*
X0092704Y0088356D01*
X0092456Y0088405D01*
X0092208Y0088356D01*
X0091998Y0088215D01*
X0091952Y0088146D01*
X0089282D01*
X0089133Y0088117D01*
X0089007Y0088032D01*
X0088231Y0087256D01*
X0083054D01*
X0083008Y0087326D01*
X0082798Y0087466D01*
X0082550Y0087515D01*
X0082302Y0087466D01*
X0082092Y0087326D01*
X0082046Y0087256D01*
X0073313D01*
X0070360Y0090209D01*
X0070329Y0090368D01*
X0070216Y0090536D01*
X0070048Y0090649D01*
X0069850Y0090688D01*
D02*
G37*
G36*
X0085999Y0091043D02*
X0085655Y0091010D01*
X0085325Y0090909D01*
X0085020Y0090746D01*
X0084753Y0090527D01*
X0084534Y0090260D01*
X0084371Y0089955D01*
X0084270Y0089625D01*
X0084237Y0089281D01*
X0084270Y0088937D01*
X0084371Y0088607D01*
X0084534Y0088302D01*
X0084753Y0088035D01*
X0085020Y0087816D01*
X0085325Y0087653D01*
X0085655Y0087552D01*
X0085999Y0087519D01*
X0086343Y0087552D01*
X0086673Y0087653D01*
X0086978Y0087816D01*
X0087245Y0088035D01*
X0087464Y0088302D01*
X0087627Y0088607D01*
X0087728Y0088937D01*
X0087761Y0089281D01*
X0087728Y0089625D01*
X0087627Y0089955D01*
X0087464Y0090260D01*
X0087245Y0090527D01*
X0086978Y0090746D01*
X0086673Y0090909D01*
X0086343Y0091010D01*
X0085999Y0091043D01*
D02*
G37*
G36*
X0110858Y0086741D02*
X0110363D01*
Y0086246D01*
X0110484Y0086270D01*
X0110694Y0086410D01*
X0110834Y0086620D01*
X0110858Y0086741D01*
D02*
G37*
G36*
X0136779Y0090436D02*
X0136531Y0090387D01*
X0136321Y0090247D01*
X0136181Y0090037D01*
X0136132Y0089789D01*
X0136181Y0089541D01*
X0136321Y0089331D01*
X0136391Y0089285D01*
Y0087753D01*
X0136321Y0087707D01*
X0136181Y0087497D01*
X0136132Y0087249D01*
X0136181Y0087001D01*
X0136321Y0086791D01*
X0136531Y0086651D01*
X0136779Y0086602D01*
X0137027Y0086651D01*
X0137237Y0086791D01*
X0137377Y0087001D01*
X0137426Y0087249D01*
X0137377Y0087497D01*
X0137237Y0087707D01*
X0137167Y0087753D01*
Y0089285D01*
X0137237Y0089331D01*
X0137377Y0089541D01*
X0137426Y0089789D01*
X0137377Y0090037D01*
X0137237Y0090247D01*
X0137027Y0090387D01*
X0136779Y0090436D01*
D02*
G37*
G36*
X0110109Y0087490D02*
X0109988Y0087466D01*
X0109778Y0087326D01*
X0109638Y0087116D01*
X0109614Y0086995D01*
X0110109D01*
Y0087490D01*
D02*
G37*
G36*
X0066744Y0084136D02*
X0066167D01*
Y0083609D01*
X0066744D01*
Y0084136D01*
D02*
G37*
G36*
X0087714Y0079063D02*
X0087187D01*
Y0078486D01*
X0087714D01*
Y0079063D01*
D02*
G37*
G36*
X0090551Y0083451D02*
X0090303Y0083402D01*
X0090093Y0083262D01*
X0089953Y0083052D01*
X0089904Y0082804D01*
X0089953Y0082556D01*
X0090093Y0082346D01*
X0090163Y0082300D01*
Y0082169D01*
X0088900D01*
Y0079121D01*
X0090863D01*
Y0078809D01*
X0090597D01*
D01*
D01*
X0090597Y0078809D01*
X0090505D01*
Y0078809D01*
X0089978D01*
Y0078105D01*
Y0077401D01*
X0090505D01*
Y0077401D01*
X0090505D01*
X0090505Y0077401D01*
X0090597D01*
Y0077401D01*
X0091905D01*
Y0078809D01*
X0091639D01*
Y0079121D01*
X0092202D01*
Y0082169D01*
X0090939D01*
Y0082300D01*
X0091009Y0082346D01*
X0091149Y0082556D01*
X0091198Y0082804D01*
X0091149Y0083052D01*
X0091009Y0083262D01*
X0090799Y0083402D01*
X0090551Y0083451D01*
D02*
G37*
G36*
X0055880Y0080072D02*
X0055303D01*
Y0079545D01*
X0055880D01*
Y0080072D01*
D02*
G37*
G36*
X0089724Y0078809D02*
X0089197D01*
Y0078232D01*
X0089724D01*
Y0078809D01*
D02*
G37*
G36*
X0095461Y0078809D02*
X0094934D01*
Y0078232D01*
X0095461D01*
Y0078809D01*
D02*
G37*
G36*
X0081342Y0079063D02*
X0080815D01*
Y0078486D01*
X0081342D01*
Y0079063D01*
D02*
G37*
G36*
X0119380Y0081860D02*
X0119181Y0081833D01*
X0118996Y0081757D01*
X0118837Y0081634D01*
X0118714Y0081475D01*
X0118638Y0081290D01*
X0118611Y0081091D01*
X0118638Y0080892D01*
X0118714Y0080707D01*
X0118837Y0080548D01*
X0118996Y0080425D01*
X0119181Y0080349D01*
X0119380Y0080322D01*
X0119579Y0080349D01*
X0119764Y0080425D01*
X0119923Y0080548D01*
X0120046Y0080707D01*
X0120122Y0080892D01*
X0120149Y0081091D01*
X0120122Y0081290D01*
X0120046Y0081475D01*
X0119923Y0081634D01*
X0119764Y0081757D01*
X0119579Y0081833D01*
X0119380Y0081860D01*
D02*
G37*
G36*
X0064262Y0083576D02*
X0064064Y0083537D01*
X0063896Y0083424D01*
X0063783Y0083256D01*
X0063744Y0083058D01*
X0063783Y0082860D01*
X0063874Y0082725D01*
Y0082253D01*
X0063558D01*
Y0080945D01*
X0063558Y0080945D01*
X0063558Y0080853D01*
X0063558D01*
Y0080326D01*
X0064966D01*
Y0080853D01*
D01*
Y0080853D01*
X0064966Y0080853D01*
Y0080945D01*
X0064966D01*
Y0082253D01*
X0064650D01*
Y0082725D01*
X0064741Y0082860D01*
X0064780Y0083058D01*
X0064741Y0083256D01*
X0064628Y0083424D01*
X0064460Y0083537D01*
X0064262Y0083576D01*
D02*
G37*
G36*
X0065913Y0084136D02*
X0065336D01*
Y0083609D01*
X0065913D01*
Y0084136D01*
D02*
G37*
G36*
X0056711Y0080072D02*
X0056134D01*
Y0079545D01*
X0056711D01*
Y0080072D01*
D02*
G37*
G36*
X0064135D02*
X0063558D01*
Y0079545D01*
X0064135D01*
Y0080072D01*
D02*
G37*
G36*
X0064966D02*
X0064389D01*
Y0079545D01*
X0064966D01*
Y0080072D01*
D02*
G37*
G36*
X0104440Y0089985D02*
X0104369Y0089985D01*
X0104348D01*
Y0089985D01*
X0104348D01*
X0104348D01*
X0103040D01*
Y0089669D01*
X0102612D01*
X0102566Y0089739D01*
X0102356Y0089879D01*
X0102108Y0089928D01*
X0101860Y0089879D01*
X0101650Y0089739D01*
X0101510Y0089529D01*
X0101461Y0089281D01*
X0101510Y0089033D01*
X0101650Y0088823D01*
X0101860Y0088683D01*
X0102108Y0088634D01*
X0102356Y0088683D01*
X0102566Y0088823D01*
X0102612Y0088893D01*
X0103040D01*
Y0088577D01*
X0104348D01*
Y0088577D01*
X0104348D01*
X0104348Y0088577D01*
X0104440D01*
Y0088577D01*
X0105748D01*
Y0089985D01*
X0104440D01*
Y0089985D01*
D02*
G37*
G36*
X0055461Y0090693D02*
X0054834D01*
Y0089916D01*
X0055461D01*
Y0090693D01*
D02*
G37*
G36*
X0095504Y0090435D02*
X0095383Y0090411D01*
X0095173Y0090270D01*
X0095033Y0090060D01*
X0095009Y0089939D01*
X0095504D01*
Y0090435D01*
D02*
G37*
G36*
X0059337Y0089873D02*
Y0089507D01*
X0059703D01*
X0059689Y0089578D01*
X0059576Y0089746D01*
X0059408Y0089859D01*
X0059337Y0089873D01*
D02*
G37*
G36*
X0061468Y0089901D02*
X0061397Y0089887D01*
X0061229Y0089774D01*
X0061116Y0089606D01*
X0061102Y0089535D01*
X0061468D01*
Y0089901D01*
D02*
G37*
G36*
X0061722D02*
Y0089535D01*
X0062088D01*
X0062074Y0089606D01*
X0061961Y0089774D01*
X0061793Y0089887D01*
X0061722Y0089901D01*
D02*
G37*
G36*
X0142310Y0092595D02*
X0142062Y0092546D01*
X0141852Y0092406D01*
X0141806Y0092336D01*
X0140094D01*
X0139945Y0092307D01*
X0139819Y0092223D01*
X0137717Y0090121D01*
X0137633Y0089995D01*
X0137604Y0089846D01*
Y0086972D01*
X0135972Y0085340D01*
X0135890Y0085356D01*
X0135642Y0085307D01*
X0135432Y0085167D01*
X0135292Y0084957D01*
X0135243Y0084709D01*
X0135292Y0084461D01*
X0135432Y0084251D01*
X0135642Y0084111D01*
X0135890Y0084062D01*
X0136138Y0084111D01*
X0136348Y0084251D01*
X0136488Y0084461D01*
X0136537Y0084709D01*
X0136521Y0084791D01*
X0138267Y0086536D01*
X0138351Y0086662D01*
X0138380Y0086811D01*
Y0089685D01*
X0140255Y0091560D01*
X0141806D01*
X0141852Y0091490D01*
X0142062Y0091350D01*
X0142310Y0091301D01*
X0142558Y0091350D01*
X0142768Y0091490D01*
X0142908Y0091700D01*
X0142957Y0091948D01*
X0142908Y0092196D01*
X0142768Y0092406D01*
X0142558Y0092546D01*
X0142310Y0092595D01*
D02*
G37*
G36*
X0065532Y0097673D02*
X0065334Y0097634D01*
X0065166Y0097521D01*
X0065053Y0097353D01*
X0065014Y0097155D01*
X0065053Y0096957D01*
X0065166Y0096789D01*
X0065334Y0096676D01*
X0065493Y0096645D01*
X0066668Y0095470D01*
Y0093170D01*
X0066577Y0093035D01*
X0066538Y0092837D01*
X0066577Y0092639D01*
X0066690Y0092471D01*
X0066858Y0092358D01*
X0067056Y0092319D01*
X0067254Y0092358D01*
X0067422Y0092471D01*
X0067535Y0092639D01*
X0067574Y0092837D01*
X0067535Y0093035D01*
X0067444Y0093170D01*
Y0095631D01*
X0067415Y0095780D01*
X0067331Y0095906D01*
X0066042Y0097194D01*
X0066011Y0097353D01*
X0065898Y0097521D01*
X0065730Y0097634D01*
X0065532Y0097673D01*
D02*
G37*
G36*
X0109855Y0094869D02*
X0109360D01*
X0109384Y0094748D01*
X0109524Y0094538D01*
X0109734Y0094398D01*
X0109855Y0094374D01*
Y0094869D01*
D02*
G37*
G36*
X0095758Y0090435D02*
Y0089939D01*
X0096253D01*
X0096229Y0090060D01*
X0096089Y0090270D01*
X0095879Y0090411D01*
X0095758Y0090435D01*
D02*
G37*
G36*
X0167894Y0091577D02*
X0167696Y0091538D01*
X0167561Y0091447D01*
X0157861D01*
X0157737Y0091423D01*
X0157712Y0091418D01*
X0157586Y0091334D01*
X0153250Y0086997D01*
X0153091Y0086966D01*
X0152923Y0086853D01*
X0152810Y0086685D01*
X0152771Y0086487D01*
X0152810Y0086289D01*
X0152923Y0086121D01*
X0153091Y0086008D01*
X0153289Y0085969D01*
X0153487Y0086008D01*
X0153655Y0086121D01*
X0153768Y0086289D01*
X0153799Y0086448D01*
X0158022Y0090671D01*
X0167561D01*
X0167696Y0090580D01*
X0167894Y0090541D01*
X0168092Y0090580D01*
X0168260Y0090693D01*
X0168373Y0090861D01*
X0168412Y0091059D01*
X0168373Y0091257D01*
X0168260Y0091425D01*
X0168092Y0091538D01*
X0167894Y0091577D01*
D02*
G37*
G36*
X0059690Y0091831D02*
X0059492Y0091792D01*
X0059357Y0091701D01*
X0057658D01*
X0057509Y0091672D01*
X0057383Y0091588D01*
X0056913Y0091118D01*
X0056829Y0090992D01*
X0056800Y0090843D01*
Y0090693D01*
X0056434D01*
D01*
D01*
X0056434Y0090693D01*
X0056342D01*
Y0090693D01*
X0055715D01*
Y0089789D01*
Y0088885D01*
X0056342D01*
Y0088885D01*
X0056342D01*
X0056342Y0088885D01*
X0056434D01*
Y0088885D01*
X0057942D01*
Y0090693D01*
X0057753D01*
X0057705Y0090810D01*
X0057819Y0090925D01*
X0059357D01*
X0059492Y0090834D01*
X0059690Y0090795D01*
X0059888Y0090834D01*
X0060056Y0090947D01*
X0060169Y0091115D01*
X0060208Y0091313D01*
X0060169Y0091511D01*
X0060056Y0091679D01*
X0059888Y0091792D01*
X0059690Y0091831D01*
D02*
G37*
G36*
X0059083Y0089873D02*
X0059012Y0089859D01*
X0058844Y0089746D01*
X0058731Y0089578D01*
X0058717Y0089507D01*
X0059083D01*
Y0089873D01*
D02*
G37*
G36*
X0055461Y0089662D02*
X0054834D01*
Y0088885D01*
X0055461D01*
Y0089662D01*
D02*
G37*
G36*
X0059083Y0089253D02*
X0058717D01*
X0058731Y0089182D01*
X0058844Y0089014D01*
X0059012Y0088901D01*
X0059083Y0088887D01*
Y0089253D01*
D02*
G37*
G36*
X0059703D02*
X0059337D01*
Y0088887D01*
X0059408Y0088901D01*
X0059576Y0089014D01*
X0059689Y0089182D01*
X0059703Y0089253D01*
D02*
G37*
G36*
X0078372Y0089154D02*
X0076749D01*
X0076770Y0088937D01*
X0076871Y0088607D01*
X0077034Y0088302D01*
X0077253Y0088035D01*
X0077520Y0087816D01*
X0077825Y0087653D01*
X0078155Y0087552D01*
X0078372Y0087531D01*
Y0089154D01*
D02*
G37*
G36*
X0080249D02*
X0078626D01*
Y0087531D01*
X0078843Y0087552D01*
X0079173Y0087653D01*
X0079478Y0087816D01*
X0079745Y0088035D01*
X0079964Y0088302D01*
X0080127Y0088607D01*
X0080228Y0088937D01*
X0080249Y0089154D01*
D02*
G37*
G36*
X0068961Y0088783D02*
X0068763Y0088744D01*
X0068595Y0088631D01*
X0068482Y0088463D01*
X0068443Y0088265D01*
X0068482Y0088067D01*
X0068573Y0087932D01*
Y0087591D01*
X0068455Y0087542D01*
X0067693Y0088304D01*
X0067662Y0088463D01*
X0067549Y0088631D01*
X0067381Y0088744D01*
X0067183Y0088783D01*
X0066985Y0088744D01*
X0066817Y0088631D01*
X0066704Y0088463D01*
X0066665Y0088265D01*
X0066704Y0088067D01*
X0066817Y0087899D01*
X0066985Y0087786D01*
X0067144Y0087755D01*
X0068065Y0086834D01*
Y0078997D01*
X0067943Y0078960D01*
X0067930Y0078979D01*
X0067762Y0079092D01*
X0067564Y0079131D01*
X0067366Y0079092D01*
X0067198Y0078979D01*
X0067085Y0078811D01*
X0067054Y0078652D01*
X0066895Y0078493D01*
X0063249D01*
X0063212Y0078615D01*
X0063231Y0078628D01*
X0063344Y0078796D01*
X0063383Y0078994D01*
X0063344Y0079192D01*
X0063253Y0079327D01*
Y0083185D01*
X0063224Y0083334D01*
X0063140Y0083460D01*
X0061253Y0085346D01*
X0061302Y0085464D01*
X0063548D01*
X0063683Y0085373D01*
X0063881Y0085334D01*
X0064079Y0085373D01*
X0064247Y0085486D01*
X0064360Y0085654D01*
X0064399Y0085852D01*
X0064360Y0086050D01*
X0064247Y0086218D01*
X0064079Y0086331D01*
X0063881Y0086370D01*
X0063683Y0086331D01*
X0063548Y0086240D01*
X0061121D01*
X0060473Y0086889D01*
X0060347Y0086973D01*
X0060198Y0087002D01*
X0056772D01*
X0056623Y0086973D01*
X0056497Y0086889D01*
X0056033Y0086424D01*
X0055874Y0086393D01*
X0055706Y0086280D01*
X0055593Y0086112D01*
X0055554Y0085914D01*
X0055593Y0085716D01*
X0055684Y0085581D01*
Y0082253D01*
X0055303D01*
Y0080945D01*
X0055303Y0080945D01*
X0055303Y0080853D01*
X0055303D01*
Y0080326D01*
X0056711D01*
Y0080853D01*
D01*
Y0080853D01*
X0056711Y0080853D01*
Y0080945D01*
X0056711D01*
Y0082253D01*
X0056460D01*
Y0085581D01*
X0056551Y0085716D01*
X0056582Y0085875D01*
X0056933Y0086226D01*
X0057401D01*
X0057438Y0086104D01*
X0057419Y0086091D01*
X0057306Y0085923D01*
X0057267Y0085725D01*
X0057306Y0085527D01*
X0057419Y0085359D01*
X0057587Y0085246D01*
X0057785Y0085207D01*
X0057983Y0085246D01*
X0058085Y0085314D01*
X0058208Y0085283D01*
X0058239Y0085225D01*
X0058197Y0085161D01*
X0058158Y0084963D01*
X0058197Y0084765D01*
X0058309Y0084597D01*
X0058477Y0084484D01*
X0058676Y0084445D01*
X0058874Y0084484D01*
X0059009Y0084575D01*
X0060164D01*
X0060296Y0084442D01*
X0060236Y0084330D01*
X0060198Y0084338D01*
X0060000Y0084299D01*
X0059832Y0084186D01*
X0059719Y0084018D01*
X0059688Y0083859D01*
X0059550Y0083722D01*
X0059438Y0083782D01*
X0059446Y0083820D01*
X0059407Y0084018D01*
X0059294Y0084186D01*
X0059126Y0084299D01*
X0058928Y0084338D01*
X0058730Y0084299D01*
X0058562Y0084186D01*
X0058449Y0084018D01*
X0058418Y0083859D01*
X0057510Y0082952D01*
X0057426Y0082826D01*
X0057397Y0082677D01*
Y0079327D01*
X0057306Y0079192D01*
X0057267Y0078994D01*
X0057306Y0078796D01*
X0057419Y0078628D01*
X0057438Y0078615D01*
X0057401Y0078493D01*
X0057184D01*
X0057025Y0078652D01*
X0056994Y0078811D01*
X0056881Y0078979D01*
X0056713Y0079092D01*
X0056515Y0079131D01*
X0056317Y0079092D01*
X0056149Y0078979D01*
X0056036Y0078811D01*
X0055997Y0078613D01*
X0056036Y0078415D01*
X0056149Y0078247D01*
X0056317Y0078134D01*
X0056476Y0078103D01*
X0056748Y0077830D01*
X0056874Y0077746D01*
X0057023Y0077717D01*
X0067056D01*
X0067205Y0077746D01*
X0067331Y0077830D01*
X0067603Y0078103D01*
X0067762Y0078134D01*
X0067930Y0078247D01*
X0067943Y0078266D01*
X0068065Y0078229D01*
Y0073440D01*
X0062577Y0067952D01*
X0059690D01*
X0059541Y0067923D01*
X0059415Y0067839D01*
X0058780Y0067204D01*
X0058696Y0067078D01*
X0058667Y0066929D01*
Y0066886D01*
X0058351D01*
Y0065578D01*
X0058351Y0065578D01*
X0058351Y0065486D01*
X0058351D01*
Y0064178D01*
X0058545D01*
X0058594Y0064061D01*
X0058105Y0063572D01*
X0057681D01*
X0057656Y0063631D01*
X0057494Y0063844D01*
X0057281Y0064006D01*
X0057034Y0064109D01*
X0056769Y0064144D01*
X0056504Y0064109D01*
X0056257Y0064006D01*
X0056044Y0063844D01*
X0055882Y0063631D01*
X0055779Y0063384D01*
X0055744Y0063119D01*
X0055779Y0062854D01*
X0055882Y0062607D01*
X0056044Y0062394D01*
X0056257Y0062232D01*
X0056504Y0062129D01*
X0056769Y0062094D01*
X0057034Y0062129D01*
X0057281Y0062232D01*
X0057494Y0062394D01*
X0057656Y0062607D01*
X0057681Y0062666D01*
X0058293D01*
X0058466Y0062700D01*
X0058613Y0062799D01*
X0059375Y0063561D01*
X0059474Y0063708D01*
X0059508Y0063881D01*
Y0064178D01*
X0059759D01*
Y0065486D01*
D01*
Y0065486D01*
X0059759Y0065486D01*
Y0065578D01*
X0059759D01*
Y0066886D01*
X0059727D01*
X0059679Y0067003D01*
X0059851Y0067176D01*
X0062425D01*
X0062506Y0067078D01*
D01*
X0062506D01*
X0062477Y0066929D01*
Y0066886D01*
X0062161D01*
Y0065578D01*
X0062161Y0065578D01*
X0062161Y0065486D01*
X0062161D01*
Y0064178D01*
X0063569D01*
Y0064317D01*
X0065852D01*
X0066726Y0063443D01*
X0066701Y0063384D01*
X0066666Y0063119D01*
X0066701Y0062854D01*
X0066804Y0062607D01*
X0066966Y0062394D01*
X0067179Y0062232D01*
X0067426Y0062129D01*
X0067691Y0062094D01*
X0067956Y0062129D01*
X0068203Y0062232D01*
X0068416Y0062394D01*
X0068578Y0062607D01*
X0068681Y0062854D01*
X0068716Y0063119D01*
X0068681Y0063384D01*
X0068578Y0063631D01*
X0068416Y0063844D01*
X0068203Y0064006D01*
X0067956Y0064109D01*
X0067691Y0064144D01*
X0067426Y0064109D01*
X0067367Y0064084D01*
X0066360Y0065090D01*
X0066213Y0065189D01*
X0066040Y0065223D01*
X0063569D01*
Y0065486D01*
D01*
Y0065486D01*
X0063569Y0065486D01*
Y0065578D01*
X0063569D01*
Y0066886D01*
X0063537D01*
X0063489Y0067003D01*
X0069236Y0072750D01*
X0069320Y0072876D01*
X0069349Y0073025D01*
Y0087932D01*
X0069440Y0088067D01*
X0069479Y0088265D01*
X0069440Y0088463D01*
X0069327Y0088631D01*
X0069159Y0088744D01*
X0068961Y0088783D01*
D02*
G37*
G36*
X0096253Y0089685D02*
X0095758D01*
Y0089190D01*
X0095879Y0089214D01*
X0096089Y0089355D01*
X0096229Y0089565D01*
X0096253Y0089685D01*
D02*
G37*
G36*
X0078372Y0091031D02*
X0078155Y0091010D01*
X0077825Y0090909D01*
X0077520Y0090746D01*
X0077253Y0090527D01*
X0077034Y0090260D01*
X0076871Y0089955D01*
X0076770Y0089625D01*
X0076749Y0089408D01*
X0078372D01*
Y0091031D01*
D02*
G37*
G36*
X0078626D02*
Y0089408D01*
X0080249D01*
X0080228Y0089625D01*
X0080127Y0089955D01*
X0079964Y0090260D01*
X0079745Y0090527D01*
X0079478Y0090746D01*
X0079173Y0090909D01*
X0078843Y0091010D01*
X0078626Y0091031D01*
D02*
G37*
G36*
X0061468Y0089281D02*
X0061102D01*
X0061116Y0089210D01*
X0061229Y0089042D01*
X0061397Y0088929D01*
X0061468Y0088915D01*
Y0089281D01*
D02*
G37*
G36*
X0062088D02*
X0061722D01*
Y0088915D01*
X0061793Y0088929D01*
X0061961Y0089042D01*
X0062074Y0089210D01*
X0062088Y0089281D01*
D02*
G37*
G36*
X0095504Y0089685D02*
X0095009D01*
X0095033Y0089565D01*
X0095173Y0089355D01*
X0095383Y0089214D01*
X0095504Y0089190D01*
Y0089685D01*
D02*
G37*
%LPD*%
D14*
X0088965Y0075819D02*
D03*
X0087565D02*
D03*
X0088965Y0074295D02*
D03*
X0087565D02*
D03*
X0091251Y0078105D02*
D03*
X0089851D02*
D03*
X0093407Y0078105D02*
D03*
X0094807D02*
D03*
X0085660Y0078359D02*
D03*
X0087060D02*
D03*
X0082869Y0078359D02*
D03*
X0081469D02*
D03*
X0083755Y0074295D02*
D03*
X0085155D02*
D03*
X0083755Y0075819D02*
D03*
X0085155D02*
D03*
X0105094Y0089281D02*
D03*
X0103694D02*
D03*
D17*
X0071755Y0063689D02*
D03*
Y0065089D02*
D03*
X0094615Y0063689D02*
D03*
Y0065089D02*
D03*
X0097155Y0063689D02*
D03*
Y0065089D02*
D03*
X0156210Y0063689D02*
D03*
Y0065089D02*
D03*
X0145415Y0063689D02*
D03*
Y0065089D02*
D03*
X0147955Y0063689D02*
D03*
Y0065089D02*
D03*
X0060325Y0071439D02*
D03*
Y0070039D02*
D03*
X0061722Y0071439D02*
D03*
Y0070039D02*
D03*
X0059055Y0066232D02*
D03*
Y0064832D02*
D03*
X0062865Y0066232D02*
D03*
Y0064832D02*
D03*
X0066040Y0084263D02*
D03*
Y0085663D02*
D03*
X0056007Y0081599D02*
D03*
Y0080199D02*
D03*
X0064262Y0081599D02*
D03*
Y0080199D02*
D03*
D27*
X0104728Y0071628D02*
X0106680Y0069676D01*
X0092202Y0099060D02*
X0093599Y0100457D01*
Y0105791D01*
X0156210Y0061595D02*
Y0063689D01*
X0147955Y0063689D02*
X0149671D01*
X0150495Y0062865D01*
Y0061595D02*
Y0062865D01*
X0145415Y0061595D02*
Y0063689D01*
X0106680Y0069676D02*
X0106680Y0064199D01*
X0108775Y0062103D01*
X0059055Y0063881D02*
Y0064832D01*
X0058293Y0063119D02*
X0059055Y0063881D01*
X0056769Y0063119D02*
X0058293D01*
X0066040Y0064770D02*
X0067691Y0063119D01*
X0063054Y0064770D02*
X0066040D01*
X0071755Y0061595D02*
Y0063689D01*
X0097155Y0061595D02*
Y0063689D01*
X0092075Y0061595D02*
Y0062865D01*
X0092899Y0063689D01*
X0094615D01*
D28*
X0157861Y0091059D02*
X0167894D01*
X0153289Y0086487D02*
X0157861Y0091059D01*
X0086360Y0074295D02*
X0087565D01*
X0086360Y0075819D02*
X0087565D01*
X0085217Y0101473D02*
X0089027D01*
X0082550Y0098806D02*
X0085217Y0101473D01*
X0082550Y0097155D02*
Y0098806D01*
X0115951Y0080772D02*
Y0081534D01*
X0112196Y0085289D02*
X0115951Y0081534D01*
X0110236Y0085289D02*
X0112196D01*
X0108045Y0093789D02*
Y0101886D01*
X0104775Y0105156D02*
X0108045Y0101886D01*
X0102616Y0105156D02*
X0104775D01*
X0093407Y0078105D02*
Y0079945D01*
X0091251Y0078105D02*
Y0079945D01*
X0089154Y0098933D02*
X0089916Y0098171D01*
X0093980D01*
X0122682Y0087249D02*
X0133223Y0097790D01*
X0120904Y0087249D02*
X0122682D01*
X0118110Y0084455D02*
X0120904Y0087249D01*
X0152527Y0106070D02*
X0153772Y0107315D01*
X0152527Y0103886D02*
Y0106070D01*
X0146939Y0098298D02*
X0152527Y0103886D01*
X0132548Y0099314D02*
X0145923D01*
X0132759Y0098806D02*
X0146431D01*
X0118618Y0088773D02*
X0122007D01*
X0119380Y0088265D02*
X0122218D01*
X0122007Y0088773D02*
X0132548Y0099314D01*
X0122218Y0088265D02*
X0132759Y0098806D01*
X0132969Y0098298D02*
X0146939D01*
X0122428Y0087757D02*
X0132969Y0098298D01*
X0120142Y0087757D02*
X0122428D01*
X0117475Y0085090D02*
X0120142Y0087757D01*
X0145923Y0099314D02*
X0149987Y0103378D01*
Y0106070D01*
X0116205Y0086360D02*
X0118618Y0088773D01*
X0116840Y0085725D02*
X0119380Y0088265D01*
X0151232Y0103607D02*
Y0104775D01*
X0146431Y0098806D02*
X0151232Y0103607D01*
X0149987Y0106070D02*
X0151232Y0107315D01*
X0129682Y0083693D02*
X0131191Y0082185D01*
X0115824Y0083693D02*
X0129682D01*
X0107315Y0092202D02*
X0115824Y0083693D01*
X0128794Y0083185D02*
X0132461Y0079518D01*
X0134874Y0103505D02*
X0147422D01*
X0121285Y0089916D02*
X0134874Y0103505D01*
X0111125Y0089916D02*
X0121285D01*
X0147422Y0103505D02*
X0148692Y0104775D01*
X0147422Y0106045D02*
X0148692Y0107315D01*
X0136652Y0106045D02*
X0147422D01*
X0121158Y0090551D02*
X0136652Y0106045D01*
X0111760Y0090551D02*
X0121158D01*
X0105283Y0092202D02*
X0107315D01*
X0137992Y0086811D02*
Y0089846D01*
X0135890Y0084709D02*
X0137992Y0086811D01*
X0102660Y0092583D02*
X0106426Y0096349D01*
Y0099949D01*
X0082913Y0078359D02*
Y0080988D01*
X0094107Y0080645D02*
Y0082804D01*
X0090551Y0080645D02*
Y0082804D01*
X0063311Y0071439D02*
X0064135Y0072263D01*
X0061595Y0071439D02*
X0063311D01*
X0061595Y0090932D02*
X0068409D01*
X0061214Y0091313D02*
X0061595Y0090932D01*
X0062484Y0091440D02*
X0068199D01*
X0061214Y0092710D02*
X0062484Y0091440D01*
X0057658Y0091313D02*
X0059690D01*
X0060234Y0094071D02*
X0061087Y0094924D01*
X0054356Y0092710D02*
X0061214D01*
X0060325Y0085725D02*
X0062865Y0083185D01*
X0060325Y0084963D02*
X0061595Y0083693D01*
X0060960Y0085852D02*
X0063881D01*
X0060198Y0086614D02*
X0060960Y0085852D01*
X0056772Y0086614D02*
X0060198D01*
X0056072Y0081599D02*
Y0085914D01*
X0056772Y0086614D01*
X0057785Y0085725D02*
X0060325D01*
X0058676Y0084963D02*
X0060325D01*
X0059690Y0067564D02*
X0062738D01*
X0062865Y0066232D02*
Y0066929D01*
X0068961Y0073025D01*
X0062738Y0067564D02*
X0068453Y0073279D01*
X0068961Y0073025D02*
Y0088265D01*
X0068453Y0073279D02*
Y0086995D01*
X0062865Y0074803D02*
X0064135Y0073533D01*
X0060325Y0074803D02*
X0062865D01*
X0060325Y0071439D02*
Y0076073D01*
X0064135Y0072263D02*
Y0073533D01*
X0085155Y0075819D02*
X0086360D01*
X0085155Y0074295D02*
X0086360D01*
X0082677Y0075819D02*
X0083755D01*
X0080645Y0073787D02*
X0082677Y0075819D01*
X0082931Y0074295D02*
X0083755D01*
X0081915Y0073279D02*
X0082931Y0074295D01*
X0081915Y0071184D02*
Y0073279D01*
X0080645Y0070422D02*
Y0073787D01*
Y0070422D02*
X0081915Y0069151D01*
X0060234Y0094071D02*
X0061087Y0094924D01*
Y0099060D01*
X0061722Y0099695D01*
X0059690Y0100965D02*
X0066421D01*
X0060706Y0100203D02*
X0066465D01*
X0061722Y0099695D02*
X0066254D01*
X0062103Y0098806D02*
X0066425D01*
X0066421Y0100965D02*
X0069850Y0097536D01*
X0066465Y0100203D02*
X0069640Y0097028D01*
X0066254Y0099695D02*
X0069429Y0096520D01*
X0066425Y0098806D02*
X0069219Y0096012D01*
X0065532Y0097155D02*
X0067056Y0095631D01*
Y0092837D02*
Y0095631D01*
X0069850Y0097536D02*
X0074295D01*
X0069640Y0097028D02*
X0074041D01*
X0069429Y0096520D02*
X0073787D01*
X0069219Y0096012D02*
X0073533D01*
X0096520Y0068264D02*
Y0077216D01*
X0097155Y0065089D02*
Y0076581D01*
X0097790Y0077216D01*
X0094615Y0066359D02*
X0096520Y0068264D01*
X0094615Y0065089D02*
Y0066359D01*
X0071755Y0065089D02*
X0073976D01*
X0102108Y0089281D02*
X0103694D01*
X0136779Y0087249D02*
Y0089789D01*
X0140094Y0091948D02*
X0142310D01*
X0137992Y0089846D02*
X0140094Y0091948D01*
X0132461Y0077724D02*
Y0079518D01*
X0101981Y0093091D02*
X0102489Y0093599D01*
X0074168Y0093091D02*
X0101981D01*
X0100965Y0093599D02*
X0101981Y0094615D01*
X0074422Y0093599D02*
X0100965D01*
X0135382Y0070485D02*
X0143720D01*
X0132461Y0073406D02*
X0135382Y0070485D01*
X0132461Y0073406D02*
Y0077724D01*
X0135255Y0069850D02*
X0143510D01*
X0131191Y0073914D02*
X0135255Y0069850D01*
X0131191Y0073914D02*
Y0077724D01*
X0143510Y0069850D02*
X0145415Y0067945D01*
X0143720Y0070485D02*
X0147955Y0066250D01*
X0145415Y0065089D02*
Y0067945D01*
X0147955Y0065089D02*
Y0066250D01*
X0059055Y0066232D02*
Y0066929D01*
X0059690Y0067564D01*
X0056515Y0078613D02*
X0057023Y0078105D01*
X0067056D01*
X0057188Y0090843D02*
X0057658Y0091313D01*
X0057188Y0089789D02*
Y0090843D01*
X0065405Y0087503D02*
X0066040Y0086868D01*
Y0085663D02*
Y0086868D01*
X0067183Y0088265D02*
X0068453Y0086995D01*
X0064262Y0081599D02*
Y0083058D01*
X0062865Y0078994D02*
Y0083185D01*
X0061595Y0078994D02*
Y0083693D01*
X0067056Y0078105D02*
X0067564Y0078613D01*
X0059055Y0078994D02*
Y0082677D01*
X0057785Y0078994D02*
Y0082677D01*
X0058928Y0083820D01*
X0059055Y0082677D02*
X0060198Y0083820D01*
X0072898Y0093599D02*
X0073914Y0092583D01*
X0071120Y0093599D02*
X0072898D01*
X0069723Y0092246D02*
Y0093897D01*
X0069215Y0092456D02*
Y0094107D01*
X0072771Y0094488D02*
X0074168Y0093091D01*
X0073025Y0094996D02*
X0074422Y0093599D01*
X0070104Y0094996D02*
X0073025D01*
X0070314Y0094488D02*
X0072771D01*
X0069723Y0093897D02*
X0070314Y0094488D01*
X0069215Y0094107D02*
X0070104Y0094996D01*
X0068409Y0090932D02*
X0069723Y0092246D01*
X0061595Y0090932D02*
X0068409D01*
X0061214Y0091313D02*
X0061595Y0090932D01*
X0068199Y0091440D02*
X0069215Y0092456D01*
X0062484Y0091440D02*
X0068199D01*
X0061214Y0092710D02*
X0062484Y0091440D01*
X0054356Y0092710D02*
X0061214D01*
X0069850Y0090170D02*
X0073152Y0086868D01*
X0071752Y0091571D02*
X0103121D01*
X0073025Y0092075D02*
X0102870D01*
X0072390Y0092710D02*
X0073025Y0092075D01*
X0064008Y0098298D02*
X0066214D01*
X0062230Y0096520D02*
X0064008Y0098298D01*
X0062230Y0093599D02*
Y0096520D01*
X0069008Y0095504D02*
X0073279D01*
X0066214Y0098298D02*
X0069008Y0095504D01*
X0075692Y0096139D02*
X0099060D01*
X0075438Y0095631D02*
X0099314D01*
X0075184Y0095123D02*
X0099568D01*
X0074930Y0094615D02*
X0099822D01*
X0074676Y0094107D02*
X0100076D01*
X0073279Y0095504D02*
X0074676Y0094107D01*
X0074295Y0097536D02*
X0075692Y0096139D01*
X0074041Y0097028D02*
X0075438Y0095631D01*
X0073787Y0096520D02*
X0075184Y0095123D01*
X0073533Y0096012D02*
X0074930Y0094615D01*
X0073914Y0092583D02*
X0102660D01*
X0082550Y0086868D02*
X0088392D01*
X0073152Y0086868D02*
X0082550D01*
X0089282Y0087758D02*
X0092456D01*
X0088392Y0086868D02*
X0089282Y0087758D01*
X0099060Y0096139D02*
X0101600Y0098679D01*
Y0101092D01*
X0102489Y0101981D02*
X0103759D01*
X0101600Y0101092D02*
X0102489Y0101981D01*
X0102108Y0098425D02*
Y0100330D01*
X0099314Y0095631D02*
X0102108Y0098425D01*
X0099568Y0095123D02*
X0102997Y0098552D01*
Y0099822D01*
X0102108Y0100330D02*
X0102870Y0101092D01*
X0105537Y0097155D02*
Y0101346D01*
X0101346Y0096139D02*
X0104521D01*
X0105537Y0097155D01*
X0099822Y0094615D02*
X0101346Y0096139D01*
X0101473Y0095504D02*
X0103759D01*
X0100076Y0094107D02*
X0101473Y0095504D01*
X0103759D02*
X0104013Y0095250D01*
X0104648Y0093853D02*
X0106172D01*
X0104648Y0093091D02*
X0107061D01*
X0102870Y0092075D02*
X0104648Y0093853D01*
X0103125Y0091568D02*
X0104648Y0093091D01*
X0133223Y0097790D02*
X0147955D01*
X0153772Y0103607D01*
Y0104775D01*
X0106172Y0091313D02*
X0107442D01*
X0115570Y0083185D01*
X0128794D01*
X0085674Y0078359D02*
Y0081102D01*
X0091327Y0086755D01*
X0083009Y0081345D02*
X0083960Y0082296D01*
X0085570D01*
X0090029Y0086755D01*
D43*
X0061659Y0089408D02*
D03*
D65*
X0100838Y0103124D02*
D03*
D69*
X0104330Y0084582D02*
D03*
D71*
X0172911Y0100965D02*
D03*
D72*
X0104267Y0062357D02*
D03*
X0070993Y0103124D02*
D03*
D73*
X0173609Y0085281D02*
D03*
D75*
X0115140Y0065634D02*
D03*
X0140130D02*
D03*
D76*
X0133175Y0067054D02*
D03*
D77*
X0131790Y0064214D02*
D03*
X0130405Y0067054D02*
D03*
X0129020Y0064214D02*
D03*
X0127635Y0067054D02*
D03*
X0126250Y0064214D02*
D03*
X0124865Y0067054D02*
D03*
X0123480Y0064214D02*
D03*
X0122095Y0067054D02*
D03*
D78*
X0065151Y0095631D02*
D03*
X0059690Y0102489D02*
D03*
X0093980Y0098171D02*
D03*
X0089154Y0098933D02*
D03*
X0090043Y0086741D02*
D03*
X0091313D02*
D03*
X0094107Y0082804D02*
D03*
X0090551D02*
D03*
X0104728Y0071628D02*
D03*
X0086360Y0075819D02*
D03*
Y0074295D02*
D03*
X0096520Y0077216D02*
D03*
X0097790D02*
D03*
X0074041Y0065024D02*
D03*
X0104267Y0084582D02*
D03*
X0110236Y0086868D02*
D03*
X0109982Y0094996D02*
D03*
X0102108Y0089281D02*
D03*
X0095631Y0089812D02*
D03*
X0136779Y0089789D02*
D03*
X0135890Y0084709D02*
D03*
X0142310Y0091948D02*
D03*
X0136779Y0087249D02*
D03*
X0132461Y0077724D02*
D03*
X0131191D02*
D03*
Y0082185D02*
D03*
X0106172Y0091313D02*
D03*
X0105283Y0092202D02*
D03*
X0106172Y0091313D02*
D03*
X0105283Y0092202D02*
D03*
X0101981Y0094615D02*
D03*
X0102489Y0093599D02*
D03*
X0106426Y0099949D02*
D03*
X0103759Y0101981D02*
D03*
X0102870Y0101092D02*
D03*
X0102997Y0099822D02*
D03*
X0105537Y0101346D02*
D03*
X0082550Y0086868D02*
D03*
X0092456Y0087758D02*
D03*
X0104013Y0095250D02*
D03*
X0106172Y0093853D02*
D03*
X0107061Y0093091D02*
D03*
X0100838Y0103124D02*
D03*
X0089027Y0101473D02*
D03*
X0092202Y0099060D02*
D03*
D79*
X0167894Y0091059D02*
D03*
X0153289Y0086487D02*
D03*
X0082550Y0097155D02*
D03*
X0115951Y0080772D02*
D03*
X0110236Y0085289D02*
D03*
X0102616Y0105156D02*
D03*
X0108045Y0093789D02*
D03*
X0118110Y0084455D02*
D03*
X0117475Y0085090D02*
D03*
X0116840Y0085725D02*
D03*
X0116205Y0086360D02*
D03*
X0111125Y0089916D02*
D03*
X0111760Y0090551D02*
D03*
X0054356Y0092710D02*
D03*
X0060234Y0094071D02*
D03*
X0061595Y0089408D02*
D03*
X0059690Y0091313D02*
D03*
X0059210Y0089380D02*
D03*
X0063881Y0085852D02*
D03*
X0056072Y0085914D02*
D03*
X0057785Y0085725D02*
D03*
X0058676Y0084963D02*
D03*
X0061595Y0078994D02*
D03*
X0059055D02*
D03*
X0060234Y0094071D02*
D03*
X0059690Y0100965D02*
D03*
X0060706Y0100203D02*
D03*
X0062103Y0098806D02*
D03*
X0067056Y0092837D02*
D03*
X0065532Y0097155D02*
D03*
X0056515Y0078613D02*
D03*
X0057785Y0078994D02*
D03*
X0065405Y0087503D02*
D03*
X0067183Y0088265D02*
D03*
X0068961D02*
D03*
X0064262Y0083058D02*
D03*
X0062865Y0078994D02*
D03*
X0071755Y0091568D02*
D03*
X0069850Y0090170D02*
D03*
X0067564Y0078613D02*
D03*
X0058928Y0083820D02*
D03*
X0060198D02*
D03*
X0071120Y0093599D02*
D03*
X0061214Y0091313D02*
D03*
X0072390Y0092710D02*
D03*
X0062230Y0093599D02*
D03*
D80*
X0070993Y0103124D02*
D03*
X0104203Y0062103D02*
D03*
X0108775D02*
D03*
X0146050Y0077470D02*
D03*
X0143256D02*
D03*
X0155067Y0075692D02*
D03*
Y0072898D02*
D03*
X0065151Y0063119D02*
D03*
X0067691D02*
D03*
X0056769D02*
D03*
X0054229D02*
D03*
X0084455Y0069151D02*
D03*
X0081915D02*
D03*
Y0071184D02*
D03*
X0119380Y0070104D02*
D03*
D81*
X0074295Y0106553D02*
D03*
X0093599Y0105791D02*
D03*
X0119380Y0081091D02*
D03*
D82*
X0172720Y0097155D02*
D03*
D83*
Y0100965D02*
D03*
D84*
X0146152Y0104775D02*
D03*
X0114402D02*
D03*
D85*
X0146152Y0107315D02*
D03*
X0148692Y0104775D02*
D03*
Y0107315D02*
D03*
X0151232Y0104775D02*
D03*
Y0107315D02*
D03*
X0153772Y0104775D02*
D03*
Y0107315D02*
D03*
X0174625Y0073279D02*
D03*
X0114402Y0107315D02*
D03*
X0116942Y0104775D02*
D03*
Y0107315D02*
D03*
X0119482Y0104775D02*
D03*
Y0107315D02*
D03*
X0122022Y0104775D02*
D03*
Y0107315D02*
D03*
X0124562Y0104775D02*
D03*
Y0107315D02*
D03*
X0127102Y0104775D02*
D03*
Y0107315D02*
D03*
X0129642Y0104775D02*
D03*
Y0107315D02*
D03*
X0132182Y0104775D02*
D03*
Y0107315D02*
D03*
D86*
X0102934Y0064643D02*
D03*
X0109919D02*
D03*
D87*
X0048895Y0062865D02*
D03*
X0173990D02*
D03*
X0048895Y0107950D02*
D03*
X0173990D02*
D03*
D88*
X0055245Y0076073D02*
D03*
X0056515Y0073533D02*
D03*
X0057785Y0076073D02*
D03*
X0059055Y0073533D02*
D03*
X0060325Y0076073D02*
D03*
X0062865D02*
D03*
X0065405D02*
D03*
X0061595Y0073533D02*
D03*
X0064135D02*
D03*
X0066675D02*
D03*
D89*
X0069215Y0070231D02*
D03*
X0052705D02*
D03*
D90*
X0074295Y0061595D02*
D03*
X0071755D02*
D03*
X0094615D02*
D03*
X0092075D02*
D03*
X0099695D02*
D03*
X0097155D02*
D03*
X0147955D02*
D03*
X0145415D02*
D03*
X0153035D02*
D03*
X0150495D02*
D03*
X0158750D02*
D03*
X0156210D02*
D03*
D91*
X0084455Y0071184D02*
D03*
D92*
X0089535Y0066484D02*
D03*
X0076835D02*
D03*
D93*
X0165671Y0063818D02*
D03*
X0170117Y0066866D02*
D03*
X0165671Y0070040D02*
D03*
D94*
X0174625Y0070739D02*
D03*
D95*
X0078499Y0089281D02*
D03*
X0085999D02*
D03*
D96*
X0090551Y0080645D02*
D03*
X0094107D02*
D03*
D97*
X0057188Y0089789D02*
D03*
X0055588D02*
D03*
D98*
X0085649Y0080670D02*
D03*
X0082855Y0080665D02*
D03*
D99*
X0065088Y0095695D02*
D03*
X0095695Y0089853D02*
D03*
D100*
X0155194Y0072835D02*
D03*
D101*
X0143193Y0077470D02*
D03*
D102*
X0110776Y0087160D02*
D03*
D103*
X0110589Y0087396D02*
D03*
D104*
Y0087160D02*
D03*
D105*
X0110671Y0086632D02*
D03*
D106*
X0109982Y0086868D02*
D03*
D107*
X0059309Y0089471D02*
D03*
D108*
X0048958Y0107950D02*
D03*
D109*
Y0063056D02*
D03*
D110*
X0069533Y0071438D02*
D03*
D111*
X0069346Y0070087D02*
D03*
D112*
X0052514Y0070549D02*
D03*
D113*
X0077089Y0066357D02*
D03*
D114*
X0089281Y0066675D02*
D03*
D115*
X0084646Y0069056D02*
D03*
D116*
X0103029Y0064449D02*
D03*
D117*
X0109982Y0064897D02*
D03*
D118*
X0115189Y0065850D02*
D03*
D119*
X0122110Y0067119D02*
D03*
D120*
X0140145Y0065659D02*
D03*
D121*
X0170497Y0067501D02*
D03*
D122*
X0169863Y0063373D02*
D03*
D123*
X0173926Y0108013D02*
D03*
D124*
X0109919Y0095060D02*
D03*
D125*
X0059754Y0102552D02*
D03*
D126*
X0078549Y0089344D02*
D03*
D127*
X0170751Y0070549D02*
D03*
M02*
