%FSLAX43Y43*%
%MOMM*%
%SFA1B1*%

%IPPOS*%
%ADD10R,0.799998X0.899998*%
%ADD11R,0.899998X0.799998*%
%ADD27C,0.253999*%
%ADD28C,0.380999*%
%ADD34R,3.809992X25.780948*%
%ADD35R,2.793994X2.793994*%
%ADD36R,3.428993X3.047994*%
%ADD38R,1.650997X1.523997*%
%ADD42R,1.269997X1.269997*%
%ADD46C,1.499997*%
%ADD47R,1.499997X1.499997*%
%ADD48C,3.999992*%
%ADD49C,0.761998*%
%ADD50C,2.999994*%
%ADD51C,0.507999*%
%ADD52C,1.015998*%
%ADD53C,1.523997*%
%ADD54R,1.499997X1.499997*%
%ADD55C,3.809992*%
%ADD56C,1.599997*%
%ADD57C,4.759990*%
%ADD58R,1.689997X1.689997*%
%ADD59C,1.689997*%
%ADD60C,3.555993*%
%ADD61R,1.523997X1.523997*%
%ADD62C,2.031996*%
%ADD63C,1.269997*%
%ADD64C,1.777996*%
%ADD65C,1.999996*%
%ADD66R,1.999996X1.999996*%
%ADD67R,0.999998X1.299997*%
%ADD68R,0.999998X1.799996*%
%ADD69R,2.793994X2.539995*%
%ADD70R,9.524981X2.158996*%
%ADD71R,3.936992X3.682993*%
%ADD72R,1.904996X1.650997*%
%ADD73R,1.396997X1.396997*%
%ADD74R,1.396997X1.650997*%
%ADD75R,2.920994X2.793994*%
%ADD76R,2.666995X2.539995*%
%LNlp_led_cube_8x8x8-1*%
%LPD*%
G36*
X177411Y59442D02*
X45472D01*
Y111498*
X177411*
Y59442*
G37*
%LNlp_led_cube_8x8x8-2*%
%LPC*%
G36*
X122221Y68145D02*
Y67180D01*
X123186*
X123165Y67340*
X123054Y67607*
X122878Y67837*
X122648Y68013*
X122381Y68124*
X122221Y68145*
G37*
G36*
X165670Y72209D02*
X165247Y72167D01*
X164840Y72044*
X164465Y71843*
X164136Y71574*
X163867Y71245*
X163666Y70870*
X163543Y70463*
X163501Y70039*
X163543Y69616*
X163666Y69209*
X163867Y68834*
X164136Y68505*
X164465Y68236*
X164840Y68035*
X165247Y67912*
X165670Y67870*
X166094Y67912*
X166501Y68035*
X166876Y68236*
X167205Y68505*
X167474Y68834*
X167675Y69209*
X175513*
X175612Y69229*
X175696Y69285*
X175752Y69369*
X175772Y69468*
Y71627*
X175752Y71726*
X175696Y71810*
X175612Y71866*
X175513Y71886*
X166796*
X166501Y72044*
X166094Y72167*
X165670Y72209*
G37*
G36*
X84327Y69023D02*
X83446D01*
X83464Y68885*
X83567Y68638*
X83729Y68426*
X83942Y68263*
X84189Y68161*
X84327Y68142*
Y69023*
G37*
G36*
X169989Y69021D02*
X169692Y68992D01*
X169285Y68869*
X168910Y68668*
X168581Y68399*
X168312Y68070*
X168111Y67695*
X167988Y67288*
X167959Y66992*
X169989*
Y69021*
G37*
G36*
X170242D02*
Y66992D01*
X172272*
X172243Y67288*
X172120Y67695*
X171919Y68070*
X171650Y68399*
X171321Y68668*
X170946Y68869*
X170539Y68992*
X170242Y69021*
G37*
G36*
X121967Y68145D02*
X121807Y68124D01*
X121540Y68013*
X121310Y67837*
X121134Y67607*
X121023Y67340*
X121002Y67180*
X121967*
Y68145*
G37*
G36*
X119379Y71128D02*
X119114Y71093D01*
X118867Y70990*
X118654Y70828*
X118492Y70615*
X118389Y70368*
X118354Y70103*
X118389Y69838*
X118492Y69591*
X118654Y69378*
X118867Y69216*
X119114Y69113*
X119379Y69078*
X119644Y69113*
X119891Y69216*
X120104Y69378*
X120266Y69591*
X120369Y69838*
X120404Y70103*
X120369Y70368*
X120266Y70615*
X120104Y70828*
X119891Y70990*
X119644Y71093*
X119379Y71128*
G37*
G36*
X85470Y72199D02*
X83438D01*
Y70167*
X83926*
X83951Y70042*
X83942Y70038*
X83729Y69875*
X83567Y69663*
X83464Y69416*
X83446Y69278*
X85462*
X85444Y69416*
X85341Y69663*
X85179Y69875*
X84966Y70038*
X84957Y70042*
X84982Y70167*
X85470*
Y72199*
G37*
G36*
X60197Y69911D02*
X59620D01*
Y69384*
X60197*
Y69911*
G37*
G36*
X85462Y69023D02*
X84581D01*
Y68142*
X84719Y68161*
X84966Y68263*
X85179Y68426*
X85341Y68638*
X85444Y68885*
X85462Y69023*
G37*
G36*
X52704Y71511D02*
X52372Y71467D01*
X52064Y71339*
X51798Y71136*
X51595Y70870*
X51467Y70562*
X51423Y70230*
X51467Y69898*
X51595Y69590*
X51798Y69324*
X52064Y69121*
X52372Y68993*
X52704Y68949*
X53036Y68993*
X53344Y69121*
X53610Y69324*
X53813Y69590*
X53941Y69898*
X53985Y70230*
X53941Y70562*
X53813Y70870*
X53610Y71136*
X53344Y71339*
X53036Y71467*
X52704Y71511*
G37*
G36*
X69214D02*
X68882Y71467D01*
X68574Y71339*
X68308Y71136*
X68105Y70870*
X67977Y70562*
X67933Y70230*
X67977Y69898*
X68105Y69590*
X68308Y69324*
X68574Y69121*
X68882Y68993*
X69214Y68949*
X69546Y68993*
X69854Y69121*
X70120Y69324*
X70323Y69590*
X70451Y69898*
X70495Y70230*
X70451Y70562*
X70323Y70870*
X70120Y71136*
X69854Y71339*
X69546Y71467*
X69214Y71511*
G37*
G36*
X127634Y68161D02*
X127347Y68124D01*
X127080Y68013*
X126850Y67837*
X126674Y67607*
X126563Y67340*
X126526Y67053*
X126563Y66766*
X126674Y66499*
X126850Y66269*
X127080Y66093*
X127347Y65982*
X127634Y65945*
X127921Y65982*
X128188Y66093*
X128418Y66269*
X128594Y66499*
X128705Y66766*
X128742Y67053*
X128705Y67340*
X128594Y67607*
X128418Y67837*
X128188Y68013*
X127921Y68124*
X127634Y68161*
G37*
G36*
X130404D02*
X130117Y68124D01*
X129850Y68013*
X129620Y67837*
X129444Y67607*
X129333Y67340*
X129296Y67053*
X129333Y66766*
X129444Y66499*
X129620Y66269*
X129850Y66093*
X130117Y65982*
X130404Y65945*
X130691Y65982*
X130958Y66093*
X131188Y66269*
X131364Y66499*
X131475Y66766*
X131512Y67053*
X131475Y67340*
X131364Y67607*
X131188Y67837*
X130958Y68013*
X130691Y68124*
X130404Y68161*
G37*
G36*
X134273Y68152D02*
X132075D01*
Y65954*
X134273*
Y68152*
G37*
G36*
X140002Y68265D02*
X139716Y68243D01*
X139313Y68146*
X138929Y67987*
X138576Y67771*
X138261Y67501*
X137991Y67186*
X137775Y66833*
X137616Y66449*
X137519Y66046*
X137497Y65760*
X140002*
Y68265*
G37*
G36*
X140256D02*
Y65760D01*
X142761*
X142739Y66046*
X142642Y66449*
X142483Y66833*
X142267Y67186*
X141997Y67501*
X141682Y67771*
X141329Y67987*
X140945Y68146*
X140542Y68243*
X140256Y68265*
G37*
G36*
X124864Y68161D02*
X124577Y68124D01*
X124310Y68013*
X124080Y67837*
X123904Y67607*
X123793Y67340*
X123756Y67053*
X123793Y66766*
X123904Y66499*
X124080Y66269*
X124310Y66093*
X124577Y65982*
X124864Y65945*
X125151Y65982*
X125418Y66093*
X125648Y66269*
X125824Y66499*
X125935Y66766*
X125972Y67053*
X125935Y67340*
X125824Y67607*
X125648Y67837*
X125418Y68013*
X125151Y68124*
X124864Y68161*
G37*
G36*
X76961Y68513D02*
Y66611D01*
X78863*
X78837Y66882*
X78720Y67265*
X78532Y67618*
X78278Y67927*
X77968Y68181*
X77615Y68370*
X77232Y68486*
X76961Y68513*
G37*
G36*
X89407D02*
X89136Y68486D01*
X88753Y68370*
X88400Y68181*
X88090Y67927*
X87836Y67618*
X87648Y67265*
X87531Y66882*
X87505Y66611*
X89407*
Y68513*
G37*
G36*
X89661D02*
Y66611D01*
X91563*
X91537Y66882*
X91420Y67265*
X91232Y67618*
X90978Y67927*
X90668Y68181*
X90315Y68370*
X89932Y68486*
X89661Y68513*
G37*
G36*
X121967Y66926D02*
X121002D01*
X121023Y66766*
X121134Y66499*
X121310Y66269*
X121540Y66093*
X121807Y65982*
X121967Y65961*
Y66926*
G37*
G36*
X123186D02*
X122221D01*
Y65961*
X122381Y65982*
X122648Y66093*
X122878Y66269*
X123054Y66499*
X123165Y66766*
X123186Y66926*
G37*
G36*
X76707Y68513D02*
X76436Y68486D01*
X76053Y68370*
X75700Y68181*
X75390Y67927*
X75136Y67618*
X74948Y67265*
X74831Y66882*
X74805Y66611*
X76707*
Y68513*
G37*
G36*
X89618Y76522D02*
X89091D01*
Y75945*
X89618*
Y76522*
G37*
G36*
X89723Y77977D02*
X89196D01*
Y77400*
X89723*
Y77977*
G37*
G36*
X94106Y83450D02*
X93858Y83401D01*
X93648Y83261*
X93508Y83051*
X93459Y82803*
X93508Y82555*
X93648Y82345*
X93718Y82299*
Y82168*
X92455*
Y79120*
X93018*
Y78808*
X92752*
Y77400*
X94060*
X94152*
X94679*
Y78104*
Y78808*
X94152*
X94060*
X93794*
Y79120*
X95757*
Y82168*
X94494*
Y82299*
X94564Y82345*
X94704Y82555*
X94753Y82803*
X94704Y83051*
X94564Y83261*
X94354Y83401*
X94106Y83450*
G37*
G36*
X57784Y76969D02*
X57552Y76938D01*
X57336Y76849*
X57150Y76706*
X57007Y76520*
X56918Y76304*
X56887Y76072*
X56918Y75840*
X57007Y75624*
X57150Y75438*
X57336Y75295*
X57552Y75206*
X57784Y75175*
X58016Y75206*
X58232Y75295*
X58418Y75438*
X58561Y75624*
X58650Y75840*
X58681Y76072*
X58650Y76304*
X58561Y76520*
X58418Y76706*
X58232Y76849*
X58016Y76938*
X57784Y76969*
G37*
G36*
X65404D02*
X65172Y76938D01*
X64956Y76849*
X64770Y76706*
X64627Y76520*
X64538Y76304*
X64507Y76072*
X64538Y75840*
X64627Y75624*
X64770Y75438*
X64956Y75295*
X65172Y75206*
X65404Y75175*
X65636Y75206*
X65852Y75295*
X66038Y75438*
X66181Y75624*
X66270Y75840*
X66301Y76072*
X66270Y76304*
X66181Y76520*
X66038Y76706*
X65852Y76849*
X65636Y76938*
X65404Y76969*
G37*
G36*
X62864D02*
X62632Y76938D01*
X62416Y76849*
X62230Y76706*
X62087Y76520*
X61998Y76304*
X61967Y76072*
X61998Y75840*
X62087Y75624*
X62230Y75438*
X62396Y75311*
X62355Y75190*
X60833*
X60792Y75311*
X60958Y75438*
X61101Y75624*
X61190Y75840*
X61221Y76072*
X61190Y76304*
X61101Y76520*
X60958Y76706*
X60772Y76849*
X60556Y76938*
X60324Y76969*
X60092Y76938*
X59876Y76849*
X59690Y76706*
X59547Y76520*
X59458Y76304*
X59427Y76072*
X59458Y75840*
X59547Y75624*
X59690Y75438*
X59876Y75295*
X59936Y75271*
Y74041*
X59815Y74000*
X59688Y74166*
X59502Y74309*
X59286Y74398*
X59054Y74429*
X58822Y74398*
X58606Y74309*
X58420Y74166*
X58277Y73980*
X58188Y73764*
X58157Y73532*
X58188Y73300*
X58277Y73084*
X58420Y72898*
X58606Y72755*
X58822Y72666*
X59054Y72635*
X59286Y72666*
X59502Y72755*
X59688Y72898*
X59815Y73064*
X59936Y73023*
Y72092*
X59620*
Y70784*
Y70692*
Y70165*
X60324*
Y70038*
X60451*
Y69384*
X61594*
Y70038*
X61721*
Y70165*
X62425*
Y70692*
Y70784*
Y71050*
X63310*
X63459Y71079*
X63585Y71163*
X64409Y71987*
X64493Y72113*
X64522Y72262*
Y72731*
X64582Y72755*
X64768Y72898*
X64911Y73084*
X65000Y73300*
X65031Y73532*
X65000Y73764*
X64911Y73980*
X64768Y74166*
X64582Y74309*
X64366Y74398*
X64134Y74429*
X63902Y74398*
X63842Y74373*
X63139Y75077*
X63115Y75092*
X63127Y75219*
X63312Y75295*
X63498Y75438*
X63641Y75624*
X63730Y75840*
X63761Y76072*
X63730Y76304*
X63641Y76520*
X63498Y76706*
X63312Y76849*
X63096Y76938*
X62864Y76969*
G37*
G36*
X87713Y78485D02*
X87186D01*
Y77908*
X87713*
Y78485*
G37*
G36*
X89723Y78808D02*
X89196D01*
Y78231*
X89723*
Y78808*
G37*
G36*
X95460D02*
X94933D01*
Y78231*
X95460*
Y78808*
G37*
G36*
Y77977D02*
X94933D01*
Y77400*
X95460*
Y77977*
G37*
G36*
X97789Y77862D02*
X97541Y77813D01*
X97331Y77673*
X97217Y77503*
X97090*
X96977Y77673*
X96767Y77813*
X96519Y77862*
X96271Y77813*
X96061Y77673*
X95921Y77463*
X95872Y77215*
X95921Y76967*
X96061Y76757*
X96131Y76711*
Y68424*
X94339Y66633*
X94255Y66507*
X94226Y66358*
Y65742*
X93910*
Y64434*
Y64342*
Y64141*
X92898*
X92725Y64107*
X92578Y64008*
X91754Y63184*
X91655Y63037*
X91621Y62864*
Y62547*
X91542Y62515*
X91322Y62346*
X91153Y62126*
X91047Y61869*
X91011Y61594*
X91047Y61319*
X91153Y61062*
X91322Y60842*
X91542Y60673*
X91799Y60567*
X92074Y60531*
X92349Y60567*
X92606Y60673*
X92826Y60842*
X92995Y61062*
X93101Y61319*
X93137Y61594*
X93101Y61869*
X92995Y62126*
X92826Y62346*
X92606Y62515*
X92527Y62547*
Y62676*
X93086Y63235*
X93910*
Y63034*
X95318*
Y64342*
Y64434*
Y65742*
X95002*
Y66197*
X96648Y67843*
X96766Y67794*
Y65742*
X96450*
Y64434*
Y64342*
Y63034*
X96701*
Y62547*
X96622Y62515*
X96402Y62346*
X96233Y62126*
X96127Y61869*
X96091Y61594*
X96127Y61319*
X96233Y61062*
X96402Y60842*
X96622Y60673*
X96879Y60567*
X97154Y60531*
X97429Y60567*
X97686Y60673*
X97906Y60842*
X98075Y61062*
X98181Y61319*
X98217Y61594*
X98181Y61869*
X98075Y62126*
X97906Y62346*
X97686Y62515*
X97607Y62547*
Y63034*
X97858*
Y64342*
Y64434*
Y65742*
X97542*
Y76419*
X97707Y76584*
X97789Y76568*
X98037Y76617*
X98247Y76757*
X98387Y76967*
X98436Y77215*
X98387Y77463*
X98247Y77673*
X98037Y77813*
X97789Y77862*
G37*
G36*
X80960Y78485D02*
X80433D01*
Y77908*
X80960*
Y78485*
G37*
G36*
X66674Y74429D02*
X66442Y74398D01*
X66226Y74309*
X66040Y74166*
X65897Y73980*
X65808Y73764*
X65777Y73532*
X65808Y73300*
X65897Y73084*
X66040Y72898*
X66226Y72755*
X66442Y72666*
X66674Y72635*
X66906Y72666*
X67122Y72755*
X67308Y72898*
X67451Y73084*
X67540Y73300*
X67571Y73532*
X67540Y73764*
X67451Y73980*
X67308Y74166*
X67122Y74309*
X66906Y74398*
X66674Y74429*
G37*
G36*
X89618Y74167D02*
X89091D01*
Y73590*
X89618*
Y74167*
G37*
G36*
X153923Y75827D02*
X153658Y75792D01*
X153411Y75689*
X153198Y75527*
X153036Y75314*
X152933Y75067*
X152898Y74802*
X152933Y74537*
X153036Y74290*
X153198Y74077*
X153411Y73915*
X153658Y73812*
X153923Y73777*
X154188Y73812*
X154435Y73915*
X154648Y74077*
X154810Y74290*
X154913Y74537*
X154948Y74802*
X154913Y75067*
X154810Y75314*
X154648Y75527*
X154435Y75689*
X154188Y75792*
X153923Y75827*
G37*
G36*
X62425Y69911D02*
X61848D01*
Y69384*
X62425*
Y69911*
G37*
G36*
X175513Y98429D02*
X171703D01*
X171604Y98409*
X171602Y98408*
X171465*
Y98271*
X171464Y98269*
X171444Y98170*
Y72389*
X171464Y72290*
X171520Y72206*
X171604Y72150*
X171703Y72130*
X175513*
X175612Y72150*
X175696Y72206*
X175752Y72290*
X175772Y72389*
Y98170*
X175752Y98269*
X175696Y98353*
X175612Y98409*
X175513Y98429*
G37*
G36*
X56514Y74429D02*
X56282Y74398D01*
X56066Y74309*
X55880Y74166*
X55737Y73980*
X55648Y73764*
X55617Y73532*
X55648Y73300*
X55737Y73084*
X55880Y72898*
X56066Y72755*
X56282Y72666*
X56514Y72635*
X56746Y72666*
X56962Y72755*
X57148Y72898*
X57291Y73084*
X57380Y73300*
X57411Y73532*
X57380Y73764*
X57291Y73980*
X57148Y74166*
X56962Y74309*
X56746Y74398*
X56514Y74429*
G37*
G36*
X151256Y75810D02*
Y74929D01*
X152137*
X152119Y75067*
X152016Y75314*
X151854Y75527*
X151641Y75689*
X151394Y75792*
X151256Y75810*
G37*
G36*
X84500Y76522D02*
X84429D01*
X84408*
X83100*
Y76206*
X82676*
X82527Y76177*
X82401Y76093*
X80369Y74061*
X80285Y73935*
X80256Y73786*
Y70421*
X80285Y70272*
X80369Y70146*
X80975Y69540*
X80924Y69416*
X80889Y69150*
X80924Y68885*
X81027Y68638*
X81189Y68426*
X81402Y68263*
X81649Y68161*
X81914Y68126*
X82179Y68161*
X82426Y68263*
X82639Y68426*
X82801Y68638*
X82904Y68885*
X82939Y69150*
X82904Y69416*
X82801Y69663*
X82639Y69875*
X82426Y70038*
X82269Y70103*
Y70230*
X82426Y70295*
X82639Y70458*
X82801Y70670*
X82904Y70917*
X82939Y71183*
X82904Y71448*
X82801Y71695*
X82639Y71907*
X82426Y72070*
X82302Y72121*
Y73117*
X82983Y73797*
X83100Y73749*
Y73590*
X84408*
X84500*
X85808*
Y73764*
X85920Y73824*
X86111Y73696*
X86359Y73647*
X86607Y73696*
X86798Y73824*
X86910Y73764*
Y73590*
X88218*
X88310*
X88837*
Y74294*
X88964*
Y74421*
X89618*
Y74998*
Y75114*
Y75691*
X88964*
Y75818*
X88837*
Y76522*
X88310*
X88218*
X86910*
Y76348*
X86798Y76288*
X86607Y76416*
X86359Y76465*
X86111Y76416*
X85920Y76288*
X85808Y76348*
Y76522*
X84500*
G37*
G36*
X55244Y76969D02*
X55012Y76938D01*
X54796Y76849*
X54610Y76706*
X54467Y76520*
X54378Y76304*
X54347Y76072*
X54378Y75840*
X54467Y75624*
X54610Y75438*
X54796Y75295*
X55012Y75206*
X55244Y75175*
X55476Y75206*
X55692Y75295*
X55878Y75438*
X56021Y75624*
X56110Y75840*
X56141Y76072*
X56110Y76304*
X56021Y76520*
X55878Y76706*
X55692Y76849*
X55476Y76938*
X55244Y76969*
G37*
G36*
X151002Y74675D02*
X150121D01*
X150139Y74537*
X150242Y74290*
X150404Y74077*
X150617Y73915*
X150864Y73812*
X151002Y73794*
Y74675*
G37*
G36*
X152137D02*
X151256D01*
Y73794*
X151394Y73812*
X151641Y73915*
X151854Y74077*
X152016Y74290*
X152119Y74537*
X152137Y74675*
G37*
G36*
X151002Y75810D02*
X150864Y75792D01*
X150617Y75689*
X150404Y75527*
X150242Y75314*
X150139Y75067*
X150121Y74929*
X151002*
Y75810*
G37*
G36*
X115266Y68265D02*
Y65760D01*
X117771*
X117749Y66046*
X117652Y66449*
X117493Y66833*
X117277Y67186*
X117007Y67501*
X116692Y67771*
X116339Y67987*
X115955Y68146*
X115552Y68243*
X115266Y68265*
G37*
G36*
X54228Y64143D02*
X53963Y64108D01*
X53716Y64005*
X53503Y63843*
X53341Y63630*
X53238Y63383*
X53203Y63118*
X53238Y62853*
X53341Y62606*
X53503Y62393*
X53716Y62231*
X53963Y62128*
X54228Y62093*
X54493Y62128*
X54740Y62231*
X54953Y62393*
X55115Y62606*
X55218Y62853*
X55253Y63118*
X55218Y63383*
X55115Y63630*
X54953Y63843*
X54740Y64005*
X54493Y64108*
X54228Y64143*
G37*
G36*
X65150D02*
X64885Y64108D01*
X64638Y64005*
X64425Y63843*
X64263Y63630*
X64160Y63383*
X64125Y63118*
X64160Y62853*
X64263Y62606*
X64425Y62393*
X64638Y62231*
X64885Y62128*
X65150Y62093*
X65415Y62128*
X65662Y62231*
X65875Y62393*
X66037Y62606*
X66140Y62853*
X66175Y63118*
X66140Y63383*
X66037Y63630*
X65875Y63843*
X65662Y64005*
X65415Y64108*
X65150Y64143*
G37*
G36*
X104075Y63110D02*
X103937Y63092D01*
X103690Y62989*
X103478Y62827*
X103315Y62614*
X103213Y62367*
X103194Y62229*
X104075*
Y63110*
G37*
G36*
X105211Y61975D02*
X104329D01*
Y61094*
X104468Y61112*
X104715Y61215*
X104927Y61377*
X105090Y61590*
X105192Y61837*
X105211Y61975*
G37*
G36*
X165543Y63689D02*
X163514D01*
X163543Y63393*
X163666Y62986*
X163867Y62611*
X164136Y62282*
X164465Y62013*
X164840Y61812*
X165247Y61689*
X165543Y61660*
Y63689*
G37*
G36*
X167827D02*
X165797D01*
Y61660*
X166094Y61689*
X166501Y61812*
X166876Y62013*
X167205Y62282*
X167474Y62611*
X167675Y62986*
X167798Y63393*
X167827Y63689*
G37*
G36*
X173862Y65116D02*
X173547Y65085D01*
X173122Y64956*
X172731Y64747*
X172387Y64466*
X172106Y64122*
X171897Y63731*
X171768Y63306*
X171737Y62991*
X173862*
Y65116*
G37*
G36*
X174116D02*
Y62991D01*
X176241*
X176210Y63306*
X176082Y63731*
X175872Y64122*
X175591Y64466*
X175247Y64747*
X174856Y64956*
X174431Y65085*
X174116Y65116*
G37*
G36*
X115012Y65506D02*
X112507D01*
X112529Y65220*
X112626Y64817*
X112785Y64433*
X113001Y64080*
X113271Y63765*
X113586Y63495*
X113939Y63279*
X114323Y63120*
X114726Y63023*
X115012Y63001*
Y65506*
G37*
G36*
X104329Y63110D02*
Y62229D01*
X105211*
X105192Y62367*
X105090Y62614*
X104927Y62827*
X104715Y62989*
X104468Y63092*
X104329Y63110*
G37*
G36*
X48767Y65116D02*
X48452Y65085D01*
X48027Y64956*
X47636Y64747*
X47292Y64466*
X47011Y64122*
X46802Y63731*
X46673Y63306*
X46642Y62991*
X48767*
Y65116*
G37*
G36*
X49021D02*
Y62991D01*
X51146*
X51115Y63306*
X50986Y63731*
X50777Y64122*
X50496Y64466*
X50152Y64747*
X49761Y64956*
X49336Y65085*
X49021Y65116*
G37*
G36*
X147954Y62657D02*
X147679Y62621D01*
X147422Y62515*
X147202Y62346*
X147033Y62126*
X146927Y61869*
X146891Y61594*
X146927Y61319*
X147033Y61062*
X147202Y60842*
X147422Y60673*
X147679Y60567*
X147954Y60531*
X148229Y60567*
X148486Y60673*
X148706Y60842*
X148875Y61062*
X148981Y61319*
X149017Y61594*
X148981Y61869*
X148875Y62126*
X148706Y62346*
X148486Y62515*
X148229Y62621*
X147954Y62657*
G37*
G36*
X153034D02*
X152759Y62621D01*
X152502Y62515*
X152282Y62346*
X152113Y62126*
X152007Y61869*
X151971Y61594*
X152007Y61319*
X152113Y61062*
X152282Y60842*
X152502Y60673*
X152759Y60567*
X153034Y60531*
X153309Y60567*
X153566Y60673*
X153786Y60842*
X153955Y61062*
X154061Y61319*
X154097Y61594*
X154061Y61869*
X153955Y62126*
X153786Y62346*
X153566Y62515*
X153309Y62621*
X153034Y62657*
G37*
G36*
X158749D02*
X158474Y62621D01*
X158217Y62515*
X157997Y62346*
X157828Y62126*
X157722Y61869*
X157686Y61594*
X157722Y61319*
X157828Y61062*
X157997Y60842*
X158217Y60673*
X158474Y60567*
X158749Y60531*
X159024Y60567*
X159281Y60673*
X159501Y60842*
X159670Y61062*
X159776Y61319*
X159812Y61594*
X159776Y61869*
X159670Y62126*
X159501Y62346*
X159281Y62515*
X159024Y62621*
X158749Y62657*
G37*
G36*
X74294D02*
X74019Y62621D01*
X73762Y62515*
X73542Y62346*
X73373Y62126*
X73267Y61869*
X73231Y61594*
X73267Y61319*
X73373Y61062*
X73542Y60842*
X73762Y60673*
X74019Y60567*
X74294Y60531*
X74569Y60567*
X74826Y60673*
X75046Y60842*
X75215Y61062*
X75321Y61319*
X75357Y61594*
X75321Y61869*
X75215Y62126*
X75046Y62346*
X74826Y62515*
X74569Y62621*
X74294Y62657*
G37*
G36*
X94614D02*
X94339Y62621D01*
X94082Y62515*
X93862Y62346*
X93693Y62126*
X93587Y61869*
X93551Y61594*
X93587Y61319*
X93693Y61062*
X93862Y60842*
X94082Y60673*
X94339Y60567*
X94614Y60531*
X94889Y60567*
X95146Y60673*
X95366Y60842*
X95535Y61062*
X95641Y61319*
X95677Y61594*
X95641Y61869*
X95535Y62126*
X95366Y62346*
X95146Y62515*
X94889Y62621*
X94614Y62657*
G37*
G36*
X99694D02*
X99419Y62621D01*
X99162Y62515*
X98942Y62346*
X98773Y62126*
X98667Y61869*
X98631Y61594*
X98667Y61319*
X98773Y61062*
X98942Y60842*
X99162Y60673*
X99419Y60567*
X99694Y60531*
X99969Y60567*
X100226Y60673*
X100446Y60842*
X100615Y61062*
X100721Y61319*
X100757Y61594*
X100721Y61869*
X100615Y62126*
X100446Y62346*
X100226Y62515*
X99969Y62621*
X99694Y62657*
G37*
G36*
X176241Y62737D02*
X174116D01*
Y60612*
X174431Y60643*
X174856Y60771*
X175247Y60981*
X175591Y61262*
X175872Y61606*
X176082Y61997*
X176210Y62422*
X176241Y62737*
G37*
G36*
X104727Y72274D02*
X104479Y72225D01*
X104269Y72085*
X104128Y71875*
X104079Y71627*
X104128Y71379*
X104269Y71169*
X104479Y71029*
X104727Y70980*
X104732Y70981*
X106226Y69487*
Y64198*
X106260Y64024*
X106359Y63877*
X107809Y62426*
X107785Y62367*
X107750Y62102*
X107785Y61837*
X107887Y61590*
X108050Y61377*
X108262Y61215*
X108509Y61112*
X108774Y61077*
X109040Y61112*
X109287Y61215*
X109499Y61377*
X109662Y61590*
X109764Y61837*
X109799Y62102*
X109764Y62367*
X109662Y62614*
X109499Y62827*
X109287Y62989*
X109040Y63092*
X108774Y63127*
X108509Y63092*
X108450Y63067*
X107132Y64385*
Y69675*
X107098Y69848*
X106999Y69995*
X105373Y71622*
X105374Y71627*
X105325Y71875*
X105184Y72085*
X104974Y72225*
X104727Y72274*
G37*
G36*
X104075Y61975D02*
X103194D01*
X103213Y61837*
X103315Y61590*
X103478Y61377*
X103690Y61215*
X103937Y61112*
X104075Y61094*
Y61975*
G37*
G36*
X48767Y62737D02*
X46642D01*
X46673Y62422*
X46802Y61997*
X47011Y61606*
X47292Y61262*
X47636Y60981*
X48027Y60771*
X48452Y60643*
X48767Y60612*
Y62737*
G37*
G36*
X51146D02*
X49021D01*
Y60612*
X49336Y60643*
X49761Y60771*
X50152Y60981*
X50496Y61262*
X50777Y61606*
X50986Y61997*
X51115Y62422*
X51146Y62737*
G37*
G36*
X173862D02*
X171737D01*
X171768Y62422*
X171897Y61997*
X172106Y61606*
X172387Y61262*
X172731Y60981*
X173122Y60771*
X173547Y60643*
X173862Y60612*
Y62737*
G37*
G36*
X89407Y66356D02*
X87505D01*
X87531Y66085*
X87648Y65702*
X87836Y65349*
X88090Y65040*
X88400Y64786*
X88753Y64597*
X89136Y64481*
X89407Y64454*
Y66356*
G37*
G36*
X91563D02*
X89661D01*
Y64454*
X89932Y64481*
X90315Y64597*
X90668Y64786*
X90978Y65040*
X91232Y65349*
X91420Y65702*
X91537Y66085*
X91563Y66356*
G37*
G36*
X169989Y66738D02*
X167959D01*
X167988Y66441*
X168111Y66034*
X168312Y65659*
X168581Y65330*
X168910Y65061*
X169285Y64860*
X169692Y64737*
X169989Y64708*
Y66738*
G37*
G36*
X156913Y64961D02*
X155505D01*
Y64434*
Y64342*
Y63034*
X155756*
Y62547*
X155677Y62515*
X155457Y62346*
X155288Y62126*
X155182Y61869*
X155146Y61594*
X155182Y61319*
X155288Y61062*
X155457Y60842*
X155677Y60673*
X155934Y60567*
X156209Y60531*
X156484Y60567*
X156741Y60673*
X156961Y60842*
X157130Y61062*
X157236Y61319*
X157272Y61594*
X157236Y61869*
X157130Y62126*
X156961Y62346*
X156741Y62515*
X156662Y62547*
Y63034*
X156913*
Y64342*
Y64434*
Y64961*
G37*
G36*
X76707Y66356D02*
X74805D01*
X74831Y66085*
X74948Y65702*
X75136Y65349*
X75390Y65040*
X75700Y64786*
X76053Y64597*
X76436Y64481*
X76707Y64454*
Y66356*
G37*
G36*
X78863D02*
X76961D01*
Y64454*
X77232Y64481*
X77615Y64597*
X77968Y64786*
X78278Y65040*
X78532Y65349*
X78720Y65702*
X78837Y66085*
X78863Y66356*
G37*
G36*
X55244Y69096D02*
X54871Y69059D01*
X54511Y68951*
X54181Y68774*
X53890Y68536*
X53652Y68245*
X53475Y67915*
X53367Y67555*
X53330Y67182*
X53367Y66809*
X53475Y66449*
X53652Y66119*
X53890Y65828*
X54181Y65590*
X54511Y65413*
X54871Y65305*
X55244Y65268*
X55617Y65305*
X55977Y65413*
X56307Y65590*
X56598Y65828*
X56836Y66119*
X57013Y66449*
X57121Y66809*
X57158Y67182*
X57121Y67555*
X57013Y67915*
X56836Y68245*
X56598Y68536*
X56307Y68774*
X55977Y68951*
X55617Y69059*
X55244Y69096*
G37*
G36*
X66674D02*
X66301Y69059D01*
X65941Y68951*
X65611Y68774*
X65320Y68536*
X65082Y68245*
X64905Y67915*
X64797Y67555*
X64760Y67182*
X64797Y66809*
X64905Y66449*
X65082Y66119*
X65320Y65828*
X65611Y65590*
X65941Y65413*
X66301Y65305*
X66674Y65268*
X67047Y65305*
X67407Y65413*
X67737Y65590*
X68028Y65828*
X68266Y66119*
X68443Y66449*
X68551Y66809*
X68588Y67182*
X68551Y67555*
X68443Y67915*
X68266Y68245*
X68028Y68536*
X67737Y68774*
X67407Y68951*
X67047Y69059*
X66674Y69096*
G37*
G36*
X115012Y68265D02*
X114726Y68243D01*
X114323Y68146*
X113939Y67987*
X113586Y67771*
X113271Y67501*
X113001Y67186*
X112785Y66833*
X112626Y66449*
X112529Y66046*
X112507Y65760*
X115012*
Y68265*
G37*
G36*
X172272Y66738D02*
X170242D01*
Y64708*
X170539Y64737*
X170946Y64860*
X171321Y65061*
X171650Y65330*
X171919Y65659*
X172120Y66034*
X172243Y66441*
X172272Y66738*
G37*
G36*
X156082Y65742D02*
X155505D01*
Y65215*
X156082*
Y65742*
G37*
G36*
X156913D02*
X156336D01*
Y65215*
X156913*
Y65742*
G37*
G36*
X123479Y65321D02*
X123192Y65284D01*
X122925Y65173*
X122695Y64997*
X122519Y64767*
X122408Y64500*
X122371Y64213*
X122408Y63926*
X122519Y63659*
X122695Y63429*
X122925Y63253*
X123192Y63142*
X123479Y63105*
X123766Y63142*
X124033Y63253*
X124263Y63429*
X124439Y63659*
X124550Y63926*
X124587Y64213*
X124550Y64500*
X124439Y64767*
X124263Y64997*
X124033Y65173*
X123766Y65284*
X123479Y65321*
G37*
G36*
X126249D02*
X125962Y65284D01*
X125695Y65173*
X125465Y64997*
X125289Y64767*
X125178Y64500*
X125141Y64213*
X125178Y63926*
X125289Y63659*
X125465Y63429*
X125695Y63253*
X125962Y63142*
X126249Y63105*
X126536Y63142*
X126803Y63253*
X127033Y63429*
X127209Y63659*
X127320Y63926*
X127357Y64213*
X127320Y64500*
X127209Y64767*
X127033Y64997*
X126803Y65173*
X126536Y65284*
X126249Y65321*
G37*
G36*
X129019D02*
X128732Y65284D01*
X128465Y65173*
X128235Y64997*
X128059Y64767*
X127948Y64500*
X127911Y64213*
X127948Y63926*
X128059Y63659*
X128235Y63429*
X128465Y63253*
X128732Y63142*
X129019Y63105*
X129306Y63142*
X129573Y63253*
X129803Y63429*
X129979Y63659*
X130090Y63926*
X130127Y64213*
X130090Y64500*
X129979Y64767*
X129803Y64997*
X129573Y65173*
X129306Y65284*
X129019Y65321*
G37*
G36*
X117771Y65506D02*
X115266D01*
Y63001*
X115552Y63023*
X115955Y63120*
X116339Y63279*
X116692Y63495*
X117007Y63765*
X117277Y64080*
X117493Y64433*
X117652Y64817*
X117749Y65220*
X117771Y65506*
G37*
G36*
X140002D02*
X137497D01*
X137519Y65220*
X137616Y64817*
X137775Y64433*
X137991Y64080*
X138261Y63765*
X138576Y63495*
X138929Y63279*
X139313Y63120*
X139716Y63023*
X140002Y63001*
Y65506*
G37*
G36*
X142761D02*
X140256D01*
Y63001*
X140542Y63023*
X140945Y63120*
X141329Y63279*
X141682Y63495*
X141997Y63765*
X142267Y64080*
X142483Y64433*
X142642Y64817*
X142739Y65220*
X142761Y65506*
G37*
G36*
X165543Y65973D02*
X165247Y65944D01*
X164840Y65821*
X164465Y65620*
X164136Y65351*
X163867Y65022*
X163666Y64647*
X163543Y64240*
X163514Y63943*
X165543*
Y65973*
G37*
G36*
X165797D02*
Y63943D01*
X167827*
X167798Y64240*
X167675Y64647*
X167474Y65022*
X167205Y65351*
X166876Y65620*
X166501Y65821*
X166094Y65944*
X165797Y65973*
G37*
G36*
X72458Y65742D02*
X71050D01*
Y64434*
Y64342*
Y63034*
X71301*
Y62547*
X71222Y62515*
X71002Y62346*
X70833Y62126*
X70727Y61869*
X70691Y61594*
X70727Y61319*
X70833Y61062*
X71002Y60842*
X71222Y60673*
X71479Y60567*
X71754Y60531*
X72029Y60567*
X72286Y60673*
X72506Y60842*
X72675Y61062*
X72781Y61319*
X72817Y61594*
X72781Y61869*
X72675Y62126*
X72506Y62346*
X72286Y62515*
X72207Y62547*
Y63034*
X72458*
Y64342*
Y64434*
Y64700*
X73492*
X73582Y64565*
X73792Y64425*
X74040Y64376*
X74288Y64425*
X74498Y64565*
X74638Y64775*
X74687Y65023*
X74638Y65271*
X74498Y65481*
X74288Y65621*
X74040Y65670*
X73792Y65621*
X73582Y65481*
X73579Y65476*
X72458*
Y65742*
G37*
G36*
X131789Y65321D02*
X131502Y65284D01*
X131235Y65173*
X131005Y64997*
X130829Y64767*
X130718Y64500*
X130681Y64213*
X130718Y63926*
X130829Y63659*
X131005Y63429*
X131235Y63253*
X131502Y63142*
X131789Y63105*
X132076Y63142*
X132343Y63253*
X132573Y63429*
X132749Y63659*
X132860Y63926*
X132897Y64213*
X132860Y64500*
X132749Y64767*
X132573Y64997*
X132343Y65173*
X132076Y65284*
X131789Y65321*
G37*
G36*
X102933Y65795D02*
X102634Y65756D01*
X102356Y65640*
X102117Y65457*
X101934Y65218*
X101819Y64940*
X101780Y64642*
X101819Y64344*
X101934Y64066*
X102117Y63827*
X102356Y63644*
X102634Y63528*
X102933Y63489*
X103231Y63528*
X103509Y63644*
X103748Y63827*
X103931Y64066*
X104046Y64344*
X104085Y64642*
X104046Y64940*
X103931Y65218*
X103748Y65457*
X103509Y65640*
X103231Y65756*
X102933Y65795*
G37*
G36*
X109918D02*
X109619Y65756D01*
X109341Y65640*
X109102Y65457*
X108919Y65218*
X108804Y64940*
X108765Y64642*
X108804Y64344*
X108919Y64066*
X109102Y63827*
X109341Y63644*
X109619Y63528*
X109918Y63489*
X110216Y63528*
X110494Y63644*
X110733Y63827*
X110916Y64066*
X111031Y64344*
X111070Y64642*
X111031Y64940*
X110916Y65218*
X110733Y65457*
X110494Y65640*
X110216Y65756*
X109918Y65795*
G37*
G36*
X100710Y102996D02*
X100215D01*
X100239Y102875*
X100379Y102665*
X100589Y102525*
X100710Y102501*
Y102996*
G37*
G36*
X101459D02*
X100964D01*
Y102501*
X101085Y102525*
X101295Y102665*
X101435Y102875*
X101459Y102996*
G37*
G36*
X59562Y103110D02*
X59441Y103086D01*
X59231Y102946*
X59091Y102736*
X59067Y102615*
X59562*
Y103110*
G37*
G36*
X60311Y102361D02*
X59816D01*
Y101866*
X59937Y101890*
X60147Y102030*
X60287Y102240*
X60311Y102361*
G37*
G36*
X70865Y102996D02*
X69984D01*
X70002Y102858*
X70105Y102611*
X70267Y102398*
X70480Y102236*
X70727Y102133*
X70865Y102115*
Y102996*
G37*
G36*
X72000D02*
X71119D01*
Y102115*
X71257Y102133*
X71504Y102236*
X71717Y102398*
X71879Y102611*
X71982Y102858*
X72000Y102996*
G37*
G36*
X100710Y103745D02*
X100589Y103721D01*
X100379Y103581*
X100239Y103371*
X100215Y103250*
X100710*
Y103745*
G37*
G36*
X100964D02*
Y103250D01*
X101459*
X101435Y103371*
X101295Y103581*
X101085Y103721*
X100964Y103745*
G37*
G36*
X116941Y105787D02*
X116678Y105752D01*
X116434Y105651*
X116225Y105490*
X116064Y105280*
X115962Y105036*
X115928Y104774*
X115962Y104512*
X116064Y104268*
X116225Y104058*
X116434Y103897*
X116678Y103796*
X116941Y103761*
X117203Y103796*
X117447Y103897*
X117657Y104058*
X117818Y104268*
X117919Y104512*
X117953Y104774*
X117919Y105036*
X117818Y105280*
X117657Y105490*
X117447Y105651*
X117203Y105752*
X116941Y105787*
G37*
G36*
X59816Y103110D02*
Y102615D01*
X60311*
X60287Y102736*
X60147Y102946*
X59937Y103086*
X59816Y103110*
G37*
G36*
X70865Y104131D02*
X70727Y104113D01*
X70480Y104010*
X70267Y103848*
X70105Y103635*
X70002Y103388*
X69984Y103250*
X70865*
Y104131*
G37*
G36*
X71119D02*
Y103250D01*
X72000*
X71982Y103388*
X71879Y103635*
X71717Y103848*
X71504Y104010*
X71257Y104113*
X71119Y104131*
G37*
G36*
X110603Y94868D02*
X110108D01*
Y94373*
X110229Y94397*
X110439Y94537*
X110579Y94747*
X110603Y94868*
G37*
G36*
X109854Y95617D02*
X109733Y95593D01*
X109523Y95453*
X109383Y95243*
X109359Y95122*
X109854*
Y95617*
G37*
G36*
X110108D02*
Y95122D01*
X110603*
X110579Y95243*
X110439Y95453*
X110229Y95593*
X110108Y95617*
G37*
G36*
X142309Y92594D02*
X142061Y92545D01*
X141851Y92405*
X141805Y92335*
X140093*
X139944Y92306*
X139818Y92222*
X137716Y90120*
X137632Y89994*
X137603Y89845*
Y86971*
X135971Y85339*
X135889Y85355*
X135641Y85306*
X135431Y85166*
X135291Y84956*
X135242Y84708*
X135291Y84460*
X135431Y84250*
X135641Y84110*
X135889Y84061*
X136137Y84110*
X136347Y84250*
X136487Y84460*
X136536Y84708*
X136520Y84790*
X138266Y86535*
X138350Y86661*
X138379Y86810*
Y89684*
X140254Y91559*
X141805*
X141851Y91489*
X142061Y91349*
X142309Y91300*
X142557Y91349*
X142767Y91489*
X142907Y91699*
X142956Y91947*
X142907Y92195*
X142767Y92405*
X142557Y92545*
X142309Y92594*
G37*
G36*
X65531Y97672D02*
X65333Y97633D01*
X65165Y97520*
X65052Y97352*
X65013Y97154*
X65052Y96956*
X65165Y96788*
X65333Y96675*
X65492Y96644*
X66667Y95469*
Y93169*
X66576Y93034*
X66537Y92836*
X66576Y92638*
X66689Y92470*
X66857Y92357*
X67055Y92318*
X67253Y92357*
X67421Y92470*
X67534Y92638*
X67573Y92836*
X67534Y93034*
X67443Y93169*
Y95630*
X67414Y95779*
X67330Y95905*
X66041Y97193*
X66010Y97352*
X65897Y97520*
X65729Y97633*
X65531Y97672*
G37*
G36*
X109854Y94868D02*
X109359D01*
X109383Y94747*
X109523Y94537*
X109733Y94397*
X109854Y94373*
Y94868*
G37*
G36*
X172592Y102212D02*
X172392Y102186D01*
X172087Y102059*
X171825Y101858*
X171624Y101596*
X171497Y101291*
X171471Y101091*
X172592*
Y102212*
G37*
G36*
X172846D02*
Y101091D01*
X173967*
X173941Y101291*
X173814Y101596*
X173613Y101858*
X173351Y102059*
X173046Y102186*
X172846Y102212*
G37*
G36*
X59562Y102361D02*
X59067D01*
X59091Y102240*
X59231Y102030*
X59441Y101890*
X59562Y101866*
Y102361*
G37*
G36*
X93598Y106559D02*
X93399Y106532D01*
X93214Y106456*
X93055Y106333*
X92932Y106174*
X92856Y105989*
X92829Y105790*
X92856Y105591*
X92932Y105406*
X93055Y105247*
X93145Y105177*
Y100644*
X92206Y99705*
X92201Y99706*
X91953Y99657*
X91743Y99517*
X91603Y99307*
X91554Y99059*
X91603Y98811*
X91697Y98670*
X91637Y98558*
X90076*
X89784Y98850*
X89800Y98932*
X89751Y99180*
X89611Y99390*
X89401Y99530*
X89153Y99579*
X88905Y99530*
X88695Y99390*
X88555Y99180*
X88506Y98932*
X88555Y98684*
X88695Y98474*
X88905Y98334*
X89153Y98285*
X89235Y98301*
X89640Y97895*
X89766Y97811*
X89915Y97782*
X93475*
X93521Y97712*
X93731Y97572*
X93979Y97523*
X94227Y97572*
X94437Y97712*
X94577Y97922*
X94626Y98170*
X94577Y98418*
X94437Y98628*
X94227Y98768*
X93979Y98817*
X93731Y98768*
X93521Y98628*
X93475Y98558*
X92765*
X92705Y98670*
X92799Y98811*
X92848Y99059*
X92847Y99064*
X93918Y100136*
X94017Y100283*
X94051Y100456*
Y105177*
X94141Y105247*
X94264Y105406*
X94340Y105591*
X94367Y105790*
X94340Y105989*
X94264Y106174*
X94141Y106333*
X93982Y106456*
X93797Y106532*
X93598Y106559*
G37*
G36*
X172592Y100837D02*
X171471D01*
X171497Y100637*
X171624Y100332*
X171825Y100070*
X172087Y99869*
X172392Y99742*
X172592Y99716*
Y100837*
G37*
G36*
X173967D02*
X172846D01*
Y99716*
X173046Y99742*
X173351Y99869*
X173613Y100070*
X173814Y100332*
X173941Y100637*
X173967Y100837*
G37*
G36*
X119481Y105787D02*
X119218Y105752D01*
X118974Y105651*
X118765Y105490*
X118604Y105280*
X118502Y105036*
X118468Y104774*
X118502Y104512*
X118604Y104268*
X118765Y104058*
X118974Y103897*
X119218Y103796*
X119481Y103761*
X119743Y103796*
X119987Y103897*
X120197Y104058*
X120358Y104268*
X120459Y104512*
X120493Y104774*
X120459Y105036*
X120358Y105280*
X120197Y105490*
X119987Y105651*
X119743Y105752*
X119481Y105787*
G37*
G36*
X124561Y108327D02*
X124298Y108292D01*
X124054Y108191*
X123845Y108030*
X123684Y107820*
X123582Y107576*
X123548Y107314*
X123582Y107052*
X123684Y106808*
X123845Y106598*
X124054Y106437*
X124298Y106336*
X124561Y106301*
X124823Y106336*
X125067Y106437*
X125277Y106598*
X125438Y106808*
X125539Y107052*
X125573Y107314*
X125539Y107576*
X125438Y107820*
X125277Y108030*
X125067Y108191*
X124823Y108292*
X124561Y108327*
G37*
G36*
X127101D02*
X126839Y108292D01*
X126594Y108191*
X126385Y108030*
X126224Y107820*
X126122Y107576*
X126088Y107314*
X126122Y107052*
X126224Y106808*
X126385Y106598*
X126594Y106437*
X126839Y106336*
X127101Y106301*
X127363Y106336*
X127607Y106437*
X127817Y106598*
X127978Y106808*
X128079Y107052*
X128113Y107314*
X128079Y107576*
X127978Y107820*
X127817Y108030*
X127607Y108191*
X127363Y108292*
X127101Y108327*
G37*
G36*
X129641D02*
X129379Y108292D01*
X129134Y108191*
X128925Y108030*
X128764Y107820*
X128662Y107576*
X128628Y107314*
X128662Y107052*
X128764Y106808*
X128925Y106598*
X129134Y106437*
X129379Y106336*
X129641Y106301*
X129903Y106336*
X130147Y106437*
X130357Y106598*
X130518Y106808*
X130619Y107052*
X130653Y107314*
X130619Y107576*
X130518Y107820*
X130357Y108030*
X130147Y108191*
X129903Y108292*
X129641Y108327*
G37*
G36*
X116941D02*
X116678Y108292D01*
X116434Y108191*
X116225Y108030*
X116064Y107820*
X115962Y107576*
X115928Y107314*
X115962Y107052*
X116064Y106808*
X116225Y106598*
X116434Y106437*
X116678Y106336*
X116941Y106301*
X117203Y106336*
X117447Y106437*
X117657Y106598*
X117818Y106808*
X117919Y107052*
X117953Y107314*
X117919Y107576*
X117818Y107820*
X117657Y108030*
X117447Y108191*
X117203Y108292*
X116941Y108327*
G37*
G36*
X119481D02*
X119218Y108292D01*
X118974Y108191*
X118765Y108030*
X118604Y107820*
X118502Y107576*
X118468Y107314*
X118502Y107052*
X118604Y106808*
X118765Y106598*
X118974Y106437*
X119218Y106336*
X119481Y106301*
X119743Y106336*
X119987Y106437*
X120197Y106598*
X120358Y106808*
X120459Y107052*
X120493Y107314*
X120459Y107576*
X120358Y107820*
X120197Y108030*
X119987Y108191*
X119743Y108292*
X119481Y108327*
G37*
G36*
X122021D02*
X121758Y108292D01*
X121514Y108191*
X121305Y108030*
X121144Y107820*
X121042Y107576*
X121008Y107314*
X121042Y107052*
X121144Y106808*
X121305Y106598*
X121514Y106437*
X121758Y106336*
X122021Y106301*
X122283Y106336*
X122527Y106437*
X122737Y106598*
X122898Y106808*
X122999Y107052*
X123033Y107314*
X122999Y107576*
X122898Y107820*
X122737Y108030*
X122527Y108191*
X122283Y108292*
X122021Y108327*
G37*
G36*
X49021Y110201D02*
Y108076D01*
X51146*
X51115Y108391*
X50986Y108816*
X50777Y109207*
X50496Y109551*
X50152Y109832*
X49761Y110042*
X49336Y110170*
X49021Y110201*
G37*
G36*
X173862D02*
X173547Y110170D01*
X173122Y110042*
X172731Y109832*
X172387Y109551*
X172106Y109207*
X171897Y108816*
X171768Y108391*
X171737Y108076*
X173862*
Y110201*
G37*
G36*
X174116D02*
Y108076D01*
X176241*
X176210Y108391*
X176082Y108816*
X175872Y109207*
X175591Y109551*
X175247Y109832*
X174856Y110042*
X174431Y110170*
X174116Y110201*
G37*
G36*
X132181Y108327D02*
X131918Y108292D01*
X131674Y108191*
X131465Y108030*
X131304Y107820*
X131202Y107576*
X131168Y107314*
X131202Y107052*
X131304Y106808*
X131465Y106598*
X131674Y106437*
X131918Y106336*
X132181Y106301*
X132443Y106336*
X132687Y106437*
X132897Y106598*
X133058Y106808*
X133159Y107052*
X133193Y107314*
X133159Y107576*
X133058Y107820*
X132897Y108030*
X132687Y108191*
X132443Y108292*
X132181Y108327*
G37*
G36*
X153771D02*
X153509Y108292D01*
X153264Y108191*
X153055Y108030*
X152894Y107820*
X152792Y107576*
X152758Y107314*
X152792Y107052*
X152841Y106934*
X152251Y106344*
X152167Y106218*
X152138Y106069*
Y105439*
X152017Y105398*
X151947Y105490*
X151737Y105651*
X151493Y105752*
X151231Y105787*
X150968Y105752*
X150724Y105651*
X150515Y105490*
X150495Y105464*
X150374Y105505*
Y105908*
X150851Y106385*
X150968Y106336*
X151231Y106301*
X151493Y106336*
X151737Y106437*
X151947Y106598*
X152108Y106808*
X152209Y107052*
X152243Y107314*
X152209Y107576*
X152108Y107820*
X151947Y108030*
X151737Y108191*
X151493Y108292*
X151231Y108327*
X150968Y108292*
X150724Y108191*
X150515Y108030*
X150354Y107820*
X150252Y107576*
X150218Y107314*
X150252Y107052*
X150301Y106934*
X149711Y106344*
X149627Y106218*
X149598Y106069*
Y105439*
X149477Y105398*
X149407Y105490*
X149197Y105651*
X148953Y105752*
X148691Y105787*
X148429Y105752*
X148184Y105651*
X147975Y105490*
X147814Y105280*
X147712Y105036*
X147678Y104774*
X147712Y104512*
X147761Y104394*
X147272Y103905*
X147155Y103953*
Y105656*
X147421*
X147569Y105685*
X147695Y105769*
X148311Y106385*
X148429Y106336*
X148691Y106301*
X148953Y106336*
X149197Y106437*
X149407Y106598*
X149568Y106808*
X149669Y107052*
X149703Y107314*
X149669Y107576*
X149568Y107820*
X149407Y108030*
X149197Y108191*
X148953Y108292*
X148691Y108327*
X148429Y108292*
X148184Y108191*
X147975Y108030*
X147814Y107820*
X147712Y107576*
X147678Y107314*
X147712Y107052*
X147761Y106934*
X147260Y106432*
X146849*
X146808Y106553*
X146867Y106598*
X147028Y106808*
X147129Y107052*
X147163Y107314*
X147129Y107576*
X147028Y107820*
X146867Y108030*
X146657Y108191*
X146413Y108292*
X146151Y108327*
X145888Y108292*
X145644Y108191*
X145435Y108030*
X145274Y107820*
X145172Y107576*
X145138Y107314*
X145172Y107052*
X145274Y106808*
X145435Y106598*
X145493Y106553*
X145453Y106432*
X136651*
X136502Y106403*
X136376Y106319*
X120996Y90938*
X112092*
X111957Y91029*
X111759Y91068*
X111561Y91029*
X111393Y90916*
X111280Y90748*
X111241Y90550*
X111248Y90516*
X111158Y90426*
X111124Y90433*
X110926Y90394*
X110758Y90281*
X110645Y90113*
X110606Y89915*
X110645Y89717*
X110758Y89549*
X110926Y89436*
X111124Y89397*
X111322Y89436*
X111457Y89527*
X121284*
X121433Y89556*
X121559Y89640*
X135034Y103116*
X147421*
X147569Y103145*
X147695Y103229*
X148311Y103845*
X148429Y103796*
X148691Y103761*
X148953Y103796*
X149197Y103897*
X149407Y104058*
X149477Y104150*
X149598Y104109*
Y103538*
X145761Y99701*
X132547*
X132399Y99672*
X132272Y99588*
X121845Y89160*
X118617*
X118468Y89131*
X118342Y89047*
X116165Y86869*
X116006Y86838*
X115838Y86725*
X115725Y86557*
X115686Y86359*
X115725Y86161*
X115838Y85993*
X116006Y85880*
X116204Y85841*
X116238Y85848*
X116328Y85758*
X116321Y85724*
X116360Y85526*
X116473Y85358*
X116641Y85245*
X116839Y85206*
X116873Y85213*
X116963Y85123*
X116956Y85089*
X116995Y84891*
X117108Y84723*
X117276Y84610*
X117474Y84571*
X117508Y84578*
X117598Y84488*
X117591Y84454*
X117630Y84256*
X117673Y84192*
X117613Y84080*
X115984*
X107589Y92476*
X107538Y92509*
X107518Y92632*
X107658Y92842*
X107707Y93090*
X107668Y93287*
X107774Y93358*
X107846Y93309*
X108044Y93270*
X108242Y93309*
X108410Y93422*
X108523Y93590*
X108562Y93788*
X108523Y93986*
X108432Y94121*
Y101885*
X108403Y102034*
X108319Y102160*
X105049Y105430*
X104923Y105514*
X104774Y105543*
X102948*
X102813Y105634*
X102615Y105673*
X102417Y105634*
X102249Y105521*
X102136Y105353*
X102097Y105155*
X102136Y104957*
X102249Y104789*
X102417Y104676*
X102615Y104637*
X102813Y104676*
X102948Y104767*
X104613*
X107656Y101724*
Y94121*
X107565Y93986*
X107526Y93788*
X107550Y93667*
X107444Y93597*
X107308Y93688*
X107060Y93737*
X106897Y93705*
X106807Y93795*
X106818Y93852*
X106769Y94100*
X106629Y94310*
X106419Y94450*
X106171Y94499*
X105923Y94450*
X105713Y94310*
X105667Y94240*
X105032*
X104984Y94358*
X106700Y96074*
X106784Y96200*
X106813Y96348*
Y99444*
X106883Y99490*
X107023Y99700*
X107072Y99948*
X107023Y100196*
X106883Y100406*
X106673Y100546*
X106425Y100595*
X106177Y100546*
X106036Y100452*
X105924Y100512*
Y100841*
X105994Y100887*
X106134Y101097*
X106183Y101345*
X106134Y101593*
X105994Y101803*
X105784Y101943*
X105536Y101992*
X105288Y101943*
X105078Y101803*
X104938Y101593*
X104889Y101345*
X104938Y101097*
X105078Y100887*
X105148Y100841*
Y97315*
X104359Y96526*
X101687*
X101638Y96644*
X103271Y98276*
X103355Y98402*
X103384Y98551*
Y99317*
X103454Y99363*
X103594Y99573*
X103643Y99821*
X103594Y100069*
X103454Y100279*
X103244Y100419*
X103224Y100423*
X103199Y100548*
X103327Y100633*
X103467Y100843*
X103516Y101091*
X103479Y101280*
X103569Y101370*
X103758Y101333*
X104006Y101382*
X104216Y101522*
X104356Y101732*
X104405Y101980*
X104356Y102228*
X104216Y102438*
X104006Y102578*
X103758Y102627*
X103510Y102578*
X103300Y102438*
X103254Y102368*
X102488*
X102339Y102339*
X102213Y102255*
X101324Y101366*
X101240Y101240*
X101211Y101091*
Y98839*
X98898Y96526*
X82646*
X82633Y96653*
X82747Y96675*
X82915Y96788*
X83028Y96956*
X83067Y97154*
X83028Y97352*
X82937Y97487*
Y98644*
X85377Y101084*
X88522*
X88568Y101014*
X88778Y100874*
X89026Y100825*
X89274Y100874*
X89484Y101014*
X89624Y101224*
X89673Y101472*
X89624Y101720*
X89484Y101930*
X89274Y102070*
X89026Y102119*
X88778Y102070*
X88568Y101930*
X88522Y101860*
X85216*
X85067Y101831*
X84941Y101747*
X82274Y99080*
X82190Y98954*
X82161Y98805*
Y97487*
X82070Y97352*
X82031Y97154*
X82070Y96956*
X82183Y96788*
X82351Y96675*
X82465Y96653*
X82452Y96526*
X75852*
X74569Y97810*
X74443Y97894*
X74294Y97923*
X70010*
X66695Y101239*
X66569Y101323*
X66420Y101352*
X60022*
X59887Y101443*
X59689Y101482*
X59491Y101443*
X59323Y101330*
X59210Y101162*
X59171Y100964*
X59210Y100766*
X59323Y100598*
X59491Y100485*
X59689Y100446*
X59887Y100485*
X60022Y100576*
X60209*
X60269Y100464*
X60226Y100400*
X60187Y100202*
X60226Y100004*
X60339Y99836*
X60507Y99723*
X60705Y99684*
X60903Y99723*
X61023Y99804*
X61145Y99767*
X61174Y99696*
X60811Y99334*
X60727Y99208*
X60698Y99059*
Y95084*
X60194Y94580*
X60035Y94549*
X59867Y94436*
X59754Y94268*
X59715Y94070*
X59754Y93872*
X59867Y93704*
X60035Y93591*
X60233Y93552*
X60431Y93591*
X60599Y93704*
X60712Y93872*
X60743Y94031*
X61361Y94648*
X61445Y94774*
X61474Y94923*
Y98708*
X61601Y98721*
X61623Y98607*
X61736Y98439*
X61904Y98326*
X62102Y98287*
X62300Y98326*
X62435Y98417*
X63411*
X63460Y98299*
X61954Y96794*
X61870Y96668*
X61841Y96519*
Y93931*
X61750Y93796*
X61711Y93598*
X61750Y93400*
X61863Y93232*
X62031Y93119*
X62229Y93080*
X62427Y93119*
X62595Y93232*
X62708Y93400*
X62747Y93598*
X62708Y93796*
X62617Y93931*
Y96358*
X64168Y97909*
X66052*
X68733Y95228*
X68859Y95144*
X69007Y95115*
X69507*
X69556Y94997*
X68939Y94381*
X68855Y94255*
X68826Y94106*
Y92616*
X68037Y91827*
X62644*
X61488Y92984*
X61362Y93068*
X61213Y93097*
X54688*
X54553Y93188*
X54355Y93227*
X54157Y93188*
X53989Y93075*
X53876Y92907*
X53837Y92709*
X53876Y92511*
X53989Y92343*
X54157Y92230*
X54355Y92191*
X54553Y92230*
X54688Y92321*
X61052*
X61470Y91903*
X61410Y91791*
X61213Y91830*
X61015Y91791*
X60847Y91678*
X60734Y91510*
X60695Y91312*
X60734Y91114*
X60847Y90946*
X61015Y90833*
X61174Y90802*
X61262Y90714*
X61319Y90656*
X61445Y90572*
X61594Y90543*
X68408*
X68557Y90572*
X68683Y90656*
X69997Y91970*
X70081Y92096*
X70110Y92245*
Y93735*
X70474Y94099*
X70735*
X70772Y93977*
X70753Y93964*
X70640Y93796*
X70601Y93598*
X70640Y93400*
X70753Y93232*
X70921Y93119*
X71119Y93080*
X71317Y93119*
X71452Y93210*
X72005*
X72042Y93088*
X72023Y93075*
X71910Y92907*
X71871Y92709*
X71910Y92511*
X72023Y92343*
X72191Y92230*
X72350Y92199*
X72473Y92076*
X72424Y91958*
X72082*
X71952Y92045*
X71754Y92084*
X71556Y92045*
X71388Y91933*
X71275Y91765*
X71236Y91567*
X71275Y91368*
X71388Y91200*
X71556Y91088*
X71754Y91049*
X71952Y91088*
X72092Y91182*
X103106*
X103124Y91178*
X103272Y91208*
X103398Y91292*
X104561Y92455*
X104673Y92395*
X104635Y92201*
X104684Y91953*
X104824Y91743*
X105034Y91603*
X105282Y91554*
X105471Y91591*
X105561Y91501*
X105524Y91312*
X105573Y91064*
X105713Y90854*
X105923Y90714*
X106171Y90665*
X106419Y90714*
X106629Y90854*
X106675Y90924*
X107280*
X112528Y85676*
X112447Y85578*
X112344Y85647*
X112195Y85676*
X110568*
X110433Y85767*
X110235Y85806*
X110037Y85767*
X109869Y85654*
X109756Y85486*
X109717Y85288*
X109756Y85090*
X109869Y84922*
X110037Y84809*
X110235Y84770*
X110433Y84809*
X110568Y84900*
X112034*
X115562Y81372*
Y81104*
X115471Y80969*
X115432Y80771*
X115471Y80573*
X115584Y80405*
X115752Y80292*
X115950Y80253*
X116148Y80292*
X116316Y80405*
X116429Y80573*
X116468Y80771*
X116429Y80969*
X116338Y81104*
Y81533*
X116309Y81682*
X116225Y81808*
X115236Y82796*
X115317Y82894*
X115420Y82825*
X115445Y82820*
X115569Y82796*
X128632*
X132072Y79356*
Y78227*
X132002Y78181*
X131888Y78011*
X131761*
X131648Y78181*
X131438Y78321*
X131190Y78370*
X130942Y78321*
X130732Y78181*
X130592Y77971*
X130543Y77723*
X130592Y77475*
X130732Y77265*
X130802Y77219*
Y73913*
X130831Y73764*
X130915Y73638*
X134979Y69574*
X135105Y69490*
X135254Y69461*
X143348*
X145026Y67783*
Y65742*
X144710*
Y64434*
Y64342*
Y63034*
X144961*
Y62547*
X144882Y62515*
X144662Y62346*
X144493Y62126*
X144387Y61869*
X144351Y61594*
X144387Y61319*
X144493Y61062*
X144662Y60842*
X144882Y60673*
X145139Y60567*
X145414Y60531*
X145689Y60567*
X145946Y60673*
X146166Y60842*
X146335Y61062*
X146441Y61319*
X146477Y61594*
X146441Y61869*
X146335Y62126*
X146166Y62346*
X145946Y62515*
X145867Y62547*
Y63034*
X146118*
Y64342*
Y64434*
Y65742*
X145802*
Y67686*
X145920Y67734*
X147566Y66089*
Y65742*
X147250*
Y64434*
Y64342*
Y63034*
X148658*
Y63235*
X149482*
X150041Y62676*
Y62547*
X149962Y62515*
X149742Y62346*
X149573Y62126*
X149467Y61869*
X149431Y61594*
X149467Y61319*
X149573Y61062*
X149742Y60842*
X149962Y60673*
X150219Y60567*
X150494Y60531*
X150769Y60567*
X151026Y60673*
X151246Y60842*
X151415Y61062*
X151521Y61319*
X151557Y61594*
X151521Y61869*
X151415Y62126*
X151246Y62346*
X151026Y62515*
X150947Y62547*
Y62864*
X150913Y63037*
X150864Y63111*
X150814Y63184*
X149990Y64008*
X149843Y64107*
X149670Y64141*
X148658*
Y64342*
Y64434*
Y65742*
X148342*
Y66249*
X148313Y66398*
X148229Y66524*
X143994Y70759*
X143868Y70843*
X143719Y70872*
X135542*
X132848Y73566*
Y77219*
X132918Y77265*
X133058Y77475*
X133107Y77723*
X133058Y77971*
X132918Y78181*
X132848Y78227*
Y79517*
X132819Y79665*
X132735Y79791*
X131095Y81431*
X131155Y81543*
X131190Y81536*
X131438Y81585*
X131648Y81726*
X131788Y81936*
X131837Y82184*
X131788Y82431*
X131648Y82641*
X131438Y82782*
X131190Y82831*
X131108Y82815*
X129956Y83967*
X129830Y84051*
X129681Y84080*
X118605*
X118545Y84192*
X118588Y84256*
X118619Y84415*
X121064Y86860*
X122681*
X122830Y86889*
X122956Y86973*
X133383Y97401*
X147954*
X148103Y97430*
X148229Y97514*
X154045Y103331*
X154129Y103457*
X154159Y103606*
Y103848*
X154277Y103897*
X154487Y104058*
X154648Y104268*
X154749Y104512*
X154783Y104774*
X154749Y105036*
X154648Y105280*
X154487Y105490*
X154277Y105651*
X154033Y105752*
X153771Y105787*
X153509Y105752*
X153264Y105651*
X153055Y105490*
X153035Y105464*
X152914Y105505*
Y105908*
X153391Y106385*
X153509Y106336*
X153771Y106301*
X154033Y106336*
X154277Y106437*
X154487Y106598*
X154648Y106808*
X154749Y107052*
X154783Y107314*
X154749Y107576*
X154648Y107820*
X154487Y108030*
X154277Y108191*
X154033Y108292*
X153771Y108327*
G37*
G36*
X48767Y110201D02*
X48452Y110170D01*
X48027Y110042*
X47636Y109832*
X47292Y109551*
X47011Y109207*
X46802Y108816*
X46673Y108391*
X46642Y108076*
X48767*
Y110201*
G37*
G36*
X129641Y105787D02*
X129379Y105752D01*
X129134Y105651*
X128925Y105490*
X128764Y105280*
X128662Y105036*
X128628Y104774*
X128662Y104512*
X128764Y104268*
X128925Y104058*
X129134Y103897*
X129379Y103796*
X129641Y103761*
X129903Y103796*
X130147Y103897*
X130357Y104058*
X130518Y104268*
X130619Y104512*
X130653Y104774*
X130619Y105036*
X130518Y105280*
X130357Y105490*
X130147Y105651*
X129903Y105752*
X129641Y105787*
G37*
G36*
X132181D02*
X131918Y105752D01*
X131674Y105651*
X131465Y105490*
X131304Y105280*
X131202Y105036*
X131168Y104774*
X131202Y104512*
X131304Y104268*
X131465Y104058*
X131674Y103897*
X131918Y103796*
X132181Y103761*
X132443Y103796*
X132687Y103897*
X132897Y104058*
X133058Y104268*
X133159Y104512*
X133193Y104774*
X133159Y105036*
X133058Y105280*
X132897Y105490*
X132687Y105651*
X132443Y105752*
X132181Y105787*
G37*
G36*
X115405Y105778D02*
X113397D01*
Y103770*
X115405*
Y105778*
G37*
G36*
X122021Y105787D02*
X121758Y105752D01*
X121514Y105651*
X121305Y105490*
X121144Y105280*
X121042Y105036*
X121008Y104774*
X121042Y104512*
X121144Y104268*
X121305Y104058*
X121514Y103897*
X121758Y103796*
X122021Y103761*
X122283Y103796*
X122527Y103897*
X122737Y104058*
X122898Y104268*
X122999Y104512*
X123033Y104774*
X122999Y105036*
X122898Y105280*
X122737Y105490*
X122527Y105651*
X122283Y105752*
X122021Y105787*
G37*
G36*
X124561D02*
X124298Y105752D01*
X124054Y105651*
X123845Y105490*
X123684Y105280*
X123582Y105036*
X123548Y104774*
X123582Y104512*
X123684Y104268*
X123845Y104058*
X124054Y103897*
X124298Y103796*
X124561Y103761*
X124823Y103796*
X125067Y103897*
X125277Y104058*
X125438Y104268*
X125539Y104512*
X125573Y104774*
X125539Y105036*
X125438Y105280*
X125277Y105490*
X125067Y105651*
X124823Y105752*
X124561Y105787*
G37*
G36*
X127101D02*
X126839Y105752D01*
X126594Y105651*
X126385Y105490*
X126224Y105280*
X126122Y105036*
X126088Y104774*
X126122Y104512*
X126224Y104268*
X126385Y104058*
X126594Y103897*
X126839Y103796*
X127101Y103761*
X127363Y103796*
X127607Y103897*
X127817Y104058*
X127978Y104268*
X128079Y104512*
X128113Y104774*
X128079Y105036*
X127978Y105280*
X127817Y105490*
X127607Y105651*
X127363Y105752*
X127101Y105787*
G37*
G36*
X176241Y107822D02*
X174116D01*
Y105697*
X174431Y105728*
X174856Y105856*
X175247Y106066*
X175591Y106347*
X175872Y106691*
X176082Y107082*
X176210Y107507*
X176241Y107822*
G37*
G36*
X74294Y107321D02*
X74095Y107294D01*
X73910Y107218*
X73751Y107095*
X73628Y106936*
X73552Y106751*
X73525Y106552*
X73552Y106353*
X73628Y106168*
X73751Y106009*
X73910Y105886*
X74095Y105810*
X74294Y105783*
X74493Y105810*
X74678Y105886*
X74837Y106009*
X74960Y106168*
X75036Y106353*
X75063Y106552*
X75036Y106751*
X74960Y106936*
X74837Y107095*
X74678Y107218*
X74493Y107294*
X74294Y107321*
G37*
G36*
X114401Y108327D02*
X114139Y108292D01*
X113894Y108191*
X113685Y108030*
X113524Y107820*
X113422Y107576*
X113388Y107314*
X113422Y107052*
X113524Y106808*
X113685Y106598*
X113894Y106437*
X114139Y106336*
X114401Y106301*
X114663Y106336*
X114907Y106437*
X115117Y106598*
X115278Y106808*
X115379Y107052*
X115413Y107314*
X115379Y107576*
X115278Y107820*
X115117Y108030*
X114907Y108191*
X114663Y108292*
X114401Y108327*
G37*
G36*
X48767Y107822D02*
X46642D01*
X46673Y107507*
X46802Y107082*
X47011Y106691*
X47292Y106347*
X47636Y106066*
X48027Y105856*
X48452Y105728*
X48767Y105697*
Y107822*
G37*
G36*
X51146D02*
X49021D01*
Y105697*
X49336Y105728*
X49761Y105856*
X50152Y106066*
X50496Y106347*
X50777Y106691*
X50986Y107082*
X51115Y107507*
X51146Y107822*
G37*
G36*
X173862D02*
X171737D01*
X171768Y107507*
X171897Y107082*
X172106Y106691*
X172387Y106347*
X172731Y106066*
X173122Y105856*
X173547Y105728*
X173862Y105697*
Y107822*
G37*
G36*
X152272Y85335D02*
X152134Y85317D01*
X151887Y85214*
X151674Y85052*
X151512Y84839*
X151409Y84592*
X151391Y84454*
X152272*
Y85335*
G37*
G36*
X152526D02*
Y84454D01*
X153407*
X153389Y84592*
X153286Y84839*
X153124Y85052*
X152911Y85214*
X152664Y85317*
X152526Y85335*
G37*
G36*
X104139Y85203D02*
X104018Y85179D01*
X103808Y85039*
X103668Y84829*
X103644Y84708*
X104139*
Y85203*
G37*
G36*
X66743Y84135D02*
X66166D01*
Y83608*
X66743*
Y84135*
G37*
G36*
X104139Y84454D02*
X103644D01*
X103668Y84333*
X103808Y84123*
X104018Y83983*
X104139Y83959*
Y84454*
G37*
G36*
X104888D02*
X104393D01*
Y83959*
X104514Y83983*
X104724Y84123*
X104864Y84333*
X104888Y84454*
G37*
G36*
X110108Y86740D02*
X109613D01*
X109637Y86619*
X109777Y86409*
X109987Y86269*
X110108Y86245*
Y86740*
G37*
G36*
X110857D02*
X110362D01*
Y86245*
X110483Y86269*
X110693Y86409*
X110833Y86619*
X110857Y86740*
G37*
G36*
X136778Y90435D02*
X136530Y90386D01*
X136320Y90246*
X136180Y90036*
X136131Y89788*
X136180Y89540*
X136320Y89330*
X136390Y89284*
Y87752*
X136320Y87706*
X136180Y87496*
X136131Y87248*
X136180Y87000*
X136320Y86790*
X136530Y86650*
X136778Y86601*
X137026Y86650*
X137236Y86790*
X137376Y87000*
X137425Y87248*
X137376Y87496*
X137236Y87706*
X137166Y87752*
Y89284*
X137236Y89330*
X137376Y89540*
X137425Y89788*
X137376Y90036*
X137236Y90246*
X137026Y90386*
X136778Y90435*
G37*
G36*
X104393Y85203D02*
Y84708D01*
X104888*
X104864Y84829*
X104724Y85039*
X104514Y85179*
X104393Y85203*
G37*
G36*
X65404Y88020D02*
X65206Y87981D01*
X65038Y87868*
X64925Y87700*
X64886Y87502*
X64925Y87304*
X65038Y87136*
X65206Y87023*
X65365Y86992*
X65651Y86706*
Y86316*
X65335*
Y85008*
Y84916*
Y84389*
X66743*
Y84916*
Y85008*
Y86316*
X66427*
Y86867*
X66398Y87016*
X66314Y87142*
X65914Y87541*
X65883Y87700*
X65770Y87868*
X65602Y87981*
X65404Y88020*
G37*
G36*
X152399Y88146D02*
X152134Y88111D01*
X151887Y88008*
X151674Y87846*
X151512Y87633*
X151409Y87386*
X151374Y87121*
X151409Y86856*
X151512Y86609*
X151674Y86396*
X151887Y86234*
X152134Y86131*
X152399Y86096*
X152664Y86131*
X152911Y86234*
X153124Y86396*
X153286Y86609*
X153389Y86856*
X153424Y87121*
X153389Y87386*
X153286Y87633*
X153124Y87846*
X152911Y88008*
X152664Y88111*
X152399Y88146*
G37*
G36*
X55879Y80071D02*
X55302D01*
Y79544*
X55879*
Y80071*
G37*
G36*
X56710D02*
X56133D01*
Y79544*
X56710*
Y80071*
G37*
G36*
X64134D02*
X63557D01*
Y79544*
X64134*
Y80071*
G37*
G36*
X80960Y79316D02*
X80433D01*
Y78739*
X80960*
Y79316*
G37*
G36*
X87713D02*
X87186D01*
Y78739*
X87713*
Y79316*
G37*
G36*
X90550Y83450D02*
X90302Y83401D01*
X90092Y83261*
X89952Y83051*
X89903Y82803*
X89952Y82555*
X90092Y82345*
X90162Y82299*
Y82168*
X88899*
Y79120*
X90862*
Y78808*
X90596*
X90504*
X89977*
Y78104*
Y77400*
X90504*
X90596*
X91904*
Y78808*
X91638*
Y79120*
X92201*
Y82168*
X90938*
Y82299*
X91008Y82345*
X91148Y82555*
X91197Y82803*
X91148Y83051*
X91008Y83261*
X90798Y83401*
X90550Y83450*
G37*
G36*
X152272Y84200D02*
X151391D01*
X151409Y84062*
X151512Y83815*
X151674Y83602*
X151887Y83440*
X152134Y83337*
X152272Y83319*
Y84200*
G37*
G36*
X153407D02*
X152526D01*
Y83319*
X152664Y83337*
X152911Y83440*
X153124Y83602*
X153286Y83815*
X153389Y84062*
X153407Y84200*
G37*
G36*
X65912Y84135D02*
X65335D01*
Y83608*
X65912*
Y84135*
G37*
G36*
X64965Y80071D02*
X64388D01*
Y79544*
X64965*
Y80071*
G37*
G36*
X119379Y81859D02*
X119180Y81832D01*
X118995Y81756*
X118836Y81633*
X118713Y81474*
X118637Y81289*
X118610Y81090*
X118637Y80891*
X118713Y80706*
X118836Y80547*
X118995Y80424*
X119180Y80348*
X119379Y80321*
X119578Y80348*
X119763Y80424*
X119922Y80547*
X120045Y80706*
X120121Y80891*
X120148Y81090*
X120121Y81289*
X120045Y81474*
X119922Y81633*
X119763Y81756*
X119578Y81832*
X119379Y81859*
G37*
G36*
X64261Y83575D02*
X64063Y83536D01*
X63895Y83423*
X63782Y83255*
X63743Y83057*
X63782Y82859*
X63873Y82724*
Y82252*
X63557*
Y80944*
Y80852*
Y80325*
X64965*
Y80852*
Y80944*
Y82252*
X64649*
Y82724*
X64740Y82859*
X64779Y83057*
X64740Y83255*
X64627Y83423*
X64459Y83536*
X64261Y83575*
G37*
G36*
X110108Y87489D02*
X109987Y87465D01*
X109777Y87325*
X109637Y87115*
X109613Y86994*
X110108*
Y87489*
G37*
G36*
X59082Y89872D02*
X59011Y89858D01*
X58843Y89745*
X58730Y89577*
X58716Y89506*
X59082*
Y89872*
G37*
G36*
X59336D02*
Y89506D01*
X59702*
X59688Y89577*
X59575Y89745*
X59407Y89858*
X59336Y89872*
G37*
G36*
X61467Y89900D02*
X61396Y89886D01*
X61228Y89773*
X61115Y89605*
X61101Y89534*
X61467*
Y89900*
G37*
G36*
X96252Y89684D02*
X95757D01*
Y89189*
X95878Y89213*
X96088Y89354*
X96228Y89564*
X96252Y89684*
G37*
G36*
X78371Y91030D02*
X78154Y91009D01*
X77824Y90908*
X77519Y90745*
X77252Y90526*
X77033Y90259*
X76870Y89954*
X76769Y89624*
X76748Y89407*
X78371*
Y91030*
G37*
G36*
X78625D02*
Y89407D01*
X80248*
X80227Y89624*
X80126Y89954*
X79963Y90259*
X79744Y90526*
X79477Y90745*
X79172Y90908*
X78842Y91009*
X78625Y91030*
G37*
G36*
X95503Y90434D02*
X95382Y90410D01*
X95172Y90269*
X95032Y90059*
X95008Y89938*
X95503*
Y90434*
G37*
G36*
X95757D02*
Y89938D01*
X96252*
X96228Y90059*
X96088Y90269*
X95878Y90410*
X95757Y90434*
G37*
G36*
X59689Y91830D02*
X59491Y91791D01*
X59356Y91700*
X57657*
X57508Y91671*
X57382Y91587*
X56912Y91117*
X56828Y90991*
X56799Y90842*
Y90692*
X56433*
X56341*
X55714*
Y89788*
Y88884*
X56341*
X56433*
X57941*
Y90692*
X57752*
X57704Y90809*
X57818Y90924*
X59356*
X59491Y90833*
X59689Y90794*
X59887Y90833*
X60055Y90946*
X60168Y91114*
X60207Y91312*
X60168Y91510*
X60055Y91678*
X59887Y91791*
X59689Y91830*
G37*
G36*
X61721Y89900D02*
Y89534D01*
X62087*
X62073Y89605*
X61960Y89773*
X61792Y89886*
X61721Y89900*
G37*
G36*
X104439Y89984D02*
X104368D01*
X104347*
X103039*
Y89668*
X102611*
X102565Y89738*
X102355Y89878*
X102107Y89927*
X101859Y89878*
X101649Y89738*
X101509Y89528*
X101460Y89280*
X101509Y89032*
X101649Y88822*
X101859Y88682*
X102107Y88633*
X102355Y88682*
X102565Y88822*
X102611Y88892*
X103039*
Y88576*
X104347*
X104439*
X105747*
Y89984*
X104439*
G37*
G36*
X55460Y90692D02*
X54833D01*
Y89915*
X55460*
Y90692*
G37*
G36*
X78371Y89153D02*
X76748D01*
X76769Y88936*
X76870Y88606*
X77033Y88301*
X77252Y88034*
X77519Y87815*
X77824Y87652*
X78154Y87551*
X78371Y87530*
Y89153*
G37*
G36*
X80248D02*
X78625D01*
Y87530*
X78842Y87551*
X79172Y87652*
X79477Y87815*
X79744Y88034*
X79963Y88301*
X80126Y88606*
X80227Y88936*
X80248Y89153*
G37*
G36*
X68960Y88782D02*
X68762Y88743D01*
X68594Y88630*
X68481Y88462*
X68442Y88264*
X68481Y88066*
X68572Y87931*
Y87590*
X68454Y87541*
X67692Y88303*
X67661Y88462*
X67548Y88630*
X67380Y88743*
X67182Y88782*
X66984Y88743*
X66816Y88630*
X66703Y88462*
X66664Y88264*
X66703Y88066*
X66816Y87898*
X66984Y87785*
X67143Y87754*
X68064Y86833*
Y78996*
X67942Y78959*
X67929Y78978*
X67761Y79091*
X67563Y79130*
X67365Y79091*
X67197Y78978*
X67084Y78810*
X67053Y78651*
X66894Y78492*
X63248*
X63211Y78614*
X63230Y78627*
X63343Y78795*
X63382Y78993*
X63343Y79191*
X63252Y79326*
Y83184*
X63223Y83333*
X63139Y83459*
X61252Y85345*
X61301Y85463*
X63547*
X63682Y85372*
X63880Y85333*
X64078Y85372*
X64246Y85485*
X64359Y85653*
X64398Y85851*
X64359Y86049*
X64246Y86217*
X64078Y86330*
X63880Y86369*
X63682Y86330*
X63547Y86239*
X61120*
X60472Y86888*
X60346Y86972*
X60197Y87001*
X56771*
X56622Y86972*
X56496Y86888*
X56032Y86423*
X55873Y86392*
X55705Y86279*
X55592Y86111*
X55553Y85913*
X55592Y85715*
X55683Y85580*
Y82252*
X55302*
Y80944*
Y80852*
Y80325*
X56710*
Y80852*
Y80944*
Y82252*
X56459*
Y85580*
X56550Y85715*
X56581Y85874*
X56932Y86225*
X57400*
X57437Y86103*
X57418Y86090*
X57305Y85922*
X57266Y85724*
X57305Y85526*
X57418Y85358*
X57586Y85245*
X57784Y85206*
X57982Y85245*
X58084Y85313*
X58207Y85282*
X58238Y85224*
X58196Y85160*
X58157Y84962*
X58196Y84764*
X58308Y84596*
X58476Y84483*
X58675Y84444*
X58873Y84483*
X59008Y84574*
X60163*
X60295Y84441*
X60235Y84329*
X60197Y84337*
X59999Y84298*
X59831Y84185*
X59718Y84017*
X59687Y83858*
X59549Y83721*
X59437Y83781*
X59445Y83819*
X59406Y84017*
X59293Y84185*
X59125Y84298*
X58927Y84337*
X58729Y84298*
X58561Y84185*
X58448Y84017*
X58417Y83858*
X57509Y82951*
X57425Y82825*
X57396Y82676*
Y79326*
X57305Y79191*
X57266Y78993*
X57305Y78795*
X57418Y78627*
X57437Y78614*
X57400Y78492*
X57183*
X57024Y78651*
X56993Y78810*
X56880Y78978*
X56712Y79091*
X56514Y79130*
X56316Y79091*
X56148Y78978*
X56035Y78810*
X55996Y78612*
X56035Y78414*
X56148Y78246*
X56316Y78133*
X56475Y78102*
X56747Y77829*
X56873Y77745*
X57022Y77716*
X67055*
X67204Y77745*
X67330Y77829*
X67602Y78102*
X67761Y78133*
X67929Y78246*
X67942Y78265*
X68064Y78228*
Y73439*
X62576Y67951*
X59689*
X59540Y67922*
X59414Y67838*
X58779Y67203*
X58695Y67077*
X58666Y66928*
Y66885*
X58350*
Y65577*
Y65485*
Y64177*
X58544*
X58593Y64060*
X58104Y63571*
X57680*
X57655Y63630*
X57493Y63843*
X57280Y64005*
X57033Y64108*
X56768Y64143*
X56503Y64108*
X56256Y64005*
X56043Y63843*
X55881Y63630*
X55778Y63383*
X55743Y63118*
X55778Y62853*
X55881Y62606*
X56043Y62393*
X56256Y62231*
X56503Y62128*
X56768Y62093*
X57033Y62128*
X57280Y62231*
X57493Y62393*
X57655Y62606*
X57680Y62665*
X58292*
X58465Y62699*
X58612Y62798*
X59374Y63560*
X59473Y63707*
X59507Y63880*
Y64177*
X59758*
Y65485*
Y65577*
Y66885*
X59726*
X59678Y67002*
X59850Y67175*
X62424*
X62505Y67077*
X62476Y66928*
Y66885*
X62160*
Y65577*
Y65485*
Y64177*
X63568*
Y64316*
X65851*
X66725Y63442*
X66700Y63383*
X66665Y63118*
X66700Y62853*
X66803Y62606*
X66965Y62393*
X67178Y62231*
X67425Y62128*
X67690Y62093*
X67955Y62128*
X68202Y62231*
X68415Y62393*
X68577Y62606*
X68680Y62853*
X68715Y63118*
X68680Y63383*
X68577Y63630*
X68415Y63843*
X68202Y64005*
X67955Y64108*
X67690Y64143*
X67425Y64108*
X67366Y64083*
X66359Y65089*
X66212Y65188*
X66039Y65222*
X63568*
Y65485*
Y65577*
Y66885*
X63536*
X63488Y67002*
X69235Y72749*
X69319Y72875*
X69348Y73024*
Y87931*
X69439Y88066*
X69478Y88264*
X69439Y88462*
X69326Y88630*
X69158Y88743*
X68960Y88782*
G37*
G36*
X110362Y87489D02*
Y86994D01*
X110857*
X110833Y87115*
X110693Y87325*
X110483Y87465*
X110362Y87489*
G37*
G36*
X69849Y90687D02*
X69651Y90648D01*
X69483Y90535*
X69370Y90367*
X69331Y90169*
X69370Y89971*
X69483Y89803*
X69651Y89690*
X69810Y89659*
X72876Y86592*
X73002Y86508*
X73151Y86479*
X82045*
X82091Y86409*
X82301Y86269*
X82549Y86220*
X82797Y86269*
X83007Y86409*
X83053Y86479*
X88391*
X88540Y86508*
X88666Y86592*
X89442Y87368*
X89620*
X89657Y87247*
X89584Y87198*
X89444Y86988*
X89395Y86740*
X89406Y86682*
X85662Y82937*
X83664*
X83515Y82908*
X83389Y82824*
X82638Y82072*
X81719*
Y79764*
X82085*
Y79316*
X81833*
X81741*
X81214*
Y78612*
Y77908*
X81741*
X81833*
X83141*
Y79316*
X82861*
Y79764*
X83227*
Y81563*
X83825Y82161*
X84919*
Y82072*
Y79764*
X85285*
Y79316*
X85005*
Y77908*
X86313*
X86405*
X86932*
Y78612*
Y79316*
X86405*
X86313*
X86061*
Y79764*
X86427*
Y81306*
X91230Y86109*
X91312Y86093*
X91560Y86142*
X91770Y86282*
X91910Y86492*
X91959Y86740*
X91910Y86988*
X91770Y87198*
X91697Y87247*
X91734Y87368*
X91951*
X91997Y87299*
X92207Y87159*
X92455Y87109*
X92703Y87159*
X92913Y87299*
X93053Y87509*
X93102Y87757*
X93053Y88004*
X92913Y88214*
X92703Y88355*
X92455Y88404*
X92207Y88355*
X91997Y88214*
X91951Y88145*
X89281*
X89132Y88116*
X89006Y88031*
X88230Y87255*
X83053*
X83007Y87325*
X82797Y87465*
X82549Y87514*
X82301Y87465*
X82091Y87325*
X82045Y87255*
X73312*
X70359Y90208*
X70328Y90367*
X70215Y90535*
X70047Y90648*
X69849Y90687*
G37*
G36*
X85998Y91042D02*
X85654Y91009D01*
X85324Y90908*
X85019Y90745*
X84752Y90526*
X84533Y90259*
X84370Y89954*
X84269Y89624*
X84236Y89280*
X84269Y88936*
X84370Y88606*
X84533Y88301*
X84752Y88034*
X85019Y87815*
X85324Y87652*
X85654Y87551*
X85998Y87518*
X86342Y87551*
X86672Y87652*
X86977Y87815*
X87244Y88034*
X87463Y88301*
X87626Y88606*
X87727Y88936*
X87760Y89280*
X87727Y89624*
X87626Y89954*
X87463Y90259*
X87244Y90526*
X86977Y90745*
X86672Y90908*
X86342Y91009*
X85998Y91042*
G37*
G36*
X61467Y89280D02*
X61101D01*
X61115Y89209*
X61228Y89041*
X61396Y88928*
X61467Y88914*
Y89280*
G37*
G36*
X62087D02*
X61721D01*
Y88914*
X61792Y88928*
X61960Y89041*
X62073Y89209*
X62087Y89280*
G37*
G36*
X95503Y89684D02*
X95008D01*
X95032Y89564*
X95172Y89354*
X95382Y89213*
X95503Y89189*
Y89684*
G37*
G36*
X55460Y89661D02*
X54833D01*
Y88884*
X55460*
Y89661*
G37*
G36*
X59082Y89252D02*
X58716D01*
X58730Y89181*
X58843Y89013*
X59011Y88900*
X59082Y88886*
Y89252*
G37*
G36*
X59702D02*
X59336D01*
Y88886*
X59407Y88900*
X59575Y89013*
X59688Y89181*
X59702Y89252*
G37*
%LNlp_led_cube_8x8x8-3*%
%LPD*%
G54D10*
X103693Y89280D03*
X105093D03*
X85154Y75818D03*
X83754D03*
X85154Y74294D03*
X83754D03*
X81087Y78612D03*
X82487D03*
X87059D03*
X85659D03*
X94806Y78104D03*
X93406D03*
X89850D03*
X91250D03*
X87564Y74294D03*
X88964D03*
X87564Y75818D03*
X88964D03*
G54D11*
X64261Y80198D03*
Y81598D03*
X56006Y80198D03*
Y81598D03*
X66039Y85662D03*
Y84262D03*
X62864Y64831D03*
Y66231D03*
X59054Y64831D03*
Y66231D03*
X61721Y70038D03*
Y71438D03*
X60324Y70038D03*
Y71438D03*
X147954Y65088D03*
Y63688D03*
X145414Y65088D03*
Y63688D03*
X156209Y65088D03*
Y63688D03*
X97154Y65088D03*
Y63688D03*
X94614Y65088D03*
Y63688D03*
X71754Y65088D03*
Y63688D03*
G54D27*
X115569Y83184D02*
X128793D01*
X107441Y91312D02*
X115569Y83184D01*
X106171Y91312D02*
X107441D01*
X153771Y103606D02*
Y104774D01*
X147954Y97789D02*
X153771Y103606D01*
X133222Y97789D02*
X147954D01*
X103124Y91567D02*
X104647Y93090D01*
X102869Y92074D02*
X104647Y93852D01*
Y93090D02*
X107060D01*
X104647Y93852D02*
X106171D01*
X103758Y95503D02*
X104012Y95249D01*
X100075Y94106D02*
X101472Y95503D01*
X103758*
X99821Y94614D02*
X101345Y96138D01*
X104520D02*
X105536Y97154D01*
X101345Y96138D02*
X104520D01*
X105536Y97154D02*
Y101345D01*
X102107Y100329D02*
X102869Y101091D01*
X102996Y98551D02*
Y99821D01*
X99567Y95122D02*
X102996Y98551D01*
X99313Y95630D02*
X102107Y98424D01*
Y100329*
X101599Y101091D02*
X102488Y101980D01*
X103758*
X101599Y98678D02*
Y101091D01*
X99059Y96138D02*
X101599Y98678D01*
X88391Y86867D02*
X89281Y87757D01*
X92455*
X73151Y86867D02*
X82549D01*
X88391D01*
X73913Y92582D02*
X102659D01*
X73532Y96011D02*
X74929Y94614D01*
X73786Y96519D02*
X75183Y95122D01*
X74040Y97027D02*
X75437Y95630D01*
X74294Y97535D02*
X75691Y96138D01*
X73278Y95503D02*
X74675Y94106D01*
X100075*
X74929Y94614D02*
X99821D01*
X75183Y95122D02*
X99567D01*
X75437Y95630D02*
X99313D01*
X75691Y96138D02*
X99059D01*
X66213Y98297D02*
X69007Y95503D01*
X73278*
X62229Y93598D02*
Y96519D01*
X64007Y98297*
X66213*
X72389Y92709D02*
X73024Y92074D01*
X102869*
X71751Y91570D02*
X103120D01*
X69849Y90169D02*
X73151Y86867D01*
X54355Y92709D02*
X61213D01*
X62483Y91439*
X68198*
X69214Y92455*
X61213Y91312D02*
X61594Y90931D01*
X68408*
X69722Y92245*
X69214Y94106D02*
X70103Y94995D01*
X69722Y93896D02*
X70313Y94487D01*
X72770*
X70103Y94995D02*
X73024D01*
X74421Y93598*
X72770Y94487D02*
X74167Y93090D01*
X69214Y92455D02*
Y94106D01*
X69722Y92245D02*
Y93896D01*
X71119Y93598D02*
X72897D01*
X73913Y92582*
X59054Y82676D02*
X60197Y83819D01*
X57784Y82676D02*
X58927Y83819D01*
X57784Y78993D02*
Y82676D01*
X59054Y78993D02*
Y82676D01*
X67055Y78104D02*
X67563Y78612D01*
X61594Y78993D02*
Y83692D01*
X62864Y78993D02*
Y83184D01*
X64261Y81598D02*
Y83057D01*
X67182Y88264D02*
X68452Y86994D01*
X66039Y85662D02*
Y86867D01*
X65404Y87502D02*
X66039Y86867D01*
X57187Y89788D02*
Y90842D01*
X57657Y91312*
X57022Y78104D02*
X67055D01*
X56514Y78612D02*
X57022Y78104D01*
X59054Y66928D02*
X59689Y67563D01*
X59054Y66231D02*
Y66928D01*
X147954Y65088D02*
Y66249D01*
X145414Y65088D02*
Y67944D01*
X143719Y70484D02*
X147954Y66249D01*
X143509Y69849D02*
X145414Y67944D01*
X131190Y73913D02*
Y77723D01*
Y73913D02*
X135254Y69849D01*
X143509*
X132460Y73405D02*
Y77723D01*
Y73405D02*
X135381Y70484D01*
X143719*
X74421Y93598D02*
X100964D01*
X101980Y94614*
X74167Y93090D02*
X101980D01*
X102488Y93598*
X132460Y77723D02*
Y79517D01*
X137991Y89845D02*
X140093Y91947D01*
X142309*
X136778Y87248D02*
Y89788D01*
X102107Y89280D02*
X103693D01*
X71754Y65088D02*
X73975D01*
X94614D02*
Y66358D01*
X96519Y68263*
X97154Y76580D02*
X97789Y77215D01*
X97154Y65088D02*
Y76580D01*
X96519Y68263D02*
Y77215D01*
X69218Y96011D02*
X73532D01*
X69428Y96519D02*
X73786D01*
X69639Y97027D02*
X74040D01*
X69849Y97535D02*
X74294D01*
X67055Y92836D02*
Y95630D01*
X65531Y97154D02*
X67055Y95630D01*
X66424Y98805D02*
X69218Y96011D01*
X66253Y99694D02*
X69428Y96519D01*
X66464Y100202D02*
X69639Y97027D01*
X66420Y100964D02*
X69849Y97535D01*
X62102Y98805D02*
X66424D01*
X61721Y99694D02*
X66253D01*
X60705Y100202D02*
X66464D01*
X59689Y100964D02*
X66420D01*
X61086Y99059D02*
X61721Y99694D01*
X61086Y94923D02*
Y99059D01*
X60233Y94070D02*
X61086Y94923D01*
X80644Y70421D02*
X81914Y69150D01*
X80644Y70421D02*
Y73786D01*
X81914Y71183D02*
Y73278D01*
X82930Y74294*
X83754*
X80644Y73786D02*
X82676Y75818D01*
X83754*
X85154Y74294D02*
X86359D01*
X85154Y75818D02*
X86359D01*
X64134Y72262D02*
Y73532D01*
X60324Y71438D02*
Y76072D01*
Y74802D02*
X62864D01*
X64134Y73532*
X68452Y73278D02*
Y86994D01*
X68960Y73024D02*
Y88264D01*
X62737Y67563D02*
X68452Y73278D01*
X62864Y66928D02*
X68960Y73024D01*
X62864Y66231D02*
Y66928D01*
X59689Y67563D02*
X62737D01*
X58675Y84962D02*
X60324D01*
X57784Y85724D02*
X60324D01*
X56071Y85913D02*
X56771Y86613D01*
X56071Y81598D02*
Y85913D01*
X56771Y86613D02*
X60197D01*
X60959Y85851*
X63880*
X60324Y84962D02*
X61594Y83692D01*
X60324Y85724D02*
X62864Y83184D01*
X54355Y92709D02*
X61213D01*
X60233Y94070D02*
X61086Y94923D01*
X57657Y91312D02*
X59689D01*
X61213Y92709D02*
X62483Y91439D01*
X68198*
X61213Y91312D02*
X61594Y90931D01*
X68408*
X61594Y71438D02*
X63310D01*
X64134Y72262*
X90550Y80644D02*
Y82803D01*
X94106Y80644D02*
Y82803D01*
X85561Y80990D02*
X91326Y86754D01*
X82459Y81344D02*
X83664Y82549D01*
X85823*
X90028Y86754*
X82473Y78626D02*
Y80918D01*
X85673Y78626D02*
Y80918D01*
X106425Y96348D02*
Y99948D01*
X102659Y92582D02*
X106425Y96348D01*
X135889Y84708D02*
X137991Y86810D01*
Y89845*
X105282Y92201D02*
X107314D01*
X111759Y90550D02*
X121157D01*
X136651Y106044*
X147421*
X148691Y107314*
X147421Y103504D02*
X148691Y104774D01*
X111124Y89915D02*
X121284D01*
X134873Y103504*
X147421*
X128793Y83184D02*
X132460Y79517D01*
X107314Y92201D02*
X115823Y83692D01*
X129681*
X131190Y82184*
X149986Y106069D02*
X151231Y107314D01*
X146430Y98805D02*
X151231Y103606D01*
Y104774*
X116839Y85724D02*
X119379Y88264D01*
X116204Y86359D02*
X118617Y88772D01*
X149986Y103377D02*
Y106069D01*
X145922Y99313D02*
X149986Y103377D01*
X117474Y85089D02*
X120141Y87756D01*
X122427*
X132968Y98297*
X146938*
X122217Y88264D02*
X132758Y98805D01*
X122006Y88772D02*
X132547Y99313D01*
X119379Y88264D02*
X122217D01*
X118617Y88772D02*
X122006D01*
X132758Y98805D02*
X146430D01*
X132547Y99313D02*
X145922D01*
X146938Y98297D02*
X152526Y103885D01*
Y106069*
X153771Y107314*
X118109Y84454D02*
X120903Y87248D01*
X122681*
X133222Y97789*
X89915Y98170D02*
X93979D01*
X89153Y98932D02*
X89915Y98170D01*
X91250Y78104D02*
Y79944D01*
X93406Y78104D02*
Y79944D01*
X102615Y105155D02*
X104774D01*
X108044Y101885*
Y93788D02*
Y101885D01*
X110235Y85288D02*
X112195D01*
X115950Y81533*
Y80771D02*
Y81533D01*
X82549Y97154D02*
Y98805D01*
X85216Y101472*
X89026*
X86359Y75818D02*
X87564D01*
X86359Y74294D02*
X87564D01*
G54D28*
X92898Y63688D02*
X94614D01*
X92074Y62864D02*
X92898Y63688D01*
X92074Y61594D02*
Y62864D01*
X97154Y61594D02*
Y63688D01*
X71754Y61594D02*
Y63688D01*
X63053Y64769D02*
X66039D01*
X67690Y63118*
X56768D02*
X58292D01*
X59054Y63880*
Y64831*
X106679Y64198D02*
X108774Y62102D01*
X106679Y69675D02*
Y64198D01*
X145414Y61594D02*
Y63688D01*
X150494Y61594D02*
Y62864D01*
X149670Y63688D02*
X150494Y62864D01*
X147954Y63688D02*
X149670D01*
X156209Y61594D02*
Y63688D01*
X93598Y100456D02*
Y105790D01*
X92201Y99059D02*
X93598Y100456D01*
X104727Y71627D02*
X106679Y69675D01*
G54D34*
X173608Y85280D03*
G54D35*
X70992Y103123D03*
G54D36*
X172910Y100964D03*
G54D38*
X104329Y84581D03*
G54D42*
X100837Y103123D03*
G54D46*
X132181Y107314D03*
Y104774D03*
X129641Y107314D03*
Y104774D03*
X127101Y107314D03*
Y104774D03*
X124561Y107314D03*
Y104774D03*
X122021Y107314D03*
Y104774D03*
X119481Y107314D03*
Y104774D03*
X116941Y107314D03*
Y104774D03*
X114401Y107314D03*
X174624Y73278D03*
X153771Y107314D03*
Y104774D03*
X151231Y107314D03*
Y104774D03*
X148691Y107314D03*
Y104774D03*
X146151Y107314D03*
G54D47*
X114401Y104774D03*
X146151D03*
G54D48*
X173989Y107949D03*
X48894D03*
X173989Y62864D03*
X48894D03*
G54D49*
X92201Y99059D03*
X89026Y101472D03*
X100837Y103123D03*
X107060Y93090D03*
X106171Y93852D03*
X104012Y95249D03*
X92455Y87757D03*
X82549Y86867D03*
X105536Y101345D03*
X102996Y99821D03*
X102869Y101091D03*
X103758Y101980D03*
X106425Y99948D03*
X102488Y93598D03*
X101980Y94614D03*
X105282Y92201D03*
X106171Y91312D03*
X105282Y92201D03*
X106171Y91312D03*
X131190Y82184D03*
Y77723D03*
X132460D03*
X136778Y87248D03*
X142309Y91947D03*
X135889Y84708D03*
X136778Y89788D03*
X95630Y89811D03*
X102107Y89280D03*
X109981Y94995D03*
X110235Y86867D03*
X104266Y84581D03*
X74040Y65023D03*
X97789Y77215D03*
X96519D03*
X86359Y74294D03*
Y75818D03*
X104727Y71627D03*
X90550Y82803D03*
X94106D03*
X91312Y86740D03*
X90042D03*
X89153Y98932D03*
X93979Y98170D03*
X59689Y102488D03*
G54D50*
X85998Y89280D03*
X78498D03*
G54D51*
X62229Y93598D03*
X72389Y92709D03*
X61213Y91312D03*
X71119Y93598D03*
X60197Y83819D03*
X58927D03*
X67563Y78612D03*
X69849Y90169D03*
X71754Y91567D03*
X62864Y78993D03*
X64261Y83057D03*
X68960Y88264D03*
X67182D03*
X65404Y87502D03*
X57784Y78993D03*
X56514Y78612D03*
X65531Y97154D03*
X67055Y92836D03*
X62102Y98805D03*
X60705Y100202D03*
X59689Y100964D03*
X60233Y94070D03*
X59054Y78993D03*
X61594D03*
X58675Y84962D03*
X57784Y85724D03*
X56071Y85913D03*
X63880Y85851D03*
X59209Y89379D03*
X59689Y91312D03*
X61594Y89407D03*
X60233Y94070D03*
X54355Y92709D03*
X111759Y90550D03*
X111124Y89915D03*
X116204Y86359D03*
X116839Y85724D03*
X117474Y85089D03*
X118109Y84454D03*
X108044Y93788D03*
X102615Y105155D03*
X110235Y85288D03*
X115950Y80771D03*
X82549Y97154D03*
G54D52*
X119379Y81090D03*
X93598Y105790D03*
X74294Y106552D03*
G54D53*
X119379Y70103D03*
X81914Y71183D03*
Y69150D03*
X84454D03*
X54228Y63118D03*
X56768D03*
X67690D03*
X65150D03*
X151129Y74802D03*
X153923D03*
X152399Y84327D03*
Y87121D03*
X108774Y62102D03*
X104202D03*
X70992Y103123D03*
G54D54*
X174624Y70738D03*
G54D55*
X165670Y70039D03*
X170116Y66865D03*
X165670Y63817D03*
G54D56*
X156209Y61594D03*
X158749D03*
X150494D03*
X153034D03*
X145414D03*
X147954D03*
X97154D03*
X99694D03*
X92074D03*
X94614D03*
X71754D03*
X74294D03*
G54D57*
X115139Y65633D03*
X140129D03*
G54D58*
X133174Y67053D03*
G54D59*
X131789Y64213D03*
X130404Y67053D03*
X129019Y64213D03*
X127634Y67053D03*
X126249Y64213D03*
X124864Y67053D03*
X123479Y64213D03*
X122094Y67053D03*
G54D60*
X76834Y66483D03*
X89534D03*
G54D61*
X84454Y71183D03*
G54D62*
X52704Y70230D03*
X69214D03*
G54D63*
X66674Y73532D03*
X64134D03*
X61594D03*
X65404Y76072D03*
X62864D03*
X60324D03*
X59054Y73532D03*
X57784Y76072D03*
X56514Y73532D03*
X55244Y76072D03*
G54D64*
X109918Y64642D03*
X102933D03*
G54D65*
X172719Y100964D03*
G54D66*
X172719Y97154D03*
G54D67*
X55587Y89788D03*
X57187D03*
G54D68*
X82473Y80918D03*
X85673D03*
G54D69*
X94106Y80644D03*
X90550D03*
G54D70*
X170750Y70548D03*
G54D71*
X78548Y89343D03*
G54D72*
X59753Y102551D03*
G54D73*
X95694Y89852D03*
G54D74*
X109918Y95059D03*
G54D75*
X151065Y74929D03*
G54D76*
X152463Y84327D03*
M02*