%FSLAX43Y43*%
%MOMM*%
%SFA1B1*%

%IPPOS*%
%ADD10R,0.799998X0.899998*%
%ADD11R,0.899998X0.799998*%
%ADD12O,0.599999X2.199996*%
%ADD13R,0.507999X1.499997*%
%ADD14R,2.299995X2.299995*%
%ADD15R,1.199998X1.399997*%
%ADD16R,2.199996X2.199996*%
%ADD17O,1.799996X0.299999*%
%ADD18O,0.299999X1.799996*%
%ADD19R,2.539995X1.015998*%
%ADD20R,1.015998X2.539995*%
%ADD21R,1.199998X0.299999*%
%ADD22R,0.299999X1.199998*%
%ADD23R,2.031996X0.634999*%
%ADD24R,0.999998X2.399995*%
%ADD25R,3.299993X2.399995*%
%ADD26C,0.634999*%
%ADD27C,0.253999*%
%ADD28C,0.380999*%
%ADD29C,0.507999*%
%ADD30R,9.778980X2.158996*%
%ADD31R,7.873984X1.777996*%
%ADD32R,2.539995X4.952990*%
%ADD33R,2.285995X7.873984*%
%ADD34R,3.809992X25.780948*%
%ADD35R,2.793994X2.793994*%
%ADD36R,3.428993X3.047994*%
%ADD37R,3.936992X3.936992*%
%ADD38R,1.650997X1.523997*%
%ADD39R,2.031996X2.008996*%
%ADD40R,1.904996X1.777996*%
%ADD41R,1.777996X1.523997*%
%ADD42R,1.269997X1.269997*%
%ADD43R,3.428993X4.952990*%
%ADD44R,4.825990X2.539995*%
%ADD45R,1.396997X1.523997*%
%ADD46C,1.499997*%
%ADD47R,1.499997X1.499997*%
%ADD48C,3.999992*%
%ADD49C,0.761998*%
%ADD50C,2.999994*%
%ADD51C,0.507999*%
%ADD52C,1.015998*%
%ADD53C,1.523997*%
%ADD54R,1.499997X1.499997*%
%ADD55C,3.809992*%
%ADD56C,1.599997*%
%ADD57C,4.759990*%
%ADD58R,1.689997X1.689997*%
%ADD59C,1.689997*%
%ADD60C,3.555993*%
%ADD61R,1.523997X1.523997*%
%ADD62C,2.031996*%
%ADD63C,1.269997*%
%ADD64C,1.777996*%
%ADD65C,1.999996*%
%ADD66R,1.999996X1.999996*%
%LNlp_led_cube_8x8x8-1*%
%LPD*%
G36*
X177411Y59442D02*
X45472D01*
Y111498*
X177411*
Y59442*
G37*
%LNlp_led_cube_8x8x8-2*%
%LPC*%
G36*
X132460Y76180D02*
X132244Y76137D01*
X132061Y76014*
X131938Y75831*
X131895Y75615*
Y74015*
X131938Y73799*
X132061Y73616*
X132072Y73608*
Y69756*
X131550Y69235*
X131466Y69109*
X131437Y68960*
Y67710*
X131316Y67669*
X131188Y67837*
X130958Y68013*
X130792Y68082*
Y68926*
X131465Y69598*
X131549Y69724*
X131578Y69873*
Y73608*
X131589Y73616*
X131712Y73799*
X131755Y74015*
Y75615*
X131712Y75831*
X131589Y76014*
X131406Y76137*
X131190Y76180*
X130974Y76137*
X130791Y76014*
X130668Y75831*
X130625Y75615*
Y74015*
X130668Y73799*
X130791Y73616*
X130802Y73608*
Y70034*
X130129Y69362*
X130045Y69236*
X130016Y69087*
Y68082*
X129850Y68013*
X129620Y67837*
X129444Y67607*
X129333Y67340*
X129296Y67053*
X129333Y66766*
X129444Y66499*
X129620Y66269*
X129754Y66167*
X129713Y66046*
X129190*
X128636Y66600*
X128705Y66766*
X128742Y67053*
X128705Y67340*
X128594Y67607*
X128418Y67837*
X128188Y68013*
X127921Y68124*
X127634Y68161*
X127347Y68124*
X127080Y68013*
X126850Y67837*
X126674Y67607*
X126563Y67340*
X126526Y67053*
X126563Y66766*
X126674Y66499*
X126850Y66269*
X127080Y66093*
X127347Y65982*
X127634Y65945*
X127921Y65982*
X128087Y66051*
X128737Y65400*
X128713Y65276*
X128465Y65173*
X128235Y64997*
X128059Y64767*
X127948Y64500*
X127911Y64213*
X127948Y63926*
X128059Y63659*
X128235Y63429*
X128465Y63253*
X128732Y63142*
X129019Y63105*
X129306Y63142*
X129573Y63253*
X129803Y63429*
X129979Y63659*
X130090Y63926*
X130127Y64213*
X130090Y64500*
X129979Y64767*
X129803Y64997*
X129604Y65149*
X129645Y65270*
X131163*
X131204Y65149*
X131005Y64997*
X130829Y64767*
X130718Y64500*
X130681Y64213*
X130718Y63926*
X130829Y63659*
X131005Y63429*
X131235Y63253*
X131502Y63142*
X131789Y63105*
X132076Y63142*
X132343Y63253*
X132573Y63429*
X132749Y63659*
X132860Y63926*
X132897Y64213*
X132860Y64500*
X132749Y64767*
X132573Y64997*
X132343Y65173*
X132076Y65284*
X131789Y65321*
X131540Y65289*
X131484Y65403*
X132047Y65966*
X132075Y65954*
X134273*
Y68152*
X132213*
Y68799*
X132735Y69320*
X132819Y69446*
X132824Y69471*
X132848Y69595*
Y73608*
X132859Y73616*
X132982Y73799*
X133025Y74015*
Y75615*
X132982Y75831*
X132859Y76014*
X132676Y76137*
X132460Y76180*
G37*
G36*
X165670Y72209D02*
X165247Y72167D01*
X164840Y72044*
X164465Y71843*
X164136Y71574*
X163867Y71245*
X163666Y70870*
X163543Y70463*
X163501Y70039*
X163543Y69616*
X163666Y69209*
X163867Y68834*
X164136Y68505*
X164465Y68236*
X164840Y68035*
X165247Y67912*
X165670Y67870*
X166094Y67912*
X166501Y68035*
X166876Y68236*
X167205Y68505*
X167474Y68834*
X167675Y69209*
X175513*
X175612Y69229*
X175696Y69285*
X175752Y69369*
X175772Y69468*
Y71627*
X175752Y71726*
X175696Y71810*
X175612Y71866*
X175513Y71886*
X166796*
X166501Y72044*
X166094Y72167*
X165670Y72209*
G37*
G36*
X122221Y68145D02*
Y67180D01*
X123186*
X123165Y67340*
X123054Y67607*
X122878Y67837*
X122648Y68013*
X122381Y68124*
X122221Y68145*
G37*
G36*
X164294Y91312D02*
X163767D01*
Y90735*
X164294*
Y91312*
G37*
G36*
X170242Y69021D02*
Y66992D01*
X172272*
X172243Y67288*
X172120Y67695*
X171919Y68070*
X171650Y68399*
X171321Y68668*
X170946Y68869*
X170539Y68992*
X170242Y69021*
G37*
G36*
X121967Y68145D02*
X121807Y68124D01*
X121540Y68013*
X121310Y67837*
X121134Y67607*
X121023Y67340*
X121002Y67180*
X121967*
Y68145*
G37*
G36*
X52704Y71511D02*
X52372Y71467D01*
X52064Y71339*
X51798Y71136*
X51595Y70870*
X51467Y70562*
X51423Y70230*
X51467Y69898*
X51595Y69590*
X51798Y69324*
X52064Y69121*
X52372Y68993*
X52704Y68949*
X53036Y68993*
X53344Y69121*
X53610Y69324*
X53813Y69590*
X53941Y69898*
X53985Y70230*
X53941Y70562*
X53813Y70870*
X53610Y71136*
X53344Y71339*
X53036Y71467*
X52704Y71511*
G37*
G36*
X152137Y74675D02*
X151256D01*
Y73794*
X151394Y73812*
X151641Y73915*
X151854Y74077*
X152016Y74290*
X152119Y74537*
X152137Y74675*
G37*
G36*
X149478D02*
X148081D01*
Y74040*
X149478*
Y74675*
G37*
G36*
X175513Y98429D02*
X171703D01*
X171604Y98409*
X171602Y98408*
X171465*
Y98271*
X171464Y98269*
X171444Y98170*
Y74426*
X170438*
Y77342*
X170418Y77441*
X170362Y77525*
X170278Y77581*
X170179Y77601*
X170150*
Y77603*
X167342*
Y74795*
X167380*
Y74167*
Y72389*
X167400Y72290*
X167456Y72206*
X167540Y72150*
X167639Y72130*
X175513*
X175612Y72150*
X175696Y72206*
X175752Y72290*
X175772Y72389*
Y98170*
X175752Y98269*
X175696Y98353*
X175612Y98409*
X175513Y98429*
G37*
G36*
X126110Y76180D02*
X125894Y76137D01*
X125711Y76014*
X125588Y75831*
X125545Y75615*
Y74015*
X125588Y73799*
X125711Y73616*
X125722Y73608*
Y72739*
X125695Y72712*
X124886*
X124794*
X123985*
X123958Y72739*
Y73608*
X123969Y73616*
X124092Y73799*
X124135Y74015*
Y75615*
X124092Y75831*
X123969Y76014*
X123786Y76137*
X123570Y76180*
X123354Y76137*
X123171Y76014*
X123048Y75831*
X123005Y75615*
Y74015*
X123048Y73799*
X123171Y73616*
X123182Y73608*
Y72578*
X123211Y72429*
X123295Y72303*
X123486Y72113*
Y71304*
X124794*
X124886*
X126194*
Y72113*
X126385Y72303*
X126469Y72429*
X126498Y72578*
Y73608*
X126509Y73616*
X126632Y73799*
X126675Y74015*
Y75615*
X126632Y75831*
X126509Y76014*
X126326Y76137*
X126110Y76180*
G37*
G36*
X128650D02*
X128434Y76137D01*
X128251Y76014*
X128128Y75831*
X128085Y75615*
Y74015*
X128128Y73799*
X128251Y73616*
X128262Y73608*
Y72712*
X128061*
X127969*
X127768*
Y73608*
X127779Y73616*
X127902Y73799*
X127945Y74015*
Y75615*
X127902Y75831*
X127779Y76014*
X127596Y76137*
X127380Y76180*
X127164Y76137*
X126981Y76014*
X126858Y75831*
X126815Y75615*
Y74015*
X126858Y73799*
X126981Y73616*
X126992Y73608*
Y72712*
X126661*
Y71304*
X127969*
X128061*
X129369*
Y72712*
X129038*
Y73608*
X129049Y73616*
X129172Y73799*
X129215Y74015*
Y75615*
X129172Y75831*
X129049Y76014*
X128866Y76137*
X128650Y76180*
G37*
G36*
X151002Y75810D02*
X150864Y75792D01*
X150617Y75689*
X150453Y75564*
X149732*
Y74802*
Y74040*
X150453*
X150617Y73915*
X150864Y73812*
X151002Y73794*
Y74802*
Y75810*
G37*
G36*
X164294Y92143D02*
X163767D01*
Y91566*
X164294*
Y92143*
G37*
G36*
X124864Y68161D02*
X124577Y68124D01*
X124310Y68013*
X124080Y67837*
X123904Y67607*
X123793Y67340*
X123756Y67053*
X123793Y66766*
X123904Y66499*
X124080Y66269*
X124310Y66093*
X124577Y65982*
X124864Y65945*
X125151Y65982*
X125418Y66093*
X125648Y66269*
X125824Y66499*
X125935Y66766*
X125972Y67053*
X125935Y67340*
X125824Y67607*
X125648Y67837*
X125418Y68013*
X125151Y68124*
X124864Y68161*
G37*
G36*
X121967Y66926D02*
X121002D01*
X121023Y66766*
X121134Y66499*
X121310Y66269*
X121540Y66093*
X121807Y65982*
X121967Y65961*
Y66926*
G37*
G36*
X123186D02*
X122221D01*
Y65961*
X122381Y65982*
X122648Y66093*
X122878Y66269*
X123054Y66499*
X123165Y66766*
X123186Y66926*
G37*
G36*
X115266Y68265D02*
Y65760D01*
X117771*
X117749Y66046*
X117652Y66449*
X117493Y66833*
X117277Y67186*
X117007Y67501*
X116692Y67771*
X116339Y67987*
X115955Y68146*
X115552Y68243*
X115266Y68265*
G37*
G36*
X140002D02*
X139716Y68243D01*
X139313Y68146*
X138929Y67987*
X138576Y67771*
X138261Y67501*
X137991Y67186*
X137775Y66833*
X137616Y66449*
X137519Y66046*
X137497Y65760*
X140002*
Y68265*
G37*
G36*
X140256D02*
Y65760D01*
X142761*
X142739Y66046*
X142642Y66449*
X142483Y66833*
X142267Y67186*
X141997Y67501*
X141682Y67771*
X141329Y67987*
X140945Y68146*
X140542Y68243*
X140256Y68265*
G37*
G36*
X140167Y94696D02*
X139786D01*
Y93819*
X140167*
Y94696*
G37*
G36*
X145102Y92793D02*
X144525D01*
Y92266*
X145102*
Y92793*
G37*
G36*
X144271D02*
X143694D01*
Y92266*
X144271*
Y92793*
G37*
G36*
X169989Y69021D02*
X169692Y68992D01*
X169285Y68869*
X168910Y68668*
X168581Y68399*
X168312Y68070*
X168111Y67695*
X167988Y67288*
X167959Y66992*
X169989*
Y69021*
G37*
G36*
X139532Y94696D02*
X139151D01*
Y93819*
X139532*
Y94696*
G37*
G36*
X140167Y93565D02*
X139786D01*
Y92688*
X140167*
Y93565*
G37*
G36*
X139532D02*
X139151D01*
Y92688*
X139532*
Y93565*
G37*
G36*
X134238Y75245D02*
X133661D01*
Y74718*
X134238*
Y75245*
G37*
G36*
X165353Y84332D02*
X163067D01*
X162968Y84312*
X162884Y84256*
X162828Y84172*
X162808Y84073*
Y76782*
X160654*
X160431Y76737*
X160242Y76611*
X159016Y75385*
X156971*
Y75564*
X154599*
X154435Y75689*
X154188Y75792*
X153923Y75827*
X153658Y75792*
X153411Y75689*
X153198Y75527*
X153036Y75314*
X152933Y75067*
X152898Y74802*
X152933Y74537*
X153036Y74290*
X153198Y74077*
X153411Y73915*
X153658Y73812*
X153923Y73777*
X154188Y73812*
X154435Y73915*
X154599Y74040*
X156971*
Y74219*
X159257*
X159480Y74264*
X159669Y74390*
X160895Y75616*
X162842*
Y74795*
X165650*
Y77603*
X165612*
Y82796*
X166046*
Y82595*
Y82503*
Y81976*
X167454*
Y82503*
Y82595*
Y83903*
X166046*
Y83702*
X165612*
Y84073*
X165592Y84172*
X165536Y84256*
X165452Y84312*
X165353Y84332*
G37*
G36*
X153161Y82676D02*
X152526D01*
Y81279*
X153161*
Y82676*
G37*
G36*
X152272D02*
X151637D01*
Y81279*
X152272*
Y82676*
G37*
G36*
X153407Y84200D02*
X151391D01*
X151409Y84062*
X151512Y83815*
X151637Y83651*
Y82930*
X153161*
Y83651*
X153286Y83815*
X153389Y84062*
X153407Y84200*
G37*
G36*
X159870Y84151D02*
X159243D01*
Y82824*
X159870*
Y84151*
G37*
G36*
X158989D02*
X158362D01*
Y82824*
X158989*
Y84151*
G37*
G36*
X159870Y82570D02*
X159243D01*
Y81243*
X159870*
Y82570*
G37*
G36*
X53847Y80071D02*
X53270D01*
Y79544*
X53847*
Y80071*
G37*
G36*
X124967Y80955D02*
Y79742D01*
X125405*
Y80415*
X125362Y80631*
X125239Y80814*
X125056Y80937*
X124967Y80955*
G37*
G36*
X124713D02*
X124624Y80937D01*
X124441Y80814*
X124318Y80631*
X124275Y80415*
Y79742*
X124713*
Y80955*
G37*
G36*
X158989Y82570D02*
X158362D01*
Y81243*
X158989*
Y82570*
G37*
G36*
X167454Y81722D02*
X166877D01*
Y81195*
X167454*
Y81722*
G37*
G36*
X166623D02*
X166046D01*
Y81195*
X166623*
Y81722*
G37*
G36*
X125405Y79488D02*
X124967D01*
Y78275*
X125056Y78293*
X125239Y78416*
X125362Y78599*
X125405Y78815*
Y79488*
G37*
G36*
X131190Y82831D02*
X130942Y82782D01*
X130732Y82641*
X130592Y82431*
X130543Y82184*
X130592Y81936*
X130732Y81726*
X130802Y81679*
Y80822*
X130791Y80814*
X130668Y80631*
X130625Y80415*
Y78815*
X130668Y78599*
X130791Y78416*
X130802Y78408*
Y78227*
X130732Y78181*
X130592Y77971*
X130543Y77723*
X130592Y77475*
X130729Y77269*
X130669Y77157*
X130363*
X130214Y77128*
X130088Y77044*
X129645Y76601*
X129561Y76475*
X129532Y76326*
Y76022*
X129521Y76014*
X129398Y75831*
X129355Y75615*
Y74015*
X129398Y73799*
X129521Y73616*
X129704Y73493*
X129920Y73450*
X130136Y73493*
X130319Y73616*
X130442Y73799*
X130485Y74015*
Y75615*
X130442Y75831*
X130319Y76014*
X130308Y76022*
Y76165*
X130524Y76381*
X133661*
Y76118*
Y76026*
Y75499*
X135069*
Y76026*
Y76118*
Y77426*
X133661*
Y77157*
X132981*
X132921Y77269*
X133058Y77475*
X133107Y77723*
X133058Y77971*
X132918Y78181*
X132848Y78227*
Y78408*
X132859Y78416*
X132982Y78599*
X133025Y78815*
Y80415*
X132982Y80631*
X132859Y80814*
X132676Y80937*
X132460Y80980*
X132244Y80937*
X132061Y80814*
X131938Y80631*
X131895Y80415*
Y78815*
X131938Y78599*
X132061Y78416*
X132072Y78408*
Y78227*
X132002Y78181*
X131888Y78011*
X131761*
X131648Y78181*
X131578Y78227*
Y78408*
X131589Y78416*
X131712Y78599*
X131755Y78815*
Y80415*
X131712Y80631*
X131589Y80814*
X131578Y80822*
Y81679*
X131648Y81726*
X131788Y81936*
X131837Y82184*
X131788Y82431*
X131648Y82641*
X131438Y82782*
X131190Y82831*
G37*
G36*
X118004Y77342D02*
X117477D01*
Y76765*
X118004*
Y77342*
G37*
G36*
X55948Y82252D02*
X53270D01*
Y80944*
Y80852*
Y80325*
X53974*
Y80198*
X54101*
Y79544*
X54856*
Y76873*
X54796Y76849*
X54610Y76706*
X54467Y76520*
X54378Y76304*
X54347Y76072*
X54378Y75840*
X54467Y75624*
X54610Y75438*
X54796Y75295*
X55012Y75206*
X55244Y75175*
X55476Y75206*
X55692Y75295*
X55878Y75438*
X56021Y75624*
X56110Y75840*
X56141Y76072*
X56110Y76304*
X56021Y76520*
X55878Y76706*
X55692Y76849*
X55632Y76873*
Y79544*
X55948*
Y80852*
Y80944*
Y81003*
X56020Y81032*
X56126Y80962*
Y78945*
X56035Y78810*
X55996Y78612*
X56035Y78414*
X56148Y78246*
X56316Y78133*
X56514Y78094*
X56712Y78133*
X56880Y78246*
X56993Y78414*
X57032Y78612*
X56993Y78810*
X56902Y78945*
Y81152*
X56873Y81301*
X56789Y81427*
X56343Y81873*
X56217Y81957*
X56068Y81986*
X55948*
Y82252*
G37*
G36*
X135069Y75245D02*
X134492D01*
Y74718*
X135069*
Y75245*
G37*
G36*
X149478Y75564D02*
X148081D01*
Y74929*
X149478*
Y75564*
G37*
G36*
X151256Y75810D02*
Y74929D01*
X152137*
X152119Y75067*
X152016Y75314*
X151854Y75527*
X151641Y75689*
X151394Y75792*
X151256Y75810*
G37*
G36*
X126110Y80980D02*
X125894Y80937D01*
X125711Y80814*
X125588Y80631*
X125545Y80415*
Y78815*
X125588Y78599*
X125711Y78416*
X125894Y78293*
X126110Y78250*
X126326Y78293*
X126509Y78416*
X126632Y78599*
X126675Y78815*
Y80415*
X126632Y80631*
X126509Y80814*
X126326Y80937*
X126110Y80980*
G37*
G36*
X152272Y85335D02*
X152134Y85317D01*
X151887Y85214*
X151674Y85052*
X151512Y84839*
X151409Y84592*
X151391Y84454*
X152272*
Y85335*
G37*
G36*
X129920Y80980D02*
X129704Y80937D01*
X129521Y80814*
X129398Y80631*
X129355Y80415*
Y78815*
X129398Y78599*
X129521Y78416*
X129704Y78293*
X129920Y78250*
X130136Y78293*
X130319Y78416*
X130442Y78599*
X130485Y78815*
Y80415*
X130442Y80631*
X130319Y80814*
X130136Y80937*
X129920Y80980*
G37*
G36*
X124713Y79488D02*
X124275D01*
Y78815*
X124318Y78599*
X124441Y78416*
X124624Y78293*
X124713Y78275*
Y79488*
G37*
G36*
X127380Y80980D02*
X127164Y80937D01*
X126981Y80814*
X126858Y80631*
X126815Y80415*
Y78815*
X126858Y78599*
X126981Y78416*
X127164Y78293*
X127380Y78250*
X127596Y78293*
X127779Y78416*
X127902Y78599*
X127945Y78815*
Y80415*
X127902Y80631*
X127779Y80814*
X127596Y80937*
X127380Y80980*
G37*
G36*
X128650D02*
X128434Y80937D01*
X128251Y80814*
X128128Y80631*
X128085Y80415*
Y78815*
X128128Y78599*
X128251Y78416*
X128434Y78293*
X128650Y78250*
X128866Y78293*
X129049Y78416*
X129172Y78599*
X129215Y78815*
Y80415*
X129172Y80631*
X129049Y80814*
X128866Y80937*
X128650Y80980*
G37*
G36*
X152526Y85335D02*
Y84454D01*
X153407*
X153389Y84592*
X153286Y84839*
X153124Y85052*
X152911Y85214*
X152664Y85317*
X152526Y85335*
G37*
G36*
X48767Y62737D02*
X46642D01*
X46673Y62422*
X46802Y61997*
X47011Y61606*
X47292Y61262*
X47636Y60981*
X48027Y60771*
X48452Y60643*
X48767Y60612*
Y62737*
G37*
G36*
X51146D02*
X49021D01*
Y60612*
X49336Y60643*
X49761Y60771*
X50152Y60981*
X50496Y61262*
X50777Y61606*
X50986Y61997*
X51115Y62422*
X51146Y62737*
G37*
G36*
X173862D02*
X171737D01*
X171768Y62422*
X171897Y61997*
X172106Y61606*
X172387Y61262*
X172731Y60981*
X173122Y60771*
X173547Y60643*
X173862Y60612*
Y62737*
G37*
G36*
X145414Y62657D02*
X145139Y62621D01*
X144882Y62515*
X144662Y62346*
X144493Y62126*
X144387Y61869*
X144351Y61594*
X144387Y61319*
X144493Y61062*
X144662Y60842*
X144882Y60673*
X145139Y60567*
X145414Y60531*
X145689Y60567*
X145946Y60673*
X146166Y60842*
X146335Y61062*
X146441Y61319*
X146477Y61594*
X146441Y61869*
X146335Y62126*
X146166Y62346*
X145946Y62515*
X145689Y62621*
X145414Y62657*
G37*
G36*
X150494D02*
X150219Y62621D01*
X149962Y62515*
X149742Y62346*
X149573Y62126*
X149467Y61869*
X149431Y61594*
X149467Y61319*
X149573Y61062*
X149742Y60842*
X149962Y60673*
X150219Y60567*
X150494Y60531*
X150769Y60567*
X151026Y60673*
X151246Y60842*
X151415Y61062*
X151521Y61319*
X151557Y61594*
X151521Y61869*
X151415Y62126*
X151246Y62346*
X151026Y62515*
X150769Y62621*
X150494Y62657*
G37*
G36*
X156209D02*
X155934Y62621D01*
X155677Y62515*
X155457Y62346*
X155288Y62126*
X155182Y61869*
X155146Y61594*
X155182Y61319*
X155288Y61062*
X155457Y60842*
X155677Y60673*
X155934Y60567*
X156209Y60531*
X156484Y60567*
X156741Y60673*
X156961Y60842*
X157130Y61062*
X157236Y61319*
X157272Y61594*
X157236Y61869*
X157130Y62126*
X156961Y62346*
X156741Y62515*
X156484Y62621*
X156209Y62657*
G37*
G36*
X176241Y62737D02*
X174116D01*
Y60612*
X174431Y60643*
X174856Y60771*
X175247Y60981*
X175591Y61262*
X175872Y61606*
X176082Y61997*
X176210Y62422*
X176241Y62737*
G37*
G36*
X108774Y63127D02*
X108509Y63092D01*
X108262Y62989*
X108050Y62827*
X107887Y62614*
X107785Y62367*
X107750Y62102*
X107785Y61837*
X107887Y61590*
X108050Y61377*
X108262Y61215*
X108509Y61112*
X108774Y61077*
X109040Y61112*
X109287Y61215*
X109499Y61377*
X109662Y61590*
X109764Y61837*
X109799Y62102*
X109764Y62367*
X109662Y62614*
X109499Y62827*
X109287Y62989*
X109040Y63092*
X108774Y63127*
G37*
G36*
X104075Y61975D02*
X103194D01*
X103213Y61837*
X103315Y61590*
X103478Y61377*
X103690Y61215*
X103937Y61112*
X104075Y61094*
Y61975*
G37*
G36*
X105211D02*
X104329D01*
Y61094*
X104468Y61112*
X104715Y61215*
X104927Y61377*
X105090Y61590*
X105192Y61837*
X105211Y61975*
G37*
G36*
X153771Y105787D02*
X153509Y105752D01*
X153264Y105651*
X153055Y105490*
X152894Y105280*
X152792Y105036*
X152758Y104774*
X152792Y104512*
X152894Y104268*
X153055Y104058*
X153264Y103897*
X153509Y103796*
X153771Y103761*
X154033Y103796*
X154277Y103897*
X154487Y104058*
X154648Y104268*
X154749Y104512*
X154783Y104774*
X154749Y105036*
X154648Y105280*
X154487Y105490*
X154277Y105651*
X154033Y105752*
X153771Y105787*
G37*
G36*
X151231D02*
X150968Y105752D01*
X150724Y105651*
X150515Y105490*
X150354Y105280*
X150252Y105036*
X150218Y104774*
X150252Y104512*
X150354Y104268*
X150515Y104058*
X150724Y103897*
X150968Y103796*
X151231Y103761*
X151493Y103796*
X151737Y103897*
X151947Y104058*
X152108Y104268*
X152209Y104512*
X152243Y104774*
X152209Y105036*
X152108Y105280*
X151947Y105490*
X151737Y105651*
X151493Y105752*
X151231Y105787*
G37*
G36*
X148691D02*
X148429Y105752D01*
X148184Y105651*
X147975Y105490*
X147814Y105280*
X147712Y105036*
X147678Y104774*
X147712Y104512*
X147814Y104268*
X147975Y104058*
X148184Y103897*
X148429Y103796*
X148691Y103761*
X148953Y103796*
X149197Y103897*
X149407Y104058*
X149568Y104268*
X149669Y104512*
X149703Y104774*
X149669Y105036*
X149568Y105280*
X149407Y105490*
X149197Y105651*
X148953Y105752*
X148691Y105787*
G37*
G36*
X48767Y107822D02*
X46642D01*
X46673Y107507*
X46802Y107082*
X47011Y106691*
X47292Y106347*
X47636Y106066*
X48027Y105856*
X48452Y105728*
X48767Y105697*
Y107822*
G37*
G36*
Y110201D02*
X48452Y110170D01*
X48027Y110042*
X47636Y109832*
X47292Y109551*
X47011Y109207*
X46802Y108816*
X46673Y108391*
X46642Y108076*
X48767*
Y110201*
G37*
G36*
X99756Y107256D02*
X99229D01*
Y106679*
X99756*
Y107256*
G37*
G36*
X153771Y108327D02*
X153509Y108292D01*
X153264Y108191*
X153055Y108030*
X152894Y107820*
X152792Y107576*
X152758Y107314*
X152792Y107052*
X152894Y106808*
X153055Y106598*
X153264Y106437*
X153509Y106336*
X153771Y106301*
X154033Y106336*
X154277Y106437*
X154487Y106598*
X154648Y106808*
X154749Y107052*
X154783Y107314*
X154749Y107576*
X154648Y107820*
X154487Y108030*
X154277Y108191*
X154033Y108292*
X153771Y108327*
G37*
G36*
X174116Y110201D02*
Y108076D01*
X176241*
X176210Y108391*
X176082Y108816*
X175872Y109207*
X175591Y109551*
X175247Y109832*
X174856Y110042*
X174431Y110170*
X174116Y110201*
G37*
G36*
X173862D02*
X173547Y110170D01*
X173122Y110042*
X172731Y109832*
X172387Y109551*
X172106Y109207*
X171897Y108816*
X171768Y108391*
X171737Y108076*
X173862*
Y110201*
G37*
G36*
X49021D02*
Y108076D01*
X51146*
X51115Y108391*
X50986Y108816*
X50777Y109207*
X50496Y109551*
X50152Y109832*
X49761Y110042*
X49336Y110170*
X49021Y110201*
G37*
G36*
X151231Y108327D02*
X150968Y108292D01*
X150724Y108191*
X150515Y108030*
X150354Y107820*
X150252Y107576*
X150218Y107314*
X150252Y107052*
X150354Y106808*
X150515Y106598*
X150724Y106437*
X150968Y106336*
X151231Y106301*
X151493Y106336*
X151737Y106437*
X151947Y106598*
X152108Y106808*
X152209Y107052*
X152243Y107314*
X152209Y107576*
X152108Y107820*
X151947Y108030*
X151737Y108191*
X151493Y108292*
X151231Y108327*
G37*
G36*
X176241Y107822D02*
X174116D01*
Y105697*
X174431Y105728*
X174856Y105856*
X175247Y106066*
X175591Y106347*
X175872Y106691*
X176082Y107082*
X176210Y107507*
X176241Y107822*
G37*
G36*
X173862D02*
X171737D01*
X171768Y107507*
X171897Y107082*
X172106Y106691*
X172387Y106347*
X172731Y106066*
X173122Y105856*
X173547Y105728*
X173862Y105697*
Y107822*
G37*
G36*
X51146D02*
X49021D01*
Y105697*
X49336Y105728*
X49761Y105856*
X50152Y106066*
X50496Y106347*
X50777Y106691*
X50986Y107082*
X51115Y107507*
X51146Y107822*
G37*
G36*
X148691Y108327D02*
X148429Y108292D01*
X148184Y108191*
X147975Y108030*
X147814Y107820*
X147712Y107576*
X147678Y107314*
X147712Y107052*
X147814Y106808*
X147975Y106598*
X148184Y106437*
X148429Y106336*
X148691Y106301*
X148953Y106336*
X149197Y106437*
X149407Y106598*
X149568Y106808*
X149669Y107052*
X149703Y107314*
X149669Y107576*
X149568Y107820*
X149407Y108030*
X149197Y108191*
X148953Y108292*
X148691Y108327*
G37*
G36*
X68496Y108628D02*
X65788D01*
Y106469*
X64481Y105162*
X59689*
X59540Y105133*
X59414Y105049*
X57934Y103569*
X57850Y103443*
X57821Y103294*
Y103080*
X56445*
Y101772*
Y101680*
Y101153*
X57149*
Y101026*
X57276*
Y100372*
X57821*
Y96974*
X57805*
Y95266*
X58613*
Y96120*
X58805*
Y95266*
X59805*
X61821*
Y93901*
X61750Y93796*
X61711Y93598*
X61750Y93400*
X61863Y93232*
X62031Y93119*
X62229Y93080*
X62427Y93119*
X62595Y93232*
X62699Y93387*
X62821Y93350*
Y90684*
X61310*
X61297Y90811*
X61411Y90833*
X61579Y90946*
X61692Y91114*
X61731Y91312*
X61692Y91510*
X61579Y91678*
X61411Y91791*
X61252Y91822*
X59730Y93345*
X59604Y93429*
X59455Y93458*
X57513*
Y93666*
Y93682*
X59900*
X60035Y93591*
X60233Y93552*
X60431Y93591*
X60599Y93704*
X60712Y93872*
X60751Y94070*
X60712Y94268*
X60599Y94436*
X60431Y94549*
X60233Y94588*
X60035Y94549*
X59900Y94458*
X57513*
Y94974*
X55805*
Y94166*
Y93974*
Y93958*
X55216*
X55067Y93929*
X54941Y93845*
X54316Y93219*
X54157Y93188*
X53989Y93075*
X53876Y92907*
X53837Y92709*
X53876Y92511*
X53989Y92343*
X54157Y92230*
X54355Y92191*
X54553Y92230*
X54721Y92343*
X54834Y92511*
X54865Y92670*
X55377Y93182*
X55805*
Y93166*
Y92666*
Y92166*
Y91974*
Y91958*
X54867*
X54718Y91929*
X54592Y91845*
X53703Y90956*
X53619Y90830*
X53590Y90681*
Y87967*
X53270*
Y86659*
Y86567*
Y85259*
X54678*
Y85525*
X55738*
X55873Y85434*
X56032Y85403*
X57396Y84039*
Y82252*
X57080*
Y80944*
Y80852*
Y79544*
X57396*
Y79326*
X57305Y79191*
X57266Y78993*
X57305Y78795*
X57396Y78660*
Y76873*
X57336Y76849*
X57150Y76706*
X57007Y76520*
X56918Y76304*
X56887Y76072*
X56918Y75840*
X57007Y75624*
X57150Y75438*
X57336Y75295*
X57552Y75206*
X57671Y75190*
X57663Y75063*
X57657*
X57508Y75034*
X57382Y74950*
X56806Y74373*
X56746Y74398*
X56514Y74429*
X56282Y74398*
X56066Y74309*
X55880Y74166*
X55737Y73980*
X55648Y73764*
X55617Y73532*
X55648Y73300*
X55737Y73084*
X55880Y72898*
X56066Y72755*
X56282Y72666*
X56514Y72635*
X56746Y72666*
X56962Y72755*
X57148Y72898*
X57291Y73084*
X57380Y73300*
X57411Y73532*
X57380Y73764*
X57355Y73824*
X57818Y74287*
X58292*
X58402Y74309*
X58455Y74193*
X58420Y74166*
X58277Y73980*
X58188Y73764*
X58157Y73532*
X58188Y73300*
X58277Y73084*
X58420Y72898*
X58606Y72755*
X58822Y72666*
X59054Y72635*
X59286Y72666*
X59502Y72755*
X59688Y72898*
X59831Y73084*
X59920Y73300*
X59951Y73532*
X59920Y73764*
X59895Y73824*
X60485Y74414*
X60959*
X61108Y74443*
X61234Y74527*
X61869Y75162*
X61953Y75288*
X61982Y75437*
Y75563*
X62103Y75604*
X62230Y75438*
X62416Y75295*
X62601Y75219*
X62613Y75092*
X62589Y75077*
X61886Y74373*
X61826Y74398*
X61594Y74429*
X61362Y74398*
X61146Y74309*
X60960Y74166*
X60817Y73980*
X60728Y73764*
X60697Y73532*
X60728Y73300*
X60817Y73084*
X60960Y72898*
X61146Y72755*
X61362Y72666*
X61594Y72635*
X61826Y72666*
X62042Y72755*
X62228Y72898*
X62371Y73084*
X62460Y73300*
X62491Y73532*
X62460Y73764*
X62435Y73824*
X63025Y74414*
X63625*
X63627Y74406*
X63652Y74283*
X63500Y74166*
X63357Y73980*
X63268Y73764*
X63237Y73532*
X63268Y73300*
X63357Y73084*
X63500Y72898*
X63686Y72755*
X63902Y72666*
X64134Y72635*
X64360Y72665*
X65338Y71688*
X65485Y71589*
X65658Y71555*
X68768*
X68793Y71430*
X68574Y71339*
X68308Y71136*
X68105Y70870*
X67977Y70562*
X67933Y70230*
X67977Y69898*
X68105Y69590*
X68308Y69324*
X68574Y69121*
X68882Y68993*
X69214Y68949*
X69546Y68993*
X69854Y69121*
X70120Y69324*
X70323Y69590*
X70451Y69898*
X70495Y70230*
X70451Y70562*
X70323Y70870*
X70120Y71136*
X69854Y71339*
X69635Y71430*
X69660Y71555*
X72252*
Y63636*
X70611*
X70413Y63597*
X70245Y63484*
X68872Y62112*
X68252*
X68218Y62193*
X68205Y62232*
X68415Y62393*
X68577Y62606*
X68680Y62853*
X68715Y63118*
X68680Y63383*
X68577Y63630*
X68415Y63843*
X68202Y64005*
X67955Y64108*
X67690Y64143*
X67425Y64108*
X67178Y64005*
X66965Y63843*
X66803Y63630*
X66700Y63383*
X66665Y63118*
X66700Y62853*
X66803Y62606*
X66965Y62393*
X67175Y62232*
X67162Y62193*
X67129Y62112*
X65668*
Y62235*
X65875Y62393*
X66037Y62606*
X66140Y62853*
X66175Y63118*
X66140Y63383*
X66037Y63630*
X65875Y63843*
X65662Y64005*
X65415Y64108*
X65150Y64143*
X64885Y64108*
X64638Y64005*
X64425Y63843*
X64263Y63630*
X64160Y63383*
X64125Y63118*
X64160Y62853*
X64263Y62606*
X64425Y62393*
X64632Y62235*
Y62112*
X57330*
X57296Y62193*
X57283Y62232*
X57493Y62393*
X57655Y62606*
X57758Y62853*
X57793Y63118*
X57758Y63383*
X57655Y63630*
X57493Y63843*
X57280Y64005*
X57033Y64108*
X56768Y64143*
X56503Y64108*
X56256Y64005*
X56043Y63843*
X55881Y63630*
X55778Y63383*
X55743Y63118*
X55778Y62853*
X55881Y62606*
X56043Y62393*
X56253Y62232*
X56240Y62193*
X56207Y62112*
X55967*
X55219Y62860*
X55253Y63118*
X55218Y63383*
X55115Y63630*
X54953Y63843*
X54740Y64005*
X54493Y64108*
X54228Y64143*
X53963Y64108*
X53716Y64005*
X53503Y63843*
X53341Y63630*
X53238Y63383*
X53203Y63118*
X53238Y62853*
X53341Y62606*
X53503Y62393*
X53716Y62231*
X53963Y62128*
X54228Y62093*
X54486Y62127*
X55386Y61228*
X55554Y61115*
X55752Y61076*
X69087*
X69285Y61115*
X69453Y61228*
X70826Y62600*
X71136*
X71177Y62480*
X71002Y62346*
X70833Y62126*
X70727Y61869*
X70691Y61594*
X70727Y61319*
X70833Y61062*
X71002Y60842*
X71222Y60673*
X71479Y60567*
X71754Y60531*
X72029Y60567*
X72286Y60673*
X72506Y60842*
X72675Y61062*
X72781Y61319*
X72817Y61594*
X72781Y61869*
X72675Y62126*
X72506Y62346*
X72331Y62480*
X72372Y62600*
X73676*
X73717Y62480*
X73542Y62346*
X73373Y62126*
X73267Y61869*
X73231Y61594*
X73267Y61319*
X73373Y61062*
X73542Y60842*
X73762Y60673*
X74019Y60567*
X74294Y60531*
X74569Y60567*
X74826Y60673*
X75046Y60842*
X75215Y61062*
X75321Y61319*
X75357Y61594*
X75321Y61869*
X75215Y62126*
X75046Y62346*
X74871Y62480*
X74912Y62600*
X91456*
X91497Y62480*
X91322Y62346*
X91153Y62126*
X91047Y61869*
X91011Y61594*
X91047Y61319*
X91153Y61062*
X91322Y60842*
X91542Y60673*
X91799Y60567*
X92074Y60531*
X92349Y60567*
X92606Y60673*
X92826Y60842*
X92995Y61062*
X93101Y61319*
X93137Y61594*
X93101Y61869*
X92995Y62126*
X92826Y62346*
X92651Y62480*
X92692Y62600*
X93996*
X94037Y62480*
X93862Y62346*
X93693Y62126*
X93587Y61869*
X93551Y61594*
X93587Y61319*
X93693Y61062*
X93862Y60842*
X94082Y60673*
X94339Y60567*
X94614Y60531*
X94889Y60567*
X95146Y60673*
X95366Y60842*
X95535Y61062*
X95641Y61319*
X95677Y61594*
X95641Y61869*
X95535Y62126*
X95366Y62346*
X95191Y62480*
X95232Y62600*
X96536*
X96577Y62480*
X96402Y62346*
X96233Y62126*
X96127Y61869*
X96091Y61594*
X96127Y61319*
X96233Y61062*
X96402Y60842*
X96622Y60673*
X96879Y60567*
X97154Y60531*
X97429Y60567*
X97686Y60673*
X97906Y60842*
X98075Y61062*
X98181Y61319*
X98217Y61594*
X98181Y61869*
X98075Y62126*
X97906Y62346*
X97731Y62480*
X97772Y62600*
X99076*
X99117Y62480*
X98942Y62346*
X98773Y62126*
X98667Y61869*
X98631Y61594*
X98667Y61319*
X98773Y61062*
X98942Y60842*
X99162Y60673*
X99419Y60567*
X99694Y60531*
X99969Y60567*
X100226Y60673*
X100446Y60842*
X100615Y61062*
X100721Y61319*
X100757Y61594*
X100721Y61869*
X100615Y62126*
X100446Y62346*
X100226Y62515*
X100147Y62547*
Y62882*
X100173Y62920*
X100212Y63118*
Y64300*
X105497Y69585*
X118496*
X118654Y69378*
X118796Y69269*
Y64642*
X118841Y64419*
X118967Y64230*
X121761Y61436*
X121950Y61310*
X122173Y61265*
X142239*
X142462Y61310*
X142651Y61436*
X144004Y62789*
X147501*
Y62547*
X147422Y62515*
X147202Y62346*
X147033Y62126*
X146927Y61869*
X146891Y61594*
X146927Y61319*
X147033Y61062*
X147202Y60842*
X147422Y60673*
X147679Y60567*
X147954Y60531*
X148229Y60567*
X148486Y60673*
X148706Y60842*
X148875Y61062*
X148981Y61319*
X149017Y61594*
X148981Y61869*
X148875Y62126*
X148706Y62346*
X148486Y62515*
X148407Y62547*
Y62789*
X152581*
Y62547*
X152502Y62515*
X152282Y62346*
X152113Y62126*
X152007Y61869*
X151971Y61594*
X152007Y61319*
X152113Y61062*
X152282Y60842*
X152502Y60673*
X152759Y60567*
X153034Y60531*
X153309Y60567*
X153566Y60673*
X153786Y60842*
X153955Y61062*
X154061Y61319*
X154097Y61594*
X154061Y61869*
X153955Y62126*
X153786Y62346*
X153566Y62515*
X153487Y62547*
Y62789*
X156730*
X157714Y61805*
X157686Y61594*
X157722Y61319*
X157828Y61062*
X157997Y60842*
X158217Y60673*
X158474Y60567*
X158749Y60531*
X159024Y60567*
X159281Y60673*
X159501Y60842*
X159670Y61062*
X159776Y61319*
X159812Y61594*
X159776Y61869*
X159670Y62126*
X159501Y62346*
X159281Y62515*
X159024Y62621*
X158749Y62657*
X158538Y62629*
X157383Y63784*
X157194Y63910*
X156971Y63955*
X144346*
Y80784*
X150100Y86538*
X151565*
X151674Y86396*
X151887Y86234*
X152134Y86131*
X152399Y86096*
X152664Y86131*
X152911Y86234*
X153124Y86396*
X153286Y86609*
X153389Y86856*
X153424Y87121*
X153389Y87386*
X153286Y87633*
X153161Y87797*
Y87914*
X159512*
Y87043*
X160833*
Y84151*
X160662*
Y81243*
X162170*
Y84151*
X161999*
Y87043*
X163320*
Y89951*
X162693*
Y90735*
X162894*
X162986*
X163513*
Y91439*
Y92143*
X162986*
X162894*
X161586*
Y90735*
X161787*
Y89951*
X159512*
Y89080*
X153161*
Y90169*
X151637*
Y88398*
X145102*
Y88599*
Y88691*
Y89999*
Y90085*
Y91393*
Y91485*
Y92012*
X143694*
Y91485*
Y91393*
Y91192*
X142418*
X142406Y91319*
X142557Y91349*
X142767Y91489*
X142907Y91699*
X142956Y91947*
X142907Y92195*
X142767Y92405*
X142697Y92451*
Y92688*
X142817*
Y94696*
X141801*
Y92688*
X141921*
Y92451*
X141851Y92405*
X141711Y92195*
X141662Y91947*
X141711Y91699*
X141751Y91639*
X141653Y91559*
X141297Y91914*
Y92688*
X141417*
Y94696*
X140401*
Y92688*
X140521*
Y91753*
X140550Y91604*
X140634Y91478*
X141583Y90529*
X141709Y90445*
X141858Y90416*
X143694*
Y90085*
Y89999*
Y88691*
Y88599*
Y87291*
X145102*
Y87492*
X149240*
X149288Y87374*
X143351Y81437*
X143225Y81248*
X143180Y81025*
Y63613*
X141998Y62431*
X122414*
X119962Y64883*
Y69269*
X120104Y69378*
X120266Y69591*
X120369Y69838*
X120404Y70103*
X120369Y70368*
X120266Y70615*
X120104Y70828*
X119897Y70986*
Y80527*
X119922Y80547*
X119992Y80637*
X120707*
Y80436*
Y80344*
Y79036*
X121023*
Y78823*
X120707*
Y77515*
Y77423*
Y76115*
X122115*
Y76381*
X124236*
X124452Y76165*
Y76022*
X124441Y76014*
X124318Y75831*
X124275Y75615*
Y74015*
X124318Y73799*
X124441Y73616*
X124624Y73493*
X124840Y73450*
X125056Y73493*
X125239Y73616*
X125362Y73799*
X125405Y74015*
Y75615*
X125362Y75831*
X125239Y76014*
X125228Y76022*
Y76326*
X125199Y76475*
X125115Y76601*
X124672Y77044*
X124546Y77128*
X124397Y77157*
X122115*
Y77423*
Y77515*
Y78823*
X121799*
Y79036*
X122115*
Y79237*
X123005*
Y78815*
X123048Y78599*
X123171Y78416*
X123354Y78293*
X123570Y78250*
X123786Y78293*
X123969Y78416*
X124092Y78599*
X124135Y78815*
Y80415*
X124092Y80631*
X123969Y80814*
X123786Y80937*
X123570Y80980*
X123354Y80937*
X123171Y80814*
X123048Y80631*
X123005Y80415*
Y80143*
X122115*
Y80344*
Y80436*
Y81744*
X120707*
Y81543*
X119992*
X119922Y81633*
X119763Y81756*
X119578Y81832*
X119379Y81859*
X119180Y81832*
X118995Y81756*
X118836Y81633*
X118766Y81543*
X118047*
X117874Y81509*
X117800Y81460*
X117727Y81410*
X117030Y80713*
X116931Y80566*
X116897Y80393*
Y79570*
X116696*
X116604*
X116338*
Y80438*
X116429Y80573*
X116468Y80771*
X116429Y80969*
X116316Y81137*
X116148Y81250*
X115950Y81289*
X115752Y81250*
X115584Y81137*
X115471Y80969*
X115432Y80771*
X115471Y80573*
X115562Y80438*
Y79570*
X115296*
Y78162*
Y76765*
X116604*
X116696*
X117223*
Y77469*
X117350*
Y77596*
X118004*
Y78173*
Y79570*
X117803*
Y80205*
X118235Y80637*
X118766*
X118836Y80547*
X118861Y80527*
Y70986*
X118654Y70828*
X118496Y70621*
X108275*
Y70923*
X108541*
Y72331*
X107233*
X107141*
X105833*
Y72015*
X105231*
X105184Y72085*
X104974Y72225*
X104727Y72274*
X104645Y72258*
X104432Y72470*
Y80998*
X104531Y81079*
X104544Y81076*
X104702Y81107*
X104794Y81169*
X104886Y81107*
X105044Y81076*
X105202Y81107*
X105294Y81169*
X105386Y81107*
X105544Y81076*
X105702Y81107*
X105794Y81169*
X105886Y81107*
X106044Y81076*
X106202Y81107*
X106294Y81169*
X106386Y81107*
X106544Y81076*
X106702Y81107*
X106794Y81169*
X106886Y81107*
X107044Y81076*
X107202Y81107*
X107294Y81169*
X107386Y81107*
X107417Y81101*
Y81319*
X107425Y81330*
X107456Y81488*
Y82238*
X107632*
Y81488*
X107663Y81330*
X107671Y81319*
Y81101*
X107702Y81107*
X107794Y81169*
X107886Y81107*
X108044Y81076*
X108202Y81107*
X108294Y81169*
X108386Y81107*
X108544Y81076*
X108702Y81107*
X108794Y81169*
X108886Y81107*
X109044Y81076*
X109202Y81107*
X109294Y81169*
X109386Y81107*
X109544Y81076*
X109702Y81107*
X109794Y81169*
X109886Y81107*
X110044Y81076*
X110202Y81107*
X110294Y81169*
X110386Y81107*
X110544Y81076*
X110702Y81107*
X110794Y81169*
X110886Y81107*
X111044Y81076*
X111057Y81079*
X111096Y81047*
X111088Y81054*
X111156Y80986*
X111185Y80837*
X111269Y80711*
X111611Y80369*
X111737Y80285*
X111886Y80256*
X112902*
X113051Y80285*
X113177Y80369*
X114968Y82161*
X117474*
X117623Y82190*
X117749Y82274*
X119273Y83798*
X119357Y83924*
X119386Y84073*
Y85089*
X119357Y85238*
X119273Y85364*
X118003Y86634*
X117877Y86718*
X117728Y86747*
X116589*
X116513Y86849*
X116528Y86900*
X133148*
X135258Y84790*
X135242Y84708*
X135291Y84460*
X135431Y84250*
X135641Y84110*
X135889Y84061*
X136137Y84110*
X136347Y84250*
X136487Y84460*
X136508Y84565*
X136615Y84672*
X136639Y84682*
X136756Y84603*
X136905Y84574*
X140588*
X140737Y84603*
X140863Y84687*
X141234Y85058*
X141318Y85184*
X141347Y85333*
X141357Y85338*
X141467*
Y87346*
X140451*
Y85374*
X140427Y85350*
X140167*
Y87346*
X140047*
Y87542*
X140018Y87691*
X139934Y87817*
X139611Y88139*
X139660Y88257*
X140935*
X141779Y87413*
X141751Y87346*
Y85338*
X142767*
Y87346*
X142647*
Y87482*
X142618Y87631*
X142534Y87757*
X141371Y88920*
X141245Y89004*
X141096Y89033*
X136887*
X136875Y89160*
X137026Y89190*
X137236Y89330*
X137376Y89540*
X137425Y89788*
X137419Y89819*
X138609Y90817*
X138619Y90831*
X138634Y90840*
X138667Y90890*
X138704Y90936*
X138708Y90952*
X138718Y90966*
X138729Y91024*
X138746Y91081*
X138744Y91098*
X138747Y91115*
Y92688*
X138867*
Y94696*
X137851*
Y92688*
X137971*
Y91296*
X136913Y90409*
X136778Y90435*
X136530Y90386*
X136320Y90246*
X136180Y90036*
X136131Y89788*
X136138Y89753*
X136026Y89693*
X135656Y90063*
X135530Y90147*
X135381Y90176*
X122261*
X122212Y90294*
X136304Y104386*
X145147*
Y103770*
X147155*
Y105778*
X145147*
Y105162*
X136485*
X136436Y105280*
X138082Y106926*
X145225*
X145274Y106808*
X145435Y106598*
X145644Y106437*
X145888Y106336*
X146151Y106301*
X146413Y106336*
X146657Y106437*
X146867Y106598*
X147028Y106808*
X147129Y107052*
X147163Y107314*
X147129Y107576*
X147028Y107820*
X146867Y108030*
X146657Y108191*
X146413Y108292*
X146151Y108327*
X145888Y108292*
X145644Y108191*
X145435Y108030*
X145274Y107820*
X145225Y107702*
X137921*
X137772Y107673*
X137646Y107589*
X121234Y91176*
X119298*
X119250Y91294*
X131801Y103845*
X131918Y103796*
X132181Y103761*
X132443Y103796*
X132687Y103897*
X132897Y104058*
X133058Y104268*
X133159Y104512*
X133193Y104774*
X133159Y105036*
X133058Y105280*
X132897Y105490*
X132687Y105651*
X132443Y105752*
X132181Y105787*
X131918Y105752*
X131674Y105651*
X131465Y105490*
X131445Y105464*
X131324Y105505*
Y106137*
X131646Y106459*
X131674Y106437*
X131918Y106336*
X132181Y106301*
X132443Y106336*
X132687Y106437*
X132897Y106598*
X133058Y106808*
X133159Y107052*
X133193Y107314*
X133159Y107576*
X133058Y107820*
X132897Y108030*
X132687Y108191*
X132443Y108292*
X132181Y108327*
X131918Y108292*
X131674Y108191*
X131465Y108030*
X131304Y107820*
X131202Y107576*
X131168Y107314*
X131195Y107107*
X130661Y106573*
X130577Y106447*
X130548Y106298*
Y105439*
X130427Y105398*
X130357Y105490*
X130147Y105651*
X129903Y105752*
X129641Y105787*
X129379Y105752*
X129134Y105651*
X128925Y105490*
X128905Y105464*
X128784Y105505*
Y105908*
X129261Y106385*
X129379Y106336*
X129641Y106301*
X129903Y106336*
X130147Y106437*
X130357Y106598*
X130518Y106808*
X130619Y107052*
X130653Y107314*
X130619Y107576*
X130518Y107820*
X130357Y108030*
X130147Y108191*
X129903Y108292*
X129641Y108327*
X129379Y108292*
X129134Y108191*
X128925Y108030*
X128764Y107820*
X128662Y107576*
X128628Y107314*
X128662Y107052*
X128711Y106934*
X128121Y106344*
X128037Y106218*
X128008Y106069*
Y105439*
X127887Y105398*
X127817Y105490*
X127607Y105651*
X127363Y105752*
X127101Y105787*
X126839Y105752*
X126594Y105651*
X126385Y105490*
X126365Y105464*
X126244Y105505*
Y105908*
X126721Y106385*
X126839Y106336*
X127101Y106301*
X127363Y106336*
X127607Y106437*
X127817Y106598*
X127978Y106808*
X128079Y107052*
X128113Y107314*
X128079Y107576*
X127978Y107820*
X127817Y108030*
X127607Y108191*
X127363Y108292*
X127101Y108327*
X126839Y108292*
X126594Y108191*
X126385Y108030*
X126224Y107820*
X126122Y107576*
X126088Y107314*
X126122Y107052*
X126171Y106934*
X125581Y106344*
X125497Y106218*
X125468Y106069*
Y105439*
X125347Y105398*
X125277Y105490*
X125067Y105651*
X124823Y105752*
X124561Y105787*
X124298Y105752*
X124054Y105651*
X123845Y105490*
X123825Y105464*
X123704Y105505*
Y105908*
X124181Y106385*
X124298Y106336*
X124561Y106301*
X124823Y106336*
X125067Y106437*
X125277Y106598*
X125438Y106808*
X125539Y107052*
X125573Y107314*
X125539Y107576*
X125438Y107820*
X125277Y108030*
X125067Y108191*
X124823Y108292*
X124561Y108327*
X124298Y108292*
X124054Y108191*
X123845Y108030*
X123684Y107820*
X123582Y107576*
X123548Y107314*
X123582Y107052*
X123631Y106934*
X123041Y106344*
X122957Y106218*
X122928Y106069*
Y105439*
X122807Y105398*
X122737Y105490*
X122527Y105651*
X122283Y105752*
X122021Y105787*
X121758Y105752*
X121514Y105651*
X121305Y105490*
X121285Y105464*
X121164Y105505*
Y105908*
X121641Y106385*
X121758Y106336*
X122021Y106301*
X122283Y106336*
X122527Y106437*
X122737Y106598*
X122898Y106808*
X122999Y107052*
X123033Y107314*
X122999Y107576*
X122898Y107820*
X122737Y108030*
X122527Y108191*
X122283Y108292*
X122021Y108327*
X121758Y108292*
X121514Y108191*
X121305Y108030*
X121144Y107820*
X121042Y107576*
X121008Y107314*
X121042Y107052*
X121091Y106934*
X120501Y106344*
X120417Y106218*
X120388Y106069*
Y105439*
X120267Y105398*
X120197Y105490*
X119987Y105651*
X119743Y105752*
X119481Y105787*
X119218Y105752*
X118974Y105651*
X118765Y105490*
X118745Y105464*
X118624Y105505*
Y105908*
X119101Y106385*
X119218Y106336*
X119481Y106301*
X119743Y106336*
X119987Y106437*
X120197Y106598*
X120358Y106808*
X120459Y107052*
X120493Y107314*
X120459Y107576*
X120358Y107820*
X120197Y108030*
X119987Y108191*
X119743Y108292*
X119481Y108327*
X119218Y108292*
X118974Y108191*
X118765Y108030*
X118604Y107820*
X118502Y107576*
X118468Y107314*
X118502Y107052*
X118551Y106934*
X117961Y106344*
X117877Y106218*
X117848Y106069*
Y105439*
X117727Y105398*
X117657Y105490*
X117447Y105651*
X117203Y105752*
X116941Y105787*
X116678Y105752*
X116434Y105651*
X116225Y105490*
X116205Y105464*
X116084Y105505*
Y105883*
X116579Y106377*
X116678Y106336*
X116941Y106301*
X117203Y106336*
X117447Y106437*
X117657Y106598*
X117818Y106808*
X117919Y107052*
X117953Y107314*
X117919Y107576*
X117818Y107820*
X117657Y108030*
X117447Y108191*
X117203Y108292*
X116941Y108327*
X116678Y108292*
X116434Y108191*
X116225Y108030*
X116064Y107820*
X115962Y107576*
X115928Y107314*
X115962Y107052*
X116019Y106916*
X115421Y106319*
X115337Y106193*
X115308Y106044*
Y105778*
X113580*
X113531Y105895*
X114021Y106385*
X114139Y106336*
X114401Y106301*
X114663Y106336*
X114907Y106437*
X115117Y106598*
X115278Y106808*
X115379Y107052*
X115413Y107314*
X115379Y107576*
X115278Y107820*
X115117Y108030*
X114907Y108191*
X114663Y108292*
X114401Y108327*
X114139Y108292*
X113894Y108191*
X113685Y108030*
X113524Y107820*
X113422Y107576*
X113388Y107314*
X113422Y107052*
X113471Y106934*
X107269Y100732*
X107185Y100606*
X107156Y100457*
Y100178*
X107029Y100166*
X107023Y100196*
X106883Y100406*
X106673Y100546*
X106425Y100595*
X106177Y100546*
X106044Y100457*
X105932Y100517*
Y100846*
X105994Y100887*
X106134Y101097*
X106183Y101345*
X106134Y101593*
X105994Y101803*
X105784Y101943*
X105536Y101992*
X105288Y101943*
X105078Y101803*
X104938Y101593*
X104924Y101522*
X104802Y101485*
X104389Y101898*
X104405Y101980*
X104356Y102228*
X104216Y102438*
X104006Y102578*
X103758Y102627*
X103510Y102578*
X103300Y102438*
X103160Y102228*
X103111Y101980*
X103148Y101791*
X103058Y101701*
X102869Y101738*
X102621Y101689*
X102411Y101549*
X102363Y101477*
X102241Y101514*
Y101946*
X102890Y102594*
X102974Y102720*
X103003Y102869*
Y104822*
X103094Y104957*
X103133Y105155*
X103094Y105353*
X102981Y105521*
X102813Y105634*
X102615Y105673*
X102417Y105634*
X102282Y105543*
X101937*
Y105848*
Y107256*
X100629*
X100537*
X100010*
Y106552*
X99883*
Y106425*
X99229*
Y105848*
Y105608*
X97088*
X96585Y106110*
X96438Y106209*
X96265Y106243*
X94211*
X94141Y106333*
X94051Y106403*
Y107060*
X94017Y107233*
X93968Y107307*
X93918Y107380*
X93029Y108269*
X92882Y108368*
X92709Y108402*
X84200*
X84027Y108368*
X83880Y108269*
X82734Y107123*
X80771*
Y107005*
X74907*
X74837Y107095*
X74678Y107218*
X74493Y107294*
X74294Y107321*
X74095Y107294*
X73910Y107218*
X73751Y107095*
X73681Y107005*
X68496*
Y108628*
G37*
G36*
X63496D02*
X60788D01*
Y105920*
X63496*
Y108628*
G37*
G36*
X165543Y63689D02*
X163514D01*
X163543Y63393*
X163666Y62986*
X163867Y62611*
X164136Y62282*
X164465Y62013*
X164840Y61812*
X165247Y61689*
X165543Y61660*
Y63689*
G37*
G36*
Y65973D02*
X165247Y65944D01*
X164840Y65821*
X164465Y65620*
X164136Y65351*
X163867Y65022*
X163666Y64647*
X163543Y64240*
X163514Y63943*
X165543*
Y65973*
G37*
G36*
X165797D02*
Y63943D01*
X167827*
X167798Y64240*
X167675Y64647*
X167474Y65022*
X167205Y65351*
X166876Y65620*
X166501Y65821*
X166094Y65944*
X165797Y65973*
G37*
G36*
X169989Y66738D02*
X167959D01*
X167988Y66441*
X168111Y66034*
X168312Y65659*
X168581Y65330*
X168910Y65061*
X169285Y64860*
X169692Y64737*
X169989Y64708*
Y66738*
G37*
G36*
X109918Y65795D02*
X109619Y65756D01*
X109341Y65640*
X109102Y65457*
X108919Y65218*
X108804Y64940*
X108765Y64642*
X108804Y64344*
X108919Y64066*
X109102Y63827*
X109341Y63644*
X109619Y63528*
X109918Y63489*
X110216Y63528*
X110494Y63644*
X110733Y63827*
X110916Y64066*
X111031Y64344*
X111070Y64642*
X111031Y64940*
X110916Y65218*
X110733Y65457*
X110494Y65640*
X110216Y65756*
X109918Y65795*
G37*
G36*
X172846Y102212D02*
Y101091D01*
X173967*
X173941Y101291*
X173814Y101596*
X173613Y101858*
X173351Y102059*
X173046Y102186*
X172846Y102212*
G37*
G36*
X172592D02*
X172392Y102186D01*
X172087Y102059*
X171825Y101858*
X171624Y101596*
X171497Y101291*
X171471Y101091*
X172592*
Y102212*
G37*
G36*
X172272Y66738D02*
X170242D01*
Y64708*
X170539Y64737*
X170946Y64860*
X171321Y65061*
X171650Y65330*
X171919Y65659*
X172120Y66034*
X172243Y66441*
X172272Y66738*
G37*
G36*
X55244Y69096D02*
X54871Y69059D01*
X54511Y68951*
X54181Y68774*
X53890Y68536*
X53652Y68245*
X53475Y67915*
X53367Y67555*
X53330Y67182*
X53367Y66809*
X53475Y66449*
X53652Y66119*
X53890Y65828*
X54181Y65590*
X54511Y65413*
X54871Y65305*
X55244Y65268*
X55617Y65305*
X55977Y65413*
X56307Y65590*
X56598Y65828*
X56836Y66119*
X57013Y66449*
X57121Y66809*
X57158Y67182*
X57121Y67555*
X57013Y67915*
X56836Y68245*
X56598Y68536*
X56307Y68774*
X55977Y68951*
X55617Y69059*
X55244Y69096*
G37*
G36*
X66674D02*
X66301Y69059D01*
X65941Y68951*
X65611Y68774*
X65320Y68536*
X65082Y68245*
X64905Y67915*
X64797Y67555*
X64760Y67182*
X64797Y66809*
X64905Y66449*
X65082Y66119*
X65320Y65828*
X65611Y65590*
X65941Y65413*
X66301Y65305*
X66674Y65268*
X67047Y65305*
X67407Y65413*
X67737Y65590*
X68028Y65828*
X68266Y66119*
X68443Y66449*
X68551Y66809*
X68588Y67182*
X68551Y67555*
X68443Y67915*
X68266Y68245*
X68028Y68536*
X67737Y68774*
X67407Y68951*
X67047Y69059*
X66674Y69096*
G37*
G36*
X115012Y68265D02*
X114726Y68243D01*
X114323Y68146*
X113939Y67987*
X113586Y67771*
X113271Y67501*
X113001Y67186*
X112785Y66833*
X112626Y66449*
X112529Y66046*
X112507Y65760*
X115012*
Y68265*
G37*
G36*
X57022Y100899D02*
X56445D01*
Y100372*
X57022*
Y100899*
G37*
G36*
X173967Y100837D02*
X172846D01*
Y99716*
X173046Y99742*
X173351Y99869*
X173613Y100070*
X173814Y100332*
X173941Y100637*
X173967Y100837*
G37*
G36*
X172592D02*
X171471D01*
X171497Y100637*
X171624Y100332*
X171825Y100070*
X172087Y99869*
X172392Y99742*
X172592Y99716*
Y100837*
G37*
G36*
X102933Y65795D02*
X102634Y65756D01*
X102356Y65640*
X102117Y65457*
X101934Y65218*
X101819Y64940*
X101780Y64642*
X101819Y64344*
X101934Y64066*
X102117Y63827*
X102356Y63644*
X102634Y63528*
X102933Y63489*
X103231Y63528*
X103509Y63644*
X103748Y63827*
X103931Y64066*
X104046Y64344*
X104085Y64642*
X104046Y64940*
X103931Y65218*
X103748Y65457*
X103509Y65640*
X103231Y65756*
X102933Y65795*
G37*
G36*
X48767Y65116D02*
X48452Y65085D01*
X48027Y64956*
X47636Y64747*
X47292Y64466*
X47011Y64122*
X46802Y63731*
X46673Y63306*
X46642Y62991*
X48767*
Y65116*
G37*
G36*
X49021D02*
Y62991D01*
X51146*
X51115Y63306*
X50986Y63731*
X50777Y64122*
X50496Y64466*
X50152Y64747*
X49761Y64956*
X49336Y65085*
X49021Y65116*
G37*
G36*
X173862D02*
X173547Y65085D01*
X173122Y64956*
X172731Y64747*
X172387Y64466*
X172106Y64122*
X171897Y63731*
X171768Y63306*
X171737Y62991*
X173862*
Y65116*
G37*
G36*
X167827Y63689D02*
X165797D01*
Y61660*
X166094Y61689*
X166501Y61812*
X166876Y62013*
X167205Y62282*
X167474Y62611*
X167675Y62986*
X167798Y63393*
X167827Y63689*
G37*
G36*
X104075Y63110D02*
X103937Y63092D01*
X103690Y62989*
X103478Y62827*
X103315Y62614*
X103213Y62367*
X103194Y62229*
X104075*
Y63110*
G37*
G36*
X104329D02*
Y62229D01*
X105211*
X105192Y62367*
X105090Y62614*
X104927Y62827*
X104715Y62989*
X104468Y63092*
X104329Y63110*
G37*
G36*
X174116Y65116D02*
Y62991D01*
X176241*
X176210Y63306*
X176082Y63731*
X175872Y64122*
X175591Y64466*
X175247Y64747*
X174856Y64956*
X174431Y65085*
X174116Y65116*
G37*
G36*
X142761Y65506D02*
X140256D01*
Y63001*
X140542Y63023*
X140945Y63120*
X141329Y63279*
X141682Y63495*
X141997Y63765*
X142267Y64080*
X142483Y64433*
X142642Y64817*
X142739Y65220*
X142761Y65506*
G37*
G36*
X123479Y65321D02*
X123192Y65284D01*
X122925Y65173*
X122695Y64997*
X122519Y64767*
X122408Y64500*
X122371Y64213*
X122408Y63926*
X122519Y63659*
X122695Y63429*
X122925Y63253*
X123192Y63142*
X123479Y63105*
X123766Y63142*
X124033Y63253*
X124263Y63429*
X124439Y63659*
X124550Y63926*
X124587Y64213*
X124550Y64500*
X124439Y64767*
X124263Y64997*
X124033Y65173*
X123766Y65284*
X123479Y65321*
G37*
G36*
X126249D02*
X125962Y65284D01*
X125695Y65173*
X125465Y64997*
X125289Y64767*
X125178Y64500*
X125141Y64213*
X125178Y63926*
X125289Y63659*
X125465Y63429*
X125695Y63253*
X125962Y63142*
X126249Y63105*
X126536Y63142*
X126803Y63253*
X127033Y63429*
X127209Y63659*
X127320Y63926*
X127357Y64213*
X127320Y64500*
X127209Y64767*
X127033Y64997*
X126803Y65173*
X126536Y65284*
X126249Y65321*
G37*
G36*
X115012Y65506D02*
X112507D01*
X112529Y65220*
X112626Y64817*
X112785Y64433*
X113001Y64080*
X113271Y63765*
X113586Y63495*
X113939Y63279*
X114323Y63120*
X114726Y63023*
X115012Y63001*
Y65506*
G37*
G36*
X117771D02*
X115266D01*
Y63001*
X115552Y63023*
X115955Y63120*
X116339Y63279*
X116692Y63495*
X117007Y63765*
X117277Y64080*
X117493Y64433*
X117652Y64817*
X117749Y65220*
X117771Y65506*
G37*
G36*
X140002D02*
X137497D01*
X137519Y65220*
X137616Y64817*
X137775Y64433*
X137991Y64080*
X138261Y63765*
X138576Y63495*
X138929Y63279*
X139313Y63120*
X139716Y63023*
X140002Y63001*
Y65506*
G37*
%LNlp_led_cube_8x8x8-3*%
%LPD*%
G36*
X73751Y106009D02*
X73776Y105989D01*
Y88479*
X72404Y87106*
X72291Y86938*
X72252Y86740*
Y78358*
Y75056*
Y72461*
X69921*
Y82549*
Y82861*
X70187*
Y84269*
Y85655*
Y85971*
X70611*
X70760Y86000*
X70886Y86084*
X72029Y87227*
X72113Y87353*
X72142Y87502*
Y87672*
X72458*
Y88980*
Y89072*
Y90380*
X72142*
Y91234*
X72233Y91368*
X72272Y91567*
X72233Y91765*
X72120Y91933*
X71952Y92045*
X71754Y92084*
X71558Y92045*
X71498Y92157*
X71661Y92321*
X72056*
X72191Y92230*
X72389Y92191*
X72587Y92230*
X72755Y92343*
X72868Y92511*
X72907Y92709*
X72868Y92907*
X72755Y93075*
X72587Y93188*
X72389Y93227*
X72191Y93188*
X72056Y93097*
X71503*
X71494Y93126*
X71475Y93225*
X71485Y93232*
X71598Y93400*
X71637Y93598*
X71598Y93796*
X71507Y93931*
Y98297*
X71478Y98446*
X71394Y98572*
X68496Y101469*
Y103628*
X65788*
Y100920*
X67947*
X70731Y98136*
Y93958*
X66113*
Y93974*
Y94166*
Y94443*
X64405*
Y94197*
X65259*
Y93974*
X64405*
Y93666*
Y93166*
Y92666*
Y92166*
Y91666*
Y91166*
Y90666*
Y90166*
Y89666*
Y89166*
Y88666*
X66113*
Y89166*
Y89182*
X66731*
X66794Y89119*
Y88597*
X66703Y88462*
X66664Y88264*
X66703Y88066*
X66816Y87898*
X66984Y87785*
X67182Y87746*
X67380Y87785*
X67548Y87898*
X67623Y88010*
X67745Y87973*
Y87063*
X67479*
Y85655*
Y85350*
X64264*
X64227Y85472*
X64246Y85485*
X64359Y85653*
X64398Y85851*
X64359Y86049*
X64246Y86217*
X64078Y86330*
X63880Y86369*
X63682Y86330*
X63547Y86239*
X63406*
X63097Y86548*
Y86666*
X64113*
Y87132*
X65044*
X65206Y87023*
X65404Y86984*
X65602Y87023*
X65770Y87136*
X65883Y87304*
X65922Y87502*
X65883Y87700*
X65770Y87868*
X65602Y87981*
X65404Y88020*
X65206Y87981*
X65098Y87908*
X64113*
Y88374*
X63597*
Y90296*
Y94036*
X63984Y94422*
X64068Y94548*
X64097Y94697*
Y95266*
X64113*
Y96974*
X63097*
Y97981*
X63298Y98181*
X63415Y98133*
Y97974*
X64723*
X64815*
X65143*
Y97487*
X65052Y97352*
X65013Y97154*
X65052Y96956*
X65165Y96788*
X65333Y96675*
X65531Y96636*
X65729Y96675*
X65897Y96788*
X66010Y96956*
X66049Y97154*
X66010Y97352*
X65919Y97487*
Y97974*
X66123*
Y99382*
X65919*
Y99780*
X65890Y99928*
X65806Y100054*
X65030Y100830*
Y104613*
X66337Y105920*
X68496*
Y106099*
X73681*
X73751Y106009*
G37*
G36*
X64254Y100669D02*
X64283Y100520D01*
X64367Y100394*
X65143Y99619*
Y99382*
X64815*
X64723*
X63415*
Y99066*
X63245*
X63096Y99037*
X62970Y98953*
X62724Y98707*
X62612Y98767*
X62620Y98805*
X62581Y99003*
X62468Y99171*
X62300Y99284*
X62102Y99323*
X61904Y99284*
X61736Y99171*
X61623Y99003*
X61592Y98844*
X61434Y98687*
X61350Y98561*
X61321Y98412*
Y96974*
X61097*
Y99875*
X61184Y100004*
X61223Y100202*
X61184Y100400*
X61071Y100568*
X60903Y100681*
X60705Y100720*
X60507Y100681*
X60339Y100568*
X60226Y100400*
X60204Y100286*
X60077Y100299*
Y100631*
X60168Y100766*
X60207Y100964*
X60168Y101162*
X60055Y101330*
X59887Y101443*
X59689Y101482*
X59491Y101443*
X59323Y101330*
X59210Y101162*
X59171Y100964*
X59210Y100766*
X59301Y100631*
Y99313*
X59330Y99164*
X59414Y99038*
X59821Y98632*
Y96974*
X58597*
Y103133*
X59850Y104386*
X64254*
Y100669*
G37*
G36*
X102227Y103030D02*
X101578Y102382D01*
X101494Y102256*
X101465Y102107*
Y100710*
X101494Y100561*
X101578Y100435*
X101656Y100358*
Y98578*
X101557Y98497*
X101544Y98500*
X101386Y98469*
X101294Y98407*
X101202Y98469*
X101044Y98500*
X100886Y98469*
X100794Y98407*
X100702Y98469*
X100544Y98500*
X100531Y98497*
X100432Y98578*
Y99217*
X100403Y99366*
X100319Y99492*
X98812Y100998*
Y101515*
X99128*
Y102823*
Y102915*
Y104223*
X98877*
Y104702*
X99229*
Y104451*
X100537*
X100629*
X101937*
Y104767*
X102227*
Y103030*
G37*
G36*
X112435Y93301D02*
X112432Y93288D01*
X112463Y93130*
X112525Y93038*
X112463Y92946*
X112432Y92788*
X112463Y92630*
X112525Y92538*
X112463Y92446*
X112432Y92288*
X112463Y92130*
X112525Y92038*
X112463Y91946*
X112432Y91788*
X112463Y91630*
X112525Y91538*
X112463Y91446*
X112432Y91288*
X112463Y91130*
X112525Y91038*
X112463Y90946*
X112432Y90788*
X112463Y90630*
X112525Y90538*
X112463Y90446*
X112432Y90288*
X112463Y90130*
X112525Y90038*
X112463Y89946*
X112432Y89788*
X112463Y89630*
X112525Y89538*
X112463Y89446*
X112432Y89288*
X112463Y89130*
X112525Y89038*
X112463Y88946*
X112432Y88788*
X112463Y88630*
X112525Y88538*
X112463Y88446*
X112432Y88288*
X112463Y88130*
X112525Y88038*
X112463Y87946*
X112432Y87788*
X112463Y87630*
X112525Y87538*
X112463Y87446*
X112432Y87288*
X112296Y87261*
X112147Y87409*
Y90217*
X112238Y90352*
X112277Y90550*
X112238Y90748*
X112125Y90916*
X111957Y91029*
X111759Y91068*
X111561Y91029*
X111393Y90916*
X111280Y90748*
X111241Y90550*
X111248Y90516*
X111158Y90426*
X111124Y90433*
X110926Y90394*
X110758Y90281*
X110645Y90113*
X110606Y89915*
X110645Y89717*
X110736Y89582*
Y87431*
X110624Y87371*
X110483Y87465*
X110362Y87489*
Y86867*
Y86245*
X110483Y86269*
X110693Y86409*
X110833Y86619*
X110847Y86690*
X110969Y86727*
X111682Y86013*
X111808Y85929*
X111957Y85900*
X112354*
X112435Y85801*
X112432Y85788*
X112435Y85775*
X112354Y85676*
X110568*
X110433Y85767*
X110235Y85806*
X110037Y85767*
X109902Y85676*
X108432*
Y86105*
Y93400*
X112354*
X112435Y93301*
G37*
G36*
X60703Y91273D02*
X60734Y91114D01*
X60847Y90946*
X61015Y90833*
X61129Y90811*
X61116Y90684*
X60866*
X60199Y91351*
X60168Y91510*
X60055Y91678*
X59887Y91791*
X59689Y91830*
X59491Y91791*
X59323Y91678*
X59210Y91510*
X59171Y91312*
X59210Y91114*
X59323Y90946*
X59491Y90833*
X59650Y90802*
X60321Y90131*
Y88374*
X59305*
Y87520*
X59113*
Y88374*
X57805*
Y86666*
X57821*
Y86310*
X57745Y86234*
X57586Y86203*
X57418Y86090*
X57305Y85922*
X57266Y85724*
X57305Y85526*
X57418Y85358*
X57586Y85245*
X57784Y85206*
X57982Y85245*
X58150Y85358*
X58199Y85431*
X58245Y85417*
X58288Y85297*
X58196Y85160*
X58157Y84962*
X58196Y84764*
X58308Y84596*
X58476Y84483*
X58675Y84444*
X58870Y84483*
X58895Y84435*
X58841Y84320*
X58729Y84298*
X58561Y84185*
X58448Y84017*
X58409Y83819*
X58448Y83621*
X58561Y83453*
X58729Y83340*
X58927Y83301*
X59125Y83340*
X59293Y83453*
X59406Y83621*
X59437Y83780*
X59575Y83917*
X59687Y83857*
X59679Y83819*
X59718Y83621*
X59831Y83453*
X59999Y83340*
X60197Y83301*
X60395Y83340*
X60563Y83453*
X60676Y83621*
X60715Y83819*
X60676Y84017*
X60597Y84134*
Y86666*
X61321*
Y85355*
X61350Y85206*
X61434Y85080*
X62335Y84179*
X62461Y84095*
X62486Y84090*
X62610Y84066*
X66386*
X66889Y83563*
X66840Y83445*
X64594*
X64459Y83536*
X64261Y83575*
X64063Y83536*
X63928Y83445*
X63372*
X63223Y83416*
X63097Y83332*
X62589Y82824*
X62505Y82698*
X62476Y82549*
Y82252*
X60890*
Y81986*
X59758*
Y82252*
X58172*
Y84200*
X58143Y84349*
X58059Y84475*
X56581Y85952*
X56550Y86111*
X56437Y86279*
X56269Y86392*
X56071Y86431*
X55873Y86392*
X55738Y86301*
X54678*
Y86567*
Y86659*
Y87967*
X54366*
Y90520*
X55028Y91182*
X55805*
Y91166*
Y90666*
Y90166*
Y89666*
Y89166*
Y88666*
X57513*
Y89166*
Y89666*
Y90166*
Y90666*
Y91166*
Y91666*
Y92166*
Y92666*
Y92682*
X59294*
X60703Y91273*
G37*
G36*
X122928Y104109D02*
Y101379D01*
X117725Y96176*
X114462*
X114344Y96200*
X112844*
X112686Y96169*
X112553Y96079*
X112463Y95946*
X112432Y95788*
X112463Y95630*
X112525Y95538*
X112463Y95446*
X112432Y95288*
X112463Y95130*
X112525Y95038*
X112463Y94946*
X112432Y94788*
X112463Y94630*
X112525Y94538*
X112463Y94446*
X112432Y94288*
X112435Y94275*
X112354Y94176*
X108432*
Y96098*
X108531Y96179*
X108544Y96176*
X108702Y96207*
X108794Y96269*
X108886Y96207*
X109044Y96176*
X109202Y96207*
X109294Y96269*
X109386Y96207*
X109544Y96176*
X109702Y96207*
X109794Y96269*
X109886Y96207*
X110044Y96176*
X110202Y96207*
X110294Y96269*
X110386Y96207*
X110544Y96176*
X110702Y96207*
X110794Y96269*
X110886Y96207*
X111044Y96176*
X111202Y96207*
X111294Y96269*
X111386Y96207*
X111544Y96176*
X111702Y96207*
X111794Y96269*
X111886Y96207*
X112044Y96176*
X112202Y96207*
X112335Y96297*
X112425Y96430*
X112456Y96588*
Y98088*
X112432Y98206*
Y98675*
X113571Y99814*
X118617*
X118766Y99843*
X118892Y99927*
X122295Y103331*
X122379Y103457*
X122409Y103606*
Y103848*
X122527Y103897*
X122737Y104058*
X122807Y104150*
X122928Y104109*
G37*
G36*
X107656Y85288D02*
D01*
Y83478*
X107557Y83397*
X107544Y83400*
X107386Y83369*
X107294Y83307*
X107202Y83369*
X107044Y83400*
X106886Y83369*
X106794Y83307*
X106702Y83369*
X106544Y83400*
X106386Y83369*
X106294Y83307*
X106202Y83369*
X106044Y83400*
X105886Y83369*
X105794Y83307*
X105702Y83369*
X105544Y83400*
X105386Y83369*
X105294Y83307*
X105202Y83369*
X105044Y83400*
X104886Y83369*
X104794Y83307*
X104702Y83369*
X104544Y83400*
X104386Y83369*
X104294Y83307*
X104202Y83369*
X104044Y83400*
X103886Y83369*
X103794Y83307*
X103702Y83369*
X103544Y83400*
X103386Y83369*
X103294Y83307*
X103202Y83369*
X103044Y83400*
X102886Y83369*
X102794Y83307*
X102702Y83369*
X102671Y83375*
Y83157*
X102663Y83146*
X102632Y82988*
Y82238*
X102456*
Y82988*
X102425Y83146*
X102417Y83157*
Y83375*
X102386Y83369*
X102294Y83307*
X102202Y83369*
X102044Y83400*
X101886Y83369*
X101794Y83307*
X101702Y83369*
X101544Y83400*
X101531Y83397*
X101432Y83478*
Y84287*
X102862Y85717*
X107656*
Y85288*
G37*
G36*
X102656Y80998D02*
Y69169D01*
X97882Y64395*
X90083*
X90065Y64521*
X90315Y64597*
X90668Y64786*
X90978Y65040*
X91232Y65349*
X91420Y65702*
X91537Y66085*
X91563Y66356*
X87505*
X87531Y66085*
X87648Y65702*
X87836Y65349*
X88090Y65040*
X88400Y64786*
X88753Y64597*
X89003Y64521*
X88985Y64395*
X77383*
X77365Y64521*
X77615Y64597*
X77968Y64786*
X78278Y65040*
X78532Y65349*
X78720Y65702*
X78837Y66085*
X78863Y66356*
X74805*
X74831Y66085*
X74948Y65702*
X75136Y65349*
X75390Y65040*
X75700Y64786*
X76053Y64597*
X76303Y64521*
X76285Y64395*
X75217*
X74671Y64941*
X74687Y65023*
X74638Y65271*
X74498Y65481*
X74288Y65621*
X74040Y65670*
X73792Y65621*
X73582Y65481*
X73442Y65271*
X73414Y65132*
X73288Y65145*
Y72008*
Y74603*
X81957*
Y74352*
X83265*
X83357*
X84665*
Y74668*
X85597*
X85720Y74692*
X85791Y74586*
X85761Y74542*
X85712Y74294*
X85761Y74046*
X85901Y73836*
X86111Y73696*
X86359Y73647*
X86607Y73696*
X86817Y73836*
X86863Y73906*
X98551*
X98700Y73935*
X98826Y74019*
X102319Y77512*
X102403Y77638*
X102432Y77787*
Y80998*
X102531Y81079*
X102544Y81076*
X102557Y81079*
X102656Y80998*
G37*
G36*
X92644Y107373D02*
X92595Y107256D01*
X91485*
X91393*
X90085*
Y106940*
X88137*
Y107123*
X85597*
Y106940*
X85448Y106911*
X85322Y106827*
X84433Y105938*
X84349Y105812*
X84320Y105663*
Y100627*
X84349Y100478*
X84433Y100352*
X85112Y99673*
X85238Y99589*
X85263Y99584*
X85387Y99560*
X87976*
X88522Y99014*
X88506Y98932*
X88555Y98684*
X88695Y98474*
X88905Y98334*
X89153Y98285*
X89401Y98334*
X89611Y98474*
X89751Y98684*
X89786Y98861*
X89908Y98898*
X90561Y98244*
X90513Y98127*
X89211*
Y96819*
Y96727*
Y96200*
X89915*
Y96073*
X90042*
Y95419*
X90580*
X90619*
X90670Y95368*
Y95249*
X90699Y95100*
X90783Y94974*
X92244Y93513*
X92370Y93429*
X92395Y93424*
X92519Y93400*
X97254*
X97335Y93301*
X97332Y93288*
X97363Y93130*
X97425Y93038*
X97363Y92946*
X97332Y92788*
X97363Y92630*
X97425Y92538*
X97363Y92446*
X97332Y92288*
X97363Y92130*
X97425Y92038*
X97363Y91946*
X97332Y91788*
X97363Y91630*
X97425Y91538*
X97363Y91446*
X97332Y91288*
X97363Y91130*
X97425Y91038*
X97363Y90946*
X97357Y90915*
X97575*
X97586Y90907*
X97744Y90876*
X98494*
Y90700*
X97744*
X97586Y90669*
X97575Y90661*
X97357*
X97363Y90630*
X97425Y90538*
X97363Y90446*
X97332Y90288*
X97363Y90130*
X97425Y90038*
X97363Y89946*
X97332Y89788*
X97363Y89630*
X97425Y89538*
X97363Y89446*
X97332Y89288*
X97363Y89130*
X97425Y89038*
X97363Y88946*
X97332Y88788*
X97335Y88775*
X97254Y88676*
X93481*
X93238Y88920*
X93112Y89004*
X92963Y89033*
X90804*
X90655Y89004*
X90529Y88920*
X89767Y88158*
X89683Y88032*
X89654Y87883*
Y87244*
X89584Y87198*
X89444Y86988*
X89395Y86740*
X89444Y86492*
X89538Y86351*
X89478Y86239*
X86587*
Y87626*
X86672Y87652*
X86977Y87815*
X87244Y88034*
X87463Y88301*
X87626Y88606*
X87727Y88936*
X87760Y89280*
X87727Y89624*
X87626Y89954*
X87463Y90259*
X87244Y90526*
X86977Y90745*
X86672Y90908*
X86342Y91009*
X85998Y91042*
X85654Y91009*
X85324Y90908*
X85019Y90745*
X84752Y90526*
X84533Y90259*
X84370Y89954*
X84269Y89624*
X84236Y89280*
X84269Y88936*
X84370Y88606*
X84533Y88301*
X84752Y88034*
X85019Y87815*
X85324Y87652*
X85551Y87583*
Y85851*
Y79762*
X84665*
Y76954*
X87473*
Y79762*
X86587*
Y85463*
X92494*
X92543Y85345*
X90632Y83434*
X90550Y83450*
X90302Y83401*
X90092Y83261*
X89952Y83051*
X89903Y82803*
X89952Y82555*
X90092Y82345*
X90302Y82205*
X90550Y82156*
X90798Y82205*
X91008Y82345*
X91148Y82555*
X91197Y82803*
X91181Y82885*
X93196Y84900*
X95487*
X95536Y84782*
X94188Y83434*
X94106Y83450*
X93858Y83401*
X93648Y83261*
X93508Y83051*
X93459Y82803*
X93508Y82555*
X93648Y82345*
X93858Y82205*
X94106Y82156*
X94354Y82205*
X94564Y82345*
X94704Y82555*
X94753Y82803*
X94737Y82885*
X96252Y84400*
X97254*
X97335Y84301*
X97332Y84288*
X97363Y84130*
X97425Y84038*
X97363Y83946*
X97332Y83788*
X97363Y83630*
X97453Y83497*
X97586Y83407*
X97744Y83376*
X99244*
X99402Y83407*
X99535Y83497*
X99625Y83630*
X99656Y83788*
X99625Y83946*
X99563Y84038*
X99625Y84130*
X99656Y84288*
X99625Y84446*
X99563Y84538*
X99625Y84630*
X99656Y84788*
X99625Y84946*
X99563Y85038*
X99625Y85130*
X99656Y85288*
X99625Y85446*
X99563Y85538*
X99625Y85630*
X99656Y85788*
X99625Y85946*
X99563Y86038*
X99625Y86130*
X99656Y86288*
X99625Y86446*
X99563Y86538*
X99625Y86630*
X99656Y86788*
X99625Y86946*
X99563Y87038*
X99625Y87130*
X99656Y87288*
X99625Y87446*
X99563Y87538*
X99625Y87630*
X99656Y87788*
X99625Y87946*
X99563Y88038*
X99625Y88130*
X99656Y88288*
X99625Y88446*
X99563Y88538*
X99625Y88630*
X99656Y88788*
X99653Y88801*
X99734Y88900*
X101598*
X101649Y88822*
X101859Y88682*
X102107Y88633*
X102355Y88682*
X102565Y88822*
X102705Y89032*
X102754Y89280*
X102705Y89528*
X102565Y89738*
X102505Y89778*
X102542Y89900*
X107656*
Y86493*
X102701*
X102552Y86464*
X102426Y86380*
X100769Y84723*
X100685Y84597*
X100656Y84448*
Y83478*
X100557Y83397*
X100544Y83400*
X100386Y83369*
X100294Y83307*
X100202Y83369*
X100044Y83400*
X99886Y83369*
X99753Y83279*
X99663Y83146*
X99632Y82988*
Y81488*
X99656Y81370*
Y80901*
X96601Y77846*
X96519Y77862*
X96271Y77813*
X96061Y77673*
X95921Y77463*
X95872Y77215*
X95921Y76967*
X96061Y76757*
X96271Y76617*
X96519Y76568*
X96767Y76617*
X96977Y76757*
X97090Y76927*
X97217*
X97331Y76757*
X97541Y76617*
X97789Y76568*
X98037Y76617*
X98247Y76757*
X98387Y76967*
X98436Y77215*
X98420Y77297*
X100819Y79695*
X100903Y79821*
X100932Y79970*
Y80998*
X101031Y81079*
X101044Y81076*
X101057Y81079*
X101156Y80998*
Y78210*
X99152Y76206*
X86863*
X86817Y76276*
X86607Y76416*
X86359Y76465*
X86111Y76416*
X85901Y76276*
X85761Y76066*
X85712Y75818*
X85728Y75736*
X85436Y75444*
X84665*
Y75760*
X83357*
X83265*
X81957*
Y75509*
X73288*
Y77840*
X75461*
Y77404*
X77169*
X77261*
X78969*
Y77840*
X80165*
Y76954*
X82973*
Y79762*
X80165*
Y78876*
X78969*
Y79312*
X77261*
X77169*
X75461*
Y78876*
X73288*
Y86525*
X74660Y87898*
X74773Y88066*
X74812Y88264*
Y105989*
X74837Y106009*
X74907Y106099*
X80771*
Y105980*
X83311*
Y106419*
X84388Y107496*
X92521*
X92644Y107373*
G37*
G36*
X115917Y86778D02*
X115838Y86725D01*
X115725Y86557*
X115686Y86359*
X115725Y86161*
X115838Y85993*
X116006Y85880*
X116204Y85841*
X116238Y85848*
X116328Y85758*
X116321Y85724*
X116360Y85526*
X116451Y85391*
Y85377*
X115750Y84676*
X114834*
X114753Y84775*
X114756Y84788*
X114725Y84946*
X114663Y85038*
X114725Y85130*
X114756Y85288*
X114725Y85446*
X114663Y85538*
X114725Y85630*
X114731Y85661*
X114513*
X114502Y85669*
X114344Y85700*
X113594*
Y85876*
X114344*
X114502Y85907*
X114513Y85915*
X114731*
X114725Y85946*
X114663Y86038*
X114725Y86130*
X114756Y86288*
X114725Y86446*
X114663Y86538*
X114725Y86630*
X114756Y86788*
X114753Y86801*
X114834Y86900*
X115880*
X115917Y86778*
G37*
G36*
X62821Y88374D02*
X61805D01*
X61097*
Y89017*
X61219Y89054*
X61228Y89041*
X61396Y88928*
X61467Y88914*
Y89407*
X61594*
Y89534*
X62087*
X62073Y89605*
X61960Y89773*
X61941Y89786*
X61978Y89908*
X62821*
Y88374*
G37*
%LNlp_led_cube_8x8x8-4*%
%LPC*%
G36*
X60311Y102361D02*
X59816D01*
Y101866*
X59937Y101890*
X60147Y102030*
X60287Y102240*
X60311Y102361*
G37*
G36*
X83311Y103313D02*
X80771D01*
Y102171*
X83311*
Y103313*
G37*
G36*
X62015Y103628D02*
X60788D01*
Y102401*
X62015*
Y103628*
G37*
G36*
X70865Y102996D02*
X69984D01*
X70002Y102858*
X70105Y102611*
X70267Y102398*
X70480Y102236*
X70727Y102133*
X70865Y102115*
Y102996*
G37*
G36*
X72000D02*
X71119D01*
Y102115*
X71257Y102133*
X71504Y102236*
X71717Y102398*
X71879Y102611*
X71982Y102858*
X72000Y102996*
G37*
G36*
X59562Y102361D02*
X59067D01*
X59091Y102240*
X59231Y102030*
X59441Y101890*
X59562Y101866*
Y102361*
G37*
G36*
X83311Y101345D02*
X82168D01*
Y100900*
X83311*
Y101345*
G37*
G36*
X81914D02*
X80771D01*
Y100900*
X81914*
Y101345*
G37*
G36*
X89788Y95946D02*
X89211D01*
Y95419*
X89788*
Y95946*
G37*
G36*
X62015Y102147D02*
X60788D01*
Y100920*
X62015*
Y102147*
G37*
G36*
X83311Y102044D02*
X82168D01*
Y101599*
X83311*
Y102044*
G37*
G36*
X81914D02*
X80771D01*
Y101599*
X81914*
Y102044*
G37*
G36*
X63496Y102147D02*
X62269D01*
Y100920*
X63496*
Y102147*
G37*
G36*
X81914Y104584D02*
X80771D01*
Y104139*
X81914*
Y104584*
G37*
G36*
X83311D02*
X82168D01*
Y104139*
X83311*
Y104584*
G37*
G36*
X81914Y103885D02*
X80771D01*
Y103440*
X81914*
Y103885*
G37*
G36*
X83311D02*
X82168D01*
Y103440*
X83311*
Y103885*
G37*
G36*
X81914Y105853D02*
X80771D01*
Y105409*
X81914*
Y105853*
G37*
G36*
X83311D02*
X82168D01*
Y105409*
X83311*
Y105853*
G37*
G36*
X81914Y105155D02*
X80771D01*
Y104711*
X81914*
Y105155*
G37*
G36*
X83311D02*
X82168D01*
Y104711*
X83311*
Y105155*
G37*
G36*
X100964Y103745D02*
Y103250D01*
X101459*
X101435Y103371*
X101295Y103581*
X101085Y103721*
X100964Y103745*
G37*
G36*
X101459Y102996D02*
X100964D01*
Y102501*
X101085Y102525*
X101295Y102665*
X101435Y102875*
X101459Y102996*
G37*
G36*
X59562Y103110D02*
X59441Y103086D01*
X59231Y102946*
X59091Y102736*
X59067Y102615*
X59562*
Y103110*
G37*
G36*
X63496Y103628D02*
X62269D01*
Y102401*
X63496*
Y103628*
G37*
G36*
X100710Y102996D02*
X100215D01*
X100239Y102875*
X100379Y102665*
X100589Y102525*
X100710Y102501*
Y102996*
G37*
G36*
X71119Y104131D02*
Y103250D01*
X72000*
X71982Y103388*
X71879Y103635*
X71717Y103848*
X71504Y104010*
X71257Y104113*
X71119Y104131*
G37*
G36*
X100710Y103745D02*
X100589Y103721D01*
X100379Y103581*
X100239Y103371*
X100215Y103250*
X100710*
Y103745*
G37*
G36*
X59816Y103110D02*
Y102615D01*
X60311*
X60287Y102736*
X60147Y102946*
X59937Y103086*
X59816Y103110*
G37*
G36*
X70865Y104131D02*
X70727Y104113D01*
X70480Y104010*
X70267Y103848*
X70105Y103635*
X70002Y103388*
X69984Y103250*
X70865*
Y104131*
G37*
G36*
X62087Y89280D02*
X61721D01*
Y88914*
X61792Y88928*
X61960Y89041*
X62073Y89209*
X62087Y89280*
G37*
G36*
X95503Y89684D02*
X95008D01*
X95032Y89564*
X95172Y89354*
X95382Y89213*
X95503Y89189*
Y89684*
G37*
G36*
X59082Y89252D02*
X58716D01*
X58730Y89181*
X58843Y89013*
X59011Y88900*
X59082Y88886*
Y89252*
G37*
G36*
X59702D02*
X59336D01*
Y88886*
X59407Y88900*
X59575Y89013*
X59688Y89181*
X59702Y89252*
G37*
G36*
X85470Y72199D02*
X83438D01*
Y70167*
X83926*
X83951Y70042*
X83942Y70038*
X83729Y69875*
X83567Y69663*
X83464Y69416*
X83446Y69278*
X85462*
X85444Y69416*
X85341Y69663*
X85179Y69875*
X84966Y70038*
X84957Y70042*
X84982Y70167*
X85470*
Y72199*
G37*
G36*
X78625Y91030D02*
Y89407D01*
X80248*
X80227Y89624*
X80126Y89954*
X79963Y90259*
X79744Y90526*
X79477Y90745*
X79172Y90908*
X78842Y91009*
X78625Y91030*
G37*
G36*
X96252Y89684D02*
X95757D01*
Y89189*
X95878Y89213*
X96088Y89354*
X96228Y89564*
X96252Y89684*
G37*
G36*
X78371Y91030D02*
X78154Y91009D01*
X77824Y90908*
X77519Y90745*
X77252Y90526*
X77033Y90259*
X76870Y89954*
X76769Y89624*
X76748Y89407*
X78371*
Y91030*
G37*
G36*
X80248Y89153D02*
X78625D01*
Y87530*
X78842Y87551*
X79172Y87652*
X79477Y87815*
X79744Y88034*
X79963Y88301*
X80126Y88606*
X80227Y88936*
X80248Y89153*
G37*
G36*
X104139Y85203D02*
X104018Y85179D01*
X103808Y85039*
X103668Y84829*
X103644Y84708*
X104139*
Y85203*
G37*
G36*
X104393D02*
Y84708D01*
X104888*
X104864Y84829*
X104724Y85039*
X104514Y85179*
X104393Y85203*
G37*
G36*
X104139Y84454D02*
X103644D01*
X103668Y84333*
X103808Y84123*
X104018Y83983*
X104139Y83959*
Y84454*
G37*
G36*
X104888D02*
X104393D01*
Y83959*
X104514Y83983*
X104724Y84123*
X104864Y84333*
X104888Y84454*
G37*
G36*
X110108Y87489D02*
X109987Y87465D01*
X109777Y87325*
X109637Y87115*
X109613Y86994*
X110108*
Y87489*
G37*
G36*
X78371Y89153D02*
X76748D01*
X76769Y88936*
X76870Y88606*
X77033Y88301*
X77252Y88034*
X77519Y87815*
X77824Y87652*
X78154Y87551*
X78371Y87530*
Y89153*
G37*
G36*
X82549Y97672D02*
X82351Y97633D01*
X82183Y97520*
X82070Y97352*
X82031Y97154*
X82070Y96956*
X82161Y96821*
Y87371*
X82091Y87325*
X81951Y87115*
X81902Y86867*
X81951Y86619*
X82091Y86409*
X82301Y86269*
X82549Y86220*
X82797Y86269*
X83007Y86409*
X83147Y86619*
X83196Y86867*
X83147Y87115*
X83007Y87325*
X82937Y87371*
Y96821*
X83028Y96956*
X83067Y97154*
X83028Y97352*
X82915Y97520*
X82747Y97633*
X82549Y97672*
G37*
G36*
X110108Y86740D02*
X109613D01*
X109637Y86619*
X109777Y86409*
X109987Y86269*
X110108Y86245*
Y86740*
G37*
G36*
X109854Y94868D02*
X109359D01*
X109383Y94747*
X109523Y94537*
X109733Y94397*
X109854Y94373*
Y94868*
G37*
G36*
X110603D02*
X110108D01*
Y94373*
X110229Y94397*
X110439Y94537*
X110579Y94747*
X110603Y94868*
G37*
G36*
X76961Y68513D02*
Y66611D01*
X78863*
X78837Y66882*
X78720Y67265*
X78532Y67618*
X78278Y67927*
X77968Y68181*
X77615Y68370*
X77232Y68486*
X76961Y68513*
G37*
G36*
X76707D02*
X76436Y68486D01*
X76053Y68370*
X75700Y68181*
X75390Y67927*
X75136Y67618*
X74948Y67265*
X74831Y66882*
X74805Y66611*
X76707*
Y68513*
G37*
G36*
X109854Y95617D02*
X109733Y95593D01*
X109523Y95453*
X109383Y95243*
X109359Y95122*
X109854*
Y95617*
G37*
G36*
X110108D02*
Y95122D01*
X110603*
X110579Y95243*
X110439Y95453*
X110229Y95593*
X110108Y95617*
G37*
G36*
X65132Y94974D02*
X64405D01*
Y94697*
X65132*
Y94974*
G37*
G36*
X66113D02*
X65386D01*
Y94697*
X66113*
Y94974*
G37*
G36*
X89407Y68513D02*
X89136Y68486D01*
X88753Y68370*
X88400Y68181*
X88090Y67927*
X87836Y67618*
X87648Y67265*
X87531Y66882*
X87505Y66611*
X89407*
Y68513*
G37*
G36*
X81914Y72207D02*
X81649Y72172D01*
X81402Y72070*
X81189Y71907*
X81027Y71695*
X80924Y71448*
X80889Y71183*
X80924Y70917*
X81027Y70670*
X81189Y70458*
X81402Y70295*
X81559Y70230*
Y70103*
X81402Y70038*
X81189Y69875*
X81027Y69663*
X80924Y69416*
X80889Y69150*
X80924Y68885*
X81027Y68638*
X81189Y68426*
X81402Y68263*
X81649Y68161*
X81914Y68126*
X82179Y68161*
X82426Y68263*
X82639Y68426*
X82801Y68638*
X82904Y68885*
X82939Y69150*
X82904Y69416*
X82801Y69663*
X82639Y69875*
X82426Y70038*
X82269Y70103*
Y70230*
X82426Y70295*
X82639Y70458*
X82801Y70670*
X82904Y70917*
X82939Y71183*
X82904Y71448*
X82801Y71695*
X82639Y71907*
X82426Y72070*
X82179Y72172*
X81914Y72207*
G37*
G36*
X59082Y89872D02*
X59011Y89858D01*
X58843Y89745*
X58730Y89577*
X58716Y89506*
X59082*
Y89872*
G37*
G36*
X85462Y69023D02*
X84581D01*
Y68142*
X84719Y68161*
X84966Y68263*
X85179Y68426*
X85341Y68638*
X85444Y68885*
X85462Y69023*
G37*
G36*
X84327D02*
X83446D01*
X83464Y68885*
X83567Y68638*
X83729Y68426*
X83942Y68263*
X84189Y68161*
X84327Y68142*
Y69023*
G37*
G36*
X95757Y90434D02*
Y89938D01*
X96252*
X96228Y90059*
X96088Y90269*
X95878Y90410*
X95757Y90434*
G37*
G36*
X89661Y68513D02*
Y66611D01*
X91563*
X91537Y66882*
X91420Y67265*
X91232Y67618*
X90978Y67927*
X90668Y68181*
X90315Y68370*
X89932Y68486*
X89661Y68513*
G37*
G36*
X59336Y89872D02*
Y89506D01*
X59702*
X59688Y89577*
X59575Y89745*
X59407Y89858*
X59336Y89872*
G37*
G36*
X95503Y90434D02*
X95382Y90410D01*
X95172Y90269*
X95032Y90059*
X95008Y89938*
X95503*
Y90434*
G37*
%LNlp_led_cube_8x8x8-5*%
%LPD*%
G54D10*
X90739Y100456D03*
X92139D03*
X65469Y98678D03*
X64069D03*
X68133Y83565D03*
X69533D03*
Y84962D03*
X68133D03*
X69533Y86359D03*
X68133D03*
X128715Y72008D03*
X127315D03*
X125540D03*
X124140D03*
X82611Y75056D03*
X84011D03*
X90739Y106552D03*
X92139D03*
X90739Y105028D03*
X92139D03*
X90739Y101853D03*
X92139D03*
X107887Y71627D03*
X106487D03*
X99883Y106552D03*
X101283D03*
X115950Y77469D03*
X117350D03*
X99883Y105155D03*
X101283D03*
X117350Y78866D03*
X115950D03*
X162240Y91439D03*
X163640D03*
G54D11*
X57149Y101026D03*
Y102426D03*
X71754Y88326D03*
Y89726D03*
X66674Y81598D03*
Y80198D03*
X53974Y87313D03*
Y85913D03*
X65404Y80198D03*
Y81598D03*
X64134Y80198D03*
Y81598D03*
X62864Y80198D03*
Y81598D03*
X61594Y80198D03*
Y81598D03*
X57784Y80198D03*
Y81598D03*
X59054Y80198D03*
Y81598D03*
X53974D03*
Y80198D03*
X55244Y81598D03*
Y80198D03*
X121411Y79690D03*
Y81090D03*
X134365Y75372D03*
Y76772D03*
X121411Y76769D03*
Y78169D03*
X144398Y89345D03*
Y87945D03*
Y92139D03*
Y90739D03*
X92201Y96073D03*
Y97473D03*
X98424Y102169D03*
Y103569D03*
X89915Y97473D03*
Y96073D03*
X166750Y83249D03*
Y81849D03*
G54D12*
X132460Y79615D03*
X131190D03*
X129920D03*
X128650D03*
X127380D03*
X126110D03*
X124840D03*
X123570D03*
X132460Y74815D03*
X131190D03*
X129920D03*
X128650D03*
X127380D03*
X126110D03*
X124840D03*
X123570D03*
G54D13*
X138359Y86342D03*
X139659D03*
X140959D03*
X142259D03*
X142309Y93692D03*
X140909D03*
X139659D03*
X138359D03*
G54D14*
X86069Y78358D03*
X81569D03*
X164246Y76199D03*
X168746D03*
G54D15*
X78115Y78358D03*
X76315D03*
G54D16*
X62142Y107274D03*
Y102274D03*
X67142Y107274D03*
Y102274D03*
G54D17*
X98494Y95788D03*
Y95288D03*
Y94788D03*
Y94288D03*
Y93788D03*
Y93288D03*
Y92788D03*
Y92288D03*
Y91788D03*
Y91288D03*
Y90788D03*
Y90288D03*
Y89788D03*
Y89288D03*
Y88788D03*
Y88288D03*
Y87788D03*
Y87288D03*
Y86788D03*
Y86288D03*
Y85788D03*
Y85288D03*
Y84788D03*
Y84288D03*
Y83788D03*
X113594D03*
Y84288D03*
Y84788D03*
Y85288D03*
Y85788D03*
Y86288D03*
Y86788D03*
Y87288D03*
Y87788D03*
Y88288D03*
Y88788D03*
Y89288D03*
Y89788D03*
Y90288D03*
Y90788D03*
Y91288D03*
Y91788D03*
Y92288D03*
Y92788D03*
Y93288D03*
Y93788D03*
Y94288D03*
Y94788D03*
Y95288D03*
Y95788D03*
G54D18*
X100044Y82238D03*
X100544D03*
X101044D03*
X101544D03*
X102044D03*
X102544D03*
X103044D03*
X103544D03*
X104044D03*
X104544D03*
X105044D03*
X105544D03*
X106044D03*
X106544D03*
X107044D03*
X107544D03*
X108044D03*
X108544D03*
X109044D03*
X109544D03*
X110044D03*
X110544D03*
X111044D03*
X111544D03*
X112044D03*
Y97338D03*
X111544D03*
X111044D03*
X110544D03*
X110044D03*
X109544D03*
X109044D03*
X108544D03*
X108044D03*
X107544D03*
X107044D03*
X106544D03*
X106044D03*
X105544D03*
X105044D03*
X104544D03*
X104044D03*
X103544D03*
X103044D03*
X102544D03*
X102044D03*
X101544D03*
X101044D03*
X100544D03*
X100044D03*
G54D19*
X155447Y74802D03*
X149605D03*
G54D20*
X152399Y88645D03*
Y82803D03*
G54D21*
X56659Y94570D03*
Y94070D03*
Y93570D03*
Y93070D03*
Y92570D03*
Y92070D03*
Y91570D03*
Y91070D03*
Y90570D03*
Y90070D03*
Y89570D03*
Y89070D03*
X65259D03*
Y89570D03*
Y90070D03*
Y90570D03*
Y91070D03*
Y91570D03*
Y92070D03*
Y92570D03*
Y93070D03*
Y93570D03*
Y94070D03*
Y94570D03*
G54D22*
X58209Y87520D03*
X58709D03*
X59209D03*
X59709D03*
X60209D03*
X60709D03*
X61209D03*
X61709D03*
X62209D03*
X62709D03*
X63209D03*
X63709D03*
Y96120D03*
X63209D03*
X62709D03*
X62209D03*
X61709D03*
X61209D03*
X60709D03*
X60209D03*
X59709D03*
X59209D03*
X58709D03*
X58209D03*
G54D23*
X86867Y106552D03*
Y105282D03*
Y104012D03*
Y102742D03*
Y101472D03*
X82041D03*
Y102742D03*
Y104012D03*
Y105282D03*
Y106552D03*
G54D24*
X159116Y82697D03*
X161416D03*
X163716D03*
G54D25*
X161416Y88497D03*
G54D26*
X149859Y87121D02*
X152399D01*
X143763Y81025D02*
X149859Y87121D01*
X143763Y63372D02*
Y81025D01*
X119379Y64642D02*
Y70103D01*
Y64642D02*
X122173Y61848D01*
X142239*
X143763Y63372*
X147954D02*
X153034D01*
X156971*
X158749Y61594*
X159257Y74802D02*
X160654Y76199D01*
X155447Y74802D02*
X159257D01*
X160654Y76199D02*
X164246D01*
X161416Y82697D02*
Y88497D01*
X152399D02*
X161416D01*
X143763Y63372D02*
X147954D01*
G54D27*
X92139Y100456D02*
Y101853D01*
X86867Y101472D02*
X89026D01*
X90042Y100456*
X90739*
X107044Y93106D02*
Y97338D01*
X106544Y94225D02*
Y97338D01*
X106171Y93852D02*
X106544Y94225D01*
X104044Y95281D02*
Y97338D01*
X92486Y87788D02*
X98494D01*
X82549Y86867D02*
Y97154D01*
X62209Y93618D02*
Y96120D01*
X65259Y92070D02*
X70861D01*
X71500Y92709*
X72389*
X71119Y93570D02*
Y98297D01*
X65259Y93570D02*
X71119D01*
X65259Y94073D02*
X66638Y94070D01*
X58209Y96120D02*
Y103294D01*
X57149Y102426D02*
X58209D01*
X58927Y83819D02*
X59709Y84601D01*
X68071Y79120D02*
Y81152D01*
X67625Y81598D02*
X68071Y81152D01*
X66674Y81598D02*
X67625D01*
X67563Y78612D02*
X68071Y79120D01*
X65404Y81598D02*
X66674D01*
X62709Y96120D02*
Y98142D01*
X63245Y98678*
X64069*
X69533Y86359D02*
X70611D01*
X71754Y87502*
Y88326*
X65259Y91070D02*
X68948D01*
X69849Y90169*
X65259Y91570D02*
X71751D01*
X71754Y89726D02*
Y91567D01*
X62864Y81598D02*
Y82549D01*
X63372Y83057*
X64261*
X66928*
X67436Y82549*
X69533*
Y84962*
Y86359*
X66565Y84436D02*
X67454Y83547D01*
X68151*
X65259Y90070D02*
X67154D01*
X68133Y89091*
Y86359D02*
Y89091D01*
X65259Y90570D02*
X67416D01*
X68960Y89026*
Y88264D02*
Y89026D01*
X65259Y89570D02*
X66892D01*
X67182Y88264D02*
Y89280D01*
X66892Y89570D02*
X67182Y89280D01*
X63709Y87520D02*
X65386D01*
X61594Y81598D02*
X62864D01*
X61594Y78993D02*
Y80198D01*
X56071Y85913D02*
X57784Y84200D01*
Y81598D02*
Y84200D01*
Y81598D02*
X59054D01*
X61594*
X59054Y78993D02*
Y80198D01*
X57784Y78993D02*
Y80198D01*
Y76072D02*
Y78993D01*
X56514Y78612D02*
Y81152D01*
X56068Y81598D02*
X56514Y81152D01*
X55244Y81598D02*
X56068D01*
X53974D02*
X55244D01*
X102996Y99821D02*
X103544Y99273D01*
X102869Y101091D02*
X104544Y99416D01*
X103758Y101980D02*
X105044Y100694D01*
X106044Y97338D02*
Y99567D01*
X103544Y97338D02*
Y99273D01*
X104544Y97338D02*
Y99416D01*
X105544Y97338D02*
Y101345D01*
X105044Y97338D02*
Y100694D01*
X103044Y94154D02*
Y97338D01*
X102488Y93598D02*
X103044Y94154D01*
X102544Y95178D02*
Y97338D01*
X101980Y94614D02*
X102544Y95178D01*
X101044Y93772D02*
Y97338D01*
Y93772D02*
X102615Y92201D01*
X100544Y93510D02*
Y97338D01*
Y93510D02*
X102742Y91312D01*
X102615Y92201D02*
X105282D01*
X102742Y91312D02*
X106171D01*
X131190Y79631D02*
Y82184D01*
X124840Y74815D02*
Y76326D01*
X124397Y76769D02*
X124840Y76326D01*
X121411Y76769D02*
X124397D01*
X121411Y78169D02*
Y79690D01*
X131190Y77723D02*
Y79615D01*
X132460Y77723D02*
Y79615D01*
X129920Y74815D02*
Y76326D01*
X130363Y76769*
X134365*
X126110Y72578D02*
Y74815D01*
X125540Y72008D02*
X126110Y72578D01*
X123570D02*
X124140Y72008D01*
X123570Y72578D02*
Y74815D01*
X127380Y72073D02*
Y74815D01*
X128650Y72073D02*
Y74815D01*
X130404Y67053D02*
Y69087D01*
X131190Y69873*
Y74815*
X132460Y69595D02*
Y74815D01*
X131825Y68960D02*
X132460Y69595D01*
X131825Y66293D02*
Y68960D01*
X131190Y65658D02*
X131825Y66293D01*
X129029Y65658D02*
X131190D01*
X127634Y67053D02*
X129029Y65658D01*
X142309Y91947D02*
Y93692D01*
X140588Y84962D02*
X140959Y85333D01*
Y86342*
X113594Y88288D02*
X134468D01*
X139064Y88137D02*
X139659Y87542D01*
X136143Y88137D02*
X139064D01*
X114553Y89280D02*
X135000D01*
X141096Y88645D02*
X142259Y87482D01*
Y86342D02*
Y87482D01*
X139659Y86342D02*
Y87542D01*
X136778Y89788D02*
X138359Y91115D01*
Y93692*
X84708Y100627D02*
X85387Y99948D01*
X88137*
X84708Y105663D02*
X85597Y106552D01*
X84708Y100627D02*
Y105663D01*
X85597Y106552D02*
X86867D01*
X85216Y100837D02*
X85597Y100456D01*
X88899*
X85216Y104901D02*
X85597Y105282D01*
X85216Y100837D02*
Y104901D01*
X85597Y105282D02*
X86867D01*
Y102742D02*
X94233D01*
X90739Y101853D02*
Y102680D01*
X94233Y102742D02*
X94995Y101980D01*
X93725Y104012D02*
X95472Y102265D01*
X90739Y104012D02*
Y105028D01*
X86867Y104012D02*
X93725D01*
X94995Y96646D02*
X96353Y95288D01*
X94995Y96646D02*
Y101980D01*
X95472Y96804D02*
Y102265D01*
X93979Y97027D02*
Y98170D01*
Y97027D02*
X96218Y94788D01*
X96488Y95788D02*
X98494D01*
X95472Y96804D02*
X96488Y95788D01*
X96353Y95288D02*
X98494D01*
X96218Y94788D02*
X98494D01*
X95630Y89811D02*
X96653Y88788D01*
X98494*
X95630Y89811D02*
X96607Y90788D01*
X98494*
Y89288D02*
X102099D01*
X100456Y90288D02*
X108036D01*
X98494Y91288D02*
X100456D01*
Y90288D02*
Y91288D01*
X98494Y90288D02*
X100456D01*
X108044Y93788D02*
X113594D01*
X108044D02*
Y97338D01*
X108544Y95416D02*
Y97338D01*
X109981Y94995D02*
X110688Y94288D01*
X113594*
X108965Y94995D02*
X109981D01*
X108544Y95416D02*
X108965Y94995D01*
X110235Y86867D02*
X111314Y85788D01*
X113594*
X107544Y82238D02*
Y83716D01*
X106933Y84327D02*
X107544Y83716D01*
X106933Y84327D02*
Y84581D01*
X103250D02*
X104266D01*
X102544Y83875D02*
X103250Y84581D01*
X102544Y82238D02*
Y83875D01*
X104266Y84581D02*
X106933D01*
X102701Y86105D02*
X108044D01*
X74040Y65023D02*
X75056Y64007D01*
X98043D02*
X103044Y69008D01*
X75056Y64007D02*
X98043D01*
X103044Y69008D02*
Y82238D01*
X102044Y77787D02*
Y82238D01*
X101544Y78049D02*
Y82238D01*
X99313Y75818D02*
X101544Y78049D01*
X98551Y74294D02*
X102044Y77787D01*
X100044Y80740D02*
Y82238D01*
X96519Y77215D02*
X100044Y80740D01*
X100544Y79970D02*
Y82238D01*
X97789Y77215D02*
X100544Y79970D01*
X66789Y92570D02*
X67055Y92836D01*
X65259Y92570D02*
X66789D01*
X61709Y98412D02*
X62102Y98805D01*
X61709Y96120D02*
Y98412D01*
X60709Y96120D02*
Y100202D01*
X59689Y99313D02*
Y100964D01*
Y99313D02*
X60209Y98793D01*
Y96120D02*
Y98793D01*
X56659Y94070D02*
X60233D01*
X95630Y85851D02*
X96567Y86788D01*
X98494*
X86069Y85851D02*
X95630D01*
X86359Y74294D02*
X98551D01*
X86359Y75818D02*
X99313D01*
X85597Y75056D02*
X86359Y75818D01*
X84011Y75056D02*
X85597D01*
X55244Y76072D02*
Y80198D01*
X59054Y75437D02*
Y78993D01*
X61594Y75437D02*
Y78993D01*
X60959Y74802D02*
X61594Y75437D01*
X60324Y74802D02*
X60959D01*
X59054Y73532D02*
X60324Y74802D01*
X63626D02*
X64134Y75310D01*
X62864Y74802D02*
X63626D01*
X61594Y73532D02*
X62864Y74802D01*
X58292Y74675D02*
X59054Y75437D01*
X57657Y74675D02*
X58292D01*
X56514Y73532D02*
X57657Y74675D01*
X62864Y76072D02*
Y80198D01*
X64134Y75310D02*
Y80198D01*
X66674Y73532D02*
Y80198D01*
X65404Y76072D02*
Y80198D01*
X64134Y81598D02*
X65404D01*
X69533Y72070D02*
Y82549D01*
X53974Y85913D02*
X56071D01*
X60209Y83831D02*
Y87520D01*
X59709Y84601D02*
Y87520D01*
X58709Y84996D02*
Y87520D01*
X57784Y85724D02*
X58209Y86149D01*
Y87520*
X62709Y86387D02*
Y87520D01*
Y86387D02*
X63245Y85851D01*
X63880*
X62209Y85617D02*
Y87520D01*
Y85617D02*
X62864Y84962D01*
X61709Y85355D02*
Y87520D01*
Y85355D02*
X62610Y84454D01*
X62864Y84962D02*
X68133D01*
X62610Y84454D02*
X66547D01*
X54867Y91570D02*
X56659D01*
X53978Y90681D02*
X54867Y91570D01*
X53978Y87317D02*
Y90681D01*
X59689Y91312D02*
X60705Y90296D01*
X63209*
X61209Y89022D02*
X61594Y89407D01*
X61209Y87520D02*
Y89022D01*
X63209Y87520D02*
Y90296D01*
X60709Y87520D02*
Y90292D01*
X59209Y87520D02*
Y89379D01*
X63209Y90296D02*
Y94197D01*
X63709Y94697D02*
Y96120D01*
X63209Y94197D02*
X63709Y94697D01*
X56659Y93070D02*
X59455D01*
X61213Y91312*
X56659Y94070D02*
X60233D01*
X54355Y92709D02*
X55216Y93570D01*
X56659*
X104044Y72310D02*
Y82238D01*
Y72310D02*
X104727Y71627D01*
X64642Y104774D02*
X67142Y107274D01*
X58209Y103294D02*
X59689Y104774D01*
X64642*
X67142Y102274D02*
X71119Y98297D01*
X90550Y82803D02*
X93035Y85288D01*
X94106Y82803D02*
X96091Y84788D01*
X98494*
X93035Y85288D02*
X98494D01*
X95924Y87288D02*
X98494D01*
X95376Y86740D02*
X95924Y87288D01*
X91312Y86740D02*
X95376D01*
X93320Y88288D02*
X98494D01*
X92963Y88645D02*
X93320Y88288D01*
X90804Y88645D02*
X92963D01*
X90042Y87883D02*
X90804Y88645D01*
X90042Y86740D02*
Y87883D01*
X106044Y99567D02*
X106425Y99948D01*
X115696Y106044D02*
X116941Y107289D01*
Y107314*
X115696Y103631D02*
Y106044D01*
X110044Y97338D02*
Y100265D01*
X107544Y97338D02*
Y100457D01*
X114401Y107314*
X109044Y97338D02*
Y101043D01*
X112775Y104774*
X114401*
X109544Y97338D02*
Y100654D01*
X112140Y103250*
X115315*
X115696Y103631*
X110044Y100265D02*
X112394Y102615D01*
X115950*
X116941Y103606*
Y104774*
X116585Y101980D02*
X118236Y103631D01*
X117220Y101345D02*
X119481Y103606D01*
Y104774*
X110544Y97338D02*
Y99876D01*
X112648Y101980*
X116585*
X111044Y97338D02*
Y99487D01*
X112902Y101345*
X117220*
X111544Y97338D02*
Y99147D01*
X113156Y100759*
X120776Y106069D02*
X122021Y107314D01*
X118236Y103631D02*
Y106069D01*
X119481Y107314*
X113156Y100759D02*
X117904D01*
X120776Y103631*
Y106069*
X118617Y100202D02*
X122021Y103606D01*
Y104774*
X112044Y97338D02*
Y98836D01*
X113410Y100202*
X118617*
X123316Y106069D02*
X124561Y107314D01*
X125856Y106069D02*
X127101Y107314D01*
X128396Y106069D02*
X129641Y107314D01*
X130936Y106298D02*
X131952Y107314D01*
X132181*
X113594Y91288D02*
X118695D01*
X132181Y104774*
X113594Y91788D02*
X118458D01*
X130936Y104266*
Y106298*
X113594Y92288D02*
X118196D01*
X129641Y103733*
Y104774*
X113594Y92788D02*
X117934D01*
X128396Y103250*
Y106069*
X113594Y93288D02*
X117672D01*
X127101Y102717*
Y104774*
X113594Y94788D02*
X118410D01*
X125856Y102234*
Y106069*
X113594Y95288D02*
X118148D01*
X124561Y101701*
Y104774*
X113594Y95788D02*
X117886D01*
X123316Y101218*
Y106069*
X113594Y90288D02*
X121657D01*
X136143Y104774*
X146151*
X113594Y90788D02*
X121395D01*
X137921Y107314*
X146151*
X135000Y89280D02*
X136143Y88137D01*
X113594Y87788D02*
X134079D01*
X136905Y84962*
X140588*
X134468Y88288D02*
X136414Y86342D01*
X138359*
X113594Y87288D02*
X133309D01*
X135889Y84708*
X113594Y88788D02*
X134730D01*
X136270Y87248*
X136778*
X136524Y88645D02*
X141096D01*
X113594Y89788D02*
X135381D01*
X136524Y88645*
X140909Y91753D02*
Y93692D01*
Y91753D02*
X141858Y90804D01*
X144333*
X144398Y90739*
Y89345D02*
Y90739D01*
X111759Y87248D02*
Y90550D01*
Y87248D02*
X112219Y86788D01*
X113594*
X111124Y87121D02*
Y89915D01*
X111957Y86288D02*
X113594D01*
X111124Y87121D02*
X111957Y86288D01*
X113594Y83788D02*
X116173D01*
X117474Y85089*
X113594Y84288D02*
X115911D01*
X116839Y85216*
Y85724*
Y83184D02*
X118109Y84454D01*
X92201Y97473D02*
Y99059D01*
Y100456*
X88137Y99948D02*
X89153Y98932D01*
X92201Y94995D02*
X92908Y94288D01*
X92201Y94995D02*
Y96073D01*
X92908Y94288D02*
X98494D01*
X91058Y95249D02*
X92519Y93788D01*
X98494*
X88899Y100456D02*
X91058Y98297D01*
X86867Y106552D02*
X90739D01*
X92139Y105028D02*
Y106552D01*
Y105790D02*
X93598D01*
X104727Y71627D02*
X106487D01*
X107887Y70165D02*
Y71627D01*
X89915Y97473D02*
X90993D01*
X91058Y95249D02*
Y98297D01*
X102044Y97338D02*
Y100519D01*
X101853Y100710D02*
X102044Y100519D01*
X108044Y82238D02*
Y85288D01*
Y86105*
Y93788*
X98424Y100837D02*
Y102104D01*
Y100837D02*
X100044Y99217D01*
Y97338D02*
Y99217D01*
X101853Y100710D02*
Y102107D01*
X101283Y105155D02*
Y106552D01*
X101853Y102107D02*
X102615Y102869D01*
Y105155*
X101283D02*
X102615D01*
X115950Y77469D02*
Y78866D01*
X108044Y85288D02*
X110235D01*
X113594*
X115950Y78866D02*
Y80771D01*
X82041Y106552D02*
X82803D01*
X101044Y82238D02*
Y84448D01*
X102701Y86105*
X153923Y74802D02*
X155447D01*
X64642Y100669D02*
Y104774D01*
Y100669D02*
X65531Y99780D01*
Y97154D02*
Y99780D01*
X101544Y97338D02*
Y99749D01*
X100710Y100583D02*
X101544Y99749D01*
X100710Y100583D02*
Y102996D01*
X100837Y103123*
X111544Y80986D02*
Y82238D01*
Y80986D02*
X111886Y80644D01*
X116204Y86359D02*
X117728D01*
X118998Y85089*
Y84073D02*
Y85089D01*
X114807Y82549D02*
X117474D01*
X118998Y84073*
X112902Y80644D02*
X114807Y82549D01*
X111886Y80644D02*
X112902D01*
X112044Y82238D02*
X112972D01*
X113918Y83184*
X116839*
G54D28*
X119379Y81090D02*
X121411D01*
X147954Y61594D02*
Y63372D01*
X153034Y61594D02*
Y63372D01*
X121411Y79690D02*
X123570D01*
X94614Y61594D02*
Y63118D01*
X99694Y61594D02*
Y63118D01*
X74294Y61594D02*
Y63118D01*
X72770Y75056D02*
X82611D01*
X64134Y73532D02*
X65658Y72008D01*
X72770D01*
X93598Y105790D02*
X96265D01*
X96900Y105155*
X98424Y103569D02*
Y105155D01*
X96900D02*
X99883D01*
X117350Y78866D02*
Y80393D01*
X118047Y81090*
X119379*
X67864Y106552D02*
X82041D01*
X93598Y105790D02*
Y107060D01*
X82803Y106552D02*
X84200Y107949D01*
X92709*
X93598Y107060*
X164910Y83249D02*
X166750D01*
X162240Y89321D02*
Y91439D01*
X144398Y87945D02*
X152399D01*
G54D29*
X119379Y70118D02*
Y81090D01*
X78115Y78358D02*
X81569D01*
X86069Y85851D02*
Y89280D01*
Y78358D02*
Y85851D01*
X99694Y63118D02*
Y64515D01*
X105282Y70103*
X74294Y63118D02*
X94614D01*
X70611D02*
X72770D01*
Y78358D02*
X76315D01*
X72770Y72008D02*
Y75056D01*
Y78358*
Y86740*
X65150Y61594D02*
X69087D01*
X70611Y63118*
X72770D02*
Y72008D01*
Y63118D02*
X74294D01*
X65150Y61594D02*
Y63118D01*
X54228D02*
X55752Y61594D01*
X65150*
X105282Y70103D02*
X119379D01*
X94614Y63118D02*
X99694D01*
X72770Y86740D02*
X74294Y88264D01*
Y106552*
G54D30*
X170623Y70548D03*
G54D31*
X171576Y73278D03*
G54D32*
X168909Y74866D03*
G54D33*
X164210Y80136D03*
G54D34*
X173608Y85280D03*
G54D35*
X70992Y103123D03*
G54D36*
X172910Y100964D03*
G54D37*
X78548Y89343D03*
G54D38*
X59753Y102488D03*
G54D39*
X95503Y89927D03*
G54D40*
X104329Y84581D03*
G54D41*
X109981Y95122D03*
G54D42*
X100837Y103123D03*
G54D43*
X152463Y83247D03*
G54D44*
X150113Y74929D03*
G54D45*
X110045Y86994D03*
G54D46*
X132181Y107314D03*
Y104774D03*
X129641Y107314D03*
Y104774D03*
X127101Y107314D03*
Y104774D03*
X124561Y107314D03*
Y104774D03*
X122021Y107314D03*
Y104774D03*
X119481Y107314D03*
Y104774D03*
X116941Y107314D03*
Y104774D03*
X114401Y107314D03*
X174624Y73278D03*
X153771Y107314D03*
Y104774D03*
X151231Y107314D03*
Y104774D03*
X148691Y107314D03*
Y104774D03*
X146151Y107314D03*
G54D47*
X114401Y104774D03*
X146151D03*
G54D48*
X173989Y107949D03*
X48894D03*
X173989Y62864D03*
X48894D03*
G54D49*
X92201Y99059D03*
X89026Y101472D03*
X100837Y103123D03*
X107060Y93090D03*
X106171Y93852D03*
X104012Y95249D03*
X92455Y87757D03*
X82549Y86867D03*
X105536Y101345D03*
X102996Y99821D03*
X102869Y101091D03*
X103758Y101980D03*
X106425Y99948D03*
X102488Y93598D03*
X101980Y94614D03*
X105282Y92201D03*
X106171Y91312D03*
X105282Y92201D03*
X106171Y91312D03*
X131190Y82184D03*
Y77723D03*
X132460D03*
X136778Y87248D03*
X142309Y91947D03*
X135889Y84708D03*
X136778Y89788D03*
X95630Y89811D03*
X102107Y89280D03*
X109981Y94995D03*
X110235Y86867D03*
X104266Y84581D03*
X74040Y65023D03*
X97789Y77215D03*
X96519D03*
X86359Y74294D03*
Y75818D03*
X104727Y71627D03*
X90550Y82803D03*
X94106D03*
X91312Y86740D03*
X90042D03*
X89153Y98932D03*
X93979Y98170D03*
X59689Y102488D03*
G54D50*
X85998Y89280D03*
X78498D03*
G54D51*
X62229Y93598D03*
X72389Y92709D03*
X61213Y91312D03*
X71119Y93598D03*
X60197Y83819D03*
X58927D03*
X67563Y78612D03*
X69849Y90169D03*
X71754Y91567D03*
X62864Y78993D03*
X64261Y83057D03*
X68960Y88264D03*
X67182D03*
X65404Y87502D03*
X57784Y78993D03*
X56514Y78612D03*
X65531Y97154D03*
X67055Y92836D03*
X62102Y98805D03*
X60705Y100202D03*
X59689Y100964D03*
X60233Y94070D03*
X59054Y78993D03*
X61594D03*
X58675Y84962D03*
X57784Y85724D03*
X56071Y85913D03*
X63880Y85851D03*
X59209Y89379D03*
X59689Y91312D03*
X61594Y89407D03*
X60233Y94070D03*
X54355Y92709D03*
X111759Y90550D03*
X111124Y89915D03*
X116204Y86359D03*
X116839Y85724D03*
X117474Y85089D03*
X118109Y84454D03*
X108044Y93788D03*
X102615Y105155D03*
X110235Y85288D03*
X115950Y80771D03*
X82549Y97154D03*
G54D52*
X119379Y81090D03*
X93598Y105790D03*
X74294Y106552D03*
G54D53*
X119379Y70103D03*
X81914Y71183D03*
Y69150D03*
X84454D03*
X54228Y63118D03*
X56768D03*
X67690D03*
X65150D03*
X151129Y74802D03*
X153923D03*
X152399Y84327D03*
Y87121D03*
X108774Y62102D03*
X104202D03*
X70992Y103123D03*
G54D54*
X174624Y70738D03*
G54D55*
X165670Y70039D03*
X170116Y66865D03*
X165670Y63817D03*
G54D56*
X156209Y61594D03*
X158749D03*
X150494D03*
X153034D03*
X145414D03*
X147954D03*
X97154D03*
X99694D03*
X92074D03*
X94614D03*
X71754D03*
X74294D03*
G54D57*
X115139Y65633D03*
X140129D03*
G54D58*
X133174Y67053D03*
G54D59*
X131789Y64213D03*
X130404Y67053D03*
X129019Y64213D03*
X127634Y67053D03*
X126249Y64213D03*
X124864Y67053D03*
X123479Y64213D03*
X122094Y67053D03*
G54D60*
X76834Y66483D03*
X89534D03*
G54D61*
X84454Y71183D03*
G54D62*
X52704Y70230D03*
X69214D03*
G54D63*
X66674Y73532D03*
X64134D03*
X61594D03*
X65404Y76072D03*
X62864D03*
X60324D03*
X59054Y73532D03*
X57784Y76072D03*
X56514Y73532D03*
X55244Y76072D03*
G54D64*
X109918Y64642D03*
X102933D03*
G54D65*
X172719Y100964D03*
G54D66*
X172719Y97154D03*
M02*