%FSLAX43Y43*%
%MOMM*%
%SFA1B1*%

%IPPOS*%
%ADD78C,0.100000*%
%LNlp_led_cube_8x8x8-1*%
%LPD*%
G54D78*
X124415Y76115D02*
D01*
X124414Y76150*
X124411Y76185*
X124405Y76219*
X124396Y76253*
X124385Y76286*
X124372Y76319*
X124357Y76350*
X124340Y76380*
X124320Y76409*
X124299Y76437*
X124275Y76463*
X124250Y76487*
X124223Y76509*
X124195Y76530*
X124165Y76548*
X124135Y76565*
X124103Y76579*
X124070Y76591*
X124036Y76601*
X124002Y76608*
X123968Y76613*
X123933Y76615*
X123898*
X123863Y76613*
X123829Y76608*
X123795Y76601*
X123761Y76591*
X123728Y76579*
X123696Y76565*
X123665Y76548*
X123636Y76530*
X123608Y76509*
X123581Y76487*
X123556Y76463*
X123532Y76437*
X123511Y76409*
X123491Y76380*
X123474Y76350*
X123459Y76319*
X123446Y76286*
X123435Y76253*
X123426Y76219*
X123420Y76185*
X123417Y76150*
X123415Y76115*
X123417Y76081*
X123420Y76046*
X123426Y76012*
X123435Y75978*
X123446Y75944*
X123459Y75912*
X123474Y75881*
X123491Y75851*
X123511Y75822*
X123532Y75794*
X123556Y75768*
X123581Y75744*
X123608Y75721*
X123636Y75701*
X123665Y75682*
X123696Y75666*
X123728Y75652*
X123761Y75640*
X123795Y75630*
X123829Y75623*
X123863Y75618*
X123898Y75616*
X123933*
X123968Y75618*
X124002Y75623*
X124036Y75630*
X124070Y75640*
X124103Y75652*
X124135Y75666*
X124165Y75682*
X124195Y75701*
X124223Y75721*
X124250Y75744*
X124275Y75768*
X124299Y75794*
X124320Y75822*
X124340Y75851*
X124357Y75881*
X124372Y75912*
X124385Y75944*
X124396Y75978*
X124405Y76012*
X124411Y76046*
X124414Y76081*
X124415Y76115*
X100444Y95888D02*
D01*
X100443Y95923*
X100440Y95958*
X100434Y95992*
X100425Y96026*
X100414Y96060*
X100401Y96092*
X100386Y96123*
X100369Y96153*
X100349Y96182*
X100328Y96210*
X100304Y96236*
X100279Y96260*
X100252Y96282*
X100224Y96303*
X100194Y96322*
X100164Y96338*
X100132Y96352*
X100099Y96364*
X100065Y96374*
X100031Y96381*
X99997Y96386*
X99962Y96388*
X99927*
X99892Y96386*
X99858Y96381*
X99824Y96374*
X99790Y96364*
X99757Y96352*
X99725Y96338*
X99694Y96322*
X99665Y96303*
X99637Y96282*
X99610Y96260*
X99585Y96236*
X99561Y96210*
X99540Y96182*
X99520Y96153*
X99503Y96123*
X99488Y96092*
X99475Y96060*
X99464Y96026*
X99455Y95992*
X99449Y95958*
X99446Y95923*
X99444Y95888*
X99446Y95854*
X99449Y95819*
X99455Y95785*
X99464Y95751*
X99475Y95717*
X99488Y95685*
X99503Y95654*
X99520Y95624*
X99540Y95595*
X99561Y95567*
X99585Y95541*
X99610Y95517*
X99637Y95494*
X99665Y95474*
X99694Y95455*
X99725Y95439*
X99757Y95425*
X99790Y95413*
X99824Y95403*
X99858Y95396*
X99892Y95391*
X99927Y95389*
X99962*
X99997Y95391*
X100031Y95396*
X100065Y95403*
X100099Y95413*
X100132Y95425*
X100164Y95439*
X100194Y95455*
X100224Y95474*
X100252Y95494*
X100279Y95517*
X100304Y95541*
X100328Y95567*
X100349Y95595*
X100369Y95624*
X100386Y95654*
X100401Y95685*
X100414Y95717*
X100425Y95751*
X100434Y95785*
X100440Y95819*
X100443Y95854*
X100444Y95888*
X90564Y99981D02*
Y100931D01*
X92314Y99981D02*
Y100931D01*
X90564D02*
X92314D01*
X90564Y99981D02*
X92314D01*
X103518Y88805D02*
Y89755D01*
X105268Y88805D02*
Y89755D01*
X103518Y88805D02*
X105268D01*
X103518Y89755D02*
X105268D01*
X56674Y100851D02*
X57624D01*
X56674Y102601D02*
X57624D01*
X56674Y100851D02*
Y102601D01*
X57624Y100851D02*
Y102601D01*
X63786Y80023D02*
X64736D01*
X63786Y81773D02*
X64736D01*
Y80023D02*
Y81773D01*
X63786Y80023D02*
Y81773D01*
X55531Y80023D02*
X56481D01*
X55531Y81773D02*
X56481D01*
Y80023D02*
Y81773D01*
X55531Y80023D02*
Y81773D01*
X65644Y98203D02*
Y99153D01*
X63894Y98203D02*
Y99153D01*
Y98203D02*
X65644D01*
X63894Y99153D02*
X65644D01*
X71279Y88151D02*
X72229D01*
X71279Y89901D02*
X72229D01*
X71279Y88151D02*
Y89901D01*
X72229Y88151D02*
Y89901D01*
X67958Y83090D02*
Y84040D01*
X69708Y83090D02*
Y84040D01*
X67958D02*
X69708D01*
X67958Y83090D02*
X69708D01*
X66199Y81773D02*
X67149D01*
X66199Y80023D02*
X67149D01*
Y81773*
X66199Y80023D02*
Y81773D01*
X69708Y84487D02*
Y85437D01*
X67958Y84487D02*
Y85437D01*
Y84487D02*
X69708D01*
X67958Y85437D02*
X69708D01*
Y85884D02*
Y86834D01*
X67958Y85884D02*
Y86834D01*
Y85884D02*
X69708D01*
X67958Y86834D02*
X69708D01*
X65564Y85837D02*
X66514D01*
X65564Y84087D02*
X66514D01*
X65564D02*
Y85837D01*
X66514Y84087D02*
Y85837D01*
X55312Y89088D02*
X57462D01*
X55312Y90488D02*
X57462D01*
X55312Y89088D02*
Y90488D01*
X57462Y89088D02*
Y90488D01*
X53499Y87488D02*
X54449D01*
X53499Y85738D02*
X54449D01*
Y87488*
X53499Y85738D02*
Y87488D01*
X64929Y80023D02*
X65879D01*
X64929Y81773D02*
X65879D01*
X64929Y80023D02*
Y81773D01*
X65879Y80023D02*
Y81773D01*
X63659Y80023D02*
X64609D01*
X63659Y81773D02*
X64609D01*
X63659Y80023D02*
Y81773D01*
X64609Y80023D02*
Y81773D01*
X62389Y80023D02*
X63339D01*
X62389Y81773D02*
X63339D01*
X62389Y80023D02*
Y81773D01*
X63339Y80023D02*
Y81773D01*
X61119Y80023D02*
X62069D01*
X61119Y81773D02*
X62069D01*
X61119Y80023D02*
Y81773D01*
X62069Y80023D02*
Y81773D01*
X57309Y80023D02*
X58259D01*
X57309Y81773D02*
X58259D01*
X57309Y80023D02*
Y81773D01*
X58259Y80023D02*
Y81773D01*
X58579Y80023D02*
X59529D01*
X58579Y81773D02*
X59529D01*
X58579Y80023D02*
Y81773D01*
X59529Y80023D02*
Y81773D01*
X53499D02*
X54449D01*
X53499Y80023D02*
X54449D01*
Y81773*
X53499Y80023D02*
Y81773D01*
X54769D02*
X55719D01*
X54769Y80023D02*
X55719D01*
Y81773*
X54769Y80023D02*
Y81773D01*
X62389Y64656D02*
X63339D01*
X62389Y66406D02*
X63339D01*
Y64656D02*
Y66406D01*
X62389Y64656D02*
Y66406D01*
X58579Y64656D02*
X59529D01*
X58579Y66406D02*
X59529D01*
Y64656D02*
Y66406D01*
X58579Y64656D02*
Y66406D01*
X120936Y79515D02*
X121886D01*
X120936Y81265D02*
X121886D01*
X120936Y79515D02*
Y81265D01*
X121886Y79515D02*
Y81265D01*
X133890Y75197D02*
X134840D01*
X133890Y76947D02*
X134840D01*
X133890Y75197D02*
Y76947D01*
X134840Y75197D02*
Y76947D01*
X128890Y71533D02*
Y72483D01*
X127140Y71533D02*
Y72483D01*
Y71533D02*
X128890D01*
X127140Y72483D02*
X128890D01*
X120936Y76594D02*
X121886D01*
X120936Y78344D02*
X121886D01*
X120936Y76594D02*
Y78344D01*
X121886Y76594D02*
Y78344D01*
X125715Y71533D02*
Y72483D01*
X123965Y71533D02*
Y72483D01*
Y71533D02*
X125715D01*
X123965Y72483D02*
X125715D01*
X133015Y75215D02*
Y79215D01*
X123015Y75215D02*
Y79215D01*
X133015*
X123015Y75215D02*
X133015D01*
X78290Y77658D02*
Y79058D01*
X76140Y77658D02*
Y79058D01*
Y77658D02*
X78290D01*
X76140Y79058D02*
X78290D01*
X82436Y74581D02*
Y75531D01*
X84186Y74581D02*
Y75531D01*
X82436D02*
X84186D01*
X82436Y74581D02*
X84186D01*
X85329Y75343D02*
Y76293D01*
X83579Y75343D02*
Y76293D01*
X85329*
X83579Y75343D02*
X85329D01*
Y73819D02*
Y74769D01*
X83579Y73819D02*
Y74769D01*
X85329*
X83579Y73819D02*
X85329D01*
X99044Y82788D02*
Y96788D01*
X113044Y82788D02*
Y96788D01*
X99044D02*
X113044D01*
X99044Y82788D02*
X113044D01*
X61246Y69863D02*
X62196D01*
X61246Y71613D02*
X62196D01*
Y69863D02*
Y71613D01*
X61246Y69863D02*
Y71613D01*
X59849Y69863D02*
X60799D01*
X59849Y71613D02*
X60799D01*
Y69863D02*
Y71613D01*
X59849Y69863D02*
Y71613D01*
X147479Y65263D02*
X148429D01*
X147479Y63513D02*
X148429D01*
X147479D02*
Y65263D01*
X148429Y63513D02*
Y65263D01*
X144939D02*
X145889D01*
X144939Y63513D02*
X145889D01*
X144939D02*
Y65263D01*
X145889Y63513D02*
Y65263D01*
X155734D02*
X156684D01*
X155734Y63513D02*
X156684D01*
X155734D02*
Y65263D01*
X156684Y63513D02*
Y65263D01*
X80912Y78137D02*
Y79087D01*
X82662Y78137D02*
Y79087D01*
X80912Y78137D02*
X82662D01*
X80912Y79087D02*
X82662D01*
X87234Y78137D02*
Y79087D01*
X85484Y78137D02*
Y79087D01*
X87234*
X85484Y78137D02*
X87234D01*
X143923Y89520D02*
X144873D01*
X143923Y87770D02*
X144873D01*
Y89520*
X143923Y87770D02*
Y89520D01*
Y92314D02*
X144873D01*
X143923Y90564D02*
X144873D01*
Y92314*
X143923Y90564D02*
Y92314D01*
X91726Y95898D02*
X92676D01*
X91726Y97648D02*
X92676D01*
X91726Y95898D02*
Y97648D01*
X92676Y95898D02*
Y97648D01*
X90564Y106077D02*
Y107027D01*
X92314Y106077D02*
Y107027D01*
X90564D02*
X92314D01*
X90564Y106077D02*
X92314D01*
X90564Y104553D02*
Y105503D01*
X92314Y104553D02*
Y105503D01*
X90564D02*
X92314D01*
X90564Y104553D02*
X92314D01*
X90564Y101378D02*
Y102328D01*
X92314Y101378D02*
Y102328D01*
X90564D02*
X92314D01*
X90564Y101378D02*
X92314D01*
X97949Y101994D02*
X98899D01*
X97949Y103744D02*
X98899D01*
X97949Y101994D02*
Y103744D01*
X98899Y101994D02*
Y103744D01*
X108062Y71152D02*
Y72102D01*
X106312Y71152D02*
Y72102D01*
Y71152D02*
X108062D01*
X106312Y72102D02*
X108062D01*
X89440Y97648D02*
X90390D01*
X89440Y95898D02*
X90390D01*
Y97648*
X89440Y95898D02*
Y97648D01*
X96679Y65263D02*
X97629D01*
X96679Y63513D02*
X97629D01*
X96679D02*
Y65263D01*
X97629Y63513D02*
Y65263D01*
X94139D02*
X95089D01*
X94139Y63513D02*
X95089D01*
X94139D02*
Y65263D01*
X95089Y63513D02*
Y65263D01*
X71279D02*
X72229D01*
X71279Y63513D02*
X72229D01*
X71279D02*
Y65263D01*
X72229Y63513D02*
Y65263D01*
X99708Y106077D02*
Y107027D01*
X101458Y106077D02*
Y107027D01*
X99708D02*
X101458D01*
X99708Y106077D02*
X101458D01*
X115775Y76994D02*
Y77944D01*
X117525Y76994D02*
Y77944D01*
X115775D02*
X117525D01*
X115775Y76994D02*
X117525D01*
X99708Y104680D02*
Y105630D01*
X101458Y104680D02*
Y105630D01*
X99708D02*
X101458D01*
X99708Y104680D02*
X101458D01*
X94981Y77629D02*
Y78579D01*
X93231Y77629D02*
Y78579D01*
X94981*
X93231Y77629D02*
X94981D01*
X89675D02*
Y78579D01*
X91425Y77629D02*
Y78579D01*
X89675Y77629D02*
X91425D01*
X89675Y78579D02*
X91425D01*
X117525Y78391D02*
Y79341D01*
X115775Y78391D02*
Y79341D01*
Y78391D02*
X117525D01*
X115775Y79341D02*
X117525D01*
X87389Y73819D02*
Y74769D01*
X89139Y73819D02*
Y74769D01*
X87389Y73819D02*
X89139D01*
X87389Y74769D02*
X89139D01*
X87389Y75343D02*
Y76293D01*
X89139Y75343D02*
Y76293D01*
X87389Y75343D02*
X89139D01*
X87389Y76293D02*
X89139D01*
X158066Y83747D02*
X164766D01*
X158066Y87447D02*
X164766D01*
X158066Y83747D02*
Y87447D01*
X164766Y83747D02*
Y87447D01*
X166275Y83424D02*
X167225D01*
X166275Y81674D02*
X167225D01*
Y83424*
X166275Y81674D02*
Y83424D01*
X162065Y90964D02*
Y91914D01*
X163815Y90964D02*
Y91914D01*
X162065D02*
X163815D01*
X162065Y90964D02*
X163815D01*
M02*