%FSLAX43Y43*%
%MOMM*%
%SFA1B1*%

%IPPOS*%
%ADD10R,0.799998X0.899998*%
%ADD11R,0.899998X0.799998*%
%ADD77R,1.599997X0.399999*%
%ADD78R,2.793994X2.539995*%
%ADD79R,0.999998X1.799996*%
%ADD80R,0.999998X1.299997*%
%LNlp_led_cube_8x8x8-1*%
%LPD*%
G54D10*
X72962Y57784D03*
X71562D03*
X72962Y59308D03*
X71562D03*
X67752D03*
X69152D03*
X67752Y57784D03*
X69152D03*
X51626Y93852D03*
X50226D03*
X81471D03*
X80071D03*
X139761D03*
X141161D03*
X109916D03*
X111316D03*
X75248Y61594D03*
X73848D03*
X77404D03*
X78804D03*
X66485Y62102D03*
X65085D03*
X69657D03*
X71057D03*
X89091Y72770D03*
X87691D03*
G54D11*
X50037Y67752D03*
Y69152D03*
X45719Y54928D03*
Y53528D03*
X48259Y65088D03*
Y63688D03*
X44322Y54928D03*
Y53528D03*
X140207Y47178D03*
Y48578D03*
X129412Y47178D03*
Y48578D03*
X131952Y47178D03*
Y48578D03*
X78612Y47178D03*
Y48578D03*
X81152Y47178D03*
Y48578D03*
X55752Y47178D03*
Y48578D03*
X84327Y58354D03*
Y59754D03*
X43052Y49721D03*
Y48321D03*
X46862Y49721D03*
Y48321D03*
X40004Y65088D03*
Y63688D03*
G54D77*
X47497Y95503D03*
Y96153D03*
Y96803D03*
Y97453D03*
Y98753D03*
Y99403D03*
Y100053D03*
Y98103D03*
X54097Y97453D03*
Y96803D03*
Y96153D03*
Y95503D03*
Y100053D03*
Y99403D03*
Y98753D03*
Y98103D03*
X47497Y101353D03*
Y102003D03*
Y102653D03*
Y103303D03*
Y103953D03*
X54097D03*
Y103303D03*
Y102653D03*
Y102003D03*
Y101353D03*
X47497Y100703D03*
X54097D03*
X137032Y95503D03*
Y96153D03*
Y96803D03*
Y97453D03*
Y98753D03*
Y99403D03*
Y100053D03*
Y98103D03*
X143632Y97453D03*
Y96803D03*
Y96153D03*
Y95503D03*
Y100053D03*
Y99403D03*
Y98753D03*
Y98103D03*
X137032Y101353D03*
Y102003D03*
Y102653D03*
Y103303D03*
Y103953D03*
X143632D03*
Y103303D03*
Y102653D03*
Y102003D03*
Y101353D03*
X137032Y100703D03*
X143632D03*
X107187Y95503D03*
Y96153D03*
Y96803D03*
Y97453D03*
Y98753D03*
Y99403D03*
Y100053D03*
Y98103D03*
X113787Y97453D03*
Y96803D03*
Y96153D03*
Y95503D03*
Y100053D03*
Y99403D03*
Y98753D03*
Y98103D03*
X107187Y101353D03*
Y102003D03*
Y102653D03*
Y103303D03*
Y103953D03*
X113787D03*
Y103303D03*
Y102653D03*
Y102003D03*
Y101353D03*
X107187Y100703D03*
X113787D03*
X77342Y95503D03*
Y96153D03*
Y96803D03*
Y97453D03*
Y98753D03*
Y99403D03*
Y100053D03*
Y98103D03*
X83942Y97453D03*
Y96803D03*
Y96153D03*
Y95503D03*
Y100053D03*
Y99403D03*
Y98753D03*
Y98103D03*
X77342Y101353D03*
Y102003D03*
Y102653D03*
Y103303D03*
Y103953D03*
X83942D03*
Y103303D03*
Y102653D03*
Y102003D03*
Y101353D03*
X77342Y100703D03*
X83942D03*
G54D78*
X74548Y64134D03*
X78104D03*
G54D79*
X69671Y64408D03*
X66471D03*
G54D80*
X41185Y73278D03*
X39585D03*
M02*