%FSLAX43Y43*%
%MOMM*%
%SFA1B1*%

%IPPOS*%
%ADD89C,0.100000*%
%LNlp_led_cube_8x8x8-1*%
%LPD*%
G54D89*
X84442Y79378D02*
D01*
X84441Y79413*
X84438Y79448*
X84432Y79482*
X84423Y79516*
X84412Y79550*
X84399Y79582*
X84384Y79613*
X84367Y79643*
X84347Y79672*
X84326Y79700*
X84302Y79726*
X84277Y79750*
X84250Y79772*
X84222Y79793*
X84192Y79812*
X84162Y79828*
X84130Y79842*
X84097Y79854*
X84063Y79864*
X84029Y79871*
X83995Y79876*
X83960Y79878*
X83925*
X83890Y79876*
X83856Y79871*
X83822Y79864*
X83788Y79854*
X83755Y79842*
X83723Y79828*
X83692Y79812*
X83663Y79793*
X83635Y79772*
X83608Y79750*
X83583Y79726*
X83559Y79700*
X83538Y79672*
X83518Y79643*
X83501Y79613*
X83486Y79582*
X83473Y79550*
X83462Y79516*
X83453Y79482*
X83447Y79448*
X83444Y79413*
X83442Y79378*
X83444Y79344*
X83447Y79309*
X83453Y79275*
X83462Y79241*
X83473Y79207*
X83486Y79175*
X83501Y79144*
X83518Y79114*
X83538Y79085*
X83559Y79057*
X83583Y79031*
X83608Y79007*
X83635Y78984*
X83663Y78964*
X83692Y78945*
X83723Y78929*
X83755Y78915*
X83788Y78903*
X83822Y78893*
X83856Y78886*
X83890Y78881*
X83925Y78879*
X83960*
X83995Y78881*
X84029Y78886*
X84063Y78893*
X84097Y78903*
X84130Y78915*
X84162Y78929*
X84192Y78945*
X84222Y78964*
X84250Y78984*
X84277Y79007*
X84302Y79031*
X84326Y79057*
X84347Y79085*
X84367Y79114*
X84384Y79144*
X84399Y79175*
X84412Y79207*
X84423Y79241*
X84432Y79275*
X84438Y79309*
X84441Y79344*
X84442Y79378*
X108413Y59605D02*
D01*
X108412Y59640*
X108409Y59675*
X108403Y59709*
X108394Y59743*
X108383Y59776*
X108370Y59809*
X108355Y59840*
X108338Y59870*
X108318Y59899*
X108297Y59927*
X108273Y59953*
X108248Y59977*
X108221Y59999*
X108193Y60020*
X108163Y60038*
X108133Y60055*
X108101Y60069*
X108068Y60081*
X108034Y60091*
X108000Y60098*
X107966Y60103*
X107931Y60105*
X107896*
X107861Y60103*
X107827Y60098*
X107793Y60091*
X107759Y60081*
X107726Y60069*
X107694Y60055*
X107663Y60038*
X107634Y60020*
X107606Y59999*
X107579Y59977*
X107554Y59953*
X107530Y59927*
X107509Y59899*
X107489Y59870*
X107472Y59840*
X107457Y59809*
X107444Y59776*
X107433Y59743*
X107424Y59709*
X107418Y59675*
X107415Y59640*
X107413Y59605*
X107415Y59571*
X107418Y59536*
X107424Y59502*
X107433Y59468*
X107444Y59434*
X107457Y59402*
X107472Y59371*
X107489Y59341*
X107509Y59312*
X107530Y59284*
X107554Y59258*
X107579Y59234*
X107606Y59211*
X107634Y59191*
X107663Y59172*
X107694Y59156*
X107726Y59142*
X107759Y59130*
X107793Y59120*
X107827Y59113*
X107861Y59108*
X107896Y59106*
X107931*
X107966Y59108*
X108000Y59113*
X108034Y59120*
X108068Y59130*
X108101Y59142*
X108133Y59156*
X108163Y59172*
X108193Y59191*
X108221Y59211*
X108248Y59234*
X108273Y59258*
X108297Y59284*
X108318Y59312*
X108338Y59341*
X108355Y59371*
X108370Y59402*
X108383Y59434*
X108394Y59468*
X108403Y59502*
X108409Y59536*
X108412Y59571*
X108413Y59605*
X50512Y67577D02*
Y69327D01*
X49562Y67577D02*
Y69327D01*
Y67577D02*
X50512D01*
X49562Y69327D02*
X50512D01*
X51956Y66580D02*
X53706D01*
X51956Y67530D02*
X53706D01*
Y66580D02*
Y67530D01*
X51956Y66580D02*
Y67530D01*
Y68927D02*
X53706D01*
X51956Y67977D02*
X53706D01*
X51956D02*
Y68927D01*
X53706Y67977D02*
Y68927D01*
X51956Y70324D02*
X53706D01*
X51956Y69374D02*
X53706D01*
X51956D02*
Y70324D01*
X53706Y69374D02*
Y70324D01*
X45244Y53353D02*
Y55103D01*
X46194Y53353D02*
Y55103D01*
X45244D02*
X46194D01*
X45244Y53353D02*
X46194D01*
X37497Y69228D02*
Y70978D01*
X38447Y69228D02*
Y70978D01*
X37497Y69228D02*
X38447D01*
X37497Y70978D02*
X38447D01*
X43527Y63513D02*
Y65263D01*
X42577Y63513D02*
Y65263D01*
X43527*
X42577Y63513D02*
X43527D01*
X42257D02*
Y65263D01*
X41307Y63513D02*
Y65263D01*
X42257*
X41307Y63513D02*
X42257D01*
X38767D02*
Y65263D01*
X39717Y63513D02*
Y65263D01*
X38767Y63513D02*
X39717D01*
X38767Y65263D02*
X39717D01*
X37497Y63513D02*
Y65263D01*
X38447Y63513D02*
Y65263D01*
X37497Y63513D02*
X38447D01*
X37497Y65263D02*
X38447D01*
X47784Y63513D02*
Y65263D01*
X48734Y63513D02*
Y65263D01*
X47784D02*
X48734D01*
X47784Y63513D02*
X48734D01*
X47337D02*
Y65263D01*
X46387Y63513D02*
Y65263D01*
X47337*
X46387Y63513D02*
X47337D01*
X46067D02*
Y65263D01*
X45117Y63513D02*
Y65263D01*
X46067*
X45117Y63513D02*
X46067D01*
X43847Y53353D02*
Y55103D01*
X44797Y53353D02*
Y55103D01*
X43847D02*
X44797D01*
X43847Y53353D02*
X44797D01*
X48607Y63513D02*
Y65263D01*
X47657Y63513D02*
Y65263D01*
X48607*
X47657Y63513D02*
X48607D01*
X41622Y84341D02*
Y86091D01*
X40672Y84341D02*
Y86091D01*
X41622*
X40672Y84341D02*
X41622D01*
X114520Y73165D02*
Y74915D01*
X113570Y73165D02*
Y74915D01*
X114520*
X113570Y73165D02*
X114520D01*
Y75959D02*
Y77709D01*
X113570Y75959D02*
Y77709D01*
X114520*
X113570Y75959D02*
X114520D01*
X71387Y58259D02*
X73137D01*
X71387Y57309D02*
X73137D01*
Y58259*
X71387Y57309D02*
Y58259D01*
Y59783D02*
X73137D01*
X71387Y58833D02*
X73137D01*
Y59783*
X71387Y58833D02*
Y59783D01*
X66434Y58071D02*
X68184D01*
X66434Y59021D02*
X68184D01*
Y58071D02*
Y59021D01*
X66434Y58071D02*
Y59021D01*
X67577Y58833D02*
X69327D01*
X67577Y59783D02*
X69327D01*
X67577Y58833D02*
Y59783D01*
X69327Y58833D02*
Y59783D01*
X67577Y57309D02*
X69327D01*
X67577Y58259D02*
X69327D01*
X67577Y57309D02*
Y58259D01*
X69327Y57309D02*
Y58259D01*
X50051Y94327D02*
X51801D01*
X50051Y93377D02*
X51801D01*
Y94327*
X50051Y93377D02*
Y94327D01*
X79896D02*
X81646D01*
X79896Y93377D02*
X81646D01*
Y94327*
X79896Y93377D02*
Y94327D01*
X139586Y93377D02*
X141336D01*
X139586Y94327D02*
X141336D01*
X139586Y93377D02*
Y94327D01*
X141336Y93377D02*
Y94327D01*
X109741Y93377D02*
X111491D01*
X109741Y94327D02*
X111491D01*
X109741Y93377D02*
Y94327D01*
X111491Y93377D02*
Y94327D01*
X83042Y66278D02*
X97042D01*
X83042Y80278D02*
X97042D01*
Y66278D02*
Y80278D01*
X83042Y66278D02*
Y80278D01*
X60138Y62548D02*
X62288D01*
X60138Y61148D02*
X62288D01*
X60138D02*
Y62548D01*
X62288Y61148D02*
Y62548D01*
X107013Y58705D02*
X117013D01*
X107013Y62705D02*
X117013D01*
X107013Y58705D02*
Y62705D01*
X117013Y58705D02*
Y62705D01*
X148730Y62069D02*
X150480D01*
X148730Y61119D02*
X150480D01*
X148730D02*
Y62069D01*
X150480Y61119D02*
Y62069D01*
X154652Y61735D02*
Y63485D01*
X153702Y61735D02*
Y63485D01*
X154652*
X153702Y61735D02*
X154652D01*
X150762Y68993D02*
X152512D01*
X150762Y69943D02*
X152512D01*
Y68993D02*
Y69943D01*
X150762Y68993D02*
Y69943D01*
X154652Y64910D02*
Y66660D01*
X153702Y64910D02*
Y66660D01*
X154652*
X153702Y64910D02*
X154652D01*
Y67958D02*
Y69708D01*
X153702Y67958D02*
Y69708D01*
X154652*
X153702Y67958D02*
X154652D01*
X140682Y47003D02*
Y48753D01*
X139732Y47003D02*
Y48753D01*
Y47003D02*
X140682D01*
X139732Y48753D02*
X140682D01*
X146571Y71213D02*
X148321D01*
X146571Y70263D02*
X148321D01*
X146571D02*
Y71213D01*
X148321Y70263D02*
Y71213D01*
X137427Y51528D02*
X139177D01*
X137427Y50578D02*
X139177D01*
X137427D02*
Y51528D01*
X139177Y50578D02*
Y51528D01*
X139967Y62323D02*
X141717D01*
X139967Y61373D02*
X141717D01*
X139967D02*
Y62323D01*
X141717Y61373D02*
Y62323D01*
X121679Y71025D02*
X123429D01*
X121679Y71975D02*
X123429D01*
Y71025D02*
Y71975D01*
X121679Y71025D02*
Y71975D01*
X107963Y55973D02*
X109713D01*
X107963Y55023D02*
X109713D01*
X107963D02*
Y55973D01*
X109713Y55023D02*
Y55973D01*
X111138D02*
X112888D01*
X111138Y55023D02*
X112888D01*
X111138D02*
Y55973D01*
X112888Y55023D02*
Y55973D01*
X105884Y60084D02*
Y61834D01*
X104934Y60084D02*
Y61834D01*
X105884*
X104934Y60084D02*
X105884D01*
X117888D02*
Y61834D01*
X118838Y60084D02*
Y61834D01*
X117888Y60084D02*
X118838D01*
X117888Y61834D02*
X118838D01*
X129887Y47003D02*
Y48753D01*
X128937Y47003D02*
Y48753D01*
Y47003D02*
X129887D01*
X128937Y48753D02*
X129887D01*
X132427Y47003D02*
Y48753D01*
X131477Y47003D02*
Y48753D01*
Y47003D02*
X132427D01*
X131477Y48753D02*
X132427D01*
X105884Y63005D02*
Y64755D01*
X104934Y63005D02*
Y64755D01*
X105884*
X104934Y63005D02*
X105884D01*
X79087Y47003D02*
Y48753D01*
X78137Y47003D02*
Y48753D01*
Y47003D02*
X79087D01*
X78137Y48753D02*
X79087D01*
X81627Y47003D02*
Y48753D01*
X80677Y47003D02*
Y48753D01*
Y47003D02*
X81627D01*
X80677Y48753D02*
X81627D01*
X56227Y47003D02*
Y48753D01*
X55277Y47003D02*
Y48753D01*
Y47003D02*
X56227D01*
X55277Y48753D02*
X56227D01*
X84802Y58179D02*
Y59929D01*
X83852Y58179D02*
Y59929D01*
Y58179D02*
X84802D01*
X83852Y59929D02*
X84802D01*
X90183Y55592D02*
X91933D01*
X90183Y54642D02*
X91933D01*
X90183D02*
Y55592D01*
X91933Y54642D02*
Y55592D01*
X73673Y62069D02*
X75423D01*
X73673Y61119D02*
X75423D01*
Y62069*
X73673Y61119D02*
Y62069D01*
X77229Y61119D02*
X78979D01*
X77229Y62069D02*
X78979D01*
X77229Y61119D02*
Y62069D01*
X78979Y61119D02*
Y62069D01*
X64910Y62577D02*
X66660D01*
X64910Y61627D02*
X66660D01*
Y62577*
X64910Y61627D02*
Y62577D01*
X69482Y61627D02*
X71232D01*
X69482Y62577D02*
X71232D01*
X69482Y61627D02*
Y62577D01*
X71232Y61627D02*
Y62577D01*
X42577Y48146D02*
Y49896D01*
X43527Y48146D02*
Y49896D01*
X42577D02*
X43527D01*
X42577Y48146D02*
X43527D01*
X46387D02*
Y49896D01*
X47337Y48146D02*
Y49896D01*
X46387D02*
X47337D01*
X46387Y48146D02*
X47337D01*
X103852Y66053D02*
Y67803D01*
X102902Y66053D02*
Y67803D01*
X103852*
X102902Y66053D02*
X103852D01*
X84548Y85738D02*
Y87488D01*
X83598Y85738D02*
Y87488D01*
X84548*
X83598Y85738D02*
X84548D01*
X76674Y79388D02*
Y81138D01*
X75724Y79388D02*
Y81138D01*
X76674*
X75724Y79388D02*
X76674D01*
X74562Y89567D02*
X76312D01*
X74562Y90517D02*
X76312D01*
Y89567D02*
Y90517D01*
X74562Y89567D02*
Y90517D01*
Y88043D02*
X76312D01*
X74562Y88993D02*
X76312D01*
Y88043D02*
Y88993D01*
X74562Y88043D02*
Y88993D01*
X89440Y87516D02*
Y89266D01*
X90390Y87516D02*
Y89266D01*
X89440Y87516D02*
X90390D01*
X89440Y89266D02*
X90390D01*
X90964Y87516D02*
Y89266D01*
X91914Y87516D02*
Y89266D01*
X90964Y87516D02*
X91914D01*
X90964Y89266D02*
X91914D01*
X74562Y83471D02*
X76312D01*
X74562Y84421D02*
X76312D01*
Y83471D02*
Y84421D01*
X74562Y83471D02*
Y84421D01*
Y84868D02*
X76312D01*
X74562Y85818D02*
X76312D01*
Y84868D02*
Y85818D01*
X74562Y84868D02*
Y85818D01*
X73438Y79388D02*
Y81138D01*
X74388Y79388D02*
Y81138D01*
X73438Y79388D02*
X74388D01*
X73438Y81138D02*
X74388D01*
X87516Y73245D02*
X89266D01*
X87516Y72295D02*
X89266D01*
Y73245*
X87516Y72295D02*
Y73245D01*
X50197Y63513D02*
Y65263D01*
X51147Y63513D02*
Y65263D01*
X50197Y63513D02*
X51147D01*
X50197Y65263D02*
X51147D01*
X49877Y63513D02*
Y65263D01*
X48927Y63513D02*
Y65263D01*
X49877*
X48927Y63513D02*
X49877D01*
X47892Y82643D02*
X49642D01*
X47892Y81693D02*
X49642D01*
X47892D02*
Y82643D01*
X49642Y81693D02*
Y82643D01*
X56227Y71641D02*
Y73391D01*
X55277Y71641D02*
Y73391D01*
X56227*
X55277Y71641D02*
X56227D01*
X39529Y63513D02*
Y65263D01*
X40479Y63513D02*
Y65263D01*
X39529D02*
X40479D01*
X39529Y63513D02*
X40479D01*
X41460Y72578D02*
Y73978D01*
X39310Y72578D02*
Y73978D01*
X41460*
X39310Y72578D02*
X41460D01*
X53988Y96679D02*
X55738D01*
X53988Y97629D02*
X55738D01*
Y96679D02*
Y97629D01*
X53988Y96679D02*
Y97629D01*
Y95282D02*
X55738D01*
X53988Y96232D02*
X55738D01*
Y95282D02*
Y96232D01*
X53988Y95282D02*
Y96232D01*
X142272Y86119D02*
Y87869D01*
X143222Y86119D02*
Y87869D01*
X142272Y86119D02*
X143222D01*
X142272Y87869D02*
X143222D01*
X147098Y86119D02*
Y87869D01*
X148048Y86119D02*
Y87869D01*
X147098Y86119D02*
X148048D01*
X147098Y87869D02*
X148048D01*
X142272Y88786D02*
Y90536D01*
X143222Y88786D02*
Y90536D01*
X142272Y88786D02*
X143222D01*
X142272Y90536D02*
X143222D01*
X147098Y88786D02*
Y90536D01*
X148048Y88786D02*
Y90536D01*
X147098Y88786D02*
X148048D01*
X147098Y90536D02*
X148048D01*
X118650Y76594D02*
Y78344D01*
X119600Y76594D02*
Y78344D01*
X118650Y76594D02*
X119600D01*
X118650Y78344D02*
X119600D01*
X118650Y79261D02*
Y81011D01*
X119600Y79261D02*
Y81011D01*
X118650Y79261D02*
X119600D01*
X118650Y81011D02*
X119600D01*
X123476Y79261D02*
Y81011D01*
X124426Y79261D02*
Y81011D01*
X123476Y79261D02*
X124426D01*
X123476Y81011D02*
X124426D01*
X123476Y76594D02*
Y78344D01*
X124426Y76594D02*
Y78344D01*
X123476Y76594D02*
X124426D01*
X123476Y78344D02*
X124426D01*
X134398Y86144D02*
Y87894D01*
X135348Y86144D02*
Y87894D01*
X134398Y86144D02*
X135348D01*
X134398Y87894D02*
X135348D01*
X139224Y86144D02*
Y87894D01*
X140174Y86144D02*
Y87894D01*
X139224Y86144D02*
X140174D01*
X139224Y87894D02*
X140174D01*
X134398Y88811D02*
Y90561D01*
X135348Y88811D02*
Y90561D01*
X134398Y88811D02*
X135348D01*
X134398Y90561D02*
X135348D01*
X139224Y88811D02*
Y90561D01*
X140174Y88811D02*
Y90561D01*
X139224Y88811D02*
X140174D01*
X139224Y90561D02*
X140174D01*
X126524Y76594D02*
Y78344D01*
X127474Y76594D02*
Y78344D01*
X126524Y76594D02*
X127474D01*
X126524Y78344D02*
X127474D01*
X131477Y76594D02*
Y78344D01*
X132427Y76594D02*
Y78344D01*
X131477Y76594D02*
X132427D01*
X131477Y78344D02*
X132427D01*
X126524Y79261D02*
Y81011D01*
X127474Y79261D02*
Y81011D01*
X126524Y79261D02*
X127474D01*
X126524Y81011D02*
X127474D01*
X131477Y79261D02*
Y81011D01*
X132427Y79261D02*
Y81011D01*
X131477Y79261D02*
X132427D01*
X131477Y81011D02*
X132427D01*
X131350Y86119D02*
Y87869D01*
X132300Y86119D02*
Y87869D01*
X131350Y86119D02*
X132300D01*
X131350Y87869D02*
X132300D01*
X126524Y88786D02*
Y90536D01*
X127474Y88786D02*
Y90536D01*
X126524Y88786D02*
X127474D01*
X126524Y90536D02*
X127474D01*
X131350Y88786D02*
Y90536D01*
X132300Y88786D02*
Y90536D01*
X131350Y88786D02*
X132300D01*
X131350Y90536D02*
X132300D01*
X126524Y86119D02*
Y87869D01*
X127474Y86119D02*
Y87869D01*
X126524Y86119D02*
X127474D01*
X126524Y87869D02*
X127474D01*
X118650Y86119D02*
Y87869D01*
X119600Y86119D02*
Y87869D01*
X118650Y86119D02*
X119600D01*
X118650Y87869D02*
X119600D01*
X123476Y88786D02*
Y90536D01*
X124426Y88786D02*
Y90536D01*
X123476Y88786D02*
X124426D01*
X123476Y90536D02*
X124426D01*
X118650Y88786D02*
Y90536D01*
X119600Y88786D02*
Y90536D01*
X118650Y88786D02*
X119600D01*
X118650Y90536D02*
X119600D01*
X123476Y86119D02*
Y87869D01*
X124426Y86119D02*
Y87869D01*
X123476Y86119D02*
X124426D01*
X123476Y87869D02*
X124426D01*
X134525Y76594D02*
Y78344D01*
X135475Y76594D02*
Y78344D01*
X134525Y76594D02*
X135475D01*
X134525Y78344D02*
X135475D01*
X139351Y76594D02*
Y78344D01*
X140301Y76594D02*
Y78344D01*
X139351Y76594D02*
X140301D01*
X139351Y78344D02*
X140301D01*
X134525Y79261D02*
Y81011D01*
X135475Y79261D02*
Y81011D01*
X134525Y79261D02*
X135475D01*
X134525Y81011D02*
X135475D01*
X139351Y79261D02*
Y81011D01*
X140301Y79261D02*
Y81011D01*
X139351Y79261D02*
X140301D01*
X139351Y81011D02*
X140301D01*
X142399Y79261D02*
Y81011D01*
X143349Y79261D02*
Y81011D01*
X142399Y79261D02*
X143349D01*
X142399Y81011D02*
X143349D01*
X142399Y76594D02*
Y78344D01*
X143349Y76594D02*
Y78344D01*
X142399Y76594D02*
X143349D01*
X142399Y78344D02*
X143349D01*
X147225Y76594D02*
Y78344D01*
X148175Y76594D02*
Y78344D01*
X147225Y76594D02*
X148175D01*
X147225Y78344D02*
X148175D01*
X147225Y79261D02*
Y81011D01*
X148175Y79261D02*
Y81011D01*
X147225Y79261D02*
X148175D01*
X147225Y81011D02*
X148175D01*
X96933Y88278D02*
Y90028D01*
X97883Y88278D02*
Y90028D01*
X96933Y88278D02*
X97883D01*
X96933Y90028D02*
X97883D01*
X95663Y88278D02*
Y90028D01*
X96613Y88278D02*
Y90028D01*
X95663Y88278D02*
X96613D01*
X95663Y90028D02*
X96613D01*
X98203Y88278D02*
Y90028D01*
X99153Y88278D02*
Y90028D01*
X98203Y88278D02*
X99153D01*
X98203Y90028D02*
X99153D01*
X99473Y88278D02*
Y90028D01*
X100423Y88278D02*
Y90028D01*
X99473Y88278D02*
X100423D01*
X99473Y90028D02*
X100423D01*
X104553Y88278D02*
Y90028D01*
X105503Y88278D02*
Y90028D01*
X104553Y88278D02*
X105503D01*
X104553Y90028D02*
X105503D01*
X102013Y88278D02*
Y90028D01*
X102963Y88278D02*
Y90028D01*
X102013Y88278D02*
X102963D01*
X102013Y90028D02*
X102963D01*
X100743Y88278D02*
Y90028D01*
X101693Y88278D02*
Y90028D01*
X100743Y88278D02*
X101693D01*
X100743Y90028D02*
X101693D01*
X103283Y88278D02*
Y90028D01*
X104233Y88278D02*
Y90028D01*
X103283Y88278D02*
X104233D01*
X103283Y90028D02*
X104233D01*
M02*