%FSLAX43Y43*%
%MOMM*%
%SFA1B1*%

%IPPOS*%
%ADD10R,0.799998X0.899998*%
%ADD11R,0.899998X0.799998*%
%ADD12R,0.299999X1.199998*%
%ADD13R,1.199998X0.299999*%
%ADD14O,0.299999X1.799996*%
%ADD15O,1.799996X0.299999*%
%ADD16R,0.507999X1.499997*%
%ADD17R,2.199996X2.199996*%
%ADD18R,2.299995X2.299995*%
%ADD19R,1.199998X1.399997*%
%ADD20R,3.047994X3.682993*%
%ADD21R,2.539995X1.015998*%
%ADD22O,0.599999X2.199996*%
%ADD23R,2.031996X0.634999*%
%ADD24R,0.349999X0.799998*%
%ADD25R,2.299995X2.299995*%
%ADD26R,2.199996X0.449999*%
%ADD27R,2.399995X3.099994*%
%LNlp_led_cube_8x8x8-1*%
%LPD*%
G54D10*
X53531Y67055D03*
X52131D03*
Y68452D03*
X53531D03*
X52131Y69849D03*
X53531D03*
X68009Y58546D03*
X66609D03*
X148905Y61594D03*
X150305D03*
X152337Y69468D03*
X150937D03*
X146746Y70738D03*
X148146D03*
X137602Y51053D03*
X139002D03*
X140142Y61848D03*
X141542D03*
X123254Y71500D03*
X121854D03*
X108138Y55498D03*
X109538D03*
X111313D03*
X112713D03*
X90358Y55117D03*
X91758D03*
X76137Y90042D03*
X74737D03*
X76137Y88518D03*
X74737D03*
X76137Y83946D03*
X74737D03*
X76137Y85343D03*
X74737D03*
X48067Y82168D03*
X49467D03*
X55563Y97154D03*
X54163D03*
X55563Y95757D03*
X54163D03*
G54D11*
X37972Y69403D03*
Y70803D03*
X43052Y65088D03*
Y63688D03*
X41782Y65088D03*
Y63688D03*
X39242D03*
Y65088D03*
X37972Y63688D03*
Y65088D03*
X46862D03*
Y63688D03*
X45592Y65088D03*
Y63688D03*
X48132Y65088D03*
Y63688D03*
X41147Y85916D03*
Y84516D03*
X114045Y74740D03*
Y73340D03*
Y77534D03*
Y76134D03*
X154177Y63310D03*
Y61910D03*
Y66485D03*
Y65085D03*
Y69533D03*
Y68133D03*
X105409Y61659D03*
Y60259D03*
X118363D03*
Y61659D03*
X105409Y64580D03*
Y63180D03*
X103377Y67628D03*
Y66228D03*
X84073Y87313D03*
Y85913D03*
X76199Y80963D03*
Y79563D03*
X89915Y87691D03*
Y89091D03*
X91439Y87691D03*
Y89091D03*
X73913Y79563D03*
Y80963D03*
X50672Y63688D03*
Y65088D03*
X49402D03*
Y63688D03*
X55752Y73216D03*
Y71816D03*
X142747Y86294D03*
Y87694D03*
X147573Y86294D03*
Y87694D03*
X142747Y88961D03*
Y90361D03*
X147573Y88961D03*
Y90361D03*
X119125Y76769D03*
Y78169D03*
Y79436D03*
Y80836D03*
X123951Y79436D03*
Y80836D03*
Y76769D03*
Y78169D03*
X134873Y86319D03*
Y87719D03*
X139699Y86319D03*
Y87719D03*
X134873Y88986D03*
Y90386D03*
X139699Y88986D03*
Y90386D03*
X126999Y76769D03*
Y78169D03*
X131952Y76769D03*
Y78169D03*
X126999Y79436D03*
Y80836D03*
X131952Y79436D03*
Y80836D03*
X131825Y86294D03*
Y87694D03*
X126999Y88961D03*
Y90361D03*
X131825Y88961D03*
Y90361D03*
X126999Y86294D03*
Y87694D03*
X119125Y86294D03*
Y87694D03*
X123951Y88961D03*
Y90361D03*
X119125Y88961D03*
Y90361D03*
X123951Y86294D03*
Y87694D03*
X135000Y76769D03*
Y78169D03*
X139826Y76769D03*
Y78169D03*
X135000Y79436D03*
Y80836D03*
X139826Y79436D03*
Y80836D03*
X142874Y79436D03*
Y80836D03*
Y76769D03*
Y78169D03*
X147700Y76769D03*
Y78169D03*
Y79436D03*
Y80836D03*
X97408Y88453D03*
Y89853D03*
X96138Y88453D03*
Y89853D03*
X98678Y88453D03*
Y89853D03*
X99948Y88453D03*
Y89853D03*
X105028Y88453D03*
Y89853D03*
X102488Y88453D03*
Y89853D03*
X101218Y88453D03*
Y89853D03*
X103758Y88453D03*
Y89853D03*
G54D12*
X42207Y79610D03*
X42707D03*
X43207D03*
X43707D03*
X44207D03*
X44707D03*
X45207D03*
X45707D03*
X46207D03*
X46707D03*
X47207D03*
X47707D03*
Y71010D03*
X47207D03*
X46707D03*
X46207D03*
X45707D03*
X45207D03*
X44707D03*
X44207D03*
X43707D03*
X43207D03*
X42707D03*
X42207D03*
G54D13*
X49257Y78060D03*
Y77560D03*
Y77060D03*
Y76560D03*
Y76060D03*
Y75560D03*
Y75060D03*
Y74560D03*
Y74060D03*
Y73560D03*
Y73060D03*
Y72560D03*
X40657D03*
Y73060D03*
Y73560D03*
Y74060D03*
Y74560D03*
Y75060D03*
Y75560D03*
Y76060D03*
Y76560D03*
Y77060D03*
Y77560D03*
Y78060D03*
G54D14*
X84042Y80828D03*
X84542D03*
X85042D03*
X85542D03*
X86042D03*
X86542D03*
X87042D03*
X87542D03*
X88042D03*
X88542D03*
X89042D03*
X89542D03*
X90042D03*
X90542D03*
X91042D03*
X91542D03*
X92042D03*
X92542D03*
X93042D03*
X93542D03*
X94042D03*
X94542D03*
X95042D03*
X95542D03*
X96042D03*
Y65728D03*
X95542D03*
X95042D03*
X94542D03*
X94042D03*
X93542D03*
X93042D03*
X92542D03*
X92042D03*
X91542D03*
X91042D03*
X90542D03*
X90042D03*
X89542D03*
X89042D03*
X88542D03*
X88042D03*
X87542D03*
X87042D03*
X86542D03*
X86042D03*
X85542D03*
X85042D03*
X84542D03*
X84042D03*
G54D15*
X97592Y79278D03*
Y78778D03*
Y78278D03*
Y77778D03*
Y77278D03*
Y76778D03*
Y76278D03*
Y75778D03*
Y75278D03*
Y74778D03*
Y74278D03*
Y73778D03*
Y73278D03*
Y72778D03*
Y72278D03*
Y71778D03*
Y71278D03*
Y70778D03*
Y70278D03*
Y69778D03*
Y69278D03*
Y68778D03*
Y68278D03*
Y67778D03*
Y67278D03*
X82492D03*
Y67778D03*
Y68278D03*
Y68778D03*
Y69278D03*
Y69778D03*
Y70278D03*
Y70778D03*
Y71278D03*
Y71778D03*
Y72278D03*
Y72778D03*
Y73278D03*
Y73778D03*
Y74278D03*
Y74778D03*
Y75278D03*
Y75778D03*
Y76278D03*
Y76778D03*
Y77278D03*
Y77778D03*
Y78278D03*
Y78778D03*
Y79278D03*
G54D16*
X108260Y79087D03*
X109560D03*
X110810D03*
X112210D03*
X112160Y71737D03*
X110860D03*
X109560D03*
X108260D03*
G54D17*
X51013Y86272D03*
Y91272D03*
X46013Y86272D03*
Y91272D03*
G54D18*
X65567Y61848D03*
X70067D03*
X151601Y58673D03*
X147101D03*
G54D19*
X60313Y61848D03*
X62113D03*
G54D20*
X130110Y68198D03*
X140144D03*
G54D21*
X123951Y58673D03*
X129793D03*
X134746Y56768D03*
X140588D03*
G54D22*
X107568Y58305D03*
X108838D03*
X110108D03*
X111378D03*
X112648D03*
X113918D03*
X115188D03*
X116458D03*
X107568Y63105D03*
X108838D03*
X110108D03*
X111378D03*
X112648D03*
X113918D03*
X115188D03*
X116458D03*
G54D23*
X66039Y90042D03*
Y88772D03*
Y87502D03*
Y86232D03*
Y84962D03*
X70865D03*
Y86232D03*
Y87502D03*
Y88772D03*
Y90042D03*
G54D24*
X146100Y87045D03*
X145160Y89458D03*
X146100D03*
X145160Y87045D03*
X144220Y89458D03*
Y87045D03*
X122478Y77520D03*
X121538Y79933D03*
X122478D03*
X121538Y77520D03*
X120598Y79933D03*
Y77520D03*
X138226Y87070D03*
X137286Y89483D03*
X138226D03*
X137286Y87070D03*
X136346Y89483D03*
Y87070D03*
X130352Y77520D03*
X129412Y79933D03*
X130352D03*
X129412Y77520D03*
X128472Y79933D03*
Y77520D03*
X130352Y87045D03*
X129412Y89458D03*
X130352D03*
X129412Y87045D03*
X128472Y89458D03*
Y87045D03*
X122478D03*
X121538Y89458D03*
X122478D03*
X121538Y87045D03*
X120598Y89458D03*
Y87045D03*
X138353Y77520D03*
X137413Y79933D03*
X138353D03*
X137413Y77520D03*
X136473Y79933D03*
Y77520D03*
X146227D03*
X145287Y79933D03*
X146227D03*
X145287Y77520D03*
X144347Y79933D03*
Y77520D03*
G54D25*
X157987Y61503D03*
Y66003D03*
G54D26*
X150321Y63783D03*
Y66283D03*
Y67533D03*
Y65033D03*
X144571D03*
Y67533D03*
Y66283D03*
Y63783D03*
G54D27*
X147446Y65658D03*
M02*