%FSAX43Y43*%
%MOMM*%
G71*
G01*
G75*
%ADD10R,0.800X0.900*%
%ADD11R,0.900X0.800*%
%ADD12O,0.600X2.200*%
%ADD13R,0.508X1.500*%
%ADD14R,2.300X2.300*%
%ADD15R,1.200X1.400*%
%ADD16R,2.200X2.200*%
%ADD17O,1.800X0.300*%
%ADD18O,0.300X1.800*%
%ADD19R,2.540X1.016*%
%ADD20R,1.016X2.540*%
%ADD21R,1.200X0.300*%
%ADD22R,0.300X1.200*%
%ADD23R,2.032X0.635*%
%ADD24R,1.000X2.400*%
%ADD25R,3.300X2.400*%
%ADD26C,0.635*%
%ADD27C,0.254*%
%ADD28C,0.381*%
%ADD29C,0.508*%
%ADD30R,9.779X2.159*%
%ADD31R,7.874X1.778*%
%ADD32R,2.540X4.953*%
%ADD33R,2.286X7.874*%
%ADD34R,3.810X25.781*%
%ADD35R,2.794X2.794*%
%ADD36R,3.429X3.048*%
%ADD37R,3.937X3.937*%
%ADD38R,1.651X1.524*%
%ADD39R,2.032X2.009*%
%ADD40R,1.905X1.778*%
%ADD41R,1.778X1.524*%
%ADD42R,1.270X1.270*%
%ADD43R,3.429X4.953*%
%ADD44R,4.826X2.540*%
%ADD45R,1.397X1.524*%
%ADD46C,1.500*%
%ADD47R,1.500X1.500*%
%ADD48C,4.000*%
%ADD49C,0.762*%
%ADD50C,3.000*%
%ADD51C,0.508*%
%ADD52C,1.016*%
%ADD53C,1.524*%
%ADD54R,1.500X1.500*%
%ADD55C,3.810*%
%ADD56C,1.600*%
%ADD57C,4.760*%
%ADD58R,1.690X1.690*%
%ADD59C,1.690*%
%ADD60C,3.556*%
%ADD61R,1.524X1.524*%
%ADD62C,2.032*%
%ADD63C,1.270*%
%ADD64C,1.778*%
%ADD65C,2.000*%
%ADD66R,2.000X2.000*%
%ADD67R,1.000X1.300*%
%ADD68R,1.000X1.800*%
%ADD69R,2.794X2.540*%
%ADD70R,9.525X2.159*%
%ADD71R,3.937X3.683*%
%ADD72R,1.905X1.651*%
%ADD73R,1.397X1.397*%
%ADD74R,1.397X1.651*%
%ADD75R,2.921X2.794*%
%ADD76R,2.667X2.540*%
D10*
X0090740Y0100457D02*
D03*
X0092140D02*
D03*
X0065470Y0098679D02*
D03*
X0064070D02*
D03*
X0068134Y0083566D02*
D03*
X0069534D02*
D03*
X0069534Y0084963D02*
D03*
X0068134D02*
D03*
X0069534Y0086360D02*
D03*
X0068134D02*
D03*
X0128716Y0072009D02*
D03*
X0127316D02*
D03*
X0125541D02*
D03*
X0124141D02*
D03*
X0082612Y0075057D02*
D03*
X0084012D02*
D03*
X0090740Y0106553D02*
D03*
X0092140D02*
D03*
X0090740Y0105029D02*
D03*
X0092140D02*
D03*
X0090740Y0101854D02*
D03*
X0092140D02*
D03*
X0107888Y0071628D02*
D03*
X0106488D02*
D03*
X0099884Y0106553D02*
D03*
X0101284D02*
D03*
X0115951Y0077470D02*
D03*
X0117351D02*
D03*
X0099884Y0105156D02*
D03*
X0101284D02*
D03*
X0117351Y0078867D02*
D03*
X0115951D02*
D03*
X0162241Y0091440D02*
D03*
X0163641D02*
D03*
D11*
X0057150Y0101027D02*
D03*
Y0102427D02*
D03*
X0071755Y0088327D02*
D03*
Y0089727D02*
D03*
X0066675Y0081599D02*
D03*
Y0080199D02*
D03*
X0053975Y0087314D02*
D03*
Y0085914D02*
D03*
X0065405Y0080199D02*
D03*
Y0081599D02*
D03*
X0064135Y0080199D02*
D03*
Y0081599D02*
D03*
X0062865Y0080199D02*
D03*
Y0081599D02*
D03*
X0061595Y0080199D02*
D03*
Y0081599D02*
D03*
X0057785Y0080199D02*
D03*
Y0081599D02*
D03*
X0059055Y0080199D02*
D03*
Y0081599D02*
D03*
X0053975Y0081599D02*
D03*
Y0080199D02*
D03*
X0055245Y0081599D02*
D03*
Y0080199D02*
D03*
X0121412Y0079691D02*
D03*
Y0081091D02*
D03*
X0134366Y0075373D02*
D03*
Y0076773D02*
D03*
X0121412Y0076770D02*
D03*
Y0078170D02*
D03*
X0144399Y0089346D02*
D03*
Y0087946D02*
D03*
Y0092140D02*
D03*
Y0090740D02*
D03*
X0092202Y0096074D02*
D03*
Y0097474D02*
D03*
X0098425Y0102170D02*
D03*
Y0103570D02*
D03*
X0089916Y0097474D02*
D03*
Y0096074D02*
D03*
X0166751Y0083250D02*
D03*
Y0081850D02*
D03*
D12*
X0132461Y0079616D02*
D03*
X0131191D02*
D03*
X0129921D02*
D03*
X0128651D02*
D03*
X0127381D02*
D03*
X0126111D02*
D03*
X0124841D02*
D03*
X0123571D02*
D03*
X0132461Y0074816D02*
D03*
X0131191D02*
D03*
X0129921D02*
D03*
X0128651D02*
D03*
X0127381D02*
D03*
X0126111D02*
D03*
X0124841D02*
D03*
X0123571D02*
D03*
D13*
X0138360Y0086343D02*
D03*
X0139660D02*
D03*
X0140960D02*
D03*
X0142260D02*
D03*
X0142310Y0093693D02*
D03*
X0140910D02*
D03*
X0139660D02*
D03*
X0138360D02*
D03*
D14*
X0086070Y0078359D02*
D03*
X0081570D02*
D03*
X0164247Y0076200D02*
D03*
X0168747D02*
D03*
D15*
X0078116Y0078359D02*
D03*
X0076316D02*
D03*
D16*
X0062143Y0107275D02*
D03*
Y0102275D02*
D03*
X0067143Y0107275D02*
D03*
Y0102275D02*
D03*
D17*
X0098495Y0095789D02*
D03*
Y0095289D02*
D03*
Y0094789D02*
D03*
Y0094289D02*
D03*
Y0093789D02*
D03*
Y0093289D02*
D03*
Y0092789D02*
D03*
Y0092289D02*
D03*
Y0091789D02*
D03*
Y0091289D02*
D03*
Y0090789D02*
D03*
Y0090289D02*
D03*
Y0089789D02*
D03*
Y0089289D02*
D03*
Y0088789D02*
D03*
Y0088289D02*
D03*
Y0087789D02*
D03*
Y0087289D02*
D03*
Y0086789D02*
D03*
Y0086289D02*
D03*
Y0085789D02*
D03*
Y0085289D02*
D03*
Y0084789D02*
D03*
Y0084289D02*
D03*
Y0083789D02*
D03*
X0113595D02*
D03*
Y0084289D02*
D03*
Y0084789D02*
D03*
Y0085289D02*
D03*
Y0085789D02*
D03*
Y0086289D02*
D03*
Y0086789D02*
D03*
Y0087289D02*
D03*
Y0087789D02*
D03*
Y0088289D02*
D03*
Y0088789D02*
D03*
Y0089289D02*
D03*
Y0089789D02*
D03*
Y0090289D02*
D03*
Y0090789D02*
D03*
Y0091289D02*
D03*
Y0091789D02*
D03*
Y0092289D02*
D03*
Y0092789D02*
D03*
Y0093289D02*
D03*
Y0093789D02*
D03*
Y0094289D02*
D03*
Y0094789D02*
D03*
Y0095289D02*
D03*
Y0095789D02*
D03*
D18*
X0100045Y0082239D02*
D03*
X0100545D02*
D03*
X0101045D02*
D03*
X0101545D02*
D03*
X0102045D02*
D03*
X0102545D02*
D03*
X0103045D02*
D03*
X0103545D02*
D03*
X0104045D02*
D03*
X0104545D02*
D03*
X0105045D02*
D03*
X0105545D02*
D03*
X0106045D02*
D03*
X0106545D02*
D03*
X0107045D02*
D03*
X0107545D02*
D03*
X0108045D02*
D03*
X0108545D02*
D03*
X0109045D02*
D03*
X0109545D02*
D03*
X0110045D02*
D03*
X0110545D02*
D03*
X0111045D02*
D03*
X0111545D02*
D03*
X0112045D02*
D03*
Y0097339D02*
D03*
X0111545D02*
D03*
X0111045D02*
D03*
X0110545D02*
D03*
X0110045D02*
D03*
X0109545D02*
D03*
X0109045D02*
D03*
X0108545D02*
D03*
X0108045D02*
D03*
X0107545D02*
D03*
X0107045D02*
D03*
X0106545D02*
D03*
X0106045D02*
D03*
X0105545D02*
D03*
X0105045D02*
D03*
X0104545D02*
D03*
X0104045D02*
D03*
X0103545D02*
D03*
X0103045D02*
D03*
X0102545D02*
D03*
X0102045D02*
D03*
X0101545D02*
D03*
X0101045D02*
D03*
X0100545D02*
D03*
X0100045D02*
D03*
D19*
X0155448Y0074803D02*
D03*
X0149606D02*
D03*
D20*
X0152400Y0088646D02*
D03*
Y0082804D02*
D03*
D21*
X0056660Y0094571D02*
D03*
Y0094071D02*
D03*
Y0093571D02*
D03*
Y0093071D02*
D03*
Y0092571D02*
D03*
Y0092071D02*
D03*
Y0091571D02*
D03*
Y0091071D02*
D03*
Y0090571D02*
D03*
Y0090071D02*
D03*
Y0089571D02*
D03*
Y0089071D02*
D03*
X0065260D02*
D03*
Y0089571D02*
D03*
Y0090071D02*
D03*
Y0090571D02*
D03*
Y0091071D02*
D03*
Y0091571D02*
D03*
Y0092071D02*
D03*
Y0092571D02*
D03*
Y0093071D02*
D03*
Y0093571D02*
D03*
Y0094071D02*
D03*
Y0094571D02*
D03*
D22*
X0058210Y0087521D02*
D03*
X0058710D02*
D03*
X0059210D02*
D03*
X0059710D02*
D03*
X0060210D02*
D03*
X0060710D02*
D03*
X0061210D02*
D03*
X0061710D02*
D03*
X0062210Y0087521D02*
D03*
X0062710D02*
D03*
X0063210D02*
D03*
X0063710D02*
D03*
X0063710Y0096121D02*
D03*
X0063210D02*
D03*
X0062710D02*
D03*
X0062210D02*
D03*
X0061710D02*
D03*
X0061210D02*
D03*
X0060710D02*
D03*
X0060210D02*
D03*
X0059710Y0096121D02*
D03*
X0059210D02*
D03*
X0058710D02*
D03*
X0058210D02*
D03*
D23*
X0086868Y0106553D02*
D03*
Y0105283D02*
D03*
Y0104013D02*
D03*
Y0102743D02*
D03*
Y0101473D02*
D03*
X0082042D02*
D03*
Y0102743D02*
D03*
Y0104013D02*
D03*
Y0105283D02*
D03*
Y0106553D02*
D03*
D24*
X0159117Y0082698D02*
D03*
X0161417D02*
D03*
X0163717D02*
D03*
D25*
X0161417Y0088498D02*
D03*
D46*
X0132182Y0107315D02*
D03*
Y0104775D02*
D03*
X0129642Y0107315D02*
D03*
Y0104775D02*
D03*
X0127102Y0107315D02*
D03*
Y0104775D02*
D03*
X0124562Y0107315D02*
D03*
Y0104775D02*
D03*
X0122022Y0107315D02*
D03*
Y0104775D02*
D03*
X0119482Y0107315D02*
D03*
Y0104775D02*
D03*
X0116942Y0107315D02*
D03*
Y0104775D02*
D03*
X0114402Y0107315D02*
D03*
X0174625Y0073279D02*
D03*
X0153772Y0107315D02*
D03*
Y0104775D02*
D03*
X0151232Y0107315D02*
D03*
Y0104775D02*
D03*
X0148692Y0107315D02*
D03*
Y0104775D02*
D03*
X0146152Y0107315D02*
D03*
D47*
X0114402Y0104775D02*
D03*
X0146152D02*
D03*
D48*
X0173990Y0107950D02*
D03*
X0048895D02*
D03*
X0173990Y0062865D02*
D03*
X0048895D02*
D03*
D49*
X0092202Y0099060D02*
D03*
X0089027Y0101473D02*
D03*
X0100838Y0103124D02*
D03*
X0107061Y0093091D02*
D03*
X0106172Y0093853D02*
D03*
X0104013Y0095250D02*
D03*
X0092456Y0087758D02*
D03*
X0082550Y0086868D02*
D03*
X0105537Y0101346D02*
D03*
X0102997Y0099822D02*
D03*
X0102870Y0101092D02*
D03*
X0103759Y0101981D02*
D03*
X0106426Y0099949D02*
D03*
X0102489Y0093599D02*
D03*
X0101981Y0094615D02*
D03*
X0105283Y0092202D02*
D03*
X0106172Y0091313D02*
D03*
X0105283Y0092202D02*
D03*
X0106172Y0091313D02*
D03*
X0131191Y0082185D02*
D03*
Y0077724D02*
D03*
X0132461D02*
D03*
X0136779Y0087249D02*
D03*
X0142310Y0091948D02*
D03*
X0135890Y0084709D02*
D03*
X0136779Y0089789D02*
D03*
X0095631Y0089812D02*
D03*
X0102108Y0089281D02*
D03*
X0109982Y0094996D02*
D03*
X0110236Y0086868D02*
D03*
X0104267Y0084582D02*
D03*
X0074041Y0065024D02*
D03*
X0097790Y0077216D02*
D03*
X0096520D02*
D03*
X0086360Y0074295D02*
D03*
Y0075819D02*
D03*
X0104728Y0071628D02*
D03*
X0090551Y0082804D02*
D03*
X0094107D02*
D03*
X0091313Y0086741D02*
D03*
X0090043D02*
D03*
X0089154Y0098933D02*
D03*
X0093980Y0098171D02*
D03*
X0059690Y0102489D02*
D03*
D50*
X0085999Y0089281D02*
D03*
X0078499D02*
D03*
D51*
X0062230Y0093599D02*
D03*
X0072390Y0092710D02*
D03*
X0061214Y0091313D02*
D03*
X0071120Y0093599D02*
D03*
X0060198Y0083820D02*
D03*
X0058928D02*
D03*
X0067564Y0078613D02*
D03*
X0069850Y0090170D02*
D03*
X0071755Y0091568D02*
D03*
X0062865Y0078994D02*
D03*
X0064262Y0083058D02*
D03*
X0068961Y0088265D02*
D03*
X0067183D02*
D03*
X0065405Y0087503D02*
D03*
X0057785Y0078994D02*
D03*
X0056515Y0078613D02*
D03*
X0065532Y0097155D02*
D03*
X0067056Y0092837D02*
D03*
X0062103Y0098806D02*
D03*
X0060706Y0100203D02*
D03*
X0059690Y0100965D02*
D03*
X0060234Y0094071D02*
D03*
X0059055Y0078994D02*
D03*
X0061595D02*
D03*
X0058676Y0084963D02*
D03*
X0057785Y0085725D02*
D03*
X0056072Y0085914D02*
D03*
X0063881Y0085852D02*
D03*
X0059210Y0089380D02*
D03*
X0059690Y0091313D02*
D03*
X0061595Y0089408D02*
D03*
X0060234Y0094071D02*
D03*
X0054356Y0092710D02*
D03*
X0111760Y0090551D02*
D03*
X0111125Y0089916D02*
D03*
X0116205Y0086360D02*
D03*
X0116840Y0085725D02*
D03*
X0117475Y0085090D02*
D03*
X0118110Y0084455D02*
D03*
X0108045Y0093789D02*
D03*
X0102616Y0105156D02*
D03*
X0110236Y0085289D02*
D03*
X0115951Y0080772D02*
D03*
X0082550Y0097155D02*
D03*
D52*
X0119380Y0081091D02*
D03*
X0093599Y0105791D02*
D03*
X0074295Y0106553D02*
D03*
D53*
X0119380Y0070104D02*
D03*
X0081915Y0071184D02*
D03*
Y0069151D02*
D03*
X0084455D02*
D03*
X0054229Y0063119D02*
D03*
X0056769D02*
D03*
X0067691D02*
D03*
X0065151D02*
D03*
X0151130Y0074803D02*
D03*
X0153924D02*
D03*
X0152400Y0084328D02*
D03*
Y0087122D02*
D03*
X0108775Y0062103D02*
D03*
X0104203D02*
D03*
X0070993Y0103124D02*
D03*
D54*
X0174625Y0070739D02*
D03*
D55*
X0165671Y0070040D02*
D03*
X0170117Y0066866D02*
D03*
X0165671Y0063818D02*
D03*
D56*
X0156210Y0061595D02*
D03*
X0158750D02*
D03*
X0150495D02*
D03*
X0153035D02*
D03*
X0145415D02*
D03*
X0147955D02*
D03*
X0097155D02*
D03*
X0099695D02*
D03*
X0092075D02*
D03*
X0094615D02*
D03*
X0071755D02*
D03*
X0074295D02*
D03*
D57*
X0115140Y0065634D02*
D03*
X0140130D02*
D03*
D58*
X0133175Y0067054D02*
D03*
D59*
X0131790Y0064214D02*
D03*
X0130405Y0067054D02*
D03*
X0129020Y0064214D02*
D03*
X0127635Y0067054D02*
D03*
X0126250Y0064214D02*
D03*
X0124865Y0067054D02*
D03*
X0123480Y0064214D02*
D03*
X0122095Y0067054D02*
D03*
D60*
X0076835Y0066484D02*
D03*
X0089535D02*
D03*
D61*
X0084455Y0071184D02*
D03*
D62*
X0052705Y0070231D02*
D03*
X0069215D02*
D03*
D63*
X0066675Y0073533D02*
D03*
X0064135D02*
D03*
X0061595D02*
D03*
X0065405Y0076073D02*
D03*
X0062865D02*
D03*
X0060325D02*
D03*
X0059055Y0073533D02*
D03*
X0057785Y0076073D02*
D03*
X0056515Y0073533D02*
D03*
X0055245Y0076073D02*
D03*
D64*
X0109919Y0064643D02*
D03*
X0102934D02*
D03*
D65*
X0172720Y0100965D02*
D03*
D66*
Y0097155D02*
D03*
M02*
