%FSAX43Y43*%
%MOMM*%
G71*
G01*
G75*
G04 Layer_Physical_Order=1*
G04 Layer_Color=255*
%ADD10R,0.800X0.900*%
%ADD11R,0.900X0.800*%
%ADD12O,0.600X2.200*%
%ADD13R,0.508X1.500*%
%ADD14R,2.300X2.300*%
%ADD15R,1.200X1.400*%
%ADD16R,2.200X2.200*%
%ADD17O,1.800X0.300*%
%ADD18O,0.300X1.800*%
%ADD19R,2.540X1.016*%
%ADD20R,1.016X2.540*%
%ADD21R,1.200X0.300*%
%ADD22R,0.300X1.200*%
%ADD23R,2.032X0.635*%
%ADD24R,1.000X2.400*%
%ADD25R,3.300X2.400*%
%ADD26C,0.635*%
%ADD27C,0.254*%
%ADD28C,0.381*%
%ADD29C,0.508*%
%ADD30R,9.779X2.159*%
%ADD31R,7.874X1.778*%
%ADD32R,2.540X4.953*%
%ADD33R,2.286X7.874*%
%ADD34R,3.810X25.781*%
%ADD35R,2.794X2.794*%
%ADD36R,3.429X3.048*%
%ADD37R,3.937X3.937*%
%ADD38R,1.651X1.524*%
%ADD39R,2.032X2.009*%
%ADD40R,1.905X1.778*%
%ADD41R,1.778X1.524*%
%ADD42R,1.270X1.270*%
%ADD43R,3.429X4.953*%
%ADD44R,4.826X2.540*%
%ADD45R,1.397X1.524*%
%ADD46C,1.500*%
%ADD47R,1.500X1.500*%
%ADD48C,4.000*%
%ADD49C,0.762*%
%ADD50C,3.000*%
%ADD51C,0.508*%
%ADD52C,1.016*%
%ADD53C,1.524*%
%ADD54R,1.500X1.500*%
%ADD55C,3.810*%
%ADD56C,1.600*%
%ADD57C,4.760*%
%ADD58R,1.690X1.690*%
%ADD59C,1.690*%
%ADD60C,3.556*%
%ADD61R,1.524X1.524*%
%ADD62C,2.032*%
%ADD63C,1.270*%
%ADD64C,1.778*%
%ADD65C,2.000*%
%ADD66R,2.000X2.000*%
G36*
X0177412Y0059443D02*
X0045473D01*
Y0111499D01*
X0177412D01*
Y0059443D01*
D02*
G37*
%LPC*%
G36*
X0132461Y0076181D02*
X0132245Y0076138D01*
X0132062Y0076015D01*
X0131939Y0075832D01*
X0131896Y0075616D01*
Y0074016D01*
X0131939Y0073800D01*
X0132062Y0073617D01*
X0132073Y0073609D01*
Y0069757D01*
X0131551Y0069236D01*
X0131467Y0069110D01*
X0131438Y0068961D01*
Y0067711D01*
X0131317Y0067670D01*
X0131189Y0067838D01*
X0130959Y0068014D01*
X0130793Y0068083D01*
Y0068927D01*
X0131466Y0069599D01*
X0131550Y0069725D01*
X0131579Y0069874D01*
X0131579Y0069874D01*
X0131579Y0069874D01*
Y0069874D01*
Y0073609D01*
X0131590Y0073617D01*
X0131713Y0073800D01*
X0131756Y0074016D01*
Y0075616D01*
X0131713Y0075832D01*
X0131590Y0076015D01*
X0131407Y0076138D01*
X0131191Y0076181D01*
X0130975Y0076138D01*
X0130792Y0076015D01*
X0130669Y0075832D01*
X0130626Y0075616D01*
Y0074016D01*
X0130669Y0073800D01*
X0130792Y0073617D01*
X0130803Y0073609D01*
Y0070035D01*
X0130130Y0069363D01*
X0130046Y0069237D01*
X0130017Y0069088D01*
Y0068083D01*
X0129851Y0068014D01*
X0129621Y0067838D01*
X0129445Y0067608D01*
X0129334Y0067341D01*
X0129297Y0067054D01*
X0129334Y0066767D01*
X0129445Y0066500D01*
X0129621Y0066270D01*
X0129755Y0066168D01*
X0129714Y0066047D01*
X0129191D01*
X0128637Y0066601D01*
X0128706Y0066767D01*
X0128743Y0067054D01*
X0128706Y0067341D01*
X0128595Y0067608D01*
X0128419Y0067838D01*
X0128189Y0068014D01*
X0127922Y0068125D01*
X0127635Y0068162D01*
X0127348Y0068125D01*
X0127081Y0068014D01*
X0126851Y0067838D01*
X0126675Y0067608D01*
X0126564Y0067341D01*
X0126527Y0067054D01*
X0126564Y0066767D01*
X0126675Y0066500D01*
X0126851Y0066270D01*
X0127081Y0066094D01*
X0127348Y0065983D01*
X0127635Y0065946D01*
X0127922Y0065983D01*
X0128088Y0066052D01*
X0128738Y0065401D01*
X0128714Y0065277D01*
X0128466Y0065174D01*
X0128236Y0064998D01*
X0128060Y0064768D01*
X0127949Y0064501D01*
X0127912Y0064214D01*
X0127949Y0063927D01*
X0128060Y0063660D01*
X0128236Y0063430D01*
X0128466Y0063254D01*
X0128733Y0063143D01*
X0129020Y0063106D01*
X0129307Y0063143D01*
X0129574Y0063254D01*
X0129804Y0063430D01*
X0129980Y0063660D01*
X0130091Y0063927D01*
X0130128Y0064214D01*
X0130091Y0064501D01*
X0129980Y0064768D01*
X0129804Y0064998D01*
X0129605Y0065150D01*
X0129646Y0065271D01*
X0131164D01*
X0131205Y0065150D01*
X0131006Y0064998D01*
X0130830Y0064768D01*
X0130719Y0064501D01*
X0130682Y0064214D01*
X0130719Y0063927D01*
X0130830Y0063660D01*
X0131006Y0063430D01*
X0131236Y0063254D01*
X0131503Y0063143D01*
X0131790Y0063106D01*
X0132077Y0063143D01*
X0132344Y0063254D01*
X0132574Y0063430D01*
X0132750Y0063660D01*
X0132861Y0063927D01*
X0132898Y0064214D01*
X0132861Y0064501D01*
X0132750Y0064768D01*
X0132574Y0064998D01*
X0132344Y0065174D01*
X0132077Y0065285D01*
X0131790Y0065322D01*
X0131541Y0065290D01*
X0131485Y0065404D01*
X0132048Y0065967D01*
X0132076Y0065955D01*
Y0065955D01*
X0132076Y0065955D01*
X0134274D01*
Y0068153D01*
X0132214D01*
Y0068800D01*
X0132736Y0069321D01*
X0132820Y0069447D01*
X0132825Y0069472D01*
X0132849Y0069596D01*
Y0073609D01*
X0132860Y0073617D01*
X0132983Y0073800D01*
X0133026Y0074016D01*
Y0075616D01*
X0132983Y0075832D01*
X0132860Y0076015D01*
X0132677Y0076138D01*
X0132461Y0076181D01*
D02*
G37*
G36*
X0165671Y0072210D02*
X0165248Y0072168D01*
X0164841Y0072045D01*
X0164466Y0071844D01*
X0164137Y0071575D01*
X0163868Y0071246D01*
X0163667Y0070871D01*
X0163544Y0070464D01*
X0163502Y0070040D01*
X0163544Y0069617D01*
X0163667Y0069210D01*
X0163868Y0068835D01*
X0164137Y0068506D01*
X0164466Y0068237D01*
X0164841Y0068036D01*
X0165248Y0067913D01*
X0165671Y0067871D01*
X0166095Y0067913D01*
X0166502Y0068036D01*
X0166877Y0068237D01*
X0167206Y0068506D01*
X0167475Y0068835D01*
X0167676Y0069210D01*
X0175514D01*
X0175613Y0069230D01*
X0175697Y0069286D01*
X0175753Y0069370D01*
X0175773Y0069469D01*
Y0071628D01*
X0175753Y0071727D01*
X0175697Y0071811D01*
X0175613Y0071867D01*
X0175514Y0071887D01*
X0166797D01*
X0166502Y0072045D01*
X0166095Y0072168D01*
X0165671Y0072210D01*
D02*
G37*
G36*
X0122222Y0068146D02*
Y0067181D01*
X0123187D01*
X0123166Y0067341D01*
X0123055Y0067608D01*
X0122879Y0067838D01*
X0122649Y0068014D01*
X0122382Y0068125D01*
X0122222Y0068146D01*
D02*
G37*
G36*
X0164295Y0091313D02*
X0163768D01*
Y0090736D01*
X0164295D01*
Y0091313D01*
D02*
G37*
G36*
X0170243Y0069022D02*
Y0066993D01*
X0172273D01*
X0172244Y0067289D01*
X0172121Y0067696D01*
X0171920Y0068071D01*
X0171651Y0068400D01*
X0171322Y0068669D01*
X0170947Y0068870D01*
X0170540Y0068993D01*
X0170243Y0069022D01*
D02*
G37*
G36*
X0121968Y0068146D02*
X0121808Y0068125D01*
X0121541Y0068014D01*
X0121311Y0067838D01*
X0121135Y0067608D01*
X0121024Y0067341D01*
X0121003Y0067181D01*
X0121968D01*
Y0068146D01*
D02*
G37*
G36*
X0052705Y0071512D02*
X0052373Y0071468D01*
X0052065Y0071340D01*
X0051799Y0071137D01*
X0051596Y0070871D01*
X0051468Y0070563D01*
X0051424Y0070231D01*
X0051468Y0069899D01*
X0051596Y0069591D01*
X0051799Y0069325D01*
X0052065Y0069122D01*
X0052373Y0068994D01*
X0052705Y0068950D01*
X0053037Y0068994D01*
X0053345Y0069122D01*
X0053611Y0069325D01*
X0053814Y0069591D01*
X0053942Y0069899D01*
X0053986Y0070231D01*
X0053942Y0070563D01*
X0053814Y0070871D01*
X0053611Y0071137D01*
X0053345Y0071340D01*
X0053037Y0071468D01*
X0052705Y0071512D01*
D02*
G37*
G36*
X0152138Y0074676D02*
X0151257D01*
Y0073795D01*
X0151395Y0073813D01*
X0151642Y0073916D01*
X0151855Y0074078D01*
X0152017Y0074291D01*
X0152120Y0074538D01*
X0152138Y0074676D01*
D02*
G37*
G36*
X0149479D02*
X0148082D01*
Y0074041D01*
X0149479D01*
Y0074676D01*
D02*
G37*
G36*
X0175514Y0098430D02*
X0171704D01*
X0171605Y0098410D01*
X0171603Y0098409D01*
X0171466D01*
Y0098272D01*
X0171465Y0098270D01*
X0171445Y0098171D01*
Y0074427D01*
X0170439D01*
Y0077343D01*
X0170419Y0077442D01*
X0170363Y0077526D01*
X0170279Y0077582D01*
X0170180Y0077602D01*
X0170151D01*
Y0077604D01*
X0167343D01*
Y0074796D01*
X0167381D01*
Y0074168D01*
Y0072390D01*
X0167401Y0072291D01*
X0167457Y0072207D01*
X0167541Y0072151D01*
X0167640Y0072131D01*
X0175514D01*
X0175613Y0072151D01*
X0175697Y0072207D01*
X0175753Y0072291D01*
X0175773Y0072390D01*
Y0098171D01*
X0175753Y0098270D01*
X0175697Y0098354D01*
X0175613Y0098410D01*
X0175514Y0098430D01*
D02*
G37*
G36*
X0126111Y0076181D02*
X0125895Y0076138D01*
X0125712Y0076015D01*
X0125589Y0075832D01*
X0125546Y0075616D01*
Y0074016D01*
X0125589Y0073800D01*
X0125712Y0073617D01*
X0125723Y0073609D01*
Y0072740D01*
X0125696Y0072713D01*
X0124887D01*
D01*
D01*
X0124887Y0072713D01*
X0124795D01*
Y0072713D01*
X0123986D01*
X0123959Y0072740D01*
Y0073609D01*
X0123970Y0073617D01*
X0124093Y0073800D01*
X0124136Y0074016D01*
Y0075616D01*
X0124093Y0075832D01*
X0123970Y0076015D01*
X0123787Y0076138D01*
X0123571Y0076181D01*
X0123355Y0076138D01*
X0123172Y0076015D01*
X0123049Y0075832D01*
X0123006Y0075616D01*
Y0074016D01*
X0123049Y0073800D01*
X0123172Y0073617D01*
X0123183Y0073609D01*
Y0072579D01*
X0123183Y0072579D01*
X0123183D01*
X0123212Y0072430D01*
X0123296Y0072304D01*
X0123487Y0072114D01*
Y0071305D01*
X0124795D01*
Y0071305D01*
X0124795D01*
X0124795Y0071305D01*
X0124887D01*
Y0071305D01*
X0126195D01*
Y0072114D01*
X0126386Y0072304D01*
X0126470Y0072430D01*
X0126499Y0072579D01*
Y0073609D01*
X0126510Y0073617D01*
X0126633Y0073800D01*
X0126676Y0074016D01*
Y0075616D01*
X0126633Y0075832D01*
X0126510Y0076015D01*
X0126327Y0076138D01*
X0126111Y0076181D01*
D02*
G37*
G36*
X0128651D02*
X0128435Y0076138D01*
X0128252Y0076015D01*
X0128129Y0075832D01*
X0128086Y0075616D01*
Y0074016D01*
X0128129Y0073800D01*
X0128252Y0073617D01*
X0128263Y0073609D01*
Y0072713D01*
X0128062D01*
D01*
D01*
X0128062Y0072713D01*
X0127970D01*
Y0072713D01*
X0127769D01*
Y0073609D01*
X0127780Y0073617D01*
X0127903Y0073800D01*
X0127946Y0074016D01*
Y0075616D01*
X0127903Y0075832D01*
X0127780Y0076015D01*
X0127597Y0076138D01*
X0127381Y0076181D01*
X0127165Y0076138D01*
X0126982Y0076015D01*
X0126859Y0075832D01*
X0126816Y0075616D01*
Y0074016D01*
X0126859Y0073800D01*
X0126982Y0073617D01*
X0126993Y0073609D01*
Y0072713D01*
X0126662D01*
Y0071305D01*
X0127970D01*
Y0071305D01*
X0127970D01*
X0127970Y0071305D01*
X0128062D01*
Y0071305D01*
X0129370D01*
Y0072713D01*
X0129039D01*
Y0073609D01*
X0129050Y0073617D01*
X0129173Y0073800D01*
X0129216Y0074016D01*
Y0075616D01*
X0129173Y0075832D01*
X0129050Y0076015D01*
X0128867Y0076138D01*
X0128651Y0076181D01*
D02*
G37*
G36*
X0151003Y0075811D02*
X0150865Y0075793D01*
X0150618Y0075690D01*
X0150454Y0075565D01*
X0149733D01*
Y0074803D01*
Y0074041D01*
X0150454D01*
X0150618Y0073916D01*
X0150865Y0073813D01*
X0151003Y0073795D01*
Y0074803D01*
Y0075811D01*
D02*
G37*
G36*
X0164295Y0092144D02*
X0163768D01*
Y0091567D01*
X0164295D01*
Y0092144D01*
D02*
G37*
G36*
X0124865Y0068162D02*
X0124578Y0068125D01*
X0124311Y0068014D01*
X0124081Y0067838D01*
X0123905Y0067608D01*
X0123794Y0067341D01*
X0123757Y0067054D01*
X0123794Y0066767D01*
X0123905Y0066500D01*
X0124081Y0066270D01*
X0124311Y0066094D01*
X0124578Y0065983D01*
X0124865Y0065946D01*
X0125152Y0065983D01*
X0125419Y0066094D01*
X0125649Y0066270D01*
X0125825Y0066500D01*
X0125936Y0066767D01*
X0125973Y0067054D01*
X0125936Y0067341D01*
X0125825Y0067608D01*
X0125649Y0067838D01*
X0125419Y0068014D01*
X0125152Y0068125D01*
X0124865Y0068162D01*
D02*
G37*
G36*
X0121968Y0066927D02*
X0121003D01*
X0121024Y0066767D01*
X0121135Y0066500D01*
X0121311Y0066270D01*
X0121541Y0066094D01*
X0121808Y0065983D01*
X0121968Y0065962D01*
Y0066927D01*
D02*
G37*
G36*
X0123187D02*
X0122222D01*
Y0065962D01*
X0122382Y0065983D01*
X0122649Y0066094D01*
X0122879Y0066270D01*
X0123055Y0066500D01*
X0123166Y0066767D01*
X0123187Y0066927D01*
D02*
G37*
G36*
X0115267Y0068266D02*
Y0065761D01*
X0117772D01*
X0117750Y0066047D01*
X0117653Y0066450D01*
X0117494Y0066834D01*
X0117278Y0067187D01*
X0117008Y0067502D01*
X0116693Y0067772D01*
X0116340Y0067988D01*
X0115956Y0068147D01*
X0115553Y0068244D01*
X0115267Y0068266D01*
D02*
G37*
G36*
X0140003D02*
X0139717Y0068244D01*
X0139314Y0068147D01*
X0138930Y0067988D01*
X0138577Y0067772D01*
X0138262Y0067502D01*
X0137992Y0067187D01*
X0137776Y0066834D01*
X0137617Y0066450D01*
X0137520Y0066047D01*
X0137498Y0065761D01*
X0140003D01*
Y0068266D01*
D02*
G37*
G36*
X0140257D02*
Y0065761D01*
X0142762D01*
X0142740Y0066047D01*
X0142643Y0066450D01*
X0142484Y0066834D01*
X0142268Y0067187D01*
X0141998Y0067502D01*
X0141683Y0067772D01*
X0141330Y0067988D01*
X0140946Y0068147D01*
X0140543Y0068244D01*
X0140257Y0068266D01*
D02*
G37*
G36*
X0140168Y0094697D02*
X0139787D01*
Y0093820D01*
X0140168D01*
Y0094697D01*
D02*
G37*
G36*
X0145103Y0092794D02*
X0144526D01*
Y0092267D01*
X0145103D01*
Y0092794D01*
D02*
G37*
G36*
X0144272D02*
X0143695D01*
Y0092267D01*
X0144272D01*
Y0092794D01*
D02*
G37*
G36*
X0169990Y0069022D02*
X0169693Y0068993D01*
X0169286Y0068870D01*
X0168911Y0068669D01*
X0168582Y0068400D01*
X0168313Y0068071D01*
X0168112Y0067696D01*
X0167989Y0067289D01*
X0167960Y0066993D01*
X0169990D01*
Y0069022D01*
D02*
G37*
G36*
X0139533Y0094697D02*
X0139152D01*
Y0093820D01*
X0139533D01*
Y0094697D01*
D02*
G37*
G36*
X0140168Y0093566D02*
X0139787D01*
Y0092689D01*
X0140168D01*
Y0093566D01*
D02*
G37*
G36*
X0139533D02*
X0139152D01*
Y0092689D01*
X0139533D01*
Y0093566D01*
D02*
G37*
G36*
X0134239Y0075246D02*
X0133662D01*
Y0074719D01*
X0134239D01*
Y0075246D01*
D02*
G37*
G36*
X0165354Y0084333D02*
X0163068D01*
X0162969Y0084313D01*
X0162885Y0084257D01*
X0162829Y0084173D01*
X0162809Y0084074D01*
Y0076783D01*
X0160655D01*
X0160432Y0076738D01*
X0160243Y0076612D01*
X0159017Y0075386D01*
X0156972D01*
Y0075565D01*
X0154600D01*
X0154436Y0075690D01*
X0154189Y0075793D01*
X0153924Y0075828D01*
X0153659Y0075793D01*
X0153412Y0075690D01*
X0153199Y0075528D01*
X0153037Y0075315D01*
X0152934Y0075068D01*
X0152899Y0074803D01*
X0152934Y0074538D01*
X0153037Y0074291D01*
X0153199Y0074078D01*
X0153412Y0073916D01*
X0153659Y0073813D01*
X0153924Y0073778D01*
X0154189Y0073813D01*
X0154436Y0073916D01*
X0154600Y0074041D01*
X0156972D01*
Y0074220D01*
X0159258D01*
X0159481Y0074265D01*
X0159670Y0074391D01*
X0159670Y0074391D01*
X0159670Y0074391D01*
X0160896Y0075617D01*
X0162843D01*
Y0074796D01*
X0165651D01*
Y0077604D01*
X0165613D01*
Y0082797D01*
X0166047D01*
Y0082596D01*
X0166047Y0082596D01*
X0166047Y0082504D01*
X0166047D01*
Y0081977D01*
X0167455D01*
Y0082504D01*
D01*
Y0082504D01*
X0167455Y0082504D01*
Y0082596D01*
X0167455D01*
Y0083904D01*
X0166047D01*
Y0083703D01*
X0165613D01*
Y0084074D01*
X0165593Y0084173D01*
X0165537Y0084257D01*
X0165453Y0084313D01*
X0165354Y0084333D01*
D02*
G37*
G36*
X0153162Y0082677D02*
X0152527D01*
Y0081280D01*
X0153162D01*
Y0082677D01*
D02*
G37*
G36*
X0152273D02*
X0151638D01*
Y0081280D01*
X0152273D01*
Y0082677D01*
D02*
G37*
G36*
X0153408Y0084201D02*
X0151392D01*
X0151410Y0084063D01*
X0151513Y0083816D01*
X0151638Y0083652D01*
Y0082931D01*
X0153162D01*
Y0083652D01*
X0153287Y0083816D01*
X0153390Y0084063D01*
X0153408Y0084201D01*
D02*
G37*
G36*
X0159871Y0084152D02*
X0159244D01*
Y0082825D01*
X0159871D01*
Y0084152D01*
D02*
G37*
G36*
X0158990D02*
X0158363D01*
Y0082825D01*
X0158990D01*
Y0084152D01*
D02*
G37*
G36*
X0159871Y0082571D02*
X0159244D01*
Y0081244D01*
X0159871D01*
Y0082571D01*
D02*
G37*
G36*
X0053848Y0080072D02*
X0053271D01*
Y0079545D01*
X0053848D01*
Y0080072D01*
D02*
G37*
G36*
X0124968Y0080956D02*
Y0079743D01*
X0125406D01*
Y0080416D01*
X0125363Y0080632D01*
X0125240Y0080815D01*
X0125057Y0080938D01*
X0124968Y0080956D01*
D02*
G37*
G36*
X0124714D02*
X0124625Y0080938D01*
X0124442Y0080815D01*
X0124319Y0080632D01*
X0124276Y0080416D01*
Y0079743D01*
X0124714D01*
Y0080956D01*
D02*
G37*
G36*
X0158990Y0082571D02*
X0158363D01*
Y0081244D01*
X0158990D01*
Y0082571D01*
D02*
G37*
G36*
X0167455Y0081723D02*
X0166878D01*
Y0081196D01*
X0167455D01*
Y0081723D01*
D02*
G37*
G36*
X0166624D02*
X0166047D01*
Y0081196D01*
X0166624D01*
Y0081723D01*
D02*
G37*
G36*
X0125406Y0079489D02*
X0124968D01*
Y0078276D01*
X0125057Y0078294D01*
X0125240Y0078417D01*
X0125363Y0078600D01*
X0125406Y0078816D01*
Y0079489D01*
D02*
G37*
G36*
X0131191Y0082832D02*
X0130943Y0082783D01*
X0130733Y0082642D01*
X0130593Y0082432D01*
X0130544Y0082185D01*
X0130593Y0081937D01*
X0130733Y0081727D01*
X0130803Y0081680D01*
Y0080823D01*
X0130792Y0080815D01*
X0130669Y0080632D01*
X0130626Y0080416D01*
Y0078816D01*
X0130669Y0078600D01*
X0130792Y0078417D01*
X0130803Y0078409D01*
Y0078228D01*
X0130733Y0078182D01*
X0130593Y0077972D01*
X0130544Y0077724D01*
X0130593Y0077476D01*
X0130730Y0077270D01*
X0130670Y0077158D01*
X0130364D01*
X0130215Y0077129D01*
X0130089Y0077045D01*
X0129646Y0076602D01*
X0129562Y0076476D01*
X0129533Y0076327D01*
Y0076023D01*
X0129522Y0076015D01*
X0129399Y0075832D01*
X0129356Y0075616D01*
Y0074016D01*
X0129399Y0073800D01*
X0129522Y0073617D01*
X0129705Y0073494D01*
X0129921Y0073451D01*
X0130137Y0073494D01*
X0130320Y0073617D01*
X0130443Y0073800D01*
X0130486Y0074016D01*
Y0075616D01*
X0130443Y0075832D01*
X0130320Y0076015D01*
X0130309Y0076023D01*
Y0076166D01*
X0130525Y0076382D01*
X0133662D01*
Y0076119D01*
X0133662Y0076119D01*
X0133662Y0076027D01*
X0133662D01*
Y0075500D01*
X0135070D01*
Y0076027D01*
D01*
Y0076027D01*
X0135070Y0076027D01*
Y0076119D01*
X0135070D01*
Y0077427D01*
X0133662D01*
Y0077158D01*
X0132982D01*
X0132922Y0077270D01*
X0133059Y0077476D01*
X0133108Y0077724D01*
X0133059Y0077972D01*
X0132919Y0078182D01*
X0132849Y0078228D01*
Y0078409D01*
X0132860Y0078417D01*
X0132983Y0078600D01*
X0133026Y0078816D01*
Y0080416D01*
X0132983Y0080632D01*
X0132860Y0080815D01*
X0132677Y0080938D01*
X0132461Y0080981D01*
X0132245Y0080938D01*
X0132062Y0080815D01*
X0131939Y0080632D01*
X0131896Y0080416D01*
Y0078816D01*
X0131939Y0078600D01*
X0132062Y0078417D01*
X0132073Y0078409D01*
Y0078228D01*
X0132003Y0078182D01*
X0131889Y0078012D01*
X0131762D01*
X0131649Y0078182D01*
X0131579Y0078228D01*
Y0078409D01*
X0131590Y0078417D01*
X0131713Y0078600D01*
X0131756Y0078816D01*
Y0080416D01*
X0131713Y0080632D01*
X0131590Y0080815D01*
X0131579Y0080823D01*
Y0081680D01*
X0131649Y0081727D01*
X0131789Y0081937D01*
X0131838Y0082185D01*
X0131789Y0082432D01*
X0131649Y0082642D01*
X0131439Y0082783D01*
X0131191Y0082832D01*
D02*
G37*
G36*
X0118005Y0077343D02*
X0117478D01*
Y0076766D01*
X0118005D01*
Y0077343D01*
D02*
G37*
G36*
X0055949Y0082253D02*
X0053271D01*
Y0080945D01*
X0053271Y0080945D01*
X0053271Y0080853D01*
X0053271D01*
Y0080326D01*
X0053975D01*
Y0080199D01*
X0054102D01*
Y0079545D01*
X0054857D01*
Y0076874D01*
X0054797Y0076850D01*
X0054611Y0076707D01*
X0054468Y0076521D01*
X0054379Y0076305D01*
X0054348Y0076073D01*
X0054379Y0075841D01*
X0054468Y0075625D01*
X0054611Y0075439D01*
X0054797Y0075296D01*
X0055013Y0075207D01*
X0055245Y0075176D01*
X0055477Y0075207D01*
X0055693Y0075296D01*
X0055879Y0075439D01*
X0056022Y0075625D01*
X0056111Y0075841D01*
X0056142Y0076073D01*
X0056111Y0076305D01*
X0056022Y0076521D01*
X0055879Y0076707D01*
X0055693Y0076850D01*
X0055633Y0076874D01*
Y0079545D01*
X0055949D01*
Y0080853D01*
D01*
Y0080853D01*
X0055949Y0080853D01*
Y0080945D01*
X0055949D01*
Y0081004D01*
X0056021Y0081033D01*
X0056127Y0080963D01*
Y0078946D01*
X0056036Y0078811D01*
X0055997Y0078613D01*
X0056036Y0078415D01*
X0056149Y0078247D01*
X0056317Y0078134D01*
X0056515Y0078095D01*
X0056713Y0078134D01*
X0056881Y0078247D01*
X0056994Y0078415D01*
X0057033Y0078613D01*
X0056994Y0078811D01*
X0056903Y0078946D01*
Y0081153D01*
X0056874Y0081302D01*
X0056790Y0081428D01*
X0056344Y0081874D01*
X0056218Y0081958D01*
X0056069Y0081987D01*
X0055949D01*
Y0082253D01*
D02*
G37*
G36*
X0135070Y0075246D02*
X0134493D01*
Y0074719D01*
X0135070D01*
Y0075246D01*
D02*
G37*
G36*
X0149479Y0075565D02*
X0148082D01*
Y0074930D01*
X0149479D01*
Y0075565D01*
D02*
G37*
G36*
X0151257Y0075811D02*
Y0074930D01*
X0152138D01*
X0152120Y0075068D01*
X0152017Y0075315D01*
X0151855Y0075528D01*
X0151642Y0075690D01*
X0151395Y0075793D01*
X0151257Y0075811D01*
D02*
G37*
G36*
X0126111Y0080981D02*
X0125895Y0080938D01*
X0125712Y0080815D01*
X0125589Y0080632D01*
X0125546Y0080416D01*
Y0078816D01*
X0125589Y0078600D01*
X0125712Y0078417D01*
X0125895Y0078294D01*
X0126111Y0078251D01*
X0126327Y0078294D01*
X0126510Y0078417D01*
X0126633Y0078600D01*
X0126676Y0078816D01*
Y0080416D01*
X0126633Y0080632D01*
X0126510Y0080815D01*
X0126327Y0080938D01*
X0126111Y0080981D01*
D02*
G37*
G36*
X0152273Y0085336D02*
X0152135Y0085318D01*
X0151888Y0085215D01*
X0151675Y0085053D01*
X0151513Y0084840D01*
X0151410Y0084593D01*
X0151392Y0084455D01*
X0152273D01*
Y0085336D01*
D02*
G37*
G36*
X0129921Y0080981D02*
X0129705Y0080938D01*
X0129522Y0080815D01*
X0129399Y0080632D01*
X0129356Y0080416D01*
Y0078816D01*
X0129399Y0078600D01*
X0129522Y0078417D01*
X0129705Y0078294D01*
X0129921Y0078251D01*
X0130137Y0078294D01*
X0130320Y0078417D01*
X0130443Y0078600D01*
X0130486Y0078816D01*
Y0080416D01*
X0130443Y0080632D01*
X0130320Y0080815D01*
X0130137Y0080938D01*
X0129921Y0080981D01*
D02*
G37*
G36*
X0124714Y0079489D02*
X0124276D01*
Y0078816D01*
X0124319Y0078600D01*
X0124442Y0078417D01*
X0124625Y0078294D01*
X0124714Y0078276D01*
Y0079489D01*
D02*
G37*
G36*
X0127381Y0080981D02*
X0127165Y0080938D01*
X0126982Y0080815D01*
X0126859Y0080632D01*
X0126816Y0080416D01*
Y0078816D01*
X0126859Y0078600D01*
X0126982Y0078417D01*
X0127165Y0078294D01*
X0127381Y0078251D01*
X0127597Y0078294D01*
X0127780Y0078417D01*
X0127903Y0078600D01*
X0127946Y0078816D01*
Y0080416D01*
X0127903Y0080632D01*
X0127780Y0080815D01*
X0127597Y0080938D01*
X0127381Y0080981D01*
D02*
G37*
G36*
X0128651D02*
X0128435Y0080938D01*
X0128252Y0080815D01*
X0128129Y0080632D01*
X0128086Y0080416D01*
Y0078816D01*
X0128129Y0078600D01*
X0128252Y0078417D01*
X0128435Y0078294D01*
X0128651Y0078251D01*
X0128867Y0078294D01*
X0129050Y0078417D01*
X0129173Y0078600D01*
X0129216Y0078816D01*
Y0080416D01*
X0129173Y0080632D01*
X0129050Y0080815D01*
X0128867Y0080938D01*
X0128651Y0080981D01*
D02*
G37*
G36*
X0152527Y0085336D02*
Y0084455D01*
X0153408D01*
X0153390Y0084593D01*
X0153287Y0084840D01*
X0153125Y0085053D01*
X0152912Y0085215D01*
X0152665Y0085318D01*
X0152527Y0085336D01*
D02*
G37*
G36*
X0048768Y0062738D02*
X0046643D01*
X0046674Y0062423D01*
X0046803Y0061998D01*
X0047012Y0061607D01*
X0047293Y0061263D01*
X0047637Y0060982D01*
X0048028Y0060772D01*
X0048453Y0060644D01*
X0048768Y0060613D01*
Y0062738D01*
D02*
G37*
G36*
X0051147D02*
X0049022D01*
Y0060613D01*
X0049337Y0060644D01*
X0049762Y0060772D01*
X0050153Y0060982D01*
X0050497Y0061263D01*
X0050778Y0061607D01*
X0050987Y0061998D01*
X0051116Y0062423D01*
X0051147Y0062738D01*
D02*
G37*
G36*
X0173863D02*
X0171738D01*
X0171769Y0062423D01*
X0171898Y0061998D01*
X0172107Y0061607D01*
X0172388Y0061263D01*
X0172732Y0060982D01*
X0173123Y0060772D01*
X0173548Y0060644D01*
X0173863Y0060613D01*
Y0062738D01*
D02*
G37*
G36*
X0145415Y0062658D02*
X0145140Y0062622D01*
X0144883Y0062516D01*
X0144663Y0062347D01*
X0144494Y0062127D01*
X0144388Y0061870D01*
X0144352Y0061595D01*
X0144388Y0061320D01*
X0144494Y0061063D01*
X0144663Y0060843D01*
X0144883Y0060674D01*
X0145140Y0060568D01*
X0145415Y0060532D01*
X0145690Y0060568D01*
X0145947Y0060674D01*
X0146167Y0060843D01*
X0146336Y0061063D01*
X0146442Y0061320D01*
X0146478Y0061595D01*
X0146442Y0061870D01*
X0146336Y0062127D01*
X0146167Y0062347D01*
X0145947Y0062516D01*
X0145690Y0062622D01*
X0145415Y0062658D01*
D02*
G37*
G36*
X0150495D02*
X0150220Y0062622D01*
X0149963Y0062516D01*
X0149743Y0062347D01*
X0149574Y0062127D01*
X0149468Y0061870D01*
X0149432Y0061595D01*
X0149468Y0061320D01*
X0149574Y0061063D01*
X0149743Y0060843D01*
X0149963Y0060674D01*
X0150220Y0060568D01*
X0150495Y0060532D01*
X0150770Y0060568D01*
X0151027Y0060674D01*
X0151247Y0060843D01*
X0151416Y0061063D01*
X0151522Y0061320D01*
X0151558Y0061595D01*
X0151522Y0061870D01*
X0151416Y0062127D01*
X0151247Y0062347D01*
X0151027Y0062516D01*
X0150770Y0062622D01*
X0150495Y0062658D01*
D02*
G37*
G36*
X0156210D02*
X0155935Y0062622D01*
X0155678Y0062516D01*
X0155458Y0062347D01*
X0155289Y0062127D01*
X0155183Y0061870D01*
X0155147Y0061595D01*
X0155183Y0061320D01*
X0155289Y0061063D01*
X0155458Y0060843D01*
X0155678Y0060674D01*
X0155935Y0060568D01*
X0156210Y0060532D01*
X0156485Y0060568D01*
X0156742Y0060674D01*
X0156962Y0060843D01*
X0157131Y0061063D01*
X0157237Y0061320D01*
X0157273Y0061595D01*
X0157237Y0061870D01*
X0157131Y0062127D01*
X0156962Y0062347D01*
X0156742Y0062516D01*
X0156485Y0062622D01*
X0156210Y0062658D01*
D02*
G37*
G36*
X0176242Y0062738D02*
X0174117D01*
Y0060613D01*
X0174432Y0060644D01*
X0174857Y0060772D01*
X0175248Y0060982D01*
X0175592Y0061263D01*
X0175873Y0061607D01*
X0176083Y0061998D01*
X0176211Y0062423D01*
X0176242Y0062738D01*
D02*
G37*
G36*
X0108775Y0063128D02*
X0108510Y0063093D01*
X0108263Y0062990D01*
X0108051Y0062828D01*
X0107888Y0062615D01*
X0107786Y0062368D01*
X0107751Y0062103D01*
X0107786Y0061838D01*
X0107888Y0061591D01*
X0108051Y0061378D01*
X0108263Y0061216D01*
X0108510Y0061113D01*
X0108775Y0061078D01*
X0109041Y0061113D01*
X0109288Y0061216D01*
X0109500Y0061378D01*
X0109663Y0061591D01*
X0109765Y0061838D01*
X0109800Y0062103D01*
X0109765Y0062368D01*
X0109663Y0062615D01*
X0109500Y0062828D01*
X0109288Y0062990D01*
X0109041Y0063093D01*
X0108775Y0063128D01*
D02*
G37*
G36*
X0104076Y0061976D02*
X0103195D01*
X0103214Y0061838D01*
X0103316Y0061591D01*
X0103479Y0061378D01*
X0103691Y0061216D01*
X0103938Y0061113D01*
X0104076Y0061095D01*
Y0061976D01*
D02*
G37*
G36*
X0105212D02*
X0104330D01*
Y0061095D01*
X0104469Y0061113D01*
X0104716Y0061216D01*
X0104928Y0061378D01*
X0105091Y0061591D01*
X0105193Y0061838D01*
X0105212Y0061976D01*
D02*
G37*
G36*
X0153772Y0105788D02*
X0153510Y0105753D01*
X0153265Y0105652D01*
X0153056Y0105491D01*
X0152895Y0105281D01*
X0152793Y0105037D01*
X0152759Y0104775D01*
X0152793Y0104513D01*
X0152895Y0104269D01*
X0153056Y0104059D01*
X0153265Y0103898D01*
X0153510Y0103797D01*
X0153772Y0103762D01*
X0154034Y0103797D01*
X0154278Y0103898D01*
X0154488Y0104059D01*
X0154649Y0104269D01*
X0154750Y0104513D01*
X0154784Y0104775D01*
X0154750Y0105037D01*
X0154649Y0105281D01*
X0154488Y0105491D01*
X0154278Y0105652D01*
X0154034Y0105753D01*
X0153772Y0105788D01*
D02*
G37*
G36*
X0151232D02*
X0150969Y0105753D01*
X0150725Y0105652D01*
X0150516Y0105491D01*
X0150355Y0105281D01*
X0150253Y0105037D01*
X0150219Y0104775D01*
X0150253Y0104513D01*
X0150355Y0104269D01*
X0150516Y0104059D01*
X0150725Y0103898D01*
X0150969Y0103797D01*
X0151232Y0103762D01*
X0151494Y0103797D01*
X0151738Y0103898D01*
X0151948Y0104059D01*
X0152109Y0104269D01*
X0152210Y0104513D01*
X0152244Y0104775D01*
X0152210Y0105037D01*
X0152109Y0105281D01*
X0151948Y0105491D01*
X0151738Y0105652D01*
X0151494Y0105753D01*
X0151232Y0105788D01*
D02*
G37*
G36*
X0148692D02*
X0148430Y0105753D01*
X0148185Y0105652D01*
X0147976Y0105491D01*
X0147815Y0105281D01*
X0147713Y0105037D01*
X0147679Y0104775D01*
X0147713Y0104513D01*
X0147815Y0104269D01*
X0147976Y0104059D01*
X0148185Y0103898D01*
X0148430Y0103797D01*
X0148692Y0103762D01*
X0148954Y0103797D01*
X0149198Y0103898D01*
X0149408Y0104059D01*
X0149569Y0104269D01*
X0149670Y0104513D01*
X0149704Y0104775D01*
X0149670Y0105037D01*
X0149569Y0105281D01*
X0149408Y0105491D01*
X0149198Y0105652D01*
X0148954Y0105753D01*
X0148692Y0105788D01*
D02*
G37*
G36*
X0048768Y0107823D02*
X0046643D01*
X0046674Y0107508D01*
X0046803Y0107083D01*
X0047012Y0106692D01*
X0047293Y0106348D01*
X0047637Y0106067D01*
X0048028Y0105857D01*
X0048453Y0105729D01*
X0048768Y0105698D01*
Y0107823D01*
D02*
G37*
G36*
Y0110202D02*
X0048453Y0110171D01*
X0048028Y0110043D01*
X0047637Y0109833D01*
X0047293Y0109552D01*
X0047012Y0109208D01*
X0046803Y0108817D01*
X0046674Y0108392D01*
X0046643Y0108077D01*
X0048768D01*
Y0110202D01*
D02*
G37*
G36*
X0099757Y0107257D02*
X0099230D01*
Y0106680D01*
X0099757D01*
Y0107257D01*
D02*
G37*
G36*
X0153772Y0108328D02*
X0153510Y0108293D01*
X0153265Y0108192D01*
X0153056Y0108031D01*
X0152895Y0107821D01*
X0152793Y0107577D01*
X0152759Y0107315D01*
X0152793Y0107053D01*
X0152895Y0106809D01*
X0153056Y0106599D01*
X0153265Y0106438D01*
X0153510Y0106337D01*
X0153772Y0106302D01*
X0154034Y0106337D01*
X0154278Y0106438D01*
X0154488Y0106599D01*
X0154649Y0106809D01*
X0154750Y0107053D01*
X0154784Y0107315D01*
X0154750Y0107577D01*
X0154649Y0107821D01*
X0154488Y0108031D01*
X0154278Y0108192D01*
X0154034Y0108293D01*
X0153772Y0108328D01*
D02*
G37*
G36*
X0174117Y0110202D02*
Y0108077D01*
X0176242D01*
X0176211Y0108392D01*
X0176083Y0108817D01*
X0175873Y0109208D01*
X0175592Y0109552D01*
X0175248Y0109833D01*
X0174857Y0110043D01*
X0174432Y0110171D01*
X0174117Y0110202D01*
D02*
G37*
G36*
X0173863D02*
X0173548Y0110171D01*
X0173123Y0110043D01*
X0172732Y0109833D01*
X0172388Y0109552D01*
X0172107Y0109208D01*
X0171898Y0108817D01*
X0171769Y0108392D01*
X0171738Y0108077D01*
X0173863D01*
Y0110202D01*
D02*
G37*
G36*
X0049022D02*
Y0108077D01*
X0051147D01*
X0051116Y0108392D01*
X0050987Y0108817D01*
X0050778Y0109208D01*
X0050497Y0109552D01*
X0050153Y0109833D01*
X0049762Y0110043D01*
X0049337Y0110171D01*
X0049022Y0110202D01*
D02*
G37*
G36*
X0151232Y0108328D02*
X0150969Y0108293D01*
X0150725Y0108192D01*
X0150516Y0108031D01*
X0150355Y0107821D01*
X0150253Y0107577D01*
X0150219Y0107315D01*
X0150253Y0107053D01*
X0150355Y0106809D01*
X0150516Y0106599D01*
X0150725Y0106438D01*
X0150969Y0106337D01*
X0151232Y0106302D01*
X0151494Y0106337D01*
X0151738Y0106438D01*
X0151948Y0106599D01*
X0152109Y0106809D01*
X0152210Y0107053D01*
X0152244Y0107315D01*
X0152210Y0107577D01*
X0152109Y0107821D01*
X0151948Y0108031D01*
X0151738Y0108192D01*
X0151494Y0108293D01*
X0151232Y0108328D01*
D02*
G37*
G36*
X0176242Y0107823D02*
X0174117D01*
Y0105698D01*
X0174432Y0105729D01*
X0174857Y0105857D01*
X0175248Y0106067D01*
X0175592Y0106348D01*
X0175873Y0106692D01*
X0176083Y0107083D01*
X0176211Y0107508D01*
X0176242Y0107823D01*
D02*
G37*
G36*
X0173863D02*
X0171738D01*
X0171769Y0107508D01*
X0171898Y0107083D01*
X0172107Y0106692D01*
X0172388Y0106348D01*
X0172732Y0106067D01*
X0173123Y0105857D01*
X0173548Y0105729D01*
X0173863Y0105698D01*
Y0107823D01*
D02*
G37*
G36*
X0051147D02*
X0049022D01*
Y0105698D01*
X0049337Y0105729D01*
X0049762Y0105857D01*
X0050153Y0106067D01*
X0050497Y0106348D01*
X0050778Y0106692D01*
X0050987Y0107083D01*
X0051116Y0107508D01*
X0051147Y0107823D01*
D02*
G37*
G36*
X0148692Y0108328D02*
X0148430Y0108293D01*
X0148185Y0108192D01*
X0147976Y0108031D01*
X0147815Y0107821D01*
X0147713Y0107577D01*
X0147679Y0107315D01*
X0147713Y0107053D01*
X0147815Y0106809D01*
X0147976Y0106599D01*
X0148185Y0106438D01*
X0148430Y0106337D01*
X0148692Y0106302D01*
X0148954Y0106337D01*
X0149198Y0106438D01*
X0149408Y0106599D01*
X0149569Y0106809D01*
X0149670Y0107053D01*
X0149704Y0107315D01*
X0149670Y0107577D01*
X0149569Y0107821D01*
X0149408Y0108031D01*
X0149198Y0108192D01*
X0148954Y0108293D01*
X0148692Y0108328D01*
D02*
G37*
G36*
X0068497Y0108629D02*
X0065789D01*
Y0106470D01*
X0064482Y0105163D01*
X0059690D01*
X0059541Y0105134D01*
X0059415Y0105050D01*
X0057935Y0103570D01*
X0057851Y0103444D01*
X0057822Y0103295D01*
Y0103081D01*
X0056446D01*
Y0101773D01*
X0056446Y0101773D01*
X0056446Y0101681D01*
X0056446D01*
Y0101154D01*
X0057150D01*
Y0101027D01*
X0057277D01*
Y0100373D01*
X0057822D01*
Y0096975D01*
X0057806D01*
Y0095267D01*
X0058614D01*
Y0096121D01*
X0058806D01*
Y0095267D01*
X0059806D01*
Y0095267D01*
X0061822D01*
Y0093902D01*
X0061751Y0093797D01*
X0061712Y0093599D01*
X0061751Y0093401D01*
X0061864Y0093233D01*
X0062032Y0093120D01*
X0062230Y0093081D01*
X0062428Y0093120D01*
X0062596Y0093233D01*
X0062700Y0093388D01*
X0062822Y0093351D01*
Y0090685D01*
X0061311D01*
X0061298Y0090812D01*
X0061412Y0090834D01*
X0061580Y0090947D01*
X0061693Y0091115D01*
X0061732Y0091313D01*
X0061693Y0091511D01*
X0061580Y0091679D01*
X0061412Y0091792D01*
X0061253Y0091823D01*
X0059731Y0093346D01*
X0059605Y0093430D01*
X0059456Y0093459D01*
X0057514D01*
Y0093667D01*
Y0093683D01*
X0059901D01*
X0060036Y0093592D01*
X0060234Y0093553D01*
X0060432Y0093592D01*
X0060600Y0093705D01*
X0060713Y0093873D01*
X0060752Y0094071D01*
X0060713Y0094269D01*
X0060600Y0094437D01*
X0060432Y0094550D01*
X0060234Y0094589D01*
X0060036Y0094550D01*
X0059901Y0094459D01*
X0057514D01*
Y0094975D01*
X0055806D01*
Y0094167D01*
Y0093975D01*
Y0093959D01*
X0055217D01*
X0055068Y0093930D01*
X0054942Y0093846D01*
X0054317Y0093220D01*
X0054158Y0093189D01*
X0053990Y0093076D01*
X0053877Y0092908D01*
X0053838Y0092710D01*
X0053877Y0092512D01*
X0053990Y0092344D01*
X0054158Y0092231D01*
X0054356Y0092192D01*
X0054554Y0092231D01*
X0054722Y0092344D01*
X0054835Y0092512D01*
X0054866Y0092671D01*
X0055378Y0093183D01*
X0055806D01*
Y0093167D01*
Y0092667D01*
Y0092167D01*
Y0091975D01*
Y0091959D01*
X0054868D01*
X0054719Y0091930D01*
X0054593Y0091846D01*
X0053704Y0090957D01*
X0053620Y0090831D01*
X0053591Y0090682D01*
Y0087968D01*
X0053271D01*
Y0086660D01*
X0053271Y0086660D01*
X0053271Y0086568D01*
X0053271D01*
Y0085260D01*
X0054679D01*
Y0085526D01*
X0055739D01*
X0055874Y0085435D01*
X0056033Y0085404D01*
X0057397Y0084040D01*
Y0082253D01*
X0057081D01*
Y0080945D01*
X0057081Y0080945D01*
X0057081Y0080853D01*
X0057081D01*
Y0079545D01*
X0057397D01*
Y0079327D01*
X0057306Y0079192D01*
X0057267Y0078994D01*
X0057306Y0078796D01*
X0057397Y0078661D01*
Y0076874D01*
X0057337Y0076850D01*
X0057151Y0076707D01*
X0057008Y0076521D01*
X0056919Y0076305D01*
X0056888Y0076073D01*
X0056919Y0075841D01*
X0057008Y0075625D01*
X0057151Y0075439D01*
X0057337Y0075296D01*
X0057553Y0075207D01*
X0057672Y0075191D01*
X0057664Y0075064D01*
X0057658D01*
X0057509Y0075035D01*
X0057383Y0074951D01*
X0056807Y0074374D01*
X0056747Y0074399D01*
X0056515Y0074430D01*
X0056283Y0074399D01*
X0056067Y0074310D01*
X0055881Y0074167D01*
X0055738Y0073981D01*
X0055649Y0073765D01*
X0055618Y0073533D01*
X0055649Y0073301D01*
X0055738Y0073085D01*
X0055881Y0072899D01*
X0056067Y0072756D01*
X0056283Y0072667D01*
X0056515Y0072636D01*
X0056747Y0072667D01*
X0056963Y0072756D01*
X0057149Y0072899D01*
X0057292Y0073085D01*
X0057381Y0073301D01*
X0057412Y0073533D01*
X0057381Y0073765D01*
X0057356Y0073825D01*
X0057819Y0074288D01*
X0058293D01*
X0058403Y0074310D01*
X0058456Y0074194D01*
X0058421Y0074167D01*
X0058278Y0073981D01*
X0058189Y0073765D01*
X0058158Y0073533D01*
X0058189Y0073301D01*
X0058278Y0073085D01*
X0058421Y0072899D01*
X0058607Y0072756D01*
X0058823Y0072667D01*
X0059055Y0072636D01*
X0059287Y0072667D01*
X0059503Y0072756D01*
X0059689Y0072899D01*
X0059832Y0073085D01*
X0059921Y0073301D01*
X0059952Y0073533D01*
X0059921Y0073765D01*
X0059896Y0073825D01*
X0060486Y0074415D01*
X0060960D01*
X0061109Y0074444D01*
X0061235Y0074528D01*
X0061870Y0075163D01*
X0061954Y0075289D01*
X0061983Y0075438D01*
Y0075564D01*
X0062104Y0075605D01*
X0062231Y0075439D01*
X0062417Y0075296D01*
X0062602Y0075220D01*
X0062614Y0075093D01*
X0062590Y0075078D01*
X0061887Y0074374D01*
X0061827Y0074399D01*
X0061595Y0074430D01*
X0061363Y0074399D01*
X0061147Y0074310D01*
X0060961Y0074167D01*
X0060818Y0073981D01*
X0060729Y0073765D01*
X0060698Y0073533D01*
X0060729Y0073301D01*
X0060818Y0073085D01*
X0060961Y0072899D01*
X0061147Y0072756D01*
X0061363Y0072667D01*
X0061595Y0072636D01*
X0061827Y0072667D01*
X0062043Y0072756D01*
X0062229Y0072899D01*
X0062372Y0073085D01*
X0062461Y0073301D01*
X0062492Y0073533D01*
X0062461Y0073765D01*
X0062436Y0073825D01*
X0063026Y0074415D01*
X0063626D01*
X0063628Y0074407D01*
X0063653Y0074284D01*
X0063501Y0074167D01*
X0063358Y0073981D01*
X0063269Y0073765D01*
X0063238Y0073533D01*
X0063269Y0073301D01*
X0063358Y0073085D01*
X0063501Y0072899D01*
X0063687Y0072756D01*
X0063903Y0072667D01*
X0064135Y0072636D01*
X0064361Y0072666D01*
X0065339Y0071689D01*
X0065486Y0071590D01*
X0065659Y0071556D01*
X0065659Y0071556D01*
X0068769D01*
X0068794Y0071431D01*
X0068575Y0071340D01*
X0068309Y0071137D01*
X0068106Y0070871D01*
X0067978Y0070563D01*
X0067934Y0070231D01*
X0067978Y0069899D01*
X0068106Y0069591D01*
X0068309Y0069325D01*
X0068575Y0069122D01*
X0068883Y0068994D01*
X0069215Y0068950D01*
X0069547Y0068994D01*
X0069855Y0069122D01*
X0070121Y0069325D01*
X0070324Y0069591D01*
X0070452Y0069899D01*
X0070496Y0070231D01*
X0070452Y0070563D01*
X0070324Y0070871D01*
X0070121Y0071137D01*
X0069855Y0071340D01*
X0069636Y0071431D01*
X0069661Y0071556D01*
X0072253D01*
Y0063637D01*
X0070612D01*
X0070414Y0063598D01*
X0070246Y0063485D01*
X0068873Y0062113D01*
X0068253D01*
X0068219Y0062194D01*
X0068206Y0062233D01*
X0068416Y0062394D01*
X0068578Y0062607D01*
X0068681Y0062854D01*
X0068716Y0063119D01*
X0068681Y0063384D01*
X0068578Y0063631D01*
X0068416Y0063844D01*
X0068203Y0064006D01*
X0067956Y0064109D01*
X0067691Y0064144D01*
X0067426Y0064109D01*
X0067179Y0064006D01*
X0066966Y0063844D01*
X0066804Y0063631D01*
X0066701Y0063384D01*
X0066666Y0063119D01*
X0066701Y0062854D01*
X0066804Y0062607D01*
X0066966Y0062394D01*
X0067176Y0062233D01*
X0067163Y0062194D01*
X0067130Y0062113D01*
X0065669D01*
Y0062236D01*
X0065876Y0062394D01*
X0066038Y0062607D01*
X0066141Y0062854D01*
X0066176Y0063119D01*
X0066141Y0063384D01*
X0066038Y0063631D01*
X0065876Y0063844D01*
X0065663Y0064006D01*
X0065416Y0064109D01*
X0065151Y0064144D01*
X0064886Y0064109D01*
X0064639Y0064006D01*
X0064426Y0063844D01*
X0064264Y0063631D01*
X0064161Y0063384D01*
X0064126Y0063119D01*
X0064161Y0062854D01*
X0064264Y0062607D01*
X0064426Y0062394D01*
X0064633Y0062236D01*
Y0062113D01*
X0057331D01*
X0057297Y0062194D01*
X0057284Y0062233D01*
X0057494Y0062394D01*
X0057656Y0062607D01*
X0057759Y0062854D01*
X0057794Y0063119D01*
X0057759Y0063384D01*
X0057656Y0063631D01*
X0057494Y0063844D01*
X0057281Y0064006D01*
X0057034Y0064109D01*
X0056769Y0064144D01*
X0056504Y0064109D01*
X0056257Y0064006D01*
X0056044Y0063844D01*
X0055882Y0063631D01*
X0055779Y0063384D01*
X0055744Y0063119D01*
X0055779Y0062854D01*
X0055882Y0062607D01*
X0056044Y0062394D01*
X0056254Y0062233D01*
X0056241Y0062194D01*
X0056208Y0062113D01*
X0055968D01*
X0055220Y0062861D01*
X0055254Y0063119D01*
X0055219Y0063384D01*
X0055116Y0063631D01*
X0054954Y0063844D01*
X0054741Y0064006D01*
X0054494Y0064109D01*
X0054229Y0064144D01*
X0053964Y0064109D01*
X0053717Y0064006D01*
X0053504Y0063844D01*
X0053342Y0063631D01*
X0053239Y0063384D01*
X0053204Y0063119D01*
X0053239Y0062854D01*
X0053342Y0062607D01*
X0053504Y0062394D01*
X0053717Y0062232D01*
X0053964Y0062129D01*
X0054229Y0062094D01*
X0054487Y0062128D01*
X0055387Y0061229D01*
X0055555Y0061116D01*
X0055753Y0061077D01*
X0069088D01*
X0069286Y0061116D01*
X0069454Y0061229D01*
X0069454Y0061229D01*
X0069454Y0061229D01*
X0070827Y0062601D01*
X0071137D01*
X0071178Y0062481D01*
X0071003Y0062347D01*
X0070834Y0062127D01*
X0070728Y0061870D01*
X0070692Y0061595D01*
X0070728Y0061320D01*
X0070834Y0061063D01*
X0071003Y0060843D01*
X0071223Y0060674D01*
X0071480Y0060568D01*
X0071755Y0060532D01*
X0072030Y0060568D01*
X0072287Y0060674D01*
X0072507Y0060843D01*
X0072676Y0061063D01*
X0072782Y0061320D01*
X0072818Y0061595D01*
X0072782Y0061870D01*
X0072676Y0062127D01*
X0072507Y0062347D01*
X0072332Y0062481D01*
X0072373Y0062601D01*
X0073677D01*
X0073718Y0062481D01*
X0073543Y0062347D01*
X0073374Y0062127D01*
X0073268Y0061870D01*
X0073232Y0061595D01*
X0073268Y0061320D01*
X0073374Y0061063D01*
X0073543Y0060843D01*
X0073763Y0060674D01*
X0074020Y0060568D01*
X0074295Y0060532D01*
X0074570Y0060568D01*
X0074827Y0060674D01*
X0075047Y0060843D01*
X0075216Y0061063D01*
X0075322Y0061320D01*
X0075358Y0061595D01*
X0075322Y0061870D01*
X0075216Y0062127D01*
X0075047Y0062347D01*
X0074872Y0062481D01*
X0074913Y0062601D01*
X0091457D01*
X0091498Y0062481D01*
X0091323Y0062347D01*
X0091154Y0062127D01*
X0091048Y0061870D01*
X0091012Y0061595D01*
X0091048Y0061320D01*
X0091154Y0061063D01*
X0091323Y0060843D01*
X0091543Y0060674D01*
X0091800Y0060568D01*
X0092075Y0060532D01*
X0092350Y0060568D01*
X0092607Y0060674D01*
X0092827Y0060843D01*
X0092996Y0061063D01*
X0093102Y0061320D01*
X0093138Y0061595D01*
X0093102Y0061870D01*
X0092996Y0062127D01*
X0092827Y0062347D01*
X0092652Y0062481D01*
X0092693Y0062601D01*
X0093997D01*
X0094038Y0062481D01*
X0093863Y0062347D01*
X0093694Y0062127D01*
X0093588Y0061870D01*
X0093552Y0061595D01*
X0093588Y0061320D01*
X0093694Y0061063D01*
X0093863Y0060843D01*
X0094083Y0060674D01*
X0094340Y0060568D01*
X0094615Y0060532D01*
X0094890Y0060568D01*
X0095147Y0060674D01*
X0095367Y0060843D01*
X0095536Y0061063D01*
X0095642Y0061320D01*
X0095678Y0061595D01*
X0095642Y0061870D01*
X0095536Y0062127D01*
X0095367Y0062347D01*
X0095192Y0062481D01*
X0095233Y0062601D01*
X0096537D01*
X0096578Y0062481D01*
X0096403Y0062347D01*
X0096234Y0062127D01*
X0096128Y0061870D01*
X0096092Y0061595D01*
X0096128Y0061320D01*
X0096234Y0061063D01*
X0096403Y0060843D01*
X0096623Y0060674D01*
X0096880Y0060568D01*
X0097155Y0060532D01*
X0097430Y0060568D01*
X0097687Y0060674D01*
X0097907Y0060843D01*
X0098076Y0061063D01*
X0098182Y0061320D01*
X0098218Y0061595D01*
X0098182Y0061870D01*
X0098076Y0062127D01*
X0097907Y0062347D01*
X0097732Y0062481D01*
X0097773Y0062601D01*
X0099077D01*
X0099118Y0062481D01*
X0098943Y0062347D01*
X0098774Y0062127D01*
X0098668Y0061870D01*
X0098632Y0061595D01*
X0098668Y0061320D01*
X0098774Y0061063D01*
X0098943Y0060843D01*
X0099163Y0060674D01*
X0099420Y0060568D01*
X0099695Y0060532D01*
X0099970Y0060568D01*
X0100227Y0060674D01*
X0100447Y0060843D01*
X0100616Y0061063D01*
X0100722Y0061320D01*
X0100758Y0061595D01*
X0100722Y0061870D01*
X0100616Y0062127D01*
X0100447Y0062347D01*
X0100227Y0062516D01*
X0100148Y0062548D01*
Y0062883D01*
X0100174Y0062921D01*
X0100213Y0063119D01*
Y0064301D01*
X0105498Y0069586D01*
X0118497D01*
X0118655Y0069379D01*
X0118797Y0069270D01*
Y0064643D01*
X0118842Y0064420D01*
X0118968Y0064231D01*
X0118968Y0064231D01*
X0118968Y0064231D01*
X0121762Y0061437D01*
X0121762D01*
X0121762Y0061437D01*
X0121762Y0061437D01*
Y0061437D01*
X0121951Y0061311D01*
X0122174Y0061266D01*
X0142240D01*
X0142463Y0061311D01*
X0142652Y0061437D01*
X0142652Y0061437D01*
X0142652Y0061437D01*
X0144005Y0062790D01*
X0147502D01*
Y0062548D01*
X0147423Y0062516D01*
X0147203Y0062347D01*
X0147034Y0062127D01*
X0146928Y0061870D01*
X0146892Y0061595D01*
X0146928Y0061320D01*
X0147034Y0061063D01*
X0147203Y0060843D01*
X0147423Y0060674D01*
X0147680Y0060568D01*
X0147955Y0060532D01*
X0148230Y0060568D01*
X0148487Y0060674D01*
X0148707Y0060843D01*
X0148876Y0061063D01*
X0148982Y0061320D01*
X0149018Y0061595D01*
X0148982Y0061870D01*
X0148876Y0062127D01*
X0148707Y0062347D01*
X0148487Y0062516D01*
X0148408Y0062548D01*
Y0062790D01*
X0152582D01*
Y0062548D01*
X0152503Y0062516D01*
X0152283Y0062347D01*
X0152114Y0062127D01*
X0152008Y0061870D01*
X0151972Y0061595D01*
X0152008Y0061320D01*
X0152114Y0061063D01*
X0152283Y0060843D01*
X0152503Y0060674D01*
X0152760Y0060568D01*
X0153035Y0060532D01*
X0153310Y0060568D01*
X0153567Y0060674D01*
X0153787Y0060843D01*
X0153956Y0061063D01*
X0154062Y0061320D01*
X0154098Y0061595D01*
X0154062Y0061870D01*
X0153956Y0062127D01*
X0153787Y0062347D01*
X0153567Y0062516D01*
X0153488Y0062548D01*
Y0062790D01*
X0156731D01*
X0157715Y0061806D01*
X0157687Y0061595D01*
X0157723Y0061320D01*
X0157829Y0061063D01*
X0157998Y0060843D01*
X0158218Y0060674D01*
X0158475Y0060568D01*
X0158750Y0060532D01*
X0159025Y0060568D01*
X0159282Y0060674D01*
X0159502Y0060843D01*
X0159671Y0061063D01*
X0159777Y0061320D01*
X0159813Y0061595D01*
X0159777Y0061870D01*
X0159671Y0062127D01*
X0159502Y0062347D01*
X0159282Y0062516D01*
X0159025Y0062622D01*
X0158750Y0062658D01*
X0158539Y0062630D01*
X0157384Y0063785D01*
X0157195Y0063911D01*
X0156972Y0063956D01*
X0144347D01*
Y0080785D01*
X0150101Y0086539D01*
X0151566D01*
X0151675Y0086397D01*
X0151888Y0086235D01*
X0152135Y0086132D01*
X0152400Y0086097D01*
X0152665Y0086132D01*
X0152912Y0086235D01*
X0153125Y0086397D01*
X0153287Y0086610D01*
X0153390Y0086857D01*
X0153425Y0087122D01*
X0153390Y0087387D01*
X0153287Y0087634D01*
X0153162Y0087798D01*
Y0087915D01*
X0159513D01*
Y0087044D01*
X0160834D01*
Y0084152D01*
X0160663D01*
Y0081244D01*
X0162171D01*
Y0084152D01*
X0162000D01*
Y0087044D01*
X0163321D01*
Y0089952D01*
X0162694D01*
Y0090736D01*
X0162895D01*
Y0090736D01*
X0162895D01*
X0162895Y0090736D01*
X0162987D01*
Y0090736D01*
X0163514D01*
Y0091440D01*
Y0092144D01*
X0162987D01*
D01*
D01*
X0162987Y0092144D01*
X0162895D01*
Y0092144D01*
X0161587D01*
Y0090736D01*
X0161788D01*
Y0089952D01*
X0159513D01*
Y0089081D01*
X0153162D01*
Y0090170D01*
X0151638D01*
Y0088399D01*
X0145103D01*
Y0088600D01*
D01*
Y0088600D01*
X0145103Y0088600D01*
Y0088692D01*
X0145103D01*
Y0090000D01*
D01*
Y0090000D01*
X0145103Y0090000D01*
Y0090086D01*
X0145103D01*
Y0091394D01*
D01*
Y0091394D01*
X0145103Y0091394D01*
Y0091486D01*
X0145103D01*
Y0092013D01*
X0143695D01*
Y0091486D01*
X0143695Y0091486D01*
X0143695Y0091394D01*
X0143695D01*
Y0091193D01*
X0142419D01*
X0142407Y0091320D01*
X0142558Y0091350D01*
X0142768Y0091490D01*
X0142908Y0091700D01*
X0142957Y0091948D01*
X0142908Y0092196D01*
X0142768Y0092406D01*
X0142698Y0092452D01*
Y0092689D01*
X0142818D01*
Y0094697D01*
X0141802D01*
Y0092689D01*
X0141922D01*
Y0092452D01*
X0141852Y0092406D01*
X0141712Y0092196D01*
X0141663Y0091948D01*
X0141712Y0091700D01*
X0141752Y0091640D01*
X0141654Y0091560D01*
X0141298Y0091915D01*
Y0092689D01*
X0141418D01*
Y0094697D01*
X0140402D01*
Y0092689D01*
X0140522D01*
Y0091754D01*
X0140522Y0091754D01*
X0140522D01*
X0140551Y0091605D01*
X0140635Y0091479D01*
X0141584Y0090530D01*
X0141710Y0090446D01*
X0141859Y0090417D01*
X0143695D01*
Y0090086D01*
X0143695Y0090086D01*
X0143695Y0090000D01*
X0143695D01*
Y0088692D01*
X0143695Y0088692D01*
X0143695Y0088600D01*
X0143695D01*
Y0087292D01*
X0145103D01*
Y0087493D01*
X0149241D01*
X0149289Y0087375D01*
X0143352Y0081438D01*
X0143226Y0081249D01*
X0143181Y0081026D01*
Y0063614D01*
X0141999Y0062432D01*
X0122415D01*
X0119963Y0064884D01*
Y0069270D01*
X0120105Y0069379D01*
X0120267Y0069592D01*
X0120370Y0069839D01*
X0120405Y0070104D01*
X0120370Y0070369D01*
X0120267Y0070616D01*
X0120105Y0070829D01*
X0119898Y0070987D01*
Y0080528D01*
X0119923Y0080548D01*
X0119993Y0080638D01*
X0120708D01*
Y0080437D01*
X0120708Y0080437D01*
X0120708Y0080345D01*
X0120708D01*
Y0079037D01*
X0121024D01*
Y0078824D01*
X0120708D01*
Y0077516D01*
X0120708Y0077516D01*
X0120708Y0077424D01*
X0120708D01*
Y0076116D01*
X0122116D01*
Y0076382D01*
X0124237D01*
X0124453Y0076166D01*
Y0076023D01*
X0124442Y0076015D01*
X0124319Y0075832D01*
X0124276Y0075616D01*
Y0074016D01*
X0124319Y0073800D01*
X0124442Y0073617D01*
X0124625Y0073494D01*
X0124841Y0073451D01*
X0125057Y0073494D01*
X0125240Y0073617D01*
X0125363Y0073800D01*
X0125406Y0074016D01*
Y0075616D01*
X0125363Y0075832D01*
X0125240Y0076015D01*
X0125229Y0076023D01*
Y0076327D01*
X0125200Y0076476D01*
X0125116Y0076602D01*
X0124673Y0077045D01*
X0124547Y0077129D01*
X0124398Y0077158D01*
X0122116D01*
Y0077424D01*
D01*
Y0077424D01*
X0122116Y0077424D01*
Y0077516D01*
X0122116D01*
Y0078824D01*
X0121800D01*
Y0079037D01*
X0122116D01*
Y0079238D01*
X0123006D01*
Y0078816D01*
X0123049Y0078600D01*
X0123172Y0078417D01*
X0123355Y0078294D01*
X0123571Y0078251D01*
X0123787Y0078294D01*
X0123970Y0078417D01*
X0124093Y0078600D01*
X0124136Y0078816D01*
Y0080416D01*
X0124093Y0080632D01*
X0123970Y0080815D01*
X0123787Y0080938D01*
X0123571Y0080981D01*
X0123355Y0080938D01*
X0123172Y0080815D01*
X0123049Y0080632D01*
X0123006Y0080416D01*
Y0080144D01*
X0122116D01*
Y0080345D01*
D01*
Y0080345D01*
X0122116Y0080345D01*
Y0080437D01*
X0122116D01*
Y0081745D01*
X0120708D01*
Y0081544D01*
X0119993D01*
X0119923Y0081634D01*
X0119764Y0081757D01*
X0119579Y0081833D01*
X0119380Y0081860D01*
X0119181Y0081833D01*
X0118996Y0081757D01*
X0118837Y0081634D01*
X0118767Y0081544D01*
X0118048D01*
X0118048Y0081544D01*
X0117875Y0081510D01*
X0117801Y0081461D01*
X0117728Y0081411D01*
X0117728Y0081411D01*
X0117031Y0080714D01*
X0116932Y0080567D01*
X0116898Y0080394D01*
Y0079571D01*
X0116697D01*
D01*
D01*
X0116697Y0079571D01*
X0116605D01*
Y0079571D01*
X0116339D01*
Y0080439D01*
X0116430Y0080574D01*
X0116469Y0080772D01*
X0116430Y0080970D01*
X0116317Y0081138D01*
X0116149Y0081251D01*
X0115951Y0081290D01*
X0115753Y0081251D01*
X0115585Y0081138D01*
X0115472Y0080970D01*
X0115433Y0080772D01*
X0115472Y0080574D01*
X0115563Y0080439D01*
Y0079571D01*
X0115297D01*
Y0078163D01*
X0115297D01*
Y0076766D01*
X0116605D01*
Y0076766D01*
X0116605D01*
X0116605Y0076766D01*
X0116697D01*
Y0076766D01*
X0117224D01*
Y0077470D01*
X0117351D01*
Y0077597D01*
X0118005D01*
Y0078174D01*
X0118005D01*
Y0079571D01*
X0117804D01*
Y0080206D01*
X0118236Y0080638D01*
X0118767D01*
X0118837Y0080548D01*
X0118862Y0080528D01*
Y0070987D01*
X0118655Y0070829D01*
X0118497Y0070622D01*
X0108276D01*
Y0070924D01*
X0108542D01*
Y0072332D01*
X0107234D01*
D01*
D01*
X0107234Y0072332D01*
X0107142D01*
Y0072332D01*
X0105834D01*
Y0072016D01*
X0105232D01*
X0105185Y0072086D01*
X0104975Y0072226D01*
X0104728Y0072275D01*
X0104646Y0072259D01*
X0104433Y0072471D01*
Y0080999D01*
X0104532Y0081080D01*
X0104545Y0081077D01*
X0104703Y0081108D01*
X0104795Y0081170D01*
X0104887Y0081108D01*
X0105045Y0081077D01*
X0105203Y0081108D01*
X0105295Y0081170D01*
X0105387Y0081108D01*
X0105545Y0081077D01*
X0105703Y0081108D01*
X0105795Y0081170D01*
X0105887Y0081108D01*
X0106045Y0081077D01*
X0106203Y0081108D01*
X0106295Y0081170D01*
X0106387Y0081108D01*
X0106545Y0081077D01*
X0106703Y0081108D01*
X0106795Y0081170D01*
X0106887Y0081108D01*
X0107045Y0081077D01*
X0107203Y0081108D01*
X0107295Y0081170D01*
X0107387Y0081108D01*
X0107418Y0081102D01*
Y0081320D01*
X0107426Y0081331D01*
X0107457Y0081489D01*
Y0082239D01*
X0107633D01*
Y0081489D01*
X0107664Y0081331D01*
X0107672Y0081320D01*
Y0081102D01*
X0107703Y0081108D01*
X0107795Y0081170D01*
X0107887Y0081108D01*
X0108045Y0081077D01*
X0108203Y0081108D01*
X0108295Y0081170D01*
X0108387Y0081108D01*
X0108545Y0081077D01*
X0108703Y0081108D01*
X0108795Y0081170D01*
X0108887Y0081108D01*
X0109045Y0081077D01*
X0109203Y0081108D01*
X0109295Y0081170D01*
X0109387Y0081108D01*
X0109545Y0081077D01*
X0109703Y0081108D01*
X0109795Y0081170D01*
X0109887Y0081108D01*
X0110045Y0081077D01*
X0110203Y0081108D01*
X0110295Y0081170D01*
X0110387Y0081108D01*
X0110545Y0081077D01*
X0110703Y0081108D01*
X0110795Y0081170D01*
X0110887Y0081108D01*
X0111045Y0081077D01*
X0111058Y0081080D01*
X0111097Y0081048D01*
X0111089Y0081055D01*
X0111157Y0080987D01*
X0111157Y0080987D01*
D01*
X0111186Y0080838D01*
X0111270Y0080712D01*
X0111612Y0080370D01*
X0111738Y0080286D01*
X0111887Y0080257D01*
X0112903D01*
X0113052Y0080286D01*
X0113178Y0080370D01*
X0114969Y0082162D01*
X0117475D01*
X0117624Y0082191D01*
X0117750Y0082275D01*
X0119274Y0083799D01*
X0119358Y0083925D01*
X0119387Y0084074D01*
Y0085090D01*
X0119358Y0085239D01*
X0119274Y0085365D01*
X0118004Y0086635D01*
X0117878Y0086719D01*
X0117729Y0086748D01*
X0116590D01*
X0116514Y0086850D01*
X0116529Y0086901D01*
X0133149D01*
X0135259Y0084791D01*
X0135243Y0084709D01*
X0135292Y0084461D01*
X0135432Y0084251D01*
X0135642Y0084111D01*
X0135890Y0084062D01*
X0136138Y0084111D01*
X0136348Y0084251D01*
X0136488Y0084461D01*
X0136509Y0084566D01*
X0136616Y0084673D01*
X0136640Y0084683D01*
X0136757Y0084604D01*
X0136906Y0084575D01*
X0140589D01*
X0140738Y0084604D01*
X0140864Y0084688D01*
X0140864Y0084688D01*
X0140864Y0084688D01*
X0141235Y0085059D01*
X0141319Y0085185D01*
X0141348Y0085334D01*
Y0085334D01*
X0141348Y0085334D01*
X0141358Y0085339D01*
X0141468D01*
Y0087347D01*
X0140452D01*
Y0085375D01*
X0140428Y0085351D01*
X0140168D01*
Y0087347D01*
X0140048D01*
Y0087543D01*
X0140019Y0087692D01*
X0139935Y0087818D01*
X0139612Y0088140D01*
X0139661Y0088258D01*
X0140936D01*
X0141780Y0087414D01*
X0141752Y0087347D01*
X0141752D01*
X0141752Y0087347D01*
Y0085339D01*
X0142768D01*
Y0087347D01*
X0142648D01*
Y0087483D01*
X0142619Y0087632D01*
X0142535Y0087758D01*
X0141372Y0088921D01*
X0141246Y0089005D01*
X0141097Y0089034D01*
X0136888D01*
X0136876Y0089161D01*
X0137027Y0089191D01*
X0137237Y0089331D01*
X0137377Y0089541D01*
X0137426Y0089789D01*
X0137420Y0089820D01*
X0138610Y0090818D01*
X0138620Y0090832D01*
X0138635Y0090841D01*
X0138668Y0090891D01*
X0138705Y0090937D01*
X0138709Y0090953D01*
X0138719Y0090967D01*
X0138730Y0091025D01*
X0138747Y0091082D01*
X0138745Y0091099D01*
X0138748Y0091116D01*
Y0092689D01*
X0138868D01*
Y0094697D01*
X0137852D01*
Y0092689D01*
X0137972D01*
Y0091297D01*
X0136914Y0090410D01*
X0136779Y0090436D01*
X0136531Y0090387D01*
X0136321Y0090247D01*
X0136181Y0090037D01*
X0136132Y0089789D01*
X0136139Y0089754D01*
X0136027Y0089694D01*
X0135657Y0090064D01*
X0135531Y0090148D01*
X0135382Y0090177D01*
X0122262D01*
X0122213Y0090295D01*
X0136305Y0104387D01*
X0145148D01*
Y0103771D01*
X0147156D01*
Y0105779D01*
X0145148D01*
Y0105163D01*
X0136486D01*
X0136437Y0105281D01*
X0138083Y0106927D01*
X0145226D01*
X0145275Y0106809D01*
X0145436Y0106599D01*
X0145645Y0106438D01*
X0145889Y0106337D01*
X0146152Y0106302D01*
X0146414Y0106337D01*
X0146658Y0106438D01*
X0146868Y0106599D01*
X0147029Y0106809D01*
X0147130Y0107053D01*
X0147164Y0107315D01*
X0147130Y0107577D01*
X0147029Y0107821D01*
X0146868Y0108031D01*
X0146658Y0108192D01*
X0146414Y0108293D01*
X0146152Y0108328D01*
X0145889Y0108293D01*
X0145645Y0108192D01*
X0145436Y0108031D01*
X0145275Y0107821D01*
X0145226Y0107703D01*
X0137922D01*
X0137773Y0107674D01*
X0137647Y0107590D01*
X0121235Y0091177D01*
X0119299D01*
X0119251Y0091295D01*
X0131802Y0103846D01*
X0131919Y0103797D01*
X0132182Y0103762D01*
X0132444Y0103797D01*
X0132688Y0103898D01*
X0132898Y0104059D01*
X0133059Y0104269D01*
X0133160Y0104513D01*
X0133194Y0104775D01*
X0133160Y0105037D01*
X0133059Y0105281D01*
X0132898Y0105491D01*
X0132688Y0105652D01*
X0132444Y0105753D01*
X0132182Y0105788D01*
X0131919Y0105753D01*
X0131675Y0105652D01*
X0131466Y0105491D01*
X0131446Y0105465D01*
X0131325Y0105506D01*
Y0106138D01*
X0131647Y0106460D01*
X0131675Y0106438D01*
X0131919Y0106337D01*
X0132182Y0106302D01*
X0132444Y0106337D01*
X0132688Y0106438D01*
X0132898Y0106599D01*
X0133059Y0106809D01*
X0133160Y0107053D01*
X0133194Y0107315D01*
X0133160Y0107577D01*
X0133059Y0107821D01*
X0132898Y0108031D01*
X0132688Y0108192D01*
X0132444Y0108293D01*
X0132182Y0108328D01*
X0131919Y0108293D01*
X0131675Y0108192D01*
X0131466Y0108031D01*
X0131305Y0107821D01*
X0131203Y0107577D01*
X0131169Y0107315D01*
X0131196Y0107108D01*
X0130662Y0106574D01*
X0130578Y0106448D01*
X0130549Y0106299D01*
Y0105440D01*
X0130428Y0105399D01*
X0130358Y0105491D01*
X0130148Y0105652D01*
X0129904Y0105753D01*
X0129642Y0105788D01*
X0129380Y0105753D01*
X0129135Y0105652D01*
X0128926Y0105491D01*
X0128906Y0105465D01*
X0128785Y0105506D01*
Y0105909D01*
X0129262Y0106386D01*
X0129380Y0106337D01*
X0129642Y0106302D01*
X0129904Y0106337D01*
X0130148Y0106438D01*
X0130358Y0106599D01*
X0130519Y0106809D01*
X0130620Y0107053D01*
X0130654Y0107315D01*
X0130620Y0107577D01*
X0130519Y0107821D01*
X0130358Y0108031D01*
X0130148Y0108192D01*
X0129904Y0108293D01*
X0129642Y0108328D01*
X0129380Y0108293D01*
X0129135Y0108192D01*
X0128926Y0108031D01*
X0128765Y0107821D01*
X0128663Y0107577D01*
X0128629Y0107315D01*
X0128663Y0107053D01*
X0128712Y0106935D01*
X0128122Y0106345D01*
X0128038Y0106219D01*
X0128009Y0106070D01*
Y0105440D01*
X0127888Y0105399D01*
X0127818Y0105491D01*
X0127608Y0105652D01*
X0127364Y0105753D01*
X0127102Y0105788D01*
X0126840Y0105753D01*
X0126595Y0105652D01*
X0126386Y0105491D01*
X0126366Y0105465D01*
X0126245Y0105506D01*
Y0105909D01*
X0126722Y0106386D01*
X0126840Y0106337D01*
X0127102Y0106302D01*
X0127364Y0106337D01*
X0127608Y0106438D01*
X0127818Y0106599D01*
X0127979Y0106809D01*
X0128080Y0107053D01*
X0128114Y0107315D01*
X0128080Y0107577D01*
X0127979Y0107821D01*
X0127818Y0108031D01*
X0127608Y0108192D01*
X0127364Y0108293D01*
X0127102Y0108328D01*
X0126840Y0108293D01*
X0126595Y0108192D01*
X0126386Y0108031D01*
X0126225Y0107821D01*
X0126123Y0107577D01*
X0126089Y0107315D01*
X0126123Y0107053D01*
X0126172Y0106935D01*
X0125582Y0106345D01*
X0125498Y0106219D01*
X0125469Y0106070D01*
Y0105440D01*
X0125348Y0105399D01*
X0125278Y0105491D01*
X0125068Y0105652D01*
X0124824Y0105753D01*
X0124562Y0105788D01*
X0124299Y0105753D01*
X0124055Y0105652D01*
X0123846Y0105491D01*
X0123826Y0105465D01*
X0123705Y0105506D01*
Y0105909D01*
X0124182Y0106386D01*
X0124299Y0106337D01*
X0124562Y0106302D01*
X0124824Y0106337D01*
X0125068Y0106438D01*
X0125278Y0106599D01*
X0125439Y0106809D01*
X0125540Y0107053D01*
X0125574Y0107315D01*
X0125540Y0107577D01*
X0125439Y0107821D01*
X0125278Y0108031D01*
X0125068Y0108192D01*
X0124824Y0108293D01*
X0124562Y0108328D01*
X0124299Y0108293D01*
X0124055Y0108192D01*
X0123846Y0108031D01*
X0123685Y0107821D01*
X0123583Y0107577D01*
X0123549Y0107315D01*
X0123583Y0107053D01*
X0123632Y0106935D01*
X0123042Y0106345D01*
X0122958Y0106219D01*
X0122929Y0106070D01*
Y0105440D01*
X0122808Y0105399D01*
X0122738Y0105491D01*
X0122528Y0105652D01*
X0122284Y0105753D01*
X0122022Y0105788D01*
X0121759Y0105753D01*
X0121515Y0105652D01*
X0121306Y0105491D01*
X0121286Y0105465D01*
X0121165Y0105506D01*
Y0105909D01*
X0121642Y0106386D01*
X0121759Y0106337D01*
X0122022Y0106302D01*
X0122284Y0106337D01*
X0122528Y0106438D01*
X0122738Y0106599D01*
X0122899Y0106809D01*
X0123000Y0107053D01*
X0123034Y0107315D01*
X0123000Y0107577D01*
X0122899Y0107821D01*
X0122738Y0108031D01*
X0122528Y0108192D01*
X0122284Y0108293D01*
X0122022Y0108328D01*
X0121759Y0108293D01*
X0121515Y0108192D01*
X0121306Y0108031D01*
X0121145Y0107821D01*
X0121043Y0107577D01*
X0121009Y0107315D01*
X0121043Y0107053D01*
X0121092Y0106935D01*
X0120502Y0106345D01*
X0120418Y0106219D01*
X0120389Y0106070D01*
Y0105440D01*
X0120268Y0105399D01*
X0120198Y0105491D01*
X0119988Y0105652D01*
X0119744Y0105753D01*
X0119482Y0105788D01*
X0119219Y0105753D01*
X0118975Y0105652D01*
X0118766Y0105491D01*
X0118746Y0105465D01*
X0118625Y0105506D01*
Y0105909D01*
X0119102Y0106386D01*
X0119219Y0106337D01*
X0119482Y0106302D01*
X0119744Y0106337D01*
X0119988Y0106438D01*
X0120198Y0106599D01*
X0120359Y0106809D01*
X0120460Y0107053D01*
X0120494Y0107315D01*
X0120460Y0107577D01*
X0120359Y0107821D01*
X0120198Y0108031D01*
X0119988Y0108192D01*
X0119744Y0108293D01*
X0119482Y0108328D01*
X0119219Y0108293D01*
X0118975Y0108192D01*
X0118766Y0108031D01*
X0118605Y0107821D01*
X0118503Y0107577D01*
X0118469Y0107315D01*
X0118503Y0107053D01*
X0118552Y0106935D01*
X0117962Y0106345D01*
X0117878Y0106219D01*
X0117849Y0106070D01*
Y0105440D01*
X0117728Y0105399D01*
X0117658Y0105491D01*
X0117448Y0105652D01*
X0117204Y0105753D01*
X0116942Y0105788D01*
X0116679Y0105753D01*
X0116435Y0105652D01*
X0116226Y0105491D01*
X0116206Y0105465D01*
X0116085Y0105506D01*
Y0105884D01*
X0116580Y0106378D01*
X0116679Y0106337D01*
X0116942Y0106302D01*
X0117204Y0106337D01*
X0117448Y0106438D01*
X0117658Y0106599D01*
X0117819Y0106809D01*
X0117920Y0107053D01*
X0117954Y0107315D01*
X0117920Y0107577D01*
X0117819Y0107821D01*
X0117658Y0108031D01*
X0117448Y0108192D01*
X0117204Y0108293D01*
X0116942Y0108328D01*
X0116679Y0108293D01*
X0116435Y0108192D01*
X0116226Y0108031D01*
X0116065Y0107821D01*
X0115963Y0107577D01*
X0115929Y0107315D01*
X0115963Y0107053D01*
X0116020Y0106917D01*
X0115422Y0106320D01*
X0115338Y0106194D01*
X0115309Y0106045D01*
Y0105779D01*
X0113581D01*
X0113532Y0105896D01*
X0114022Y0106386D01*
X0114140Y0106337D01*
X0114402Y0106302D01*
X0114664Y0106337D01*
X0114908Y0106438D01*
X0115118Y0106599D01*
X0115279Y0106809D01*
X0115380Y0107053D01*
X0115414Y0107315D01*
X0115380Y0107577D01*
X0115279Y0107821D01*
X0115118Y0108031D01*
X0114908Y0108192D01*
X0114664Y0108293D01*
X0114402Y0108328D01*
X0114140Y0108293D01*
X0113895Y0108192D01*
X0113686Y0108031D01*
X0113525Y0107821D01*
X0113423Y0107577D01*
X0113389Y0107315D01*
X0113423Y0107053D01*
X0113472Y0106935D01*
X0107270Y0100733D01*
X0107186Y0100607D01*
X0107157Y0100458D01*
Y0100179D01*
X0107030Y0100167D01*
X0107024Y0100197D01*
X0106884Y0100407D01*
X0106674Y0100547D01*
X0106426Y0100596D01*
X0106178Y0100547D01*
X0106045Y0100458D01*
X0105933Y0100518D01*
Y0100847D01*
X0105995Y0100888D01*
X0106135Y0101098D01*
X0106184Y0101346D01*
X0106135Y0101594D01*
X0105995Y0101804D01*
X0105785Y0101944D01*
X0105537Y0101993D01*
X0105289Y0101944D01*
X0105079Y0101804D01*
X0104939Y0101594D01*
X0104925Y0101523D01*
X0104803Y0101486D01*
X0104390Y0101899D01*
X0104406Y0101981D01*
X0104357Y0102229D01*
X0104217Y0102439D01*
X0104007Y0102579D01*
X0103759Y0102628D01*
X0103511Y0102579D01*
X0103301Y0102439D01*
X0103161Y0102229D01*
X0103112Y0101981D01*
X0103149Y0101792D01*
X0103059Y0101702D01*
X0102870Y0101739D01*
X0102622Y0101690D01*
X0102412Y0101550D01*
X0102364Y0101478D01*
X0102242Y0101515D01*
Y0101947D01*
X0102891Y0102595D01*
X0102975Y0102721D01*
X0103004Y0102870D01*
Y0104823D01*
X0103095Y0104958D01*
X0103134Y0105156D01*
X0103095Y0105354D01*
X0102982Y0105522D01*
X0102814Y0105635D01*
X0102616Y0105674D01*
X0102418Y0105635D01*
X0102283Y0105544D01*
X0101938D01*
Y0105849D01*
Y0107257D01*
X0100630D01*
D01*
D01*
X0100630Y0107257D01*
X0100538D01*
Y0107257D01*
X0100011D01*
Y0106553D01*
X0099884D01*
Y0106426D01*
X0099230D01*
Y0105849D01*
Y0105609D01*
X0097089D01*
X0096586Y0106111D01*
X0096439Y0106210D01*
X0096266Y0106244D01*
X0094212D01*
X0094142Y0106334D01*
X0094052Y0106404D01*
Y0107061D01*
X0094052Y0107061D01*
X0094018Y0107234D01*
X0093969Y0107308D01*
X0093919Y0107381D01*
X0093919Y0107381D01*
X0093030Y0108270D01*
X0092883Y0108369D01*
X0092710Y0108403D01*
X0084201D01*
X0084028Y0108369D01*
X0083881Y0108270D01*
X0083881Y0108270D01*
X0082735Y0107124D01*
X0080772D01*
Y0107006D01*
X0074908D01*
X0074838Y0107096D01*
X0074679Y0107219D01*
X0074494Y0107295D01*
X0074295Y0107322D01*
X0074096Y0107295D01*
X0073911Y0107219D01*
X0073752Y0107096D01*
X0073682Y0107006D01*
X0068497D01*
Y0108629D01*
D02*
G37*
G36*
X0063497D02*
X0060789D01*
Y0105921D01*
X0063497D01*
Y0108629D01*
D02*
G37*
G36*
X0165544Y0063690D02*
X0163515D01*
X0163544Y0063394D01*
X0163667Y0062987D01*
X0163868Y0062612D01*
X0164137Y0062283D01*
X0164466Y0062014D01*
X0164841Y0061813D01*
X0165248Y0061690D01*
X0165544Y0061661D01*
Y0063690D01*
D02*
G37*
G36*
Y0065974D02*
X0165248Y0065945D01*
X0164841Y0065822D01*
X0164466Y0065621D01*
X0164137Y0065352D01*
X0163868Y0065023D01*
X0163667Y0064648D01*
X0163544Y0064241D01*
X0163515Y0063944D01*
X0165544D01*
Y0065974D01*
D02*
G37*
G36*
X0165798D02*
Y0063944D01*
X0167828D01*
X0167799Y0064241D01*
X0167676Y0064648D01*
X0167475Y0065023D01*
X0167206Y0065352D01*
X0166877Y0065621D01*
X0166502Y0065822D01*
X0166095Y0065945D01*
X0165798Y0065974D01*
D02*
G37*
G36*
X0169990Y0066739D02*
X0167960D01*
X0167989Y0066442D01*
X0168112Y0066035D01*
X0168313Y0065660D01*
X0168582Y0065331D01*
X0168911Y0065062D01*
X0169286Y0064861D01*
X0169693Y0064738D01*
X0169990Y0064709D01*
Y0066739D01*
D02*
G37*
G36*
X0109919Y0065796D02*
X0109620Y0065757D01*
X0109342Y0065641D01*
X0109103Y0065458D01*
X0108920Y0065219D01*
X0108805Y0064941D01*
X0108766Y0064643D01*
X0108805Y0064345D01*
X0108920Y0064067D01*
X0109103Y0063828D01*
X0109342Y0063645D01*
X0109620Y0063529D01*
X0109919Y0063490D01*
X0110217Y0063529D01*
X0110495Y0063645D01*
X0110734Y0063828D01*
X0110917Y0064067D01*
X0111032Y0064345D01*
X0111071Y0064643D01*
X0111032Y0064941D01*
X0110917Y0065219D01*
X0110734Y0065458D01*
X0110495Y0065641D01*
X0110217Y0065757D01*
X0109919Y0065796D01*
D02*
G37*
G36*
X0172847Y0102213D02*
Y0101092D01*
X0173968D01*
X0173942Y0101292D01*
X0173815Y0101597D01*
X0173614Y0101859D01*
X0173352Y0102060D01*
X0173047Y0102187D01*
X0172847Y0102213D01*
D02*
G37*
G36*
X0172593D02*
X0172393Y0102187D01*
X0172088Y0102060D01*
X0171826Y0101859D01*
X0171625Y0101597D01*
X0171498Y0101292D01*
X0171472Y0101092D01*
X0172593D01*
Y0102213D01*
D02*
G37*
G36*
X0172273Y0066739D02*
X0170243D01*
Y0064709D01*
X0170540Y0064738D01*
X0170947Y0064861D01*
X0171322Y0065062D01*
X0171651Y0065331D01*
X0171920Y0065660D01*
X0172121Y0066035D01*
X0172244Y0066442D01*
X0172273Y0066739D01*
D02*
G37*
G36*
X0055245Y0069097D02*
X0054872Y0069060D01*
X0054512Y0068952D01*
X0054182Y0068775D01*
X0053891Y0068537D01*
X0053653Y0068246D01*
X0053476Y0067916D01*
X0053368Y0067556D01*
X0053331Y0067183D01*
X0053368Y0066810D01*
X0053476Y0066450D01*
X0053653Y0066120D01*
X0053891Y0065829D01*
X0054182Y0065591D01*
X0054512Y0065414D01*
X0054872Y0065306D01*
X0055245Y0065269D01*
X0055618Y0065306D01*
X0055978Y0065414D01*
X0056308Y0065591D01*
X0056599Y0065829D01*
X0056837Y0066120D01*
X0057014Y0066450D01*
X0057122Y0066810D01*
X0057159Y0067183D01*
X0057122Y0067556D01*
X0057014Y0067916D01*
X0056837Y0068246D01*
X0056599Y0068537D01*
X0056308Y0068775D01*
X0055978Y0068952D01*
X0055618Y0069060D01*
X0055245Y0069097D01*
D02*
G37*
G36*
X0066675D02*
X0066302Y0069060D01*
X0065942Y0068952D01*
X0065612Y0068775D01*
X0065321Y0068537D01*
X0065083Y0068246D01*
X0064906Y0067916D01*
X0064798Y0067556D01*
X0064761Y0067183D01*
X0064798Y0066810D01*
X0064906Y0066450D01*
X0065083Y0066120D01*
X0065321Y0065829D01*
X0065612Y0065591D01*
X0065942Y0065414D01*
X0066302Y0065306D01*
X0066675Y0065269D01*
X0067048Y0065306D01*
X0067408Y0065414D01*
X0067738Y0065591D01*
X0068029Y0065829D01*
X0068267Y0066120D01*
X0068444Y0066450D01*
X0068552Y0066810D01*
X0068589Y0067183D01*
X0068552Y0067556D01*
X0068444Y0067916D01*
X0068267Y0068246D01*
X0068029Y0068537D01*
X0067738Y0068775D01*
X0067408Y0068952D01*
X0067048Y0069060D01*
X0066675Y0069097D01*
D02*
G37*
G36*
X0115013Y0068266D02*
X0114727Y0068244D01*
X0114324Y0068147D01*
X0113940Y0067988D01*
X0113587Y0067772D01*
X0113272Y0067502D01*
X0113002Y0067187D01*
X0112786Y0066834D01*
X0112627Y0066450D01*
X0112530Y0066047D01*
X0112508Y0065761D01*
X0115013D01*
Y0068266D01*
D02*
G37*
G36*
X0057023Y0100900D02*
X0056446D01*
Y0100373D01*
X0057023D01*
Y0100900D01*
D02*
G37*
G36*
X0173968Y0100838D02*
X0172847D01*
Y0099717D01*
X0173047Y0099743D01*
X0173352Y0099870D01*
X0173614Y0100071D01*
X0173815Y0100333D01*
X0173942Y0100638D01*
X0173968Y0100838D01*
D02*
G37*
G36*
X0172593D02*
X0171472D01*
X0171498Y0100638D01*
X0171625Y0100333D01*
X0171826Y0100071D01*
X0172088Y0099870D01*
X0172393Y0099743D01*
X0172593Y0099717D01*
Y0100838D01*
D02*
G37*
G36*
X0102934Y0065796D02*
X0102635Y0065757D01*
X0102357Y0065641D01*
X0102118Y0065458D01*
X0101935Y0065219D01*
X0101820Y0064941D01*
X0101781Y0064643D01*
X0101820Y0064345D01*
X0101935Y0064067D01*
X0102118Y0063828D01*
X0102357Y0063645D01*
X0102635Y0063529D01*
X0102934Y0063490D01*
X0103232Y0063529D01*
X0103510Y0063645D01*
X0103749Y0063828D01*
X0103932Y0064067D01*
X0104047Y0064345D01*
X0104086Y0064643D01*
X0104047Y0064941D01*
X0103932Y0065219D01*
X0103749Y0065458D01*
X0103510Y0065641D01*
X0103232Y0065757D01*
X0102934Y0065796D01*
D02*
G37*
G36*
X0048768Y0065117D02*
X0048453Y0065086D01*
X0048028Y0064957D01*
X0047637Y0064748D01*
X0047293Y0064467D01*
X0047012Y0064123D01*
X0046803Y0063732D01*
X0046674Y0063307D01*
X0046643Y0062992D01*
X0048768D01*
Y0065117D01*
D02*
G37*
G36*
X0049022D02*
Y0062992D01*
X0051147D01*
X0051116Y0063307D01*
X0050987Y0063732D01*
X0050778Y0064123D01*
X0050497Y0064467D01*
X0050153Y0064748D01*
X0049762Y0064957D01*
X0049337Y0065086D01*
X0049022Y0065117D01*
D02*
G37*
G36*
X0173863D02*
X0173548Y0065086D01*
X0173123Y0064957D01*
X0172732Y0064748D01*
X0172388Y0064467D01*
X0172107Y0064123D01*
X0171898Y0063732D01*
X0171769Y0063307D01*
X0171738Y0062992D01*
X0173863D01*
Y0065117D01*
D02*
G37*
G36*
X0167828Y0063690D02*
X0165798D01*
Y0061661D01*
X0166095Y0061690D01*
X0166502Y0061813D01*
X0166877Y0062014D01*
X0167206Y0062283D01*
X0167475Y0062612D01*
X0167676Y0062987D01*
X0167799Y0063394D01*
X0167828Y0063690D01*
D02*
G37*
G36*
X0104076Y0063111D02*
X0103938Y0063093D01*
X0103691Y0062990D01*
X0103479Y0062828D01*
X0103316Y0062615D01*
X0103214Y0062368D01*
X0103195Y0062230D01*
X0104076D01*
Y0063111D01*
D02*
G37*
G36*
X0104330D02*
Y0062230D01*
X0105212D01*
X0105193Y0062368D01*
X0105091Y0062615D01*
X0104928Y0062828D01*
X0104716Y0062990D01*
X0104469Y0063093D01*
X0104330Y0063111D01*
D02*
G37*
G36*
X0174117Y0065117D02*
Y0062992D01*
X0176242D01*
X0176211Y0063307D01*
X0176083Y0063732D01*
X0175873Y0064123D01*
X0175592Y0064467D01*
X0175248Y0064748D01*
X0174857Y0064957D01*
X0174432Y0065086D01*
X0174117Y0065117D01*
D02*
G37*
G36*
X0142762Y0065507D02*
X0140257D01*
Y0063002D01*
X0140543Y0063024D01*
X0140946Y0063121D01*
X0141330Y0063280D01*
X0141683Y0063496D01*
X0141998Y0063766D01*
X0142268Y0064081D01*
X0142484Y0064434D01*
X0142643Y0064818D01*
X0142740Y0065221D01*
X0142762Y0065507D01*
D02*
G37*
G36*
X0123480Y0065322D02*
X0123193Y0065285D01*
X0122926Y0065174D01*
X0122696Y0064998D01*
X0122520Y0064768D01*
X0122409Y0064501D01*
X0122372Y0064214D01*
X0122409Y0063927D01*
X0122520Y0063660D01*
X0122696Y0063430D01*
X0122926Y0063254D01*
X0123193Y0063143D01*
X0123480Y0063106D01*
X0123767Y0063143D01*
X0124034Y0063254D01*
X0124264Y0063430D01*
X0124440Y0063660D01*
X0124551Y0063927D01*
X0124588Y0064214D01*
X0124551Y0064501D01*
X0124440Y0064768D01*
X0124264Y0064998D01*
X0124034Y0065174D01*
X0123767Y0065285D01*
X0123480Y0065322D01*
D02*
G37*
G36*
X0126250D02*
X0125963Y0065285D01*
X0125696Y0065174D01*
X0125466Y0064998D01*
X0125290Y0064768D01*
X0125179Y0064501D01*
X0125142Y0064214D01*
X0125179Y0063927D01*
X0125290Y0063660D01*
X0125466Y0063430D01*
X0125696Y0063254D01*
X0125963Y0063143D01*
X0126250Y0063106D01*
X0126537Y0063143D01*
X0126804Y0063254D01*
X0127034Y0063430D01*
X0127210Y0063660D01*
X0127321Y0063927D01*
X0127358Y0064214D01*
X0127321Y0064501D01*
X0127210Y0064768D01*
X0127034Y0064998D01*
X0126804Y0065174D01*
X0126537Y0065285D01*
X0126250Y0065322D01*
D02*
G37*
G36*
X0115013Y0065507D02*
X0112508D01*
X0112530Y0065221D01*
X0112627Y0064818D01*
X0112786Y0064434D01*
X0113002Y0064081D01*
X0113272Y0063766D01*
X0113587Y0063496D01*
X0113940Y0063280D01*
X0114324Y0063121D01*
X0114727Y0063024D01*
X0115013Y0063002D01*
Y0065507D01*
D02*
G37*
G36*
X0117772D02*
X0115267D01*
Y0063002D01*
X0115553Y0063024D01*
X0115956Y0063121D01*
X0116340Y0063280D01*
X0116693Y0063496D01*
X0117008Y0063766D01*
X0117278Y0064081D01*
X0117494Y0064434D01*
X0117653Y0064818D01*
X0117750Y0065221D01*
X0117772Y0065507D01*
D02*
G37*
G36*
X0140003D02*
X0137498D01*
X0137520Y0065221D01*
X0137617Y0064818D01*
X0137776Y0064434D01*
X0137992Y0064081D01*
X0138262Y0063766D01*
X0138577Y0063496D01*
X0138930Y0063280D01*
X0139314Y0063121D01*
X0139717Y0063024D01*
X0140003Y0063002D01*
Y0065507D01*
D02*
G37*
%LPD*%
G36*
X0073752Y0106010D02*
X0073777Y0105990D01*
Y0088480D01*
X0072405Y0087107D01*
X0072292Y0086939D01*
X0072253Y0086741D01*
Y0078359D01*
Y0075057D01*
X0072253Y0075057D01*
X0072253D01*
Y0072462D01*
X0069922D01*
Y0082550D01*
Y0082862D01*
X0070188D01*
Y0084270D01*
X0070188D01*
Y0085656D01*
Y0085972D01*
X0070612D01*
X0070761Y0086001D01*
X0070887Y0086085D01*
X0072030Y0087228D01*
X0072114Y0087354D01*
X0072143Y0087503D01*
X0072143Y0087503D01*
X0072143Y0087503D01*
Y0087503D01*
Y0087673D01*
X0072459D01*
Y0088981D01*
D01*
Y0088981D01*
X0072459Y0088981D01*
Y0089073D01*
X0072459D01*
Y0090381D01*
X0072143D01*
Y0091235D01*
X0072234Y0091369D01*
X0072273Y0091568D01*
X0072234Y0091766D01*
X0072121Y0091934D01*
X0071953Y0092046D01*
X0071755Y0092085D01*
X0071559Y0092046D01*
X0071499Y0092158D01*
X0071662Y0092322D01*
X0072057D01*
X0072192Y0092231D01*
X0072390Y0092192D01*
X0072588Y0092231D01*
X0072756Y0092344D01*
X0072869Y0092512D01*
X0072908Y0092710D01*
X0072869Y0092908D01*
X0072756Y0093076D01*
X0072588Y0093189D01*
X0072390Y0093228D01*
X0072192Y0093189D01*
X0072057Y0093098D01*
X0071504D01*
X0071495Y0093127D01*
X0071476Y0093226D01*
X0071486Y0093233D01*
X0071599Y0093401D01*
X0071638Y0093599D01*
X0071599Y0093797D01*
X0071508Y0093932D01*
Y0098298D01*
X0071479Y0098447D01*
X0071395Y0098573D01*
X0068497Y0101470D01*
Y0103629D01*
X0065789D01*
Y0100921D01*
X0067948D01*
X0070732Y0098137D01*
Y0093959D01*
X0066114D01*
Y0093975D01*
Y0094167D01*
Y0094444D01*
X0064406D01*
Y0094198D01*
X0065260D01*
Y0093975D01*
X0064406D01*
Y0093667D01*
Y0093167D01*
Y0092667D01*
Y0092167D01*
Y0091667D01*
Y0091167D01*
Y0090667D01*
Y0090167D01*
Y0089667D01*
Y0089167D01*
Y0088667D01*
X0066114D01*
Y0089167D01*
Y0089183D01*
X0066732D01*
X0066795Y0089120D01*
Y0088598D01*
X0066704Y0088463D01*
X0066665Y0088265D01*
X0066704Y0088067D01*
X0066817Y0087899D01*
X0066985Y0087786D01*
X0067183Y0087747D01*
X0067381Y0087786D01*
X0067549Y0087899D01*
X0067624Y0088011D01*
X0067746Y0087974D01*
Y0087064D01*
X0067480D01*
Y0085656D01*
Y0085351D01*
X0064265D01*
X0064228Y0085473D01*
X0064247Y0085486D01*
X0064360Y0085654D01*
X0064399Y0085852D01*
X0064360Y0086050D01*
X0064247Y0086218D01*
X0064079Y0086331D01*
X0063881Y0086370D01*
X0063683Y0086331D01*
X0063548Y0086240D01*
X0063407D01*
X0063098Y0086549D01*
Y0086667D01*
X0064114D01*
Y0087133D01*
X0065045D01*
X0065207Y0087024D01*
X0065405Y0086985D01*
X0065603Y0087024D01*
X0065771Y0087137D01*
X0065884Y0087305D01*
X0065923Y0087503D01*
X0065884Y0087701D01*
X0065771Y0087869D01*
X0065603Y0087982D01*
X0065405Y0088021D01*
X0065207Y0087982D01*
X0065099Y0087909D01*
X0064114D01*
Y0088375D01*
X0063598D01*
Y0090297D01*
Y0094037D01*
X0063985Y0094423D01*
X0064069Y0094549D01*
X0064098Y0094698D01*
Y0095267D01*
X0064114D01*
Y0096975D01*
X0063098D01*
Y0097982D01*
X0063299Y0098182D01*
X0063416Y0098134D01*
Y0097975D01*
X0064724D01*
Y0097975D01*
X0064724D01*
X0064724Y0097975D01*
X0064816D01*
Y0097975D01*
X0065144D01*
Y0097488D01*
X0065053Y0097353D01*
X0065014Y0097155D01*
X0065053Y0096957D01*
X0065166Y0096789D01*
X0065334Y0096676D01*
X0065532Y0096637D01*
X0065730Y0096676D01*
X0065898Y0096789D01*
X0066011Y0096957D01*
X0066050Y0097155D01*
X0066011Y0097353D01*
X0065920Y0097488D01*
Y0097975D01*
X0066124D01*
Y0099383D01*
X0065920D01*
Y0099781D01*
X0065891Y0099929D01*
X0065807Y0100055D01*
X0065031Y0100831D01*
Y0104614D01*
X0066338Y0105921D01*
X0068497D01*
Y0106100D01*
X0073682D01*
X0073752Y0106010D01*
D02*
G37*
G36*
X0064255Y0100670D02*
X0064284Y0100521D01*
X0064368Y0100395D01*
X0065144Y0099620D01*
Y0099383D01*
X0064816D01*
D01*
D01*
X0064816Y0099383D01*
X0064724D01*
Y0099383D01*
X0063416D01*
Y0099067D01*
X0063246D01*
X0063097Y0099038D01*
X0062971Y0098954D01*
X0062725Y0098708D01*
X0062613Y0098768D01*
X0062621Y0098806D01*
X0062582Y0099004D01*
X0062469Y0099172D01*
X0062301Y0099285D01*
X0062103Y0099324D01*
X0061905Y0099285D01*
X0061737Y0099172D01*
X0061624Y0099004D01*
X0061593Y0098845D01*
X0061435Y0098688D01*
X0061351Y0098562D01*
X0061322Y0098413D01*
Y0096975D01*
X0061098D01*
Y0099876D01*
X0061185Y0100005D01*
X0061224Y0100203D01*
X0061185Y0100401D01*
X0061072Y0100569D01*
X0060904Y0100682D01*
X0060706Y0100721D01*
X0060508Y0100682D01*
X0060340Y0100569D01*
X0060227Y0100401D01*
X0060205Y0100287D01*
X0060078Y0100300D01*
Y0100632D01*
X0060169Y0100767D01*
X0060208Y0100965D01*
X0060169Y0101163D01*
X0060056Y0101331D01*
X0059888Y0101444D01*
X0059690Y0101483D01*
X0059492Y0101444D01*
X0059324Y0101331D01*
X0059211Y0101163D01*
X0059172Y0100965D01*
X0059211Y0100767D01*
X0059302Y0100632D01*
Y0099314D01*
X0059302Y0099314D01*
X0059302D01*
X0059331Y0099165D01*
X0059415Y0099039D01*
X0059822Y0098633D01*
Y0096975D01*
X0058598D01*
Y0103134D01*
X0059851Y0104387D01*
X0064255D01*
Y0100670D01*
D02*
G37*
G36*
X0102228Y0103031D02*
X0101579Y0102383D01*
X0101495Y0102257D01*
X0101466Y0102108D01*
Y0100711D01*
X0101466Y0100711D01*
X0101466D01*
X0101495Y0100562D01*
X0101579Y0100436D01*
X0101657Y0100359D01*
Y0098579D01*
X0101558Y0098498D01*
X0101545Y0098501D01*
X0101387Y0098470D01*
X0101295Y0098408D01*
X0101203Y0098470D01*
X0101045Y0098501D01*
X0100887Y0098470D01*
X0100795Y0098408D01*
X0100703Y0098470D01*
X0100545Y0098501D01*
X0100532Y0098498D01*
X0100433Y0098579D01*
Y0099218D01*
X0100404Y0099367D01*
X0100320Y0099493D01*
X0098813Y0100999D01*
Y0101516D01*
X0099129D01*
Y0102824D01*
D01*
Y0102824D01*
X0099129Y0102824D01*
Y0102916D01*
X0099129D01*
Y0104224D01*
X0098878D01*
Y0104703D01*
X0099230D01*
Y0104452D01*
X0100538D01*
Y0104452D01*
X0100538D01*
X0100538Y0104452D01*
X0100630D01*
Y0104452D01*
X0101938D01*
Y0104768D01*
X0102228D01*
Y0103031D01*
D02*
G37*
G36*
X0112436Y0093302D02*
X0112433Y0093289D01*
X0112464Y0093131D01*
X0112526Y0093039D01*
X0112464Y0092947D01*
X0112433Y0092789D01*
X0112464Y0092631D01*
X0112526Y0092539D01*
X0112464Y0092447D01*
X0112433Y0092289D01*
X0112464Y0092131D01*
X0112526Y0092039D01*
X0112464Y0091947D01*
X0112433Y0091789D01*
X0112464Y0091631D01*
X0112526Y0091539D01*
X0112464Y0091447D01*
X0112433Y0091289D01*
X0112464Y0091131D01*
X0112526Y0091039D01*
X0112464Y0090947D01*
X0112433Y0090789D01*
X0112464Y0090631D01*
X0112526Y0090539D01*
X0112464Y0090447D01*
X0112433Y0090289D01*
X0112464Y0090131D01*
X0112526Y0090039D01*
X0112464Y0089947D01*
X0112433Y0089789D01*
X0112464Y0089631D01*
X0112526Y0089539D01*
X0112464Y0089447D01*
X0112433Y0089289D01*
X0112464Y0089131D01*
X0112526Y0089039D01*
X0112464Y0088947D01*
X0112433Y0088789D01*
X0112464Y0088631D01*
X0112526Y0088539D01*
X0112464Y0088447D01*
X0112433Y0088289D01*
X0112464Y0088131D01*
X0112526Y0088039D01*
X0112464Y0087947D01*
X0112433Y0087789D01*
X0112464Y0087631D01*
X0112526Y0087539D01*
X0112464Y0087447D01*
X0112433Y0087289D01*
X0112297Y0087262D01*
X0112148Y0087410D01*
Y0090218D01*
X0112239Y0090353D01*
X0112278Y0090551D01*
X0112239Y0090749D01*
X0112126Y0090917D01*
X0111958Y0091030D01*
X0111760Y0091069D01*
X0111562Y0091030D01*
X0111394Y0090917D01*
X0111281Y0090749D01*
X0111242Y0090551D01*
X0111249Y0090517D01*
X0111159Y0090427D01*
X0111125Y0090434D01*
X0110927Y0090395D01*
X0110759Y0090282D01*
X0110646Y0090114D01*
X0110607Y0089916D01*
X0110646Y0089718D01*
X0110737Y0089583D01*
Y0087432D01*
X0110625Y0087372D01*
X0110484Y0087466D01*
X0110363Y0087490D01*
Y0086868D01*
Y0086246D01*
X0110484Y0086270D01*
X0110694Y0086410D01*
X0110834Y0086620D01*
X0110848Y0086691D01*
X0110970Y0086728D01*
X0111683Y0086014D01*
X0111809Y0085930D01*
X0111809Y0085930D01*
X0111809Y0085930D01*
D01*
X0111809Y0085930D01*
X0111809Y0085930D01*
X0111958Y0085901D01*
X0112355D01*
X0112436Y0085802D01*
X0112433Y0085789D01*
X0112436Y0085776D01*
X0112355Y0085677D01*
X0110569D01*
X0110434Y0085768D01*
X0110236Y0085807D01*
X0110038Y0085768D01*
X0109903Y0085677D01*
X0108433D01*
Y0086106D01*
X0108433Y0086106D01*
X0108433Y0086106D01*
Y0086106D01*
Y0093401D01*
X0112355D01*
X0112436Y0093302D01*
D02*
G37*
G36*
X0060704Y0091274D02*
X0060735Y0091115D01*
X0060848Y0090947D01*
X0061016Y0090834D01*
X0061130Y0090812D01*
X0061117Y0090685D01*
X0060867D01*
X0060200Y0091352D01*
X0060169Y0091511D01*
X0060056Y0091679D01*
X0059888Y0091792D01*
X0059690Y0091831D01*
X0059492Y0091792D01*
X0059324Y0091679D01*
X0059211Y0091511D01*
X0059172Y0091313D01*
X0059211Y0091115D01*
X0059324Y0090947D01*
X0059492Y0090834D01*
X0059651Y0090803D01*
X0060322Y0090132D01*
Y0088375D01*
X0059306D01*
Y0087521D01*
X0059114D01*
Y0088375D01*
X0057806D01*
Y0086667D01*
X0057822D01*
Y0086311D01*
X0057746Y0086235D01*
X0057587Y0086204D01*
X0057419Y0086091D01*
X0057306Y0085923D01*
X0057267Y0085725D01*
X0057306Y0085527D01*
X0057419Y0085359D01*
X0057587Y0085246D01*
X0057785Y0085207D01*
X0057983Y0085246D01*
X0058151Y0085359D01*
X0058200Y0085432D01*
X0058246Y0085418D01*
X0058289Y0085298D01*
X0058197Y0085161D01*
X0058158Y0084963D01*
X0058197Y0084765D01*
X0058309Y0084597D01*
X0058477Y0084484D01*
X0058676Y0084445D01*
X0058871Y0084484D01*
X0058896Y0084436D01*
X0058842Y0084321D01*
X0058730Y0084299D01*
X0058562Y0084186D01*
X0058449Y0084018D01*
X0058410Y0083820D01*
X0058449Y0083622D01*
X0058562Y0083454D01*
X0058730Y0083341D01*
X0058928Y0083302D01*
X0059126Y0083341D01*
X0059294Y0083454D01*
X0059407Y0083622D01*
X0059438Y0083781D01*
X0059576Y0083918D01*
X0059688Y0083858D01*
X0059680Y0083820D01*
X0059719Y0083622D01*
X0059832Y0083454D01*
X0060000Y0083341D01*
X0060198Y0083302D01*
X0060396Y0083341D01*
X0060564Y0083454D01*
X0060677Y0083622D01*
X0060716Y0083820D01*
X0060677Y0084018D01*
X0060598Y0084135D01*
Y0086667D01*
X0061322D01*
Y0085356D01*
X0061322Y0085356D01*
X0061322D01*
X0061351Y0085207D01*
X0061435Y0085081D01*
X0062336Y0084180D01*
X0062462Y0084096D01*
X0062487Y0084091D01*
X0062611Y0084067D01*
X0066387D01*
X0066890Y0083564D01*
X0066841Y0083446D01*
X0064595D01*
X0064460Y0083537D01*
X0064262Y0083576D01*
X0064064Y0083537D01*
X0063929Y0083446D01*
X0063373D01*
X0063224Y0083417D01*
X0063098Y0083333D01*
X0062590Y0082825D01*
X0062506Y0082699D01*
X0062477Y0082550D01*
Y0082253D01*
X0060891D01*
Y0081987D01*
X0059759D01*
Y0082253D01*
X0058173D01*
Y0084201D01*
X0058144Y0084350D01*
X0058060Y0084476D01*
X0056582Y0085953D01*
X0056551Y0086112D01*
X0056438Y0086280D01*
X0056270Y0086393D01*
X0056072Y0086432D01*
X0055874Y0086393D01*
X0055739Y0086302D01*
X0054679D01*
Y0086568D01*
D01*
Y0086568D01*
X0054679Y0086568D01*
Y0086660D01*
X0054679D01*
Y0087968D01*
X0054367D01*
Y0090521D01*
X0055029Y0091183D01*
X0055806D01*
Y0091167D01*
Y0090667D01*
Y0090167D01*
Y0089667D01*
Y0089167D01*
Y0088667D01*
X0057514D01*
Y0089167D01*
Y0089667D01*
Y0090167D01*
Y0090667D01*
Y0091167D01*
Y0091667D01*
Y0092167D01*
Y0092667D01*
Y0092683D01*
X0059295D01*
X0060704Y0091274D01*
D02*
G37*
G36*
X0122929Y0104110D02*
Y0101380D01*
X0117726Y0096177D01*
X0114463D01*
X0114345Y0096201D01*
X0112845D01*
X0112687Y0096170D01*
X0112554Y0096080D01*
X0112464Y0095947D01*
X0112433Y0095789D01*
X0112464Y0095631D01*
X0112526Y0095539D01*
X0112464Y0095447D01*
X0112433Y0095289D01*
X0112464Y0095131D01*
X0112526Y0095039D01*
X0112464Y0094947D01*
X0112433Y0094789D01*
X0112464Y0094631D01*
X0112526Y0094539D01*
X0112464Y0094447D01*
X0112433Y0094289D01*
X0112436Y0094276D01*
X0112355Y0094177D01*
X0108433D01*
Y0096099D01*
X0108532Y0096180D01*
X0108545Y0096177D01*
X0108703Y0096208D01*
X0108795Y0096270D01*
X0108887Y0096208D01*
X0109045Y0096177D01*
X0109203Y0096208D01*
X0109295Y0096270D01*
X0109387Y0096208D01*
X0109545Y0096177D01*
X0109703Y0096208D01*
X0109795Y0096270D01*
X0109887Y0096208D01*
X0110045Y0096177D01*
X0110203Y0096208D01*
X0110295Y0096270D01*
X0110387Y0096208D01*
X0110545Y0096177D01*
X0110703Y0096208D01*
X0110795Y0096270D01*
X0110887Y0096208D01*
X0111045Y0096177D01*
X0111203Y0096208D01*
X0111295Y0096270D01*
X0111387Y0096208D01*
X0111545Y0096177D01*
X0111703Y0096208D01*
X0111795Y0096270D01*
X0111887Y0096208D01*
X0112045Y0096177D01*
X0112203Y0096208D01*
X0112336Y0096298D01*
X0112426Y0096431D01*
X0112457Y0096589D01*
Y0098089D01*
X0112433Y0098207D01*
Y0098676D01*
X0113572Y0099815D01*
X0118618D01*
X0118767Y0099844D01*
X0118893Y0099928D01*
X0122296Y0103332D01*
X0122380Y0103458D01*
X0122410Y0103607D01*
X0122410Y0103607D01*
X0122410Y0103607D01*
Y0103607D01*
Y0103849D01*
X0122528Y0103898D01*
X0122738Y0104059D01*
X0122808Y0104151D01*
X0122929Y0104110D01*
D02*
G37*
G36*
X0107657Y0085289D02*
X0107657Y0085289D01*
X0107657D01*
Y0083479D01*
X0107558Y0083398D01*
X0107545Y0083401D01*
X0107387Y0083370D01*
X0107295Y0083308D01*
X0107203Y0083370D01*
X0107045Y0083401D01*
X0106887Y0083370D01*
X0106795Y0083308D01*
X0106703Y0083370D01*
X0106545Y0083401D01*
X0106387Y0083370D01*
X0106295Y0083308D01*
X0106203Y0083370D01*
X0106045Y0083401D01*
X0105887Y0083370D01*
X0105795Y0083308D01*
X0105703Y0083370D01*
X0105545Y0083401D01*
X0105387Y0083370D01*
X0105295Y0083308D01*
X0105203Y0083370D01*
X0105045Y0083401D01*
X0104887Y0083370D01*
X0104795Y0083308D01*
X0104703Y0083370D01*
X0104545Y0083401D01*
X0104387Y0083370D01*
X0104295Y0083308D01*
X0104203Y0083370D01*
X0104045Y0083401D01*
X0103887Y0083370D01*
X0103795Y0083308D01*
X0103703Y0083370D01*
X0103545Y0083401D01*
X0103387Y0083370D01*
X0103295Y0083308D01*
X0103203Y0083370D01*
X0103045Y0083401D01*
X0102887Y0083370D01*
X0102795Y0083308D01*
X0102703Y0083370D01*
X0102672Y0083376D01*
Y0083158D01*
X0102664Y0083147D01*
X0102633Y0082989D01*
Y0082239D01*
X0102457D01*
Y0082989D01*
X0102426Y0083147D01*
X0102418Y0083158D01*
Y0083376D01*
X0102387Y0083370D01*
X0102295Y0083308D01*
X0102203Y0083370D01*
X0102045Y0083401D01*
X0101887Y0083370D01*
X0101795Y0083308D01*
X0101703Y0083370D01*
X0101545Y0083401D01*
X0101532Y0083398D01*
X0101433Y0083479D01*
Y0084288D01*
X0102863Y0085718D01*
X0107657D01*
Y0085289D01*
D02*
G37*
G36*
X0102657Y0080999D02*
Y0069170D01*
X0097883Y0064396D01*
X0090084D01*
X0090066Y0064522D01*
X0090316Y0064598D01*
X0090669Y0064787D01*
X0090979Y0065041D01*
X0091233Y0065350D01*
X0091421Y0065703D01*
X0091538Y0066086D01*
X0091564Y0066357D01*
X0087506D01*
X0087532Y0066086D01*
X0087649Y0065703D01*
X0087837Y0065350D01*
X0088091Y0065041D01*
X0088401Y0064787D01*
X0088754Y0064598D01*
X0089004Y0064522D01*
X0088986Y0064396D01*
X0077384D01*
X0077366Y0064522D01*
X0077616Y0064598D01*
X0077969Y0064787D01*
X0078279Y0065041D01*
X0078533Y0065350D01*
X0078721Y0065703D01*
X0078838Y0066086D01*
X0078864Y0066357D01*
X0074806D01*
X0074832Y0066086D01*
X0074949Y0065703D01*
X0075137Y0065350D01*
X0075391Y0065041D01*
X0075701Y0064787D01*
X0076054Y0064598D01*
X0076304Y0064522D01*
X0076286Y0064396D01*
X0075218D01*
X0074672Y0064942D01*
X0074688Y0065024D01*
X0074639Y0065272D01*
X0074499Y0065482D01*
X0074289Y0065622D01*
X0074041Y0065671D01*
X0073793Y0065622D01*
X0073583Y0065482D01*
X0073443Y0065272D01*
X0073415Y0065133D01*
X0073289Y0065146D01*
Y0072009D01*
X0073289Y0072009D01*
X0073289Y0072009D01*
Y0072009D01*
Y0074604D01*
X0081958D01*
Y0074353D01*
X0083266D01*
Y0074353D01*
X0083266D01*
X0083266Y0074353D01*
X0083358D01*
Y0074353D01*
X0084666D01*
Y0074669D01*
X0085598D01*
X0085721Y0074693D01*
X0085792Y0074587D01*
X0085762Y0074543D01*
X0085713Y0074295D01*
X0085762Y0074047D01*
X0085902Y0073837D01*
X0086112Y0073697D01*
X0086360Y0073648D01*
X0086608Y0073697D01*
X0086818Y0073837D01*
X0086864Y0073907D01*
X0098552D01*
X0098701Y0073936D01*
X0098827Y0074020D01*
X0102320Y0077513D01*
X0102404Y0077639D01*
X0102433Y0077788D01*
X0102433Y0077788D01*
X0102433Y0077788D01*
Y0077788D01*
Y0080999D01*
X0102532Y0081080D01*
X0102545Y0081077D01*
X0102558Y0081080D01*
X0102657Y0080999D01*
D02*
G37*
G36*
X0092645Y0107374D02*
X0092596Y0107257D01*
X0091486D01*
D01*
D01*
X0091486Y0107257D01*
X0091394D01*
Y0107257D01*
X0090086D01*
Y0106941D01*
X0088138D01*
Y0107124D01*
X0085598D01*
Y0106941D01*
X0085449Y0106912D01*
X0085323Y0106828D01*
X0084434Y0105939D01*
X0084350Y0105813D01*
X0084321Y0105664D01*
Y0100628D01*
X0084350Y0100479D01*
X0084434Y0100353D01*
X0085113Y0099674D01*
X0085239Y0099590D01*
X0085264Y0099585D01*
X0085388Y0099561D01*
X0087977D01*
X0088523Y0099015D01*
X0088507Y0098933D01*
X0088556Y0098685D01*
X0088696Y0098475D01*
X0088906Y0098335D01*
X0089154Y0098286D01*
X0089402Y0098335D01*
X0089612Y0098475D01*
X0089752Y0098685D01*
X0089787Y0098862D01*
X0089909Y0098899D01*
X0090562Y0098245D01*
X0090514Y0098128D01*
X0089212D01*
Y0096820D01*
X0089212Y0096820D01*
X0089212Y0096728D01*
X0089212D01*
Y0096201D01*
X0089916D01*
Y0096074D01*
X0090043D01*
Y0095420D01*
X0090581D01*
X0090581Y0095420D01*
Y0095420D01*
X0090620Y0095420D01*
X0090671Y0095369D01*
Y0095250D01*
X0090671Y0095250D01*
X0090671D01*
X0090700Y0095101D01*
X0090784Y0094975D01*
X0092245Y0093514D01*
X0092371Y0093430D01*
X0092396Y0093425D01*
X0092520Y0093401D01*
X0097255D01*
X0097336Y0093302D01*
X0097333Y0093289D01*
X0097364Y0093131D01*
X0097426Y0093039D01*
X0097364Y0092947D01*
X0097333Y0092789D01*
X0097364Y0092631D01*
X0097426Y0092539D01*
X0097364Y0092447D01*
X0097333Y0092289D01*
X0097364Y0092131D01*
X0097426Y0092039D01*
X0097364Y0091947D01*
X0097333Y0091789D01*
X0097364Y0091631D01*
X0097426Y0091539D01*
X0097364Y0091447D01*
X0097333Y0091289D01*
X0097364Y0091131D01*
X0097426Y0091039D01*
X0097364Y0090947D01*
X0097358Y0090916D01*
X0097576D01*
X0097587Y0090908D01*
X0097745Y0090877D01*
X0098495D01*
Y0090701D01*
X0097745D01*
X0097587Y0090670D01*
X0097576Y0090662D01*
X0097358D01*
X0097364Y0090631D01*
X0097426Y0090539D01*
X0097364Y0090447D01*
X0097333Y0090289D01*
X0097364Y0090131D01*
X0097426Y0090039D01*
X0097364Y0089947D01*
X0097333Y0089789D01*
X0097364Y0089631D01*
X0097426Y0089539D01*
X0097364Y0089447D01*
X0097333Y0089289D01*
X0097364Y0089131D01*
X0097426Y0089039D01*
X0097364Y0088947D01*
X0097333Y0088789D01*
X0097336Y0088776D01*
X0097255Y0088677D01*
X0093482D01*
X0093239Y0088921D01*
X0093113Y0089005D01*
X0092964Y0089034D01*
X0090805D01*
X0090656Y0089005D01*
X0090530Y0088921D01*
X0089768Y0088159D01*
X0089684Y0088033D01*
X0089655Y0087884D01*
Y0087245D01*
X0089585Y0087199D01*
X0089445Y0086989D01*
X0089396Y0086741D01*
X0089445Y0086493D01*
X0089539Y0086352D01*
X0089479Y0086240D01*
X0086588D01*
Y0087627D01*
X0086673Y0087653D01*
X0086978Y0087816D01*
X0087245Y0088035D01*
X0087464Y0088302D01*
X0087627Y0088607D01*
X0087728Y0088937D01*
X0087761Y0089281D01*
X0087728Y0089625D01*
X0087627Y0089955D01*
X0087464Y0090260D01*
X0087245Y0090527D01*
X0086978Y0090746D01*
X0086673Y0090909D01*
X0086343Y0091010D01*
X0085999Y0091043D01*
X0085655Y0091010D01*
X0085325Y0090909D01*
X0085020Y0090746D01*
X0084753Y0090527D01*
X0084534Y0090260D01*
X0084371Y0089955D01*
X0084270Y0089625D01*
X0084237Y0089281D01*
X0084270Y0088937D01*
X0084371Y0088607D01*
X0084534Y0088302D01*
X0084753Y0088035D01*
X0085020Y0087816D01*
X0085325Y0087653D01*
X0085552Y0087584D01*
Y0085852D01*
X0085552Y0085852D01*
X0085552D01*
Y0079763D01*
X0084666D01*
Y0076955D01*
X0087474D01*
Y0079763D01*
X0086588D01*
Y0085464D01*
X0092495D01*
X0092544Y0085346D01*
X0090633Y0083435D01*
X0090551Y0083451D01*
X0090303Y0083402D01*
X0090093Y0083262D01*
X0089953Y0083052D01*
X0089904Y0082804D01*
X0089953Y0082556D01*
X0090093Y0082346D01*
X0090303Y0082206D01*
X0090551Y0082157D01*
X0090799Y0082206D01*
X0091009Y0082346D01*
X0091149Y0082556D01*
X0091198Y0082804D01*
X0091182Y0082886D01*
X0093197Y0084901D01*
X0095488D01*
X0095537Y0084783D01*
X0094189Y0083435D01*
X0094107Y0083451D01*
X0093859Y0083402D01*
X0093649Y0083262D01*
X0093509Y0083052D01*
X0093460Y0082804D01*
X0093509Y0082556D01*
X0093649Y0082346D01*
X0093859Y0082206D01*
X0094107Y0082157D01*
X0094355Y0082206D01*
X0094565Y0082346D01*
X0094705Y0082556D01*
X0094754Y0082804D01*
X0094738Y0082886D01*
X0096253Y0084401D01*
X0097255D01*
X0097336Y0084302D01*
X0097333Y0084289D01*
X0097364Y0084131D01*
X0097426Y0084039D01*
X0097364Y0083947D01*
X0097333Y0083789D01*
X0097364Y0083631D01*
X0097454Y0083498D01*
X0097587Y0083408D01*
X0097745Y0083377D01*
X0099245D01*
X0099403Y0083408D01*
X0099536Y0083498D01*
X0099626Y0083631D01*
X0099657Y0083789D01*
X0099626Y0083947D01*
X0099564Y0084039D01*
X0099626Y0084131D01*
X0099657Y0084289D01*
X0099626Y0084447D01*
X0099564Y0084539D01*
X0099626Y0084631D01*
X0099657Y0084789D01*
X0099626Y0084947D01*
X0099564Y0085039D01*
X0099626Y0085131D01*
X0099657Y0085289D01*
X0099626Y0085447D01*
X0099564Y0085539D01*
X0099626Y0085631D01*
X0099657Y0085789D01*
X0099626Y0085947D01*
X0099564Y0086039D01*
X0099626Y0086131D01*
X0099657Y0086289D01*
X0099626Y0086447D01*
X0099564Y0086539D01*
X0099626Y0086631D01*
X0099657Y0086789D01*
X0099626Y0086947D01*
X0099564Y0087039D01*
X0099626Y0087131D01*
X0099657Y0087289D01*
X0099626Y0087447D01*
X0099564Y0087539D01*
X0099626Y0087631D01*
X0099657Y0087789D01*
X0099626Y0087947D01*
X0099564Y0088039D01*
X0099626Y0088131D01*
X0099657Y0088289D01*
X0099626Y0088447D01*
X0099564Y0088539D01*
X0099626Y0088631D01*
X0099657Y0088789D01*
X0099654Y0088802D01*
X0099735Y0088901D01*
X0101599D01*
X0101650Y0088823D01*
X0101860Y0088683D01*
X0102108Y0088634D01*
X0102356Y0088683D01*
X0102566Y0088823D01*
X0102706Y0089033D01*
X0102755Y0089281D01*
X0102706Y0089529D01*
X0102566Y0089739D01*
X0102506Y0089779D01*
X0102543Y0089901D01*
X0107657D01*
Y0086494D01*
X0102702D01*
X0102553Y0086465D01*
X0102427Y0086381D01*
X0100770Y0084724D01*
X0100686Y0084598D01*
X0100657Y0084449D01*
Y0083479D01*
X0100558Y0083398D01*
X0100545Y0083401D01*
X0100387Y0083370D01*
X0100295Y0083308D01*
X0100203Y0083370D01*
X0100045Y0083401D01*
X0099887Y0083370D01*
X0099754Y0083280D01*
X0099664Y0083147D01*
X0099633Y0082989D01*
Y0081489D01*
X0099657Y0081371D01*
Y0080902D01*
X0096602Y0077847D01*
X0096520Y0077863D01*
X0096272Y0077814D01*
X0096062Y0077674D01*
X0095922Y0077464D01*
X0095873Y0077216D01*
X0095922Y0076968D01*
X0096062Y0076758D01*
X0096272Y0076618D01*
X0096520Y0076569D01*
X0096768Y0076618D01*
X0096978Y0076758D01*
X0097091Y0076928D01*
X0097218D01*
X0097332Y0076758D01*
X0097542Y0076618D01*
X0097790Y0076569D01*
X0098038Y0076618D01*
X0098248Y0076758D01*
X0098388Y0076968D01*
X0098437Y0077216D01*
X0098421Y0077298D01*
X0100820Y0079696D01*
X0100904Y0079822D01*
X0100933Y0079971D01*
Y0080999D01*
X0101032Y0081080D01*
X0101045Y0081077D01*
X0101058Y0081080D01*
X0101157Y0080999D01*
Y0078211D01*
X0099153Y0076207D01*
X0086864D01*
X0086818Y0076277D01*
X0086608Y0076417D01*
X0086360Y0076466D01*
X0086112Y0076417D01*
X0085902Y0076277D01*
X0085762Y0076067D01*
X0085713Y0075819D01*
X0085729Y0075737D01*
X0085437Y0075445D01*
X0084666D01*
Y0075761D01*
X0083358D01*
D01*
D01*
X0083358Y0075761D01*
X0083266D01*
Y0075761D01*
X0081958D01*
Y0075510D01*
X0073289D01*
Y0077841D01*
X0075462D01*
Y0077405D01*
X0077170D01*
Y0077405D01*
X0077170D01*
X0077170Y0077405D01*
X0077262D01*
Y0077405D01*
X0078970D01*
Y0077841D01*
X0080166D01*
Y0076955D01*
X0082974D01*
Y0079763D01*
X0080166D01*
Y0078877D01*
X0078970D01*
Y0079313D01*
X0077262D01*
D01*
D01*
X0077262Y0079313D01*
X0077170D01*
Y0079313D01*
X0075462D01*
Y0078877D01*
X0073289D01*
Y0086526D01*
X0074661Y0087899D01*
X0074774Y0088067D01*
X0074813Y0088265D01*
X0074813Y0088265D01*
X0074813Y0088265D01*
Y0088265D01*
Y0105990D01*
X0074838Y0106010D01*
X0074908Y0106100D01*
X0080772D01*
Y0105981D01*
X0083312D01*
Y0106420D01*
X0084389Y0107497D01*
X0092522D01*
X0092645Y0107374D01*
D02*
G37*
G36*
X0115918Y0086779D02*
X0115839Y0086726D01*
X0115726Y0086558D01*
X0115687Y0086360D01*
X0115726Y0086162D01*
X0115839Y0085994D01*
X0116007Y0085881D01*
X0116205Y0085842D01*
X0116239Y0085849D01*
X0116329Y0085759D01*
X0116322Y0085725D01*
X0116361Y0085527D01*
X0116452Y0085392D01*
Y0085378D01*
X0115751Y0084677D01*
X0114835D01*
X0114754Y0084776D01*
X0114757Y0084789D01*
X0114726Y0084947D01*
X0114664Y0085039D01*
X0114726Y0085131D01*
X0114757Y0085289D01*
X0114726Y0085447D01*
X0114664Y0085539D01*
X0114726Y0085631D01*
X0114732Y0085662D01*
X0114514D01*
X0114503Y0085670D01*
X0114345Y0085701D01*
X0113595D01*
Y0085877D01*
X0114345D01*
X0114503Y0085908D01*
X0114514Y0085916D01*
X0114732D01*
X0114726Y0085947D01*
X0114664Y0086039D01*
X0114726Y0086131D01*
X0114757Y0086289D01*
X0114726Y0086447D01*
X0114664Y0086539D01*
X0114726Y0086631D01*
X0114757Y0086789D01*
X0114754Y0086802D01*
X0114835Y0086901D01*
X0115881D01*
X0115918Y0086779D01*
D02*
G37*
G36*
X0062822Y0088375D02*
X0061806D01*
Y0088375D01*
X0061098D01*
Y0089018D01*
X0061220Y0089055D01*
X0061229Y0089042D01*
X0061397Y0088929D01*
X0061468Y0088915D01*
Y0089408D01*
X0061595D01*
Y0089535D01*
X0062088D01*
X0062074Y0089606D01*
X0061961Y0089774D01*
X0061942Y0089787D01*
X0061979Y0089909D01*
X0062822D01*
Y0088375D01*
D02*
G37*
%LPC*%
G36*
X0060312Y0102362D02*
X0059817D01*
Y0101867D01*
X0059938Y0101891D01*
X0060148Y0102031D01*
X0060288Y0102241D01*
X0060312Y0102362D01*
D02*
G37*
G36*
X0083312Y0103314D02*
X0080772D01*
Y0102172D01*
X0083312D01*
Y0103314D01*
D02*
G37*
G36*
X0062016Y0103629D02*
X0060789D01*
Y0102402D01*
X0062016D01*
Y0103629D01*
D02*
G37*
G36*
X0070866Y0102997D02*
X0069985D01*
X0070003Y0102859D01*
X0070106Y0102612D01*
X0070268Y0102399D01*
X0070481Y0102237D01*
X0070728Y0102134D01*
X0070866Y0102116D01*
Y0102997D01*
D02*
G37*
G36*
X0072001D02*
X0071120D01*
Y0102116D01*
X0071258Y0102134D01*
X0071505Y0102237D01*
X0071718Y0102399D01*
X0071880Y0102612D01*
X0071983Y0102859D01*
X0072001Y0102997D01*
D02*
G37*
G36*
X0059563Y0102362D02*
X0059068D01*
X0059092Y0102241D01*
X0059232Y0102031D01*
X0059442Y0101891D01*
X0059563Y0101867D01*
Y0102362D01*
D02*
G37*
G36*
X0083312Y0101346D02*
X0082169D01*
Y0100901D01*
X0083312D01*
Y0101346D01*
D02*
G37*
G36*
X0081915D02*
X0080772D01*
Y0100901D01*
X0081915D01*
Y0101346D01*
D02*
G37*
G36*
X0089789Y0095947D02*
X0089212D01*
Y0095420D01*
X0089789D01*
Y0095947D01*
D02*
G37*
G36*
X0062016Y0102148D02*
X0060789D01*
Y0100921D01*
X0062016D01*
Y0102148D01*
D02*
G37*
G36*
X0083312Y0102045D02*
X0082169D01*
Y0101600D01*
X0083312D01*
Y0102045D01*
D02*
G37*
G36*
X0081915D02*
X0080772D01*
Y0101600D01*
X0081915D01*
Y0102045D01*
D02*
G37*
G36*
X0063497Y0102148D02*
X0062270D01*
Y0100921D01*
X0063497D01*
Y0102148D01*
D02*
G37*
G36*
X0081915Y0104585D02*
X0080772D01*
Y0104140D01*
X0081915D01*
Y0104585D01*
D02*
G37*
G36*
X0083312D02*
X0082169D01*
Y0104140D01*
X0083312D01*
Y0104585D01*
D02*
G37*
G36*
X0081915Y0103886D02*
X0080772D01*
Y0103441D01*
X0081915D01*
Y0103886D01*
D02*
G37*
G36*
X0083312D02*
X0082169D01*
Y0103441D01*
X0083312D01*
Y0103886D01*
D02*
G37*
G36*
X0081915Y0105854D02*
X0080772D01*
Y0105410D01*
X0081915D01*
Y0105854D01*
D02*
G37*
G36*
X0083312D02*
X0082169D01*
Y0105410D01*
X0083312D01*
Y0105854D01*
D02*
G37*
G36*
X0081915Y0105156D02*
X0080772D01*
Y0104712D01*
X0081915D01*
Y0105156D01*
D02*
G37*
G36*
X0083312D02*
X0082169D01*
Y0104712D01*
X0083312D01*
Y0105156D01*
D02*
G37*
G36*
X0100965Y0103746D02*
Y0103251D01*
X0101460D01*
X0101436Y0103372D01*
X0101296Y0103582D01*
X0101086Y0103722D01*
X0100965Y0103746D01*
D02*
G37*
G36*
X0101460Y0102997D02*
X0100965D01*
Y0102502D01*
X0101086Y0102526D01*
X0101296Y0102666D01*
X0101436Y0102876D01*
X0101460Y0102997D01*
D02*
G37*
G36*
X0059563Y0103111D02*
X0059442Y0103087D01*
X0059232Y0102947D01*
X0059092Y0102737D01*
X0059068Y0102616D01*
X0059563D01*
Y0103111D01*
D02*
G37*
G36*
X0063497Y0103629D02*
X0062270D01*
Y0102402D01*
X0063497D01*
Y0103629D01*
D02*
G37*
G36*
X0100711Y0102997D02*
X0100216D01*
X0100240Y0102876D01*
X0100380Y0102666D01*
X0100590Y0102526D01*
X0100711Y0102502D01*
Y0102997D01*
D02*
G37*
G36*
X0071120Y0104132D02*
Y0103251D01*
X0072001D01*
X0071983Y0103389D01*
X0071880Y0103636D01*
X0071718Y0103849D01*
X0071505Y0104011D01*
X0071258Y0104114D01*
X0071120Y0104132D01*
D02*
G37*
G36*
X0100711Y0103746D02*
X0100590Y0103722D01*
X0100380Y0103582D01*
X0100240Y0103372D01*
X0100216Y0103251D01*
X0100711D01*
Y0103746D01*
D02*
G37*
G36*
X0059817Y0103111D02*
Y0102616D01*
X0060312D01*
X0060288Y0102737D01*
X0060148Y0102947D01*
X0059938Y0103087D01*
X0059817Y0103111D01*
D02*
G37*
G36*
X0070866Y0104132D02*
X0070728Y0104114D01*
X0070481Y0104011D01*
X0070268Y0103849D01*
X0070106Y0103636D01*
X0070003Y0103389D01*
X0069985Y0103251D01*
X0070866D01*
Y0104132D01*
D02*
G37*
G36*
X0062088Y0089281D02*
X0061722D01*
Y0088915D01*
X0061793Y0088929D01*
X0061961Y0089042D01*
X0062074Y0089210D01*
X0062088Y0089281D01*
D02*
G37*
G36*
X0095504Y0089685D02*
X0095009D01*
X0095033Y0089565D01*
X0095173Y0089355D01*
X0095383Y0089214D01*
X0095504Y0089190D01*
Y0089685D01*
D02*
G37*
G36*
X0059083Y0089253D02*
X0058717D01*
X0058731Y0089182D01*
X0058844Y0089014D01*
X0059012Y0088901D01*
X0059083Y0088887D01*
Y0089253D01*
D02*
G37*
G36*
X0059703D02*
X0059337D01*
Y0088887D01*
X0059408Y0088901D01*
X0059576Y0089014D01*
X0059689Y0089182D01*
X0059703Y0089253D01*
D02*
G37*
G36*
X0085471Y0072200D02*
X0083439D01*
Y0070168D01*
X0083927D01*
X0083952Y0070043D01*
X0083943Y0070039D01*
X0083730Y0069876D01*
X0083568Y0069664D01*
X0083465Y0069417D01*
X0083447Y0069279D01*
X0085463D01*
X0085445Y0069417D01*
X0085342Y0069664D01*
X0085180Y0069876D01*
X0084967Y0070039D01*
X0084958Y0070043D01*
X0084983Y0070168D01*
X0085471D01*
Y0072200D01*
D02*
G37*
G36*
X0078626Y0091031D02*
Y0089408D01*
X0080249D01*
X0080228Y0089625D01*
X0080127Y0089955D01*
X0079964Y0090260D01*
X0079745Y0090527D01*
X0079478Y0090746D01*
X0079173Y0090909D01*
X0078843Y0091010D01*
X0078626Y0091031D01*
D02*
G37*
G36*
X0096253Y0089685D02*
X0095758D01*
Y0089190D01*
X0095879Y0089214D01*
X0096089Y0089355D01*
X0096229Y0089565D01*
X0096253Y0089685D01*
D02*
G37*
G36*
X0078372Y0091031D02*
X0078155Y0091010D01*
X0077825Y0090909D01*
X0077520Y0090746D01*
X0077253Y0090527D01*
X0077034Y0090260D01*
X0076871Y0089955D01*
X0076770Y0089625D01*
X0076749Y0089408D01*
X0078372D01*
Y0091031D01*
D02*
G37*
G36*
X0080249Y0089154D02*
X0078626D01*
Y0087531D01*
X0078843Y0087552D01*
X0079173Y0087653D01*
X0079478Y0087816D01*
X0079745Y0088035D01*
X0079964Y0088302D01*
X0080127Y0088607D01*
X0080228Y0088937D01*
X0080249Y0089154D01*
D02*
G37*
G36*
X0104140Y0085204D02*
X0104019Y0085180D01*
X0103809Y0085040D01*
X0103669Y0084830D01*
X0103645Y0084709D01*
X0104140D01*
Y0085204D01*
D02*
G37*
G36*
X0104394D02*
Y0084709D01*
X0104889D01*
X0104865Y0084830D01*
X0104725Y0085040D01*
X0104515Y0085180D01*
X0104394Y0085204D01*
D02*
G37*
G36*
X0104140Y0084455D02*
X0103645D01*
X0103669Y0084334D01*
X0103809Y0084124D01*
X0104019Y0083984D01*
X0104140Y0083960D01*
Y0084455D01*
D02*
G37*
G36*
X0104889D02*
X0104394D01*
Y0083960D01*
X0104515Y0083984D01*
X0104725Y0084124D01*
X0104865Y0084334D01*
X0104889Y0084455D01*
D02*
G37*
G36*
X0110109Y0087490D02*
X0109988Y0087466D01*
X0109778Y0087326D01*
X0109638Y0087116D01*
X0109614Y0086995D01*
X0110109D01*
Y0087490D01*
D02*
G37*
G36*
X0078372Y0089154D02*
X0076749D01*
X0076770Y0088937D01*
X0076871Y0088607D01*
X0077034Y0088302D01*
X0077253Y0088035D01*
X0077520Y0087816D01*
X0077825Y0087653D01*
X0078155Y0087552D01*
X0078372Y0087531D01*
Y0089154D01*
D02*
G37*
G36*
X0082550Y0097673D02*
X0082352Y0097634D01*
X0082184Y0097521D01*
X0082071Y0097353D01*
X0082032Y0097155D01*
X0082071Y0096957D01*
X0082162Y0096822D01*
Y0087372D01*
X0082092Y0087326D01*
X0081952Y0087116D01*
X0081903Y0086868D01*
X0081952Y0086620D01*
X0082092Y0086410D01*
X0082302Y0086270D01*
X0082550Y0086221D01*
X0082798Y0086270D01*
X0083008Y0086410D01*
X0083148Y0086620D01*
X0083197Y0086868D01*
X0083148Y0087116D01*
X0083008Y0087326D01*
X0082938Y0087372D01*
Y0096822D01*
X0083029Y0096957D01*
X0083068Y0097155D01*
X0083029Y0097353D01*
X0082916Y0097521D01*
X0082748Y0097634D01*
X0082550Y0097673D01*
D02*
G37*
G36*
X0110109Y0086741D02*
X0109614D01*
X0109638Y0086620D01*
X0109778Y0086410D01*
X0109988Y0086270D01*
X0110109Y0086246D01*
Y0086741D01*
D02*
G37*
G36*
X0109855Y0094869D02*
X0109360D01*
X0109384Y0094748D01*
X0109524Y0094538D01*
X0109734Y0094398D01*
X0109855Y0094374D01*
Y0094869D01*
D02*
G37*
G36*
X0110604D02*
X0110109D01*
Y0094374D01*
X0110230Y0094398D01*
X0110440Y0094538D01*
X0110580Y0094748D01*
X0110604Y0094869D01*
D02*
G37*
G36*
X0076962Y0068514D02*
Y0066612D01*
X0078864D01*
X0078838Y0066883D01*
X0078721Y0067266D01*
X0078533Y0067619D01*
X0078279Y0067928D01*
X0077969Y0068182D01*
X0077616Y0068371D01*
X0077233Y0068487D01*
X0076962Y0068514D01*
D02*
G37*
G36*
X0076708D02*
X0076437Y0068487D01*
X0076054Y0068371D01*
X0075701Y0068182D01*
X0075391Y0067928D01*
X0075137Y0067619D01*
X0074949Y0067266D01*
X0074832Y0066883D01*
X0074806Y0066612D01*
X0076708D01*
Y0068514D01*
D02*
G37*
G36*
X0109855Y0095618D02*
X0109734Y0095594D01*
X0109524Y0095454D01*
X0109384Y0095244D01*
X0109360Y0095123D01*
X0109855D01*
Y0095618D01*
D02*
G37*
G36*
X0110109D02*
Y0095123D01*
X0110604D01*
X0110580Y0095244D01*
X0110440Y0095454D01*
X0110230Y0095594D01*
X0110109Y0095618D01*
D02*
G37*
G36*
X0065133Y0094975D02*
X0064406D01*
Y0094698D01*
X0065133D01*
Y0094975D01*
D02*
G37*
G36*
X0066114D02*
X0065387D01*
Y0094698D01*
X0066114D01*
Y0094975D01*
D02*
G37*
G36*
X0089408Y0068514D02*
X0089137Y0068487D01*
X0088754Y0068371D01*
X0088401Y0068182D01*
X0088091Y0067928D01*
X0087837Y0067619D01*
X0087649Y0067266D01*
X0087532Y0066883D01*
X0087506Y0066612D01*
X0089408D01*
Y0068514D01*
D02*
G37*
G36*
X0081915Y0072208D02*
X0081650Y0072173D01*
X0081403Y0072071D01*
X0081190Y0071908D01*
X0081028Y0071696D01*
X0080925Y0071449D01*
X0080890Y0071184D01*
X0080925Y0070918D01*
X0081028Y0070671D01*
X0081190Y0070459D01*
X0081403Y0070296D01*
X0081560Y0070231D01*
Y0070104D01*
X0081403Y0070039D01*
X0081190Y0069876D01*
X0081028Y0069664D01*
X0080925Y0069417D01*
X0080890Y0069151D01*
X0080925Y0068886D01*
X0081028Y0068639D01*
X0081190Y0068427D01*
X0081403Y0068264D01*
X0081650Y0068162D01*
X0081915Y0068127D01*
X0082180Y0068162D01*
X0082427Y0068264D01*
X0082640Y0068427D01*
X0082802Y0068639D01*
X0082905Y0068886D01*
X0082940Y0069151D01*
X0082905Y0069417D01*
X0082802Y0069664D01*
X0082640Y0069876D01*
X0082427Y0070039D01*
X0082270Y0070104D01*
Y0070231D01*
X0082427Y0070296D01*
X0082640Y0070459D01*
X0082802Y0070671D01*
X0082905Y0070918D01*
X0082940Y0071184D01*
X0082905Y0071449D01*
X0082802Y0071696D01*
X0082640Y0071908D01*
X0082427Y0072071D01*
X0082180Y0072173D01*
X0081915Y0072208D01*
D02*
G37*
G36*
X0059083Y0089873D02*
X0059012Y0089859D01*
X0058844Y0089746D01*
X0058731Y0089578D01*
X0058717Y0089507D01*
X0059083D01*
Y0089873D01*
D02*
G37*
G36*
X0085463Y0069024D02*
X0084582D01*
Y0068143D01*
X0084720Y0068162D01*
X0084967Y0068264D01*
X0085180Y0068427D01*
X0085342Y0068639D01*
X0085445Y0068886D01*
X0085463Y0069024D01*
D02*
G37*
G36*
X0084328D02*
X0083447D01*
X0083465Y0068886D01*
X0083568Y0068639D01*
X0083730Y0068427D01*
X0083943Y0068264D01*
X0084190Y0068162D01*
X0084328Y0068143D01*
Y0069024D01*
D02*
G37*
G36*
X0095758Y0090435D02*
Y0089939D01*
X0096253D01*
X0096229Y0090060D01*
X0096089Y0090270D01*
X0095879Y0090411D01*
X0095758Y0090435D01*
D02*
G37*
G36*
X0089662Y0068514D02*
Y0066612D01*
X0091564D01*
X0091538Y0066883D01*
X0091421Y0067266D01*
X0091233Y0067619D01*
X0090979Y0067928D01*
X0090669Y0068182D01*
X0090316Y0068371D01*
X0089933Y0068487D01*
X0089662Y0068514D01*
D02*
G37*
G36*
X0059337Y0089873D02*
Y0089507D01*
X0059703D01*
X0059689Y0089578D01*
X0059576Y0089746D01*
X0059408Y0089859D01*
X0059337Y0089873D01*
D02*
G37*
G36*
X0095504Y0090435D02*
X0095383Y0090411D01*
X0095173Y0090270D01*
X0095033Y0090060D01*
X0095009Y0089939D01*
X0095504D01*
Y0090435D01*
D02*
G37*
%LPD*%
D10*
X0090740Y0100457D02*
D03*
X0092140D02*
D03*
X0065470Y0098679D02*
D03*
X0064070D02*
D03*
X0068134Y0083566D02*
D03*
X0069534D02*
D03*
X0069534Y0084963D02*
D03*
X0068134D02*
D03*
X0069534Y0086360D02*
D03*
X0068134D02*
D03*
X0128716Y0072009D02*
D03*
X0127316D02*
D03*
X0125541D02*
D03*
X0124141D02*
D03*
X0082612Y0075057D02*
D03*
X0084012D02*
D03*
X0090740Y0106553D02*
D03*
X0092140D02*
D03*
X0090740Y0105029D02*
D03*
X0092140D02*
D03*
X0090740Y0101854D02*
D03*
X0092140D02*
D03*
X0107888Y0071628D02*
D03*
X0106488D02*
D03*
X0099884Y0106553D02*
D03*
X0101284D02*
D03*
X0115951Y0077470D02*
D03*
X0117351D02*
D03*
X0099884Y0105156D02*
D03*
X0101284D02*
D03*
X0117351Y0078867D02*
D03*
X0115951D02*
D03*
X0162241Y0091440D02*
D03*
X0163641D02*
D03*
D11*
X0057150Y0101027D02*
D03*
Y0102427D02*
D03*
X0071755Y0088327D02*
D03*
Y0089727D02*
D03*
X0066675Y0081599D02*
D03*
Y0080199D02*
D03*
X0053975Y0087314D02*
D03*
Y0085914D02*
D03*
X0065405Y0080199D02*
D03*
Y0081599D02*
D03*
X0064135Y0080199D02*
D03*
Y0081599D02*
D03*
X0062865Y0080199D02*
D03*
Y0081599D02*
D03*
X0061595Y0080199D02*
D03*
Y0081599D02*
D03*
X0057785Y0080199D02*
D03*
Y0081599D02*
D03*
X0059055Y0080199D02*
D03*
Y0081599D02*
D03*
X0053975Y0081599D02*
D03*
Y0080199D02*
D03*
X0055245Y0081599D02*
D03*
Y0080199D02*
D03*
X0121412Y0079691D02*
D03*
Y0081091D02*
D03*
X0134366Y0075373D02*
D03*
Y0076773D02*
D03*
X0121412Y0076770D02*
D03*
Y0078170D02*
D03*
X0144399Y0089346D02*
D03*
Y0087946D02*
D03*
Y0092140D02*
D03*
Y0090740D02*
D03*
X0092202Y0096074D02*
D03*
Y0097474D02*
D03*
X0098425Y0102170D02*
D03*
Y0103570D02*
D03*
X0089916Y0097474D02*
D03*
Y0096074D02*
D03*
X0166751Y0083250D02*
D03*
Y0081850D02*
D03*
D12*
X0132461Y0079616D02*
D03*
X0131191D02*
D03*
X0129921D02*
D03*
X0128651D02*
D03*
X0127381D02*
D03*
X0126111D02*
D03*
X0124841D02*
D03*
X0123571D02*
D03*
X0132461Y0074816D02*
D03*
X0131191D02*
D03*
X0129921D02*
D03*
X0128651D02*
D03*
X0127381D02*
D03*
X0126111D02*
D03*
X0124841D02*
D03*
X0123571D02*
D03*
D13*
X0138360Y0086343D02*
D03*
X0139660D02*
D03*
X0140960D02*
D03*
X0142260D02*
D03*
X0142310Y0093693D02*
D03*
X0140910D02*
D03*
X0139660D02*
D03*
X0138360D02*
D03*
D14*
X0086070Y0078359D02*
D03*
X0081570D02*
D03*
X0164247Y0076200D02*
D03*
X0168747D02*
D03*
D15*
X0078116Y0078359D02*
D03*
X0076316D02*
D03*
D16*
X0062143Y0107275D02*
D03*
Y0102275D02*
D03*
X0067143Y0107275D02*
D03*
Y0102275D02*
D03*
D17*
X0098495Y0095789D02*
D03*
Y0095289D02*
D03*
Y0094789D02*
D03*
Y0094289D02*
D03*
Y0093789D02*
D03*
Y0093289D02*
D03*
Y0092789D02*
D03*
Y0092289D02*
D03*
Y0091789D02*
D03*
Y0091289D02*
D03*
Y0090789D02*
D03*
Y0090289D02*
D03*
Y0089789D02*
D03*
Y0089289D02*
D03*
Y0088789D02*
D03*
Y0088289D02*
D03*
Y0087789D02*
D03*
Y0087289D02*
D03*
Y0086789D02*
D03*
Y0086289D02*
D03*
Y0085789D02*
D03*
Y0085289D02*
D03*
Y0084789D02*
D03*
Y0084289D02*
D03*
Y0083789D02*
D03*
X0113595D02*
D03*
Y0084289D02*
D03*
Y0084789D02*
D03*
Y0085289D02*
D03*
Y0085789D02*
D03*
Y0086289D02*
D03*
Y0086789D02*
D03*
Y0087289D02*
D03*
Y0087789D02*
D03*
Y0088289D02*
D03*
Y0088789D02*
D03*
Y0089289D02*
D03*
Y0089789D02*
D03*
Y0090289D02*
D03*
Y0090789D02*
D03*
Y0091289D02*
D03*
Y0091789D02*
D03*
Y0092289D02*
D03*
Y0092789D02*
D03*
Y0093289D02*
D03*
Y0093789D02*
D03*
Y0094289D02*
D03*
Y0094789D02*
D03*
Y0095289D02*
D03*
Y0095789D02*
D03*
D18*
X0100045Y0082239D02*
D03*
X0100545D02*
D03*
X0101045D02*
D03*
X0101545D02*
D03*
X0102045D02*
D03*
X0102545D02*
D03*
X0103045D02*
D03*
X0103545D02*
D03*
X0104045D02*
D03*
X0104545D02*
D03*
X0105045D02*
D03*
X0105545D02*
D03*
X0106045D02*
D03*
X0106545D02*
D03*
X0107045D02*
D03*
X0107545D02*
D03*
X0108045D02*
D03*
X0108545D02*
D03*
X0109045D02*
D03*
X0109545D02*
D03*
X0110045D02*
D03*
X0110545D02*
D03*
X0111045D02*
D03*
X0111545D02*
D03*
X0112045D02*
D03*
Y0097339D02*
D03*
X0111545D02*
D03*
X0111045D02*
D03*
X0110545D02*
D03*
X0110045D02*
D03*
X0109545D02*
D03*
X0109045D02*
D03*
X0108545D02*
D03*
X0108045D02*
D03*
X0107545D02*
D03*
X0107045D02*
D03*
X0106545D02*
D03*
X0106045D02*
D03*
X0105545D02*
D03*
X0105045D02*
D03*
X0104545D02*
D03*
X0104045D02*
D03*
X0103545D02*
D03*
X0103045D02*
D03*
X0102545D02*
D03*
X0102045D02*
D03*
X0101545D02*
D03*
X0101045D02*
D03*
X0100545D02*
D03*
X0100045D02*
D03*
D19*
X0155448Y0074803D02*
D03*
X0149606D02*
D03*
D20*
X0152400Y0088646D02*
D03*
Y0082804D02*
D03*
D21*
X0056660Y0094571D02*
D03*
Y0094071D02*
D03*
Y0093571D02*
D03*
Y0093071D02*
D03*
Y0092571D02*
D03*
Y0092071D02*
D03*
Y0091571D02*
D03*
Y0091071D02*
D03*
Y0090571D02*
D03*
Y0090071D02*
D03*
Y0089571D02*
D03*
Y0089071D02*
D03*
X0065260D02*
D03*
Y0089571D02*
D03*
Y0090071D02*
D03*
Y0090571D02*
D03*
Y0091071D02*
D03*
Y0091571D02*
D03*
Y0092071D02*
D03*
Y0092571D02*
D03*
Y0093071D02*
D03*
Y0093571D02*
D03*
Y0094071D02*
D03*
Y0094571D02*
D03*
D22*
X0058210Y0087521D02*
D03*
X0058710D02*
D03*
X0059210D02*
D03*
X0059710D02*
D03*
X0060210D02*
D03*
X0060710D02*
D03*
X0061210D02*
D03*
X0061710D02*
D03*
X0062210Y0087521D02*
D03*
X0062710D02*
D03*
X0063210D02*
D03*
X0063710D02*
D03*
X0063710Y0096121D02*
D03*
X0063210D02*
D03*
X0062710D02*
D03*
X0062210D02*
D03*
X0061710D02*
D03*
X0061210D02*
D03*
X0060710D02*
D03*
X0060210D02*
D03*
X0059710Y0096121D02*
D03*
X0059210D02*
D03*
X0058710D02*
D03*
X0058210D02*
D03*
D23*
X0086868Y0106553D02*
D03*
Y0105283D02*
D03*
Y0104013D02*
D03*
Y0102743D02*
D03*
Y0101473D02*
D03*
X0082042D02*
D03*
Y0102743D02*
D03*
Y0104013D02*
D03*
Y0105283D02*
D03*
Y0106553D02*
D03*
D24*
X0159117Y0082698D02*
D03*
X0161417D02*
D03*
X0163717D02*
D03*
D25*
X0161417Y0088498D02*
D03*
D26*
X0149860Y0087122D02*
X0152400D01*
X0143764Y0081026D02*
X0149860Y0087122D01*
X0143764Y0063373D02*
Y0081026D01*
X0119380Y0064643D02*
Y0070104D01*
Y0064643D02*
X0122174Y0061849D01*
X0142240D01*
X0143764Y0063373D01*
X0147955D02*
X0153035D01*
X0156972D01*
X0158750Y0061595D01*
X0159258Y0074803D02*
X0160655Y0076200D01*
X0155448Y0074803D02*
X0159258D01*
X0160655Y0076200D02*
X0164247D01*
X0161417Y0082698D02*
Y0088498D01*
X0152400D02*
X0161417D01*
X0143764Y0063373D02*
X0147955D01*
D27*
X0092140Y0100457D02*
Y0101854D01*
X0086868Y0101473D02*
X0089027D01*
X0090043Y0100457D01*
X0090740D01*
X0107045Y0093107D02*
Y0097339D01*
X0106545Y0094226D02*
Y0097339D01*
X0106172Y0093853D02*
X0106545Y0094226D01*
X0104045Y0095282D02*
Y0097339D01*
X0092487Y0087789D02*
X0098495D01*
X0082550Y0086868D02*
Y0097155D01*
X0062210Y0093619D02*
Y0096121D01*
X0065260Y0092071D02*
X0070862D01*
X0071501Y0092710D01*
X0072390D01*
X0071120Y0093571D02*
Y0098298D01*
X0065260Y0093571D02*
X0071120D01*
X0065260Y0094074D02*
X0066639Y0094071D01*
X0058210Y0096121D02*
Y0103295D01*
X0057150Y0102427D02*
X0058210D01*
X0058928Y0083820D02*
X0059710Y0084602D01*
X0068072Y0079121D02*
Y0081153D01*
X0067626Y0081599D02*
X0068072Y0081153D01*
X0066675Y0081599D02*
X0067626D01*
X0067564Y0078613D02*
X0068072Y0079121D01*
X0065405Y0081599D02*
X0066675D01*
X0062710Y0096121D02*
Y0098143D01*
X0063246Y0098679D01*
X0064070D01*
X0069534Y0086360D02*
X0070612D01*
X0071755Y0087503D01*
Y0088327D01*
X0065260Y0091071D02*
X0068949D01*
X0069850Y0090170D01*
X0065260Y0091571D02*
X0071752D01*
X0071755Y0089727D02*
Y0091568D01*
X0062865Y0081599D02*
Y0082550D01*
X0063373Y0083058D01*
X0064262D01*
X0066929D01*
X0067437Y0082550D01*
X0069534D01*
Y0084963D01*
Y0086360D01*
X0066566Y0084437D02*
X0067455Y0083548D01*
X0068152D01*
X0065260Y0090071D02*
X0067155D01*
X0068134Y0089092D01*
Y0086360D02*
Y0089092D01*
X0065260Y0090571D02*
X0067417D01*
X0068961Y0089027D01*
Y0088265D02*
Y0089027D01*
X0065260Y0089571D02*
X0066893D01*
X0067183Y0088265D02*
Y0089281D01*
X0066893Y0089571D02*
X0067183Y0089281D01*
X0063710Y0087521D02*
X0065387D01*
X0061595Y0081599D02*
X0062865D01*
X0061595Y0078994D02*
Y0080199D01*
X0056072Y0085914D02*
X0057785Y0084201D01*
Y0081599D02*
Y0084201D01*
Y0081599D02*
X0059055D01*
X0061595D01*
X0059055Y0078994D02*
Y0080199D01*
X0057785Y0078994D02*
Y0080199D01*
X0057785Y0076073D02*
Y0078994D01*
X0056515Y0078613D02*
Y0081153D01*
X0056069Y0081599D02*
X0056515Y0081153D01*
X0055245Y0081599D02*
X0056069D01*
X0053975D02*
X0055245D01*
X0102997Y0099822D02*
X0103545Y0099274D01*
X0102870Y0101092D02*
X0104545Y0099417D01*
X0103759Y0101981D02*
X0105045Y0100695D01*
X0106045Y0097339D02*
Y0099568D01*
X0103545Y0097339D02*
Y0099274D01*
X0104545Y0097339D02*
Y0099417D01*
X0105545Y0097339D02*
Y0101346D01*
X0105045Y0097339D02*
Y0100695D01*
X0103045Y0094155D02*
Y0097339D01*
X0102489Y0093599D02*
X0103045Y0094155D01*
X0102545Y0095179D02*
Y0097339D01*
X0101981Y0094615D02*
X0102545Y0095179D01*
X0101045Y0093773D02*
Y0097339D01*
Y0093773D02*
X0102616Y0092202D01*
X0100545Y0093511D02*
Y0097339D01*
Y0093511D02*
X0102743Y0091313D01*
X0102616Y0092202D02*
X0105283D01*
X0102743Y0091313D02*
X0106172D01*
X0131191Y0079632D02*
Y0082185D01*
X0124841Y0074816D02*
Y0076327D01*
X0124398Y0076770D02*
X0124841Y0076327D01*
X0121412Y0076770D02*
X0124398D01*
X0121412Y0078170D02*
Y0079691D01*
X0131191Y0077724D02*
Y0079616D01*
X0132461Y0077724D02*
Y0079616D01*
X0129921Y0074816D02*
Y0076327D01*
X0130364Y0076770D01*
X0134366D01*
X0126111Y0072579D02*
Y0074816D01*
X0125541Y0072009D02*
X0126111Y0072579D01*
X0123571Y0072579D02*
X0124141Y0072009D01*
X0123571Y0072579D02*
Y0074816D01*
X0127381Y0072074D02*
Y0074816D01*
X0128651Y0072074D02*
Y0074816D01*
X0130405Y0067054D02*
Y0069088D01*
X0131191Y0069874D01*
Y0074816D01*
X0132461Y0069596D02*
Y0074816D01*
X0131826Y0068961D02*
X0132461Y0069596D01*
X0131826Y0066294D02*
Y0068961D01*
X0131191Y0065659D02*
X0131826Y0066294D01*
X0129030Y0065659D02*
X0131191D01*
X0127635Y0067054D02*
X0129030Y0065659D01*
X0142310Y0091948D02*
Y0093693D01*
X0140589Y0084963D02*
X0140960Y0085334D01*
Y0086343D01*
X0113595Y0088289D02*
X0134469D01*
X0139065Y0088138D02*
X0139660Y0087543D01*
X0136144Y0088138D02*
X0139065D01*
X0114554Y0089281D02*
X0135001D01*
X0141097Y0088646D02*
X0142260Y0087483D01*
Y0086343D02*
Y0087483D01*
X0139660Y0086343D02*
Y0087543D01*
X0136779Y0089789D02*
X0138360Y0091116D01*
Y0093693D01*
X0084709Y0100628D02*
X0085388Y0099949D01*
X0088138D01*
X0084709Y0105664D02*
X0085598Y0106553D01*
X0084709Y0100628D02*
Y0105664D01*
X0085598Y0106553D02*
X0086868D01*
X0085217Y0100838D02*
X0085598Y0100457D01*
X0088900D01*
X0085217Y0104902D02*
X0085598Y0105283D01*
X0085217Y0100838D02*
Y0104902D01*
X0085598Y0105283D02*
X0086868D01*
Y0102743D02*
X0094234D01*
X0090740Y0101854D02*
Y0102681D01*
X0094234Y0102743D02*
X0094996Y0101981D01*
X0093726Y0104013D02*
X0095473Y0102266D01*
X0090740Y0104013D02*
Y0105029D01*
X0086868Y0104013D02*
X0093726D01*
X0094996Y0096647D02*
X0096354Y0095289D01*
X0094996Y0096647D02*
Y0101981D01*
X0095473Y0096805D02*
Y0102266D01*
X0093980Y0097028D02*
Y0098171D01*
Y0097028D02*
X0096219Y0094789D01*
X0096489Y0095789D02*
X0098495D01*
X0095473Y0096805D02*
X0096489Y0095789D01*
X0096354Y0095289D02*
X0098495D01*
X0096219Y0094789D02*
X0098495D01*
X0095631Y0089812D02*
X0096654Y0088789D01*
X0098495D01*
X0095631Y0089812D02*
X0096608Y0090789D01*
X0098495D01*
Y0089289D02*
X0102100D01*
X0100457Y0090289D02*
X0108037D01*
X0098495Y0091289D02*
X0100457D01*
Y0090289D02*
Y0091289D01*
X0098495Y0090289D02*
X0100457D01*
X0108045Y0093789D02*
X0113595D01*
X0108045D02*
Y0097339D01*
X0108545Y0095417D02*
Y0097339D01*
X0109982Y0094996D02*
X0110689Y0094289D01*
X0113595D01*
X0108966Y0094996D02*
X0109982D01*
X0108545Y0095417D02*
X0108966Y0094996D01*
X0110236Y0086868D02*
X0111315Y0085789D01*
X0113595D01*
X0107545Y0082239D02*
Y0083717D01*
X0106934Y0084328D02*
X0107545Y0083717D01*
X0106934Y0084328D02*
Y0084582D01*
X0103251D02*
X0104267D01*
X0102545Y0083876D02*
X0103251Y0084582D01*
X0102545Y0082239D02*
Y0083876D01*
X0104267Y0084582D02*
X0106934D01*
X0102702Y0086106D02*
X0108045D01*
X0074041Y0065024D02*
X0075057Y0064008D01*
X0098044D02*
X0103045Y0069009D01*
X0075057Y0064008D02*
X0098044D01*
X0103045Y0069009D02*
Y0082239D01*
X0102045Y0077788D02*
Y0082239D01*
X0101545Y0078050D02*
Y0082239D01*
X0099314Y0075819D02*
X0101545Y0078050D01*
X0098552Y0074295D02*
X0102045Y0077788D01*
X0100045Y0080741D02*
Y0082239D01*
X0096520Y0077216D02*
X0100045Y0080741D01*
X0100545Y0079971D02*
Y0082239D01*
X0097790Y0077216D02*
X0100545Y0079971D01*
X0066790Y0092571D02*
X0067056Y0092837D01*
X0065260Y0092571D02*
X0066790D01*
X0061710Y0098413D02*
X0062103Y0098806D01*
X0061710Y0096121D02*
Y0098413D01*
X0060710Y0096121D02*
Y0100203D01*
X0059690Y0099314D02*
Y0100965D01*
Y0099314D02*
X0060210Y0098794D01*
Y0096121D02*
Y0098794D01*
X0056660Y0094071D02*
X0060234D01*
X0095631Y0085852D02*
X0096568Y0086789D01*
X0098495D01*
X0086070Y0085852D02*
X0095631D01*
X0086360Y0074295D02*
X0098552D01*
X0086360Y0075819D02*
X0099314D01*
X0085598Y0075057D02*
X0086360Y0075819D01*
X0084012Y0075057D02*
X0085598D01*
X0055245Y0076073D02*
Y0080199D01*
X0059055Y0075438D02*
Y0078994D01*
X0061595Y0075438D02*
Y0078994D01*
X0060960Y0074803D02*
X0061595Y0075438D01*
X0060325Y0074803D02*
X0060960D01*
X0059055Y0073533D02*
X0060325Y0074803D01*
X0063627D02*
X0064135Y0075311D01*
X0062865Y0074803D02*
X0063627D01*
X0061595Y0073533D02*
X0062865Y0074803D01*
X0058293Y0074676D02*
X0059055Y0075438D01*
X0057658Y0074676D02*
X0058293D01*
X0056515Y0073533D02*
X0057658Y0074676D01*
X0062865Y0076073D02*
Y0080199D01*
X0064135Y0075311D02*
Y0080199D01*
X0066675Y0073533D02*
Y0080199D01*
X0065405Y0076073D02*
Y0080199D01*
X0064135Y0081599D02*
X0065405D01*
X0069534Y0072071D02*
Y0082550D01*
X0053975Y0085914D02*
X0056072D01*
X0060210Y0083832D02*
Y0087521D01*
X0059710Y0084602D02*
Y0087521D01*
X0058710Y0084997D02*
Y0087521D01*
X0057785Y0085725D02*
X0058210Y0086150D01*
Y0087521D01*
X0062710Y0086388D02*
Y0087521D01*
Y0086388D02*
X0063246Y0085852D01*
X0063881D01*
X0062210Y0085618D02*
Y0087521D01*
Y0085618D02*
X0062865Y0084963D01*
X0061710Y0085356D02*
Y0087521D01*
Y0085356D02*
X0062611Y0084455D01*
X0062865Y0084963D02*
X0068134D01*
X0062611Y0084455D02*
X0066548D01*
X0054868Y0091571D02*
X0056660D01*
X0053979Y0090682D02*
X0054868Y0091571D01*
X0053979Y0087318D02*
Y0090682D01*
X0059690Y0091313D02*
X0060706Y0090297D01*
X0063210D01*
X0061210Y0089023D02*
X0061595Y0089408D01*
X0061210Y0087521D02*
Y0089023D01*
X0063210Y0087521D02*
Y0090297D01*
X0060710Y0087521D02*
Y0090293D01*
X0059210Y0087521D02*
Y0089380D01*
X0063210Y0090297D02*
Y0094198D01*
X0063710Y0094698D02*
Y0096121D01*
X0063210Y0094198D02*
X0063710Y0094698D01*
X0056660Y0093071D02*
X0059456D01*
X0061214Y0091313D01*
X0056660Y0094071D02*
X0060234D01*
X0054356Y0092710D02*
X0055217Y0093571D01*
X0056660D01*
X0104045Y0072311D02*
Y0082239D01*
Y0072311D02*
X0104728Y0071628D01*
X0064643Y0104775D02*
X0067143Y0107275D01*
X0058210Y0103295D02*
X0059690Y0104775D01*
X0064643D01*
X0067143Y0102275D02*
X0071120Y0098298D01*
X0090551Y0082804D02*
X0093036Y0085289D01*
X0094107Y0082804D02*
X0096092Y0084789D01*
X0098495D01*
X0093036Y0085289D02*
X0098495D01*
X0095925Y0087289D02*
X0098495D01*
X0095377Y0086741D02*
X0095925Y0087289D01*
X0091313Y0086741D02*
X0095377D01*
X0093321Y0088289D02*
X0098495D01*
X0092964Y0088646D02*
X0093321Y0088289D01*
X0090805Y0088646D02*
X0092964D01*
X0090043Y0087884D02*
X0090805Y0088646D01*
X0090043Y0086741D02*
Y0087884D01*
X0106045Y0099568D02*
X0106426Y0099949D01*
X0115697Y0106045D02*
X0116942Y0107290D01*
Y0107315D01*
X0115697Y0103632D02*
Y0106045D01*
X0110045Y0097339D02*
Y0100266D01*
X0107545Y0097339D02*
Y0100458D01*
X0114402Y0107315D01*
X0109045Y0097339D02*
Y0101044D01*
X0112776Y0104775D01*
X0114402D01*
X0109545Y0097339D02*
Y0100655D01*
X0112141Y0103251D01*
X0115316D01*
X0115697Y0103632D01*
X0110045Y0100266D02*
X0112395Y0102616D01*
X0115951D01*
X0116942Y0103607D01*
Y0104775D01*
X0116586Y0101981D02*
X0118237Y0103632D01*
X0117221Y0101346D02*
X0119482Y0103607D01*
Y0104775D01*
X0110545Y0097339D02*
Y0099877D01*
X0112649Y0101981D01*
X0116586D01*
X0111045Y0097339D02*
Y0099488D01*
X0112903Y0101346D01*
X0117221D01*
X0111545Y0097339D02*
Y0099148D01*
X0113157Y0100760D01*
X0120777Y0106070D02*
X0122022Y0107315D01*
X0118237Y0103632D02*
Y0106070D01*
X0119482Y0107315D01*
X0113157Y0100760D02*
X0117905D01*
X0120777Y0103632D01*
Y0106070D01*
X0118618Y0100203D02*
X0122022Y0103607D01*
Y0104775D01*
X0112045Y0097339D02*
Y0098837D01*
X0113411Y0100203D01*
X0118618D01*
X0123317Y0106070D02*
X0124562Y0107315D01*
X0125857Y0106070D02*
X0127102Y0107315D01*
X0128397Y0106070D02*
X0129642Y0107315D01*
X0130937Y0106299D02*
X0131953Y0107315D01*
X0132182D01*
X0113595Y0091289D02*
X0118696D01*
X0132182Y0104775D01*
X0113595Y0091789D02*
X0118459D01*
X0130937Y0104267D01*
Y0106299D01*
X0113595Y0092289D02*
X0118197D01*
X0129642Y0103734D01*
Y0104775D01*
X0113595Y0092789D02*
X0117935D01*
X0128397Y0103251D01*
Y0106070D01*
X0113595Y0093289D02*
X0117673D01*
X0127102Y0102718D01*
Y0104775D01*
X0113595Y0094789D02*
X0118411D01*
X0125857Y0102235D01*
Y0106070D01*
X0113595Y0095289D02*
X0118149D01*
X0124562Y0101702D01*
Y0104775D01*
X0113595Y0095789D02*
X0117887D01*
X0123317Y0101219D01*
Y0106070D01*
X0113595Y0090289D02*
X0121658D01*
X0136144Y0104775D01*
X0146152D01*
X0113595Y0090789D02*
X0121396D01*
X0137922Y0107315D01*
X0146152D01*
X0135001Y0089281D02*
X0136144Y0088138D01*
X0113595Y0087789D02*
X0134080D01*
X0136906Y0084963D01*
X0140589D01*
X0134469Y0088289D02*
X0136415Y0086343D01*
X0138360D01*
X0113595Y0087289D02*
X0133310D01*
X0135890Y0084709D01*
X0113595Y0088789D02*
X0134731D01*
X0136271Y0087249D01*
X0136779D01*
X0136525Y0088646D02*
X0141097D01*
X0113595Y0089789D02*
X0135382D01*
X0136525Y0088646D01*
X0140910Y0091754D02*
Y0093693D01*
Y0091754D02*
X0141859Y0090805D01*
X0144334D01*
X0144399Y0090740D01*
Y0089346D02*
Y0090740D01*
X0111760Y0087249D02*
Y0090551D01*
Y0087249D02*
X0112220Y0086789D01*
X0113595D01*
X0111125Y0087122D02*
Y0089916D01*
X0111958Y0086289D02*
X0113595D01*
X0111125Y0087122D02*
X0111958Y0086289D01*
X0113595Y0083789D02*
X0116174D01*
X0117475Y0085090D01*
X0113595Y0084289D02*
X0115912D01*
X0116840Y0085217D01*
Y0085725D01*
Y0083185D02*
X0118110Y0084455D01*
X0092202Y0097474D02*
Y0099060D01*
Y0100457D01*
X0088138Y0099949D02*
X0089154Y0098933D01*
X0092202Y0094996D02*
X0092909Y0094289D01*
X0092202Y0094996D02*
Y0096074D01*
X0092909Y0094289D02*
X0098495D01*
X0091059Y0095250D02*
X0092520Y0093789D01*
X0098495D01*
X0088900Y0100457D02*
X0091059Y0098298D01*
X0086868Y0106553D02*
X0090740D01*
X0092140Y0105029D02*
Y0106553D01*
Y0105791D02*
X0093599D01*
X0104728Y0071628D02*
X0106488D01*
X0107888Y0070166D02*
Y0071628D01*
X0089916Y0097474D02*
X0090994D01*
X0091059Y0095250D02*
Y0098298D01*
X0102045Y0097339D02*
Y0100520D01*
X0101854Y0100711D02*
X0102045Y0100520D01*
X0108045Y0082239D02*
Y0085289D01*
Y0086106D01*
Y0093789D01*
X0098425Y0100838D02*
Y0102105D01*
Y0100838D02*
X0100045Y0099218D01*
Y0097339D02*
Y0099218D01*
X0101854Y0100711D02*
Y0102108D01*
X0101284Y0105156D02*
Y0106553D01*
X0101854Y0102108D02*
X0102616Y0102870D01*
Y0105156D01*
X0101284Y0105156D02*
X0102616D01*
X0115951Y0077470D02*
Y0078867D01*
X0108045Y0085289D02*
X0110236D01*
X0113595D01*
X0115951Y0078867D02*
Y0080772D01*
X0082042Y0106553D02*
X0082804D01*
X0101045Y0082239D02*
Y0084449D01*
X0102702Y0086106D01*
X0153924Y0074803D02*
X0155448D01*
X0064643Y0100670D02*
Y0104775D01*
Y0100670D02*
X0065532Y0099781D01*
Y0097155D02*
Y0099781D01*
X0101545Y0097339D02*
Y0099750D01*
X0100711Y0100584D02*
X0101545Y0099750D01*
X0100711Y0100584D02*
Y0102997D01*
X0100838Y0103124D01*
X0111545Y0080987D02*
Y0082239D01*
Y0080987D02*
X0111887Y0080645D01*
X0116205Y0086360D02*
X0117729D01*
X0118999Y0085090D01*
Y0084074D02*
Y0085090D01*
X0114808Y0082550D02*
X0117475D01*
X0118999Y0084074D01*
X0112903Y0080645D02*
X0114808Y0082550D01*
X0111887Y0080645D02*
X0112903D01*
X0112045Y0082239D02*
X0112973D01*
X0113919Y0083185D01*
X0116840D01*
D28*
X0119380Y0081091D02*
X0121412D01*
X0147955Y0061595D02*
Y0063373D01*
X0153035Y0061595D02*
Y0063373D01*
X0121412Y0079691D02*
X0123571D01*
X0094615Y0061595D02*
Y0063119D01*
X0099695Y0061595D02*
Y0063119D01*
X0074295Y0061595D02*
Y0063119D01*
X0072771Y0075057D02*
X0082612D01*
X0064135Y0073533D02*
X0065659Y0072009D01*
X0065659Y0072009D02*
X0072771D01*
X0093599Y0105791D02*
X0096266D01*
X0096901Y0105156D01*
X0098425Y0103570D02*
Y0105156D01*
X0096901D02*
X0099884D01*
X0117351Y0078867D02*
Y0080394D01*
X0118048Y0081091D01*
X0119380D01*
X0067865Y0106553D02*
X0082042D01*
X0093599Y0105791D02*
Y0107061D01*
X0082804Y0106553D02*
X0084201Y0107950D01*
X0092710D01*
X0093599Y0107061D01*
X0164911Y0083250D02*
X0166751D01*
X0162241Y0089322D02*
Y0091440D01*
X0144399Y0087946D02*
X0152400D01*
D29*
X0119380Y0070119D02*
Y0081091D01*
X0078116Y0078359D02*
X0081570D01*
X0086070Y0085852D02*
Y0089281D01*
Y0078359D02*
Y0085852D01*
X0099695Y0063119D02*
Y0064516D01*
X0105283Y0070104D01*
X0074295Y0063119D02*
X0094615D01*
X0070612D02*
X0072771D01*
Y0078359D02*
X0076316D01*
X0072771Y0072009D02*
Y0075057D01*
Y0078359D01*
Y0086741D01*
X0065151Y0061595D02*
X0069088D01*
X0070612Y0063119D01*
X0072771D02*
Y0072009D01*
Y0063119D02*
X0074295D01*
X0065151Y0061595D02*
Y0063119D01*
X0054229D02*
X0055753Y0061595D01*
X0065151D01*
X0105283Y0070104D02*
X0119380D01*
X0094615Y0063119D02*
X0099695D01*
X0072771Y0086741D02*
X0074295Y0088265D01*
Y0106553D01*
D30*
X0170624Y0070549D02*
D03*
D31*
X0171577Y0073279D02*
D03*
D32*
X0168910Y0074867D02*
D03*
D33*
X0164211Y0080137D02*
D03*
D34*
X0173609Y0085281D02*
D03*
D35*
X0070993Y0103124D02*
D03*
D36*
X0172911Y0100965D02*
D03*
D37*
X0078549Y0089344D02*
D03*
D38*
X0059754Y0102489D02*
D03*
D39*
X0095504Y0089928D02*
D03*
D40*
X0104330Y0084582D02*
D03*
D41*
X0109982Y0095123D02*
D03*
D42*
X0100838Y0103124D02*
D03*
D43*
X0152464Y0083248D02*
D03*
D44*
X0150114Y0074930D02*
D03*
D45*
X0110046Y0086995D02*
D03*
D46*
X0132182Y0107315D02*
D03*
Y0104775D02*
D03*
X0129642Y0107315D02*
D03*
Y0104775D02*
D03*
X0127102Y0107315D02*
D03*
Y0104775D02*
D03*
X0124562Y0107315D02*
D03*
Y0104775D02*
D03*
X0122022Y0107315D02*
D03*
Y0104775D02*
D03*
X0119482Y0107315D02*
D03*
Y0104775D02*
D03*
X0116942Y0107315D02*
D03*
Y0104775D02*
D03*
X0114402Y0107315D02*
D03*
X0174625Y0073279D02*
D03*
X0153772Y0107315D02*
D03*
Y0104775D02*
D03*
X0151232Y0107315D02*
D03*
Y0104775D02*
D03*
X0148692Y0107315D02*
D03*
Y0104775D02*
D03*
X0146152Y0107315D02*
D03*
D47*
X0114402Y0104775D02*
D03*
X0146152D02*
D03*
D48*
X0173990Y0107950D02*
D03*
X0048895D02*
D03*
X0173990Y0062865D02*
D03*
X0048895D02*
D03*
D49*
X0092202Y0099060D02*
D03*
X0089027Y0101473D02*
D03*
X0100838Y0103124D02*
D03*
X0107061Y0093091D02*
D03*
X0106172Y0093853D02*
D03*
X0104013Y0095250D02*
D03*
X0092456Y0087758D02*
D03*
X0082550Y0086868D02*
D03*
X0105537Y0101346D02*
D03*
X0102997Y0099822D02*
D03*
X0102870Y0101092D02*
D03*
X0103759Y0101981D02*
D03*
X0106426Y0099949D02*
D03*
X0102489Y0093599D02*
D03*
X0101981Y0094615D02*
D03*
X0105283Y0092202D02*
D03*
X0106172Y0091313D02*
D03*
X0105283Y0092202D02*
D03*
X0106172Y0091313D02*
D03*
X0131191Y0082185D02*
D03*
Y0077724D02*
D03*
X0132461D02*
D03*
X0136779Y0087249D02*
D03*
X0142310Y0091948D02*
D03*
X0135890Y0084709D02*
D03*
X0136779Y0089789D02*
D03*
X0095631Y0089812D02*
D03*
X0102108Y0089281D02*
D03*
X0109982Y0094996D02*
D03*
X0110236Y0086868D02*
D03*
X0104267Y0084582D02*
D03*
X0074041Y0065024D02*
D03*
X0097790Y0077216D02*
D03*
X0096520D02*
D03*
X0086360Y0074295D02*
D03*
Y0075819D02*
D03*
X0104728Y0071628D02*
D03*
X0090551Y0082804D02*
D03*
X0094107D02*
D03*
X0091313Y0086741D02*
D03*
X0090043D02*
D03*
X0089154Y0098933D02*
D03*
X0093980Y0098171D02*
D03*
X0059690Y0102489D02*
D03*
D50*
X0085999Y0089281D02*
D03*
X0078499D02*
D03*
D51*
X0062230Y0093599D02*
D03*
X0072390Y0092710D02*
D03*
X0061214Y0091313D02*
D03*
X0071120Y0093599D02*
D03*
X0060198Y0083820D02*
D03*
X0058928D02*
D03*
X0067564Y0078613D02*
D03*
X0069850Y0090170D02*
D03*
X0071755Y0091568D02*
D03*
X0062865Y0078994D02*
D03*
X0064262Y0083058D02*
D03*
X0068961Y0088265D02*
D03*
X0067183D02*
D03*
X0065405Y0087503D02*
D03*
X0057785Y0078994D02*
D03*
X0056515Y0078613D02*
D03*
X0065532Y0097155D02*
D03*
X0067056Y0092837D02*
D03*
X0062103Y0098806D02*
D03*
X0060706Y0100203D02*
D03*
X0059690Y0100965D02*
D03*
X0060234Y0094071D02*
D03*
X0059055Y0078994D02*
D03*
X0061595D02*
D03*
X0058676Y0084963D02*
D03*
X0057785Y0085725D02*
D03*
X0056072Y0085914D02*
D03*
X0063881Y0085852D02*
D03*
X0059210Y0089380D02*
D03*
X0059690Y0091313D02*
D03*
X0061595Y0089408D02*
D03*
X0060234Y0094071D02*
D03*
X0054356Y0092710D02*
D03*
X0111760Y0090551D02*
D03*
X0111125Y0089916D02*
D03*
X0116205Y0086360D02*
D03*
X0116840Y0085725D02*
D03*
X0117475Y0085090D02*
D03*
X0118110Y0084455D02*
D03*
X0108045Y0093789D02*
D03*
X0102616Y0105156D02*
D03*
X0110236Y0085289D02*
D03*
X0115951Y0080772D02*
D03*
X0082550Y0097155D02*
D03*
D52*
X0119380Y0081091D02*
D03*
X0093599Y0105791D02*
D03*
X0074295Y0106553D02*
D03*
D53*
X0119380Y0070104D02*
D03*
X0081915Y0071184D02*
D03*
Y0069151D02*
D03*
X0084455D02*
D03*
X0054229Y0063119D02*
D03*
X0056769D02*
D03*
X0067691D02*
D03*
X0065151D02*
D03*
X0151130Y0074803D02*
D03*
X0153924D02*
D03*
X0152400Y0084328D02*
D03*
Y0087122D02*
D03*
X0108775Y0062103D02*
D03*
X0104203D02*
D03*
X0070993Y0103124D02*
D03*
D54*
X0174625Y0070739D02*
D03*
D55*
X0165671Y0070040D02*
D03*
X0170117Y0066866D02*
D03*
X0165671Y0063818D02*
D03*
D56*
X0156210Y0061595D02*
D03*
X0158750D02*
D03*
X0150495D02*
D03*
X0153035D02*
D03*
X0145415D02*
D03*
X0147955D02*
D03*
X0097155D02*
D03*
X0099695D02*
D03*
X0092075D02*
D03*
X0094615D02*
D03*
X0071755D02*
D03*
X0074295D02*
D03*
D57*
X0115140Y0065634D02*
D03*
X0140130D02*
D03*
D58*
X0133175Y0067054D02*
D03*
D59*
X0131790Y0064214D02*
D03*
X0130405Y0067054D02*
D03*
X0129020Y0064214D02*
D03*
X0127635Y0067054D02*
D03*
X0126250Y0064214D02*
D03*
X0124865Y0067054D02*
D03*
X0123480Y0064214D02*
D03*
X0122095Y0067054D02*
D03*
D60*
X0076835Y0066484D02*
D03*
X0089535D02*
D03*
D61*
X0084455Y0071184D02*
D03*
D62*
X0052705Y0070231D02*
D03*
X0069215D02*
D03*
D63*
X0066675Y0073533D02*
D03*
X0064135D02*
D03*
X0061595D02*
D03*
X0065405Y0076073D02*
D03*
X0062865D02*
D03*
X0060325D02*
D03*
X0059055Y0073533D02*
D03*
X0057785Y0076073D02*
D03*
X0056515Y0073533D02*
D03*
X0055245Y0076073D02*
D03*
D64*
X0109919Y0064643D02*
D03*
X0102934D02*
D03*
D65*
X0172720Y0100965D02*
D03*
D66*
Y0097155D02*
D03*
M02*
