%FSLAX43Y43*%
%MOMM*%
%SFA1B1*%

%IPPOS*%
%ADD66C,0.100000*%
%LNlp_led_cube_8x8x8-1*%
%LPD*%
G54D66*
X114934Y75699D02*
Y76699D01*
X114434Y76199D02*
X115434D01*
X113184Y77149D02*
X116684D01*
X113184Y75249D02*
X116684D01*
X113184D02*
Y77149D01*
X116684Y75249D02*
Y77149D01*
X115061Y70619D02*
Y71619D01*
X114561Y71119D02*
X115561D01*
X113311Y72069D02*
X116811D01*
X113311Y70169D02*
X116811D01*
X113311D02*
Y72069D01*
X116811Y70169D02*
Y72069D01*
X110743Y75699D02*
Y76699D01*
X110243Y76199D02*
X111243D01*
X108993Y77149D02*
X112493D01*
X108993Y75249D02*
X112493D01*
X108993D02*
Y77149D01*
X112493Y75249D02*
Y77149D01*
X114934Y65539D02*
Y66539D01*
X114434Y66039D02*
X115434D01*
X113184Y66989D02*
X116684D01*
X113184Y65089D02*
X116684D01*
X113184D02*
Y66989D01*
X116684Y65089D02*
Y66989D01*
X110743Y65539D02*
Y66539D01*
X110243Y66039D02*
X111243D01*
X108993Y66989D02*
X112493D01*
X108993Y65089D02*
X112493D01*
X108993D02*
Y66989D01*
X112493Y65089D02*
Y66989D01*
X28861Y59308D02*
X29811D01*
X29336Y58833D02*
Y59783D01*
X28786Y58108D02*
Y60508D01*
X29886Y58108D02*
Y60508D01*
X28786D02*
X29886D01*
X28786Y58108D02*
X29886D01*
X28861Y56354D02*
X29811D01*
X29336Y55880D02*
Y56830D01*
X29886Y55154D02*
Y57554D01*
X28786Y55154D02*
Y57554D01*
Y55154D02*
X29886D01*
X28786Y57554D02*
X29886D01*
X114934Y80779D02*
Y81779D01*
X114434Y81279D02*
X115434D01*
X113184Y82229D02*
X116684D01*
X113184Y80329D02*
X116684D01*
X113184D02*
Y82229D01*
X116684Y80329D02*
Y82229D01*
X110743Y80779D02*
Y81779D01*
X110243Y81279D02*
X111243D01*
X108993Y82229D02*
X112493D01*
X108993Y80329D02*
X112493D01*
X108993D02*
Y82229D01*
X112493Y80329D02*
Y82229D01*
X38894Y38734D02*
X39844D01*
X39369Y38259D02*
Y39209D01*
X39919Y37534D02*
Y39934D01*
X38819Y37534D02*
Y39934D01*
Y37534D02*
X39919D01*
X38819Y39934D02*
X39919D01*
X41053Y38734D02*
X42003D01*
X41528Y38259D02*
Y39209D01*
X42078Y37534D02*
Y39934D01*
X40978Y37534D02*
Y39934D01*
Y37534D02*
X42078D01*
X40978Y39934D02*
X42078D01*
X65340Y47814D02*
Y65214D01*
X82740Y47814D02*
Y65214D01*
X65340D02*
X82740D01*
X65340Y47814D02*
X82740D01*
X73540Y56514D02*
X74540D01*
X74040Y56014D02*
Y57014D01*
X71152Y42798D02*
X72102D01*
X71627Y42323D02*
Y43273D01*
X71077Y41598D02*
Y43998D01*
X72177Y41598D02*
Y43998D01*
X71077Y41598D02*
X72177D01*
X71077Y43998D02*
X72177D01*
X73057Y41147D02*
X74007D01*
X73532Y40672D02*
Y41622D01*
X74082Y39947D02*
Y42347D01*
X72982Y39947D02*
Y42347D01*
Y39947D02*
X74082D01*
X72982Y42347D02*
X74082D01*
X71660Y41147D02*
X72610D01*
X72135Y40672D02*
Y41622D01*
X72685Y39947D02*
Y42347D01*
X71585Y39947D02*
Y42347D01*
Y39947D02*
X72685D01*
X71585Y42347D02*
X72685D01*
X73692Y42671D02*
X74642D01*
X74167Y42196D02*
Y43146D01*
X74717Y41471D02*
Y43871D01*
X73617Y41471D02*
Y43871D01*
X74717*
X73617Y41471D02*
X74717D01*
X51340Y35686D02*
X52290D01*
X51815Y35211D02*
Y36161D01*
X51265Y34486D02*
Y36886D01*
X52365Y34486D02*
Y36886D01*
X51265D02*
X52365D01*
X51265Y34486D02*
X52365D01*
X49816Y35686D02*
X50766D01*
X50291Y35211D02*
Y36161D01*
X49741Y34486D02*
Y36886D01*
X50841Y34486D02*
Y36886D01*
X49741D02*
X50841D01*
X49741Y34486D02*
X50841D01*
X43847Y58419D02*
X44797D01*
X44322Y57944D02*
Y58894D01*
X44872Y57219D02*
Y59619D01*
X43772Y57219D02*
Y59619D01*
X44872*
X43772Y57219D02*
X44872D01*
X89059Y61721D02*
X90009D01*
X89534Y61246D02*
Y62196D01*
X90084Y60521D02*
Y62921D01*
X88984Y60521D02*
Y62921D01*
X90084*
X88984Y60521D02*
X90084D01*
X95376Y61881D02*
Y62831D01*
X94901Y62356D02*
X95851D01*
X94176Y61806D02*
X96576D01*
X94176Y62906D02*
X96576D01*
Y61806D02*
Y62906D01*
X94176Y61806D02*
Y62906D01*
X125094Y59722D02*
Y60672D01*
X124619Y60197D02*
X125569D01*
X123894Y60747D02*
X126294D01*
X123894Y59647D02*
X126294D01*
Y60747*
X123894Y59647D02*
Y60747D01*
X98559Y44957D02*
X99559D01*
X99059Y44457D02*
Y45457D01*
X104309Y41207D02*
Y48707D01*
X93809Y41207D02*
Y48707D01*
X104309*
X93809Y41207D02*
X104309D01*
X108203Y70619D02*
Y71619D01*
X107703Y71119D02*
X108703D01*
X106453Y72069D02*
X109953D01*
X106453Y70169D02*
X109953D01*
X106453D02*
Y72069D01*
X109953Y70169D02*
Y72069D01*
X128683Y47370D02*
X129633D01*
X129158Y46895D02*
Y47845D01*
X128608Y46170D02*
Y48570D01*
X129708Y46170D02*
Y48570D01*
X128608Y46170D02*
X129708D01*
X128608Y48570D02*
X129708D01*
X129191Y51307D02*
X130141D01*
X129666Y50832D02*
Y51782D01*
X130216Y50107D02*
Y52507D01*
X129116Y50107D02*
Y52507D01*
X130216*
X129116Y50107D02*
X130216D01*
X127761Y52864D02*
Y53814D01*
X127286Y53339D02*
X128236D01*
X126561Y52789D02*
X128961D01*
X126561Y53889D02*
X128961D01*
Y52789D02*
Y53889D01*
X126561Y52789D02*
Y53889D01*
X130588Y51307D02*
X131538D01*
X131063Y50832D02*
Y51782D01*
X131613Y50107D02*
Y52507D01*
X130513Y50107D02*
Y52507D01*
X131613*
X130513Y50107D02*
X131613D01*
X130080Y47370D02*
X131030D01*
X130555Y46895D02*
Y47845D01*
X131105Y46170D02*
Y48570D01*
X130005Y46170D02*
Y48570D01*
X131105*
X130005Y46170D02*
X131105D01*
X115442Y44228D02*
Y45178D01*
X114967Y44703D02*
X115917D01*
X114242Y45253D02*
X116642D01*
X114242Y44153D02*
X116642D01*
Y45253*
X114242Y44153D02*
Y45253D01*
X112554Y32892D02*
X113504D01*
X113029Y32417D02*
Y33367D01*
X113579Y31692D02*
Y34092D01*
X112479Y31692D02*
Y34092D01*
Y31692D02*
X113579D01*
X112479Y34092D02*
X113579D01*
X34301Y82425D02*
X35801D01*
X34301Y79625D02*
X35801D01*
X34301D02*
Y82425D01*
X35801Y79625D02*
Y82425D01*
X35051Y80525D02*
Y81525D01*
X34551Y81025D02*
X35551D01*
X35571Y78996D02*
X37071D01*
X35571Y76196D02*
X37071D01*
X35571D02*
Y78996D01*
X37071Y76196D02*
Y78996D01*
X36321Y77096D02*
Y78096D01*
X35821Y77596D02*
X36821D01*
X36841Y82425D02*
X38341D01*
X36841Y79625D02*
X38341D01*
X36841D02*
Y82425D01*
X38341Y79625D02*
Y82425D01*
X37591Y80525D02*
Y81525D01*
X37091Y81025D02*
X38091D01*
X38111Y78996D02*
X39611D01*
X38111Y76196D02*
X39611D01*
X38111D02*
Y78996D01*
X39611Y76196D02*
Y78996D01*
X38861Y77096D02*
Y78096D01*
X38361Y77596D02*
X39361D01*
X39381Y82425D02*
X40881D01*
X39381Y79625D02*
X40881D01*
X39381D02*
Y82425D01*
X40881Y79625D02*
Y82425D01*
X40131Y80525D02*
Y81525D01*
X39631Y81025D02*
X40631D01*
X40651Y78996D02*
X42151D01*
X40651Y76196D02*
X42151D01*
X40651D02*
Y78996D01*
X42151Y76196D02*
Y78996D01*
X41401Y77096D02*
Y78096D01*
X40901Y77596D02*
X41901D01*
X47001Y79625D02*
X48501D01*
X47001Y82425D02*
X48501D01*
Y79625D02*
Y82425D01*
X47001Y79625D02*
Y82425D01*
X47751Y80525D02*
Y81525D01*
X47251Y81025D02*
X48251D01*
X48271Y76196D02*
X49771D01*
X48271Y78996D02*
X49771D01*
Y76196D02*
Y78996D01*
X48271Y76196D02*
Y78996D01*
X49021Y77096D02*
Y78096D01*
X48521Y77596D02*
X49521D01*
X50811Y76196D02*
X52311D01*
X50811Y78996D02*
X52311D01*
Y76196D02*
Y78996D01*
X50811Y76196D02*
Y78996D01*
X51561Y77096D02*
Y78096D01*
X51061Y77596D02*
X52061D01*
X49541Y79625D02*
X51041D01*
X49541Y82425D02*
X51041D01*
Y79625D02*
Y82425D01*
X49541Y79625D02*
Y82425D01*
X50291Y80525D02*
Y81525D01*
X49791Y81025D02*
X50791D01*
X52081Y79625D02*
X53581D01*
X52081Y82425D02*
X53581D01*
Y79625D02*
Y82425D01*
X52081Y79625D02*
Y82425D01*
X52831Y80525D02*
Y81525D01*
X52331Y81025D02*
X53331D01*
X53351Y76196D02*
X54851D01*
X53351Y78996D02*
X54851D01*
Y76196D02*
Y78996D01*
X53351Y76196D02*
Y78996D01*
X54101Y77096D02*
Y78096D01*
X53601Y77596D02*
X54601D01*
X41921Y82425D02*
X43421D01*
X41921Y79625D02*
X43421D01*
X41921D02*
Y82425D01*
X43421Y79625D02*
Y82425D01*
X42671Y80525D02*
Y81525D01*
X42171Y81025D02*
X43171D01*
X45731Y76196D02*
X47231D01*
X45731Y78996D02*
X47231D01*
Y76196D02*
Y78996D01*
X45731Y76196D02*
Y78996D01*
X46481Y77096D02*
Y78096D01*
X45981Y77596D02*
X46981D01*
X43191Y78996D02*
X44691D01*
X43191Y76196D02*
X44691D01*
X43191D02*
Y78996D01*
X44691Y76196D02*
Y78996D01*
X43941Y77096D02*
Y78096D01*
X43441Y77596D02*
X44441D01*
X44461Y79625D02*
X45961D01*
X44461Y82425D02*
X45961D01*
Y79625D02*
Y82425D01*
X44461Y79625D02*
Y82425D01*
X45211Y80525D02*
Y81525D01*
X44711Y81025D02*
X45711D01*
X40080Y62539D02*
Y72139D01*
X49580Y62539D02*
Y72139D01*
X40080Y62539D02*
X49580D01*
X40080Y72139D02*
X49580D01*
X44330Y66039D02*
X45330D01*
X44830Y65539D02*
Y66539D01*
X63575Y62539D02*
Y72139D01*
X73075Y62539D02*
Y72139D01*
X63575Y62539D02*
X73075D01*
X63575Y72139D02*
X73075D01*
X67825Y66039D02*
X68825D01*
X68325Y65539D02*
Y66539D01*
X60336Y82425D02*
X61836D01*
X60336Y79625D02*
X61836D01*
X60336D02*
Y82425D01*
X61836Y79625D02*
Y82425D01*
X61086Y80525D02*
Y81525D01*
X60586Y81025D02*
X61586D01*
X75576Y79625D02*
X77076D01*
X75576Y82425D02*
X77076D01*
Y79625D02*
Y82425D01*
X75576Y79625D02*
Y82425D01*
X76326Y80525D02*
Y81525D01*
X75826Y81025D02*
X76826D01*
X90181Y78996D02*
X91681D01*
X90181Y76196D02*
X91681D01*
X90181D02*
Y78996D01*
X91681Y76196D02*
Y78996D01*
X90931Y77096D02*
Y78096D01*
X90431Y77596D02*
X91431D01*
X92721Y76196D02*
X94221D01*
X92721Y78996D02*
X94221D01*
Y76196D02*
Y78996D01*
X92721Y76196D02*
Y78996D01*
X93471Y77096D02*
Y78096D01*
X92971Y77596D02*
X93971D01*
X59066Y78996D02*
X60566D01*
X59066Y76196D02*
X60566D01*
X59066D02*
Y78996D01*
X60566Y76196D02*
Y78996D01*
X59816Y77096D02*
Y78096D01*
X59316Y77596D02*
X60316D01*
X76846Y76196D02*
X78346D01*
X76846Y78996D02*
X78346D01*
Y76196D02*
Y78996D01*
X76846Y76196D02*
Y78996D01*
X77596Y77096D02*
Y78096D01*
X77096Y77596D02*
X78096D01*
X88911Y82425D02*
X90411D01*
X88911Y79625D02*
X90411D01*
X88911D02*
Y82425D01*
X90411Y79625D02*
Y82425D01*
X89661Y80525D02*
Y81525D01*
X89161Y81025D02*
X90161D01*
X93991Y79625D02*
X95491D01*
X93991Y82425D02*
X95491D01*
Y79625D02*
Y82425D01*
X93991Y79625D02*
Y82425D01*
X94741Y80525D02*
Y81525D01*
X94241Y81025D02*
X95241D01*
X57796Y82425D02*
X59296D01*
X57796Y79625D02*
X59296D01*
X57796D02*
Y82425D01*
X59296Y79625D02*
Y82425D01*
X58546Y80525D02*
Y81525D01*
X58046Y81025D02*
X59046D01*
X87641Y78996D02*
X89141D01*
X87641Y76196D02*
X89141D01*
X87641D02*
Y78996D01*
X89141Y76196D02*
Y78996D01*
X88391Y77096D02*
Y78096D01*
X87891Y77596D02*
X88891D01*
X113676Y78996D02*
X115176D01*
X113676Y76196D02*
X115176D01*
X113676D02*
Y78996D01*
X115176Y76196D02*
Y78996D01*
X114426Y77096D02*
Y78096D01*
X113926Y77596D02*
X114926D01*
X85101Y78996D02*
X86601D01*
X85101Y76196D02*
X86601D01*
X85101D02*
Y78996D01*
X86601Y76196D02*
Y78996D01*
X85851Y77096D02*
Y78096D01*
X85351Y77596D02*
X86351D01*
X114946Y79625D02*
X116446D01*
X114946Y82425D02*
X116446D01*
Y79625D02*
Y82425D01*
X114946Y79625D02*
Y82425D01*
X115696Y80525D02*
Y81525D01*
X115196Y81025D02*
X116196D01*
X116216Y76196D02*
X117716D01*
X116216Y78996D02*
X117716D01*
Y76196D02*
Y78996D01*
X116216Y76196D02*
Y78996D01*
X116966Y77096D02*
Y78096D01*
X116466Y77596D02*
X117466D01*
X96531Y79625D02*
X98031D01*
X96531Y82425D02*
X98031D01*
Y79625D02*
Y82425D01*
X96531Y79625D02*
Y82425D01*
X97281Y80525D02*
Y81525D01*
X96781Y81025D02*
X97781D01*
X97801Y76196D02*
X99301D01*
X97801Y78996D02*
X99301D01*
Y76196D02*
Y78996D01*
X97801Y76196D02*
Y78996D01*
X98551Y77096D02*
Y78096D01*
X98051Y77596D02*
X99051D01*
X61606Y78996D02*
X63106D01*
X61606Y76196D02*
X63106D01*
X61606D02*
Y78996D01*
X63106Y76196D02*
Y78996D01*
X62356Y77096D02*
Y78096D01*
X61856Y77596D02*
X62856D01*
X74306Y76196D02*
X75806D01*
X74306Y78996D02*
X75806D01*
Y76196D02*
Y78996D01*
X74306Y76196D02*
Y78996D01*
X75056Y77096D02*
Y78096D01*
X74556Y77596D02*
X75556D01*
X73036Y79625D02*
X74536D01*
X73036Y82425D02*
X74536D01*
Y79625D02*
Y82425D01*
X73036Y79625D02*
Y82425D01*
X73786Y80525D02*
Y81525D01*
X73286Y81025D02*
X74286D01*
X71766Y76196D02*
X73266D01*
X71766Y78996D02*
X73266D01*
Y76196D02*
Y78996D01*
X71766Y76196D02*
Y78996D01*
X72516Y77096D02*
Y78096D01*
X72016Y77596D02*
X73016D01*
X70496Y79625D02*
X71996D01*
X70496Y82425D02*
X71996D01*
Y79625D02*
Y82425D01*
X70496Y79625D02*
Y82425D01*
X71246Y80525D02*
Y81525D01*
X70746Y81025D02*
X71746D01*
X64146Y78996D02*
X65646D01*
X64146Y76196D02*
X65646D01*
X64146D02*
Y78996D01*
X65646Y76196D02*
Y78996D01*
X64896Y77096D02*
Y78096D01*
X64396Y77596D02*
X65396D01*
X62876Y82425D02*
X64376D01*
X62876Y79625D02*
X64376D01*
X62876D02*
Y82425D01*
X64376Y79625D02*
Y82425D01*
X63626Y80525D02*
Y81525D01*
X63126Y81025D02*
X64126D01*
X65416Y82425D02*
X66916D01*
X65416Y79625D02*
X66916D01*
X65416D02*
Y82425D01*
X66916Y79625D02*
Y82425D01*
X66166Y80525D02*
Y81525D01*
X65666Y81025D02*
X66666D01*
X69226Y76196D02*
X70726D01*
X69226Y78996D02*
X70726D01*
Y76196D02*
Y78996D01*
X69226Y76196D02*
Y78996D01*
X69976Y77096D02*
Y78096D01*
X69476Y77596D02*
X70476D01*
X67956Y79625D02*
X69456D01*
X67956Y82425D02*
X69456D01*
Y79625D02*
Y82425D01*
X67956Y79625D02*
Y82425D01*
X68706Y80525D02*
Y81525D01*
X68206Y81025D02*
X69206D01*
X66686Y78996D02*
X68186D01*
X66686Y76196D02*
X68186D01*
X66686D02*
Y78996D01*
X68186Y76196D02*
Y78996D01*
X67436Y77096D02*
Y78096D01*
X66936Y77596D02*
X67936D01*
X91451Y79625D02*
X92951D01*
X91451Y82425D02*
X92951D01*
Y79625D02*
Y82425D01*
X91451Y79625D02*
Y82425D01*
X92201Y80525D02*
Y81525D01*
X91701Y81025D02*
X92701D01*
X95261Y76196D02*
X96761D01*
X95261Y78996D02*
X96761D01*
Y76196D02*
Y78996D01*
X95261Y76196D02*
Y78996D01*
X96011Y77096D02*
Y78096D01*
X95511Y77596D02*
X96511D01*
X86371Y82425D02*
X87871D01*
X86371Y79625D02*
X87871D01*
X86371D02*
Y82425D01*
X87871Y79625D02*
Y82425D01*
X87121Y80525D02*
Y81525D01*
X86621Y81025D02*
X87621D01*
X83831Y82425D02*
X85331D01*
X83831Y79625D02*
X85331D01*
X83831D02*
Y82425D01*
X85331Y79625D02*
Y82425D01*
X84581Y80525D02*
Y81525D01*
X84081Y81025D02*
X85081D01*
X99071Y79625D02*
X100571D01*
X99071Y82425D02*
X100571D01*
Y79625D02*
Y82425D01*
X99071Y79625D02*
Y82425D01*
X99821Y80525D02*
Y81525D01*
X99321Y81025D02*
X100321D01*
X81291Y82298D02*
X82791D01*
X81291Y79498D02*
X82791D01*
X81291D02*
Y82298D01*
X82791Y79498D02*
Y82298D01*
X82041Y80398D02*
Y81398D01*
X81541Y80898D02*
X82541D01*
X82561Y78996D02*
X84061D01*
X82561Y76196D02*
X84061D01*
X82561D02*
Y78996D01*
X84061Y76196D02*
Y78996D01*
X83311Y77096D02*
Y78096D01*
X82811Y77596D02*
X83811D01*
X100341Y76196D02*
X101841D01*
X100341Y78996D02*
X101841D01*
Y76196D02*
Y78996D01*
X100341Y76196D02*
Y78996D01*
X101091Y77096D02*
Y78096D01*
X100591Y77596D02*
X101591D01*
X87070Y62539D02*
Y72139D01*
X96570Y62539D02*
Y72139D01*
X87070Y62539D02*
X96570D01*
X87070Y72139D02*
X96570D01*
X91320Y66039D02*
X92320D01*
X91820Y65539D02*
Y66539D01*
X112406Y82425D02*
X113906D01*
X112406Y79625D02*
X113906D01*
X112406D02*
Y82425D01*
X113906Y79625D02*
Y82425D01*
X113156Y80525D02*
Y81525D01*
X112656Y81025D02*
X113656D01*
X107326Y82425D02*
X108826D01*
X107326Y79625D02*
X108826D01*
X107326D02*
Y82425D01*
X108826Y79625D02*
Y82425D01*
X108076Y80525D02*
Y81525D01*
X107576Y81025D02*
X108576D01*
X108596Y78996D02*
X110096D01*
X108596Y76196D02*
X110096D01*
X108596D02*
Y78996D01*
X110096Y76196D02*
Y78996D01*
X109346Y77096D02*
Y78096D01*
X108846Y77596D02*
X109846D01*
X120026Y79625D02*
X121526D01*
X120026Y82425D02*
X121526D01*
Y79625D02*
Y82425D01*
X120026Y79625D02*
Y82425D01*
X120776Y80525D02*
Y81525D01*
X120276Y81025D02*
X121276D01*
X117486Y79625D02*
X118986D01*
X117486Y82425D02*
X118986D01*
Y79625D02*
Y82425D01*
X117486Y79625D02*
Y82425D01*
X118236Y80525D02*
Y81525D01*
X117736Y81025D02*
X118736D01*
X109866Y82425D02*
X111366D01*
X109866Y79625D02*
X111366D01*
X109866D02*
Y82425D01*
X111366Y79625D02*
Y82425D01*
X110616Y80525D02*
Y81525D01*
X110116Y81025D02*
X111116D01*
X111136Y78996D02*
X112636D01*
X111136Y76196D02*
X112636D01*
X111136D02*
Y78996D01*
X112636Y76196D02*
Y78996D01*
X111886Y77096D02*
Y78096D01*
X111386Y77596D02*
X112386D01*
X118756Y76196D02*
X120256D01*
X118756Y78996D02*
X120256D01*
Y76196D02*
Y78996D01*
X118756Y76196D02*
Y78996D01*
X119506Y77096D02*
Y78096D01*
X119006Y77596D02*
X120006D01*
X110565Y62539D02*
Y72139D01*
X120065Y62539D02*
Y72139D01*
X110565Y62539D02*
X120065D01*
X110565Y72139D02*
X120065D01*
X114815Y66039D02*
X115815D01*
X115315Y65539D02*
Y66539D01*
X104786Y82425D02*
X106286D01*
X104786Y79625D02*
X106286D01*
X104786D02*
Y82425D01*
X106286Y79625D02*
Y82425D01*
X105536Y80525D02*
Y81525D01*
X105036Y81025D02*
X106036D01*
X123836Y76196D02*
X125336D01*
X123836Y78996D02*
X125336D01*
Y76196D02*
Y78996D01*
X123836Y76196D02*
Y78996D01*
X124586Y77096D02*
Y78096D01*
X124086Y77596D02*
X125086D01*
X106056Y78996D02*
X107556D01*
X106056Y76196D02*
X107556D01*
X106056D02*
Y78996D01*
X107556Y76196D02*
Y78996D01*
X106806Y77096D02*
Y78096D01*
X106306Y77596D02*
X107306D01*
X121296Y76196D02*
X122796D01*
X121296Y78996D02*
X122796D01*
Y76196D02*
Y78996D01*
X121296Y76196D02*
Y78996D01*
X122046Y77096D02*
Y78096D01*
X121546Y77596D02*
X122546D01*
X122566Y79752D02*
X124066D01*
X122566Y82552D02*
X124066D01*
Y79752D02*
Y82552D01*
X122566Y79752D02*
Y82552D01*
X123316Y80652D02*
Y81652D01*
X122816Y81152D02*
X123816D01*
X117347Y46387D02*
Y47337D01*
X116872Y46862D02*
X117822D01*
X116147Y47412D02*
X118547D01*
X116147Y46312D02*
X118547D01*
X116147D02*
Y47412D01*
X118547Y46312D02*
Y47412D01*
X127329Y78663D02*
Y81863D01*
X124129Y78663D02*
Y81863D01*
Y78663D02*
X127329D01*
X124129Y81863D02*
X127329D01*
X125229Y80263D02*
X126229D01*
X125729Y79763D02*
Y80763D01*
X121995Y78663D02*
Y81863D01*
X118795Y78663D02*
Y81863D01*
Y78663D02*
X121995D01*
X118795Y81863D02*
X121995D01*
X119895Y80263D02*
X120895D01*
X120395Y79763D02*
Y80763D01*
X127329Y73583D02*
Y76783D01*
X124129Y73583D02*
Y76783D01*
Y73583D02*
X127329D01*
X124129Y76783D02*
X127329D01*
X125229Y75183D02*
X126229D01*
X125729Y74683D02*
Y75683D01*
X127329Y68503D02*
Y71703D01*
X124129Y68503D02*
Y71703D01*
Y68503D02*
X127329D01*
X124129Y71703D02*
X127329D01*
X125229Y70103D02*
X126229D01*
X125729Y69603D02*
Y70603D01*
X121995Y68503D02*
Y71703D01*
X118795Y68503D02*
Y71703D01*
Y68503D02*
X121995D01*
X118795Y71703D02*
X121995D01*
X119895Y70103D02*
X120895D01*
X120395Y69603D02*
Y70603D01*
X121995Y73583D02*
Y76783D01*
X118795Y73583D02*
Y76783D01*
Y73583D02*
X121995D01*
X118795Y76783D02*
X121995D01*
X119895Y75183D02*
X120895D01*
X120395Y74683D02*
Y75683D01*
X127329Y63423D02*
Y66623D01*
X124129Y63423D02*
Y66623D01*
Y63423D02*
X127329D01*
X124129Y66623D02*
X127329D01*
X125229Y65023D02*
X126229D01*
X125729Y64523D02*
Y65523D01*
X121995Y63423D02*
Y66623D01*
X118795Y63423D02*
Y66623D01*
Y63423D02*
X121995D01*
X118795Y66623D02*
X121995D01*
X119895Y65023D02*
X120895D01*
X120395Y64523D02*
Y65523D01*
X99059Y39402D02*
Y40352D01*
X98584Y39877D02*
X99534D01*
X97859Y40427D02*
X100259D01*
X97859Y39327D02*
X100259D01*
X97859D02*
Y40427D01*
X100259Y39327D02*
Y40427D01*
X92107Y45211D02*
X93057D01*
X92582Y44736D02*
Y45686D01*
X93132Y44011D02*
Y46411D01*
X92032Y44011D02*
Y46411D01*
X93132*
X92032Y44011D02*
X93132D01*
X92107Y48132D02*
X93057D01*
X92582Y47657D02*
Y48607D01*
X93132Y46932D02*
Y49332D01*
X92032Y46932D02*
Y49332D01*
X93132*
X92032Y46932D02*
X93132D01*
X95884Y39402D02*
Y40352D01*
X95409Y39877D02*
X96359D01*
X94684Y40427D02*
X97084D01*
X94684Y39327D02*
X97084D01*
X94684D02*
Y40427D01*
X97084Y39327D02*
Y40427D01*
X104934Y45211D02*
X105884D01*
X105409Y44736D02*
Y45686D01*
X104859Y44011D02*
Y46411D01*
X105959Y44011D02*
Y46411D01*
X104859Y44011D02*
X105959D01*
X104859Y46411D02*
X105959D01*
X42958Y51245D02*
X43908D01*
X43433Y50770D02*
Y51720D01*
X43983Y50045D02*
Y52445D01*
X42883Y50045D02*
Y52445D01*
X43983*
X42883Y50045D02*
X43983D01*
X38767Y51245D02*
X39717D01*
X39242Y50770D02*
Y51720D01*
X39792Y50045D02*
Y52445D01*
X38692Y50045D02*
Y52445D01*
X39792*
X38692Y50045D02*
X39792D01*
X31655Y44957D02*
X32605D01*
X32130Y44482D02*
Y45432D01*
X31580Y43757D02*
Y46157D01*
X32680Y43757D02*
Y46157D01*
X31580D02*
X32680D01*
X31580Y43757D02*
X32680D01*
X40164Y51245D02*
X41114D01*
X40639Y50770D02*
Y51720D01*
X41189Y50045D02*
Y52445D01*
X40089Y50045D02*
Y52445D01*
X41189*
X40089Y50045D02*
X41189D01*
X41561Y51245D02*
X42511D01*
X42036Y50770D02*
Y51720D01*
X41486Y50045D02*
Y52445D01*
X42586Y50045D02*
Y52445D01*
X41486Y50045D02*
X42586D01*
X41486Y52445D02*
X42586D01*
X41274Y48484D02*
Y49434D01*
X40799Y48959D02*
X41749D01*
X40074Y49509D02*
X42474D01*
X40074Y48409D02*
X42474D01*
X40074D02*
Y49509D01*
X42474Y48409D02*
Y49509D01*
X41717Y55023D02*
Y55973D01*
X41242Y55498D02*
X42192D01*
X40517Y54948D02*
X42917D01*
X40517Y56048D02*
X42917D01*
Y54948D02*
Y56048D01*
X40517Y54948D02*
Y56048D01*
X45973Y52610D02*
Y53560D01*
X45498Y53085D02*
X46448D01*
X44773Y52535D02*
X47173D01*
X44773Y53635D02*
X47173D01*
Y52535D02*
Y53635D01*
X44773Y52535D02*
Y53635D01*
X45973Y54007D02*
Y54957D01*
X45498Y54482D02*
X46448D01*
X44773Y55032D02*
X47173D01*
X44773Y53932D02*
X47173D01*
X44773D02*
Y55032D01*
X47173Y53932D02*
Y55032D01*
X48419Y72197D02*
X49369D01*
X48894Y71722D02*
Y72672D01*
X48344Y70997D02*
Y73397D01*
X49444Y70997D02*
Y73397D01*
X48344Y70997D02*
X49444D01*
X48344Y73397D02*
X49444D01*
X57182Y46862D02*
X58132D01*
X57657Y46387D02*
Y47337D01*
X57107Y45662D02*
Y48062D01*
X58207Y45662D02*
Y48062D01*
X57107D02*
X58207D01*
X57107Y45662D02*
X58207D01*
X57182Y50037D02*
X58132D01*
X57657Y49562D02*
Y50512D01*
X58207Y48837D02*
Y51237D01*
X57107Y48837D02*
Y51237D01*
Y48837D02*
X58207D01*
X57107Y51237D02*
X58207D01*
X53974Y58579D02*
Y59529D01*
X53499Y59054D02*
X54449D01*
X52774Y59604D02*
X55174D01*
X52774Y58504D02*
X55174D01*
Y59604*
X52774Y58504D02*
Y59604D01*
X53974Y61754D02*
Y62704D01*
X53499Y62229D02*
X54449D01*
X52774Y62779D02*
X55174D01*
X52774Y61679D02*
X55174D01*
Y62779*
X52774Y61679D02*
Y62779D01*
X45117Y58419D02*
X46067D01*
X45592Y57944D02*
Y58894D01*
X45042Y57219D02*
Y59619D01*
X46142Y57219D02*
Y59619D01*
X45042Y57219D02*
X46142D01*
X45042Y59619D02*
X46142D01*
X61754Y66674D02*
X62704D01*
X62229Y66199D02*
Y67149D01*
X61679Y65474D02*
Y67874D01*
X62779Y65474D02*
Y67874D01*
X61679Y65474D02*
X62779D01*
X61679Y67874D02*
X62779D01*
X58452Y67817D02*
X59402D01*
X58927Y67342D02*
Y68292D01*
X58377Y66617D02*
Y69017D01*
X59477Y66617D02*
Y69017D01*
X58377Y66617D02*
X59477D01*
X58377Y69017D02*
X59477D01*
X62356Y58452D02*
Y59402D01*
X61881Y58927D02*
X62831D01*
X61156Y58377D02*
X63556D01*
X61156Y59477D02*
X63556D01*
X61156Y58377D02*
Y59477D01*
X63556Y58377D02*
Y59477D01*
X60103Y61721D02*
X61053D01*
X60578Y61246D02*
Y62196D01*
X60028Y60521D02*
Y62921D01*
X61128Y60521D02*
Y62921D01*
X60028D02*
X61128D01*
X60028Y60521D02*
X61128D01*
X61213Y58960D02*
Y59910D01*
X60738Y59435D02*
X61688D01*
X60013Y59985D02*
X62413D01*
X60013Y58885D02*
X62413D01*
X60013D02*
Y59985D01*
X62413Y58885D02*
Y59985D01*
X64134Y63659D02*
Y64609D01*
X63659Y64134D02*
X64609D01*
X62934Y64684D02*
X65334D01*
X62934Y63584D02*
X65334D01*
X62934D02*
Y64684D01*
X65334Y63584D02*
Y64684D01*
X75470Y42671D02*
X76420D01*
X75945Y42196D02*
Y43146D01*
X75395Y41471D02*
Y43871D01*
X76495Y41471D02*
Y43871D01*
X75395Y41471D02*
X76495D01*
X75395Y43871D02*
X76495D01*
X60959Y49054D02*
Y50004D01*
X60484Y49529D02*
X61434D01*
X59759Y48979D02*
X62159D01*
X59759Y50079D02*
X62159D01*
Y48979D02*
Y50079D01*
X59759Y48979D02*
Y50079D01*
X60959Y47657D02*
Y48607D01*
X60484Y48132D02*
X61434D01*
X59759Y47582D02*
X62159D01*
X59759Y48682D02*
X62159D01*
Y47582D02*
Y48682D01*
X59759Y47582D02*
Y48682D01*
X71119Y56674D02*
Y57624D01*
X70644Y57149D02*
X71594D01*
X69919Y57699D02*
X72319D01*
X69919Y56599D02*
X72319D01*
Y57699*
X69919Y56599D02*
Y57699D01*
X28861Y59816D02*
X29811D01*
X29336Y59341D02*
Y60291D01*
X28786Y58616D02*
Y61016D01*
X29886Y58616D02*
Y61016D01*
X28786Y58616D02*
X29886D01*
X28786Y61016D02*
X29886D01*
X37497Y68452D02*
X38447D01*
X37972Y67977D02*
Y68927D01*
X37422Y67252D02*
Y69652D01*
X38522Y67252D02*
Y69652D01*
X37422Y67252D02*
X38522D01*
X37422Y69652D02*
X38522D01*
X41180Y67309D02*
X42130D01*
X41655Y66834D02*
Y67784D01*
X41105Y66109D02*
Y68509D01*
X42205Y66109D02*
Y68509D01*
X41105Y66109D02*
X42205D01*
X41105Y68509D02*
X42205D01*
X37222Y54485D02*
X38722D01*
X37222Y51685D02*
X38722D01*
X37222D02*
Y54485D01*
X38722Y51685D02*
Y54485D01*
X37972Y52585D02*
Y53585D01*
X37472Y53085D02*
X38472D01*
M02*