%FSAX24Y24*%
%MOIN*%
G70*
G01*
G75*
G04 Layer_Physical_Order=2*
G04 Layer_Color=16711680*
%ADD10R,0.0354X0.0315*%
%ADD11R,0.0315X0.0354*%
%ADD12R,0.0906X0.0906*%
%ADD13R,0.0472X0.0551*%
%ADD14O,0.0709X0.0118*%
%ADD15O,0.0118X0.0709*%
%ADD16R,0.0200X0.0591*%
%ADD17R,0.0551X0.0472*%
%ADD18R,0.0866X0.0866*%
%ADD19O,0.0236X0.0866*%
G04:AMPARAMS|DCode=20|XSize=74.8mil|YSize=126mil|CornerRadius=0mil|HoleSize=0mil|Usage=FLASHONLY|Rotation=180.000|XOffset=0mil|YOffset=0mil|HoleType=Round|Shape=Octagon|*
%AMOCTAGOND20*
4,1,8,0.0187,-0.0630,-0.0187,-0.0630,-0.0374,-0.0443,-0.0374,0.0443,-0.0187,0.0630,0.0187,0.0630,0.0374,0.0443,0.0374,-0.0443,0.0187,-0.0630,0.0*
%
%ADD20OCTAGOND20*%

%ADD21R,0.0236X0.0551*%
%ADD22R,0.0236X0.0709*%
%ADD23R,0.0400X0.1000*%
%ADD24R,0.1200X0.1450*%
%ADD25R,0.1000X0.0400*%
%ADD26R,0.0945X0.1220*%
%ADD27R,0.0866X0.0177*%
%ADD28R,0.0800X0.0250*%
%ADD29R,0.0472X0.0118*%
%ADD30R,0.0118X0.0472*%
%ADD31C,0.0100*%
%ADD32C,0.0200*%
%ADD33C,0.0150*%
%ADD34C,0.0250*%
%ADD35R,1.1300X0.1400*%
%ADD36R,0.1300X0.2500*%
%ADD37R,1.2150X0.1400*%
%ADD38R,0.2150X0.2800*%
%ADD39R,0.8800X0.1550*%
%ADD40R,0.1350X0.2500*%
%ADD41R,0.2750X0.0500*%
%ADD42R,0.3850X0.0850*%
%ADD43R,0.2650X0.1350*%
%ADD44R,0.0750X0.1300*%
%ADD45C,0.0300*%
%ADD46C,0.1181*%
%ADD47C,0.0400*%
%ADD48C,0.0600*%
%ADD49C,0.0591*%
%ADD50R,0.0591X0.0591*%
%ADD51C,0.0700*%
%ADD52C,0.0630*%
%ADD53C,0.1500*%
%ADD54R,0.0591X0.0591*%
%ADD55C,0.0800*%
%ADD56C,0.0500*%
%ADD57C,0.1400*%
%ADD58R,0.0600X0.0600*%
%ADD59C,0.1874*%
%ADD60R,0.0665X0.0665*%
%ADD61C,0.0665*%
%ADD62C,0.1575*%
%ADD63R,0.0394X0.0512*%
%ADD64R,0.0394X0.0709*%
%ADD65R,0.1100X0.1000*%
%ADD66O,0.0827X0.0177*%
%ADD67R,0.3750X0.0850*%
G36*
X065097Y016303D02*
X013153D01*
Y044597D01*
X065097D01*
Y016303D01*
D02*
G37*
%LPC*%
G36*
X039145Y021200D02*
X038950D01*
Y021005D01*
X038998Y021014D01*
X039080Y021070D01*
X039135Y021152D01*
X039145Y021200D01*
D02*
G37*
G36*
X038850Y021495D02*
X038802Y021486D01*
X038720Y021430D01*
X038665Y021348D01*
X038655Y021300D01*
X038850D01*
Y021495D01*
D02*
G37*
G36*
X038950D02*
Y021300D01*
X039145D01*
X039135Y021348D01*
X039080Y021430D01*
X038998Y021486D01*
X038950Y021495D01*
D02*
G37*
G36*
X038850Y021200D02*
X038655D01*
X038665Y021152D01*
X038720Y021070D01*
X038802Y021014D01*
X038850Y021005D01*
Y021200D01*
D02*
G37*
G36*
X055400Y020797D02*
X055346Y020790D01*
X055248Y020749D01*
X055165Y020685D01*
X055101Y020602D01*
X055060Y020504D01*
X055053Y020450D01*
X055400D01*
Y020797D01*
D02*
G37*
G36*
X055500D02*
Y020450D01*
X055847D01*
X055840Y020504D01*
X055799Y020602D01*
X055735Y020685D01*
X055652Y020749D01*
X055554Y020790D01*
X055500Y020797D01*
D02*
G37*
G36*
X023900Y021553D02*
X023822Y021542D01*
X023749Y021512D01*
X023686Y021464D01*
X023638Y021401D01*
X023608Y021328D01*
X023597Y021250D01*
X023608Y021172D01*
X023638Y021099D01*
X023686Y021036D01*
X023749Y020988D01*
X023822Y020958D01*
X023900Y020947D01*
X023978Y020958D01*
X024051Y020988D01*
X024114Y021036D01*
X024162Y021099D01*
X024192Y021172D01*
X024203Y021250D01*
X024192Y021328D01*
X024162Y021401D01*
X024114Y021464D01*
X024051Y021512D01*
X023978Y021542D01*
X023900Y021553D01*
D02*
G37*
G36*
X064000Y022149D02*
X063897Y022135D01*
X063801Y022095D01*
X063718Y022032D01*
X063655Y021949D01*
X063615Y021853D01*
X063601Y021750D01*
X063615Y021647D01*
X063655Y021551D01*
X063718Y021468D01*
X063801Y021405D01*
X063897Y021365D01*
X064000Y021351D01*
X064103Y021365D01*
X064199Y021405D01*
X064282Y021468D01*
X064345Y021551D01*
X064385Y021647D01*
X064399Y021750D01*
X064385Y021853D01*
X064345Y021949D01*
X064282Y022032D01*
X064199Y022095D01*
X064103Y022135D01*
X064000Y022149D01*
D02*
G37*
G36*
X035027Y022324D02*
X034800D01*
Y022117D01*
X035027D01*
Y022324D01*
D02*
G37*
G36*
X028518Y023027D02*
X028490Y023027D01*
X028482D01*
Y023027D01*
X028482D01*
X028482D01*
X027967D01*
Y022903D01*
X027800D01*
X027741Y022891D01*
X027692Y022858D01*
X026892Y022058D01*
X026859Y022009D01*
X026847Y021950D01*
Y020625D01*
X026847Y020625D01*
X026847D01*
X026859Y020566D01*
X026892Y020517D01*
X027130Y020278D01*
X027110Y020229D01*
X027097Y020125D01*
X027110Y020021D01*
X027151Y019923D01*
X027215Y019840D01*
X027298Y019776D01*
X027396Y019735D01*
X027500Y019722D01*
X027604Y019735D01*
X027702Y019776D01*
X027785Y019840D01*
X027849Y019923D01*
X027890Y020021D01*
X027903Y020125D01*
X027890Y020229D01*
X027849Y020327D01*
X027785Y020410D01*
X027702Y020474D01*
X027640Y020500D01*
Y020550D01*
X027702Y020576D01*
X027785Y020640D01*
X027849Y020723D01*
X027890Y020821D01*
X027903Y020925D01*
X027890Y021029D01*
X027849Y021127D01*
X027785Y021210D01*
X027702Y021274D01*
X027653Y021295D01*
Y021687D01*
X027921Y021954D01*
X027967Y021935D01*
Y021873D01*
X028482D01*
Y021873D01*
X028482D01*
X028482Y021873D01*
X028518D01*
Y021873D01*
X029033D01*
Y021941D01*
X029077Y021965D01*
X029152Y021915D01*
X029250Y021895D01*
X029348Y021915D01*
X029423Y021965D01*
X029467Y021941D01*
Y021873D01*
X029982D01*
Y021873D01*
X029982D01*
X029982Y021873D01*
X030018D01*
Y021873D01*
X030226D01*
Y022150D01*
X030276D01*
Y022200D01*
X030533D01*
Y022427D01*
D01*
Y022427D01*
X030533Y022427D01*
Y022473D01*
X030533D01*
Y022700D01*
X030276D01*
Y022750D01*
X030226D01*
Y023027D01*
X030018D01*
D01*
D01*
X030018Y023027D01*
X029982D01*
Y023027D01*
X029467D01*
Y022959D01*
X029423Y022935D01*
X029348Y022985D01*
X029250Y023005D01*
X029152Y022985D01*
X029077Y022935D01*
X029033Y022959D01*
Y023027D01*
X028518D01*
Y023027D01*
D02*
G37*
G36*
X017000Y023203D02*
X016909Y023191D01*
X016823Y023156D01*
X016750Y023100D01*
X016694Y023027D01*
X016659Y022941D01*
X016647Y022850D01*
X016659Y022759D01*
X016694Y022673D01*
X016750Y022600D01*
X016823Y022544D01*
X016909Y022509D01*
X017000Y022497D01*
X017091Y022509D01*
X017177Y022544D01*
X017250Y022600D01*
X017306Y022673D01*
X017341Y022759D01*
X017353Y022850D01*
X017341Y022941D01*
X017306Y023027D01*
X017250Y023100D01*
X017177Y023156D01*
X017091Y023191D01*
X017000Y023203D01*
D02*
G37*
G36*
X034700Y022324D02*
X034473D01*
Y022117D01*
X034700D01*
Y022324D01*
D02*
G37*
G36*
X017500Y022203D02*
X017409Y022191D01*
X017323Y022156D01*
X017250Y022100D01*
X017194Y022027D01*
X017159Y021941D01*
X017147Y021850D01*
X017159Y021759D01*
X017194Y021673D01*
X017250Y021600D01*
X017323Y021544D01*
X017409Y021509D01*
X017500Y021497D01*
X017591Y021509D01*
X017677Y021544D01*
X017750Y021600D01*
X017806Y021673D01*
X017841Y021759D01*
X017853Y021850D01*
X017841Y021941D01*
X017806Y022027D01*
X017750Y022100D01*
X017677Y022156D01*
X017591Y022191D01*
X017500Y022203D01*
D02*
G37*
G36*
X021500D02*
X021409Y022191D01*
X021323Y022156D01*
X021250Y022100D01*
X021194Y022027D01*
X021159Y021941D01*
X021147Y021850D01*
X021159Y021759D01*
X021194Y021673D01*
X021250Y021600D01*
X021323Y021544D01*
X021409Y021509D01*
X021500Y021497D01*
X021591Y021509D01*
X021677Y021544D01*
X021750Y021600D01*
X021806Y021673D01*
X021841Y021759D01*
X021853Y021850D01*
X021841Y021941D01*
X021806Y022027D01*
X021750Y022100D01*
X021677Y022156D01*
X021591Y022191D01*
X021500Y022203D01*
D02*
G37*
G36*
X030533Y022100D02*
X030326D01*
Y021873D01*
X030533D01*
Y022100D01*
D02*
G37*
G36*
X028450Y020075D02*
X028103D01*
X028110Y020021D01*
X028151Y019923D01*
X028215Y019840D01*
X028298Y019776D01*
X028396Y019735D01*
X028450Y019728D01*
Y020075D01*
D02*
G37*
G36*
X028897D02*
X028550D01*
Y019728D01*
X028604Y019735D01*
X028702Y019776D01*
X028785Y019840D01*
X028849Y019923D01*
X028890Y020021D01*
X028897Y020075D01*
D02*
G37*
G36*
X056550Y020803D02*
X056446Y020790D01*
X056348Y020749D01*
X056265Y020685D01*
X056201Y020602D01*
X056160Y020504D01*
X056147Y020400D01*
X056160Y020296D01*
X056201Y020198D01*
X056265Y020115D01*
X056348Y020051D01*
X056446Y020010D01*
X056550Y019997D01*
X056654Y020010D01*
X056752Y020051D01*
X056835Y020115D01*
X056899Y020198D01*
X056940Y020296D01*
X056953Y020400D01*
X056940Y020504D01*
X056899Y020602D01*
X056835Y020685D01*
X056752Y020749D01*
X056654Y020790D01*
X056550Y020803D01*
D02*
G37*
G36*
X060475Y021329D02*
X060308Y021313D01*
X060148Y021264D01*
X060000Y021185D01*
X059871Y021079D01*
X059765Y020950D01*
X059686Y020802D01*
X059637Y020642D01*
X059621Y020475D01*
X059637Y020308D01*
X059686Y020148D01*
X059765Y020000D01*
X059871Y019871D01*
X060000Y019765D01*
X060148Y019686D01*
X060308Y019637D01*
X060475Y019621D01*
X060642Y019637D01*
X060802Y019686D01*
X060950Y019765D01*
X061079Y019871D01*
X061185Y020000D01*
X061264Y020148D01*
X064350D01*
X064389Y020156D01*
X064422Y020178D01*
X064444Y020211D01*
X064452Y020250D01*
Y021100D01*
X064444Y021139D01*
X064422Y021172D01*
X064389Y021194D01*
X064350Y021202D01*
X060918D01*
X060802Y021264D01*
X060642Y021313D01*
X060475Y021329D01*
D02*
G37*
G36*
X062275Y020074D02*
Y019275D01*
X063074D01*
X063063Y019392D01*
X063014Y019552D01*
X062935Y019700D01*
X062829Y019829D01*
X062700Y019935D01*
X062552Y020014D01*
X062392Y020063D01*
X062275Y020074D01*
D02*
G37*
G36*
X043269Y019729D02*
X043206Y019721D01*
X043101Y019677D01*
X043010Y019608D01*
X042941Y019517D01*
X042897Y019412D01*
X042889Y019349D01*
X043269D01*
Y019729D01*
D02*
G37*
G36*
X043369D02*
Y019349D01*
X043749D01*
X043740Y019412D01*
X043697Y019517D01*
X043627Y019608D01*
X043537Y019677D01*
X043432Y019721D01*
X043369Y019729D01*
D02*
G37*
G36*
X055400Y020350D02*
X055053D01*
X055060Y020296D01*
X055101Y020198D01*
X055165Y020115D01*
X055248Y020051D01*
X055346Y020010D01*
X055400Y020003D01*
Y020350D01*
D02*
G37*
G36*
X028900Y021325D02*
X028100D01*
Y020525D01*
X028292D01*
X028302Y020476D01*
X028298Y020474D01*
X028215Y020410D01*
X028151Y020327D01*
X028110Y020229D01*
X028103Y020175D01*
X028897D01*
X028890Y020229D01*
X028849Y020327D01*
X028785Y020410D01*
X028702Y020474D01*
X028698Y020476D01*
X028708Y020525D01*
X028900D01*
Y021325D01*
D02*
G37*
G36*
X018950Y020424D02*
X018723D01*
Y020217D01*
X018950D01*
Y020424D01*
D02*
G37*
G36*
X019777D02*
X019550D01*
Y020217D01*
X019777D01*
Y020424D01*
D02*
G37*
G36*
X042250Y020903D02*
X042146Y020890D01*
X042048Y020849D01*
X041965Y020785D01*
X041901Y020702D01*
X041860Y020604D01*
X041847Y020500D01*
X041860Y020396D01*
X041901Y020298D01*
X041965Y020215D01*
X042048Y020151D01*
X042146Y020110D01*
X042250Y020097D01*
X042354Y020110D01*
X042452Y020151D01*
X042535Y020215D01*
X042599Y020298D01*
X042640Y020396D01*
X042653Y020500D01*
X042640Y020604D01*
X042599Y020702D01*
X042535Y020785D01*
X042452Y020849D01*
X042354Y020890D01*
X042250Y020903D01*
D02*
G37*
G36*
X055847Y020350D02*
X055500D01*
Y020003D01*
X055554Y020010D01*
X055652Y020051D01*
X055735Y020115D01*
X055799Y020198D01*
X055840Y020296D01*
X055847Y020350D01*
D02*
G37*
G36*
X016000Y021054D02*
X015869Y021037D01*
X015748Y020987D01*
X015643Y020907D01*
X015563Y020802D01*
X015513Y020681D01*
X015496Y020550D01*
X015513Y020419D01*
X015563Y020298D01*
X015643Y020193D01*
X015748Y020113D01*
X015869Y020063D01*
X016000Y020046D01*
X016131Y020063D01*
X016252Y020113D01*
X016357Y020193D01*
X016437Y020298D01*
X016487Y020419D01*
X016504Y020550D01*
X016487Y020681D01*
X016437Y020802D01*
X016357Y020907D01*
X016252Y020987D01*
X016131Y021037D01*
X016000Y021054D01*
D02*
G37*
G36*
X022500D02*
X022369Y021037D01*
X022248Y020987D01*
X022143Y020907D01*
X022063Y020802D01*
X022013Y020681D01*
X021996Y020550D01*
X022013Y020419D01*
X022063Y020298D01*
X022143Y020193D01*
X022248Y020113D01*
X022369Y020063D01*
X022500Y020046D01*
X022631Y020063D01*
X022752Y020113D01*
X022857Y020193D01*
X022937Y020298D01*
X022987Y020419D01*
X023004Y020550D01*
X022987Y020681D01*
X022937Y020802D01*
X022857Y020907D01*
X022752Y020987D01*
X022631Y021037D01*
X022500Y021054D01*
D02*
G37*
G36*
X018000Y023203D02*
X017909Y023191D01*
X017823Y023156D01*
X017750Y023100D01*
X017694Y023027D01*
X017659Y022941D01*
X017647Y022850D01*
X017659Y022759D01*
X017694Y022673D01*
X017750Y022600D01*
X017823Y022544D01*
X017909Y022509D01*
X018000Y022497D01*
X018091Y022509D01*
X018177Y022544D01*
X018250Y022600D01*
X018306Y022673D01*
X018341Y022759D01*
X018353Y022850D01*
X018341Y022941D01*
X018306Y023027D01*
X018250Y023100D01*
X018177Y023156D01*
X018091Y023191D01*
X018000Y023203D01*
D02*
G37*
G36*
X030900Y025755D02*
X030802Y025735D01*
X030720Y025680D01*
X030665Y025598D01*
X030645Y025500D01*
X030665Y025402D01*
X030720Y025320D01*
X030747Y025302D01*
Y025250D01*
X030250D01*
Y024050D01*
X031023D01*
Y023927D01*
X030918D01*
D01*
D01*
X030918Y023927D01*
X030882D01*
Y023927D01*
X030674D01*
Y023650D01*
Y023373D01*
X030882D01*
Y023373D01*
X030882D01*
X030882Y023373D01*
X030918D01*
Y023373D01*
X031433D01*
Y023927D01*
X031329D01*
Y024050D01*
X031550D01*
Y025250D01*
X031053D01*
Y025302D01*
X031080Y025320D01*
X031135Y025402D01*
X031155Y025500D01*
X031135Y025598D01*
X031080Y025680D01*
X030998Y025735D01*
X030900Y025755D01*
D02*
G37*
G36*
X061450Y024450D02*
X061053D01*
X061062Y024383D01*
X061107Y024273D01*
X061179Y024179D01*
X061273Y024107D01*
X061383Y024062D01*
X061450Y024053D01*
Y024450D01*
D02*
G37*
G36*
X061947D02*
X061550D01*
Y024053D01*
X061617Y024062D01*
X061727Y024107D01*
X061821Y024179D01*
X061893Y024273D01*
X061938Y024383D01*
X061947Y024450D01*
D02*
G37*
G36*
X029783Y024127D02*
X029576D01*
Y023900D01*
X029783D01*
Y024127D01*
D02*
G37*
G36*
X030574Y023927D02*
X030367D01*
Y023700D01*
X030574D01*
Y023927D01*
D02*
G37*
G36*
X032833Y023927D02*
X032626D01*
Y023700D01*
X032833D01*
Y023927D01*
D02*
G37*
G36*
X027124Y024127D02*
X026917D01*
Y023900D01*
X027124D01*
Y024127D01*
D02*
G37*
G36*
X017250Y024424D02*
X017023D01*
Y024217D01*
X017250D01*
Y024424D01*
D02*
G37*
G36*
X061450Y024947D02*
X061383Y024938D01*
X061273Y024893D01*
X061179Y024821D01*
X061107Y024727D01*
X061062Y024617D01*
X061053Y024550D01*
X061450D01*
Y024947D01*
D02*
G37*
G36*
X061550D02*
Y024550D01*
X061947D01*
X061938Y024617D01*
X061893Y024727D01*
X061821Y024821D01*
X061727Y024893D01*
X061617Y024938D01*
X061550Y024947D01*
D02*
G37*
G36*
X020550Y025855D02*
X020452Y025835D01*
X020370Y025780D01*
X020315Y025698D01*
X020295Y025600D01*
X020315Y025502D01*
X020370Y025420D01*
X020397Y025402D01*
Y025283D01*
X020273D01*
Y024768D01*
X020273Y024768D01*
X020273Y024732D01*
X020273D01*
Y024524D01*
X020827D01*
Y024732D01*
D01*
Y024732D01*
X020827Y024732D01*
Y024768D01*
X020827D01*
Y025283D01*
X020703D01*
Y025402D01*
X020730Y025420D01*
X020786Y025502D01*
X020805Y025600D01*
X020786Y025698D01*
X020730Y025780D01*
X020648Y025835D01*
X020550Y025855D01*
D02*
G37*
G36*
X042250Y025146D02*
X042172Y025136D01*
X042099Y025106D01*
X042036Y025058D01*
X041988Y024995D01*
X041958Y024922D01*
X041947Y024844D01*
X041958Y024766D01*
X041988Y024693D01*
X042036Y024630D01*
X042099Y024582D01*
X042172Y024552D01*
X042250Y024541D01*
X042328Y024552D01*
X042401Y024582D01*
X042464Y024630D01*
X042512Y024693D01*
X042542Y024766D01*
X042553Y024844D01*
X042542Y024922D01*
X042512Y024995D01*
X042464Y025058D01*
X042401Y025106D01*
X042328Y025136D01*
X042250Y025146D01*
D02*
G37*
G36*
X017577Y024424D02*
X017350D01*
Y024217D01*
X017577D01*
Y024424D01*
D02*
G37*
G36*
X020500D02*
X020273D01*
Y024217D01*
X020500D01*
Y024424D01*
D02*
G37*
G36*
X020827D02*
X020600D01*
Y024217D01*
X020827D01*
Y024424D01*
D02*
G37*
G36*
X034750Y024005D02*
X034652Y023986D01*
X034570Y023930D01*
X034515Y023848D01*
X034495Y023750D01*
X034515Y023652D01*
X034570Y023570D01*
X034597Y023552D01*
Y023183D01*
X034473D01*
Y022668D01*
X034473Y022668D01*
X034473Y022632D01*
X034473D01*
Y022424D01*
X035027D01*
Y022632D01*
D01*
Y022632D01*
X035027Y022632D01*
Y022668D01*
X035027D01*
Y023183D01*
X034903D01*
Y023552D01*
X034930Y023570D01*
X034985Y023652D01*
X035005Y023750D01*
X034985Y023848D01*
X034930Y023930D01*
X034848Y023986D01*
X034750Y024005D01*
D02*
G37*
G36*
X030533Y023027D02*
X030326D01*
Y022800D01*
X030533D01*
Y023027D01*
D02*
G37*
G36*
X050850Y023347D02*
X050796Y023340D01*
X050698Y023299D01*
X050615Y023235D01*
X050551Y023152D01*
X050510Y023054D01*
X050503Y023000D01*
X050850D01*
Y023347D01*
D02*
G37*
G36*
X051297Y022900D02*
X050950D01*
Y022553D01*
X051004Y022560D01*
X051102Y022601D01*
X051185Y022665D01*
X051249Y022748D01*
X051290Y022846D01*
X051297Y022900D01*
D02*
G37*
G36*
X021000Y023203D02*
X020909Y023191D01*
X020823Y023156D01*
X020750Y023100D01*
X020694Y023027D01*
X020659Y022941D01*
X020647Y022850D01*
X020659Y022759D01*
X020694Y022673D01*
X020750Y022600D01*
X020823Y022544D01*
X020909Y022509D01*
X021000Y022497D01*
X021091Y022509D01*
X021177Y022544D01*
X021250Y022600D01*
X021306Y022673D01*
X021341Y022759D01*
X021353Y022850D01*
X021341Y022941D01*
X021306Y023027D01*
X021250Y023100D01*
X021177Y023156D01*
X021091Y023191D01*
X021000Y023203D01*
D02*
G37*
G36*
X020000D02*
X019909Y023191D01*
X019823Y023156D01*
X019750Y023100D01*
X019694Y023027D01*
X019659Y022941D01*
X019647Y022850D01*
X019659Y022759D01*
X019694Y022673D01*
X019750Y022600D01*
X019816Y022550D01*
X019800Y022503D01*
X019200D01*
X019184Y022550D01*
X019250Y022600D01*
X019306Y022673D01*
X019341Y022759D01*
X019353Y022850D01*
X019341Y022941D01*
X019306Y023027D01*
X019250Y023100D01*
X019177Y023156D01*
X019091Y023191D01*
X019000Y023203D01*
X018909Y023191D01*
X018823Y023156D01*
X018750Y023100D01*
X018694Y023027D01*
X018659Y022941D01*
X018647Y022850D01*
X018659Y022759D01*
X018694Y022673D01*
X018750Y022600D01*
X018823Y022544D01*
X018847Y022535D01*
Y022350D01*
Y022050D01*
X018800Y022034D01*
X018750Y022100D01*
X018677Y022156D01*
X018591Y022191D01*
X018500Y022203D01*
X018409Y022191D01*
X018323Y022156D01*
X018250Y022100D01*
X018194Y022027D01*
X018159Y021941D01*
X018147Y021850D01*
X018159Y021759D01*
X018194Y021673D01*
X018250Y021600D01*
X018323Y021544D01*
X018409Y021509D01*
X018500Y021497D01*
X018591Y021509D01*
X018677Y021544D01*
X018750Y021600D01*
X018800Y021666D01*
X018847Y021650D01*
Y021283D01*
X018723D01*
Y020768D01*
X018723Y020768D01*
X018723Y020732D01*
X018723D01*
Y020524D01*
X019000D01*
Y020474D01*
X019050D01*
Y020217D01*
X019450D01*
Y020474D01*
X019500D01*
Y020524D01*
X019777D01*
Y020732D01*
D01*
Y020732D01*
X019777Y020732D01*
Y020768D01*
X019777D01*
Y020873D01*
X020176D01*
X020234Y020884D01*
X020284Y020917D01*
X020608Y021242D01*
X020641Y021291D01*
X020653Y021350D01*
Y021535D01*
X020677Y021544D01*
X020750Y021600D01*
X020806Y021673D01*
X020841Y021759D01*
X020853Y021850D01*
X020841Y021941D01*
X020806Y022027D01*
X020750Y022100D01*
X020677Y022156D01*
X020591Y022191D01*
X020500Y022203D01*
X020409Y022191D01*
X020385Y022181D01*
X020108Y022458D01*
X020099Y022464D01*
X020104Y022514D01*
X020177Y022544D01*
X020250Y022600D01*
X020306Y022673D01*
X020341Y022759D01*
X020353Y022850D01*
X020341Y022941D01*
X020306Y023027D01*
X020250Y023100D01*
X020177Y023156D01*
X020091Y023191D01*
X020000Y023203D01*
D02*
G37*
G36*
X050850Y022900D02*
X050503D01*
X050510Y022846D01*
X050551Y022748D01*
X050615Y022665D01*
X050698Y022601D01*
X050796Y022560D01*
X050850Y022553D01*
Y022900D01*
D02*
G37*
G36*
X050950Y023347D02*
Y023000D01*
X051297D01*
X051290Y023054D01*
X051249Y023152D01*
X051185Y023235D01*
X051102Y023299D01*
X051004Y023340D01*
X050950Y023347D01*
D02*
G37*
G36*
X027124Y023800D02*
X026917D01*
Y023573D01*
X027124D01*
Y023800D01*
D02*
G37*
G36*
X029783Y023800D02*
X029576D01*
Y023573D01*
X029783D01*
Y023800D01*
D02*
G37*
G36*
X050900Y024453D02*
X050796Y024440D01*
X050698Y024399D01*
X050615Y024335D01*
X050551Y024252D01*
X050510Y024154D01*
X050497Y024050D01*
X050510Y023946D01*
X050551Y023848D01*
X050615Y023765D01*
X050698Y023701D01*
X050796Y023660D01*
X050900Y023647D01*
X051004Y023660D01*
X051102Y023701D01*
X051185Y023765D01*
X051249Y023848D01*
X051290Y023946D01*
X051303Y024050D01*
X051290Y024154D01*
X051249Y024252D01*
X051185Y024335D01*
X051102Y024399D01*
X051004Y024440D01*
X050900Y024453D01*
D02*
G37*
G36*
X033750Y023555D02*
X033652Y023535D01*
X033570Y023480D01*
X033525Y023413D01*
X033475D01*
X033430Y023480D01*
X033348Y023535D01*
X033250Y023555D01*
X033152Y023535D01*
X033070Y023480D01*
X033015Y023398D01*
X032995Y023300D01*
X033015Y023202D01*
X033070Y023120D01*
X033097Y023102D01*
Y019839D01*
X032392Y019134D01*
X032359Y019084D01*
X032347Y019026D01*
Y018783D01*
X032223D01*
Y018268D01*
X032223Y018268D01*
X032223Y018232D01*
X032223D01*
Y018153D01*
X031824D01*
X031824Y018153D01*
X031756Y018139D01*
X031698Y018101D01*
X031698Y018101D01*
X031374Y017776D01*
X031335Y017718D01*
X031322Y017650D01*
Y017525D01*
X031291Y017512D01*
X031204Y017446D01*
X031138Y017359D01*
X031096Y017258D01*
X031081Y017150D01*
X031096Y017042D01*
X031138Y016941D01*
X031204Y016854D01*
X031291Y016788D01*
X031392Y016746D01*
X031500Y016731D01*
X031608Y016746D01*
X031709Y016788D01*
X031796Y016854D01*
X031862Y016941D01*
X031904Y017042D01*
X031919Y017150D01*
X031904Y017258D01*
X031862Y017359D01*
X031796Y017446D01*
X031709Y017512D01*
X031678Y017525D01*
Y017576D01*
X031898Y017796D01*
X032223D01*
Y017717D01*
X032777D01*
Y018232D01*
D01*
Y018232D01*
X032777Y018232D01*
Y018268D01*
X032777D01*
Y018783D01*
X032653D01*
Y018962D01*
X033301Y019610D01*
X033347Y019591D01*
Y018783D01*
X033223D01*
Y018268D01*
X033223Y018268D01*
X033223Y018232D01*
X033223D01*
Y017717D01*
X033322D01*
Y017525D01*
X033291Y017512D01*
X033204Y017446D01*
X033138Y017359D01*
X033096Y017258D01*
X033081Y017150D01*
X033096Y017042D01*
X033138Y016941D01*
X033204Y016854D01*
X033291Y016788D01*
X033392Y016746D01*
X033500Y016731D01*
X033608Y016746D01*
X033709Y016788D01*
X033796Y016854D01*
X033862Y016941D01*
X033904Y017042D01*
X033919Y017150D01*
X033904Y017258D01*
X033862Y017359D01*
X033796Y017446D01*
X033709Y017512D01*
X033678Y017525D01*
Y017717D01*
X033777D01*
Y018232D01*
D01*
Y018232D01*
X033777Y018232D01*
Y018268D01*
X033777D01*
Y018783D01*
X033653D01*
Y022987D01*
X033718Y023052D01*
X033750Y023045D01*
X033848Y023064D01*
X033930Y023120D01*
X033986Y023202D01*
X034005Y023300D01*
X033986Y023398D01*
X033930Y023480D01*
X033848Y023535D01*
X033750Y023555D01*
D02*
G37*
G36*
X030574Y023600D02*
X030367D01*
Y023373D01*
X030574D01*
Y023600D01*
D02*
G37*
G36*
X032300Y025755D02*
X032202Y025735D01*
X032120Y025680D01*
X032064Y025598D01*
X032045Y025500D01*
X032064Y025402D01*
X032120Y025320D01*
X032147Y025302D01*
Y025250D01*
X031650D01*
Y024050D01*
X031871D01*
Y023927D01*
X031767D01*
Y023373D01*
X032282D01*
Y023373D01*
X032282D01*
X032282Y023373D01*
X032318D01*
Y023373D01*
X032526D01*
Y023650D01*
Y023927D01*
X032318D01*
D01*
D01*
X032318Y023927D01*
X032282D01*
Y023927D01*
X032177D01*
Y024050D01*
X032950D01*
Y025250D01*
X032453D01*
Y025302D01*
X032480Y025320D01*
X032536Y025402D01*
X032555Y025500D01*
X032536Y025598D01*
X032480Y025680D01*
X032398Y025735D01*
X032300Y025755D01*
D02*
G37*
G36*
X032833Y023600D02*
X032626D01*
Y023373D01*
X032833D01*
Y023600D01*
D02*
G37*
G36*
X014550Y018537D02*
Y017700D01*
X015387D01*
X015375Y017824D01*
X015324Y017991D01*
X015241Y018145D01*
X015131Y018281D01*
X014995Y018391D01*
X014841Y018474D01*
X014674Y018525D01*
X014550Y018537D01*
D02*
G37*
G36*
X063700D02*
X063576Y018525D01*
X063409Y018474D01*
X063255Y018391D01*
X063119Y018281D01*
X063009Y018145D01*
X062926Y017991D01*
X062875Y017824D01*
X062863Y017700D01*
X063700D01*
Y018537D01*
D02*
G37*
G36*
X063800D02*
Y017700D01*
X064637D01*
X064625Y017824D01*
X064574Y017991D01*
X064491Y018145D01*
X064381Y018281D01*
X064245Y018391D01*
X064091Y018474D01*
X063924Y018525D01*
X063800Y018537D01*
D02*
G37*
G36*
X014450D02*
X014326Y018525D01*
X014159Y018474D01*
X014005Y018391D01*
X013869Y018281D01*
X013759Y018145D01*
X013676Y017991D01*
X013625Y017824D01*
X013613Y017700D01*
X014450D01*
Y018537D01*
D02*
G37*
G36*
X020900Y018153D02*
X020796Y018140D01*
X020698Y018099D01*
X020615Y018035D01*
X020551Y017952D01*
X020510Y017854D01*
X020497Y017750D01*
X020510Y017646D01*
X020551Y017548D01*
X020615Y017465D01*
X020698Y017401D01*
X020796Y017360D01*
X020900Y017347D01*
X021004Y017360D01*
X021102Y017401D01*
X021185Y017465D01*
X021249Y017548D01*
X021290Y017646D01*
X021303Y017750D01*
X021290Y017854D01*
X021249Y017952D01*
X021185Y018035D01*
X021102Y018099D01*
X021004Y018140D01*
X020900Y018153D01*
D02*
G37*
G36*
X036225Y017747D02*
X036171Y017740D01*
X036073Y017699D01*
X035990Y017635D01*
X035926Y017552D01*
X035885Y017454D01*
X035878Y017400D01*
X036225D01*
Y017747D01*
D02*
G37*
G36*
X036325D02*
Y017400D01*
X036672D01*
X036665Y017454D01*
X036624Y017552D01*
X036560Y017635D01*
X036477Y017699D01*
X036379Y017740D01*
X036325Y017747D01*
D02*
G37*
G36*
X040531Y018690D02*
X039544D01*
X039553Y018577D01*
X039591Y018419D01*
X039654Y018268D01*
X039739Y018129D01*
X039845Y018005D01*
X039969Y017899D01*
X040108Y017813D01*
X040259Y017751D01*
X040418Y017713D01*
X040531Y017704D01*
Y018690D01*
D02*
G37*
G36*
X044955Y018618D02*
X044842Y018603D01*
X044737Y018559D01*
X044646Y018490D01*
X044577Y018399D01*
X044533Y018294D01*
X044518Y018181D01*
X044533Y018068D01*
X044577Y017963D01*
X044646Y017873D01*
X044737Y017803D01*
X044842Y017760D01*
X044955Y017745D01*
X045068Y017760D01*
X045173Y017803D01*
X045263Y017873D01*
X045333Y017963D01*
X045376Y018068D01*
X045391Y018181D01*
X045376Y018294D01*
X045333Y018399D01*
X045263Y018490D01*
X045173Y018559D01*
X045068Y018603D01*
X044955Y018618D01*
D02*
G37*
G36*
X046045D02*
X045932Y018603D01*
X045827Y018559D01*
X045737Y018490D01*
X045667Y018399D01*
X045624Y018294D01*
X045609Y018181D01*
X045624Y018068D01*
X045667Y017963D01*
X045737Y017873D01*
X045827Y017803D01*
X045932Y017760D01*
X046045Y017745D01*
X046158Y017760D01*
X046263Y017803D01*
X046354Y017873D01*
X046423Y017963D01*
X046467Y018068D01*
X046482Y018181D01*
X046467Y018294D01*
X046423Y018399D01*
X046354Y018490D01*
X046263Y018559D01*
X046158Y018603D01*
X046045Y018618D01*
D02*
G37*
G36*
X047136D02*
X047023Y018603D01*
X046918Y018559D01*
X046827Y018490D01*
X046758Y018399D01*
X046714Y018294D01*
X046699Y018181D01*
X046714Y018068D01*
X046758Y017963D01*
X046827Y017873D01*
X046918Y017803D01*
X047023Y017760D01*
X047136Y017745D01*
X047249Y017760D01*
X047354Y017803D01*
X047444Y017873D01*
X047514Y017963D01*
X047557Y018068D01*
X047572Y018181D01*
X047557Y018294D01*
X047514Y018399D01*
X047444Y018490D01*
X047354Y018559D01*
X047249Y018603D01*
X047136Y018618D01*
D02*
G37*
G36*
X043864D02*
X043751Y018603D01*
X043646Y018559D01*
X043556Y018490D01*
X043486Y018399D01*
X043443Y018294D01*
X043428Y018181D01*
X043443Y018068D01*
X043486Y017963D01*
X043556Y017873D01*
X043646Y017803D01*
X043751Y017760D01*
X043864Y017745D01*
X043977Y017760D01*
X044082Y017803D01*
X044173Y017873D01*
X044242Y017963D01*
X044286Y018068D01*
X044301Y018181D01*
X044286Y018294D01*
X044242Y018399D01*
X044173Y018490D01*
X044082Y018559D01*
X043977Y018603D01*
X043864Y018618D01*
D02*
G37*
G36*
X041617Y018690D02*
X040631D01*
Y017704D01*
X040743Y017713D01*
X040902Y017751D01*
X041053Y017813D01*
X041192Y017899D01*
X041316Y018005D01*
X041422Y018129D01*
X041508Y018268D01*
X041570Y018419D01*
X041608Y018577D01*
X041617Y018690D01*
D02*
G37*
G36*
X050369D02*
X049383D01*
X049392Y018577D01*
X049430Y018419D01*
X049492Y018268D01*
X049578Y018129D01*
X049684Y018005D01*
X049808Y017899D01*
X049947Y017813D01*
X050098Y017751D01*
X050257Y017713D01*
X050369Y017704D01*
Y018690D01*
D02*
G37*
G36*
X051456D02*
X050469D01*
Y017704D01*
X050582Y017713D01*
X050741Y017751D01*
X050892Y017813D01*
X051031Y017899D01*
X051155Y018005D01*
X051261Y018129D01*
X051346Y018268D01*
X051409Y018419D01*
X051447Y018577D01*
X051456Y018690D01*
D02*
G37*
G36*
X055500Y017569D02*
X055392Y017554D01*
X055291Y017512D01*
X055204Y017446D01*
X055138Y017359D01*
X055096Y017258D01*
X055081Y017150D01*
X055096Y017042D01*
X055138Y016941D01*
X055204Y016854D01*
X055291Y016788D01*
X055392Y016746D01*
X055500Y016731D01*
X055608Y016746D01*
X055709Y016788D01*
X055796Y016854D01*
X055862Y016941D01*
X055904Y017042D01*
X055919Y017150D01*
X055904Y017258D01*
X055862Y017359D01*
X055796Y017446D01*
X055709Y017512D01*
X055608Y017554D01*
X055500Y017569D01*
D02*
G37*
G36*
X014450Y017600D02*
X013613D01*
X013625Y017476D01*
X013676Y017309D01*
X013759Y017155D01*
X013869Y017019D01*
X014005Y016909D01*
X014159Y016826D01*
X014326Y016775D01*
X014450Y016763D01*
Y017600D01*
D02*
G37*
G36*
X015387D02*
X014550D01*
Y016763D01*
X014674Y016775D01*
X014841Y016826D01*
X014995Y016909D01*
X015131Y017019D01*
X015241Y017155D01*
X015324Y017309D01*
X015375Y017476D01*
X015387Y017600D01*
D02*
G37*
G36*
X053500Y017569D02*
X053392Y017554D01*
X053291Y017512D01*
X053204Y017446D01*
X053138Y017359D01*
X053096Y017258D01*
X053081Y017150D01*
X053096Y017042D01*
X053138Y016941D01*
X053204Y016854D01*
X053291Y016788D01*
X053392Y016746D01*
X053500Y016731D01*
X053608Y016746D01*
X053709Y016788D01*
X053796Y016854D01*
X053862Y016941D01*
X053904Y017042D01*
X053919Y017150D01*
X053904Y017258D01*
X053862Y017359D01*
X053796Y017446D01*
X053709Y017512D01*
X053608Y017554D01*
X053500Y017569D01*
D02*
G37*
G36*
X024500D02*
X024392Y017554D01*
X024291Y017512D01*
X024204Y017446D01*
X024138Y017359D01*
X024096Y017258D01*
X024081Y017150D01*
X024096Y017042D01*
X024138Y016941D01*
X024204Y016854D01*
X024291Y016788D01*
X024392Y016746D01*
X024500Y016731D01*
X024608Y016746D01*
X024709Y016788D01*
X024796Y016854D01*
X024862Y016941D01*
X024904Y017042D01*
X024919Y017150D01*
X024904Y017258D01*
X024862Y017359D01*
X024796Y017446D01*
X024709Y017512D01*
X024608Y017554D01*
X024500Y017569D01*
D02*
G37*
G36*
X032500D02*
X032392Y017554D01*
X032291Y017512D01*
X032204Y017446D01*
X032138Y017359D01*
X032096Y017258D01*
X032081Y017150D01*
X032096Y017042D01*
X032138Y016941D01*
X032204Y016854D01*
X032291Y016788D01*
X032392Y016746D01*
X032500Y016731D01*
X032608Y016746D01*
X032709Y016788D01*
X032796Y016854D01*
X032862Y016941D01*
X032904Y017042D01*
X032919Y017150D01*
X032904Y017258D01*
X032862Y017359D01*
X032796Y017446D01*
X032709Y017512D01*
X032608Y017554D01*
X032500Y017569D01*
D02*
G37*
G36*
X034500D02*
X034392Y017554D01*
X034291Y017512D01*
X034204Y017446D01*
X034138Y017359D01*
X034096Y017258D01*
X034081Y017150D01*
X034096Y017042D01*
X034138Y016941D01*
X034204Y016854D01*
X034291Y016788D01*
X034392Y016746D01*
X034500Y016731D01*
X034608Y016746D01*
X034709Y016788D01*
X034796Y016854D01*
X034862Y016941D01*
X034904Y017042D01*
X034919Y017150D01*
X034904Y017258D01*
X034862Y017359D01*
X034796Y017446D01*
X034709Y017512D01*
X034608Y017554D01*
X034500Y017569D01*
D02*
G37*
G36*
X063700Y017600D02*
X062863D01*
X062875Y017476D01*
X062926Y017309D01*
X063009Y017155D01*
X063119Y017019D01*
X063255Y016909D01*
X063409Y016826D01*
X063576Y016775D01*
X063700Y016763D01*
Y017600D01*
D02*
G37*
G36*
X060425Y017975D02*
X059626D01*
X059637Y017858D01*
X059686Y017698D01*
X059765Y017550D01*
X059871Y017421D01*
X060000Y017315D01*
X060148Y017236D01*
X060308Y017187D01*
X060425Y017176D01*
Y017975D01*
D02*
G37*
G36*
X061324D02*
X060525D01*
Y017176D01*
X060642Y017187D01*
X060802Y017236D01*
X060950Y017315D01*
X061079Y017421D01*
X061185Y017550D01*
X061264Y017698D01*
X061313Y017858D01*
X061324Y017975D01*
D02*
G37*
G36*
X016600Y018153D02*
X016496Y018140D01*
X016398Y018099D01*
X016315Y018035D01*
X016251Y017952D01*
X016210Y017854D01*
X016197Y017750D01*
X016210Y017646D01*
X016251Y017548D01*
X016315Y017465D01*
X016398Y017401D01*
X016496Y017360D01*
X016600Y017347D01*
X016704Y017360D01*
X016802Y017401D01*
X016885Y017465D01*
X016949Y017548D01*
X016990Y017646D01*
X017003Y017750D01*
X016990Y017854D01*
X016949Y017952D01*
X016885Y018035D01*
X016802Y018099D01*
X016704Y018140D01*
X016600Y018153D01*
D02*
G37*
G36*
X036672Y017300D02*
X036325D01*
Y016953D01*
X036379Y016960D01*
X036477Y017001D01*
X036560Y017065D01*
X036624Y017148D01*
X036665Y017246D01*
X036672Y017300D01*
D02*
G37*
G36*
X064637Y017600D02*
X063800D01*
Y016763D01*
X063924Y016775D01*
X064091Y016826D01*
X064245Y016909D01*
X064381Y017019D01*
X064491Y017155D01*
X064574Y017309D01*
X064625Y017476D01*
X064637Y017600D01*
D02*
G37*
G36*
X036481Y021355D02*
X036384Y021335D01*
X036301Y021280D01*
X036246Y021198D01*
X036226Y021100D01*
X036246Y021002D01*
X036301Y020920D01*
X036384Y020865D01*
X036481Y020845D01*
X036483Y020846D01*
X037072Y020257D01*
X037072Y018175D01*
X037072Y018175D01*
X037072D01*
X037085Y018107D01*
X037124Y018049D01*
X037695Y017478D01*
X037685Y017454D01*
X037672Y017350D01*
X037685Y017246D01*
X037726Y017148D01*
X037790Y017065D01*
X037873Y017001D01*
X037971Y016960D01*
X038075Y016947D01*
X038179Y016960D01*
X038277Y017001D01*
X038360Y017065D01*
X038424Y017148D01*
X038465Y017246D01*
X038478Y017350D01*
X038465Y017454D01*
X038424Y017552D01*
X038360Y017635D01*
X038277Y017699D01*
X038179Y017740D01*
X038075Y017753D01*
X037971Y017740D01*
X037947Y017730D01*
X037428Y018249D01*
X037428Y020331D01*
X037415Y020400D01*
X037376Y020457D01*
X037376Y020457D01*
X036736Y021098D01*
X036736Y021100D01*
X036717Y021198D01*
X036662Y021280D01*
X036579Y021335D01*
X036481Y021355D01*
D02*
G37*
G36*
X036225Y017300D02*
X035878D01*
X035885Y017246D01*
X035926Y017148D01*
X035990Y017065D01*
X036073Y017001D01*
X036171Y016960D01*
X036225Y016953D01*
Y017300D01*
D02*
G37*
G36*
X035775Y018804D02*
X035658Y018788D01*
X035548Y018743D01*
X035454Y018671D01*
X035382Y018577D01*
X035337Y018467D01*
X035321Y018350D01*
X035337Y018233D01*
X035382Y018123D01*
X035454Y018029D01*
X035548Y017957D01*
X035658Y017912D01*
X035775Y017896D01*
X035892Y017912D01*
X036002Y017957D01*
X036096Y018029D01*
X036168Y018123D01*
X036213Y018233D01*
X036229Y018350D01*
X036213Y018467D01*
X036168Y018577D01*
X036096Y018671D01*
X036002Y018743D01*
X035892Y018788D01*
X035775Y018804D01*
D02*
G37*
G36*
X044409Y019736D02*
X044296Y019721D01*
X044191Y019677D01*
X044101Y019608D01*
X044032Y019517D01*
X043988Y019412D01*
X043973Y019299D01*
X043988Y019186D01*
X044032Y019081D01*
X044101Y018991D01*
X044191Y018921D01*
X044296Y018878D01*
X044409Y018863D01*
X044522Y018878D01*
X044628Y018921D01*
X044718Y018991D01*
X044787Y019081D01*
X044831Y019186D01*
X044846Y019299D01*
X044831Y019412D01*
X044787Y019517D01*
X044718Y019608D01*
X044628Y019677D01*
X044522Y019721D01*
X044409Y019736D01*
D02*
G37*
G36*
X045500D02*
X045387Y019721D01*
X045282Y019677D01*
X045191Y019608D01*
X045122Y019517D01*
X045078Y019412D01*
X045064Y019299D01*
X045078Y019186D01*
X045122Y019081D01*
X045191Y018991D01*
X045282Y018921D01*
X045387Y018878D01*
X045500Y018863D01*
X045613Y018878D01*
X045718Y018921D01*
X045809Y018991D01*
X045878Y019081D01*
X045922Y019186D01*
X045936Y019299D01*
X045922Y019412D01*
X045878Y019517D01*
X045809Y019608D01*
X045718Y019677D01*
X045613Y019721D01*
X045500Y019736D01*
D02*
G37*
G36*
X046591D02*
X046478Y019721D01*
X046372Y019677D01*
X046282Y019608D01*
X046213Y019517D01*
X046169Y019412D01*
X046154Y019299D01*
X046169Y019186D01*
X046213Y019081D01*
X046282Y018991D01*
X046372Y018921D01*
X046478Y018878D01*
X046591Y018863D01*
X046704Y018878D01*
X046809Y018921D01*
X046899Y018991D01*
X046968Y019081D01*
X047012Y019186D01*
X047027Y019299D01*
X047012Y019412D01*
X046968Y019517D01*
X046899Y019608D01*
X046809Y019677D01*
X046704Y019721D01*
X046591Y019736D01*
D02*
G37*
G36*
X050469Y019776D02*
Y018790D01*
X051456D01*
X051447Y018903D01*
X051409Y019062D01*
X051346Y019212D01*
X051261Y019352D01*
X051155Y019476D01*
X051031Y019582D01*
X050892Y019667D01*
X050741Y019729D01*
X050582Y019768D01*
X050469Y019776D01*
D02*
G37*
G36*
X040531D02*
X040418Y019768D01*
X040259Y019729D01*
X040108Y019667D01*
X039969Y019582D01*
X039845Y019476D01*
X039739Y019352D01*
X039654Y019212D01*
X039591Y019062D01*
X039553Y018903D01*
X039544Y018790D01*
X040531D01*
Y019776D01*
D02*
G37*
G36*
X040631D02*
Y018790D01*
X041617D01*
X041608Y018903D01*
X041570Y019062D01*
X041508Y019212D01*
X041422Y019352D01*
X041316Y019476D01*
X041192Y019582D01*
X041053Y019667D01*
X040902Y019729D01*
X040743Y019768D01*
X040631Y019776D01*
D02*
G37*
G36*
X050369D02*
X050257Y019768D01*
X050098Y019729D01*
X049947Y019667D01*
X049808Y019582D01*
X049684Y019476D01*
X049578Y019352D01*
X049492Y019212D01*
X049430Y019062D01*
X049392Y018903D01*
X049383Y018790D01*
X050369D01*
Y019776D01*
D02*
G37*
G36*
X048114Y019732D02*
X047248D01*
Y018867D01*
X048114D01*
Y019732D01*
D02*
G37*
G36*
X030450Y019874D02*
X030343Y019863D01*
X030192Y019818D01*
X030053Y019743D01*
X029932Y019643D01*
X029832Y019522D01*
X029757Y019383D01*
X029712Y019232D01*
X029701Y019125D01*
X030450D01*
Y019874D01*
D02*
G37*
G36*
X030550D02*
Y019125D01*
X031299D01*
X031288Y019232D01*
X031243Y019383D01*
X031168Y019522D01*
X031068Y019643D01*
X030947Y019743D01*
X030808Y019818D01*
X030657Y019863D01*
X030550Y019874D01*
D02*
G37*
G36*
X062175Y020074D02*
X062058Y020063D01*
X061898Y020014D01*
X061750Y019935D01*
X061621Y019829D01*
X061515Y019700D01*
X061436Y019552D01*
X061387Y019392D01*
X061376Y019275D01*
X062175D01*
Y020074D01*
D02*
G37*
G36*
X025550Y019874D02*
Y019125D01*
X026299D01*
X026288Y019232D01*
X026243Y019383D01*
X026168Y019522D01*
X026068Y019643D01*
X025947Y019743D01*
X025808Y019818D01*
X025657Y019863D01*
X025550Y019874D01*
D02*
G37*
G36*
X043269Y019249D02*
X042889D01*
X042897Y019186D01*
X042941Y019081D01*
X043010Y018991D01*
X043101Y018921D01*
X043206Y018878D01*
X043269Y018869D01*
Y019249D01*
D02*
G37*
G36*
X043749D02*
X043369D01*
Y018869D01*
X043432Y018878D01*
X043537Y018921D01*
X043627Y018991D01*
X043697Y019081D01*
X043740Y019186D01*
X043749Y019249D01*
D02*
G37*
G36*
X025450Y019874D02*
X025343Y019863D01*
X025192Y019818D01*
X025053Y019743D01*
X024932Y019643D01*
X024832Y019522D01*
X024757Y019383D01*
X024712Y019232D01*
X024701Y019125D01*
X025450D01*
Y019874D01*
D02*
G37*
G36*
X057027Y018476D02*
X056473D01*
Y018268D01*
X056473Y018268D01*
X056473Y018232D01*
X056473D01*
Y017717D01*
X056572D01*
Y017525D01*
X056541Y017512D01*
X056454Y017446D01*
X056388Y017359D01*
X056346Y017258D01*
X056331Y017150D01*
X056346Y017042D01*
X056388Y016941D01*
X056454Y016854D01*
X056541Y016788D01*
X056642Y016746D01*
X056750Y016731D01*
X056858Y016746D01*
X056959Y016788D01*
X057046Y016854D01*
X057112Y016941D01*
X057154Y017042D01*
X057169Y017150D01*
X057154Y017258D01*
X057112Y017359D01*
X057046Y017446D01*
X056959Y017512D01*
X056928Y017525D01*
Y017717D01*
X057027D01*
Y018232D01*
D01*
Y018232D01*
X057027Y018232D01*
Y018268D01*
X057027D01*
Y018476D01*
D02*
G37*
G36*
X025450Y019025D02*
X024701D01*
X024712Y018918D01*
X024757Y018767D01*
X024832Y018628D01*
X024932Y018507D01*
X025053Y018407D01*
X025192Y018332D01*
X025343Y018287D01*
X025450Y018276D01*
Y019025D01*
D02*
G37*
G36*
X026299D02*
X025550D01*
Y018276D01*
X025657Y018287D01*
X025808Y018332D01*
X025947Y018407D01*
X026068Y018507D01*
X026168Y018628D01*
X026243Y018767D01*
X026288Y018918D01*
X026299Y019025D01*
D02*
G37*
G36*
X023777Y018783D02*
X023223D01*
Y018268D01*
X023223Y018268D01*
X023223Y018232D01*
X023223D01*
Y017717D01*
X023322D01*
Y017525D01*
X023291Y017512D01*
X023204Y017446D01*
X023138Y017359D01*
X023096Y017258D01*
X023081Y017150D01*
X023096Y017042D01*
X023138Y016941D01*
X023204Y016854D01*
X023291Y016788D01*
X023392Y016746D01*
X023500Y016731D01*
X023608Y016746D01*
X023709Y016788D01*
X023796Y016854D01*
X023862Y016941D01*
X023904Y017042D01*
X023919Y017150D01*
X023904Y017258D01*
X023862Y017359D01*
X023796Y017446D01*
X023709Y017512D01*
X023678Y017525D01*
Y017717D01*
X023777D01*
Y018232D01*
D01*
Y018232D01*
X023777Y018232D01*
Y018268D01*
X023777D01*
Y018373D01*
X024184D01*
X024220Y018320D01*
X024302Y018264D01*
X024400Y018245D01*
X024498Y018264D01*
X024580Y018320D01*
X024636Y018402D01*
X024655Y018500D01*
X024636Y018598D01*
X024580Y018680D01*
X024498Y018736D01*
X024400Y018755D01*
X024302Y018736D01*
X024220Y018680D01*
X024219Y018679D01*
X023777D01*
Y018783D01*
D02*
G37*
G36*
X038525Y018804D02*
X038408Y018788D01*
X038298Y018743D01*
X038204Y018671D01*
X038132Y018577D01*
X038087Y018467D01*
X038071Y018350D01*
X038087Y018233D01*
X038132Y018123D01*
X038204Y018029D01*
X038298Y017957D01*
X038408Y017912D01*
X038525Y017896D01*
X038642Y017912D01*
X038752Y017957D01*
X038846Y018029D01*
X038918Y018123D01*
X038963Y018233D01*
X038979Y018350D01*
X038963Y018467D01*
X038918Y018577D01*
X038846Y018671D01*
X038752Y018743D01*
X038642Y018788D01*
X038525Y018804D01*
D02*
G37*
G36*
X060425Y018874D02*
X060308Y018863D01*
X060148Y018814D01*
X060000Y018735D01*
X059871Y018629D01*
X059765Y018500D01*
X059686Y018352D01*
X059637Y018192D01*
X059626Y018075D01*
X060425D01*
Y018874D01*
D02*
G37*
G36*
X060525D02*
Y018075D01*
X061324D01*
X061313Y018192D01*
X061264Y018352D01*
X061185Y018500D01*
X061079Y018629D01*
X060950Y018735D01*
X060802Y018814D01*
X060642Y018863D01*
X060525Y018874D01*
D02*
G37*
G36*
X030450Y019025D02*
X029701D01*
X029712Y018918D01*
X029757Y018767D01*
X029832Y018628D01*
X029932Y018507D01*
X030053Y018407D01*
X030192Y018332D01*
X030343Y018287D01*
X030450Y018276D01*
Y019025D01*
D02*
G37*
G36*
X057027Y018783D02*
X056800D01*
Y018576D01*
X057027D01*
Y018783D01*
D02*
G37*
G36*
X017000Y020104D02*
X016853Y020089D01*
X016712Y020046D01*
X016581Y019977D01*
X016467Y019883D01*
X016373Y019769D01*
X016304Y019638D01*
X016261Y019497D01*
X016246Y019350D01*
X016261Y019203D01*
X016304Y019062D01*
X016373Y018931D01*
X016467Y018817D01*
X016581Y018723D01*
X016712Y018654D01*
X016853Y018611D01*
X017000Y018596D01*
X017147Y018611D01*
X017288Y018654D01*
X017419Y018723D01*
X017533Y018817D01*
X017627Y018931D01*
X017696Y019062D01*
X017739Y019203D01*
X017754Y019350D01*
X017739Y019497D01*
X017696Y019638D01*
X017627Y019769D01*
X017533Y019883D01*
X017419Y019977D01*
X017288Y020046D01*
X017147Y020089D01*
X017000Y020104D01*
D02*
G37*
G36*
X021500D02*
X021353Y020089D01*
X021212Y020046D01*
X021081Y019977D01*
X020967Y019883D01*
X020873Y019769D01*
X020804Y019638D01*
X020761Y019497D01*
X020746Y019350D01*
X020761Y019203D01*
X020804Y019062D01*
X020873Y018931D01*
X020967Y018817D01*
X021081Y018723D01*
X021212Y018654D01*
X021353Y018611D01*
X021500Y018596D01*
X021647Y018611D01*
X021788Y018654D01*
X021919Y018723D01*
X022033Y018817D01*
X022127Y018931D01*
X022196Y019062D01*
X022239Y019203D01*
X022254Y019350D01*
X022239Y019497D01*
X022196Y019638D01*
X022127Y019769D01*
X022033Y019883D01*
X021919Y019977D01*
X021788Y020046D01*
X021647Y020089D01*
X021500Y020104D01*
D02*
G37*
G36*
X056700Y018783D02*
X056473D01*
Y018576D01*
X056700D01*
Y018783D01*
D02*
G37*
G36*
X031299Y019025D02*
X030550D01*
Y018276D01*
X030657Y018287D01*
X030808Y018332D01*
X030947Y018407D01*
X031068Y018507D01*
X031168Y018628D01*
X031243Y018767D01*
X031288Y018918D01*
X031299Y019025D01*
D02*
G37*
G36*
X062175Y019175D02*
X061376D01*
X061387Y019058D01*
X061436Y018898D01*
X061515Y018750D01*
X061621Y018621D01*
X061750Y018515D01*
X061898Y018436D01*
X062058Y018387D01*
X062175Y018376D01*
Y019175D01*
D02*
G37*
G36*
X063074D02*
X062275D01*
Y018376D01*
X062392Y018387D01*
X062552Y018436D01*
X062700Y018515D01*
X062829Y018621D01*
X062935Y018750D01*
X063014Y018898D01*
X063063Y019058D01*
X063074Y019175D01*
D02*
G37*
G36*
X021227Y026056D02*
X021000D01*
Y025849D01*
X021227D01*
Y026056D01*
D02*
G37*
G36*
X048540Y042399D02*
X048437Y042385D01*
X048341Y042345D01*
X048258Y042282D01*
X048195Y042199D01*
X048155Y042103D01*
X048141Y042000D01*
X048155Y041897D01*
X048195Y041801D01*
X048258Y041718D01*
X048341Y041655D01*
X048346Y041652D01*
Y040441D01*
X048174D01*
Y039768D01*
X048174Y039768D01*
X048174Y039732D01*
X048174D01*
Y039059D01*
X048372D01*
Y037574D01*
X047799Y037002D01*
X047752Y037016D01*
X047736Y037098D01*
X047680Y037180D01*
X047598Y037236D01*
X047516Y037252D01*
X047502Y037299D01*
X047676Y037474D01*
X047676Y037474D01*
X047715Y037532D01*
X047728Y037600D01*
Y039059D01*
X047926D01*
Y039732D01*
D01*
Y039732D01*
X047926Y039732D01*
Y039768D01*
X047926D01*
Y040441D01*
X047754D01*
Y041666D01*
X047822Y041718D01*
X047885Y041801D01*
X047925Y041897D01*
X047939Y042000D01*
X047925Y042103D01*
X047885Y042199D01*
X047822Y042282D01*
X047739Y042345D01*
X047643Y042385D01*
X047540Y042399D01*
X047437Y042385D01*
X047341Y042345D01*
X047258Y042282D01*
X047195Y042199D01*
X047155Y042103D01*
X047141Y042000D01*
X047155Y041897D01*
X047195Y041801D01*
X047258Y041718D01*
X047341Y041655D01*
X047346Y041652D01*
Y040441D01*
X047174D01*
Y039768D01*
X047174Y039768D01*
X047174Y039732D01*
X047174D01*
Y039059D01*
X047372D01*
Y038557D01*
X047331Y038529D01*
X047325Y038527D01*
X046839Y039013D01*
X046858Y039059D01*
X046926D01*
Y039732D01*
D01*
Y039732D01*
X046926Y039732D01*
Y039768D01*
X046926D01*
Y040441D01*
X046754D01*
Y041666D01*
X046822Y041718D01*
X046885Y041801D01*
X046925Y041897D01*
X046939Y042000D01*
X046925Y042103D01*
X046885Y042199D01*
X046822Y042282D01*
X046739Y042345D01*
X046643Y042385D01*
X046540Y042399D01*
X046437Y042385D01*
X046341Y042345D01*
X046258Y042282D01*
X046195Y042199D01*
X046155Y042103D01*
X046141Y042000D01*
X046155Y041897D01*
X046195Y041801D01*
X046258Y041718D01*
X046341Y041655D01*
X046346Y041652D01*
Y040441D01*
X046174D01*
Y039768D01*
X046174Y039768D01*
X046174Y039732D01*
X046174D01*
Y039059D01*
X046372D01*
Y039050D01*
X046385Y038982D01*
X046424Y038924D01*
X047022Y038326D01*
Y038190D01*
X046972Y038185D01*
X046961Y038241D01*
X046919Y038303D01*
X046857Y038345D01*
X046783Y038360D01*
X046133D01*
X046064Y038346D01*
X046007D01*
X045728Y038624D01*
Y039059D01*
X045926D01*
Y039732D01*
D01*
Y039732D01*
X045926Y039732D01*
Y039768D01*
X045926D01*
Y040441D01*
X045754D01*
Y041666D01*
X045822Y041718D01*
X045885Y041801D01*
X045925Y041897D01*
X045939Y042000D01*
X045925Y042103D01*
X045885Y042199D01*
X045822Y042282D01*
X045739Y042345D01*
X045643Y042385D01*
X045540Y042399D01*
X045437Y042385D01*
X045341Y042345D01*
X045258Y042282D01*
X045195Y042199D01*
X045155Y042103D01*
X045141Y042000D01*
X045155Y041897D01*
X045195Y041801D01*
X045258Y041718D01*
X045341Y041655D01*
X045346Y041652D01*
Y040441D01*
X045174D01*
Y039768D01*
X045174Y039768D01*
X045174Y039732D01*
X045174D01*
Y039059D01*
X045372D01*
Y038550D01*
X045385Y038482D01*
X045424Y038424D01*
X045506Y038341D01*
X045492Y038293D01*
X045452Y038286D01*
X045370Y038230D01*
X045314Y038148D01*
X045295Y038050D01*
X045314Y037952D01*
X045370Y037870D01*
X045452Y037815D01*
X045550Y037795D01*
X045552Y037796D01*
X045562Y037785D01*
X045620Y037747D01*
X045689Y037733D01*
X045689Y037733D01*
X045917D01*
X045949Y037694D01*
X045941Y037656D01*
X045949Y037617D01*
X045917Y037578D01*
X045832D01*
X045830Y037580D01*
X045748Y037636D01*
X045650Y037655D01*
X045552Y037636D01*
X045470Y037580D01*
X045415Y037498D01*
X045395Y037400D01*
X045415Y037302D01*
X045470Y037220D01*
X045552Y037164D01*
X045650Y037145D01*
X045748Y037164D01*
X045830Y037220D01*
X045831Y037221D01*
X045917D01*
X045949Y037183D01*
X045941Y037146D01*
X045956Y037072D01*
X045992Y037018D01*
X045956Y036963D01*
X045941Y036890D01*
X045956Y036816D01*
X045992Y036762D01*
X045956Y036707D01*
X045941Y036634D01*
X045949Y036595D01*
X045931Y036573D01*
X045881Y036571D01*
X045854Y036598D01*
X045855Y036600D01*
X045835Y036698D01*
X045780Y036780D01*
X045698Y036835D01*
X045600Y036855D01*
X045502Y036835D01*
X045420Y036780D01*
X045364Y036698D01*
X045345Y036600D01*
X045364Y036502D01*
X045420Y036420D01*
X045502Y036365D01*
X045600Y036345D01*
X045602Y036346D01*
X045696Y036252D01*
X045696Y036252D01*
X045754Y036213D01*
X045822Y036200D01*
X045917D01*
X045940Y036172D01*
X046965D01*
X046961Y036196D01*
X046924Y036250D01*
X046961Y036304D01*
X046975Y036378D01*
X046968Y036417D01*
X046999Y036455D01*
X047684D01*
X047752Y036469D01*
X047810Y036508D01*
X048676Y037374D01*
X048715Y037432D01*
X048728Y037500D01*
X048728Y037500D01*
X048728Y037500D01*
Y037500D01*
Y039059D01*
X048926D01*
Y039732D01*
D01*
Y039732D01*
X048926Y039732D01*
Y039768D01*
X048926D01*
Y040441D01*
X048754D01*
Y041666D01*
X048822Y041718D01*
X048885Y041801D01*
X048925Y041897D01*
X048939Y042000D01*
X048925Y042103D01*
X048885Y042199D01*
X048822Y042282D01*
X048739Y042345D01*
X048643Y042385D01*
X048540Y042399D01*
D02*
G37*
G36*
X060290D02*
X060187Y042385D01*
X060091Y042345D01*
X060008Y042282D01*
X059945Y042199D01*
X059905Y042103D01*
X059891Y042000D01*
X059905Y041897D01*
X059945Y041801D01*
X060008Y041718D01*
X060091Y041655D01*
X060096Y041652D01*
Y040441D01*
X059924D01*
Y039768D01*
X059924Y039768D01*
X059924Y039732D01*
X059924D01*
Y039059D01*
X060122D01*
Y037574D01*
X059549Y037002D01*
X059502Y037016D01*
X059486Y037098D01*
X059430Y037180D01*
X059348Y037236D01*
X059266Y037252D01*
X059252Y037299D01*
X059426Y037474D01*
X059426Y037474D01*
X059465Y037532D01*
X059478Y037600D01*
Y039059D01*
X059676D01*
Y039732D01*
D01*
Y039732D01*
X059676Y039732D01*
Y039768D01*
X059676D01*
Y040441D01*
X059504D01*
Y041666D01*
X059572Y041718D01*
X059635Y041801D01*
X059675Y041897D01*
X059689Y042000D01*
X059675Y042103D01*
X059635Y042199D01*
X059572Y042282D01*
X059489Y042345D01*
X059393Y042385D01*
X059290Y042399D01*
X059187Y042385D01*
X059091Y042345D01*
X059008Y042282D01*
X058945Y042199D01*
X058905Y042103D01*
X058891Y042000D01*
X058905Y041897D01*
X058945Y041801D01*
X059008Y041718D01*
X059091Y041655D01*
X059096Y041652D01*
Y040441D01*
X058924D01*
Y039768D01*
X058924Y039768D01*
X058924Y039732D01*
X058924D01*
Y039059D01*
X059122D01*
Y038557D01*
X059081Y038529D01*
X059075Y038527D01*
X058589Y039013D01*
X058608Y039059D01*
X058676D01*
Y039732D01*
D01*
Y039732D01*
X058676Y039732D01*
Y039768D01*
X058676D01*
Y040441D01*
X058504D01*
Y041666D01*
X058572Y041718D01*
X058635Y041801D01*
X058675Y041897D01*
X058689Y042000D01*
X058675Y042103D01*
X058635Y042199D01*
X058572Y042282D01*
X058489Y042345D01*
X058393Y042385D01*
X058290Y042399D01*
X058187Y042385D01*
X058091Y042345D01*
X058008Y042282D01*
X057945Y042199D01*
X057905Y042103D01*
X057891Y042000D01*
X057905Y041897D01*
X057945Y041801D01*
X058008Y041718D01*
X058091Y041655D01*
X058096Y041652D01*
Y040441D01*
X057924D01*
Y039768D01*
X057924Y039768D01*
X057924Y039732D01*
X057924D01*
Y039059D01*
X058112D01*
X058122Y039050D01*
X058122Y039050D01*
D01*
X058135Y038982D01*
X058174Y038924D01*
X058772Y038326D01*
Y038190D01*
X058722Y038185D01*
X058711Y038241D01*
X058669Y038303D01*
X058607Y038345D01*
X058533Y038360D01*
X057883D01*
X057814Y038346D01*
X057757D01*
X057478Y038624D01*
Y039059D01*
X057676D01*
Y039732D01*
D01*
Y039732D01*
X057676Y039732D01*
Y039768D01*
X057676D01*
Y040441D01*
X057504D01*
Y041666D01*
X057572Y041718D01*
X057635Y041801D01*
X057675Y041897D01*
X057689Y042000D01*
X057675Y042103D01*
X057635Y042199D01*
X057572Y042282D01*
X057489Y042345D01*
X057393Y042385D01*
X057290Y042399D01*
X057187Y042385D01*
X057091Y042345D01*
X057008Y042282D01*
X056945Y042199D01*
X056905Y042103D01*
X056891Y042000D01*
X056905Y041897D01*
X056945Y041801D01*
X057008Y041718D01*
X057091Y041655D01*
X057096Y041652D01*
Y040441D01*
X056924D01*
Y039768D01*
X056924Y039768D01*
X056924Y039732D01*
X056924D01*
Y039059D01*
X057122D01*
Y038550D01*
X057135Y038482D01*
X057174Y038424D01*
X057256Y038341D01*
X057242Y038293D01*
X057202Y038286D01*
X057120Y038230D01*
X057064Y038148D01*
X057045Y038050D01*
X057064Y037952D01*
X057120Y037870D01*
X057202Y037815D01*
X057300Y037795D01*
X057302Y037796D01*
X057312Y037785D01*
X057370Y037747D01*
X057439Y037733D01*
X057439Y037733D01*
X057667D01*
X057699Y037694D01*
X057691Y037656D01*
X057699Y037617D01*
X057667Y037578D01*
X057582D01*
X057580Y037580D01*
X057498Y037636D01*
X057400Y037655D01*
X057302Y037636D01*
X057220Y037580D01*
X057165Y037498D01*
X057145Y037400D01*
X057165Y037302D01*
X057220Y037220D01*
X057302Y037164D01*
X057400Y037145D01*
X057498Y037164D01*
X057580Y037220D01*
X057581Y037221D01*
X057667D01*
X057699Y037183D01*
X057691Y037146D01*
X057706Y037072D01*
X057742Y037018D01*
X057706Y036963D01*
X057691Y036890D01*
X057706Y036816D01*
X057742Y036762D01*
X057706Y036707D01*
X057691Y036634D01*
X057699Y036595D01*
X057681Y036573D01*
X057631Y036571D01*
X057604Y036598D01*
X057605Y036600D01*
X057586Y036698D01*
X057530Y036780D01*
X057448Y036835D01*
X057350Y036855D01*
X057252Y036835D01*
X057170Y036780D01*
X057115Y036698D01*
X057095Y036600D01*
X057115Y036502D01*
X057170Y036420D01*
X057252Y036365D01*
X057302Y036355D01*
X057298Y036305D01*
X056930D01*
X056930Y036305D01*
X056862Y036291D01*
X056804Y036253D01*
X056600Y036049D01*
X056034D01*
X056002Y036088D01*
X056009Y036122D01*
X055994Y036196D01*
X055958Y036250D01*
X055994Y036304D01*
X056009Y036378D01*
X055994Y036452D01*
X055958Y036506D01*
X055994Y036560D01*
X056009Y036634D01*
X055994Y036707D01*
X055958Y036762D01*
X055994Y036816D01*
X056009Y036890D01*
X055994Y036963D01*
X055958Y037018D01*
X055994Y037072D01*
X056009Y037146D01*
X056001Y037183D01*
X056033Y037221D01*
X056151D01*
X056164Y037152D01*
X056220Y037070D01*
X056302Y037015D01*
X056400Y036995D01*
X056498Y037015D01*
X056580Y037070D01*
X056635Y037152D01*
X056655Y037250D01*
X056635Y037348D01*
X056580Y037430D01*
X056575Y037434D01*
X056585Y037483D01*
X056624Y037491D01*
X056682Y037529D01*
X056876Y037724D01*
X056876Y037724D01*
X056915Y037782D01*
X056928Y037850D01*
X056928Y037850D01*
Y038800D01*
X056915Y038868D01*
X056876Y038926D01*
X056676Y039127D01*
Y039732D01*
D01*
Y039732D01*
X056676Y039732D01*
Y039768D01*
X056676D01*
Y040441D01*
X056504D01*
Y041666D01*
X056572Y041718D01*
X056635Y041801D01*
X056675Y041897D01*
X056689Y042000D01*
X056675Y042103D01*
X056635Y042199D01*
X056572Y042282D01*
X056489Y042345D01*
X056393Y042385D01*
X056290Y042399D01*
X056187Y042385D01*
X056091Y042345D01*
X056008Y042282D01*
X055945Y042199D01*
X055905Y042103D01*
X055891Y042000D01*
X055905Y041897D01*
X055945Y041801D01*
X056008Y041718D01*
X056091Y041655D01*
X056096Y041652D01*
Y040441D01*
X055924D01*
Y039768D01*
X055924Y039768D01*
X055924Y039732D01*
X055924D01*
Y039059D01*
X056238D01*
X056572Y038726D01*
Y038306D01*
X056527Y038282D01*
X056448Y038335D01*
X056350Y038355D01*
X056252Y038335D01*
X056170Y038280D01*
X056115Y038198D01*
X056095Y038100D01*
X056044Y038090D01*
X056033D01*
X056010Y038117D01*
X054985D01*
X054989Y038094D01*
X055026Y038039D01*
X054989Y037985D01*
X054975Y037911D01*
X054989Y037838D01*
X055026Y037783D01*
X054989Y037729D01*
X054975Y037656D01*
X054989Y037582D01*
X055026Y037528D01*
X054989Y037473D01*
X054943Y037459D01*
X054878Y037524D01*
Y038526D01*
X055412Y039059D01*
X055676D01*
Y039732D01*
D01*
Y039732D01*
X055676Y039732D01*
Y039768D01*
X055676D01*
Y040441D01*
X055504D01*
Y041666D01*
X055572Y041718D01*
X055635Y041801D01*
X055675Y041897D01*
X055689Y042000D01*
X055675Y042103D01*
X055635Y042199D01*
X055572Y042282D01*
X055489Y042345D01*
X055393Y042385D01*
X055290Y042399D01*
X055187Y042385D01*
X055091Y042345D01*
X055008Y042282D01*
X054945Y042199D01*
X054905Y042103D01*
X054891Y042000D01*
X054905Y041897D01*
X054945Y041801D01*
X055008Y041718D01*
X055091Y041655D01*
X055096Y041652D01*
Y040441D01*
X054924D01*
Y039768D01*
X054924Y039768D01*
X054924Y039732D01*
X054924D01*
Y039077D01*
X054574Y038726D01*
X054535Y038668D01*
X054528Y038633D01*
X054478Y038638D01*
Y039059D01*
X054676D01*
Y039732D01*
D01*
Y039732D01*
X054676Y039732D01*
Y039768D01*
X054676D01*
Y040441D01*
X054504D01*
Y041666D01*
X054572Y041718D01*
X054635Y041801D01*
X054675Y041897D01*
X054689Y042000D01*
X054675Y042103D01*
X054635Y042199D01*
X054572Y042282D01*
X054489Y042345D01*
X054393Y042385D01*
X054290Y042399D01*
X054187Y042385D01*
X054091Y042345D01*
X054008Y042282D01*
X053945Y042199D01*
X053905Y042103D01*
X053891Y042000D01*
X053905Y041897D01*
X053945Y041801D01*
X054008Y041718D01*
X054091Y041655D01*
X054096Y041652D01*
Y040441D01*
X053924D01*
Y039768D01*
X053924Y039768D01*
X053924Y039732D01*
X053924D01*
Y039059D01*
X054122D01*
Y037389D01*
X054077Y037366D01*
X054048Y037385D01*
X053950Y037405D01*
X053852Y037385D01*
X053770Y037330D01*
X053714Y037248D01*
X053695Y037150D01*
X053714Y037052D01*
X053770Y036970D01*
X053772Y036969D01*
Y036650D01*
X053772Y036648D01*
X053728Y036624D01*
X053478Y036874D01*
Y039059D01*
X053676D01*
Y039732D01*
D01*
Y039732D01*
X053676Y039732D01*
Y039768D01*
X053676D01*
Y040441D01*
X053504D01*
Y041605D01*
X053685D01*
Y042395D01*
X052895D01*
Y041605D01*
X053096D01*
Y040441D01*
X052924D01*
Y039768D01*
X052924Y039768D01*
X052924Y039732D01*
X052924D01*
Y039059D01*
X053122D01*
Y036800D01*
X053122Y036800D01*
X053122D01*
X053135Y036732D01*
X053174Y036674D01*
X053852Y035996D01*
X053852Y035996D01*
X053881Y035977D01*
X053910Y035957D01*
X053978Y035944D01*
X053978Y035944D01*
X054951D01*
X054982Y035905D01*
X054975Y035866D01*
X054989Y035793D01*
X055026Y035738D01*
X054989Y035684D01*
X054985Y035660D01*
X056006D01*
X056032Y035692D01*
X056496D01*
Y035538D01*
X056496Y035538D01*
X056496D01*
X056510Y035470D01*
X056548Y035412D01*
X057182Y034778D01*
X057240Y034739D01*
X057308Y034726D01*
X057308Y034726D01*
X057967D01*
X057994Y034690D01*
X058057Y034642D01*
X058130Y034612D01*
X058208Y034602D01*
X058287Y034612D01*
X058360Y034642D01*
X058422Y034690D01*
X058470Y034753D01*
X058501Y034826D01*
X058511Y034904D01*
X058501Y034983D01*
X058470Y035056D01*
X058423Y035117D01*
X058426Y035123D01*
X058456Y035162D01*
X058533D01*
X058607Y035177D01*
X058669Y035218D01*
X058711Y035281D01*
X058725Y035354D01*
X058718Y035393D01*
X058749Y035432D01*
X058828D01*
X058932Y035328D01*
X058932Y035328D01*
X058990Y035289D01*
X059058Y035276D01*
X059277D01*
X059278Y035274D01*
X059361Y035219D01*
X059458Y035199D01*
X059556Y035219D01*
X059639Y035274D01*
X059694Y035357D01*
X059713Y035454D01*
X059694Y035552D01*
X059639Y035635D01*
X059556Y035690D01*
X059462Y035709D01*
X059442Y035755D01*
X059444Y035757D01*
X059463Y035854D01*
X059444Y035952D01*
X059389Y036035D01*
X059306Y036090D01*
X059208Y036109D01*
X059111Y036090D01*
X059049Y036049D01*
X058750D01*
X058718Y036088D01*
X058725Y036122D01*
X058711Y036196D01*
X058674Y036250D01*
X058711Y036304D01*
X058725Y036378D01*
X058718Y036417D01*
X058749Y036455D01*
X059434D01*
X059502Y036469D01*
X059560Y036508D01*
X060426Y037374D01*
X060465Y037432D01*
X060478Y037500D01*
X060478Y037500D01*
X060478Y037500D01*
Y037500D01*
Y039059D01*
X060676D01*
Y039732D01*
D01*
Y039732D01*
X060676Y039732D01*
Y039768D01*
X060676D01*
Y040441D01*
X060504D01*
Y041666D01*
X060572Y041718D01*
X060635Y041801D01*
X060675Y041897D01*
X060689Y042000D01*
X060675Y042103D01*
X060635Y042199D01*
X060572Y042282D01*
X060489Y042345D01*
X060393Y042385D01*
X060290Y042399D01*
D02*
G37*
G36*
X014450Y043200D02*
X013613D01*
X013625Y043076D01*
X013676Y042909D01*
X013759Y042755D01*
X013869Y042619D01*
X014005Y042509D01*
X014159Y042426D01*
X014326Y042375D01*
X014450Y042363D01*
Y043200D01*
D02*
G37*
G36*
X025040Y042399D02*
X024937Y042385D01*
X024841Y042345D01*
X024758Y042282D01*
X024695Y042199D01*
X024655Y042103D01*
X024641Y042000D01*
X024655Y041897D01*
X024695Y041801D01*
X024758Y041718D01*
X024841Y041655D01*
X024846Y041652D01*
Y040441D01*
X024674D01*
Y039768D01*
X024674Y039768D01*
X024674Y039732D01*
X024674D01*
Y039059D01*
X024872D01*
Y037574D01*
X024299Y037002D01*
X024252Y037016D01*
X024235Y037098D01*
X024180Y037180D01*
X024098Y037236D01*
X024016Y037252D01*
X024002Y037299D01*
X024176Y037474D01*
X024176Y037474D01*
X024215Y037532D01*
X024228Y037600D01*
Y039059D01*
X024426D01*
Y039732D01*
D01*
Y039732D01*
X024426Y039732D01*
Y039768D01*
X024426D01*
Y040441D01*
X024254D01*
Y041666D01*
X024322Y041718D01*
X024385Y041801D01*
X024425Y041897D01*
X024439Y042000D01*
X024425Y042103D01*
X024385Y042199D01*
X024322Y042282D01*
X024239Y042345D01*
X024143Y042385D01*
X024040Y042399D01*
X023937Y042385D01*
X023841Y042345D01*
X023758Y042282D01*
X023695Y042199D01*
X023655Y042103D01*
X023641Y042000D01*
X023655Y041897D01*
X023695Y041801D01*
X023758Y041718D01*
X023841Y041655D01*
X023846Y041652D01*
Y040441D01*
X023674D01*
Y039768D01*
X023674Y039768D01*
X023674Y039732D01*
X023674D01*
Y039059D01*
X023872D01*
Y038557D01*
X023831Y038529D01*
X023825Y038527D01*
X023339Y039013D01*
X023358Y039059D01*
X023426D01*
Y039732D01*
D01*
Y039732D01*
X023426Y039732D01*
Y039768D01*
X023426D01*
Y040441D01*
X023254D01*
Y041666D01*
X023322Y041718D01*
X023385Y041801D01*
X023425Y041897D01*
X023439Y042000D01*
X023425Y042103D01*
X023385Y042199D01*
X023322Y042282D01*
X023239Y042345D01*
X023143Y042385D01*
X023040Y042399D01*
X022937Y042385D01*
X022841Y042345D01*
X022758Y042282D01*
X022695Y042199D01*
X022655Y042103D01*
X022641Y042000D01*
X022655Y041897D01*
X022695Y041801D01*
X022758Y041718D01*
X022841Y041655D01*
X022846Y041652D01*
Y040441D01*
X022674D01*
Y039768D01*
X022674Y039768D01*
X022674Y039732D01*
X022674D01*
Y039059D01*
X022862D01*
X022872Y039050D01*
X022872Y039050D01*
D01*
X022885Y038982D01*
X022924Y038924D01*
X023522Y038326D01*
Y038190D01*
X023472Y038185D01*
X023461Y038241D01*
X023419Y038303D01*
X023357Y038345D01*
X023283Y038360D01*
X022633D01*
X022564Y038346D01*
X022507D01*
X022228Y038624D01*
Y039059D01*
X022426D01*
Y039732D01*
D01*
Y039732D01*
X022426Y039732D01*
Y039768D01*
X022426D01*
Y040441D01*
X022254D01*
Y041666D01*
X022322Y041718D01*
X022385Y041801D01*
X022425Y041897D01*
X022439Y042000D01*
X022425Y042103D01*
X022385Y042199D01*
X022322Y042282D01*
X022239Y042345D01*
X022143Y042385D01*
X022040Y042399D01*
X021937Y042385D01*
X021841Y042345D01*
X021758Y042282D01*
X021695Y042199D01*
X021655Y042103D01*
X021641Y042000D01*
X021655Y041897D01*
X021695Y041801D01*
X021758Y041718D01*
X021841Y041655D01*
X021846Y041652D01*
Y040441D01*
X021674D01*
Y039768D01*
X021674Y039768D01*
X021674Y039732D01*
X021674D01*
Y039059D01*
X021872D01*
Y038550D01*
X021885Y038482D01*
X021924Y038424D01*
X022006Y038341D01*
X021992Y038293D01*
X021952Y038286D01*
X021870Y038230D01*
X021814Y038148D01*
X021795Y038050D01*
X021814Y037952D01*
X021870Y037870D01*
X021952Y037815D01*
X022050Y037795D01*
X022052Y037796D01*
X022062Y037785D01*
X022120Y037747D01*
X022189Y037733D01*
X022189Y037733D01*
X022417D01*
X022449Y037694D01*
X022441Y037656D01*
X022449Y037617D01*
X022417Y037578D01*
X022332D01*
X022330Y037580D01*
X022248Y037636D01*
X022150Y037655D01*
X022052Y037636D01*
X021970Y037580D01*
X021915Y037498D01*
X021895Y037400D01*
X021915Y037302D01*
X021970Y037220D01*
X022052Y037164D01*
X022150Y037145D01*
X022248Y037164D01*
X022330Y037220D01*
X022331Y037221D01*
X022417D01*
X022449Y037183D01*
X022441Y037146D01*
X022456Y037072D01*
X022492Y037018D01*
X022456Y036963D01*
X022441Y036890D01*
X022456Y036816D01*
X022492Y036762D01*
X022456Y036707D01*
X022441Y036634D01*
X022449Y036595D01*
X022431Y036573D01*
X022381Y036571D01*
X022354Y036598D01*
X022355Y036600D01*
X022336Y036698D01*
X022280Y036780D01*
X022198Y036835D01*
X022100Y036855D01*
X022002Y036835D01*
X021920Y036780D01*
X021865Y036698D01*
X021845Y036600D01*
X021865Y036502D01*
X021920Y036420D01*
X022002Y036365D01*
X022100Y036345D01*
X022102Y036346D01*
X022196Y036252D01*
X022196Y036252D01*
X022254Y036213D01*
X022322Y036200D01*
X022417D01*
X022440Y036172D01*
X023465D01*
X023461Y036196D01*
X023424Y036250D01*
X023461Y036304D01*
X023475Y036378D01*
X023468Y036417D01*
X023499Y036455D01*
X024184D01*
X024252Y036469D01*
X024310Y036508D01*
X025176Y037374D01*
X025215Y037432D01*
X025228Y037500D01*
X025228Y037500D01*
X025228Y037500D01*
Y037500D01*
Y039059D01*
X025426D01*
Y039732D01*
D01*
Y039732D01*
X025426Y039732D01*
Y039768D01*
X025426D01*
Y040441D01*
X025254D01*
Y041666D01*
X025322Y041718D01*
X025385Y041801D01*
X025425Y041897D01*
X025439Y042000D01*
X025425Y042103D01*
X025385Y042199D01*
X025322Y042282D01*
X025239Y042345D01*
X025143Y042385D01*
X025040Y042399D01*
D02*
G37*
G36*
X021040D02*
X020937Y042385D01*
X020841Y042345D01*
X020758Y042282D01*
X020695Y042199D01*
X020655Y042103D01*
X020641Y042000D01*
X020655Y041897D01*
X020695Y041801D01*
X020758Y041718D01*
X020841Y041655D01*
X020846Y041652D01*
Y040441D01*
X020674D01*
Y039768D01*
X020674Y039768D01*
X020674Y039732D01*
X020674D01*
Y039059D01*
X020988D01*
X021322Y038726D01*
Y038306D01*
X021277Y038282D01*
X021198Y038335D01*
X021100Y038355D01*
X021002Y038335D01*
X020920Y038280D01*
X020865Y038198D01*
X020845Y038100D01*
X020794Y038090D01*
X020783D01*
X020760Y038117D01*
X019735D01*
X019739Y038094D01*
X019776Y038039D01*
X019739Y037985D01*
X019725Y037911D01*
X019739Y037838D01*
X019776Y037783D01*
X019739Y037729D01*
X019725Y037656D01*
X019739Y037582D01*
X019776Y037528D01*
X019739Y037473D01*
X019693Y037459D01*
X019628Y037524D01*
Y038526D01*
X020162Y039059D01*
X020426D01*
Y039732D01*
D01*
Y039732D01*
X020426Y039732D01*
Y039768D01*
X020426D01*
Y040441D01*
X020254D01*
Y041666D01*
X020322Y041718D01*
X020385Y041801D01*
X020425Y041897D01*
X020439Y042000D01*
X020425Y042103D01*
X020385Y042199D01*
X020322Y042282D01*
X020239Y042345D01*
X020143Y042385D01*
X020040Y042399D01*
X019937Y042385D01*
X019841Y042345D01*
X019758Y042282D01*
X019695Y042199D01*
X019655Y042103D01*
X019641Y042000D01*
X019655Y041897D01*
X019695Y041801D01*
X019758Y041718D01*
X019841Y041655D01*
X019846Y041652D01*
Y040441D01*
X019674D01*
Y039768D01*
X019674Y039768D01*
X019674Y039732D01*
X019674D01*
Y039077D01*
X019324Y038726D01*
X019285Y038668D01*
X019278Y038633D01*
X019228Y038638D01*
Y039059D01*
X019426D01*
Y039732D01*
D01*
Y039732D01*
X019426Y039732D01*
Y039768D01*
X019426D01*
Y040441D01*
X019254D01*
Y041666D01*
X019322Y041718D01*
X019385Y041801D01*
X019425Y041897D01*
X019439Y042000D01*
X019425Y042103D01*
X019385Y042199D01*
X019322Y042282D01*
X019239Y042345D01*
X019143Y042385D01*
X019040Y042399D01*
X018937Y042385D01*
X018841Y042345D01*
X018758Y042282D01*
X018695Y042199D01*
X018655Y042103D01*
X018641Y042000D01*
X018655Y041897D01*
X018695Y041801D01*
X018758Y041718D01*
X018841Y041655D01*
X018846Y041652D01*
Y040441D01*
X018674D01*
Y039768D01*
X018674Y039768D01*
X018674Y039732D01*
X018674D01*
Y039059D01*
X018872D01*
Y037389D01*
X018827Y037366D01*
X018798Y037385D01*
X018700Y037405D01*
X018602Y037385D01*
X018520Y037330D01*
X018464Y037248D01*
X018445Y037150D01*
X018464Y037052D01*
X018520Y036970D01*
X018522Y036969D01*
Y036650D01*
X018522Y036648D01*
X018478Y036624D01*
X018228Y036874D01*
Y039059D01*
X018426D01*
Y039732D01*
D01*
Y039732D01*
X018426Y039732D01*
Y039768D01*
X018426D01*
Y040441D01*
X018254D01*
Y041605D01*
X018435D01*
Y042395D01*
X017645D01*
Y041605D01*
X017846D01*
Y040441D01*
X017674D01*
Y039768D01*
X017674Y039768D01*
X017674Y039732D01*
X017674D01*
Y039059D01*
X017872D01*
Y036800D01*
X017872Y036800D01*
X017872D01*
X017885Y036732D01*
X017924Y036674D01*
X018602Y035996D01*
X018602Y035996D01*
X018631Y035977D01*
X018660Y035957D01*
X018728Y035944D01*
X018728Y035944D01*
X019701D01*
X019723Y035916D01*
X020749D01*
X020744Y035940D01*
X020708Y035994D01*
X020744Y036048D01*
X020759Y036122D01*
X020744Y036196D01*
X020708Y036250D01*
X020744Y036304D01*
X020759Y036378D01*
X020744Y036452D01*
X020708Y036506D01*
X020744Y036560D01*
X020759Y036634D01*
X020744Y036707D01*
X020708Y036762D01*
X020744Y036816D01*
X020759Y036890D01*
X020744Y036963D01*
X020708Y037018D01*
X020744Y037072D01*
X020759Y037146D01*
X020751Y037183D01*
X020783Y037221D01*
X020901D01*
X020914Y037152D01*
X020970Y037070D01*
X021052Y037015D01*
X021150Y036995D01*
X021248Y037015D01*
X021330Y037070D01*
X021386Y037152D01*
X021405Y037250D01*
X021386Y037348D01*
X021330Y037430D01*
X021325Y037434D01*
X021335Y037483D01*
X021374Y037491D01*
X021432Y037529D01*
X021626Y037724D01*
X021626Y037724D01*
X021665Y037782D01*
X021678Y037850D01*
X021678Y037850D01*
Y038800D01*
X021665Y038868D01*
X021626Y038926D01*
X021426Y039127D01*
Y039732D01*
D01*
Y039732D01*
X021426Y039732D01*
Y039768D01*
X021426D01*
Y040441D01*
X021254D01*
Y041666D01*
X021322Y041718D01*
X021385Y041801D01*
X021425Y041897D01*
X021439Y042000D01*
X021425Y042103D01*
X021385Y042199D01*
X021322Y042282D01*
X021239Y042345D01*
X021143Y042385D01*
X021040Y042399D01*
D02*
G37*
G36*
X032790D02*
X032687Y042385D01*
X032591Y042345D01*
X032508Y042282D01*
X032445Y042199D01*
X032405Y042103D01*
X032391Y042000D01*
X032405Y041897D01*
X032445Y041801D01*
X032508Y041718D01*
X032591Y041655D01*
X032596Y041652D01*
Y040441D01*
X032424D01*
Y039768D01*
X032424Y039768D01*
X032424Y039732D01*
X032424D01*
Y039059D01*
X032738D01*
X033072Y038726D01*
Y038306D01*
X033027Y038282D01*
X032948Y038335D01*
X032850Y038355D01*
X032752Y038335D01*
X032670Y038280D01*
X032615Y038198D01*
X032595Y038100D01*
X032544Y038090D01*
X032533D01*
X032510Y038117D01*
X031485D01*
X031489Y038094D01*
X031526Y038039D01*
X031489Y037985D01*
X031475Y037911D01*
X031489Y037838D01*
X031526Y037783D01*
X031489Y037729D01*
X031475Y037656D01*
X031489Y037582D01*
X031526Y037528D01*
X031489Y037473D01*
X031443Y037459D01*
X031378Y037524D01*
Y038526D01*
X031912Y039059D01*
X032176D01*
Y039732D01*
D01*
Y039732D01*
X032176Y039732D01*
Y039768D01*
X032176D01*
Y040441D01*
X032004D01*
Y041666D01*
X032072Y041718D01*
X032135Y041801D01*
X032175Y041897D01*
X032189Y042000D01*
X032175Y042103D01*
X032135Y042199D01*
X032072Y042282D01*
X031989Y042345D01*
X031893Y042385D01*
X031790Y042399D01*
X031687Y042385D01*
X031591Y042345D01*
X031508Y042282D01*
X031445Y042199D01*
X031405Y042103D01*
X031391Y042000D01*
X031405Y041897D01*
X031445Y041801D01*
X031508Y041718D01*
X031591Y041655D01*
X031596Y041652D01*
Y040441D01*
X031424D01*
Y039768D01*
X031424Y039768D01*
X031424Y039732D01*
X031424D01*
Y039077D01*
X031074Y038726D01*
X031035Y038668D01*
X031028Y038633D01*
X030978Y038638D01*
Y039059D01*
X031176D01*
Y039732D01*
D01*
Y039732D01*
X031176Y039732D01*
Y039768D01*
X031176D01*
Y040441D01*
X031004D01*
Y041666D01*
X031072Y041718D01*
X031135Y041801D01*
X031175Y041897D01*
X031189Y042000D01*
X031175Y042103D01*
X031135Y042199D01*
X031072Y042282D01*
X030989Y042345D01*
X030893Y042385D01*
X030790Y042399D01*
X030687Y042385D01*
X030591Y042345D01*
X030508Y042282D01*
X030445Y042199D01*
X030405Y042103D01*
X030391Y042000D01*
X030405Y041897D01*
X030445Y041801D01*
X030508Y041718D01*
X030591Y041655D01*
X030596Y041652D01*
Y040441D01*
X030424D01*
Y039768D01*
X030424Y039768D01*
X030424Y039732D01*
X030424D01*
Y039059D01*
X030622D01*
Y037389D01*
X030577Y037366D01*
X030548Y037385D01*
X030450Y037405D01*
X030352Y037385D01*
X030270Y037330D01*
X030215Y037248D01*
X030195Y037150D01*
X030215Y037052D01*
X030270Y036970D01*
X030272Y036969D01*
Y036650D01*
X030272Y036648D01*
X030228Y036624D01*
X029978Y036874D01*
Y039059D01*
X030176D01*
Y039732D01*
D01*
Y039732D01*
X030176Y039732D01*
Y039768D01*
X030176D01*
Y040441D01*
X030004D01*
Y041605D01*
X030185D01*
Y042395D01*
X029395D01*
Y041605D01*
X029596D01*
Y040441D01*
X029424D01*
Y039768D01*
X029424Y039768D01*
X029424Y039732D01*
X029424D01*
Y039059D01*
X029622D01*
Y036800D01*
X029622Y036800D01*
X029622D01*
X029635Y036732D01*
X029674Y036674D01*
X030352Y035996D01*
X030352Y035996D01*
X030381Y035977D01*
X030410Y035957D01*
X030478Y035944D01*
X030478Y035944D01*
X031451D01*
X031473Y035916D01*
X032499D01*
X032494Y035940D01*
X032458Y035994D01*
X032494Y036048D01*
X032509Y036122D01*
X032494Y036196D01*
X032458Y036250D01*
X032494Y036304D01*
X032509Y036378D01*
X032494Y036452D01*
X032458Y036506D01*
X032494Y036560D01*
X032509Y036634D01*
X032494Y036707D01*
X032458Y036762D01*
X032494Y036816D01*
X032509Y036890D01*
X032494Y036963D01*
X032458Y037018D01*
X032494Y037072D01*
X032509Y037146D01*
X032501Y037183D01*
X032533Y037221D01*
X032651D01*
X032664Y037152D01*
X032720Y037070D01*
X032802Y037015D01*
X032900Y036995D01*
X032998Y037015D01*
X033080Y037070D01*
X033135Y037152D01*
X033155Y037250D01*
X033135Y037348D01*
X033080Y037430D01*
X033075Y037434D01*
X033085Y037483D01*
X033124Y037491D01*
X033182Y037529D01*
X033376Y037724D01*
X033376Y037724D01*
X033415Y037782D01*
X033415Y037782D01*
X033415Y037782D01*
X033428Y037850D01*
X033428Y037850D01*
Y038800D01*
X033415Y038868D01*
X033376Y038926D01*
X033176Y039127D01*
Y039732D01*
D01*
Y039732D01*
X033176Y039732D01*
Y039768D01*
X033176D01*
Y040441D01*
X033004D01*
Y041666D01*
X033072Y041718D01*
X033135Y041801D01*
X033175Y041897D01*
X033189Y042000D01*
X033175Y042103D01*
X033135Y042199D01*
X033072Y042282D01*
X032989Y042345D01*
X032893Y042385D01*
X032790Y042399D01*
D02*
G37*
G36*
X044540D02*
X044437Y042385D01*
X044341Y042345D01*
X044258Y042282D01*
X044195Y042199D01*
X044155Y042103D01*
X044141Y042000D01*
X044155Y041897D01*
X044195Y041801D01*
X044258Y041718D01*
X044341Y041655D01*
X044346Y041652D01*
Y040441D01*
X044174D01*
Y039768D01*
X044174Y039768D01*
X044174Y039732D01*
X044174D01*
Y039059D01*
X044488D01*
X044822Y038726D01*
Y038306D01*
X044777Y038282D01*
X044698Y038335D01*
X044600Y038355D01*
X044502Y038335D01*
X044420Y038280D01*
X044365Y038198D01*
X044345Y038100D01*
X044294Y038090D01*
X044283D01*
X044260Y038117D01*
X043235D01*
X043239Y038094D01*
X043276Y038039D01*
X043239Y037985D01*
X043225Y037911D01*
X043239Y037838D01*
X043276Y037783D01*
X043239Y037729D01*
X043225Y037656D01*
X043239Y037582D01*
X043276Y037528D01*
X043239Y037473D01*
X043193Y037459D01*
X043128Y037524D01*
Y038526D01*
X043662Y039059D01*
X043926D01*
Y039732D01*
D01*
Y039732D01*
X043926Y039732D01*
Y039768D01*
X043926D01*
Y040441D01*
X043754D01*
Y041666D01*
X043822Y041718D01*
X043885Y041801D01*
X043925Y041897D01*
X043939Y042000D01*
X043925Y042103D01*
X043885Y042199D01*
X043822Y042282D01*
X043739Y042345D01*
X043643Y042385D01*
X043540Y042399D01*
X043437Y042385D01*
X043341Y042345D01*
X043258Y042282D01*
X043195Y042199D01*
X043155Y042103D01*
X043141Y042000D01*
X043155Y041897D01*
X043195Y041801D01*
X043258Y041718D01*
X043341Y041655D01*
X043346Y041652D01*
Y040441D01*
X043174D01*
Y039768D01*
X043174Y039768D01*
X043174Y039732D01*
X043174D01*
Y039077D01*
X042824Y038726D01*
X042785Y038668D01*
X042778Y038633D01*
X042728Y038638D01*
Y039059D01*
X042926D01*
Y039732D01*
D01*
Y039732D01*
X042926Y039732D01*
Y039768D01*
X042926D01*
Y040441D01*
X042754D01*
Y041666D01*
X042822Y041718D01*
X042885Y041801D01*
X042925Y041897D01*
X042939Y042000D01*
X042925Y042103D01*
X042885Y042199D01*
X042822Y042282D01*
X042739Y042345D01*
X042643Y042385D01*
X042540Y042399D01*
X042437Y042385D01*
X042341Y042345D01*
X042258Y042282D01*
X042195Y042199D01*
X042155Y042103D01*
X042141Y042000D01*
X042155Y041897D01*
X042195Y041801D01*
X042258Y041718D01*
X042341Y041655D01*
X042346Y041652D01*
Y040441D01*
X042174D01*
Y039768D01*
X042174Y039768D01*
X042174Y039732D01*
X042174D01*
Y039059D01*
X042372D01*
Y037389D01*
X042327Y037366D01*
X042298Y037385D01*
X042200Y037405D01*
X042102Y037385D01*
X042020Y037330D01*
X041965Y037248D01*
X041945Y037150D01*
X041965Y037052D01*
X042020Y036970D01*
X042022Y036969D01*
Y036650D01*
D01*
X042022D01*
Y036648D01*
X041978Y036624D01*
X041728Y036874D01*
Y039059D01*
X041926D01*
Y039732D01*
D01*
Y039732D01*
X041926Y039732D01*
Y039768D01*
X041926D01*
Y040441D01*
X041754D01*
Y041605D01*
X041935D01*
Y042395D01*
X041145D01*
Y041605D01*
X041346D01*
Y040441D01*
X041174D01*
Y039768D01*
X041174Y039768D01*
X041174Y039732D01*
X041174D01*
Y039059D01*
X041372D01*
Y036800D01*
X041372Y036800D01*
X041372D01*
X041385Y036732D01*
X041424Y036674D01*
X042102Y035996D01*
X042102Y035996D01*
X042131Y035977D01*
X042160Y035957D01*
X042228Y035944D01*
X042228Y035944D01*
X043201D01*
X043232Y035905D01*
X043225Y035866D01*
X043239Y035793D01*
X043276Y035738D01*
X043239Y035684D01*
X043235Y035660D01*
X044260D01*
X044283Y035688D01*
X044847D01*
X045307Y035228D01*
X045365Y035189D01*
X045433Y035176D01*
X046064D01*
X046133Y035162D01*
X046259D01*
Y034741D01*
X046224Y034714D01*
X046216Y034704D01*
X035984D01*
X035976Y034714D01*
X035941Y034741D01*
Y035087D01*
X035941Y035087D01*
X035927Y035156D01*
X035889Y035214D01*
X035889Y035214D01*
X035717Y035386D01*
X035736Y035432D01*
X041199D01*
X041214Y035352D01*
X041270Y035270D01*
X041352Y035215D01*
X041450Y035195D01*
X041548Y035215D01*
X041630Y035270D01*
X041686Y035352D01*
X041705Y035450D01*
X041686Y035548D01*
X041670Y035570D01*
X041698Y035612D01*
X041700Y035611D01*
X041798Y035631D01*
X041880Y035686D01*
X041936Y035769D01*
X041955Y035866D01*
X041936Y035964D01*
X041880Y036046D01*
X041798Y036102D01*
X041700Y036121D01*
X041602Y036102D01*
X041520Y036046D01*
X041519Y036045D01*
X035766D01*
X035743Y036089D01*
X035786Y036152D01*
X035805Y036250D01*
X035786Y036348D01*
X035743Y036411D01*
X035766Y036455D01*
X035934D01*
X036002Y036469D01*
X036060Y036508D01*
X036926Y037374D01*
X036965Y037432D01*
X036978Y037500D01*
X036978Y037500D01*
X036978Y037500D01*
Y037500D01*
Y039059D01*
X037176D01*
Y039732D01*
D01*
Y039732D01*
X037176Y039732D01*
Y039768D01*
X037176D01*
Y040441D01*
X037004D01*
Y041666D01*
X037072Y041718D01*
X037135Y041801D01*
X037175Y041897D01*
X037189Y042000D01*
X037175Y042103D01*
X037135Y042199D01*
X037072Y042282D01*
X036989Y042345D01*
X036893Y042385D01*
X036790Y042399D01*
X036687Y042385D01*
X036591Y042345D01*
X036508Y042282D01*
X036445Y042199D01*
X036405Y042103D01*
X036391Y042000D01*
X036405Y041897D01*
X036445Y041801D01*
X036508Y041718D01*
X036591Y041655D01*
X036596Y041652D01*
Y040441D01*
X036424D01*
Y039768D01*
X036424Y039768D01*
X036424Y039732D01*
X036424D01*
Y039059D01*
X036622D01*
Y037574D01*
X036049Y037002D01*
X036002Y037016D01*
X035986Y037098D01*
X035930Y037180D01*
X035848Y037236D01*
X035766Y037252D01*
X035752Y037299D01*
X035926Y037474D01*
X035926Y037474D01*
X035965Y037532D01*
X035978Y037600D01*
Y039059D01*
X036176D01*
Y039732D01*
D01*
Y039732D01*
X036176Y039732D01*
Y039768D01*
X036176D01*
Y040441D01*
X036004D01*
Y041666D01*
X036072Y041718D01*
X036135Y041801D01*
X036175Y041897D01*
X036189Y042000D01*
X036175Y042103D01*
X036135Y042199D01*
X036072Y042282D01*
X035989Y042345D01*
X035893Y042385D01*
X035790Y042399D01*
X035687Y042385D01*
X035591Y042345D01*
X035508Y042282D01*
X035445Y042199D01*
X035405Y042103D01*
X035391Y042000D01*
X035405Y041897D01*
X035445Y041801D01*
X035508Y041718D01*
X035591Y041655D01*
X035596Y041652D01*
Y040441D01*
X035424D01*
Y039768D01*
X035424Y039768D01*
X035424Y039732D01*
X035424D01*
Y039059D01*
X035622D01*
Y038557D01*
X035581Y038529D01*
X035575Y038527D01*
X035089Y039013D01*
X035108Y039059D01*
X035176D01*
Y039732D01*
D01*
Y039732D01*
X035176Y039732D01*
Y039768D01*
X035176D01*
Y040441D01*
X035004D01*
Y041666D01*
X035072Y041718D01*
X035135Y041801D01*
X035175Y041897D01*
X035189Y042000D01*
X035175Y042103D01*
X035135Y042199D01*
X035072Y042282D01*
X034989Y042345D01*
X034893Y042385D01*
X034790Y042399D01*
X034687Y042385D01*
X034591Y042345D01*
X034508Y042282D01*
X034445Y042199D01*
X034405Y042103D01*
X034391Y042000D01*
X034405Y041897D01*
X034445Y041801D01*
X034508Y041718D01*
X034591Y041655D01*
X034596Y041652D01*
Y040441D01*
X034424D01*
Y039768D01*
X034424Y039768D01*
X034424Y039732D01*
X034424D01*
Y039059D01*
X034622D01*
Y039050D01*
X034635Y038982D01*
X034674Y038924D01*
X035272Y038326D01*
Y038190D01*
X035222Y038185D01*
X035211Y038241D01*
X035169Y038303D01*
X035107Y038345D01*
X035033Y038360D01*
X034383D01*
X034314Y038346D01*
X034257D01*
X033978Y038624D01*
Y039059D01*
X034176D01*
Y039732D01*
D01*
Y039732D01*
X034176Y039732D01*
Y039768D01*
X034176D01*
Y040441D01*
X034004D01*
Y041666D01*
X034072Y041718D01*
X034135Y041801D01*
X034175Y041897D01*
X034189Y042000D01*
X034175Y042103D01*
X034135Y042199D01*
X034072Y042282D01*
X033989Y042345D01*
X033893Y042385D01*
X033790Y042399D01*
X033687Y042385D01*
X033591Y042345D01*
X033508Y042282D01*
X033445Y042199D01*
X033405Y042103D01*
X033391Y042000D01*
X033405Y041897D01*
X033445Y041801D01*
X033508Y041718D01*
X033591Y041655D01*
X033596Y041652D01*
Y040441D01*
X033424D01*
Y039768D01*
X033424Y039768D01*
X033424Y039732D01*
X033424D01*
Y039059D01*
X033622D01*
Y038550D01*
X033635Y038482D01*
X033674Y038424D01*
X033756Y038341D01*
X033742Y038293D01*
X033702Y038286D01*
X033620Y038230D01*
X033565Y038148D01*
X033545Y038050D01*
X033565Y037952D01*
X033620Y037870D01*
X033702Y037815D01*
X033800Y037795D01*
X033802Y037796D01*
X033812Y037785D01*
X033870Y037747D01*
X033939Y037733D01*
X033939Y037733D01*
X034167D01*
X034199Y037694D01*
X034191Y037656D01*
X034199Y037617D01*
X034167Y037578D01*
X034082D01*
X034080Y037580D01*
X033998Y037636D01*
X033900Y037655D01*
X033802Y037636D01*
X033720Y037580D01*
X033665Y037498D01*
X033645Y037400D01*
X033665Y037302D01*
X033720Y037220D01*
X033802Y037164D01*
X033900Y037145D01*
X033998Y037164D01*
X034080Y037220D01*
X034081Y037221D01*
X034167D01*
X034199Y037183D01*
X034191Y037146D01*
X034206Y037072D01*
X034242Y037018D01*
X034206Y036963D01*
X034191Y036890D01*
X034206Y036816D01*
X034242Y036762D01*
X034206Y036707D01*
X034191Y036634D01*
X034199Y036595D01*
X034181Y036573D01*
X034131Y036571D01*
X034104Y036598D01*
X034105Y036600D01*
X034086Y036698D01*
X034030Y036780D01*
X033948Y036835D01*
X033850Y036855D01*
X033752Y036835D01*
X033670Y036780D01*
X033614Y036698D01*
X033595Y036600D01*
X033614Y036502D01*
X033670Y036420D01*
X033752Y036365D01*
X033850Y036345D01*
X033852Y036346D01*
X033946Y036252D01*
X033946Y036252D01*
X034004Y036213D01*
X034072Y036200D01*
X034167D01*
X034199Y036161D01*
X034191Y036122D01*
X034199Y036083D01*
X034167Y036045D01*
X033759D01*
X033698Y036086D01*
X033600Y036105D01*
X033502Y036086D01*
X033420Y036030D01*
X033365Y035948D01*
X033345Y035850D01*
X033360Y035775D01*
X033325Y035740D01*
X033250Y035755D01*
X033152Y035735D01*
X033070Y035680D01*
X033015Y035598D01*
X032995Y035500D01*
X033015Y035402D01*
X033070Y035320D01*
X033152Y035264D01*
X033250Y035245D01*
X033348Y035264D01*
X033430Y035320D01*
X033431Y035322D01*
X033800D01*
X033868Y035335D01*
X033926Y035374D01*
X033984Y035432D01*
X034167D01*
X034199Y035393D01*
X034191Y035354D01*
X034206Y035281D01*
X034248Y035218D01*
X034310Y035177D01*
X034383Y035162D01*
X035033D01*
X035103Y035176D01*
X035422D01*
X035584Y035014D01*
Y034741D01*
X035549Y034714D01*
X035541Y034704D01*
X032322D01*
X032314Y034714D01*
X032251Y034762D01*
X032178Y034792D01*
X032100Y034803D01*
X032022Y034792D01*
X031949Y034762D01*
X031886Y034714D01*
X031878Y034704D01*
X031284D01*
X030844Y035144D01*
X030778Y035188D01*
X030700Y035204D01*
X029318D01*
X029303Y035252D01*
X029330Y035270D01*
X029385Y035352D01*
X029405Y035450D01*
X029385Y035548D01*
X029370Y035570D01*
X029398Y035612D01*
X029400Y035611D01*
X029498Y035631D01*
X029580Y035686D01*
X029636Y035769D01*
X029655Y035866D01*
X029636Y035964D01*
X029580Y036046D01*
X029498Y036102D01*
X029400Y036121D01*
X029302Y036102D01*
X029220Y036046D01*
X029219Y036045D01*
X023499D01*
X023477Y036072D01*
X022451D01*
X022456Y036048D01*
X022492Y035994D01*
X022456Y035940D01*
X022441Y035866D01*
X022456Y035793D01*
X022492Y035738D01*
X022456Y035684D01*
X022441Y035610D01*
X022456Y035537D01*
X022492Y035482D01*
X022456Y035428D01*
X022441Y035354D01*
X022456Y035281D01*
X022497Y035218D01*
X022560Y035177D01*
X022633Y035162D01*
X023283D01*
X023353Y035176D01*
X023422D01*
X023553Y035044D01*
X023547Y035000D01*
X023558Y034922D01*
X023588Y034849D01*
X023636Y034786D01*
X023699Y034738D01*
X023772Y034708D01*
X023850Y034697D01*
X023928Y034708D01*
X024001Y034738D01*
X024064Y034786D01*
X024072Y034796D01*
X026178D01*
X026186Y034786D01*
X026249Y034738D01*
X026322Y034708D01*
X026400Y034697D01*
X026478Y034708D01*
X026551Y034738D01*
X026614Y034786D01*
X026622Y034796D01*
X030616D01*
X031056Y034356D01*
X031122Y034312D01*
X031200Y034296D01*
X031878D01*
X031886Y034286D01*
X031947Y034239D01*
Y032513D01*
X031582Y032148D01*
X031550Y032155D01*
X031452Y032136D01*
X031370Y032080D01*
X031314Y031998D01*
X031295Y031900D01*
X031314Y031802D01*
X031352Y031747D01*
X031328Y031703D01*
X030713D01*
X030598Y031818D01*
X030605Y031850D01*
X030585Y031948D01*
X030530Y032030D01*
X030448Y032085D01*
X030350Y032105D01*
X030252Y032085D01*
X030170Y032030D01*
X030115Y031948D01*
X030095Y031850D01*
X030115Y031752D01*
X030170Y031670D01*
X030252Y031614D01*
X030350Y031595D01*
X030382Y031602D01*
X030542Y031442D01*
X030591Y031409D01*
X030650Y031397D01*
X032052D01*
X032070Y031370D01*
X032152Y031314D01*
X032250Y031295D01*
X032348Y031314D01*
X032430Y031370D01*
X032485Y031452D01*
X032505Y031550D01*
X032485Y031648D01*
X032430Y031730D01*
X032348Y031786D01*
X032250Y031805D01*
X032152Y031786D01*
X032070Y031730D01*
X032052Y031703D01*
X031772D01*
X031748Y031747D01*
X031786Y031802D01*
X031805Y031900D01*
X031798Y031932D01*
X032208Y032342D01*
X032241Y032391D01*
X032243Y032401D01*
X032253Y032450D01*
Y034239D01*
X032314Y034286D01*
X032322Y034296D01*
X035541D01*
X035549Y034286D01*
X035611Y034238D01*
X035684Y034208D01*
X035763Y034197D01*
X035841Y034208D01*
X035914Y034238D01*
X035976Y034286D01*
X035984Y034296D01*
X046216D01*
X046224Y034286D01*
X046286Y034238D01*
X046359Y034208D01*
X046438Y034197D01*
X046516Y034208D01*
X046589Y034238D01*
X046651Y034286D01*
X046700Y034349D01*
X046730Y034422D01*
X046740Y034500D01*
X046730Y034578D01*
X046700Y034651D01*
X046651Y034714D01*
X046616Y034741D01*
Y035162D01*
X046783D01*
X046857Y035177D01*
X046919Y035218D01*
X046961Y035281D01*
X046975Y035354D01*
X046968Y035393D01*
X046999Y035432D01*
X047053D01*
X047161Y035324D01*
X047219Y035285D01*
X047288Y035272D01*
X047288Y035272D01*
X047606D01*
X047607Y035270D01*
X047690Y035215D01*
X047787Y035195D01*
X047885Y035215D01*
X047968Y035270D01*
X048023Y035352D01*
X048042Y035450D01*
X048023Y035548D01*
X047968Y035630D01*
X047885Y035686D01*
X047787Y035705D01*
X047697Y035687D01*
X047670Y035729D01*
X047685Y035752D01*
X047705Y035850D01*
X047685Y035948D01*
X047630Y036030D01*
X047548Y036086D01*
X047450Y036105D01*
X047352Y036086D01*
X047291Y036045D01*
X046999D01*
X046977Y036072D01*
X045951D01*
X045956Y036048D01*
X045992Y035994D01*
X045956Y035940D01*
X045941Y035866D01*
X045956Y035793D01*
X045992Y035738D01*
X045956Y035684D01*
X045941Y035610D01*
X045949Y035571D01*
X045917Y035533D01*
X045507D01*
X045048Y035992D01*
X044990Y036031D01*
X044921Y036045D01*
X044283D01*
X044251Y036083D01*
X044259Y036122D01*
X044244Y036196D01*
X044208Y036250D01*
X044244Y036304D01*
X044259Y036378D01*
X044244Y036452D01*
X044208Y036506D01*
X044244Y036560D01*
X044259Y036634D01*
X044244Y036707D01*
X044208Y036762D01*
X044244Y036816D01*
X044259Y036890D01*
X044244Y036963D01*
X044208Y037018D01*
X044244Y037072D01*
X044259Y037146D01*
X044251Y037183D01*
X044283Y037221D01*
X044401D01*
X044415Y037152D01*
X044470Y037070D01*
X044552Y037015D01*
X044650Y036995D01*
X044748Y037015D01*
X044830Y037070D01*
X044886Y037152D01*
X044905Y037250D01*
X044886Y037348D01*
X044830Y037430D01*
X044825Y037434D01*
X044835Y037483D01*
X044874Y037491D01*
X044932Y037529D01*
X045126Y037724D01*
X045126Y037724D01*
X045165Y037782D01*
X045165Y037782D01*
X045165Y037782D01*
X045178Y037850D01*
X045178Y037850D01*
Y038800D01*
X045165Y038868D01*
X045126Y038926D01*
X044926Y039127D01*
Y039732D01*
D01*
Y039732D01*
X044926Y039732D01*
Y039768D01*
X044926D01*
Y040441D01*
X044754D01*
Y041666D01*
X044822Y041718D01*
X044885Y041801D01*
X044925Y041897D01*
X044939Y042000D01*
X044925Y042103D01*
X044885Y042199D01*
X044822Y042282D01*
X044739Y042345D01*
X044643Y042385D01*
X044540Y042399D01*
D02*
G37*
G36*
X015387Y043200D02*
X014550D01*
Y042363D01*
X014674Y042375D01*
X014841Y042426D01*
X014995Y042509D01*
X015131Y042619D01*
X015241Y042755D01*
X015324Y042909D01*
X015375Y043076D01*
X015387Y043200D01*
D02*
G37*
G36*
X020040Y043399D02*
X019937Y043385D01*
X019841Y043345D01*
X019758Y043282D01*
X019695Y043199D01*
X019655Y043103D01*
X019641Y043000D01*
X019655Y042897D01*
X019695Y042801D01*
X019758Y042718D01*
X019841Y042655D01*
X019937Y042615D01*
X020040Y042601D01*
X020143Y042615D01*
X020239Y042655D01*
X020322Y042718D01*
X020385Y042801D01*
X020425Y042897D01*
X020439Y043000D01*
X020425Y043103D01*
X020385Y043199D01*
X020322Y043282D01*
X020239Y043345D01*
X020143Y043385D01*
X020040Y043399D01*
D02*
G37*
G36*
X021040D02*
X020937Y043385D01*
X020841Y043345D01*
X020758Y043282D01*
X020695Y043199D01*
X020655Y043103D01*
X020641Y043000D01*
X020655Y042897D01*
X020695Y042801D01*
X020758Y042718D01*
X020841Y042655D01*
X020937Y042615D01*
X021040Y042601D01*
X021143Y042615D01*
X021239Y042655D01*
X021322Y042718D01*
X021385Y042801D01*
X021425Y042897D01*
X021439Y043000D01*
X021425Y043103D01*
X021385Y043199D01*
X021322Y043282D01*
X021239Y043345D01*
X021143Y043385D01*
X021040Y043399D01*
D02*
G37*
G36*
X022040D02*
X021937Y043385D01*
X021841Y043345D01*
X021758Y043282D01*
X021695Y043199D01*
X021655Y043103D01*
X021641Y043000D01*
X021655Y042897D01*
X021695Y042801D01*
X021758Y042718D01*
X021841Y042655D01*
X021937Y042615D01*
X022040Y042601D01*
X022143Y042615D01*
X022239Y042655D01*
X022322Y042718D01*
X022385Y042801D01*
X022425Y042897D01*
X022439Y043000D01*
X022425Y043103D01*
X022385Y043199D01*
X022322Y043282D01*
X022239Y043345D01*
X022143Y043385D01*
X022040Y043399D01*
D02*
G37*
G36*
X019040D02*
X018937Y043385D01*
X018841Y043345D01*
X018758Y043282D01*
X018695Y043199D01*
X018655Y043103D01*
X018641Y043000D01*
X018655Y042897D01*
X018695Y042801D01*
X018758Y042718D01*
X018841Y042655D01*
X018937Y042615D01*
X019040Y042601D01*
X019143Y042615D01*
X019239Y042655D01*
X019322Y042718D01*
X019385Y042801D01*
X019425Y042897D01*
X019439Y043000D01*
X019425Y043103D01*
X019385Y043199D01*
X019322Y043282D01*
X019239Y043345D01*
X019143Y043385D01*
X019040Y043399D01*
D02*
G37*
G36*
X063700Y043200D02*
X062863D01*
X062875Y043076D01*
X062926Y042909D01*
X063009Y042755D01*
X063119Y042619D01*
X063255Y042509D01*
X063409Y042426D01*
X063576Y042375D01*
X063700Y042363D01*
Y043200D01*
D02*
G37*
G36*
X064637D02*
X063800D01*
Y042363D01*
X063924Y042375D01*
X064091Y042426D01*
X064245Y042509D01*
X064381Y042619D01*
X064491Y042755D01*
X064574Y042909D01*
X064625Y043076D01*
X064637Y043200D01*
D02*
G37*
G36*
X018040Y043399D02*
X017937Y043385D01*
X017841Y043345D01*
X017758Y043282D01*
X017695Y043199D01*
X017655Y043103D01*
X017641Y043000D01*
X017655Y042897D01*
X017695Y042801D01*
X017758Y042718D01*
X017841Y042655D01*
X017937Y042615D01*
X018040Y042601D01*
X018143Y042615D01*
X018239Y042655D01*
X018322Y042718D01*
X018385Y042801D01*
X018425Y042897D01*
X018439Y043000D01*
X018425Y043103D01*
X018385Y043199D01*
X018322Y043282D01*
X018239Y043345D01*
X018143Y043385D01*
X018040Y043399D01*
D02*
G37*
G36*
X032245Y038450D02*
X031755D01*
X031765Y038402D01*
X031742Y038360D01*
X031667D01*
X031593Y038345D01*
X031531Y038303D01*
X031489Y038241D01*
X031485Y038217D01*
X032499D01*
X032494Y038241D01*
X032452Y038303D01*
X032390Y038345D01*
X032317Y038360D01*
X032258D01*
X032236Y038402D01*
X032245Y038450D01*
D02*
G37*
G36*
X043995D02*
X043505D01*
X043514Y038402D01*
X043492Y038360D01*
X043417D01*
X043343Y038345D01*
X043281Y038303D01*
X043239Y038241D01*
X043235Y038217D01*
X044249D01*
X044244Y038241D01*
X044202Y038303D01*
X044140Y038345D01*
X044067Y038360D01*
X044008D01*
X043986Y038402D01*
X043995Y038450D01*
D02*
G37*
G36*
X055745D02*
X055255D01*
X055265Y038402D01*
X055242Y038360D01*
X055167D01*
X055093Y038345D01*
X055031Y038303D01*
X054989Y038241D01*
X054985Y038217D01*
X055999D01*
X055994Y038241D01*
X055953Y038303D01*
X055890Y038345D01*
X055817Y038360D01*
X055758D01*
X055736Y038402D01*
X055745Y038450D01*
D02*
G37*
G36*
X020495D02*
X020005D01*
X020015Y038402D01*
X019992Y038360D01*
X019917D01*
X019843Y038345D01*
X019781Y038303D01*
X019739Y038241D01*
X019735Y038217D01*
X020749D01*
X020744Y038241D01*
X020703Y038303D01*
X020640Y038345D01*
X020567Y038360D01*
X020508D01*
X020485Y038402D01*
X020495Y038450D01*
D02*
G37*
G36*
X055999Y035560D02*
X054985D01*
X054989Y035537D01*
X055026Y035482D01*
X054989Y035428D01*
X054975Y035354D01*
X054989Y035281D01*
X055031Y035218D01*
X055093Y035177D01*
X055167Y035162D01*
X055817D01*
X055890Y035177D01*
X055953Y035218D01*
X055994Y035281D01*
X056009Y035354D01*
X055994Y035428D01*
X055958Y035482D01*
X055994Y035537D01*
X055999Y035560D01*
D02*
G37*
G36*
X020749Y035816D02*
X019735D01*
X019739Y035793D01*
X019776Y035738D01*
X019739Y035684D01*
X019735Y035660D01*
X020749D01*
X020744Y035684D01*
X020708Y035738D01*
X020744Y035793D01*
X020749Y035816D01*
D02*
G37*
G36*
X032499D02*
X031485D01*
X031489Y035793D01*
X031526Y035738D01*
X031489Y035684D01*
X031485Y035660D01*
X032499D01*
X032494Y035684D01*
X032458Y035738D01*
X032494Y035793D01*
X032499Y035816D01*
D02*
G37*
G36*
X020200Y038745D02*
X020152Y038735D01*
X020070Y038680D01*
X020015Y038598D01*
X020005Y038550D01*
X020200D01*
Y038745D01*
D02*
G37*
G36*
X043800D02*
Y038550D01*
X043995D01*
X043986Y038598D01*
X043930Y038680D01*
X043848Y038735D01*
X043800Y038745D01*
D02*
G37*
G36*
X055450D02*
X055402Y038735D01*
X055320Y038680D01*
X055265Y038598D01*
X055255Y038550D01*
X055450D01*
Y038745D01*
D02*
G37*
G36*
X055550D02*
Y038550D01*
X055745D01*
X055736Y038598D01*
X055680Y038680D01*
X055598Y038735D01*
X055550Y038745D01*
D02*
G37*
G36*
X043700D02*
X043652Y038735D01*
X043570Y038680D01*
X043514Y038598D01*
X043505Y038550D01*
X043700D01*
Y038745D01*
D02*
G37*
G36*
X020300D02*
Y038550D01*
X020495D01*
X020485Y038598D01*
X020430Y038680D01*
X020348Y038735D01*
X020300Y038745D01*
D02*
G37*
G36*
X031950D02*
X031902Y038735D01*
X031820Y038680D01*
X031765Y038598D01*
X031755Y038550D01*
X031950D01*
Y038745D01*
D02*
G37*
G36*
X032050D02*
Y038550D01*
X032245D01*
X032236Y038598D01*
X032180Y038680D01*
X032098Y038735D01*
X032050Y038745D01*
D02*
G37*
G36*
X023040Y043399D02*
X022937Y043385D01*
X022841Y043345D01*
X022758Y043282D01*
X022695Y043199D01*
X022655Y043103D01*
X022641Y043000D01*
X022655Y042897D01*
X022695Y042801D01*
X022758Y042718D01*
X022841Y042655D01*
X022937Y042615D01*
X023040Y042601D01*
X023143Y042615D01*
X023239Y042655D01*
X023322Y042718D01*
X023385Y042801D01*
X023425Y042897D01*
X023439Y043000D01*
X023425Y043103D01*
X023385Y043199D01*
X023322Y043282D01*
X023239Y043345D01*
X023143Y043385D01*
X023040Y043399D01*
D02*
G37*
G36*
X054290D02*
X054187Y043385D01*
X054091Y043345D01*
X054008Y043282D01*
X053945Y043199D01*
X053905Y043103D01*
X053891Y043000D01*
X053905Y042897D01*
X053945Y042801D01*
X054008Y042718D01*
X054091Y042655D01*
X054187Y042615D01*
X054290Y042601D01*
X054393Y042615D01*
X054489Y042655D01*
X054572Y042718D01*
X054635Y042801D01*
X054675Y042897D01*
X054689Y043000D01*
X054675Y043103D01*
X054635Y043199D01*
X054572Y043282D01*
X054489Y043345D01*
X054393Y043385D01*
X054290Y043399D01*
D02*
G37*
G36*
X055290D02*
X055187Y043385D01*
X055091Y043345D01*
X055008Y043282D01*
X054945Y043199D01*
X054905Y043103D01*
X054891Y043000D01*
X054905Y042897D01*
X054945Y042801D01*
X055008Y042718D01*
X055091Y042655D01*
X055187Y042615D01*
X055290Y042601D01*
X055393Y042615D01*
X055489Y042655D01*
X055572Y042718D01*
X055635Y042801D01*
X055675Y042897D01*
X055689Y043000D01*
X055675Y043103D01*
X055635Y043199D01*
X055572Y043282D01*
X055489Y043345D01*
X055393Y043385D01*
X055290Y043399D01*
D02*
G37*
G36*
X056290D02*
X056187Y043385D01*
X056091Y043345D01*
X056008Y043282D01*
X055945Y043199D01*
X055905Y043103D01*
X055891Y043000D01*
X055905Y042897D01*
X055945Y042801D01*
X056008Y042718D01*
X056091Y042655D01*
X056187Y042615D01*
X056290Y042601D01*
X056393Y042615D01*
X056489Y042655D01*
X056572Y042718D01*
X056635Y042801D01*
X056675Y042897D01*
X056689Y043000D01*
X056675Y043103D01*
X056635Y043199D01*
X056572Y043282D01*
X056489Y043345D01*
X056393Y043385D01*
X056290Y043399D01*
D02*
G37*
G36*
X053290D02*
X053187Y043385D01*
X053091Y043345D01*
X053008Y043282D01*
X052945Y043199D01*
X052905Y043103D01*
X052891Y043000D01*
X052905Y042897D01*
X052945Y042801D01*
X053008Y042718D01*
X053091Y042655D01*
X053187Y042615D01*
X053290Y042601D01*
X053393Y042615D01*
X053489Y042655D01*
X053572Y042718D01*
X053635Y042801D01*
X053675Y042897D01*
X053689Y043000D01*
X053675Y043103D01*
X053635Y043199D01*
X053572Y043282D01*
X053489Y043345D01*
X053393Y043385D01*
X053290Y043399D01*
D02*
G37*
G36*
X046540D02*
X046437Y043385D01*
X046341Y043345D01*
X046258Y043282D01*
X046195Y043199D01*
X046155Y043103D01*
X046141Y043000D01*
X046155Y042897D01*
X046195Y042801D01*
X046258Y042718D01*
X046341Y042655D01*
X046437Y042615D01*
X046540Y042601D01*
X046643Y042615D01*
X046739Y042655D01*
X046822Y042718D01*
X046885Y042801D01*
X046925Y042897D01*
X046939Y043000D01*
X046925Y043103D01*
X046885Y043199D01*
X046822Y043282D01*
X046739Y043345D01*
X046643Y043385D01*
X046540Y043399D01*
D02*
G37*
G36*
X047540D02*
X047437Y043385D01*
X047341Y043345D01*
X047258Y043282D01*
X047195Y043199D01*
X047155Y043103D01*
X047141Y043000D01*
X047155Y042897D01*
X047195Y042801D01*
X047258Y042718D01*
X047341Y042655D01*
X047437Y042615D01*
X047540Y042601D01*
X047643Y042615D01*
X047739Y042655D01*
X047822Y042718D01*
X047885Y042801D01*
X047925Y042897D01*
X047939Y043000D01*
X047925Y043103D01*
X047885Y043199D01*
X047822Y043282D01*
X047739Y043345D01*
X047643Y043385D01*
X047540Y043399D01*
D02*
G37*
G36*
X048540D02*
X048437Y043385D01*
X048341Y043345D01*
X048258Y043282D01*
X048195Y043199D01*
X048155Y043103D01*
X048141Y043000D01*
X048155Y042897D01*
X048195Y042801D01*
X048258Y042718D01*
X048341Y042655D01*
X048437Y042615D01*
X048540Y042601D01*
X048643Y042615D01*
X048739Y042655D01*
X048822Y042718D01*
X048885Y042801D01*
X048925Y042897D01*
X048939Y043000D01*
X048925Y043103D01*
X048885Y043199D01*
X048822Y043282D01*
X048739Y043345D01*
X048643Y043385D01*
X048540Y043399D01*
D02*
G37*
G36*
X057290D02*
X057187Y043385D01*
X057091Y043345D01*
X057008Y043282D01*
X056945Y043199D01*
X056905Y043103D01*
X056891Y043000D01*
X056905Y042897D01*
X056945Y042801D01*
X057008Y042718D01*
X057091Y042655D01*
X057187Y042615D01*
X057290Y042601D01*
X057393Y042615D01*
X057489Y042655D01*
X057572Y042718D01*
X057635Y042801D01*
X057675Y042897D01*
X057689Y043000D01*
X057675Y043103D01*
X057635Y043199D01*
X057572Y043282D01*
X057489Y043345D01*
X057393Y043385D01*
X057290Y043399D01*
D02*
G37*
G36*
X014550Y044137D02*
Y043300D01*
X015387D01*
X015375Y043424D01*
X015324Y043591D01*
X015241Y043745D01*
X015131Y043881D01*
X014995Y043991D01*
X014841Y044074D01*
X014674Y044125D01*
X014550Y044137D01*
D02*
G37*
G36*
X063700D02*
X063576Y044125D01*
X063409Y044074D01*
X063255Y043991D01*
X063119Y043881D01*
X063009Y043745D01*
X062926Y043591D01*
X062875Y043424D01*
X062863Y043300D01*
X063700D01*
Y044137D01*
D02*
G37*
G36*
X063800D02*
Y043300D01*
X064637D01*
X064625Y043424D01*
X064574Y043591D01*
X064491Y043745D01*
X064381Y043881D01*
X064245Y043991D01*
X064091Y044074D01*
X063924Y044125D01*
X063800Y044137D01*
D02*
G37*
G36*
X014450D02*
X014326Y044125D01*
X014159Y044074D01*
X014005Y043991D01*
X013869Y043881D01*
X013759Y043745D01*
X013676Y043591D01*
X013625Y043424D01*
X013613Y043300D01*
X014450D01*
Y044137D01*
D02*
G37*
G36*
X058290Y043399D02*
X058187Y043385D01*
X058091Y043345D01*
X058008Y043282D01*
X057945Y043199D01*
X057905Y043103D01*
X057891Y043000D01*
X057905Y042897D01*
X057945Y042801D01*
X058008Y042718D01*
X058091Y042655D01*
X058187Y042615D01*
X058290Y042601D01*
X058393Y042615D01*
X058489Y042655D01*
X058572Y042718D01*
X058635Y042801D01*
X058675Y042897D01*
X058689Y043000D01*
X058675Y043103D01*
X058635Y043199D01*
X058572Y043282D01*
X058489Y043345D01*
X058393Y043385D01*
X058290Y043399D01*
D02*
G37*
G36*
X059290D02*
X059187Y043385D01*
X059091Y043345D01*
X059008Y043282D01*
X058945Y043199D01*
X058905Y043103D01*
X058891Y043000D01*
X058905Y042897D01*
X058945Y042801D01*
X059008Y042718D01*
X059091Y042655D01*
X059187Y042615D01*
X059290Y042601D01*
X059393Y042615D01*
X059489Y042655D01*
X059572Y042718D01*
X059635Y042801D01*
X059675Y042897D01*
X059689Y043000D01*
X059675Y043103D01*
X059635Y043199D01*
X059572Y043282D01*
X059489Y043345D01*
X059393Y043385D01*
X059290Y043399D01*
D02*
G37*
G36*
X060290D02*
X060187Y043385D01*
X060091Y043345D01*
X060008Y043282D01*
X059945Y043199D01*
X059905Y043103D01*
X059891Y043000D01*
X059905Y042897D01*
X059945Y042801D01*
X060008Y042718D01*
X060091Y042655D01*
X060187Y042615D01*
X060290Y042601D01*
X060393Y042615D01*
X060489Y042655D01*
X060572Y042718D01*
X060635Y042801D01*
X060675Y042897D01*
X060689Y043000D01*
X060675Y043103D01*
X060635Y043199D01*
X060572Y043282D01*
X060489Y043345D01*
X060393Y043385D01*
X060290Y043399D01*
D02*
G37*
G36*
X031790D02*
X031687Y043385D01*
X031591Y043345D01*
X031508Y043282D01*
X031445Y043199D01*
X031405Y043103D01*
X031391Y043000D01*
X031405Y042897D01*
X031445Y042801D01*
X031508Y042718D01*
X031591Y042655D01*
X031687Y042615D01*
X031790Y042601D01*
X031893Y042615D01*
X031989Y042655D01*
X032072Y042718D01*
X032135Y042801D01*
X032175Y042897D01*
X032189Y043000D01*
X032175Y043103D01*
X032135Y043199D01*
X032072Y043282D01*
X031989Y043345D01*
X031893Y043385D01*
X031790Y043399D01*
D02*
G37*
G36*
X032790D02*
X032687Y043385D01*
X032591Y043345D01*
X032508Y043282D01*
X032445Y043199D01*
X032405Y043103D01*
X032391Y043000D01*
X032405Y042897D01*
X032445Y042801D01*
X032508Y042718D01*
X032591Y042655D01*
X032687Y042615D01*
X032790Y042601D01*
X032893Y042615D01*
X032989Y042655D01*
X033072Y042718D01*
X033135Y042801D01*
X033175Y042897D01*
X033189Y043000D01*
X033175Y043103D01*
X033135Y043199D01*
X033072Y043282D01*
X032989Y043345D01*
X032893Y043385D01*
X032790Y043399D01*
D02*
G37*
G36*
X033790D02*
X033687Y043385D01*
X033591Y043345D01*
X033508Y043282D01*
X033445Y043199D01*
X033405Y043103D01*
X033391Y043000D01*
X033405Y042897D01*
X033445Y042801D01*
X033508Y042718D01*
X033591Y042655D01*
X033687Y042615D01*
X033790Y042601D01*
X033893Y042615D01*
X033989Y042655D01*
X034072Y042718D01*
X034135Y042801D01*
X034175Y042897D01*
X034189Y043000D01*
X034175Y043103D01*
X034135Y043199D01*
X034072Y043282D01*
X033989Y043345D01*
X033893Y043385D01*
X033790Y043399D01*
D02*
G37*
G36*
X030790D02*
X030687Y043385D01*
X030591Y043345D01*
X030508Y043282D01*
X030445Y043199D01*
X030405Y043103D01*
X030391Y043000D01*
X030405Y042897D01*
X030445Y042801D01*
X030508Y042718D01*
X030591Y042655D01*
X030687Y042615D01*
X030790Y042601D01*
X030893Y042615D01*
X030989Y042655D01*
X031072Y042718D01*
X031135Y042801D01*
X031175Y042897D01*
X031189Y043000D01*
X031175Y043103D01*
X031135Y043199D01*
X031072Y043282D01*
X030989Y043345D01*
X030893Y043385D01*
X030790Y043399D01*
D02*
G37*
G36*
X024040D02*
X023937Y043385D01*
X023841Y043345D01*
X023758Y043282D01*
X023695Y043199D01*
X023655Y043103D01*
X023641Y043000D01*
X023655Y042897D01*
X023695Y042801D01*
X023758Y042718D01*
X023841Y042655D01*
X023937Y042615D01*
X024040Y042601D01*
X024143Y042615D01*
X024239Y042655D01*
X024322Y042718D01*
X024385Y042801D01*
X024425Y042897D01*
X024439Y043000D01*
X024425Y043103D01*
X024385Y043199D01*
X024322Y043282D01*
X024239Y043345D01*
X024143Y043385D01*
X024040Y043399D01*
D02*
G37*
G36*
X025040D02*
X024937Y043385D01*
X024841Y043345D01*
X024758Y043282D01*
X024695Y043199D01*
X024655Y043103D01*
X024641Y043000D01*
X024655Y042897D01*
X024695Y042801D01*
X024758Y042718D01*
X024841Y042655D01*
X024937Y042615D01*
X025040Y042601D01*
X025143Y042615D01*
X025239Y042655D01*
X025322Y042718D01*
X025385Y042801D01*
X025425Y042897D01*
X025439Y043000D01*
X025425Y043103D01*
X025385Y043199D01*
X025322Y043282D01*
X025239Y043345D01*
X025143Y043385D01*
X025040Y043399D01*
D02*
G37*
G36*
X029790D02*
X029687Y043385D01*
X029591Y043345D01*
X029508Y043282D01*
X029445Y043199D01*
X029405Y043103D01*
X029391Y043000D01*
X029405Y042897D01*
X029445Y042801D01*
X029508Y042718D01*
X029591Y042655D01*
X029687Y042615D01*
X029790Y042601D01*
X029893Y042615D01*
X029989Y042655D01*
X030072Y042718D01*
X030135Y042801D01*
X030175Y042897D01*
X030189Y043000D01*
X030175Y043103D01*
X030135Y043199D01*
X030072Y043282D01*
X029989Y043345D01*
X029893Y043385D01*
X029790Y043399D01*
D02*
G37*
G36*
X034790D02*
X034687Y043385D01*
X034591Y043345D01*
X034508Y043282D01*
X034445Y043199D01*
X034405Y043103D01*
X034391Y043000D01*
X034405Y042897D01*
X034445Y042801D01*
X034508Y042718D01*
X034591Y042655D01*
X034687Y042615D01*
X034790Y042601D01*
X034893Y042615D01*
X034989Y042655D01*
X035072Y042718D01*
X035135Y042801D01*
X035175Y042897D01*
X035189Y043000D01*
X035175Y043103D01*
X035135Y043199D01*
X035072Y043282D01*
X034989Y043345D01*
X034893Y043385D01*
X034790Y043399D01*
D02*
G37*
G36*
X043540D02*
X043437Y043385D01*
X043341Y043345D01*
X043258Y043282D01*
X043195Y043199D01*
X043155Y043103D01*
X043141Y043000D01*
X043155Y042897D01*
X043195Y042801D01*
X043258Y042718D01*
X043341Y042655D01*
X043437Y042615D01*
X043540Y042601D01*
X043643Y042615D01*
X043739Y042655D01*
X043822Y042718D01*
X043885Y042801D01*
X043925Y042897D01*
X043939Y043000D01*
X043925Y043103D01*
X043885Y043199D01*
X043822Y043282D01*
X043739Y043345D01*
X043643Y043385D01*
X043540Y043399D01*
D02*
G37*
G36*
X044540D02*
X044437Y043385D01*
X044341Y043345D01*
X044258Y043282D01*
X044195Y043199D01*
X044155Y043103D01*
X044141Y043000D01*
X044155Y042897D01*
X044195Y042801D01*
X044258Y042718D01*
X044341Y042655D01*
X044437Y042615D01*
X044540Y042601D01*
X044643Y042615D01*
X044739Y042655D01*
X044822Y042718D01*
X044885Y042801D01*
X044925Y042897D01*
X044939Y043000D01*
X044925Y043103D01*
X044885Y043199D01*
X044822Y043282D01*
X044739Y043345D01*
X044643Y043385D01*
X044540Y043399D01*
D02*
G37*
G36*
X045540D02*
X045437Y043385D01*
X045341Y043345D01*
X045258Y043282D01*
X045195Y043199D01*
X045155Y043103D01*
X045141Y043000D01*
X045155Y042897D01*
X045195Y042801D01*
X045258Y042718D01*
X045341Y042655D01*
X045437Y042615D01*
X045540Y042601D01*
X045643Y042615D01*
X045739Y042655D01*
X045822Y042718D01*
X045885Y042801D01*
X045925Y042897D01*
X045939Y043000D01*
X045925Y043103D01*
X045885Y043199D01*
X045822Y043282D01*
X045739Y043345D01*
X045643Y043385D01*
X045540Y043399D01*
D02*
G37*
G36*
X042540D02*
X042437Y043385D01*
X042341Y043345D01*
X042258Y043282D01*
X042195Y043199D01*
X042155Y043103D01*
X042141Y043000D01*
X042155Y042897D01*
X042195Y042801D01*
X042258Y042718D01*
X042341Y042655D01*
X042437Y042615D01*
X042540Y042601D01*
X042643Y042615D01*
X042739Y042655D01*
X042822Y042718D01*
X042885Y042801D01*
X042925Y042897D01*
X042939Y043000D01*
X042925Y043103D01*
X042885Y043199D01*
X042822Y043282D01*
X042739Y043345D01*
X042643Y043385D01*
X042540Y043399D01*
D02*
G37*
G36*
X035790D02*
X035687Y043385D01*
X035591Y043345D01*
X035508Y043282D01*
X035445Y043199D01*
X035405Y043103D01*
X035391Y043000D01*
X035405Y042897D01*
X035445Y042801D01*
X035508Y042718D01*
X035591Y042655D01*
X035687Y042615D01*
X035790Y042601D01*
X035893Y042615D01*
X035989Y042655D01*
X036072Y042718D01*
X036135Y042801D01*
X036175Y042897D01*
X036189Y043000D01*
X036175Y043103D01*
X036135Y043199D01*
X036072Y043282D01*
X035989Y043345D01*
X035893Y043385D01*
X035790Y043399D01*
D02*
G37*
G36*
X036790D02*
X036687Y043385D01*
X036591Y043345D01*
X036508Y043282D01*
X036445Y043199D01*
X036405Y043103D01*
X036391Y043000D01*
X036405Y042897D01*
X036445Y042801D01*
X036508Y042718D01*
X036591Y042655D01*
X036687Y042615D01*
X036790Y042601D01*
X036893Y042615D01*
X036989Y042655D01*
X037072Y042718D01*
X037135Y042801D01*
X037175Y042897D01*
X037189Y043000D01*
X037175Y043103D01*
X037135Y043199D01*
X037072Y043282D01*
X036989Y043345D01*
X036893Y043385D01*
X036790Y043399D01*
D02*
G37*
G36*
X041540D02*
X041437Y043385D01*
X041341Y043345D01*
X041258Y043282D01*
X041195Y043199D01*
X041155Y043103D01*
X041141Y043000D01*
X041155Y042897D01*
X041195Y042801D01*
X041258Y042718D01*
X041341Y042655D01*
X041437Y042615D01*
X041540Y042601D01*
X041643Y042615D01*
X041739Y042655D01*
X041822Y042718D01*
X041885Y042801D01*
X041925Y042897D01*
X041939Y043000D01*
X041925Y043103D01*
X041885Y043199D01*
X041822Y043282D01*
X041739Y043345D01*
X041643Y043385D01*
X041540Y043399D01*
D02*
G37*
G36*
X044249Y035560D02*
X043235D01*
X043239Y035537D01*
X043276Y035482D01*
X043239Y035428D01*
X043225Y035354D01*
X043239Y035281D01*
X043281Y035218D01*
X043343Y035177D01*
X043417Y035162D01*
X044067D01*
X044140Y035177D01*
X044202Y035218D01*
X044244Y035281D01*
X044259Y035354D01*
X044244Y035428D01*
X044208Y035482D01*
X044244Y035537D01*
X044249Y035560D01*
D02*
G37*
G36*
X019745Y028050D02*
X019550D01*
Y027855D01*
X019598Y027864D01*
X019680Y027920D01*
X019735Y028002D01*
X019745Y028050D01*
D02*
G37*
G36*
X017085Y028200D02*
X016838D01*
Y027894D01*
X017085D01*
Y028200D01*
D02*
G37*
G36*
X018450Y028100D02*
X018255D01*
X018264Y028052D01*
X018320Y027970D01*
X018402Y027915D01*
X018450Y027905D01*
Y028100D01*
D02*
G37*
G36*
X019450Y028050D02*
X019255D01*
X019265Y028002D01*
X019320Y027920D01*
X019402Y027864D01*
X019450Y027855D01*
Y028050D01*
D02*
G37*
G36*
X022400Y027905D02*
X022302Y027885D01*
X022220Y027830D01*
X022164Y027748D01*
X022145Y027650D01*
X022164Y027552D01*
X022220Y027470D01*
X022247Y027452D01*
Y027385D01*
X022201Y027365D01*
X021948Y027618D01*
X021955Y027650D01*
X021936Y027748D01*
X021880Y027830D01*
X021798Y027885D01*
X021700Y027905D01*
X021602Y027885D01*
X021520Y027830D01*
X021465Y027748D01*
X021445Y027650D01*
X021465Y027552D01*
X021520Y027470D01*
X021602Y027415D01*
X021700Y027395D01*
X021732Y027402D01*
X022047Y027087D01*
Y024072D01*
X022003Y024048D01*
X021948Y024086D01*
X021850Y024105D01*
X021752Y024086D01*
X021670Y024030D01*
X021614Y023948D01*
X021595Y023850D01*
X021597Y023842D01*
X021565Y023803D01*
X020222D01*
X020198Y023847D01*
X020236Y023902D01*
X020255Y024000D01*
X020236Y024098D01*
X020180Y024180D01*
X020153Y024198D01*
Y025650D01*
X020141Y025709D01*
X020108Y025758D01*
X019365Y026501D01*
X019385Y026547D01*
X020202D01*
X020220Y026520D01*
X020302Y026465D01*
X020400Y026445D01*
X020498Y026465D01*
X020580Y026520D01*
X020635Y026602D01*
X020655Y026700D01*
X020635Y026798D01*
X020580Y026880D01*
X020498Y026936D01*
X020400Y026955D01*
X020302Y026936D01*
X020220Y026880D01*
X020202Y026853D01*
X019313D01*
X019058Y027108D01*
X019009Y027141D01*
X018950Y027153D01*
X017601D01*
X017543Y027141D01*
X017493Y027108D01*
X017358Y026973D01*
X017326Y026979D01*
X017228Y026960D01*
X017145Y026905D01*
X017090Y026822D01*
X017071Y026724D01*
X017090Y026627D01*
X017145Y026544D01*
X017147Y026543D01*
Y025283D01*
X017023D01*
Y024768D01*
X017023Y024768D01*
X017023Y024732D01*
X017023D01*
Y024524D01*
X017577D01*
Y024732D01*
D01*
Y024732D01*
X017577Y024732D01*
Y024768D01*
X017577D01*
Y025283D01*
X017453D01*
Y026509D01*
X017506Y026544D01*
X017561Y026627D01*
X017580Y026724D01*
X017574Y026757D01*
X017665Y026847D01*
X017778D01*
X017802Y026803D01*
X017765Y026748D01*
X017745Y026650D01*
X017765Y026552D01*
X017820Y026470D01*
X017902Y026414D01*
X018000Y026395D01*
X018065Y026408D01*
X018100Y026373D01*
X018096Y026350D01*
X018115Y026252D01*
X018170Y026170D01*
X018253Y026114D01*
X018236Y026030D01*
X018214Y025998D01*
X018195Y025900D01*
X018202Y025868D01*
X017892Y025558D01*
X017859Y025509D01*
X017847Y025450D01*
Y024198D01*
X017820Y024180D01*
X017765Y024098D01*
X017748Y024013D01*
X017699Y024003D01*
X017680Y024030D01*
X017598Y024086D01*
X017500Y024105D01*
X017402Y024086D01*
X017320Y024030D01*
X017264Y023948D01*
X017245Y023850D01*
X017264Y023752D01*
X017320Y023670D01*
X017402Y023614D01*
X017500Y023595D01*
X017532Y023602D01*
X017592Y023542D01*
X017641Y023509D01*
X017700Y023497D01*
X021650D01*
X021709Y023509D01*
X021758Y023542D01*
X021758Y023542D01*
X021758Y023542D01*
X021818Y023602D01*
X021850Y023595D01*
X021948Y023614D01*
X022003Y023652D01*
X022047Y023628D01*
Y021813D01*
X019887Y019653D01*
X018750D01*
X018691Y019641D01*
X018642Y019608D01*
X018392Y019358D01*
X018359Y019309D01*
X018347Y019250D01*
Y019233D01*
X018223D01*
Y018718D01*
X018223Y018718D01*
X018223Y018682D01*
X018223D01*
Y018167D01*
X018299D01*
X018318Y018121D01*
X018126Y017928D01*
X017959D01*
X017949Y017952D01*
X017885Y018035D01*
X017802Y018099D01*
X017704Y018140D01*
X017600Y018153D01*
X017496Y018140D01*
X017398Y018099D01*
X017315Y018035D01*
X017251Y017952D01*
X017210Y017854D01*
X017197Y017750D01*
X017210Y017646D01*
X017251Y017548D01*
X017315Y017465D01*
X017398Y017401D01*
X017496Y017360D01*
X017600Y017347D01*
X017704Y017360D01*
X017802Y017401D01*
X017885Y017465D01*
X017949Y017548D01*
X017959Y017572D01*
X018200D01*
X018268Y017585D01*
X018326Y017624D01*
X018626Y017924D01*
X018665Y017982D01*
X018678Y018050D01*
Y018167D01*
X018777D01*
Y018682D01*
D01*
Y018682D01*
X018777Y018682D01*
Y018718D01*
X018777D01*
Y019233D01*
X018765D01*
X018746Y019279D01*
X018813Y019347D01*
X019827D01*
X019859Y019309D01*
D01*
X019859D01*
X019847Y019250D01*
Y019233D01*
X019723D01*
Y018718D01*
X019723Y018718D01*
X019723Y018682D01*
X019723D01*
Y018167D01*
X020277D01*
Y018222D01*
X021176D01*
X021520Y017878D01*
X021510Y017854D01*
X021497Y017750D01*
X021510Y017646D01*
X021551Y017548D01*
X021615Y017465D01*
X021698Y017401D01*
X021796Y017360D01*
X021900Y017347D01*
X022004Y017360D01*
X022102Y017401D01*
X022185Y017465D01*
X022249Y017548D01*
X022290Y017646D01*
X022303Y017750D01*
X022290Y017854D01*
X022249Y017952D01*
X022185Y018035D01*
X022102Y018099D01*
X022004Y018140D01*
X021900Y018153D01*
X021796Y018140D01*
X021772Y018130D01*
X021376Y018526D01*
X021318Y018565D01*
X021250Y018578D01*
X020277D01*
Y018682D01*
D01*
Y018682D01*
X020277Y018682D01*
Y018718D01*
X020277D01*
Y019233D01*
X020265D01*
X020246Y019279D01*
X021508Y020542D01*
X021508Y020542D01*
X022508Y021542D01*
X022541Y021591D01*
X022553Y021650D01*
X022553Y021650D01*
X022553Y021650D01*
Y021650D01*
Y027452D01*
X022580Y027470D01*
X022636Y027552D01*
X022655Y027650D01*
X022636Y027748D01*
X022580Y027830D01*
X022498Y027885D01*
X022400Y027905D01*
D02*
G37*
G36*
X061800Y028399D02*
X061697Y028385D01*
X061601Y028345D01*
X061518Y028282D01*
X061478Y028229D01*
X061250D01*
X061162Y028212D01*
X061088Y028162D01*
X059838Y026912D01*
X059788Y026838D01*
X059771Y026750D01*
Y022645D01*
X057588Y020462D01*
X057538Y020388D01*
X057521Y020300D01*
Y017497D01*
X057454Y017446D01*
X057388Y017359D01*
X057346Y017258D01*
X057331Y017150D01*
X057346Y017042D01*
X057388Y016941D01*
X057454Y016854D01*
X057541Y016788D01*
X057642Y016746D01*
X057750Y016731D01*
X057858Y016746D01*
X057959Y016788D01*
X058046Y016854D01*
X058112Y016941D01*
X058154Y017042D01*
X058169Y017150D01*
X058154Y017258D01*
X058112Y017359D01*
X058046Y017446D01*
X057979Y017497D01*
Y020205D01*
X060162Y022388D01*
X060212Y022462D01*
X060229Y022550D01*
X060229Y022550D01*
X060229Y022550D01*
Y022550D01*
Y026655D01*
X061345Y027771D01*
X061478D01*
X061518Y027718D01*
X061601Y027655D01*
X061697Y027615D01*
X061800Y027601D01*
X061903Y027615D01*
X061999Y027655D01*
X062082Y027718D01*
X062145Y027801D01*
X062185Y027897D01*
X062199Y028000D01*
X062185Y028103D01*
X062145Y028199D01*
X062082Y028282D01*
X061999Y028345D01*
X061903Y028385D01*
X061800Y028399D01*
D02*
G37*
G36*
X044050Y029155D02*
X043952Y029135D01*
X043870Y029080D01*
X043815Y028998D01*
X043795Y028900D01*
X043815Y028802D01*
X043870Y028720D01*
X043897Y028702D01*
Y028198D01*
X043870Y028180D01*
X043815Y028098D01*
X043795Y028000D01*
X043815Y027902D01*
X043870Y027820D01*
X043952Y027764D01*
X044050Y027745D01*
X044148Y027764D01*
X044230Y027820D01*
X044285Y027902D01*
X044305Y028000D01*
X044285Y028098D01*
X044230Y028180D01*
X044203Y028198D01*
Y028702D01*
X044230Y028720D01*
X044285Y028802D01*
X044305Y028900D01*
X044285Y028998D01*
X044230Y029080D01*
X044148Y029135D01*
X044050Y029155D01*
D02*
G37*
G36*
X018745Y028100D02*
X018550D01*
Y027905D01*
X018598Y027915D01*
X018680Y027970D01*
X018736Y028052D01*
X018745Y028100D01*
D02*
G37*
G36*
X019450Y028345D02*
X019402Y028335D01*
X019320Y028280D01*
X019265Y028198D01*
X019255Y028150D01*
X019450D01*
Y028345D01*
D02*
G37*
G36*
X019550D02*
Y028150D01*
X019745D01*
X019735Y028198D01*
X019680Y028280D01*
X019598Y028335D01*
X019550Y028345D01*
D02*
G37*
G36*
X018450Y028395D02*
X018402Y028386D01*
X018320Y028330D01*
X018264Y028248D01*
X018255Y028200D01*
X018450D01*
Y028395D01*
D02*
G37*
G36*
X026255Y028739D02*
Y028100D01*
X026894D01*
X026886Y028185D01*
X026846Y028316D01*
X026782Y028436D01*
X026696Y028541D01*
X026591Y028627D01*
X026471Y028691D01*
X026340Y028731D01*
X026255Y028739D01*
D02*
G37*
G36*
X032850Y028209D02*
X032655D01*
X032664Y028162D01*
X032720Y028079D01*
X032802Y028024D01*
X032850Y028014D01*
Y028209D01*
D02*
G37*
G36*
X033145D02*
X032950D01*
Y028014D01*
X032998Y028024D01*
X033080Y028079D01*
X033135Y028162D01*
X033145Y028209D01*
D02*
G37*
G36*
X026155Y028739D02*
X026070Y028731D01*
X025940Y028691D01*
X025820Y028627D01*
X025714Y028541D01*
X025628Y028436D01*
X025564Y028316D01*
X025525Y028185D01*
X025516Y028100D01*
X026155D01*
Y028739D01*
D02*
G37*
G36*
X035900Y026395D02*
Y026200D01*
X036095D01*
X036086Y026248D01*
X036030Y026330D01*
X035948Y026386D01*
X035900Y026395D01*
D02*
G37*
G36*
X062195Y027395D02*
X061405D01*
Y026605D01*
X062195D01*
Y026822D01*
X063676D01*
X063996Y026502D01*
X063995Y026500D01*
X064015Y026402D01*
X064070Y026320D01*
X064152Y026265D01*
X064250Y026245D01*
X064348Y026265D01*
X064430Y026320D01*
X064486Y026402D01*
X064505Y026500D01*
X064486Y026598D01*
X064430Y026680D01*
X064348Y026735D01*
X064250Y026755D01*
X064248Y026754D01*
X063876Y027126D01*
X063818Y027165D01*
X063750Y027178D01*
X062195D01*
Y027395D01*
D02*
G37*
G36*
X021000Y027605D02*
X020902Y027585D01*
X020820Y027530D01*
X020765Y027448D01*
X020745Y027350D01*
X020765Y027252D01*
X020820Y027170D01*
X020902Y027115D01*
X021000Y027095D01*
X021032Y027102D01*
X021124Y027009D01*
Y026915D01*
X021000D01*
Y026400D01*
X021000Y026400D01*
X021000Y026364D01*
X021000D01*
Y026156D01*
X021554D01*
Y026364D01*
D01*
Y026364D01*
X021554Y026364D01*
Y026400D01*
X021554D01*
Y026915D01*
X021430D01*
Y027073D01*
X021418Y027131D01*
X021385Y027181D01*
X021248Y027318D01*
X021255Y027350D01*
X021235Y027448D01*
X021180Y027530D01*
X021098Y027585D01*
X021000Y027605D01*
D02*
G37*
G36*
X035800Y026395D02*
X035752Y026386D01*
X035670Y026330D01*
X035615Y026248D01*
X035605Y026200D01*
X035800D01*
Y026395D01*
D02*
G37*
G36*
X021554Y026056D02*
X021327D01*
Y025849D01*
X021554D01*
Y026056D01*
D02*
G37*
G36*
X035800Y026100D02*
X035605D01*
X035615Y026052D01*
X035670Y025970D01*
X035752Y025914D01*
X035800Y025905D01*
Y026100D01*
D02*
G37*
G36*
X036095D02*
X035900D01*
Y025905D01*
X035948Y025914D01*
X036030Y025970D01*
X036086Y026052D01*
X036095Y026100D01*
D02*
G37*
G36*
X038600Y027050D02*
X038405D01*
X038414Y027002D01*
X038470Y026920D01*
X038552Y026865D01*
X038600Y026855D01*
Y027050D01*
D02*
G37*
G36*
X029158Y028744D02*
X029023Y028731D01*
X028892Y028691D01*
X028772Y028627D01*
X028667Y028541D01*
X028581Y028436D01*
X028517Y028316D01*
X028477Y028185D01*
X028464Y028050D01*
X028477Y027915D01*
X028517Y027784D01*
X028581Y027664D01*
X028667Y027559D01*
X028772Y027473D01*
X028892Y027409D01*
X029023Y027369D01*
X029158Y027356D01*
X029293Y027369D01*
X029423Y027409D01*
X029543Y027473D01*
X029649Y027559D01*
X029735Y027664D01*
X029799Y027784D01*
X029838Y027915D01*
X029852Y028050D01*
X029838Y028185D01*
X029799Y028316D01*
X029735Y028436D01*
X029649Y028541D01*
X029543Y028627D01*
X029423Y028691D01*
X029293Y028731D01*
X029158Y028744D01*
D02*
G37*
G36*
X026155Y028000D02*
X025516D01*
X025525Y027915D01*
X025564Y027784D01*
X025628Y027664D01*
X025714Y027559D01*
X025820Y027473D01*
X025940Y027409D01*
X026070Y027369D01*
X026155Y027361D01*
Y028000D01*
D02*
G37*
G36*
X026894D02*
X026255D01*
Y027361D01*
X026340Y027369D01*
X026471Y027409D01*
X026591Y027473D01*
X026696Y027559D01*
X026782Y027664D01*
X026846Y027784D01*
X026886Y027915D01*
X026894Y028000D01*
D02*
G37*
G36*
X022950Y028655D02*
X022852Y028635D01*
X022770Y028580D01*
X022715Y028498D01*
X022695Y028400D01*
X022715Y028302D01*
X022770Y028220D01*
X022852Y028165D01*
X022950Y028145D01*
X022982Y028152D01*
X024142Y026992D01*
X024191Y026959D01*
X024250Y026947D01*
X027552D01*
X027570Y026920D01*
X027652Y026865D01*
X027750Y026845D01*
X027848Y026865D01*
X027930Y026920D01*
X027948Y026947D01*
X030050D01*
X030109Y026959D01*
X030158Y026992D01*
X030464Y027297D01*
X030534D01*
X030549Y027249D01*
X030520Y027230D01*
X030464Y027148D01*
X030445Y027050D01*
X030450Y027027D01*
X029081Y025658D01*
X028306D01*
X028300Y025657D01*
X028294Y025658D01*
X028236Y025647D01*
X028186Y025614D01*
X027785Y025212D01*
X027423D01*
Y024304D01*
X027567D01*
Y024127D01*
X027468D01*
D01*
D01*
X027468Y024127D01*
X027432D01*
Y024127D01*
X027224D01*
Y023850D01*
Y023573D01*
X027432D01*
Y023573D01*
X027432D01*
X027432Y023573D01*
X027468D01*
Y023573D01*
X027983D01*
Y024127D01*
X027873D01*
Y024304D01*
X028017D01*
Y025012D01*
X028358Y025353D01*
X029144D01*
X029203Y025364D01*
X029253Y025397D01*
X030634Y026779D01*
X030682Y026766D01*
X030682Y026767D01*
X030687Y026753D01*
X029146Y025212D01*
X028683D01*
Y024304D01*
X028827D01*
Y024127D01*
X028717D01*
Y023573D01*
X029232D01*
Y023573D01*
X029232D01*
X029232Y023573D01*
X029268D01*
Y023573D01*
X029476D01*
Y023850D01*
Y024127D01*
X029268D01*
D01*
D01*
X029268Y024127D01*
X029232D01*
Y024127D01*
X029133D01*
Y024304D01*
X029277D01*
Y024910D01*
X031168Y026802D01*
X031200Y026795D01*
X031298Y026814D01*
X031380Y026870D01*
X031435Y026952D01*
X031455Y027050D01*
X031435Y027148D01*
X031380Y027230D01*
X031351Y027249D01*
X031366Y027297D01*
X031452D01*
X031470Y027270D01*
X031552Y027215D01*
X031650Y027195D01*
X031748Y027215D01*
X031830Y027270D01*
X031885Y027353D01*
X031905Y027450D01*
X031885Y027548D01*
X031830Y027631D01*
X031748Y027686D01*
X031650Y027705D01*
X031552Y027686D01*
X031470Y027631D01*
X031452Y027603D01*
X030400D01*
X030342Y027592D01*
X030292Y027558D01*
X029987Y027253D01*
X027948D01*
X027930Y027280D01*
X027848Y027336D01*
X027750Y027355D01*
X027652Y027336D01*
X027570Y027280D01*
X027552Y027253D01*
X024313D01*
X023198Y028368D01*
X023205Y028400D01*
X023186Y028498D01*
X023130Y028580D01*
X023048Y028635D01*
X022950Y028655D01*
D02*
G37*
G36*
X038895Y027050D02*
X038700D01*
Y026855D01*
X038748Y026865D01*
X038830Y026920D01*
X038886Y027002D01*
X038895Y027050D01*
D02*
G37*
G36*
X038600Y027345D02*
X038552Y027336D01*
X038470Y027280D01*
X038414Y027198D01*
X038405Y027150D01*
X038600D01*
Y027345D01*
D02*
G37*
G36*
X038700D02*
Y027150D01*
X038895D01*
X038886Y027198D01*
X038830Y027280D01*
X038748Y027336D01*
X038700Y027345D01*
D02*
G37*
G36*
X018550Y028395D02*
Y028200D01*
X018745D01*
X018736Y028248D01*
X018680Y028330D01*
X018598Y028386D01*
X018550Y028395D01*
D02*
G37*
G36*
X018700Y033300D02*
X018505D01*
X018514Y033252D01*
X018570Y033170D01*
X018652Y033115D01*
X018700Y033105D01*
Y033300D01*
D02*
G37*
G36*
X018995D02*
X018800D01*
Y033105D01*
X018848Y033115D01*
X018930Y033170D01*
X018986Y033252D01*
X018995Y033300D01*
D02*
G37*
G36*
X018700Y033595D02*
X018652Y033586D01*
X018570Y033530D01*
X018514Y033448D01*
X018505Y033400D01*
X018700D01*
Y033595D01*
D02*
G37*
G36*
X022700Y032795D02*
Y032600D01*
X022895D01*
X022885Y032648D01*
X022830Y032730D01*
X022748Y032785D01*
X022700Y032795D01*
D02*
G37*
G36*
X022895Y032500D02*
X022700D01*
Y032305D01*
X022748Y032315D01*
X022830Y032370D01*
X022885Y032452D01*
X022895Y032500D01*
D02*
G37*
G36*
X036100Y033305D02*
X036002Y033286D01*
X035920Y033230D01*
X035902Y033203D01*
X035600D01*
X035541Y033191D01*
X035492Y033158D01*
X035142Y032808D01*
X035109Y032759D01*
X035097Y032700D01*
Y031963D01*
X034037Y030903D01*
X027916D01*
X027902Y030951D01*
X027930Y030970D01*
X027985Y031052D01*
X028005Y031150D01*
X027998Y031182D01*
X028513Y031697D01*
X028802D01*
X028820Y031670D01*
X028902Y031614D01*
X029000Y031595D01*
X029098Y031614D01*
X029180Y031670D01*
X029235Y031752D01*
X029255Y031850D01*
X029235Y031948D01*
X029180Y032030D01*
X029153Y032048D01*
Y032337D01*
X029513Y032697D01*
X030102D01*
X030120Y032670D01*
X030202Y032615D01*
X030300Y032595D01*
X030398Y032615D01*
X030480Y032670D01*
X030536Y032752D01*
X030555Y032850D01*
X030536Y032948D01*
X030480Y033030D01*
X030398Y033085D01*
X030300Y033105D01*
X030202Y033085D01*
X030120Y033030D01*
X030102Y033003D01*
X029450D01*
X029391Y032991D01*
X029342Y032958D01*
X028892Y032508D01*
X028859Y032459D01*
X028847Y032400D01*
Y032048D01*
X028820Y032030D01*
X028802Y032003D01*
X028450D01*
X028401Y031993D01*
X028391Y031991D01*
X028342Y031958D01*
X027782Y031398D01*
X027750Y031405D01*
X027652Y031386D01*
X027570Y031330D01*
X027515Y031248D01*
X027495Y031150D01*
X027515Y031052D01*
X027570Y030970D01*
X027598Y030951D01*
X027584Y030903D01*
X025113D01*
X024608Y031408D01*
X024559Y031441D01*
X024500Y031453D01*
X022913D01*
X021608Y032758D01*
X021559Y032791D01*
X021500Y032803D01*
X018948D01*
X018930Y032830D01*
X018848Y032885D01*
X018750Y032905D01*
X018652Y032885D01*
X018570Y032830D01*
X018514Y032748D01*
X018495Y032650D01*
X018514Y032552D01*
X018570Y032470D01*
X018652Y032415D01*
X018750Y032395D01*
X018848Y032415D01*
X018863Y032425D01*
X018904Y032397D01*
X018895Y032350D01*
X018915Y032252D01*
X018970Y032170D01*
X019052Y032115D01*
X019150Y032095D01*
X019226Y032110D01*
X019250Y032066D01*
X019192Y032008D01*
X019159Y031959D01*
X019147Y031900D01*
Y030163D01*
X019082Y030098D01*
X019050Y030105D01*
X018952Y030085D01*
X018870Y030030D01*
X018815Y029948D01*
X018795Y029850D01*
X018815Y029752D01*
X018870Y029670D01*
X018952Y029615D01*
X019012Y029603D01*
X019007Y029553D01*
X016848D01*
X016830Y029580D01*
X016748Y029636D01*
X016650Y029655D01*
X016552Y029636D01*
X016470Y029580D01*
X016415Y029498D01*
X016395Y029400D01*
X016415Y029302D01*
X016470Y029220D01*
X016552Y029165D01*
X016650Y029145D01*
X016748Y029165D01*
X016830Y029220D01*
X016848Y029247D01*
X019287D01*
X019387Y029146D01*
X019364Y029102D01*
X019350Y029105D01*
X019252Y029086D01*
X019170Y029030D01*
X019115Y028948D01*
X019095Y028850D01*
X019115Y028752D01*
X019170Y028670D01*
X019252Y028614D01*
X019350Y028595D01*
X019448Y028614D01*
X019530Y028670D01*
X019548Y028697D01*
X022300D01*
X022359Y028709D01*
X022408Y028742D01*
X022808Y029142D01*
X022841Y029191D01*
X022843Y029201D01*
X022853Y029250D01*
Y029804D01*
X022987Y029938D01*
X023037Y029931D01*
X023052Y029903D01*
X023015Y029848D01*
X022995Y029750D01*
X023015Y029652D01*
X023070Y029570D01*
X023152Y029515D01*
X023250Y029495D01*
X023348Y029515D01*
X023430Y029570D01*
X023448Y029597D01*
X023528D01*
X023552Y029553D01*
X023514Y029498D01*
X023495Y029400D01*
X023514Y029302D01*
X023555Y029241D01*
X023528Y029200D01*
X023500Y029205D01*
X023402Y029186D01*
X023320Y029130D01*
X023265Y029048D01*
X023245Y028950D01*
X023265Y028853D01*
X023320Y028770D01*
X023402Y028715D01*
X023500Y028695D01*
X023598Y028715D01*
X023680Y028770D01*
X023698Y028797D01*
X030434D01*
X030448Y028749D01*
X030420Y028730D01*
X030364Y028648D01*
X030345Y028550D01*
X030364Y028452D01*
X030420Y028370D01*
X030502Y028314D01*
X030600Y028295D01*
X030632Y028302D01*
X030842Y028092D01*
X030891Y028059D01*
X030950Y028047D01*
X031787D01*
X032897Y026937D01*
Y025848D01*
X032870Y025830D01*
X032815Y025748D01*
X032795Y025650D01*
X032815Y025552D01*
X032870Y025470D01*
X032952Y025415D01*
X033050Y025395D01*
X033148Y025415D01*
X033230Y025470D01*
X033250Y025499D01*
X033300D01*
X033320Y025470D01*
X033402Y025415D01*
X033500Y025395D01*
X033598Y025415D01*
X033680Y025470D01*
X033735Y025552D01*
X033755Y025650D01*
X033735Y025748D01*
X033680Y025830D01*
X033653Y025848D01*
Y026833D01*
X033641Y026891D01*
X033608Y026941D01*
X031891Y028658D01*
X031841Y028691D01*
X031783Y028703D01*
X031248D01*
X031230Y028730D01*
X031202Y028749D01*
X031216Y028797D01*
X035850D01*
X035909Y028809D01*
X035958Y028842D01*
X035958Y028842D01*
X035958Y028842D01*
X036416Y029300D01*
X036460Y029276D01*
X036445Y029200D01*
X036465Y029102D01*
X036520Y029020D01*
X036602Y028965D01*
X036700Y028945D01*
X036775Y028960D01*
X036810Y028925D01*
X036795Y028850D01*
X036814Y028752D01*
X036870Y028670D01*
X036952Y028614D01*
X037050Y028595D01*
X037148Y028614D01*
X037230Y028670D01*
X037248Y028697D01*
X039754D01*
X042059Y026392D01*
X042109Y026359D01*
X042167Y026347D01*
X043807D01*
X043812Y026297D01*
X043752Y026286D01*
X043670Y026230D01*
X043615Y026148D01*
X043595Y026050D01*
X043615Y025952D01*
X043670Y025870D01*
X043697Y025852D01*
Y025246D01*
X042854Y024403D01*
X038773D01*
X038755Y024430D01*
X038672Y024485D01*
X038575Y024505D01*
X038477Y024485D01*
X038395Y024430D01*
X038339Y024348D01*
X038320Y024250D01*
X038339Y024152D01*
X038395Y024070D01*
X038477Y024014D01*
X038575Y023995D01*
X038672Y024014D01*
X038753Y024068D01*
X038788Y024033D01*
X038765Y023998D01*
X038745Y023900D01*
X038765Y023802D01*
X038820Y023720D01*
X038902Y023665D01*
X039000Y023645D01*
X039098Y023665D01*
X039180Y023720D01*
X039235Y023802D01*
X039254Y023897D01*
X043000D01*
X043059Y023909D01*
X043108Y023942D01*
X044308Y025142D01*
X044341Y025191D01*
X044353Y025250D01*
Y025402D01*
X044380Y025420D01*
X044436Y025502D01*
X044455Y025600D01*
X044436Y025698D01*
X044380Y025780D01*
X044298Y025835D01*
X044200Y025855D01*
X044102Y025835D01*
X044047Y025798D01*
X044021Y025812D01*
X044019Y025862D01*
X044030Y025870D01*
X044085Y025952D01*
X044105Y026050D01*
X044085Y026148D01*
X044030Y026230D01*
X043948Y026286D01*
X043888Y026297D01*
X043893Y026347D01*
X045037D01*
X047247Y024137D01*
Y023698D01*
X047220Y023680D01*
X047175Y023613D01*
X047125D01*
X047080Y023680D01*
X046998Y023735D01*
X046900Y023755D01*
X046802Y023735D01*
X046720Y023680D01*
X046665Y023598D01*
X046645Y023500D01*
X046665Y023402D01*
X046720Y023320D01*
X046747Y023302D01*
Y022300D01*
X046748Y022297D01*
X046747Y022295D01*
X046759Y022236D01*
X046792Y022187D01*
X048692Y020287D01*
X048741Y020254D01*
X048800Y020242D01*
X048826Y020247D01*
X051687D01*
X052347Y019587D01*
Y018783D01*
X052223D01*
Y018268D01*
X052223Y018268D01*
X052223Y018232D01*
X052223D01*
Y017717D01*
X052322D01*
Y017525D01*
X052291Y017512D01*
X052204Y017446D01*
X052138Y017359D01*
X052096Y017258D01*
X052081Y017150D01*
X052096Y017042D01*
X052138Y016941D01*
X052204Y016854D01*
X052291Y016788D01*
X052392Y016746D01*
X052500Y016731D01*
X052608Y016746D01*
X052709Y016788D01*
X052796Y016854D01*
X052862Y016941D01*
X052904Y017042D01*
X052919Y017150D01*
X052904Y017258D01*
X052862Y017359D01*
X052796Y017446D01*
X052709Y017512D01*
X052678Y017525D01*
Y017717D01*
X052777D01*
Y018232D01*
D01*
Y018232D01*
X052777Y018232D01*
Y018268D01*
X052777D01*
Y018783D01*
X052653D01*
Y019548D01*
X052699Y019567D01*
X053347Y018919D01*
Y018783D01*
X053223D01*
Y018268D01*
X053223Y018268D01*
X053223Y018232D01*
X053223D01*
Y017717D01*
X053777D01*
Y017796D01*
X054102D01*
X054322Y017576D01*
Y017525D01*
X054291Y017512D01*
X054204Y017446D01*
X054138Y017359D01*
X054096Y017258D01*
X054081Y017150D01*
X054096Y017042D01*
X054138Y016941D01*
X054204Y016854D01*
X054291Y016788D01*
X054392Y016746D01*
X054500Y016731D01*
X054608Y016746D01*
X054709Y016788D01*
X054796Y016854D01*
X054862Y016941D01*
X054904Y017042D01*
X054919Y017150D01*
X054904Y017258D01*
X054862Y017359D01*
X054796Y017446D01*
X054709Y017512D01*
X054678Y017525D01*
Y017650D01*
X054678Y017650D01*
X054665Y017718D01*
X054646Y017747D01*
X054626Y017776D01*
X054626Y017776D01*
X054302Y018101D01*
X054244Y018139D01*
X054176Y018153D01*
X053777D01*
Y018232D01*
D01*
Y018232D01*
X053777Y018232D01*
Y018268D01*
X053777D01*
Y018783D01*
X053653D01*
Y018983D01*
X053641Y019041D01*
X053608Y019091D01*
X051941Y020758D01*
X051891Y020791D01*
X051833Y020803D01*
X048958D01*
X047553Y022208D01*
Y023302D01*
X047580Y023320D01*
X047635Y023402D01*
X047655Y023500D01*
X047635Y023598D01*
X047580Y023680D01*
X047553Y023698D01*
Y024200D01*
X047541Y024259D01*
X047508Y024308D01*
X046863Y024954D01*
X046886Y024998D01*
X046900Y024995D01*
X046998Y025015D01*
X047080Y025070D01*
X047136Y025152D01*
X047155Y025250D01*
X047136Y025348D01*
X047080Y025430D01*
X046998Y025485D01*
X046900Y025505D01*
X046868Y025498D01*
X045558Y026808D01*
X045509Y026841D01*
X045450Y026853D01*
X042313D01*
X039858Y029308D01*
X039809Y029341D01*
X039750Y029353D01*
X037622D01*
X037598Y029397D01*
X037636Y029452D01*
X037655Y029550D01*
X037636Y029648D01*
X037580Y029730D01*
X037498Y029785D01*
X037400Y029805D01*
X037336Y029792D01*
X037300Y029827D01*
X037305Y029850D01*
X037285Y029948D01*
X037230Y030030D01*
X037148Y030085D01*
X037050Y030105D01*
X036952Y030085D01*
X036870Y030030D01*
X036852Y030003D01*
X036602D01*
X036583Y030049D01*
X037458Y030925D01*
X037491Y030974D01*
X037503Y031033D01*
X037503Y031033D01*
X037503Y031033D01*
Y031033D01*
Y032052D01*
X037530Y032070D01*
X037585Y032152D01*
X037605Y032250D01*
X037585Y032348D01*
X037530Y032430D01*
X037448Y032485D01*
X037350Y032505D01*
X037252Y032485D01*
X037170Y032430D01*
X037115Y032348D01*
X037095Y032250D01*
X037115Y032152D01*
X037170Y032070D01*
X037197Y032052D01*
Y031096D01*
X036500Y030399D01*
X036452Y030414D01*
X036435Y030498D01*
X036400Y030551D01*
Y030560D01*
X036417Y030600D01*
X036459Y030609D01*
X036508Y030642D01*
X036908Y031042D01*
X036941Y031091D01*
X036943Y031101D01*
X036953Y031150D01*
Y032396D01*
X037048Y032415D01*
X037130Y032470D01*
X037185Y032552D01*
X037205Y032650D01*
X037185Y032748D01*
X037130Y032830D01*
X037048Y032885D01*
X036950Y032905D01*
X036852Y032885D01*
X036770Y032830D01*
X036714Y032748D01*
X036695Y032650D01*
X036702Y032618D01*
X036692Y032608D01*
X036659Y032559D01*
X036647Y032500D01*
Y031213D01*
X036337Y030903D01*
X035285D01*
X035265Y030949D01*
X035908Y031592D01*
X035941Y031641D01*
X035953Y031700D01*
Y032002D01*
X035980Y032020D01*
X036035Y032102D01*
X036055Y032200D01*
X036035Y032298D01*
X035980Y032380D01*
X035898Y032436D01*
X035890Y032437D01*
X035880Y032486D01*
X035930Y032520D01*
X035986Y032602D01*
X036005Y032700D01*
X035990Y032775D01*
X036025Y032810D01*
X036100Y032795D01*
X036198Y032815D01*
X036280Y032870D01*
X036335Y032952D01*
X036355Y033050D01*
X036335Y033148D01*
X036280Y033230D01*
X036198Y033286D01*
X036100Y033305D01*
D02*
G37*
G36*
X022600Y032795D02*
X022552Y032785D01*
X022470Y032730D01*
X022415Y032648D01*
X022405Y032600D01*
X022600D01*
Y032795D01*
D02*
G37*
G36*
X018800Y033595D02*
Y033400D01*
X018995D01*
X018986Y033448D01*
X018930Y033530D01*
X018848Y033586D01*
X018800Y033595D01*
D02*
G37*
G36*
X063250Y035709D02*
X063147Y035695D01*
X063051Y035655D01*
X062968Y035592D01*
X062905Y035509D01*
X062865Y035413D01*
X062851Y035310D01*
X062864Y035213D01*
X062691Y035040D01*
X062645Y035059D01*
Y035705D01*
X061855D01*
Y035514D01*
X060060D01*
X059982Y035498D01*
X059916Y035454D01*
X058266Y033804D01*
X053050D01*
X053050Y033804D01*
X052972Y033788D01*
X052906Y033744D01*
X052906Y033744D01*
X052063Y032901D01*
X052050Y032903D01*
X051972Y032892D01*
X051899Y032862D01*
X051836Y032814D01*
X051788Y032751D01*
X051758Y032678D01*
X051747Y032600D01*
X051758Y032522D01*
X051788Y032449D01*
X051836Y032386D01*
X051883Y032350D01*
X051867Y032303D01*
X050363D01*
X049508Y033158D01*
X049459Y033191D01*
X049400Y033203D01*
X039800D01*
X039741Y033191D01*
X039692Y033158D01*
X039632Y033098D01*
X039600Y033105D01*
X039502Y033085D01*
X039420Y033030D01*
X039365Y032948D01*
X039345Y032850D01*
X039365Y032752D01*
X039402Y032697D01*
X039378Y032653D01*
X038398D01*
X038380Y032680D01*
X038298Y032736D01*
X038200Y032755D01*
X038102Y032736D01*
X038020Y032680D01*
X037964Y032598D01*
X037945Y032500D01*
X037964Y032402D01*
X038020Y032320D01*
X038102Y032264D01*
X038200Y032245D01*
X038298Y032264D01*
X038380Y032320D01*
X038398Y032347D01*
X039900D01*
X039959Y032359D01*
X040008Y032392D01*
X040293Y032677D01*
X040343Y032670D01*
X040352Y032653D01*
X040314Y032598D01*
X040295Y032500D01*
X040314Y032402D01*
X040370Y032320D01*
X040452Y032264D01*
X040550Y032245D01*
X040625Y032260D01*
X040660Y032225D01*
X040645Y032150D01*
X040665Y032052D01*
X040702Y031997D01*
X040693Y031980D01*
X040643Y031973D01*
X040558Y032058D01*
X040509Y032091D01*
X040450Y032103D01*
X039848D01*
X039830Y032130D01*
X039748Y032185D01*
X039650Y032205D01*
X039552Y032185D01*
X039470Y032130D01*
X039415Y032048D01*
X039395Y031950D01*
X039415Y031852D01*
X039470Y031770D01*
X039552Y031714D01*
X039650Y031695D01*
X039748Y031714D01*
X039782Y031738D01*
X039818Y031702D01*
X039815Y031698D01*
X039795Y031600D01*
X039815Y031502D01*
X039870Y031420D01*
X039952Y031365D01*
X040050Y031345D01*
X040148Y031365D01*
X040230Y031420D01*
X040248Y031447D01*
X047037D01*
X051142Y027342D01*
X051191Y027309D01*
X051250Y027297D01*
X054250D01*
X054309Y027309D01*
X054358Y027342D01*
X054358Y027342D01*
X054358Y027342D01*
X054663Y027647D01*
X056800D01*
X056859Y027659D01*
X056908Y027692D01*
X056908Y027692D01*
X056908Y027692D01*
X057263Y028047D01*
X058952D01*
X058970Y028020D01*
X059052Y027964D01*
X059150Y027945D01*
X059248Y027964D01*
X059330Y028020D01*
X059385Y028102D01*
X059405Y028200D01*
X059385Y028298D01*
X059330Y028380D01*
X059248Y028435D01*
X059150Y028455D01*
X059052Y028435D01*
X058970Y028380D01*
X058952Y028353D01*
X057200D01*
X057151Y028343D01*
X057141Y028341D01*
X057092Y028308D01*
X056946Y028163D01*
X056902Y028186D01*
X056905Y028200D01*
X056885Y028298D01*
X056830Y028380D01*
X056748Y028435D01*
X056650Y028455D01*
X056552Y028435D01*
X056470Y028380D01*
X056452Y028353D01*
X054700D01*
X054651Y028343D01*
X054641Y028341D01*
X054592Y028308D01*
X054446Y028163D01*
X054402Y028186D01*
X054405Y028200D01*
X054385Y028298D01*
X054330Y028380D01*
X054248Y028435D01*
X054150Y028455D01*
X054052Y028435D01*
X053970Y028380D01*
X053952Y028353D01*
X052150D01*
X052091Y028341D01*
X052042Y028308D01*
X051947Y028213D01*
X051899Y028228D01*
X051885Y028298D01*
X051830Y028380D01*
X051748Y028435D01*
X051650Y028455D01*
X051552Y028435D01*
X051470Y028380D01*
X051458Y028362D01*
X051408Y028357D01*
X047457Y032308D01*
X047407Y032341D01*
X047349Y032353D01*
X041338D01*
X041132Y032558D01*
X041083Y032591D01*
X041024Y032603D01*
X040782D01*
X040748Y032653D01*
X040772Y032697D01*
X049187D01*
X050042Y031842D01*
X050091Y031809D01*
X050122Y031803D01*
X050117Y031753D01*
X049248D01*
X049230Y031780D01*
X049148Y031835D01*
X049050Y031855D01*
X048952Y031835D01*
X048870Y031780D01*
X048815Y031698D01*
X048795Y031600D01*
X048815Y031502D01*
X048870Y031420D01*
X048952Y031365D01*
X049050Y031345D01*
X049148Y031365D01*
X049152Y031368D01*
X049188Y031332D01*
X049165Y031298D01*
X049145Y031200D01*
X049165Y031102D01*
X049220Y031020D01*
X049302Y030965D01*
X049400Y030945D01*
X049498Y030965D01*
X049580Y031020D01*
X049598Y031047D01*
X051850D01*
X051909Y031059D01*
X051958Y031092D01*
X051958Y031092D01*
X051958Y031092D01*
X052313Y031447D01*
X053952D01*
X053970Y031420D01*
X054052Y031365D01*
X054150Y031345D01*
X054248Y031365D01*
X054330Y031420D01*
X054385Y031502D01*
X054405Y031600D01*
X054385Y031698D01*
X054348Y031753D01*
X054372Y031797D01*
X056237D01*
X056402Y031632D01*
X056395Y031600D01*
X056414Y031502D01*
X056470Y031420D01*
X056552Y031365D01*
X056650Y031345D01*
X056748Y031365D01*
X056830Y031420D01*
X056885Y031502D01*
X056905Y031600D01*
X056885Y031698D01*
X056830Y031780D01*
X056748Y031835D01*
X056650Y031855D01*
X056618Y031848D01*
X056515Y031951D01*
X056535Y031997D01*
X058537D01*
X058902Y031632D01*
X058895Y031600D01*
X058914Y031502D01*
X058970Y031420D01*
X059052Y031365D01*
X059150Y031345D01*
X059248Y031365D01*
X059330Y031420D01*
X059385Y031502D01*
X059405Y031600D01*
X059385Y031698D01*
X059330Y031780D01*
X059248Y031835D01*
X059150Y031855D01*
X059118Y031848D01*
X058708Y032258D01*
X058659Y032291D01*
X058600Y032303D01*
X057233D01*
X057217Y032350D01*
X057264Y032386D01*
X057272Y032396D01*
X058750D01*
X058828Y032412D01*
X058894Y032456D01*
X060544Y034106D01*
X061908D01*
X061952Y034049D01*
X061930Y034004D01*
X060750D01*
X060672Y033988D01*
X060606Y033944D01*
X059563Y032901D01*
X059550Y032903D01*
X059472Y032892D01*
X059399Y032862D01*
X059336Y032814D01*
X059288Y032751D01*
X059258Y032678D01*
X059247Y032600D01*
X059258Y032522D01*
X059288Y032449D01*
X059336Y032386D01*
X059399Y032338D01*
X059472Y032308D01*
X059550Y032297D01*
X059628Y032308D01*
X059701Y032338D01*
X059764Y032386D01*
X059812Y032449D01*
X059842Y032522D01*
X059853Y032600D01*
X059851Y032613D01*
X060834Y033596D01*
X061915D01*
X061934Y033556D01*
X061908Y033514D01*
X061610D01*
X061532Y033498D01*
X061466Y033454D01*
X058866Y030854D01*
X056950D01*
X056872Y030838D01*
X056806Y030794D01*
X055916Y029904D01*
X054200D01*
X054122Y029888D01*
X054056Y029844D01*
X053616Y029404D01*
X052272D01*
X052264Y029414D01*
X052201Y029462D01*
X052128Y029492D01*
X052050Y029503D01*
X051972Y029492D01*
X051899Y029462D01*
X051836Y029414D01*
X051788Y029351D01*
X051758Y029278D01*
X051747Y029200D01*
X051758Y029122D01*
X051788Y029049D01*
X051836Y028986D01*
X051899Y028938D01*
X051972Y028908D01*
X052050Y028897D01*
X052128Y028908D01*
X052201Y028938D01*
X052264Y028986D01*
X052272Y028996D01*
X053700D01*
X053778Y029012D01*
X053844Y029056D01*
X054284Y029496D01*
X054365D01*
X054381Y029449D01*
X054336Y029414D01*
X054288Y029351D01*
X054258Y029278D01*
X054247Y029200D01*
X054258Y029122D01*
X054288Y029049D01*
X054336Y028986D01*
X054399Y028938D01*
X054472Y028908D01*
X054550Y028897D01*
X054628Y028908D01*
X054701Y028938D01*
X054764Y028986D01*
X054772Y028996D01*
X056200D01*
X056278Y029012D01*
X056344Y029056D01*
X057234Y029946D01*
X057507D01*
X057512Y029896D01*
X057472Y029888D01*
X057406Y029844D01*
X057063Y029501D01*
X057050Y029503D01*
X056972Y029492D01*
X056899Y029462D01*
X056836Y029414D01*
X056788Y029351D01*
X056758Y029278D01*
X056747Y029200D01*
X056758Y029122D01*
X056788Y029049D01*
X056836Y028986D01*
X056899Y028938D01*
X056972Y028908D01*
X057050Y028897D01*
X057128Y028908D01*
X057201Y028938D01*
X057264Y028986D01*
X057312Y029049D01*
X057342Y029122D01*
X057353Y029200D01*
X057351Y029213D01*
X057634Y029496D01*
X059365D01*
X059381Y029449D01*
X059336Y029414D01*
X059288Y029351D01*
X059258Y029278D01*
X059247Y029200D01*
X059258Y029122D01*
X059288Y029049D01*
X059336Y028986D01*
X059399Y028938D01*
X059472Y028908D01*
X059550Y028897D01*
X059628Y028908D01*
X059701Y028938D01*
X059764Y028986D01*
X059772Y028996D01*
X060140D01*
X060218Y029012D01*
X060284Y029056D01*
X063153Y031924D01*
X063250Y031911D01*
X063353Y031925D01*
X063449Y031965D01*
X063532Y032028D01*
X063595Y032111D01*
X063635Y032207D01*
X063649Y032310D01*
X063635Y032413D01*
X063595Y032509D01*
X063532Y032592D01*
X063449Y032655D01*
X063353Y032695D01*
X063250Y032709D01*
X063147Y032695D01*
X063051Y032655D01*
X062968Y032592D01*
X062905Y032509D01*
X062865Y032413D01*
X062851Y032310D01*
X062864Y032213D01*
X060056Y029404D01*
X059772D01*
X059764Y029414D01*
X059702Y029462D01*
X059713Y029511D01*
X059718Y029512D01*
X059784Y029556D01*
X062153Y031924D01*
X062250Y031911D01*
X062353Y031925D01*
X062449Y031965D01*
X062532Y032028D01*
X062595Y032111D01*
X062635Y032207D01*
X062649Y032310D01*
X062635Y032413D01*
X062595Y032509D01*
X062555Y032561D01*
X062578Y032606D01*
X062750D01*
X062828Y032622D01*
X062894Y032666D01*
X062894Y032666D01*
X062894Y032666D01*
X063153Y032924D01*
X063250Y032911D01*
X063353Y032925D01*
X063449Y032965D01*
X063532Y033028D01*
X063595Y033111D01*
X063635Y033207D01*
X063649Y033310D01*
X063635Y033413D01*
X063595Y033509D01*
X063532Y033592D01*
X063449Y033655D01*
X063353Y033695D01*
X063250Y033709D01*
X063147Y033695D01*
X063051Y033655D01*
X062968Y033592D01*
X062905Y033509D01*
X062865Y033413D01*
X062851Y033310D01*
X062864Y033213D01*
X062666Y033014D01*
X062578D01*
X062555Y033059D01*
X062595Y033111D01*
X062635Y033207D01*
X062649Y033310D01*
X062635Y033413D01*
X062595Y033509D01*
X062563Y033551D01*
X062585Y033596D01*
X062740D01*
X062818Y033612D01*
X062884Y033656D01*
X063153Y033924D01*
X063250Y033911D01*
X063353Y033925D01*
X063449Y033965D01*
X063532Y034028D01*
X063595Y034111D01*
X063635Y034207D01*
X063649Y034310D01*
X063635Y034413D01*
X063595Y034509D01*
X063532Y034592D01*
X063449Y034655D01*
X063353Y034695D01*
X063250Y034709D01*
X063147Y034695D01*
X063051Y034655D01*
X062968Y034592D01*
X062905Y034509D01*
X062865Y034413D01*
X062851Y034310D01*
X062864Y034213D01*
X062656Y034004D01*
X062570D01*
X062548Y034049D01*
X062595Y034111D01*
X062635Y034207D01*
X062649Y034310D01*
X062635Y034413D01*
X062595Y034509D01*
X062563Y034551D01*
X062585Y034596D01*
X062740D01*
X062818Y034612D01*
X062884Y034656D01*
X062884Y034656D01*
X062884Y034656D01*
X063153Y034924D01*
X063250Y034911D01*
X063353Y034925D01*
X063449Y034965D01*
X063532Y035028D01*
X063595Y035111D01*
X063635Y035207D01*
X063649Y035310D01*
X063635Y035413D01*
X063595Y035509D01*
X063532Y035592D01*
X063449Y035655D01*
X063353Y035695D01*
X063250Y035709D01*
D02*
G37*
G36*
X020749Y035560D02*
X019735D01*
X019739Y035537D01*
X019776Y035482D01*
X019739Y035428D01*
X019725Y035354D01*
X019739Y035281D01*
X019781Y035218D01*
X019843Y035177D01*
X019917Y035162D01*
X020567D01*
X020640Y035177D01*
X020703Y035218D01*
X020744Y035281D01*
X020759Y035354D01*
X020744Y035428D01*
X020708Y035482D01*
X020744Y035537D01*
X020749Y035560D01*
D02*
G37*
G36*
X032499D02*
X031485D01*
X031489Y035537D01*
X031526Y035482D01*
X031489Y035428D01*
X031475Y035354D01*
X031489Y035281D01*
X031531Y035218D01*
X031593Y035177D01*
X031667Y035162D01*
X032317D01*
X032390Y035177D01*
X032452Y035218D01*
X032494Y035281D01*
X032509Y035354D01*
X032494Y035428D01*
X032458Y035482D01*
X032494Y035537D01*
X032499Y035560D01*
D02*
G37*
G36*
X035450Y033945D02*
Y033750D01*
X035645D01*
X035635Y033798D01*
X035580Y033880D01*
X035498Y033935D01*
X035450Y033945D01*
D02*
G37*
G36*
X035350Y033650D02*
X035155D01*
X035164Y033602D01*
X035220Y033520D01*
X035302Y033465D01*
X035350Y033455D01*
Y033650D01*
D02*
G37*
G36*
X035645D02*
X035450D01*
Y033455D01*
X035498Y033465D01*
X035580Y033520D01*
X035635Y033602D01*
X035645Y033650D01*
D02*
G37*
G36*
X035350Y033945D02*
X035302Y033935D01*
X035220Y033880D01*
X035164Y033798D01*
X035155Y033750D01*
X035350D01*
Y033945D01*
D02*
G37*
G36*
X018750Y029105D02*
X018652Y029086D01*
X018570Y029030D01*
X018552Y029003D01*
X017850D01*
X017791Y028991D01*
X017742Y028958D01*
X017657Y028873D01*
X017624Y028823D01*
X017612Y028765D01*
Y028606D01*
X017468D01*
D01*
D01*
X017468Y028606D01*
X017432D01*
Y028606D01*
X017185D01*
Y028250D01*
Y027894D01*
X017432D01*
Y027894D01*
X017432D01*
X017432Y027894D01*
X017468D01*
Y027894D01*
X018062D01*
Y028606D01*
X017918D01*
Y028697D01*
X018545D01*
X018550Y028687D01*
X018568Y028673D01*
X018570Y028670D01*
X018579Y028664D01*
X018597Y028649D01*
X018604Y028647D01*
X018652Y028614D01*
X018750Y028595D01*
X018848Y028614D01*
X018930Y028670D01*
X018986Y028752D01*
X019005Y028850D01*
X018986Y028948D01*
X018930Y029030D01*
X018848Y029086D01*
X018750Y029105D01*
D02*
G37*
G36*
X046228Y030177D02*
X046130Y030158D01*
X046047Y030103D01*
X046029Y030075D01*
X045428D01*
X045369Y030064D01*
X045319Y030031D01*
X044419Y029131D01*
X044386Y029081D01*
X044375Y029022D01*
Y027886D01*
X043910Y027421D01*
X043878Y027427D01*
X043780Y027408D01*
X043697Y027353D01*
X043642Y027270D01*
X043623Y027172D01*
X043642Y027075D01*
X043697Y026992D01*
X043780Y026937D01*
X043878Y026918D01*
X043975Y026937D01*
X044058Y026992D01*
X044113Y027075D01*
X044132Y027172D01*
X044126Y027205D01*
X044636Y027714D01*
X044669Y027764D01*
X044681Y027822D01*
Y028959D01*
X045491Y029769D01*
X046029D01*
X046047Y029742D01*
X046130Y029687D01*
X046228Y029668D01*
X046325Y029687D01*
X046408Y029742D01*
X046463Y029825D01*
X046482Y029922D01*
X046463Y030020D01*
X046408Y030103D01*
X046325Y030158D01*
X046228Y030177D01*
D02*
G37*
G36*
X042400Y030200D02*
X042205D01*
X042214Y030152D01*
X042270Y030070D01*
X042352Y030015D01*
X042400Y030005D01*
Y030200D01*
D02*
G37*
G36*
X032950Y028504D02*
Y028309D01*
X033145D01*
X033135Y028357D01*
X033080Y028439D01*
X032998Y028495D01*
X032950Y028504D01*
D02*
G37*
G36*
X036368Y028327D02*
X036340Y028327D01*
X036332D01*
Y028327D01*
X036332D01*
X036332D01*
X035817D01*
Y028203D01*
X035648D01*
X035630Y028230D01*
X035548Y028286D01*
X035450Y028305D01*
X035352Y028286D01*
X035270Y028230D01*
X035215Y028148D01*
X035195Y028050D01*
X035215Y027952D01*
X035270Y027870D01*
X035352Y027815D01*
X035450Y027795D01*
X035548Y027815D01*
X035630Y027870D01*
X035648Y027897D01*
X035817D01*
Y027773D01*
X036332D01*
Y027773D01*
X036332D01*
X036332Y027773D01*
X036368D01*
Y027773D01*
X036883D01*
Y028327D01*
X036368D01*
Y028327D01*
D02*
G37*
G36*
X017085Y028606D02*
X016838D01*
Y028300D01*
X017085D01*
Y028606D01*
D02*
G37*
G36*
X032850Y028504D02*
X032802Y028495D01*
X032720Y028439D01*
X032664Y028357D01*
X032655Y028309D01*
X032850D01*
Y028504D01*
D02*
G37*
G36*
X042695Y030200D02*
X042500D01*
Y030005D01*
X042548Y030015D01*
X042630Y030070D01*
X042685Y030152D01*
X042695Y030200D01*
D02*
G37*
G36*
X038500Y030545D02*
X038452Y030536D01*
X038370Y030480D01*
X038314Y030398D01*
X038305Y030350D01*
X038500D01*
Y030545D01*
D02*
G37*
G36*
X038600D02*
Y030350D01*
X038795D01*
X038786Y030398D01*
X038730Y030480D01*
X038648Y030536D01*
X038600Y030545D01*
D02*
G37*
G36*
X022600Y032500D02*
X022405D01*
X022415Y032452D01*
X022470Y032370D01*
X022552Y032315D01*
X022600Y032305D01*
Y032500D01*
D02*
G37*
G36*
X042500Y030495D02*
Y030300D01*
X042695D01*
X042685Y030348D01*
X042630Y030430D01*
X042548Y030485D01*
X042500Y030495D01*
D02*
G37*
G36*
X038500Y030250D02*
X038305D01*
X038314Y030202D01*
X038370Y030120D01*
X038452Y030064D01*
X038500Y030055D01*
Y030250D01*
D02*
G37*
G36*
X038795D02*
X038600D01*
Y030055D01*
X038648Y030064D01*
X038730Y030120D01*
X038786Y030202D01*
X038795Y030250D01*
D02*
G37*
G36*
X042400Y030495D02*
X042352Y030485D01*
X042270Y030430D01*
X042214Y030348D01*
X042205Y030300D01*
X042400D01*
Y030495D01*
D02*
G37*
%LPD*%
D10*
X020550Y024474D02*
D03*
Y025026D02*
D03*
X017300Y024474D02*
D03*
Y025026D02*
D03*
X019500Y020474D02*
D03*
Y021026D02*
D03*
X019000Y020474D02*
D03*
Y021026D02*
D03*
X021277Y026657D02*
D03*
Y026106D02*
D03*
X034750Y022926D02*
D03*
Y022374D02*
D03*
X023500Y018526D02*
D03*
Y017974D02*
D03*
X032500Y018526D02*
D03*
Y017974D02*
D03*
X033500Y018526D02*
D03*
Y017974D02*
D03*
X020000Y018424D02*
D03*
Y018976D02*
D03*
X018500Y018424D02*
D03*
Y018976D02*
D03*
X052500Y018526D02*
D03*
Y017974D02*
D03*
X053500Y018526D02*
D03*
Y017974D02*
D03*
X056750Y018526D02*
D03*
Y017974D02*
D03*
D11*
X027174Y023850D02*
D03*
X027726D02*
D03*
X030624Y023650D02*
D03*
X031176D02*
D03*
X032576Y023650D02*
D03*
X032024D02*
D03*
X029526Y023850D02*
D03*
X028974D02*
D03*
X029724Y022750D02*
D03*
X030276D02*
D03*
X029724Y022150D02*
D03*
X030276D02*
D03*
X028776Y022150D02*
D03*
X028224D02*
D03*
X028776Y022750D02*
D03*
X028224D02*
D03*
X036074Y028050D02*
D03*
X036626D02*
D03*
D17*
X035800Y039396D02*
D03*
Y040104D02*
D03*
X031800Y040104D02*
D03*
Y039396D02*
D03*
X034800Y039396D02*
D03*
Y040104D02*
D03*
X032800Y040104D02*
D03*
Y039396D02*
D03*
X045550Y039396D02*
D03*
Y040104D02*
D03*
X033800Y039396D02*
D03*
Y040104D02*
D03*
X042550Y040104D02*
D03*
Y039396D02*
D03*
X048550Y039396D02*
D03*
Y040104D02*
D03*
X056300Y040104D02*
D03*
Y039396D02*
D03*
X058300Y039396D02*
D03*
Y040104D02*
D03*
X046550Y039396D02*
D03*
Y040104D02*
D03*
X044550Y040104D02*
D03*
Y039396D02*
D03*
X029800Y040104D02*
D03*
Y039396D02*
D03*
X043550Y040104D02*
D03*
Y039396D02*
D03*
X047550Y039396D02*
D03*
Y040104D02*
D03*
X057300Y039396D02*
D03*
Y040104D02*
D03*
X036800Y039396D02*
D03*
Y040104D02*
D03*
X030800Y040104D02*
D03*
Y039396D02*
D03*
X055300Y040104D02*
D03*
Y039396D02*
D03*
X041550Y040104D02*
D03*
Y039396D02*
D03*
X059300Y039396D02*
D03*
Y040104D02*
D03*
X054300Y040104D02*
D03*
Y039396D02*
D03*
X060300Y039396D02*
D03*
Y040104D02*
D03*
X053300Y040104D02*
D03*
Y039396D02*
D03*
X022050Y039396D02*
D03*
Y040104D02*
D03*
X021050Y040104D02*
D03*
Y039396D02*
D03*
X023050Y039396D02*
D03*
Y040104D02*
D03*
X020050Y040104D02*
D03*
Y039396D02*
D03*
X024050Y039396D02*
D03*
Y040104D02*
D03*
X019050Y040104D02*
D03*
Y039396D02*
D03*
X025050Y039396D02*
D03*
Y040104D02*
D03*
X018050Y040104D02*
D03*
Y039396D02*
D03*
D31*
X035600Y033050D02*
X036100D01*
X035250Y032700D02*
X035600Y033050D01*
X035250Y031900D02*
Y032700D01*
X034100Y030750D02*
X035250Y031900D01*
X022850Y031300D02*
X024500D01*
X021500Y032650D02*
X022850Y031300D01*
X018750Y032650D02*
X021500D01*
X019150Y032350D02*
X021500D01*
X022750Y031100D01*
X019550Y032150D02*
X021400D01*
X022650Y030900D01*
X019700Y031800D02*
X021467D01*
X022567Y030700D01*
X020700Y031600D02*
X021384D01*
X022484Y030500D01*
X036800Y032500D02*
X036950Y032650D01*
X036800Y031150D02*
Y032500D01*
X036400Y030750D02*
X036800Y031150D01*
X035450Y032400D02*
X035750Y032700D01*
X035450Y031800D02*
Y032400D01*
X034200Y030550D02*
X035450Y031800D01*
X035800Y031700D02*
Y032200D01*
X034450Y030350D02*
X035800Y031700D01*
X024850Y030350D02*
X034450D01*
X034550Y030150D02*
X035150Y030750D01*
X036400D01*
X034650Y029950D02*
X035200Y030500D01*
X036100D01*
X024750Y030150D02*
X034550D01*
X025050Y030750D02*
X034100D01*
X024500Y031300D02*
X025050Y030750D01*
X024950Y030550D02*
X034200D01*
X024400Y031100D02*
X024950Y030550D01*
X022750Y031100D02*
X024400D01*
X022484Y030500D02*
X024100D01*
X022567Y030700D02*
X024200D01*
X022650Y030900D02*
X024300D01*
X024850Y030350D01*
X019300Y031900D02*
X019550Y032150D01*
X019300Y030100D02*
Y031900D01*
X019050Y029850D02*
X019300Y030100D01*
X024200Y030700D02*
X024750Y030150D01*
X024650Y029950D02*
X034650D01*
X036100Y030500D02*
X036200Y030400D01*
X024100Y030500D02*
X024650Y029950D01*
X019750Y030650D02*
X020700Y031600D01*
X019750Y029750D02*
Y030650D01*
X024000Y029150D02*
X035750D01*
X023750Y029400D02*
X024000Y029150D01*
X035000Y029750D02*
X035400Y030150D01*
X024550Y029750D02*
X035000D01*
X024000Y030300D02*
X024550Y029750D01*
X022700Y029250D02*
Y029867D01*
X022300Y028850D02*
X022700Y029250D01*
X019350Y028850D02*
X022300D01*
X022500Y029350D02*
Y029950D01*
X022200Y029050D02*
X022500Y029350D01*
X019700Y029050D02*
X022200D01*
X022500Y029950D02*
X022850Y030300D01*
X022933Y030100D02*
X023900D01*
X022700Y029867D02*
X022933Y030100D01*
X022850Y030300D02*
X024000D01*
X019350Y029400D02*
X019700Y029050D01*
X016650Y029400D02*
X019350D01*
X023900Y030100D02*
X024450Y029550D01*
X035450D01*
X035600Y029700D01*
Y029750D01*
X021650Y029450D02*
Y030550D01*
X021050Y031150D02*
X021650Y030550D01*
X024350Y029350D02*
X035667D01*
X023950Y029750D02*
X024350Y029350D01*
X023250Y029750D02*
X023950D01*
X037350Y031033D02*
Y032250D01*
X035667Y029350D02*
X037350Y031033D01*
X036450Y029850D02*
X037050D01*
X035750Y029150D02*
X036450Y029850D01*
Y029550D02*
X037400D01*
X035850Y028950D02*
X036450Y029550D01*
X023500Y028950D02*
X035850D01*
X047400Y023500D02*
Y024200D01*
X030350Y031850D02*
X030650Y031550D01*
X032250D01*
X030400Y027450D02*
X031650D01*
X030050Y027100D02*
X030400Y027450D01*
X022950Y028400D02*
X024250Y027100D01*
X020550Y025026D02*
X020550Y025026D01*
X020550Y025026D02*
Y025600D01*
X019950Y019500D02*
X022200Y021750D01*
X020500Y021350D02*
Y021850D01*
X020176Y021026D02*
X020500Y021350D01*
X019500Y021026D02*
X020176D01*
X020000Y018976D02*
Y019250D01*
X021400Y020650D01*
X020500Y021850D02*
X020500Y021850D01*
X019000Y022350D02*
X020000D01*
X019000D02*
Y022850D01*
X019000Y022850D02*
X019000Y022850D01*
Y021026D02*
Y022850D01*
X019250Y026700D02*
X020400D01*
X018950Y027000D02*
X019250Y026700D01*
X017601Y027000D02*
X018950D01*
X017326Y026724D02*
X017601Y027000D01*
X017700Y023650D02*
X021650D01*
X017500Y023850D02*
X017700Y023650D01*
X021650D02*
X021850Y023850D01*
X021700Y027650D02*
X022200Y027150D01*
Y021750D02*
Y027150D01*
X022400Y021650D02*
Y027650D01*
X021400Y020650D02*
X022400Y021650D01*
X020000Y024000D02*
Y025650D01*
X019000Y026650D02*
X020000Y025650D01*
X018000Y026650D02*
X019000D01*
Y026350D02*
X019500Y025850D01*
X018351Y026350D02*
X019000D01*
X019500Y024000D02*
Y025850D01*
X018000Y025450D02*
X018450Y025900D01*
X018000Y024000D02*
Y025450D01*
X018500D02*
X018950Y025900D01*
X018500Y024000D02*
Y025450D01*
X018669Y028784D02*
X018750Y028850D01*
X020000Y022350D02*
X020500Y021850D01*
X029144Y025506D02*
X030694Y027056D01*
X028306Y025506D02*
X029144D01*
X028985Y024835D02*
X031206Y027056D01*
X027715Y024926D02*
X028294Y025506D01*
X028980Y023856D02*
Y024758D01*
X027720Y023856D02*
Y024758D01*
X032300Y024650D02*
Y025500D01*
X030900Y024650D02*
Y025500D01*
X032024Y023650D02*
Y024374D01*
X031176Y023650D02*
Y024374D01*
X034750Y022926D02*
Y023750D01*
X029724Y022150D02*
X029724Y022150D01*
X029250Y022150D02*
X029724D01*
X029250Y022750D02*
X029724D01*
X028776D02*
X029250D01*
X028776Y022150D02*
X029250D01*
X027800Y022750D02*
X028224D01*
X027000Y021950D02*
X027800Y022750D01*
X027900Y022150D02*
X028224D01*
X027500Y021750D02*
X027900Y022150D01*
X027500Y020925D02*
Y021750D01*
X027000Y020625D02*
Y021950D01*
Y020625D02*
X027500Y020125D01*
X023500Y018526D02*
X024374D01*
X033250Y019776D02*
Y023300D01*
X033500Y018526D02*
Y023050D01*
X033750Y023300D01*
X032500Y019026D02*
X033250Y019776D01*
X032500Y018526D02*
Y019026D01*
X044200Y025250D02*
Y025600D01*
X043000Y024050D02*
X044200Y025250D01*
X043850Y025183D02*
Y026050D01*
X039150Y024050D02*
X043000D01*
X039000Y023900D02*
X039150Y024050D01*
X052250Y031600D02*
X054150D01*
X049050D02*
X051600D01*
X041024Y032450D02*
X041274Y032200D01*
X040600Y032450D02*
X041024D01*
X040550Y032500D02*
X040600Y032450D01*
X041274Y032200D02*
X047349D01*
X051349Y028200D01*
X047266Y032000D02*
X051416Y027850D01*
X041050Y032000D02*
X047266D01*
X040900Y032150D02*
X041050Y032000D01*
X047100Y031600D02*
X051250Y027450D01*
X040050Y031600D02*
X047100D01*
X049400Y033050D02*
X050300Y032150D01*
X039800Y033050D02*
X049400D01*
X039600Y032850D02*
X039800Y033050D01*
X056800Y027800D02*
X057200Y028200D01*
X054600Y027800D02*
X056800D01*
X054250Y027450D02*
X054600Y027800D01*
X051250Y027450D02*
X054250D01*
X054150Y027650D02*
X054700Y028200D01*
X051333Y027650D02*
X054150D01*
X047183Y031800D02*
X051333Y027650D01*
X040600Y031800D02*
X047183D01*
X051349Y028200D02*
X051650D01*
X051416Y027850D02*
X051800D01*
X057200Y028200D02*
X059150D01*
X039650Y031950D02*
X040450D01*
X040600Y031800D01*
X054700Y028200D02*
X056650D01*
X043878Y027172D02*
X044528Y027822D01*
X044050Y028000D02*
Y028900D01*
X044528Y027822D02*
Y029022D01*
X045428Y029922D01*
X046228D01*
X056300Y031950D02*
X056650Y031600D01*
X058600Y032150D02*
X059150Y031600D01*
X052150Y028200D02*
X054150D01*
X051800Y027850D02*
X052150Y028200D01*
X050300Y032150D02*
X058600D01*
X050150Y031950D02*
X056300D01*
X049250Y032850D02*
X050150Y031950D01*
X040250Y032850D02*
X049250D01*
X039900Y032500D02*
X040250Y032850D01*
X038200Y032500D02*
X039900D01*
X055492Y038492D02*
X055500Y038500D01*
X057400Y037400D02*
X057400Y037400D01*
X055492Y038167D02*
X055817D01*
X054650Y036950D02*
X054710Y036890D01*
X056300Y039396D02*
X056300Y039396D01*
X043742Y038492D02*
X043750Y038500D01*
X045650Y037400D02*
X045650Y037400D01*
X043742Y038167D02*
X044067D01*
X042900Y036950D02*
X042960Y036890D01*
X044550Y039396D02*
X044550Y039396D01*
X031992Y038492D02*
X032000Y038500D01*
X033900Y037400D02*
X033900Y037400D01*
X031992Y038167D02*
X032317D01*
X031150Y036950D02*
X031210Y036890D01*
X032800Y039396D02*
X032800Y039396D01*
X020242Y038492D02*
X020250Y038500D01*
X022150Y037400D02*
X022150Y037400D01*
X020242Y038167D02*
X020567D01*
X019400Y036950D02*
X019460Y036890D01*
X021050Y039396D02*
X021050Y039396D01*
X024040Y042000D02*
X024050Y041990D01*
X019040Y042000D02*
X019050Y041990D01*
X035790Y042000D02*
X035800Y041990D01*
X030790Y042000D02*
X030800Y041990D01*
X059290Y042000D02*
X059300Y041990D01*
X054290Y042000D02*
X054300Y041990D01*
X047540Y042000D02*
X047550Y041990D01*
X042540Y042000D02*
X042550Y041990D01*
X035450Y028050D02*
X036074D01*
X053500Y018526D02*
Y018983D01*
X052500Y018526D02*
Y019650D01*
X051833Y020650D02*
X053500Y018983D01*
X051750Y020400D02*
X052500Y019650D01*
X048900Y020650D02*
X051833D01*
X048800Y020400D02*
X051750D01*
X047400Y022145D02*
X048900Y020645D01*
X046900Y022295D02*
X048800Y020395D01*
X047400Y022150D02*
Y023500D01*
X046900Y022300D02*
Y023500D01*
X017765Y028250D02*
Y028765D01*
X017850Y028850D01*
X018750D01*
X021000Y027350D02*
X021277Y027073D01*
Y026657D02*
Y027073D01*
X032100Y032450D02*
Y034500D01*
X031550Y031900D02*
X032100Y032450D01*
X029000Y031850D02*
Y032400D01*
X029450Y032850D01*
X030300D01*
X024250Y027100D02*
X027750D01*
X030050D01*
X028450Y031850D02*
X029000D01*
X027750Y031150D02*
X028450Y031850D01*
X033050Y025650D02*
Y027000D01*
X031783Y028550D02*
X033500Y026833D01*
X031050Y028550D02*
X031783D01*
X033500Y025650D02*
Y026833D01*
X017300Y025026D02*
Y026699D01*
X017326Y026724D01*
X031850Y028200D02*
X033050Y027000D01*
X030600Y028550D02*
X030950Y028200D01*
X031850D01*
X018500Y019026D02*
Y019250D01*
X018750Y019500D01*
X019950D01*
X045450Y026700D02*
X046900Y025250D01*
X045100Y026500D02*
X047400Y024200D01*
X036700Y029200D02*
X039750D01*
X042250Y026700D01*
X045450D01*
X037050Y028850D02*
X039817D01*
X042167Y026500D01*
X045100D01*
X049400Y031200D02*
X051850D01*
X052250Y031600D01*
X038575Y024250D02*
X042917D01*
X043850Y025183D01*
D32*
X046438Y034500D02*
X046450D01*
X035763D02*
X046438D01*
X023050Y040104D02*
Y041990D01*
X024050Y040104D02*
Y041990D01*
X025050Y040104D02*
Y041990D01*
X022050Y040104D02*
Y041990D01*
X021050Y040104D02*
Y041990D01*
X020050Y040100D02*
Y041990D01*
X019050Y040100D02*
Y041990D01*
X018050Y040100D02*
Y041990D01*
X034800Y040104D02*
Y041990D01*
X035800Y040104D02*
Y041990D01*
X036800Y040104D02*
Y041990D01*
X033800Y040104D02*
Y041990D01*
X032800Y040104D02*
Y041990D01*
X031800Y040100D02*
Y041990D01*
X030800Y040100D02*
Y041990D01*
X029800Y040100D02*
Y041990D01*
X058300Y040104D02*
Y041990D01*
X059300Y040104D02*
Y041990D01*
X060300Y040104D02*
Y041990D01*
X057300Y040104D02*
Y041990D01*
X056300Y040104D02*
Y041990D01*
X055300Y040100D02*
Y041990D01*
X054300Y040100D02*
Y041990D01*
X053300Y040100D02*
Y041990D01*
X046550Y040104D02*
Y041990D01*
X047550Y040104D02*
Y041990D01*
X048550Y040104D02*
Y041990D01*
X045550Y040104D02*
Y041990D01*
X044550Y040104D02*
Y041990D01*
X043550Y040100D02*
Y041990D01*
X042550Y040100D02*
Y041990D01*
X041550Y040100D02*
Y041990D01*
X032100Y034500D02*
X035763D01*
X031200D02*
X032100D01*
X030700Y035000D02*
X031200Y034500D01*
X026400Y035000D02*
X030700D01*
X023850D02*
X026400D01*
X052050Y032600D02*
X053050Y033600D01*
X054550Y032600D02*
X055100Y033150D01*
X053050Y033600D02*
X058350D01*
X055100Y033150D02*
X058600D01*
X058350Y033600D02*
X060060Y035310D01*
X058600Y033150D02*
X060250Y034800D01*
X057050Y032600D02*
X058750D01*
X060460Y034310D01*
X059550Y032600D02*
X060750Y033800D01*
X062740D01*
X063250Y034310D01*
X060460D02*
X062250D01*
X060250Y034800D02*
X062740D01*
X063250Y035310D01*
X060060D02*
X062250D01*
X054550Y029200D02*
X056200D01*
X052050D02*
X053700D01*
X054200Y029700D01*
X056000D01*
X056950Y030650D01*
X058950D01*
X057150Y030150D02*
X059200D01*
X056200Y029200D02*
X057150Y030150D01*
X057050Y029200D02*
X057550Y029700D01*
X059640D01*
X058950Y030650D02*
X061610Y033310D01*
X059200Y030150D02*
X061860Y032810D01*
X061610Y033310D02*
X062250D01*
X061860Y032810D02*
X062750D01*
X063250Y033310D01*
X059640Y029700D02*
X062250Y032310D01*
X059550Y029200D02*
X060140D01*
X063250Y032310D01*
D33*
X023500Y017150D02*
Y017974D01*
X033500Y017150D02*
Y017974D01*
X031824D02*
X032500D01*
X031500Y017650D02*
X031824Y017974D01*
X031500Y017150D02*
Y017650D01*
X018500Y018050D02*
Y018424D01*
X018200Y017750D02*
X018500Y018050D01*
X017600Y017750D02*
X018200D01*
X037250Y018175D02*
X038075Y017350D01*
X037250Y020331D02*
X037250Y018175D01*
X036481Y021100D02*
X037250Y020331D01*
X056930Y036126D02*
X058167D01*
X056692Y035888D02*
X056930Y036126D01*
X055450Y035870D02*
X056674D01*
Y035538D02*
Y035870D01*
Y035538D02*
X057308Y034904D01*
X058208D01*
Y035354D01*
X058902Y035610D02*
X059058Y035454D01*
X058208Y035610D02*
X058902D01*
X059058Y035454D02*
X059458D01*
X058167Y035870D02*
X059192D01*
X041290Y035610D02*
X041450Y035450D01*
X034708Y035866D02*
X041700D01*
X034708Y035610D02*
X041290D01*
X035422Y036122D02*
X035550Y036250D01*
X034708Y036122D02*
X035422D01*
X033910Y035610D02*
X034708D01*
X033800Y035500D02*
X033910Y035610D01*
X033250Y035500D02*
X033800D01*
X033600Y035866D02*
X034708D01*
X028990Y035610D02*
X029150Y035450D01*
X022958Y035610D02*
X028990D01*
X022958Y035866D02*
X029400D01*
X055492Y038167D02*
Y038492D01*
X053978Y036122D02*
X055492D01*
X053300Y036800D02*
X053978Y036122D01*
X053300Y036800D02*
Y039396D01*
X054222Y036378D02*
X055492D01*
X053950Y036650D02*
X054222Y036378D01*
X053950Y036650D02*
Y037150D01*
X057400Y037400D02*
X058208D01*
X057350Y036600D02*
X057572Y036378D01*
X058208D01*
X059140Y036890D02*
X059250Y037000D01*
X058208Y036890D02*
X059140D01*
X060300Y037500D02*
Y039396D01*
X059434Y036634D02*
X060300Y037500D01*
X058208Y036634D02*
X059434D01*
X059300Y037600D02*
Y039396D01*
X058846Y037146D02*
X059300Y037600D01*
X058208Y037146D02*
X058846D01*
X057300Y038050D02*
X057439Y037911D01*
X058208D01*
X056750Y037850D02*
Y038800D01*
X056300Y039250D02*
X056750Y038800D01*
X056300Y039250D02*
Y039400D01*
X056556Y037656D02*
X056750Y037850D01*
X056161Y037911D02*
X056350Y038100D01*
X055492Y037911D02*
X056161D01*
X056250Y037400D02*
X056400Y037250D01*
X054700Y038600D02*
X055300Y039200D01*
X054700Y037450D02*
Y038600D01*
Y037450D02*
X055004Y037146D01*
X055300Y039200D02*
Y039396D01*
X055004Y037146D02*
X055492D01*
X055492Y037400D02*
X056250D01*
X054466Y036634D02*
X055492D01*
X054300Y036800D02*
X054466Y036634D01*
X054300Y036800D02*
Y039396D01*
X054710Y036890D02*
X055492D01*
X058208Y037656D02*
X058756D01*
X057683Y038167D02*
X058208D01*
X055492Y037656D02*
X056556D01*
X057300Y038550D02*
X057683Y038167D01*
X057300Y038550D02*
Y039396D01*
X058300Y039050D02*
Y039396D01*
X058950Y037850D02*
Y038400D01*
X058300Y039050D02*
X058950Y038400D01*
X058756Y037656D02*
X058950Y037850D01*
X043742Y038167D02*
Y038492D01*
X042228Y036122D02*
X043742D01*
X041550Y036800D02*
X042228Y036122D01*
X041550Y036800D02*
Y039396D01*
X042472Y036378D02*
X043742D01*
X042200Y036650D02*
X042472Y036378D01*
X042200Y036650D02*
Y037150D01*
X045650Y037400D02*
X046458D01*
X045600Y036600D02*
X045822Y036378D01*
X046458D01*
X047390Y036890D02*
X047500Y037000D01*
X046458Y036890D02*
X047390D01*
X048550Y037500D02*
Y039396D01*
X047684Y036634D02*
X048550Y037500D01*
X046458Y036634D02*
X047684D01*
X047550Y037600D02*
Y039396D01*
X047096Y037146D02*
X047550Y037600D01*
X046458Y037146D02*
X047096D01*
X045550Y038050D02*
X045689Y037911D01*
X046458D01*
X045000Y037850D02*
Y038800D01*
X044550Y039250D02*
X045000Y038800D01*
X044550Y039250D02*
Y039400D01*
X044806Y037656D02*
X045000Y037850D01*
X044411Y037911D02*
X044600Y038100D01*
X043742Y037911D02*
X044411D01*
X044500Y037400D02*
X044650Y037250D01*
X042950Y038600D02*
X043550Y039200D01*
X042950Y037450D02*
Y038600D01*
Y037450D02*
X043254Y037146D01*
X043550Y039200D02*
Y039396D01*
X043254Y037146D02*
X043742D01*
X043742Y037400D02*
X044500D01*
X042716Y036634D02*
X043742D01*
X042550Y036800D02*
X042716Y036634D01*
X042550Y036800D02*
Y039396D01*
X042960Y036890D02*
X043742D01*
X046458Y037656D02*
X047006D01*
X045933Y038167D02*
X046458D01*
X043742Y037656D02*
X044806D01*
X045550Y038550D02*
X045933Y038167D01*
X045550Y038550D02*
Y039396D01*
X046550Y039050D02*
Y039396D01*
X047200Y037850D02*
Y038400D01*
X046550Y039050D02*
X047200Y038400D01*
X047006Y037656D02*
X047200Y037850D01*
X031992Y038167D02*
Y038492D01*
X030478Y036122D02*
X031992D01*
X029800Y036800D02*
X030478Y036122D01*
X029800Y036800D02*
Y039396D01*
X030722Y036378D02*
X031992D01*
X030450Y036650D02*
X030722Y036378D01*
X030450Y036650D02*
Y037150D01*
X033900Y037400D02*
X034708D01*
X033850Y036600D02*
X034072Y036378D01*
X034708D01*
X035640Y036890D02*
X035750Y037000D01*
X034708Y036890D02*
X035640D01*
X036800Y037500D02*
Y039396D01*
X035934Y036634D02*
X036800Y037500D01*
X034708Y036634D02*
X035934D01*
X035800Y037600D02*
Y039396D01*
X035346Y037146D02*
X035800Y037600D01*
X034708Y037146D02*
X035346D01*
X033800Y038050D02*
X033939Y037911D01*
X034708D01*
X033250Y037850D02*
Y038800D01*
X032800Y039250D02*
X033250Y038800D01*
X032800Y039250D02*
Y039400D01*
X033056Y037656D02*
X033250Y037850D01*
X032661Y037911D02*
X032850Y038100D01*
X031992Y037911D02*
X032661D01*
X032750Y037400D02*
X032900Y037250D01*
X031200Y038600D02*
X031800Y039200D01*
X031200Y037450D02*
Y038600D01*
Y037450D02*
X031504Y037146D01*
X031800Y039200D02*
Y039396D01*
X031504Y037146D02*
X031992D01*
X031992Y037400D02*
X032750D01*
X030966Y036634D02*
X031992D01*
X030800Y036800D02*
X030966Y036634D01*
X030800Y036800D02*
Y039396D01*
X031210Y036890D02*
X031992D01*
X034708Y037656D02*
X035256D01*
X034183Y038167D02*
X034708D01*
X031992Y037656D02*
X033056D01*
X033800Y038550D02*
X034183Y038167D01*
X033800Y038550D02*
Y039396D01*
X034800Y039050D02*
Y039396D01*
X035450Y037850D02*
Y038400D01*
X034800Y039050D02*
X035450Y038400D01*
X035256Y037656D02*
X035450Y037850D01*
X020242Y038167D02*
Y038492D01*
X018728Y036122D02*
X020242D01*
X018050Y036800D02*
X018728Y036122D01*
X018050Y036800D02*
Y039396D01*
X018972Y036378D02*
X020242D01*
X018700Y036650D02*
X018972Y036378D01*
X018700Y036650D02*
Y037150D01*
X022150Y037400D02*
X022958D01*
X022100Y036600D02*
X022322Y036378D01*
X022958D01*
X023890Y036890D02*
X024000Y037000D01*
X022958Y036890D02*
X023890D01*
X025050Y037500D02*
Y039396D01*
X024184Y036634D02*
X025050Y037500D01*
X022958Y036634D02*
X024184D01*
X024050Y037600D02*
Y039396D01*
X023596Y037146D02*
X024050Y037600D01*
X022958Y037146D02*
X023596D01*
X022050Y038050D02*
X022189Y037911D01*
X022958D01*
X021500Y037850D02*
Y038800D01*
X021050Y039250D02*
X021500Y038800D01*
X021050Y039250D02*
Y039400D01*
X021306Y037656D02*
X021500Y037850D01*
X020911Y037911D02*
X021100Y038100D01*
X020242Y037911D02*
X020911D01*
X021000Y037400D02*
X021150Y037250D01*
X019450Y038600D02*
X020050Y039200D01*
X019450Y037450D02*
Y038600D01*
Y037450D02*
X019754Y037146D01*
X020050Y039200D02*
Y039396D01*
X019754Y037146D02*
X020242D01*
X020242Y037400D02*
X021000D01*
X019216Y036634D02*
X020242D01*
X019050Y036800D02*
X019216Y036634D01*
X019050Y036800D02*
Y039396D01*
X019460Y036890D02*
X020242D01*
X022958Y037656D02*
X023506D01*
X022433Y038167D02*
X022958D01*
X020242Y037656D02*
X021306D01*
X022050Y038550D02*
X022433Y038167D01*
X022050Y038550D02*
Y039396D01*
X023050Y039050D02*
Y039396D01*
X023700Y037850D02*
Y038400D01*
X023050Y039050D02*
X023700Y038400D01*
X023506Y037656D02*
X023700Y037850D01*
X046458Y035866D02*
X047434D01*
X047288Y035450D02*
X047787D01*
X047127Y035610D02*
X047288Y035450D01*
X046446Y035610D02*
X047127D01*
X043729Y035866D02*
X044921D01*
X045433Y035354D01*
X046446D01*
X046438Y034500D02*
Y035350D01*
X034708Y035354D02*
X035496D01*
X035763Y035087D01*
Y034500D02*
Y035087D01*
X054500Y017150D02*
Y017650D01*
X054176Y017974D02*
X054500Y017650D01*
X053500Y017974D02*
X054176D01*
X052500Y017150D02*
Y017974D01*
X061800Y027000D02*
X063750D01*
X064250Y026500D01*
X056750Y017150D02*
Y017974D01*
X022958Y035354D02*
X023496D01*
X023850Y035000D01*
X021250Y018400D02*
X021900Y017750D01*
X020074Y018400D02*
X021250D01*
D34*
X060000Y022550D02*
Y026750D01*
X057750Y020300D02*
X060000Y022550D01*
X057750Y017150D02*
Y020300D01*
X060000Y026750D02*
X061250Y028000D01*
X061800D01*
D45*
X036100Y033050D02*
D03*
X035750Y032700D02*
D03*
X035800Y032200D02*
D03*
X019150Y032350D02*
D03*
X018750Y032650D02*
D03*
X019050Y029850D02*
D03*
X036950Y032650D02*
D03*
X036200Y030400D02*
D03*
X019700Y031800D02*
D03*
X019750Y029750D02*
D03*
X035400Y030150D02*
D03*
X016650Y029400D02*
D03*
X019350Y028850D02*
D03*
X035600Y029750D02*
D03*
X021050Y031150D02*
D03*
X021650Y029450D02*
D03*
X023250Y029750D02*
D03*
X037350Y032250D02*
D03*
X023750Y029400D02*
D03*
X023500Y028950D02*
D03*
X037050Y029850D02*
D03*
X037400Y029550D02*
D03*
X038550Y030300D02*
D03*
X046900Y025250D02*
D03*
X036700Y029200D02*
D03*
X037050Y028850D02*
D03*
X032250Y031550D02*
D03*
X030350Y031850D02*
D03*
X020550Y025600D02*
D03*
X022950Y028400D02*
D03*
X017326Y026724D02*
D03*
X020400Y026700D02*
D03*
X019500Y028100D02*
D03*
X021000Y027350D02*
D03*
X017500Y023850D02*
D03*
X021850D02*
D03*
X022400Y027650D02*
D03*
X021700D02*
D03*
X018000Y026650D02*
D03*
X018351Y026350D02*
D03*
X020000Y024000D02*
D03*
X019500D02*
D03*
X018450Y025900D02*
D03*
X018950D02*
D03*
X018000Y024000D02*
D03*
X018500D02*
D03*
X018750Y028850D02*
D03*
X031650Y027450D02*
D03*
X030700Y027050D02*
D03*
X031200D02*
D03*
X032300Y025500D02*
D03*
X030900D02*
D03*
X034750Y023750D02*
D03*
X029250Y022750D02*
D03*
Y022150D02*
D03*
X024400Y018500D02*
D03*
X033250Y023300D02*
D03*
X033750D02*
D03*
X039000Y023900D02*
D03*
X038575Y024250D02*
D03*
X044200Y025600D02*
D03*
X043850Y026050D02*
D03*
X049400Y031200D02*
D03*
X049050Y031600D02*
D03*
X040050D02*
D03*
X039650Y031950D02*
D03*
X043878Y027172D02*
D03*
X044050Y028000D02*
D03*
Y028900D02*
D03*
X046228Y029922D02*
D03*
X040900Y032150D02*
D03*
X040550Y032500D02*
D03*
X039600Y032850D02*
D03*
X038200Y032500D02*
D03*
X031550Y031900D02*
D03*
X030300Y032850D02*
D03*
X036481Y021100D02*
D03*
X059208Y035854D02*
D03*
X059458Y035454D02*
D03*
X041450Y035450D02*
D03*
X041700Y035866D02*
D03*
X035550Y036250D02*
D03*
X033600Y035850D02*
D03*
X033250Y035500D02*
D03*
X029150Y035450D02*
D03*
X029400Y035866D02*
D03*
X057400Y037400D02*
D03*
X057350Y036600D02*
D03*
X059250Y037000D02*
D03*
X057300Y038050D02*
D03*
X056350Y038100D02*
D03*
X055500Y038500D02*
D03*
X056400Y037250D02*
D03*
X054650Y036950D02*
D03*
X053950Y037150D02*
D03*
X045650Y037400D02*
D03*
X045600Y036600D02*
D03*
X047500Y037000D02*
D03*
X045550Y038050D02*
D03*
X044600Y038100D02*
D03*
X043750Y038500D02*
D03*
X044650Y037250D02*
D03*
X042900Y036950D02*
D03*
X042200Y037150D02*
D03*
X033900Y037400D02*
D03*
X033850Y036600D02*
D03*
X035750Y037000D02*
D03*
X033800Y038050D02*
D03*
X032850Y038100D02*
D03*
X032000Y038500D02*
D03*
X032900Y037250D02*
D03*
X031150Y036950D02*
D03*
X030450Y037150D02*
D03*
X022150Y037400D02*
D03*
X022100Y036600D02*
D03*
X024000Y037000D02*
D03*
X022050Y038050D02*
D03*
X021100Y038100D02*
D03*
X020250Y038500D02*
D03*
X021150Y037250D02*
D03*
X019400Y036950D02*
D03*
X018700Y037150D02*
D03*
X047450Y035850D02*
D03*
X047787Y035450D02*
D03*
X035450Y028050D02*
D03*
X046900Y023500D02*
D03*
X047400D02*
D03*
X064250Y026500D02*
D03*
X051650Y028200D02*
D03*
X054150D02*
D03*
X056650D02*
D03*
X059150D02*
D03*
Y031600D02*
D03*
X056650D02*
D03*
X054150D02*
D03*
X051600D02*
D03*
X018750Y033350D02*
D03*
X022650Y032550D02*
D03*
X018500Y028150D02*
D03*
X035850Y026150D02*
D03*
X038900Y021250D02*
D03*
X042450Y030250D02*
D03*
X038650Y027100D02*
D03*
X032900Y028259D02*
D03*
X029000Y031850D02*
D03*
X035400Y033700D02*
D03*
X033050Y025650D02*
D03*
X033500D02*
D03*
X031050Y028550D02*
D03*
X030600D02*
D03*
X027750Y027100D02*
D03*
Y031150D02*
D03*
D46*
X029158Y028050D02*
D03*
X026205D02*
D03*
D47*
X023900Y021250D02*
D03*
X058208Y034904D02*
D03*
X046438Y034500D02*
D03*
X035763D02*
D03*
X032100D02*
D03*
X026400Y035000D02*
D03*
X023850D02*
D03*
X042250Y024844D02*
D03*
X052050Y032600D02*
D03*
X054550D02*
D03*
X057050D02*
D03*
X059550D02*
D03*
X052050Y029200D02*
D03*
X054550D02*
D03*
X057050D02*
D03*
X059550D02*
D03*
D48*
X042250Y020500D02*
D03*
X050900Y022950D02*
D03*
Y024050D02*
D03*
X055450Y020400D02*
D03*
X056550D02*
D03*
X016600Y017750D02*
D03*
X017600D02*
D03*
X021900D02*
D03*
X020900D02*
D03*
X027500Y020925D02*
D03*
Y020125D02*
D03*
X028500D02*
D03*
X038075Y017350D02*
D03*
X036275D02*
D03*
D49*
X063250Y032310D02*
D03*
X062250D02*
D03*
X063250Y033310D02*
D03*
X062250D02*
D03*
X063250Y034310D02*
D03*
X062250D02*
D03*
X063250Y035310D02*
D03*
X061800Y028000D02*
D03*
X064000Y021750D02*
D03*
X025040Y043000D02*
D03*
Y042000D02*
D03*
X024040Y043000D02*
D03*
Y042000D02*
D03*
X023040Y043000D02*
D03*
Y042000D02*
D03*
X022040Y043000D02*
D03*
Y042000D02*
D03*
X021040Y043000D02*
D03*
Y042000D02*
D03*
X020040Y043000D02*
D03*
Y042000D02*
D03*
X019040Y043000D02*
D03*
Y042000D02*
D03*
X018040Y043000D02*
D03*
X036790D02*
D03*
Y042000D02*
D03*
X035790Y043000D02*
D03*
Y042000D02*
D03*
X034790Y043000D02*
D03*
Y042000D02*
D03*
X033790Y043000D02*
D03*
Y042000D02*
D03*
X032790Y043000D02*
D03*
Y042000D02*
D03*
X031790Y043000D02*
D03*
Y042000D02*
D03*
X030790Y043000D02*
D03*
Y042000D02*
D03*
X029790Y043000D02*
D03*
X048540D02*
D03*
Y042000D02*
D03*
X047540Y043000D02*
D03*
Y042000D02*
D03*
X046540Y043000D02*
D03*
Y042000D02*
D03*
X045540Y043000D02*
D03*
Y042000D02*
D03*
X044540Y043000D02*
D03*
Y042000D02*
D03*
X043540Y043000D02*
D03*
Y042000D02*
D03*
X042540Y043000D02*
D03*
Y042000D02*
D03*
X041540Y043000D02*
D03*
X060290D02*
D03*
Y042000D02*
D03*
X059290Y043000D02*
D03*
Y042000D02*
D03*
X058290Y043000D02*
D03*
Y042000D02*
D03*
X057290Y043000D02*
D03*
Y042000D02*
D03*
X056290Y043000D02*
D03*
Y042000D02*
D03*
X055290Y043000D02*
D03*
Y042000D02*
D03*
X054290Y043000D02*
D03*
Y042000D02*
D03*
X053290Y043000D02*
D03*
D50*
X062250Y035310D02*
D03*
X061800Y027000D02*
D03*
X064000Y020750D02*
D03*
D51*
X061500Y024500D02*
D03*
X038525Y018350D02*
D03*
X035775D02*
D03*
D52*
X052500Y017150D02*
D03*
X053500D02*
D03*
X054500D02*
D03*
X055500D02*
D03*
X056750D02*
D03*
X057750D02*
D03*
X023500D02*
D03*
X024500D02*
D03*
X031500D02*
D03*
X032500D02*
D03*
X033500D02*
D03*
X034500D02*
D03*
D53*
X060475Y020475D02*
D03*
X062225Y019225D02*
D03*
X060475Y018025D02*
D03*
D54*
X018040Y042000D02*
D03*
X029790D02*
D03*
X041540D02*
D03*
X053290D02*
D03*
D55*
X016000Y020550D02*
D03*
X022500D02*
D03*
D56*
X021500Y021850D02*
D03*
X020500D02*
D03*
X019500D02*
D03*
X021000Y022850D02*
D03*
X020000D02*
D03*
X019000D02*
D03*
X018500Y021850D02*
D03*
X018000Y022850D02*
D03*
X017500Y021850D02*
D03*
X017000Y022850D02*
D03*
D57*
X025500Y019075D02*
D03*
X030500D02*
D03*
D58*
X028500Y020925D02*
D03*
D59*
X040581Y018740D02*
D03*
X050419D02*
D03*
D60*
X047681Y019299D02*
D03*
D61*
X047136Y018181D02*
D03*
X046591Y019299D02*
D03*
X046045Y018181D02*
D03*
X045500Y019299D02*
D03*
X044955Y018181D02*
D03*
X044409Y019299D02*
D03*
X043864Y018181D02*
D03*
X043319Y019299D02*
D03*
D62*
X063750Y043250D02*
D03*
Y017650D02*
D03*
X014500D02*
D03*
Y043250D02*
D03*
D63*
X017135Y028250D02*
D03*
X017765D02*
D03*
D64*
X027720Y024758D02*
D03*
X028980D02*
D03*
D65*
X032300Y024650D02*
D03*
X030900D02*
D03*
D66*
X022958Y037400D02*
D03*
Y037656D02*
D03*
Y037911D02*
D03*
Y038167D02*
D03*
X020242D02*
D03*
Y037911D02*
D03*
Y037656D02*
D03*
Y037400D02*
D03*
X020242Y035354D02*
D03*
Y035610D02*
D03*
Y035866D02*
D03*
Y036122D02*
D03*
Y036378D02*
D03*
Y036634D02*
D03*
Y036890D02*
D03*
Y037146D02*
D03*
X022958Y035354D02*
D03*
Y035610D02*
D03*
Y035866D02*
D03*
Y036122D02*
D03*
Y036378D02*
D03*
Y036634D02*
D03*
Y036890D02*
D03*
Y037146D02*
D03*
X034708Y037400D02*
D03*
Y037656D02*
D03*
Y037911D02*
D03*
Y038167D02*
D03*
X031992D02*
D03*
Y037911D02*
D03*
Y037656D02*
D03*
Y037400D02*
D03*
X031992Y035354D02*
D03*
Y035610D02*
D03*
Y035866D02*
D03*
Y036122D02*
D03*
Y036378D02*
D03*
Y036634D02*
D03*
Y036890D02*
D03*
Y037146D02*
D03*
X034708Y035354D02*
D03*
Y035610D02*
D03*
Y035866D02*
D03*
Y036122D02*
D03*
Y036378D02*
D03*
Y036634D02*
D03*
Y036890D02*
D03*
Y037146D02*
D03*
X046458Y037400D02*
D03*
Y037656D02*
D03*
Y037911D02*
D03*
Y038167D02*
D03*
X043742D02*
D03*
Y037911D02*
D03*
Y037656D02*
D03*
Y037400D02*
D03*
X043742Y035354D02*
D03*
Y035610D02*
D03*
Y035866D02*
D03*
Y036122D02*
D03*
Y036378D02*
D03*
Y036634D02*
D03*
Y036890D02*
D03*
Y037146D02*
D03*
X046458Y035354D02*
D03*
Y035610D02*
D03*
Y035866D02*
D03*
Y036122D02*
D03*
Y036378D02*
D03*
Y036634D02*
D03*
Y036890D02*
D03*
Y037146D02*
D03*
X058208Y037400D02*
D03*
Y037656D02*
D03*
Y037911D02*
D03*
Y038167D02*
D03*
X055492D02*
D03*
Y037911D02*
D03*
Y037656D02*
D03*
Y037400D02*
D03*
X055492Y035354D02*
D03*
Y035610D02*
D03*
Y035866D02*
D03*
Y036122D02*
D03*
Y036378D02*
D03*
Y036634D02*
D03*
Y036890D02*
D03*
Y037146D02*
D03*
X058208Y035354D02*
D03*
Y035610D02*
D03*
Y035866D02*
D03*
Y036122D02*
D03*
Y036378D02*
D03*
Y036634D02*
D03*
Y036890D02*
D03*
Y037146D02*
D03*
D67*
X062475Y020675D02*
D03*
M02*
