%FSAX24Y24*%
%MOIN*%
G70*
G01*
G75*
G04 Layer_Color=255*
%ADD10R,0.0354X0.0315*%
%ADD11R,0.0315X0.0354*%
%ADD12R,0.0906X0.0906*%
%ADD13R,0.0472X0.0551*%
%ADD14O,0.0709X0.0118*%
%ADD15O,0.0118X0.0709*%
%ADD16R,0.0200X0.0591*%
%ADD17R,0.0551X0.0472*%
%ADD18R,0.0866X0.0866*%
%ADD19O,0.0236X0.0866*%
G04:AMPARAMS|DCode=20|XSize=74.8mil|YSize=126mil|CornerRadius=0mil|HoleSize=0mil|Usage=FLASHONLY|Rotation=180.000|XOffset=0mil|YOffset=0mil|HoleType=Round|Shape=Octagon|*
%AMOCTAGOND20*
4,1,8,0.0187,-0.0630,-0.0187,-0.0630,-0.0374,-0.0443,-0.0374,0.0443,-0.0187,0.0630,0.0187,0.0630,0.0374,0.0443,0.0374,-0.0443,0.0187,-0.0630,0.0*
%
%ADD20OCTAGOND20*%

%ADD21R,0.0236X0.0551*%
%ADD22R,0.0236X0.0709*%
%ADD23R,0.0400X0.1000*%
%ADD24R,0.1200X0.1450*%
%ADD25R,0.1000X0.0400*%
%ADD26R,0.0945X0.1220*%
%ADD27R,0.0866X0.0177*%
%ADD28R,0.0800X0.0250*%
%ADD29R,0.0472X0.0118*%
%ADD30R,0.0118X0.0472*%
%ADD31C,0.0100*%
%ADD32C,0.0200*%
%ADD33C,0.0150*%
%ADD34C,0.0250*%
%ADD35R,1.1300X0.1400*%
%ADD36R,0.1300X0.2500*%
%ADD37R,1.2150X0.1400*%
%ADD38R,0.2150X0.2800*%
%ADD39R,0.8800X0.1550*%
%ADD40R,0.1350X0.2500*%
%ADD41R,0.2750X0.0500*%
%ADD42R,0.3850X0.0850*%
%ADD43R,0.2650X0.1350*%
%ADD44R,0.0750X0.1300*%
%ADD45C,0.0300*%
%ADD46C,0.1181*%
%ADD47C,0.0400*%
%ADD48C,0.0600*%
%ADD49C,0.0591*%
%ADD50R,0.0591X0.0591*%
%ADD51C,0.0700*%
%ADD52C,0.0630*%
%ADD53C,0.1500*%
%ADD54R,0.0591X0.0591*%
%ADD55C,0.0800*%
%ADD56C,0.0500*%
%ADD57C,0.1400*%
%ADD58R,0.0600X0.0600*%
%ADD59C,0.1874*%
%ADD60R,0.0665X0.0665*%
%ADD61C,0.0665*%
%ADD62C,0.1575*%
%ADD63R,0.0394X0.0512*%
%ADD64R,0.0394X0.0709*%
%ADD65R,0.1100X0.1000*%
%ADD66O,0.0827X0.0177*%
%ADD67R,0.3750X0.0850*%
D10*
X020550Y024474D02*
D03*
Y025026D02*
D03*
X017300Y024474D02*
D03*
Y025026D02*
D03*
X019500Y020474D02*
D03*
Y021026D02*
D03*
X019000Y020474D02*
D03*
Y021026D02*
D03*
X021277Y026657D02*
D03*
Y026106D02*
D03*
X034750Y022926D02*
D03*
Y022374D02*
D03*
X023500Y018526D02*
D03*
Y017974D02*
D03*
X032500Y018526D02*
D03*
Y017974D02*
D03*
X033500Y018526D02*
D03*
Y017974D02*
D03*
X020000Y018424D02*
D03*
Y018976D02*
D03*
X018500Y018424D02*
D03*
Y018976D02*
D03*
X052500Y018526D02*
D03*
Y017974D02*
D03*
X053500Y018526D02*
D03*
Y017974D02*
D03*
X056750Y018526D02*
D03*
Y017974D02*
D03*
D11*
X027174Y023850D02*
D03*
X027726D02*
D03*
X030624Y023650D02*
D03*
X031176D02*
D03*
X032576Y023650D02*
D03*
X032024D02*
D03*
X029526Y023850D02*
D03*
X028974D02*
D03*
X029724Y022750D02*
D03*
X030276D02*
D03*
X029724Y022150D02*
D03*
X030276D02*
D03*
X028776Y022150D02*
D03*
X028224D02*
D03*
X028776Y022750D02*
D03*
X028224D02*
D03*
X036074Y028050D02*
D03*
X036626D02*
D03*
D17*
X035800Y039396D02*
D03*
Y040104D02*
D03*
X031800Y040104D02*
D03*
Y039396D02*
D03*
X034800Y039396D02*
D03*
Y040104D02*
D03*
X032800Y040104D02*
D03*
Y039396D02*
D03*
X045550Y039396D02*
D03*
Y040104D02*
D03*
X033800Y039396D02*
D03*
Y040104D02*
D03*
X042550Y040104D02*
D03*
Y039396D02*
D03*
X048550Y039396D02*
D03*
Y040104D02*
D03*
X056300Y040104D02*
D03*
Y039396D02*
D03*
X058300Y039396D02*
D03*
Y040104D02*
D03*
X046550Y039396D02*
D03*
Y040104D02*
D03*
X044550Y040104D02*
D03*
Y039396D02*
D03*
X029800Y040104D02*
D03*
Y039396D02*
D03*
X043550Y040104D02*
D03*
Y039396D02*
D03*
X047550Y039396D02*
D03*
Y040104D02*
D03*
X057300Y039396D02*
D03*
Y040104D02*
D03*
X036800Y039396D02*
D03*
Y040104D02*
D03*
X030800Y040104D02*
D03*
Y039396D02*
D03*
X055300Y040104D02*
D03*
Y039396D02*
D03*
X041550Y040104D02*
D03*
Y039396D02*
D03*
X059300Y039396D02*
D03*
Y040104D02*
D03*
X054300Y040104D02*
D03*
Y039396D02*
D03*
X060300Y039396D02*
D03*
Y040104D02*
D03*
X053300Y040104D02*
D03*
Y039396D02*
D03*
X022050Y039396D02*
D03*
Y040104D02*
D03*
X021050Y040104D02*
D03*
Y039396D02*
D03*
X023050Y039396D02*
D03*
Y040104D02*
D03*
X020050Y040104D02*
D03*
Y039396D02*
D03*
X024050Y039396D02*
D03*
Y040104D02*
D03*
X019050Y040104D02*
D03*
Y039396D02*
D03*
X025050Y039396D02*
D03*
Y040104D02*
D03*
X018050Y040104D02*
D03*
Y039396D02*
D03*
D45*
X036100Y033050D02*
D03*
X035750Y032700D02*
D03*
X035800Y032200D02*
D03*
X019150Y032350D02*
D03*
X018750Y032650D02*
D03*
X019050Y029850D02*
D03*
X036950Y032650D02*
D03*
X036200Y030400D02*
D03*
X019700Y031800D02*
D03*
X019750Y029750D02*
D03*
X035400Y030150D02*
D03*
X016650Y029400D02*
D03*
X019350Y028850D02*
D03*
X035600Y029750D02*
D03*
X021050Y031150D02*
D03*
X021650Y029450D02*
D03*
X023250Y029750D02*
D03*
X037350Y032250D02*
D03*
X023750Y029400D02*
D03*
X023500Y028950D02*
D03*
X037050Y029850D02*
D03*
X037400Y029550D02*
D03*
X038550Y030300D02*
D03*
X046900Y025250D02*
D03*
X036700Y029200D02*
D03*
X037050Y028850D02*
D03*
X032250Y031550D02*
D03*
X030350Y031850D02*
D03*
X020550Y025600D02*
D03*
X022950Y028400D02*
D03*
X017326Y026724D02*
D03*
X020400Y026700D02*
D03*
X019500Y028100D02*
D03*
X021000Y027350D02*
D03*
X017500Y023850D02*
D03*
X021850D02*
D03*
X022400Y027650D02*
D03*
X021700D02*
D03*
X018000Y026650D02*
D03*
X018351Y026350D02*
D03*
X020000Y024000D02*
D03*
X019500D02*
D03*
X018450Y025900D02*
D03*
X018950D02*
D03*
X018000Y024000D02*
D03*
X018500D02*
D03*
X018750Y028850D02*
D03*
X031650Y027450D02*
D03*
X030700Y027050D02*
D03*
X031200D02*
D03*
X032300Y025500D02*
D03*
X030900D02*
D03*
X034750Y023750D02*
D03*
X029250Y022750D02*
D03*
Y022150D02*
D03*
X024400Y018500D02*
D03*
X033250Y023300D02*
D03*
X033750D02*
D03*
X039000Y023900D02*
D03*
X038575Y024250D02*
D03*
X044200Y025600D02*
D03*
X043850Y026050D02*
D03*
X049400Y031200D02*
D03*
X049050Y031600D02*
D03*
X040050D02*
D03*
X039650Y031950D02*
D03*
X043878Y027172D02*
D03*
X044050Y028000D02*
D03*
Y028900D02*
D03*
X046228Y029922D02*
D03*
X040900Y032150D02*
D03*
X040550Y032500D02*
D03*
X039600Y032850D02*
D03*
X038200Y032500D02*
D03*
X031550Y031900D02*
D03*
X030300Y032850D02*
D03*
X036481Y021100D02*
D03*
X059208Y035854D02*
D03*
X059458Y035454D02*
D03*
X041450Y035450D02*
D03*
X041700Y035866D02*
D03*
X035550Y036250D02*
D03*
X033600Y035850D02*
D03*
X033250Y035500D02*
D03*
X029150Y035450D02*
D03*
X029400Y035866D02*
D03*
X057400Y037400D02*
D03*
X057350Y036600D02*
D03*
X059250Y037000D02*
D03*
X057300Y038050D02*
D03*
X056350Y038100D02*
D03*
X055500Y038500D02*
D03*
X056400Y037250D02*
D03*
X054650Y036950D02*
D03*
X053950Y037150D02*
D03*
X045650Y037400D02*
D03*
X045600Y036600D02*
D03*
X047500Y037000D02*
D03*
X045550Y038050D02*
D03*
X044600Y038100D02*
D03*
X043750Y038500D02*
D03*
X044650Y037250D02*
D03*
X042900Y036950D02*
D03*
X042200Y037150D02*
D03*
X033900Y037400D02*
D03*
X033850Y036600D02*
D03*
X035750Y037000D02*
D03*
X033800Y038050D02*
D03*
X032850Y038100D02*
D03*
X032000Y038500D02*
D03*
X032900Y037250D02*
D03*
X031150Y036950D02*
D03*
X030450Y037150D02*
D03*
X022150Y037400D02*
D03*
X022100Y036600D02*
D03*
X024000Y037000D02*
D03*
X022050Y038050D02*
D03*
X021100Y038100D02*
D03*
X020250Y038500D02*
D03*
X021150Y037250D02*
D03*
X019400Y036950D02*
D03*
X018700Y037150D02*
D03*
X047450Y035850D02*
D03*
X047787Y035450D02*
D03*
X035450Y028050D02*
D03*
X046900Y023500D02*
D03*
X047400D02*
D03*
X064250Y026500D02*
D03*
X051650Y028200D02*
D03*
X054150D02*
D03*
X056650D02*
D03*
X059150D02*
D03*
Y031600D02*
D03*
X056650D02*
D03*
X054150D02*
D03*
X051600D02*
D03*
X018750Y033350D02*
D03*
X022650Y032550D02*
D03*
X018500Y028150D02*
D03*
X035850Y026150D02*
D03*
X038900Y021250D02*
D03*
X042450Y030250D02*
D03*
X038650Y027100D02*
D03*
X032900Y028259D02*
D03*
X029000Y031850D02*
D03*
X035400Y033700D02*
D03*
X033050Y025650D02*
D03*
X033500D02*
D03*
X031050Y028550D02*
D03*
X030600D02*
D03*
X027750Y027100D02*
D03*
Y031150D02*
D03*
D46*
X029158Y028050D02*
D03*
X026205D02*
D03*
D47*
X023900Y021250D02*
D03*
X058208Y034904D02*
D03*
X046438Y034500D02*
D03*
X035763D02*
D03*
X032100D02*
D03*
X026400Y035000D02*
D03*
X023850D02*
D03*
X042250Y024844D02*
D03*
X052050Y032600D02*
D03*
X054550D02*
D03*
X057050D02*
D03*
X059550D02*
D03*
X052050Y029200D02*
D03*
X054550D02*
D03*
X057050D02*
D03*
X059550D02*
D03*
D48*
X042250Y020500D02*
D03*
X050900Y022950D02*
D03*
Y024050D02*
D03*
X055450Y020400D02*
D03*
X056550D02*
D03*
X016600Y017750D02*
D03*
X017600D02*
D03*
X021900D02*
D03*
X020900D02*
D03*
X027500Y020925D02*
D03*
Y020125D02*
D03*
X028500D02*
D03*
X038075Y017350D02*
D03*
X036275D02*
D03*
D49*
X063250Y032310D02*
D03*
X062250D02*
D03*
X063250Y033310D02*
D03*
X062250D02*
D03*
X063250Y034310D02*
D03*
X062250D02*
D03*
X063250Y035310D02*
D03*
X061800Y028000D02*
D03*
X064000Y021750D02*
D03*
X025040Y043000D02*
D03*
Y042000D02*
D03*
X024040Y043000D02*
D03*
Y042000D02*
D03*
X023040Y043000D02*
D03*
Y042000D02*
D03*
X022040Y043000D02*
D03*
Y042000D02*
D03*
X021040Y043000D02*
D03*
Y042000D02*
D03*
X020040Y043000D02*
D03*
Y042000D02*
D03*
X019040Y043000D02*
D03*
Y042000D02*
D03*
X018040Y043000D02*
D03*
X036790D02*
D03*
Y042000D02*
D03*
X035790Y043000D02*
D03*
Y042000D02*
D03*
X034790Y043000D02*
D03*
Y042000D02*
D03*
X033790Y043000D02*
D03*
Y042000D02*
D03*
X032790Y043000D02*
D03*
Y042000D02*
D03*
X031790Y043000D02*
D03*
Y042000D02*
D03*
X030790Y043000D02*
D03*
Y042000D02*
D03*
X029790Y043000D02*
D03*
X048540D02*
D03*
Y042000D02*
D03*
X047540Y043000D02*
D03*
Y042000D02*
D03*
X046540Y043000D02*
D03*
Y042000D02*
D03*
X045540Y043000D02*
D03*
Y042000D02*
D03*
X044540Y043000D02*
D03*
Y042000D02*
D03*
X043540Y043000D02*
D03*
Y042000D02*
D03*
X042540Y043000D02*
D03*
Y042000D02*
D03*
X041540Y043000D02*
D03*
X060290D02*
D03*
Y042000D02*
D03*
X059290Y043000D02*
D03*
Y042000D02*
D03*
X058290Y043000D02*
D03*
Y042000D02*
D03*
X057290Y043000D02*
D03*
Y042000D02*
D03*
X056290Y043000D02*
D03*
Y042000D02*
D03*
X055290Y043000D02*
D03*
Y042000D02*
D03*
X054290Y043000D02*
D03*
Y042000D02*
D03*
X053290Y043000D02*
D03*
D50*
X062250Y035310D02*
D03*
X061800Y027000D02*
D03*
X064000Y020750D02*
D03*
D51*
X061500Y024500D02*
D03*
X038525Y018350D02*
D03*
X035775D02*
D03*
D52*
X052500Y017150D02*
D03*
X053500D02*
D03*
X054500D02*
D03*
X055500D02*
D03*
X056750D02*
D03*
X057750D02*
D03*
X023500D02*
D03*
X024500D02*
D03*
X031500D02*
D03*
X032500D02*
D03*
X033500D02*
D03*
X034500D02*
D03*
D53*
X060475Y020475D02*
D03*
X062225Y019225D02*
D03*
X060475Y018025D02*
D03*
D54*
X018040Y042000D02*
D03*
X029790D02*
D03*
X041540D02*
D03*
X053290D02*
D03*
D55*
X016000Y020550D02*
D03*
X022500D02*
D03*
D56*
X021500Y021850D02*
D03*
X020500D02*
D03*
X019500D02*
D03*
X021000Y022850D02*
D03*
X020000D02*
D03*
X019000D02*
D03*
X018500Y021850D02*
D03*
X018000Y022850D02*
D03*
X017500Y021850D02*
D03*
X017000Y022850D02*
D03*
D57*
X025500Y019075D02*
D03*
X030500D02*
D03*
D58*
X028500Y020925D02*
D03*
D59*
X040581Y018740D02*
D03*
X050419D02*
D03*
D60*
X047681Y019299D02*
D03*
D61*
X047136Y018181D02*
D03*
X046591Y019299D02*
D03*
X046045Y018181D02*
D03*
X045500Y019299D02*
D03*
X044955Y018181D02*
D03*
X044409Y019299D02*
D03*
X043864Y018181D02*
D03*
X043319Y019299D02*
D03*
D62*
X063750Y043250D02*
D03*
Y017650D02*
D03*
X014500D02*
D03*
Y043250D02*
D03*
D63*
X017135Y028250D02*
D03*
X017765D02*
D03*
D64*
X027720Y024758D02*
D03*
X028980D02*
D03*
D65*
X032300Y024650D02*
D03*
X030900D02*
D03*
D66*
X022958Y037400D02*
D03*
Y037656D02*
D03*
Y037911D02*
D03*
Y038167D02*
D03*
X020242D02*
D03*
Y037911D02*
D03*
Y037656D02*
D03*
Y037400D02*
D03*
X020242Y035354D02*
D03*
Y035610D02*
D03*
Y035866D02*
D03*
Y036122D02*
D03*
Y036378D02*
D03*
Y036634D02*
D03*
Y036890D02*
D03*
Y037146D02*
D03*
X022958Y035354D02*
D03*
Y035610D02*
D03*
Y035866D02*
D03*
Y036122D02*
D03*
Y036378D02*
D03*
Y036634D02*
D03*
Y036890D02*
D03*
Y037146D02*
D03*
X034708Y037400D02*
D03*
Y037656D02*
D03*
Y037911D02*
D03*
Y038167D02*
D03*
X031992D02*
D03*
Y037911D02*
D03*
Y037656D02*
D03*
Y037400D02*
D03*
X031992Y035354D02*
D03*
Y035610D02*
D03*
Y035866D02*
D03*
Y036122D02*
D03*
Y036378D02*
D03*
Y036634D02*
D03*
Y036890D02*
D03*
Y037146D02*
D03*
X034708Y035354D02*
D03*
Y035610D02*
D03*
Y035866D02*
D03*
Y036122D02*
D03*
Y036378D02*
D03*
Y036634D02*
D03*
Y036890D02*
D03*
Y037146D02*
D03*
X046458Y037400D02*
D03*
Y037656D02*
D03*
Y037911D02*
D03*
Y038167D02*
D03*
X043742D02*
D03*
Y037911D02*
D03*
Y037656D02*
D03*
Y037400D02*
D03*
X043742Y035354D02*
D03*
Y035610D02*
D03*
Y035866D02*
D03*
Y036122D02*
D03*
Y036378D02*
D03*
Y036634D02*
D03*
Y036890D02*
D03*
Y037146D02*
D03*
X046458Y035354D02*
D03*
Y035610D02*
D03*
Y035866D02*
D03*
Y036122D02*
D03*
Y036378D02*
D03*
Y036634D02*
D03*
Y036890D02*
D03*
Y037146D02*
D03*
X058208Y037400D02*
D03*
Y037656D02*
D03*
Y037911D02*
D03*
Y038167D02*
D03*
X055492D02*
D03*
Y037911D02*
D03*
Y037656D02*
D03*
Y037400D02*
D03*
X055492Y035354D02*
D03*
Y035610D02*
D03*
Y035866D02*
D03*
Y036122D02*
D03*
Y036378D02*
D03*
Y036634D02*
D03*
Y036890D02*
D03*
Y037146D02*
D03*
X058208Y035354D02*
D03*
Y035610D02*
D03*
Y035866D02*
D03*
Y036122D02*
D03*
Y036378D02*
D03*
Y036634D02*
D03*
Y036890D02*
D03*
Y037146D02*
D03*
M02*
