M48
;Layer_Color=9474304
;FILE_FORMAT=2:4
INCH
;TYPE=PLATED
T1F00S00C0.0150
T2F00S00C0.0200
T3F00S00C0.0300
T4F00S00C0.0315
T5F00S00C0.0350
T6F00S00C0.0354
T7F00S00C0.0400
T8F00S00C0.0429
T9F00S00C0.0500
T10F00S00C0.0591
T11F00S00C0.0620
T12F00S00C0.0900
T13F00S00C0.1024
T14F00S00C0.1050
T15F00S00C0.1283
T16F00S00C0.1300
%
T01
X064250Y026500
X059150Y028200
X056650
X054150
X051650
X049400Y031200
X046900Y025250
Y023500
X047400
X044200Y025600
X043850Y026050
X043878Y027172
X044050Y028000
Y028900
X042450Y030250
X038550Y030300
X037400Y029550
X037050Y029850
X036700Y029200
X037050Y028850
X035600Y029750
X035400Y030150
X036200Y030400
X035450Y028050
X035850Y026150
X033500Y025650
X033050
X032300Y025500
X031650Y027450
X032900Y028259
X033250Y023300
X033750
X034750Y023750
X038575Y024250
X039000Y023900
X038900Y021250
X036481Y021100
X038650Y027100
X046228Y029922
X031050Y028550
X030600
X030700Y027050
X031200
X030900Y025500
X029250Y022750
Y022150
X027750Y027100
Y031150
X023750Y029400
X023500Y028950
X023250Y029750
X022950Y028400
X022400Y027650
X021700
X021000Y027350
X020400Y026700
X020550Y025600
X018950Y025900
X018450
X018351Y026350
X018000Y026650
X017326Y026724
X018500Y028150
X018750Y028850
X019350
X019500Y028100
X019750Y029750
X019050Y029850
X016650Y029400
X021650Y029450
X021050Y031150
X021850Y023850
X020000Y024000
X019500
X018500
X018000
X017500Y023850
X024400Y018500
X022650Y032550
X019150Y032350
X018750Y032650
Y033350
X019700Y031800
X019400Y036950
X018700Y037150
X021150Y037250
X021100Y038100
X022050Y038050
X022150Y037400
X022100Y036600
X024000Y037000
X020250Y038500
X030450Y037150
X031150Y036950
X029400Y035866
X029150Y035450
X030300Y032850
X030350Y031850
X029000
X031550Y031900
X032250Y031550
X035800Y032200
X035750Y032700
X036100Y033050
X036950Y032650
X037350Y032250
X038200Y032500
X039600Y032850
X039650Y031950
X040050Y031600
X040900Y032150
X040550Y032500
X041450Y035450
X041700Y035866
X042200Y037150
X042900Y036950
X044650Y037250
X044600Y038100
X045550Y038050
X045650Y037400
X045600Y036600
X043750Y038500
X035750Y037000
X035550Y036250
X033850Y036600
X033900Y037400
X033800Y038050
X032850Y038100
X032900Y037250
X033600Y035850
X033250Y035500
X035400Y033700
X032000Y038500
X047500Y037000
X047450Y035850
X047787Y035450
X049050Y031600
X051600
X054150
X056650
X059150
X059458Y035454
X059208Y035854
X059250Y037000
X057400Y037400
X057300Y038050
X056350Y038100
X056400Y037250
X057350Y036600
X054650Y036950
X053950Y037150
X055500Y038500
T02
X052050Y029200
X054550
X057050
X059550
X042250Y024844
X023900Y021250
X023850Y035000
X026400
X032100Y034500
X035763
X046438
X052050Y032600
X054550
X057050
X059550
X058208Y034904
T03
X050900Y022950
Y024050
X055450Y020400
X056550
X042250Y020500
X028500Y020125
Y020925
X027500
Y020125
T04
X052500Y017150
X053500
X054500
X055500
X056750
X057750
X034500
X033500
X032500
X031500
X024500
X023500
T05
X017500Y021850
X018500
X019500
X020500
X021500
X021000Y022850
X020000
X019000
X018000
X017000
T06
X064000Y020750
Y021750
X061800Y027000
Y028000
X030790Y042000
Y043000
X029790
Y042000
X025040
Y043000
X024040
Y042000
X023040
Y043000
X022040
Y042000
X021040
Y043000
X020040
Y042000
X019040
Y043000
X018040
Y042000
X031790
X032790
X033790
X034790
X035790
X036790
Y043000
X035790
X034790
X033790
X032790
X031790
X041540
X042540
X043540
X044540
X045540
X046540
Y042000
X045540
X044540
X043540
X042540
X041540
X047540
X048540
Y043000
X047540
X053290
X054290
X055290
X056290
X057290
X058290
X059290
X060290
Y042000
X059290
X058290
X057290
X056290
X055290
X054290
X053290
X062250Y035310
Y034310
Y033310
Y032310
X063250
Y033310
Y034310
Y035310
T07
X036275Y017350
X038075
X021900Y017750
X020900
X017600
X016600
T08
X047136Y018181
X047681Y019299
X046591
X045500
X044409
X043319
X043864Y018181
X044955
X046045
T09
X061500Y024500
X038525Y018350
X035775
T10
X026205Y028050
X029158
T11
X016000Y020550
X022500
T12
X025500Y019075
X030500
T13
X063750Y017650
X014500
Y043250
X063750
T14
X060475Y018025
Y020475
X062225Y019225
T15
X050419Y018740
X040581
T16
X017000Y019350
X021500
M30
