%FSAX43Y43*%
%MOMM*%
G71*
G01*
G75*
G04 Layer_Color=16711935*
%ADD10R,1.016X2.540*%
%ADD11R,0.900X0.800*%
%ADD12R,1.000X1.300*%
%ADD13R,3.100X2.400*%
%ADD14R,0.450X2.200*%
%ADD15R,0.800X0.900*%
%ADD16R,0.800X0.350*%
%ADD17R,2.540X1.016*%
%ADD18R,3.810X2.794*%
%ADD19R,11.000X4.000*%
%ADD20C,0.889*%
%ADD21C,0.254*%
%ADD22C,0.381*%
%ADD23C,0.635*%
%ADD24C,1.016*%
%ADD25C,1.270*%
%ADD26R,1.265X3.340*%
%ADD27R,4.445X2.667*%
%ADD28R,0.782X1.737*%
%ADD29R,3.937X3.429*%
%ADD30R,5.207X4.826*%
%ADD31R,5.080X5.207*%
%ADD32R,5.461X5.334*%
%ADD33R,5.080X5.334*%
%ADD34R,1.270X4.953*%
%ADD35R,2.413X4.699*%
%ADD36R,7.620X3.048*%
%ADD37R,2.286X4.699*%
%ADD38R,3.810X0.762*%
%ADD39R,9.652X2.413*%
%ADD40R,1.524X1.397*%
%ADD41R,2.540X1.778*%
%ADD42R,0.635X0.762*%
%ADD43R,2.540X1.016*%
%ADD44R,1.397X29.972*%
%ADD45R,1.473X29.972*%
%ADD46R,1.575X1.397*%
%ADD47R,2.591X1.778*%
%ADD48R,10.287X1.651*%
%ADD49R,2.257X2.180*%
%ADD50R,2.032X2.159*%
%ADD51R,2.032X2.032*%
%ADD52R,2.024X2.159*%
%ADD53R,3.810X2.540*%
%ADD54R,3.302X2.159*%
%ADD55R,1.143X1.074*%
%ADD56R,1.001X1.074*%
%ADD57R,1.143X1.074*%
%ADD58R,1.016X1.016*%
%ADD59R,1.172X0.820*%
%ADD60C,0.508*%
%ADD61C,1.500*%
%ADD62R,1.500X1.500*%
%ADD63C,1.524*%
%ADD64C,1.778*%
%ADD65C,1.600*%
%ADD66C,2.000*%
%ADD67R,2.000X2.000*%
%ADD68C,4.000*%
%ADD69R,1.524X1.524*%
%ADD70R,1.500X1.500*%
%ADD71C,1.016*%
%ADD72R,1.100X1.700*%
%ADD73C,0.254*%
%ADD74C,0.762*%
%ADD75R,0.615X0.740*%
%ADD76R,3.802X0.994*%
%ADD77R,4.796X3.925*%
%ADD78R,5.461X5.207*%
%ADD79R,5.461X4.953*%
%ADD80R,2.540X2.667*%
%ADD81R,3.048X3.175*%
%ADD82R,5.461X5.842*%
%ADD83R,2.286X2.286*%
%ADD84R,1.898X2.032*%
%ADD85R,1.898X2.215*%
%ADD86R,1.898X2.041*%
%ADD87R,1.898X2.024*%
%ADD88R,3.556X2.286*%
%ADD89R,1.270X1.270*%
%ADD90R,1.397X1.397*%
%ADD91C,0.127*%
%ADD92C,0.250*%
%ADD93C,0.200*%
%ADD94C,0.100*%
%ADD95R,1.219X2.743*%
%ADD96R,1.103X1.003*%
%ADD97R,1.203X1.503*%
%ADD98R,3.303X2.603*%
%ADD99R,0.653X2.403*%
%ADD100R,1.003X1.103*%
%ADD101R,1.003X0.553*%
%ADD102R,2.743X1.219*%
%ADD103R,4.013X2.997*%
%ADD104R,11.203X4.203*%
%ADD105C,0.711*%
%ADD106C,1.703*%
%ADD107R,1.703X1.703*%
%ADD108C,1.727*%
%ADD109C,1.981*%
%ADD110C,1.803*%
%ADD111C,2.203*%
%ADD112R,2.203X2.203*%
%ADD113C,4.203*%
%ADD114R,1.703X1.703*%
%ADD115C,1.219*%
%ADD116R,1.303X1.903*%
%ADD117C,0.025*%
D94*
X0122823Y0099728D02*
Y0100678D01*
X0124573Y0099728D02*
Y0100678D01*
X0122823Y0099728D02*
X0124573D01*
X0122823Y0100678D02*
X0124573D01*
X0131177Y0091854D02*
Y0092804D01*
X0129427Y0091854D02*
Y0092804D01*
X0131177D01*
X0129427Y0091854D02*
X0131177D01*
X0130796Y0099855D02*
Y0100805D01*
X0129046Y0099855D02*
Y0100805D01*
X0130796D01*
X0129046Y0099855D02*
X0130796D01*
X0116492Y0112000D02*
X0117442D01*
X0116492Y0110250D02*
X0117442D01*
Y0112000D01*
X0116492Y0110250D02*
Y0112000D01*
X0125382Y0113806D02*
X0126332D01*
X0125382Y0115556D02*
X0126332D01*
X0125382Y0113806D02*
Y0115556D01*
X0126332Y0113806D02*
Y0115556D01*
X0121099Y0118175D02*
X0123249D01*
X0121099Y0116775D02*
X0123249D01*
X0121099D02*
Y0118175D01*
X0123249Y0116775D02*
Y0118175D01*
X0117162D02*
X0119312D01*
X0117162Y0116775D02*
X0119312D01*
X0117162D02*
Y0118175D01*
X0119312Y0116775D02*
Y0118175D01*
X0126017Y0110603D02*
X0126967D01*
X0126017Y0108853D02*
X0126967D01*
Y0110603D01*
X0126017Y0108853D02*
Y0110603D01*
X0118270Y0113806D02*
X0119220D01*
X0118270Y0115556D02*
X0119220D01*
X0118270Y0113806D02*
Y0115556D01*
X0119220Y0113806D02*
Y0115556D01*
X0142146Y0095010D02*
X0143096D01*
X0142146Y0096760D02*
X0143096D01*
Y0095010D02*
Y0096760D01*
X0142146Y0095010D02*
Y0096760D01*
X0085930Y0079364D02*
Y0081164D01*
X0089330Y0079364D02*
Y0081164D01*
X0085930Y0079364D02*
X0089330D01*
X0085930Y0081164D02*
X0089330D01*
X0085930Y0074284D02*
Y0076084D01*
X0089330Y0074284D02*
Y0076084D01*
X0085930Y0074284D02*
X0089330D01*
X0085930Y0076084D02*
X0089330D01*
X0045925Y0104764D02*
Y0106564D01*
X0049325Y0104764D02*
Y0106564D01*
X0045925Y0104764D02*
X0049325D01*
X0045925Y0106564D02*
X0049325D01*
X0085930Y0104764D02*
Y0106564D01*
X0089330Y0104764D02*
Y0106564D01*
X0085930Y0104764D02*
X0089330D01*
X0085930Y0106564D02*
X0089330D01*
X0085930Y0069204D02*
Y0071004D01*
X0089330Y0069204D02*
Y0071004D01*
X0085930Y0069204D02*
X0089330D01*
X0085930Y0071004D02*
X0089330D01*
X0045925Y0099684D02*
Y0101484D01*
X0049325Y0099684D02*
Y0101484D01*
X0045925Y0099684D02*
X0049325D01*
X0045925Y0101484D02*
X0049325D01*
X0085930Y0099684D02*
Y0101484D01*
X0089330Y0099684D02*
Y0101484D01*
X0085930Y0099684D02*
X0089330D01*
X0085930Y0101484D02*
X0089330D01*
X0045925Y0097144D02*
Y0098944D01*
X0049325Y0097144D02*
Y0098944D01*
X0045925Y0097144D02*
X0049325D01*
X0045925Y0098944D02*
X0049325D01*
X0085930Y0094604D02*
Y0096404D01*
X0089330Y0094604D02*
Y0096404D01*
X0085930Y0094604D02*
X0089330D01*
X0085930Y0096404D02*
X0089330D01*
X0099490Y0097144D02*
Y0098944D01*
X0096090Y0097144D02*
Y0098944D01*
X0099490D01*
X0096090Y0097144D02*
X0099490D01*
X0059485D02*
Y0098944D01*
X0056085Y0097144D02*
Y0098944D01*
X0059485D01*
X0056085Y0097144D02*
X0059485D01*
Y0112384D02*
Y0114184D01*
X0056085Y0112384D02*
Y0114184D01*
X0059485D01*
X0056085Y0112384D02*
X0059485D01*
X0099490Y0081904D02*
Y0083704D01*
X0096090Y0081904D02*
Y0083704D01*
X0099490D01*
X0096090Y0081904D02*
X0099490D01*
X0059485Y0102224D02*
Y0104024D01*
X0056085Y0102224D02*
Y0104024D01*
X0059485D01*
X0056085Y0102224D02*
X0059485D01*
X0099490Y0071744D02*
Y0073544D01*
X0096090Y0071744D02*
Y0073544D01*
X0099490D01*
X0096090Y0071744D02*
X0099490D01*
Y0112384D02*
Y0114184D01*
X0096090Y0112384D02*
Y0114184D01*
X0099490D01*
X0096090Y0112384D02*
X0099490D01*
Y0102224D02*
Y0104024D01*
X0096090Y0102224D02*
Y0104024D01*
X0099490D01*
X0096090Y0102224D02*
X0099490D01*
Y0076824D02*
Y0078624D01*
X0096090Y0076824D02*
Y0078624D01*
X0099490D01*
X0096090Y0076824D02*
X0099490D01*
X0059485Y0107304D02*
Y0109104D01*
X0056085Y0107304D02*
Y0109104D01*
X0059485D01*
X0056085Y0107304D02*
X0059485D01*
X0099490D02*
Y0109104D01*
X0096090Y0107304D02*
Y0109104D01*
X0099490D01*
X0096090Y0107304D02*
X0099490D01*
X0085930Y0109844D02*
Y0111644D01*
X0089330Y0109844D02*
Y0111644D01*
X0085930Y0109844D02*
X0089330D01*
X0085930Y0111644D02*
X0089330D01*
X0045925Y0109844D02*
Y0111644D01*
X0049325Y0109844D02*
Y0111644D01*
X0045925Y0109844D02*
X0049325D01*
X0045925Y0111644D02*
X0049325D01*
X0099490Y0066664D02*
Y0068464D01*
X0096090Y0066664D02*
Y0068464D01*
X0099490D01*
X0096090Y0066664D02*
X0099490D01*
X0059485Y0081904D02*
Y0083704D01*
X0056085Y0081904D02*
Y0083704D01*
X0059485D01*
X0056085Y0081904D02*
X0059485D01*
Y0076824D02*
Y0078624D01*
X0056085Y0076824D02*
Y0078624D01*
X0059485D01*
X0056085Y0076824D02*
X0059485D01*
Y0066664D02*
Y0068464D01*
X0056085Y0066664D02*
Y0068464D01*
X0059485D01*
X0056085Y0066664D02*
X0059485D01*
X0045925Y0064124D02*
Y0065924D01*
X0049325Y0064124D02*
Y0065924D01*
X0045925Y0064124D02*
X0049325D01*
X0045925Y0065924D02*
X0049325D01*
X0045925Y0069204D02*
Y0071004D01*
X0049325Y0069204D02*
Y0071004D01*
X0045925Y0069204D02*
X0049325D01*
X0045925Y0071004D02*
X0049325D01*
X0059485Y0071744D02*
Y0073544D01*
X0056085Y0071744D02*
Y0073544D01*
X0059485D01*
X0056085Y0071744D02*
X0059485D01*
X0045925Y0074284D02*
Y0076084D01*
X0049325Y0074284D02*
Y0076084D01*
X0045925Y0074284D02*
X0049325D01*
X0045925Y0076084D02*
X0049325D01*
X0045925Y0079364D02*
Y0081164D01*
X0049325Y0079364D02*
Y0081164D01*
X0045925Y0079364D02*
X0049325D01*
X0045925Y0081164D02*
X0049325D01*
X0139816Y0073185D02*
Y0074135D01*
X0141566Y0073185D02*
Y0074135D01*
X0139816D02*
X0141566D01*
X0139816Y0073185D02*
X0141566D01*
X0139816Y0078011D02*
Y0078961D01*
X0141566Y0078011D02*
Y0078961D01*
X0139816D02*
X0141566D01*
X0139816Y0078011D02*
X0141566D01*
X0137149Y0073185D02*
Y0074135D01*
X0138899Y0073185D02*
Y0074135D01*
X0137149D02*
X0138899D01*
X0137149Y0073185D02*
X0138899D01*
X0137149Y0078011D02*
Y0078961D01*
X0138899Y0078011D02*
Y0078961D01*
X0137149D02*
X0138899D01*
X0137149Y0078011D02*
X0138899D01*
X0128182D02*
Y0078961D01*
X0129932Y0078011D02*
Y0078961D01*
X0128182D02*
X0129932D01*
X0128182Y0078011D02*
X0129932D01*
X0125515Y0073185D02*
Y0074135D01*
X0127265Y0073185D02*
Y0074135D01*
X0125515D02*
X0127265D01*
X0125515Y0073185D02*
X0127265D01*
X0125515Y0078011D02*
Y0078961D01*
X0127265Y0078011D02*
Y0078961D01*
X0125515D02*
X0127265D01*
X0125515Y0078011D02*
X0127265D01*
X0128182Y0073185D02*
Y0074135D01*
X0129932Y0073185D02*
Y0074135D01*
X0128182D02*
X0129932D01*
X0128182Y0073185D02*
X0129932D01*
X0139816Y0085504D02*
Y0086454D01*
X0141566Y0085504D02*
Y0086454D01*
X0139816D02*
X0141566D01*
X0139816Y0085504D02*
X0141566D01*
X0137149D02*
Y0086454D01*
X0138899Y0085504D02*
Y0086454D01*
X0137149D02*
X0138899D01*
X0137149Y0085504D02*
X0138899D01*
X0137149Y0080678D02*
Y0081628D01*
X0138899Y0080678D02*
Y0081628D01*
X0137149D02*
X0138899D01*
X0137149Y0080678D02*
X0138899D01*
X0139816D02*
Y0081628D01*
X0141566Y0080678D02*
Y0081628D01*
X0139816D02*
X0141566D01*
X0139816Y0080678D02*
X0141566D01*
X0125515Y0085504D02*
Y0086454D01*
X0127265Y0085504D02*
Y0086454D01*
X0125515D02*
X0127265D01*
X0125515Y0085504D02*
X0127265D01*
X0125515Y0080678D02*
Y0081628D01*
X0127265Y0080678D02*
Y0081628D01*
X0125515D02*
X0127265D01*
X0125515Y0080678D02*
X0127265D01*
X0128182Y0085504D02*
Y0086454D01*
X0129932Y0085504D02*
Y0086454D01*
X0128182D02*
X0129932D01*
X0128182Y0085504D02*
X0129932D01*
X0128182Y0080678D02*
Y0081628D01*
X0129932Y0080678D02*
Y0081628D01*
X0128182D02*
X0129932D01*
X0128182Y0080678D02*
X0129932D01*
X0137149Y0058199D02*
Y0059149D01*
X0138899Y0058199D02*
Y0059149D01*
X0137149D02*
X0138899D01*
X0137149Y0058199D02*
X0138899D01*
X0137149Y0063025D02*
Y0063975D01*
X0138899Y0063025D02*
Y0063975D01*
X0137149D02*
X0138899D01*
X0137149Y0063025D02*
X0138899D01*
X0125515Y0058199D02*
Y0059149D01*
X0127265Y0058199D02*
Y0059149D01*
X0125515D02*
X0127265D01*
X0125515Y0058199D02*
X0127265D01*
X0139816Y0063025D02*
Y0063975D01*
X0141566Y0063025D02*
Y0063975D01*
X0139816D02*
X0141566D01*
X0139816Y0063025D02*
X0141566D01*
X0128182D02*
Y0063975D01*
X0129932Y0063025D02*
Y0063975D01*
X0128182D02*
X0129932D01*
X0128182Y0063025D02*
X0129932D01*
X0125515D02*
Y0063975D01*
X0127265Y0063025D02*
Y0063975D01*
X0125515D02*
X0127265D01*
X0125515Y0063025D02*
X0127265D01*
X0139816Y0058199D02*
Y0059149D01*
X0141566Y0058199D02*
Y0059149D01*
X0139816D02*
X0141566D01*
X0139816Y0058199D02*
X0141566D01*
X0128182D02*
Y0059149D01*
X0129932Y0058199D02*
Y0059149D01*
X0128182D02*
X0129932D01*
X0128182Y0058199D02*
X0129932D01*
X0139816Y0065692D02*
Y0066642D01*
X0141566Y0065692D02*
Y0066642D01*
X0139816D02*
X0141566D01*
X0139816Y0065692D02*
X0141566D01*
X0137149D02*
Y0066642D01*
X0138899Y0065692D02*
Y0066642D01*
X0137149D02*
X0138899D01*
X0137149Y0065692D02*
X0138899D01*
X0137149Y0070518D02*
Y0071468D01*
X0138899Y0070518D02*
Y0071468D01*
X0137149D02*
X0138899D01*
X0137149Y0070518D02*
X0138899D01*
X0125515D02*
Y0071468D01*
X0127265Y0070518D02*
Y0071468D01*
X0125515D02*
X0127265D01*
X0125515Y0070518D02*
X0127265D01*
X0128182Y0065692D02*
Y0066642D01*
X0129932Y0065692D02*
Y0066642D01*
X0128182D02*
X0129932D01*
X0128182Y0065692D02*
X0129932D01*
X0125515D02*
Y0066642D01*
X0127265Y0065692D02*
Y0066642D01*
X0125515D02*
X0127265D01*
X0125515Y0065692D02*
X0127265D01*
X0139816Y0070518D02*
Y0071468D01*
X0141566Y0070518D02*
Y0071468D01*
X0139816D02*
X0141566D01*
X0139816Y0070518D02*
X0141566D01*
X0128182D02*
Y0071468D01*
X0129932Y0070518D02*
Y0071468D01*
X0128182D02*
X0129932D01*
X0128182Y0070518D02*
X0129932D01*
X0141105Y0063867D02*
X0142055D01*
X0141105Y0062117D02*
X0142055D01*
X0141105D02*
Y0063867D01*
X0142055Y0062117D02*
Y0063867D01*
X0141105Y0071360D02*
X0142055D01*
X0141105Y0069610D02*
X0142055D01*
X0141105D02*
Y0071360D01*
X0142055Y0069610D02*
Y0071360D01*
X0141105Y0078853D02*
X0142055D01*
X0141105Y0077103D02*
X0142055D01*
X0141105D02*
Y0078853D01*
X0142055Y0077103D02*
Y0078853D01*
X0141105Y0086346D02*
X0142055D01*
X0141105Y0084596D02*
X0142055D01*
X0141105D02*
Y0086346D01*
X0142055Y0084596D02*
Y0086346D01*
X0129471Y0063867D02*
X0130421D01*
X0129471Y0062117D02*
X0130421D01*
X0129471D02*
Y0063867D01*
X0130421Y0062117D02*
Y0063867D01*
X0129471Y0071360D02*
X0130421D01*
X0129471Y0069610D02*
X0130421D01*
X0129471D02*
Y0071360D01*
X0130421Y0069610D02*
Y0071360D01*
X0129471Y0078853D02*
X0130421D01*
X0129471Y0077103D02*
X0130421D01*
X0129471D02*
Y0078853D01*
X0130421Y0077103D02*
Y0078853D01*
X0129471Y0086346D02*
X0130421D01*
X0129471Y0084596D02*
X0130421D01*
X0129471D02*
Y0086346D01*
X0130421Y0084596D02*
Y0086346D01*
X0085930Y0064124D02*
Y0065924D01*
X0089330Y0064124D02*
Y0065924D01*
X0085930Y0064124D02*
X0089330D01*
X0085930Y0065924D02*
X0089330D01*
X0039130Y0084869D02*
Y0085819D01*
X0040880Y0084869D02*
Y0085819D01*
X0039130Y0084869D02*
X0040880D01*
X0039130Y0085819D02*
X0040880D01*
X0079135Y0115349D02*
Y0116299D01*
X0080885Y0115349D02*
Y0116299D01*
X0079135Y0115349D02*
X0080885D01*
X0079135Y0116299D02*
X0080885D01*
X0066280Y0093378D02*
Y0094328D01*
X0064530Y0093378D02*
Y0094328D01*
X0066280D01*
X0064530Y0093378D02*
X0066280D01*
X0039130Y0115349D02*
Y0116299D01*
X0040880Y0115349D02*
Y0116299D01*
X0039130Y0115349D02*
X0040880D01*
X0039130Y0116299D02*
X0040880D01*
X0079135Y0083980D02*
Y0084930D01*
X0080885Y0083980D02*
Y0084930D01*
X0079135Y0083980D02*
X0080885D01*
X0079135Y0084930D02*
X0080885D01*
X0066280Y0062009D02*
Y0062959D01*
X0064530Y0062009D02*
Y0062959D01*
X0066280D01*
X0064530Y0062009D02*
X0066280D01*
X0106285D02*
Y0062959D01*
X0104535Y0062009D02*
Y0062959D01*
X0106285D01*
X0104535Y0062009D02*
X0106285D01*
Y0093378D02*
Y0094328D01*
X0104535Y0093378D02*
Y0094328D01*
X0106285D01*
X0104535Y0093378D02*
X0106285D01*
X0059485Y0079364D02*
Y0081164D01*
X0056085Y0079364D02*
Y0081164D01*
X0059485D01*
X0056085Y0079364D02*
X0059485D01*
Y0074284D02*
Y0076084D01*
X0056085Y0074284D02*
Y0076084D01*
X0059485D01*
X0056085Y0074284D02*
X0059485D01*
Y0069204D02*
Y0071004D01*
X0056085Y0069204D02*
Y0071004D01*
X0059485D01*
X0056085Y0069204D02*
X0059485D01*
Y0064124D02*
Y0065924D01*
X0056085Y0064124D02*
Y0065924D01*
X0059485D01*
X0056085Y0064124D02*
X0059485D01*
X0045925Y0066664D02*
Y0068464D01*
X0049325Y0066664D02*
Y0068464D01*
X0045925Y0066664D02*
X0049325D01*
X0045925Y0068464D02*
X0049325D01*
X0045925Y0071744D02*
Y0073544D01*
X0049325Y0071744D02*
Y0073544D01*
X0045925Y0071744D02*
X0049325D01*
X0045925Y0073544D02*
X0049325D01*
X0045925Y0076824D02*
Y0078624D01*
X0049325Y0076824D02*
Y0078624D01*
X0045925Y0076824D02*
X0049325D01*
X0045925Y0078624D02*
X0049325D01*
X0045925Y0081904D02*
Y0083704D01*
X0049325Y0081904D02*
Y0083704D01*
X0045925Y0081904D02*
X0049325D01*
X0045925Y0083704D02*
X0049325D01*
X0085930Y0081904D02*
Y0083704D01*
X0089330Y0081904D02*
Y0083704D01*
X0085930Y0081904D02*
X0089330D01*
X0085930Y0083704D02*
X0089330D01*
X0085930Y0076824D02*
Y0078624D01*
X0089330Y0076824D02*
Y0078624D01*
X0085930Y0076824D02*
X0089330D01*
X0085930Y0078624D02*
X0089330D01*
X0085930Y0071744D02*
Y0073544D01*
X0089330Y0071744D02*
Y0073544D01*
X0085930Y0071744D02*
X0089330D01*
X0085930Y0073544D02*
X0089330D01*
X0085930Y0066664D02*
Y0068464D01*
X0089330Y0066664D02*
Y0068464D01*
X0085930Y0066664D02*
X0089330D01*
X0085930Y0068464D02*
X0089330D01*
X0099490Y0064124D02*
Y0065924D01*
X0096090Y0064124D02*
Y0065924D01*
X0099490D01*
X0096090Y0064124D02*
X0099490D01*
Y0069204D02*
Y0071004D01*
X0096090Y0069204D02*
Y0071004D01*
X0099490D01*
X0096090Y0069204D02*
X0099490D01*
Y0074284D02*
Y0076084D01*
X0096090Y0074284D02*
Y0076084D01*
X0099490D01*
X0096090Y0074284D02*
X0099490D01*
Y0079364D02*
Y0081164D01*
X0096090Y0079364D02*
Y0081164D01*
X0099490D01*
X0096090Y0079364D02*
X0099490D01*
X0059485Y0109844D02*
Y0111644D01*
X0056085Y0109844D02*
Y0111644D01*
X0059485D01*
X0056085Y0109844D02*
X0059485D01*
Y0104764D02*
Y0106564D01*
X0056085Y0104764D02*
Y0106564D01*
X0059485D01*
X0056085Y0104764D02*
X0059485D01*
Y0099684D02*
Y0101484D01*
X0056085Y0099684D02*
Y0101484D01*
X0059485D01*
X0056085Y0099684D02*
X0059485D01*
Y0094604D02*
Y0096404D01*
X0056085Y0094604D02*
Y0096404D01*
X0059485D01*
X0056085Y0094604D02*
X0059485D01*
X0045925Y0112384D02*
Y0114184D01*
X0049325Y0112384D02*
Y0114184D01*
X0045925Y0112384D02*
X0049325D01*
X0045925Y0114184D02*
X0049325D01*
X0045925Y0107304D02*
Y0109104D01*
X0049325Y0107304D02*
Y0109104D01*
X0045925Y0107304D02*
X0049325D01*
X0045925Y0109104D02*
X0049325D01*
X0045925Y0094604D02*
Y0096404D01*
X0049325Y0094604D02*
Y0096404D01*
X0045925Y0094604D02*
X0049325D01*
X0045925Y0096404D02*
X0049325D01*
X0045925Y0102224D02*
Y0104024D01*
X0049325Y0102224D02*
Y0104024D01*
X0045925Y0102224D02*
X0049325D01*
X0045925Y0104024D02*
X0049325D01*
X0085930Y0112384D02*
Y0114184D01*
X0089330Y0112384D02*
Y0114184D01*
X0085930Y0112384D02*
X0089330D01*
X0085930Y0114184D02*
X0089330D01*
X0085930Y0107304D02*
Y0109104D01*
X0089330Y0107304D02*
Y0109104D01*
X0085930Y0107304D02*
X0089330D01*
X0085930Y0109104D02*
X0089330D01*
X0085930Y0102224D02*
Y0104024D01*
X0089330Y0102224D02*
Y0104024D01*
X0085930Y0102224D02*
X0089330D01*
X0085930Y0104024D02*
X0089330D01*
X0085930Y0097144D02*
Y0098944D01*
X0089330Y0097144D02*
Y0098944D01*
X0085930Y0097144D02*
X0089330D01*
X0085930Y0098944D02*
X0089330D01*
X0099490Y0094604D02*
Y0096404D01*
X0096090Y0094604D02*
Y0096404D01*
X0099490D01*
X0096090Y0094604D02*
X0099490D01*
Y0099684D02*
Y0101484D01*
X0096090Y0099684D02*
Y0101484D01*
X0099490D01*
X0096090Y0099684D02*
X0099490D01*
Y0104764D02*
Y0106564D01*
X0096090Y0104764D02*
Y0106564D01*
X0099490D01*
X0096090Y0104764D02*
X0099490D01*
Y0109844D02*
Y0111644D01*
X0096090Y0109844D02*
Y0111644D01*
X0099490D01*
X0096090Y0109844D02*
X0099490D01*
M02*
