%FSAX43Y43*%
%MOMM*%
G71*
G01*
G75*
G04 Layer_Color=255*
%ADD10R,1.016X2.540*%
%ADD11R,0.900X0.800*%
%ADD12R,1.000X1.300*%
%ADD13R,3.100X2.400*%
%ADD14R,0.450X2.200*%
%ADD15R,0.800X0.900*%
%ADD16R,0.800X0.350*%
%ADD17R,2.540X1.016*%
%ADD18R,3.810X2.794*%
%ADD19R,11.000X4.000*%
%ADD20C,0.889*%
%ADD21C,0.254*%
%ADD22C,0.381*%
%ADD23C,0.635*%
%ADD24C,1.016*%
%ADD25C,1.270*%
%ADD26R,1.265X3.340*%
%ADD27R,4.445X2.667*%
%ADD28R,0.782X1.737*%
%ADD29R,3.937X3.429*%
%ADD30R,5.207X4.826*%
%ADD31R,5.080X5.207*%
%ADD32R,5.461X5.334*%
%ADD33R,5.080X5.334*%
%ADD34R,1.270X4.953*%
%ADD35R,2.413X4.699*%
%ADD36R,7.620X3.048*%
%ADD37R,2.286X4.699*%
%ADD38R,3.810X0.762*%
%ADD39R,9.652X2.413*%
%ADD40R,1.524X1.397*%
%ADD41R,2.540X1.778*%
%ADD42R,0.635X0.762*%
%ADD43R,2.540X1.016*%
%ADD44R,1.397X29.972*%
%ADD45R,1.473X29.972*%
%ADD46R,1.575X1.397*%
%ADD47R,2.591X1.778*%
%ADD48R,10.287X1.651*%
%ADD49R,2.257X2.180*%
%ADD50R,2.032X2.159*%
%ADD51R,2.032X2.032*%
%ADD52R,2.024X2.159*%
%ADD53R,3.810X2.540*%
%ADD54R,3.302X2.159*%
%ADD55R,1.143X1.074*%
%ADD56R,1.001X1.074*%
%ADD57R,1.143X1.074*%
%ADD58R,1.016X1.016*%
%ADD59R,1.172X0.820*%
%ADD60C,0.508*%
%ADD61C,1.500*%
%ADD62R,1.500X1.500*%
%ADD63C,1.524*%
%ADD64C,1.778*%
%ADD65C,1.600*%
%ADD66C,2.000*%
%ADD67R,2.000X2.000*%
%ADD68C,4.000*%
%ADD69R,1.524X1.524*%
%ADD70R,1.500X1.500*%
%ADD71C,1.016*%
%ADD72R,1.100X1.700*%
%ADD73C,0.254*%
%ADD74C,0.762*%
%ADD75R,0.615X0.740*%
%ADD76R,3.802X0.994*%
%ADD77R,4.796X3.925*%
%ADD78R,5.461X5.207*%
%ADD79R,5.461X4.953*%
%ADD80R,2.540X2.667*%
%ADD81R,3.048X3.175*%
%ADD82R,5.461X5.842*%
%ADD83R,2.286X2.286*%
%ADD84R,1.898X2.032*%
%ADD85R,1.898X2.215*%
%ADD86R,1.898X2.041*%
%ADD87R,1.898X2.024*%
%ADD88R,3.556X2.286*%
%ADD89R,1.270X1.270*%
%ADD90R,1.397X1.397*%
D11*
X0142621Y0095185D02*
D03*
Y0096585D02*
D03*
X0141580Y0063692D02*
D03*
Y0062292D02*
D03*
Y0071185D02*
D03*
Y0069785D02*
D03*
Y0078678D02*
D03*
Y0077278D02*
D03*
Y0086171D02*
D03*
Y0084771D02*
D03*
X0129946Y0063692D02*
D03*
Y0062292D02*
D03*
Y0071185D02*
D03*
Y0069785D02*
D03*
Y0078678D02*
D03*
Y0077278D02*
D03*
Y0086171D02*
D03*
Y0084771D02*
D03*
D15*
X0122998Y0100203D02*
D03*
X0124398D02*
D03*
X0131002Y0092329D02*
D03*
X0129602D02*
D03*
X0130621Y0100330D02*
D03*
X0129221D02*
D03*
X0039305Y0085344D02*
D03*
X0040705D02*
D03*
X0079310Y0115824D02*
D03*
X0080710D02*
D03*
X0066105Y0093853D02*
D03*
X0064705D02*
D03*
X0039305Y0115824D02*
D03*
X0040705D02*
D03*
X0079310Y0084455D02*
D03*
X0080710D02*
D03*
X0066105Y0062484D02*
D03*
X0064705D02*
D03*
X0106110D02*
D03*
X0104710D02*
D03*
X0106110Y0093853D02*
D03*
X0104710D02*
D03*
D60*
X0125349Y0100203D02*
D03*
X0122998Y0102424D02*
D03*
X0120015Y0062113D02*
D03*
X0141580Y0083566D02*
D03*
Y0061087D02*
D03*
Y0068580D02*
D03*
Y0076073D02*
D03*
X0129946Y0061087D02*
D03*
Y0068580D02*
D03*
Y0076073D02*
D03*
Y0083566D02*
D03*
X0114935Y0065024D02*
D03*
X0114300Y0067564D02*
D03*
X0113665Y0070104D02*
D03*
X0113030Y0072644D02*
D03*
X0112395Y0075184D02*
D03*
X0111760Y0077724D02*
D03*
X0111125Y0080264D02*
D03*
X0110490Y0082804D02*
D03*
X0030480D02*
D03*
X0031115Y0080264D02*
D03*
X0031750Y0077724D02*
D03*
X0032385Y0075184D02*
D03*
X0033020Y0072644D02*
D03*
X0033655Y0070104D02*
D03*
X0034290Y0067564D02*
D03*
X0034925Y0065024D02*
D03*
X0070485Y0082804D02*
D03*
X0071120Y0080264D02*
D03*
X0071755Y0077724D02*
D03*
X0072390Y0075184D02*
D03*
X0073025Y0072644D02*
D03*
X0073660Y0070104D02*
D03*
X0074295Y0067564D02*
D03*
X0074930Y0065024D02*
D03*
X0034925Y0095504D02*
D03*
X0034290Y0098044D02*
D03*
X0033655Y0100584D02*
D03*
X0033020Y0103124D02*
D03*
X0032385Y0105664D02*
D03*
X0031750Y0108204D02*
D03*
X0031115Y0110744D02*
D03*
X0030480Y0113284D02*
D03*
X0074930Y0095504D02*
D03*
X0074295Y0098044D02*
D03*
X0073660Y0100584D02*
D03*
X0073025Y0103124D02*
D03*
X0072390Y0105664D02*
D03*
X0071755Y0108204D02*
D03*
X0071120Y0110744D02*
D03*
X0070485Y0113284D02*
D03*
X0110490D02*
D03*
X0111125Y0110744D02*
D03*
X0111760Y0108204D02*
D03*
X0112395Y0105664D02*
D03*
X0113030Y0103124D02*
D03*
X0113665Y0100584D02*
D03*
X0114300Y0098044D02*
D03*
X0114935Y0095504D02*
D03*
X0034925Y0086995D02*
D03*
X0034290Y0087630D02*
D03*
X0033655Y0088265D02*
D03*
X0033020Y0088900D02*
D03*
X0032385Y0089535D02*
D03*
X0031750Y0090170D02*
D03*
X0031115Y0090805D02*
D03*
X0030480Y0091440D02*
D03*
X0070485D02*
D03*
X0071120Y0090805D02*
D03*
X0071755Y0090170D02*
D03*
X0072390Y0089535D02*
D03*
X0073025Y0088900D02*
D03*
X0073660Y0088265D02*
D03*
X0074295Y0087630D02*
D03*
X0074930Y0086995D02*
D03*
X0110490Y0091440D02*
D03*
X0111125Y0090805D02*
D03*
X0111760Y0090170D02*
D03*
X0112395Y0089535D02*
D03*
X0113030Y0088900D02*
D03*
X0113665Y0088265D02*
D03*
X0114300Y0087630D02*
D03*
X0114935Y0086995D02*
D03*
X0081407Y0085979D02*
D03*
X0103505Y0092456D02*
D03*
Y0084074D02*
D03*
X0063500Y0092456D02*
D03*
X0120015Y0056769D02*
D03*
X0135357Y0077343D02*
D03*
X0138786Y0086995D02*
D03*
X0138659Y0072263D02*
D03*
Y0064770D02*
D03*
X0127102Y0072263D02*
D03*
D61*
X0136271Y0092329D02*
D03*
X0111582Y0052705D02*
D03*
Y0050165D02*
D03*
X0109042Y0052705D02*
D03*
Y0050165D02*
D03*
X0106502Y0052705D02*
D03*
Y0050165D02*
D03*
X0103962Y0052705D02*
D03*
X0055982D02*
D03*
Y0050165D02*
D03*
X0053442Y0052705D02*
D03*
Y0050165D02*
D03*
X0050902Y0052705D02*
D03*
Y0050165D02*
D03*
X0048362Y0052705D02*
D03*
Y0050165D02*
D03*
X0045822Y0052705D02*
D03*
Y0050165D02*
D03*
X0043282Y0052705D02*
D03*
Y0050165D02*
D03*
X0040742Y0052705D02*
D03*
Y0050165D02*
D03*
X0038202Y0052705D02*
D03*
X0093980Y0095529D02*
D03*
X0091440D02*
D03*
X0093980Y0098069D02*
D03*
X0091440D02*
D03*
X0093980Y0100609D02*
D03*
X0091440D02*
D03*
X0093980Y0103149D02*
D03*
X0091440D02*
D03*
X0093980Y0105689D02*
D03*
X0091440D02*
D03*
X0093980Y0108229D02*
D03*
X0091440D02*
D03*
X0093980Y0110769D02*
D03*
X0091440D02*
D03*
X0093980Y0113309D02*
D03*
X0053975Y0095529D02*
D03*
X0051435D02*
D03*
X0053975Y0098069D02*
D03*
X0051435D02*
D03*
X0053975Y0100609D02*
D03*
X0051435D02*
D03*
X0053975Y0103149D02*
D03*
X0051435D02*
D03*
X0053975Y0105689D02*
D03*
X0051435D02*
D03*
X0053975Y0108229D02*
D03*
X0051435D02*
D03*
X0053975Y0110769D02*
D03*
X0051435D02*
D03*
X0053975Y0113309D02*
D03*
X0093980Y0065049D02*
D03*
X0091440D02*
D03*
X0093980Y0067589D02*
D03*
X0091440D02*
D03*
X0093980Y0070129D02*
D03*
X0091440D02*
D03*
X0093980Y0072669D02*
D03*
X0091440D02*
D03*
X0093980Y0075209D02*
D03*
X0091440D02*
D03*
X0093980Y0077749D02*
D03*
X0091440D02*
D03*
X0093980Y0080289D02*
D03*
X0091440D02*
D03*
X0093980Y0082829D02*
D03*
X0053975Y0065049D02*
D03*
X0051435D02*
D03*
X0053975Y0067589D02*
D03*
X0051435D02*
D03*
X0053975Y0070129D02*
D03*
X0051435D02*
D03*
X0053975Y0072669D02*
D03*
X0051435D02*
D03*
X0053975Y0075209D02*
D03*
X0051435D02*
D03*
X0053975Y0077749D02*
D03*
X0051435D02*
D03*
X0053975Y0080289D02*
D03*
X0051435D02*
D03*
X0053975Y0082829D02*
D03*
X0124714Y0050038D02*
D03*
Y0052578D02*
D03*
X0127254Y0050038D02*
D03*
Y0052578D02*
D03*
X0129794Y0050038D02*
D03*
Y0052578D02*
D03*
X0132334Y0050038D02*
D03*
D62*
X0133731Y0092329D02*
D03*
X0103962Y0050165D02*
D03*
X0038202D02*
D03*
X0132334Y0052578D02*
D03*
D63*
X0118618Y0080518D02*
D03*
Y0083312D02*
D03*
X0083820Y0085344D02*
D03*
Y0077724D02*
D03*
Y0070104D02*
D03*
Y0062484D02*
D03*
X0076200D02*
D03*
Y0070104D02*
D03*
Y0077724D02*
D03*
X0083820Y0082804D02*
D03*
Y0080264D02*
D03*
Y0075184D02*
D03*
Y0072644D02*
D03*
Y0067564D02*
D03*
Y0065024D02*
D03*
X0076200Y0080264D02*
D03*
Y0082804D02*
D03*
Y0072644D02*
D03*
Y0075184D02*
D03*
Y0065024D02*
D03*
Y0067564D02*
D03*
X0083820Y0115824D02*
D03*
Y0108204D02*
D03*
Y0100584D02*
D03*
Y0092964D02*
D03*
X0076200D02*
D03*
Y0100584D02*
D03*
Y0108204D02*
D03*
X0083820Y0113284D02*
D03*
Y0110744D02*
D03*
Y0105664D02*
D03*
Y0103124D02*
D03*
Y0098044D02*
D03*
Y0095504D02*
D03*
X0076200Y0110744D02*
D03*
Y0113284D02*
D03*
Y0103124D02*
D03*
Y0105664D02*
D03*
Y0095504D02*
D03*
Y0098044D02*
D03*
X0043815Y0115824D02*
D03*
Y0108204D02*
D03*
Y0100584D02*
D03*
Y0092964D02*
D03*
X0036195D02*
D03*
Y0100584D02*
D03*
Y0108204D02*
D03*
X0043815Y0113284D02*
D03*
Y0110744D02*
D03*
Y0105664D02*
D03*
Y0103124D02*
D03*
Y0098044D02*
D03*
Y0095504D02*
D03*
X0036195Y0110744D02*
D03*
Y0113284D02*
D03*
Y0103124D02*
D03*
Y0105664D02*
D03*
Y0095504D02*
D03*
Y0098044D02*
D03*
X0043815Y0085344D02*
D03*
Y0077724D02*
D03*
Y0070104D02*
D03*
Y0062484D02*
D03*
X0036195D02*
D03*
Y0070104D02*
D03*
Y0077724D02*
D03*
X0043815Y0082804D02*
D03*
Y0080264D02*
D03*
Y0075184D02*
D03*
Y0072644D02*
D03*
Y0067564D02*
D03*
Y0065024D02*
D03*
X0036195Y0080264D02*
D03*
Y0082804D02*
D03*
Y0072644D02*
D03*
Y0075184D02*
D03*
Y0065024D02*
D03*
Y0067564D02*
D03*
X0101600Y0092964D02*
D03*
Y0100584D02*
D03*
Y0108204D02*
D03*
Y0115824D02*
D03*
X0109220D02*
D03*
Y0108204D02*
D03*
Y0100584D02*
D03*
X0101600Y0095504D02*
D03*
Y0098044D02*
D03*
Y0103124D02*
D03*
Y0105664D02*
D03*
Y0110744D02*
D03*
Y0113284D02*
D03*
X0109220Y0098044D02*
D03*
Y0095504D02*
D03*
Y0105664D02*
D03*
Y0103124D02*
D03*
Y0113284D02*
D03*
Y0110744D02*
D03*
X0061595Y0092964D02*
D03*
Y0100584D02*
D03*
Y0108204D02*
D03*
Y0115824D02*
D03*
X0069215D02*
D03*
Y0108204D02*
D03*
Y0100584D02*
D03*
X0061595Y0095504D02*
D03*
Y0098044D02*
D03*
Y0103124D02*
D03*
Y0105664D02*
D03*
Y0110744D02*
D03*
Y0113284D02*
D03*
X0069215Y0098044D02*
D03*
Y0095504D02*
D03*
Y0105664D02*
D03*
Y0103124D02*
D03*
Y0113284D02*
D03*
Y0110744D02*
D03*
X0101600Y0062484D02*
D03*
Y0070104D02*
D03*
Y0077724D02*
D03*
Y0085344D02*
D03*
X0109220D02*
D03*
Y0077724D02*
D03*
Y0070104D02*
D03*
X0101600Y0065024D02*
D03*
Y0067564D02*
D03*
Y0072644D02*
D03*
Y0075184D02*
D03*
Y0080264D02*
D03*
Y0082804D02*
D03*
X0109220Y0067564D02*
D03*
Y0065024D02*
D03*
Y0075184D02*
D03*
Y0072644D02*
D03*
Y0082804D02*
D03*
Y0080264D02*
D03*
X0061595Y0062484D02*
D03*
Y0070104D02*
D03*
Y0077724D02*
D03*
Y0085344D02*
D03*
X0069215D02*
D03*
Y0077724D02*
D03*
Y0070104D02*
D03*
X0061595Y0065024D02*
D03*
Y0067564D02*
D03*
Y0072644D02*
D03*
Y0075184D02*
D03*
Y0080264D02*
D03*
Y0082804D02*
D03*
X0069215Y0067564D02*
D03*
Y0065024D02*
D03*
Y0075184D02*
D03*
Y0072644D02*
D03*
Y0082804D02*
D03*
Y0080264D02*
D03*
X0098171Y0092964D02*
D03*
Y0085344D02*
D03*
X0058166Y0092964D02*
D03*
Y0085344D02*
D03*
X0098171Y0115824D02*
D03*
X0058166D02*
D03*
X0136398Y0100330D02*
D03*
X0133604D02*
D03*
X0133960Y0087884D02*
D03*
X0131801Y0057023D02*
D03*
D64*
X0122301Y0107569D02*
D03*
D65*
X0142621Y0099060D02*
D03*
Y0101600D02*
D03*
D66*
X0140081Y0110490D02*
D03*
D67*
Y0106680D02*
D03*
D68*
X0029210Y0049530D02*
D03*
X0141351Y0116205D02*
D03*
Y0049530D02*
D03*
X0029210Y0116205D02*
D03*
D69*
X0076200Y0085344D02*
D03*
Y0115824D02*
D03*
X0036195D02*
D03*
Y0085344D02*
D03*
X0109220Y0092964D02*
D03*
X0069215D02*
D03*
X0109220Y0062484D02*
D03*
X0069215D02*
D03*
D70*
X0091440Y0113309D02*
D03*
X0051435D02*
D03*
X0091440Y0082829D02*
D03*
X0051435D02*
D03*
D71*
X0136830Y0082626D02*
D03*
Y0060147D02*
D03*
Y0067640D02*
D03*
Y0075133D02*
D03*
X0125197Y0060147D02*
D03*
Y0067640D02*
D03*
Y0075133D02*
D03*
Y0082626D02*
D03*
D72*
X0086280Y0080264D02*
D03*
X0088980D02*
D03*
X0086280Y0075184D02*
D03*
X0088980D02*
D03*
X0046275Y0105664D02*
D03*
X0048975D02*
D03*
X0086280D02*
D03*
X0088980D02*
D03*
X0086280Y0070104D02*
D03*
X0088980D02*
D03*
X0046275Y0100584D02*
D03*
X0048975D02*
D03*
X0086280D02*
D03*
X0088980D02*
D03*
X0046275Y0098044D02*
D03*
X0048975D02*
D03*
X0086280Y0095504D02*
D03*
X0088980D02*
D03*
X0099140Y0098044D02*
D03*
X0096440D02*
D03*
X0059135D02*
D03*
X0056435D02*
D03*
X0059135Y0113284D02*
D03*
X0056435D02*
D03*
X0099140Y0082804D02*
D03*
X0096440D02*
D03*
X0059135Y0103124D02*
D03*
X0056435D02*
D03*
X0099140Y0072644D02*
D03*
X0096440D02*
D03*
X0099140Y0113284D02*
D03*
X0096440D02*
D03*
X0099140Y0103124D02*
D03*
X0096440D02*
D03*
X0099140Y0077724D02*
D03*
X0096440D02*
D03*
X0059135Y0108204D02*
D03*
X0056435D02*
D03*
X0099140D02*
D03*
X0096440D02*
D03*
X0086280Y0110744D02*
D03*
X0088980D02*
D03*
X0046275D02*
D03*
X0048975D02*
D03*
X0099140Y0067564D02*
D03*
X0096440D02*
D03*
X0059135Y0082804D02*
D03*
X0056435D02*
D03*
X0059135Y0077724D02*
D03*
X0056435D02*
D03*
X0059135Y0067564D02*
D03*
X0056435D02*
D03*
X0046275Y0065024D02*
D03*
X0048975D02*
D03*
X0046275Y0070104D02*
D03*
X0048975D02*
D03*
X0059135Y0072644D02*
D03*
X0056435D02*
D03*
X0046275Y0075184D02*
D03*
X0048975D02*
D03*
X0046275Y0080264D02*
D03*
X0048975D02*
D03*
X0086280Y0065024D02*
D03*
X0088980D02*
D03*
X0059135Y0080264D02*
D03*
X0056435D02*
D03*
X0059135Y0075184D02*
D03*
X0056435D02*
D03*
X0059135Y0070104D02*
D03*
X0056435D02*
D03*
X0059135Y0065024D02*
D03*
X0056435D02*
D03*
X0046275Y0067564D02*
D03*
X0048975D02*
D03*
X0046275Y0072644D02*
D03*
X0048975D02*
D03*
X0046275Y0077724D02*
D03*
X0048975D02*
D03*
X0046275Y0082804D02*
D03*
X0048975D02*
D03*
X0086280D02*
D03*
X0088980D02*
D03*
X0086280Y0077724D02*
D03*
X0088980D02*
D03*
X0086280Y0072644D02*
D03*
X0088980D02*
D03*
X0086280Y0067564D02*
D03*
X0088980D02*
D03*
X0099140Y0065024D02*
D03*
X0096440D02*
D03*
X0099140Y0070104D02*
D03*
X0096440D02*
D03*
X0099140Y0075184D02*
D03*
X0096440D02*
D03*
X0099140Y0080264D02*
D03*
X0096440D02*
D03*
X0059135Y0110744D02*
D03*
X0056435D02*
D03*
X0059135Y0105664D02*
D03*
X0056435D02*
D03*
X0059135Y0100584D02*
D03*
X0056435D02*
D03*
X0059135Y0095504D02*
D03*
X0056435D02*
D03*
X0046275Y0113284D02*
D03*
X0048975D02*
D03*
X0046275Y0108204D02*
D03*
X0048975D02*
D03*
X0046275Y0095504D02*
D03*
X0048975D02*
D03*
X0046275Y0103124D02*
D03*
X0048975D02*
D03*
X0086280Y0113284D02*
D03*
X0088980D02*
D03*
X0086280Y0108204D02*
D03*
X0088980D02*
D03*
X0086280Y0103124D02*
D03*
X0088980D02*
D03*
X0086280Y0098044D02*
D03*
X0088980D02*
D03*
X0099140Y0095504D02*
D03*
X0096440D02*
D03*
X0099140Y0100584D02*
D03*
X0096440D02*
D03*
X0099140Y0105664D02*
D03*
X0096440D02*
D03*
X0099140Y0110744D02*
D03*
X0096440D02*
D03*
M02*
