M48
;Layer_Color=9474304
;FILE_FORMAT=4:3
METRIC
;TYPE=PLATED
T1F00S00C0.254
T2F00S00C0.508
T3F00S00C0.762
T4F00S00C0.800
T5F00S00C0.900
T6F00S00C0.965
T7F00S00C1.100
T8F00S00C1.270
T9F00S00C3.200
%
T01
X0120015Y0056769
Y0062113
X0129946Y0061087
Y0068580
X0127102Y0072263
X0129946Y0076073
X0135357Y0077343
X0141580Y0076073
X0138659Y0072263
X0141580Y0068580
X0138659Y0064770
X0141580Y0061087
X0114935Y0065024
X0114300Y0067564
X0113665Y0070104
X0113030Y0072644
X0112395Y0075184
X0111760Y0077724
X0071755
X0072390Y0075184
X0073025Y0072644
X0073660Y0070104
X0074295Y0067564
X0074930Y0065024
X0034925
X0034290Y0067564
X0033655Y0070104
X0033020Y0072644
X0032385Y0075184
X0031750Y0077724
X0031115Y0080264
X0030480Y0082804
X0034925Y0086995
X0034290Y0087630
X0033655Y0088265
X0033020Y0088900
X0032385Y0089535
X0031750Y0090170
X0031115Y0090805
X0030480Y0091440
X0034925Y0095504
X0034290Y0098044
X0033655Y0100584
X0033020Y0103124
X0032385Y0105664
X0031750Y0108204
X0031115Y0110744
X0030480Y0113284
X0070485
X0071120Y0110744
X0071755Y0108204
X0072390Y0105664
X0073025Y0103124
X0073660Y0100584
X0074295Y0098044
X0074930Y0095504
X0070485Y0091440
X0071120Y0090805
X0071755Y0090170
X0072390Y0089535
X0073025Y0088900
X0073660Y0088265
X0074295Y0087630
X0074930Y0086995
X0070485Y0082804
X0071120Y0080264
X0063500Y0092456
X0081407Y0085979
X0103505Y0084074
X0110490Y0082804
X0111125Y0080264
Y0090805
X0110490Y0091440
X0111760Y0090170
X0112395Y0089535
X0113030Y0088900
X0113665Y0088265
X0114300Y0087630
X0114935Y0086995
Y0095504
X0114300Y0098044
X0113665Y0100584
X0113030Y0103124
X0112395Y0105664
X0111760Y0108204
X0111125Y0110744
X0110490Y0113284
X0103505Y0092456
X0122998Y0102424
X0125349Y0100203
X0129946Y0083566
X0141580
X0138786Y0086995
T02
X0125197Y0060147
Y0067640
Y0075133
X0136830
Y0067640
Y0060147
Y0082626
X0125197
T03
X0131801Y0057023
X0058166Y0085344
Y0092964
Y0115824
X0098171
Y0092964
Y0085344
X0118618Y0083312
Y0080518
X0133960Y0087884
X0133604Y0100330
X0136398
T04
X0142621Y0099060
Y0101600
T05
X0124714Y0050038
Y0052578
X0127254
Y0050038
X0129794
Y0052578
X0132334
Y0050038
X0111582Y0050165
Y0052705
X0109042
Y0050165
X0106502
Y0052705
X0103962
Y0050165
X0093980Y0065049
X0091440
Y0067589
X0093980
Y0070129
X0091440
Y0072669
X0093980
Y0075209
X0091440
Y0077749
X0093980
X0053975
Y0075209
Y0072669
Y0070129
Y0067589
Y0065049
X0051435
Y0067589
Y0070129
Y0072669
Y0075209
Y0077749
X0050902Y0052705
X0053442
X0055982
Y0050165
X0053442
X0050902
X0048362
Y0052705
X0045822
Y0050165
X0043282
Y0052705
X0040742
Y0050165
X0038202
Y0052705
X0051435Y0080289
X0053975
Y0082829
X0051435
Y0095529
X0053975
Y0098069
X0051435
Y0100609
X0053975
Y0103149
X0051435
Y0105689
X0053975
Y0108229
X0051435
Y0110769
X0053975
Y0113309
X0051435
X0091440
Y0110769
Y0108229
Y0105689
Y0103149
Y0100609
Y0098069
Y0095529
X0093980
Y0098069
Y0100609
Y0103149
Y0105689
Y0108229
Y0110769
Y0113309
Y0082829
Y0080289
X0091440
Y0082829
X0133731Y0092329
X0136271
T06
X0083820Y0062484
Y0065024
Y0067564
Y0070104
Y0072644
Y0075184
Y0077724
X0101600
Y0075184
Y0072644
Y0070104
Y0067564
Y0065024
Y0062484
X0109220
Y0065024
Y0067564
Y0070104
Y0072644
Y0075184
Y0077724
X0076200
Y0075184
Y0072644
Y0070104
Y0067564
Y0065024
Y0062484
X0069215
Y0065024
Y0067564
Y0070104
Y0072644
Y0075184
Y0077724
X0061595
Y0075184
Y0072644
Y0070104
Y0067564
Y0065024
Y0062484
X0043815
Y0065024
Y0067564
Y0070104
Y0072644
Y0075184
Y0077724
X0036195
Y0075184
Y0072644
Y0070104
Y0067564
Y0065024
Y0062484
Y0080264
Y0082804
Y0085344
Y0092964
Y0095504
Y0098044
Y0100584
Y0103124
Y0105664
Y0108204
Y0110744
Y0113284
Y0115824
X0043815
Y0113284
Y0110744
Y0108204
Y0105664
Y0103124
Y0100584
Y0098044
Y0095504
Y0092964
Y0085344
Y0082804
Y0080264
X0061595
Y0082804
Y0085344
Y0092964
Y0095504
Y0098044
Y0100584
Y0103124
Y0105664
Y0108204
Y0110744
Y0113284
Y0115824
X0069215
Y0113284
Y0110744
Y0108204
Y0105664
Y0103124
Y0100584
Y0098044
Y0095504
Y0092964
X0076200
Y0095504
Y0098044
Y0100584
Y0103124
Y0105664
Y0108204
Y0110744
Y0113284
Y0115824
Y0085344
Y0082804
Y0080264
X0069215
Y0082804
Y0085344
X0083820
Y0082804
Y0080264
Y0092964
Y0095504
Y0098044
Y0100584
Y0103124
Y0105664
Y0108204
Y0110744
Y0113284
Y0115824
X0101600
Y0113284
Y0110744
Y0108204
Y0105664
Y0103124
Y0100584
Y0098044
Y0095504
Y0092964
X0109220
Y0095504
Y0098044
Y0100584
Y0103124
Y0105664
Y0108204
Y0110744
Y0113284
Y0115824
Y0085344
Y0082804
Y0080264
X0101600
Y0082804
Y0085344
T07
X0140081Y0106680
Y0110490
T08
X0122301Y0107569
T09
X0141351Y0049530
X0029210
Y0116205
X0141351
M30
