%FSLAX43Y43*%
%MOMM*%
%SFA1B1*%

%IPPOS*%
%ADD91R,1.002998X1.102998*%
%ADD92R,1.102998X1.002998*%
%ADD108C,0.710999*%
%ADD109C,0.964998*%
%ADD110C,4.202992*%
%ADD111R,1.702997X1.702997*%
%ADD112C,1.702997*%
%ADD113C,1.726997*%
%ADD114C,1.980996*%
%ADD115C,1.472997*%
%ADD116C,2.234996*%
%ADD117C,0.203000*%
%ADD118R,1.726997X1.726997*%
%ADD119C,3.758992*%
%ADD120C,1.802996*%
%ADD121C,1.892996*%
%ADD122R,1.892996X1.892996*%
%ADD123C,4.962990*%
%ADD124C,4.012992*%
%ADD125C,3.202994*%
%ADD126R,1.702997X1.702997*%
%ADD127C,1.218998*%
%ADD128R,1.802996X0.602999*%
%ADD129R,2.996994X2.742995*%
%ADD130R,1.202998X2.002996*%
%ADD131R,1.202998X1.502997*%
%LNlp_led_cube_8x8x8-1*%
%LPD*%
G54D91*
X72962Y57784D03*
X71562D03*
X72962Y59308D03*
X71562D03*
X67752D03*
X69152D03*
X67752Y57784D03*
X69152D03*
X51626Y93852D03*
X50226D03*
X81471D03*
X80071D03*
X139761D03*
X141161D03*
X109916D03*
X111316D03*
X75248Y61594D03*
X73848D03*
X77404D03*
X78804D03*
X66485Y62102D03*
X65085D03*
X69657D03*
X71057D03*
X89091Y72770D03*
X87691D03*
G54D92*
X50037Y67752D03*
Y69152D03*
X45719Y54928D03*
Y53528D03*
X48259Y65088D03*
Y63688D03*
X44322Y54928D03*
Y53528D03*
X140207Y47178D03*
Y48578D03*
X129412Y47178D03*
Y48578D03*
X131952Y47178D03*
Y48578D03*
X78612Y47178D03*
Y48578D03*
X81152Y47178D03*
Y48578D03*
X55752Y47178D03*
Y48578D03*
X84327Y58354D03*
Y59754D03*
X43052Y49721D03*
Y48321D03*
X46862Y49721D03*
Y48321D03*
X40004Y65088D03*
Y63688D03*
G54D108*
X40512Y62102D03*
X51561D03*
X41782Y62483D03*
X43052D03*
X45592D03*
X46862D03*
X44195Y67309D03*
X42925D03*
X42673Y68452D03*
X41782Y69214D03*
X40069Y69403D03*
X47878Y69341D03*
X51180Y71754D03*
X52958D03*
X49402Y70992D03*
X43052Y73024D03*
X43687Y74802D03*
X45592Y72897D03*
X48259Y66547D03*
X53847Y73659D03*
X55752Y75057D03*
X51053Y76326D03*
X49529Y80644D03*
X45211Y74802D03*
X44231Y77560D03*
X38353Y76199D03*
X46227Y77088D03*
X43687Y84454D03*
X44703Y83692D03*
X46100Y82295D03*
X56387Y76199D03*
X55117Y77088D03*
X57149Y96011D03*
Y96900D03*
X86994D03*
Y96011D03*
X68198D03*
X67309Y95249D03*
Y96900D03*
X121538Y86105D03*
Y76580D03*
X129412D03*
Y86105D03*
X137286Y86130D03*
X137413Y76580D03*
X145287D03*
X145160Y86105D03*
X96138Y86867D03*
X97408Y86232D03*
X98678Y85597D03*
X99948Y84962D03*
X101218Y84327D03*
X102488Y83692D03*
X103758Y83057D03*
X105028Y82422D03*
X116839Y96011D03*
Y96900D03*
X146684Y96011D03*
Y96900D03*
G54D109*
X106679Y72643D03*
X112210Y77342D03*
X106241Y70541D03*
X106679Y74929D03*
X70357Y59308D03*
Y57784D03*
X140944Y101980D03*
X139674D03*
X140944Y103250D03*
X139674D03*
X111099Y101980D03*
X109829D03*
X111099Y103250D03*
X109829D03*
X81254Y101980D03*
X79984D03*
X81254Y103250D03*
X79984D03*
X51409Y101980D03*
X50139D03*
X51409Y103250D03*
X50139D03*
X115188Y61213D03*
X116458D03*
X80517Y60705D03*
X81787D03*
X88725Y55117D03*
X58038Y48513D03*
X43687Y86232D03*
X53212Y84073D03*
X66547Y70357D03*
X76453Y71247D03*
X75310Y70230D03*
X74040D03*
X79628Y73301D03*
X81152Y66674D03*
X80009D03*
X73786Y74040D03*
X74929D03*
X73151Y82422D03*
X73024Y84962D03*
X76199Y82549D03*
X77977Y81660D03*
X85978Y87121D03*
X89915Y84454D03*
X86994Y83311D03*
X86867Y84581D03*
X87756Y85470D03*
X90931Y83438D03*
X91058Y76580D03*
X90169Y77342D03*
X86486Y77088D03*
X85978Y78104D03*
X88010Y78739D03*
X93979Y78485D03*
X86105Y72770D03*
X94233Y70357D03*
X89280Y75691D03*
X90169Y74802D03*
X115188Y65673D03*
X103377Y77723D03*
X66547Y80644D03*
X69722Y82422D03*
X74548Y66293D03*
X78104D03*
X84327Y61848D03*
X125221Y82422D03*
X125475Y91312D03*
X133349D03*
X141223D03*
X133476Y81533D03*
X141350D03*
X88264Y68071D03*
G54D110*
X32892Y46354D03*
Y111378D03*
X157987D03*
Y46354D03*
G54D111*
X41884Y108203D03*
X101574D03*
X131419D03*
X71729D03*
X121792Y68198D03*
G54D112*
X41884Y110743D03*
X44424Y108203D03*
Y110743D03*
X46964Y108203D03*
Y110743D03*
X49504Y108203D03*
Y110743D03*
X52044Y108203D03*
Y110743D03*
X54584Y108203D03*
Y110743D03*
X57124Y108203D03*
Y110743D03*
X59664Y108203D03*
Y110743D03*
X101574D03*
X104114Y108203D03*
Y110743D03*
X106654Y108203D03*
Y110743D03*
X109194Y108203D03*
Y110743D03*
X111734Y108203D03*
Y110743D03*
X114274Y108203D03*
Y110743D03*
X116814Y108203D03*
Y110743D03*
X119354Y108203D03*
Y110743D03*
X131419D03*
X133959Y108203D03*
Y110743D03*
X136499Y108203D03*
Y110743D03*
X139039Y108203D03*
Y110743D03*
X141579Y108203D03*
Y110743D03*
X144119Y108203D03*
Y110743D03*
X146659Y108203D03*
Y110743D03*
X149199Y108203D03*
Y110743D03*
X71729D03*
X74269Y108203D03*
Y110743D03*
X76809Y108203D03*
Y110743D03*
X79349Y108203D03*
Y110743D03*
X81889Y108203D03*
Y110743D03*
X84429Y108203D03*
Y110743D03*
X86969Y108203D03*
Y110743D03*
X89509Y108203D03*
Y110743D03*
X156717Y91718D03*
X154177Y89178D03*
X156717D03*
X154177Y86638D03*
X156717D03*
X154177Y84098D03*
X156717D03*
X158622Y56768D03*
X119252Y68198D03*
G54D113*
X88200Y45592D03*
X92772D03*
X49148Y46608D03*
X51688D03*
X40766D03*
X38226D03*
X68452Y52640D03*
X65912D03*
Y54673D03*
X128269Y58673D03*
X125475D03*
X139064Y56768D03*
X136270D03*
X103377Y53593D03*
X80644Y99948D03*
X50799Y99313D03*
X110489D03*
X140334Y99948D03*
X144017Y70738D03*
X135127Y68198D03*
X62356Y92963D03*
X70357Y91947D03*
X61086Y84708D03*
X94868Y100710D03*
X65404Y101472D03*
X127126Y100964D03*
G54D114*
X86931Y48132D03*
X93915D03*
X147446Y65658D03*
G54D115*
X39242Y59562D03*
X40512Y57022D03*
X41782Y59562D03*
X43052Y57022D03*
X44322Y59562D03*
X46862D03*
X49402D03*
X45592Y57022D03*
X48132D03*
X50672D03*
X86899Y89153D03*
G54D116*
X53212Y53720D03*
X36702D03*
G54D117*
X50672Y50672D03*
X39242D03*
G54D118*
X68452Y54673D03*
G54D119*
X73532Y49973D03*
X60832D03*
G54D120*
X58292Y45084D03*
X55752D03*
X83692D03*
X81152D03*
X78612D03*
X76072D03*
X131952D03*
X129412D03*
X137032D03*
X134492D03*
X142747D03*
X140207D03*
G54D121*
X106092Y50543D03*
X107477Y47703D03*
X108862Y50543D03*
X110247Y47703D03*
X111632Y50543D03*
X113017Y47703D03*
X114402Y50543D03*
X115787Y47703D03*
G54D122*
X117172Y50543D03*
G54D123*
X124127Y49123D03*
X99137D03*
G54D124*
X149668Y47306D03*
X154114Y50354D03*
X149668Y53529D03*
G54D125*
X62623Y72770D03*
X70123D03*
G54D126*
X154177Y91718D03*
X158622Y54228D03*
G54D127*
X103377Y64642D03*
X77596Y89280D03*
X86899Y89153D03*
X54101Y93979D03*
X144271Y91058D03*
X120649Y81533D03*
X136397Y91083D03*
X128523Y81533D03*
Y91058D03*
X120649D03*
X136524Y81533D03*
X144398D03*
X114045Y78866D03*
X117093Y94233D03*
G54D128*
X47497Y95503D03*
Y96153D03*
Y96803D03*
Y97453D03*
Y98753D03*
Y99403D03*
Y100053D03*
Y98103D03*
X54097Y97453D03*
Y96803D03*
Y96153D03*
Y95503D03*
Y100053D03*
Y99403D03*
Y98753D03*
Y98103D03*
X47497Y101353D03*
Y102003D03*
Y102653D03*
Y103303D03*
Y103953D03*
X54097D03*
Y103303D03*
Y102653D03*
Y102003D03*
Y101353D03*
X47497Y100703D03*
X54097D03*
X137032Y95503D03*
Y96153D03*
Y96803D03*
Y97453D03*
Y98753D03*
Y99403D03*
Y100053D03*
Y98103D03*
X143632Y97453D03*
Y96803D03*
Y96153D03*
Y95503D03*
Y100053D03*
Y99403D03*
Y98753D03*
Y98103D03*
X137032Y101353D03*
Y102003D03*
Y102653D03*
Y103303D03*
Y103953D03*
X143632D03*
Y103303D03*
Y102653D03*
Y102003D03*
Y101353D03*
X137032Y100703D03*
X143632D03*
X107187Y95503D03*
Y96153D03*
Y96803D03*
Y97453D03*
Y98753D03*
Y99403D03*
Y100053D03*
Y98103D03*
X113787Y97453D03*
Y96803D03*
Y96153D03*
Y95503D03*
Y100053D03*
Y99403D03*
Y98753D03*
Y98103D03*
X107187Y101353D03*
Y102003D03*
Y102653D03*
Y103303D03*
Y103953D03*
X113787D03*
Y103303D03*
Y102653D03*
Y102003D03*
Y101353D03*
X107187Y100703D03*
X113787D03*
X77342Y95503D03*
Y96153D03*
Y96803D03*
Y97453D03*
Y98753D03*
Y99403D03*
Y100053D03*
Y98103D03*
X83942Y97453D03*
Y96803D03*
Y96153D03*
Y95503D03*
Y100053D03*
Y99403D03*
Y98753D03*
Y98103D03*
X77342Y101353D03*
Y102003D03*
Y102653D03*
Y103303D03*
Y103953D03*
X83942D03*
Y103303D03*
Y102653D03*
Y102003D03*
Y101353D03*
X77342Y100703D03*
X83942D03*
G54D129*
X74548Y64134D03*
X78104D03*
G54D130*
X69671Y64408D03*
X66471D03*
G54D131*
X41185Y73278D03*
X39585D03*
M02*