%FSLAX43Y43*%
%MOMM*%
%SFA1B1*%

%IPPOS*%
%ADD10R,0.799998X0.899998*%
%ADD11R,0.899998X0.799998*%
%ADD12R,0.299999X1.199998*%
%ADD13R,1.199998X0.299999*%
%ADD14O,0.299999X1.799996*%
%ADD15O,1.799996X0.299999*%
%ADD16R,0.507999X1.499997*%
%ADD17R,2.199996X2.199996*%
%ADD18R,2.299995X2.299995*%
%ADD19R,1.199998X1.399997*%
%ADD20R,3.047994X3.682993*%
%ADD21R,2.539995X1.015998*%
%ADD22O,0.599999X2.199996*%
%ADD23R,2.031996X0.634999*%
%ADD24R,0.349999X0.799998*%
%ADD25R,2.299995X2.299995*%
%ADD26R,2.199996X0.449999*%
%ADD27R,2.399995X3.099994*%
%ADD28R,1.299997X0.999998*%
%ADD29C,0.253999*%
%ADD30C,0.380999*%
%ADD31C,0.634999*%
%ADD32C,0.507999*%
%ADD33C,0.329999*%
%ADD34C,0.761998*%
%ADD35R,9.778980X2.158996*%
%ADD36R,3.047994X6.857986*%
%ADD37R,0.761998X0.634999*%
%ADD38R,1.777996X2.793994*%
%ADD39R,1.396997X1.777996*%
%ADD40R,1.015998X2.285995*%
%ADD41R,1.777996X2.818994*%
%ADD42R,32.257935X2.031996*%
%ADD43R,0.888998X2.285995*%
%ADD44R,2.539995X8.635983*%
%ADD45R,7.619985X4.190992*%
%ADD46R,3.047994X10.413979*%
%ADD47R,6.349987X3.047994*%
%ADD48R,2.285995X7.111986*%
%ADD49R,3.301993X3.047994*%
%ADD50R,7.365985X1.015998*%
%ADD51R,3.428993X4.444991*%
%ADD52R,4.190992X2.031996*%
%ADD53R,2.158996X11.048978*%
%ADD54R,3.555993X3.555993*%
%ADD55R,2.285995X2.285995*%
%ADD56R,2.412995X2.285995*%
%ADD57R,1.269997X1.269997*%
%ADD58R,2.158996X2.158996*%
%ADD59C,0.507999*%
%ADD60C,0.761998*%
%ADD61C,3.999992*%
%ADD62R,1.499997X1.499997*%
%ADD63C,1.499997*%
%ADD64C,1.523997*%
%ADD65C,1.777996*%
%ADD66C,1.269997*%
%ADD67C,2.031996*%
%ADD68R,1.523997X1.523997*%
%ADD69C,3.555993*%
%ADD70C,1.599997*%
%ADD71C,1.689997*%
%ADD72R,1.689997X1.689997*%
%ADD73C,4.759990*%
%ADD74C,3.809992*%
%ADD75C,2.999994*%
%ADD76R,1.499997X1.499997*%
%ADD77C,1.015998*%
%LNlp_led_cube_8x8x8-1*%
%LPD*%
G36*
X161409Y42932D02*
X29470D01*
Y114800*
X161409*
Y42932*
G37*
%LNlp_led_cube_8x8x8-2*%
%LPC*%
G36*
X39242Y52586D02*
X38869Y52549D01*
X38509Y52441*
X38179Y52264*
X37888Y52026*
X37650Y51735*
X37473Y51405*
X37365Y51045*
X37328Y50672*
X37365Y50299*
X37473Y49939*
X37650Y49609*
X37888Y49318*
X38179Y49080*
X38509Y48903*
X38869Y48795*
X39242Y48758*
X39615Y48795*
X39975Y48903*
X40305Y49080*
X40596Y49318*
X40834Y49609*
X41011Y49939*
X41119Y50299*
X41156Y50672*
X41119Y51045*
X41011Y51405*
X40834Y51735*
X40596Y52026*
X40305Y52264*
X39975Y52441*
X39615Y52549*
X39242Y52586*
G37*
G36*
X154177Y85111D02*
X153915Y85077D01*
X153671Y84975*
X153461Y84814*
X153300Y84605*
X153199Y84361*
X153164Y84098*
X153199Y83836*
X153300Y83592*
X153461Y83382*
X153671Y83221*
X153915Y83120*
X154177Y83086*
X154439Y83120*
X154683Y83221*
X154893Y83382*
X155054Y83592*
X155155Y83836*
X155190Y84098*
X155155Y84361*
X155054Y84605*
X154893Y84814*
X154683Y84975*
X154439Y85077*
X154177Y85111*
G37*
G36*
X156270Y50228D02*
X154241D01*
Y48198*
X154537Y48227*
X154944Y48350*
X155319Y48551*
X155648Y48820*
X155917Y49149*
X156118Y49524*
X156241Y49931*
X156270Y50228*
G37*
G36*
X99264Y51755D02*
Y49250D01*
X101769*
X101747Y49536*
X101650Y49939*
X101491Y50323*
X101275Y50676*
X101005Y50991*
X100690Y51261*
X100337Y51477*
X99953Y51636*
X99550Y51733*
X99264Y51755*
G37*
G36*
X99010D02*
X98724Y51733D01*
X98321Y51636*
X97937Y51477*
X97584Y51261*
X97269Y50991*
X96999Y50676*
X96783Y50323*
X96624Y49939*
X96527Y49536*
X96505Y49250*
X99010*
Y51755*
G37*
G36*
X50672Y52586D02*
X50299Y52549D01*
X49939Y52441*
X49609Y52264*
X49318Y52026*
X49080Y51735*
X48903Y51405*
X48795Y51045*
X48758Y50672*
X48795Y50299*
X48903Y49939*
X49080Y49609*
X49318Y49318*
X49609Y49080*
X49939Y48903*
X50299Y48795*
X50672Y48758*
X51045Y48795*
X51405Y48903*
X51735Y49080*
X52026Y49318*
X52264Y49609*
X52441Y49939*
X52549Y50299*
X52586Y50672*
X52549Y51045*
X52441Y51405*
X52264Y51735*
X52026Y52026*
X51735Y52264*
X51405Y52441*
X51045Y52549*
X50672Y52586*
G37*
G36*
X149541Y49463D02*
X149245Y49434D01*
X148838Y49311*
X148463Y49110*
X148134Y48841*
X147865Y48512*
X147664Y48137*
X147541Y47730*
X147512Y47434*
X149541*
Y49463*
G37*
G36*
X93915Y49285D02*
X93617Y49246D01*
X93339Y49130*
X93100Y48947*
X92917Y48708*
X92802Y48430*
X92763Y48132*
X92802Y47834*
X92917Y47556*
X93100Y47317*
X93339Y47134*
X93617Y47018*
X93915Y46979*
X94214Y47018*
X94492Y47134*
X94731Y47317*
X94914Y47556*
X95029Y47834*
X95068Y48132*
X95029Y48430*
X94914Y48708*
X94731Y48947*
X94492Y49130*
X94214Y49246*
X93915Y49285*
G37*
G36*
X41020Y84389D02*
X40443D01*
Y83862*
X41020*
Y84389*
G37*
G36*
X156717Y85111D02*
X156455Y85077D01*
X156211Y84975*
X156001Y84814*
X155840Y84605*
X155739Y84361*
X155704Y84098*
X155739Y83836*
X155840Y83592*
X156001Y83382*
X156211Y83221*
X156455Y83120*
X156717Y83086*
X156979Y83120*
X157223Y83221*
X157433Y83382*
X157594Y83592*
X157695Y83836*
X157730Y84098*
X157695Y84361*
X157594Y84605*
X157433Y84814*
X157223Y84975*
X156979Y85077*
X156717Y85111*
G37*
G36*
X153987Y50228D02*
X151957D01*
X151986Y49931*
X152109Y49524*
X152310Y49149*
X152579Y48820*
X152908Y48551*
X153283Y48350*
X153690Y48227*
X153987Y48198*
Y50228*
G37*
G36*
X149795Y49463D02*
Y47434D01*
X151825*
X151796Y47730*
X151673Y48137*
X151472Y48512*
X151203Y48841*
X150874Y49110*
X150499Y49311*
X150092Y49434*
X149795Y49463*
G37*
G36*
X124000Y51755D02*
X123714Y51733D01*
X123311Y51636*
X122927Y51477*
X122574Y51261*
X122259Y50991*
X121989Y50676*
X121773Y50323*
X121614Y49939*
X121517Y49536*
X121495Y49250*
X124000*
Y51755*
G37*
G36*
X110068Y78960D02*
X109687D01*
Y78083*
X110068*
Y78960*
G37*
G36*
X154241Y52511D02*
Y50481D01*
X156270*
X156241Y50778*
X156118Y51185*
X155917Y51560*
X155648Y51889*
X155319Y52158*
X154944Y52359*
X154537Y52482*
X154241Y52511*
G37*
G36*
X153987D02*
X153690Y52482D01*
X153283Y52359*
X152908Y52158*
X152579Y51889*
X152310Y51560*
X152109Y51185*
X151986Y50778*
X151957Y50481*
X153987*
Y52511*
G37*
G36*
X106219Y51635D02*
Y50670D01*
X107184*
X107163Y50830*
X107052Y51097*
X106876Y51327*
X106646Y51503*
X106379Y51614*
X106219Y51635*
G37*
G36*
X105965D02*
X105805Y51614D01*
X105538Y51503*
X105308Y51327*
X105132Y51097*
X105021Y50830*
X105000Y50670*
X105965*
Y51635*
G37*
G36*
X109433Y78960D02*
X109052D01*
Y78083*
X109433*
Y78960*
G37*
G36*
X137475Y50926D02*
X136948D01*
Y50349*
X137475*
Y50926*
G37*
G36*
X105965Y50416D02*
X105000D01*
X105021Y50256*
X105132Y49989*
X105308Y49759*
X105538Y49583*
X105805Y49472*
X105965Y49451*
Y50416*
G37*
G36*
X108862Y51651D02*
X108575Y51614D01*
X108308Y51503*
X108078Y51327*
X107902Y51097*
X107791Y50830*
X107754Y50543*
X107791Y50256*
X107902Y49989*
X108078Y49759*
X108308Y49583*
X108575Y49472*
X108862Y49435*
X109149Y49472*
X109416Y49583*
X109646Y49759*
X109822Y49989*
X109933Y50256*
X109970Y50543*
X109933Y50830*
X109822Y51097*
X109646Y51327*
X109416Y51503*
X109149Y51614*
X108862Y51651*
G37*
G36*
X124254Y51755D02*
Y49250D01*
X126759*
X126737Y49536*
X126640Y49939*
X126481Y50323*
X126265Y50676*
X125995Y50991*
X125680Y51261*
X125327Y51477*
X124943Y51636*
X124540Y51733*
X124254Y51755*
G37*
G36*
X109433Y80091D02*
X109052D01*
Y79214*
X109433*
Y80091*
G37*
G36*
X110068D02*
X109687D01*
Y79214*
X110068*
Y80091*
G37*
G36*
X107184Y50416D02*
X106219D01*
Y49451*
X106379Y49472*
X106646Y49583*
X106876Y49759*
X107052Y49989*
X107163Y50256*
X107184Y50416*
G37*
G36*
X86931Y49285D02*
X86632Y49246D01*
X86354Y49130*
X86115Y48947*
X85932Y48708*
X85817Y48430*
X85778Y48132*
X85817Y47834*
X85932Y47556*
X86115Y47317*
X86354Y47134*
X86632Y47018*
X86931Y46979*
X87229Y47018*
X87507Y47134*
X87746Y47317*
X87929Y47556*
X88044Y47834*
X88083Y48132*
X88044Y48430*
X87929Y48708*
X87746Y48947*
X87507Y49130*
X87229Y49246*
X86931Y49285*
G37*
G36*
X89209Y45465D02*
X88327D01*
Y44584*
X88466Y44602*
X88713Y44705*
X88925Y44867*
X89088Y45080*
X89190Y45327*
X89209Y45465*
G37*
G36*
X88074D02*
X87192D01*
X87211Y45327*
X87313Y45080*
X87476Y44867*
X87688Y44705*
X87935Y44602*
X88074Y44584*
Y45465*
G37*
G36*
X92772Y46617D02*
X92507Y46582D01*
X92260Y46479*
X92048Y46317*
X91885Y46104*
X91783Y45857*
X91748Y45592*
X91783Y45327*
X91885Y45080*
X92048Y44867*
X92260Y44705*
X92507Y44602*
X92772Y44567*
X93038Y44602*
X93285Y44705*
X93497Y44867*
X93660Y45080*
X93762Y45327*
X93797Y45592*
X93762Y45857*
X93660Y46104*
X93497Y46317*
X93285Y46479*
X93038Y46582*
X92772Y46617*
G37*
G36*
X88074Y46600D02*
X87935Y46582D01*
X87688Y46479*
X87476Y46317*
X87313Y46104*
X87211Y45857*
X87192Y45719*
X88074*
Y46600*
G37*
G36*
X151825Y47180D02*
X149795D01*
Y45150*
X150092Y45179*
X150499Y45302*
X150874Y45503*
X151203Y45772*
X151472Y46101*
X151673Y46476*
X151796Y46883*
X151825Y47180*
G37*
G36*
X149541D02*
X147512D01*
X147541Y46883*
X147664Y46476*
X147865Y46101*
X148134Y45772*
X148463Y45503*
X148838Y45302*
X149245Y45179*
X149541Y45150*
Y47180*
G37*
G36*
X160239Y46227D02*
X158114D01*
Y44102*
X158429Y44133*
X158854Y44262*
X159245Y44471*
X159589Y44752*
X159870Y45096*
X160080Y45487*
X160208Y45912*
X160239Y46227*
G37*
G36*
X35144D02*
X33019D01*
Y44102*
X33334Y44133*
X33759Y44262*
X34150Y44471*
X34494Y44752*
X34775Y45096*
X34985Y45487*
X35113Y45912*
X35144Y46227*
G37*
G36*
X32765D02*
X30640D01*
X30671Y45912*
X30800Y45487*
X31009Y45096*
X31290Y44752*
X31634Y44471*
X32025Y44262*
X32450Y44133*
X32765Y44102*
Y46227*
G37*
G36*
X92143Y89745D02*
X91566D01*
Y89218*
X92143*
Y89745*
G37*
G36*
X157860Y46227D02*
X155735D01*
X155766Y45912*
X155894Y45487*
X156104Y45096*
X156385Y44752*
X156729Y44471*
X157120Y44262*
X157545Y44133*
X157860Y44102*
Y46227*
G37*
G36*
X154177Y90191D02*
X153915Y90157D01*
X153671Y90055*
X153461Y89894*
X153300Y89685*
X153199Y89440*
X153164Y89178*
X153199Y88916*
X153300Y88672*
X153461Y88462*
X153671Y88301*
X153915Y88200*
X154177Y88166*
X154439Y88200*
X154683Y88301*
X154893Y88462*
X155054Y88672*
X155155Y88916*
X155190Y89178*
X155155Y89440*
X155054Y89685*
X154893Y89894*
X154683Y90055*
X154439Y90157*
X154177Y90191*
G37*
G36*
X156717D02*
X156455Y90157D01*
X156211Y90055*
X156001Y89894*
X155840Y89685*
X155739Y89440*
X155704Y89178*
X155739Y88916*
X155840Y88672*
X156001Y88462*
X156211Y88301*
X156455Y88200*
X156717Y88166*
X156979Y88200*
X157223Y88301*
X157433Y88462*
X157594Y88672*
X157695Y88916*
X157730Y89178*
X157695Y89440*
X157594Y89685*
X157433Y89894*
X157223Y90055*
X156979Y90157*
X156717Y90191*
G37*
G36*
X124000Y48996D02*
X121495D01*
X121517Y48710*
X121614Y48307*
X121773Y47923*
X121989Y47570*
X122259Y47255*
X122574Y46985*
X122927Y46769*
X123311Y46610*
X123714Y46513*
X124000Y46491*
Y48996*
G37*
G36*
X101769D02*
X99264D01*
Y46491*
X99550Y46513*
X99953Y46610*
X100337Y46769*
X100690Y46985*
X101005Y47255*
X101275Y47570*
X101491Y47923*
X101650Y48307*
X101747Y48710*
X101769Y48996*
G37*
G36*
X99010D02*
X96505D01*
X96527Y48710*
X96624Y48307*
X96783Y47923*
X96999Y47570*
X97269Y47255*
X97584Y46985*
X97937Y46769*
X98321Y46610*
X98724Y46513*
X99010Y46491*
Y48996*
G37*
G36*
X110247Y48811D02*
X109960Y48774D01*
X109693Y48663*
X109463Y48487*
X109287Y48257*
X109176Y47990*
X109139Y47703*
X109176Y47416*
X109287Y47149*
X109463Y46919*
X109693Y46743*
X109960Y46632*
X110247Y46595*
X110534Y46632*
X110801Y46743*
X111031Y46919*
X111207Y47149*
X111318Y47416*
X111355Y47703*
X111318Y47990*
X111207Y48257*
X111031Y48487*
X110801Y48663*
X110534Y48774*
X110247Y48811*
G37*
G36*
X107477D02*
X107190Y48774D01*
X106923Y48663*
X106693Y48487*
X106517Y48257*
X106406Y47990*
X106369Y47703*
X106406Y47416*
X106517Y47149*
X106693Y46919*
X106923Y46743*
X107190Y46632*
X107477Y46595*
X107764Y46632*
X108031Y46743*
X108261Y46919*
X108437Y47149*
X108548Y47416*
X108585Y47703*
X108548Y47990*
X108437Y48257*
X108261Y48487*
X108031Y48663*
X107764Y48774*
X107477Y48811*
G37*
G36*
X126759Y48996D02*
X124254D01*
Y46491*
X124540Y46513*
X124943Y46610*
X125327Y46769*
X125680Y46985*
X125995Y47255*
X126265Y47570*
X126481Y47923*
X126640Y48307*
X126737Y48710*
X126759Y48996*
G37*
G36*
X158114Y48606D02*
Y46481D01*
X160239*
X160208Y46796*
X160080Y47221*
X159870Y47612*
X159589Y47956*
X159245Y48237*
X158854Y48446*
X158429Y48575*
X158114Y48606*
G37*
G36*
X156717Y87651D02*
X156455Y87617D01*
X156211Y87515*
X156001Y87354*
X155840Y87145*
X155739Y86900*
X155704Y86638*
X155739Y86376*
X155840Y86132*
X156001Y85922*
X156211Y85761*
X156455Y85660*
X156717Y85626*
X156979Y85660*
X157223Y85761*
X157433Y85922*
X157594Y86132*
X157695Y86376*
X157730Y86638*
X157695Y86900*
X157594Y87145*
X157433Y87354*
X157223Y87515*
X156979Y87617*
X156717Y87651*
G37*
G36*
X32765Y48606D02*
X32450Y48575D01*
X32025Y48446*
X31634Y48237*
X31290Y47956*
X31009Y47612*
X30800Y47221*
X30671Y46796*
X30640Y46481*
X32765*
Y48606*
G37*
G36*
X88327Y46600D02*
Y45719D01*
X89209*
X89190Y45857*
X89088Y46104*
X88925Y46317*
X88713Y46479*
X88466Y46582*
X88327Y46600*
G37*
G36*
X157860Y48606D02*
X157545Y48575D01*
X157120Y48446*
X156729Y48237*
X156385Y47956*
X156104Y47612*
X155894Y47221*
X155766Y46796*
X155735Y46481*
X157860*
Y48606*
G37*
G36*
X33019D02*
Y46481D01*
X35144*
X35113Y46796*
X34985Y47221*
X34775Y47612*
X34494Y47956*
X34150Y48237*
X33759Y48446*
X33334Y48575*
X33019Y48606*
G37*
G36*
X154177Y87651D02*
X153915Y87617D01*
X153671Y87515*
X153461Y87354*
X153300Y87145*
X153199Y86900*
X153164Y86638*
X153199Y86376*
X153300Y86132*
X153461Y85922*
X153671Y85761*
X153915Y85660*
X154177Y85626*
X154439Y85660*
X154683Y85761*
X154893Y85922*
X155054Y86132*
X155155Y86376*
X155190Y86638*
X155155Y86900*
X155054Y87145*
X154893Y87354*
X154683Y87515*
X154439Y87617*
X154177Y87651*
G37*
G36*
X125602Y59681D02*
Y58800D01*
X126483*
X126465Y58938*
X126362Y59185*
X126200Y59398*
X125987Y59560*
X125740Y59663*
X125602Y59681*
G37*
G36*
X147400Y71442D02*
D01*
X146873*
Y70738*
Y70034*
X147400*
X147492*
X148800*
Y70285*
X150283*
Y70172*
Y69455*
X150001Y69172*
X149902Y69025*
X149868Y68852*
Y68012*
X148967*
Y67462*
X148900*
X148877*
X147573*
Y65785*
X148948*
X148967Y65804*
X148990*
X151675*
Y65830*
X151754*
X151927Y65864*
X152074Y65963*
X152719Y66608*
X152818Y66755*
X152852Y66928*
Y68764*
X152991*
Y70172*
X152852*
Y70230*
X152818Y70403*
X152719Y70550*
X152211Y71058*
X152064Y71157*
X151891Y71191*
X148800*
Y71442*
X147492*
X147400*
G37*
G36*
X144444Y68012D02*
X143217D01*
Y67660*
X144444*
Y68012*
G37*
G36*
X135000Y68071D02*
X134119D01*
X134137Y67933*
X134240Y67686*
X134402Y67473*
X134615Y67311*
X134862Y67208*
X135000Y67190*
Y68071*
G37*
G36*
X136135D02*
X135254D01*
Y67190*
X135392Y67208*
X135639Y67311*
X135852Y67473*
X136014Y67686*
X136117Y67933*
X136135Y68071*
G37*
G36*
X115188Y66321D02*
X114940Y66272D01*
X114730Y66131*
X114590Y65921*
X114541Y65673*
X114590Y65426*
X114730Y65216*
X114800Y65169*
Y64312*
X114789Y64304*
X114666Y64121*
X114623Y63905*
Y62305*
X114666Y62089*
X114789Y61906*
X114800Y61898*
Y61717*
X114730Y61671*
X114590Y61461*
X114541Y61213*
X114590Y60965*
X114727Y60759*
X114667Y60647*
X114361*
X114212Y60618*
X114086Y60534*
X113643Y60091*
X113559Y59965*
X113530Y59816*
Y59512*
X113519Y59504*
X113396Y59321*
X113353Y59105*
Y57505*
X113396Y57289*
X113519Y57106*
X113702Y56983*
X113918Y56940*
X114134Y56983*
X114317Y57106*
X114440Y57289*
X114483Y57505*
Y59105*
X114440Y59321*
X114317Y59504*
X114306Y59512*
Y59655*
X114522Y59871*
X117659*
Y59605*
X119067*
Y60913*
Y61005*
Y61532*
X117659*
Y61005*
Y60913*
Y60647*
X116979*
X116919Y60759*
X117056Y60965*
X117105Y61213*
X117056Y61461*
X116916Y61671*
X116846Y61717*
Y61898*
X116857Y61906*
X116980Y62089*
X117023Y62305*
Y63905*
X116980Y64121*
X116857Y64304*
X116674Y64427*
X116458Y64470*
X116242Y64427*
X116059Y64304*
X115936Y64121*
X115893Y63905*
Y62305*
X115936Y62089*
X116059Y61906*
X116070Y61898*
Y61717*
X116000Y61671*
X115886Y61501*
X115759*
X115646Y61671*
X115576Y61717*
Y61898*
X115587Y61906*
X115710Y62089*
X115753Y62305*
Y63905*
X115710Y64121*
X115587Y64304*
X115576Y64312*
Y65169*
X115646Y65216*
X115786Y65426*
X115835Y65673*
X115786Y65921*
X115646Y66131*
X115436Y66272*
X115188Y66321*
G37*
G36*
X123824Y59435D02*
X122427D01*
Y58800*
X123824*
Y59435*
G37*
G36*
X126483Y58546D02*
X125602D01*
Y57665*
X125740Y57683*
X125987Y57786*
X126200Y57948*
X126362Y58161*
X126465Y58408*
X126483Y58546*
G37*
G36*
X143890Y70611D02*
X143009D01*
X143027Y70473*
X143130Y70226*
X143292Y70013*
X143505Y69851*
X143752Y69748*
X143890Y69730*
Y70611*
G37*
G36*
X145025D02*
X144144D01*
Y69730*
X144282Y69748*
X144529Y69851*
X144742Y70013*
X144904Y70226*
X145007Y70473*
X145025Y70611*
G37*
G36*
X123824Y58546D02*
X122427D01*
Y57911*
X123824*
Y58546*
G37*
G36*
X135000Y69206D02*
X134862Y69188D01*
X134615Y69085*
X134402Y68923*
X134240Y68710*
X134137Y68463*
X134119Y68325*
X135000*
Y69206*
G37*
G36*
X135254D02*
Y68325D01*
X136135*
X136117Y68463*
X136014Y68710*
X135852Y68923*
X135639Y69085*
X135392Y69188*
X135254Y69206*
G37*
G36*
X108965Y64445D02*
Y63232D01*
X109403*
Y63905*
X109360Y64121*
X109237Y64304*
X109054Y64427*
X108965Y64445*
G37*
G36*
X110108Y64470D02*
X109892Y64427D01*
X109709Y64304*
X109586Y64121*
X109543Y63905*
Y62305*
X109586Y62089*
X109709Y61906*
X109892Y61783*
X110108Y61740*
X110324Y61783*
X110507Y61906*
X110630Y62089*
X110673Y62305*
Y63905*
X110630Y64121*
X110507Y64304*
X110324Y64427*
X110108Y64470*
G37*
G36*
X111378D02*
X111162Y64427D01*
X110979Y64304*
X110856Y64121*
X110813Y63905*
Y62305*
X110856Y62089*
X110979Y61906*
X111162Y61783*
X111378Y61740*
X111594Y61783*
X111777Y61906*
X111900Y62089*
X111943Y62305*
Y63905*
X111900Y64121*
X111777Y64304*
X111594Y64427*
X111378Y64470*
G37*
G36*
X112648D02*
X112432Y64427D01*
X112249Y64304*
X112126Y64121*
X112083Y63905*
Y62305*
X112126Y62089*
X112249Y61906*
X112432Y61783*
X112648Y61740*
X112864Y61783*
X113047Y61906*
X113170Y62089*
X113213Y62305*
Y63905*
X113170Y64121*
X113047Y64304*
X112864Y64427*
X112648Y64470*
G37*
G36*
X154050Y61783D02*
X153473D01*
Y61256*
X154050*
Y61783*
G37*
G36*
X154881D02*
X154304D01*
Y61256*
X154881*
Y61783*
G37*
G36*
X39946Y65742D02*
X37268D01*
Y64434*
Y64342*
Y63815*
X37972*
Y63688*
X38099*
Y63034*
X38854*
Y60363*
X38794Y60339*
X38608Y60196*
X38465Y60010*
X38376Y59794*
X38345Y59562*
X38376Y59330*
X38465Y59114*
X38608Y58928*
X38794Y58785*
X39010Y58696*
X39242Y58665*
X39474Y58696*
X39690Y58785*
X39876Y58928*
X40019Y59114*
X40108Y59330*
X40139Y59562*
X40108Y59794*
X40019Y60010*
X39876Y60196*
X39690Y60339*
X39630Y60363*
Y63034*
X39946*
Y64342*
Y64434*
Y64493*
X40018Y64522*
X40124Y64452*
Y62435*
X40033Y62300*
X39994Y62102*
X40033Y61904*
X40146Y61736*
X40314Y61623*
X40512Y61584*
X40710Y61623*
X40878Y61736*
X40991Y61904*
X41030Y62102*
X40991Y62300*
X40900Y62435*
Y64642*
X40871Y64791*
X40787Y64917*
X40341Y65363*
X40215Y65447*
X40066Y65476*
X39946*
Y65742*
G37*
G36*
X113918Y64470D02*
X113702Y64427D01*
X113519Y64304*
X113396Y64121*
X113353Y63905*
Y62305*
X113396Y62089*
X113519Y61906*
X113702Y61783*
X113918Y61740*
X114134Y61783*
X114317Y61906*
X114440Y62089*
X114483Y62305*
Y63905*
X114440Y64121*
X114317Y64304*
X114134Y64427*
X113918Y64470*
G37*
G36*
X119067Y62313D02*
X118490D01*
Y61786*
X119067*
Y62313*
G37*
G36*
X37845Y63561D02*
X37268D01*
Y63034*
X37845*
Y63561*
G37*
G36*
X108711Y64445D02*
X108622Y64427D01*
X108439Y64304*
X108316Y64121*
X108273Y63905*
Y63232*
X108711*
Y64445*
G37*
G36*
Y62978D02*
X108273D01*
Y62305*
X108316Y62089*
X108439Y61906*
X108622Y61783*
X108711Y61765*
Y62978*
G37*
G36*
X109403D02*
X108965D01*
Y61765*
X109054Y61783*
X109237Y61906*
X109360Y62089*
X109403Y62305*
Y62978*
G37*
G36*
X118236Y62313D02*
X117659D01*
Y61786*
X118236*
Y62313*
G37*
G36*
X113918Y73213D02*
X113341D01*
Y72686*
X113918*
Y73213*
G37*
G36*
X114749D02*
X114172D01*
Y72686*
X114749*
Y73213*
G37*
G36*
X149668Y55699D02*
X149245Y55657D01*
X148838Y55534*
X148463Y55333*
X148134Y55064*
X147865Y54735*
X147664Y54360*
X147541Y53953*
X147499Y53529*
X147541Y53106*
X147664Y52699*
X147865Y52324*
X148134Y51995*
X148463Y51726*
X148838Y51525*
X149245Y51402*
X149668Y51360*
X150092Y51402*
X150499Y51525*
X150874Y51726*
X151203Y51995*
X151472Y52324*
X151673Y52699*
X159511*
X159610Y52719*
X159694Y52775*
X159750Y52859*
X159770Y52958*
Y55117*
X159750Y55216*
X159694Y55300*
X159610Y55356*
X159511Y55376*
X150794*
X150499Y55534*
X150092Y55657*
X149668Y55699*
G37*
G36*
X136143Y57776D02*
X136005Y57758D01*
X135758Y57655*
X135594Y57530*
X134873*
Y56768*
Y56006*
X135594*
X135758Y55881*
X136005Y55778*
X136143Y55760*
Y56768*
Y57776*
G37*
G36*
X159511Y62996D02*
X156463D01*
X156364Y62976*
X156280Y62920*
X156224Y62836*
X156204Y62737*
Y60456*
X150367*
X150268Y60436*
X150184Y60380*
X150128Y60296*
X150108Y60197*
Y57149*
X150128Y57050*
X150184Y56966*
X150268Y56910*
X150367Y56890*
X156204*
Y55879*
X156224Y55780*
X156280Y55696*
X156364Y55640*
X156463Y55620*
X159511*
X159610Y55640*
X159694Y55696*
X159750Y55780*
X159770Y55879*
Y62737*
X159750Y62836*
X159694Y62920*
X159610Y62976*
X159511Y62996*
G37*
G36*
X36702Y55001D02*
X36370Y54957D01*
X36062Y54829*
X35796Y54626*
X35593Y54360*
X35465Y54052*
X35421Y53720*
X35465Y53388*
X35593Y53080*
X35796Y52814*
X36062Y52611*
X36370Y52483*
X36702Y52439*
X37034Y52483*
X37342Y52611*
X37608Y52814*
X37811Y53080*
X37939Y53388*
X37983Y53720*
X37939Y54052*
X37811Y54360*
X37608Y54626*
X37342Y54829*
X37034Y54957*
X36702Y55001*
G37*
G36*
X137475Y51757D02*
X136948D01*
Y51180*
X137475*
Y51757*
G37*
G36*
X103999Y77596D02*
X103504D01*
Y77101*
X103625Y77125*
X103835Y77265*
X103975Y77475*
X103999Y77596*
G37*
G36*
X103250Y78345D02*
X103129Y78321D01*
X102919Y78181*
X102779Y77971*
X102755Y77850*
X103250*
Y78345*
G37*
G36*
X103504D02*
Y77850D01*
X103999*
X103975Y77971*
X103835Y78181*
X103625Y78321*
X103504Y78345*
G37*
G36*
X116458Y59670D02*
X116242Y59627D01*
X116059Y59504*
X115936Y59321*
X115893Y59105*
Y57505*
X115936Y57289*
X116059Y57106*
X116070Y57098*
Y53246*
X115548Y52725*
X115464Y52599*
X115435Y52450*
Y51200*
X115314Y51159*
X115186Y51327*
X114956Y51503*
X114790Y51572*
Y52416*
X115463Y53088*
X115547Y53214*
X115576Y53363*
Y57098*
X115587Y57106*
X115710Y57289*
X115753Y57505*
Y59105*
X115710Y59321*
X115587Y59504*
X115404Y59627*
X115188Y59670*
X114972Y59627*
X114789Y59504*
X114666Y59321*
X114623Y59105*
Y57505*
X114666Y57289*
X114789Y57106*
X114800Y57098*
Y53524*
X114127Y52852*
X114043Y52726*
X114014Y52577*
Y51572*
X113848Y51503*
X113618Y51327*
X113442Y51097*
X113331Y50830*
X113294Y50543*
X113331Y50256*
X113442Y49989*
X113618Y49759*
X113752Y49657*
X113711Y49536*
X113188*
X112634Y50090*
X112703Y50256*
X112740Y50543*
X112703Y50830*
X112592Y51097*
X112416Y51327*
X112186Y51503*
X111919Y51614*
X111632Y51651*
X111345Y51614*
X111078Y51503*
X110848Y51327*
X110672Y51097*
X110561Y50830*
X110524Y50543*
X110561Y50256*
X110672Y49989*
X110848Y49759*
X111078Y49583*
X111345Y49472*
X111632Y49435*
X111919Y49472*
X112085Y49541*
X112735Y48890*
X112711Y48766*
X112463Y48663*
X112233Y48487*
X112057Y48257*
X111946Y47990*
X111909Y47703*
X111946Y47416*
X112057Y47149*
X112233Y46919*
X112463Y46743*
X112730Y46632*
X113017Y46595*
X113304Y46632*
X113571Y46743*
X113801Y46919*
X113977Y47149*
X114088Y47416*
X114125Y47703*
X114088Y47990*
X113977Y48257*
X113801Y48487*
X113602Y48639*
X113643Y48760*
X115161*
X115202Y48639*
X115003Y48487*
X114827Y48257*
X114716Y47990*
X114679Y47703*
X114716Y47416*
X114827Y47149*
X115003Y46919*
X115233Y46743*
X115500Y46632*
X115787Y46595*
X116074Y46632*
X116341Y46743*
X116571Y46919*
X116747Y47149*
X116858Y47416*
X116895Y47703*
X116858Y47990*
X116747Y48257*
X116571Y48487*
X116341Y48663*
X116074Y48774*
X115787Y48811*
X115538Y48779*
X115482Y48893*
X116045Y49456*
X116073Y49444*
X118271*
Y51642*
X116211*
Y52289*
X116733Y52810*
X116817Y52936*
X116822Y52961*
X116846Y53085*
Y57098*
X116857Y57106*
X116980Y57289*
X117023Y57505*
Y59105*
X116980Y59321*
X116857Y59504*
X116674Y59627*
X116458Y59670*
G37*
G36*
X112718Y80091D02*
X111702D01*
Y78083*
X111822*
Y77846*
X111752Y77800*
X111612Y77590*
X111563Y77342*
X111612Y77094*
X111752Y76884*
X111962Y76744*
X112210Y76695*
X112458Y76744*
X112668Y76884*
X112808Y77094*
X112857Y77342*
X112808Y77590*
X112668Y77800*
X112598Y77846*
Y78083*
X112718*
Y80091*
G37*
G36*
X103250Y77596D02*
X102755D01*
X102779Y77475*
X102919Y77265*
X103129Y77125*
X103250Y77101*
Y77596*
G37*
G36*
X137278Y56641D02*
X136397D01*
Y55760*
X136535Y55778*
X136782Y55881*
X136995Y56043*
X137157Y56256*
X137260Y56503*
X137278Y56641*
G37*
G36*
X134619Y57530D02*
X133222D01*
Y56895*
X134619*
Y57530*
G37*
G36*
X112648Y59670D02*
X112432Y59627D01*
X112249Y59504*
X112126Y59321*
X112083Y59105*
Y57505*
X112126Y57289*
X112249Y57106*
X112260Y57098*
Y56202*
X112059*
X111967*
X111766*
Y57098*
X111777Y57106*
X111900Y57289*
X111943Y57505*
Y59105*
X111900Y59321*
X111777Y59504*
X111594Y59627*
X111378Y59670*
X111162Y59627*
X110979Y59504*
X110856Y59321*
X110813Y59105*
Y57505*
X110856Y57289*
X110979Y57106*
X110990Y57098*
Y56202*
X110659*
Y54794*
X111967*
X112059*
X113367*
Y56202*
X113036*
Y57098*
X113047Y57106*
X113170Y57289*
X113213Y57505*
Y59105*
X113170Y59321*
X113047Y59504*
X112864Y59627*
X112648Y59670*
G37*
G36*
X152653Y73161D02*
X134238D01*
X134040Y73122*
X133872Y73009*
X131156Y70294*
X128332*
Y68845*
X122796*
Y69202*
X122245*
Y70796*
X122508*
X122600*
X123127*
Y71500*
Y72204*
X122600*
X122508*
X121200*
Y70796*
X121339*
Y69202*
X120788*
Y67194*
X122796*
Y67551*
X128332*
Y66103*
X129528*
Y59435*
X128945*
X128781Y59560*
X128534Y59663*
X128269Y59698*
X128004Y59663*
X127757Y59560*
X127544Y59398*
X127382Y59185*
X127279Y58938*
X127244Y58673*
X127279Y58408*
X127382Y58161*
X127544Y57948*
X127757Y57786*
X128004Y57683*
X128269Y57648*
X128534Y57683*
X128781Y57786*
X128945Y57911*
X131317*
Y59435*
X130693*
Y66103*
X131888*
Y69561*
X134453Y72125*
X152438*
X153659Y70904*
Y70641*
X153273*
Y69133*
Y69041*
Y67533*
X153634*
X153711Y67456*
X153662Y67339*
X153273*
Y65831*
Y65739*
Y65486*
X151675*
Y65512*
X148990*
X148967*
X148948Y65531*
X147573*
Y63854*
X148877*
X148900*
X148967Y63787*
Y63304*
X149852*
Y62298*
X149651*
X149559*
X148251*
Y62047*
X145927*
Y63789*
X145992Y63854*
X146017*
X147319*
Y65658*
Y67462*
X145992*
X145925Y67529*
Y68012*
X144698*
Y67533*
X144571*
Y67406*
X143217*
Y67060*
X142117*
Y70230*
X142097Y70329*
X142041Y70413*
X141957Y70469*
X141858Y70489*
X138429*
X138330Y70469*
X138246Y70413*
X138190Y70329*
X138170Y70230*
Y66801*
Y65785*
X138190Y65686*
X138246Y65602*
X138330Y65546*
X138429Y65526*
X139689*
Y62552*
X139488*
Y61144*
X140796*
X140888*
X142196*
Y62552*
X141995*
Y63884*
X142691Y64580*
X143183*
X143217Y64468*
Y64456*
X143199Y64444*
X143143Y64360*
X143123Y64261*
Y57587*
X142887Y57351*
X142112*
Y57530*
X139740*
X139576Y57655*
X139329Y57758*
X139064Y57793*
X138799Y57758*
X138552Y57655*
X138339Y57493*
X138177Y57280*
X138074Y57033*
X138039Y56768*
X138074Y56503*
X138177Y56256*
X138339Y56043*
X138549Y55883*
Y51757*
X138348*
X138256*
X137729*
Y51053*
Y50349*
X138256*
X138348*
X139656*
Y51757*
X139455*
Y55830*
X139576Y55881*
X139740Y56006*
X142112*
Y56185*
X143128*
X143351Y56230*
X143540Y56356*
X144074Y56890*
X148335*
X148434Y56910*
X148518Y56966*
X148574Y57050*
X148594Y57149*
Y60197*
X148574Y60296*
X148518Y60380*
X148434Y60436*
X148335Y60456*
X145927*
Y61141*
X148251*
Y60890*
X149559*
X149651*
X150959*
Y62298*
X150758*
Y63304*
X151675*
Y64262*
X148990*
X148967*
X148900Y64329*
Y64487*
X148967Y64554*
X148990*
X151675*
Y64580*
X153273*
Y64231*
X153724*
Y63964*
X153473*
Y62656*
Y62564*
Y62037*
X154881*
Y62564*
Y62656*
Y63964*
X154630*
Y64231*
X155081*
Y65739*
Y65831*
Y67339*
X154720*
X154643Y67416*
X154692Y67533*
X155081*
Y69041*
Y69133*
Y70641*
X154695*
Y71119*
X154656Y71317*
X154543Y71485*
X153019Y73009*
X152851Y73122*
X152653Y73161*
G37*
G36*
X125348Y59681D02*
X125210Y59663D01*
X124963Y59560*
X124799Y59435*
X124078*
Y58673*
Y57911*
X124799*
X124963Y57786*
X125210Y57683*
X125348Y57665*
Y58673*
Y59681*
G37*
G36*
X136397Y57776D02*
Y56895D01*
X137278*
X137260Y57033*
X137157Y57280*
X136995Y57493*
X136782Y57655*
X136535Y57758*
X136397Y57776*
G37*
G36*
X146619Y70611D02*
X146092D01*
Y70034*
X146619*
Y70611*
G37*
G36*
X123908Y71373D02*
X123381D01*
Y70796*
X123908*
Y71373*
G37*
G36*
X110108Y59670D02*
X109892Y59627D01*
X109709Y59504*
X109586Y59321*
X109543Y59105*
Y57505*
X109586Y57289*
X109709Y57106*
X109720Y57098*
Y56229*
X109693Y56202*
X108884*
X108792*
X107983*
X107956Y56229*
Y57098*
X107967Y57106*
X108090Y57289*
X108133Y57505*
Y59105*
X108090Y59321*
X107967Y59504*
X107784Y59627*
X107568Y59670*
X107352Y59627*
X107169Y59504*
X107046Y59321*
X107003Y59105*
Y57505*
X107046Y57289*
X107169Y57106*
X107180Y57098*
Y56068*
X107209Y55919*
X107293Y55793*
X107484Y55603*
Y54794*
X108792*
X108884*
X110192*
Y55603*
X110383Y55793*
X110467Y55919*
X110496Y56068*
Y57098*
X110507Y57106*
X110630Y57289*
X110673Y57505*
Y59105*
X110630Y59321*
X110507Y59504*
X110324Y59627*
X110108Y59670*
G37*
G36*
X134619Y56641D02*
X133222D01*
Y56006*
X134619*
Y56641*
G37*
G36*
X123908Y72204D02*
X123381D01*
Y71627*
X123908*
Y72204*
G37*
G36*
X146619Y71442D02*
X146092D01*
Y70865*
X146619*
Y71442*
G37*
G36*
X143890Y71746D02*
X143752Y71728D01*
X143505Y71625*
X143292Y71463*
X143130Y71250*
X143027Y71003*
X143009Y70865*
X143890*
Y71746*
G37*
G36*
X144144D02*
Y70865D01*
X145025*
X145007Y71003*
X144904Y71250*
X144742Y71463*
X144529Y71625*
X144282Y71728*
X144144Y71746*
G37*
G36*
X137540Y91977D02*
X134365D01*
X134266Y91958*
X134182Y91902*
X134126Y91818*
X134106Y91718*
Y91409*
X134101Y91408*
Y91216*
X134106Y91215*
Y89940*
X134126Y89841*
X134169Y89777*
Y89732*
Y89640*
Y88332*
Y87065*
Y86973*
Y85729*
X132529*
Y86167*
X131825*
Y86421*
X132529*
Y86948*
Y87040*
Y88307*
Y88834*
X131825*
Y89088*
X132529*
Y89615*
Y89707*
Y91015*
X131121*
Y90749*
X129925*
Y91693*
X129905Y91792*
X129849Y91876*
X129765Y91932*
X129666Y91952*
X126491*
X126392Y91932*
X126308Y91876*
X126252Y91792*
X126232Y91693*
Y91409*
X126227Y91408*
Y91216*
X126232Y91215*
Y89915*
X126252Y89816*
X126295Y89751*
Y89707*
Y89615*
Y88307*
Y87040*
Y86948*
Y85729*
X124655*
Y86167*
X123951*
Y86421*
X124655*
Y86948*
Y87040*
Y88307*
Y88834*
X123951*
Y89088*
X124655*
Y89615*
Y89707*
Y91015*
X123247*
Y90749*
X122051*
Y91693*
X122031Y91792*
X121975Y91876*
X121891Y91932*
X121792Y91952*
X118617*
X118518Y91932*
X118434Y91876*
X118378Y91792*
X118358Y91693*
Y89915*
X118378Y89816*
X118421Y89751*
Y89707*
Y89615*
Y88307*
Y87040*
Y86948*
Y85729*
X116077*
X115978Y85709*
X115894Y85653*
X115838Y85569*
X115818Y85470*
Y84962*
Y83438*
Y75945*
Y73913*
X115838Y73814*
X115894Y73730*
X115978Y73674*
X116077Y73654*
X156204*
Y64769*
X156224Y64670*
X156280Y64586*
X156364Y64530*
X156463Y64510*
X159511*
X159610Y64530*
X159694Y64586*
X159750Y64670*
X159770Y64769*
Y75183*
Y78104*
X159750Y78203*
X159694Y78287*
X159610Y78343*
X159511Y78363*
X152531*
Y84327*
Y85470*
X152511Y85569*
X152455Y85653*
X152371Y85709*
X152272Y85729*
X148277*
Y86167*
X147573*
Y86421*
X148277*
Y86948*
Y87040*
Y88307*
Y88834*
X147573*
Y89088*
X148277*
Y89615*
Y89707*
Y91015*
X146869*
Y90749*
X145673*
Y91693*
X145653Y91792*
X145597Y91876*
X145513Y91932*
X145414Y91952*
X142239*
X142140Y91932*
X142056Y91876*
X142000Y91792*
X141980Y91693*
Y91409*
X141975Y91408*
Y91216*
X141980Y91215*
Y89915*
X142000Y89816*
X142043Y89751*
Y89707*
Y89615*
Y88307*
Y87040*
Y86948*
Y85729*
X140403*
Y86192*
X139699*
Y86446*
X140403*
Y86973*
Y87065*
Y88332*
Y88859*
X139699*
Y89113*
X140403*
Y89640*
Y89732*
Y91040*
X138995*
Y90775*
X137799*
Y91718*
X137779Y91818*
X137723Y91902*
X137639Y91958*
X137540Y91977*
G37*
G36*
X72733Y109207D02*
X70725D01*
Y107199*
X72733*
Y109207*
G37*
G36*
X102578D02*
X100570D01*
Y107199*
X102578*
Y109207*
G37*
G36*
X132423D02*
X130415D01*
Y107199*
X132423*
Y109207*
G37*
G36*
X42888D02*
X40880D01*
Y107199*
X42888*
Y109207*
G37*
G36*
X133959Y109216D02*
X133696Y109181D01*
X133452Y109080*
X133243Y108919*
X133082Y108709*
X132980Y108465*
X132946Y108203*
X132980Y107941*
X133082Y107697*
X133243Y107487*
X133452Y107326*
X133696Y107225*
X133959Y107190*
X134221Y107225*
X134465Y107326*
X134675Y107487*
X134836Y107697*
X134937Y107941*
X134971Y108203*
X134937Y108465*
X134836Y108709*
X134675Y108919*
X134465Y109080*
X134221Y109181*
X133959Y109216*
G37*
G36*
X146659D02*
X146397Y109181D01*
X146152Y109080*
X145943Y108919*
X145782Y108709*
X145680Y108465*
X145646Y108203*
X145680Y107941*
X145782Y107697*
X145943Y107487*
X146152Y107326*
X146397Y107225*
X146659Y107190*
X146921Y107225*
X147165Y107326*
X147375Y107487*
X147536Y107697*
X147637Y107941*
X147671Y108203*
X147637Y108465*
X147536Y108709*
X147375Y108919*
X147165Y109080*
X146921Y109181*
X146659Y109216*
G37*
G36*
X149199D02*
X148937Y109181D01*
X148692Y109080*
X148483Y108919*
X148322Y108709*
X148220Y108465*
X148186Y108203*
X148220Y107941*
X148322Y107697*
X148483Y107487*
X148692Y107326*
X148937Y107225*
X149199Y107190*
X149461Y107225*
X149705Y107326*
X149915Y107487*
X150076Y107697*
X150177Y107941*
X150211Y108203*
X150177Y108465*
X150076Y108709*
X149915Y108919*
X149705Y109080*
X149461Y109181*
X149199Y109216*
G37*
G36*
X32765Y111251D02*
X30640D01*
X30671Y110936*
X30800Y110511*
X31009Y110120*
X31290Y109776*
X31634Y109495*
X32025Y109285*
X32450Y109157*
X32765Y109126*
Y111251*
G37*
G36*
X35144D02*
X33019D01*
Y109126*
X33334Y109157*
X33759Y109285*
X34150Y109495*
X34494Y109776*
X34775Y110120*
X34985Y110511*
X35113Y110936*
X35144Y111251*
G37*
G36*
X157860D02*
X155735D01*
X155766Y110936*
X155894Y110511*
X156104Y110120*
X156385Y109776*
X156729Y109495*
X157120Y109285*
X157545Y109157*
X157860Y109126*
Y111251*
G37*
G36*
X114274Y111756D02*
X114011Y111721D01*
X113767Y111620*
X113558Y111459*
X113397Y111249*
X113295Y111005*
X113261Y110743*
X113295Y110481*
X113310Y110446*
X112683Y109819*
X112585Y109672*
X112550Y109498*
Y108985*
X112436Y108929*
X112240Y109080*
X111996Y109181*
X111734Y109216*
X111472Y109181*
X111227Y109080*
X111018Y108919*
X110857Y108709*
X110755Y108465*
X110721Y108203*
X110755Y107941*
X110857Y107697*
X111018Y107487*
X111227Y107326*
X111472Y107225*
X111734Y107190*
X111996Y107225*
X112240Y107326*
X112436Y107477*
X112550Y107421*
Y105343*
X111104Y103896*
X111099Y103897*
X110851Y103848*
X110641Y103708*
X110527Y103538*
X110400*
X110286Y103708*
X110076Y103848*
X109829Y103897*
X109823Y103896*
X108377Y105343*
Y107421*
X108491Y107477*
X108687Y107326*
X108932Y107225*
X109194Y107190*
X109456Y107225*
X109700Y107326*
X109910Y107487*
X110071Y107697*
X110172Y107941*
X110206Y108203*
X110172Y108465*
X110071Y108709*
X109910Y108919*
X109700Y109080*
X109456Y109181*
X109194Y109216*
X108932Y109181*
X108687Y109080*
X108491Y108929*
X108377Y108985*
Y109473*
X108342Y109646*
X108293Y109720*
X108244Y109793*
X107610Y110428*
X107632Y110481*
X107666Y110743*
X107632Y111005*
X107531Y111249*
X107370Y111459*
X107160Y111620*
X106916Y111721*
X106654Y111756*
X106392Y111721*
X106147Y111620*
X105938Y111459*
X105777Y111249*
X105675Y111005*
X105641Y110743*
X105675Y110481*
X105777Y110237*
X105938Y110027*
X106147Y109866*
X106392Y109765*
X106654Y109730*
X106916Y109765*
X106969Y109787*
X107470Y109285*
Y108985*
X107356Y108929*
X107160Y109080*
X106916Y109181*
X106654Y109216*
X106392Y109181*
X106147Y109080*
X105938Y108919*
X105777Y108709*
X105675Y108465*
X105641Y108203*
X105675Y107941*
X105777Y107697*
X105938Y107487*
X106147Y107326*
X106175Y107315*
Y105180*
X106209Y105007*
X106308Y104860*
X109182Y101985*
X109181Y101980*
X109230Y101732*
X109371Y101522*
X109581Y101382*
X109829Y101333*
X110076Y101382*
X110286Y101522*
X110400Y101692*
X110527*
X110641Y101522*
X110851Y101382*
X111099Y101333*
X111346Y101382*
X111556Y101522*
X111697Y101732*
X111746Y101980*
X111745Y101985*
X114569Y104809*
X114667Y104956*
X114701Y105130*
Y107293*
X114780Y107326*
X114990Y107487*
X115151Y107697*
X115252Y107941*
X115286Y108203*
X115252Y108465*
X115151Y108709*
X114990Y108919*
X114780Y109080*
X114536Y109181*
X114274Y109216*
X114011Y109181*
X113767Y109080*
X113571Y108929*
X113457Y108985*
Y109311*
X113940Y109794*
X114011Y109765*
X114274Y109730*
X114536Y109765*
X114780Y109866*
X114990Y110027*
X115151Y110237*
X115252Y110481*
X115286Y110743*
X115252Y111005*
X115151Y111249*
X114990Y111459*
X114780Y111620*
X114536Y111721*
X114274Y111756*
G37*
G36*
X54584D02*
X54321Y111721D01*
X54077Y111620*
X53868Y111459*
X53707Y111249*
X53605Y111005*
X53571Y110743*
X53605Y110481*
X53620Y110446*
X52993Y109819*
X52895Y109672*
X52860Y109498*
Y108985*
X52746Y108929*
X52550Y109080*
X52306Y109181*
X52044Y109216*
X51782Y109181*
X51537Y109080*
X51328Y108919*
X51167Y108709*
X51065Y108465*
X51031Y108203*
X51065Y107941*
X51167Y107697*
X51328Y107487*
X51537Y107326*
X51782Y107225*
X52044Y107190*
X52306Y107225*
X52550Y107326*
X52746Y107477*
X52860Y107421*
Y105343*
X51414Y103896*
X51409Y103897*
X51161Y103848*
X50951Y103708*
X50837Y103538*
X50710*
X50596Y103708*
X50386Y103848*
X50139Y103897*
X50133Y103896*
X48687Y105343*
Y107421*
X48801Y107477*
X48997Y107326*
X49242Y107225*
X49504Y107190*
X49766Y107225*
X50010Y107326*
X50220Y107487*
X50381Y107697*
X50482Y107941*
X50516Y108203*
X50482Y108465*
X50381Y108709*
X50220Y108919*
X50010Y109080*
X49766Y109181*
X49504Y109216*
X49242Y109181*
X48997Y109080*
X48801Y108929*
X48687Y108985*
Y109473*
X48652Y109646*
X48603Y109720*
X48554Y109793*
X47920Y110428*
X47942Y110481*
X47976Y110743*
X47942Y111005*
X47841Y111249*
X47680Y111459*
X47470Y111620*
X47226Y111721*
X46964Y111756*
X46701Y111721*
X46457Y111620*
X46248Y111459*
X46087Y111249*
X45985Y111005*
X45951Y110743*
X45985Y110481*
X46087Y110237*
X46248Y110027*
X46457Y109866*
X46701Y109765*
X46964Y109730*
X47226Y109765*
X47279Y109787*
X47780Y109285*
Y108985*
X47666Y108929*
X47470Y109080*
X47226Y109181*
X46964Y109216*
X46701Y109181*
X46457Y109080*
X46248Y108919*
X46087Y108709*
X45985Y108465*
X45951Y108203*
X45985Y107941*
X46087Y107697*
X46248Y107487*
X46457Y107326*
X46485Y107315*
Y105180*
X46519Y105007*
X46618Y104860*
X49492Y101985*
X49491Y101980*
X49540Y101732*
X49681Y101522*
X49891Y101382*
X50139Y101333*
X50386Y101382*
X50596Y101522*
X50710Y101692*
X50837*
X50951Y101522*
X51161Y101382*
X51409Y101333*
X51656Y101382*
X51866Y101522*
X52007Y101732*
X52056Y101980*
X52055Y101985*
X54879Y104809*
X54977Y104956*
X55011Y105130*
Y107293*
X55090Y107326*
X55300Y107487*
X55461Y107697*
X55562Y107941*
X55596Y108203*
X55562Y108465*
X55461Y108709*
X55300Y108919*
X55090Y109080*
X54846Y109181*
X54584Y109216*
X54321Y109181*
X54077Y109080*
X53881Y108929*
X53767Y108985*
Y109311*
X54250Y109794*
X54321Y109765*
X54584Y109730*
X54846Y109765*
X55090Y109866*
X55300Y110027*
X55461Y110237*
X55562Y110481*
X55596Y110743*
X55562Y111005*
X55461Y111249*
X55300Y111459*
X55090Y111620*
X54846Y111721*
X54584Y111756*
G37*
G36*
X84429D02*
X84167Y111721D01*
X83922Y111620*
X83713Y111459*
X83552Y111249*
X83450Y111005*
X83416Y110743*
X83450Y110481*
X83465Y110446*
X82838Y109819*
X82740Y109672*
X82705Y109498*
Y108985*
X82591Y108929*
X82395Y109080*
X82151Y109181*
X81889Y109216*
X81627Y109181*
X81382Y109080*
X81173Y108919*
X81012Y108709*
X80910Y108465*
X80876Y108203*
X80910Y107941*
X81012Y107697*
X81173Y107487*
X81382Y107326*
X81627Y107225*
X81889Y107190*
X82151Y107225*
X82395Y107326*
X82591Y107477*
X82705Y107421*
Y105343*
X81259Y103896*
X81254Y103897*
X81006Y103848*
X80796Y103708*
X80682Y103538*
X80555*
X80441Y103708*
X80231Y103848*
X79984Y103897*
X79978Y103896*
X78532Y105343*
Y107421*
X78646Y107477*
X78842Y107326*
X79087Y107225*
X79349Y107190*
X79611Y107225*
X79855Y107326*
X80065Y107487*
X80226Y107697*
X80327Y107941*
X80361Y108203*
X80327Y108465*
X80226Y108709*
X80065Y108919*
X79855Y109080*
X79611Y109181*
X79349Y109216*
X79087Y109181*
X78842Y109080*
X78646Y108929*
X78532Y108985*
Y109473*
X78497Y109646*
X78448Y109720*
X78399Y109793*
X77765Y110428*
X77787Y110481*
X77821Y110743*
X77787Y111005*
X77686Y111249*
X77525Y111459*
X77315Y111620*
X77071Y111721*
X76809Y111756*
X76547Y111721*
X76302Y111620*
X76093Y111459*
X75932Y111249*
X75830Y111005*
X75796Y110743*
X75830Y110481*
X75932Y110237*
X76093Y110027*
X76302Y109866*
X76547Y109765*
X76809Y109730*
X77071Y109765*
X77124Y109787*
X77625Y109285*
Y108985*
X77511Y108929*
X77315Y109080*
X77071Y109181*
X76809Y109216*
X76547Y109181*
X76302Y109080*
X76093Y108919*
X75932Y108709*
X75830Y108465*
X75796Y108203*
X75830Y107941*
X75932Y107697*
X76093Y107487*
X76302Y107326*
X76330Y107315*
Y105180*
X76364Y105007*
X76463Y104860*
X79337Y101985*
X79336Y101980*
X79385Y101732*
X79526Y101522*
X79736Y101382*
X79984Y101333*
X80231Y101382*
X80441Y101522*
X80555Y101692*
X80682*
X80796Y101522*
X81006Y101382*
X81254Y101333*
X81501Y101382*
X81711Y101522*
X81852Y101732*
X81901Y101980*
X81900Y101985*
X84724Y104809*
X84822Y104956*
X84856Y105130*
Y107293*
X84935Y107326*
X85145Y107487*
X85306Y107697*
X85407Y107941*
X85441Y108203*
X85407Y108465*
X85306Y108709*
X85145Y108919*
X84935Y109080*
X84691Y109181*
X84429Y109216*
X84167Y109181*
X83922Y109080*
X83726Y108929*
X83612Y108985*
Y109311*
X84095Y109794*
X84167Y109765*
X84429Y109730*
X84691Y109765*
X84935Y109866*
X85145Y110027*
X85306Y110237*
X85407Y110481*
X85441Y110743*
X85407Y111005*
X85306Y111249*
X85145Y111459*
X84935Y111620*
X84691Y111721*
X84429Y111756*
G37*
G36*
X144119D02*
X143856Y111721D01*
X143612Y111620*
X143403Y111459*
X143242Y111249*
X143140Y111005*
X143106Y110743*
X143140Y110481*
X143155Y110446*
X142528Y109819*
X142430Y109672*
X142395Y109498*
Y108985*
X142281Y108929*
X142085Y109080*
X141841Y109181*
X141579Y109216*
X141317Y109181*
X141072Y109080*
X140863Y108919*
X140702Y108709*
X140600Y108465*
X140566Y108203*
X140600Y107941*
X140702Y107697*
X140863Y107487*
X141072Y107326*
X141317Y107225*
X141579Y107190*
X141841Y107225*
X142085Y107326*
X142281Y107477*
X142395Y107421*
Y105343*
X140949Y103896*
X140944Y103897*
X140696Y103848*
X140486Y103708*
X140372Y103538*
X140245*
X140131Y103708*
X139921Y103848*
X139674Y103897*
X139668Y103896*
X138222Y105343*
Y107421*
X138336Y107477*
X138532Y107326*
X138776Y107225*
X139039Y107190*
X139301Y107225*
X139545Y107326*
X139755Y107487*
X139916Y107697*
X140017Y107941*
X140051Y108203*
X140017Y108465*
X139916Y108709*
X139755Y108919*
X139545Y109080*
X139301Y109181*
X139039Y109216*
X138776Y109181*
X138532Y109080*
X138336Y108929*
X138222Y108985*
Y109473*
X138187Y109646*
X138138Y109720*
X138089Y109793*
X137455Y110428*
X137477Y110481*
X137511Y110743*
X137477Y111005*
X137376Y111249*
X137215Y111459*
X137005Y111620*
X136761Y111721*
X136499Y111756*
X136237Y111721*
X135992Y111620*
X135783Y111459*
X135622Y111249*
X135520Y111005*
X135486Y110743*
X135520Y110481*
X135622Y110237*
X135783Y110027*
X135992Y109866*
X136237Y109765*
X136499Y109730*
X136761Y109765*
X136814Y109787*
X137315Y109285*
Y108985*
X137201Y108929*
X137005Y109080*
X136761Y109181*
X136499Y109216*
X136237Y109181*
X135992Y109080*
X135783Y108919*
X135622Y108709*
X135520Y108465*
X135486Y108203*
X135520Y107941*
X135622Y107697*
X135783Y107487*
X135992Y107326*
X136020Y107315*
Y105180*
X136054Y105007*
X136153Y104860*
X139027Y101985*
X139026Y101980*
X139075Y101732*
X139216Y101522*
X139426Y101382*
X139674Y101333*
X139921Y101382*
X140131Y101522*
X140245Y101692*
X140372*
X140486Y101522*
X140696Y101382*
X140944Y101333*
X141191Y101382*
X141401Y101522*
X141542Y101732*
X141591Y101980*
X141590Y101985*
X144414Y104809*
X144512Y104956*
X144546Y105130*
Y107293*
X144625Y107326*
X144835Y107487*
X144996Y107697*
X145097Y107941*
X145131Y108203*
X145097Y108465*
X144996Y108709*
X144835Y108919*
X144625Y109080*
X144381Y109181*
X144119Y109216*
X143856Y109181*
X143612Y109080*
X143416Y108929*
X143302Y108985*
Y109311*
X143785Y109794*
X143856Y109765*
X144119Y109730*
X144381Y109765*
X144625Y109866*
X144835Y110027*
X144996Y110237*
X145097Y110481*
X145131Y110743*
X145097Y111005*
X144996Y111249*
X144835Y111459*
X144625Y111620*
X144381Y111721*
X144119Y111756*
G37*
G36*
X119354Y109216D02*
X119091Y109181D01*
X118847Y109080*
X118638Y108919*
X118477Y108709*
X118375Y108465*
X118341Y108203*
X118375Y107941*
X118477Y107697*
X118638Y107487*
X118847Y107326*
X119091Y107225*
X119354Y107190*
X119616Y107225*
X119860Y107326*
X120070Y107487*
X120231Y107697*
X120332Y107941*
X120366Y108203*
X120332Y108465*
X120231Y108709*
X120070Y108919*
X119860Y109080*
X119616Y109181*
X119354Y109216*
G37*
G36*
X65277Y102480D02*
X65139Y102462D01*
X64892Y102359*
X64679Y102197*
X64517Y101984*
X64414Y101737*
X64396Y101599*
X65277*
Y102480*
G37*
G36*
X65531D02*
Y101599D01*
X66412*
X66394Y101737*
X66291Y101984*
X66129Y102197*
X65916Y102359*
X65669Y102462*
X65531Y102480*
G37*
G36*
X44424Y109216D02*
X44161Y109181D01*
X43917Y109080*
X43708Y108919*
X43547Y108709*
X43445Y108465*
X43411Y108203*
X43445Y107941*
X43547Y107697*
X43708Y107487*
X43917Y107326*
X44161Y107225*
X44424Y107190*
X44686Y107225*
X44930Y107326*
X45140Y107487*
X45301Y107697*
X45402Y107941*
X45436Y108203*
X45402Y108465*
X45301Y108709*
X45140Y108919*
X44930Y109080*
X44686Y109181*
X44424Y109216*
G37*
G36*
X127253Y101972D02*
Y101091D01*
X128134*
X128116Y101229*
X128013Y101476*
X127851Y101689*
X127638Y101851*
X127391Y101954*
X127253Y101972*
G37*
G36*
X94741Y101718D02*
X94603Y101700D01*
X94356Y101597*
X94143Y101435*
X93981Y101222*
X93878Y100975*
X93860Y100837*
X94741*
Y101718*
G37*
G36*
X94995D02*
Y100837D01*
X95876*
X95858Y100975*
X95755Y101222*
X95593Y101435*
X95380Y101597*
X95133Y101700*
X94995Y101718*
G37*
G36*
X126999Y101972D02*
X126861Y101954D01*
X126614Y101851*
X126401Y101689*
X126239Y101476*
X126136Y101229*
X126118Y101091*
X126999*
Y101972*
G37*
G36*
X89509Y109216D02*
X89246Y109181D01*
X89002Y109080*
X88793Y108919*
X88632Y108709*
X88530Y108465*
X88496Y108203*
X88530Y107941*
X88632Y107697*
X88793Y107487*
X89002Y107326*
X89246Y107225*
X89509Y107190*
X89771Y107225*
X90015Y107326*
X90225Y107487*
X90386Y107697*
X90487Y107941*
X90521Y108203*
X90487Y108465*
X90386Y108709*
X90225Y108919*
X90015Y109080*
X89771Y109181*
X89509Y109216*
G37*
G36*
X104114D02*
X103852Y109181D01*
X103607Y109080*
X103398Y108919*
X103237Y108709*
X103135Y108465*
X103101Y108203*
X103135Y107941*
X103237Y107697*
X103398Y107487*
X103607Y107326*
X103852Y107225*
X104114Y107190*
X104376Y107225*
X104620Y107326*
X104830Y107487*
X104991Y107697*
X105092Y107941*
X105126Y108203*
X105092Y108465*
X104991Y108709*
X104830Y108919*
X104620Y109080*
X104376Y109181*
X104114Y109216*
G37*
G36*
X116814D02*
X116551Y109181D01*
X116307Y109080*
X116098Y108919*
X115937Y108709*
X115835Y108465*
X115801Y108203*
X115835Y107941*
X115937Y107697*
X116098Y107487*
X116307Y107326*
X116551Y107225*
X116814Y107190*
X117076Y107225*
X117320Y107326*
X117530Y107487*
X117691Y107697*
X117792Y107941*
X117826Y108203*
X117792Y108465*
X117691Y108709*
X117530Y108919*
X117320Y109080*
X117076Y109181*
X116814Y109216*
G37*
G36*
X86969D02*
X86706Y109181D01*
X86462Y109080*
X86253Y108919*
X86092Y108709*
X85990Y108465*
X85956Y108203*
X85990Y107941*
X86092Y107697*
X86253Y107487*
X86462Y107326*
X86706Y107225*
X86969Y107190*
X87231Y107225*
X87475Y107326*
X87685Y107487*
X87846Y107697*
X87947Y107941*
X87981Y108203*
X87947Y108465*
X87846Y108709*
X87685Y108919*
X87475Y109080*
X87231Y109181*
X86969Y109216*
G37*
G36*
X57124D02*
X56861Y109181D01*
X56617Y109080*
X56408Y108919*
X56247Y108709*
X56145Y108465*
X56111Y108203*
X56145Y107941*
X56247Y107697*
X56408Y107487*
X56617Y107326*
X56861Y107225*
X57124Y107190*
X57386Y107225*
X57630Y107326*
X57840Y107487*
X58001Y107697*
X58102Y107941*
X58136Y108203*
X58102Y108465*
X58001Y108709*
X57840Y108919*
X57630Y109080*
X57386Y109181*
X57124Y109216*
G37*
G36*
X59664D02*
X59402Y109181D01*
X59157Y109080*
X58948Y108919*
X58787Y108709*
X58685Y108465*
X58651Y108203*
X58685Y107941*
X58787Y107697*
X58948Y107487*
X59157Y107326*
X59402Y107225*
X59664Y107190*
X59926Y107225*
X60170Y107326*
X60380Y107487*
X60541Y107697*
X60642Y107941*
X60676Y108203*
X60642Y108465*
X60541Y108709*
X60380Y108919*
X60170Y109080*
X59926Y109181*
X59664Y109216*
G37*
G36*
X74269D02*
X74006Y109181D01*
X73762Y109080*
X73553Y108919*
X73392Y108709*
X73290Y108465*
X73256Y108203*
X73290Y107941*
X73392Y107697*
X73553Y107487*
X73762Y107326*
X74006Y107225*
X74269Y107190*
X74531Y107225*
X74775Y107326*
X74985Y107487*
X75146Y107697*
X75247Y107941*
X75281Y108203*
X75247Y108465*
X75146Y108709*
X74985Y108919*
X74775Y109080*
X74531Y109181*
X74269Y109216*
G37*
G36*
X131419Y111756D02*
X131157Y111721D01*
X130912Y111620*
X130703Y111459*
X130542Y111249*
X130440Y111005*
X130406Y110743*
X130440Y110481*
X130542Y110237*
X130703Y110027*
X130912Y109866*
X131157Y109765*
X131419Y109730*
X131681Y109765*
X131925Y109866*
X132135Y110027*
X132296Y110237*
X132397Y110481*
X132431Y110743*
X132397Y111005*
X132296Y111249*
X132135Y111459*
X131925Y111620*
X131681Y111721*
X131419Y111756*
G37*
G36*
X133959D02*
X133696Y111721D01*
X133452Y111620*
X133243Y111459*
X133082Y111249*
X132980Y111005*
X132946Y110743*
X132980Y110481*
X133082Y110237*
X133243Y110027*
X133452Y109866*
X133696Y109765*
X133959Y109730*
X134221Y109765*
X134465Y109866*
X134675Y110027*
X134836Y110237*
X134937Y110481*
X134971Y110743*
X134937Y111005*
X134836Y111249*
X134675Y111459*
X134465Y111620*
X134221Y111721*
X133959Y111756*
G37*
G36*
X139039D02*
X138776Y111721D01*
X138532Y111620*
X138323Y111459*
X138162Y111249*
X138060Y111005*
X138026Y110743*
X138060Y110481*
X138162Y110237*
X138323Y110027*
X138532Y109866*
X138776Y109765*
X139039Y109730*
X139301Y109765*
X139545Y109866*
X139755Y110027*
X139916Y110237*
X140017Y110481*
X140051Y110743*
X140017Y111005*
X139916Y111249*
X139755Y111459*
X139545Y111620*
X139301Y111721*
X139039Y111756*
G37*
G36*
X119354D02*
X119091Y111721D01*
X118847Y111620*
X118638Y111459*
X118477Y111249*
X118375Y111005*
X118341Y110743*
X118375Y110481*
X118477Y110237*
X118638Y110027*
X118847Y109866*
X119091Y109765*
X119354Y109730*
X119616Y109765*
X119860Y109866*
X120070Y110027*
X120231Y110237*
X120332Y110481*
X120366Y110743*
X120332Y111005*
X120231Y111249*
X120070Y111459*
X119860Y111620*
X119616Y111721*
X119354Y111756*
G37*
G36*
X109194D02*
X108932Y111721D01*
X108687Y111620*
X108478Y111459*
X108317Y111249*
X108215Y111005*
X108181Y110743*
X108215Y110481*
X108317Y110237*
X108478Y110027*
X108687Y109866*
X108932Y109765*
X109194Y109730*
X109456Y109765*
X109700Y109866*
X109910Y110027*
X110071Y110237*
X110172Y110481*
X110206Y110743*
X110172Y111005*
X110071Y111249*
X109910Y111459*
X109700Y111620*
X109456Y111721*
X109194Y111756*
G37*
G36*
X111734D02*
X111472Y111721D01*
X111227Y111620*
X111018Y111459*
X110857Y111249*
X110755Y111005*
X110721Y110743*
X110755Y110481*
X110857Y110237*
X111018Y110027*
X111227Y109866*
X111472Y109765*
X111734Y109730*
X111996Y109765*
X112240Y109866*
X112450Y110027*
X112611Y110237*
X112712Y110481*
X112746Y110743*
X112712Y111005*
X112611Y111249*
X112450Y111459*
X112240Y111620*
X111996Y111721*
X111734Y111756*
G37*
G36*
X116814D02*
X116551Y111721D01*
X116307Y111620*
X116098Y111459*
X115937Y111249*
X115835Y111005*
X115801Y110743*
X115835Y110481*
X115937Y110237*
X116098Y110027*
X116307Y109866*
X116551Y109765*
X116814Y109730*
X117076Y109765*
X117320Y109866*
X117530Y110027*
X117691Y110237*
X117792Y110481*
X117826Y110743*
X117792Y111005*
X117691Y111249*
X117530Y111459*
X117320Y111620*
X117076Y111721*
X116814Y111756*
G37*
G36*
X33019Y113630D02*
Y111505D01*
X35144*
X35113Y111820*
X34985Y112245*
X34775Y112636*
X34494Y112980*
X34150Y113261*
X33759Y113470*
X33334Y113599*
X33019Y113630*
G37*
G36*
X157860D02*
X157545Y113599D01*
X157120Y113470*
X156729Y113261*
X156385Y112980*
X156104Y112636*
X155894Y112245*
X155766Y111820*
X155735Y111505*
X157860*
Y113630*
G37*
G36*
X158114D02*
Y111505D01*
X160239*
X160208Y111820*
X160080Y112245*
X159870Y112636*
X159589Y112980*
X159245Y113261*
X158854Y113470*
X158429Y113599*
X158114Y113630*
G37*
G36*
X32765D02*
X32450Y113599D01*
X32025Y113470*
X31634Y113261*
X31290Y112980*
X31009Y112636*
X30800Y112245*
X30671Y111820*
X30640Y111505*
X32765*
Y113630*
G37*
G36*
X141579Y111756D02*
X141317Y111721D01*
X141072Y111620*
X140863Y111459*
X140702Y111249*
X140600Y111005*
X140566Y110743*
X140600Y110481*
X140702Y110237*
X140863Y110027*
X141072Y109866*
X141317Y109765*
X141579Y109730*
X141841Y109765*
X142085Y109866*
X142295Y110027*
X142456Y110237*
X142557Y110481*
X142591Y110743*
X142557Y111005*
X142456Y111249*
X142295Y111459*
X142085Y111620*
X141841Y111721*
X141579Y111756*
G37*
G36*
X146659D02*
X146397Y111721D01*
X146152Y111620*
X145943Y111459*
X145782Y111249*
X145680Y111005*
X145646Y110743*
X145680Y110481*
X145782Y110237*
X145943Y110027*
X146152Y109866*
X146397Y109765*
X146659Y109730*
X146921Y109765*
X147165Y109866*
X147375Y110027*
X147536Y110237*
X147637Y110481*
X147671Y110743*
X147637Y111005*
X147536Y111249*
X147375Y111459*
X147165Y111620*
X146921Y111721*
X146659Y111756*
G37*
G36*
X149199D02*
X148937Y111721D01*
X148692Y111620*
X148483Y111459*
X148322Y111249*
X148220Y111005*
X148186Y110743*
X148220Y110481*
X148322Y110237*
X148483Y110027*
X148692Y109866*
X148937Y109765*
X149199Y109730*
X149461Y109765*
X149705Y109866*
X149915Y110027*
X150076Y110237*
X150177Y110481*
X150211Y110743*
X150177Y111005*
X150076Y111249*
X149915Y111459*
X149705Y111620*
X149461Y111721*
X149199Y111756*
G37*
G36*
X104114D02*
X103852Y111721D01*
X103607Y111620*
X103398Y111459*
X103237Y111249*
X103135Y111005*
X103101Y110743*
X103135Y110481*
X103237Y110237*
X103398Y110027*
X103607Y109866*
X103852Y109765*
X104114Y109730*
X104376Y109765*
X104620Y109866*
X104830Y110027*
X104991Y110237*
X105092Y110481*
X105126Y110743*
X105092Y111005*
X104991Y111249*
X104830Y111459*
X104620Y111620*
X104376Y111721*
X104114Y111756*
G37*
G36*
X52044D02*
X51782Y111721D01*
X51537Y111620*
X51328Y111459*
X51167Y111249*
X51065Y111005*
X51031Y110743*
X51065Y110481*
X51167Y110237*
X51328Y110027*
X51537Y109866*
X51782Y109765*
X52044Y109730*
X52306Y109765*
X52550Y109866*
X52760Y110027*
X52921Y110237*
X53022Y110481*
X53056Y110743*
X53022Y111005*
X52921Y111249*
X52760Y111459*
X52550Y111620*
X52306Y111721*
X52044Y111756*
G37*
G36*
X57124D02*
X56861Y111721D01*
X56617Y111620*
X56408Y111459*
X56247Y111249*
X56145Y111005*
X56111Y110743*
X56145Y110481*
X56247Y110237*
X56408Y110027*
X56617Y109866*
X56861Y109765*
X57124Y109730*
X57386Y109765*
X57630Y109866*
X57840Y110027*
X58001Y110237*
X58102Y110481*
X58136Y110743*
X58102Y111005*
X58001Y111249*
X57840Y111459*
X57630Y111620*
X57386Y111721*
X57124Y111756*
G37*
G36*
X59664D02*
X59402Y111721D01*
X59157Y111620*
X58948Y111459*
X58787Y111249*
X58685Y111005*
X58651Y110743*
X58685Y110481*
X58787Y110237*
X58948Y110027*
X59157Y109866*
X59402Y109765*
X59664Y109730*
X59926Y109765*
X60170Y109866*
X60380Y110027*
X60541Y110237*
X60642Y110481*
X60676Y110743*
X60642Y111005*
X60541Y111249*
X60380Y111459*
X60170Y111620*
X59926Y111721*
X59664Y111756*
G37*
G36*
X49504D02*
X49242Y111721D01*
X48997Y111620*
X48788Y111459*
X48627Y111249*
X48525Y111005*
X48491Y110743*
X48525Y110481*
X48627Y110237*
X48788Y110027*
X48997Y109866*
X49242Y109765*
X49504Y109730*
X49766Y109765*
X50010Y109866*
X50220Y110027*
X50381Y110237*
X50482Y110481*
X50516Y110743*
X50482Y111005*
X50381Y111249*
X50220Y111459*
X50010Y111620*
X49766Y111721*
X49504Y111756*
G37*
G36*
X160239Y111251D02*
X158114D01*
Y109126*
X158429Y109157*
X158854Y109285*
X159245Y109495*
X159589Y109776*
X159870Y110120*
X160080Y110511*
X160208Y110936*
X160239Y111251*
G37*
G36*
X41884Y111756D02*
X41622Y111721D01*
X41377Y111620*
X41168Y111459*
X41007Y111249*
X40905Y111005*
X40871Y110743*
X40905Y110481*
X41007Y110237*
X41168Y110027*
X41377Y109866*
X41622Y109765*
X41884Y109730*
X42146Y109765*
X42390Y109866*
X42600Y110027*
X42761Y110237*
X42862Y110481*
X42896Y110743*
X42862Y111005*
X42761Y111249*
X42600Y111459*
X42390Y111620*
X42146Y111721*
X41884Y111756*
G37*
G36*
X44424D02*
X44161Y111721D01*
X43917Y111620*
X43708Y111459*
X43547Y111249*
X43445Y111005*
X43411Y110743*
X43445Y110481*
X43547Y110237*
X43708Y110027*
X43917Y109866*
X44161Y109765*
X44424Y109730*
X44686Y109765*
X44930Y109866*
X45140Y110027*
X45301Y110237*
X45402Y110481*
X45436Y110743*
X45402Y111005*
X45301Y111249*
X45140Y111459*
X44930Y111620*
X44686Y111721*
X44424Y111756*
G37*
G36*
X86969D02*
X86706Y111721D01*
X86462Y111620*
X86253Y111459*
X86092Y111249*
X85990Y111005*
X85956Y110743*
X85990Y110481*
X86092Y110237*
X86253Y110027*
X86462Y109866*
X86706Y109765*
X86969Y109730*
X87231Y109765*
X87475Y109866*
X87685Y110027*
X87846Y110237*
X87947Y110481*
X87981Y110743*
X87947Y111005*
X87846Y111249*
X87685Y111459*
X87475Y111620*
X87231Y111721*
X86969Y111756*
G37*
G36*
X89509D02*
X89246Y111721D01*
X89002Y111620*
X88793Y111459*
X88632Y111249*
X88530Y111005*
X88496Y110743*
X88530Y110481*
X88632Y110237*
X88793Y110027*
X89002Y109866*
X89246Y109765*
X89509Y109730*
X89771Y109765*
X90015Y109866*
X90225Y110027*
X90386Y110237*
X90487Y110481*
X90521Y110743*
X90487Y111005*
X90386Y111249*
X90225Y111459*
X90015Y111620*
X89771Y111721*
X89509Y111756*
G37*
G36*
X101574D02*
X101311Y111721D01*
X101067Y111620*
X100858Y111459*
X100697Y111249*
X100595Y111005*
X100561Y110743*
X100595Y110481*
X100697Y110237*
X100858Y110027*
X101067Y109866*
X101311Y109765*
X101574Y109730*
X101836Y109765*
X102080Y109866*
X102290Y110027*
X102451Y110237*
X102552Y110481*
X102586Y110743*
X102552Y111005*
X102451Y111249*
X102290Y111459*
X102080Y111620*
X101836Y111721*
X101574Y111756*
G37*
G36*
X81889D02*
X81627Y111721D01*
X81382Y111620*
X81173Y111459*
X81012Y111249*
X80910Y111005*
X80876Y110743*
X80910Y110481*
X81012Y110237*
X81173Y110027*
X81382Y109866*
X81627Y109765*
X81889Y109730*
X82151Y109765*
X82395Y109866*
X82605Y110027*
X82766Y110237*
X82867Y110481*
X82901Y110743*
X82867Y111005*
X82766Y111249*
X82605Y111459*
X82395Y111620*
X82151Y111721*
X81889Y111756*
G37*
G36*
X71729D02*
X71466Y111721D01*
X71222Y111620*
X71013Y111459*
X70852Y111249*
X70750Y111005*
X70716Y110743*
X70750Y110481*
X70852Y110237*
X71013Y110027*
X71222Y109866*
X71466Y109765*
X71729Y109730*
X71991Y109765*
X72235Y109866*
X72445Y110027*
X72606Y110237*
X72707Y110481*
X72741Y110743*
X72707Y111005*
X72606Y111249*
X72445Y111459*
X72235Y111620*
X71991Y111721*
X71729Y111756*
G37*
G36*
X74269D02*
X74006Y111721D01*
X73762Y111620*
X73553Y111459*
X73392Y111249*
X73290Y111005*
X73256Y110743*
X73290Y110481*
X73392Y110237*
X73553Y110027*
X73762Y109866*
X74006Y109765*
X74269Y109730*
X74531Y109765*
X74775Y109866*
X74985Y110027*
X75146Y110237*
X75247Y110481*
X75281Y110743*
X75247Y111005*
X75146Y111249*
X74985Y111459*
X74775Y111620*
X74531Y111721*
X74269Y111756*
G37*
G36*
X79349D02*
X79087Y111721D01*
X78842Y111620*
X78633Y111459*
X78472Y111249*
X78370Y111005*
X78336Y110743*
X78370Y110481*
X78472Y110237*
X78633Y110027*
X78842Y109866*
X79087Y109765*
X79349Y109730*
X79611Y109765*
X79855Y109866*
X80065Y110027*
X80226Y110237*
X80327Y110481*
X80361Y110743*
X80327Y111005*
X80226Y111249*
X80065Y111459*
X79855Y111620*
X79611Y111721*
X79349Y111756*
G37*
G36*
X134492Y46147D02*
X134217Y46111D01*
X133960Y46005*
X133740Y45836*
X133571Y45616*
X133465Y45359*
X133429Y45084*
X133465Y44809*
X133571Y44552*
X133740Y44332*
X133960Y44163*
X134217Y44057*
X134492Y44021*
X134767Y44057*
X135024Y44163*
X135244Y44332*
X135413Y44552*
X135519Y44809*
X135555Y45084*
X135519Y45359*
X135413Y45616*
X135244Y45836*
X135024Y46005*
X134767Y46111*
X134492Y46147*
G37*
G36*
X70230Y92955D02*
X70092Y92937D01*
X69845Y92834*
X69632Y92672*
X69470Y92459*
X69367Y92212*
X69349Y92074*
X70230*
Y92955*
G37*
G36*
X70484D02*
Y92074D01*
X71365*
X71347Y92212*
X71244Y92459*
X71082Y92672*
X70869Y92834*
X70622Y92937*
X70484Y92955*
G37*
G36*
X140207Y46147D02*
X139932Y46111D01*
X139675Y46005*
X139455Y45836*
X139286Y45616*
X139180Y45359*
X139144Y45084*
X139180Y44809*
X139286Y44552*
X139455Y44332*
X139675Y44163*
X139932Y44057*
X140207Y44021*
X140482Y44057*
X140739Y44163*
X140959Y44332*
X141128Y44552*
X141234Y44809*
X141270Y45084*
X141234Y45359*
X141128Y45616*
X140959Y45836*
X140739Y46005*
X140482Y46111*
X140207Y46147*
G37*
G36*
X133476Y91934D02*
Y91439D01*
X133971*
X133947Y91560*
X133807Y91770*
X133597Y91910*
X133476Y91934*
G37*
G36*
X141096D02*
X140975Y91910D01*
X140765Y91770*
X140625Y91560*
X140601Y91439*
X141096*
Y91934*
G37*
G36*
X141350D02*
Y91439D01*
X141845*
X141821Y91560*
X141681Y91770*
X141471Y91910*
X141350Y91934*
G37*
G36*
X129412Y46147D02*
X129137Y46111D01*
X128880Y46005*
X128660Y45836*
X128491Y45616*
X128385Y45359*
X128349Y45084*
X128385Y44809*
X128491Y44552*
X128660Y44332*
X128880Y44163*
X129137Y44057*
X129412Y44021*
X129687Y44057*
X129944Y44163*
X130164Y44332*
X130333Y44552*
X130439Y44809*
X130475Y45084*
X130439Y45359*
X130333Y45616*
X130164Y45836*
X129944Y46005*
X129687Y46111*
X129412Y46147*
G37*
G36*
X110362Y99186D02*
X109481D01*
X109499Y99048*
X109602Y98801*
X109764Y98588*
X109977Y98426*
X110224Y98323*
X110362Y98305*
Y99186*
G37*
G36*
X111497D02*
X110616D01*
Y98305*
X110754Y98323*
X111001Y98426*
X111214Y98588*
X111376Y98801*
X111479Y99048*
X111497Y99186*
G37*
G36*
X80517Y99821D02*
X79636D01*
X79654Y99683*
X79757Y99436*
X79919Y99223*
X80132Y99061*
X80379Y98958*
X80517Y98940*
Y99821*
G37*
G36*
X51807Y99186D02*
X50926D01*
Y98305*
X51064Y98323*
X51311Y98426*
X51524Y98588*
X51686Y98801*
X51789Y99048*
X51807Y99186*
G37*
G36*
X117093Y95002D02*
X116894Y94975D01*
X116709Y94899*
X116550Y94776*
X116427Y94617*
X116351Y94432*
X116324Y94233*
X116329Y94201*
X113679Y91551*
X113566Y91383*
X113527Y91185*
Y79429*
X113502Y79409*
X113379Y79250*
X113303Y79065*
X113276Y78866*
X113303Y78667*
X113379Y78482*
X113502Y78323*
X113520Y78308*
X113479Y78188*
X113341*
Y76880*
Y76788*
Y76522*
X111563*
X111198Y76887*
Y78083*
X111318*
Y80091*
X110302*
Y78083*
X110422*
Y76726*
X110451Y76577*
X110535Y76451*
X111127Y75859*
X111253Y75775*
X111402Y75746*
X113341*
Y75480*
Y75394*
Y74086*
Y73994*
Y73467*
X114749*
Y73994*
Y74086*
Y75394*
Y75480*
Y76788*
Y76880*
Y78188*
X114611*
X114570Y78308*
X114588Y78323*
X114711Y78482*
X114787Y78667*
X114814Y78866*
X114787Y79065*
X114711Y79250*
X114588Y79409*
X114563Y79429*
Y90970*
X117061Y93469*
X117093Y93464*
X117292Y93491*
X117477Y93567*
X117636Y93690*
X117759Y93849*
X117835Y94034*
X117862Y94233*
X117835Y94432*
X117759Y94617*
X117636Y94776*
X117477Y94899*
X117292Y94975*
X117093Y95002*
G37*
G36*
X54909Y97858D02*
X54838D01*
X54817*
X53509*
Y96450*
Y95053*
X53713*
Y94641*
X53558Y94522*
X53538Y94497*
X52069*
X51871Y94458*
X51803Y94413*
X51703Y94345*
X50647Y93289*
X50534Y93121*
X50495Y92923*
Y92626*
X49659*
Y90467*
X48352Y89160*
X44449*
X44300Y89131*
X44174Y89047*
X41932Y86805*
X41848Y86679*
X41829Y86584*
X41826Y86570*
X40443*
Y85262*
Y85170*
Y84643*
X41147*
Y84516*
X41274*
Y83862*
X41819*
Y80464*
X41803*
Y78756*
X42611*
Y79610*
X42803*
Y78756*
X43803*
X45819*
Y77391*
X45748Y77286*
X45709Y77088*
X45748Y76890*
X45861Y76722*
X46029Y76609*
X46227Y76570*
X46425Y76609*
X46593Y76722*
X46697Y76877*
X46819Y76840*
Y74174*
X45308*
X45295Y74301*
X45409Y74323*
X45577Y74436*
X45690Y74604*
X45729Y74802*
X45690Y75000*
X45577Y75168*
X45409Y75281*
X45250Y75312*
X43728Y76835*
X43602Y76919*
X43453Y76948*
X41511*
Y77156*
Y77172*
X43898*
X44033Y77081*
X44231Y77042*
X44429Y77081*
X44597Y77194*
X44710Y77362*
X44749Y77560*
X44710Y77758*
X44597Y77926*
X44429Y78039*
X44231Y78078*
X44033Y78039*
X43898Y77948*
X41511*
Y77964*
Y78464*
X39803*
Y77656*
Y77464*
Y77448*
X39214*
X39065Y77419*
X38939Y77335*
X38314Y76709*
X38155Y76678*
X37987Y76565*
X37874Y76397*
X37835Y76199*
X37874Y76001*
X37987Y75833*
X38155Y75720*
X38353Y75681*
X38551Y75720*
X38719Y75833*
X38832Y76001*
X38863Y76160*
X39375Y76672*
X39803*
Y76656*
Y76156*
Y75656*
Y75464*
Y75448*
X38865*
X38716Y75419*
X38590Y75335*
X37701Y74446*
X37617Y74320*
X37588Y74171*
Y71457*
X37268*
Y70149*
Y70057*
Y68749*
X38676*
Y69015*
X39736*
X39871Y68924*
X40030Y68893*
X41394Y67529*
Y65742*
X41078*
Y64434*
Y64342*
Y63034*
X41394*
Y62816*
X41303Y62681*
X41264Y62483*
X41303Y62285*
X41394Y62150*
Y60363*
X41334Y60339*
X41148Y60196*
X41005Y60010*
X40916Y59794*
X40885Y59562*
X40916Y59330*
X41005Y59114*
X41148Y58928*
X41334Y58785*
X41550Y58696*
X41669Y58680*
X41661Y58553*
X41655*
X41506Y58524*
X41380Y58440*
X40804Y57863*
X40744Y57888*
X40512Y57919*
X40280Y57888*
X40064Y57799*
X39878Y57656*
X39735Y57470*
X39646Y57254*
X39615Y57022*
X39646Y56790*
X39735Y56574*
X39878Y56388*
X40064Y56245*
X40280Y56156*
X40512Y56125*
X40744Y56156*
X40960Y56245*
X41146Y56388*
X41289Y56574*
X41378Y56790*
X41409Y57022*
X41378Y57254*
X41353Y57314*
X41816Y57777*
X42290*
X42400Y57798*
X42453Y57683*
X42418Y57656*
X42275Y57470*
X42186Y57254*
X42155Y57022*
X42186Y56790*
X42275Y56574*
X42418Y56388*
X42604Y56245*
X42820Y56156*
X43052Y56125*
X43284Y56156*
X43500Y56245*
X43686Y56388*
X43829Y56574*
X43918Y56790*
X43949Y57022*
X43918Y57254*
X43893Y57314*
X44483Y57904*
X44957*
X45106Y57933*
X45232Y58017*
X45867Y58652*
X45951Y58778*
X45980Y58927*
Y59053*
X46101Y59094*
X46228Y58928*
X46414Y58785*
X46599Y58709*
X46611Y58582*
X46587Y58567*
X45884Y57863*
X45824Y57888*
X45592Y57919*
X45360Y57888*
X45144Y57799*
X44958Y57656*
X44815Y57470*
X44726Y57254*
X44695Y57022*
X44726Y56790*
X44815Y56574*
X44958Y56388*
X45144Y56245*
X45360Y56156*
X45592Y56125*
X45824Y56156*
X46040Y56245*
X46226Y56388*
X46369Y56574*
X46458Y56790*
X46489Y57022*
X46458Y57254*
X46433Y57314*
X47023Y57904*
X47623*
X47625Y57896*
X47650Y57773*
X47498Y57656*
X47355Y57470*
X47266Y57254*
X47235Y57022*
X47266Y56790*
X47355Y56574*
X47498Y56388*
X47684Y56245*
X47900Y56156*
X48132Y56125*
X48358Y56155*
X49336Y55178*
X49483Y55079*
X49656Y55045*
X52766*
X52791Y54920*
X52572Y54829*
X52306Y54626*
X52103Y54360*
X51975Y54052*
X51931Y53720*
X51975Y53388*
X52103Y53080*
X52306Y52814*
X52572Y52611*
X52880Y52483*
X53212Y52439*
X53544Y52483*
X53852Y52611*
X54118Y52814*
X54321Y53080*
X54449Y53388*
X54493Y53720*
X54449Y54052*
X54321Y54360*
X54118Y54626*
X53852Y54829*
X53633Y54920*
X53658Y55045*
X56250*
Y47126*
X54609*
X54411Y47087*
X54243Y46974*
X52870Y45602*
X52249*
X52216Y45683*
X52203Y45722*
X52413Y45883*
X52575Y46096*
X52678Y46343*
X52713Y46608*
X52678Y46873*
X52575Y47120*
X52413Y47333*
X52200Y47495*
X51953Y47598*
X51688Y47633*
X51423Y47598*
X51176Y47495*
X50963Y47333*
X50801Y47120*
X50698Y46873*
X50663Y46608*
X50698Y46343*
X50801Y46096*
X50963Y45883*
X51173Y45722*
X51160Y45683*
X51126Y45602*
X49666*
Y45725*
X49873Y45883*
X50035Y46096*
X50138Y46343*
X50173Y46608*
X50138Y46873*
X50035Y47120*
X49873Y47333*
X49660Y47495*
X49413Y47598*
X49148Y47633*
X48883Y47598*
X48636Y47495*
X48423Y47333*
X48261Y47120*
X48158Y46873*
X48123Y46608*
X48158Y46343*
X48261Y46096*
X48423Y45883*
X48630Y45725*
Y45602*
X41327*
X41294Y45683*
X41281Y45722*
X41491Y45883*
X41653Y46096*
X41756Y46343*
X41791Y46608*
X41756Y46873*
X41653Y47120*
X41491Y47333*
X41278Y47495*
X41031Y47598*
X40766Y47633*
X40501Y47598*
X40254Y47495*
X40041Y47333*
X39879Y47120*
X39776Y46873*
X39741Y46608*
X39776Y46343*
X39879Y46096*
X40041Y45883*
X40251Y45722*
X40238Y45683*
X40205Y45602*
X39965*
X39217Y46350*
X39251Y46608*
X39216Y46873*
X39113Y47120*
X38951Y47333*
X38738Y47495*
X38491Y47598*
X38226Y47633*
X37961Y47598*
X37714Y47495*
X37501Y47333*
X37339Y47120*
X37236Y46873*
X37201Y46608*
X37236Y46343*
X37339Y46096*
X37501Y45883*
X37714Y45721*
X37961Y45618*
X38226Y45583*
X38484Y45617*
X39384Y44718*
X39552Y44605*
X39750Y44566*
X53085*
X53283Y44605*
X53451Y44718*
X54824Y46090*
X55134*
X55175Y45970*
X55000Y45836*
X54831Y45616*
X54725Y45359*
X54689Y45084*
X54725Y44809*
X54831Y44552*
X55000Y44332*
X55220Y44163*
X55477Y44057*
X55752Y44021*
X56027Y44057*
X56284Y44163*
X56504Y44332*
X56673Y44552*
X56779Y44809*
X56815Y45084*
X56779Y45359*
X56673Y45616*
X56504Y45836*
X56329Y45970*
X56370Y46090*
X57674*
X57715Y45970*
X57540Y45836*
X57371Y45616*
X57265Y45359*
X57229Y45084*
X57265Y44809*
X57371Y44552*
X57540Y44332*
X57760Y44163*
X58017Y44057*
X58292Y44021*
X58567Y44057*
X58824Y44163*
X59044Y44332*
X59213Y44552*
X59319Y44809*
X59355Y45084*
X59319Y45359*
X59213Y45616*
X59044Y45836*
X58869Y45970*
X58910Y46090*
X75454*
X75495Y45970*
X75320Y45836*
X75151Y45616*
X75045Y45359*
X75009Y45084*
X75045Y44809*
X75151Y44552*
X75320Y44332*
X75540Y44163*
X75797Y44057*
X76072Y44021*
X76347Y44057*
X76604Y44163*
X76824Y44332*
X76993Y44552*
X77099Y44809*
X77135Y45084*
X77099Y45359*
X76993Y45616*
X76824Y45836*
X76649Y45970*
X76690Y46090*
X77994*
X78035Y45970*
X77860Y45836*
X77691Y45616*
X77585Y45359*
X77549Y45084*
X77585Y44809*
X77691Y44552*
X77860Y44332*
X78080Y44163*
X78337Y44057*
X78612Y44021*
X78887Y44057*
X79144Y44163*
X79364Y44332*
X79533Y44552*
X79639Y44809*
X79675Y45084*
X79639Y45359*
X79533Y45616*
X79364Y45836*
X79189Y45970*
X79230Y46090*
X80534*
X80575Y45970*
X80400Y45836*
X80231Y45616*
X80125Y45359*
X80089Y45084*
X80125Y44809*
X80231Y44552*
X80400Y44332*
X80620Y44163*
X80877Y44057*
X81152Y44021*
X81427Y44057*
X81684Y44163*
X81904Y44332*
X82073Y44552*
X82179Y44809*
X82215Y45084*
X82179Y45359*
X82073Y45616*
X81904Y45836*
X81729Y45970*
X81770Y46090*
X83074*
X83115Y45970*
X82940Y45836*
X82771Y45616*
X82665Y45359*
X82629Y45084*
X82665Y44809*
X82771Y44552*
X82940Y44332*
X83160Y44163*
X83417Y44057*
X83692Y44021*
X83967Y44057*
X84224Y44163*
X84444Y44332*
X84613Y44552*
X84719Y44809*
X84755Y45084*
X84719Y45359*
X84613Y45616*
X84444Y45836*
X84224Y46005*
X84145Y46037*
Y46372*
X84171Y46410*
X84210Y46608*
Y47790*
X89495Y53075*
X102494*
X102652Y52868*
X102794Y52759*
Y48132*
X102839Y47909*
X102965Y47720*
X105759Y44926*
X105948Y44800*
X106171Y44755*
X126237*
X126460Y44800*
X126649Y44926*
X128002Y46279*
X131499*
Y46037*
X131420Y46005*
X131200Y45836*
X131031Y45616*
X130925Y45359*
X130889Y45084*
X130925Y44809*
X131031Y44552*
X131200Y44332*
X131420Y44163*
X131677Y44057*
X131952Y44021*
X132227Y44057*
X132484Y44163*
X132704Y44332*
X132873Y44552*
X132979Y44809*
X133015Y45084*
X132979Y45359*
X132873Y45616*
X132704Y45836*
X132484Y46005*
X132405Y46037*
Y46279*
X136579*
Y46037*
X136500Y46005*
X136280Y45836*
X136111Y45616*
X136005Y45359*
X135969Y45084*
X136005Y44809*
X136111Y44552*
X136280Y44332*
X136500Y44163*
X136757Y44057*
X137032Y44021*
X137307Y44057*
X137564Y44163*
X137784Y44332*
X137953Y44552*
X138059Y44809*
X138095Y45084*
X138059Y45359*
X137953Y45616*
X137784Y45836*
X137564Y46005*
X137485Y46037*
Y46279*
X140728*
X141712Y45295*
X141684Y45084*
X141720Y44809*
X141826Y44552*
X141995Y44332*
X142215Y44163*
X142472Y44057*
X142747Y44021*
X143022Y44057*
X143279Y44163*
X143499Y44332*
X143668Y44552*
X143774Y44809*
X143810Y45084*
X143774Y45359*
X143668Y45616*
X143499Y45836*
X143279Y46005*
X143022Y46111*
X142747Y46147*
X142536Y46119*
X141381Y47274*
X141192Y47400*
X140969Y47445*
X127761*
X127538Y47400*
X127349Y47274*
X125996Y45921*
X106412*
X103960Y48373*
Y52759*
X104102Y52868*
X104264Y53081*
X104367Y53328*
X104402Y53593*
X104367Y53858*
X104264Y54105*
X104102Y54318*
X103895Y54476*
Y64079*
X103920Y64099*
X103942Y64127*
X104705*
Y63926*
Y63834*
Y62526*
X105021*
Y62313*
X104705*
Y61005*
Y60913*
Y59605*
X106113*
Y59871*
X108234*
X108450Y59655*
Y59512*
X108439Y59504*
X108316Y59321*
X108273Y59105*
Y57505*
X108316Y57289*
X108439Y57106*
X108622Y56983*
X108838Y56940*
X109054Y56983*
X109237Y57106*
X109360Y57289*
X109403Y57505*
Y59105*
X109360Y59321*
X109237Y59504*
X109226Y59512*
Y59816*
X109197Y59965*
X109113Y60091*
X108670Y60534*
X108544Y60618*
X108395Y60647*
X106113*
Y60913*
Y61005*
Y62313*
X105797*
Y62526*
X106113*
Y62727*
X107003*
Y62305*
X107046Y62089*
X107169Y61906*
X107352Y61783*
X107568Y61740*
X107784Y61783*
X107967Y61906*
X108090Y62089*
X108133Y62305*
Y63905*
X108090Y64121*
X107967Y64304*
X107784Y64427*
X107568Y64470*
X107352Y64427*
X107169Y64304*
X107046Y64121*
X107003Y63905*
Y63633*
X106113*
Y63834*
Y63926*
Y64643*
X109215Y67745*
X118353*
X118375Y67692*
X118536Y67482*
X118746Y67321*
X118990Y67220*
X119252Y67185*
X119514Y67220*
X119758Y67321*
X119968Y67482*
X120129Y67692*
X120230Y67936*
X120265Y68198*
X120230Y68460*
X120129Y68704*
X119968Y68914*
X119758Y69075*
X119514Y69176*
X119252Y69211*
X118990Y69176*
X118746Y69075*
X118536Y68914*
X118375Y68704*
X118353Y68651*
X109027*
X108854Y68617*
X108707Y68518*
X105422Y65234*
X104705*
Y65033*
X104037*
X103920Y65185*
X103830Y65255*
Y65574*
X104081*
Y66882*
Y66974*
Y68282*
X103288*
X102502Y69068*
X102376Y69152*
X102227Y69182*
X98833*
X98754Y69278*
X98723Y69436*
X98661Y69528*
X98723Y69620*
X98754Y69778*
X98723Y69936*
X98661Y70028*
X98723Y70120*
X98754Y70278*
X98751Y70291*
X98832Y70390*
X105624*
X105643Y70293*
X105783Y70083*
X105993Y69943*
X106241Y69894*
X106489Y69943*
X106699Y70083*
X106839Y70293*
X106874Y70470*
X106996Y70507*
X107420Y70082*
X107546Y69998*
X107695Y69969*
X110489*
X110638Y69998*
X110764Y70082*
X111135Y70453*
X111219Y70579*
X111248Y70728*
Y70733*
X111368*
Y72741*
X110352*
Y70769*
X110328Y70745*
X110068*
Y72741*
X109948*
Y72937*
X109919Y73086*
X109835Y73212*
X109512Y73534*
X109561Y73652*
X110836*
X111680Y72808*
X111652Y72741*
Y70733*
X112668*
Y72741*
X112548*
Y72877*
X112519Y73026*
X112435Y73152*
X111272Y74315*
X111146Y74399*
X110997Y74428*
X107243*
X107183Y74540*
X107277Y74681*
X107326Y74929*
X107310Y75011*
X108535Y76235*
X108619Y76361*
X108648Y76510*
Y78083*
X108768*
Y80091*
X107752*
Y78083*
X107872*
Y76671*
X106761Y75560*
X106679Y75576*
X106431Y75527*
X106221Y75387*
X106081Y75177*
X106032Y74929*
X106081Y74681*
X106175Y74540*
X106115Y74428*
X105790*
X105641Y74399*
X105515Y74315*
X104867Y73666*
X98832*
X98751Y73765*
X98754Y73778*
X98723Y73936*
X98661Y74028*
X98723Y74120*
X98754Y74278*
X98723Y74436*
X98661Y74528*
X98723Y74620*
X98754Y74778*
X98723Y74936*
X98661Y75028*
X98723Y75120*
X98754Y75278*
X98723Y75436*
X98661Y75528*
X98723Y75620*
X98754Y75778*
X98723Y75936*
X98661Y76028*
X98723Y76120*
X98754Y76278*
X98723Y76436*
X98661Y76528*
X98723Y76620*
X98754Y76778*
X98723Y76936*
X98661Y77028*
X98723Y77120*
X98754Y77278*
X98723Y77436*
X98661Y77528*
X98723Y77620*
X98729Y77651*
X98511*
X98500Y77659*
X98342Y77690*
X97592*
Y77866*
X98342*
X98500Y77897*
X98511Y77905*
X98729*
X98723Y77936*
X98661Y78028*
X98723Y78120*
X98754Y78278*
X98723Y78436*
X98661Y78528*
X98723Y78620*
X98754Y78778*
X98745Y78822*
X98826Y78921*
X99502*
X99651Y78950*
X99777Y79034*
X102776Y82034*
X104695*
X104830Y81943*
X105028Y81904*
X105226Y81943*
X105394Y82056*
X105507Y82224*
X105546Y82422*
X105507Y82620*
X105416Y82755*
Y87799*
X105732*
Y89107*
Y89199*
Y89726*
X105028*
Y89853*
X104901*
Y90507*
X103885*
Y89853*
X103631*
Y90507*
X102615*
Y89853*
X102361*
Y90507*
X101345*
Y89853*
X101091*
Y90507*
X100075*
Y89853*
X99821*
Y90507*
X98805*
Y89853*
X98551*
Y90507*
X97535*
Y89853*
X97281*
Y90507*
X96265*
Y89853*
X96138*
Y89726*
X95434*
Y89199*
Y89107*
Y87799*
X95750*
Y87200*
X95659Y87065*
X95628Y86906*
X92767Y84046*
X92683Y83920*
X92654Y83771*
Y82068*
X92555Y81987*
X92542Y81990*
X92529Y81987*
X92430Y82068*
Y84105*
X92401Y84254*
X92317Y84380*
X90303Y86393*
Y87037*
X90619*
X90735*
X92143*
Y88345*
Y88437*
Y88964*
X91439*
Y89091*
X91312*
Y89745*
X90735*
X90619*
X89211*
Y89541*
X87700*
X87675Y89601*
X87533Y89787*
X87347Y89930*
X87131Y90019*
X86899Y90050*
X86667Y90019*
X86450Y89930*
X86265Y89787*
X86122Y89601*
X86097Y89541*
X84835*
X84711Y89517*
X84686Y89512*
X84560Y89428*
X83798Y88666*
X83714Y88540*
X83685Y88391*
Y87967*
X83369*
Y86659*
Y86567*
Y85259*
X83654*
Y81696*
X83630Y81578*
Y80078*
X83661Y79920*
X83751Y79787*
X83884Y79697*
X84042Y79666*
X84055Y79669*
X84154Y79588*
Y77000*
X84183Y76851*
X84267Y76725*
X86465Y74527*
X86591Y74443*
X86740Y74414*
X89665*
X89711Y74344*
X89795Y74288*
X89758Y74166*
X84842*
Y74778*
X84813Y74927*
X84729Y75053*
X84603Y75137*
X84454Y75166*
X83732*
X83651Y75265*
X83654Y75278*
X83623Y75436*
X83561Y75528*
X83623Y75620*
X83654Y75778*
X83623Y75936*
X83561Y76028*
X83623Y76120*
X83654Y76278*
X83623Y76436*
X83561Y76528*
X83623Y76620*
X83654Y76778*
X83623Y76936*
X83561Y77028*
X83623Y77120*
X83654Y77278*
X83623Y77436*
X83561Y77528*
X83623Y77620*
X83654Y77778*
X83623Y77936*
X83561Y78028*
X83623Y78120*
X83654Y78278*
X83623Y78436*
X83561Y78528*
X83623Y78620*
X83654Y78778*
X83623Y78936*
X83561Y79028*
X83623Y79120*
X83654Y79278*
X83623Y79436*
X83533Y79569*
X83400Y79659*
X83242Y79690*
X81742*
X81624Y79666*
X80647*
X79858Y80455*
Y85755*
X79829Y85904*
X79745Y86030*
X77998Y87777*
X77872Y87861*
X77723Y87890*
X76791*
Y88892*
X76934*
X77053Y88737*
X77212Y88614*
X77397Y88538*
X77596Y88511*
X77795Y88538*
X77980Y88614*
X78139Y88737*
X78262Y88896*
X78338Y89081*
X78365Y89280*
X78338Y89479*
X78262Y89664*
X78139Y89823*
X77980Y89946*
X77795Y90022*
X77596Y90049*
X77397Y90022*
X77212Y89946*
X77053Y89823*
X76934Y89668*
X76791*
Y90746*
X75483*
X75391*
X74083*
Y90430*
X72135*
Y90614*
X69595*
Y90430*
X69446Y90401*
X69320Y90317*
X68704Y89700*
X68586Y89749*
Y95623*
X86661*
X86796Y95532*
X86994Y95493*
X87192Y95532*
X87327Y95623*
X116506*
X116641Y95532*
X116839Y95493*
X117037Y95532*
X117172Y95623*
X146351*
X146486Y95532*
X146684Y95493*
X146882Y95532*
X147050Y95645*
X147163Y95813*
X147202Y96011*
X147163Y96209*
X147050Y96377*
X147028Y96392*
Y96519*
X147050Y96534*
X147163Y96702*
X147202Y96900*
X147163Y97098*
X147050Y97266*
X146882Y97379*
X146684Y97418*
X146486Y97379*
X146351Y97288*
X117172*
X117037Y97379*
X116839Y97418*
X116641Y97379*
X116506Y97288*
X87327*
X87192Y97379*
X86994Y97418*
X86796Y97379*
X86661Y97288*
X67642*
X67507Y97379*
X67309Y97418*
X67111Y97379*
X66976Y97288*
X57482*
X57347Y97379*
X57188Y97410*
X57170Y97429*
X57044Y97513*
X56895Y97542*
X56217*
Y97858*
X54909*
G37*
G36*
X50672Y99186D02*
X49791D01*
X49809Y99048*
X49912Y98801*
X50074Y98588*
X50287Y98426*
X50534Y98323*
X50672Y98305*
Y99186*
G37*
G36*
X133222Y91934D02*
X133101Y91910D01*
X132891Y91770*
X132751Y91560*
X132727Y91439*
X133222*
Y91934*
G37*
G36*
X126097Y91185D02*
X125602D01*
Y90690*
X125723Y90714*
X125933Y90854*
X126073Y91064*
X126097Y91185*
G37*
G36*
X133222D02*
X132727D01*
X132751Y91064*
X132891Y90854*
X133101Y90714*
X133222Y90690*
Y91185*
G37*
G36*
X133971D02*
X133476D01*
Y90690*
X133597Y90714*
X133807Y90854*
X133947Y91064*
X133971Y91185*
G37*
G36*
X125348D02*
X124853D01*
X124877Y91064*
X125017Y90854*
X125227Y90714*
X125348Y90690*
Y91185*
G37*
G36*
X47367Y92626D02*
X44659D01*
Y89918*
X47367*
Y92626*
G37*
G36*
X96011Y90507D02*
X95434D01*
Y89980*
X96011*
Y90507*
G37*
G36*
X105732D02*
X105155D01*
Y89980*
X105732*
Y90507*
G37*
G36*
X141096Y91185D02*
X140601D01*
X140625Y91064*
X140765Y90854*
X140975Y90714*
X141096Y90690*
Y91185*
G37*
G36*
X71365Y91820D02*
X70484D01*
Y90939*
X70622Y90957*
X70869Y91060*
X71082Y91222*
X71244Y91435*
X71347Y91682*
X71365Y91820*
G37*
G36*
X125348Y91934D02*
X125227Y91910D01*
X125017Y91770*
X124877Y91560*
X124853Y91439*
X125348*
Y91934*
G37*
G36*
X125602D02*
Y91439D01*
X126097*
X126073Y91560*
X125933Y91770*
X125723Y91910*
X125602Y91934*
G37*
G36*
X70230Y91820D02*
X69349D01*
X69367Y91682*
X69470Y91435*
X69632Y91222*
X69845Y91060*
X70092Y90957*
X70230Y90939*
Y91820*
G37*
G36*
X141845Y91185D02*
X141350D01*
Y90690*
X141471Y90714*
X141681Y90854*
X141821Y91064*
X141845Y91185*
G37*
G36*
X156717Y92731D02*
X156455Y92697D01*
X156211Y92595*
X156001Y92434*
X155840Y92225*
X155739Y91980*
X155704Y91718*
X155739Y91456*
X155840Y91212*
X156001Y91002*
X156211Y90841*
X156455Y90740*
X156717Y90706*
X156979Y90740*
X157223Y90841*
X157433Y91002*
X157594Y91212*
X157695Y91456*
X157730Y91718*
X157695Y91980*
X157594Y92225*
X157433Y92434*
X157223Y92595*
X156979Y92697*
X156717Y92731*
G37*
G36*
X155181Y92722D02*
X153173D01*
Y90714*
X155181*
Y92722*
G37*
G36*
X95876Y100583D02*
X94995D01*
Y99702*
X95133Y99720*
X95380Y99823*
X95593Y99985*
X95755Y100198*
X95858Y100445*
X95876Y100583*
G37*
G36*
X126999Y100837D02*
X126118D01*
X126136Y100699*
X126239Y100452*
X126401Y100239*
X126614Y100077*
X126861Y99974*
X126999Y99956*
Y100837*
G37*
G36*
X66412Y101345D02*
X65531D01*
Y100464*
X65669Y100482*
X65916Y100585*
X66129Y100747*
X66291Y100960*
X66394Y101207*
X66412Y101345*
G37*
G36*
X110616Y100321D02*
Y99440D01*
X111497*
X111479Y99578*
X111376Y99825*
X111214Y100038*
X111001Y100200*
X110754Y100303*
X110616Y100321*
G37*
G36*
X94741Y100583D02*
X93860D01*
X93878Y100445*
X93981Y100198*
X94143Y99985*
X94356Y99823*
X94603Y99720*
X94741Y99702*
Y100583*
G37*
G36*
X128134Y100837D02*
X127253D01*
Y99956*
X127391Y99974*
X127638Y100077*
X127851Y100239*
X128013Y100452*
X128116Y100699*
X128134Y100837*
G37*
G36*
X80771Y100956D02*
Y100075D01*
X81652*
X81634Y100213*
X81531Y100460*
X81369Y100673*
X81156Y100835*
X80909Y100938*
X80771Y100956*
G37*
G36*
X140207D02*
X140069Y100938D01*
X139822Y100835*
X139609Y100673*
X139447Y100460*
X139344Y100213*
X139326Y100075*
X140207*
Y100956*
G37*
G36*
X80517D02*
X80379Y100938D01*
X80132Y100835*
X79919Y100673*
X79757Y100460*
X79654Y100213*
X79636Y100075*
X80517*
Y100956*
G37*
G36*
X65277Y101345D02*
X64396D01*
X64414Y101207*
X64517Y100960*
X64679Y100747*
X64892Y100585*
X65139Y100482*
X65277Y100464*
Y101345*
G37*
G36*
X140461Y100956D02*
Y100075D01*
X141342*
X141324Y100213*
X141221Y100460*
X141059Y100673*
X140846Y100835*
X140599Y100938*
X140461Y100956*
G37*
G36*
X50672Y100321D02*
X50534Y100303D01*
X50287Y100200*
X50074Y100038*
X49912Y99825*
X49809Y99578*
X49791Y99440*
X50672*
Y100321*
G37*
G36*
X50926D02*
Y99440D01*
X51807*
X51789Y99578*
X51686Y99825*
X51524Y100038*
X51311Y100200*
X51064Y100303*
X50926Y100321*
G37*
G36*
X140207Y99821D02*
X139326D01*
X139344Y99683*
X139447Y99436*
X139609Y99223*
X139822Y99061*
X140069Y98958*
X140207Y98940*
Y99821*
G37*
G36*
X141342D02*
X140461D01*
Y98940*
X140599Y98958*
X140846Y99061*
X141059Y99223*
X141221Y99436*
X141324Y99683*
X141342Y99821*
G37*
G36*
X110362Y100321D02*
X110224Y100303D01*
X109977Y100200*
X109764Y100038*
X109602Y99825*
X109499Y99578*
X109481Y99440*
X110362*
Y100321*
G37*
G36*
X81652Y99821D02*
X80771D01*
Y98940*
X80909Y98958*
X81156Y99061*
X81369Y99223*
X81531Y99436*
X81634Y99683*
X81652Y99821*
G37*
%LNlp_led_cube_8x8x8-3*%
%LPD*%
G36*
X149473Y76204D02*
X148404D01*
Y76642*
X147700*
Y76896*
X148404*
Y77423*
Y77515*
Y78782*
Y79309*
X147700*
Y79563*
X148404*
Y80090*
Y80182*
Y81490*
X146996*
Y81224*
X145800*
Y82168*
X145780Y82267*
X145724Y82351*
X145640Y82407*
X145541Y82427*
X142366*
X142267Y82407*
X142183Y82351*
X142127Y82267*
X142107Y82168*
Y81630*
X142102Y81629*
Y81437*
X142107Y81436*
Y80390*
X142127Y80291*
X142170Y80226*
Y80182*
Y80090*
Y78782*
Y77515*
Y77423*
Y76204*
X140530*
Y76642*
X139826*
Y76896*
X140530*
Y77423*
Y77515*
Y78782*
Y79309*
X139826*
Y79563*
X140530*
Y80090*
Y80182*
Y81490*
X139122*
Y81224*
X137926*
Y82168*
X137906Y82267*
X137850Y82351*
X137766Y82407*
X137667Y82427*
X134492*
X134393Y82407*
X134309Y82351*
X134253Y82267*
X134233Y82168*
Y81630*
X134228Y81629*
Y81437*
X134233Y81436*
Y80390*
X134253Y80291*
X134296Y80226*
Y80182*
Y80090*
Y78782*
Y77515*
Y77423*
Y76204*
X132656*
Y76642*
X131952*
Y76896*
X132656*
Y77423*
Y77515*
Y78782*
Y79309*
X131952*
Y79563*
X132656*
Y80090*
Y80182*
Y81490*
X131248*
Y81224*
X129925*
Y82168*
X129905Y82267*
X129849Y82351*
X129765Y82407*
X129666Y82427*
X126491*
X126392Y82407*
X126308Y82351*
X126252Y82267*
X126232Y82168*
Y80390*
X126252Y80291*
X126295Y80226*
Y80182*
Y80090*
Y78782*
Y77515*
Y77423*
Y76204*
X124655*
Y76642*
X123951*
Y76896*
X124655*
Y77423*
Y77515*
Y78782*
Y79309*
X123951*
Y79563*
X124655*
Y80090*
Y80182*
Y81490*
X123247*
Y81224*
X122051*
Y82168*
X122031Y82267*
X121975Y82351*
X121891Y82407*
X121792Y82427*
X118617*
X118593Y82422*
X118495Y82503*
Y83179*
X125124*
X125125Y83174*
X125317*
X125318Y83179*
X149473*
Y76204*
G37*
G36*
X44701Y74763D02*
X44732Y74604D01*
X44845Y74436*
X45013Y74323*
X45127Y74301*
X45114Y74174*
X44864*
X44197Y74841*
X44166Y75000*
X44053Y75168*
X43885Y75281*
X43687Y75320*
X43489Y75281*
X43321Y75168*
X43208Y75000*
X43169Y74802*
X43208Y74604*
X43321Y74436*
X43489Y74323*
X43648Y74292*
X44319Y73621*
Y71864*
X43303*
Y71010*
X43111*
Y71864*
X41803*
Y70156*
X41819*
Y69800*
X41743Y69724*
X41584Y69693*
X41416Y69580*
X41303Y69412*
X41264Y69214*
X41303Y69016*
X41416Y68848*
X41584Y68735*
X41782Y68696*
X41980Y68735*
X42148Y68848*
X42197Y68921*
X42243Y68907*
X42286Y68787*
X42194Y68650*
X42155Y68452*
X42194Y68254*
X42306Y68086*
X42474Y67973*
X42673Y67934*
X42868Y67973*
X42893Y67925*
X42839Y67810*
X42727Y67788*
X42559Y67675*
X42446Y67507*
X42407Y67309*
X42446Y67111*
X42559Y66943*
X42727Y66830*
X42925Y66791*
X43123Y66830*
X43291Y66943*
X43404Y67111*
X43435Y67270*
X43573Y67407*
X43685Y67347*
X43677Y67309*
X43716Y67111*
X43829Y66943*
X43997Y66830*
X44195Y66791*
X44393Y66830*
X44561Y66943*
X44674Y67111*
X44713Y67309*
X44674Y67507*
X44595Y67624*
Y70156*
X45319*
Y68845*
X45348Y68696*
X45432Y68570*
X46333Y67669*
X46459Y67585*
X46484Y67580*
X46608Y67556*
X50384*
X50887Y67053*
X50838Y66935*
X48592*
X48457Y67026*
X48259Y67065*
X48061Y67026*
X47926Y66935*
X47370*
X47221Y66906*
X47095Y66822*
X46587Y66314*
X46503Y66188*
X46474Y66039*
Y65742*
X44888*
Y65476*
X43756*
Y65742*
X42170*
Y67690*
X42141Y67839*
X42057Y67965*
X40579Y69442*
X40548Y69601*
X40435Y69769*
X40267Y69882*
X40069Y69921*
X39871Y69882*
X39736Y69791*
X38676*
Y70057*
Y70149*
Y71457*
X38364*
Y74010*
X39026Y74672*
X39803*
Y74656*
Y74156*
Y73656*
Y73156*
Y72656*
Y72156*
X41511*
Y72656*
Y73156*
Y73656*
Y74156*
Y74656*
Y75156*
Y75656*
Y76156*
Y76172*
X43292*
X44701Y74763*
G37*
G36*
X86654Y64488D02*
Y52659D01*
X81880Y47885*
X74081*
X74063Y48011*
X74313Y48087*
X74666Y48276*
X74976Y48530*
X75230Y48839*
X75418Y49192*
X75535Y49575*
X75561Y49846*
X71503*
X71529Y49575*
X71646Y49192*
X71834Y48839*
X72088Y48530*
X72398Y48276*
X72751Y48087*
X73001Y48011*
X72983Y47885*
X61381*
X61363Y48011*
X61613Y48087*
X61966Y48276*
X62276Y48530*
X62530Y48839*
X62718Y49192*
X62835Y49575*
X62861Y49846*
X58803*
X58829Y49575*
X58946Y49192*
X59134Y48839*
X59388Y48530*
X59698Y48276*
X60051Y48087*
X60301Y48011*
X60283Y47885*
X59215*
X58669Y48431*
X58685Y48513*
X58636Y48761*
X58496Y48971*
X58286Y49111*
X58038Y49160*
X57790Y49111*
X57580Y48971*
X57440Y48761*
X57412Y48623*
X57286Y48635*
Y55498*
Y58093*
X65955*
Y57842*
X67263*
X67355*
X68663*
Y58158*
X69595*
X69718Y58182*
X69789Y58076*
X69759Y58032*
X69710Y57784*
X69759Y57536*
X69899Y57326*
X70109Y57186*
X70357Y57137*
X70605Y57186*
X70815Y57326*
X70861Y57396*
X82549*
X82698Y57425*
X82824Y57509*
X86317Y61002*
X86401Y61128*
X86430Y61277*
Y64488*
X86529Y64569*
X86542Y64566*
X86555Y64569*
X86654Y64488*
G37*
G36*
X102195Y82551D02*
X99341Y79697D01*
X97592*
X97554Y79690*
X96842*
X96684Y79659*
X96551Y79569*
X96461Y79436*
X96430Y79278*
X96461Y79120*
X96523Y79028*
X96461Y78936*
X96430Y78778*
X96461Y78620*
X96523Y78528*
X96461Y78436*
X96430Y78278*
X96461Y78120*
X96523Y78028*
X96461Y77936*
X96430Y77778*
X96433Y77765*
X96352Y77666*
X92430*
Y79588*
X92529Y79669*
X92542Y79666*
X92700Y79697*
X92792Y79759*
X92884Y79697*
X93042Y79666*
X93200Y79697*
X93292Y79759*
X93384Y79697*
X93542Y79666*
X93700Y79697*
X93792Y79759*
X93884Y79697*
X94042Y79666*
X94200Y79697*
X94292Y79759*
X94384Y79697*
X94542Y79666*
X94700Y79697*
X94792Y79759*
X94884Y79697*
X95042Y79666*
X95200Y79697*
X95292Y79759*
X95384Y79697*
X95542Y79666*
X95700Y79697*
X95792Y79759*
X95884Y79697*
X96042Y79666*
X96200Y79697*
X96333Y79787*
X96423Y79920*
X96454Y80078*
Y81578*
X96430Y81696*
Y82038*
X97061Y82669*
X102146*
X102195Y82551*
G37*
G36*
X64769Y89470D02*
X67302D01*
Y89343*
X66166*
Y88772*
Y88200*
X67302*
Y88074*
X66166*
Y87502*
Y86931*
X67302*
Y86803*
X64769*
Y85660*
X67302*
Y85534*
X66166*
Y84962*
Y84391*
X67302*
Y81533*
X67331Y81384*
X67415Y81258*
X73398Y75276*
Y74544*
X73328Y74498*
X73188Y74288*
X73139Y74040*
X73188Y73792*
X73328Y73582*
X73538Y73442*
X73786Y73393*
X74034Y73442*
X74244Y73582*
X74294Y73657*
X74421*
X74471Y73582*
X74681Y73442*
X74929Y73393*
X75177Y73442*
X75387Y73582*
X75527Y73792*
X75576Y74040*
X75527Y74288*
X75387Y74498*
X75317Y74544*
Y75056*
X75288Y75205*
X75204Y75331*
X68586Y81948*
Y83521*
X68704Y83569*
X69110Y83163*
X69236Y83079*
X69261Y83074*
X69325Y83061*
X69350Y82937*
X69264Y82880*
X69124Y82670*
X69075Y82422*
X69124Y82174*
X69264Y81964*
X69474Y81824*
X69722Y81775*
X69970Y81824*
X70180Y81964*
X70320Y82174*
X70369Y82422*
X70320Y82670*
X70180Y82880*
X70108Y82928*
X70145Y83050*
X71974*
X72520Y82504*
X72504Y82422*
X72553Y82174*
X72693Y81964*
X72903Y81824*
X73151Y81775*
X73399Y81824*
X73609Y81964*
X73749Y82174*
X73784Y82351*
X73906Y82388*
X74559Y81734*
X74511Y81617*
X73209*
Y80309*
Y80217*
Y79690*
X73913*
Y79563*
X74040*
Y78909*
X74578*
X74617*
X74668Y78858*
Y78739*
X74697Y78590*
X74781Y78464*
X76242Y77003*
X76368Y76919*
X76393Y76914*
X76517Y76890*
X81252*
X81333Y76791*
X81330Y76778*
X81361Y76620*
X81423Y76528*
X81361Y76436*
X81330Y76278*
X81361Y76120*
X81423Y76028*
X81361Y75936*
X81330Y75778*
X81361Y75620*
X81423Y75528*
X81361Y75436*
X81330Y75278*
X81361Y75120*
X81423Y75028*
X81361Y74936*
X81330Y74778*
X81361Y74620*
X81423Y74528*
X81361Y74436*
X81355Y74405*
X81573*
X81584Y74397*
X81742Y74366*
X82492*
Y74190*
X81742*
X81584Y74159*
X81573Y74151*
X81355*
X81361Y74120*
X81423Y74028*
X81361Y73936*
X81330Y73778*
X81361Y73620*
X81423Y73528*
X81361Y73436*
X81330Y73278*
X81361Y73120*
X81423Y73028*
X81361Y72936*
X81330Y72778*
X81361Y72620*
X81423Y72528*
X81361Y72436*
X81330Y72278*
X81333Y72265*
X81252Y72166*
X77479*
X77236Y72410*
X77110Y72494*
X76961Y72523*
X74802*
X74653Y72494*
X74527Y72410*
X73765Y71648*
X73681Y71522*
X73652Y71373*
Y70734*
X73582Y70688*
X73442Y70478*
X73393Y70230*
X73442Y69982*
X73536Y69841*
X73476Y69729*
X70585*
Y71077*
X70797Y71142*
X71102Y71305*
X71369Y71524*
X71588Y71791*
X71751Y72096*
X71852Y72426*
X71885Y72770*
X71852Y73114*
X71751Y73444*
X71588Y73749*
X71369Y74016*
X71102Y74235*
X70797Y74398*
X70467Y74499*
X70123Y74532*
X69779Y74499*
X69449Y74398*
X69144Y74235*
X68877Y74016*
X68658Y73749*
X68495Y73444*
X68394Y73114*
X68361Y72770*
X68394Y72426*
X68495Y72096*
X68658Y71791*
X68877Y71524*
X69144Y71305*
X69449Y71142*
X69549Y71111*
Y69341*
Y63252*
X68663*
Y60444*
X71471*
Y63252*
X70585*
Y68953*
X76492*
X76541Y68835*
X74630Y66924*
X74548Y66940*
X74300Y66891*
X74090Y66751*
X73950Y66541*
X73901Y66293*
X73950Y66045*
X74090Y65835*
X74300Y65695*
X74548Y65646*
X74796Y65695*
X75006Y65835*
X75146Y66045*
X75195Y66293*
X75179Y66375*
X77194Y68390*
X79485*
X79534Y68272*
X78186Y66924*
X78104Y66940*
X77856Y66891*
X77646Y66751*
X77506Y66541*
X77457Y66293*
X77506Y66045*
X77646Y65835*
X77856Y65695*
X78104Y65646*
X78352Y65695*
X78562Y65835*
X78702Y66045*
X78751Y66293*
X78735Y66375*
X79288Y66928*
X79400Y66868*
X79362Y66674*
X79411Y66426*
X79551Y66216*
X79761Y66076*
X80009Y66027*
X80257Y66076*
X80467Y66216*
X80517Y66291*
X80644*
X80694Y66216*
X80904Y66076*
X81152Y66027*
X81400Y66076*
X81610Y66216*
X81750Y66426*
X81799Y66674*
X81783Y66756*
X81893Y66866*
X83242*
X83400Y66897*
X83533Y66987*
X83623Y67120*
X83654Y67278*
X83623Y67436*
X83561Y67528*
X83623Y67620*
X83654Y67778*
X83623Y67936*
X83561Y68028*
X83623Y68120*
X83654Y68278*
X83623Y68436*
X83561Y68528*
X83623Y68620*
X83654Y68778*
X83623Y68936*
X83561Y69028*
X83623Y69120*
X83654Y69278*
X83623Y69436*
X83561Y69528*
X83623Y69620*
X83654Y69778*
X83623Y69936*
X83561Y70028*
X83623Y70120*
X83654Y70278*
X83623Y70436*
X83561Y70528*
X83623Y70620*
X83654Y70778*
X83623Y70936*
X83561Y71028*
X83623Y71120*
X83654Y71278*
X83623Y71436*
X83561Y71528*
X83623Y71620*
X83654Y71778*
X83623Y71936*
X83561Y72028*
X83623Y72120*
X83654Y72278*
X83651Y72291*
X83732Y72390*
X85596*
X85647Y72312*
X85857Y72172*
X86105Y72123*
X86353Y72172*
X86563Y72312*
X86703Y72522*
X86752Y72770*
X86703Y73018*
X86563Y73228*
X86503Y73268*
X86540Y73390*
X91654*
Y69983*
X86699*
X86550Y69954*
X86424Y69870*
X84767Y68213*
X84683Y68087*
X84654Y67938*
Y66968*
X84555Y66887*
X84542Y66890*
X84384Y66859*
X84292Y66797*
X84200Y66859*
X84042Y66890*
X83884Y66859*
X83751Y66769*
X83661Y66636*
X83630Y66478*
Y64978*
X83654Y64860*
Y64391*
X80599Y61336*
X80517Y61352*
X80269Y61303*
X80059Y61163*
X79919Y60953*
X79870Y60705*
X79919Y60457*
X80059Y60247*
X80269Y60107*
X80517Y60058*
X80765Y60107*
X80975Y60247*
X81089Y60417*
X81215*
X81329Y60247*
X81539Y60107*
X81787Y60058*
X82035Y60107*
X82245Y60247*
X82385Y60457*
X82434Y60705*
X82418Y60787*
X83575Y61943*
X83687Y61883*
X83680Y61848*
X83729Y61600*
X83869Y61390*
X84079Y61250*
X84327Y61201*
X84521Y61239*
X84581Y61127*
X83150Y59696*
X70861*
X70815Y59766*
X70605Y59906*
X70357Y59955*
X70109Y59906*
X69899Y59766*
X69759Y59556*
X69710Y59308*
X69726Y59226*
X69434Y58934*
X68663*
Y59250*
X67355*
X67263*
X65955*
Y58999*
X57286*
Y61330*
X59459*
Y60894*
X61167*
X61259*
X62967*
Y61330*
X64163*
Y60444*
X66971*
Y63252*
X64163*
Y62366*
X62967*
Y62802*
X61259*
X61167*
X59459*
Y62366*
X57286*
Y68872*
X58404Y69991*
X58517Y70159*
X58556Y70357*
Y89524*
X64769*
Y89470*
G37*
G36*
X53558Y93436D02*
X53717Y93313D01*
X53902Y93237*
X54101Y93210*
X54133Y93215*
X57520Y89827*
Y70572*
X56402Y69453*
X56289Y69285*
X56250Y69087*
Y61848*
Y58546*
Y55951*
X53919*
Y66039*
Y66351*
X54185*
Y67759*
Y69145*
Y69461*
X54609*
X54758Y69490*
X54884Y69574*
X56027Y70717*
X56111Y70843*
X56140Y70992*
Y71162*
X56456*
Y72470*
Y72562*
Y73870*
X56140*
Y74724*
X56231Y74858*
X56270Y75057*
X56231Y75255*
X56118Y75423*
X55950Y75535*
X55752Y75574*
X55556Y75535*
X55496Y75647*
X55659Y75811*
X56054*
X56189Y75720*
X56387Y75681*
X56585Y75720*
X56753Y75833*
X56866Y76001*
X56905Y76199*
X56866Y76397*
X56753Y76565*
X56585Y76678*
X56387Y76717*
X56189Y76678*
X56054Y76587*
X55501*
X55492Y76616*
X55473Y76715*
X55483Y76722*
X55596Y76890*
X55635Y77088*
X55596Y77286*
X55505Y77421*
Y84581*
X55476Y84730*
X55392Y84856*
X53701Y86547*
X53575Y86631*
X53426Y86660*
X52367*
Y87626*
X49659*
Y84918*
X52367*
Y85884*
X53265*
X54729Y84420*
Y77448*
X50111*
Y77656*
Y77933*
X48403*
Y77687*
X49257*
Y77464*
X48403*
Y77156*
Y76656*
Y76156*
Y75656*
Y75156*
Y74656*
Y74156*
Y73656*
Y73156*
Y72656*
Y72156*
X50111*
Y72656*
Y72672*
X50729*
X50792Y72609*
Y72087*
X50701Y71952*
X50662Y71754*
X50701Y71556*
X50814Y71388*
X50982Y71275*
X51180Y71236*
X51378Y71275*
X51546Y71388*
X51621Y71500*
X51743Y71463*
Y70553*
X51477*
Y69145*
Y68840*
X48262*
X48225Y68962*
X48244Y68975*
X48357Y69143*
X48396Y69341*
X48357Y69539*
X48244Y69707*
X48076Y69820*
X47878Y69859*
X47680Y69820*
X47545Y69729*
X47404*
X47095Y70038*
Y70156*
X48111*
Y70622*
X49042*
X49204Y70513*
X49402Y70474*
X49600Y70513*
X49768Y70626*
X49881Y70794*
X49920Y70992*
X49881Y71190*
X49768Y71358*
X49600Y71471*
X49402Y71510*
X49204Y71471*
X49096Y71398*
X48111*
Y71864*
X47595*
Y73786*
Y77526*
X47982Y77912*
X48066Y78038*
X48095Y78187*
Y78756*
X48111*
Y80464*
X47095*
Y81471*
X47296Y81671*
X47413Y81623*
Y81464*
X48721*
X48813*
X49141*
Y80977*
X49050Y80842*
X49011Y80644*
X49050Y80446*
X49163Y80278*
X49331Y80165*
X49529Y80126*
X49727Y80165*
X49895Y80278*
X50008Y80446*
X50047Y80644*
X50008Y80842*
X49917Y80977*
Y81464*
X50121*
Y82872*
X49917*
Y83819*
X49893Y83943*
X49888Y83968*
X49804Y84094*
X48916Y84982*
Y88625*
X50208Y89918*
X52367*
Y92626*
X51614*
X51566Y92743*
X52284Y93461*
X53538*
X53558Y93436*
G37*
G36*
X66873Y95511D02*
X66830Y95447D01*
X66791Y95249*
X66830Y95051*
X66943Y94883*
X67111Y94770*
X67270Y94739*
X67302Y94707*
Y90614*
X64769*
Y90560*
X58253*
X54865Y93947*
X54870Y93979*
X54843Y94178*
X54767Y94363*
X54644Y94522*
X54489Y94641*
Y95053*
X54817*
X54909*
X56217*
Y95369*
X56895*
X57044Y95398*
X57170Y95482*
X57188Y95501*
X57347Y95532*
X57482Y95623*
X66813*
X66873Y95511*
G37*
G36*
X89211Y88437D02*
D01*
Y88345*
Y88017*
X88391*
X88242Y87988*
X88116Y87904*
X85576Y85364*
X85492Y85238*
X85463Y85089*
Y84200*
X85492Y84051*
X85576Y83925*
X85654Y83848*
Y82068*
X85555Y81987*
X85542Y81990*
X85384Y81959*
X85292Y81897*
X85200Y81959*
X85042Y81990*
X84884Y81959*
X84792Y81897*
X84700Y81959*
X84542Y81990*
X84529Y81987*
X84430Y82068*
Y85259*
X84777*
Y86567*
Y86659*
Y87967*
X84461*
Y88230*
X84996Y88765*
X86097*
X86122Y88705*
X86265Y88519*
X86450Y88376*
X86667Y88287*
X86899Y88256*
X87131Y88287*
X87347Y88376*
X87533Y88519*
X87675Y88705*
X87700Y88765*
X89211*
Y88437*
G37*
G36*
X96433Y76791D02*
X96430Y76778D01*
X96461Y76620*
X96523Y76528*
X96461Y76436*
X96430Y76278*
X96461Y76120*
X96523Y76028*
X96461Y75936*
X96430Y75778*
X96461Y75620*
X96523Y75528*
X96461Y75436*
X96430Y75278*
X96461Y75120*
X96523Y75028*
X96461Y74936*
X96430Y74778*
X96461Y74620*
X96523Y74528*
X96461Y74436*
X96430Y74278*
X96461Y74120*
X96523Y74028*
X96461Y73936*
X96430Y73778*
X96461Y73620*
X96523Y73528*
X96461Y73436*
X96430Y73278*
X96461Y73120*
X96523Y73028*
X96461Y72936*
X96430Y72778*
X96461Y72620*
X96523Y72528*
X96461Y72436*
X96430Y72278*
X96461Y72120*
X96523Y72028*
X96461Y71936*
X96430Y71778*
X96461Y71620*
X96523Y71528*
X96461Y71436*
X96430Y71278*
X96461Y71120*
X96523Y71028*
X96461Y70936*
X96430Y70778*
X96461Y70620*
X96523Y70528*
X96461Y70436*
X96430Y70278*
X96461Y70120*
X96523Y70028*
X96461Y69936*
X96430Y69778*
X96461Y69620*
X96523Y69528*
X96461Y69436*
X96430Y69278*
X96433Y69265*
X96352Y69166*
X92430*
Y76890*
X96352*
X96433Y76791*
G37*
G36*
X46819Y71864D02*
X45803D01*
X45095*
Y72507*
X45217Y72544*
X45226Y72531*
X45394Y72418*
X45465Y72404*
Y72897*
X45592*
Y73024*
X46085*
X46071Y73095*
X45958Y73263*
X45939Y73276*
X45976Y73398*
X46819*
Y71864*
G37*
G36*
X48139Y84821D02*
D01*
X48168Y84672*
X48252Y84546*
X49141Y83658*
Y82872*
X48813*
X48721*
X47413*
Y82556*
X47243*
X47094Y82527*
X46968Y82443*
X46722Y82197*
X46610Y82257*
X46618Y82295*
X46579Y82493*
X46466Y82661*
X46298Y82774*
X46100Y82813*
X45902Y82774*
X45734Y82661*
X45621Y82493*
X45590Y82334*
X45432Y82177*
X45348Y82051*
X45319Y81902*
Y80464*
X45095*
Y83365*
X45182Y83494*
X45221Y83692*
X45182Y83890*
X45069Y84058*
X44901Y84171*
X44703Y84210*
X44505Y84171*
X44337Y84058*
X44224Y83890*
X44202Y83776*
X44075Y83789*
Y84121*
X44166Y84256*
X44205Y84454*
X44166Y84652*
X44053Y84820*
X43885Y84933*
X43687Y84972*
X43489Y84933*
X43321Y84820*
X43208Y84652*
X43169Y84454*
X43208Y84256*
X43299Y84121*
Y82803*
X43328Y82654*
X43412Y82528*
X43819Y82122*
Y80464*
X42595*
Y86369*
X44610Y88384*
X48139*
Y84821*
G37*
G36*
X102673Y67798D02*
Y66974D01*
Y66882*
Y65574*
X102924*
Y65255*
X102834Y65185*
X102711Y65026*
X102635Y64841*
X102608Y64642*
X102635Y64443*
X102711Y64258*
X102834Y64099*
X102859Y64079*
Y54476*
X102652Y54318*
X102494Y54111*
X92211*
Y54413*
X92412*
Y55821*
X91104*
X91012*
X89704*
Y55570*
X89185*
X89182Y55575*
X88972Y55715*
X88725Y55764*
X88643Y55748*
X88430Y55960*
Y64488*
X88529Y64569*
X88542Y64566*
X88700Y64597*
X88792Y64659*
X88884Y64597*
X89042Y64566*
X89200Y64597*
X89292Y64659*
X89384Y64597*
X89542Y64566*
X89700Y64597*
X89792Y64659*
X89884Y64597*
X90042Y64566*
X90200Y64597*
X90292Y64659*
X90384Y64597*
X90542Y64566*
X90700Y64597*
X90792Y64659*
X90884Y64597*
X91042Y64566*
X91200Y64597*
X91292Y64659*
X91384Y64597*
X91415Y64591*
Y64809*
X91423Y64820*
X91454Y64978*
Y65728*
X91630*
Y64978*
X91661Y64820*
X91669Y64809*
Y64591*
X91700Y64597*
X91792Y64659*
X91884Y64597*
X92042Y64566*
X92200Y64597*
X92292Y64659*
X92384Y64597*
X92542Y64566*
X92700Y64597*
X92792Y64659*
X92884Y64597*
X93042Y64566*
X93200Y64597*
X93292Y64659*
X93384Y64597*
X93542Y64566*
X93700Y64597*
X93792Y64659*
X93884Y64597*
X94042Y64566*
X94200Y64597*
X94292Y64659*
X94384Y64597*
X94542Y64566*
X94700Y64597*
X94792Y64659*
X94884Y64597*
X95042Y64566*
X95200Y64597*
X95292Y64659*
X95384Y64597*
X95542Y64566*
X95700Y64597*
X95792Y64659*
X95884Y64597*
X96042Y64566*
X96200Y64597*
X96333Y64687*
X96423Y64820*
X96454Y64978*
Y66478*
X96423Y66636*
X96333Y66769*
X96200Y66859*
X96042Y66890*
X95884Y66859*
X95792Y66797*
X95700Y66859*
X95542Y66890*
X95384Y66859*
X95292Y66797*
X95200Y66859*
X95042Y66890*
X94884Y66859*
X94792Y66797*
X94700Y66859*
X94542Y66890*
X94384Y66859*
X94292Y66797*
X94200Y66859*
X94042Y66890*
X93884Y66859*
X93792Y66797*
X93700Y66859*
X93542Y66890*
X93384Y66859*
X93292Y66797*
X93200Y66859*
X93042Y66890*
X92884Y66859*
X92792Y66797*
X92700Y66859*
X92542Y66890*
X92529Y66887*
X92430Y66968*
Y68390*
X96352*
X96433Y68291*
X96430Y68278*
X96461Y68120*
X96523Y68028*
X96461Y67936*
X96430Y67778*
X96461Y67620*
X96523Y67528*
X96461Y67436*
X96430Y67278*
X96461Y67120*
X96551Y66987*
X96684Y66897*
X96842Y66866*
X98342*
X98500Y66897*
X98633Y66987*
X98723Y67120*
X98754Y67278*
X98723Y67436*
X98661Y67528*
X98723Y67620*
X98754Y67778*
X98723Y67936*
X98661Y68028*
X98723Y68120*
X98754Y68278*
X98748Y68307*
X98829Y68405*
X102066*
X102673Y67798*
G37*
G36*
X91654Y66968D02*
X91555Y66887D01*
X91542Y66890*
X91384Y66859*
X91292Y66797*
X91200Y66859*
X91042Y66890*
X90884Y66859*
X90792Y66797*
X90700Y66859*
X90542Y66890*
X90384Y66859*
X90292Y66797*
X90200Y66859*
X90042Y66890*
X89884Y66859*
X89792Y66797*
X89700Y66859*
X89542Y66890*
X89384Y66859*
X89292Y66797*
X89200Y66859*
X89042Y66890*
X88884Y66859*
X88792Y66797*
X88700Y66859*
X88542Y66890*
X88384Y66859*
X88292Y66797*
X88200Y66859*
X88042Y66890*
X87884Y66859*
X87792Y66797*
X87700Y66859*
X87542Y66890*
X87384Y66859*
X87292Y66797*
X87200Y66859*
X87042Y66890*
X86884Y66859*
X86792Y66797*
X86700Y66859*
X86669Y66865*
Y66647*
X86661Y66636*
X86630Y66478*
Y65728*
X86454*
Y66478*
X86423Y66636*
X86415Y66647*
Y66865*
X86384Y66859*
X86292Y66797*
X86200Y66859*
X86042Y66890*
X85884Y66859*
X85792Y66797*
X85700Y66859*
X85542Y66890*
X85529Y66887*
X85430Y66968*
Y67777*
X86860Y69207*
X91654*
Y66968*
G37*
%LNlp_led_cube_8x8x8-4*%
%LPC*%
G36*
X73659Y52003D02*
Y50101D01*
X75561*
X75535Y50372*
X75418Y50755*
X75230Y51108*
X74976Y51417*
X74666Y51671*
X74313Y51860*
X73930Y51976*
X73659Y52003*
G37*
G36*
X73405D02*
X73134Y51976D01*
X72751Y51860*
X72398Y51671*
X72088Y51417*
X71834Y51108*
X71646Y50755*
X71529Y50372*
X71503Y50101*
X73405*
Y52003*
G37*
G36*
X68325Y52513D02*
X67444D01*
X67462Y52375*
X67565Y52128*
X67727Y51916*
X67940Y51753*
X68187Y51651*
X68325Y51632*
Y52513*
G37*
G36*
X69460D02*
X68579D01*
Y51632*
X68717Y51651*
X68964Y51753*
X69177Y51916*
X69339Y52128*
X69442Y52375*
X69460Y52513*
G37*
G36*
X69468Y55688D02*
X67436D01*
Y53657*
X67924*
X67949Y53532*
X67940Y53528*
X67727Y53365*
X67565Y53153*
X67462Y52906*
X67444Y52768*
X69460*
X69442Y52906*
X69339Y53153*
X69177Y53365*
X68964Y53528*
X68955Y53532*
X68980Y53657*
X69468*
Y55688*
G37*
G36*
X60959Y52003D02*
Y50101D01*
X62861*
X62835Y50372*
X62718Y50755*
X62530Y51108*
X62276Y51417*
X61966Y51671*
X61613Y51860*
X61230Y51976*
X60959Y52003*
G37*
G36*
X60705D02*
X60434Y51976D01*
X60051Y51860*
X59698Y51671*
X59388Y51417*
X59134Y51108*
X58946Y50755*
X58829Y50372*
X58803Y50101*
X60705*
Y52003*
G37*
G36*
X65912Y55697D02*
X65647Y55662D01*
X65400Y55560*
X65187Y55397*
X65025Y55185*
X64922Y54938*
X64887Y54673*
X64922Y54407*
X65025Y54160*
X65187Y53948*
X65400Y53785*
X65557Y53720*
Y53593*
X65400Y53528*
X65187Y53365*
X65025Y53153*
X64922Y52906*
X64887Y52640*
X64922Y52375*
X65025Y52128*
X65187Y51916*
X65400Y51753*
X65647Y51651*
X65912Y51616*
X66177Y51651*
X66424Y51753*
X66637Y51916*
X66799Y52128*
X66902Y52375*
X66937Y52640*
X66902Y52906*
X66799Y53153*
X66637Y53365*
X66424Y53528*
X66267Y53593*
Y53720*
X66424Y53785*
X66637Y53948*
X66799Y54160*
X66902Y54407*
X66937Y54673*
X66902Y54938*
X66799Y55185*
X66637Y55397*
X66424Y55560*
X66177Y55662*
X65912Y55697*
G37*
G36*
Y84835D02*
X64769D01*
Y84391*
X65912*
Y84835*
G37*
G36*
X60959Y85716D02*
X60821Y85698D01*
X60574Y85595*
X60361Y85433*
X60199Y85220*
X60096Y84973*
X60078Y84835*
X60959*
Y85716*
G37*
G36*
X53085Y84695D02*
X52964Y84671D01*
X52754Y84531*
X52614Y84321*
X52590Y84200*
X53085*
Y84695*
G37*
G36*
X53339D02*
Y84200D01*
X53834*
X53810Y84321*
X53670Y84531*
X53460Y84671*
X53339Y84695*
G37*
G36*
X47367Y86145D02*
X46140D01*
Y84918*
X47367*
Y86145*
G37*
G36*
X65912Y85534D02*
X64769D01*
Y85089*
X65912*
Y85534*
G37*
G36*
X61213Y85716D02*
Y84835D01*
X62094*
X62076Y84973*
X61973Y85220*
X61811Y85433*
X61598Y85595*
X61351Y85698*
X61213Y85716*
G37*
G36*
X45886Y86145D02*
X44659D01*
Y84918*
X45886*
Y86145*
G37*
G36*
X62094Y84581D02*
X61213D01*
Y83700*
X61351Y83718*
X61598Y83821*
X61811Y83983*
X61973Y84196*
X62076Y84443*
X62094Y84581*
G37*
G36*
X125843Y82295D02*
X125348D01*
Y81800*
X125469Y81824*
X125679Y81964*
X125819Y82174*
X125843Y82295*
G37*
G36*
X125094Y83044D02*
X124973Y83020D01*
X124763Y82880*
X124623Y82670*
X124599Y82549*
X125094*
Y83044*
G37*
G36*
X141477Y82155D02*
Y81660D01*
X141972*
X141948Y81781*
X141808Y81991*
X141598Y82131*
X141477Y82155*
G37*
G36*
X125094Y82295D02*
X124599D01*
X124623Y82174*
X124763Y81964*
X124973Y81824*
X125094Y81800*
Y82295*
G37*
G36*
X53834Y83946D02*
X53339D01*
Y83451*
X53460Y83475*
X53670Y83615*
X53810Y83825*
X53834Y83946*
G37*
G36*
X60959Y84581D02*
X60078D01*
X60096Y84443*
X60199Y84196*
X60361Y83983*
X60574Y83821*
X60821Y83718*
X60959Y83700*
Y84581*
G37*
G36*
X125348Y83044D02*
Y82549D01*
X125843*
X125819Y82670*
X125679Y82880*
X125469Y83020*
X125348Y83044*
G37*
G36*
X53085Y83946D02*
X52590D01*
X52614Y83825*
X52754Y83615*
X52964Y83475*
X53085Y83451*
Y83946*
G37*
G36*
X43560Y86105D02*
X43065D01*
X43089Y85984*
X43229Y85774*
X43439Y85634*
X43560Y85610*
Y86105*
G37*
G36*
X65912Y88645D02*
X64769D01*
Y88200*
X65912*
Y88645*
G37*
G36*
Y89343D02*
X64769D01*
Y88899*
X65912*
Y89343*
G37*
G36*
X86105Y87743D02*
Y87248D01*
X86600*
X86576Y87369*
X86436Y87579*
X86226Y87719*
X86105Y87743*
G37*
G36*
X65912Y88074D02*
X64769D01*
Y87629*
X65912*
Y88074*
G37*
G36*
X62229Y93971D02*
X62091Y93953D01*
X61844Y93850*
X61631Y93688*
X61469Y93475*
X61366Y93228*
X61348Y93090*
X62229*
Y93971*
G37*
G36*
X62483D02*
Y93090D01*
X63364*
X63346Y93228*
X63243Y93475*
X63081Y93688*
X62868Y93850*
X62621Y93953*
X62483Y93971*
G37*
G36*
X62229Y92836D02*
X61348D01*
X61366Y92698*
X61469Y92451*
X61631Y92238*
X61844Y92076*
X62091Y91973*
X62229Y91955*
Y92836*
G37*
G36*
X63364D02*
X62483D01*
Y91955*
X62621Y91973*
X62868Y92076*
X63081Y92238*
X63243Y92451*
X63346Y92698*
X63364Y92836*
G37*
G36*
X85851Y87743D02*
X85730Y87719D01*
X85520Y87579*
X85380Y87369*
X85356Y87248*
X85851*
Y87743*
G37*
G36*
X43814Y86854D02*
Y86359D01*
X44309*
X44285Y86480*
X44145Y86690*
X43935Y86830*
X43814Y86854*
G37*
G36*
X45886Y87626D02*
X44659D01*
Y86399*
X45886*
Y87626*
G37*
G36*
X44309Y86105D02*
X43814D01*
Y85610*
X43935Y85634*
X44145Y85774*
X44285Y85984*
X44309Y86105*
G37*
G36*
X43560Y86854D02*
X43439Y86830D01*
X43229Y86690*
X43089Y86480*
X43065Y86359*
X43560*
Y86854*
G37*
G36*
X86600Y86994D02*
X86105D01*
Y86499*
X86226Y86523*
X86436Y86663*
X86576Y86873*
X86600Y86994*
G37*
G36*
X65912Y87375D02*
X64769D01*
Y86931*
X65912*
Y87375*
G37*
G36*
X47367Y87626D02*
X46140D01*
Y86399*
X47367*
Y87626*
G37*
G36*
X85851Y86994D02*
X85356D01*
X85380Y86873*
X85520Y86663*
X85730Y86523*
X85851Y86499*
Y86994*
G37*
G36*
X141223Y82155D02*
X141102Y82131D01*
X140892Y81991*
X140752Y81781*
X140728Y81660*
X141223*
Y82155*
G37*
G36*
X46085Y72770D02*
X45719D01*
Y72404*
X45790Y72418*
X45958Y72531*
X46071Y72699*
X46085Y72770*
G37*
G36*
X42925Y72897D02*
X42559D01*
X42573Y72826*
X42686Y72658*
X42854Y72545*
X42925Y72531*
Y72897*
G37*
G36*
X62496Y72643D02*
X60873D01*
X60894Y72426*
X60995Y72096*
X61158Y71791*
X61377Y71524*
X61644Y71305*
X61949Y71142*
X62279Y71041*
X62496Y71020*
Y72643*
G37*
G36*
X64373D02*
X62750D01*
Y71020*
X62967Y71041*
X63297Y71142*
X63602Y71305*
X63869Y71524*
X64088Y71791*
X64251Y72096*
X64352Y72426*
X64373Y72643*
G37*
G36*
X80250Y73174D02*
X79755D01*
Y72679*
X79876Y72703*
X80086Y72844*
X80226Y73054*
X80250Y73174*
G37*
G36*
X62496Y74520D02*
X62279Y74499D01*
X61949Y74398*
X61644Y74235*
X61377Y74016*
X61158Y73749*
X60995Y73444*
X60894Y73114*
X60873Y72897*
X62496*
Y74520*
G37*
G36*
X43545Y72897D02*
X43179D01*
Y72531*
X43250Y72545*
X43418Y72658*
X43531Y72826*
X43545Y72897*
G37*
G36*
X79501Y73174D02*
X79006D01*
X79030Y73054*
X79170Y72844*
X79380Y72703*
X79501Y72679*
Y73174*
G37*
G36*
X94360Y70979D02*
Y70484D01*
X94855*
X94831Y70605*
X94691Y70815*
X94481Y70955*
X94360Y70979*
G37*
G36*
X88137Y68693D02*
X88016Y68669D01*
X87806Y68529*
X87666Y68319*
X87642Y68198*
X88137*
Y68693*
G37*
G36*
X88391D02*
Y68198D01*
X88886*
X88862Y68319*
X88722Y68529*
X88512Y68669*
X88391Y68693*
G37*
G36*
X88137Y67944D02*
X87642D01*
X87666Y67823*
X87806Y67613*
X88016Y67473*
X88137Y67449*
Y67944*
G37*
G36*
X88886D02*
X88391D01*
Y67449*
X88512Y67473*
X88722Y67613*
X88862Y67823*
X88886Y67944*
G37*
G36*
X94855Y70230D02*
X94360D01*
Y69735*
X94481Y69759*
X94691Y69899*
X94831Y70109*
X94855Y70230*
G37*
G36*
X94106Y70979D02*
X93985Y70955D01*
X93775Y70815*
X93635Y70605*
X93611Y70484*
X94106*
Y70979*
G37*
G36*
X66547Y81291D02*
X66299Y81242D01*
X66089Y81102*
X65949Y80892*
X65900Y80644*
X65949Y80396*
X66089Y80186*
X66159Y80140*
Y70861*
X66089Y70815*
X65949Y70605*
X65900Y70357*
X65949Y70109*
X66089Y69899*
X66299Y69759*
X66547Y69710*
X66795Y69759*
X67005Y69899*
X67145Y70109*
X67194Y70357*
X67145Y70605*
X67005Y70815*
X66935Y70861*
Y80140*
X67005Y80186*
X67145Y80396*
X67194Y80644*
X67145Y80892*
X67005Y81102*
X66795Y81242*
X66547Y81291*
G37*
G36*
X94106Y70230D02*
X93611D01*
X93635Y70109*
X93775Y69899*
X93985Y69759*
X94106Y69735*
Y70230*
G37*
G36*
X62750Y74520D02*
Y72897D01*
X64373*
X64352Y73114*
X64251Y73444*
X64088Y73749*
X63869Y74016*
X63602Y74235*
X63297Y74398*
X62967Y74499*
X62750Y74520*
G37*
G36*
X133349Y81406D02*
X132854D01*
X132878Y81285*
X133018Y81075*
X133228Y80935*
X133349Y80911*
Y81406*
G37*
G36*
X134098D02*
X133603D01*
Y80911*
X133724Y80935*
X133934Y81075*
X134074Y81285*
X134098Y81406*
G37*
G36*
X94106Y79107D02*
Y78612D01*
X94601*
X94577Y78733*
X94437Y78943*
X94227Y79083*
X94106Y79107*
G37*
G36*
X73786Y79436D02*
X73209D01*
Y78909*
X73786*
Y79436*
G37*
G36*
X133349Y82155D02*
X133228Y82131D01*
X133018Y81991*
X132878Y81781*
X132854Y81660*
X133349*
Y82155*
G37*
G36*
X133603D02*
Y81660D01*
X134098*
X134074Y81781*
X133934Y81991*
X133724Y82131*
X133603Y82155*
G37*
G36*
X141223Y81406D02*
X140728D01*
X140752Y81285*
X140892Y81075*
X141102Y80935*
X141223Y80911*
Y81406*
G37*
G36*
X141972D02*
X141477D01*
Y80911*
X141598Y80935*
X141808Y81075*
X141948Y81285*
X141972Y81406*
G37*
G36*
X93852Y79107D02*
X93731Y79083D01*
X93521Y78943*
X93381Y78733*
X93357Y78612*
X93852*
Y79107*
G37*
G36*
X79501Y73924D02*
X79380Y73900D01*
X79170Y73759*
X79030Y73549*
X79006Y73428*
X79501*
Y73924*
G37*
G36*
X79755D02*
Y73428D01*
X80250*
X80226Y73549*
X80086Y73759*
X79876Y73900*
X79755Y73924*
G37*
G36*
X42925Y73517D02*
X42854Y73503D01*
X42686Y73390*
X42573Y73222*
X42559Y73151*
X42925*
Y73517*
G37*
G36*
X43179D02*
Y73151D01*
X43545*
X43531Y73222*
X43418Y73390*
X43250Y73503*
X43179Y73517*
G37*
G36*
X49130Y78464D02*
X48403D01*
Y78187*
X49130*
Y78464*
G37*
G36*
X50111D02*
X49384D01*
Y78187*
X50111*
Y78464*
G37*
G36*
X93852Y78358D02*
X93357D01*
X93381Y78237*
X93521Y78027*
X93731Y77887*
X93852Y77863*
Y78358*
G37*
G36*
X94601D02*
X94106D01*
Y77863*
X94227Y77887*
X94437Y78027*
X94577Y78237*
X94601Y78358*
G37*
%LNlp_led_cube_8x8x8-5*%
%LPD*%
G54D10*
X53531Y67055D03*
X52131D03*
Y68452D03*
X53531D03*
X52131Y69849D03*
X53531D03*
X68009Y58546D03*
X66609D03*
X148905Y61594D03*
X150305D03*
X152337Y69468D03*
X150937D03*
X146746Y70738D03*
X148146D03*
X137602Y51053D03*
X139002D03*
X140142Y61848D03*
X141542D03*
X123254Y71500D03*
X121854D03*
X108138Y55498D03*
X109538D03*
X111313D03*
X112713D03*
X90358Y55117D03*
X91758D03*
X76137Y90042D03*
X74737D03*
X76137Y88518D03*
X74737D03*
X76137Y83946D03*
X74737D03*
X76137Y85343D03*
X74737D03*
X48067Y82168D03*
X49467D03*
X55563Y97154D03*
X54163D03*
X55563Y95757D03*
X54163D03*
G54D11*
X37972Y69403D03*
Y70803D03*
X43052Y65088D03*
Y63688D03*
X41782Y65088D03*
Y63688D03*
X39242D03*
Y65088D03*
X37972Y63688D03*
Y65088D03*
X46862D03*
Y63688D03*
X45592Y65088D03*
Y63688D03*
X48132Y65088D03*
Y63688D03*
X41147Y85916D03*
Y84516D03*
X114045Y74740D03*
Y73340D03*
Y77534D03*
Y76134D03*
X154177Y63310D03*
Y61910D03*
X105409Y61659D03*
Y60259D03*
X118363D03*
Y61659D03*
X105409Y64580D03*
Y63180D03*
X103377Y67628D03*
Y66228D03*
X84073Y87313D03*
Y85913D03*
X76199Y80963D03*
Y79563D03*
X89915Y87691D03*
Y89091D03*
X91439Y87691D03*
Y89091D03*
X73913Y79563D03*
Y80963D03*
X50672Y63688D03*
Y65088D03*
X49402D03*
Y63688D03*
X55752Y73216D03*
Y71816D03*
X142747Y86294D03*
Y87694D03*
X147573Y86294D03*
Y87694D03*
X142747Y88961D03*
Y90361D03*
X147573Y88961D03*
Y90361D03*
X119125Y76769D03*
Y78169D03*
Y79436D03*
Y80836D03*
X123951Y79436D03*
Y80836D03*
Y76769D03*
Y78169D03*
X134873Y86319D03*
Y87719D03*
X139699Y86319D03*
Y87719D03*
X134873Y88986D03*
Y90386D03*
X139699Y88986D03*
Y90386D03*
X126999Y76769D03*
Y78169D03*
X131952Y76769D03*
Y78169D03*
X126999Y79436D03*
Y80836D03*
X131952Y79436D03*
Y80836D03*
X131825Y86294D03*
Y87694D03*
X126999Y88961D03*
Y90361D03*
X131825Y88961D03*
Y90361D03*
X126999Y86294D03*
Y87694D03*
X119125Y86294D03*
Y87694D03*
X123951Y88961D03*
Y90361D03*
X119125Y88961D03*
Y90361D03*
X123951Y86294D03*
Y87694D03*
X135000Y76769D03*
Y78169D03*
X139826Y76769D03*
Y78169D03*
X135000Y79436D03*
Y80836D03*
X139826Y79436D03*
Y80836D03*
X142874Y79436D03*
Y80836D03*
Y76769D03*
Y78169D03*
X147700Y76769D03*
Y78169D03*
Y79436D03*
Y80836D03*
X97408Y88453D03*
Y89853D03*
X96138Y88453D03*
Y89853D03*
X98678Y88453D03*
Y89853D03*
X99948Y88453D03*
Y89853D03*
X105028Y88453D03*
Y89853D03*
X102488Y88453D03*
Y89853D03*
X101218Y88453D03*
Y89853D03*
X103758Y88453D03*
Y89853D03*
G54D12*
X42207Y79610D03*
X42707D03*
X43207D03*
X43707D03*
X44207D03*
X44707D03*
X45207D03*
X45707D03*
X46207D03*
X46707D03*
X47207D03*
X47707D03*
Y71010D03*
X47207D03*
X46707D03*
X46207D03*
X45707D03*
X45207D03*
X44707D03*
X44207D03*
X43707D03*
X43207D03*
X42707D03*
X42207D03*
G54D13*
X49257Y78060D03*
Y77560D03*
Y77060D03*
Y76560D03*
Y76060D03*
Y75560D03*
Y75060D03*
Y74560D03*
Y74060D03*
Y73560D03*
Y73060D03*
Y72560D03*
X40657D03*
Y73060D03*
Y73560D03*
Y74060D03*
Y74560D03*
Y75060D03*
Y75560D03*
Y76060D03*
Y76560D03*
Y77060D03*
Y77560D03*
Y78060D03*
G54D14*
X84042Y80828D03*
X84542D03*
X85042D03*
X85542D03*
X86042D03*
X86542D03*
X87042D03*
X87542D03*
X88042D03*
X88542D03*
X89042D03*
X89542D03*
X90042D03*
X90542D03*
X91042D03*
X91542D03*
X92042D03*
X92542D03*
X93042D03*
X93542D03*
X94042D03*
X94542D03*
X95042D03*
X95542D03*
X96042D03*
Y65728D03*
X95542D03*
X95042D03*
X94542D03*
X94042D03*
X93542D03*
X93042D03*
X92542D03*
X92042D03*
X91542D03*
X91042D03*
X90542D03*
X90042D03*
X89542D03*
X89042D03*
X88542D03*
X88042D03*
X87542D03*
X87042D03*
X86542D03*
X86042D03*
X85542D03*
X85042D03*
X84542D03*
X84042D03*
G54D15*
X97592Y79278D03*
Y78778D03*
Y78278D03*
Y77778D03*
Y77278D03*
Y76778D03*
Y76278D03*
Y75778D03*
Y75278D03*
Y74778D03*
Y74278D03*
Y73778D03*
Y73278D03*
Y72778D03*
Y72278D03*
Y71778D03*
Y71278D03*
Y70778D03*
Y70278D03*
Y69778D03*
Y69278D03*
Y68778D03*
Y68278D03*
Y67778D03*
Y67278D03*
X82492D03*
Y67778D03*
Y68278D03*
Y68778D03*
Y69278D03*
Y69778D03*
Y70278D03*
Y70778D03*
Y71278D03*
Y71778D03*
Y72278D03*
Y72778D03*
Y73278D03*
Y73778D03*
Y74278D03*
Y74778D03*
Y75278D03*
Y75778D03*
Y76278D03*
Y76778D03*
Y77278D03*
Y77778D03*
Y78278D03*
Y78778D03*
Y79278D03*
G54D16*
X108260Y79087D03*
X109560D03*
X110810D03*
X112210D03*
X112160Y71737D03*
X110860D03*
X109560D03*
X108260D03*
G54D17*
X51013Y86272D03*
Y91272D03*
X46013Y86272D03*
Y91272D03*
G54D18*
X65567Y61848D03*
X70067D03*
X151601Y58673D03*
X147101D03*
G54D19*
X60313Y61848D03*
X62113D03*
G54D20*
X130110Y68198D03*
X140144D03*
G54D21*
X123951Y58673D03*
X129793D03*
X134746Y56768D03*
X140588D03*
G54D22*
X107568Y58305D03*
X108838D03*
X110108D03*
X111378D03*
X112648D03*
X113918D03*
X115188D03*
X116458D03*
X107568Y63105D03*
X108838D03*
X110108D03*
X111378D03*
X112648D03*
X113918D03*
X115188D03*
X116458D03*
G54D23*
X66039Y90042D03*
Y88772D03*
Y87502D03*
Y86232D03*
Y84962D03*
X70865D03*
Y86232D03*
Y87502D03*
Y88772D03*
Y90042D03*
G54D24*
X146100Y87045D03*
X145160Y89458D03*
X146100D03*
X145160Y87045D03*
X144220Y89458D03*
Y87045D03*
X122478Y77520D03*
X121538Y79933D03*
X122478D03*
X121538Y77520D03*
X120598Y79933D03*
Y77520D03*
X138226Y87070D03*
X137286Y89483D03*
X138226D03*
X137286Y87070D03*
X136346Y89483D03*
Y87070D03*
X130352Y77520D03*
X129412Y79933D03*
X130352D03*
X129412Y77520D03*
X128472Y79933D03*
Y77520D03*
X130352Y87045D03*
X129412Y89458D03*
X130352D03*
X129412Y87045D03*
X128472Y89458D03*
Y87045D03*
X122478D03*
X121538Y89458D03*
X122478D03*
X121538Y87045D03*
X120598Y89458D03*
Y87045D03*
X138353Y77520D03*
X137413Y79933D03*
X138353D03*
X137413Y77520D03*
X136473Y79933D03*
Y77520D03*
X146227D03*
X145287Y79933D03*
X146227D03*
X145287Y77520D03*
X144347Y79933D03*
Y77520D03*
G54D25*
X157987Y61503D03*
Y66003D03*
G54D26*
X150321Y63783D03*
Y66283D03*
Y67533D03*
Y65033D03*
X144571D03*
Y67533D03*
Y66283D03*
Y63783D03*
G54D27*
X147446Y65658D03*
G54D28*
X154177Y68287D03*
Y69887D03*
Y64985D03*
Y66585D03*
G54D29*
X52069Y62610D02*
Y64642D01*
X51623Y65088D02*
X52069Y64642D01*
X50672Y65088D02*
X51623D01*
X51561Y62102D02*
X52069Y62610D01*
X40512Y62102D02*
Y64642D01*
X40066Y65088D02*
X40512Y64642D01*
X39242Y65088D02*
X40066D01*
X37972D02*
X39242D01*
Y59562D02*
Y63688D01*
X43052Y58927D02*
Y63688D01*
X41782Y62483D02*
Y63688D01*
X45592Y58927D02*
Y63688D01*
X41782Y59562D02*
Y62483D01*
X44957Y58292D02*
X45592Y58927D01*
X44322Y58292D02*
X44957D01*
X43052Y57022D02*
X44322Y58292D01*
X47624D02*
X48132Y58800D01*
X46862Y58292D02*
X47624D01*
X45592Y57022D02*
X46862Y58292D01*
X42290Y58165D02*
X43052Y58927D01*
X41655Y58165D02*
X42290D01*
X40512Y57022D02*
X41655Y58165D01*
X46862Y59562D02*
Y63688D01*
X48132Y58800D02*
Y63688D01*
X106314Y72278D02*
X106679Y72643D01*
X112210Y77342D02*
Y79087D01*
X114045Y75121D02*
Y76134D01*
X110489Y70357D02*
X110860Y70728D01*
X107695Y70357D02*
X110489D01*
X106774Y71278D02*
X107695Y70357D01*
X110860Y70728D02*
Y71737D01*
X97592Y71778D02*
X108260D01*
X97592Y71278D02*
X106774D01*
X97592Y70778D02*
X106004D01*
X108965Y73532D02*
X109560Y72937D01*
X106044Y73532D02*
X108965D01*
X105282Y72770D02*
X106044Y73532D01*
X98551Y72770D02*
X105282D01*
X97592Y73278D02*
X105028D01*
X105790Y74040*
X110997*
X112160Y72877*
Y71737D02*
Y72877D01*
X109560Y71737D02*
Y72937D01*
X97592Y72278D02*
X106314D01*
X106679Y74929D02*
X108260Y76510D01*
Y79087*
X68009Y58546D02*
X69595D01*
X70357Y59308*
X83311*
X70357Y57784D02*
X82549D01*
X136473Y110743D02*
X136499D01*
X106628D02*
X106654D01*
X76783D02*
X76809D01*
X46938D02*
X46964D01*
X110108Y56068D02*
Y58305D01*
X109538Y55498D02*
X110108Y56068D01*
X107568D02*
X108138Y55498D01*
X107568Y56068D02*
Y58305D01*
X111378Y55563D02*
Y58305D01*
X112648Y55563D02*
Y58305D01*
X114402Y50543D02*
Y52577D01*
X115188Y53363*
Y58305*
X116458Y53085D02*
Y58305D01*
X115823Y52450D02*
X116458Y53085D01*
X115823Y49783D02*
Y52450D01*
X115188Y49148D02*
X115823Y49783D01*
X113027Y49148D02*
X115188D01*
X111632Y50543D02*
X113027Y49148D01*
X108838Y58305D02*
Y59816D01*
X108395Y60259D02*
X108838Y59816D01*
X105409Y60259D02*
X108395D01*
X105409Y61659D02*
Y63180D01*
X115188Y61213D02*
Y63105D01*
X116458Y61213D02*
Y63105D01*
X113918Y58305D02*
Y59816D01*
X114361Y60259*
X118363*
X81787Y60705D02*
X84542Y63460D01*
Y65728*
X80517Y60705D02*
X84042Y64230D01*
Y65728*
X59054Y47497D02*
X82041D01*
X87042Y52498*
Y65728*
X88042Y55800D02*
Y65728D01*
Y55800D02*
X88725Y55117D01*
X58038Y48513D02*
X59054Y47497D01*
X50672Y57022D02*
Y63688D01*
X49402Y59562D02*
Y63688D01*
X48132Y65088D02*
X49402D01*
X50672*
X45592D02*
X46862D01*
X43052D02*
X45592D01*
X41782D02*
X43052D01*
X37972Y69403D02*
X40069D01*
X44207Y67321D02*
Y71010D01*
X42925Y67309D02*
X43707Y68091D01*
Y71010*
X42707Y68486D02*
Y71010D01*
X41782Y69214D02*
X42207Y69639D01*
Y71010*
X40069Y69403D02*
X41782Y67690D01*
X46707Y69877D02*
Y71010D01*
Y69877D02*
X47243Y69341D01*
X47878*
X46207Y69107D02*
Y71010D01*
Y69107D02*
X46862Y68452D01*
X45707Y68845D02*
Y71010D01*
Y68845D02*
X46608Y67944D01*
X46862Y68452D02*
X52131D01*
X46608Y67944D02*
X50545D01*
X51434Y67055*
X52131*
X41782Y65088D02*
Y67690D01*
X38865Y75060D02*
X40657D01*
X37976Y74171D02*
X38865Y75060D01*
X37976Y70807D02*
Y74171D01*
X49257Y73560D02*
X51152D01*
X52131Y72581*
X49257Y73060D02*
X50890D01*
X49257Y74060D02*
X51414D01*
X52958Y72516*
Y71754D02*
Y72516D01*
X51180Y71754D02*
Y72770D01*
X50890Y73060D02*
X51180Y72770D01*
X52131Y69849D02*
Y72581D01*
X47707Y71010D02*
X49384D01*
X43687Y74802D02*
X44703Y73786D01*
X47207*
X45207Y72512D02*
X45592Y72897D01*
X45207Y71010D02*
Y72512D01*
X47207Y71010D02*
Y73786D01*
X44707Y71010D02*
Y73782D01*
X43207Y71010D02*
Y72869D01*
X43052Y73024D02*
X43207Y72869D01*
X48259Y66547D02*
X50926D01*
X51434Y66039*
X53531*
X46862Y65088D02*
Y66039D01*
X47370Y66547*
X48259*
X49257Y75060D02*
X55749D01*
X49257Y75560D02*
X54859D01*
X55752Y73216D02*
Y75057D01*
X54859Y75560D02*
X55498Y76199D01*
X56387*
X53531Y69849D02*
X54609D01*
X55752Y70992*
Y71816*
X49257Y74560D02*
X52946D01*
X53847Y73659*
X53531Y55560D02*
Y66039D01*
Y68452*
Y69849*
X49257Y76060D02*
X50787D01*
X51053Y76326*
X42207Y79610D02*
Y86530D01*
X41147Y85916D02*
X42207D01*
Y86530D02*
X44449Y88772D01*
X48527Y84821D02*
X49529Y83819D01*
Y80644D02*
Y83819D01*
X44449Y88772D02*
X48527D01*
Y88786D02*
X51013Y91272D01*
X48527Y84821D02*
Y88786D01*
X49257Y77060D02*
X55117D01*
X49257Y77560D02*
Y78060D01*
Y77563D02*
X50636Y77560D01*
X47207Y73786D02*
Y77687D01*
X47707Y78187D02*
Y79610D01*
X47207Y77687D02*
X47707Y78187D01*
X47207Y73786D02*
Y77687D01*
X47707Y78187D02*
Y79610D01*
X47207Y77687D02*
X47707Y78187D01*
X40657Y76560D02*
X43453D01*
X45211Y74802*
X40657Y77560D02*
X44231D01*
X38353Y76199D02*
X39214Y77060D01*
X40657*
X46207Y77108D02*
Y79610D01*
X46707D02*
Y81632D01*
X47243Y82168*
X48067*
X44207Y79610D02*
Y82283D01*
X43687Y82803D02*
X44207Y82283D01*
X43687Y82803D02*
Y84454D01*
X44707Y79610D02*
Y83692D01*
X45707Y79610D02*
Y81902D01*
X46100Y82295*
X66547Y70357D02*
Y80644D01*
X70067Y69341D02*
X79628D01*
X76484Y71278D02*
X82492D01*
X79922Y70778D02*
X82492D01*
X79374Y70230D02*
X79922Y70778D01*
X75310Y70230D02*
X79374D01*
X77318Y71778D02*
X82492D01*
X76961Y72135D02*
X77318Y71778D01*
X74802Y72135D02*
X76961D01*
X74040Y71373D02*
X74802Y72135D01*
X74040Y70230D02*
Y71373D01*
X80565Y70278D02*
X82492D01*
X79628Y69341D02*
X80565Y70278D01*
X80605Y74278D02*
X82492D01*
X79628Y73301D02*
X80605Y74278D01*
X80651Y72278D02*
X82492D01*
X79628Y73301D02*
X80651Y72278D01*
X81756Y67278D02*
X82492D01*
X81152Y66674D02*
X81756Y67278D01*
X81113Y67778D02*
X82492D01*
X80009Y66674D02*
X81113Y67778D01*
X74929Y74040D02*
Y75056D01*
X73786Y74040D02*
Y75437D01*
X68198Y81787D02*
X74929Y75056D01*
X67690Y81533D02*
X73786Y75437D01*
X68706Y84117D02*
X69385Y83438D01*
X72135*
X73151Y82422*
X68706Y89153D02*
X69595Y90042D01*
X68706Y84117D02*
Y89153D01*
X69595Y90042D02*
X70865D01*
X76199Y82549D02*
Y83946D01*
Y80963D02*
Y82549D01*
X70865Y84962D02*
X73024D01*
X70865Y86232D02*
X78231D01*
X74737Y85343D02*
Y86170D01*
X73024Y84962D02*
X74040Y83946D01*
X74737*
X73913Y80963D02*
X75056D01*
X76199Y78485D02*
X76906Y77778D01*
X76199Y78485D02*
Y79563D01*
X78993Y80136D02*
X80351Y78778D01*
X78993Y80136D02*
Y85470D01*
X79470Y80294D02*
Y85755D01*
X78231Y86232D02*
X78993Y85470D01*
X77723Y87502D02*
X79470Y85755D01*
X77977Y80517D02*
Y81660D01*
Y80517D02*
X80216Y78278D01*
X75056Y78739D02*
X76517Y77278D01*
X75056Y78739D02*
Y81787D01*
X80486Y79278D02*
X82492D01*
X79470Y80294D02*
X80486Y79278D01*
X80351Y78778D02*
X82492D01*
X80216Y78278D02*
X82492D01*
X76517Y77278D02*
X82492D01*
X76906Y77778D02*
X82492D01*
X76137Y83946D02*
Y85343D01*
Y88518D02*
Y90042D01*
Y89280D02*
X77596D01*
X70865Y90042D02*
X74737D01*
X69214Y84327D02*
X69595Y83946D01*
X72897*
X75056Y81787*
X69214Y88391D02*
X69595Y88772D01*
X69214Y84327D02*
Y88391D01*
X69595Y88772D02*
X70865D01*
Y84962D02*
X73024D01*
X74040Y83946*
X74737*
X84042Y80828D02*
Y85913D01*
X92042Y80828D02*
Y84105D01*
X84073Y87313D02*
Y88391D01*
X84835Y89153*
X86899*
X85542Y80828D02*
Y83493D01*
X85343Y83692D02*
X85542Y83493D01*
X85343Y83692D02*
Y86486D01*
X85978Y87121*
X86042Y80828D02*
Y84009D01*
X85851Y84200D02*
X86042Y84009D01*
X85851Y84200D02*
Y85089D01*
X90042Y80828D02*
Y82549D01*
X90931Y83438*
X87542Y80828D02*
Y82763D01*
X86994Y83311D02*
X87542Y82763D01*
X88542Y80828D02*
Y82906D01*
X86867Y84581D02*
X88542Y82906D01*
X89542Y80828D02*
Y84081D01*
X89915Y84454*
X89042Y80828D02*
Y84184D01*
X87756Y85470D02*
X89042Y84184D01*
X91042Y76596D02*
Y80828D01*
X90542Y77715D02*
Y80828D01*
X90169Y77342D02*
X90542Y77715D01*
X87042Y77644D02*
Y80828D01*
X86486Y77088D02*
X87042Y77644D01*
X86542Y78668D02*
Y80828D01*
X85978Y78104D02*
X86542Y78668D01*
X88042Y78771D02*
Y80828D01*
X92542Y78906D02*
X92963Y78485D01*
X93979*
X94686Y77778D02*
X97592D01*
X93979Y78485D02*
X94686Y77778D01*
X92542Y78906D02*
Y80828D01*
X92042Y77278D02*
Y80828D01*
Y65728D02*
Y77278D01*
X97592*
X85042Y62563D02*
Y67938D01*
X82492Y73778D02*
X84454D01*
Y74778*
X82492D02*
X84454D01*
X86699Y69595D02*
X92042D01*
X85042Y67938D02*
X86699Y69595D01*
X92042Y68778D02*
X97592D01*
X84454Y73778D02*
X92034D01*
X82492Y72778D02*
X86097D01*
X95312Y69278D02*
X97592D01*
X94233Y70357D02*
X95312Y69278D01*
X85042Y77262D02*
Y80828D01*
Y77262D02*
X86613Y75691D01*
X89280*
X84542Y77000D02*
Y80828D01*
X86740Y74802D02*
X90169D01*
X84542Y77000D02*
X86740Y74802D01*
X115188Y63120D02*
Y65673D01*
X102227Y68794D02*
X103377Y67644D01*
X97592Y68794D02*
X102227D01*
X74737Y87502D02*
Y88518D01*
X70865Y87502D02*
X77723D01*
X74548Y66293D02*
X77033Y68778D01*
X78104Y66293D02*
X80089Y68278D01*
X82492*
X77033Y68778D02*
X82492D01*
X51013Y86272D02*
X53426D01*
X55117Y84581*
Y77060D02*
Y84581D01*
X82549Y57784D02*
X86042Y61277D01*
X83311Y59308D02*
X85542Y61539D01*
Y65728*
X86042Y61277D02*
Y65728D01*
X84327Y61848D02*
X85042Y62563D01*
X55563Y97154D02*
X56895D01*
X55563Y95757D02*
X56895D01*
X57149Y96011*
X56895Y97154D02*
X57149Y96900D01*
X68198Y81787D02*
Y96011D01*
X67690Y81533D02*
Y94868D01*
X67309Y95249D02*
X67690Y94868D01*
X57149Y96900D02*
X67309D01*
X86994*
X142747Y87694D02*
Y88327D01*
Y88961*
X146100Y87045D02*
Y87705D01*
X145478Y88327D02*
X146100Y87705D01*
X142747Y88327D02*
X145478D01*
X147000Y87694D02*
X147573D01*
X146100Y88594D02*
X147000Y87694D01*
X146100Y88594D02*
Y89458D01*
X142747Y86294D02*
X143698D01*
X144220Y86816*
Y87045*
X145160Y90361D02*
X147573D01*
X145160Y89458D02*
Y90361D01*
X119125Y76769D02*
X120076D01*
X121538Y80836D02*
X123951D01*
X119125Y78802D02*
X121855D01*
X122478Y78180*
Y77520D02*
Y78180D01*
Y79069D02*
Y79933D01*
Y79069D02*
X123378Y78169D01*
X123951*
X137286Y90386D02*
X139699D01*
X138226Y88620D02*
Y89483D01*
Y88620D02*
X139126Y87719D01*
X139699*
X134873Y88353D02*
X137604D01*
X138226Y87731*
Y87070D02*
Y87731D01*
X134873Y86319D02*
X135824D01*
X126999Y76769D02*
X127950D01*
X130352Y77520D02*
Y78180D01*
X129729Y78802D02*
X130352Y78180D01*
X126999Y78802D02*
X129729D01*
X131252Y78169D02*
X131825D01*
X130352Y79069D02*
X131252Y78169D01*
X130352Y79069D02*
Y79933D01*
X129412Y80836D02*
X131825D01*
X129412Y90361D02*
X131825D01*
X130352Y88594D02*
Y89458D01*
Y88594D02*
X131252Y87694D01*
X131825*
X126999Y88327D02*
X129729D01*
X130352Y87705*
Y87045D02*
Y87705D01*
X126999Y86294D02*
X127950D01*
X121538Y90361D02*
X123951D01*
X122478Y88594D02*
Y89458D01*
Y88594D02*
X123378Y87694D01*
X123951*
X119125Y88327D02*
X121855D01*
X122478Y87705*
Y87045D02*
Y87705D01*
X119125Y86294D02*
X120076D01*
X106004Y70778D02*
X106241Y70541D01*
X139253Y78169D02*
X139826D01*
X138353Y79069D02*
X139253Y78169D01*
X138353Y79069D02*
Y79933D01*
Y77520D02*
Y78180D01*
X137731Y78802D02*
X138353Y78180D01*
X135000Y78802D02*
X137731D01*
X135000Y76769D02*
X135951D01*
X137413Y80836D02*
X139826D01*
X145287D02*
X147700D01*
X142874Y76769D02*
X143825D01*
X142874Y78802D02*
X145604D01*
X146227Y78180*
Y77520D02*
Y78180D01*
Y79069D02*
Y79933D01*
Y79069D02*
X147127Y78169D01*
X147700*
X121538Y86105D02*
Y87045D01*
Y76580D02*
Y77520D01*
X129412Y76580D02*
Y77520D01*
Y86105D02*
Y87045D01*
X137286Y86130D02*
Y87070D01*
X137413Y76580D02*
Y77520D01*
X145287Y76580D02*
Y77520D01*
X145160Y86105D02*
Y87045D01*
X137286Y86105D02*
Y86130D01*
X137159Y85978D02*
X137286Y86105D01*
X85851Y85089D02*
X88391Y87629D01*
X89915*
Y86232D02*
X92042Y84105D01*
X89915Y86232D02*
Y87629D01*
Y87756*
Y87691D02*
X91439D01*
X96138Y86867D02*
Y88453D01*
Y86867D02*
D01*
X97408Y86232D02*
Y88453D01*
Y86232D02*
D01*
X98678Y85597D02*
Y88453D01*
Y85597D02*
D01*
X99948Y84962D02*
Y88453D01*
Y84962D02*
D01*
X102488Y83692D02*
Y88453D01*
Y83692D02*
D01*
X93042Y80828D02*
Y83771D01*
X96138Y86867*
X93542Y80828D02*
Y83509D01*
X96265Y86232*
X97408*
X94042Y80828D02*
Y83247D01*
X96392Y85597*
X98678*
X94542Y80828D02*
Y82985D01*
X96519Y84962*
X99948*
X95042Y80828D02*
Y82723D01*
X96646Y84327*
X101218*
X95542Y80828D02*
Y82461D01*
X96773Y83692*
X102488*
X96042Y80828D02*
Y82199D01*
X96900Y83057*
X103758*
X97592Y79309D02*
X99502D01*
X102615Y82422*
X105028*
X103758Y83057D02*
Y88453D01*
Y83057D02*
D01*
X105028Y82422D02*
Y88453D01*
Y82422D02*
D01*
X116839Y96900D02*
X146684D01*
X116839Y96011D02*
X146684D01*
X86994Y96900D02*
X116839D01*
X57149Y96011D02*
X68198D01*
X86994*
X116839*
X144906Y61721D02*
X145033Y61594D01*
X150305Y63767D02*
X150321Y63783D01*
X139002Y56706D02*
X139064Y56768D01*
X114045Y78866D02*
D01*
X86899Y89153D02*
X89915D01*
X88264Y68071D02*
X90931D01*
X86542Y65728D02*
Y67365D01*
X87248Y68071*
X88264*
X90931Y67817D02*
Y68071D01*
Y67817D02*
X91542Y67206D01*
Y65728D02*
Y67206D01*
X121792Y71438D02*
X121854Y71500D01*
X101218Y84327D02*
Y88453D01*
Y84327D02*
D01*
X110810Y76726D02*
Y79087D01*
Y76726D02*
X111402Y76134D01*
X114045*
X54101Y93979D02*
Y97154D01*
G54D30*
X48132Y57022D02*
X49656Y55498D01*
X56768D01*
X140944Y101980D02*
X144093Y105130D01*
Y108203*
X136473Y105180D02*
X139674Y101980D01*
X136473Y105180D02*
Y108203D01*
X140944Y103250D02*
X142849Y105155D01*
Y109498*
X144093Y110743*
X137769Y105155D02*
X139674Y103250D01*
X137769Y105155D02*
Y109473D01*
X136499Y110743D02*
X137769Y109473D01*
X111099Y101980D02*
X114248Y105130D01*
Y108203*
X106628Y105180D02*
X109829Y101980D01*
X106628Y105180D02*
Y108203D01*
X111099Y103250D02*
X113004Y105155D01*
Y109498*
X114248Y110743*
X107924Y105155D02*
X109829Y103250D01*
X107924Y105155D02*
Y109473D01*
X106654Y110743D02*
X107924Y109473D01*
X81254Y101980D02*
X84403Y105130D01*
Y108203*
X76783Y105180D02*
X79984Y101980D01*
X76783Y105180D02*
Y108203D01*
X81254Y103250D02*
X83159Y105155D01*
Y109498*
X84403Y110743*
X78079Y105155D02*
X79984Y103250D01*
X78079Y105155D02*
Y109473D01*
X76809Y110743D02*
X78079Y109473D01*
X51409Y101980D02*
X54558Y105130D01*
Y108203*
X46938Y105180D02*
X50139Y101980D01*
X46938Y105180D02*
Y108203D01*
X51409Y103250D02*
X53314Y105155D01*
Y109498*
X54558Y110743*
X48234Y105155D02*
X50139Y103250D01*
X48234Y105155D02*
Y109473D01*
X46964Y110743D02*
X48234Y109473D01*
X105409Y63180D02*
X107568D01*
X131952Y45084D02*
Y46862D01*
X137032Y45084D02*
Y46862D01*
X56768Y58546D02*
X66609D01*
X58292Y45084D02*
Y46608D01*
X78612Y45084D02*
Y46608D01*
X83692Y45084D02*
Y46608D01*
X88725Y55117D02*
X90358D01*
X91758Y53593D02*
Y55117D01*
X145033Y61594D02*
X148905D01*
X150305D02*
Y63767D01*
X150321Y65033D02*
X154125D01*
X154177Y66585D02*
Y68287D01*
X150321Y67533D02*
Y68852D01*
Y66283D02*
X151754D01*
X152399Y66928*
X142503Y65033D02*
X144571D01*
X141542Y61848D02*
Y64072D01*
X142503Y65033*
X140142Y61848D02*
Y68197D01*
X130110Y68198D02*
Y68516D01*
X139002Y51053D02*
Y56706D01*
X150321Y68852D02*
X150937Y69468D01*
X152399Y66928D02*
Y70230D01*
X151891Y70738D02*
X152399Y70230D01*
X148146Y70738D02*
X151891D01*
X109027Y68198D02*
X119252D01*
X105409Y64580D02*
X109027Y68198D01*
X103377Y64580D02*
X105409D01*
X103377Y64642D02*
Y66228D01*
Y66243*
X121792Y68198D02*
Y71438D01*
X154177Y63310D02*
Y64981D01*
X154125Y65033D02*
X154177Y64981D01*
G54D31*
X103377Y48132D02*
Y53593D01*
Y48132D02*
X106171Y45338D01*
X126237*
X127761Y46862*
X131952*
X137032*
X140969*
X142747Y45084*
X140588Y56768D02*
X143128D01*
X144271Y57911*
X129158Y58673D02*
X130110D01*
Y68198*
G54D32*
X49148Y45084D02*
X53085D01*
X54609Y46608*
X56768*
Y55498*
Y46608D02*
X58292D01*
X78612*
X83692*
Y48005*
X89280Y53593*
X103377*
X70067Y61848D02*
Y69341D01*
Y72770*
X62124Y61848D02*
X65578D01*
X56768D02*
X60313D01*
X56768Y55498D02*
Y58546D01*
Y61848*
X54101Y93979D02*
X58038Y90042D01*
X56768Y61848D02*
Y69087D01*
X58038Y70357*
Y90042*
X66039*
X130110Y68516D02*
X134238Y72643D01*
X103377Y53609D02*
Y64580D01*
Y64642*
X114045Y77534D02*
Y78866D01*
Y91185*
X117093Y94233*
X134238Y72643D02*
X152653D01*
X49148Y45084D02*
Y46608D01*
X38226D02*
X39750Y45084D01*
X49148*
X52069Y93979D02*
X54101D01*
X51013Y91272D02*
Y92923D01*
X52069Y93979*
X154177Y69887D02*
Y71119D01*
X152653Y72643D02*
X154177Y71119D01*
G54D33*
X144220Y89458D02*
X145160D01*
G54D34*
X121792Y68198D02*
X130110D01*
G54D35*
X154621Y54038D03*
G54D36*
X157987Y59308D03*
G54D37*
X142747Y88327D03*
X119125Y78802D03*
X134873Y88353D03*
X126999Y78802D03*
Y88327D03*
X119125D03*
X135000Y78802D03*
X142874D03*
G54D38*
X144525Y90296D03*
X120903Y80771D03*
X128777D03*
Y90296D03*
X120903D03*
X136778Y80771D03*
X144652D03*
G54D39*
X142938Y90804D03*
X119315Y81279D03*
X135063Y90829D03*
X127189Y81279D03*
Y90804D03*
X119315D03*
X135190Y81279D03*
X143065D03*
G54D40*
X144144Y86486D03*
X120522Y76961D03*
X136270Y86486D03*
X128396Y76961D03*
Y86486D03*
X120522D03*
X136397Y76961D03*
G54D41*
X136651Y90309D03*
G54D42*
X136143Y84454D03*
Y74929D03*
G54D43*
X144207Y76961D03*
G54D44*
X151002Y80009D03*
G54D45*
X155701Y76008D03*
G54D46*
X157987Y69976D03*
G54D47*
X153542Y58673D03*
G54D48*
X144525Y60705D03*
G54D49*
X146684Y58673D03*
G54D50*
X142112Y66293D03*
G54D51*
X140144Y68007D03*
G54D52*
X118173Y84454D03*
Y74929D03*
G54D53*
X117157Y79437D03*
G54D54*
X62610Y72770D03*
G54D55*
X61086Y84708D03*
X62356Y92963D03*
X70357Y91947D03*
X65404Y101472D03*
X80644Y99948D03*
X94868Y100710D03*
X127126Y100964D03*
X140334Y99948D03*
X135127Y68198D03*
X144017Y70738D03*
G54D56*
X110552Y99313D03*
G54D57*
X133349Y91312D03*
X141223D03*
X125475D03*
X125221Y82422D03*
X133476Y81533D03*
X141350D03*
G54D58*
X50735Y99250D03*
G54D59*
X40512Y62102D03*
X51561D03*
X41782Y62483D03*
X43052D03*
X45592D03*
X46862D03*
X44195Y67309D03*
X42925D03*
X42673Y68452D03*
X41782Y69214D03*
X40069Y69403D03*
X47878Y69341D03*
X51180Y71754D03*
X52958D03*
X49402Y70992D03*
X43052Y73024D03*
X43687Y74802D03*
X45592Y72897D03*
X48259Y66547D03*
X53847Y73659D03*
X55752Y75057D03*
X51053Y76326D03*
X49529Y80644D03*
X45211Y74802D03*
X44231Y77560D03*
X38353Y76199D03*
X46227Y77088D03*
X43687Y84454D03*
X44703Y83692D03*
X46100Y82295D03*
X56387Y76199D03*
X55117Y77088D03*
X57149Y96011D03*
Y96900D03*
X86994D03*
Y96011D03*
X68198D03*
X67309Y95249D03*
Y96900D03*
X121538Y86105D03*
Y76580D03*
X129412D03*
Y86105D03*
X137286Y86130D03*
X137413Y76580D03*
X145287D03*
X145160Y86105D03*
X96138Y86867D03*
X97408Y86232D03*
X98678Y85597D03*
X99948Y84962D03*
X101218Y84327D03*
X102488Y83692D03*
X103758Y83057D03*
X105028Y82422D03*
X116839Y96011D03*
Y96900D03*
X146684Y96011D03*
Y96900D03*
G54D60*
X106679Y72643D03*
X112210Y77342D03*
X106241Y70541D03*
X106679Y74929D03*
X70357Y59308D03*
Y57784D03*
X140944Y101980D03*
X139674D03*
X140944Y103250D03*
X139674D03*
X111099Y101980D03*
X109829D03*
X111099Y103250D03*
X109829D03*
X81254Y101980D03*
X79984D03*
X81254Y103250D03*
X79984D03*
X51409Y101980D03*
X50139D03*
X51409Y103250D03*
X50139D03*
X115188Y61213D03*
X116458D03*
X80517Y60705D03*
X81787D03*
X88725Y55117D03*
X58038Y48513D03*
X43687Y86232D03*
X53212Y84073D03*
X66547Y70357D03*
X76453Y71247D03*
X75310Y70230D03*
X74040D03*
X79628Y73301D03*
X81152Y66674D03*
X80009D03*
X73786Y74040D03*
X74929D03*
X73151Y82422D03*
X73024Y84962D03*
X76199Y82549D03*
X77977Y81660D03*
X85978Y87121D03*
X89915Y84454D03*
X86994Y83311D03*
X86867Y84581D03*
X87756Y85470D03*
X90931Y83438D03*
X91058Y76580D03*
X90169Y77342D03*
X86486Y77088D03*
X85978Y78104D03*
X88010Y78739D03*
X93979Y78485D03*
X86105Y72770D03*
X94233Y70357D03*
X89280Y75691D03*
X90169Y74802D03*
X115188Y65673D03*
X103377Y77723D03*
X66547Y80644D03*
X69722Y82422D03*
X74548Y66293D03*
X78104D03*
X84327Y61848D03*
X125221Y82422D03*
X125475Y91312D03*
X133349D03*
X141223D03*
X133476Y81533D03*
X141350D03*
X88264Y68071D03*
G54D61*
X32892Y46354D03*
Y111378D03*
X157987D03*
Y46354D03*
G54D62*
X41884Y108203D03*
X101574D03*
X131419D03*
X71729D03*
X121792Y68198D03*
G54D63*
X41884Y110743D03*
X44424Y108203D03*
Y110743D03*
X46964Y108203D03*
Y110743D03*
X49504Y108203D03*
Y110743D03*
X52044Y108203D03*
Y110743D03*
X54584Y108203D03*
Y110743D03*
X57124Y108203D03*
Y110743D03*
X59664Y108203D03*
Y110743D03*
X101574D03*
X104114Y108203D03*
Y110743D03*
X106654Y108203D03*
Y110743D03*
X109194Y108203D03*
Y110743D03*
X111734Y108203D03*
Y110743D03*
X114274Y108203D03*
Y110743D03*
X116814Y108203D03*
Y110743D03*
X119354Y108203D03*
Y110743D03*
X131419D03*
X133959Y108203D03*
Y110743D03*
X136499Y108203D03*
Y110743D03*
X139039Y108203D03*
Y110743D03*
X141579Y108203D03*
Y110743D03*
X144119Y108203D03*
Y110743D03*
X146659Y108203D03*
Y110743D03*
X149199Y108203D03*
Y110743D03*
X71729D03*
X74269Y108203D03*
Y110743D03*
X76809Y108203D03*
Y110743D03*
X79349Y108203D03*
Y110743D03*
X81889Y108203D03*
Y110743D03*
X84429Y108203D03*
Y110743D03*
X86969Y108203D03*
Y110743D03*
X89509Y108203D03*
Y110743D03*
X156717Y91718D03*
X154177Y89178D03*
X156717D03*
X154177Y86638D03*
X156717D03*
X154177Y84098D03*
X156717D03*
X158622Y56768D03*
X119252Y68198D03*
G54D64*
X88200Y45592D03*
X92772D03*
X49148Y46608D03*
X51688D03*
X40766D03*
X38226D03*
X68452Y52640D03*
X65912D03*
Y54673D03*
X128269Y58673D03*
X125475D03*
X139064Y56768D03*
X136270D03*
X103377Y53593D03*
X80644Y99948D03*
X50799Y99313D03*
X110489D03*
X140334Y99948D03*
X144017Y70738D03*
X135127Y68198D03*
X62356Y92963D03*
X70357Y91947D03*
X61086Y84708D03*
X94868Y100710D03*
X65404Y101472D03*
X127126Y100964D03*
G54D65*
X86931Y48132D03*
X93915D03*
X147446Y65658D03*
G54D66*
X39242Y59562D03*
X40512Y57022D03*
X41782Y59562D03*
X43052Y57022D03*
X44322Y59562D03*
X46862D03*
X49402D03*
X45592Y57022D03*
X48132D03*
X50672D03*
X86899Y89153D03*
G54D67*
X53212Y53720D03*
X36702D03*
G54D68*
X68452Y54673D03*
G54D69*
X73532Y49973D03*
X60832D03*
G54D70*
X58292Y45084D03*
X55752D03*
X83692D03*
X81152D03*
X78612D03*
X76072D03*
X131952D03*
X129412D03*
X137032D03*
X134492D03*
X142747D03*
X140207D03*
G54D71*
X106092Y50543D03*
X107477Y47703D03*
X108862Y50543D03*
X110247Y47703D03*
X111632Y50543D03*
X113017Y47703D03*
X114402Y50543D03*
X115787Y47703D03*
G54D72*
X117172Y50543D03*
G54D73*
X124127Y49123D03*
X99137D03*
G54D74*
X149668Y47306D03*
X154114Y50354D03*
X149668Y53529D03*
G54D75*
X62623Y72770D03*
X70123D03*
G54D76*
X154177Y91718D03*
X158622Y54228D03*
G54D77*
X103377Y64642D03*
X77596Y89280D03*
X86899Y89153D03*
X54101Y93979D03*
X144271Y91058D03*
X120649Y81533D03*
X136397Y91083D03*
X128523Y81533D03*
Y91058D03*
X120649D03*
X136524Y81533D03*
X144398D03*
X114045Y78866D03*
X117093Y94233D03*
M02*