%FSLAX43Y43*%
%MOMM*%
%SFA1B1*%

%IPPOS*%
%ADD90C,0.100000*%
%LNlp_led_cube_8x8x8-1*%
%LPD*%
G54D90*
X49562Y68452D02*
X50512D01*
X50037Y67977D02*
Y68927D01*
X50587Y67252D02*
Y69652D01*
X49487Y67252D02*
Y69652D01*
Y67252D02*
X50587D01*
X49487Y69652D02*
X50587D01*
X52831Y66580D02*
Y67530D01*
X52356Y67055D02*
X53306D01*
X51631Y66505D02*
X54031D01*
X51631Y67605D02*
X54031D01*
Y66505D02*
Y67605D01*
X51631Y66505D02*
Y67605D01*
X52831Y67977D02*
Y68927D01*
X52356Y68452D02*
X53306D01*
X51631Y69002D02*
X54031D01*
X51631Y67902D02*
X54031D01*
X51631D02*
Y69002D01*
X54031Y67902D02*
Y69002D01*
X52831Y69374D02*
Y70324D01*
X52356Y69849D02*
X53306D01*
X51631Y70399D02*
X54031D01*
X51631Y69299D02*
X54031D01*
X51631D02*
Y70399D01*
X54031Y69299D02*
Y70399D01*
X45244Y54228D02*
X46194D01*
X45719Y53753D02*
Y54703D01*
X45169Y53028D02*
Y55428D01*
X46269Y53028D02*
Y55428D01*
X45169D02*
X46269D01*
X45169Y53028D02*
X46269D01*
X37497Y70103D02*
X38447D01*
X37972Y69628D02*
Y70578D01*
X37422Y68903D02*
Y71303D01*
X38522Y68903D02*
Y71303D01*
X37422Y68903D02*
X38522D01*
X37422Y71303D02*
X38522D01*
X42577Y64388D02*
X43527D01*
X43052Y63913D02*
Y64863D01*
X43602Y63188D02*
Y65588D01*
X42502Y63188D02*
Y65588D01*
X43602*
X42502Y63188D02*
X43602D01*
X41307Y64388D02*
X42257D01*
X41782Y63913D02*
Y64863D01*
X42332Y63188D02*
Y65588D01*
X41232Y63188D02*
Y65588D01*
X42332*
X41232Y63188D02*
X42332D01*
X38767Y64388D02*
X39717D01*
X39242Y63913D02*
Y64863D01*
X38692Y63188D02*
Y65588D01*
X39792Y63188D02*
Y65588D01*
X38692Y63188D02*
X39792D01*
X38692Y65588D02*
X39792D01*
X37497Y64388D02*
X38447D01*
X37972Y63913D02*
Y64863D01*
X37422Y63188D02*
Y65588D01*
X38522Y63188D02*
Y65588D01*
X37422Y63188D02*
X38522D01*
X37422Y65588D02*
X38522D01*
X47784Y64388D02*
X48734D01*
X48259Y63913D02*
Y64863D01*
X47709Y63188D02*
Y65588D01*
X48809Y63188D02*
Y65588D01*
X47709D02*
X48809D01*
X47709Y63188D02*
X48809D01*
X46387Y64388D02*
X47337D01*
X46862Y63913D02*
Y64863D01*
X47412Y63188D02*
Y65588D01*
X46312Y63188D02*
Y65588D01*
X47412*
X46312Y63188D02*
X47412D01*
X45117Y64388D02*
X46067D01*
X45592Y63913D02*
Y64863D01*
X46142Y63188D02*
Y65588D01*
X45042Y63188D02*
Y65588D01*
X46142*
X45042Y63188D02*
X46142D01*
X43847Y54228D02*
X44797D01*
X44322Y53753D02*
Y54703D01*
X43772Y53028D02*
Y55428D01*
X44872Y53028D02*
Y55428D01*
X43772D02*
X44872D01*
X43772Y53028D02*
X44872D01*
X47657Y64388D02*
X48607D01*
X48132Y63913D02*
Y64863D01*
X48682Y63188D02*
Y65588D01*
X47582Y63188D02*
Y65588D01*
X48682*
X47582Y63188D02*
X48682D01*
X40672Y85216D02*
X41622D01*
X41147Y84741D02*
Y85691D01*
X41697Y84016D02*
Y86416D01*
X40597Y84016D02*
Y86416D01*
X41697*
X40597Y84016D02*
X41697D01*
X113570Y74040D02*
X114520D01*
X114045Y73565D02*
Y74515D01*
X114595Y72840D02*
Y75240D01*
X113495Y72840D02*
Y75240D01*
X114595*
X113495Y72840D02*
X114595D01*
X113570Y76834D02*
X114520D01*
X114045Y76359D02*
Y77309D01*
X114595Y75634D02*
Y78034D01*
X113495Y75634D02*
Y78034D01*
X114595*
X113495Y75634D02*
X114595D01*
X72262Y57309D02*
Y58259D01*
X71787Y57784D02*
X72737D01*
X71062Y58334D02*
X73462D01*
X71062Y57234D02*
X73462D01*
Y58334*
X71062Y57234D02*
Y58334D01*
X72262Y58833D02*
Y59783D01*
X71787Y59308D02*
X72737D01*
X71062Y59858D02*
X73462D01*
X71062Y58758D02*
X73462D01*
Y59858*
X71062Y58758D02*
Y59858D01*
X67309Y58071D02*
Y59021D01*
X66834Y58546D02*
X67784D01*
X66109Y57996D02*
X68509D01*
X66109Y59096D02*
X68509D01*
Y57996D02*
Y59096D01*
X66109Y57996D02*
Y59096D01*
X68452Y58833D02*
Y59783D01*
X67977Y59308D02*
X68927D01*
X67252Y58758D02*
X69652D01*
X67252Y59858D02*
X69652D01*
X67252Y58758D02*
Y59858D01*
X69652Y58758D02*
Y59858D01*
X68452Y57309D02*
Y58259D01*
X67977Y57784D02*
X68927D01*
X67252Y57234D02*
X69652D01*
X67252Y58334D02*
X69652D01*
X67252Y57234D02*
Y58334D01*
X69652Y57234D02*
Y58334D01*
X50926Y93377D02*
Y94327D01*
X50451Y93852D02*
X51401D01*
X49726Y94402D02*
X52126D01*
X49726Y93302D02*
X52126D01*
Y94402*
X49726Y93302D02*
Y94402D01*
X80771Y93377D02*
Y94327D01*
X80296Y93852D02*
X81246D01*
X79571Y94402D02*
X81971D01*
X79571Y93302D02*
X81971D01*
Y94402*
X79571Y93302D02*
Y94402D01*
X140461Y93377D02*
Y94327D01*
X139986Y93852D02*
X140936D01*
X139261Y93302D02*
X141661D01*
X139261Y94402D02*
X141661D01*
X139261Y93302D02*
Y94402D01*
X141661Y93302D02*
Y94402D01*
X110616Y93377D02*
Y94327D01*
X110141Y93852D02*
X111091D01*
X109416Y93302D02*
X111816D01*
X109416Y94402D02*
X111816D01*
X109416Y93302D02*
Y94402D01*
X111816Y93302D02*
Y94402D01*
X90042Y72778D02*
Y73778D01*
X89542Y73278D02*
X90542D01*
X81342Y64578D02*
X98742D01*
X81342Y81978D02*
X98742D01*
Y64578D02*
Y81978D01*
X81342Y64578D02*
Y81978D01*
X61213Y61348D02*
Y62348D01*
X60713Y61848D02*
X61713D01*
X59463Y62798D02*
X62963D01*
X59463Y60898D02*
X62963D01*
X59463D02*
Y62798D01*
X62963Y60898D02*
Y62798D01*
X106763Y56955D02*
X117263D01*
X106763Y64455D02*
X117263D01*
X106763Y56955D02*
Y64455D01*
X117263Y56955D02*
Y64455D01*
X112013Y60205D02*
Y61205D01*
X111513Y60705D02*
X112513D01*
X149605Y61119D02*
Y62069D01*
X149130Y61594D02*
X150080D01*
X148405Y62144D02*
X150805D01*
X148405Y61044D02*
X150805D01*
X148405D02*
Y62144D01*
X150805Y61044D02*
Y62144D01*
X153702Y62610D02*
X154652D01*
X154177Y62135D02*
Y63085D01*
X154727Y61410D02*
Y63810D01*
X153627Y61410D02*
Y63810D01*
X154727*
X153627Y61410D02*
X154727D01*
X151637Y68993D02*
Y69943D01*
X151162Y69468D02*
X152112D01*
X150437Y68918D02*
X152837D01*
X150437Y70018D02*
X152837D01*
Y68918D02*
Y70018D01*
X150437Y68918D02*
Y70018D01*
X139732Y47878D02*
X140682D01*
X140207Y47403D02*
Y48353D01*
X140757Y46678D02*
Y49078D01*
X139657Y46678D02*
Y49078D01*
Y46678D02*
X140757D01*
X139657Y49078D02*
X140757D01*
X147446Y70263D02*
Y71213D01*
X146971Y70738D02*
X147921D01*
X146246Y71288D02*
X148646D01*
X146246Y70188D02*
X148646D01*
X146246D02*
Y71288D01*
X148646Y70188D02*
Y71288D01*
X138302Y50578D02*
Y51528D01*
X137827Y51053D02*
X138777D01*
X137102Y51603D02*
X139502D01*
X137102Y50503D02*
X139502D01*
X137102D02*
Y51603D01*
X139502Y50503D02*
Y51603D01*
X140842Y61373D02*
Y62323D01*
X140367Y61848D02*
X141317D01*
X139642Y62398D02*
X142042D01*
X139642Y61298D02*
X142042D01*
X139642D02*
Y62398D01*
X142042Y61298D02*
Y62398D01*
X122554Y71025D02*
Y71975D01*
X122079Y71500D02*
X123029D01*
X121354Y70950D02*
X123754D01*
X121354Y72050D02*
X123754D01*
Y70950D02*
Y72050D01*
X121354Y70950D02*
Y72050D01*
X108838Y55023D02*
Y55973D01*
X108363Y55498D02*
X109313D01*
X107638Y56048D02*
X110038D01*
X107638Y54948D02*
X110038D01*
X107638D02*
Y56048D01*
X110038Y54948D02*
Y56048D01*
X112013Y55023D02*
Y55973D01*
X111538Y55498D02*
X112488D01*
X110813Y56048D02*
X113213D01*
X110813Y54948D02*
X113213D01*
X110813D02*
Y56048D01*
X113213Y54948D02*
Y56048D01*
X104934Y60959D02*
X105884D01*
X105409Y60484D02*
Y61434D01*
X105959Y59759D02*
Y62159D01*
X104859Y59759D02*
Y62159D01*
X105959*
X104859Y59759D02*
X105959D01*
X117888Y60959D02*
X118838D01*
X118363Y60484D02*
Y61434D01*
X117813Y59759D02*
Y62159D01*
X118913Y59759D02*
Y62159D01*
X117813Y59759D02*
X118913D01*
X117813Y62159D02*
X118913D01*
X128937Y47878D02*
X129887D01*
X129412Y47403D02*
Y48353D01*
X129962Y46678D02*
Y49078D01*
X128862Y46678D02*
Y49078D01*
Y46678D02*
X129962D01*
X128862Y49078D02*
X129962D01*
X131477Y47878D02*
X132427D01*
X131952Y47403D02*
Y48353D01*
X132502Y46678D02*
Y49078D01*
X131402Y46678D02*
Y49078D01*
Y46678D02*
X132502D01*
X131402Y49078D02*
X132502D01*
X104934Y63880D02*
X105884D01*
X105409Y63405D02*
Y64355D01*
X105959Y62680D02*
Y65080D01*
X104859Y62680D02*
Y65080D01*
X105959*
X104859Y62680D02*
X105959D01*
X78137Y47878D02*
X79087D01*
X78612Y47403D02*
Y48353D01*
X79162Y46678D02*
Y49078D01*
X78062Y46678D02*
Y49078D01*
Y46678D02*
X79162D01*
X78062Y49078D02*
X79162D01*
X80677Y47878D02*
X81627D01*
X81152Y47403D02*
Y48353D01*
X81702Y46678D02*
Y49078D01*
X80602Y46678D02*
Y49078D01*
Y46678D02*
X81702D01*
X80602Y49078D02*
X81702D01*
X55277Y47878D02*
X56227D01*
X55752Y47403D02*
Y48353D01*
X56302Y46678D02*
Y49078D01*
X55202Y46678D02*
Y49078D01*
Y46678D02*
X56302D01*
X55202Y49078D02*
X56302D01*
X83852Y59054D02*
X84802D01*
X84327Y58579D02*
Y59529D01*
X84877Y57854D02*
Y60254D01*
X83777Y57854D02*
Y60254D01*
Y57854D02*
X84877D01*
X83777Y60254D02*
X84877D01*
X91058Y54642D02*
Y55592D01*
X90583Y55117D02*
X91533D01*
X89858Y55667D02*
X92258D01*
X89858Y54567D02*
X92258D01*
X89858D02*
Y55667D01*
X92258Y54567D02*
Y55667D01*
X74548Y61119D02*
Y62069D01*
X74073Y61594D02*
X75023D01*
X73348Y62144D02*
X75748D01*
X73348Y61044D02*
X75748D01*
Y62144*
X73348Y61044D02*
Y62144D01*
X78104Y61119D02*
Y62069D01*
X77629Y61594D02*
X78579D01*
X76904Y61044D02*
X79304D01*
X76904Y62144D02*
X79304D01*
X76904Y61044D02*
Y62144D01*
X79304Y61044D02*
Y62144D01*
X65785Y61627D02*
Y62577D01*
X65310Y62102D02*
X66260D01*
X64585Y62652D02*
X66985D01*
X64585Y61552D02*
X66985D01*
Y62652*
X64585Y61552D02*
Y62652D01*
X70357Y61627D02*
Y62577D01*
X69882Y62102D02*
X70832D01*
X69157Y61552D02*
X71557D01*
X69157Y62652D02*
X71557D01*
X69157Y61552D02*
Y62652D01*
X71557Y61552D02*
Y62652D01*
X42577Y49021D02*
X43527D01*
X43052Y48546D02*
Y49496D01*
X42502Y47821D02*
Y50221D01*
X43602Y47821D02*
Y50221D01*
X42502D02*
X43602D01*
X42502Y47821D02*
X43602D01*
X46387Y49021D02*
X47337D01*
X46862Y48546D02*
Y49496D01*
X46312Y47821D02*
Y50221D01*
X47412Y47821D02*
Y50221D01*
X46312D02*
X47412D01*
X46312Y47821D02*
X47412D01*
X102902Y66928D02*
X103852D01*
X103377Y66453D02*
Y67403D01*
X103927Y65728D02*
Y68128D01*
X102827Y65728D02*
Y68128D01*
X103927*
X102827Y65728D02*
X103927D01*
X83598Y86613D02*
X84548D01*
X84073Y86138D02*
Y87088D01*
X84623Y85413D02*
Y87813D01*
X83523Y85413D02*
Y87813D01*
X84623*
X83523Y85413D02*
X84623D01*
X75724Y80263D02*
X76674D01*
X76199Y79788D02*
Y80738D01*
X76749Y79063D02*
Y81463D01*
X75649Y79063D02*
Y81463D01*
X76749*
X75649Y79063D02*
X76749D01*
X75437Y89567D02*
Y90517D01*
X74962Y90042D02*
X75912D01*
X74237Y89492D02*
X76637D01*
X74237Y90592D02*
X76637D01*
Y89492D02*
Y90592D01*
X74237Y89492D02*
Y90592D01*
X75437Y88043D02*
Y88993D01*
X74962Y88518D02*
X75912D01*
X74237Y87968D02*
X76637D01*
X74237Y89068D02*
X76637D01*
Y87968D02*
Y89068D01*
X74237Y87968D02*
Y89068D01*
X89440Y88391D02*
X90390D01*
X89915Y87916D02*
Y88866D01*
X89365Y87191D02*
Y89591D01*
X90465Y87191D02*
Y89591D01*
X89365Y87191D02*
X90465D01*
X89365Y89591D02*
X90465D01*
X90964Y88391D02*
X91914D01*
X91439Y87916D02*
Y88866D01*
X90889Y87191D02*
Y89591D01*
X91989Y87191D02*
Y89591D01*
X90889Y87191D02*
X91989D01*
X90889Y89591D02*
X91989D01*
X75437Y83471D02*
Y84421D01*
X74962Y83946D02*
X75912D01*
X74237Y83396D02*
X76637D01*
X74237Y84496D02*
X76637D01*
Y83396D02*
Y84496D01*
X74237Y83396D02*
Y84496D01*
X75437Y84868D02*
Y85818D01*
X74962Y85343D02*
X75912D01*
X74237Y84793D02*
X76637D01*
X74237Y85893D02*
X76637D01*
Y84793D02*
Y85893D01*
X74237Y84793D02*
Y85893D01*
X73438Y80263D02*
X74388D01*
X73913Y79788D02*
Y80738D01*
X73363Y79063D02*
Y81463D01*
X74463Y79063D02*
Y81463D01*
X73363Y79063D02*
X74463D01*
X73363Y81463D02*
X74463D01*
X88391Y72295D02*
Y73245D01*
X87916Y72770D02*
X88866D01*
X87191Y73320D02*
X89591D01*
X87191Y72220D02*
X89591D01*
Y73320*
X87191Y72220D02*
Y73320D01*
X50197Y64388D02*
X51147D01*
X50672Y63913D02*
Y64863D01*
X50122Y63188D02*
Y65588D01*
X51222Y63188D02*
Y65588D01*
X50122Y63188D02*
X51222D01*
X50122Y65588D02*
X51222D01*
X48927Y64388D02*
X49877D01*
X49402Y63913D02*
Y64863D01*
X49952Y63188D02*
Y65588D01*
X48852Y63188D02*
Y65588D01*
X49952*
X48852Y63188D02*
X49952D01*
X48767Y81693D02*
Y82643D01*
X48292Y82168D02*
X49242D01*
X47567Y82718D02*
X49967D01*
X47567Y81618D02*
X49967D01*
X47567D02*
Y82718D01*
X49967Y81618D02*
Y82718D01*
X55277Y72516D02*
X56227D01*
X55752Y72041D02*
Y72991D01*
X56302Y71316D02*
Y73716D01*
X55202Y71316D02*
Y73716D01*
X56302*
X55202Y71316D02*
X56302D01*
X39529Y64388D02*
X40479D01*
X40004Y63913D02*
Y64863D01*
X39454Y63188D02*
Y65588D01*
X40554Y63188D02*
Y65588D01*
X39454D02*
X40554D01*
X39454Y63188D02*
X40554D01*
X41785Y72528D02*
Y74028D01*
X38985Y72528D02*
Y74028D01*
X41785*
X38985Y72528D02*
X41785D01*
X39885Y73278D02*
X40885D01*
X40385Y72778D02*
Y73778D01*
X54863Y96679D02*
Y97629D01*
X54388Y97154D02*
X55338D01*
X53663Y96604D02*
X56063D01*
X53663Y97704D02*
X56063D01*
Y96604D02*
Y97704D01*
X53663Y96604D02*
Y97704D01*
X54863Y95282D02*
Y96232D01*
X54388Y95757D02*
X55338D01*
X53663Y95207D02*
X56063D01*
X53663Y96307D02*
X56063D01*
Y95207D02*
Y96307D01*
X53663Y95207D02*
Y96307D01*
X143585Y89077D02*
X146735D01*
Y87427D02*
Y89077D01*
X143585Y87427D02*
Y89077D01*
Y87427D02*
X146735D01*
X142272Y86994D02*
X143222D01*
X142747Y86519D02*
Y87469D01*
X142197Y85794D02*
Y88194D01*
X143297Y85794D02*
Y88194D01*
X142197Y85794D02*
X143297D01*
X142197Y88194D02*
X143297D01*
X147098Y86994D02*
X148048D01*
X147573Y86519D02*
Y87469D01*
X147023Y85794D02*
Y88194D01*
X148123Y85794D02*
Y88194D01*
X147023Y85794D02*
X148123D01*
X147023Y88194D02*
X148123D01*
X142272Y89661D02*
X143222D01*
X142747Y89186D02*
Y90136D01*
X142197Y88461D02*
Y90861D01*
X143297Y88461D02*
Y90861D01*
X142197Y88461D02*
X143297D01*
X142197Y90861D02*
X143297D01*
X147098Y89661D02*
X148048D01*
X147573Y89186D02*
Y90136D01*
X147023Y88461D02*
Y90861D01*
X148123Y88461D02*
Y90861D01*
X147023Y88461D02*
X148123D01*
X147023Y90861D02*
X148123D01*
X119963Y79552D02*
X123113D01*
Y77902D02*
Y79552D01*
X119963Y77902D02*
Y79552D01*
Y77902D02*
X123113D01*
X118650Y77469D02*
X119600D01*
X119125Y76994D02*
Y77944D01*
X118575Y76269D02*
Y78669D01*
X119675Y76269D02*
Y78669D01*
X118575Y76269D02*
X119675D01*
X118575Y78669D02*
X119675D01*
X118650Y80136D02*
X119600D01*
X119125Y79661D02*
Y80611D01*
X118575Y78936D02*
Y81336D01*
X119675Y78936D02*
Y81336D01*
X118575Y78936D02*
X119675D01*
X118575Y81336D02*
X119675D01*
X123476Y80136D02*
X124426D01*
X123951Y79661D02*
Y80611D01*
X123401Y78936D02*
Y81336D01*
X124501Y78936D02*
Y81336D01*
X123401Y78936D02*
X124501D01*
X123401Y81336D02*
X124501D01*
X123476Y77469D02*
X124426D01*
X123951Y76994D02*
Y77944D01*
X123401Y76269D02*
Y78669D01*
X124501Y76269D02*
Y78669D01*
X123401Y76269D02*
X124501D01*
X123401Y78669D02*
X124501D01*
X135711Y89102D02*
X138861D01*
Y87452D02*
Y89102D01*
X135711Y87452D02*
Y89102D01*
Y87452D02*
X138861D01*
X134398Y87019D02*
X135348D01*
X134873Y86544D02*
Y87494D01*
X134323Y85819D02*
Y88219D01*
X135423Y85819D02*
Y88219D01*
X134323Y85819D02*
X135423D01*
X134323Y88219D02*
X135423D01*
X139224Y87019D02*
X140174D01*
X139699Y86544D02*
Y87494D01*
X139149Y85819D02*
Y88219D01*
X140249Y85819D02*
Y88219D01*
X139149Y85819D02*
X140249D01*
X139149Y88219D02*
X140249D01*
X134398Y89686D02*
X135348D01*
X134873Y89211D02*
Y90161D01*
X134323Y88486D02*
Y90886D01*
X135423Y88486D02*
Y90886D01*
X134323Y88486D02*
X135423D01*
X134323Y90886D02*
X135423D01*
X139224Y89686D02*
X140174D01*
X139699Y89211D02*
Y90161D01*
X139149Y88486D02*
Y90886D01*
X140249Y88486D02*
Y90886D01*
X139149Y88486D02*
X140249D01*
X139149Y90886D02*
X140249D01*
X127837Y79552D02*
X130987D01*
Y77902D02*
Y79552D01*
X127837Y77902D02*
Y79552D01*
Y77902D02*
X130987D01*
X126524Y77469D02*
X127474D01*
X126999Y76994D02*
Y77944D01*
X126449Y76269D02*
Y78669D01*
X127549Y76269D02*
Y78669D01*
X126449Y76269D02*
X127549D01*
X126449Y78669D02*
X127549D01*
X131477Y77469D02*
X132427D01*
X131952Y76994D02*
Y77944D01*
X131402Y76269D02*
Y78669D01*
X132502Y76269D02*
Y78669D01*
X131402Y76269D02*
X132502D01*
X131402Y78669D02*
X132502D01*
X126524Y80136D02*
X127474D01*
X126999Y79661D02*
Y80611D01*
X126449Y78936D02*
Y81336D01*
X127549Y78936D02*
Y81336D01*
X126449Y78936D02*
X127549D01*
X126449Y81336D02*
X127549D01*
X131477Y80136D02*
X132427D01*
X131952Y79661D02*
Y80611D01*
X131402Y78936D02*
Y81336D01*
X132502Y78936D02*
Y81336D01*
X131402Y78936D02*
X132502D01*
X131402Y81336D02*
X132502D01*
X127837Y89077D02*
X130987D01*
Y87427D02*
Y89077D01*
X127837Y87427D02*
Y89077D01*
Y87427D02*
X130987D01*
X119963Y89077D02*
X123113D01*
Y87427D02*
Y89077D01*
X119963Y87427D02*
Y89077D01*
Y87427D02*
X123113D01*
X131350Y86994D02*
X132300D01*
X131825Y86519D02*
Y87469D01*
X131275Y85794D02*
Y88194D01*
X132375Y85794D02*
Y88194D01*
X131275Y85794D02*
X132375D01*
X131275Y88194D02*
X132375D01*
X126524Y89661D02*
X127474D01*
X126999Y89186D02*
Y90136D01*
X126449Y88461D02*
Y90861D01*
X127549Y88461D02*
Y90861D01*
X126449Y88461D02*
X127549D01*
X126449Y90861D02*
X127549D01*
X131350Y89661D02*
X132300D01*
X131825Y89186D02*
Y90136D01*
X131275Y88461D02*
Y90861D01*
X132375Y88461D02*
Y90861D01*
X131275Y88461D02*
X132375D01*
X131275Y90861D02*
X132375D01*
X126524Y86994D02*
X127474D01*
X126999Y86519D02*
Y87469D01*
X126449Y85794D02*
Y88194D01*
X127549Y85794D02*
Y88194D01*
X126449Y85794D02*
X127549D01*
X126449Y88194D02*
X127549D01*
X118650Y86994D02*
X119600D01*
X119125Y86519D02*
Y87469D01*
X118575Y85794D02*
Y88194D01*
X119675Y85794D02*
Y88194D01*
X118575Y85794D02*
X119675D01*
X118575Y88194D02*
X119675D01*
X123476Y89661D02*
X124426D01*
X123951Y89186D02*
Y90136D01*
X123401Y88461D02*
Y90861D01*
X124501Y88461D02*
Y90861D01*
X123401Y88461D02*
X124501D01*
X123401Y90861D02*
X124501D01*
X118650Y89661D02*
X119600D01*
X119125Y89186D02*
Y90136D01*
X118575Y88461D02*
Y90861D01*
X119675Y88461D02*
Y90861D01*
X118575Y88461D02*
X119675D01*
X118575Y90861D02*
X119675D01*
X123476Y86994D02*
X124426D01*
X123951Y86519D02*
Y87469D01*
X123401Y85794D02*
Y88194D01*
X124501Y85794D02*
Y88194D01*
X123401Y85794D02*
X124501D01*
X123401Y88194D02*
X124501D01*
X135838Y79552D02*
X138988D01*
Y77902D02*
Y79552D01*
X135838Y77902D02*
Y79552D01*
Y77902D02*
X138988D01*
X134525Y77469D02*
X135475D01*
X135000Y76994D02*
Y77944D01*
X134450Y76269D02*
Y78669D01*
X135550Y76269D02*
Y78669D01*
X134450Y76269D02*
X135550D01*
X134450Y78669D02*
X135550D01*
X139351Y77469D02*
X140301D01*
X139826Y76994D02*
Y77944D01*
X139276Y76269D02*
Y78669D01*
X140376Y76269D02*
Y78669D01*
X139276Y76269D02*
X140376D01*
X139276Y78669D02*
X140376D01*
X134525Y80136D02*
X135475D01*
X135000Y79661D02*
Y80611D01*
X134450Y78936D02*
Y81336D01*
X135550Y78936D02*
Y81336D01*
X134450Y78936D02*
X135550D01*
X134450Y81336D02*
X135550D01*
X139351Y80136D02*
X140301D01*
X139826Y79661D02*
Y80611D01*
X139276Y78936D02*
Y81336D01*
X140376Y78936D02*
Y81336D01*
X139276Y78936D02*
X140376D01*
X139276Y81336D02*
X140376D01*
X143712Y79552D02*
X146862D01*
Y77902D02*
Y79552D01*
X143712Y77902D02*
Y79552D01*
Y77902D02*
X146862D01*
X142399Y80136D02*
X143349D01*
X142874Y79661D02*
Y80611D01*
X142324Y78936D02*
Y81336D01*
X143424Y78936D02*
Y81336D01*
X142324Y78936D02*
X143424D01*
X142324Y81336D02*
X143424D01*
X142399Y77469D02*
X143349D01*
X142874Y76994D02*
Y77944D01*
X142324Y76269D02*
Y78669D01*
X143424Y76269D02*
Y78669D01*
X142324Y76269D02*
X143424D01*
X142324Y78669D02*
X143424D01*
X147225Y77469D02*
X148175D01*
X147700Y76994D02*
Y77944D01*
X147150Y76269D02*
Y78669D01*
X148250Y76269D02*
Y78669D01*
X147150Y76269D02*
X148250D01*
X147150Y78669D02*
X148250D01*
X147225Y80136D02*
X148175D01*
X147700Y79661D02*
Y80611D01*
X147150Y78936D02*
Y81336D01*
X148250Y78936D02*
Y81336D01*
X147150Y78936D02*
X148250D01*
X147150Y81336D02*
X148250D01*
X96933Y89153D02*
X97883D01*
X97408Y88678D02*
Y89628D01*
X96858Y87953D02*
Y90353D01*
X97958Y87953D02*
Y90353D01*
X96858Y87953D02*
X97958D01*
X96858Y90353D02*
X97958D01*
X95663Y89153D02*
X96613D01*
X96138Y88678D02*
Y89628D01*
X95588Y87953D02*
Y90353D01*
X96688Y87953D02*
Y90353D01*
X95588Y87953D02*
X96688D01*
X95588Y90353D02*
X96688D01*
X98203Y89153D02*
X99153D01*
X98678Y88678D02*
Y89628D01*
X98128Y87953D02*
Y90353D01*
X99228Y87953D02*
Y90353D01*
X98128Y87953D02*
X99228D01*
X98128Y90353D02*
X99228D01*
X99473Y89153D02*
X100423D01*
X99948Y88678D02*
Y89628D01*
X99398Y87953D02*
Y90353D01*
X100498Y87953D02*
Y90353D01*
X99398Y87953D02*
X100498D01*
X99398Y90353D02*
X100498D01*
X104553Y89153D02*
X105503D01*
X105028Y88678D02*
Y89628D01*
X104478Y87953D02*
Y90353D01*
X105578Y87953D02*
Y90353D01*
X104478Y87953D02*
X105578D01*
X104478Y90353D02*
X105578D01*
X102013Y89153D02*
X102963D01*
X102488Y88678D02*
Y89628D01*
X101938Y87953D02*
Y90353D01*
X103038Y87953D02*
Y90353D01*
X101938Y87953D02*
X103038D01*
X101938Y90353D02*
X103038D01*
X100743Y89153D02*
X101693D01*
X101218Y88678D02*
Y89628D01*
X100668Y87953D02*
Y90353D01*
X101768Y87953D02*
Y90353D01*
X100668Y87953D02*
X101768D01*
X100668Y90353D02*
X101768D01*
X103283Y89153D02*
X104233D01*
X103758Y88678D02*
Y89628D01*
X103208Y87953D02*
Y90353D01*
X104308Y87953D02*
Y90353D01*
X103208Y87953D02*
X104308D01*
X103208Y90353D02*
X104308D01*
X153427Y67687D02*
X154927D01*
X153427Y70487D02*
X154927D01*
X153427Y67687D02*
Y70487D01*
X154927Y67687D02*
Y70487D01*
X154177Y68587D02*
Y69587D01*
X153677Y69087D02*
X154677D01*
X153427Y64385D02*
X154927D01*
X153427Y67185D02*
X154927D01*
X153427Y64385D02*
Y67185D01*
X154927Y64385D02*
Y67185D01*
X154177Y65285D02*
Y66285D01*
X153677Y65785D02*
X154677D01*
M02*