M48
;Layer_Color=9474304
;FILE_FORMAT=4:3
METRIC
;TYPE=PLATED
T1F00S00C0.254
T2F00S00C0.381
T3F00S00C0.508
T4F00S00C0.711
T5F00S00C0.762
T6F00S00C0.800
T7F00S00C0.889
T8F00S00C0.900
T9F00S00C1.016
T10F00S00C1.090
T11F00S00C1.270
T12F00S00C1.500
T13F00S00C1.575
T14F00S00C2.286
T15F00S00C2.600
T16F00S00C2.667
T17F00S00C3.260
T18F00S00C3.302
%
T01
X0121539Y0076581
X0129413
X0137414
X0145288
X0056388Y0076200
X0055753Y0075058
X0055118Y0077089
X0053848Y0073660
X0052959Y0071755
X0051181
X0049403Y0070993
X0047879Y0069342
X0048260Y0066548
X0044196Y0067310
X0042926
X0042674Y0068453
X0041783Y0069215
X0040070Y0069404
X0043053Y0073025
X0043688Y0074803
X0045212
X0045593Y0072898
X0046228Y0077089
X0044232Y0077561
X0051054Y0076327
X0051562Y0062103
X0046863Y0062484
X0045593
X0043053
X0041783
X0040513Y0062103
X0038354Y0076200
X0043688Y0084455
X0044704Y0083693
X0046101Y0082296
X0049530Y0080645
X0057150Y0096012
Y0096901
X0067310
Y0095250
X0068199Y0096012
X0086995
Y0096901
X0096139Y0086868
X0097409Y0086233
X0098679Y0085598
X0099949Y0084963
X0101219Y0084328
X0102489Y0083693
X0103759Y0083058
X0105029Y0082423
X0116840Y0096012
Y0096901
X0121539Y0086106
X0129413
X0137287Y0086131
X0145161Y0086106
X0146685Y0096012
Y0096901
T02
X0080518Y0060706
X0081788
X0084328Y0061849
X0081153Y0066675
X0080010Y0066675
X0079629Y0073302
X0086106Y0072771
X0086487Y0077089
X0085979Y0078105
X0088011Y0078740
X0090170Y0077343
X0091059Y0076581
X0089281Y0075692
X0090170Y0074803
X0093980Y0078486
X0094234Y0070358
X0088265Y0068072
X0088726Y0055118
X0115189Y0061214
X0116459
X0115189Y0065674
X0106242Y0070542
X0106680Y0072644
Y0074930
X0103378Y0077724
X0112211Y0077343
X0074930Y0074041
X0073787
X0074041Y0070231
X0075311
X0076454Y0071248
X0078105Y0066294
X0074549
X0070358Y0059309
Y0057785
X0066548Y0070358
X0058039Y0048514
X0053213Y0084074
X0043688Y0086233
X0050140Y0101981
X0051410
Y0103251
X0050140
X0066548Y0080645
X0069723Y0082423
X0073152
X0073025Y0084963
X0076200Y0082550
X0077978Y0081661
X0086995Y0083312
X0086868Y0084582
X0087757Y0085471
X0089916Y0084455
X0090932Y0083439
X0085979Y0087122
X0081255Y0101981
X0079985
Y0103251
X0081255
X0109830
Y0101981
X0111100
Y0103251
X0125476Y0091313
X0133350
X0141224
X0141351Y0081534
X0133477
X0125222Y0082423
X0139675Y0101981
X0140945
Y0103251
X0139675
T03
X0103378Y0064643
X0114046Y0078867
X0077597Y0089281
X0054102Y0093980
X0086900Y0089154
X0117094Y0094234
X0120650Y0091059
X0128524
X0136398Y0091084
X0144272Y0091059
X0144399Y0081534
X0136525
X0128524
X0120650
T04
X0086900Y0089154
T05
X0125476Y0058674
X0128270
X0136271Y0056769
X0139065
X0135128Y0068199
X0144018Y0070739
X0103378Y0053594
X0068453Y0052641
Y0054674
X0065913
Y0052641
X0061087Y0084709
X0062357Y0092964
X0070358Y0091948
X0065405Y0101473
X0050800Y0099314
X0080645Y0099949
X0094869Y0100711
X0110490Y0099314
X0127127Y0100965
X0140335Y0099949
T06
X0129413Y0045085
X0131953
X0134493
X0137033
X0140208
X0142748
X0083693
X0081153
X0078613
X0076073
X0058293
X0055753
T07
X0040513Y0057023
X0043053
X0045593
X0048133
X0050673
X0049403Y0059563
X0046863
X0044323
X0041783
X0039243
T08
X0119253Y0068199
X0121793
X0158623Y0056769
Y0054229
X0079350Y0108204
X0076810
X0074270
X0071730
Y0110744
X0074270
X0076810
X0079350
X0059665
X0057125
X0054585
X0052045
X0049505
X0046965
X0044425
X0041885
Y0108204
X0044425
X0046965
X0049505
X0052045
X0054585
X0057125
X0059665
X0081890
Y0110744
X0084430
Y0108204
X0086970
Y0110744
X0089510
Y0108204
X0101575
Y0110744
X0104115
Y0108204
X0106655
Y0110744
X0109195
Y0108204
X0111735
Y0110744
X0114275
Y0108204
X0116815
Y0110744
X0119355
Y0108204
X0131420
Y0110744
X0133960
Y0108204
X0136500
Y0110744
X0139040
Y0108204
X0141580
Y0110744
X0144120
Y0108204
X0146660
Y0110744
X0149200
Y0108204
X0154178Y0091719
X0156718
Y0089179
X0154178
Y0086639
X0156718
Y0084099
X0154178
T09
X0088201Y0045593
X0092773
X0051689Y0046609
X0049149
X0040767
X0038227
T10
X0107478Y0047704
X0110248
X0113018
X0115788
X0117173Y0050544
X0114403
X0111633
X0108863
X0106093
T11
X0147447Y0065659
X0093916Y0048133
X0086932
T12
X0062624Y0072771
X0070124
T13
X0053213Y0053721
X0036703
T14
X0060833Y0049974
X0073533
T15
X0157988Y0046355
X0032893
Y0111379
X0157988
T16
X0149669Y0047307
Y0053530
X0154115Y0050355
T17
X0124128Y0049124
X0099138
T18
X0050673Y0050673
X0039243
M30
