%FSAX43Y43*%
%MOMM*%
G71*
G01*
G75*
G04 Layer_Color=8388736*
%ADD10R,0.800X0.900*%
%ADD11R,0.900X0.800*%
%ADD12R,0.300X1.200*%
%ADD13R,1.200X0.300*%
%ADD14O,0.300X1.800*%
%ADD15O,1.800X0.300*%
%ADD16R,0.508X1.500*%
%ADD17R,2.200X2.200*%
%ADD18R,2.300X2.300*%
%ADD19R,1.200X1.400*%
%ADD20R,3.048X3.683*%
%ADD21R,2.540X1.016*%
%ADD22O,0.600X2.200*%
%ADD23R,2.032X0.635*%
%ADD24R,0.350X0.800*%
%ADD25R,2.300X2.300*%
%ADD26R,2.200X0.450*%
%ADD27R,2.400X3.100*%
%ADD28C,0.254*%
%ADD29C,0.381*%
%ADD30C,0.635*%
%ADD31C,0.508*%
%ADD32C,0.330*%
%ADD33C,0.762*%
%ADD34R,9.779X2.159*%
%ADD35R,3.048X6.858*%
%ADD36R,0.762X0.635*%
%ADD37R,1.778X2.794*%
%ADD38R,1.397X1.778*%
%ADD39R,1.016X2.286*%
%ADD40R,1.778X2.819*%
%ADD41R,32.258X2.032*%
%ADD42R,0.889X2.286*%
%ADD43R,2.540X8.636*%
%ADD44R,7.620X4.191*%
%ADD45R,3.048X10.414*%
%ADD46R,6.350X3.048*%
%ADD47R,2.286X7.112*%
%ADD48R,3.302X3.048*%
%ADD49R,7.366X1.016*%
%ADD50R,3.429X4.445*%
%ADD51R,4.191X2.032*%
%ADD52R,2.159X11.049*%
%ADD53R,3.556X3.556*%
%ADD54R,2.286X2.286*%
%ADD55R,2.413X2.286*%
%ADD56R,1.270X1.270*%
%ADD57R,2.159X2.159*%
%ADD58C,0.508*%
%ADD59C,0.762*%
%ADD60C,4.000*%
%ADD61R,1.500X1.500*%
%ADD62C,1.500*%
%ADD63C,1.524*%
%ADD64C,1.778*%
%ADD65C,1.270*%
%ADD66C,2.032*%
%ADD67R,1.524X1.524*%
%ADD68C,3.556*%
%ADD69C,1.600*%
%ADD70C,1.690*%
%ADD71R,1.690X1.690*%
%ADD72C,4.760*%
%ADD73C,3.810*%
%ADD74C,3.000*%
%ADD75R,1.500X1.500*%
%ADD76C,1.016*%
%ADD77R,1.600X0.400*%
%ADD78R,2.794X2.540*%
%ADD79R,1.000X1.800*%
%ADD80R,1.000X1.300*%
%ADD81R,9.525X2.159*%
%ADD82R,3.683X3.937*%
%ADD83R,2.286X2.540*%
%ADD84R,2.286X2.159*%
%ADD85C,0.250*%
%ADD86C,0.127*%
%ADD87C,0.200*%
%ADD88C,0.600*%
%ADD89C,0.100*%
%ADD90C,0.150*%
%ADD91R,1.003X1.103*%
%ADD92R,1.103X1.003*%
%ADD93R,0.503X1.403*%
%ADD94R,1.403X0.503*%
%ADD95O,0.503X2.003*%
%ADD96O,2.003X0.503*%
%ADD97R,0.711X1.703*%
%ADD98R,2.503X2.503*%
%ADD99R,1.403X1.603*%
%ADD100R,3.251X3.886*%
%ADD101R,2.743X1.219*%
%ADD102O,0.803X2.403*%
%ADD103R,2.235X0.838*%
%ADD104R,0.553X1.003*%
%ADD105R,2.503X2.503*%
%ADD106R,2.403X0.653*%
%ADD107R,2.603X3.303*%
%ADD108C,0.711*%
%ADD109C,0.965*%
%ADD110C,4.203*%
%ADD111R,1.703X1.703*%
%ADD112C,1.703*%
%ADD113C,1.727*%
%ADD114C,1.981*%
%ADD115C,1.473*%
%ADD116C,2.235*%
%ADD117C,0.203*%
%ADD118R,1.727X1.727*%
%ADD119C,3.759*%
%ADD120C,1.803*%
%ADD121C,1.893*%
%ADD122R,1.893X1.893*%
%ADD123C,4.963*%
%ADD124C,4.013*%
%ADD125C,3.203*%
%ADD126R,1.703X1.703*%
%ADD127C,1.219*%
G36*
X0052114Y0085173D02*
X0049914D01*
Y0087373D01*
X0052114D01*
Y0085173D01*
D02*
G37*
G36*
X0047114D02*
X0044914D01*
Y0087373D01*
X0047114D01*
Y0085173D01*
D02*
G37*
G36*
X0052114Y0090173D02*
X0049914D01*
Y0092373D01*
X0052114D01*
Y0090173D01*
D02*
G37*
G36*
X0047114D02*
X0044914D01*
Y0092373D01*
X0047114D01*
Y0090173D01*
D02*
G37*
D91*
X0053532Y0067056D02*
D03*
X0052132D02*
D03*
X0052132Y0068453D02*
D03*
X0053532D02*
D03*
X0052132Y0069850D02*
D03*
X0053532D02*
D03*
X0068010Y0058547D02*
D03*
X0066610D02*
D03*
X0148906Y0061595D02*
D03*
X0150306D02*
D03*
X0152338Y0069469D02*
D03*
X0150938D02*
D03*
X0146747Y0070739D02*
D03*
X0148147D02*
D03*
X0137603Y0051054D02*
D03*
X0139003D02*
D03*
X0140143Y0061849D02*
D03*
X0141543D02*
D03*
X0123255Y0071501D02*
D03*
X0121855D02*
D03*
X0108139Y0055499D02*
D03*
X0109539D02*
D03*
X0111314D02*
D03*
X0112714D02*
D03*
X0090359Y0055118D02*
D03*
X0091759D02*
D03*
X0076138Y0090043D02*
D03*
X0074738D02*
D03*
X0076138Y0088519D02*
D03*
X0074738D02*
D03*
X0076138Y0083947D02*
D03*
X0074738D02*
D03*
X0076138Y0085344D02*
D03*
X0074738D02*
D03*
X0048068Y0082169D02*
D03*
X0049468D02*
D03*
X0055564Y0097155D02*
D03*
X0054164D02*
D03*
X0055564Y0095758D02*
D03*
X0054164D02*
D03*
D92*
X0037973Y0069404D02*
D03*
Y0070804D02*
D03*
X0043053Y0065089D02*
D03*
Y0063689D02*
D03*
X0041783Y0065089D02*
D03*
Y0063689D02*
D03*
X0039243Y0063689D02*
D03*
Y0065089D02*
D03*
X0037973Y0063689D02*
D03*
Y0065089D02*
D03*
X0046863Y0065089D02*
D03*
Y0063689D02*
D03*
X0045593Y0065089D02*
D03*
Y0063689D02*
D03*
X0048133Y0065089D02*
D03*
Y0063689D02*
D03*
X0041148Y0085917D02*
D03*
Y0084517D02*
D03*
X0114046Y0074741D02*
D03*
Y0073341D02*
D03*
Y0077535D02*
D03*
Y0076135D02*
D03*
X0154178Y0063311D02*
D03*
Y0061911D02*
D03*
Y0066486D02*
D03*
Y0065086D02*
D03*
Y0069534D02*
D03*
Y0068134D02*
D03*
X0105410Y0061660D02*
D03*
Y0060260D02*
D03*
X0118364Y0060260D02*
D03*
Y0061660D02*
D03*
X0105410Y0064581D02*
D03*
Y0063181D02*
D03*
X0103378Y0067629D02*
D03*
Y0066229D02*
D03*
X0084074Y0087314D02*
D03*
Y0085914D02*
D03*
X0076200Y0080964D02*
D03*
Y0079564D02*
D03*
X0089916Y0087692D02*
D03*
Y0089092D02*
D03*
X0091440Y0087692D02*
D03*
Y0089092D02*
D03*
X0073914Y0079564D02*
D03*
Y0080964D02*
D03*
X0050673Y0063689D02*
D03*
Y0065089D02*
D03*
X0049403Y0065089D02*
D03*
Y0063689D02*
D03*
X0055753Y0073217D02*
D03*
Y0071817D02*
D03*
X0142748Y0086295D02*
D03*
Y0087695D02*
D03*
X0147574Y0086295D02*
D03*
Y0087695D02*
D03*
X0142748Y0088962D02*
D03*
Y0090362D02*
D03*
X0147574Y0088962D02*
D03*
Y0090362D02*
D03*
X0119126Y0076770D02*
D03*
Y0078170D02*
D03*
Y0079437D02*
D03*
Y0080837D02*
D03*
X0123952Y0079437D02*
D03*
Y0080837D02*
D03*
Y0076770D02*
D03*
Y0078170D02*
D03*
X0134874Y0086320D02*
D03*
Y0087720D02*
D03*
X0139700Y0086320D02*
D03*
Y0087720D02*
D03*
X0134874Y0088987D02*
D03*
Y0090387D02*
D03*
X0139700Y0088987D02*
D03*
Y0090387D02*
D03*
X0127000Y0076770D02*
D03*
Y0078170D02*
D03*
X0131953Y0076770D02*
D03*
Y0078170D02*
D03*
X0127000Y0079437D02*
D03*
Y0080837D02*
D03*
X0131953Y0079437D02*
D03*
Y0080837D02*
D03*
X0131826Y0086295D02*
D03*
Y0087695D02*
D03*
X0127000Y0088962D02*
D03*
Y0090362D02*
D03*
X0131826Y0088962D02*
D03*
Y0090362D02*
D03*
X0127000Y0086295D02*
D03*
Y0087695D02*
D03*
X0119126Y0086295D02*
D03*
Y0087695D02*
D03*
X0123952Y0088962D02*
D03*
Y0090362D02*
D03*
X0119126Y0088962D02*
D03*
Y0090362D02*
D03*
X0123952Y0086295D02*
D03*
Y0087695D02*
D03*
X0135001Y0076770D02*
D03*
Y0078170D02*
D03*
X0139827Y0076770D02*
D03*
Y0078170D02*
D03*
X0135001Y0079437D02*
D03*
Y0080837D02*
D03*
X0139827Y0079437D02*
D03*
Y0080837D02*
D03*
X0142875Y0079437D02*
D03*
Y0080837D02*
D03*
Y0076770D02*
D03*
Y0078170D02*
D03*
X0147701Y0076770D02*
D03*
Y0078170D02*
D03*
Y0079437D02*
D03*
Y0080837D02*
D03*
X0097409Y0088454D02*
D03*
Y0089854D02*
D03*
X0096139Y0088454D02*
D03*
Y0089854D02*
D03*
X0098679Y0088454D02*
D03*
Y0089854D02*
D03*
X0099949Y0088454D02*
D03*
Y0089854D02*
D03*
X0105029Y0088454D02*
D03*
Y0089854D02*
D03*
X0102489Y0088454D02*
D03*
Y0089854D02*
D03*
X0101219Y0088454D02*
D03*
Y0089854D02*
D03*
X0103759Y0088454D02*
D03*
Y0089854D02*
D03*
D93*
X0042208Y0079611D02*
D03*
X0042708D02*
D03*
X0043208D02*
D03*
X0043708D02*
D03*
X0044208Y0079611D02*
D03*
X0044708D02*
D03*
X0045208D02*
D03*
X0045708D02*
D03*
X0046208D02*
D03*
X0046708D02*
D03*
X0047208D02*
D03*
X0047708D02*
D03*
X0047708Y0071011D02*
D03*
X0047208D02*
D03*
X0046708D02*
D03*
X0046208D02*
D03*
X0045708Y0071011D02*
D03*
X0045208D02*
D03*
X0044708D02*
D03*
X0044208D02*
D03*
X0043708D02*
D03*
X0043208D02*
D03*
X0042708D02*
D03*
X0042208D02*
D03*
D94*
X0049258Y0078061D02*
D03*
Y0077561D02*
D03*
Y0077061D02*
D03*
Y0076561D02*
D03*
Y0076061D02*
D03*
Y0075561D02*
D03*
Y0075061D02*
D03*
Y0074561D02*
D03*
Y0074061D02*
D03*
Y0073561D02*
D03*
Y0073061D02*
D03*
Y0072561D02*
D03*
X0040658D02*
D03*
Y0073061D02*
D03*
Y0073561D02*
D03*
Y0074061D02*
D03*
Y0074561D02*
D03*
Y0075061D02*
D03*
Y0075561D02*
D03*
Y0076061D02*
D03*
Y0076561D02*
D03*
Y0077061D02*
D03*
Y0077561D02*
D03*
Y0078061D02*
D03*
D95*
X0084043Y0080829D02*
D03*
X0084543D02*
D03*
X0085043D02*
D03*
X0085543D02*
D03*
X0086043D02*
D03*
X0086543D02*
D03*
X0087043D02*
D03*
X0087543D02*
D03*
X0088043D02*
D03*
X0088543D02*
D03*
X0089043D02*
D03*
X0089543D02*
D03*
X0090043D02*
D03*
X0090543D02*
D03*
X0091043D02*
D03*
X0091543D02*
D03*
X0092043D02*
D03*
X0092543D02*
D03*
X0093043D02*
D03*
X0093543D02*
D03*
X0094043D02*
D03*
X0094543D02*
D03*
X0095043D02*
D03*
X0095543D02*
D03*
X0096043D02*
D03*
Y0065729D02*
D03*
X0095543D02*
D03*
X0095043D02*
D03*
X0094543D02*
D03*
X0094043D02*
D03*
X0093543D02*
D03*
X0093043D02*
D03*
X0092543D02*
D03*
X0092043D02*
D03*
X0091543D02*
D03*
X0091043D02*
D03*
X0090543D02*
D03*
X0090043D02*
D03*
X0089543D02*
D03*
X0089043D02*
D03*
X0088543D02*
D03*
X0088043D02*
D03*
X0087543D02*
D03*
X0087043D02*
D03*
X0086543D02*
D03*
X0086043D02*
D03*
X0085543D02*
D03*
X0085043D02*
D03*
X0084543D02*
D03*
X0084043D02*
D03*
D96*
X0097593Y0079279D02*
D03*
Y0078779D02*
D03*
Y0078279D02*
D03*
Y0077779D02*
D03*
Y0077279D02*
D03*
Y0076779D02*
D03*
Y0076279D02*
D03*
Y0075779D02*
D03*
Y0075279D02*
D03*
Y0074779D02*
D03*
Y0074279D02*
D03*
Y0073779D02*
D03*
Y0073279D02*
D03*
Y0072779D02*
D03*
Y0072279D02*
D03*
Y0071779D02*
D03*
Y0071279D02*
D03*
Y0070779D02*
D03*
Y0070279D02*
D03*
Y0069779D02*
D03*
Y0069279D02*
D03*
Y0068779D02*
D03*
Y0068279D02*
D03*
Y0067779D02*
D03*
Y0067279D02*
D03*
X0082493D02*
D03*
Y0067779D02*
D03*
Y0068279D02*
D03*
Y0068779D02*
D03*
Y0069279D02*
D03*
Y0069779D02*
D03*
Y0070279D02*
D03*
Y0070779D02*
D03*
Y0071279D02*
D03*
Y0071779D02*
D03*
Y0072279D02*
D03*
Y0072779D02*
D03*
Y0073279D02*
D03*
Y0073779D02*
D03*
Y0074279D02*
D03*
Y0074779D02*
D03*
Y0075279D02*
D03*
Y0075779D02*
D03*
Y0076279D02*
D03*
Y0076779D02*
D03*
Y0077279D02*
D03*
Y0077779D02*
D03*
Y0078279D02*
D03*
Y0078779D02*
D03*
Y0079279D02*
D03*
D97*
X0108261Y0079088D02*
D03*
X0109561D02*
D03*
X0110811D02*
D03*
X0112211D02*
D03*
X0112161Y0071738D02*
D03*
X0110861D02*
D03*
X0109561D02*
D03*
X0108261D02*
D03*
D98*
X0065568Y0061849D02*
D03*
X0070068D02*
D03*
X0151602Y0058674D02*
D03*
X0147102D02*
D03*
D99*
X0060314Y0061849D02*
D03*
X0062114D02*
D03*
D100*
X0130111Y0068199D02*
D03*
X0140145D02*
D03*
D101*
X0123952Y0058674D02*
D03*
X0129794D02*
D03*
X0134747Y0056769D02*
D03*
X0140589D02*
D03*
D102*
X0107569Y0058306D02*
D03*
X0108839D02*
D03*
X0110109D02*
D03*
X0111379D02*
D03*
X0112649D02*
D03*
X0113919D02*
D03*
X0115189D02*
D03*
X0116459D02*
D03*
X0107569Y0063106D02*
D03*
X0108839D02*
D03*
X0110109D02*
D03*
X0111379D02*
D03*
X0112649D02*
D03*
X0113919D02*
D03*
X0115189D02*
D03*
X0116459D02*
D03*
D103*
X0066040Y0090043D02*
D03*
Y0088773D02*
D03*
Y0087503D02*
D03*
Y0086233D02*
D03*
Y0084963D02*
D03*
X0070866D02*
D03*
Y0086233D02*
D03*
Y0087503D02*
D03*
Y0088773D02*
D03*
Y0090043D02*
D03*
D104*
X0146101Y0087046D02*
D03*
X0145161Y0089459D02*
D03*
X0146101D02*
D03*
X0145161Y0087046D02*
D03*
X0144221Y0089459D02*
D03*
Y0087046D02*
D03*
X0122479Y0077521D02*
D03*
X0121539Y0079934D02*
D03*
X0122479D02*
D03*
X0121539Y0077521D02*
D03*
X0120599Y0079934D02*
D03*
Y0077521D02*
D03*
X0138227Y0087071D02*
D03*
X0137287Y0089484D02*
D03*
X0138227D02*
D03*
X0137287Y0087071D02*
D03*
X0136347Y0089484D02*
D03*
Y0087071D02*
D03*
X0130353Y0077521D02*
D03*
X0129413Y0079934D02*
D03*
X0130353D02*
D03*
X0129413Y0077521D02*
D03*
X0128473Y0079934D02*
D03*
Y0077521D02*
D03*
X0130353Y0087046D02*
D03*
X0129413Y0089459D02*
D03*
X0130353D02*
D03*
X0129413Y0087046D02*
D03*
X0128473Y0089459D02*
D03*
Y0087046D02*
D03*
X0122479D02*
D03*
X0121539Y0089459D02*
D03*
X0122479D02*
D03*
X0121539Y0087046D02*
D03*
X0120599Y0089459D02*
D03*
Y0087046D02*
D03*
X0138354Y0077521D02*
D03*
X0137414Y0079934D02*
D03*
X0138354D02*
D03*
X0137414Y0077521D02*
D03*
X0136474Y0079934D02*
D03*
Y0077521D02*
D03*
X0146228D02*
D03*
X0145288Y0079934D02*
D03*
X0146228D02*
D03*
X0145288Y0077521D02*
D03*
X0144348Y0079934D02*
D03*
Y0077521D02*
D03*
D105*
X0157988Y0061504D02*
D03*
Y0066004D02*
D03*
D106*
X0150322Y0063784D02*
D03*
Y0066284D02*
D03*
Y0067534D02*
D03*
Y0065034D02*
D03*
X0144572D02*
D03*
Y0067534D02*
D03*
Y0066284D02*
D03*
Y0063784D02*
D03*
D107*
X0147447Y0065659D02*
D03*
D108*
X0040513Y0062103D02*
D03*
X0051562D02*
D03*
X0041783Y0062484D02*
D03*
X0043053D02*
D03*
X0045593D02*
D03*
X0046863D02*
D03*
X0044196Y0067310D02*
D03*
X0042926D02*
D03*
X0042674Y0068453D02*
D03*
X0041783Y0069215D02*
D03*
X0040070Y0069404D02*
D03*
X0047879Y0069342D02*
D03*
X0051181Y0071755D02*
D03*
X0052959D02*
D03*
X0049403Y0070993D02*
D03*
X0043053Y0073025D02*
D03*
X0043688Y0074803D02*
D03*
X0045593Y0072898D02*
D03*
X0048260Y0066548D02*
D03*
X0053848Y0073660D02*
D03*
X0055753Y0075058D02*
D03*
X0051054Y0076327D02*
D03*
X0049530Y0080645D02*
D03*
X0045212Y0074803D02*
D03*
X0044232Y0077561D02*
D03*
X0038354Y0076200D02*
D03*
X0046228Y0077089D02*
D03*
X0043688Y0084455D02*
D03*
X0044704Y0083693D02*
D03*
X0046101Y0082296D02*
D03*
X0056388Y0076200D02*
D03*
X0055118Y0077089D02*
D03*
X0057150Y0096012D02*
D03*
Y0096901D02*
D03*
X0086995D02*
D03*
Y0096012D02*
D03*
X0068199D02*
D03*
X0067310Y0095250D02*
D03*
Y0096901D02*
D03*
X0121539Y0086106D02*
D03*
Y0076581D02*
D03*
X0129413D02*
D03*
Y0086106D02*
D03*
X0137287Y0086131D02*
D03*
X0137414Y0076581D02*
D03*
X0145288D02*
D03*
X0145161Y0086106D02*
D03*
X0096139Y0086868D02*
D03*
X0097409Y0086233D02*
D03*
X0098679Y0085598D02*
D03*
X0099949Y0084963D02*
D03*
X0101219Y0084328D02*
D03*
X0102489Y0083693D02*
D03*
X0103759Y0083058D02*
D03*
X0105029Y0082423D02*
D03*
X0116840Y0096012D02*
D03*
Y0096901D02*
D03*
X0146685Y0096012D02*
D03*
Y0096901D02*
D03*
D109*
X0106680Y0072644D02*
D03*
X0112211Y0077343D02*
D03*
X0106242Y0070542D02*
D03*
X0106680Y0074930D02*
D03*
X0070358Y0059309D02*
D03*
Y0057785D02*
D03*
X0140945Y0101981D02*
D03*
X0139675D02*
D03*
X0140945Y0103251D02*
D03*
X0139675D02*
D03*
X0111100Y0101981D02*
D03*
X0109830D02*
D03*
X0111100Y0103251D02*
D03*
X0109830D02*
D03*
X0081255Y0101981D02*
D03*
X0079985D02*
D03*
X0081255Y0103251D02*
D03*
X0079985D02*
D03*
X0051410Y0101981D02*
D03*
X0050140D02*
D03*
X0051410Y0103251D02*
D03*
X0050140D02*
D03*
X0115189Y0061214D02*
D03*
X0116459D02*
D03*
X0080518Y0060706D02*
D03*
X0081788D02*
D03*
X0088726Y0055118D02*
D03*
X0058039Y0048514D02*
D03*
X0043688Y0086233D02*
D03*
X0053213Y0084074D02*
D03*
X0066548Y0070358D02*
D03*
X0076454Y0071248D02*
D03*
X0075311Y0070231D02*
D03*
X0074041D02*
D03*
X0079629Y0073302D02*
D03*
X0081153Y0066675D02*
D03*
X0080010Y0066675D02*
D03*
X0073787Y0074041D02*
D03*
X0074930D02*
D03*
X0073152Y0082423D02*
D03*
X0073025Y0084963D02*
D03*
X0076200Y0082550D02*
D03*
X0077978Y0081661D02*
D03*
X0085979Y0087122D02*
D03*
X0089916Y0084455D02*
D03*
X0086995Y0083312D02*
D03*
X0086868Y0084582D02*
D03*
X0087757Y0085471D02*
D03*
X0090932Y0083439D02*
D03*
X0091059Y0076581D02*
D03*
X0090170Y0077343D02*
D03*
X0086487Y0077089D02*
D03*
X0085979Y0078105D02*
D03*
X0088011Y0078740D02*
D03*
X0093980Y0078486D02*
D03*
X0086106Y0072771D02*
D03*
X0094234Y0070358D02*
D03*
X0089281Y0075692D02*
D03*
X0090170Y0074803D02*
D03*
X0115189Y0065674D02*
D03*
X0103378Y0077724D02*
D03*
X0066548Y0080645D02*
D03*
X0069723Y0082423D02*
D03*
X0074549Y0066294D02*
D03*
X0078105D02*
D03*
X0084328Y0061849D02*
D03*
X0125222Y0082423D02*
D03*
X0125476Y0091313D02*
D03*
X0133350D02*
D03*
X0141224D02*
D03*
X0133477Y0081534D02*
D03*
X0141351D02*
D03*
X0088265Y0068072D02*
D03*
D110*
X0032893Y0046355D02*
D03*
Y0111379D02*
D03*
X0157988D02*
D03*
Y0046355D02*
D03*
D111*
X0041885Y0108204D02*
D03*
X0101575D02*
D03*
X0131420D02*
D03*
X0071730D02*
D03*
X0121793Y0068199D02*
D03*
D112*
X0041885Y0110744D02*
D03*
X0044425Y0108204D02*
D03*
Y0110744D02*
D03*
X0046965Y0108204D02*
D03*
Y0110744D02*
D03*
X0049505Y0108204D02*
D03*
Y0110744D02*
D03*
X0052045Y0108204D02*
D03*
Y0110744D02*
D03*
X0054585Y0108204D02*
D03*
Y0110744D02*
D03*
X0057125Y0108204D02*
D03*
Y0110744D02*
D03*
X0059665Y0108204D02*
D03*
Y0110744D02*
D03*
X0101575D02*
D03*
X0104115Y0108204D02*
D03*
Y0110744D02*
D03*
X0106655Y0108204D02*
D03*
Y0110744D02*
D03*
X0109195Y0108204D02*
D03*
Y0110744D02*
D03*
X0111735Y0108204D02*
D03*
Y0110744D02*
D03*
X0114275Y0108204D02*
D03*
Y0110744D02*
D03*
X0116815Y0108204D02*
D03*
Y0110744D02*
D03*
X0119355Y0108204D02*
D03*
Y0110744D02*
D03*
X0131420D02*
D03*
X0133960Y0108204D02*
D03*
Y0110744D02*
D03*
X0136500Y0108204D02*
D03*
Y0110744D02*
D03*
X0139040Y0108204D02*
D03*
Y0110744D02*
D03*
X0141580Y0108204D02*
D03*
Y0110744D02*
D03*
X0144120Y0108204D02*
D03*
Y0110744D02*
D03*
X0146660Y0108204D02*
D03*
Y0110744D02*
D03*
X0149200Y0108204D02*
D03*
Y0110744D02*
D03*
X0071730D02*
D03*
X0074270Y0108204D02*
D03*
Y0110744D02*
D03*
X0076810Y0108204D02*
D03*
Y0110744D02*
D03*
X0079350Y0108204D02*
D03*
Y0110744D02*
D03*
X0081890Y0108204D02*
D03*
Y0110744D02*
D03*
X0084430Y0108204D02*
D03*
Y0110744D02*
D03*
X0086970Y0108204D02*
D03*
Y0110744D02*
D03*
X0089510Y0108204D02*
D03*
Y0110744D02*
D03*
X0156718Y0091719D02*
D03*
X0154178Y0089179D02*
D03*
X0156718D02*
D03*
X0154178Y0086639D02*
D03*
X0156718D02*
D03*
X0154178Y0084099D02*
D03*
X0156718D02*
D03*
X0158623Y0056769D02*
D03*
X0119253Y0068199D02*
D03*
D113*
X0088201Y0045593D02*
D03*
X0092773D02*
D03*
X0049149Y0046609D02*
D03*
X0051689D02*
D03*
X0040767D02*
D03*
X0038227D02*
D03*
X0068453Y0052641D02*
D03*
X0065913D02*
D03*
Y0054674D02*
D03*
X0128270Y0058674D02*
D03*
X0125476D02*
D03*
X0139065Y0056769D02*
D03*
X0136271D02*
D03*
X0103378Y0053594D02*
D03*
X0080645Y0099949D02*
D03*
X0050800Y0099314D02*
D03*
X0110490D02*
D03*
X0140335Y0099949D02*
D03*
X0144018Y0070739D02*
D03*
X0135128Y0068199D02*
D03*
X0062357Y0092964D02*
D03*
X0070358Y0091948D02*
D03*
X0061087Y0084709D02*
D03*
X0094869Y0100711D02*
D03*
X0065405Y0101473D02*
D03*
X0127127Y0100965D02*
D03*
D114*
X0086932Y0048133D02*
D03*
X0093916D02*
D03*
X0147447Y0065659D02*
D03*
D115*
X0039243Y0059563D02*
D03*
X0040513Y0057023D02*
D03*
X0041783Y0059563D02*
D03*
X0043053Y0057023D02*
D03*
X0044323Y0059563D02*
D03*
X0046863D02*
D03*
X0049403D02*
D03*
X0045593Y0057023D02*
D03*
X0048133D02*
D03*
X0050673D02*
D03*
X0086900Y0089154D02*
D03*
D116*
X0053213Y0053721D02*
D03*
X0036703D02*
D03*
D117*
X0050673Y0050673D02*
D03*
X0039243D02*
D03*
D118*
X0068453Y0054674D02*
D03*
D119*
X0073533Y0049974D02*
D03*
X0060833D02*
D03*
D120*
X0058293Y0045085D02*
D03*
X0055753D02*
D03*
X0083693D02*
D03*
X0081153D02*
D03*
X0078613D02*
D03*
X0076073D02*
D03*
X0131953D02*
D03*
X0129413D02*
D03*
X0137033D02*
D03*
X0134493D02*
D03*
X0142748D02*
D03*
X0140208D02*
D03*
D121*
X0106093Y0050544D02*
D03*
X0107478Y0047704D02*
D03*
X0108863Y0050544D02*
D03*
X0110248Y0047704D02*
D03*
X0111633Y0050544D02*
D03*
X0113018Y0047704D02*
D03*
X0114403Y0050544D02*
D03*
X0115788Y0047704D02*
D03*
D122*
X0117173Y0050544D02*
D03*
D123*
X0124128Y0049124D02*
D03*
X0099138D02*
D03*
D124*
X0149669Y0047307D02*
D03*
X0154115Y0050355D02*
D03*
X0149669Y0053530D02*
D03*
D125*
X0062624Y0072771D02*
D03*
X0070124D02*
D03*
D126*
X0154178Y0091719D02*
D03*
X0158623Y0054229D02*
D03*
D127*
X0103378Y0064643D02*
D03*
X0077597Y0089281D02*
D03*
X0086900Y0089154D02*
D03*
X0054102Y0093980D02*
D03*
X0144272Y0091059D02*
D03*
X0120650Y0081534D02*
D03*
X0136398Y0091084D02*
D03*
X0128524Y0081534D02*
D03*
Y0091059D02*
D03*
X0120650D02*
D03*
X0136525Y0081534D02*
D03*
X0144399D02*
D03*
X0114046Y0078867D02*
D03*
X0117094Y0094234D02*
D03*
M02*
