%FSAX43Y43*%
%MOMM*%
G71*
G01*
G75*
G04 Layer_Color=255*
%ADD10R,0.800X0.900*%
%ADD11R,0.900X0.800*%
%ADD12R,0.300X1.200*%
%ADD13R,1.200X0.300*%
%ADD14O,0.300X1.800*%
%ADD15O,1.800X0.300*%
%ADD16R,0.508X1.500*%
%ADD17R,2.200X2.200*%
%ADD18R,2.300X2.300*%
%ADD19R,1.200X1.400*%
%ADD20R,3.048X3.683*%
%ADD21R,2.540X1.016*%
%ADD22O,0.600X2.200*%
%ADD23R,2.032X0.635*%
%ADD24R,0.350X0.800*%
%ADD25R,2.300X2.300*%
%ADD26R,2.200X0.450*%
%ADD27R,2.400X3.100*%
%ADD28C,0.254*%
%ADD29C,0.381*%
%ADD30C,0.635*%
%ADD31C,0.508*%
%ADD32C,0.330*%
%ADD33C,0.762*%
%ADD34R,9.779X2.159*%
%ADD35R,3.048X6.858*%
%ADD36R,0.762X0.635*%
%ADD37R,1.778X2.794*%
%ADD38R,1.397X1.778*%
%ADD39R,1.016X2.286*%
%ADD40R,1.778X2.819*%
%ADD41R,32.258X2.032*%
%ADD42R,0.889X2.286*%
%ADD43R,2.540X8.636*%
%ADD44R,7.620X4.191*%
%ADD45R,3.048X10.414*%
%ADD46R,6.350X3.048*%
%ADD47R,2.286X7.112*%
%ADD48R,3.302X3.048*%
%ADD49R,7.366X1.016*%
%ADD50R,3.429X4.445*%
%ADD51R,4.191X2.032*%
%ADD52R,2.159X11.049*%
%ADD53R,3.556X3.556*%
%ADD54R,2.286X2.286*%
%ADD55R,2.413X2.286*%
%ADD56R,1.270X1.270*%
%ADD57R,2.159X2.159*%
%ADD58C,0.508*%
%ADD59C,0.762*%
%ADD60C,4.000*%
%ADD61R,1.500X1.500*%
%ADD62C,1.500*%
%ADD63C,1.524*%
%ADD64C,1.778*%
%ADD65C,1.270*%
%ADD66C,2.032*%
%ADD67R,1.524X1.524*%
%ADD68C,3.556*%
%ADD69C,1.600*%
%ADD70C,1.690*%
%ADD71R,1.690X1.690*%
%ADD72C,4.760*%
%ADD73C,3.810*%
%ADD74C,3.000*%
%ADD75R,1.500X1.500*%
%ADD76C,1.016*%
%ADD77R,1.600X0.400*%
%ADD78R,2.794X2.540*%
%ADD79R,1.000X1.800*%
%ADD80R,1.000X1.300*%
%ADD81R,9.525X2.159*%
%ADD82R,3.683X3.937*%
%ADD83R,2.286X2.540*%
%ADD84R,2.286X2.159*%
D10*
X0072963Y0057785D02*
D03*
X0071563D02*
D03*
X0072963Y0059309D02*
D03*
X0071563D02*
D03*
X0067753Y0059309D02*
D03*
X0069153D02*
D03*
X0067753Y0057785D02*
D03*
X0069153D02*
D03*
X0051627Y0093853D02*
D03*
X0050227D02*
D03*
X0081472D02*
D03*
X0080072D02*
D03*
X0139762Y0093853D02*
D03*
X0141162D02*
D03*
X0109917D02*
D03*
X0111317D02*
D03*
X0075249Y0061595D02*
D03*
X0073849D02*
D03*
X0077405Y0061595D02*
D03*
X0078805D02*
D03*
X0066486Y0062103D02*
D03*
X0065086D02*
D03*
X0069658Y0062103D02*
D03*
X0071058D02*
D03*
X0089092Y0072771D02*
D03*
X0087692D02*
D03*
D11*
X0050038Y0067753D02*
D03*
Y0069153D02*
D03*
X0045720Y0054929D02*
D03*
Y0053529D02*
D03*
X0048260Y0065089D02*
D03*
Y0063689D02*
D03*
X0044323Y0054929D02*
D03*
Y0053529D02*
D03*
X0140208Y0047179D02*
D03*
Y0048579D02*
D03*
X0129413Y0047179D02*
D03*
Y0048579D02*
D03*
X0131953Y0047179D02*
D03*
Y0048579D02*
D03*
X0078613Y0047179D02*
D03*
Y0048579D02*
D03*
X0081153Y0047179D02*
D03*
Y0048579D02*
D03*
X0055753Y0047179D02*
D03*
Y0048579D02*
D03*
X0084328Y0058355D02*
D03*
Y0059755D02*
D03*
X0043053Y0049722D02*
D03*
Y0048322D02*
D03*
X0046863Y0049722D02*
D03*
Y0048322D02*
D03*
X0040005Y0065089D02*
D03*
Y0063689D02*
D03*
D58*
X0040513Y0062103D02*
D03*
X0051562D02*
D03*
X0041783Y0062484D02*
D03*
X0043053D02*
D03*
X0045593D02*
D03*
X0046863D02*
D03*
X0044196Y0067310D02*
D03*
X0042926D02*
D03*
X0042674Y0068453D02*
D03*
X0041783Y0069215D02*
D03*
X0040070Y0069404D02*
D03*
X0047879Y0069342D02*
D03*
X0051181Y0071755D02*
D03*
X0052959D02*
D03*
X0049403Y0070993D02*
D03*
X0043053Y0073025D02*
D03*
X0043688Y0074803D02*
D03*
X0045593Y0072898D02*
D03*
X0048260Y0066548D02*
D03*
X0053848Y0073660D02*
D03*
X0055753Y0075058D02*
D03*
X0051054Y0076327D02*
D03*
X0049530Y0080645D02*
D03*
X0045212Y0074803D02*
D03*
X0044232Y0077561D02*
D03*
X0038354Y0076200D02*
D03*
X0046228Y0077089D02*
D03*
X0043688Y0084455D02*
D03*
X0044704Y0083693D02*
D03*
X0046101Y0082296D02*
D03*
X0056388Y0076200D02*
D03*
X0055118Y0077089D02*
D03*
X0057150Y0096012D02*
D03*
Y0096901D02*
D03*
X0086995D02*
D03*
Y0096012D02*
D03*
X0068199D02*
D03*
X0067310Y0095250D02*
D03*
Y0096901D02*
D03*
X0121539Y0086106D02*
D03*
Y0076581D02*
D03*
X0129413D02*
D03*
Y0086106D02*
D03*
X0137287Y0086131D02*
D03*
X0137414Y0076581D02*
D03*
X0145288D02*
D03*
X0145161Y0086106D02*
D03*
X0096139Y0086868D02*
D03*
X0097409Y0086233D02*
D03*
X0098679Y0085598D02*
D03*
X0099949Y0084963D02*
D03*
X0101219Y0084328D02*
D03*
X0102489Y0083693D02*
D03*
X0103759Y0083058D02*
D03*
X0105029Y0082423D02*
D03*
X0116840Y0096012D02*
D03*
Y0096901D02*
D03*
X0146685Y0096012D02*
D03*
Y0096901D02*
D03*
D59*
X0106680Y0072644D02*
D03*
X0112211Y0077343D02*
D03*
X0106242Y0070542D02*
D03*
X0106680Y0074930D02*
D03*
X0070358Y0059309D02*
D03*
Y0057785D02*
D03*
X0140945Y0101981D02*
D03*
X0139675D02*
D03*
X0140945Y0103251D02*
D03*
X0139675D02*
D03*
X0111100Y0101981D02*
D03*
X0109830D02*
D03*
X0111100Y0103251D02*
D03*
X0109830D02*
D03*
X0081255Y0101981D02*
D03*
X0079985D02*
D03*
X0081255Y0103251D02*
D03*
X0079985D02*
D03*
X0051410Y0101981D02*
D03*
X0050140D02*
D03*
X0051410Y0103251D02*
D03*
X0050140D02*
D03*
X0115189Y0061214D02*
D03*
X0116459D02*
D03*
X0080518Y0060706D02*
D03*
X0081788D02*
D03*
X0088726Y0055118D02*
D03*
X0058039Y0048514D02*
D03*
X0043688Y0086233D02*
D03*
X0053213Y0084074D02*
D03*
X0066548Y0070358D02*
D03*
X0076454Y0071248D02*
D03*
X0075311Y0070231D02*
D03*
X0074041D02*
D03*
X0079629Y0073302D02*
D03*
X0081153Y0066675D02*
D03*
X0080010Y0066675D02*
D03*
X0073787Y0074041D02*
D03*
X0074930D02*
D03*
X0073152Y0082423D02*
D03*
X0073025Y0084963D02*
D03*
X0076200Y0082550D02*
D03*
X0077978Y0081661D02*
D03*
X0085979Y0087122D02*
D03*
X0089916Y0084455D02*
D03*
X0086995Y0083312D02*
D03*
X0086868Y0084582D02*
D03*
X0087757Y0085471D02*
D03*
X0090932Y0083439D02*
D03*
X0091059Y0076581D02*
D03*
X0090170Y0077343D02*
D03*
X0086487Y0077089D02*
D03*
X0085979Y0078105D02*
D03*
X0088011Y0078740D02*
D03*
X0093980Y0078486D02*
D03*
X0086106Y0072771D02*
D03*
X0094234Y0070358D02*
D03*
X0089281Y0075692D02*
D03*
X0090170Y0074803D02*
D03*
X0115189Y0065674D02*
D03*
X0103378Y0077724D02*
D03*
X0066548Y0080645D02*
D03*
X0069723Y0082423D02*
D03*
X0074549Y0066294D02*
D03*
X0078105D02*
D03*
X0084328Y0061849D02*
D03*
X0125222Y0082423D02*
D03*
X0125476Y0091313D02*
D03*
X0133350D02*
D03*
X0141224D02*
D03*
X0133477Y0081534D02*
D03*
X0141351D02*
D03*
X0088265Y0068072D02*
D03*
D60*
X0032893Y0046355D02*
D03*
Y0111379D02*
D03*
X0157988D02*
D03*
Y0046355D02*
D03*
D61*
X0041885Y0108204D02*
D03*
X0101575D02*
D03*
X0131420D02*
D03*
X0071730D02*
D03*
X0121793Y0068199D02*
D03*
D62*
X0041885Y0110744D02*
D03*
X0044425Y0108204D02*
D03*
Y0110744D02*
D03*
X0046965Y0108204D02*
D03*
Y0110744D02*
D03*
X0049505Y0108204D02*
D03*
Y0110744D02*
D03*
X0052045Y0108204D02*
D03*
Y0110744D02*
D03*
X0054585Y0108204D02*
D03*
Y0110744D02*
D03*
X0057125Y0108204D02*
D03*
Y0110744D02*
D03*
X0059665Y0108204D02*
D03*
Y0110744D02*
D03*
X0101575D02*
D03*
X0104115Y0108204D02*
D03*
Y0110744D02*
D03*
X0106655Y0108204D02*
D03*
Y0110744D02*
D03*
X0109195Y0108204D02*
D03*
Y0110744D02*
D03*
X0111735Y0108204D02*
D03*
Y0110744D02*
D03*
X0114275Y0108204D02*
D03*
Y0110744D02*
D03*
X0116815Y0108204D02*
D03*
Y0110744D02*
D03*
X0119355Y0108204D02*
D03*
Y0110744D02*
D03*
X0131420D02*
D03*
X0133960Y0108204D02*
D03*
Y0110744D02*
D03*
X0136500Y0108204D02*
D03*
Y0110744D02*
D03*
X0139040Y0108204D02*
D03*
Y0110744D02*
D03*
X0141580Y0108204D02*
D03*
Y0110744D02*
D03*
X0144120Y0108204D02*
D03*
Y0110744D02*
D03*
X0146660Y0108204D02*
D03*
Y0110744D02*
D03*
X0149200Y0108204D02*
D03*
Y0110744D02*
D03*
X0071730D02*
D03*
X0074270Y0108204D02*
D03*
Y0110744D02*
D03*
X0076810Y0108204D02*
D03*
Y0110744D02*
D03*
X0079350Y0108204D02*
D03*
Y0110744D02*
D03*
X0081890Y0108204D02*
D03*
Y0110744D02*
D03*
X0084430Y0108204D02*
D03*
Y0110744D02*
D03*
X0086970Y0108204D02*
D03*
Y0110744D02*
D03*
X0089510Y0108204D02*
D03*
Y0110744D02*
D03*
X0156718Y0091719D02*
D03*
X0154178Y0089179D02*
D03*
X0156718D02*
D03*
X0154178Y0086639D02*
D03*
X0156718D02*
D03*
X0154178Y0084099D02*
D03*
X0156718D02*
D03*
X0158623Y0056769D02*
D03*
X0119253Y0068199D02*
D03*
D63*
X0088201Y0045593D02*
D03*
X0092773D02*
D03*
X0049149Y0046609D02*
D03*
X0051689D02*
D03*
X0040767D02*
D03*
X0038227D02*
D03*
X0068453Y0052641D02*
D03*
X0065913D02*
D03*
Y0054674D02*
D03*
X0128270Y0058674D02*
D03*
X0125476D02*
D03*
X0139065Y0056769D02*
D03*
X0136271D02*
D03*
X0103378Y0053594D02*
D03*
X0080645Y0099949D02*
D03*
X0050800Y0099314D02*
D03*
X0110490D02*
D03*
X0140335Y0099949D02*
D03*
X0144018Y0070739D02*
D03*
X0135128Y0068199D02*
D03*
X0062357Y0092964D02*
D03*
X0070358Y0091948D02*
D03*
X0061087Y0084709D02*
D03*
X0094869Y0100711D02*
D03*
X0065405Y0101473D02*
D03*
X0127127Y0100965D02*
D03*
D64*
X0086932Y0048133D02*
D03*
X0093916D02*
D03*
X0147447Y0065659D02*
D03*
D65*
X0039243Y0059563D02*
D03*
X0040513Y0057023D02*
D03*
X0041783Y0059563D02*
D03*
X0043053Y0057023D02*
D03*
X0044323Y0059563D02*
D03*
X0046863D02*
D03*
X0049403D02*
D03*
X0045593Y0057023D02*
D03*
X0048133D02*
D03*
X0050673D02*
D03*
D66*
X0053213Y0053721D02*
D03*
X0036703D02*
D03*
D67*
X0068453Y0054674D02*
D03*
D68*
X0073533Y0049974D02*
D03*
X0060833D02*
D03*
D69*
X0058293Y0045085D02*
D03*
X0055753D02*
D03*
X0083693D02*
D03*
X0081153D02*
D03*
X0078613D02*
D03*
X0076073D02*
D03*
X0131953D02*
D03*
X0129413D02*
D03*
X0137033D02*
D03*
X0134493D02*
D03*
X0142748D02*
D03*
X0140208D02*
D03*
D70*
X0106093Y0050544D02*
D03*
X0107478Y0047704D02*
D03*
X0108863Y0050544D02*
D03*
X0110248Y0047704D02*
D03*
X0111633Y0050544D02*
D03*
X0113018Y0047704D02*
D03*
X0114403Y0050544D02*
D03*
X0115788Y0047704D02*
D03*
D71*
X0117173Y0050544D02*
D03*
D72*
X0124128Y0049124D02*
D03*
X0099138D02*
D03*
D73*
X0149669Y0047307D02*
D03*
X0154115Y0050355D02*
D03*
X0149669Y0053530D02*
D03*
D74*
X0062624Y0072771D02*
D03*
X0070124D02*
D03*
D75*
X0154178Y0091719D02*
D03*
X0158623Y0054229D02*
D03*
D76*
X0103378Y0064643D02*
D03*
X0077597Y0089281D02*
D03*
X0086900Y0089154D02*
D03*
X0054102Y0093980D02*
D03*
X0144272Y0091059D02*
D03*
X0120650Y0081534D02*
D03*
X0136398Y0091084D02*
D03*
X0128524Y0081534D02*
D03*
Y0091059D02*
D03*
X0120650D02*
D03*
X0136525Y0081534D02*
D03*
X0144399D02*
D03*
X0114046Y0078867D02*
D03*
X0117094Y0094234D02*
D03*
D77*
X0047498Y0095504D02*
D03*
Y0096154D02*
D03*
Y0096804D02*
D03*
Y0097454D02*
D03*
Y0098754D02*
D03*
Y0099404D02*
D03*
Y0100054D02*
D03*
Y0098104D02*
D03*
X0054098Y0097454D02*
D03*
Y0096804D02*
D03*
Y0096154D02*
D03*
Y0095504D02*
D03*
Y0100054D02*
D03*
Y0099404D02*
D03*
Y0098754D02*
D03*
Y0098104D02*
D03*
X0047498Y0101354D02*
D03*
Y0102004D02*
D03*
Y0102654D02*
D03*
Y0103304D02*
D03*
Y0103954D02*
D03*
X0054098D02*
D03*
Y0103304D02*
D03*
Y0102654D02*
D03*
Y0102004D02*
D03*
Y0101354D02*
D03*
X0047498Y0100704D02*
D03*
X0054098D02*
D03*
X0137033Y0095504D02*
D03*
Y0096154D02*
D03*
Y0096804D02*
D03*
Y0097454D02*
D03*
Y0098754D02*
D03*
Y0099404D02*
D03*
Y0100054D02*
D03*
Y0098104D02*
D03*
X0143633Y0097454D02*
D03*
Y0096804D02*
D03*
Y0096154D02*
D03*
Y0095504D02*
D03*
Y0100054D02*
D03*
Y0099404D02*
D03*
Y0098754D02*
D03*
Y0098104D02*
D03*
X0137033Y0101354D02*
D03*
Y0102004D02*
D03*
Y0102654D02*
D03*
Y0103304D02*
D03*
Y0103954D02*
D03*
X0143633D02*
D03*
Y0103304D02*
D03*
Y0102654D02*
D03*
Y0102004D02*
D03*
Y0101354D02*
D03*
X0137033Y0100704D02*
D03*
X0143633D02*
D03*
X0107188Y0095504D02*
D03*
Y0096154D02*
D03*
Y0096804D02*
D03*
Y0097454D02*
D03*
Y0098754D02*
D03*
Y0099404D02*
D03*
Y0100054D02*
D03*
Y0098104D02*
D03*
X0113788Y0097454D02*
D03*
Y0096804D02*
D03*
Y0096154D02*
D03*
Y0095504D02*
D03*
Y0100054D02*
D03*
Y0099404D02*
D03*
Y0098754D02*
D03*
Y0098104D02*
D03*
X0107188Y0101354D02*
D03*
Y0102004D02*
D03*
Y0102654D02*
D03*
Y0103304D02*
D03*
Y0103954D02*
D03*
X0113788D02*
D03*
Y0103304D02*
D03*
Y0102654D02*
D03*
Y0102004D02*
D03*
Y0101354D02*
D03*
X0107188Y0100704D02*
D03*
X0113788D02*
D03*
X0077343Y0095504D02*
D03*
Y0096154D02*
D03*
Y0096804D02*
D03*
Y0097454D02*
D03*
Y0098754D02*
D03*
Y0099404D02*
D03*
Y0100054D02*
D03*
Y0098104D02*
D03*
X0083943Y0097454D02*
D03*
Y0096804D02*
D03*
Y0096154D02*
D03*
Y0095504D02*
D03*
Y0100054D02*
D03*
Y0099404D02*
D03*
Y0098754D02*
D03*
Y0098104D02*
D03*
X0077343Y0101354D02*
D03*
Y0102004D02*
D03*
Y0102654D02*
D03*
Y0103304D02*
D03*
Y0103954D02*
D03*
X0083943D02*
D03*
Y0103304D02*
D03*
Y0102654D02*
D03*
Y0102004D02*
D03*
Y0101354D02*
D03*
X0077343Y0100704D02*
D03*
X0083943D02*
D03*
D78*
X0074549Y0064135D02*
D03*
X0078105D02*
D03*
D79*
X0069672Y0064409D02*
D03*
X0066472D02*
D03*
D80*
X0041186Y0073279D02*
D03*
X0039586D02*
D03*
M02*
