%FSAX43Y43*%
%MOMM*%
G71*
G01*
G75*
G04 Layer_Physical_Order=1*
G04 Layer_Color=255*
%ADD10R,1.200X1.400*%
%ADD11O,1.800X0.300*%
%ADD12O,0.300X1.800*%
%ADD13R,0.900X0.800*%
%ADD14R,0.508X1.300*%
%ADD15R,0.800X0.900*%
%ADD16R,0.635X2.032*%
%ADD17O,0.600X2.200*%
%ADD18R,2.200X2.200*%
%ADD19R,1.200X0.300*%
%ADD20R,0.300X1.200*%
%ADD21R,2.300X2.300*%
%ADD22R,2.540X1.016*%
%ADD23R,2.400X3.100*%
%ADD24R,2.200X0.450*%
%ADD25R,0.850X0.600*%
%ADD26R,3.683X3.048*%
%ADD27R,2.300X2.300*%
%ADD28C,0.254*%
%ADD29C,0.600*%
%ADD30C,0.381*%
%ADD31C,0.508*%
%ADD32C,0.889*%
%ADD33C,0.635*%
%ADD34C,0.762*%
%ADD35R,9.525X4.064*%
%ADD36R,1.905X3.302*%
%ADD37R,3.556X4.064*%
%ADD38R,11.049X1.016*%
%ADD39R,6.731X3.175*%
%ADD40R,8.509X2.159*%
%ADD41R,3.175X1.397*%
%ADD42C,0.508*%
%ADD43C,1.524*%
%ADD44C,0.762*%
%ADD45R,1.524X1.524*%
%ADD46C,3.556*%
%ADD47C,1.500*%
%ADD48R,1.500X1.500*%
%ADD49C,4.000*%
%ADD50C,3.810*%
%ADD51R,1.500X1.500*%
%ADD52C,1.600*%
%ADD53C,1.690*%
%ADD54R,1.690X1.690*%
%ADD55C,4.760*%
%ADD56C,2.032*%
%ADD57C,1.270*%
%ADD58C,3.000*%
%ADD59C,1.778*%
G36*
X0133096Y0025400D02*
X0025400D01*
Y0090932D01*
X0133096D01*
Y0025400D01*
D02*
G37*
%LPC*%
G36*
X0122304Y0052265D02*
X0121077D01*
Y0051913D01*
X0122304D01*
Y0052265D01*
D02*
G37*
G36*
X0120823D02*
X0119596D01*
Y0051913D01*
X0120823D01*
Y0052265D01*
D02*
G37*
G36*
X0082750Y0052502D02*
X0082731Y0052403D01*
X0082459D01*
X0082341Y0052427D01*
X0080841D01*
X0080683Y0052396D01*
X0080672Y0052388D01*
X0080454D01*
X0080460Y0052357D01*
X0080522Y0052265D01*
X0080460Y0052173D01*
X0080429Y0052015D01*
X0080460Y0051857D01*
X0080522Y0051765D01*
X0080460Y0051673D01*
X0080429Y0051515D01*
X0080460Y0051357D01*
X0080522Y0051265D01*
X0080460Y0051173D01*
X0080429Y0051015D01*
X0080460Y0050857D01*
X0080522Y0050765D01*
X0080460Y0050673D01*
X0080429Y0050515D01*
X0080460Y0050357D01*
X0080550Y0050224D01*
X0080683Y0050134D01*
X0080841Y0050103D01*
X0082341D01*
X0082499Y0050134D01*
X0082632Y0050224D01*
X0082722Y0050357D01*
X0082753Y0050515D01*
X0082722Y0050673D01*
X0082660Y0050765D01*
X0082722Y0050857D01*
X0082753Y0051015D01*
X0082722Y0051173D01*
X0082660Y0051265D01*
X0082722Y0051357D01*
X0082753Y0051515D01*
X0082750Y0051528D01*
X0082831Y0051627D01*
X0083471D01*
X0084067Y0051031D01*
Y0050994D01*
X0083976Y0050859D01*
X0083937Y0050661D01*
X0083976Y0050462D01*
X0084089Y0050294D01*
X0084257Y0050182D01*
X0084455Y0050143D01*
X0084653Y0050182D01*
X0084821Y0050294D01*
X0084934Y0050462D01*
X0084973Y0050661D01*
X0084934Y0050859D01*
X0084843Y0050994D01*
Y0051192D01*
X0084819Y0051316D01*
X0084814Y0051341D01*
X0084730Y0051467D01*
X0083907Y0052290D01*
X0083781Y0052374D01*
X0083632Y0052403D01*
X0082831D01*
X0082750Y0052502D01*
D02*
G37*
G36*
X0131064Y0056019D02*
X0130816Y0055970D01*
X0130606Y0055830D01*
X0130466Y0055620D01*
X0130417Y0055372D01*
X0130466Y0055124D01*
X0130606Y0054914D01*
X0130611Y0054911D01*
Y0052662D01*
X0129794D01*
Y0052008D01*
X0129540D01*
Y0052662D01*
X0129116D01*
Y0054044D01*
X0127808D01*
D01*
D01*
X0127808Y0054044D01*
X0127716D01*
Y0054044D01*
X0126408D01*
Y0052636D01*
X0126609D01*
Y0052265D01*
X0125346D01*
Y0051715D01*
X0125346D01*
X0125279D01*
X0125256Y0051715D01*
X0125256Y0051715D01*
Y0051715D01*
X0123952D01*
Y0049911D01*
Y0048107D01*
X0125256D01*
X0125346Y0048017D01*
Y0047557D01*
X0128054D01*
Y0047583D01*
X0128455D01*
Y0047417D01*
X0128455Y0047417D01*
X0128455Y0047325D01*
X0128455D01*
Y0047124D01*
X0122179D01*
Y0047557D01*
X0122304D01*
Y0048040D01*
X0122371Y0048107D01*
X0122394Y0048107D01*
X0122394Y0048107D01*
Y0048107D01*
X0123698D01*
Y0049911D01*
Y0051715D01*
X0122394D01*
X0122394Y0051715D01*
Y0051715D01*
X0122371Y0051715D01*
X0122304Y0051782D01*
Y0051659D01*
X0119596D01*
Y0051313D01*
X0110998D01*
X0110899Y0051293D01*
X0110815Y0051237D01*
X0110759Y0051153D01*
X0110739Y0051054D01*
Y0050229D01*
X0110680D01*
Y0046673D01*
X0114871D01*
Y0047997D01*
X0115954D01*
X0116195Y0047756D01*
Y0047567D01*
X0115994D01*
Y0046159D01*
X0117302D01*
Y0046159D01*
X0117302D01*
X0117302Y0046159D01*
X0117394D01*
Y0046159D01*
X0118702D01*
Y0047567D01*
X0118501D01*
Y0048137D01*
X0119187Y0048823D01*
X0119596D01*
Y0048807D01*
X0122281D01*
X0122371Y0048717D01*
Y0048515D01*
X0122371D01*
X0122304D01*
X0122281Y0048515D01*
X0122281Y0048515D01*
Y0048515D01*
X0121940D01*
X0121920Y0048519D01*
X0120015D01*
X0119995Y0048515D01*
X0119596D01*
Y0047557D01*
X0119756D01*
Y0045727D01*
X0119536D01*
Y0043697D01*
X0119215Y0043377D01*
X0117729D01*
Y0043434D01*
X0115357D01*
X0115193Y0043559D01*
X0114946Y0043662D01*
X0114681Y0043697D01*
X0114416Y0043662D01*
X0114169Y0043559D01*
X0113956Y0043397D01*
X0113794Y0043184D01*
X0113691Y0042937D01*
X0113656Y0042672D01*
X0113691Y0042407D01*
X0113794Y0042160D01*
X0113956Y0041947D01*
X0114169Y0041785D01*
X0114416Y0041682D01*
X0114681Y0041647D01*
X0114946Y0041682D01*
X0115193Y0041785D01*
X0115357Y0041910D01*
X0117729D01*
Y0041967D01*
X0119507D01*
X0119689Y0041991D01*
X0119789Y0042033D01*
X0119859Y0042062D01*
X0120005Y0042174D01*
X0120750Y0042919D01*
X0122344D01*
Y0045727D01*
X0122179D01*
Y0046218D01*
X0128455D01*
Y0046017D01*
X0129863D01*
Y0046017D01*
X0130429D01*
Y0046671D01*
X0130556D01*
Y0046798D01*
X0131260D01*
Y0047325D01*
D01*
Y0047325D01*
X0131260Y0047325D01*
Y0047417D01*
X0131260D01*
Y0048725D01*
X0131105D01*
X0131015Y0048815D01*
X0131018Y0049097D01*
X0131384Y0049464D01*
X0131384Y0049464D01*
X0131434Y0049537D01*
X0131483Y0049611D01*
X0131517Y0049784D01*
X0131517Y0049784D01*
Y0049954D01*
X0131768D01*
Y0051262D01*
D01*
Y0051262D01*
X0131768Y0051262D01*
Y0051354D01*
X0131768D01*
Y0052662D01*
X0131517D01*
Y0054911D01*
X0131522Y0054914D01*
X0131662Y0055124D01*
X0131711Y0055372D01*
X0131662Y0055620D01*
X0131522Y0055830D01*
X0131312Y0055970D01*
X0131064Y0056019D01*
D02*
G37*
G36*
X0075171Y0051054D02*
X0074676D01*
Y0050559D01*
X0074797Y0050583D01*
X0075007Y0050723D01*
X0075147Y0050933D01*
X0075171Y0051054D01*
D02*
G37*
G36*
X0074422D02*
X0073927D01*
X0073951Y0050933D01*
X0074091Y0050723D01*
X0074301Y0050583D01*
X0074422Y0050559D01*
Y0051054D01*
D02*
G37*
G36*
X0074676Y0051803D02*
Y0051308D01*
X0075171D01*
X0075147Y0051429D01*
X0075007Y0051639D01*
X0074797Y0051779D01*
X0074676Y0051803D01*
D02*
G37*
G36*
X0074422D02*
X0074301Y0051779D01*
X0074091Y0051639D01*
X0073951Y0051429D01*
X0073927Y0051308D01*
X0074422D01*
Y0051803D01*
D02*
G37*
G36*
X0104267Y0054475D02*
Y0053594D01*
X0105148D01*
X0105130Y0053732D01*
X0105027Y0053979D01*
X0104865Y0054192D01*
X0104652Y0054354D01*
X0104405Y0054457D01*
X0104267Y0054475D01*
D02*
G37*
G36*
X0104013D02*
X0103875Y0054457D01*
X0103628Y0054354D01*
X0103415Y0054192D01*
X0103253Y0053979D01*
X0103150Y0053732D01*
X0103132Y0053594D01*
X0104013D01*
Y0054475D01*
D02*
G37*
G36*
X0052285Y0056835D02*
Y0055212D01*
X0053908D01*
X0053887Y0055429D01*
X0053786Y0055759D01*
X0053623Y0056064D01*
X0053404Y0056331D01*
X0053137Y0056550D01*
X0052832Y0056713D01*
X0052502Y0056814D01*
X0052285Y0056835D01*
D02*
G37*
G36*
X0052031D02*
X0051814Y0056814D01*
X0051484Y0056713D01*
X0051179Y0056550D01*
X0050912Y0056331D01*
X0050693Y0056064D01*
X0050530Y0055759D01*
X0050429Y0055429D01*
X0050408Y0055212D01*
X0052031D01*
Y0056835D01*
D02*
G37*
G36*
X0105148Y0053340D02*
X0104267D01*
Y0052459D01*
X0104405Y0052477D01*
X0104652Y0052580D01*
X0104865Y0052742D01*
X0105027Y0052955D01*
X0105130Y0053202D01*
X0105148Y0053340D01*
D02*
G37*
G36*
X0104013D02*
X0103132D01*
X0103150Y0053202D01*
X0103253Y0052955D01*
X0103415Y0052742D01*
X0103628Y0052580D01*
X0103875Y0052477D01*
X0104013Y0052459D01*
Y0053340D01*
D02*
G37*
G36*
X0053908Y0054958D02*
X0052285D01*
Y0053335D01*
X0052502Y0053356D01*
X0052832Y0053457D01*
X0053137Y0053620D01*
X0053404Y0053839D01*
X0053623Y0054106D01*
X0053786Y0054411D01*
X0053887Y0054741D01*
X0053908Y0054958D01*
D02*
G37*
G36*
X0052031D02*
X0050408D01*
X0050429Y0054741D01*
X0050530Y0054411D01*
X0050693Y0054106D01*
X0050912Y0053839D01*
X0051179Y0053620D01*
X0051484Y0053457D01*
X0051814Y0053356D01*
X0052031Y0053335D01*
Y0054958D01*
D02*
G37*
G36*
X0075041Y0050127D02*
X0074883Y0050096D01*
X0074791Y0050034D01*
X0074699Y0050096D01*
X0074541Y0050127D01*
X0074383Y0050096D01*
X0074291Y0050034D01*
X0074199Y0050096D01*
X0074041Y0050127D01*
X0073883Y0050096D01*
X0073791Y0050034D01*
X0073699Y0050096D01*
X0073541Y0050127D01*
X0073383Y0050096D01*
X0073291Y0050034D01*
X0073199Y0050096D01*
X0073041Y0050127D01*
X0072883Y0050096D01*
X0072791Y0050034D01*
X0072699Y0050096D01*
X0072541Y0050127D01*
X0072383Y0050096D01*
X0072291Y0050034D01*
X0072199Y0050096D01*
X0072041Y0050127D01*
X0071883Y0050096D01*
X0071791Y0050034D01*
X0071699Y0050096D01*
X0071541Y0050127D01*
X0071383Y0050096D01*
X0071291Y0050034D01*
X0071199Y0050096D01*
X0071041Y0050127D01*
X0070883Y0050096D01*
X0070791Y0050034D01*
X0070699Y0050096D01*
X0070668Y0050102D01*
Y0049884D01*
X0070660Y0049873D01*
X0070629Y0049715D01*
Y0048965D01*
Y0048215D01*
X0070652Y0048097D01*
Y0047825D01*
X0070554Y0047806D01*
X0070653Y0047725D01*
Y0045291D01*
X0070653Y0045291D01*
X0070653D01*
X0070682Y0045142D01*
X0070766Y0045016D01*
X0071240Y0044543D01*
Y0044153D01*
X0070924D01*
Y0042845D01*
X0070924Y0042845D01*
X0070924Y0042753D01*
X0070924D01*
Y0041445D01*
X0071175D01*
Y0035367D01*
X0064455Y0028647D01*
X0052385D01*
X0051413Y0029619D01*
X0051446Y0029697D01*
X0051482Y0029972D01*
X0051446Y0030247D01*
X0051340Y0030504D01*
X0051171Y0030724D01*
X0050951Y0030893D01*
X0050694Y0030999D01*
X0050419Y0031035D01*
X0050144Y0030999D01*
X0049887Y0030893D01*
X0049667Y0030724D01*
X0049498Y0030504D01*
X0049392Y0030247D01*
X0049356Y0029972D01*
X0049392Y0029697D01*
X0049498Y0029440D01*
X0049667Y0029220D01*
X0049887Y0029051D01*
X0050144Y0028945D01*
X0050419Y0028909D01*
X0050694Y0028945D01*
X0050772Y0028978D01*
X0051877Y0027874D01*
X0051877Y0027874D01*
X0052024Y0027775D01*
X0052197Y0027741D01*
X0064643D01*
X0064816Y0027775D01*
X0064963Y0027874D01*
X0071948Y0034859D01*
X0071948Y0034859D01*
X0072047Y0035006D01*
X0072081Y0035179D01*
Y0041445D01*
X0072332D01*
Y0042753D01*
D01*
Y0042753D01*
X0072332Y0042753D01*
Y0042845D01*
X0072332D01*
Y0044153D01*
X0072016D01*
Y0044704D01*
X0071987Y0044853D01*
X0071903Y0044979D01*
X0071429Y0045452D01*
Y0047725D01*
X0071528Y0047806D01*
X0071541Y0047803D01*
X0071699Y0047834D01*
X0071791Y0047896D01*
X0071883Y0047834D01*
X0072041Y0047803D01*
X0072199Y0047834D01*
X0072291Y0047896D01*
X0072383Y0047834D01*
X0072541Y0047803D01*
X0072699Y0047834D01*
X0072791Y0047896D01*
X0072883Y0047834D01*
X0073041Y0047803D01*
X0073199Y0047834D01*
X0073291Y0047896D01*
X0073383Y0047834D01*
X0073541Y0047803D01*
X0073699Y0047834D01*
X0073791Y0047896D01*
X0073883Y0047834D01*
X0074041Y0047803D01*
X0074199Y0047834D01*
X0074291Y0047896D01*
X0074383Y0047834D01*
X0074541Y0047803D01*
X0074699Y0047834D01*
X0074791Y0047896D01*
X0074883Y0047834D01*
X0075041Y0047803D01*
X0075199Y0047834D01*
X0075291Y0047896D01*
X0075383Y0047834D01*
X0075414Y0047828D01*
Y0048046D01*
X0075422Y0048057D01*
X0075453Y0048215D01*
Y0048965D01*
Y0049715D01*
X0075422Y0049873D01*
X0075414Y0049884D01*
Y0050102D01*
X0075383Y0050096D01*
X0075291Y0050034D01*
X0075199Y0050096D01*
X0075041Y0050127D01*
D02*
G37*
G36*
X0131260Y0046544D02*
X0130683D01*
Y0046017D01*
X0131260D01*
Y0046544D01*
D02*
G37*
G36*
X0100965Y0048723D02*
X0100749Y0048680D01*
X0100566Y0048557D01*
X0100443Y0048374D01*
X0100400Y0048158D01*
Y0046558D01*
X0100443Y0046342D01*
X0100566Y0046159D01*
X0100749Y0046036D01*
X0100965Y0045993D01*
X0101181Y0046036D01*
X0101364Y0046159D01*
X0101487Y0046342D01*
X0101530Y0046558D01*
Y0048158D01*
X0101487Y0048374D01*
X0101364Y0048557D01*
X0101181Y0048680D01*
X0100965Y0048723D01*
D02*
G37*
G36*
X0096450Y0047231D02*
X0096012D01*
Y0046018D01*
X0096101Y0046036D01*
X0096284Y0046159D01*
X0096407Y0046342D01*
X0096450Y0046558D01*
Y0047231D01*
D02*
G37*
G36*
X0095758D02*
X0095320D01*
Y0046558D01*
X0095363Y0046342D01*
X0095486Y0046159D01*
X0095669Y0046036D01*
X0095758Y0046018D01*
Y0047231D01*
D02*
G37*
G36*
X0097155Y0048723D02*
X0096939Y0048680D01*
X0096756Y0048557D01*
X0096633Y0048374D01*
X0096590Y0048158D01*
Y0046558D01*
X0096633Y0046342D01*
X0096756Y0046159D01*
X0096939Y0046036D01*
X0097155Y0045993D01*
X0097371Y0046036D01*
X0097554Y0046159D01*
X0097677Y0046342D01*
X0097720Y0046558D01*
Y0048158D01*
X0097677Y0048374D01*
X0097554Y0048557D01*
X0097371Y0048680D01*
X0097155Y0048723D01*
D02*
G37*
G36*
X0106114Y0045785D02*
X0104706D01*
Y0045258D01*
X0104706Y0045258D01*
X0104706Y0045166D01*
X0104706D01*
Y0044965D01*
X0101535D01*
X0101535Y0044965D01*
X0101362Y0044931D01*
X0101215Y0044832D01*
X0101215Y0044832D01*
X0100645Y0044262D01*
X0100546Y0044115D01*
X0100512Y0043942D01*
Y0043677D01*
X0100443Y0043574D01*
X0100400Y0043358D01*
Y0041758D01*
X0100443Y0041542D01*
X0100566Y0041359D01*
X0100749Y0041236D01*
X0100965Y0041193D01*
X0101181Y0041236D01*
X0101364Y0041359D01*
X0101487Y0041542D01*
X0101530Y0041758D01*
Y0043358D01*
X0101487Y0043574D01*
X0101418Y0043677D01*
Y0043754D01*
X0101723Y0044059D01*
X0104706D01*
Y0043858D01*
X0106114D01*
Y0045166D01*
D01*
Y0045166D01*
X0106114Y0045166D01*
Y0045258D01*
X0106114D01*
Y0045785D01*
D02*
G37*
G36*
X0099695Y0048723D02*
X0099479Y0048680D01*
X0099296Y0048557D01*
X0099173Y0048374D01*
X0099130Y0048158D01*
Y0046558D01*
X0099173Y0046342D01*
X0099296Y0046159D01*
X0099479Y0046036D01*
X0099695Y0045993D01*
X0099911Y0046036D01*
X0100094Y0046159D01*
X0100217Y0046342D01*
X0100260Y0046558D01*
Y0048158D01*
X0100217Y0048374D01*
X0100094Y0048557D01*
X0099911Y0048680D01*
X0099695Y0048723D01*
D02*
G37*
G36*
X0098425D02*
X0098209Y0048680D01*
X0098026Y0048557D01*
X0097903Y0048374D01*
X0097860Y0048158D01*
Y0046558D01*
X0097903Y0046342D01*
X0098026Y0046159D01*
X0098209Y0046036D01*
X0098425Y0045993D01*
X0098641Y0046036D01*
X0098824Y0046159D01*
X0098947Y0046342D01*
X0098990Y0046558D01*
Y0048158D01*
X0098947Y0048374D01*
X0098824Y0048557D01*
X0098641Y0048680D01*
X0098425Y0048723D01*
D02*
G37*
G36*
X0092583Y0050939D02*
X0092335Y0050890D01*
X0092125Y0050750D01*
X0091985Y0050540D01*
X0091936Y0050292D01*
X0091985Y0050044D01*
X0092125Y0049834D01*
X0092130Y0049831D01*
Y0049487D01*
X0091879D01*
Y0048179D01*
X0091879Y0048179D01*
X0091879Y0048087D01*
X0091879D01*
Y0046779D01*
X0092130D01*
Y0046566D01*
X0091879D01*
Y0045258D01*
X0091879Y0045258D01*
X0091879Y0045166D01*
X0091879D01*
Y0043858D01*
X0093287D01*
Y0044059D01*
X0095127D01*
X0095432Y0043754D01*
Y0043677D01*
X0095363Y0043574D01*
X0095320Y0043358D01*
Y0041758D01*
X0095363Y0041542D01*
X0095486Y0041359D01*
X0095669Y0041236D01*
X0095885Y0041193D01*
X0096101Y0041236D01*
X0096284Y0041359D01*
X0096407Y0041542D01*
X0096450Y0041758D01*
Y0043358D01*
X0096407Y0043574D01*
X0096338Y0043677D01*
Y0043942D01*
X0096338Y0043942D01*
X0096338Y0043942D01*
Y0043942D01*
X0096329Y0043989D01*
X0096304Y0044115D01*
X0096304Y0044115D01*
X0096304Y0044115D01*
X0096259Y0044183D01*
X0096205Y0044262D01*
X0095635Y0044832D01*
X0095635Y0044832D01*
X0095635Y0044832D01*
X0095557Y0044885D01*
X0095488Y0044931D01*
X0095488Y0044931D01*
X0095488Y0044931D01*
X0095407Y0044947D01*
X0095315Y0044965D01*
X0095315Y0044965D01*
X0095315Y0044965D01*
X0093287D01*
Y0045166D01*
D01*
Y0045166D01*
X0093287Y0045166D01*
Y0045258D01*
X0093287D01*
Y0046566D01*
X0093036D01*
Y0046779D01*
X0093287D01*
Y0046980D01*
X0094050D01*
Y0046558D01*
X0094093Y0046342D01*
X0094216Y0046159D01*
X0094399Y0046036D01*
X0094615Y0045993D01*
X0094831Y0046036D01*
X0095014Y0046159D01*
X0095137Y0046342D01*
X0095180Y0046558D01*
Y0048158D01*
X0095137Y0048374D01*
X0095014Y0048557D01*
X0094831Y0048680D01*
X0094615Y0048723D01*
X0094399Y0048680D01*
X0094216Y0048557D01*
X0094093Y0048374D01*
X0094050Y0048158D01*
Y0047886D01*
X0093287D01*
Y0048087D01*
D01*
Y0048087D01*
X0093287Y0048087D01*
Y0048179D01*
X0093287D01*
Y0049487D01*
X0093036D01*
Y0049831D01*
X0093041Y0049834D01*
X0093181Y0050044D01*
X0093230Y0050292D01*
X0093181Y0050540D01*
X0093041Y0050750D01*
X0092831Y0050890D01*
X0092583Y0050939D01*
D02*
G37*
G36*
X0082169Y0049286D02*
X0081971Y0049247D01*
X0081803Y0049134D01*
X0081690Y0048966D01*
X0081651Y0048768D01*
X0081690Y0048570D01*
X0081803Y0048402D01*
X0081971Y0048289D01*
X0082169Y0048250D01*
X0082367Y0048289D01*
X0082502Y0048380D01*
X0083786D01*
X0084289Y0047877D01*
X0084240Y0047759D01*
X0082502D01*
X0082367Y0047850D01*
X0082169Y0047889D01*
X0081971Y0047850D01*
X0081803Y0047737D01*
X0081690Y0047569D01*
X0081651Y0047371D01*
X0081690Y0047173D01*
X0081803Y0047005D01*
X0081971Y0046892D01*
X0082169Y0046853D01*
X0082367Y0046892D01*
X0082502Y0046983D01*
X0084294D01*
X0085337Y0045940D01*
Y0045148D01*
X0085216Y0045107D01*
X0085171Y0045166D01*
X0084961Y0045327D01*
X0084717Y0045428D01*
X0084455Y0045463D01*
X0084193Y0045428D01*
X0083949Y0045327D01*
X0083739Y0045166D01*
X0083578Y0044956D01*
X0083477Y0044712D01*
X0083442Y0044450D01*
X0083477Y0044188D01*
X0083578Y0043944D01*
X0083739Y0043734D01*
X0083949Y0043573D01*
X0084193Y0043472D01*
X0084455Y0043437D01*
X0084717Y0043472D01*
X0084961Y0043573D01*
X0085171Y0043734D01*
X0085216Y0043793D01*
X0085337Y0043752D01*
Y0043180D01*
X0085337Y0043180D01*
X0085337D01*
X0085366Y0043031D01*
X0085450Y0042905D01*
X0086066Y0042290D01*
X0086017Y0042172D01*
X0085982Y0041910D01*
X0086017Y0041648D01*
X0086118Y0041404D01*
X0086279Y0041194D01*
X0086489Y0041033D01*
X0086733Y0040932D01*
X0086995Y0040897D01*
X0087257Y0040932D01*
X0087501Y0041033D01*
X0087711Y0041194D01*
X0087872Y0041404D01*
X0087973Y0041648D01*
X0088008Y0041910D01*
X0087973Y0042172D01*
X0087872Y0042416D01*
X0087711Y0042626D01*
X0087501Y0042787D01*
X0087257Y0042888D01*
X0086995Y0042923D01*
X0086733Y0042888D01*
X0086615Y0042839D01*
X0086113Y0043341D01*
Y0043752D01*
X0086234Y0043793D01*
X0086279Y0043734D01*
X0086489Y0043573D01*
X0086733Y0043472D01*
X0086995Y0043437D01*
X0087257Y0043472D01*
X0087501Y0043573D01*
X0087711Y0043734D01*
X0087872Y0043944D01*
X0087973Y0044188D01*
X0088008Y0044450D01*
X0087973Y0044712D01*
X0087872Y0044956D01*
X0087711Y0045166D01*
X0087501Y0045327D01*
X0087383Y0045376D01*
Y0045720D01*
X0087354Y0045869D01*
X0087270Y0045995D01*
X0084222Y0049043D01*
X0084096Y0049127D01*
X0083947Y0049156D01*
X0082502D01*
X0082367Y0049247D01*
X0082169Y0049286D01*
D02*
G37*
G36*
X0040448Y0049664D02*
X0039921D01*
Y0049087D01*
X0040448D01*
Y0049664D01*
D02*
G37*
G36*
Y0048833D02*
X0039921D01*
Y0048256D01*
X0040448D01*
Y0048833D01*
D02*
G37*
G36*
X0106114Y0046566D02*
X0105537D01*
Y0046039D01*
X0106114D01*
Y0046566D01*
D02*
G37*
G36*
X0105283D02*
X0104706D01*
Y0046039D01*
X0105283D01*
Y0046566D01*
D02*
G37*
G36*
X0096012Y0048698D02*
Y0047485D01*
X0096450D01*
Y0048158D01*
X0096407Y0048374D01*
X0096284Y0048557D01*
X0096101Y0048680D01*
X0096012Y0048698D01*
D02*
G37*
G36*
X0095758D02*
X0095669Y0048680D01*
X0095486Y0048557D01*
X0095363Y0048374D01*
X0095320Y0048158D01*
Y0047485D01*
X0095758D01*
Y0048698D01*
D02*
G37*
G36*
X0090239Y0060895D02*
X0089662D01*
Y0060368D01*
X0090239D01*
Y0060895D01*
D02*
G37*
G36*
X0089408D02*
X0088831D01*
Y0060368D01*
X0089408D01*
Y0060895D01*
D02*
G37*
G36*
X0093940Y0061527D02*
X0093559D01*
Y0060750D01*
X0093940D01*
Y0061527D01*
D02*
G37*
G36*
X0093305D02*
X0092924D01*
Y0060750D01*
X0093305D01*
Y0061527D01*
D02*
G37*
G36*
X0103378Y0061211D02*
X0103116Y0061176D01*
X0102872Y0061075D01*
X0102662Y0060914D01*
X0102501Y0060704D01*
X0102400Y0060460D01*
X0102365Y0060198D01*
X0102400Y0059936D01*
X0102501Y0059692D01*
X0102662Y0059482D01*
X0102872Y0059321D01*
X0103116Y0059220D01*
X0103378Y0059185D01*
X0103640Y0059220D01*
X0103884Y0059321D01*
X0104094Y0059482D01*
X0104255Y0059692D01*
X0104356Y0059936D01*
X0104391Y0060198D01*
X0104356Y0060460D01*
X0104255Y0060704D01*
X0104094Y0060914D01*
X0103884Y0061075D01*
X0103640Y0061176D01*
X0103378Y0061211D01*
D02*
G37*
G36*
X0084455Y0059042D02*
Y0058547D01*
X0084950D01*
X0084926Y0058668D01*
X0084786Y0058878D01*
X0084576Y0059018D01*
X0084455Y0059042D01*
D02*
G37*
G36*
X0093940Y0060496D02*
X0093559D01*
Y0059719D01*
X0093940D01*
Y0060496D01*
D02*
G37*
G36*
X0093305D02*
X0092924D01*
Y0059719D01*
X0093305D01*
Y0060496D01*
D02*
G37*
G36*
X0107696Y0064374D02*
Y0064008D01*
X0108062D01*
X0108048Y0064079D01*
X0107935Y0064247D01*
X0107767Y0064360D01*
X0107696Y0064374D01*
D02*
G37*
G36*
X0107442D02*
X0107371Y0064360D01*
X0107203Y0064247D01*
X0107090Y0064079D01*
X0107076Y0064008D01*
X0107442D01*
Y0064374D01*
D02*
G37*
G36*
X0082677Y0065011D02*
Y0064516D01*
X0083172D01*
X0083148Y0064637D01*
X0083008Y0064847D01*
X0082798Y0064987D01*
X0082677Y0065011D01*
D02*
G37*
G36*
X0082423D02*
X0082302Y0064987D01*
X0082092Y0064847D01*
X0081952Y0064637D01*
X0081928Y0064516D01*
X0082423D01*
Y0065011D01*
D02*
G37*
G36*
X0108062Y0063754D02*
X0107696D01*
Y0063388D01*
X0107767Y0063402D01*
X0107935Y0063515D01*
X0108048Y0063683D01*
X0108062Y0063754D01*
D02*
G37*
G36*
X0107442D02*
X0107076D01*
X0107090Y0063683D01*
X0107203Y0063515D01*
X0107371Y0063402D01*
X0107442Y0063388D01*
Y0063754D01*
D02*
G37*
G36*
X0083172Y0064262D02*
X0082677D01*
Y0063767D01*
X0082798Y0063791D01*
X0083008Y0063931D01*
X0083148Y0064141D01*
X0083172Y0064262D01*
D02*
G37*
G36*
X0082423D02*
X0081928D01*
X0081952Y0064141D01*
X0082092Y0063931D01*
X0082302Y0063791D01*
X0082423Y0063767D01*
Y0064262D01*
D02*
G37*
G36*
X0084201Y0059042D02*
X0084080Y0059018D01*
X0083870Y0058878D01*
X0083730Y0058668D01*
X0083706Y0058547D01*
X0084201D01*
Y0059042D01*
D02*
G37*
G36*
X0130175Y0057785D02*
X0128778D01*
Y0057150D01*
X0130175D01*
Y0057785D01*
D02*
G37*
G36*
X0127254Y0058920D02*
Y0057912D01*
Y0056904D01*
X0127392Y0056922D01*
X0127639Y0057025D01*
X0127803Y0057150D01*
X0128524D01*
Y0057912D01*
Y0058674D01*
X0127803D01*
X0127639Y0058799D01*
X0127392Y0058902D01*
X0127254Y0058920D01*
D02*
G37*
G36*
X0062992Y0057899D02*
Y0057404D01*
X0063487D01*
X0063463Y0057525D01*
X0063323Y0057735D01*
X0063113Y0057875D01*
X0062992Y0057899D01*
D02*
G37*
G36*
X0062738D02*
X0062617Y0057875D01*
X0062407Y0057735D01*
X0062267Y0057525D01*
X0062243Y0057404D01*
X0062738D01*
Y0057899D01*
D02*
G37*
G36*
X0063487Y0057150D02*
X0062992D01*
Y0056655D01*
X0063113Y0056679D01*
X0063323Y0056819D01*
X0063463Y0057029D01*
X0063487Y0057150D01*
D02*
G37*
G36*
X0062738D02*
X0062243D01*
X0062267Y0057029D01*
X0062407Y0056819D01*
X0062617Y0056679D01*
X0062738Y0056655D01*
Y0057150D01*
D02*
G37*
G36*
X0127000Y0057785D02*
X0126119D01*
X0126137Y0057647D01*
X0126240Y0057400D01*
X0126402Y0057187D01*
X0126615Y0057025D01*
X0126862Y0056922D01*
X0127000Y0056904D01*
Y0057785D01*
D02*
G37*
G36*
X0114554Y0061346D02*
X0105029D01*
X0104930Y0061326D01*
X0104846Y0061270D01*
X0104790Y0061186D01*
X0104770Y0061087D01*
Y0057023D01*
X0104790Y0056924D01*
X0104846Y0056840D01*
X0104930Y0056784D01*
X0105029Y0056764D01*
X0110680D01*
Y0056706D01*
X0114871D01*
Y0057207D01*
X0121285D01*
Y0057150D01*
X0123657D01*
X0123821Y0057025D01*
X0124068Y0056922D01*
X0124333Y0056887D01*
X0124598Y0056922D01*
X0124845Y0057025D01*
X0125058Y0057187D01*
X0125220Y0057400D01*
X0125323Y0057647D01*
X0125358Y0057912D01*
X0125323Y0058177D01*
X0125220Y0058424D01*
X0125058Y0058637D01*
X0124845Y0058799D01*
X0124598Y0058902D01*
X0124333Y0058937D01*
X0124068Y0058902D01*
X0123821Y0058799D01*
X0123657Y0058674D01*
X0121285D01*
Y0058617D01*
X0114871D01*
Y0060262D01*
X0114813D01*
Y0061087D01*
X0114793Y0061186D01*
X0114737Y0061270D01*
X0114653Y0061326D01*
X0114554Y0061346D01*
D02*
G37*
G36*
X0130175Y0058674D02*
X0128778D01*
Y0058039D01*
X0130175D01*
Y0058674D01*
D02*
G37*
G36*
X0127000Y0058920D02*
X0126862Y0058902D01*
X0126615Y0058799D01*
X0126402Y0058637D01*
X0126240Y0058424D01*
X0126137Y0058177D01*
X0126119Y0058039D01*
X0127000D01*
Y0058920D01*
D02*
G37*
G36*
X0035179Y0058913D02*
Y0058547D01*
X0035545D01*
X0035531Y0058618D01*
X0035418Y0058786D01*
X0035250Y0058899D01*
X0035179Y0058913D01*
D02*
G37*
G36*
X0034925D02*
X0034854Y0058899D01*
X0034686Y0058786D01*
X0034573Y0058618D01*
X0034559Y0058547D01*
X0034925D01*
Y0058913D01*
D02*
G37*
G36*
X0084950Y0058293D02*
X0084455D01*
Y0057798D01*
X0084576Y0057822D01*
X0084786Y0057962D01*
X0084926Y0058172D01*
X0084950Y0058293D01*
D02*
G37*
G36*
X0084201D02*
X0083706D01*
X0083730Y0058172D01*
X0083870Y0057962D01*
X0084080Y0057822D01*
X0084201Y0057798D01*
Y0058293D01*
D02*
G37*
G36*
X0035545D02*
X0035179D01*
Y0057927D01*
X0035250Y0057941D01*
X0035418Y0058054D01*
X0035531Y0058222D01*
X0035545Y0058293D01*
D02*
G37*
G36*
X0034925D02*
X0034559D01*
X0034573Y0058222D01*
X0034686Y0058054D01*
X0034854Y0057941D01*
X0034925Y0057927D01*
Y0058293D01*
D02*
G37*
G36*
X0110504Y0034900D02*
X0107999D01*
Y0032395D01*
X0108285Y0032417D01*
X0108688Y0032514D01*
X0109072Y0032673D01*
X0109425Y0032889D01*
X0109740Y0033159D01*
X0110010Y0033474D01*
X0110226Y0033827D01*
X0110385Y0034211D01*
X0110482Y0034614D01*
X0110504Y0034900D01*
D02*
G37*
G36*
X0107745D02*
X0105240D01*
X0105262Y0034614D01*
X0105359Y0034211D01*
X0105518Y0033827D01*
X0105734Y0033474D01*
X0106004Y0033159D01*
X0106319Y0032889D01*
X0106673Y0032673D01*
X0107056Y0032514D01*
X0107459Y0032417D01*
X0107745Y0032395D01*
Y0034900D01*
D02*
G37*
G36*
X0091095Y0033480D02*
X0090130D01*
X0090151Y0033320D01*
X0090262Y0033053D01*
X0090438Y0032823D01*
X0090668Y0032647D01*
X0090935Y0032536D01*
X0091095Y0032515D01*
Y0033480D01*
D02*
G37*
G36*
X0093992Y0034715D02*
X0093705Y0034678D01*
X0093438Y0034567D01*
X0093208Y0034391D01*
X0093032Y0034161D01*
X0092921Y0033894D01*
X0092883Y0033607D01*
X0092921Y0033320D01*
X0093032Y0033053D01*
X0093208Y0032823D01*
X0093438Y0032647D01*
X0093705Y0032536D01*
X0093992Y0032499D01*
X0094279Y0032536D01*
X0094546Y0032647D01*
X0094776Y0032823D01*
X0094952Y0033053D01*
X0095063Y0033320D01*
X0095100Y0033607D01*
X0095063Y0033894D01*
X0094952Y0034161D01*
X0094776Y0034391D01*
X0094546Y0034567D01*
X0094279Y0034678D01*
X0093992Y0034715D01*
D02*
G37*
G36*
X0046736Y0033664D02*
X0046471Y0033629D01*
X0046224Y0033526D01*
X0046011Y0033364D01*
X0045849Y0033151D01*
X0045746Y0032904D01*
X0045711Y0032639D01*
X0045746Y0032374D01*
X0045849Y0032127D01*
X0046011Y0031914D01*
X0046224Y0031752D01*
X0046471Y0031649D01*
X0046736Y0031614D01*
X0047001Y0031649D01*
X0047248Y0031752D01*
X0047461Y0031914D01*
X0047623Y0032127D01*
X0047726Y0032374D01*
X0047761Y0032639D01*
X0047726Y0032904D01*
X0047623Y0033151D01*
X0047461Y0033364D01*
X0047248Y0033526D01*
X0047001Y0033629D01*
X0046736Y0033664D01*
D02*
G37*
G36*
X0044196D02*
X0043931Y0033629D01*
X0043684Y0033526D01*
X0043471Y0033364D01*
X0043309Y0033151D01*
X0043206Y0032904D01*
X0043171Y0032639D01*
X0043206Y0032374D01*
X0043309Y0032127D01*
X0043471Y0031914D01*
X0043684Y0031752D01*
X0043931Y0031649D01*
X0044196Y0031614D01*
X0044461Y0031649D01*
X0044708Y0031752D01*
X0044921Y0031914D01*
X0045083Y0032127D01*
X0045186Y0032374D01*
X0045221Y0032639D01*
X0045186Y0032904D01*
X0045083Y0033151D01*
X0044921Y0033364D01*
X0044708Y0033526D01*
X0044461Y0033629D01*
X0044196Y0033664D01*
D02*
G37*
G36*
X0085514Y0034900D02*
X0083009D01*
Y0032395D01*
X0083295Y0032417D01*
X0083698Y0032514D01*
X0084081Y0032673D01*
X0084435Y0032889D01*
X0084750Y0033159D01*
X0085020Y0033474D01*
X0085236Y0033827D01*
X0085395Y0034211D01*
X0085492Y0034614D01*
X0085514Y0034900D01*
D02*
G37*
G36*
X0082755D02*
X0080250D01*
X0080272Y0034614D01*
X0080369Y0034211D01*
X0080528Y0033827D01*
X0080744Y0033474D01*
X0081014Y0033159D01*
X0081329Y0032889D01*
X0081682Y0032673D01*
X0082066Y0032514D01*
X0082469Y0032417D01*
X0082755Y0032395D01*
Y0034900D01*
D02*
G37*
G36*
X0055118Y0035750D02*
X0053216D01*
X0053242Y0035479D01*
X0053359Y0035096D01*
X0053547Y0034743D01*
X0053801Y0034434D01*
X0054111Y0034180D01*
X0054464Y0033991D01*
X0054847Y0033875D01*
X0055118Y0033848D01*
Y0035750D01*
D02*
G37*
G36*
X0122365Y0035875D02*
Y0033846D01*
X0124394D01*
X0124365Y0034142D01*
X0124242Y0034549D01*
X0124041Y0034924D01*
X0123772Y0035253D01*
X0123443Y0035522D01*
X0123068Y0035723D01*
X0122661Y0035846D01*
X0122365Y0035875D01*
D02*
G37*
G36*
X0067818Y0035750D02*
X0065916D01*
X0065942Y0035479D01*
X0066059Y0035096D01*
X0066247Y0034743D01*
X0066501Y0034434D01*
X0066811Y0034180D01*
X0067164Y0033991D01*
X0067547Y0033875D01*
X0067818Y0033848D01*
Y0035750D01*
D02*
G37*
G36*
X0057274D02*
X0055372D01*
Y0033848D01*
X0055643Y0033875D01*
X0056026Y0033991D01*
X0056379Y0034180D01*
X0056689Y0034434D01*
X0056943Y0034743D01*
X0057131Y0035096D01*
X0057248Y0035479D01*
X0057274Y0035750D01*
D02*
G37*
G36*
X0091095Y0034699D02*
X0090935Y0034678D01*
X0090668Y0034567D01*
X0090438Y0034391D01*
X0090262Y0034161D01*
X0090151Y0033894D01*
X0090130Y0033734D01*
X0091095D01*
Y0034699D01*
D02*
G37*
G36*
X0092314Y0033480D02*
X0091349D01*
Y0032515D01*
X0091509Y0032536D01*
X0091776Y0032647D01*
X0092006Y0032823D01*
X0092182Y0033053D01*
X0092293Y0033320D01*
X0092314Y0033480D01*
D02*
G37*
G36*
X0122110Y0035875D02*
X0121814Y0035846D01*
X0121407Y0035723D01*
X0121032Y0035522D01*
X0120703Y0035253D01*
X0120434Y0034924D01*
X0120233Y0034549D01*
X0120110Y0034142D01*
X0120081Y0033846D01*
X0122110D01*
Y0035875D01*
D02*
G37*
G36*
X0091349Y0034699D02*
Y0033734D01*
X0092314D01*
X0092293Y0033894D01*
X0092182Y0034161D01*
X0092006Y0034391D01*
X0091776Y0034567D01*
X0091509Y0034678D01*
X0091349Y0034699D01*
D02*
G37*
G36*
X0035814Y0033664D02*
X0035549Y0033629D01*
X0035302Y0033526D01*
X0035089Y0033364D01*
X0034927Y0033151D01*
X0034824Y0032904D01*
X0034789Y0032639D01*
X0034824Y0032374D01*
X0034927Y0032127D01*
X0035089Y0031914D01*
X0035302Y0031752D01*
X0035549Y0031649D01*
X0035814Y0031614D01*
X0036079Y0031649D01*
X0036326Y0031752D01*
X0036539Y0031914D01*
X0036701Y0032127D01*
X0036804Y0032374D01*
X0036839Y0032639D01*
X0036804Y0032904D01*
X0036701Y0033151D01*
X0036539Y0033364D01*
X0036326Y0033526D01*
X0036079Y0033629D01*
X0035814Y0033664D01*
D02*
G37*
G36*
X0028702Y0030827D02*
Y0028702D01*
X0030827D01*
X0030796Y0029017D01*
X0030667Y0029442D01*
X0030458Y0029833D01*
X0030177Y0030177D01*
X0029833Y0030458D01*
X0029442Y0030667D01*
X0029017Y0030796D01*
X0028702Y0030827D01*
D02*
G37*
G36*
X0028448D02*
X0028133Y0030796D01*
X0027708Y0030667D01*
X0027317Y0030458D01*
X0026973Y0030177D01*
X0026692Y0029833D01*
X0026483Y0029442D01*
X0026354Y0029017D01*
X0026323Y0028702D01*
X0028448D01*
Y0030827D01*
D02*
G37*
G36*
X0130048D02*
Y0028702D01*
X0132173D01*
X0132142Y0029017D01*
X0132014Y0029442D01*
X0131804Y0029833D01*
X0131523Y0030177D01*
X0131179Y0030458D01*
X0130788Y0030667D01*
X0130363Y0030796D01*
X0130048Y0030827D01*
D02*
G37*
G36*
X0129794D02*
X0129479Y0030796D01*
X0129054Y0030667D01*
X0128663Y0030458D01*
X0128319Y0030177D01*
X0128038Y0029833D01*
X0127828Y0029442D01*
X0127700Y0029017D01*
X0127669Y0028702D01*
X0129794D01*
Y0030827D01*
D02*
G37*
G36*
X0030827Y0028448D02*
X0028702D01*
Y0026323D01*
X0029017Y0026354D01*
X0029442Y0026483D01*
X0029833Y0026692D01*
X0030177Y0026973D01*
X0030458Y0027317D01*
X0030667Y0027708D01*
X0030796Y0028133D01*
X0030827Y0028448D01*
D02*
G37*
G36*
X0028448D02*
X0026323D01*
X0026354Y0028133D01*
X0026483Y0027708D01*
X0026692Y0027317D01*
X0026973Y0026973D01*
X0027317Y0026692D01*
X0027708Y0026483D01*
X0028133Y0026354D01*
X0028448Y0026323D01*
Y0028448D01*
D02*
G37*
G36*
X0132173D02*
X0130048D01*
Y0026323D01*
X0130363Y0026354D01*
X0130788Y0026483D01*
X0131179Y0026692D01*
X0131523Y0026973D01*
X0131804Y0027317D01*
X0132014Y0027708D01*
X0132142Y0028133D01*
X0132173Y0028448D01*
D02*
G37*
G36*
X0129794D02*
X0127669D01*
X0127700Y0028133D01*
X0127828Y0027708D01*
X0128038Y0027317D01*
X0128319Y0026973D01*
X0128663Y0026692D01*
X0129054Y0026483D01*
X0129479Y0026354D01*
X0129794Y0026323D01*
Y0028448D01*
D02*
G37*
G36*
X0122110Y0033591D02*
X0120081D01*
X0120110Y0033295D01*
X0120233Y0032888D01*
X0120434Y0032513D01*
X0120703Y0032184D01*
X0121032Y0031915D01*
X0121407Y0031714D01*
X0121814Y0031591D01*
X0122110Y0031562D01*
Y0033591D01*
D02*
G37*
G36*
X0115570Y0031035D02*
X0115295Y0030999D01*
X0115038Y0030893D01*
X0114818Y0030724D01*
X0114649Y0030504D01*
X0114543Y0030247D01*
X0114507Y0029972D01*
X0114543Y0029697D01*
X0114649Y0029440D01*
X0114818Y0029220D01*
X0115038Y0029051D01*
X0115295Y0028945D01*
X0115570Y0028909D01*
X0115845Y0028945D01*
X0116102Y0029051D01*
X0116322Y0029220D01*
X0116491Y0029440D01*
X0116597Y0029697D01*
X0116633Y0029972D01*
X0116597Y0030247D01*
X0116491Y0030504D01*
X0116322Y0030724D01*
X0116102Y0030893D01*
X0115845Y0030999D01*
X0115570Y0031035D01*
D02*
G37*
G36*
X0029337Y0054619D02*
X0029072Y0054584D01*
X0028825Y0054481D01*
X0028612Y0054319D01*
X0028450Y0054106D01*
X0028347Y0053859D01*
X0028312Y0053594D01*
X0028347Y0053329D01*
X0028450Y0053082D01*
X0028612Y0052869D01*
X0028819Y0052711D01*
Y0036576D01*
X0028819Y0036576D01*
X0028819D01*
X0028858Y0036378D01*
X0028971Y0036210D01*
X0032283Y0032897D01*
X0032249Y0032639D01*
X0032284Y0032374D01*
X0032387Y0032127D01*
X0032549Y0031914D01*
X0032762Y0031752D01*
X0033009Y0031649D01*
X0033274Y0031614D01*
X0033539Y0031649D01*
X0033786Y0031752D01*
X0033999Y0031914D01*
X0034161Y0032127D01*
X0034264Y0032374D01*
X0034299Y0032639D01*
X0034264Y0032904D01*
X0034161Y0033151D01*
X0033999Y0033364D01*
X0033786Y0033526D01*
X0033539Y0033629D01*
X0033274Y0033664D01*
X0033016Y0033630D01*
X0029855Y0036791D01*
Y0052711D01*
X0030062Y0052869D01*
X0030224Y0053082D01*
X0030327Y0053329D01*
X0030362Y0053594D01*
X0030327Y0053859D01*
X0030224Y0054106D01*
X0030062Y0054319D01*
X0029849Y0054481D01*
X0029602Y0054584D01*
X0029337Y0054619D01*
D02*
G37*
G36*
X0124394Y0033591D02*
X0122365D01*
Y0031562D01*
X0122661Y0031591D01*
X0123068Y0031714D01*
X0123443Y0031915D01*
X0123772Y0032184D01*
X0124041Y0032513D01*
X0124242Y0032888D01*
X0124365Y0033295D01*
X0124394Y0033591D01*
D02*
G37*
G36*
X0072644Y0031035D02*
X0072369Y0030999D01*
X0072112Y0030893D01*
X0071892Y0030724D01*
X0071723Y0030504D01*
X0071617Y0030247D01*
X0071581Y0029972D01*
X0071617Y0029697D01*
X0071723Y0029440D01*
X0071892Y0029220D01*
X0072112Y0029051D01*
X0072369Y0028945D01*
X0072644Y0028909D01*
X0072919Y0028945D01*
X0073176Y0029051D01*
X0073396Y0029220D01*
X0073565Y0029440D01*
X0073671Y0029697D01*
X0073707Y0029972D01*
X0073671Y0030247D01*
X0073565Y0030504D01*
X0073396Y0030724D01*
X0073176Y0030893D01*
X0072919Y0030999D01*
X0072644Y0031035D01*
D02*
G37*
G36*
X0070104D02*
X0069829Y0030999D01*
X0069572Y0030893D01*
X0069352Y0030724D01*
X0069183Y0030504D01*
X0069077Y0030247D01*
X0069041Y0029972D01*
X0069077Y0029697D01*
X0069183Y0029440D01*
X0069352Y0029220D01*
X0069572Y0029051D01*
X0069829Y0028945D01*
X0070104Y0028909D01*
X0070379Y0028945D01*
X0070636Y0029051D01*
X0070856Y0029220D01*
X0071025Y0029440D01*
X0071131Y0029697D01*
X0071167Y0029972D01*
X0071131Y0030247D01*
X0071025Y0030504D01*
X0070856Y0030724D01*
X0070636Y0030893D01*
X0070379Y0030999D01*
X0070104Y0031035D01*
D02*
G37*
G36*
X0113030D02*
X0112755Y0030999D01*
X0112498Y0030893D01*
X0112278Y0030724D01*
X0112109Y0030504D01*
X0112003Y0030247D01*
X0111967Y0029972D01*
X0112003Y0029697D01*
X0112109Y0029440D01*
X0112278Y0029220D01*
X0112498Y0029051D01*
X0112755Y0028945D01*
X0113030Y0028909D01*
X0113305Y0028945D01*
X0113562Y0029051D01*
X0113782Y0029220D01*
X0113951Y0029440D01*
X0114057Y0029697D01*
X0114093Y0029972D01*
X0114057Y0030247D01*
X0113951Y0030504D01*
X0113782Y0030724D01*
X0113562Y0030893D01*
X0113305Y0030999D01*
X0113030Y0031035D01*
D02*
G37*
G36*
X0075311D02*
X0075036Y0030999D01*
X0074779Y0030893D01*
X0074559Y0030724D01*
X0074390Y0030504D01*
X0074284Y0030247D01*
X0074248Y0029972D01*
X0074284Y0029697D01*
X0074390Y0029440D01*
X0074559Y0029220D01*
X0074779Y0029051D01*
X0075036Y0028945D01*
X0075311Y0028909D01*
X0075586Y0028945D01*
X0075843Y0029051D01*
X0076063Y0029220D01*
X0076232Y0029440D01*
X0076338Y0029697D01*
X0076374Y0029972D01*
X0076338Y0030247D01*
X0076232Y0030504D01*
X0076063Y0030724D01*
X0075843Y0030893D01*
X0075586Y0030999D01*
X0075311Y0031035D01*
D02*
G37*
G36*
X0048260Y0041032D02*
X0047928Y0040988D01*
X0047620Y0040860D01*
X0047354Y0040657D01*
X0047151Y0040391D01*
X0047023Y0040083D01*
X0046979Y0039751D01*
X0047023Y0039419D01*
X0047151Y0039111D01*
X0047354Y0038845D01*
X0047620Y0038642D01*
X0047928Y0038514D01*
X0048260Y0038470D01*
X0048592Y0038514D01*
X0048900Y0038642D01*
X0049166Y0038845D01*
X0049369Y0039111D01*
X0049497Y0039419D01*
X0049541Y0039751D01*
X0049497Y0040083D01*
X0049369Y0040391D01*
X0049166Y0040657D01*
X0048900Y0040860D01*
X0048592Y0040988D01*
X0048260Y0041032D01*
D02*
G37*
G36*
X0031750D02*
X0031418Y0040988D01*
X0031110Y0040860D01*
X0030844Y0040657D01*
X0030641Y0040391D01*
X0030513Y0040083D01*
X0030469Y0039751D01*
X0030513Y0039419D01*
X0030641Y0039111D01*
X0030844Y0038845D01*
X0031110Y0038642D01*
X0031418Y0038514D01*
X0031750Y0038470D01*
X0032082Y0038514D01*
X0032390Y0038642D01*
X0032656Y0038845D01*
X0032859Y0039111D01*
X0032987Y0039419D01*
X0033031Y0039751D01*
X0032987Y0040083D01*
X0032859Y0040391D01*
X0032656Y0040657D01*
X0032390Y0040860D01*
X0032082Y0040988D01*
X0031750Y0041032D01*
D02*
G37*
G36*
X0084455Y0042923D02*
X0084193Y0042888D01*
X0083949Y0042787D01*
X0083739Y0042626D01*
X0083578Y0042416D01*
X0083477Y0042172D01*
X0083442Y0041910D01*
X0083477Y0041648D01*
X0083578Y0041404D01*
X0083739Y0041194D01*
X0083949Y0041033D01*
X0084193Y0040932D01*
X0084455Y0040897D01*
X0084717Y0040932D01*
X0084961Y0041033D01*
X0085171Y0041194D01*
X0085332Y0041404D01*
X0085433Y0041648D01*
X0085468Y0041910D01*
X0085433Y0042172D01*
X0085332Y0042416D01*
X0085171Y0042626D01*
X0084961Y0042787D01*
X0084717Y0042888D01*
X0084455Y0042923D01*
D02*
G37*
G36*
X0099695Y0043923D02*
X0099479Y0043880D01*
X0099296Y0043757D01*
X0099173Y0043574D01*
X0099130Y0043358D01*
Y0041758D01*
X0099173Y0041542D01*
X0099242Y0041439D01*
Y0040582D01*
X0099106D01*
D01*
D01*
X0099106Y0040582D01*
X0099014D01*
Y0040582D01*
X0098813D01*
Y0041351D01*
X0098824Y0041359D01*
X0098947Y0041542D01*
X0098990Y0041758D01*
Y0043358D01*
X0098947Y0043574D01*
X0098824Y0043757D01*
X0098641Y0043880D01*
X0098425Y0043923D01*
X0098209Y0043880D01*
X0098026Y0043757D01*
X0097903Y0043574D01*
X0097860Y0043358D01*
Y0041758D01*
X0097903Y0041542D01*
X0097907Y0041536D01*
Y0040582D01*
X0097706D01*
Y0040582D01*
X0097698D01*
X0097608Y0040672D01*
Y0041439D01*
X0097677Y0041542D01*
X0097720Y0041758D01*
Y0043358D01*
X0097677Y0043574D01*
X0097554Y0043757D01*
X0097371Y0043880D01*
X0097155Y0043923D01*
X0096939Y0043880D01*
X0096756Y0043757D01*
X0096633Y0043574D01*
X0096590Y0043358D01*
Y0041758D01*
X0096633Y0041542D01*
X0096702Y0041439D01*
Y0040636D01*
X0096648Y0040582D01*
X0095931D01*
D01*
D01*
X0095931Y0040582D01*
X0095839D01*
Y0040582D01*
X0095122D01*
X0095068Y0040636D01*
Y0041439D01*
X0095137Y0041542D01*
X0095180Y0041758D01*
Y0043358D01*
X0095137Y0043574D01*
X0095014Y0043757D01*
X0094831Y0043880D01*
X0094615Y0043923D01*
X0094399Y0043880D01*
X0094216Y0043757D01*
X0094093Y0043574D01*
X0094050Y0043358D01*
Y0041758D01*
X0094093Y0041542D01*
X0094162Y0041439D01*
Y0040448D01*
X0094162Y0040448D01*
X0094162D01*
X0094196Y0040275D01*
X0094295Y0040128D01*
X0094531Y0039891D01*
Y0039174D01*
X0095839D01*
Y0039174D01*
X0095839D01*
X0095839Y0039174D01*
X0095931D01*
Y0039174D01*
X0097239D01*
Y0039891D01*
X0097475Y0040127D01*
X0097475Y0040128D01*
X0097574Y0040275D01*
X0097580Y0040304D01*
X0097706Y0040292D01*
Y0039174D01*
X0099014D01*
Y0039174D01*
X0099014D01*
X0099014Y0039174D01*
X0099106D01*
Y0039174D01*
X0100414D01*
Y0040582D01*
X0100148D01*
Y0041439D01*
X0100217Y0041542D01*
X0100260Y0041758D01*
Y0043358D01*
X0100217Y0043574D01*
X0100094Y0043757D01*
X0099911Y0043880D01*
X0099695Y0043923D01*
D02*
G37*
G36*
X0062738Y0038417D02*
X0061857D01*
X0061875Y0038279D01*
X0061978Y0038032D01*
X0062140Y0037820D01*
X0062353Y0037657D01*
X0062600Y0037555D01*
X0062738Y0037536D01*
Y0038417D01*
D02*
G37*
G36*
X0126810Y0038923D02*
Y0036894D01*
X0128839D01*
X0128810Y0037190D01*
X0128687Y0037597D01*
X0128486Y0037972D01*
X0128217Y0038301D01*
X0127888Y0038570D01*
X0127513Y0038771D01*
X0127106Y0038894D01*
X0126810Y0038923D01*
D02*
G37*
G36*
X0122238Y0042111D02*
X0121814Y0042069D01*
X0121407Y0041946D01*
X0121032Y0041745D01*
X0120703Y0041476D01*
X0120434Y0041147D01*
X0120233Y0040772D01*
X0120110Y0040365D01*
X0120068Y0039942D01*
X0120110Y0039518D01*
X0120233Y0039111D01*
X0120434Y0038736D01*
X0120703Y0038407D01*
X0121032Y0038138D01*
X0121407Y0037937D01*
X0121814Y0037814D01*
X0122238Y0037772D01*
X0122661Y0037814D01*
X0123068Y0037937D01*
X0123443Y0038138D01*
X0123772Y0038407D01*
X0124041Y0038736D01*
X0124242Y0039111D01*
X0131064D01*
X0131163Y0039131D01*
X0131247Y0039187D01*
X0131303Y0039271D01*
X0131323Y0039370D01*
Y0041529D01*
X0131303Y0041628D01*
X0131247Y0041712D01*
X0131163Y0041768D01*
X0131064Y0041788D01*
X0123363D01*
X0123068Y0041946D01*
X0122661Y0042069D01*
X0122238Y0042111D01*
D02*
G37*
G36*
X0063873Y0038417D02*
X0062992D01*
Y0037536D01*
X0063130Y0037555D01*
X0063377Y0037657D01*
X0063590Y0037820D01*
X0063752Y0038032D01*
X0063855Y0038279D01*
X0063873Y0038417D01*
D02*
G37*
G36*
X0126844Y0045727D02*
X0124036D01*
Y0042919D01*
X0124074D01*
Y0042291D01*
X0124094Y0042192D01*
X0124150Y0042108D01*
X0124234Y0042052D01*
X0124333Y0042032D01*
X0131064D01*
X0131163Y0042052D01*
X0131247Y0042108D01*
X0131303Y0042192D01*
X0131323Y0042291D01*
Y0045466D01*
X0131303Y0045565D01*
X0131247Y0045649D01*
X0131163Y0045705D01*
X0131064Y0045725D01*
X0126844D01*
Y0045727D01*
D02*
G37*
G36*
X0110236Y0042545D02*
X0108839D01*
Y0041910D01*
X0110236D01*
Y0042545D01*
D02*
G37*
G36*
X0112014Y0043680D02*
Y0042799D01*
X0112895D01*
X0112877Y0042937D01*
X0112774Y0043184D01*
X0112612Y0043397D01*
X0112399Y0043559D01*
X0112152Y0043662D01*
X0112014Y0043680D01*
D02*
G37*
G36*
X0110236Y0043434D02*
X0108839D01*
Y0042799D01*
X0110236D01*
Y0043434D01*
D02*
G37*
G36*
X0074872Y0041845D02*
X0074295D01*
Y0041318D01*
X0074872D01*
Y0041845D01*
D02*
G37*
G36*
X0074041D02*
X0073464D01*
Y0041318D01*
X0074041D01*
Y0041845D01*
D02*
G37*
G36*
X0112895Y0042545D02*
X0112014D01*
Y0041664D01*
X0112152Y0041682D01*
X0112399Y0041785D01*
X0112612Y0041947D01*
X0112774Y0042160D01*
X0112877Y0042407D01*
X0112895Y0042545D01*
D02*
G37*
G36*
X0111760Y0043680D02*
X0111622Y0043662D01*
X0111375Y0043559D01*
X0111211Y0043434D01*
X0110490D01*
Y0042672D01*
Y0041910D01*
X0111211D01*
X0111375Y0041785D01*
X0111622Y0041682D01*
X0111760Y0041664D01*
Y0042672D01*
Y0043680D01*
D02*
G37*
G36*
X0126555Y0038923D02*
X0126259Y0038894D01*
X0125852Y0038771D01*
X0125477Y0038570D01*
X0125148Y0038301D01*
X0124879Y0037972D01*
X0124678Y0037597D01*
X0124555Y0037190D01*
X0124526Y0036894D01*
X0126555D01*
Y0038923D01*
D02*
G37*
G36*
X0082755Y0037659D02*
X0082469Y0037637D01*
X0082066Y0037540D01*
X0081682Y0037381D01*
X0081329Y0037165D01*
X0081014Y0036895D01*
X0080744Y0036580D01*
X0080528Y0036227D01*
X0080369Y0035843D01*
X0080272Y0035440D01*
X0080250Y0035154D01*
X0082755D01*
Y0037659D01*
D02*
G37*
G36*
X0045720Y0038617D02*
X0045347Y0038580D01*
X0044987Y0038472D01*
X0044657Y0038295D01*
X0044366Y0038057D01*
X0044128Y0037766D01*
X0043951Y0037436D01*
X0043843Y0037076D01*
X0043806Y0036703D01*
X0043843Y0036330D01*
X0043951Y0035970D01*
X0044128Y0035640D01*
X0044366Y0035349D01*
X0044657Y0035111D01*
X0044987Y0034934D01*
X0045347Y0034826D01*
X0045720Y0034789D01*
X0046093Y0034826D01*
X0046453Y0034934D01*
X0046783Y0035111D01*
X0047074Y0035349D01*
X0047312Y0035640D01*
X0047489Y0035970D01*
X0047597Y0036330D01*
X0047634Y0036703D01*
X0047597Y0037076D01*
X0047489Y0037436D01*
X0047312Y0037766D01*
X0047074Y0038057D01*
X0046783Y0038295D01*
X0046453Y0038472D01*
X0046093Y0038580D01*
X0045720Y0038617D01*
D02*
G37*
G36*
X0107745Y0037659D02*
X0107459Y0037637D01*
X0107056Y0037540D01*
X0106673Y0037381D01*
X0106319Y0037165D01*
X0106004Y0036895D01*
X0105734Y0036580D01*
X0105518Y0036227D01*
X0105359Y0035843D01*
X0105262Y0035440D01*
X0105240Y0035154D01*
X0107745D01*
Y0037659D01*
D02*
G37*
G36*
X0083009D02*
Y0035154D01*
X0085514D01*
X0085492Y0035440D01*
X0085395Y0035843D01*
X0085236Y0036227D01*
X0085020Y0036580D01*
X0084750Y0036895D01*
X0084435Y0037165D01*
X0084081Y0037381D01*
X0083698Y0037540D01*
X0083295Y0037637D01*
X0083009Y0037659D01*
D02*
G37*
G36*
X0126555Y0036639D02*
X0124526D01*
X0124555Y0036343D01*
X0124678Y0035936D01*
X0124879Y0035561D01*
X0125148Y0035232D01*
X0125477Y0034963D01*
X0125852Y0034762D01*
X0126259Y0034639D01*
X0126555Y0034610D01*
Y0036639D01*
D02*
G37*
G36*
X0069974Y0035750D02*
X0068072D01*
Y0033848D01*
X0068343Y0033875D01*
X0068726Y0033991D01*
X0069079Y0034180D01*
X0069389Y0034434D01*
X0069643Y0034743D01*
X0069831Y0035096D01*
X0069948Y0035479D01*
X0069974Y0035750D01*
D02*
G37*
G36*
X0034290Y0038617D02*
X0033917Y0038580D01*
X0033557Y0038472D01*
X0033227Y0038295D01*
X0032936Y0038057D01*
X0032698Y0037766D01*
X0032521Y0037436D01*
X0032413Y0037076D01*
X0032376Y0036703D01*
X0032413Y0036330D01*
X0032521Y0035970D01*
X0032698Y0035640D01*
X0032936Y0035349D01*
X0033227Y0035111D01*
X0033557Y0034934D01*
X0033917Y0034826D01*
X0034290Y0034789D01*
X0034663Y0034826D01*
X0035023Y0034934D01*
X0035353Y0035111D01*
X0035644Y0035349D01*
X0035882Y0035640D01*
X0036059Y0035970D01*
X0036167Y0036330D01*
X0036204Y0036703D01*
X0036167Y0037076D01*
X0036059Y0037436D01*
X0035882Y0037766D01*
X0035644Y0038057D01*
X0035353Y0038295D01*
X0035023Y0038472D01*
X0034663Y0038580D01*
X0034290Y0038617D01*
D02*
G37*
G36*
X0128839Y0036639D02*
X0126810D01*
Y0034610D01*
X0127106Y0034639D01*
X0127513Y0034762D01*
X0127888Y0034963D01*
X0128217Y0035232D01*
X0128486Y0035561D01*
X0128687Y0035936D01*
X0128810Y0036343D01*
X0128839Y0036639D01*
D02*
G37*
G36*
X0055372Y0037907D02*
Y0036005D01*
X0057274D01*
X0057248Y0036276D01*
X0057131Y0036659D01*
X0056943Y0037012D01*
X0056689Y0037321D01*
X0056379Y0037575D01*
X0056026Y0037764D01*
X0055643Y0037880D01*
X0055372Y0037907D01*
D02*
G37*
G36*
X0055118D02*
X0054847Y0037880D01*
X0054464Y0037764D01*
X0054111Y0037575D01*
X0053801Y0037321D01*
X0053547Y0037012D01*
X0053359Y0036659D01*
X0053242Y0036276D01*
X0053216Y0036005D01*
X0055118D01*
Y0037907D01*
D02*
G37*
G36*
X0068072D02*
Y0036005D01*
X0069974D01*
X0069948Y0036276D01*
X0069831Y0036659D01*
X0069643Y0037012D01*
X0069389Y0037321D01*
X0069079Y0037575D01*
X0068726Y0037764D01*
X0068343Y0037880D01*
X0068072Y0037907D01*
D02*
G37*
G36*
X0067818D02*
X0067547Y0037880D01*
X0067164Y0037764D01*
X0066811Y0037575D01*
X0066501Y0037321D01*
X0066247Y0037012D01*
X0066059Y0036659D01*
X0065942Y0036276D01*
X0065916Y0036005D01*
X0067818D01*
Y0037907D01*
D02*
G37*
G36*
X0089837Y0037556D02*
X0089550Y0037518D01*
X0089283Y0037407D01*
X0089053Y0037231D01*
X0088877Y0037001D01*
X0088766Y0036734D01*
X0088729Y0036447D01*
X0088766Y0036160D01*
X0088877Y0035893D01*
X0089053Y0035663D01*
X0089283Y0035487D01*
X0089550Y0035376D01*
X0089837Y0035339D01*
X0090124Y0035376D01*
X0090391Y0035487D01*
X0090621Y0035663D01*
X0090797Y0035893D01*
X0090908Y0036160D01*
X0090945Y0036447D01*
X0090908Y0036734D01*
X0090797Y0037001D01*
X0090621Y0037231D01*
X0090391Y0037407D01*
X0090124Y0037518D01*
X0089837Y0037556D01*
D02*
G37*
G36*
X0107999Y0037659D02*
Y0035154D01*
X0110504D01*
X0110482Y0035440D01*
X0110385Y0035843D01*
X0110226Y0036227D01*
X0110010Y0036580D01*
X0109740Y0036895D01*
X0109425Y0037165D01*
X0109072Y0037381D01*
X0108688Y0037540D01*
X0108285Y0037637D01*
X0107999Y0037659D01*
D02*
G37*
G36*
X0103505Y0043923D02*
X0103289Y0043880D01*
X0103106Y0043757D01*
X0102983Y0043574D01*
X0102940Y0043358D01*
Y0041758D01*
X0102983Y0041542D01*
X0103052Y0041439D01*
Y0036129D01*
X0102428Y0035505D01*
X0102016D01*
Y0037546D01*
X0100053D01*
X0100004Y0037663D01*
X0100369Y0038028D01*
X0101473D01*
X0101646Y0038062D01*
X0101793Y0038161D01*
X0102555Y0038923D01*
X0102654Y0039070D01*
X0102688Y0039243D01*
Y0041439D01*
X0102757Y0041542D01*
X0102800Y0041758D01*
Y0043358D01*
X0102757Y0043574D01*
X0102634Y0043757D01*
X0102451Y0043880D01*
X0102235Y0043923D01*
X0102019Y0043880D01*
X0101836Y0043757D01*
X0101713Y0043574D01*
X0101670Y0043358D01*
Y0041758D01*
X0101713Y0041542D01*
X0101782Y0041439D01*
Y0039431D01*
X0101285Y0038934D01*
X0100181D01*
X0100181Y0038934D01*
X0100008Y0038900D01*
X0099861Y0038801D01*
X0098535Y0037476D01*
X0098434Y0037518D01*
X0098147Y0037556D01*
X0097860Y0037518D01*
X0097593Y0037407D01*
X0097363Y0037231D01*
X0097187Y0037001D01*
X0097076Y0036734D01*
X0097039Y0036447D01*
X0097076Y0036160D01*
X0097187Y0035893D01*
X0097363Y0035663D01*
X0097412Y0035625D01*
X0097372Y0035505D01*
X0096960D01*
X0096406Y0036059D01*
X0096448Y0036160D01*
X0096485Y0036447D01*
X0096448Y0036734D01*
X0096337Y0037001D01*
X0096161Y0037231D01*
X0095931Y0037407D01*
X0095664Y0037518D01*
X0095377Y0037556D01*
X0095090Y0037518D01*
X0094823Y0037407D01*
X0094593Y0037231D01*
X0094417Y0037001D01*
X0094306Y0036734D01*
X0094269Y0036447D01*
X0094306Y0036160D01*
X0094417Y0035893D01*
X0094593Y0035663D01*
X0094823Y0035487D01*
X0095090Y0035376D01*
X0095377Y0035339D01*
X0095664Y0035376D01*
X0095765Y0035418D01*
X0096416Y0034767D01*
X0096391Y0034643D01*
X0096208Y0034567D01*
X0095978Y0034391D01*
X0095802Y0034161D01*
X0095691Y0033894D01*
X0095654Y0033607D01*
X0095691Y0033320D01*
X0095802Y0033053D01*
X0095978Y0032823D01*
X0096208Y0032647D01*
X0096475Y0032536D01*
X0096762Y0032499D01*
X0097049Y0032536D01*
X0097316Y0032647D01*
X0097546Y0032823D01*
X0097722Y0033053D01*
X0097833Y0033320D01*
X0097870Y0033607D01*
X0097833Y0033894D01*
X0097722Y0034161D01*
X0097546Y0034391D01*
X0097316Y0034567D01*
X0097323Y0034599D01*
X0098822D01*
X0098862Y0034479D01*
X0098748Y0034391D01*
X0098572Y0034161D01*
X0098461Y0033894D01*
X0098424Y0033607D01*
X0098461Y0033320D01*
X0098572Y0033053D01*
X0098748Y0032823D01*
X0098978Y0032647D01*
X0099245Y0032536D01*
X0099532Y0032499D01*
X0099819Y0032536D01*
X0100086Y0032647D01*
X0100316Y0032823D01*
X0100492Y0033053D01*
X0100603Y0033320D01*
X0100640Y0033607D01*
X0100603Y0033894D01*
X0100492Y0034161D01*
X0100316Y0034391D01*
X0100086Y0034567D01*
X0100093Y0034599D01*
X0102616D01*
X0102789Y0034633D01*
X0102936Y0034732D01*
X0103825Y0035621D01*
X0103825Y0035621D01*
X0103875Y0035694D01*
X0103924Y0035768D01*
X0103958Y0035941D01*
X0103958Y0035941D01*
Y0041439D01*
X0104027Y0041542D01*
X0104070Y0041758D01*
Y0043358D01*
X0104027Y0043574D01*
X0103904Y0043757D01*
X0103721Y0043880D01*
X0103505Y0043923D01*
D02*
G37*
G36*
X0092607Y0037556D02*
X0092320Y0037518D01*
X0092053Y0037407D01*
X0091823Y0037231D01*
X0091647Y0037001D01*
X0091536Y0036734D01*
X0091499Y0036447D01*
X0091536Y0036160D01*
X0091647Y0035893D01*
X0091823Y0035663D01*
X0092053Y0035487D01*
X0092320Y0035376D01*
X0092607Y0035339D01*
X0092894Y0035376D01*
X0093161Y0035487D01*
X0093391Y0035663D01*
X0093567Y0035893D01*
X0093678Y0036160D01*
X0093716Y0036447D01*
X0093678Y0036734D01*
X0093567Y0037001D01*
X0093391Y0037231D01*
X0093161Y0037407D01*
X0092894Y0037518D01*
X0092607Y0037556D01*
D02*
G37*
G36*
X0113157Y0086103D02*
X0112895Y0086068D01*
X0112651Y0085967D01*
X0112441Y0085806D01*
X0112280Y0085596D01*
X0112179Y0085352D01*
X0112144Y0085090D01*
X0112179Y0084828D01*
X0112280Y0084584D01*
X0112441Y0084374D01*
X0112651Y0084213D01*
X0112895Y0084112D01*
X0113157Y0084077D01*
X0113419Y0084112D01*
X0113663Y0084213D01*
X0113873Y0084374D01*
X0114034Y0084584D01*
X0114135Y0084828D01*
X0114170Y0085090D01*
X0114135Y0085352D01*
X0114034Y0085596D01*
X0113873Y0085806D01*
X0113663Y0085967D01*
X0113419Y0086068D01*
X0113157Y0086103D01*
D02*
G37*
G36*
X0110617D02*
X0110355Y0086068D01*
X0110111Y0085967D01*
X0109901Y0085806D01*
X0109740Y0085596D01*
X0109639Y0085352D01*
X0109604Y0085090D01*
X0109639Y0084828D01*
X0109740Y0084584D01*
X0109901Y0084374D01*
X0110111Y0084213D01*
X0110355Y0084112D01*
X0110617Y0084077D01*
X0110879Y0084112D01*
X0111123Y0084213D01*
X0111333Y0084374D01*
X0111494Y0084584D01*
X0111595Y0084828D01*
X0111630Y0085090D01*
X0111595Y0085352D01*
X0111494Y0085596D01*
X0111333Y0085806D01*
X0111123Y0085967D01*
X0110879Y0086068D01*
X0110617Y0086103D01*
D02*
G37*
G36*
X0118237D02*
X0117975Y0086068D01*
X0117731Y0085967D01*
X0117521Y0085806D01*
X0117360Y0085596D01*
X0117259Y0085352D01*
X0117224Y0085090D01*
X0117259Y0084828D01*
X0117360Y0084584D01*
X0117521Y0084374D01*
X0117731Y0084213D01*
X0117975Y0084112D01*
X0118237Y0084077D01*
X0118499Y0084112D01*
X0118743Y0084213D01*
X0118953Y0084374D01*
X0119114Y0084584D01*
X0119215Y0084828D01*
X0119250Y0085090D01*
X0119215Y0085352D01*
X0119114Y0085596D01*
X0118953Y0085806D01*
X0118743Y0085967D01*
X0118499Y0086068D01*
X0118237Y0086103D01*
D02*
G37*
G36*
X0115697D02*
X0115435Y0086068D01*
X0115191Y0085967D01*
X0114981Y0085806D01*
X0114820Y0085596D01*
X0114719Y0085352D01*
X0114684Y0085090D01*
X0114719Y0084828D01*
X0114820Y0084584D01*
X0114981Y0084374D01*
X0115191Y0084213D01*
X0115435Y0084112D01*
X0115697Y0084077D01*
X0115959Y0084112D01*
X0116203Y0084213D01*
X0116413Y0084374D01*
X0116574Y0084584D01*
X0116675Y0084828D01*
X0116710Y0085090D01*
X0116675Y0085352D01*
X0116574Y0085596D01*
X0116413Y0085806D01*
X0116203Y0085967D01*
X0115959Y0086068D01*
X0115697Y0086103D01*
D02*
G37*
G36*
X0108077D02*
X0107815Y0086068D01*
X0107571Y0085967D01*
X0107361Y0085806D01*
X0107200Y0085596D01*
X0107099Y0085352D01*
X0107064Y0085090D01*
X0107099Y0084828D01*
X0107200Y0084584D01*
X0107361Y0084374D01*
X0107571Y0084213D01*
X0107815Y0084112D01*
X0108077Y0084077D01*
X0108339Y0084112D01*
X0108583Y0084213D01*
X0108793Y0084374D01*
X0108954Y0084584D01*
X0109055Y0084828D01*
X0109090Y0085090D01*
X0109055Y0085352D01*
X0108954Y0085596D01*
X0108793Y0085806D01*
X0108583Y0085967D01*
X0108339Y0086068D01*
X0108077Y0086103D01*
D02*
G37*
G36*
X0094742D02*
X0094480Y0086068D01*
X0094236Y0085967D01*
X0094026Y0085806D01*
X0093865Y0085596D01*
X0093764Y0085352D01*
X0093729Y0085090D01*
X0093764Y0084828D01*
X0093865Y0084584D01*
X0094026Y0084374D01*
X0094236Y0084213D01*
X0094480Y0084112D01*
X0094742Y0084077D01*
X0095004Y0084112D01*
X0095248Y0084213D01*
X0095458Y0084374D01*
X0095619Y0084584D01*
X0095720Y0084828D01*
X0095755Y0085090D01*
X0095720Y0085352D01*
X0095619Y0085596D01*
X0095458Y0085806D01*
X0095248Y0085967D01*
X0095004Y0086068D01*
X0094742Y0086103D01*
D02*
G37*
G36*
X0092202D02*
X0091940Y0086068D01*
X0091696Y0085967D01*
X0091486Y0085806D01*
X0091325Y0085596D01*
X0091224Y0085352D01*
X0091189Y0085090D01*
X0091224Y0084828D01*
X0091325Y0084584D01*
X0091486Y0084374D01*
X0091696Y0084213D01*
X0091940Y0084112D01*
X0092202Y0084077D01*
X0092464Y0084112D01*
X0092708Y0084213D01*
X0092918Y0084374D01*
X0093079Y0084584D01*
X0093180Y0084828D01*
X0093215Y0085090D01*
X0093180Y0085352D01*
X0093079Y0085596D01*
X0092918Y0085806D01*
X0092708Y0085967D01*
X0092464Y0086068D01*
X0092202Y0086103D01*
D02*
G37*
G36*
X0099822D02*
X0099560Y0086068D01*
X0099316Y0085967D01*
X0099106Y0085806D01*
X0098945Y0085596D01*
X0098844Y0085352D01*
X0098809Y0085090D01*
X0098844Y0084828D01*
X0098945Y0084584D01*
X0099106Y0084374D01*
X0099316Y0084213D01*
X0099560Y0084112D01*
X0099822Y0084077D01*
X0100084Y0084112D01*
X0100328Y0084213D01*
X0100538Y0084374D01*
X0100699Y0084584D01*
X0100800Y0084828D01*
X0100835Y0085090D01*
X0100800Y0085352D01*
X0100699Y0085596D01*
X0100538Y0085806D01*
X0100328Y0085967D01*
X0100084Y0086068D01*
X0099822Y0086103D01*
D02*
G37*
G36*
X0097282D02*
X0097020Y0086068D01*
X0096776Y0085967D01*
X0096566Y0085806D01*
X0096405Y0085596D01*
X0096304Y0085352D01*
X0096269Y0085090D01*
X0096304Y0084828D01*
X0096405Y0084584D01*
X0096566Y0084374D01*
X0096776Y0084213D01*
X0097020Y0084112D01*
X0097282Y0084077D01*
X0097544Y0084112D01*
X0097788Y0084213D01*
X0097998Y0084374D01*
X0098159Y0084584D01*
X0098260Y0084828D01*
X0098295Y0085090D01*
X0098260Y0085352D01*
X0098159Y0085596D01*
X0097998Y0085806D01*
X0097788Y0085967D01*
X0097544Y0086068D01*
X0097282Y0086103D01*
D02*
G37*
G36*
X0028448Y0087630D02*
X0026323D01*
X0026354Y0087315D01*
X0026483Y0086890D01*
X0026692Y0086499D01*
X0026973Y0086155D01*
X0027317Y0085874D01*
X0027708Y0085664D01*
X0028133Y0085536D01*
X0028448Y0085505D01*
Y0087630D01*
D02*
G37*
G36*
X0106541Y0086094D02*
X0104533D01*
Y0084086D01*
X0106541D01*
Y0086094D01*
D02*
G37*
G36*
X0129794Y0087630D02*
X0127669D01*
X0127700Y0087315D01*
X0127828Y0086890D01*
X0128038Y0086499D01*
X0128319Y0086155D01*
X0128663Y0085874D01*
X0129054Y0085664D01*
X0129479Y0085536D01*
X0129794Y0085505D01*
Y0087630D01*
D02*
G37*
G36*
X0030827D02*
X0028702D01*
Y0085505D01*
X0029017Y0085536D01*
X0029442Y0085664D01*
X0029833Y0085874D01*
X0030177Y0086155D01*
X0030458Y0086499D01*
X0030667Y0086890D01*
X0030796Y0087315D01*
X0030827Y0087630D01*
D02*
G37*
G36*
X0083046Y0086094D02*
X0081038D01*
Y0084086D01*
X0083046D01*
Y0086094D01*
D02*
G37*
G36*
X0123317Y0086103D02*
X0123055Y0086068D01*
X0122811Y0085967D01*
X0122601Y0085806D01*
X0122440Y0085596D01*
X0122339Y0085352D01*
X0122304Y0085090D01*
X0122339Y0084828D01*
X0122440Y0084584D01*
X0122601Y0084374D01*
X0122811Y0084213D01*
X0123055Y0084112D01*
X0123317Y0084077D01*
X0123579Y0084112D01*
X0123823Y0084213D01*
X0124033Y0084374D01*
X0124194Y0084584D01*
X0124295Y0084828D01*
X0124330Y0085090D01*
X0124295Y0085352D01*
X0124194Y0085596D01*
X0124033Y0085806D01*
X0123823Y0085967D01*
X0123579Y0086068D01*
X0123317Y0086103D01*
D02*
G37*
G36*
X0120777D02*
X0120515Y0086068D01*
X0120271Y0085967D01*
X0120061Y0085806D01*
X0119900Y0085596D01*
X0119799Y0085352D01*
X0119764Y0085090D01*
X0119799Y0084828D01*
X0119900Y0084584D01*
X0120061Y0084374D01*
X0120271Y0084213D01*
X0120515Y0084112D01*
X0120777Y0084077D01*
X0121039Y0084112D01*
X0121283Y0084213D01*
X0121493Y0084374D01*
X0121654Y0084584D01*
X0121755Y0084828D01*
X0121790Y0085090D01*
X0121755Y0085352D01*
X0121654Y0085596D01*
X0121493Y0085806D01*
X0121283Y0085967D01*
X0121039Y0086068D01*
X0120777Y0086103D01*
D02*
G37*
G36*
X0059551Y0086094D02*
X0057543D01*
Y0084086D01*
X0059551D01*
Y0086094D01*
D02*
G37*
G36*
X0036056D02*
X0034048D01*
Y0084086D01*
X0036056D01*
Y0086094D01*
D02*
G37*
G36*
X0089662Y0086103D02*
X0089400Y0086068D01*
X0089156Y0085967D01*
X0088946Y0085806D01*
X0088785Y0085596D01*
X0088684Y0085352D01*
X0088649Y0085090D01*
X0088684Y0084828D01*
X0088785Y0084584D01*
X0088946Y0084374D01*
X0089156Y0084213D01*
X0089400Y0084112D01*
X0089662Y0084077D01*
X0089924Y0084112D01*
X0090168Y0084213D01*
X0090378Y0084374D01*
X0090539Y0084584D01*
X0090640Y0084828D01*
X0090675Y0085090D01*
X0090640Y0085352D01*
X0090539Y0085596D01*
X0090378Y0085806D01*
X0090168Y0085967D01*
X0089924Y0086068D01*
X0089662Y0086103D01*
D02*
G37*
G36*
X0047752D02*
X0047490Y0086068D01*
X0047246Y0085967D01*
X0047036Y0085806D01*
X0046875Y0085596D01*
X0046774Y0085352D01*
X0046739Y0085090D01*
X0046774Y0084828D01*
X0046875Y0084584D01*
X0047036Y0084374D01*
X0047246Y0084213D01*
X0047490Y0084112D01*
X0047752Y0084077D01*
X0048014Y0084112D01*
X0048258Y0084213D01*
X0048468Y0084374D01*
X0048629Y0084584D01*
X0048730Y0084828D01*
X0048765Y0085090D01*
X0048730Y0085352D01*
X0048629Y0085596D01*
X0048468Y0085806D01*
X0048258Y0085967D01*
X0048014Y0086068D01*
X0047752Y0086103D01*
D02*
G37*
G36*
X0045212D02*
X0044950Y0086068D01*
X0044706Y0085967D01*
X0044496Y0085806D01*
X0044335Y0085596D01*
X0044234Y0085352D01*
X0044199Y0085090D01*
X0044234Y0084828D01*
X0044335Y0084584D01*
X0044496Y0084374D01*
X0044706Y0084213D01*
X0044950Y0084112D01*
X0045212Y0084077D01*
X0045474Y0084112D01*
X0045718Y0084213D01*
X0045928Y0084374D01*
X0046089Y0084584D01*
X0046190Y0084828D01*
X0046225Y0085090D01*
X0046190Y0085352D01*
X0046089Y0085596D01*
X0045928Y0085806D01*
X0045718Y0085967D01*
X0045474Y0086068D01*
X0045212Y0086103D01*
D02*
G37*
G36*
X0052832D02*
X0052570Y0086068D01*
X0052326Y0085967D01*
X0052116Y0085806D01*
X0051955Y0085596D01*
X0051854Y0085352D01*
X0051819Y0085090D01*
X0051854Y0084828D01*
X0051955Y0084584D01*
X0052116Y0084374D01*
X0052326Y0084213D01*
X0052570Y0084112D01*
X0052832Y0084077D01*
X0053094Y0084112D01*
X0053338Y0084213D01*
X0053548Y0084374D01*
X0053709Y0084584D01*
X0053810Y0084828D01*
X0053845Y0085090D01*
X0053810Y0085352D01*
X0053709Y0085596D01*
X0053548Y0085806D01*
X0053338Y0085967D01*
X0053094Y0086068D01*
X0052832Y0086103D01*
D02*
G37*
G36*
X0050292D02*
X0050030Y0086068D01*
X0049786Y0085967D01*
X0049576Y0085806D01*
X0049415Y0085596D01*
X0049314Y0085352D01*
X0049279Y0085090D01*
X0049314Y0084828D01*
X0049415Y0084584D01*
X0049576Y0084374D01*
X0049786Y0084213D01*
X0050030Y0084112D01*
X0050292Y0084077D01*
X0050554Y0084112D01*
X0050798Y0084213D01*
X0051008Y0084374D01*
X0051169Y0084584D01*
X0051270Y0084828D01*
X0051305Y0085090D01*
X0051270Y0085352D01*
X0051169Y0085596D01*
X0051008Y0085806D01*
X0050798Y0085967D01*
X0050554Y0086068D01*
X0050292Y0086103D01*
D02*
G37*
G36*
X0042672D02*
X0042410Y0086068D01*
X0042166Y0085967D01*
X0041956Y0085806D01*
X0041795Y0085596D01*
X0041694Y0085352D01*
X0041659Y0085090D01*
X0041694Y0084828D01*
X0041795Y0084584D01*
X0041956Y0084374D01*
X0042166Y0084213D01*
X0042410Y0084112D01*
X0042672Y0084077D01*
X0042934Y0084112D01*
X0043178Y0084213D01*
X0043388Y0084374D01*
X0043549Y0084584D01*
X0043650Y0084828D01*
X0043685Y0085090D01*
X0043650Y0085352D01*
X0043549Y0085596D01*
X0043388Y0085806D01*
X0043178Y0085967D01*
X0042934Y0086068D01*
X0042672Y0086103D01*
D02*
G37*
G36*
X0113295Y0083384D02*
X0113122Y0083350D01*
X0112975Y0083251D01*
X0111957Y0082234D01*
X0110790D01*
D01*
D01*
X0110790Y0082234D01*
X0110698D01*
Y0082234D01*
X0108990D01*
Y0081668D01*
X0106172D01*
X0106023Y0081639D01*
X0105897Y0081555D01*
X0103085Y0078742D01*
X0102926Y0078711D01*
X0102758Y0078598D01*
X0102645Y0078430D01*
X0102606Y0078232D01*
X0102645Y0078034D01*
X0102758Y0077866D01*
X0102926Y0077753D01*
X0103124Y0077714D01*
X0103322Y0077753D01*
X0103490Y0077866D01*
X0103603Y0078034D01*
X0103634Y0078193D01*
X0103772Y0078330D01*
X0103884Y0078270D01*
X0103876Y0078232D01*
X0103915Y0078034D01*
X0104028Y0077866D01*
X0104196Y0077753D01*
X0104394Y0077714D01*
X0104592Y0077753D01*
X0104760Y0077866D01*
X0104873Y0078034D01*
X0104904Y0078193D01*
X0106079Y0079368D01*
X0112522D01*
X0112671Y0079397D01*
X0112797Y0079481D01*
X0112797Y0079481D01*
X0112797Y0079481D01*
X0113641Y0080326D01*
X0114889D01*
Y0080326D01*
X0114889D01*
X0114889Y0080326D01*
X0114981D01*
Y0080326D01*
X0116689D01*
Y0080827D01*
X0118642D01*
Y0080818D01*
X0118642D01*
Y0079710D01*
X0119177D01*
X0119321Y0079681D01*
X0120792D01*
Y0078760D01*
X0121416D01*
X0121471Y0078749D01*
X0122761D01*
X0123805Y0077706D01*
X0123805Y0077706D01*
X0123805Y0077706D01*
X0123805Y0077706D01*
X0123865Y0077665D01*
X0123988Y0077583D01*
X0123988D01*
X0123988Y0077583D01*
X0124204Y0077540D01*
X0124204Y0077540D01*
X0128270D01*
X0128270Y0077540D01*
X0128486Y0077583D01*
X0128669Y0077706D01*
X0129351Y0078387D01*
X0129540Y0078362D01*
X0129802Y0078397D01*
X0130046Y0078498D01*
X0130256Y0078659D01*
X0130417Y0078869D01*
X0130518Y0079113D01*
X0130553Y0079375D01*
X0130518Y0079637D01*
X0130417Y0079881D01*
X0130256Y0080091D01*
X0130046Y0080252D01*
X0129802Y0080353D01*
X0129540Y0080388D01*
X0129278Y0080353D01*
X0129034Y0080252D01*
X0128824Y0080091D01*
X0128663Y0079881D01*
X0128562Y0079637D01*
X0128527Y0079375D01*
X0128552Y0079186D01*
X0128036Y0078670D01*
X0127484D01*
Y0078760D01*
X0127484D01*
Y0079060D01*
X0129335Y0080911D01*
X0130544D01*
Y0082919D01*
X0128536D01*
Y0081710D01*
X0127601Y0080775D01*
X0127484Y0080824D01*
Y0081768D01*
X0127026D01*
X0125542Y0083251D01*
X0125395Y0083350D01*
X0125222Y0083384D01*
X0113295D01*
X0113295Y0083384D01*
D02*
G37*
G36*
X0041399Y0078911D02*
X0040172D01*
Y0077684D01*
X0041399D01*
Y0078911D01*
D02*
G37*
G36*
X0040132Y0086103D02*
X0039870Y0086068D01*
X0039626Y0085967D01*
X0039416Y0085806D01*
X0039255Y0085596D01*
X0039154Y0085352D01*
X0039119Y0085090D01*
X0039154Y0084828D01*
X0039255Y0084584D01*
X0039416Y0084374D01*
X0039626Y0084213D01*
X0039870Y0084112D01*
X0040132Y0084077D01*
X0040394Y0084112D01*
X0040638Y0084213D01*
X0040848Y0084374D01*
X0041009Y0084584D01*
X0041110Y0084828D01*
X0041145Y0085090D01*
X0041110Y0085352D01*
X0041009Y0085596D01*
X0040848Y0085806D01*
X0040638Y0085967D01*
X0040394Y0086068D01*
X0040132Y0086103D01*
D02*
G37*
G36*
X0037592D02*
X0037330Y0086068D01*
X0037086Y0085967D01*
X0036876Y0085806D01*
X0036715Y0085596D01*
X0036614Y0085352D01*
X0036579Y0085090D01*
X0036614Y0084828D01*
X0036715Y0084584D01*
X0036876Y0084374D01*
X0037086Y0084213D01*
X0037330Y0084112D01*
X0037592Y0084077D01*
X0037854Y0084112D01*
X0038098Y0084213D01*
X0038308Y0084374D01*
X0038469Y0084584D01*
X0038570Y0084828D01*
X0038605Y0085090D01*
X0038570Y0085352D01*
X0038469Y0085596D01*
X0038308Y0085806D01*
X0038098Y0085967D01*
X0037854Y0086068D01*
X0037592Y0086103D01*
D02*
G37*
G36*
X0076327D02*
X0076065Y0086068D01*
X0075821Y0085967D01*
X0075611Y0085806D01*
X0075450Y0085596D01*
X0075349Y0085352D01*
X0075314Y0085090D01*
X0075349Y0084828D01*
X0075450Y0084584D01*
X0075611Y0084374D01*
X0075821Y0084213D01*
X0076065Y0084112D01*
X0076327Y0084077D01*
X0076589Y0084112D01*
X0076833Y0084213D01*
X0077043Y0084374D01*
X0077204Y0084584D01*
X0077305Y0084828D01*
X0077340Y0085090D01*
X0077305Y0085352D01*
X0077204Y0085596D01*
X0077043Y0085806D01*
X0076833Y0085967D01*
X0076589Y0086068D01*
X0076327Y0086103D01*
D02*
G37*
G36*
X0073787D02*
X0073525Y0086068D01*
X0073281Y0085967D01*
X0073071Y0085806D01*
X0072910Y0085596D01*
X0072809Y0085352D01*
X0072774Y0085090D01*
X0072809Y0084828D01*
X0072910Y0084584D01*
X0073071Y0084374D01*
X0073281Y0084213D01*
X0073525Y0084112D01*
X0073787Y0084077D01*
X0074049Y0084112D01*
X0074293Y0084213D01*
X0074503Y0084374D01*
X0074664Y0084584D01*
X0074765Y0084828D01*
X0074800Y0085090D01*
X0074765Y0085352D01*
X0074664Y0085596D01*
X0074503Y0085806D01*
X0074293Y0085967D01*
X0074049Y0086068D01*
X0073787Y0086103D01*
D02*
G37*
G36*
X0087122D02*
X0086860Y0086068D01*
X0086616Y0085967D01*
X0086406Y0085806D01*
X0086245Y0085596D01*
X0086144Y0085352D01*
X0086109Y0085090D01*
X0086144Y0084828D01*
X0086245Y0084584D01*
X0086406Y0084374D01*
X0086616Y0084213D01*
X0086860Y0084112D01*
X0087122Y0084077D01*
X0087384Y0084112D01*
X0087628Y0084213D01*
X0087838Y0084374D01*
X0087999Y0084584D01*
X0088100Y0084828D01*
X0088135Y0085090D01*
X0088100Y0085352D01*
X0087999Y0085596D01*
X0087838Y0085806D01*
X0087628Y0085967D01*
X0087384Y0086068D01*
X0087122Y0086103D01*
D02*
G37*
G36*
X0084582D02*
X0084320Y0086068D01*
X0084076Y0085967D01*
X0083866Y0085806D01*
X0083705Y0085596D01*
X0083604Y0085352D01*
X0083569Y0085090D01*
X0083604Y0084828D01*
X0083705Y0084584D01*
X0083866Y0084374D01*
X0084076Y0084213D01*
X0084320Y0084112D01*
X0084582Y0084077D01*
X0084844Y0084112D01*
X0085088Y0084213D01*
X0085298Y0084374D01*
X0085459Y0084584D01*
X0085560Y0084828D01*
X0085595Y0085090D01*
X0085560Y0085352D01*
X0085459Y0085596D01*
X0085298Y0085806D01*
X0085088Y0085967D01*
X0084844Y0086068D01*
X0084582Y0086103D01*
D02*
G37*
G36*
X0071247D02*
X0070985Y0086068D01*
X0070741Y0085967D01*
X0070531Y0085806D01*
X0070370Y0085596D01*
X0070269Y0085352D01*
X0070234Y0085090D01*
X0070269Y0084828D01*
X0070370Y0084584D01*
X0070531Y0084374D01*
X0070741Y0084213D01*
X0070985Y0084112D01*
X0071247Y0084077D01*
X0071509Y0084112D01*
X0071753Y0084213D01*
X0071963Y0084374D01*
X0072124Y0084584D01*
X0072225Y0084828D01*
X0072260Y0085090D01*
X0072225Y0085352D01*
X0072124Y0085596D01*
X0071963Y0085806D01*
X0071753Y0085967D01*
X0071509Y0086068D01*
X0071247Y0086103D01*
D02*
G37*
G36*
X0063627D02*
X0063365Y0086068D01*
X0063121Y0085967D01*
X0062911Y0085806D01*
X0062750Y0085596D01*
X0062649Y0085352D01*
X0062614Y0085090D01*
X0062649Y0084828D01*
X0062750Y0084584D01*
X0062911Y0084374D01*
X0063121Y0084213D01*
X0063365Y0084112D01*
X0063627Y0084077D01*
X0063889Y0084112D01*
X0064133Y0084213D01*
X0064343Y0084374D01*
X0064504Y0084584D01*
X0064605Y0084828D01*
X0064640Y0085090D01*
X0064605Y0085352D01*
X0064504Y0085596D01*
X0064343Y0085806D01*
X0064133Y0085967D01*
X0063889Y0086068D01*
X0063627Y0086103D01*
D02*
G37*
G36*
X0061087D02*
X0060825Y0086068D01*
X0060581Y0085967D01*
X0060371Y0085806D01*
X0060210Y0085596D01*
X0060109Y0085352D01*
X0060074Y0085090D01*
X0060109Y0084828D01*
X0060210Y0084584D01*
X0060371Y0084374D01*
X0060581Y0084213D01*
X0060825Y0084112D01*
X0061087Y0084077D01*
X0061349Y0084112D01*
X0061593Y0084213D01*
X0061803Y0084374D01*
X0061964Y0084584D01*
X0062065Y0084828D01*
X0062100Y0085090D01*
X0062065Y0085352D01*
X0061964Y0085596D01*
X0061803Y0085806D01*
X0061593Y0085967D01*
X0061349Y0086068D01*
X0061087Y0086103D01*
D02*
G37*
G36*
X0068707D02*
X0068445Y0086068D01*
X0068201Y0085967D01*
X0067991Y0085806D01*
X0067830Y0085596D01*
X0067729Y0085352D01*
X0067694Y0085090D01*
X0067729Y0084828D01*
X0067830Y0084584D01*
X0067991Y0084374D01*
X0068201Y0084213D01*
X0068445Y0084112D01*
X0068707Y0084077D01*
X0068969Y0084112D01*
X0069213Y0084213D01*
X0069423Y0084374D01*
X0069584Y0084584D01*
X0069685Y0084828D01*
X0069720Y0085090D01*
X0069685Y0085352D01*
X0069584Y0085596D01*
X0069423Y0085806D01*
X0069213Y0085967D01*
X0068969Y0086068D01*
X0068707Y0086103D01*
D02*
G37*
G36*
X0066167D02*
X0065905Y0086068D01*
X0065661Y0085967D01*
X0065451Y0085806D01*
X0065290Y0085596D01*
X0065189Y0085352D01*
X0065154Y0085090D01*
X0065189Y0084828D01*
X0065290Y0084584D01*
X0065451Y0084374D01*
X0065661Y0084213D01*
X0065905Y0084112D01*
X0066167Y0084077D01*
X0066429Y0084112D01*
X0066673Y0084213D01*
X0066883Y0084374D01*
X0067044Y0084584D01*
X0067145Y0084828D01*
X0067180Y0085090D01*
X0067145Y0085352D01*
X0067044Y0085596D01*
X0066883Y0085806D01*
X0066673Y0085967D01*
X0066429Y0086068D01*
X0066167Y0086103D01*
D02*
G37*
G36*
X0105537Y0088643D02*
X0105275Y0088608D01*
X0105031Y0088507D01*
X0104821Y0088346D01*
X0104660Y0088136D01*
X0104559Y0087892D01*
X0104524Y0087630D01*
X0104559Y0087368D01*
X0104660Y0087124D01*
X0104821Y0086914D01*
X0105031Y0086753D01*
X0105275Y0086652D01*
X0105537Y0086617D01*
X0105799Y0086652D01*
X0106043Y0086753D01*
X0106253Y0086914D01*
X0106414Y0087124D01*
X0106515Y0087368D01*
X0106550Y0087630D01*
X0106515Y0087892D01*
X0106414Y0088136D01*
X0106253Y0088346D01*
X0106043Y0088507D01*
X0105799Y0088608D01*
X0105537Y0088643D01*
D02*
G37*
G36*
X0099822D02*
X0099560Y0088608D01*
X0099316Y0088507D01*
X0099106Y0088346D01*
X0098945Y0088136D01*
X0098844Y0087892D01*
X0098809Y0087630D01*
X0098844Y0087368D01*
X0098945Y0087124D01*
X0099106Y0086914D01*
X0099316Y0086753D01*
X0099560Y0086652D01*
X0099822Y0086617D01*
X0100084Y0086652D01*
X0100328Y0086753D01*
X0100538Y0086914D01*
X0100699Y0087124D01*
X0100800Y0087368D01*
X0100835Y0087630D01*
X0100800Y0087892D01*
X0100699Y0088136D01*
X0100538Y0088346D01*
X0100328Y0088507D01*
X0100084Y0088608D01*
X0099822Y0088643D01*
D02*
G37*
G36*
X0110617D02*
X0110355Y0088608D01*
X0110111Y0088507D01*
X0109901Y0088346D01*
X0109740Y0088136D01*
X0109639Y0087892D01*
X0109604Y0087630D01*
X0109639Y0087368D01*
X0109740Y0087124D01*
X0109901Y0086914D01*
X0110111Y0086753D01*
X0110355Y0086652D01*
X0110617Y0086617D01*
X0110879Y0086652D01*
X0111123Y0086753D01*
X0111333Y0086914D01*
X0111494Y0087124D01*
X0111595Y0087368D01*
X0111630Y0087630D01*
X0111595Y0087892D01*
X0111494Y0088136D01*
X0111333Y0088346D01*
X0111123Y0088507D01*
X0110879Y0088608D01*
X0110617Y0088643D01*
D02*
G37*
G36*
X0108077D02*
X0107815Y0088608D01*
X0107571Y0088507D01*
X0107361Y0088346D01*
X0107200Y0088136D01*
X0107099Y0087892D01*
X0107064Y0087630D01*
X0107099Y0087368D01*
X0107200Y0087124D01*
X0107361Y0086914D01*
X0107571Y0086753D01*
X0107815Y0086652D01*
X0108077Y0086617D01*
X0108339Y0086652D01*
X0108583Y0086753D01*
X0108793Y0086914D01*
X0108954Y0087124D01*
X0109055Y0087368D01*
X0109090Y0087630D01*
X0109055Y0087892D01*
X0108954Y0088136D01*
X0108793Y0088346D01*
X0108583Y0088507D01*
X0108339Y0088608D01*
X0108077Y0088643D01*
D02*
G37*
G36*
X0097282D02*
X0097020Y0088608D01*
X0096776Y0088507D01*
X0096566Y0088346D01*
X0096405Y0088136D01*
X0096304Y0087892D01*
X0096269Y0087630D01*
X0096304Y0087368D01*
X0096405Y0087124D01*
X0096566Y0086914D01*
X0096776Y0086753D01*
X0097020Y0086652D01*
X0097282Y0086617D01*
X0097544Y0086652D01*
X0097788Y0086753D01*
X0097998Y0086914D01*
X0098159Y0087124D01*
X0098260Y0087368D01*
X0098295Y0087630D01*
X0098260Y0087892D01*
X0098159Y0088136D01*
X0097998Y0088346D01*
X0097788Y0088507D01*
X0097544Y0088608D01*
X0097282Y0088643D01*
D02*
G37*
G36*
X0089662D02*
X0089400Y0088608D01*
X0089156Y0088507D01*
X0088946Y0088346D01*
X0088785Y0088136D01*
X0088684Y0087892D01*
X0088649Y0087630D01*
X0088684Y0087368D01*
X0088785Y0087124D01*
X0088946Y0086914D01*
X0089156Y0086753D01*
X0089400Y0086652D01*
X0089662Y0086617D01*
X0089924Y0086652D01*
X0090168Y0086753D01*
X0090378Y0086914D01*
X0090539Y0087124D01*
X0090640Y0087368D01*
X0090675Y0087630D01*
X0090640Y0087892D01*
X0090539Y0088136D01*
X0090378Y0088346D01*
X0090168Y0088507D01*
X0089924Y0088608D01*
X0089662Y0088643D01*
D02*
G37*
G36*
X0087122D02*
X0086860Y0088608D01*
X0086616Y0088507D01*
X0086406Y0088346D01*
X0086245Y0088136D01*
X0086144Y0087892D01*
X0086109Y0087630D01*
X0086144Y0087368D01*
X0086245Y0087124D01*
X0086406Y0086914D01*
X0086616Y0086753D01*
X0086860Y0086652D01*
X0087122Y0086617D01*
X0087384Y0086652D01*
X0087628Y0086753D01*
X0087838Y0086914D01*
X0087999Y0087124D01*
X0088100Y0087368D01*
X0088135Y0087630D01*
X0088100Y0087892D01*
X0087999Y0088136D01*
X0087838Y0088346D01*
X0087628Y0088507D01*
X0087384Y0088608D01*
X0087122Y0088643D01*
D02*
G37*
G36*
X0094742D02*
X0094480Y0088608D01*
X0094236Y0088507D01*
X0094026Y0088346D01*
X0093865Y0088136D01*
X0093764Y0087892D01*
X0093729Y0087630D01*
X0093764Y0087368D01*
X0093865Y0087124D01*
X0094026Y0086914D01*
X0094236Y0086753D01*
X0094480Y0086652D01*
X0094742Y0086617D01*
X0095004Y0086652D01*
X0095248Y0086753D01*
X0095458Y0086914D01*
X0095619Y0087124D01*
X0095720Y0087368D01*
X0095755Y0087630D01*
X0095720Y0087892D01*
X0095619Y0088136D01*
X0095458Y0088346D01*
X0095248Y0088507D01*
X0095004Y0088608D01*
X0094742Y0088643D01*
D02*
G37*
G36*
X0092202D02*
X0091940Y0088608D01*
X0091696Y0088507D01*
X0091486Y0088346D01*
X0091325Y0088136D01*
X0091224Y0087892D01*
X0091189Y0087630D01*
X0091224Y0087368D01*
X0091325Y0087124D01*
X0091486Y0086914D01*
X0091696Y0086753D01*
X0091940Y0086652D01*
X0092202Y0086617D01*
X0092464Y0086652D01*
X0092708Y0086753D01*
X0092918Y0086914D01*
X0093079Y0087124D01*
X0093180Y0087368D01*
X0093215Y0087630D01*
X0093180Y0087892D01*
X0093079Y0088136D01*
X0092918Y0088346D01*
X0092708Y0088507D01*
X0092464Y0088608D01*
X0092202Y0088643D01*
D02*
G37*
G36*
X0028702Y0090009D02*
Y0087884D01*
X0030827D01*
X0030796Y0088199D01*
X0030667Y0088624D01*
X0030458Y0089015D01*
X0030177Y0089359D01*
X0029833Y0089640D01*
X0029442Y0089850D01*
X0029017Y0089978D01*
X0028702Y0090009D01*
D02*
G37*
G36*
X0028448D02*
X0028133Y0089978D01*
X0027708Y0089850D01*
X0027317Y0089640D01*
X0026973Y0089359D01*
X0026692Y0089015D01*
X0026483Y0088624D01*
X0026354Y0088199D01*
X0026323Y0087884D01*
X0028448D01*
Y0090009D01*
D02*
G37*
G36*
X0130048D02*
Y0087884D01*
X0132173D01*
X0132142Y0088199D01*
X0132014Y0088624D01*
X0131804Y0089015D01*
X0131523Y0089359D01*
X0131179Y0089640D01*
X0130788Y0089850D01*
X0130363Y0089978D01*
X0130048Y0090009D01*
D02*
G37*
G36*
X0129794D02*
X0129479Y0089978D01*
X0129054Y0089850D01*
X0128663Y0089640D01*
X0128319Y0089359D01*
X0128038Y0089015D01*
X0127828Y0088624D01*
X0127700Y0088199D01*
X0127669Y0087884D01*
X0129794D01*
Y0090009D01*
D02*
G37*
G36*
X0123317Y0088643D02*
X0123055Y0088608D01*
X0122811Y0088507D01*
X0122601Y0088346D01*
X0122440Y0088136D01*
X0122339Y0087892D01*
X0122304Y0087630D01*
X0122339Y0087368D01*
X0122440Y0087124D01*
X0122601Y0086914D01*
X0122811Y0086753D01*
X0123055Y0086652D01*
X0123317Y0086617D01*
X0123579Y0086652D01*
X0123823Y0086753D01*
X0124033Y0086914D01*
X0124194Y0087124D01*
X0124295Y0087368D01*
X0124330Y0087630D01*
X0124295Y0087892D01*
X0124194Y0088136D01*
X0124033Y0088346D01*
X0123823Y0088507D01*
X0123579Y0088608D01*
X0123317Y0088643D01*
D02*
G37*
G36*
X0115697D02*
X0115435Y0088608D01*
X0115191Y0088507D01*
X0114981Y0088346D01*
X0114820Y0088136D01*
X0114719Y0087892D01*
X0114684Y0087630D01*
X0114719Y0087368D01*
X0114820Y0087124D01*
X0114981Y0086914D01*
X0115191Y0086753D01*
X0115435Y0086652D01*
X0115697Y0086617D01*
X0115959Y0086652D01*
X0116203Y0086753D01*
X0116413Y0086914D01*
X0116574Y0087124D01*
X0116675Y0087368D01*
X0116710Y0087630D01*
X0116675Y0087892D01*
X0116574Y0088136D01*
X0116413Y0088346D01*
X0116203Y0088507D01*
X0115959Y0088608D01*
X0115697Y0088643D01*
D02*
G37*
G36*
X0113157D02*
X0112895Y0088608D01*
X0112651Y0088507D01*
X0112441Y0088346D01*
X0112280Y0088136D01*
X0112179Y0087892D01*
X0112144Y0087630D01*
X0112179Y0087368D01*
X0112280Y0087124D01*
X0112441Y0086914D01*
X0112651Y0086753D01*
X0112895Y0086652D01*
X0113157Y0086617D01*
X0113419Y0086652D01*
X0113663Y0086753D01*
X0113873Y0086914D01*
X0114034Y0087124D01*
X0114135Y0087368D01*
X0114170Y0087630D01*
X0114135Y0087892D01*
X0114034Y0088136D01*
X0113873Y0088346D01*
X0113663Y0088507D01*
X0113419Y0088608D01*
X0113157Y0088643D01*
D02*
G37*
G36*
X0120777D02*
X0120515Y0088608D01*
X0120271Y0088507D01*
X0120061Y0088346D01*
X0119900Y0088136D01*
X0119799Y0087892D01*
X0119764Y0087630D01*
X0119799Y0087368D01*
X0119900Y0087124D01*
X0120061Y0086914D01*
X0120271Y0086753D01*
X0120515Y0086652D01*
X0120777Y0086617D01*
X0121039Y0086652D01*
X0121283Y0086753D01*
X0121493Y0086914D01*
X0121654Y0087124D01*
X0121755Y0087368D01*
X0121790Y0087630D01*
X0121755Y0087892D01*
X0121654Y0088136D01*
X0121493Y0088346D01*
X0121283Y0088507D01*
X0121039Y0088608D01*
X0120777Y0088643D01*
D02*
G37*
G36*
X0118237D02*
X0117975Y0088608D01*
X0117731Y0088507D01*
X0117521Y0088346D01*
X0117360Y0088136D01*
X0117259Y0087892D01*
X0117224Y0087630D01*
X0117259Y0087368D01*
X0117360Y0087124D01*
X0117521Y0086914D01*
X0117731Y0086753D01*
X0117975Y0086652D01*
X0118237Y0086617D01*
X0118499Y0086652D01*
X0118743Y0086753D01*
X0118953Y0086914D01*
X0119114Y0087124D01*
X0119215Y0087368D01*
X0119250Y0087630D01*
X0119215Y0087892D01*
X0119114Y0088136D01*
X0118953Y0088346D01*
X0118743Y0088507D01*
X0118499Y0088608D01*
X0118237Y0088643D01*
D02*
G37*
G36*
X0084582D02*
X0084320Y0088608D01*
X0084076Y0088507D01*
X0083866Y0088346D01*
X0083705Y0088136D01*
X0083604Y0087892D01*
X0083569Y0087630D01*
X0083604Y0087368D01*
X0083705Y0087124D01*
X0083866Y0086914D01*
X0084076Y0086753D01*
X0084320Y0086652D01*
X0084582Y0086617D01*
X0084844Y0086652D01*
X0085088Y0086753D01*
X0085298Y0086914D01*
X0085459Y0087124D01*
X0085560Y0087368D01*
X0085595Y0087630D01*
X0085560Y0087892D01*
X0085459Y0088136D01*
X0085298Y0088346D01*
X0085088Y0088507D01*
X0084844Y0088608D01*
X0084582Y0088643D01*
D02*
G37*
G36*
X0047752D02*
X0047490Y0088608D01*
X0047246Y0088507D01*
X0047036Y0088346D01*
X0046875Y0088136D01*
X0046774Y0087892D01*
X0046739Y0087630D01*
X0046774Y0087368D01*
X0046875Y0087124D01*
X0047036Y0086914D01*
X0047246Y0086753D01*
X0047490Y0086652D01*
X0047752Y0086617D01*
X0048014Y0086652D01*
X0048258Y0086753D01*
X0048468Y0086914D01*
X0048629Y0087124D01*
X0048730Y0087368D01*
X0048765Y0087630D01*
X0048730Y0087892D01*
X0048629Y0088136D01*
X0048468Y0088346D01*
X0048258Y0088507D01*
X0048014Y0088608D01*
X0047752Y0088643D01*
D02*
G37*
G36*
X0045212D02*
X0044950Y0088608D01*
X0044706Y0088507D01*
X0044496Y0088346D01*
X0044335Y0088136D01*
X0044234Y0087892D01*
X0044199Y0087630D01*
X0044234Y0087368D01*
X0044335Y0087124D01*
X0044496Y0086914D01*
X0044706Y0086753D01*
X0044950Y0086652D01*
X0045212Y0086617D01*
X0045474Y0086652D01*
X0045718Y0086753D01*
X0045928Y0086914D01*
X0046089Y0087124D01*
X0046190Y0087368D01*
X0046225Y0087630D01*
X0046190Y0087892D01*
X0046089Y0088136D01*
X0045928Y0088346D01*
X0045718Y0088507D01*
X0045474Y0088608D01*
X0045212Y0088643D01*
D02*
G37*
G36*
X0052832D02*
X0052570Y0088608D01*
X0052326Y0088507D01*
X0052116Y0088346D01*
X0051955Y0088136D01*
X0051854Y0087892D01*
X0051819Y0087630D01*
X0051854Y0087368D01*
X0051955Y0087124D01*
X0052116Y0086914D01*
X0052326Y0086753D01*
X0052570Y0086652D01*
X0052832Y0086617D01*
X0053094Y0086652D01*
X0053338Y0086753D01*
X0053548Y0086914D01*
X0053709Y0087124D01*
X0053810Y0087368D01*
X0053845Y0087630D01*
X0053810Y0087892D01*
X0053709Y0088136D01*
X0053548Y0088346D01*
X0053338Y0088507D01*
X0053094Y0088608D01*
X0052832Y0088643D01*
D02*
G37*
G36*
X0050292D02*
X0050030Y0088608D01*
X0049786Y0088507D01*
X0049576Y0088346D01*
X0049415Y0088136D01*
X0049314Y0087892D01*
X0049279Y0087630D01*
X0049314Y0087368D01*
X0049415Y0087124D01*
X0049576Y0086914D01*
X0049786Y0086753D01*
X0050030Y0086652D01*
X0050292Y0086617D01*
X0050554Y0086652D01*
X0050798Y0086753D01*
X0051008Y0086914D01*
X0051169Y0087124D01*
X0051270Y0087368D01*
X0051305Y0087630D01*
X0051270Y0087892D01*
X0051169Y0088136D01*
X0051008Y0088346D01*
X0050798Y0088507D01*
X0050554Y0088608D01*
X0050292Y0088643D01*
D02*
G37*
G36*
X0042672D02*
X0042410Y0088608D01*
X0042166Y0088507D01*
X0041956Y0088346D01*
X0041795Y0088136D01*
X0041694Y0087892D01*
X0041659Y0087630D01*
X0041694Y0087368D01*
X0041795Y0087124D01*
X0041956Y0086914D01*
X0042166Y0086753D01*
X0042410Y0086652D01*
X0042672Y0086617D01*
X0042934Y0086652D01*
X0043178Y0086753D01*
X0043388Y0086914D01*
X0043549Y0087124D01*
X0043650Y0087368D01*
X0043685Y0087630D01*
X0043650Y0087892D01*
X0043549Y0088136D01*
X0043388Y0088346D01*
X0043178Y0088507D01*
X0042934Y0088608D01*
X0042672Y0088643D01*
D02*
G37*
G36*
X0035052D02*
X0034790Y0088608D01*
X0034546Y0088507D01*
X0034336Y0088346D01*
X0034175Y0088136D01*
X0034074Y0087892D01*
X0034039Y0087630D01*
X0034074Y0087368D01*
X0034175Y0087124D01*
X0034336Y0086914D01*
X0034546Y0086753D01*
X0034790Y0086652D01*
X0035052Y0086617D01*
X0035314Y0086652D01*
X0035558Y0086753D01*
X0035768Y0086914D01*
X0035929Y0087124D01*
X0036030Y0087368D01*
X0036065Y0087630D01*
X0036030Y0087892D01*
X0035929Y0088136D01*
X0035768Y0088346D01*
X0035558Y0088507D01*
X0035314Y0088608D01*
X0035052Y0088643D01*
D02*
G37*
G36*
X0132173Y0087630D02*
X0130048D01*
Y0085505D01*
X0130363Y0085536D01*
X0130788Y0085664D01*
X0131179Y0085874D01*
X0131523Y0086155D01*
X0131804Y0086499D01*
X0132014Y0086890D01*
X0132142Y0087315D01*
X0132173Y0087630D01*
D02*
G37*
G36*
X0040132Y0088643D02*
X0039870Y0088608D01*
X0039626Y0088507D01*
X0039416Y0088346D01*
X0039255Y0088136D01*
X0039154Y0087892D01*
X0039119Y0087630D01*
X0039154Y0087368D01*
X0039255Y0087124D01*
X0039416Y0086914D01*
X0039626Y0086753D01*
X0039870Y0086652D01*
X0040132Y0086617D01*
X0040394Y0086652D01*
X0040638Y0086753D01*
X0040848Y0086914D01*
X0041009Y0087124D01*
X0041110Y0087368D01*
X0041145Y0087630D01*
X0041110Y0087892D01*
X0041009Y0088136D01*
X0040848Y0088346D01*
X0040638Y0088507D01*
X0040394Y0088608D01*
X0040132Y0088643D01*
D02*
G37*
G36*
X0037592D02*
X0037330Y0088608D01*
X0037086Y0088507D01*
X0036876Y0088346D01*
X0036715Y0088136D01*
X0036614Y0087892D01*
X0036579Y0087630D01*
X0036614Y0087368D01*
X0036715Y0087124D01*
X0036876Y0086914D01*
X0037086Y0086753D01*
X0037330Y0086652D01*
X0037592Y0086617D01*
X0037854Y0086652D01*
X0038098Y0086753D01*
X0038308Y0086914D01*
X0038469Y0087124D01*
X0038570Y0087368D01*
X0038605Y0087630D01*
X0038570Y0087892D01*
X0038469Y0088136D01*
X0038308Y0088346D01*
X0038098Y0088507D01*
X0037854Y0088608D01*
X0037592Y0088643D01*
D02*
G37*
G36*
X0073787D02*
X0073525Y0088608D01*
X0073281Y0088507D01*
X0073071Y0088346D01*
X0072910Y0088136D01*
X0072809Y0087892D01*
X0072774Y0087630D01*
X0072809Y0087368D01*
X0072910Y0087124D01*
X0073071Y0086914D01*
X0073281Y0086753D01*
X0073525Y0086652D01*
X0073787Y0086617D01*
X0074049Y0086652D01*
X0074293Y0086753D01*
X0074503Y0086914D01*
X0074664Y0087124D01*
X0074765Y0087368D01*
X0074800Y0087630D01*
X0074765Y0087892D01*
X0074664Y0088136D01*
X0074503Y0088346D01*
X0074293Y0088507D01*
X0074049Y0088608D01*
X0073787Y0088643D01*
D02*
G37*
G36*
X0071247D02*
X0070985Y0088608D01*
X0070741Y0088507D01*
X0070531Y0088346D01*
X0070370Y0088136D01*
X0070269Y0087892D01*
X0070234Y0087630D01*
X0070269Y0087368D01*
X0070370Y0087124D01*
X0070531Y0086914D01*
X0070741Y0086753D01*
X0070985Y0086652D01*
X0071247Y0086617D01*
X0071509Y0086652D01*
X0071753Y0086753D01*
X0071963Y0086914D01*
X0072124Y0087124D01*
X0072225Y0087368D01*
X0072260Y0087630D01*
X0072225Y0087892D01*
X0072124Y0088136D01*
X0071963Y0088346D01*
X0071753Y0088507D01*
X0071509Y0088608D01*
X0071247Y0088643D01*
D02*
G37*
G36*
X0082042D02*
X0081780Y0088608D01*
X0081536Y0088507D01*
X0081326Y0088346D01*
X0081165Y0088136D01*
X0081064Y0087892D01*
X0081029Y0087630D01*
X0081064Y0087368D01*
X0081165Y0087124D01*
X0081326Y0086914D01*
X0081536Y0086753D01*
X0081780Y0086652D01*
X0082042Y0086617D01*
X0082304Y0086652D01*
X0082548Y0086753D01*
X0082758Y0086914D01*
X0082919Y0087124D01*
X0083020Y0087368D01*
X0083055Y0087630D01*
X0083020Y0087892D01*
X0082919Y0088136D01*
X0082758Y0088346D01*
X0082548Y0088507D01*
X0082304Y0088608D01*
X0082042Y0088643D01*
D02*
G37*
G36*
X0076327D02*
X0076065Y0088608D01*
X0075821Y0088507D01*
X0075611Y0088346D01*
X0075450Y0088136D01*
X0075349Y0087892D01*
X0075314Y0087630D01*
X0075349Y0087368D01*
X0075450Y0087124D01*
X0075611Y0086914D01*
X0075821Y0086753D01*
X0076065Y0086652D01*
X0076327Y0086617D01*
X0076589Y0086652D01*
X0076833Y0086753D01*
X0077043Y0086914D01*
X0077204Y0087124D01*
X0077305Y0087368D01*
X0077340Y0087630D01*
X0077305Y0087892D01*
X0077204Y0088136D01*
X0077043Y0088346D01*
X0076833Y0088507D01*
X0076589Y0088608D01*
X0076327Y0088643D01*
D02*
G37*
G36*
X0068707D02*
X0068445Y0088608D01*
X0068201Y0088507D01*
X0067991Y0088346D01*
X0067830Y0088136D01*
X0067729Y0087892D01*
X0067694Y0087630D01*
X0067729Y0087368D01*
X0067830Y0087124D01*
X0067991Y0086914D01*
X0068201Y0086753D01*
X0068445Y0086652D01*
X0068707Y0086617D01*
X0068969Y0086652D01*
X0069213Y0086753D01*
X0069423Y0086914D01*
X0069584Y0087124D01*
X0069685Y0087368D01*
X0069720Y0087630D01*
X0069685Y0087892D01*
X0069584Y0088136D01*
X0069423Y0088346D01*
X0069213Y0088507D01*
X0068969Y0088608D01*
X0068707Y0088643D01*
D02*
G37*
G36*
X0061087D02*
X0060825Y0088608D01*
X0060581Y0088507D01*
X0060371Y0088346D01*
X0060210Y0088136D01*
X0060109Y0087892D01*
X0060074Y0087630D01*
X0060109Y0087368D01*
X0060210Y0087124D01*
X0060371Y0086914D01*
X0060581Y0086753D01*
X0060825Y0086652D01*
X0061087Y0086617D01*
X0061349Y0086652D01*
X0061593Y0086753D01*
X0061803Y0086914D01*
X0061964Y0087124D01*
X0062065Y0087368D01*
X0062100Y0087630D01*
X0062065Y0087892D01*
X0061964Y0088136D01*
X0061803Y0088346D01*
X0061593Y0088507D01*
X0061349Y0088608D01*
X0061087Y0088643D01*
D02*
G37*
G36*
X0058547D02*
X0058285Y0088608D01*
X0058041Y0088507D01*
X0057831Y0088346D01*
X0057670Y0088136D01*
X0057569Y0087892D01*
X0057534Y0087630D01*
X0057569Y0087368D01*
X0057670Y0087124D01*
X0057831Y0086914D01*
X0058041Y0086753D01*
X0058285Y0086652D01*
X0058547Y0086617D01*
X0058809Y0086652D01*
X0059053Y0086753D01*
X0059263Y0086914D01*
X0059424Y0087124D01*
X0059525Y0087368D01*
X0059560Y0087630D01*
X0059525Y0087892D01*
X0059424Y0088136D01*
X0059263Y0088346D01*
X0059053Y0088507D01*
X0058809Y0088608D01*
X0058547Y0088643D01*
D02*
G37*
G36*
X0066167D02*
X0065905Y0088608D01*
X0065661Y0088507D01*
X0065451Y0088346D01*
X0065290Y0088136D01*
X0065189Y0087892D01*
X0065154Y0087630D01*
X0065189Y0087368D01*
X0065290Y0087124D01*
X0065451Y0086914D01*
X0065661Y0086753D01*
X0065905Y0086652D01*
X0066167Y0086617D01*
X0066429Y0086652D01*
X0066673Y0086753D01*
X0066883Y0086914D01*
X0067044Y0087124D01*
X0067145Y0087368D01*
X0067180Y0087630D01*
X0067145Y0087892D01*
X0067044Y0088136D01*
X0066883Y0088346D01*
X0066673Y0088507D01*
X0066429Y0088608D01*
X0066167Y0088643D01*
D02*
G37*
G36*
X0063627D02*
X0063365Y0088608D01*
X0063121Y0088507D01*
X0062911Y0088346D01*
X0062750Y0088136D01*
X0062649Y0087892D01*
X0062614Y0087630D01*
X0062649Y0087368D01*
X0062750Y0087124D01*
X0062911Y0086914D01*
X0063121Y0086753D01*
X0063365Y0086652D01*
X0063627Y0086617D01*
X0063889Y0086652D01*
X0064133Y0086753D01*
X0064343Y0086914D01*
X0064504Y0087124D01*
X0064605Y0087368D01*
X0064640Y0087630D01*
X0064605Y0087892D01*
X0064504Y0088136D01*
X0064343Y0088346D01*
X0064133Y0088507D01*
X0063889Y0088608D01*
X0063627Y0088643D01*
D02*
G37*
G36*
X0039918Y0078911D02*
X0038691D01*
Y0077684D01*
X0039918D01*
Y0078911D01*
D02*
G37*
G36*
X0067551Y0065519D02*
X0067056D01*
Y0065024D01*
X0067177Y0065048D01*
X0067387Y0065188D01*
X0067527Y0065398D01*
X0067551Y0065519D01*
D02*
G37*
G36*
X0045593Y0070218D02*
X0045472Y0070194D01*
X0045262Y0070054D01*
X0045122Y0069844D01*
X0045098Y0069723D01*
X0045593D01*
Y0070218D01*
D02*
G37*
G36*
X0066046Y0072922D02*
Y0072427D01*
X0066541D01*
X0066517Y0072548D01*
X0066377Y0072758D01*
X0066167Y0072898D01*
X0066046Y0072922D01*
D02*
G37*
G36*
X0065792D02*
X0065671Y0072898D01*
X0065461Y0072758D01*
X0065321Y0072548D01*
X0065297Y0072427D01*
X0065792D01*
Y0072922D01*
D02*
G37*
G36*
X0066802Y0066268D02*
X0066681Y0066244D01*
X0066471Y0066104D01*
X0066331Y0065894D01*
X0066307Y0065773D01*
X0066802D01*
Y0066268D01*
D02*
G37*
G36*
X0059245Y0076708D02*
X0058801D01*
Y0075565D01*
X0059245D01*
Y0076708D01*
D02*
G37*
G36*
X0060515Y0078105D02*
X0059373D01*
Y0075565D01*
X0060515D01*
Y0078105D01*
D02*
G37*
G36*
X0058547Y0076708D02*
X0058103D01*
Y0075565D01*
X0058547D01*
Y0076708D01*
D02*
G37*
G36*
X0066802Y0065519D02*
X0066307D01*
X0066331Y0065398D01*
X0066471Y0065188D01*
X0066681Y0065048D01*
X0066802Y0065024D01*
Y0065519D01*
D02*
G37*
G36*
X0064326Y0078105D02*
X0063182D01*
Y0075565D01*
X0063182Y0075565D01*
X0063182D01*
X0063226Y0075460D01*
X0063085Y0075318D01*
X0057483D01*
X0057348Y0075409D01*
X0057150Y0075448D01*
X0056952Y0075409D01*
X0056784Y0075296D01*
X0056671Y0075128D01*
X0056640Y0074969D01*
X0053560Y0071889D01*
X0049599D01*
Y0072152D01*
D01*
Y0072152D01*
X0049599Y0072152D01*
Y0072244D01*
X0049599D01*
Y0072445D01*
X0050285D01*
Y0072220D01*
X0053093D01*
Y0075028D01*
X0050285D01*
Y0073351D01*
X0049599D01*
Y0073552D01*
X0048191D01*
Y0072244D01*
X0048191Y0072244D01*
X0048191Y0072152D01*
X0048191D01*
Y0070844D01*
X0048442D01*
Y0070038D01*
X0046929Y0068525D01*
X0046181D01*
X0046178Y0068530D01*
X0045968Y0068670D01*
X0045720Y0068719D01*
X0045472Y0068670D01*
X0045262Y0068530D01*
X0045122Y0068320D01*
X0045073Y0068072D01*
X0045122Y0067824D01*
X0045262Y0067614D01*
X0045267Y0067611D01*
Y0064215D01*
X0045262Y0064212D01*
X0045122Y0064002D01*
X0045073Y0063754D01*
X0045122Y0063506D01*
X0045262Y0063296D01*
X0045472Y0063156D01*
X0045720Y0063107D01*
X0045968Y0063156D01*
X0046178Y0063296D01*
X0046318Y0063506D01*
X0046367Y0063754D01*
X0046318Y0064002D01*
X0046178Y0064212D01*
X0046173Y0064215D01*
Y0067611D01*
X0046178Y0067614D01*
X0046181Y0067619D01*
X0047117D01*
X0047290Y0067653D01*
X0047437Y0067752D01*
X0049215Y0069530D01*
X0049215Y0069530D01*
X0049314Y0069677D01*
X0049348Y0069850D01*
Y0070844D01*
X0049599D01*
Y0071113D01*
X0053721D01*
X0053870Y0071142D01*
X0053996Y0071226D01*
X0053996Y0071226D01*
X0053996Y0071226D01*
X0057189Y0074420D01*
X0057348Y0074451D01*
X0057483Y0074542D01*
X0063246D01*
X0063395Y0074571D01*
X0063521Y0074655D01*
X0063521Y0074655D01*
X0063521Y0074655D01*
X0064029Y0075163D01*
X0064113Y0075289D01*
X0064142Y0075438D01*
X0064142Y0075438D01*
X0064142Y0075438D01*
Y0075438D01*
Y0075565D01*
X0064326D01*
Y0078105D01*
D02*
G37*
G36*
X0042551Y0072922D02*
Y0072427D01*
X0043046D01*
X0043022Y0072548D01*
X0042882Y0072758D01*
X0042672Y0072898D01*
X0042551Y0072922D01*
D02*
G37*
G36*
X0042297Y0072173D02*
X0041802D01*
X0041826Y0072052D01*
X0041966Y0071842D01*
X0042176Y0071702D01*
X0042297Y0071678D01*
Y0072173D01*
D02*
G37*
G36*
X0043046D02*
X0042551D01*
Y0071678D01*
X0042672Y0071702D01*
X0042882Y0071842D01*
X0043022Y0072052D01*
X0043046Y0072173D01*
D02*
G37*
G36*
X0045593Y0069469D02*
X0045098D01*
X0045122Y0069348D01*
X0045262Y0069138D01*
X0045472Y0068998D01*
X0045593Y0068974D01*
Y0069469D01*
D02*
G37*
G36*
X0064326Y0073279D02*
X0063182D01*
Y0070739D01*
X0063366D01*
Y0070612D01*
X0063366Y0070612D01*
X0063366D01*
X0063395Y0070463D01*
X0063464Y0070360D01*
X0063366Y0070279D01*
X0063012Y0070634D01*
X0063056Y0070739D01*
X0063056D01*
X0063056Y0070739D01*
Y0073279D01*
X0061912D01*
Y0070739D01*
X0062096D01*
Y0070612D01*
X0062096Y0070612D01*
X0062096D01*
X0062125Y0070463D01*
X0062209Y0070337D01*
X0063606Y0068940D01*
X0063732Y0068856D01*
X0063757Y0068851D01*
X0063881Y0068827D01*
X0068755D01*
X0068890Y0068736D01*
X0069088Y0068697D01*
X0069286Y0068736D01*
X0069454Y0068849D01*
X0069567Y0069017D01*
X0069606Y0069215D01*
X0069567Y0069413D01*
X0069454Y0069581D01*
X0069286Y0069694D01*
X0069088Y0069733D01*
X0068890Y0069694D01*
X0068789Y0069627D01*
X0068666Y0069657D01*
X0068635Y0069715D01*
X0068678Y0069779D01*
X0068717Y0069977D01*
X0068678Y0070175D01*
X0068565Y0070343D01*
X0068397Y0070456D01*
X0068199Y0070495D01*
X0068001Y0070456D01*
X0067866Y0070365D01*
X0064550D01*
X0064282Y0070634D01*
X0064326Y0070739D01*
X0064326D01*
X0064326Y0070739D01*
Y0073279D01*
D02*
G37*
G36*
X0046342Y0069469D02*
X0045847D01*
Y0068974D01*
X0045968Y0068998D01*
X0046178Y0069138D01*
X0046318Y0069348D01*
X0046342Y0069469D01*
D02*
G37*
G36*
X0067056Y0066268D02*
Y0065773D01*
X0067551D01*
X0067527Y0065894D01*
X0067387Y0066104D01*
X0067177Y0066244D01*
X0067056Y0066268D01*
D02*
G37*
G36*
X0042297Y0072922D02*
X0042176Y0072898D01*
X0041966Y0072758D01*
X0041826Y0072548D01*
X0041802Y0072427D01*
X0042297D01*
Y0072922D01*
D02*
G37*
G36*
X0045847Y0070218D02*
Y0069723D01*
X0046342D01*
X0046318Y0069844D01*
X0046178Y0070054D01*
X0045968Y0070194D01*
X0045847Y0070218D01*
D02*
G37*
G36*
X0065792Y0072173D02*
X0065297D01*
X0065321Y0072052D01*
X0065461Y0071842D01*
X0065671Y0071702D01*
X0065792Y0071678D01*
Y0072173D01*
D02*
G37*
G36*
X0066541D02*
X0066046D01*
Y0071678D01*
X0066167Y0071702D01*
X0066377Y0071842D01*
X0066517Y0072052D01*
X0066541Y0072173D01*
D02*
G37*
G36*
X0059245Y0078105D02*
X0058801D01*
Y0076962D01*
X0059245D01*
Y0078105D01*
D02*
G37*
G36*
X0057023Y0077838D02*
Y0077343D01*
X0057518D01*
X0057494Y0077464D01*
X0057354Y0077674D01*
X0057144Y0077814D01*
X0057023Y0077838D01*
D02*
G37*
G36*
X0057518Y0077089D02*
X0057023D01*
Y0076594D01*
X0057144Y0076618D01*
X0057354Y0076758D01*
X0057494Y0076968D01*
X0057518Y0077089D01*
D02*
G37*
G36*
X0058547Y0078105D02*
X0058103D01*
Y0076962D01*
X0058547D01*
Y0078105D01*
D02*
G37*
G36*
X0061087D02*
X0060643D01*
Y0076962D01*
X0061087D01*
Y0078105D01*
D02*
G37*
G36*
X0063056D02*
X0062611D01*
Y0076962D01*
X0063056D01*
Y0078105D01*
D02*
G37*
G36*
X0056769Y0077838D02*
X0056648Y0077814D01*
X0056438Y0077674D01*
X0056298Y0077464D01*
X0056274Y0077343D01*
X0056769D01*
Y0077838D01*
D02*
G37*
G36*
X0061785Y0078105D02*
X0061341D01*
Y0076962D01*
X0061785D01*
Y0078105D01*
D02*
G37*
G36*
X0062357D02*
X0061912D01*
Y0076962D01*
X0062357D01*
Y0078105D01*
D02*
G37*
G36*
X0056769Y0077089D02*
X0056274D01*
X0056298Y0076968D01*
X0056438Y0076758D01*
X0056648Y0076618D01*
X0056769Y0076594D01*
Y0077089D01*
D02*
G37*
G36*
X0062357Y0076708D02*
X0061912D01*
Y0075565D01*
X0062357D01*
Y0076708D01*
D02*
G37*
G36*
X0061785D02*
X0061341D01*
Y0075565D01*
X0061785D01*
Y0076708D01*
D02*
G37*
G36*
X0063056D02*
X0062611D01*
Y0075565D01*
X0063056D01*
Y0076708D01*
D02*
G37*
G36*
X0069469Y0083319D02*
X0035433D01*
X0035284Y0083290D01*
X0035158Y0083206D01*
X0031475Y0079523D01*
X0031391Y0079397D01*
X0031362Y0079248D01*
Y0078692D01*
X0031271Y0078557D01*
X0031232Y0078359D01*
X0031271Y0078161D01*
X0031384Y0077993D01*
X0031552Y0077880D01*
X0031750Y0077841D01*
X0031947Y0077880D01*
X0032007Y0077768D01*
X0029189Y0074951D01*
X0029105Y0074825D01*
X0029076Y0074676D01*
Y0068278D01*
X0028985Y0068143D01*
X0028946Y0067945D01*
X0028985Y0067747D01*
X0029098Y0067579D01*
X0029266Y0067466D01*
X0029464Y0067427D01*
X0029662Y0067466D01*
X0029830Y0067579D01*
X0029943Y0067747D01*
X0029982Y0067945D01*
X0029943Y0068143D01*
X0029878Y0068240D01*
X0029948Y0068346D01*
X0030099Y0068316D01*
X0030297Y0068355D01*
X0030465Y0068468D01*
X0030478Y0068487D01*
X0030600Y0068450D01*
Y0068106D01*
X0028046Y0065553D01*
X0027962Y0065427D01*
X0027933Y0065278D01*
Y0063706D01*
X0027842Y0063571D01*
X0027803Y0063373D01*
X0027842Y0063175D01*
X0027955Y0063007D01*
X0028123Y0062894D01*
X0028321Y0062855D01*
X0028519Y0062894D01*
X0028583Y0062937D01*
X0028695Y0062877D01*
Y0062611D01*
X0028695Y0062611D01*
X0028695D01*
X0028724Y0062462D01*
X0028808Y0062336D01*
X0029463Y0061681D01*
X0029589Y0061597D01*
X0029614Y0061592D01*
X0029738Y0061568D01*
X0031041D01*
Y0061552D01*
Y0061052D01*
Y0060860D01*
Y0060844D01*
X0030041D01*
Y0061171D01*
X0028633D01*
Y0059863D01*
X0028633Y0059863D01*
X0028633Y0059771D01*
X0028633D01*
Y0059027D01*
X0027665Y0058060D01*
X0027581Y0057934D01*
X0027552Y0057785D01*
Y0057654D01*
X0027482Y0057608D01*
X0027342Y0057398D01*
X0027293Y0057150D01*
X0027342Y0056902D01*
X0027482Y0056692D01*
X0027692Y0056552D01*
X0027940Y0056503D01*
X0028188Y0056552D01*
X0028398Y0056692D01*
X0028538Y0056902D01*
X0028587Y0057150D01*
X0028538Y0057398D01*
X0028398Y0057608D01*
X0028390Y0057686D01*
X0029167Y0058463D01*
X0030041D01*
Y0059771D01*
D01*
Y0059771D01*
X0030041Y0059771D01*
Y0059863D01*
X0030041D01*
Y0060068D01*
X0031041D01*
Y0060052D01*
Y0059552D01*
Y0059052D01*
Y0058552D01*
Y0058052D01*
Y0057552D01*
X0032749D01*
Y0058052D01*
Y0058552D01*
Y0059052D01*
Y0059552D01*
Y0060052D01*
Y0060552D01*
Y0061052D01*
Y0061552D01*
Y0062052D01*
Y0062552D01*
Y0063052D01*
Y0063860D01*
X0031041D01*
Y0063667D01*
X0030919Y0063630D01*
X0030846Y0063739D01*
X0030678Y0063852D01*
X0030480Y0063891D01*
X0030282Y0063852D01*
X0030114Y0063739D01*
X0030101Y0063720D01*
X0029979Y0063757D01*
Y0064863D01*
X0032279Y0067162D01*
X0032363Y0067288D01*
X0032392Y0067437D01*
Y0068831D01*
X0032514Y0068868D01*
X0032527Y0068849D01*
X0032695Y0068736D01*
X0032893Y0068697D01*
X0033090Y0068736D01*
X0033161Y0068631D01*
X0033086Y0068519D01*
X0033057Y0068370D01*
Y0065860D01*
X0033041D01*
Y0064152D01*
X0033057D01*
Y0063202D01*
X0033057Y0063202D01*
X0033057D01*
X0033086Y0063053D01*
X0033170Y0062927D01*
X0034560Y0061538D01*
X0034544Y0061456D01*
X0034593Y0061208D01*
X0034733Y0060998D01*
X0034803Y0060952D01*
Y0060313D01*
X0034803Y0060313D01*
X0034803D01*
X0034832Y0060164D01*
X0034916Y0060038D01*
X0037557Y0057398D01*
Y0057260D01*
X0036541D01*
Y0056406D01*
Y0055552D01*
X0036557D01*
Y0054749D01*
X0036586Y0054600D01*
X0036670Y0054474D01*
X0038333Y0052811D01*
X0038459Y0052727D01*
X0038539Y0052711D01*
Y0052600D01*
X0038539D01*
Y0051292D01*
X0038539Y0051292D01*
X0038539Y0051200D01*
X0038539D01*
Y0049892D01*
X0038855D01*
Y0047752D01*
X0038855Y0047752D01*
X0038855D01*
X0038884Y0047603D01*
X0038968Y0047477D01*
X0040235Y0046210D01*
X0040206Y0046087D01*
X0040131Y0046061D01*
X0040004Y0046227D01*
X0039818Y0046370D01*
X0039602Y0046459D01*
X0039370Y0046490D01*
X0039138Y0046459D01*
X0038922Y0046370D01*
X0038736Y0046227D01*
X0038609Y0046061D01*
X0038488Y0046102D01*
Y0048895D01*
X0038459Y0049044D01*
X0038375Y0049170D01*
X0035833Y0051711D01*
Y0053471D01*
X0035945Y0053531D01*
X0035997Y0053496D01*
X0036195Y0053457D01*
X0036393Y0053496D01*
X0036561Y0053609D01*
X0036674Y0053777D01*
X0036713Y0053975D01*
X0036674Y0054173D01*
X0036561Y0054341D01*
X0036393Y0054454D01*
X0036333Y0054465D01*
Y0055552D01*
X0036349D01*
Y0056406D01*
Y0057260D01*
X0034541D01*
Y0056406D01*
Y0055552D01*
X0034557D01*
Y0053267D01*
X0034505Y0053215D01*
X0034346Y0053184D01*
X0034178Y0053071D01*
X0034065Y0052903D01*
X0034026Y0052705D01*
X0034065Y0052507D01*
X0034178Y0052339D01*
X0034346Y0052226D01*
X0034544Y0052187D01*
X0034742Y0052226D01*
X0034910Y0052339D01*
X0034935Y0052376D01*
X0035057Y0052339D01*
Y0051550D01*
X0035086Y0051401D01*
X0035155Y0051298D01*
X0035057Y0051217D01*
X0033833Y0052441D01*
Y0055552D01*
X0034349D01*
Y0056406D01*
Y0057260D01*
X0034333D01*
Y0058130D01*
X0034304Y0058279D01*
X0034220Y0058405D01*
X0034074Y0058550D01*
X0034075Y0058552D01*
X0034035Y0058750D01*
X0033923Y0058918D01*
X0033755Y0059030D01*
X0033557Y0059070D01*
X0033358Y0059030D01*
X0033190Y0058918D01*
X0033078Y0058750D01*
X0033039Y0058552D01*
X0033078Y0058354D01*
X0033190Y0058186D01*
X0033358Y0058073D01*
X0033475Y0058050D01*
X0033557Y0057969D01*
Y0057260D01*
X0033041D01*
Y0055552D01*
X0033057D01*
Y0052280D01*
X0033057Y0052280D01*
X0033057D01*
X0033086Y0052131D01*
X0033170Y0052005D01*
X0036442Y0048734D01*
Y0046394D01*
X0036382Y0046370D01*
X0036196Y0046227D01*
X0036053Y0046041D01*
X0035964Y0045825D01*
X0035933Y0045593D01*
X0035964Y0045361D01*
X0036053Y0045145D01*
X0036196Y0044959D01*
X0036382Y0044816D01*
X0036598Y0044727D01*
X0036830Y0044696D01*
X0037062Y0044727D01*
X0037278Y0044816D01*
X0037464Y0044959D01*
X0037591Y0045125D01*
X0037712Y0045084D01*
Y0043854D01*
X0037652Y0043830D01*
X0037466Y0043687D01*
X0037339Y0043521D01*
X0037218Y0043562D01*
Y0043688D01*
X0037194Y0043812D01*
X0037189Y0043837D01*
X0037105Y0043963D01*
X0036470Y0044598D01*
X0036344Y0044682D01*
X0036195Y0044711D01*
X0035721D01*
X0035131Y0045301D01*
X0035156Y0045361D01*
X0035187Y0045593D01*
X0035156Y0045825D01*
X0035067Y0046041D01*
X0034924Y0046227D01*
X0034738Y0046370D01*
X0034522Y0046459D01*
X0034290Y0046490D01*
X0034058Y0046459D01*
X0033842Y0046370D01*
X0033656Y0046227D01*
X0033513Y0046041D01*
X0033424Y0045825D01*
X0033393Y0045593D01*
X0033424Y0045361D01*
X0033513Y0045145D01*
X0033656Y0044959D01*
X0033842Y0044816D01*
X0034058Y0044727D01*
X0034290Y0044696D01*
X0034522Y0044727D01*
X0034582Y0044752D01*
X0035285Y0044048D01*
X0035309Y0044033D01*
X0035297Y0043906D01*
X0035112Y0043830D01*
X0034926Y0043687D01*
X0034783Y0043501D01*
X0034694Y0043285D01*
X0034663Y0043053D01*
X0034694Y0042821D01*
X0034783Y0042605D01*
X0034926Y0042419D01*
X0035112Y0042276D01*
X0035328Y0042187D01*
X0035560Y0042156D01*
X0035792Y0042187D01*
X0036008Y0042276D01*
X0036194Y0042419D01*
X0036291Y0042545D01*
X0036442Y0042545D01*
X0036471Y0042396D01*
X0036555Y0042270D01*
X0037190Y0041635D01*
X0037316Y0041551D01*
X0037341Y0041546D01*
X0037465Y0041522D01*
X0044577D01*
X0044726Y0041551D01*
X0044852Y0041635D01*
X0045428Y0042212D01*
X0045488Y0042187D01*
X0045720Y0042156D01*
X0045952Y0042187D01*
X0046168Y0042276D01*
X0046354Y0042419D01*
X0046497Y0042605D01*
X0046586Y0042821D01*
X0046617Y0043053D01*
X0046586Y0043285D01*
X0046497Y0043501D01*
X0046354Y0043687D01*
X0046168Y0043830D01*
X0045952Y0043919D01*
X0045720Y0043950D01*
X0045488Y0043919D01*
X0045272Y0043830D01*
X0045086Y0043687D01*
X0044943Y0043501D01*
X0044854Y0043285D01*
X0044823Y0043053D01*
X0044854Y0042821D01*
X0044879Y0042761D01*
X0044416Y0042298D01*
X0043855D01*
X0043814Y0042419D01*
X0043814Y0042419D01*
X0043957Y0042605D01*
X0044046Y0042821D01*
X0044077Y0043053D01*
X0044046Y0043285D01*
X0043957Y0043501D01*
X0043814Y0043687D01*
X0043628Y0043830D01*
X0043412Y0043919D01*
X0043180Y0043950D01*
X0042948Y0043919D01*
X0042732Y0043830D01*
X0042546Y0043687D01*
X0042403Y0043501D01*
X0042314Y0043285D01*
X0042283Y0043053D01*
X0042314Y0042821D01*
X0042403Y0042605D01*
X0042546Y0042419D01*
X0042546Y0042419D01*
X0042505Y0042298D01*
X0041315D01*
X0041274Y0042419D01*
X0041274Y0042419D01*
X0041417Y0042605D01*
X0041506Y0042821D01*
X0041537Y0043053D01*
X0041506Y0043285D01*
X0041417Y0043501D01*
X0041274Y0043687D01*
X0041088Y0043830D01*
X0041028Y0043854D01*
Y0045084D01*
X0041149Y0045125D01*
X0041276Y0044959D01*
X0041462Y0044816D01*
X0041678Y0044727D01*
X0041910Y0044696D01*
X0042142Y0044727D01*
X0042358Y0044816D01*
X0042544Y0044959D01*
X0042687Y0045145D01*
X0042776Y0045361D01*
X0042807Y0045593D01*
X0042776Y0045825D01*
X0042687Y0046041D01*
X0042544Y0046227D01*
X0042358Y0046370D01*
X0042142Y0046459D01*
X0041910Y0046490D01*
X0041678Y0046459D01*
X0041462Y0046370D01*
X0041276Y0046227D01*
X0041149Y0046061D01*
X0041028Y0046102D01*
Y0046355D01*
X0041004Y0046479D01*
X0040999Y0046504D01*
X0040915Y0046630D01*
X0039631Y0047913D01*
Y0049892D01*
X0041649D01*
Y0049664D01*
X0041321D01*
D01*
D01*
X0041321Y0049664D01*
X0041229D01*
Y0049664D01*
X0040702D01*
Y0048960D01*
Y0048256D01*
X0041229D01*
Y0048256D01*
X0041229D01*
X0041229Y0048256D01*
X0041321D01*
Y0048256D01*
X0042629D01*
Y0049664D01*
X0042425D01*
Y0049892D01*
X0043046D01*
Y0046609D01*
X0043075Y0046460D01*
X0043159Y0046334D01*
X0043609Y0045885D01*
X0043584Y0045825D01*
X0043553Y0045593D01*
X0043584Y0045361D01*
X0043673Y0045145D01*
X0043816Y0044959D01*
X0044002Y0044816D01*
X0044218Y0044727D01*
X0044450Y0044696D01*
X0044682Y0044727D01*
X0044898Y0044816D01*
X0045084Y0044959D01*
X0045227Y0045145D01*
X0045316Y0045361D01*
X0045347Y0045593D01*
X0045316Y0045825D01*
X0045227Y0046041D01*
X0045084Y0046227D01*
X0044898Y0046370D01*
X0044682Y0046459D01*
X0044450Y0046490D01*
X0044218Y0046459D01*
X0044158Y0046434D01*
X0043822Y0046770D01*
Y0049892D01*
X0044138D01*
Y0051200D01*
D01*
Y0051200D01*
X0044138Y0051200D01*
Y0051292D01*
X0044138D01*
Y0052600D01*
X0044138D01*
Y0052608D01*
X0044228Y0052698D01*
X0044620D01*
Y0052382D01*
X0045928D01*
Y0052382D01*
X0045928D01*
X0045928Y0052382D01*
X0046020D01*
Y0052382D01*
X0047328D01*
Y0053779D01*
Y0055187D01*
X0047062D01*
Y0055307D01*
X0047033Y0055456D01*
X0046949Y0055582D01*
X0046187Y0056344D01*
X0046061Y0056428D01*
X0045912Y0056457D01*
X0045184D01*
X0044711Y0056930D01*
Y0057066D01*
X0044889D01*
Y0057066D01*
X0046297D01*
Y0057190D01*
X0046371Y0057239D01*
X0046409Y0057260D01*
X0046615Y0057122D01*
X0046863Y0057073D01*
X0047111Y0057122D01*
X0047321Y0057262D01*
X0047461Y0057472D01*
X0047510Y0057720D01*
X0047461Y0057968D01*
X0047321Y0058178D01*
X0047111Y0058318D01*
X0046863Y0058367D01*
X0046615Y0058318D01*
X0046409Y0058180D01*
X0046371Y0058201D01*
X0046297Y0058250D01*
Y0058374D01*
D01*
Y0058374D01*
X0046297Y0058374D01*
Y0058466D01*
X0046297D01*
Y0059568D01*
X0052463D01*
X0052612Y0059597D01*
X0052738Y0059681D01*
X0052738Y0059681D01*
X0052738Y0059681D01*
X0053125Y0060069D01*
X0053284Y0060100D01*
X0053452Y0060213D01*
X0053565Y0060381D01*
X0053604Y0060579D01*
X0053565Y0060777D01*
X0053452Y0060945D01*
X0053284Y0061058D01*
X0053086Y0061097D01*
X0052888Y0061058D01*
X0052720Y0060945D01*
X0052607Y0060777D01*
X0052576Y0060618D01*
X0052302Y0060344D01*
X0050948D01*
X0050911Y0060466D01*
X0050912Y0060467D01*
X0051025Y0060635D01*
X0051064Y0060833D01*
X0051109Y0060863D01*
X0051110Y0060862D01*
X0051308Y0060823D01*
X0051506Y0060862D01*
X0051674Y0060975D01*
X0051787Y0061143D01*
X0051826Y0061341D01*
X0051787Y0061539D01*
X0051696Y0061674D01*
Y0064818D01*
X0051787Y0064953D01*
X0051826Y0065151D01*
X0051787Y0065349D01*
X0051674Y0065517D01*
X0051506Y0065630D01*
X0051308Y0065669D01*
X0051110Y0065630D01*
X0050942Y0065517D01*
X0050829Y0065349D01*
X0050790Y0065151D01*
X0050802Y0065091D01*
X0050712Y0065001D01*
X0050546Y0065034D01*
X0050348Y0064995D01*
X0050180Y0064882D01*
X0050067Y0064714D01*
X0050028Y0064516D01*
X0050067Y0064318D01*
X0050158Y0064183D01*
Y0061166D01*
X0050067Y0061031D01*
X0050028Y0060833D01*
X0050067Y0060635D01*
X0050180Y0060467D01*
X0050181Y0060466D01*
X0050144Y0060344D01*
X0049170D01*
X0049133Y0060466D01*
X0049134Y0060467D01*
X0049247Y0060635D01*
X0049286Y0060833D01*
X0049247Y0061031D01*
X0049134Y0061199D01*
X0048966Y0061312D01*
X0048768Y0061351D01*
X0048570Y0061312D01*
X0048402Y0061199D01*
X0048289Y0061031D01*
X0048258Y0060872D01*
X0048230Y0060844D01*
X0044838D01*
Y0065532D01*
X0044809Y0065681D01*
X0044725Y0065807D01*
X0043647Y0066885D01*
X0043521Y0066969D01*
X0043372Y0066998D01*
X0042360D01*
Y0067264D01*
D01*
Y0067264D01*
X0042360Y0067264D01*
Y0067356D01*
X0042360D01*
Y0068664D01*
X0042029D01*
Y0068992D01*
X0044240Y0071203D01*
X0046399D01*
Y0073911D01*
X0043691D01*
Y0071752D01*
X0041480Y0069541D01*
X0038677D01*
Y0069807D01*
X0037269D01*
Y0069541D01*
X0034228D01*
X0034079Y0069512D01*
X0033953Y0069428D01*
X0033484Y0068958D01*
X0033372Y0069018D01*
X0033411Y0069215D01*
X0033372Y0069413D01*
X0033281Y0069548D01*
Y0071988D01*
X0033380Y0072069D01*
X0033528Y0072039D01*
X0033726Y0072078D01*
X0033861Y0072169D01*
X0038691D01*
Y0071203D01*
X0041399D01*
Y0073911D01*
X0038691D01*
Y0072945D01*
X0033861D01*
X0033726Y0073036D01*
X0033528Y0073075D01*
X0033501Y0073211D01*
X0033821Y0073531D01*
X0033980Y0073562D01*
X0034148Y0073675D01*
X0034261Y0073843D01*
X0034300Y0074041D01*
X0034261Y0074239D01*
X0034148Y0074407D01*
X0033980Y0074520D01*
X0033782Y0074559D01*
X0033584Y0074520D01*
X0033416Y0074407D01*
X0033303Y0074239D01*
X0033272Y0074080D01*
X0032618Y0073427D01*
X0032534Y0073301D01*
X0032519Y0073224D01*
X0032392Y0073236D01*
Y0073753D01*
X0037753Y0079114D01*
X0067261D01*
X0070153Y0076222D01*
Y0065305D01*
X0070054Y0065224D01*
X0070041Y0065227D01*
X0069883Y0065196D01*
X0069791Y0065134D01*
X0069699Y0065196D01*
X0069668Y0065202D01*
Y0064984D01*
X0069660Y0064973D01*
X0069629Y0064815D01*
Y0064065D01*
Y0063315D01*
X0069652Y0063197D01*
Y0062925D01*
X0069554Y0062906D01*
X0069653Y0062825D01*
Y0058403D01*
X0067731D01*
X0067650Y0058502D01*
X0067653Y0058515D01*
X0067622Y0058673D01*
X0067560Y0058765D01*
X0067622Y0058857D01*
X0067653Y0059015D01*
X0067622Y0059173D01*
X0067560Y0059265D01*
X0067622Y0059357D01*
X0067653Y0059515D01*
X0067622Y0059673D01*
X0067560Y0059765D01*
X0067622Y0059857D01*
X0067653Y0060015D01*
X0067622Y0060173D01*
X0067560Y0060265D01*
X0067622Y0060357D01*
X0067653Y0060515D01*
X0067622Y0060673D01*
X0067560Y0060765D01*
X0067622Y0060857D01*
X0067653Y0061015D01*
X0067622Y0061173D01*
X0067560Y0061265D01*
X0067622Y0061357D01*
X0067653Y0061515D01*
X0067622Y0061673D01*
X0067560Y0061765D01*
X0067622Y0061857D01*
X0067653Y0062015D01*
X0067622Y0062173D01*
X0067560Y0062265D01*
X0067622Y0062357D01*
X0067653Y0062515D01*
X0067622Y0062673D01*
X0067532Y0062806D01*
X0067399Y0062896D01*
X0067241Y0062927D01*
X0065741D01*
X0065623Y0062903D01*
X0062360D01*
X0061602Y0063661D01*
Y0064546D01*
X0061729Y0064559D01*
X0061751Y0064445D01*
X0061864Y0064277D01*
X0062032Y0064164D01*
X0062191Y0064133D01*
X0062463Y0063860D01*
X0062589Y0063776D01*
X0062738Y0063747D01*
X0062781D01*
Y0063431D01*
X0064089D01*
Y0063431D01*
X0064089D01*
X0064089Y0063431D01*
X0064181D01*
Y0063431D01*
X0065489D01*
Y0063685D01*
X0067629D01*
Y0063315D01*
X0067660Y0063157D01*
X0067750Y0063024D01*
X0067883Y0062934D01*
X0068041Y0062903D01*
X0068199Y0062934D01*
X0068291Y0062996D01*
X0068383Y0062934D01*
X0068541Y0062903D01*
X0068699Y0062934D01*
X0068791Y0062996D01*
X0068883Y0062934D01*
X0069041Y0062903D01*
X0069199Y0062934D01*
X0069291Y0062996D01*
X0069383Y0062934D01*
X0069414Y0062928D01*
Y0063146D01*
X0069422Y0063157D01*
X0069453Y0063315D01*
Y0064065D01*
Y0064815D01*
X0069422Y0064973D01*
X0069414Y0064984D01*
Y0065202D01*
X0069383Y0065196D01*
X0069291Y0065134D01*
X0069199Y0065196D01*
X0069041Y0065227D01*
X0068883Y0065196D01*
X0068791Y0065134D01*
X0068699Y0065196D01*
X0068541Y0065227D01*
X0068383Y0065196D01*
X0068291Y0065134D01*
X0068199Y0065196D01*
X0068041Y0065227D01*
X0067883Y0065196D01*
X0067750Y0065106D01*
X0067660Y0064973D01*
X0067629Y0064815D01*
Y0064461D01*
X0065489D01*
Y0064839D01*
X0064181D01*
D01*
D01*
X0064181Y0064839D01*
X0064089D01*
Y0064839D01*
X0062781D01*
Y0064839D01*
X0062709D01*
X0062709Y0064841D01*
X0062618Y0064976D01*
Y0065321D01*
X0062934D01*
Y0066629D01*
D01*
Y0066629D01*
X0062934Y0066629D01*
Y0066721D01*
X0062934D01*
Y0068029D01*
X0061656D01*
X0061621Y0070649D01*
X0061710Y0070739D01*
X0061785D01*
Y0073279D01*
X0060643D01*
Y0070739D01*
X0060826D01*
Y0063500D01*
X0060826Y0063500D01*
X0060826D01*
X0060855Y0063351D01*
X0060924Y0063248D01*
X0060826Y0063167D01*
X0060332Y0063661D01*
Y0070739D01*
X0060515D01*
Y0073279D01*
X0059373D01*
Y0070739D01*
X0059556D01*
Y0069172D01*
X0058224D01*
Y0067864D01*
X0058224Y0067864D01*
X0058224Y0067772D01*
X0058224D01*
Y0066464D01*
X0058540D01*
Y0066290D01*
X0058470Y0066244D01*
X0058330Y0066034D01*
X0058281Y0065786D01*
X0058330Y0065538D01*
X0058470Y0065328D01*
X0058540Y0065282D01*
Y0063373D01*
X0058540Y0063373D01*
X0058540D01*
X0058569Y0063224D01*
X0058653Y0063098D01*
X0060064Y0061688D01*
Y0060140D01*
X0059860D01*
Y0058965D01*
X0059743Y0058917D01*
X0059316Y0059343D01*
Y0059992D01*
X0059407Y0060127D01*
X0059446Y0060325D01*
X0059407Y0060523D01*
X0059294Y0060691D01*
X0059126Y0060804D01*
X0058928Y0060843D01*
X0058730Y0060804D01*
X0058562Y0060691D01*
X0058449Y0060523D01*
X0058410Y0060325D01*
X0058449Y0060127D01*
X0058540Y0059992D01*
Y0059397D01*
X0058422Y0059348D01*
X0057710Y0060060D01*
Y0060246D01*
X0057800Y0060381D01*
X0057839Y0060579D01*
X0057800Y0060777D01*
X0057710Y0060912D01*
Y0068972D01*
X0058949Y0070210D01*
X0059033Y0070336D01*
X0059062Y0070485D01*
X0059062Y0070485D01*
X0059062Y0070485D01*
Y0070485D01*
Y0070739D01*
X0059245D01*
Y0073279D01*
X0058103D01*
Y0070739D01*
X0058213D01*
X0058261Y0070622D01*
X0057047Y0069407D01*
X0056963Y0069281D01*
X0056933Y0069132D01*
Y0060912D01*
X0056843Y0060777D01*
X0056841Y0060766D01*
X0056714Y0060778D01*
Y0064552D01*
X0056680Y0064725D01*
X0056581Y0064872D01*
X0056581Y0064872D01*
X0053093Y0068361D01*
Y0070528D01*
X0050285D01*
Y0067720D01*
X0052452D01*
X0055808Y0064364D01*
Y0056205D01*
X0055693Y0056064D01*
X0055530Y0055759D01*
X0055429Y0055429D01*
X0055396Y0055085D01*
X0055429Y0054741D01*
X0055530Y0054411D01*
X0055693Y0054106D01*
X0055912Y0053839D01*
X0056179Y0053620D01*
X0056484Y0053457D01*
X0056814Y0053356D01*
X0057158Y0053322D01*
X0057502Y0053356D01*
X0057833Y0053457D01*
X0058096Y0053598D01*
X0058453Y0053240D01*
X0058579Y0053156D01*
X0058604Y0053151D01*
X0058728Y0053127D01*
X0065251D01*
X0065332Y0053028D01*
X0065329Y0053015D01*
X0065360Y0052857D01*
X0065422Y0052765D01*
X0065360Y0052673D01*
X0065329Y0052515D01*
X0065332Y0052502D01*
X0065251Y0052403D01*
X0062618D01*
X0062483Y0052494D01*
X0062285Y0052533D01*
X0062087Y0052494D01*
X0061919Y0052381D01*
X0061806Y0052213D01*
X0061767Y0052015D01*
X0061806Y0051817D01*
X0061919Y0051649D01*
X0062087Y0051536D01*
X0062285Y0051497D01*
X0062483Y0051536D01*
X0062611Y0051622D01*
X0062730Y0051579D01*
X0062753Y0051505D01*
X0062626Y0051420D01*
X0062513Y0051252D01*
X0062474Y0051054D01*
X0062513Y0050856D01*
X0062626Y0050688D01*
X0062794Y0050575D01*
X0062992Y0050536D01*
X0063190Y0050575D01*
X0063358Y0050688D01*
X0063471Y0050856D01*
X0063502Y0051015D01*
X0063614Y0051127D01*
X0063946D01*
X0064006Y0051015D01*
X0063910Y0050871D01*
X0063879Y0050712D01*
X0063085Y0049918D01*
X0062314D01*
Y0050234D01*
X0061821D01*
X0061108Y0050948D01*
X0060982Y0051032D01*
X0060833Y0051061D01*
X0058166D01*
X0058017Y0051032D01*
X0057891Y0050948D01*
X0056735Y0049791D01*
X0055070D01*
X0054935Y0049882D01*
X0054737Y0049921D01*
X0054539Y0049882D01*
X0054371Y0049769D01*
X0054258Y0049601D01*
X0054219Y0049403D01*
X0054258Y0049205D01*
X0054371Y0049037D01*
X0054539Y0048924D01*
X0054737Y0048885D01*
X0054935Y0048924D01*
X0055070Y0049015D01*
X0056896D01*
X0057045Y0049044D01*
X0057171Y0049128D01*
X0057171Y0049128D01*
X0057171Y0049128D01*
X0058327Y0050285D01*
X0059606D01*
Y0050234D01*
X0059606D01*
Y0048826D01*
Y0048521D01*
X0052586D01*
X0052577Y0048570D01*
X0052549Y0048712D01*
X0052436Y0048880D01*
X0051537Y0049780D01*
X0051571Y0050038D01*
X0051536Y0050303D01*
X0051433Y0050550D01*
X0051271Y0050763D01*
X0051058Y0050925D01*
X0050811Y0051028D01*
X0050546Y0051063D01*
X0050281Y0051028D01*
X0050034Y0050925D01*
X0049821Y0050763D01*
X0049659Y0050550D01*
X0049556Y0050303D01*
X0049521Y0050038D01*
X0049556Y0049773D01*
X0049659Y0049526D01*
X0049821Y0049313D01*
X0050034Y0049151D01*
X0050281Y0049048D01*
X0050546Y0049013D01*
X0050804Y0049047D01*
X0051552Y0048299D01*
Y0048006D01*
Y0030988D01*
X0051591Y0030790D01*
X0051704Y0030622D01*
X0051975Y0030351D01*
X0051932Y0030247D01*
X0051896Y0029972D01*
X0051932Y0029697D01*
X0052038Y0029440D01*
X0052207Y0029220D01*
X0052427Y0029051D01*
X0052684Y0028945D01*
X0052959Y0028909D01*
X0053234Y0028945D01*
X0053491Y0029051D01*
X0053711Y0029220D01*
X0053880Y0029440D01*
X0053986Y0029697D01*
X0054022Y0029972D01*
X0053986Y0030247D01*
X0053880Y0030504D01*
X0053711Y0030724D01*
X0053491Y0030893D01*
X0053234Y0030999D01*
X0052959Y0031035D01*
X0052779Y0031011D01*
X0052588Y0031203D01*
Y0047745D01*
X0053370D01*
X0053383Y0047618D01*
X0053269Y0047596D01*
X0053101Y0047483D01*
X0052988Y0047315D01*
X0052949Y0047117D01*
X0052988Y0046919D01*
X0053101Y0046751D01*
X0053269Y0046638D01*
X0053467Y0046599D01*
X0053665Y0046638D01*
X0053800Y0046729D01*
X0060960D01*
X0061109Y0046758D01*
X0061235Y0046842D01*
X0061235Y0046842D01*
X0061235Y0046842D01*
X0061821Y0047429D01*
X0062314D01*
Y0047745D01*
X0063246D01*
X0063395Y0047774D01*
X0063521Y0047858D01*
X0063521Y0047858D01*
X0063521Y0047858D01*
X0064428Y0048766D01*
X0064587Y0048797D01*
X0064755Y0048910D01*
X0064868Y0049078D01*
X0064899Y0049237D01*
X0065765Y0050103D01*
X0067241D01*
X0067399Y0050134D01*
X0067532Y0050224D01*
X0067622Y0050357D01*
X0067653Y0050515D01*
X0067622Y0050673D01*
X0067560Y0050765D01*
X0067622Y0050857D01*
X0067653Y0051015D01*
X0067622Y0051173D01*
X0067560Y0051265D01*
X0067622Y0051357D01*
X0067653Y0051515D01*
X0067622Y0051673D01*
X0067560Y0051765D01*
X0067622Y0051857D01*
X0067653Y0052015D01*
X0067650Y0052028D01*
X0067731Y0052127D01*
X0068101D01*
X0068197Y0052031D01*
X0068228Y0051872D01*
X0068341Y0051704D01*
X0068509Y0051591D01*
X0068707Y0051552D01*
X0068905Y0051591D01*
X0069073Y0051704D01*
X0069186Y0051872D01*
X0069225Y0052070D01*
X0069186Y0052268D01*
X0069073Y0052436D01*
X0069072Y0052437D01*
X0069121Y0052554D01*
X0069215Y0052536D01*
X0069413Y0052575D01*
X0069581Y0052687D01*
X0069694Y0052855D01*
X0069733Y0053054D01*
X0069694Y0053252D01*
X0069581Y0053420D01*
X0069413Y0053532D01*
X0069215Y0053571D01*
X0069017Y0053532D01*
X0068849Y0053420D01*
X0068838Y0053403D01*
X0067731D01*
X0067650Y0053502D01*
X0067653Y0053515D01*
X0067622Y0053673D01*
X0067560Y0053765D01*
X0067622Y0053857D01*
X0067653Y0054015D01*
X0067622Y0054173D01*
X0067560Y0054265D01*
X0067622Y0054357D01*
X0067653Y0054515D01*
X0067622Y0054673D01*
X0067560Y0054765D01*
X0067622Y0054857D01*
X0067653Y0055015D01*
X0067622Y0055173D01*
X0067560Y0055265D01*
X0067622Y0055357D01*
X0067628Y0055388D01*
X0067410D01*
X0067399Y0055396D01*
X0067241Y0055427D01*
X0065741D01*
X0065623Y0055403D01*
X0065351D01*
X0065332Y0055502D01*
X0065251Y0055403D01*
X0063256D01*
X0060045Y0058615D01*
X0060093Y0058732D01*
X0061168D01*
Y0058732D01*
X0061168D01*
X0061168Y0058732D01*
X0061260D01*
Y0058732D01*
X0062568D01*
Y0059733D01*
X0063259Y0060423D01*
X0063371Y0060363D01*
X0063363Y0060325D01*
X0063402Y0060127D01*
X0063515Y0059959D01*
X0063683Y0059846D01*
X0063881Y0059807D01*
X0064079Y0059846D01*
X0064247Y0059959D01*
X0064359Y0060127D01*
X0065251D01*
X0065332Y0060028D01*
X0065329Y0060015D01*
X0065360Y0059857D01*
X0065422Y0059765D01*
X0065360Y0059673D01*
X0065329Y0059515D01*
X0065360Y0059357D01*
X0065422Y0059265D01*
X0065360Y0059173D01*
X0065329Y0059015D01*
X0065360Y0058857D01*
X0065422Y0058765D01*
X0065360Y0058673D01*
X0065329Y0058515D01*
X0065360Y0058357D01*
X0065422Y0058265D01*
X0065360Y0058173D01*
X0065329Y0058015D01*
X0065360Y0057857D01*
X0065422Y0057765D01*
X0065360Y0057673D01*
X0065354Y0057642D01*
X0065572D01*
X0065583Y0057634D01*
X0065741Y0057603D01*
X0066491D01*
Y0057427D01*
X0065741D01*
X0065583Y0057396D01*
X0065572Y0057388D01*
X0065354D01*
X0065360Y0057357D01*
X0065422Y0057265D01*
X0065360Y0057173D01*
X0065329Y0057015D01*
X0065360Y0056857D01*
X0065422Y0056765D01*
X0065360Y0056673D01*
X0065329Y0056515D01*
X0065360Y0056357D01*
X0065422Y0056265D01*
X0065360Y0056173D01*
X0065329Y0056015D01*
X0065360Y0055857D01*
X0065422Y0055765D01*
X0065360Y0055673D01*
X0065354Y0055642D01*
X0065572D01*
X0065583Y0055634D01*
X0065741Y0055603D01*
X0067241D01*
X0067359Y0055627D01*
X0067631D01*
X0067650Y0055528D01*
X0067731Y0055627D01*
X0069973D01*
X0070019Y0055557D01*
X0070229Y0055417D01*
X0070477Y0055368D01*
X0070725Y0055417D01*
X0070935Y0055557D01*
X0071075Y0055767D01*
X0071124Y0056015D01*
X0071117Y0056050D01*
X0071229Y0056110D01*
X0071367Y0055973D01*
Y0052839D01*
X0070598D01*
X0070449Y0052810D01*
X0070323Y0052726D01*
X0068766Y0051169D01*
X0068682Y0051043D01*
X0068653Y0050894D01*
Y0050205D01*
X0068554Y0050124D01*
X0068541Y0050127D01*
X0068383Y0050096D01*
X0068291Y0050034D01*
X0068199Y0050096D01*
X0068041Y0050127D01*
X0067883Y0050096D01*
X0067750Y0050006D01*
X0067660Y0049873D01*
X0067629Y0049715D01*
Y0048215D01*
X0067653Y0048097D01*
Y0046104D01*
X0067652Y0046103D01*
X0067493Y0046072D01*
X0067325Y0045959D01*
X0067212Y0045791D01*
X0067173Y0045593D01*
X0067212Y0045395D01*
X0067325Y0045227D01*
X0067493Y0045114D01*
X0067691Y0045075D01*
X0067889Y0045114D01*
X0068041Y0045216D01*
X0068153Y0045156D01*
Y0044617D01*
X0068062Y0044482D01*
X0068023Y0044284D01*
X0068062Y0044086D01*
X0068175Y0043918D01*
X0068343Y0043805D01*
X0068541Y0043766D01*
X0068579Y0043774D01*
X0068639Y0043662D01*
X0067911Y0042933D01*
X0060071D01*
X0059922Y0042904D01*
X0059796Y0042820D01*
X0058653Y0041677D01*
X0058569Y0041551D01*
X0058540Y0041402D01*
Y0039878D01*
X0058540Y0039878D01*
X0058540D01*
X0058569Y0039729D01*
X0058653Y0039603D01*
X0059368Y0038889D01*
X0059335Y0038810D01*
X0059300Y0038544D01*
X0059335Y0038279D01*
X0059438Y0038032D01*
X0059600Y0037820D01*
X0059813Y0037657D01*
X0060060Y0037555D01*
X0060325Y0037520D01*
X0060590Y0037555D01*
X0060837Y0037657D01*
X0061050Y0037820D01*
X0061212Y0038032D01*
X0061315Y0038279D01*
X0061350Y0038544D01*
X0061315Y0038810D01*
X0061212Y0039057D01*
X0061050Y0039269D01*
X0060837Y0039432D01*
X0060590Y0039534D01*
Y0039587D01*
X0060837Y0039689D01*
X0061050Y0039852D01*
X0061212Y0040064D01*
X0061315Y0040311D01*
X0061350Y0040576D01*
X0061315Y0040842D01*
X0061264Y0040966D01*
X0061732Y0041434D01*
X0061849Y0041385D01*
Y0039561D01*
X0062337D01*
X0062362Y0039436D01*
X0062353Y0039432D01*
X0062140Y0039269D01*
X0061978Y0039057D01*
X0061875Y0038810D01*
X0061857Y0038672D01*
X0063873D01*
X0063855Y0038810D01*
X0063752Y0039057D01*
X0063590Y0039269D01*
X0063377Y0039432D01*
X0063130Y0039534D01*
X0063132Y0039561D01*
X0063881D01*
Y0041592D01*
D01*
Y0041592D01*
X0063937Y0041649D01*
X0068326D01*
X0068475Y0041678D01*
X0068601Y0041762D01*
X0070316Y0043477D01*
X0070400Y0043603D01*
X0070429Y0043752D01*
Y0047725D01*
X0070528Y0047806D01*
X0070430Y0047825D01*
Y0048097D01*
X0070453Y0048215D01*
Y0048965D01*
Y0049715D01*
X0070422Y0049873D01*
X0070414Y0049884D01*
Y0050102D01*
X0070383Y0050096D01*
X0070291Y0050034D01*
X0070199Y0050096D01*
X0070041Y0050127D01*
X0069883Y0050096D01*
X0069791Y0050034D01*
X0069699Y0050096D01*
X0069541Y0050127D01*
X0069528Y0050124D01*
X0069429Y0050205D01*
Y0050733D01*
X0070759Y0052063D01*
X0075653D01*
Y0050205D01*
X0075554Y0050124D01*
X0075652Y0050105D01*
Y0049833D01*
X0075629Y0049715D01*
Y0048965D01*
Y0048215D01*
X0075652Y0048097D01*
Y0047825D01*
X0075554Y0047806D01*
X0075653Y0047725D01*
Y0044026D01*
X0075242D01*
Y0043760D01*
X0074872D01*
Y0044026D01*
X0073464D01*
Y0042718D01*
X0073464Y0042718D01*
X0073464Y0042626D01*
X0073464D01*
Y0042099D01*
X0074872D01*
Y0042626D01*
D01*
Y0042626D01*
X0074872Y0042626D01*
Y0042718D01*
X0074872D01*
Y0042984D01*
X0075242D01*
Y0042718D01*
X0075242Y0042718D01*
X0075242Y0042626D01*
X0075242D01*
Y0041318D01*
X0076650D01*
Y0041519D01*
X0078371D01*
Y0040906D01*
X0078728D01*
Y0040273D01*
X0077393Y0038939D01*
X0077253Y0038729D01*
X0077204Y0038481D01*
Y0030804D01*
X0077099Y0030724D01*
X0076930Y0030504D01*
X0076824Y0030247D01*
X0076788Y0029972D01*
X0076824Y0029697D01*
X0076930Y0029440D01*
X0077099Y0029220D01*
X0077319Y0029051D01*
X0077576Y0028945D01*
X0077851Y0028909D01*
X0078126Y0028945D01*
X0078383Y0029051D01*
X0078603Y0029220D01*
X0078772Y0029440D01*
X0078878Y0029697D01*
X0078914Y0029972D01*
X0078878Y0030247D01*
X0078772Y0030504D01*
X0078603Y0030724D01*
X0078498Y0030804D01*
Y0038213D01*
X0079833Y0039547D01*
X0079973Y0039757D01*
X0080022Y0040005D01*
X0080022Y0040005D01*
X0080022Y0040005D01*
Y0040005D01*
Y0040906D01*
X0080379D01*
Y0042731D01*
X0080496Y0042779D01*
X0080986Y0042290D01*
X0080937Y0042172D01*
X0080902Y0041910D01*
X0080937Y0041648D01*
X0081038Y0041404D01*
X0081199Y0041194D01*
X0081409Y0041033D01*
X0081653Y0040932D01*
X0081915Y0040897D01*
X0082177Y0040932D01*
X0082421Y0041033D01*
X0082631Y0041194D01*
X0082792Y0041404D01*
X0082893Y0041648D01*
X0082928Y0041910D01*
X0082893Y0042172D01*
X0082792Y0042416D01*
X0082631Y0042626D01*
X0082421Y0042787D01*
X0082177Y0042888D01*
X0081915Y0042923D01*
X0081653Y0042888D01*
X0081535Y0042839D01*
X0081033Y0043341D01*
Y0043752D01*
X0081154Y0043793D01*
X0081199Y0043734D01*
X0081409Y0043573D01*
X0081653Y0043472D01*
X0081915Y0043437D01*
X0082177Y0043472D01*
X0082421Y0043573D01*
X0082631Y0043734D01*
X0082792Y0043944D01*
X0082893Y0044188D01*
X0082928Y0044450D01*
X0082893Y0044712D01*
X0082792Y0044956D01*
X0082631Y0045166D01*
X0082421Y0045327D01*
X0082177Y0045428D01*
X0081915Y0045463D01*
X0081653Y0045428D01*
X0081535Y0045379D01*
X0079929Y0046985D01*
Y0047725D01*
X0080028Y0047806D01*
X0080041Y0047803D01*
X0080199Y0047834D01*
X0080332Y0047924D01*
X0080422Y0048057D01*
X0080453Y0048215D01*
Y0049715D01*
X0080422Y0049873D01*
X0080332Y0050006D01*
X0080199Y0050096D01*
X0080041Y0050127D01*
X0079883Y0050096D01*
X0079791Y0050034D01*
X0079699Y0050096D01*
X0079541Y0050127D01*
X0079383Y0050096D01*
X0079291Y0050034D01*
X0079199Y0050096D01*
X0079041Y0050127D01*
X0079028Y0050124D01*
X0078929Y0050205D01*
Y0052091D01*
X0079414Y0052576D01*
X0079573Y0052607D01*
X0079741Y0052720D01*
X0079854Y0052888D01*
X0079893Y0053086D01*
X0079854Y0053284D01*
X0079741Y0053452D01*
X0079573Y0053565D01*
X0079375Y0053604D01*
X0079349Y0053653D01*
X0079414Y0053719D01*
X0079573Y0053750D01*
X0079741Y0053863D01*
X0079854Y0054031D01*
X0079893Y0054229D01*
X0079854Y0054427D01*
X0079741Y0054595D01*
X0079573Y0054708D01*
X0079375Y0054747D01*
X0079177Y0054708D01*
X0079069Y0054635D01*
X0078979Y0054725D01*
X0079084Y0054883D01*
X0079133Y0055130D01*
X0079084Y0055378D01*
X0078944Y0055588D01*
X0078734Y0055729D01*
X0078486Y0055778D01*
X0078238Y0055729D01*
X0078028Y0055588D01*
X0077982Y0055519D01*
X0076429D01*
Y0060127D01*
X0080351D01*
X0080432Y0060028D01*
X0080429Y0060015D01*
X0080460Y0059857D01*
X0080522Y0059765D01*
X0080460Y0059673D01*
X0080429Y0059515D01*
X0080460Y0059357D01*
X0080522Y0059265D01*
X0080460Y0059173D01*
X0080429Y0059015D01*
X0080460Y0058857D01*
X0080522Y0058765D01*
X0080460Y0058673D01*
X0080429Y0058515D01*
X0080460Y0058357D01*
X0080522Y0058265D01*
X0080460Y0058173D01*
X0080429Y0058015D01*
X0080460Y0057857D01*
X0080522Y0057765D01*
X0080460Y0057673D01*
X0080429Y0057515D01*
X0080460Y0057357D01*
X0080522Y0057265D01*
X0080460Y0057173D01*
X0080429Y0057015D01*
X0080460Y0056857D01*
X0080522Y0056765D01*
X0080460Y0056673D01*
X0080429Y0056515D01*
X0080460Y0056357D01*
X0080522Y0056265D01*
X0080460Y0056173D01*
X0080429Y0056015D01*
X0080460Y0055857D01*
X0080522Y0055765D01*
X0080460Y0055673D01*
X0080429Y0055515D01*
X0080460Y0055357D01*
X0080522Y0055265D01*
X0080460Y0055173D01*
X0080429Y0055015D01*
X0080460Y0054857D01*
X0080522Y0054765D01*
X0080460Y0054673D01*
X0080429Y0054515D01*
X0080460Y0054357D01*
X0080522Y0054265D01*
X0080460Y0054173D01*
X0080429Y0054015D01*
X0080460Y0053857D01*
X0080522Y0053765D01*
X0080460Y0053673D01*
X0080429Y0053515D01*
X0080460Y0053357D01*
X0080522Y0053265D01*
X0080460Y0053173D01*
X0080429Y0053015D01*
X0080460Y0052857D01*
X0080522Y0052765D01*
X0080460Y0052673D01*
X0080454Y0052642D01*
X0080672D01*
X0080683Y0052634D01*
X0080841Y0052603D01*
X0082341D01*
X0082499Y0052634D01*
X0082510Y0052642D01*
X0082728D01*
X0082722Y0052673D01*
X0082660Y0052765D01*
X0082722Y0052857D01*
X0082753Y0053015D01*
X0082722Y0053173D01*
X0082660Y0053265D01*
X0082722Y0053357D01*
X0082753Y0053515D01*
X0082750Y0053528D01*
X0082831Y0053627D01*
X0084591D01*
X0084611Y0053523D01*
X0084724Y0053355D01*
X0084892Y0053242D01*
X0085090Y0053203D01*
X0085288Y0053242D01*
X0085456Y0053355D01*
X0085569Y0053523D01*
X0085608Y0053721D01*
X0085569Y0053918D01*
X0085681Y0053978D01*
X0087101Y0052557D01*
X0087227Y0052473D01*
X0087376Y0052444D01*
X0090517D01*
X0091038Y0051922D01*
X0091164Y0051838D01*
X0091189Y0051833D01*
X0091313Y0051809D01*
X0094468D01*
X0094617Y0051838D01*
X0094743Y0051922D01*
X0094743Y0051922D01*
X0094743Y0051922D01*
X0095007Y0052186D01*
X0095091Y0052312D01*
X0095091Y0052312D01*
X0095091Y0052312D01*
X0095120Y0052461D01*
Y0052519D01*
X0095240D01*
Y0054327D01*
X0094224D01*
Y0052585D01*
X0093940D01*
Y0054327D01*
X0093820D01*
Y0055031D01*
X0093796Y0055152D01*
X0093791Y0055180D01*
X0093791Y0055180D01*
Y0055180D01*
X0093759Y0055227D01*
X0093707Y0055306D01*
X0093003Y0056009D01*
X0093052Y0056127D01*
X0094200D01*
X0095644Y0054683D01*
Y0054327D01*
X0095524D01*
Y0052519D01*
X0096540D01*
Y0054327D01*
X0096420D01*
Y0054459D01*
X0096538Y0054507D01*
X0101847Y0049199D01*
Y0048565D01*
X0101836Y0048557D01*
X0101713Y0048374D01*
X0101670Y0048158D01*
Y0046558D01*
X0101713Y0046342D01*
X0101836Y0046159D01*
X0102019Y0046036D01*
X0102235Y0045993D01*
X0102451Y0046036D01*
X0102634Y0046159D01*
X0102757Y0046342D01*
X0102800Y0046558D01*
Y0048158D01*
X0102757Y0048374D01*
X0102634Y0048557D01*
X0102623Y0048565D01*
Y0049188D01*
X0102741Y0049237D01*
X0103117Y0048861D01*
Y0048565D01*
X0103106Y0048557D01*
X0102983Y0048374D01*
X0102940Y0048158D01*
Y0046558D01*
X0102983Y0046342D01*
X0103106Y0046159D01*
X0103289Y0046036D01*
X0103505Y0045993D01*
X0103721Y0046036D01*
X0103904Y0046159D01*
X0104027Y0046342D01*
X0104070Y0046558D01*
Y0048158D01*
X0104027Y0048374D01*
X0103904Y0048557D01*
X0103893Y0048565D01*
Y0049022D01*
X0103864Y0049171D01*
X0103780Y0049297D01*
X0095247Y0057829D01*
X0095307Y0057941D01*
X0095504Y0057902D01*
X0095702Y0057941D01*
X0095870Y0058054D01*
X0095983Y0058222D01*
X0096014Y0058381D01*
X0096357Y0058723D01*
X0096441Y0058849D01*
X0096446Y0058874D01*
X0096470Y0058998D01*
Y0059719D01*
X0096590D01*
Y0061527D01*
X0096590D01*
Y0061563D01*
X0096680Y0061653D01*
X0096731D01*
Y0061969D01*
X0097282D01*
X0097431Y0061998D01*
X0097557Y0062082D01*
X0098065Y0062590D01*
X0098149Y0062716D01*
X0098178Y0062865D01*
Y0063123D01*
X0098248Y0063169D01*
X0098251Y0063174D01*
X0098933D01*
X0099106Y0063208D01*
X0099253Y0063307D01*
X0100325Y0064378D01*
X0100330Y0064377D01*
X0100578Y0064426D01*
X0100788Y0064566D01*
X0100928Y0064776D01*
X0100977Y0065024D01*
X0100928Y0065272D01*
X0100788Y0065482D01*
X0100578Y0065622D01*
X0100330Y0065671D01*
X0100082Y0065622D01*
X0099872Y0065482D01*
X0099732Y0065272D01*
X0099683Y0065024D01*
X0099684Y0065019D01*
X0098745Y0064080D01*
X0098251D01*
X0098248Y0064085D01*
X0098038Y0064225D01*
X0097790Y0064274D01*
X0097542Y0064225D01*
X0097332Y0064085D01*
X0097329Y0064080D01*
X0092558D01*
X0091578Y0065060D01*
X0091579Y0065065D01*
X0091530Y0065313D01*
X0091390Y0065523D01*
X0091180Y0065663D01*
X0090932Y0065712D01*
X0090684Y0065663D01*
X0090474Y0065523D01*
X0090334Y0065313D01*
X0090285Y0065065D01*
X0090334Y0064817D01*
X0090474Y0064607D01*
X0090684Y0064467D01*
X0090932Y0064418D01*
X0090937Y0064419D01*
X0092050Y0063307D01*
X0092197Y0063208D01*
X0092370Y0063174D01*
X0092370Y0063174D01*
X0094023D01*
Y0063061D01*
X0094023D01*
Y0062745D01*
X0090239D01*
Y0063076D01*
X0088831D01*
Y0061768D01*
X0088831Y0061768D01*
X0088831Y0061676D01*
X0088831D01*
Y0061149D01*
X0090239D01*
Y0061676D01*
D01*
Y0061676D01*
X0090239Y0061676D01*
Y0061768D01*
X0090239D01*
Y0061969D01*
X0094023D01*
Y0061653D01*
X0094174D01*
Y0061527D01*
X0094174D01*
Y0059719D01*
X0095190D01*
Y0061527D01*
X0095190D01*
Y0061563D01*
X0095280Y0061653D01*
X0095331D01*
Y0061653D01*
X0095331D01*
X0095331Y0061653D01*
X0095423D01*
Y0061653D01*
X0095574D01*
Y0061527D01*
X0095574D01*
Y0059719D01*
X0095694D01*
Y0059159D01*
X0095465Y0058930D01*
X0095306Y0058899D01*
X0095138Y0058786D01*
X0095025Y0058618D01*
X0094986Y0058420D01*
X0095025Y0058222D01*
X0095090Y0058125D01*
X0095018Y0058017D01*
X0094869Y0058046D01*
X0091472D01*
X0091460Y0058173D01*
X0091602Y0058201D01*
X0091728Y0058285D01*
X0092407Y0058964D01*
X0092491Y0059090D01*
X0092520Y0059239D01*
X0092520Y0059239D01*
X0092520Y0059239D01*
Y0059239D01*
Y0059719D01*
X0092640D01*
Y0061527D01*
X0091624D01*
Y0059719D01*
X0091744D01*
Y0059400D01*
X0091292Y0058948D01*
X0090611D01*
X0090495Y0059026D01*
X0090297Y0059065D01*
X0090099Y0059026D01*
X0089931Y0058913D01*
X0089818Y0058745D01*
X0089779Y0058547D01*
X0089818Y0058349D01*
X0089931Y0058181D01*
X0089950Y0058168D01*
X0089913Y0058046D01*
X0088807D01*
X0088145Y0058708D01*
Y0058976D01*
X0088236Y0059111D01*
X0088275Y0059309D01*
X0088236Y0059507D01*
X0088123Y0059675D01*
X0087955Y0059788D01*
X0087757Y0059827D01*
X0087559Y0059788D01*
X0087391Y0059675D01*
X0087278Y0059507D01*
X0087239Y0059309D01*
X0087278Y0059111D01*
X0087369Y0058976D01*
Y0058547D01*
X0087369Y0058547D01*
X0087369D01*
X0087398Y0058398D01*
X0087467Y0058295D01*
X0087369Y0058214D01*
X0086240Y0059343D01*
Y0061468D01*
X0086211Y0061617D01*
X0086127Y0061743D01*
X0085080Y0062790D01*
X0084954Y0062874D01*
X0084805Y0062903D01*
X0082459D01*
X0082341Y0062927D01*
X0080841D01*
X0080683Y0062896D01*
X0080550Y0062806D01*
X0080460Y0062673D01*
X0080429Y0062515D01*
X0080460Y0062357D01*
X0080522Y0062265D01*
X0080460Y0062173D01*
X0080429Y0062015D01*
X0080460Y0061857D01*
X0080522Y0061765D01*
X0080460Y0061673D01*
X0080429Y0061515D01*
X0080460Y0061357D01*
X0080522Y0061265D01*
X0080460Y0061173D01*
X0080454Y0061142D01*
X0080672D01*
X0080683Y0061134D01*
X0080841Y0061103D01*
X0082341D01*
X0082499Y0061134D01*
X0082510Y0061142D01*
X0082728D01*
X0082722Y0061173D01*
X0082660Y0061265D01*
X0082722Y0061357D01*
X0082753Y0061515D01*
X0082750Y0061528D01*
X0082831Y0061627D01*
X0083366D01*
X0084326Y0060667D01*
X0084357Y0060508D01*
X0084470Y0060340D01*
X0084638Y0060227D01*
X0084836Y0060188D01*
X0085034Y0060227D01*
X0085202Y0060340D01*
X0085315Y0060508D01*
X0085337Y0060622D01*
X0085464Y0060609D01*
Y0059182D01*
X0085493Y0059033D01*
X0085577Y0058907D01*
X0087464Y0057021D01*
X0087415Y0056903D01*
X0082831D01*
X0082750Y0057002D01*
X0082753Y0057015D01*
X0082722Y0057173D01*
X0082660Y0057265D01*
X0082722Y0057357D01*
X0082753Y0057515D01*
X0082722Y0057673D01*
X0082660Y0057765D01*
X0082722Y0057857D01*
X0082753Y0058015D01*
X0082722Y0058173D01*
X0082660Y0058265D01*
X0082722Y0058357D01*
X0082753Y0058515D01*
X0082722Y0058673D01*
X0082660Y0058765D01*
X0082722Y0058857D01*
X0082753Y0059015D01*
X0082722Y0059173D01*
X0082660Y0059265D01*
X0082722Y0059357D01*
X0082753Y0059515D01*
X0082722Y0059673D01*
X0082660Y0059765D01*
X0082722Y0059857D01*
X0082753Y0060015D01*
X0082722Y0060173D01*
X0082660Y0060265D01*
X0082722Y0060357D01*
X0082753Y0060515D01*
X0082722Y0060673D01*
X0082660Y0060765D01*
X0082722Y0060857D01*
X0082728Y0060888D01*
X0082510D01*
X0082499Y0060896D01*
X0082341Y0060927D01*
X0080841D01*
X0080748Y0060908D01*
X0080450Y0060910D01*
X0080430Y0061009D01*
X0080350Y0060911D01*
X0076429Y0060933D01*
Y0061247D01*
X0076541Y0061307D01*
X0076637Y0061243D01*
X0076835Y0061204D01*
X0077033Y0061243D01*
X0077201Y0061356D01*
X0077314Y0061524D01*
X0077349Y0061704D01*
X0077400Y0061779D01*
X0077429Y0061928D01*
X0077429Y0061928D01*
X0077429Y0061928D01*
Y0061928D01*
Y0062825D01*
X0077528Y0062906D01*
X0077541Y0062903D01*
X0077699Y0062934D01*
X0077791Y0062996D01*
X0077883Y0062934D01*
X0078041Y0062903D01*
X0078199Y0062934D01*
X0078291Y0062996D01*
X0078383Y0062934D01*
X0078541Y0062903D01*
X0078699Y0062934D01*
X0078791Y0062996D01*
X0078883Y0062934D01*
X0079041Y0062903D01*
X0079199Y0062934D01*
X0079291Y0062996D01*
X0079383Y0062934D01*
X0079541Y0062903D01*
X0079699Y0062934D01*
X0079791Y0062996D01*
X0079883Y0062934D01*
X0080041Y0062903D01*
X0080199Y0062934D01*
X0080332Y0063024D01*
X0080422Y0063157D01*
X0080453Y0063315D01*
Y0064815D01*
X0080429Y0064933D01*
Y0066164D01*
X0081060Y0066795D01*
X0101597D01*
X0101634Y0066673D01*
X0101615Y0066660D01*
X0101502Y0066492D01*
X0101463Y0066294D01*
X0101502Y0066096D01*
X0101593Y0065961D01*
Y0064169D01*
X0098277Y0060854D01*
X0098193Y0060728D01*
X0098164Y0060579D01*
Y0057356D01*
X0098073Y0057221D01*
X0098034Y0057023D01*
X0098073Y0056825D01*
X0098186Y0056657D01*
X0098354Y0056544D01*
X0098552Y0056505D01*
X0098750Y0056544D01*
X0098918Y0056657D01*
X0099031Y0056825D01*
X0099070Y0057023D01*
X0099031Y0057221D01*
X0098940Y0057356D01*
Y0060418D01*
X0099316Y0060794D01*
X0099434Y0060745D01*
Y0057356D01*
X0099343Y0057221D01*
X0099304Y0057023D01*
X0099343Y0056825D01*
X0099456Y0056657D01*
X0099624Y0056544D01*
X0099822Y0056505D01*
X0100020Y0056544D01*
X0100188Y0056657D01*
X0100301Y0056825D01*
X0100340Y0057023D01*
X0100301Y0057221D01*
X0100210Y0057356D01*
Y0060672D01*
X0103399Y0063860D01*
X0103483Y0063986D01*
X0103512Y0064135D01*
X0103512Y0064135D01*
X0103512Y0064135D01*
Y0064135D01*
Y0065961D01*
X0103603Y0066096D01*
X0103642Y0066294D01*
X0103603Y0066492D01*
X0103490Y0066660D01*
X0103344Y0066758D01*
X0103344Y0066758D01*
X0103344D01*
X0103322Y0066773D01*
Y0066773D01*
X0103324Y0066795D01*
X0106265D01*
X0108691Y0064368D01*
X0108817Y0064284D01*
X0108817Y0064284D01*
X0108817Y0064284D01*
D01*
X0108817Y0064284D01*
X0108817Y0064284D01*
X0108966Y0064255D01*
X0112649D01*
X0112798Y0064284D01*
X0112924Y0064368D01*
X0113641Y0065086D01*
X0114889D01*
Y0065086D01*
X0114889D01*
X0114889Y0065086D01*
X0114981D01*
Y0065086D01*
X0116689D01*
Y0065587D01*
X0118642D01*
Y0065578D01*
X0118642D01*
Y0064470D01*
X0118738D01*
Y0061908D01*
X0118783Y0061685D01*
X0118909Y0061496D01*
X0119522Y0060883D01*
X0119498Y0060706D01*
X0119533Y0060441D01*
X0119636Y0060194D01*
X0119798Y0059981D01*
X0120011Y0059819D01*
X0120258Y0059716D01*
X0120523Y0059681D01*
X0120788Y0059716D01*
X0121035Y0059819D01*
X0121248Y0059981D01*
X0121410Y0060194D01*
X0121513Y0060441D01*
X0121548Y0060706D01*
X0121513Y0060971D01*
X0121410Y0061218D01*
X0121248Y0061431D01*
X0121035Y0061593D01*
X0120788Y0061696D01*
X0120523Y0061731D01*
X0120346Y0061707D01*
X0119904Y0062149D01*
Y0064441D01*
X0120792D01*
Y0063520D01*
X0121416D01*
X0121471Y0063509D01*
X0122761D01*
X0124059Y0062212D01*
X0124059Y0062212D01*
X0124242Y0062089D01*
X0124242D01*
X0124242Y0062089D01*
X0124458Y0062046D01*
X0124458Y0062046D01*
X0128016D01*
X0128016Y0062046D01*
X0128232Y0062089D01*
X0128415Y0062212D01*
X0129351Y0063147D01*
X0129540Y0063122D01*
X0129802Y0063157D01*
X0130046Y0063258D01*
X0130256Y0063419D01*
X0130417Y0063629D01*
X0130518Y0063873D01*
X0130553Y0064135D01*
X0130518Y0064397D01*
X0130417Y0064641D01*
X0130256Y0064851D01*
X0130046Y0065012D01*
X0129802Y0065113D01*
X0129540Y0065148D01*
X0129278Y0065113D01*
X0129034Y0065012D01*
X0128824Y0064851D01*
X0128663Y0064641D01*
X0128562Y0064397D01*
X0128527Y0064135D01*
X0128552Y0063946D01*
X0127782Y0063176D01*
X0124692D01*
X0123544Y0064324D01*
X0123592Y0064441D01*
X0124655D01*
X0124799Y0064470D01*
X0125334D01*
Y0065578D01*
X0124799D01*
X0124655Y0065607D01*
X0122150D01*
Y0066528D01*
X0120792D01*
Y0066493D01*
X0116689D01*
Y0066984D01*
X0122240D01*
X0122870Y0066355D01*
X0123017Y0066256D01*
X0123190Y0066222D01*
X0125916D01*
X0126126Y0066012D01*
Y0065420D01*
X0127320D01*
X0127369Y0065303D01*
X0126694Y0064628D01*
X0126126D01*
Y0063520D01*
X0126604D01*
X0126656Y0063485D01*
X0126656Y0063485D01*
X0126656Y0063485D01*
D01*
X0126656Y0063485D01*
X0126656Y0063485D01*
X0126872Y0063442D01*
X0127088Y0063485D01*
X0127140Y0063520D01*
X0127484D01*
Y0063820D01*
X0129351Y0065687D01*
X0129540Y0065662D01*
X0129802Y0065697D01*
X0130046Y0065798D01*
X0130256Y0065959D01*
X0130417Y0066169D01*
X0130518Y0066413D01*
X0130553Y0066675D01*
X0130518Y0066937D01*
X0130417Y0067181D01*
X0130256Y0067391D01*
X0130046Y0067552D01*
X0129802Y0067653D01*
X0129540Y0067688D01*
X0129278Y0067653D01*
X0129034Y0067552D01*
X0128824Y0067391D01*
X0128663Y0067181D01*
X0128562Y0066937D01*
X0128527Y0066675D01*
X0128552Y0066486D01*
X0127601Y0065535D01*
X0127484Y0065584D01*
Y0066528D01*
X0126892D01*
X0126424Y0066995D01*
X0126277Y0067094D01*
X0126104Y0067128D01*
X0123378D01*
X0122748Y0067757D01*
X0122601Y0067856D01*
X0122428Y0067890D01*
X0113041D01*
X0112868Y0067856D01*
X0112721Y0067757D01*
X0112721Y0067757D01*
X0111957Y0066994D01*
X0110790D01*
D01*
D01*
X0110790Y0066994D01*
X0110698D01*
Y0066994D01*
X0109439D01*
X0108324Y0068110D01*
X0108198Y0068194D01*
X0108198D01*
X0108198Y0068194D01*
X0108108Y0068212D01*
X0108049Y0068223D01*
X0108049D01*
X0108049D01*
X0081258D01*
X0081209Y0068341D01*
X0081314Y0068446D01*
X0111876D01*
X0112025Y0068475D01*
X0112151Y0068559D01*
X0112151Y0068559D01*
X0112151Y0068559D01*
X0113757Y0070166D01*
X0115016D01*
Y0070166D01*
X0115016D01*
X0115016Y0070166D01*
X0115108D01*
Y0070166D01*
X0116816D01*
Y0070667D01*
X0118642D01*
Y0070658D01*
X0118642D01*
Y0069550D01*
X0119177D01*
X0119321Y0069521D01*
X0120792D01*
Y0068600D01*
X0121416D01*
X0121471Y0068589D01*
X0122761D01*
X0123805Y0067546D01*
X0123805Y0067546D01*
X0123805Y0067546D01*
X0123805Y0067546D01*
X0123865Y0067506D01*
X0123988Y0067423D01*
X0123988D01*
X0123988Y0067423D01*
X0124204Y0067380D01*
X0124204Y0067380D01*
X0128270D01*
X0128270Y0067380D01*
X0128486Y0067423D01*
X0128669Y0067546D01*
X0129351Y0068227D01*
X0129540Y0068202D01*
X0129802Y0068237D01*
X0130046Y0068338D01*
X0130256Y0068499D01*
X0130417Y0068709D01*
X0130518Y0068953D01*
X0130553Y0069215D01*
X0130518Y0069477D01*
X0130417Y0069721D01*
X0130256Y0069931D01*
X0130046Y0070092D01*
X0129802Y0070193D01*
X0129540Y0070228D01*
X0129278Y0070193D01*
X0129034Y0070092D01*
X0128824Y0069931D01*
X0128663Y0069721D01*
X0128562Y0069477D01*
X0128527Y0069215D01*
X0128552Y0069026D01*
X0128036Y0068510D01*
X0127484D01*
Y0068600D01*
X0127484D01*
Y0068900D01*
X0129351Y0070767D01*
X0129540Y0070742D01*
X0129802Y0070777D01*
X0130046Y0070878D01*
X0130256Y0071039D01*
X0130417Y0071249D01*
X0130518Y0071493D01*
X0130553Y0071755D01*
X0130518Y0072017D01*
X0130417Y0072261D01*
X0130256Y0072471D01*
X0130046Y0072632D01*
X0129802Y0072733D01*
X0129540Y0072768D01*
X0129278Y0072733D01*
X0129034Y0072632D01*
X0128824Y0072471D01*
X0128663Y0072261D01*
X0128562Y0072017D01*
X0128527Y0071755D01*
X0128552Y0071566D01*
X0127601Y0070615D01*
X0127484Y0070664D01*
Y0071608D01*
X0126645D01*
X0126304Y0071948D01*
X0126157Y0072047D01*
X0125984Y0072081D01*
X0123632D01*
X0122113Y0073599D01*
X0122135Y0073669D01*
X0122761D01*
X0123805Y0072626D01*
X0123805Y0072626D01*
X0123805Y0072626D01*
X0123805Y0072626D01*
X0123865Y0072586D01*
X0123988Y0072503D01*
X0123988D01*
X0123988Y0072503D01*
X0124204Y0072460D01*
X0124204Y0072460D01*
X0128270D01*
X0128270Y0072460D01*
X0128486Y0072503D01*
X0128669Y0072626D01*
X0129351Y0073307D01*
X0129540Y0073282D01*
X0129802Y0073317D01*
X0130046Y0073418D01*
X0130256Y0073579D01*
X0130417Y0073789D01*
X0130518Y0074033D01*
X0130553Y0074295D01*
X0130518Y0074557D01*
X0130417Y0074801D01*
X0130256Y0075011D01*
X0130046Y0075172D01*
X0129802Y0075273D01*
X0129540Y0075308D01*
X0129278Y0075273D01*
X0129034Y0075172D01*
X0128824Y0075011D01*
X0128663Y0074801D01*
X0128562Y0074557D01*
X0128527Y0074295D01*
X0128552Y0074106D01*
X0128036Y0073590D01*
X0127484D01*
Y0073680D01*
X0127484D01*
Y0073980D01*
X0129351Y0075847D01*
X0129540Y0075822D01*
X0129802Y0075857D01*
X0130046Y0075958D01*
X0130256Y0076119D01*
X0130417Y0076329D01*
X0130518Y0076573D01*
X0130553Y0076835D01*
X0130518Y0077097D01*
X0130417Y0077341D01*
X0130256Y0077551D01*
X0130046Y0077712D01*
X0129802Y0077813D01*
X0129540Y0077848D01*
X0129278Y0077813D01*
X0129034Y0077712D01*
X0128824Y0077551D01*
X0128663Y0077341D01*
X0128562Y0077097D01*
X0128527Y0076835D01*
X0128552Y0076646D01*
X0127601Y0075695D01*
X0127484Y0075744D01*
Y0076688D01*
X0126892D01*
X0126424Y0077155D01*
X0126277Y0077254D01*
X0126104Y0077288D01*
X0123378D01*
X0122494Y0078171D01*
X0122347Y0078270D01*
X0122174Y0078304D01*
X0113295D01*
X0113295Y0078304D01*
X0113122Y0078270D01*
X0112975Y0078171D01*
X0111957Y0077154D01*
X0110790D01*
D01*
D01*
X0110790Y0077154D01*
X0110698D01*
Y0077154D01*
X0108990D01*
Y0075895D01*
X0108286Y0075191D01*
X0084963D01*
X0084814Y0075162D01*
X0084688Y0075078D01*
X0077266Y0067656D01*
X0077182Y0067530D01*
X0077153Y0067381D01*
Y0065305D01*
X0077054Y0065224D01*
X0077041Y0065227D01*
X0076883Y0065196D01*
X0076791Y0065134D01*
X0076699Y0065196D01*
X0076668Y0065202D01*
Y0064984D01*
X0076660Y0064973D01*
X0076629Y0064815D01*
Y0064065D01*
X0076453D01*
Y0064815D01*
X0076422Y0064973D01*
X0076414Y0064984D01*
Y0065202D01*
X0076383Y0065196D01*
X0076291Y0065134D01*
X0076199Y0065196D01*
X0076041Y0065227D01*
X0075883Y0065196D01*
X0075791Y0065134D01*
X0075699Y0065196D01*
X0075541Y0065227D01*
X0075383Y0065196D01*
X0075291Y0065134D01*
X0075199Y0065196D01*
X0075041Y0065227D01*
X0074883Y0065196D01*
X0074791Y0065134D01*
X0074699Y0065196D01*
X0074541Y0065227D01*
X0074528Y0065224D01*
X0074429Y0065305D01*
Y0078359D01*
X0074405Y0078483D01*
X0074400Y0078508D01*
X0074316Y0078634D01*
X0069744Y0083206D01*
X0069618Y0083290D01*
X0069469Y0083319D01*
D02*
G37*
G36*
X0061087Y0076708D02*
X0060643D01*
Y0075565D01*
X0061087D01*
Y0076708D01*
D02*
G37*
G36*
X0041399Y0077430D02*
X0040172D01*
Y0076203D01*
X0041399D01*
Y0077430D01*
D02*
G37*
G36*
X0046399Y0078911D02*
X0043691D01*
Y0076203D01*
X0046399D01*
Y0078911D01*
D02*
G37*
G36*
X0039918Y0077430D02*
X0038691D01*
Y0076203D01*
X0039918D01*
Y0077430D01*
D02*
G37*
%LPD*%
G36*
X0106450Y0071425D02*
Y0070166D01*
X0108158D01*
Y0070166D01*
X0108158D01*
X0108158Y0070166D01*
X0108250D01*
Y0070166D01*
X0109958D01*
Y0071333D01*
X0111451Y0072826D01*
X0121605D01*
X0123124Y0071308D01*
X0123271Y0071209D01*
X0123444Y0071175D01*
X0123444Y0071175D01*
X0125796D01*
X0126126Y0070845D01*
Y0070653D01*
X0126014Y0070593D01*
X0125851Y0070702D01*
X0125603Y0070751D01*
X0125355Y0070702D01*
X0125289Y0070658D01*
X0124799D01*
X0124655Y0070687D01*
X0122150D01*
Y0071608D01*
X0120792D01*
Y0071573D01*
X0116816D01*
Y0072074D01*
X0115108D01*
D01*
D01*
X0115108Y0072074D01*
X0115016D01*
Y0072074D01*
X0113308D01*
Y0070815D01*
X0111715Y0069222D01*
X0081605D01*
X0081556Y0069340D01*
X0085615Y0073399D01*
X0104476D01*
X0106450Y0071425D01*
D02*
G37*
G36*
X0043619Y0058466D02*
X0043619Y0058466D01*
X0043619Y0058374D01*
X0043619D01*
Y0058123D01*
X0043209D01*
X0043074Y0058213D01*
X0042876Y0058253D01*
X0042678Y0058213D01*
X0042510Y0058101D01*
X0042397Y0057933D01*
X0042358Y0057735D01*
X0042397Y0057537D01*
X0042510Y0057369D01*
X0042678Y0057256D01*
X0042876Y0057217D01*
X0043074Y0057256D01*
X0043209Y0057346D01*
X0043619D01*
Y0057066D01*
X0043935D01*
Y0056769D01*
X0043935Y0056769D01*
X0043935D01*
X0043964Y0056620D01*
X0044048Y0056494D01*
X0044748Y0055794D01*
X0044874Y0055710D01*
X0045023Y0055681D01*
X0045751D01*
X0046127Y0055304D01*
X0046079Y0055187D01*
X0046020D01*
D01*
D01*
X0046020Y0055187D01*
X0045928D01*
Y0055187D01*
X0044620D01*
Y0054871D01*
X0044577D01*
X0044428Y0054842D01*
X0044302Y0054758D01*
X0043654Y0054109D01*
X0040008D01*
X0039971Y0054231D01*
X0039990Y0054244D01*
X0040103Y0054412D01*
X0040142Y0054610D01*
X0040103Y0054808D01*
X0039990Y0054976D01*
X0039844Y0055074D01*
X0039844Y0055074D01*
X0039844D01*
X0039822Y0055089D01*
Y0055089D01*
X0039824Y0055111D01*
X0040364D01*
Y0054795D01*
X0041672D01*
Y0054795D01*
X0041672D01*
X0041672Y0054795D01*
X0041764D01*
Y0054795D01*
X0042291D01*
Y0055499D01*
Y0056203D01*
X0041764D01*
D01*
D01*
X0041764Y0056203D01*
X0041672D01*
Y0056203D01*
X0040364D01*
Y0055887D01*
X0039531D01*
X0039349Y0056069D01*
Y0057260D01*
X0038333D01*
Y0057559D01*
X0038304Y0057708D01*
X0038220Y0057834D01*
X0038103Y0057950D01*
X0038152Y0058068D01*
X0039641D01*
Y0058052D01*
Y0057552D01*
X0041349D01*
Y0058052D01*
Y0058552D01*
Y0058568D01*
X0043619D01*
Y0058466D01*
D02*
G37*
G36*
X0040952Y0068664D02*
X0040952D01*
Y0067356D01*
X0040952Y0067356D01*
X0040952Y0067264D01*
X0040952D01*
Y0065956D01*
X0042360D01*
Y0066222D01*
X0043211D01*
X0044062Y0065371D01*
Y0060844D01*
X0043806D01*
X0043746Y0060956D01*
X0043786Y0061016D01*
X0043825Y0061214D01*
X0043786Y0061412D01*
X0043673Y0061580D01*
X0043505Y0061693D01*
X0043307Y0061732D01*
X0043109Y0061693D01*
X0042941Y0061580D01*
X0042828Y0061412D01*
X0042815Y0061344D01*
X0041349D01*
Y0061360D01*
Y0061552D01*
Y0062052D01*
Y0062552D01*
Y0062860D01*
X0039641D01*
Y0062860D01*
Y0062844D01*
X0038950D01*
X0038913Y0062966D01*
X0038974Y0063007D01*
X0039087Y0063175D01*
X0039118Y0063334D01*
X0039220Y0063435D01*
X0039304Y0063561D01*
X0039333Y0063710D01*
Y0064152D01*
X0039349D01*
Y0065860D01*
X0038333D01*
Y0067099D01*
X0038677D01*
Y0068407D01*
D01*
Y0068407D01*
X0038677Y0068407D01*
Y0068499D01*
X0038677D01*
Y0068765D01*
X0040952D01*
Y0068664D01*
D02*
G37*
G36*
X0078383Y0047834D02*
X0078541Y0047803D01*
X0078554Y0047806D01*
X0078653Y0047725D01*
Y0046562D01*
X0078682Y0046413D01*
X0078766Y0046287D01*
X0079484Y0045570D01*
X0079428Y0045456D01*
X0079502Y0045446D01*
Y0044450D01*
Y0043454D01*
X0079637Y0043472D01*
X0079881Y0043573D01*
X0080091Y0043734D01*
X0080136Y0043793D01*
X0080257Y0043752D01*
Y0043180D01*
X0080286Y0043031D01*
X0080290Y0043026D01*
X0080230Y0042914D01*
X0078371D01*
Y0042425D01*
X0076650D01*
Y0042626D01*
D01*
Y0042626D01*
X0076650Y0042626D01*
Y0042718D01*
X0076650D01*
Y0044026D01*
X0076429D01*
Y0047725D01*
X0076528Y0047806D01*
X0076541Y0047803D01*
X0076699Y0047834D01*
X0076791Y0047896D01*
X0076883Y0047834D01*
X0077041Y0047803D01*
X0077199Y0047834D01*
X0077291Y0047896D01*
X0077383Y0047834D01*
X0077541Y0047803D01*
X0077699Y0047834D01*
X0077791Y0047896D01*
X0077883Y0047834D01*
X0078041Y0047803D01*
X0078199Y0047834D01*
X0078291Y0047896D01*
X0078383Y0047834D01*
D02*
G37*
G36*
X0034041Y0064152D02*
X0038557D01*
Y0063881D01*
X0038410Y0063852D01*
X0038242Y0063739D01*
X0038129Y0063571D01*
X0038090Y0063373D01*
X0038129Y0063175D01*
X0038242Y0063007D01*
X0038303Y0062966D01*
X0038266Y0062844D01*
X0037708D01*
X0037704Y0062850D01*
X0037536Y0062963D01*
X0037338Y0063002D01*
X0037140Y0062963D01*
X0036972Y0062850D01*
X0036859Y0062682D01*
X0036820Y0062484D01*
X0036859Y0062286D01*
X0036972Y0062118D01*
X0037140Y0062005D01*
X0037314Y0061971D01*
X0037301Y0061844D01*
X0035695D01*
X0035649Y0061914D01*
X0035439Y0062054D01*
X0035191Y0062103D01*
X0035109Y0062087D01*
X0033833Y0063363D01*
Y0064152D01*
X0033849D01*
Y0065006D01*
X0034041D01*
Y0064152D01*
D02*
G37*
%LPC*%
G36*
X0035687Y0063358D02*
X0035616Y0063344D01*
X0035448Y0063231D01*
X0035335Y0063063D01*
X0035321Y0062992D01*
X0035687D01*
Y0063358D01*
D02*
G37*
G36*
X0036307Y0062738D02*
X0035941D01*
Y0062372D01*
X0036012Y0062386D01*
X0036180Y0062499D01*
X0036293Y0062667D01*
X0036307Y0062738D01*
D02*
G37*
G36*
X0035687D02*
X0035321D01*
X0035335Y0062667D01*
X0035448Y0062499D01*
X0035616Y0062386D01*
X0035687Y0062372D01*
Y0062738D01*
D02*
G37*
G36*
X0091821Y0069977D02*
X0091326D01*
X0091350Y0069856D01*
X0091490Y0069646D01*
X0091700Y0069506D01*
X0091821Y0069482D01*
Y0069977D01*
D02*
G37*
G36*
X0035941Y0063358D02*
Y0062992D01*
X0036307D01*
X0036293Y0063063D01*
X0036180Y0063231D01*
X0036012Y0063344D01*
X0035941Y0063358D01*
D02*
G37*
G36*
X0043546Y0064643D02*
X0043180D01*
Y0064277D01*
X0043251Y0064291D01*
X0043419Y0064404D01*
X0043532Y0064572D01*
X0043546Y0064643D01*
D02*
G37*
G36*
X0043180Y0065263D02*
Y0064897D01*
X0043546D01*
X0043532Y0064968D01*
X0043419Y0065136D01*
X0043251Y0065249D01*
X0043180Y0065263D01*
D02*
G37*
G36*
X0042926D02*
X0042855Y0065249D01*
X0042687Y0065136D01*
X0042574Y0064968D01*
X0042560Y0064897D01*
X0042926D01*
Y0065263D01*
D02*
G37*
G36*
Y0064643D02*
X0042560D01*
X0042574Y0064572D01*
X0042687Y0064404D01*
X0042855Y0064291D01*
X0042926Y0064277D01*
Y0064643D01*
D02*
G37*
G36*
X0041349Y0063329D02*
X0039641D01*
Y0063083D01*
X0041349D01*
Y0063329D01*
D02*
G37*
G36*
X0040368Y0063860D02*
X0039641D01*
Y0063583D01*
X0040368D01*
Y0063860D01*
D02*
G37*
G36*
X0041349D02*
X0040622D01*
Y0063583D01*
X0041349D01*
Y0063860D01*
D02*
G37*
G36*
X0043561Y0055992D02*
Y0055626D01*
X0043927D01*
X0043913Y0055697D01*
X0043800Y0055865D01*
X0043632Y0055978D01*
X0043561Y0055992D01*
D02*
G37*
G36*
X0089287Y0072922D02*
X0089166Y0072898D01*
X0088956Y0072758D01*
X0088816Y0072548D01*
X0088792Y0072427D01*
X0089287D01*
Y0072922D01*
D02*
G37*
G36*
X0112014Y0072377D02*
Y0071882D01*
X0112509D01*
X0112485Y0072003D01*
X0112345Y0072213D01*
X0112135Y0072353D01*
X0112014Y0072377D01*
D02*
G37*
G36*
X0090036Y0072173D02*
X0089541D01*
Y0071678D01*
X0089662Y0071702D01*
X0089872Y0071842D01*
X0090012Y0072052D01*
X0090036Y0072173D01*
D02*
G37*
G36*
X0111760Y0072377D02*
X0111639Y0072353D01*
X0111429Y0072213D01*
X0111289Y0072003D01*
X0111265Y0071882D01*
X0111760D01*
Y0072377D01*
D02*
G37*
G36*
X0079248Y0044323D02*
X0078379D01*
X0078397Y0044188D01*
X0078498Y0043944D01*
X0078659Y0043734D01*
X0078869Y0043573D01*
X0079113Y0043472D01*
X0079248Y0043454D01*
Y0044323D01*
D02*
G37*
G36*
Y0045446D02*
X0079113Y0045428D01*
X0078869Y0045327D01*
X0078659Y0045166D01*
X0078498Y0044956D01*
X0078397Y0044712D01*
X0078379Y0044577D01*
X0079248D01*
Y0045446D01*
D02*
G37*
G36*
X0089541Y0072922D02*
Y0072427D01*
X0090036D01*
X0090012Y0072548D01*
X0089872Y0072758D01*
X0089662Y0072898D01*
X0089541Y0072922D01*
D02*
G37*
G36*
X0043927Y0055372D02*
X0043561D01*
Y0055006D01*
X0043632Y0055020D01*
X0043800Y0055133D01*
X0043913Y0055301D01*
X0043927Y0055372D01*
D02*
G37*
G36*
X0043072Y0056203D02*
X0042545D01*
Y0055499D01*
Y0054795D01*
X0043072D01*
Y0054995D01*
X0043184Y0055055D01*
X0043236Y0055020D01*
X0043307Y0055006D01*
Y0055499D01*
Y0055992D01*
X0043236Y0055978D01*
X0043184Y0055943D01*
X0043072Y0056003D01*
Y0056203D01*
D02*
G37*
G36*
X0091821Y0070726D02*
X0091700Y0070702D01*
X0091490Y0070562D01*
X0091350Y0070352D01*
X0091326Y0070231D01*
X0091821D01*
Y0070726D01*
D02*
G37*
G36*
X0092075D02*
Y0070231D01*
X0092570D01*
X0092546Y0070352D01*
X0092406Y0070562D01*
X0092196Y0070702D01*
X0092075Y0070726D01*
D02*
G37*
G36*
X0104762Y0069977D02*
X0104267D01*
Y0069482D01*
X0104388Y0069506D01*
X0104598Y0069646D01*
X0104738Y0069856D01*
X0104762Y0069977D01*
D02*
G37*
G36*
X0092570D02*
X0092075D01*
Y0069482D01*
X0092196Y0069506D01*
X0092406Y0069646D01*
X0092546Y0069856D01*
X0092570Y0069977D01*
D02*
G37*
G36*
X0104013D02*
X0103518D01*
X0103542Y0069856D01*
X0103682Y0069646D01*
X0103892Y0069506D01*
X0104013Y0069482D01*
Y0069977D01*
D02*
G37*
G36*
X0112509Y0071628D02*
X0112014D01*
Y0071133D01*
X0112135Y0071157D01*
X0112345Y0071297D01*
X0112485Y0071507D01*
X0112509Y0071628D01*
D02*
G37*
G36*
X0089287Y0072173D02*
X0088792D01*
X0088816Y0072052D01*
X0088956Y0071842D01*
X0089166Y0071702D01*
X0089287Y0071678D01*
Y0072173D01*
D02*
G37*
G36*
X0111760Y0071628D02*
X0111265D01*
X0111289Y0071507D01*
X0111429Y0071297D01*
X0111639Y0071157D01*
X0111760Y0071133D01*
Y0071628D01*
D02*
G37*
G36*
X0104013Y0070726D02*
X0103892Y0070702D01*
X0103682Y0070562D01*
X0103542Y0070352D01*
X0103518Y0070231D01*
X0104013D01*
Y0070726D01*
D02*
G37*
G36*
X0104267D02*
Y0070231D01*
X0104762D01*
X0104738Y0070352D01*
X0104598Y0070562D01*
X0104388Y0070702D01*
X0104267Y0070726D01*
D02*
G37*
%LPD*%
D10*
X0114035Y0076200D02*
D03*
X0115835D02*
D03*
X0114162Y0071120D02*
D03*
X0115962D02*
D03*
X0109844Y0076200D02*
D03*
X0111644D02*
D03*
X0114035Y0066040D02*
D03*
X0115835D02*
D03*
X0109844D02*
D03*
X0111644D02*
D03*
X0114035Y0081280D02*
D03*
X0115835D02*
D03*
X0109844D02*
D03*
X0111644D02*
D03*
X0107304Y0071120D02*
D03*
X0109104D02*
D03*
D11*
X0066491Y0062515D02*
D03*
Y0062015D02*
D03*
Y0061515D02*
D03*
Y0061015D02*
D03*
Y0060515D02*
D03*
Y0060015D02*
D03*
Y0059515D02*
D03*
Y0059015D02*
D03*
Y0058515D02*
D03*
Y0058015D02*
D03*
Y0057515D02*
D03*
Y0057015D02*
D03*
Y0056515D02*
D03*
Y0056015D02*
D03*
Y0055515D02*
D03*
Y0055015D02*
D03*
Y0054515D02*
D03*
Y0054015D02*
D03*
Y0053515D02*
D03*
Y0053015D02*
D03*
Y0052515D02*
D03*
Y0052015D02*
D03*
Y0051515D02*
D03*
Y0051015D02*
D03*
Y0050515D02*
D03*
X0081591D02*
D03*
Y0051015D02*
D03*
Y0051515D02*
D03*
Y0052015D02*
D03*
Y0052515D02*
D03*
Y0053015D02*
D03*
Y0053515D02*
D03*
Y0054015D02*
D03*
Y0054515D02*
D03*
Y0055015D02*
D03*
Y0055515D02*
D03*
Y0056015D02*
D03*
Y0056515D02*
D03*
Y0057015D02*
D03*
Y0057515D02*
D03*
Y0058015D02*
D03*
Y0058515D02*
D03*
Y0059015D02*
D03*
Y0059515D02*
D03*
Y0060015D02*
D03*
Y0060515D02*
D03*
Y0061015D02*
D03*
Y0061515D02*
D03*
Y0062015D02*
D03*
Y0062515D02*
D03*
D12*
X0068041Y0048965D02*
D03*
X0068541D02*
D03*
X0069041D02*
D03*
X0069541D02*
D03*
X0070041D02*
D03*
X0070541D02*
D03*
X0071041D02*
D03*
X0071541D02*
D03*
X0072041D02*
D03*
X0072541D02*
D03*
X0073041D02*
D03*
X0073541D02*
D03*
X0074041D02*
D03*
X0074541D02*
D03*
X0075041D02*
D03*
X0075541D02*
D03*
X0076041D02*
D03*
X0076541D02*
D03*
X0077041D02*
D03*
X0077541D02*
D03*
X0078041D02*
D03*
X0078541D02*
D03*
X0079041D02*
D03*
X0079541D02*
D03*
X0080041D02*
D03*
Y0064065D02*
D03*
X0079541D02*
D03*
X0079041D02*
D03*
X0078541D02*
D03*
X0078041D02*
D03*
X0077541D02*
D03*
X0077041D02*
D03*
X0076541D02*
D03*
X0076041D02*
D03*
X0075541D02*
D03*
X0075041D02*
D03*
X0074541D02*
D03*
X0074041D02*
D03*
X0073541D02*
D03*
X0073041D02*
D03*
X0072541D02*
D03*
X0072041D02*
D03*
X0071541D02*
D03*
X0071041D02*
D03*
X0070541D02*
D03*
X0070041D02*
D03*
X0069541D02*
D03*
X0069041D02*
D03*
X0068541D02*
D03*
X0068041D02*
D03*
D13*
X0071628Y0042099D02*
D03*
Y0043499D02*
D03*
X0074168Y0043372D02*
D03*
Y0041972D02*
D03*
X0044323Y0059120D02*
D03*
Y0057720D02*
D03*
X0089535Y0062422D02*
D03*
Y0061022D02*
D03*
X0129159Y0046671D02*
D03*
Y0048071D02*
D03*
X0129667Y0052008D02*
D03*
Y0050608D02*
D03*
X0131064Y0052008D02*
D03*
Y0050608D02*
D03*
X0130556Y0048071D02*
D03*
Y0046671D02*
D03*
X0092583Y0045912D02*
D03*
Y0044512D02*
D03*
Y0048833D02*
D03*
Y0047433D02*
D03*
X0105410Y0044512D02*
D03*
Y0045912D02*
D03*
X0043434Y0051946D02*
D03*
Y0050546D02*
D03*
X0039243Y0051946D02*
D03*
Y0050546D02*
D03*
X0040640Y0051946D02*
D03*
Y0050546D02*
D03*
X0042037D02*
D03*
Y0051946D02*
D03*
X0048895Y0071498D02*
D03*
Y0072898D02*
D03*
X0045593Y0057720D02*
D03*
Y0059120D02*
D03*
X0062230Y0065975D02*
D03*
Y0067375D02*
D03*
X0058928Y0067118D02*
D03*
Y0068518D02*
D03*
X0075946Y0041972D02*
D03*
Y0043372D02*
D03*
X0029337Y0059117D02*
D03*
Y0060517D02*
D03*
X0037973Y0067753D02*
D03*
Y0069153D02*
D03*
X0041656Y0066610D02*
D03*
Y0068010D02*
D03*
D14*
X0092132Y0053423D02*
D03*
X0093432D02*
D03*
X0094732D02*
D03*
X0096032D02*
D03*
X0096082Y0060623D02*
D03*
X0094682D02*
D03*
X0093432D02*
D03*
X0092132D02*
D03*
D15*
X0096077Y0062357D02*
D03*
X0094677D02*
D03*
X0128462Y0053340D02*
D03*
X0127062D02*
D03*
X0116648Y0046863D02*
D03*
X0118048D02*
D03*
X0098360Y0039878D02*
D03*
X0099760D02*
D03*
X0095185D02*
D03*
X0096585D02*
D03*
X0040575Y0048960D02*
D03*
X0041975D02*
D03*
X0042418Y0055499D02*
D03*
X0041018D02*
D03*
X0046674Y0053086D02*
D03*
X0045274D02*
D03*
X0045274Y0054483D02*
D03*
X0046674D02*
D03*
X0060514Y0059436D02*
D03*
X0061914D02*
D03*
X0063435Y0064135D02*
D03*
X0064835D02*
D03*
X0061660Y0049530D02*
D03*
X0060260D02*
D03*
X0061660Y0048133D02*
D03*
X0060260D02*
D03*
D16*
X0063754Y0072009D02*
D03*
X0062484D02*
D03*
X0061214D02*
D03*
X0059944D02*
D03*
X0058674D02*
D03*
Y0076835D02*
D03*
X0059944D02*
D03*
X0061214D02*
D03*
X0062484D02*
D03*
X0063754D02*
D03*
D17*
X0103505Y0047358D02*
D03*
X0102235D02*
D03*
X0100965D02*
D03*
X0099695D02*
D03*
X0098425D02*
D03*
X0097155D02*
D03*
X0095885D02*
D03*
X0094615D02*
D03*
X0103505Y0042558D02*
D03*
X0102235D02*
D03*
X0100965D02*
D03*
X0099695D02*
D03*
X0098425D02*
D03*
X0097155D02*
D03*
X0095885D02*
D03*
X0094615D02*
D03*
D18*
X0040045Y0072557D02*
D03*
X0045045D02*
D03*
X0040045Y0077557D02*
D03*
X0045045D02*
D03*
D19*
X0031895Y0063456D02*
D03*
Y0062956D02*
D03*
Y0062456D02*
D03*
Y0061956D02*
D03*
Y0061456D02*
D03*
Y0060956D02*
D03*
Y0060456D02*
D03*
Y0059956D02*
D03*
Y0059456D02*
D03*
Y0058956D02*
D03*
Y0058456D02*
D03*
Y0057956D02*
D03*
X0040495D02*
D03*
Y0058456D02*
D03*
Y0058956D02*
D03*
Y0059456D02*
D03*
Y0059956D02*
D03*
Y0060456D02*
D03*
Y0060956D02*
D03*
Y0061456D02*
D03*
Y0061956D02*
D03*
Y0062456D02*
D03*
Y0062956D02*
D03*
Y0063456D02*
D03*
D20*
X0033445Y0056406D02*
D03*
X0033945D02*
D03*
X0034445D02*
D03*
X0034945D02*
D03*
X0035445D02*
D03*
X0035945D02*
D03*
X0036445D02*
D03*
X0036945D02*
D03*
X0037445D02*
D03*
X0037945D02*
D03*
X0038445D02*
D03*
X0038945D02*
D03*
Y0065006D02*
D03*
X0038445D02*
D03*
X0037945D02*
D03*
X0037445D02*
D03*
X0036945D02*
D03*
X0036445D02*
D03*
X0035945D02*
D03*
X0035445D02*
D03*
X0034945D02*
D03*
X0034445D02*
D03*
X0033945D02*
D03*
X0033445D02*
D03*
D21*
X0125440Y0044323D02*
D03*
X0120940D02*
D03*
D22*
X0122809Y0057912D02*
D03*
X0128651D02*
D03*
X0116205Y0042672D02*
D03*
X0110363D02*
D03*
D23*
X0123825Y0049911D02*
D03*
D24*
X0120950Y0048036D02*
D03*
Y0050536D02*
D03*
Y0051786D02*
D03*
Y0049286D02*
D03*
X0126700D02*
D03*
Y0051786D02*
D03*
Y0050536D02*
D03*
Y0048036D02*
D03*
D25*
X0126805Y0079314D02*
D03*
Y0081214D02*
D03*
X0124655Y0080264D02*
D03*
X0121471Y0079314D02*
D03*
Y0081214D02*
D03*
X0119321Y0080264D02*
D03*
X0126805Y0074234D02*
D03*
Y0076134D02*
D03*
X0124655Y0075184D02*
D03*
X0126805Y0069154D02*
D03*
Y0071054D02*
D03*
X0124655Y0070104D02*
D03*
X0121471Y0069154D02*
D03*
Y0071054D02*
D03*
X0119321Y0070104D02*
D03*
X0121471Y0074234D02*
D03*
Y0076134D02*
D03*
X0119321Y0075184D02*
D03*
X0126805Y0064074D02*
D03*
Y0065974D02*
D03*
X0124655Y0065024D02*
D03*
X0121471Y0064074D02*
D03*
Y0065974D02*
D03*
X0119321Y0065024D02*
D03*
D26*
X0112776Y0048451D02*
D03*
Y0058484D02*
D03*
D27*
X0051689Y0069124D02*
D03*
Y0073624D02*
D03*
D28*
X0046674Y0054483D02*
Y0055307D01*
X0045912Y0056069D02*
X0046674Y0055307D01*
X0045023Y0056069D02*
X0045912D01*
X0044323Y0056769D02*
X0045023Y0056069D01*
X0044323Y0056769D02*
Y0057720D01*
X0111876Y0068834D02*
X0114162Y0071120D01*
X0081153Y0068834D02*
X0111876D01*
X0079041Y0066722D02*
X0081153Y0068834D01*
X0108447Y0074803D02*
X0109844Y0076200D01*
X0084963Y0074803D02*
X0108447D01*
X0077541Y0067381D02*
X0084963Y0074803D01*
X0112130Y0074295D02*
X0114035Y0076200D01*
X0085216Y0074295D02*
X0112130D01*
X0078041Y0067120D02*
X0085216Y0074295D01*
X0104637Y0073787D02*
X0107304Y0071120D01*
X0085454Y0073787D02*
X0104637D01*
X0078541Y0066874D02*
X0085454Y0073787D01*
X0080041Y0066325D02*
X0080899Y0067183D01*
X0080041Y0064065D02*
Y0066325D01*
X0080899Y0067183D02*
X0106426D01*
X0080789Y0067835D02*
X0108049D01*
X0079524Y0066570D02*
X0080789Y0067835D01*
X0079524Y0064065D02*
Y0066570D01*
X0077541Y0064065D02*
Y0067381D01*
X0078041Y0064065D02*
Y0067120D01*
X0078541Y0064065D02*
Y0066874D01*
X0079041Y0064065D02*
Y0066722D01*
X0032893Y0073152D02*
X0033782Y0074041D01*
X0032893Y0069215D02*
Y0073152D01*
X0035433Y0082931D02*
X0069469D01*
X0031750Y0079248D02*
X0035433Y0082931D01*
X0031750Y0078359D02*
Y0079248D01*
X0028321Y0065278D02*
X0030988Y0067945D01*
X0028321Y0063373D02*
Y0065278D01*
X0030988Y0067945D02*
Y0074422D01*
X0031496Y0067735D02*
Y0074168D01*
X0029083Y0065322D02*
X0031496Y0067735D01*
X0029083Y0062611D02*
Y0065322D01*
X0030480Y0063373D02*
X0030897Y0062956D01*
X0031895D01*
X0029738Y0061956D02*
X0031895D01*
X0029083Y0062611D02*
X0029738Y0061956D01*
X0029591Y0062865D02*
X0030000Y0062456D01*
X0031895D01*
X0029591Y0062865D02*
Y0065024D01*
X0071541Y0064065D02*
Y0076922D01*
X0067945Y0080518D02*
X0071541Y0076922D01*
X0037084Y0080518D02*
X0067945D01*
X0067422Y0079502D02*
X0070541Y0076383D01*
X0037592Y0079502D02*
X0067422D01*
X0032004Y0073914D02*
X0037592Y0079502D01*
X0067691Y0080010D02*
X0071041Y0076660D01*
X0037338Y0080010D02*
X0067691D01*
X0031496Y0074168D02*
X0037338Y0080010D01*
X0032004Y0067437D02*
Y0073914D01*
X0029591Y0065024D02*
X0032004Y0067437D01*
X0070541Y0064065D02*
Y0076383D01*
X0030988Y0074422D02*
X0037084Y0080518D01*
X0071041Y0064065D02*
Y0076660D01*
X0030099Y0074422D02*
X0036830Y0081153D01*
X0030099Y0068834D02*
Y0074422D01*
X0069088Y0081153D02*
X0072541Y0077700D01*
X0036830Y0081153D02*
X0069088D01*
Y0081788D02*
X0073041Y0077835D01*
X0036576Y0081788D02*
X0069088D01*
X0029464Y0074676D02*
X0036576Y0081788D01*
X0069171Y0082423D02*
X0073549Y0078045D01*
X0036195Y0082423D02*
X0069171D01*
X0032893Y0079121D02*
X0036195Y0082423D01*
X0069469Y0082931D02*
X0074041Y0078359D01*
X0029464Y0067945D02*
Y0074676D01*
X0033540Y0058535D02*
X0033945Y0058130D01*
X0044246Y0059009D02*
X0044323Y0058956D01*
X0044085Y0059120D02*
X0044246Y0059009D01*
X0040495Y0058956D02*
X0044323D01*
X0044085Y0059120D02*
X0044246Y0059009D01*
X0076041Y0055118D02*
Y0060515D01*
Y0043372D02*
Y0048965D01*
X0056523Y0055745D02*
X0057158D01*
X0048895Y0071501D02*
X0053721D01*
X0060452Y0059436D02*
Y0061849D01*
X0066491Y0053015D02*
X0069215D01*
X0120940Y0044105D02*
Y0044323D01*
X0071041Y0045291D02*
Y0048965D01*
Y0045291D02*
X0071628Y0044704D01*
X0061785Y0042037D02*
X0068326D01*
X0070041Y0043752D02*
Y0048965D01*
X0060262Y0038544D02*
X0060325D01*
X0058928Y0039878D02*
X0060262Y0038544D01*
X0058928Y0039878D02*
Y0041402D01*
X0060071Y0042545D01*
X0068072D01*
X0081591Y0062515D02*
X0084805D01*
X0085852Y0061468D01*
X0088011Y0057023D02*
X0094571D01*
X0081591Y0062015D02*
X0083527D01*
X0087757Y0058547D02*
Y0059309D01*
X0088646Y0057658D02*
X0094869D01*
X0103505Y0047358D02*
Y0049022D01*
X0035445Y0051550D02*
Y0056406D01*
Y0051550D02*
X0038100Y0048895D01*
X0061914Y0059436D02*
Y0059628D01*
X0063301Y0061015D01*
X0066491D01*
X0064389Y0069977D02*
X0068199D01*
X0063754Y0070612D02*
X0064389Y0069977D01*
X0061214Y0063500D02*
X0062199Y0062515D01*
X0066491D01*
X0061214Y0072009D02*
X0061276Y0067375D01*
X0062230D01*
X0059944Y0063500D02*
Y0072009D01*
Y0063500D02*
X0061429Y0062015D01*
X0066491D01*
X0064071Y0060515D02*
X0066491D01*
X0063881Y0069215D02*
X0069088D01*
X0062484Y0070612D02*
Y0072009D01*
X0053467Y0047117D02*
X0060960D01*
X0061660Y0048133D02*
X0063246D01*
X0064389Y0049276D01*
X0050546Y0060833D02*
Y0064516D01*
X0051308Y0061341D02*
Y0065151D01*
X0056896Y0049403D02*
X0058166Y0050673D01*
X0033445Y0052280D02*
Y0056406D01*
Y0052280D02*
X0036830Y0048895D01*
X0033945Y0056406D02*
Y0058130D01*
X0064835Y0064135D02*
X0064897Y0064073D01*
X0068002D01*
X0106426Y0067183D02*
X0108966Y0064643D01*
X0112649D01*
X0114035Y0066029D02*
Y0066040D01*
X0108049Y0067835D02*
X0109844Y0066040D01*
X0078541Y0052252D02*
X0079375Y0053086D01*
X0099822Y0060833D02*
X0103124Y0064135D01*
Y0066294D01*
X0105918Y0079756D02*
X0112522D01*
X0101981Y0064008D02*
Y0066294D01*
X0103124Y0078232D02*
X0106172Y0081280D01*
X0109844D01*
X0040495Y0059956D02*
X0045593D01*
X0052463D01*
X0053086Y0060579D01*
X0035945Y0054225D02*
X0036195Y0053975D01*
X0039116Y0054610D02*
X0039624D01*
X0038445Y0055281D02*
X0039116Y0054610D01*
X0038445Y0055281D02*
Y0056406D01*
X0038608Y0063373D02*
X0038945Y0063710D01*
Y0065006D01*
Y0055924D02*
X0039370Y0055499D01*
X0041018D01*
X0036945Y0054749D02*
Y0056406D01*
Y0054749D02*
X0038608Y0053086D01*
X0045274D01*
X0037445Y0055138D02*
Y0056406D01*
X0038862Y0053721D02*
X0043815D01*
X0037945Y0065006D02*
Y0067725D01*
X0037973Y0067753D01*
X0121405Y0066040D02*
X0121471Y0065974D01*
X0121405Y0071120D02*
X0121471Y0071054D01*
X0121405Y0076200D02*
X0121471Y0076134D01*
X0121405Y0081280D02*
X0121471Y0081214D01*
X0050963Y0072898D02*
X0051689Y0073624D01*
X0034290Y0045593D02*
X0035560Y0044323D01*
X0036195D01*
X0036830Y0043688D01*
X0039243Y0051946D02*
X0040640D01*
X0039243Y0047752D02*
Y0050546D01*
Y0047752D02*
X0040640Y0046355D01*
X0042037Y0049022D02*
Y0050546D01*
X0040640D02*
X0042037D01*
Y0051946D02*
X0043434D01*
Y0046609D02*
Y0050546D01*
Y0046609D02*
X0044450Y0045593D01*
X0129667Y0050608D02*
X0129921D01*
X0089535Y0062422D02*
X0089600Y0062357D01*
X0094677D01*
Y0060628D02*
Y0062357D01*
X0075946Y0043372D02*
X0076041D01*
Y0060515D02*
X0081591D01*
X0070041Y0057015D02*
Y0064065D01*
X0069041Y0050894D02*
X0070598Y0052451D01*
X0071755D01*
X0076041Y0048965D02*
Y0052451D01*
X0071755D02*
X0076041D01*
X0071755D02*
Y0056134D01*
X0070041Y0057015D02*
X0070874D01*
X0076041Y0060547D02*
Y0064065D01*
X0084455Y0050661D02*
Y0051192D01*
X0083632Y0052015D02*
X0084455Y0051192D01*
X0063453Y0051515D02*
X0066491D01*
X0062285Y0052015D02*
X0066491D01*
X0058928Y0056896D02*
X0061809Y0054015D01*
X0066491D01*
X0058928Y0059182D02*
X0063095Y0055015D01*
X0066491D01*
X0057158Y0055085D02*
X0058728Y0053515D01*
X0057158Y0055085D02*
X0058580D01*
X0037211Y0059055D02*
X0037810Y0058456D01*
X0040495D01*
X0067691Y0045593D02*
X0068041Y0045943D01*
X0068541Y0044284D02*
Y0048965D01*
X0034445Y0056406D02*
Y0057813D01*
X0035052Y0058420D02*
X0035814D01*
X0062865Y0056388D02*
X0063738Y0055515D01*
X0033945Y0063732D02*
X0034812Y0062865D01*
X0040495Y0063456D02*
X0041866D01*
X0043053Y0064643D01*
X0070541Y0048965D02*
Y0050617D01*
X0071105Y0051181D01*
X0074549D02*
X0075541Y0050189D01*
X0081591Y0061015D02*
X0083439D01*
Y0058420D02*
Y0061015D01*
X0104521Y0069723D02*
X0110363D01*
X0084796Y0054015D02*
X0085090Y0053721D01*
X0081591Y0054015D02*
X0084796D01*
X0087106Y0055515D02*
X0087376Y0055245D01*
X0081591Y0055515D02*
X0087106D01*
X0086082Y0055015D02*
X0087674Y0053423D01*
X0092132D01*
X0092448Y0056015D02*
X0093432Y0055031D01*
X0081591Y0054515D02*
X0085693D01*
X0087376Y0052832D01*
X0090678D02*
X0091313Y0052197D01*
X0094361Y0056515D02*
X0096032Y0054844D01*
X0034925Y0066421D02*
X0035445Y0065901D01*
X0035941Y0067818D02*
X0036945Y0066814D01*
X0073541Y0078045D02*
X0073549D01*
X0073541Y0064065D02*
Y0078045D01*
X0033528Y0072557D02*
X0040045D01*
X0037338Y0062484D02*
X0037366Y0062456D01*
X0048391Y0060456D02*
X0048768Y0060833D01*
X0044450Y0060456D02*
Y0065532D01*
X0041656Y0066610D02*
X0043372D01*
X0040495Y0060456D02*
X0044450D01*
X0043372Y0066610D02*
X0044450Y0065532D01*
X0074295Y0059436D02*
X0074803Y0058928D01*
X0074295Y0061087D02*
X0075041Y0061833D01*
X0040495Y0060956D02*
X0043049D01*
X0074533Y0062087D02*
Y0063056D01*
X0073533Y0061087D02*
X0074533Y0062087D01*
X0073533Y0060325D02*
Y0061087D01*
X0045593Y0057720D02*
X0046863D01*
X0060260Y0048133D02*
Y0049530D01*
X0058928Y0065786D02*
Y0067118D01*
Y0063373D02*
Y0065786D01*
Y0063373D02*
X0060452Y0061849D01*
X0062738Y0064135D02*
X0063435D01*
X0057150Y0074930D02*
X0063246D01*
X0052197Y0048133D02*
X0060260D01*
X0052070Y0048006D02*
X0052197Y0048133D01*
X0027940Y0057150D02*
Y0057785D01*
X0038735Y0061456D02*
X0040495D01*
X0033445Y0063202D02*
Y0065006D01*
X0035191Y0060313D02*
Y0061456D01*
X0037945Y0056406D02*
Y0057559D01*
X0033445Y0065006D02*
Y0068370D01*
X0034228Y0069153D01*
X0037973D01*
X0042876Y0057735D02*
X0044308D01*
X0044323Y0057720D01*
X0037973Y0069153D02*
X0041641D01*
X0068262Y0052515D02*
X0068707Y0052070D01*
X0082169Y0047371D02*
X0084455D01*
X0085725Y0046101D01*
X0083947Y0048768D02*
X0086995Y0045720D01*
X0079541Y0046824D02*
Y0048965D01*
Y0046824D02*
X0081915Y0044450D01*
X0079041Y0046562D02*
Y0048965D01*
X0075541Y0061063D02*
Y0064065D01*
X0076835Y0061722D02*
X0077041Y0061928D01*
Y0064065D01*
X0044246Y0059009D02*
X0044246Y0059009D01*
X0074041Y0064065D02*
Y0078359D01*
X0073041Y0064065D02*
Y0077835D01*
X0044246Y0059009D02*
X0044323Y0058956D01*
X0122809Y0057912D02*
X0123698D01*
X0114681Y0042672D02*
X0116205D01*
X0071628Y0043499D02*
Y0044704D01*
X0060325Y0040576D02*
X0061785Y0042037D01*
X0068326D02*
X0070041Y0043752D01*
X0068072Y0042545D02*
X0069541Y0044014D01*
Y0048965D01*
X0085852Y0059182D02*
Y0061468D01*
Y0059182D02*
X0088011Y0057023D01*
X0094571D02*
X0102235Y0049359D01*
Y0047358D02*
Y0049359D01*
X0083527Y0062015D02*
X0084836Y0060706D01*
X0087757Y0058547D02*
X0088646Y0057658D01*
X0094869D02*
X0103505Y0049022D01*
X0034544Y0052705D02*
X0034945Y0053106D01*
Y0056406D01*
X0038100Y0043053D02*
Y0048895D01*
X0061976Y0061087D02*
X0062404Y0061515D01*
X0066491D01*
X0063754Y0070612D02*
Y0072009D01*
X0061214Y0063500D02*
Y0072009D01*
X0066452Y0061976D02*
X0066491Y0062015D01*
X0058928Y0068518D02*
X0059879D01*
X0063881Y0060325D02*
X0064071Y0060515D01*
X0062484Y0070612D02*
X0063881Y0069215D01*
X0060960Y0047117D02*
X0061660Y0047817D01*
Y0048133D01*
X0054737Y0049403D02*
X0056896D01*
X0058166Y0050673D02*
X0060833D01*
X0061660Y0049846D01*
Y0049530D02*
Y0049846D01*
X0064731Y0051015D02*
X0066491D01*
X0036830Y0045593D02*
Y0048895D01*
X0033540Y0058535D02*
X0033557Y0058552D01*
X0068002Y0064073D02*
X0068041Y0064065D01*
X0112649Y0064643D02*
X0114035Y0066029D01*
X0078541Y0048965D02*
Y0052252D01*
X0099822Y0057023D02*
Y0060833D01*
X0104394Y0078232D02*
X0105918Y0079756D01*
X0112522D02*
X0114035Y0081269D01*
Y0081280D01*
X0098552Y0057023D02*
Y0060579D01*
X0101981Y0064008D01*
X0066491Y0056015D02*
X0070477D01*
X0045593Y0059120D02*
Y0059956D01*
X0057321Y0059900D02*
Y0060579D01*
Y0059900D02*
X0062706Y0054515D01*
X0066491D01*
X0057321Y0060579D02*
Y0069132D01*
X0058674Y0070485D01*
Y0072009D01*
X0035945Y0054225D02*
Y0056406D01*
X0038945Y0055924D02*
Y0056406D01*
X0044085Y0059120D02*
X0044323D01*
X0037445Y0055138D02*
X0038862Y0053721D01*
X0043815D02*
X0044577Y0054483D01*
X0045274D01*
X0029337Y0060517D02*
X0029398Y0060456D01*
X0031895D01*
X0126805Y0081214D02*
Y0081348D01*
X0036830Y0042545D02*
Y0043688D01*
Y0042545D02*
X0037465Y0041910D01*
X0044577D01*
X0045720Y0043053D01*
X0040640D02*
Y0046355D01*
X0041975Y0048960D02*
X0042037Y0049022D01*
X0094677Y0060628D02*
X0094682Y0060623D01*
X0076053Y0055130D02*
X0078486D01*
X0076041Y0055118D02*
X0076053Y0055130D01*
X0076041Y0052451D02*
Y0055118D01*
X0069041Y0048965D02*
Y0050894D01*
X0070874Y0057015D02*
X0071755Y0056134D01*
X0066491Y0058015D02*
X0070017D01*
X0066491Y0057015D02*
X0070041D01*
X0074168Y0043372D02*
X0075946D01*
X0076041Y0060547D02*
X0081591Y0060515D01*
Y0052015D02*
X0083632D01*
X0062992Y0051054D02*
X0063453Y0051515D01*
X0058928Y0059182D02*
Y0060325D01*
X0058728Y0053515D02*
X0066491D01*
X0038354Y0059456D02*
X0040495D01*
X0037211Y0059055D02*
Y0059690D01*
X0068041Y0045943D02*
Y0048965D01*
X0034445Y0057813D02*
X0035052Y0058420D01*
X0035814D02*
X0036445Y0057789D01*
Y0056406D02*
Y0057789D01*
X0042418Y0055499D02*
X0043434D01*
X0063738Y0055515D02*
X0066491D01*
X0062865Y0056388D02*
Y0057277D01*
X0063103Y0057515D01*
X0034812Y0062865D02*
X0035814D01*
X0033945Y0063732D02*
Y0065006D01*
X0043053Y0064643D02*
Y0064770D01*
X0071105Y0051181D02*
X0074549D01*
X0075541Y0048965D02*
Y0050189D01*
X0083439Y0058420D02*
X0084328D01*
X0104140Y0070104D02*
X0104521Y0069723D01*
X0110363D02*
X0111887Y0071247D01*
Y0071755D01*
X0095504Y0058420D02*
X0096082Y0058998D01*
Y0060623D01*
X0092132Y0059239D02*
Y0060623D01*
X0091453Y0058560D02*
X0092132Y0059239D01*
X0090411Y0058560D02*
X0091453D01*
X0081591Y0055015D02*
X0086082D01*
X0081591Y0056015D02*
X0092448D01*
X0093432Y0053423D02*
Y0055031D01*
X0087376Y0052832D02*
X0090678D01*
X0091313Y0052197D02*
X0094468D01*
X0094732Y0052461D01*
Y0053423D01*
X0081591Y0056515D02*
X0094361D01*
X0096032Y0053423D02*
Y0054844D01*
X0034290Y0066421D02*
X0034925D01*
X0035445Y0065006D02*
Y0065901D01*
X0035179Y0067056D02*
X0035945Y0066290D01*
Y0065006D02*
Y0066290D01*
X0072541Y0064065D02*
Y0077700D01*
X0034290Y0067818D02*
X0035941D01*
X0036945Y0065006D02*
Y0066814D01*
X0037366Y0062456D02*
X0040495D01*
X0044450Y0060456D02*
X0048391D01*
X0074295Y0059436D02*
Y0061087D01*
X0075041Y0061833D02*
Y0064065D01*
X0043049Y0060956D02*
X0043307Y0061214D01*
X0048895Y0071498D02*
Y0071501D01*
X0053721D02*
X0057150Y0074930D01*
X0062230Y0064643D02*
Y0065975D01*
X0060452Y0059436D02*
X0060514D01*
X0062230Y0064643D02*
X0062738Y0064135D01*
X0063246Y0074930D02*
X0063754Y0075438D01*
Y0076835D01*
X0097790Y0062865D02*
Y0063627D01*
X0097282Y0062357D02*
X0097790Y0062865D01*
X0096077Y0062357D02*
X0097282D01*
X0027940Y0057785D02*
X0029272Y0059117D01*
X0029337D01*
X0038735Y0060706D02*
Y0061456D01*
X0035191D02*
X0038735D01*
X0033445Y0063202D02*
X0035191Y0061456D01*
Y0060313D02*
X0037945Y0057559D01*
X0041641Y0068025D02*
X0041656Y0068010D01*
X0041641Y0068025D02*
Y0069153D01*
X0045045Y0072557D01*
X0046674Y0053086D02*
Y0054483D01*
X0066491Y0052515D02*
X0068262D01*
X0085725Y0043180D02*
Y0046101D01*
Y0043180D02*
X0086995Y0041910D01*
X0069215Y0053015D02*
Y0053054D01*
X0082169Y0048768D02*
X0083947D01*
X0086995Y0044450D02*
Y0045720D01*
X0079041Y0046562D02*
X0080645Y0044958D01*
Y0043180D02*
Y0044958D01*
Y0043180D02*
X0081915Y0041910D01*
X0075184Y0060706D02*
X0075541Y0061063D01*
X0061660Y0049530D02*
X0063246D01*
X0064389Y0050673D01*
X0064731Y0051015D01*
X0064389Y0049276D02*
X0065628Y0050515D01*
X0066491D01*
X0078041Y0048965D02*
Y0052895D01*
X0079375Y0054229D01*
D29*
X0126872Y0064007D02*
X0129540Y0066675D01*
X0126872Y0069087D02*
X0129540Y0071755D01*
X0126872Y0074167D02*
X0129540Y0076835D01*
X0126872Y0079247D02*
X0129540Y0081915D01*
X0126805Y0064074D02*
X0126872Y0064007D01*
X0126805Y0069154D02*
X0126872Y0069087D01*
X0126805Y0074234D02*
X0126872Y0074167D01*
X0126805Y0079314D02*
X0126872Y0079247D01*
X0121471Y0064074D02*
X0122995D01*
X0124458Y0062611D01*
X0128016D01*
X0129540Y0064135D01*
X0121471Y0069154D02*
X0122995D01*
X0124204Y0067945D01*
X0128270D01*
X0129540Y0069215D01*
X0121471Y0074234D02*
X0122995D01*
X0124204Y0073025D01*
X0128270D01*
X0129540Y0074295D01*
X0121471Y0079314D02*
X0122995D01*
X0124204Y0078105D01*
X0128270D01*
X0129540Y0079375D01*
D30*
X0118999Y0049276D02*
X0120950D01*
X0121285D01*
X0075946Y0041972D02*
X0079375D01*
X0121220Y0046671D02*
X0129159D01*
X0127062Y0051816D02*
Y0053340D01*
X0130556Y0048071D02*
Y0049286D01*
X0126700D02*
X0130556D01*
Y0048071D02*
X0130566Y0049286D01*
X0131064Y0049784D02*
Y0050608D01*
X0129124Y0048036D02*
X0129159Y0048071D01*
X0113041Y0067437D02*
X0122428D01*
X0123190Y0066675D01*
X0123444Y0071628D02*
X0125984D01*
X0126558Y0071054D02*
X0126805D01*
X0113295Y0077851D02*
X0122174D01*
X0123190Y0076835D01*
X0111644Y0081280D02*
X0113295Y0082931D01*
X0125222D01*
X0052197Y0028194D02*
X0064643D01*
X0071628Y0035179D02*
Y0042099D01*
X0128462Y0050598D02*
Y0053340D01*
X0126700Y0050536D02*
X0129595D01*
X0129667Y0050608D01*
X0112776Y0048451D02*
X0116142D01*
X0116648Y0046863D02*
Y0047944D01*
X0100965Y0042558D02*
Y0043942D01*
X0101535Y0044512D01*
X0105410D01*
X0098360Y0039878D02*
Y0042493D01*
X0098425Y0042558D01*
X0099695Y0039943D02*
X0099760Y0039878D01*
X0099695Y0039943D02*
Y0042558D01*
X0092583Y0045912D02*
Y0047433D01*
X0094540D01*
X0094615Y0040448D02*
X0095185Y0039878D01*
X0094615Y0040448D02*
Y0042558D01*
X0097155Y0040448D02*
Y0042558D01*
X0056261Y0056007D02*
X0056523Y0055745D01*
X0100181Y0038481D02*
X0101473D01*
X0102235Y0039243D02*
Y0042558D01*
X0096772Y0035052D02*
X0102616D01*
X0103505Y0035941D02*
Y0042558D01*
X0095315Y0044512D02*
X0095885Y0043942D01*
X0045720Y0068072D02*
X0047117D01*
X0048895Y0069850D01*
Y0071498D01*
X0092583Y0048833D02*
Y0050292D01*
X0097790Y0063627D02*
X0098933D01*
X0092370D02*
X0097790D01*
X0090932Y0065065D02*
X0092370Y0063627D01*
X0131064Y0052008D02*
Y0055372D01*
X0130566Y0049286D02*
X0131064Y0049784D01*
X0126700Y0048036D02*
X0129124D01*
X0115835Y0066040D02*
X0121405D01*
X0111644D02*
X0113041Y0067437D01*
X0123190Y0066675D02*
X0126104D01*
X0126805Y0065974D01*
X0115962Y0071120D02*
X0121405D01*
X0125984Y0071628D02*
X0126558Y0071054D01*
X0115835Y0076200D02*
X0121405D01*
X0111644D02*
X0113295Y0077851D01*
X0123190Y0076835D02*
X0126104D01*
X0126805Y0076134D01*
X0115835Y0081280D02*
X0121405D01*
X0125222Y0082931D02*
X0126805Y0081348D01*
X0048895Y0072898D02*
X0050963D01*
X0050419Y0029972D02*
X0052197Y0028194D01*
X0064643D02*
X0071628Y0035179D01*
X0116142Y0048451D02*
X0116648Y0047944D01*
X0118048Y0046863D02*
Y0048325D01*
X0118999Y0049276D01*
X0094540Y0047433D02*
X0094615Y0047358D01*
X0096585Y0039878D02*
X0097155Y0040448D01*
X0056261Y0056007D02*
Y0064552D01*
X0051689Y0069124D02*
X0056261Y0064552D01*
X0098147Y0036447D02*
X0100181Y0038481D01*
X0101473D02*
X0102235Y0039243D01*
X0095377Y0036447D02*
X0096772Y0035052D01*
X0102616D02*
X0103505Y0035941D01*
X0092583Y0044512D02*
X0095315D01*
X0095885Y0042558D02*
Y0043942D01*
X0045720Y0063754D02*
Y0068072D01*
X0098933Y0063627D02*
X0100330Y0065024D01*
X0109104Y0071120D02*
X0111263Y0073279D01*
X0121793D01*
X0123444Y0071628D01*
D31*
X0052832Y0030226D02*
X0053213D01*
X0052070Y0048006D02*
Y0048514D01*
X0029337Y0036576D02*
Y0053594D01*
X0050546Y0050038D02*
X0052070Y0048514D01*
Y0030988D02*
Y0048006D01*
Y0030988D02*
X0052832Y0030226D01*
X0050419Y0050165D02*
X0050546Y0050038D01*
X0029337Y0036576D02*
X0033274Y0032639D01*
X0124655Y0070104D02*
X0125603D01*
X0124655Y0075184D02*
X0125603D01*
X0124655Y0080264D02*
X0125603D01*
D32*
X0113348Y0057912D02*
X0122809D01*
X0116205Y0042672D02*
X0119507D01*
X0120940Y0044105D01*
D33*
X0119321Y0061908D02*
X0120523Y0060706D01*
X0119321Y0065024D02*
X0124655D01*
X0119321Y0080264D02*
X0124655D01*
X0119321Y0061908D02*
Y0065024D01*
Y0070104D02*
X0124655D01*
X0119321Y0075184D02*
X0124655D01*
D34*
X0077851Y0029972D02*
Y0038481D01*
X0079375Y0040005D01*
Y0041910D01*
Y0041972D01*
D35*
X0109791Y0059055D02*
D03*
D36*
X0120967Y0046609D02*
D03*
D37*
X0112776Y0049022D02*
D03*
D38*
X0116522Y0050546D02*
D03*
D39*
X0127699Y0043879D02*
D03*
D40*
X0126810Y0040450D02*
D03*
D41*
X0115887Y0049593D02*
D03*
D42*
X0028321Y0063373D02*
D03*
X0030480D02*
D03*
X0031750Y0078359D02*
D03*
X0053467Y0047117D02*
D03*
X0054737Y0049403D02*
D03*
X0051308Y0061341D02*
D03*
X0050546Y0060833D02*
D03*
X0051308Y0065151D02*
D03*
X0050546Y0064516D02*
D03*
X0074803Y0058928D02*
D03*
X0073533Y0060325D02*
D03*
X0043307Y0061214D02*
D03*
X0048768Y0060833D02*
D03*
X0043053Y0064770D02*
D03*
X0032893Y0079121D02*
D03*
X0033782Y0074041D02*
D03*
X0032893Y0069215D02*
D03*
X0029464Y0067945D02*
D03*
X0030099Y0068834D02*
D03*
X0034290Y0066421D02*
D03*
X0035179Y0067056D02*
D03*
X0034290Y0067818D02*
D03*
X0099822Y0057023D02*
D03*
X0098552D02*
D03*
X0101981Y0066294D02*
D03*
X0103124D02*
D03*
Y0078232D02*
D03*
X0104394D02*
D03*
X0084455Y0050661D02*
D03*
X0079375Y0053086D02*
D03*
Y0054229D02*
D03*
X0053086Y0060579D02*
D03*
X0042876Y0057735D02*
D03*
X0038608Y0063373D02*
D03*
X0043434Y0055499D02*
D03*
X0039624Y0054610D02*
D03*
X0035052Y0058420D02*
D03*
X0082169Y0047371D02*
D03*
Y0048768D02*
D03*
X0075184Y0060706D02*
D03*
X0076835Y0061722D02*
D03*
X0068707Y0052070D02*
D03*
X0069215Y0053054D02*
D03*
X0084836Y0060706D02*
D03*
X0087757Y0059309D02*
D03*
X0068541Y0044284D02*
D03*
X0067691Y0045593D02*
D03*
X0035814Y0062865D02*
D03*
X0037211Y0059690D02*
D03*
X0038354Y0059456D02*
D03*
X0085090Y0053721D02*
D03*
X0095504Y0058420D02*
D03*
X0090297Y0058547D02*
D03*
X0087376Y0055245D02*
D03*
X0033557Y0058552D02*
D03*
X0034544Y0052705D02*
D03*
X0062285Y0052015D02*
D03*
X0062992Y0051054D02*
D03*
X0058928Y0056896D02*
D03*
Y0060325D02*
D03*
X0057321Y0060579D02*
D03*
X0061976Y0061087D02*
D03*
X0068199Y0069977D02*
D03*
X0063881Y0060325D02*
D03*
X0069088Y0069215D02*
D03*
X0062230Y0064643D02*
D03*
X0057150Y0074930D02*
D03*
X0064389Y0049276D02*
D03*
Y0050673D02*
D03*
X0033528Y0072557D02*
D03*
X0037338Y0062484D02*
D03*
X0036195Y0053975D02*
D03*
X0107569Y0063881D02*
D03*
D43*
X0104140Y0053467D02*
D03*
X0120523Y0060706D02*
D03*
X0062865Y0038544D02*
D03*
X0060325D02*
D03*
Y0040576D02*
D03*
X0033274Y0032639D02*
D03*
X0035814D02*
D03*
X0046736D02*
D03*
X0044196D02*
D03*
X0127127Y0057912D02*
D03*
X0124333D02*
D03*
X0111887Y0042672D02*
D03*
X0114681D02*
D03*
X0050546Y0050038D02*
D03*
X0029337Y0053594D02*
D03*
D44*
X0125603Y0080264D02*
D03*
Y0075184D02*
D03*
X0078486Y0055130D02*
D03*
X0125603Y0070104D02*
D03*
X0104140D02*
D03*
X0038735Y0060706D02*
D03*
X0027940Y0057150D02*
D03*
X0035191Y0061456D02*
D03*
X0084328Y0058420D02*
D03*
X0074549Y0051181D02*
D03*
X0082550Y0064389D02*
D03*
X0091948Y0070104D02*
D03*
X0045720Y0069596D02*
D03*
X0062865Y0057277D02*
D03*
X0042424Y0072300D02*
D03*
X0065919D02*
D03*
X0089414D02*
D03*
X0111887Y0071755D02*
D03*
X0131064Y0055372D02*
D03*
X0092583Y0050292D02*
D03*
X0045720Y0063754D02*
D03*
Y0068072D02*
D03*
X0046863Y0057720D02*
D03*
X0058928Y0065786D02*
D03*
X0056896Y0077216D02*
D03*
X0100330Y0065024D02*
D03*
X0097790Y0063627D02*
D03*
X0090932Y0065065D02*
D03*
X0066929Y0065646D02*
D03*
X0070477Y0056015D02*
D03*
D45*
X0062865Y0040576D02*
D03*
D46*
X0067945Y0035877D02*
D03*
X0055245D02*
D03*
D47*
X0086995Y0044450D02*
D03*
X0084455D02*
D03*
X0081915D02*
D03*
X0079375D02*
D03*
X0086995Y0041910D02*
D03*
X0084455D02*
D03*
X0081915D02*
D03*
X0130175Y0043180D02*
D03*
X0052832Y0087630D02*
D03*
Y0085090D02*
D03*
X0050292Y0087630D02*
D03*
Y0085090D02*
D03*
X0047752Y0087630D02*
D03*
Y0085090D02*
D03*
X0045212Y0087630D02*
D03*
Y0085090D02*
D03*
X0042672Y0087630D02*
D03*
Y0085090D02*
D03*
X0040132Y0087630D02*
D03*
Y0085090D02*
D03*
X0037592Y0087630D02*
D03*
Y0085090D02*
D03*
X0035052Y0087630D02*
D03*
X0076327D02*
D03*
Y0085090D02*
D03*
X0073787Y0087630D02*
D03*
Y0085090D02*
D03*
X0071247Y0087630D02*
D03*
Y0085090D02*
D03*
X0068707Y0087630D02*
D03*
Y0085090D02*
D03*
X0066167Y0087630D02*
D03*
Y0085090D02*
D03*
X0063627Y0087630D02*
D03*
Y0085090D02*
D03*
X0061087Y0087630D02*
D03*
Y0085090D02*
D03*
X0058547Y0087630D02*
D03*
X0099822D02*
D03*
Y0085090D02*
D03*
X0097282Y0087630D02*
D03*
Y0085090D02*
D03*
X0094742Y0087630D02*
D03*
Y0085090D02*
D03*
X0092202Y0087630D02*
D03*
Y0085090D02*
D03*
X0089662Y0087630D02*
D03*
Y0085090D02*
D03*
X0087122Y0087630D02*
D03*
Y0085090D02*
D03*
X0084582Y0087630D02*
D03*
Y0085090D02*
D03*
X0082042Y0087630D02*
D03*
X0123317D02*
D03*
Y0085090D02*
D03*
X0120777Y0087630D02*
D03*
Y0085090D02*
D03*
X0118237Y0087630D02*
D03*
Y0085090D02*
D03*
X0115697Y0087630D02*
D03*
Y0085090D02*
D03*
X0113157Y0087630D02*
D03*
Y0085090D02*
D03*
X0110617Y0087630D02*
D03*
Y0085090D02*
D03*
X0108077Y0087630D02*
D03*
Y0085090D02*
D03*
X0105537Y0087630D02*
D03*
X0129540Y0064135D02*
D03*
Y0066675D02*
D03*
Y0069215D02*
D03*
Y0071755D02*
D03*
Y0074295D02*
D03*
Y0076835D02*
D03*
Y0079375D02*
D03*
X0103378Y0060198D02*
D03*
D48*
X0079375Y0041910D02*
D03*
X0035052Y0085090D02*
D03*
X0058547D02*
D03*
X0082042D02*
D03*
X0105537D02*
D03*
X0105918Y0060198D02*
D03*
D49*
X0028575Y0028575D02*
D03*
Y0087757D02*
D03*
X0129921D02*
D03*
Y0028575D02*
D03*
D50*
X0122238Y0039942D02*
D03*
X0126683Y0036766D02*
D03*
X0122238Y0033718D02*
D03*
D51*
X0130175Y0040640D02*
D03*
X0129540Y0081915D02*
D03*
D52*
X0113030Y0029972D02*
D03*
X0115570D02*
D03*
X0075311D02*
D03*
X0077851D02*
D03*
X0070104D02*
D03*
X0072644D02*
D03*
X0050419D02*
D03*
X0052959D02*
D03*
D53*
X0089837Y0036447D02*
D03*
X0091222Y0033607D02*
D03*
X0092607Y0036447D02*
D03*
X0093992Y0033607D02*
D03*
X0095377Y0036447D02*
D03*
X0096762Y0033607D02*
D03*
X0098147Y0036447D02*
D03*
X0099532Y0033607D02*
D03*
D54*
X0100917Y0036447D02*
D03*
D55*
X0107872Y0035027D02*
D03*
X0082882D02*
D03*
D56*
X0031750Y0039751D02*
D03*
X0048260D02*
D03*
D57*
X0045720Y0043053D02*
D03*
X0043180D02*
D03*
X0040640D02*
D03*
X0044450Y0045593D02*
D03*
X0041910D02*
D03*
X0039370D02*
D03*
X0038100Y0043053D02*
D03*
X0036830Y0045593D02*
D03*
X0035560Y0043053D02*
D03*
X0034290Y0045593D02*
D03*
D58*
X0057158Y0055085D02*
D03*
X0052158D02*
D03*
D59*
X0123825Y0049911D02*
D03*
M02*
