%FSAX43Y43*%
%MOMM*%
G71*
G01*
G75*
G04 Layer_Color=255*
%ADD10R,1.200X1.400*%
%ADD11O,1.800X0.300*%
%ADD12O,0.300X1.800*%
%ADD13R,0.900X0.800*%
%ADD14R,0.508X1.300*%
%ADD15R,0.800X0.900*%
%ADD16R,0.635X2.032*%
%ADD17O,0.600X2.200*%
%ADD18R,2.200X2.200*%
%ADD19R,1.200X0.300*%
%ADD20R,0.300X1.200*%
%ADD21R,2.300X2.300*%
%ADD22R,2.540X1.016*%
%ADD23R,2.400X3.100*%
%ADD24R,2.200X0.450*%
%ADD25R,0.850X0.600*%
%ADD26R,3.683X3.048*%
%ADD27R,2.300X2.300*%
%ADD28C,0.254*%
%ADD29C,0.600*%
%ADD30C,0.381*%
%ADD31C,0.508*%
%ADD32C,0.889*%
%ADD33C,0.635*%
%ADD34C,0.762*%
%ADD35R,9.525X4.064*%
%ADD36R,1.905X3.302*%
%ADD37R,3.556X4.064*%
%ADD38R,11.049X1.016*%
%ADD39R,6.731X3.175*%
%ADD40R,8.509X2.159*%
%ADD41R,3.175X1.397*%
%ADD42C,0.508*%
%ADD43C,1.524*%
%ADD44C,0.762*%
%ADD45R,1.524X1.524*%
%ADD46C,3.556*%
%ADD47C,1.500*%
%ADD48R,1.500X1.500*%
%ADD49C,4.000*%
%ADD50C,3.810*%
%ADD51R,1.500X1.500*%
%ADD52C,1.600*%
%ADD53C,1.690*%
%ADD54R,1.690X1.690*%
%ADD55C,4.760*%
%ADD56C,2.032*%
%ADD57C,1.270*%
%ADD58C,3.000*%
%ADD59C,1.778*%
%ADD60R,1.300X1.000*%
%ADD61O,2.100X0.450*%
%ADD62R,2.540X2.794*%
%ADD63R,1.800X1.000*%
%ADD64R,2.286X2.286*%
D13*
X0029337Y0060009D02*
D03*
Y0058609D02*
D03*
Y0055656D02*
D03*
Y0057056D02*
D03*
X0039370Y0038035D02*
D03*
Y0039435D02*
D03*
X0041529Y0038035D02*
D03*
Y0039435D02*
D03*
X0073533Y0040448D02*
D03*
Y0041848D02*
D03*
X0072136Y0040448D02*
D03*
Y0041848D02*
D03*
X0051816Y0036387D02*
D03*
Y0034987D02*
D03*
X0050292Y0036387D02*
D03*
Y0034987D02*
D03*
X0113030Y0032193D02*
D03*
Y0033593D02*
D03*
X0032131Y0045658D02*
D03*
Y0044258D02*
D03*
X0057658Y0047563D02*
D03*
Y0046163D02*
D03*
Y0049338D02*
D03*
Y0050738D02*
D03*
X0060579Y0062422D02*
D03*
Y0061022D02*
D03*
D15*
X0125795Y0060198D02*
D03*
X0124395D02*
D03*
X0116143Y0044704D02*
D03*
X0114743D02*
D03*
X0054675Y0059055D02*
D03*
X0053275D02*
D03*
X0054675Y0062230D02*
D03*
X0053275D02*
D03*
X0061657Y0058928D02*
D03*
X0063057D02*
D03*
X0071820Y0057150D02*
D03*
X0070420D02*
D03*
D42*
X0028321Y0063373D02*
D03*
X0030480D02*
D03*
X0031750Y0078359D02*
D03*
X0053467Y0047117D02*
D03*
X0054737Y0049403D02*
D03*
X0051308Y0061341D02*
D03*
X0050546Y0060833D02*
D03*
X0051308Y0065151D02*
D03*
X0050546Y0064516D02*
D03*
X0074803Y0058928D02*
D03*
X0073533Y0060325D02*
D03*
X0043307Y0061214D02*
D03*
X0048768Y0060833D02*
D03*
X0043053Y0064770D02*
D03*
X0032893Y0079121D02*
D03*
X0033782Y0074041D02*
D03*
X0032893Y0069215D02*
D03*
X0029464Y0067945D02*
D03*
X0030099Y0068834D02*
D03*
X0034290Y0066421D02*
D03*
X0035179Y0067056D02*
D03*
X0034290Y0067818D02*
D03*
X0099822Y0057023D02*
D03*
X0098552D02*
D03*
X0101981Y0066294D02*
D03*
X0103124D02*
D03*
Y0078232D02*
D03*
X0104394D02*
D03*
X0084455Y0050661D02*
D03*
X0079375Y0053086D02*
D03*
Y0054229D02*
D03*
X0053086Y0060579D02*
D03*
X0042876Y0057735D02*
D03*
X0038608Y0063373D02*
D03*
X0043434Y0055499D02*
D03*
X0039624Y0054610D02*
D03*
X0035052Y0058420D02*
D03*
X0082169Y0047371D02*
D03*
Y0048768D02*
D03*
X0075184Y0060706D02*
D03*
X0076835Y0061722D02*
D03*
X0068707Y0052070D02*
D03*
X0069215Y0053054D02*
D03*
X0084836Y0060706D02*
D03*
X0087757Y0059309D02*
D03*
X0068541Y0044284D02*
D03*
X0067691Y0045593D02*
D03*
X0035814Y0062865D02*
D03*
X0037211Y0059690D02*
D03*
X0038354Y0059456D02*
D03*
X0085090Y0053721D02*
D03*
X0095504Y0058420D02*
D03*
X0090297Y0058547D02*
D03*
X0087376Y0055245D02*
D03*
X0033557Y0058552D02*
D03*
X0034544Y0052705D02*
D03*
X0062285Y0052015D02*
D03*
X0062992Y0051054D02*
D03*
X0058928Y0056896D02*
D03*
Y0060325D02*
D03*
X0057321Y0060579D02*
D03*
X0061976Y0061087D02*
D03*
X0068199Y0069977D02*
D03*
X0063881Y0060325D02*
D03*
X0069088Y0069215D02*
D03*
X0062230Y0064643D02*
D03*
X0057150Y0074930D02*
D03*
X0064389Y0049276D02*
D03*
Y0050673D02*
D03*
X0033528Y0072557D02*
D03*
X0037338Y0062484D02*
D03*
X0036195Y0053975D02*
D03*
X0107569Y0063881D02*
D03*
D43*
X0104140Y0053467D02*
D03*
X0120523Y0060706D02*
D03*
X0062865Y0038544D02*
D03*
X0060325D02*
D03*
Y0040576D02*
D03*
X0033274Y0032639D02*
D03*
X0035814D02*
D03*
X0046736D02*
D03*
X0044196D02*
D03*
X0127127Y0057912D02*
D03*
X0124333D02*
D03*
X0111887Y0042672D02*
D03*
X0114681D02*
D03*
X0050546Y0050038D02*
D03*
X0029337Y0053594D02*
D03*
D44*
X0125603Y0080264D02*
D03*
Y0075184D02*
D03*
X0078486Y0055130D02*
D03*
X0125603Y0070104D02*
D03*
X0104140D02*
D03*
X0038735Y0060706D02*
D03*
X0027940Y0057150D02*
D03*
X0035191Y0061456D02*
D03*
X0084328Y0058420D02*
D03*
X0074549Y0051181D02*
D03*
X0082550Y0064389D02*
D03*
X0091948Y0070104D02*
D03*
X0045720Y0069596D02*
D03*
X0062865Y0057277D02*
D03*
X0042424Y0072300D02*
D03*
X0065919D02*
D03*
X0089414D02*
D03*
X0111887Y0071755D02*
D03*
X0131064Y0055372D02*
D03*
X0092583Y0050292D02*
D03*
X0045720Y0063754D02*
D03*
Y0068072D02*
D03*
X0046863Y0057720D02*
D03*
X0058928Y0065786D02*
D03*
X0056896Y0077216D02*
D03*
X0100330Y0065024D02*
D03*
X0097790Y0063627D02*
D03*
X0090932Y0065065D02*
D03*
X0066929Y0065646D02*
D03*
X0070477Y0056015D02*
D03*
D45*
X0062865Y0040576D02*
D03*
D46*
X0067945Y0035877D02*
D03*
X0055245D02*
D03*
D47*
X0086995Y0044450D02*
D03*
X0084455D02*
D03*
X0081915D02*
D03*
X0079375D02*
D03*
X0086995Y0041910D02*
D03*
X0084455D02*
D03*
X0081915D02*
D03*
X0130175Y0043180D02*
D03*
X0052832Y0087630D02*
D03*
Y0085090D02*
D03*
X0050292Y0087630D02*
D03*
Y0085090D02*
D03*
X0047752Y0087630D02*
D03*
Y0085090D02*
D03*
X0045212Y0087630D02*
D03*
Y0085090D02*
D03*
X0042672Y0087630D02*
D03*
Y0085090D02*
D03*
X0040132Y0087630D02*
D03*
Y0085090D02*
D03*
X0037592Y0087630D02*
D03*
Y0085090D02*
D03*
X0035052Y0087630D02*
D03*
X0076327D02*
D03*
Y0085090D02*
D03*
X0073787Y0087630D02*
D03*
Y0085090D02*
D03*
X0071247Y0087630D02*
D03*
Y0085090D02*
D03*
X0068707Y0087630D02*
D03*
Y0085090D02*
D03*
X0066167Y0087630D02*
D03*
Y0085090D02*
D03*
X0063627Y0087630D02*
D03*
Y0085090D02*
D03*
X0061087Y0087630D02*
D03*
Y0085090D02*
D03*
X0058547Y0087630D02*
D03*
X0099822D02*
D03*
Y0085090D02*
D03*
X0097282Y0087630D02*
D03*
Y0085090D02*
D03*
X0094742Y0087630D02*
D03*
Y0085090D02*
D03*
X0092202Y0087630D02*
D03*
Y0085090D02*
D03*
X0089662Y0087630D02*
D03*
Y0085090D02*
D03*
X0087122Y0087630D02*
D03*
Y0085090D02*
D03*
X0084582Y0087630D02*
D03*
Y0085090D02*
D03*
X0082042Y0087630D02*
D03*
X0123317D02*
D03*
Y0085090D02*
D03*
X0120777Y0087630D02*
D03*
Y0085090D02*
D03*
X0118237Y0087630D02*
D03*
Y0085090D02*
D03*
X0115697Y0087630D02*
D03*
Y0085090D02*
D03*
X0113157Y0087630D02*
D03*
Y0085090D02*
D03*
X0110617Y0087630D02*
D03*
Y0085090D02*
D03*
X0108077Y0087630D02*
D03*
Y0085090D02*
D03*
X0105537Y0087630D02*
D03*
X0129540Y0064135D02*
D03*
Y0066675D02*
D03*
Y0069215D02*
D03*
Y0071755D02*
D03*
Y0074295D02*
D03*
Y0076835D02*
D03*
Y0079375D02*
D03*
X0103378Y0060198D02*
D03*
D48*
X0079375Y0041910D02*
D03*
X0035052Y0085090D02*
D03*
X0058547D02*
D03*
X0082042D02*
D03*
X0105537D02*
D03*
X0105918Y0060198D02*
D03*
D49*
X0028575Y0028575D02*
D03*
Y0087757D02*
D03*
X0129921D02*
D03*
Y0028575D02*
D03*
D50*
X0122238Y0039942D02*
D03*
X0126683Y0036766D02*
D03*
X0122238Y0033718D02*
D03*
D51*
X0130175Y0040640D02*
D03*
X0129540Y0081915D02*
D03*
D52*
X0113030Y0029972D02*
D03*
X0115570D02*
D03*
X0075311D02*
D03*
X0077851D02*
D03*
X0070104D02*
D03*
X0072644D02*
D03*
X0050419D02*
D03*
X0052959D02*
D03*
D53*
X0089837Y0036447D02*
D03*
X0091222Y0033607D02*
D03*
X0092607Y0036447D02*
D03*
X0093992Y0033607D02*
D03*
X0095377Y0036447D02*
D03*
X0096762Y0033607D02*
D03*
X0098147Y0036447D02*
D03*
X0099532Y0033607D02*
D03*
D54*
X0100917Y0036447D02*
D03*
D55*
X0107872Y0035027D02*
D03*
X0082882D02*
D03*
D56*
X0031750Y0039751D02*
D03*
X0048260D02*
D03*
D57*
X0045720Y0043053D02*
D03*
X0043180D02*
D03*
X0040640D02*
D03*
X0044450Y0045593D02*
D03*
X0041910D02*
D03*
X0039370D02*
D03*
X0038100Y0043053D02*
D03*
X0036830Y0045593D02*
D03*
X0035560Y0043053D02*
D03*
X0034290Y0045593D02*
D03*
D58*
X0057158Y0055085D02*
D03*
X0052158D02*
D03*
D59*
X0123825Y0049911D02*
D03*
D60*
X0035052Y0081826D02*
D03*
Y0080226D02*
D03*
X0036322Y0078397D02*
D03*
Y0076797D02*
D03*
X0037592Y0081826D02*
D03*
Y0080226D02*
D03*
X0038862Y0078397D02*
D03*
Y0076797D02*
D03*
X0040132Y0081826D02*
D03*
Y0080226D02*
D03*
X0041402Y0078397D02*
D03*
Y0076797D02*
D03*
X0047752Y0080226D02*
D03*
Y0081826D02*
D03*
X0049022Y0076797D02*
D03*
Y0078397D02*
D03*
X0051562Y0076797D02*
D03*
Y0078397D02*
D03*
X0050292Y0080226D02*
D03*
Y0081826D02*
D03*
X0052832Y0080226D02*
D03*
Y0081826D02*
D03*
X0054102Y0076797D02*
D03*
Y0078397D02*
D03*
X0042672Y0081826D02*
D03*
Y0080226D02*
D03*
X0046482Y0076797D02*
D03*
Y0078397D02*
D03*
X0043942D02*
D03*
Y0076797D02*
D03*
X0045212Y0080226D02*
D03*
Y0081826D02*
D03*
X0061087D02*
D03*
Y0080226D02*
D03*
X0076327D02*
D03*
Y0081826D02*
D03*
X0090932Y0078397D02*
D03*
Y0076797D02*
D03*
X0093472D02*
D03*
Y0078397D02*
D03*
X0059817D02*
D03*
Y0076797D02*
D03*
X0077597D02*
D03*
Y0078397D02*
D03*
X0089662Y0081826D02*
D03*
Y0080226D02*
D03*
X0094742D02*
D03*
Y0081826D02*
D03*
X0058547D02*
D03*
Y0080226D02*
D03*
X0088392Y0078397D02*
D03*
Y0076797D02*
D03*
X0114427Y0078397D02*
D03*
Y0076797D02*
D03*
X0085852Y0078397D02*
D03*
Y0076797D02*
D03*
X0115697Y0080226D02*
D03*
Y0081826D02*
D03*
X0116967Y0076797D02*
D03*
Y0078397D02*
D03*
X0097282Y0080226D02*
D03*
Y0081826D02*
D03*
X0098552Y0076797D02*
D03*
Y0078397D02*
D03*
X0062357D02*
D03*
Y0076797D02*
D03*
X0075057D02*
D03*
Y0078397D02*
D03*
X0073787Y0080226D02*
D03*
Y0081826D02*
D03*
X0072517Y0076797D02*
D03*
Y0078397D02*
D03*
X0071247Y0080226D02*
D03*
Y0081826D02*
D03*
X0064897Y0078397D02*
D03*
Y0076797D02*
D03*
X0063627Y0081826D02*
D03*
Y0080226D02*
D03*
X0066167Y0081826D02*
D03*
Y0080226D02*
D03*
X0069977Y0076797D02*
D03*
Y0078397D02*
D03*
X0068707Y0080226D02*
D03*
Y0081826D02*
D03*
X0067437Y0078397D02*
D03*
Y0076797D02*
D03*
X0092202Y0080226D02*
D03*
Y0081826D02*
D03*
X0096012Y0076797D02*
D03*
Y0078397D02*
D03*
X0087122Y0081826D02*
D03*
Y0080226D02*
D03*
X0084582Y0081826D02*
D03*
Y0080226D02*
D03*
X0099822D02*
D03*
Y0081826D02*
D03*
X0082042Y0081699D02*
D03*
Y0080099D02*
D03*
X0083312Y0078397D02*
D03*
Y0076797D02*
D03*
X0101092D02*
D03*
Y0078397D02*
D03*
X0113157Y0081826D02*
D03*
Y0080226D02*
D03*
X0108077Y0081826D02*
D03*
Y0080226D02*
D03*
X0109347Y0078397D02*
D03*
Y0076797D02*
D03*
X0120777Y0080226D02*
D03*
Y0081826D02*
D03*
X0118237Y0080226D02*
D03*
Y0081826D02*
D03*
X0110617D02*
D03*
Y0080226D02*
D03*
X0111887Y0078397D02*
D03*
Y0076797D02*
D03*
X0119507D02*
D03*
Y0078397D02*
D03*
X0105537Y0081826D02*
D03*
Y0080226D02*
D03*
X0124587Y0076797D02*
D03*
Y0078397D02*
D03*
X0106807D02*
D03*
Y0076797D02*
D03*
X0122047D02*
D03*
Y0078397D02*
D03*
X0123317Y0080353D02*
D03*
Y0081953D02*
D03*
X0037973Y0053886D02*
D03*
Y0052286D02*
D03*
D61*
X0048281Y0068960D02*
D03*
Y0069610D02*
D03*
Y0070260D02*
D03*
Y0070910D02*
D03*
X0041381D02*
D03*
Y0070260D02*
D03*
Y0069610D02*
D03*
Y0068960D02*
D03*
Y0063765D02*
D03*
Y0064415D02*
D03*
Y0065065D02*
D03*
Y0065715D02*
D03*
Y0066365D02*
D03*
Y0067015D02*
D03*
Y0067665D02*
D03*
Y0068315D02*
D03*
X0048281Y0063765D02*
D03*
Y0064415D02*
D03*
Y0065065D02*
D03*
Y0065715D02*
D03*
Y0066365D02*
D03*
Y0067015D02*
D03*
Y0067665D02*
D03*
Y0068315D02*
D03*
X0071776Y0068960D02*
D03*
Y0069610D02*
D03*
Y0070260D02*
D03*
Y0070910D02*
D03*
X0064876D02*
D03*
Y0070260D02*
D03*
Y0069610D02*
D03*
Y0068960D02*
D03*
Y0063765D02*
D03*
Y0064415D02*
D03*
Y0065065D02*
D03*
Y0065715D02*
D03*
Y0066365D02*
D03*
Y0067015D02*
D03*
Y0067665D02*
D03*
Y0068315D02*
D03*
X0071776Y0063765D02*
D03*
Y0064415D02*
D03*
Y0065065D02*
D03*
Y0065715D02*
D03*
Y0066365D02*
D03*
Y0067015D02*
D03*
Y0067665D02*
D03*
Y0068315D02*
D03*
X0095271Y0068960D02*
D03*
Y0069610D02*
D03*
Y0070260D02*
D03*
Y0070910D02*
D03*
X0088371D02*
D03*
Y0070260D02*
D03*
Y0069610D02*
D03*
Y0068960D02*
D03*
Y0063765D02*
D03*
Y0064415D02*
D03*
Y0065065D02*
D03*
Y0065715D02*
D03*
Y0066365D02*
D03*
Y0067015D02*
D03*
Y0067665D02*
D03*
Y0068315D02*
D03*
X0095271Y0063765D02*
D03*
Y0064415D02*
D03*
Y0065065D02*
D03*
Y0065715D02*
D03*
Y0066365D02*
D03*
Y0067015D02*
D03*
Y0067665D02*
D03*
Y0068315D02*
D03*
X0118766Y0068960D02*
D03*
Y0069610D02*
D03*
Y0070260D02*
D03*
Y0070910D02*
D03*
X0111866D02*
D03*
Y0070260D02*
D03*
Y0069610D02*
D03*
Y0068960D02*
D03*
Y0063765D02*
D03*
Y0064415D02*
D03*
Y0065065D02*
D03*
Y0065715D02*
D03*
Y0066365D02*
D03*
Y0067015D02*
D03*
Y0067665D02*
D03*
Y0068315D02*
D03*
X0118766Y0063765D02*
D03*
Y0064415D02*
D03*
Y0065065D02*
D03*
Y0065715D02*
D03*
Y0066365D02*
D03*
Y0067015D02*
D03*
Y0067665D02*
D03*
Y0068315D02*
D03*
D62*
X0060325Y0050165D02*
D03*
Y0046609D02*
D03*
D63*
X0057043Y0062179D02*
D03*
Y0058979D02*
D03*
M02*
