M48
;Layer_Color=9474304
;FILE_FORMAT=4:3
METRIC
;TYPE=PLATED
T1F00S00C0.254
T2F00S00C0.381
T3F00S00C0.508
T4F00S00C0.762
T5F00S00C0.800
T6F00S00C0.889
T7F00S00C0.900
T8F00S00C1.016
T9F00S00C1.090
T10F00S00C1.270
T11F00S00C1.500
T12F00S00C1.575
T13F00S00C2.286
T14F00S00C2.600
T15F00S00C2.667
T16F00S00C3.260
T17F00S00C3.302
%
T01
X0082169Y0047371
Y0048768
X0084455Y0050661
X0085090Y0053721
X0087376Y0055245
X0087757Y0059309
X0090297Y0058547
X0095504Y0058420
X0098552Y0057023
X0099822
X0101981Y0066294
X0103124
X0107569Y0063881
X0104394Y0078232
X0103124
X0084836Y0060706
X0079375Y0054229
Y0053086
X0069215Y0053054
X0068707Y0052070
X0064389Y0050673
Y0049276
X0062992Y0051054
X0062285Y0052015
X0058928Y0056896
Y0060325
X0057321Y0060579
X0053086
X0051308Y0061341
X0050546Y0060833
X0048768
X0050546Y0064516
X0051308Y0065151
X0043053Y0064770
X0043307Y0061214
X0042876Y0057735
X0043434Y0055499
X0054737Y0049403
X0053467Y0047117
X0067691Y0045593
X0068541Y0044284
X0063881Y0060325
X0061976Y0061087
X0062230Y0064643
X0068199Y0069977
X0069088Y0069215
X0073533Y0060325
X0075184Y0060706
X0074803Y0058928
X0076835Y0061722
X0057150Y0074930
X0033782Y0074041
X0033528Y0072557
X0032893Y0069215
X0034290Y0067818
Y0066421
X0035179Y0067056
X0035814Y0062865
X0037338Y0062484
X0038608Y0063373
X0038354Y0059456
X0037211Y0059690
X0035052Y0058420
X0033557Y0058552
X0034544Y0052705
X0036195Y0053975
X0039624Y0054610
X0030480Y0063373
X0028321
X0029464Y0067945
X0030099Y0068834
X0031750Y0078359
X0032893Y0079121
T02
X0131064Y0055372
X0111887Y0071755
X0104140Y0070104
X0100330Y0065024
X0097790Y0063627
X0090932Y0065065
X0091948Y0070104
X0089414Y0072300
X0082550Y0064389
X0084328Y0058420
X0092583Y0050292
X0074549Y0051181
X0078486Y0055130
X0070477Y0056015
X0062865Y0057277
X0066929Y0065646
X0065919Y0072300
X0058928Y0065786
X0056896Y0077216
X0045720Y0069596
Y0068072
Y0063754
X0046863Y0057720
X0042424Y0072300
X0038735Y0060706
X0035191Y0061456
X0027940Y0057150
T03
X0125603Y0070104
Y0075184
Y0080264
T04
X0060325Y0038544
X0062865
X0120523Y0060706
X0124333Y0057912
X0127127
X0104140Y0053467
X0111887Y0042672
X0114681
X0062865Y0040576
X0060325
X0050546Y0050038
X0029337Y0053594
T05
X0050419Y0029972
X0052959
X0070104
X0072644
X0075311
X0077851
X0113030
X0115570
T06
X0040640Y0043053
X0043180
X0045720
X0044450Y0045593
X0041910
X0039370
X0036830
X0034290
X0035560Y0043053
X0038100
T07
X0130175Y0040640
Y0043180
X0129540Y0064135
Y0066675
Y0069215
Y0071755
Y0074295
Y0076835
X0105918Y0060198
X0103378
X0086995Y0044450
X0084455
X0081915
X0079375
Y0041910
X0081915
X0084455
X0086995
X0037592Y0085090
Y0087630
X0035052
Y0085090
X0040132
X0042672
X0045212
X0047752
X0050292
X0052832
Y0087630
X0050292
X0047752
X0045212
X0042672
X0040132
X0058547
X0061087
X0063627
X0066167
X0068707
X0071247
X0073787
X0076327
Y0085090
X0073787
X0071247
X0068707
X0066167
X0063627
X0061087
X0058547
X0082042
X0084582
X0087122
X0089662
X0092202
X0094742
X0097282
X0099822
Y0087630
X0097282
X0094742
X0092202
X0089662
X0087122
X0084582
X0082042
X0105537
X0108077
X0110617
X0113157
X0115697
X0118237
Y0085090
X0115697
X0113157
X0110617
X0108077
X0105537
X0120777
X0123317
Y0087630
X0120777
X0129540Y0081915
Y0079375
T08
X0033274Y0032639
X0035814
X0044196
X0046736
T09
X0091222Y0033607
X0093992
X0096762
X0099532
X0098147Y0036447
X0100917
X0095377
X0092607
X0089837
T10
X0123825Y0049911
T11
X0052158Y0055085
X0057158
T12
X0048260Y0039751
X0031750
T13
X0055245Y0035877
X0067945
T14
X0028575Y0028575
X0129921
X0028575Y0087757
X0129921
T15
X0122238Y0033718
X0126683Y0036766
X0122238Y0039942
T16
X0082882Y0035027
X0107872
T17
X0034290Y0036703
X0045720
M30
