%FSAX43Y43*%
%MOMM*%
G71*
G01*
G75*
G04 Layer_Color=128*
%ADD10R,1.200X1.400*%
%ADD11O,1.800X0.300*%
%ADD12O,0.300X1.800*%
%ADD13R,0.900X0.800*%
%ADD14R,0.508X1.300*%
%ADD15R,0.800X0.900*%
%ADD16R,0.635X2.032*%
%ADD17O,0.600X2.200*%
%ADD18R,2.200X2.200*%
%ADD19R,1.200X0.300*%
%ADD20R,0.300X1.200*%
%ADD21R,2.300X2.300*%
%ADD22R,2.540X1.016*%
%ADD23R,2.400X3.100*%
%ADD24R,2.200X0.450*%
%ADD25R,0.850X0.600*%
%ADD26R,3.683X3.048*%
%ADD27R,2.300X2.300*%
%ADD28C,0.254*%
%ADD29C,0.600*%
%ADD30C,0.381*%
%ADD31C,0.508*%
%ADD32C,0.889*%
%ADD33C,0.635*%
%ADD34C,0.762*%
%ADD35R,9.525X4.064*%
%ADD36R,1.905X3.302*%
%ADD37R,3.556X4.064*%
%ADD38R,11.049X1.016*%
%ADD39R,6.731X3.175*%
%ADD40R,8.509X2.159*%
%ADD41R,3.175X1.397*%
%ADD42C,0.508*%
%ADD43C,1.524*%
%ADD44C,0.762*%
%ADD45R,1.524X1.524*%
%ADD46C,3.556*%
%ADD47C,1.500*%
%ADD48R,1.500X1.500*%
%ADD49C,4.000*%
%ADD50C,3.810*%
%ADD51R,1.500X1.500*%
%ADD52C,1.600*%
%ADD53C,1.690*%
%ADD54R,1.690X1.690*%
%ADD55C,4.760*%
%ADD56C,2.032*%
%ADD57C,1.270*%
%ADD58C,3.000*%
%ADD59C,1.778*%
%ADD60R,1.300X1.000*%
%ADD61O,2.100X0.450*%
%ADD62R,2.540X2.794*%
%ADD63R,1.800X1.000*%
%ADD64R,2.286X2.286*%
%ADD65C,0.250*%
%ADD66C,0.100*%
%ADD67C,0.127*%
%ADD68C,0.200*%
%ADD69C,0.203*%
%ADD70R,1.403X1.603*%
%ADD71O,2.003X0.503*%
%ADD72O,0.503X2.003*%
%ADD73R,1.103X1.003*%
%ADD74R,0.711X1.503*%
%ADD75R,1.003X1.103*%
%ADD76R,0.838X2.235*%
%ADD77O,0.803X2.403*%
%ADD78R,1.403X0.503*%
%ADD79R,0.503X1.403*%
%ADD80R,2.503X2.503*%
%ADD81R,2.743X1.219*%
%ADD82R,2.603X3.303*%
%ADD83R,2.403X0.653*%
%ADD84R,1.053X0.803*%
%ADD85R,3.886X3.251*%
%ADD86R,2.503X2.503*%
%ADD87C,0.711*%
%ADD88C,1.727*%
%ADD89C,0.965*%
%ADD90R,1.727X1.727*%
%ADD91C,3.759*%
%ADD92C,1.703*%
%ADD93R,1.703X1.703*%
%ADD94C,4.203*%
%ADD95C,4.013*%
%ADD96R,1.703X1.703*%
%ADD97C,1.803*%
%ADD98C,1.893*%
%ADD99R,1.893X1.893*%
%ADD100C,4.963*%
%ADD101C,0.203*%
%ADD102C,2.235*%
%ADD103C,1.473*%
%ADD104C,3.203*%
%ADD105C,1.981*%
%ADD106R,1.503X1.203*%
%ADD107O,2.303X0.653*%
%ADD108R,2.743X2.997*%
%ADD109R,2.003X1.203*%
D13*
X0029337Y0060009D02*
D03*
Y0058609D02*
D03*
Y0055656D02*
D03*
Y0057056D02*
D03*
X0039370Y0038035D02*
D03*
Y0039435D02*
D03*
X0041529Y0038035D02*
D03*
Y0039435D02*
D03*
X0073533Y0040448D02*
D03*
Y0041848D02*
D03*
X0072136Y0040448D02*
D03*
Y0041848D02*
D03*
X0051816Y0036387D02*
D03*
Y0034987D02*
D03*
X0050292Y0036387D02*
D03*
Y0034987D02*
D03*
X0113030Y0032193D02*
D03*
Y0033593D02*
D03*
X0032131Y0045658D02*
D03*
Y0044258D02*
D03*
X0057658Y0047563D02*
D03*
Y0046163D02*
D03*
Y0049338D02*
D03*
Y0050738D02*
D03*
X0060579Y0062422D02*
D03*
Y0061022D02*
D03*
D15*
X0125795Y0060198D02*
D03*
X0124395D02*
D03*
X0116143Y0044704D02*
D03*
X0114743D02*
D03*
X0054675Y0059055D02*
D03*
X0053275D02*
D03*
X0054675Y0062230D02*
D03*
X0053275D02*
D03*
X0061657Y0058928D02*
D03*
X0063057D02*
D03*
X0071820Y0057150D02*
D03*
X0070420D02*
D03*
D60*
X0035052Y0081826D02*
D03*
Y0080226D02*
D03*
X0036322Y0078397D02*
D03*
Y0076797D02*
D03*
X0037592Y0081826D02*
D03*
Y0080226D02*
D03*
X0038862Y0078397D02*
D03*
Y0076797D02*
D03*
X0040132Y0081826D02*
D03*
Y0080226D02*
D03*
X0041402Y0078397D02*
D03*
Y0076797D02*
D03*
X0047752Y0080226D02*
D03*
Y0081826D02*
D03*
X0049022Y0076797D02*
D03*
Y0078397D02*
D03*
X0051562Y0076797D02*
D03*
Y0078397D02*
D03*
X0050292Y0080226D02*
D03*
Y0081826D02*
D03*
X0052832Y0080226D02*
D03*
Y0081826D02*
D03*
X0054102Y0076797D02*
D03*
Y0078397D02*
D03*
X0042672Y0081826D02*
D03*
Y0080226D02*
D03*
X0046482Y0076797D02*
D03*
Y0078397D02*
D03*
X0043942D02*
D03*
Y0076797D02*
D03*
X0045212Y0080226D02*
D03*
Y0081826D02*
D03*
X0061087D02*
D03*
Y0080226D02*
D03*
X0076327D02*
D03*
Y0081826D02*
D03*
X0090932Y0078397D02*
D03*
Y0076797D02*
D03*
X0093472D02*
D03*
Y0078397D02*
D03*
X0059817D02*
D03*
Y0076797D02*
D03*
X0077597D02*
D03*
Y0078397D02*
D03*
X0089662Y0081826D02*
D03*
Y0080226D02*
D03*
X0094742D02*
D03*
Y0081826D02*
D03*
X0058547D02*
D03*
Y0080226D02*
D03*
X0088392Y0078397D02*
D03*
Y0076797D02*
D03*
X0114427Y0078397D02*
D03*
Y0076797D02*
D03*
X0085852Y0078397D02*
D03*
Y0076797D02*
D03*
X0115697Y0080226D02*
D03*
Y0081826D02*
D03*
X0116967Y0076797D02*
D03*
Y0078397D02*
D03*
X0097282Y0080226D02*
D03*
Y0081826D02*
D03*
X0098552Y0076797D02*
D03*
Y0078397D02*
D03*
X0062357D02*
D03*
Y0076797D02*
D03*
X0075057D02*
D03*
Y0078397D02*
D03*
X0073787Y0080226D02*
D03*
Y0081826D02*
D03*
X0072517Y0076797D02*
D03*
Y0078397D02*
D03*
X0071247Y0080226D02*
D03*
Y0081826D02*
D03*
X0064897Y0078397D02*
D03*
Y0076797D02*
D03*
X0063627Y0081826D02*
D03*
Y0080226D02*
D03*
X0066167Y0081826D02*
D03*
Y0080226D02*
D03*
X0069977Y0076797D02*
D03*
Y0078397D02*
D03*
X0068707Y0080226D02*
D03*
Y0081826D02*
D03*
X0067437Y0078397D02*
D03*
Y0076797D02*
D03*
X0092202Y0080226D02*
D03*
Y0081826D02*
D03*
X0096012Y0076797D02*
D03*
Y0078397D02*
D03*
X0087122Y0081826D02*
D03*
Y0080226D02*
D03*
X0084582Y0081826D02*
D03*
Y0080226D02*
D03*
X0099822D02*
D03*
Y0081826D02*
D03*
X0082042Y0081699D02*
D03*
Y0080099D02*
D03*
X0083312Y0078397D02*
D03*
Y0076797D02*
D03*
X0101092D02*
D03*
Y0078397D02*
D03*
X0113157Y0081826D02*
D03*
Y0080226D02*
D03*
X0108077Y0081826D02*
D03*
Y0080226D02*
D03*
X0109347Y0078397D02*
D03*
Y0076797D02*
D03*
X0120777Y0080226D02*
D03*
Y0081826D02*
D03*
X0118237Y0080226D02*
D03*
Y0081826D02*
D03*
X0110617D02*
D03*
Y0080226D02*
D03*
X0111887Y0078397D02*
D03*
Y0076797D02*
D03*
X0119507D02*
D03*
Y0078397D02*
D03*
X0105537Y0081826D02*
D03*
Y0080226D02*
D03*
X0124587Y0076797D02*
D03*
Y0078397D02*
D03*
X0106807D02*
D03*
Y0076797D02*
D03*
X0122047D02*
D03*
Y0078397D02*
D03*
X0123317Y0080353D02*
D03*
Y0081953D02*
D03*
X0037973Y0053886D02*
D03*
Y0052286D02*
D03*
D61*
X0048281Y0068960D02*
D03*
Y0069610D02*
D03*
Y0070260D02*
D03*
Y0070910D02*
D03*
X0041381D02*
D03*
Y0070260D02*
D03*
Y0069610D02*
D03*
Y0068960D02*
D03*
Y0063765D02*
D03*
Y0064415D02*
D03*
Y0065065D02*
D03*
Y0065715D02*
D03*
Y0066365D02*
D03*
Y0067015D02*
D03*
Y0067665D02*
D03*
Y0068315D02*
D03*
X0048281Y0063765D02*
D03*
Y0064415D02*
D03*
Y0065065D02*
D03*
Y0065715D02*
D03*
Y0066365D02*
D03*
Y0067015D02*
D03*
Y0067665D02*
D03*
Y0068315D02*
D03*
X0071776Y0068960D02*
D03*
Y0069610D02*
D03*
Y0070260D02*
D03*
Y0070910D02*
D03*
X0064876D02*
D03*
Y0070260D02*
D03*
Y0069610D02*
D03*
Y0068960D02*
D03*
Y0063765D02*
D03*
Y0064415D02*
D03*
Y0065065D02*
D03*
Y0065715D02*
D03*
Y0066365D02*
D03*
Y0067015D02*
D03*
Y0067665D02*
D03*
Y0068315D02*
D03*
X0071776Y0063765D02*
D03*
Y0064415D02*
D03*
Y0065065D02*
D03*
Y0065715D02*
D03*
Y0066365D02*
D03*
Y0067015D02*
D03*
Y0067665D02*
D03*
Y0068315D02*
D03*
X0095271Y0068960D02*
D03*
Y0069610D02*
D03*
Y0070260D02*
D03*
Y0070910D02*
D03*
X0088371D02*
D03*
Y0070260D02*
D03*
Y0069610D02*
D03*
Y0068960D02*
D03*
Y0063765D02*
D03*
Y0064415D02*
D03*
Y0065065D02*
D03*
Y0065715D02*
D03*
Y0066365D02*
D03*
Y0067015D02*
D03*
Y0067665D02*
D03*
Y0068315D02*
D03*
X0095271Y0063765D02*
D03*
Y0064415D02*
D03*
Y0065065D02*
D03*
Y0065715D02*
D03*
Y0066365D02*
D03*
Y0067015D02*
D03*
Y0067665D02*
D03*
Y0068315D02*
D03*
X0118766Y0068960D02*
D03*
Y0069610D02*
D03*
Y0070260D02*
D03*
Y0070910D02*
D03*
X0111866D02*
D03*
Y0070260D02*
D03*
Y0069610D02*
D03*
Y0068960D02*
D03*
Y0063765D02*
D03*
Y0064415D02*
D03*
Y0065065D02*
D03*
Y0065715D02*
D03*
Y0066365D02*
D03*
Y0067015D02*
D03*
Y0067665D02*
D03*
Y0068315D02*
D03*
X0118766Y0063765D02*
D03*
Y0064415D02*
D03*
Y0065065D02*
D03*
Y0065715D02*
D03*
Y0066365D02*
D03*
Y0067015D02*
D03*
Y0067665D02*
D03*
Y0068315D02*
D03*
D62*
X0060325Y0050165D02*
D03*
Y0046609D02*
D03*
D63*
X0057043Y0062179D02*
D03*
Y0058979D02*
D03*
M02*
