%FSLAX43Y43*%
%MOMM*%
%SFA1B1*%

%IPPOS*%
%ADD12R,0.799998X0.899998*%
%ADD16R,0.899998X0.799998*%
%ADD19C,0.380999*%
%ADD20C,0.253999*%
%ADD21C,0.888998*%
%ADD22C,0.761998*%
%ADD24C,1.015998*%
%ADD25C,1.269997*%
%ADD28R,1.269997X1.269997*%
%ADD36R,2.031996X2.031996*%
%ADD38R,2.031996X2.158996*%
%ADD40R,2.793994X2.793994*%
%ADD54C,0.507999*%
%ADD55C,1.523997*%
%ADD56C,1.015998*%
%ADD57R,1.499997X1.499997*%
%ADD58C,1.499997*%
%ADD59R,1.499997X1.499997*%
%ADD60C,3.999992*%
%ADD61R,1.523997X1.523997*%
%ADD62R,1.999996X1.999996*%
%ADD63C,1.999996*%
%ADD64C,1.599997*%
%ADD65C,1.777996*%
%ADD66R,1.099998X1.699997*%
%ADD67R,2.412995X3.047994*%
%ADD68R,2.412995X2.539995*%
%ADD69R,1.897996X2.031996*%
%ADD70R,1.396997X1.396997*%
%ADD71R,2.285995X2.285995*%
%ADD72R,1.897996X2.023996*%
%ADD73R,1.897996X2.040996*%
%ADD74R,1.897996X2.214996*%
%LNlp_led_cube_8x8x8-1*%
%LPD*%
G36*
X138676Y46107D02*
X127972D01*
X127960Y46234*
X128037Y46249*
X128163Y46333*
X137180Y55350*
X137264Y55476*
X137293Y55625*
Y74802*
X137269Y74926*
X137264Y74951*
X137180Y75077*
X136018Y76238*
X135987Y76397*
X135896Y76532*
Y76750*
X136212*
Y78058*
Y78150*
Y78677*
X134804*
Y78150*
Y78058*
Y76750*
X135120*
Y76532*
X135029Y76397*
X134990Y76199*
X135029Y76001*
X135142Y75833*
X135310Y75720*
X135469Y75689*
X136517Y74641*
Y55786*
X136014Y55283*
X135896Y55332*
Y60880*
X135987Y61015*
X136026Y61213*
X135987Y61411*
X135896Y61546*
Y61764*
X136212*
Y63072*
Y63164*
Y63691*
X134804*
Y63164*
Y63072*
Y61764*
X135120*
Y61546*
X135029Y61411*
X134990Y61213*
X135029Y61015*
X135120Y60880*
Y55151*
X134363Y54394*
X134245Y54443*
Y66894*
X135547Y68196*
X135706Y68227*
X135874Y68340*
X135987Y68508*
X136026Y68706*
X135987Y68904*
X135896Y69039*
Y69257*
X136212*
Y70565*
Y70657*
Y71184*
X134804*
Y70657*
Y70565*
Y69257*
X135120*
Y69039*
X135029Y68904*
X134998Y68745*
X133582Y67330*
X133498Y67204*
X133469Y67055*
Y54262*
X127219Y48012*
X120193*
X120145Y48130*
X121168Y49153*
X121182Y49151*
X121445Y49186*
X121689Y49287*
X121898Y49448*
X122059Y49658*
X122161Y49902*
X122195Y50164*
X122161Y50426*
X122059Y50670*
X121898Y50880*
X121689Y51041*
X121445Y51142*
X121182Y51177*
X120920Y51142*
X120676Y51041*
X120466Y50880*
X120305Y50670*
X120204Y50426*
X120170Y50164*
X120172Y50150*
X119636Y49614*
X119531Y49685*
X119621Y49902*
X119655Y50164*
X119621Y50426*
X119519Y50670*
X119358Y50880*
X119149Y51041*
X118905Y51142*
X118642Y51177*
X118380Y51142*
X118136Y51041*
X117926Y50880*
X117765Y50670*
X117664Y50426*
X117630Y50164*
X117664Y49902*
X117682Y49858*
X117577Y49788*
X117290Y50075*
Y55587*
X119623Y57921*
X119735Y58067*
X119806Y58237*
X119830Y58419*
Y59983*
X119867Y60074*
X119894Y60273*
X119867Y60472*
X119791Y60657*
X119668Y60817*
X119509Y60939*
X119324Y61016*
X119125Y61042*
X118926Y61016*
X118741Y60939*
X118582Y60817*
X118459Y60657*
X118383Y60472*
X118356Y60273*
X118383Y60074*
X118420Y59983*
Y58711*
X116087Y56377*
X115975Y56231*
X115946Y56161*
X115904Y56061*
X115880Y55879*
Y49783*
X115904Y49601*
X115946Y49501*
X115975Y49431*
X116087Y49285*
X117242Y48130*
X117193Y48012*
X116873*
X111780Y53106*
X111654Y53190*
X111505Y53219*
X106436*
X106388Y53337*
X106227Y53547*
X106017Y53708*
X105773Y53809*
X105511Y53844*
X105248Y53809*
X105004Y53708*
X104795Y53547*
X104634Y53337*
X104532Y53093*
X104498Y52831*
X104532Y52569*
X104634Y52325*
X104795Y52115*
X105004Y51954*
X105248Y51853*
X105511Y51818*
X105773Y51853*
X106017Y51954*
X106227Y52115*
X106388Y52325*
X106436Y52443*
X111344*
X112990Y50797*
X112941Y50679*
X106436*
X106388Y50797*
X106227Y51007*
X106017Y51168*
X105773Y51269*
X105511Y51304*
X105248Y51269*
X105004Y51168*
X104795Y51007*
X104634Y50797*
X104532Y50553*
X104498Y50291*
X104532Y50029*
X104634Y49785*
X104795Y49575*
X105004Y49414*
X105248Y49313*
X105511Y49278*
X105773Y49313*
X106017Y49414*
X106227Y49575*
X106388Y49785*
X106436Y49903*
X112995*
X115784Y47114*
X115735Y46996*
X114587*
X112923Y48661*
X112797Y48745*
X112648Y48774*
X105037*
X103900Y49911*
X103949Y50029*
X103983Y50291*
X103949Y50553*
X103848Y50797*
X103687Y51007*
X103477Y51168*
X103233Y51269*
X102971Y51304*
X102709Y51269*
X102464Y51168*
X102255Y51007*
X102094Y50797*
X101992Y50553*
X101958Y50291*
X101992Y50029*
X102094Y49785*
X102255Y49575*
X102464Y49414*
X102709Y49313*
X102971Y49278*
X103233Y49313*
X103351Y49362*
X104601Y48111*
X104727Y48027*
X104876Y47998*
X112487*
X114151Y46333*
X114277Y46249*
X114302Y46244*
X114354Y46234*
X114342Y46107*
X25787*
Y119626*
X138676*
Y46107*
G37*
%LNlp_led_cube_8x8x8-2*%
%LPC*%
G36*
X129158Y77342D02*
X128792D01*
X128806Y77271*
X128919Y77103*
X129087Y76990*
X129158Y76976*
Y77342*
G37*
G36*
X89783Y78827D02*
X88175D01*
Y76619*
X89783*
Y77101*
X90670*
X90723Y77032*
X90933Y76871*
X91177Y76770*
X91439Y76736*
X91701Y76770*
X91945Y76871*
X92155Y77032*
X92316Y77242*
X92417Y77486*
X92452Y77748*
X92417Y78010*
X92316Y78255*
X92155Y78464*
X91945Y78625*
X91701Y78727*
X91439Y78761*
X91177Y78727*
X90933Y78625*
X90723Y78464*
X90670Y78396*
X89783*
Y78827*
G37*
G36*
X129158Y77962D02*
X129087Y77948D01*
X128919Y77835*
X128806Y77667*
X128792Y77596*
X129158*
Y77962*
G37*
G36*
X129778Y77342D02*
X129412D01*
Y76976*
X129483Y76990*
X129651Y77103*
X129764Y77271*
X129778Y77342*
G37*
G36*
X49778Y78827D02*
X48170D01*
Y76619*
X49778*
Y77101*
X50665*
X50718Y77032*
X50928Y76871*
X51172Y76770*
X51434Y76736*
X51696Y76770*
X51940Y76871*
X52150Y77032*
X52311Y77242*
X52412Y77486*
X52447Y77748*
X52412Y78010*
X52311Y78255*
X52150Y78464*
X51940Y78625*
X51696Y78727*
X51434Y78761*
X51172Y78727*
X50928Y78625*
X50718Y78464*
X50665Y78396*
X49778*
Y78827*
G37*
G36*
X69214Y78748D02*
X68949Y78713D01*
X68702Y78610*
X68489Y78448*
X68327Y78235*
X68224Y77988*
X68189Y77723*
X68224Y77458*
X68327Y77211*
X68489Y76998*
X68702Y76836*
X68949Y76733*
X69214Y76698*
X69479Y76733*
X69726Y76836*
X69939Y76998*
X70101Y77211*
X70204Y77458*
X70239Y77723*
X70204Y77988*
X70101Y78235*
X69939Y78448*
X69726Y78610*
X69479Y78713*
X69214Y78748*
G37*
G36*
X59938Y78827D02*
X58330D01*
Y76619*
X59938*
Y77076*
X60810*
X60869Y76998*
X61082Y76836*
X61329Y76733*
X61594Y76698*
X61859Y76733*
X62106Y76836*
X62319Y76998*
X62481Y77211*
X62584Y77458*
X62619Y77723*
X62584Y77988*
X62481Y78235*
X62319Y78448*
X62106Y78610*
X61859Y78713*
X61594Y78748*
X61329Y78713*
X61082Y78610*
X60869Y78448*
X60810Y78370*
X59938*
Y78827*
G37*
G36*
X109219Y78748D02*
X108954Y78713D01*
X108707Y78610*
X108494Y78448*
X108332Y78235*
X108229Y77988*
X108194Y77723*
X108229Y77458*
X108332Y77211*
X108494Y76998*
X108707Y76836*
X108954Y76733*
X109219Y76698*
X109484Y76733*
X109731Y76836*
X109944Y76998*
X110106Y77211*
X110209Y77458*
X110244Y77723*
X110209Y77988*
X110106Y78235*
X109944Y78448*
X109731Y78610*
X109484Y78713*
X109219Y78748*
G37*
G36*
X99943Y78827D02*
X98335D01*
Y76619*
X99943*
Y77076*
X100815*
X100874Y76998*
X101087Y76836*
X101334Y76733*
X101599Y76698*
X101864Y76733*
X102111Y76836*
X102324Y76998*
X102486Y77211*
X102589Y77458*
X102624Y77723*
X102589Y77988*
X102486Y78235*
X102324Y78448*
X102111Y78610*
X101864Y78713*
X101599Y78748*
X101334Y78713*
X101087Y78610*
X100874Y78448*
X100815Y78370*
X99943*
Y78827*
G37*
G36*
X129412Y77962D02*
Y77596D01*
X129778*
X129764Y77667*
X129651Y77835*
X129483Y77948*
X129412Y77962*
G37*
G36*
X124579Y79458D02*
X124002D01*
Y78931*
X124579*
Y79458*
G37*
G36*
X123748D02*
X123171D01*
Y78931*
X123748*
Y79458*
G37*
G36*
X136212D02*
X135635D01*
Y78931*
X136212*
Y79458*
G37*
G36*
X135381D02*
X134804D01*
Y78931*
X135381*
Y79458*
G37*
G36*
X57238Y78827D02*
X55630D01*
Y78396*
X54743*
X54690Y78464*
X54480Y78625*
X54236Y78727*
X53974Y78761*
X53712Y78727*
X53468Y78625*
X53258Y78464*
X53097Y78255*
X52996Y78010*
X52961Y77748*
X52996Y77486*
X53097Y77242*
X53258Y77032*
X53468Y76871*
X53712Y76770*
X53974Y76736*
X54236Y76770*
X54480Y76871*
X54690Y77032*
X54743Y77101*
X55630*
Y76619*
X57238*
Y78827*
G37*
G36*
X47078D02*
X45470D01*
Y78370*
X44598*
X44539Y78448*
X44326Y78610*
X44079Y78713*
X43814Y78748*
X43549Y78713*
X43302Y78610*
X43089Y78448*
X42927Y78235*
X42824Y77988*
X42789Y77723*
X42824Y77458*
X42927Y77211*
X43089Y76998*
X43302Y76836*
X43549Y76733*
X43814Y76698*
X44079Y76733*
X44326Y76836*
X44539Y76998*
X44598Y77076*
X45470*
Y76619*
X47078*
Y78827*
G37*
G36*
X59938Y81367D02*
X58330D01*
Y79159*
X59938*
Y79616*
X60810*
X60869Y79538*
X61082Y79376*
X61329Y79273*
X61594Y79238*
X61859Y79273*
X62106Y79376*
X62319Y79538*
X62481Y79751*
X62584Y79998*
X62619Y80263*
X62584Y80528*
X62481Y80775*
X62319Y80988*
X62106Y81150*
X61859Y81253*
X61594Y81288*
X61329Y81253*
X61082Y81150*
X60869Y80988*
X60810Y80910*
X59938*
Y81367*
G37*
G36*
X97243Y78827D02*
X95635D01*
Y78370*
X94767*
X94695Y78464*
X94485Y78625*
X94241Y78727*
X93979Y78761*
X93717Y78727*
X93473Y78625*
X93263Y78464*
X93102Y78255*
X93001Y78010*
X92966Y77748*
X93001Y77486*
X93102Y77242*
X93263Y77032*
X93473Y76871*
X93717Y76770*
X93979Y76736*
X94241Y76770*
X94485Y76871*
X94695Y77032*
X94728Y77076*
X95635*
Y76619*
X97243*
Y78827*
G37*
G36*
X87083D02*
X85475D01*
Y78370*
X84603*
X84544Y78448*
X84331Y78610*
X84084Y78713*
X83819Y78748*
X83554Y78713*
X83307Y78610*
X83094Y78448*
X82932Y78235*
X82829Y77988*
X82794Y77723*
X82829Y77458*
X82932Y77211*
X83094Y76998*
X83307Y76836*
X83554Y76733*
X83819Y76698*
X84084Y76733*
X84331Y76836*
X84544Y76998*
X84603Y77076*
X85475*
Y76619*
X87083*
Y78827*
G37*
G36*
X97243Y73747D02*
X95635D01*
Y73290*
X94767*
X94695Y73384*
X94485Y73545*
X94241Y73647*
X93979Y73681*
X93717Y73647*
X93473Y73545*
X93263Y73384*
X93102Y73175*
X93001Y72931*
X92966Y72668*
X93001Y72406*
X93102Y72162*
X93263Y71952*
X93473Y71791*
X93717Y71690*
X93979Y71656*
X94241Y71690*
X94485Y71791*
X94695Y71952*
X94728Y71996*
X95635*
Y71539*
X97243*
Y73747*
G37*
G36*
X87083D02*
X85475D01*
Y73290*
X84603*
X84544Y73368*
X84331Y73530*
X84084Y73633*
X83819Y73668*
X83554Y73633*
X83307Y73530*
X83094Y73368*
X82932Y73155*
X82829Y72908*
X82794Y72643*
X82829Y72378*
X82932Y72131*
X83094Y71918*
X83307Y71756*
X83554Y71653*
X83819Y71618*
X84084Y71653*
X84331Y71756*
X84544Y71918*
X84603Y71996*
X85475*
Y71539*
X87083*
Y73747*
G37*
G36*
X57238D02*
X55630D01*
Y73316*
X54743*
X54690Y73384*
X54480Y73545*
X54236Y73647*
X53974Y73681*
X53712Y73647*
X53468Y73545*
X53258Y73384*
X53097Y73175*
X52996Y72931*
X52961Y72668*
X52996Y72406*
X53097Y72162*
X53258Y71952*
X53468Y71791*
X53712Y71690*
X53974Y71656*
X54236Y71690*
X54480Y71791*
X54690Y71952*
X54743Y72021*
X55630*
Y71539*
X57238*
Y73747*
G37*
G36*
X69214Y76208D02*
X68949Y76173D01*
X68702Y76070*
X68489Y75908*
X68327Y75695*
X68224Y75448*
X68189Y75183*
X68224Y74918*
X68327Y74671*
X68489Y74458*
X68702Y74296*
X68949Y74193*
X69214Y74158*
X69479Y74193*
X69726Y74296*
X69939Y74458*
X70101Y74671*
X70204Y74918*
X70239Y75183*
X70204Y75448*
X70101Y75695*
X69939Y75908*
X69726Y76070*
X69479Y76173*
X69214Y76208*
G37*
G36*
X59938Y76287D02*
X58330D01*
Y74079*
X59938*
Y74536*
X60810*
X60869Y74458*
X61082Y74296*
X61329Y74193*
X61594Y74158*
X61859Y74193*
X62106Y74296*
X62319Y74458*
X62481Y74671*
X62584Y74918*
X62619Y75183*
X62584Y75448*
X62481Y75695*
X62319Y75908*
X62106Y76070*
X61859Y76173*
X61594Y76208*
X61329Y76173*
X61082Y76070*
X60869Y75908*
X60810Y75830*
X59938*
Y76287*
G37*
G36*
X121157Y72882D02*
Y72516D01*
X121523*
X121509Y72587*
X121396Y72755*
X121228Y72868*
X121157Y72882*
G37*
G36*
X120903D02*
X120832Y72868D01*
X120664Y72755*
X120551Y72587*
X120537Y72516*
X120903*
Y72882*
G37*
G36*
X132460D02*
X132389Y72868D01*
X132221Y72755*
X132108Y72587*
X132094Y72516*
X132460*
Y72882*
G37*
G36*
X47078Y73747D02*
X45470D01*
Y73290*
X44598*
X44539Y73368*
X44326Y73530*
X44079Y73633*
X43814Y73668*
X43549Y73633*
X43302Y73530*
X43089Y73368*
X42927Y73155*
X42824Y72908*
X42789Y72643*
X42824Y72378*
X42927Y72131*
X43089Y71918*
X43302Y71756*
X43549Y71653*
X43814Y71618*
X44079Y71653*
X44326Y71756*
X44539Y71918*
X44598Y71996*
X45470*
Y71539*
X47078*
Y73747*
G37*
G36*
X132714Y72882D02*
Y72516D01*
X133080*
X133066Y72587*
X132953Y72755*
X132785Y72868*
X132714Y72882*
G37*
G36*
X47078Y76287D02*
X45470D01*
Y75830*
X44598*
X44539Y75908*
X44326Y76070*
X44079Y76173*
X43814Y76208*
X43549Y76173*
X43302Y76070*
X43089Y75908*
X42927Y75695*
X42824Y75448*
X42789Y75183*
X42824Y74918*
X42927Y74671*
X43089Y74458*
X43302Y74296*
X43549Y74193*
X43814Y74158*
X44079Y74193*
X44326Y74296*
X44539Y74458*
X44598Y74536*
X45470*
Y74079*
X47078*
Y76287*
G37*
G36*
X130758Y76028D02*
X130559Y76002D01*
X130374Y75925*
X130215Y75803*
X130093Y75643*
X130016Y75458*
X129990Y75259*
X130016Y75060*
X130093Y74875*
X130215Y74716*
X130374Y74594*
X130559Y74517*
X130758Y74491*
X130957Y74517*
X131142Y74594*
X131302Y74716*
X131424Y74875*
X131501Y75060*
X131527Y75259*
X131501Y75458*
X131424Y75643*
X131302Y75803*
X131142Y75925*
X130957Y76002*
X130758Y76028*
G37*
G36*
X87083Y76287D02*
X85475D01*
Y75830*
X84603*
X84544Y75908*
X84331Y76070*
X84084Y76173*
X83819Y76208*
X83554Y76173*
X83307Y76070*
X83094Y75908*
X82932Y75695*
X82829Y75448*
X82794Y75183*
X82829Y74918*
X82932Y74671*
X83094Y74458*
X83307Y74296*
X83554Y74193*
X83819Y74158*
X84084Y74193*
X84331Y74296*
X84544Y74458*
X84603Y74536*
X85475*
Y74079*
X87083*
Y76287*
G37*
G36*
X57238D02*
X55630D01*
Y75856*
X54743*
X54690Y75924*
X54480Y76085*
X54236Y76187*
X53974Y76221*
X53712Y76187*
X53468Y76085*
X53258Y75924*
X53097Y75715*
X52996Y75470*
X52961Y75208*
X52996Y74946*
X53097Y74702*
X53258Y74492*
X53468Y74331*
X53712Y74230*
X53974Y74196*
X54236Y74230*
X54480Y74331*
X54690Y74492*
X54743Y74561*
X55630*
Y74079*
X57238*
Y76287*
G37*
G36*
X97243D02*
X95635D01*
Y75830*
X94767*
X94695Y75924*
X94485Y76085*
X94241Y76187*
X93979Y76221*
X93717Y76187*
X93473Y76085*
X93263Y75924*
X93102Y75715*
X93001Y75470*
X92966Y75208*
X93001Y74946*
X93102Y74702*
X93263Y74492*
X93473Y74331*
X93717Y74230*
X93979Y74196*
X94241Y74230*
X94485Y74331*
X94695Y74492*
X94728Y74536*
X95635*
Y74079*
X97243*
Y76287*
G37*
G36*
X109219Y76208D02*
X108954Y76173D01*
X108707Y76070*
X108494Y75908*
X108332Y75695*
X108229Y75448*
X108194Y75183*
X108229Y74918*
X108332Y74671*
X108494Y74458*
X108707Y74296*
X108954Y74193*
X109219Y74158*
X109484Y74193*
X109731Y74296*
X109944Y74458*
X110106Y74671*
X110209Y74918*
X110244Y75183*
X110209Y75448*
X110106Y75695*
X109944Y75908*
X109731Y76070*
X109484Y76173*
X109219Y76208*
G37*
G36*
X99943Y76287D02*
X98335D01*
Y74079*
X99943*
Y74536*
X100815*
X100874Y74458*
X101087Y74296*
X101334Y74193*
X101599Y74158*
X101864Y74193*
X102111Y74296*
X102324Y74458*
X102486Y74671*
X102589Y74918*
X102624Y75183*
X102589Y75448*
X102486Y75695*
X102324Y75908*
X102111Y76070*
X101864Y76173*
X101599Y76208*
X101334Y76173*
X101087Y76070*
X100874Y75908*
X100815Y75830*
X99943*
Y76287*
G37*
G36*
X49778D02*
X48170D01*
Y74079*
X49778*
Y74561*
X50665*
X50718Y74492*
X50928Y74331*
X51172Y74230*
X51434Y74196*
X51696Y74230*
X51940Y74331*
X52150Y74492*
X52311Y74702*
X52412Y74946*
X52447Y75208*
X52412Y75470*
X52311Y75715*
X52150Y75924*
X51940Y76085*
X51696Y76187*
X51434Y76221*
X51172Y76187*
X50928Y76085*
X50718Y75924*
X50665Y75856*
X49778*
Y76287*
G37*
G36*
X119125Y76028D02*
X118926Y76002D01*
X118741Y75925*
X118582Y75803*
X118459Y75643*
X118383Y75458*
X118356Y75259*
X118383Y75060*
X118459Y74875*
X118582Y74716*
X118741Y74594*
X118926Y74517*
X119125Y74491*
X119324Y74517*
X119509Y74594*
X119668Y74716*
X119791Y74875*
X119867Y75060*
X119894Y75259*
X119867Y75458*
X119791Y75643*
X119668Y75803*
X119509Y75925*
X119324Y76002*
X119125Y76028*
G37*
G36*
X89783Y76287D02*
X88175D01*
Y74079*
X89783*
Y74561*
X90670*
X90723Y74492*
X90933Y74331*
X91177Y74230*
X91439Y74196*
X91701Y74230*
X91945Y74331*
X92155Y74492*
X92316Y74702*
X92417Y74946*
X92452Y75208*
X92417Y75470*
X92316Y75715*
X92155Y75924*
X91945Y76085*
X91701Y76187*
X91439Y76221*
X91177Y76187*
X90933Y76085*
X90723Y75924*
X90670Y75856*
X89783*
Y76287*
G37*
G36*
X69214Y81288D02*
X68949Y81253D01*
X68702Y81150*
X68489Y80988*
X68327Y80775*
X68224Y80528*
X68189Y80263*
X68224Y79998*
X68327Y79751*
X68489Y79538*
X68702Y79376*
X68949Y79273*
X69214Y79238*
X69479Y79273*
X69726Y79376*
X69939Y79538*
X70101Y79751*
X70204Y79998*
X70239Y80263*
X70204Y80528*
X70101Y80775*
X69939Y80988*
X69726Y81150*
X69479Y81253*
X69214Y81288*
G37*
G36*
X39177Y85216D02*
X38650D01*
Y84639*
X39177*
Y85216*
G37*
G36*
X79182Y85158D02*
X78655D01*
Y84581*
X79182*
Y85158*
G37*
G36*
X83819Y86368D02*
X83554Y86333D01*
X83307Y86230*
X83094Y86068*
X82932Y85855*
X82829Y85608*
X82794Y85343*
X82829Y85078*
X82854Y85019*
X82742Y84907*
X81363*
Y85158*
X80055*
X79963*
X79436*
Y84454*
Y83750*
X79963*
X80055*
X81363*
Y84001*
X82930*
X83103Y84035*
X83250Y84134*
X83495Y84378*
X83554Y84353*
X83819Y84318*
X84084Y84353*
X84331Y84456*
X84544Y84618*
X84706Y84831*
X84809Y85078*
X84844Y85343*
X84809Y85608*
X84706Y85855*
X84544Y86068*
X84331Y86230*
X84084Y86333*
X83819Y86368*
G37*
G36*
X39177Y86047D02*
X38650D01*
Y85470*
X39177*
Y86047*
G37*
G36*
X37210Y86359D02*
X36321D01*
Y85470*
X37210*
Y86359*
G37*
G36*
Y85216D02*
X36321D01*
Y84327*
X37210*
Y85216*
G37*
G36*
X101599Y86368D02*
X101334Y86333D01*
X101087Y86230*
X100874Y86068*
X100712Y85855*
X100609Y85608*
X100574Y85343*
X100609Y85078*
X100712Y84831*
X100874Y84618*
X101087Y84456*
X101334Y84353*
X101599Y84318*
X101864Y84353*
X102111Y84456*
X102324Y84618*
X102486Y84831*
X102589Y85078*
X102624Y85343*
X102589Y85608*
X102486Y85855*
X102324Y86068*
X102111Y86230*
X101864Y86333*
X101599Y86368*
G37*
G36*
X77215Y85216D02*
X76326D01*
Y84327*
X77215*
Y85216*
G37*
G36*
X109092D02*
X108211D01*
X108229Y85078*
X108332Y84831*
X108494Y84618*
X108707Y84456*
X108954Y84353*
X109092Y84335*
Y85216*
G37*
G36*
X69087D02*
X68206D01*
X68224Y85078*
X68327Y84831*
X68489Y84618*
X68702Y84456*
X68949Y84353*
X69087Y84335*
Y85216*
G37*
G36*
X136212Y86951D02*
X135635D01*
Y86424*
X136212*
Y86951*
G37*
G36*
X135381D02*
X134804D01*
Y86424*
X135381*
Y86951*
G37*
G36*
X132587Y86994D02*
X132221D01*
X132235Y86923*
X132348Y86755*
X132516Y86642*
X132587Y86628*
Y86994*
G37*
G36*
X100329Y118751D02*
X100130Y118724D01*
X99945Y118648*
X99855Y118578*
X99786Y118525*
X98098Y116838*
X97905Y116813*
X97658Y116710*
X97445Y116548*
X97283Y116335*
X97180Y116088*
X97145Y115823*
X97180Y115558*
X97283Y115311*
X97445Y115098*
X97658Y114936*
X97905Y114833*
X98170Y114798*
X98435Y114833*
X98682Y114936*
X98895Y115098*
X99057Y115311*
X99160Y115558*
X99185Y115751*
X100647Y117213*
X111060*
X114927Y113346*
Y104393*
X114954Y104194*
X115008Y104063*
X115030Y104009*
X115153Y103850*
X115816Y103186*
Y98583*
X115698Y98428*
X115595Y98181*
X115560Y97916*
X115595Y97651*
X115698Y97404*
X115860Y97191*
X116073Y97029*
X116320Y96926*
X116585Y96891*
X116850Y96926*
X117075Y97019*
X122564*
X124644Y94939*
X124725Y94743*
X124886Y94533*
X125096Y94372*
X125340Y94271*
X125602Y94236*
X125864Y94271*
X126061Y94352*
X126755*
X126991Y94116*
Y88500*
X126898Y88275*
X126863Y88010*
X126898Y87745*
X127001Y87498*
X127163Y87285*
X127376Y87123*
X127623Y87020*
X127888Y86985*
X128153Y87020*
X128400Y87123*
X128613Y87285*
X128775Y87498*
X128878Y87745*
X128913Y88010*
X128878Y88275*
X128785Y88500*
Y94487*
X128754Y94719*
X128665Y94935*
X128522Y95121*
X127760Y95883*
X127574Y96026*
X127358Y96115*
X127126Y96146*
X126061*
X125912Y96207*
X123569Y98550*
X123383Y98693*
X123167Y98782*
X122935Y98813*
X117354*
Y103504*
X117330Y103680*
X117327Y103703*
X117289Y103796*
X117251Y103888*
X117128Y104047*
X116465Y104711*
Y113664*
X116438Y113863*
X116362Y114048*
X116239Y114207*
X111921Y118525*
X111762Y118648*
X111708Y118670*
X111577Y118724*
X111378Y118751*
X100329*
G37*
G36*
X133207Y86994D02*
X132841D01*
Y86628*
X132912Y86642*
X133080Y86755*
X133193Y86923*
X133207Y86994*
G37*
G36*
X77215Y86359D02*
X76326D01*
Y85470*
X77215*
Y86359*
G37*
G36*
X69087Y86351D02*
X68949Y86333D01*
X68702Y86230*
X68489Y86068*
X68327Y85855*
X68224Y85608*
X68206Y85470*
X69087*
Y86351*
G37*
G36*
X109092D02*
X108954Y86333D01*
X108707Y86230*
X108494Y86068*
X108332Y85855*
X108229Y85608*
X108211Y85470*
X109092*
Y86351*
G37*
G36*
X124579Y86951D02*
X124002D01*
Y86424*
X124579*
Y86951*
G37*
G36*
X123748D02*
X123171D01*
Y86424*
X123748*
Y86951*
G37*
G36*
X97243Y81367D02*
X95635D01*
Y80910*
X94767*
X94695Y81004*
X94485Y81165*
X94241Y81267*
X93979Y81301*
X93717Y81267*
X93473Y81165*
X93263Y81004*
X93102Y80795*
X93001Y80550*
X92966Y80288*
X93001Y80026*
X93102Y79782*
X93263Y79572*
X93473Y79411*
X93717Y79310*
X93979Y79276*
X94241Y79310*
X94485Y79411*
X94695Y79572*
X94728Y79616*
X95635*
Y79159*
X97243*
Y81367*
G37*
G36*
X87083D02*
X85475D01*
Y80910*
X84603*
X84544Y80988*
X84331Y81150*
X84084Y81253*
X83819Y81288*
X83554Y81253*
X83307Y81150*
X83094Y80988*
X82932Y80775*
X82829Y80528*
X82794Y80263*
X82829Y79998*
X82932Y79751*
X83094Y79538*
X83307Y79376*
X83554Y79273*
X83819Y79238*
X84084Y79273*
X84331Y79376*
X84544Y79538*
X84603Y79616*
X85475*
Y79159*
X87083*
Y81367*
G37*
G36*
X57238D02*
X55630D01*
Y80936*
X54743*
X54690Y81004*
X54480Y81165*
X54236Y81267*
X53974Y81301*
X53712Y81267*
X53468Y81165*
X53258Y81004*
X53097Y80795*
X52996Y80550*
X52961Y80288*
X52996Y80026*
X53097Y79782*
X53258Y79572*
X53468Y79411*
X53712Y79310*
X53974Y79276*
X54236Y79310*
X54480Y79411*
X54690Y79572*
X54743Y79641*
X55630*
Y79159*
X57238*
Y81367*
G37*
G36*
X99943Y83907D02*
X98335D01*
Y81699*
X99943*
Y82156*
X100815*
X100874Y82078*
X101087Y81916*
X101334Y81813*
X101599Y81778*
X101864Y81813*
X102111Y81916*
X102324Y82078*
X102486Y82291*
X102589Y82538*
X102624Y82803*
X102589Y83068*
X102486Y83315*
X102324Y83528*
X102111Y83690*
X101864Y83793*
X101599Y83828*
X101334Y83793*
X101087Y83690*
X100874Y83528*
X100815Y83450*
X99943*
Y83907*
G37*
G36*
X59938D02*
X58330D01*
Y81699*
X59938*
Y82156*
X60810*
X60869Y82078*
X61082Y81916*
X61329Y81813*
X61594Y81778*
X61859Y81813*
X62106Y81916*
X62319Y82078*
X62481Y82291*
X62584Y82538*
X62619Y82803*
X62584Y83068*
X62481Y83315*
X62319Y83528*
X62106Y83690*
X61859Y83793*
X61594Y83828*
X61329Y83793*
X61082Y83690*
X60869Y83528*
X60810Y83450*
X59938*
Y83907*
G37*
G36*
X109219Y81288D02*
X108954Y81253D01*
X108707Y81150*
X108494Y80988*
X108332Y80775*
X108229Y80528*
X108194Y80263*
X108229Y79998*
X108332Y79751*
X108494Y79538*
X108707Y79376*
X108954Y79273*
X109219Y79238*
X109484Y79273*
X109731Y79376*
X109944Y79538*
X110106Y79751*
X110209Y79998*
X110244Y80263*
X110209Y80528*
X110106Y80775*
X109944Y80988*
X109731Y81150*
X109484Y81253*
X109219Y81288*
G37*
G36*
X99943Y81367D02*
X98335D01*
Y79159*
X99943*
Y79616*
X100815*
X100874Y79538*
X101087Y79376*
X101334Y79273*
X101599Y79238*
X101864Y79273*
X102111Y79376*
X102324Y79538*
X102486Y79751*
X102589Y79998*
X102624Y80263*
X102589Y80528*
X102486Y80775*
X102324Y80988*
X102111Y81150*
X101864Y81253*
X101599Y81288*
X101334Y81253*
X101087Y81150*
X100874Y80988*
X100815Y80910*
X99943*
Y81367*
G37*
G36*
X49778D02*
X48170D01*
Y79159*
X49778*
Y79641*
X50665*
X50718Y79572*
X50928Y79411*
X51172Y79310*
X51434Y79276*
X51696Y79310*
X51940Y79411*
X52150Y79572*
X52311Y79782*
X52412Y80026*
X52447Y80288*
X52412Y80550*
X52311Y80795*
X52150Y81004*
X51940Y81165*
X51696Y81267*
X51434Y81301*
X51172Y81267*
X50928Y81165*
X50718Y81004*
X50665Y80936*
X49778*
Y81367*
G37*
G36*
X47078D02*
X45470D01*
Y80910*
X44598*
X44539Y80988*
X44326Y81150*
X44079Y81253*
X43814Y81288*
X43549Y81253*
X43302Y81150*
X43089Y80988*
X42927Y80775*
X42824Y80528*
X42789Y80263*
X42824Y79998*
X42927Y79751*
X43089Y79538*
X43302Y79376*
X43549Y79273*
X43814Y79238*
X44079Y79273*
X44326Y79376*
X44539Y79538*
X44598Y79616*
X45470*
Y79159*
X47078*
Y81367*
G37*
G36*
X89783D02*
X88175D01*
Y79159*
X89783*
Y79641*
X90670*
X90723Y79572*
X90933Y79411*
X91177Y79310*
X91439Y79276*
X91701Y79310*
X91945Y79411*
X92155Y79572*
X92316Y79782*
X92417Y80026*
X92452Y80288*
X92417Y80550*
X92316Y80795*
X92155Y81004*
X91945Y81165*
X91701Y81267*
X91439Y81301*
X91177Y81267*
X90933Y81165*
X90723Y81004*
X90670Y80936*
X89783*
Y81367*
G37*
G36*
X79182Y84327D02*
X78655D01*
Y83750*
X79182*
Y84327*
G37*
G36*
X103504Y92973D02*
X103306Y92934D01*
X103138Y92821*
X103025Y92653*
X102986Y92455*
X103025Y92257*
X103116Y92122*
Y84406*
X103025Y84271*
X102986Y84073*
X103025Y83875*
X103138Y83707*
X103306Y83594*
X103504Y83555*
X103702Y83594*
X103870Y83707*
X103983Y83875*
X104022Y84073*
X103983Y84271*
X103892Y84406*
Y92122*
X103983Y92257*
X104022Y92455*
X103983Y92653*
X103870Y92821*
X103702Y92934*
X103504Y92973*
G37*
G36*
X58165Y93988D02*
X57900Y93953D01*
X57653Y93850*
X57440Y93688*
X57278Y93475*
X57175Y93228*
X57140Y92963*
X57175Y92698*
X57278Y92451*
X57396Y92296*
Y86010*
X57278Y85855*
X57175Y85608*
X57140Y85343*
X57175Y85078*
X57278Y84831*
X57440Y84618*
X57653Y84456*
X57900Y84353*
X58165Y84318*
X58430Y84353*
X58677Y84456*
X58890Y84618*
X59052Y84831*
X59155Y85078*
X59190Y85343*
X59155Y85608*
X59052Y85855*
X58934Y86010*
Y92296*
X59052Y92451*
X59155Y92698*
X59190Y92963*
X59155Y93228*
X59052Y93475*
X58890Y93688*
X58677Y93850*
X58430Y93953*
X58165Y93988*
G37*
G36*
X98170D02*
X97905Y93953D01*
X97658Y93850*
X97445Y93688*
X97283Y93475*
X97180Y93228*
X97145Y92963*
X97180Y92698*
X97283Y92451*
X97401Y92296*
Y86010*
X97283Y85855*
X97180Y85608*
X97145Y85343*
X97180Y85078*
X97283Y84831*
X97445Y84618*
X97658Y84456*
X97905Y84353*
X98170Y84318*
X98435Y84353*
X98682Y84456*
X98895Y84618*
X99057Y84831*
X99160Y85078*
X99195Y85343*
X99160Y85608*
X99057Y85855*
X98939Y86010*
Y92296*
X99057Y92451*
X99160Y92698*
X99195Y92963*
X99160Y93228*
X99057Y93475*
X98895Y93688*
X98682Y93850*
X98435Y93953*
X98170Y93988*
G37*
G36*
X61594Y86368D02*
X61329Y86333D01*
X61082Y86230*
X60869Y86068*
X60707Y85855*
X60604Y85608*
X60569Y85343*
X60604Y85078*
X60707Y84831*
X60869Y84618*
X61082Y84456*
X61329Y84353*
X61594Y84318*
X61859Y84353*
X62106Y84456*
X62319Y84618*
X62481Y84831*
X62584Y85078*
X62619Y85343*
X62584Y85608*
X62481Y85855*
X62319Y86068*
X62106Y86230*
X61859Y86333*
X61594Y86368*
G37*
G36*
X89783Y83907D02*
X88175D01*
Y81699*
X89783*
Y82181*
X90435*
Y81824*
X92443*
Y83832*
X90435*
Y83476*
X89783*
Y83907*
G37*
G36*
X49778D02*
X48170D01*
Y81699*
X49778*
Y82181*
X50430*
Y81824*
X52438*
Y83832*
X50430*
Y83476*
X49778*
Y83907*
G37*
G36*
X87083D02*
X85475D01*
Y83450*
X84603*
X84544Y83528*
X84331Y83690*
X84084Y83793*
X83819Y83828*
X83554Y83793*
X83307Y83690*
X83094Y83528*
X82932Y83315*
X82829Y83068*
X82794Y82803*
X82829Y82538*
X82932Y82291*
X83094Y82078*
X83307Y81916*
X83554Y81813*
X83819Y81778*
X84084Y81813*
X84331Y81916*
X84544Y82078*
X84603Y82156*
X85475*
Y81699*
X87083*
Y83907*
G37*
G36*
X57238D02*
X55630D01*
Y83476*
X54743*
X54690Y83544*
X54480Y83705*
X54236Y83807*
X53974Y83841*
X53712Y83807*
X53468Y83705*
X53258Y83544*
X53097Y83335*
X52996Y83090*
X52961Y82828*
X52996Y82566*
X53097Y82322*
X53258Y82112*
X53468Y81951*
X53712Y81850*
X53974Y81816*
X54236Y81850*
X54480Y81951*
X54690Y82112*
X54743Y82181*
X55630*
Y81699*
X57238*
Y83907*
G37*
G36*
X97243D02*
X95635D01*
Y83450*
X94767*
X94695Y83544*
X94485Y83705*
X94241Y83807*
X93979Y83841*
X93717Y83807*
X93473Y83705*
X93263Y83544*
X93102Y83335*
X93001Y83090*
X92966Y82828*
X93001Y82566*
X93102Y82322*
X93263Y82112*
X93473Y81951*
X93717Y81850*
X93979Y81816*
X94241Y81850*
X94485Y81951*
X94695Y82112*
X94728Y82156*
X95635*
Y81699*
X97243*
Y83907*
G37*
G36*
X70230Y63499D02*
X69341D01*
Y62610*
X70230*
Y63499*
G37*
G36*
X69087D02*
X68198D01*
Y62610*
X69087*
Y63499*
G37*
G36*
X76072Y63491D02*
X75934Y63473D01*
X75687Y63370*
X75474Y63208*
X75312Y62995*
X75209Y62748*
X75191Y62610*
X76072*
Y63491*
G37*
G36*
X106763Y63187D02*
X106236D01*
Y62610*
X106763*
Y63187*
G37*
G36*
X76326Y63491D02*
Y62610D01*
X77207*
X77189Y62748*
X77086Y62995*
X76924Y63208*
X76711Y63370*
X76464Y63473*
X76326Y63491*
G37*
G36*
X66758Y62356D02*
X66231D01*
Y61779*
X66758*
Y62356*
G37*
G36*
X101599Y63508D02*
X101334Y63473D01*
X101087Y63370*
X100874Y63208*
X100712Y62995*
X100609Y62748*
X100574Y62483*
X100609Y62218*
X100712Y61971*
X100874Y61758*
X101087Y61596*
X101334Y61493*
X101599Y61458*
X101864Y61493*
X102111Y61596*
X102324Y61758*
X102486Y61971*
X102511Y62030*
X104055*
Y61779*
X105363*
X105455*
X105982*
Y62483*
Y63187*
X105455*
X105363*
X104055*
Y62936*
X102511*
X102486Y62995*
X102324Y63208*
X102111Y63370*
X101864Y63473*
X101599Y63508*
G37*
G36*
X106763Y62356D02*
X106236D01*
Y61779*
X106763*
Y62356*
G37*
G36*
X66758Y63187D02*
X66231D01*
Y62610*
X66758*
Y63187*
G37*
G36*
X36321Y63491D02*
Y62610D01*
X37202*
X37184Y62748*
X37081Y62995*
X36919Y63208*
X36706Y63370*
X36459Y63473*
X36321Y63491*
G37*
G36*
X99943Y66127D02*
X98335D01*
Y63919*
X99943*
Y64376*
X100815*
X100874Y64298*
X101087Y64136*
X101334Y64033*
X101599Y63998*
X101864Y64033*
X102111Y64136*
X102324Y64298*
X102486Y64511*
X102589Y64758*
X102624Y65023*
X102589Y65288*
X102486Y65535*
X102324Y65748*
X102111Y65910*
X101864Y66013*
X101599Y66048*
X101334Y66013*
X101087Y65910*
X100874Y65748*
X100815Y65670*
X99943*
Y66127*
G37*
G36*
X69214Y66048D02*
X68949Y66013D01*
X68702Y65910*
X68489Y65748*
X68327Y65535*
X68224Y65288*
X68189Y65023*
X68224Y64758*
X68327Y64511*
X68489Y64298*
X68702Y64136*
X68949Y64033*
X69214Y63998*
X69479Y64033*
X69726Y64136*
X69939Y64298*
X70101Y64511*
X70204Y64758*
X70239Y65023*
X70204Y65288*
X70101Y65535*
X69939Y65748*
X69726Y65910*
X69479Y66013*
X69214Y66048*
G37*
G36*
X109219D02*
X108954Y66013D01*
X108707Y65910*
X108494Y65748*
X108332Y65535*
X108229Y65288*
X108194Y65023*
X108229Y64758*
X108332Y64511*
X108494Y64298*
X108707Y64136*
X108954Y64033*
X109219Y63998*
X109484Y64033*
X109731Y64136*
X109944Y64298*
X110106Y64511*
X110209Y64758*
X110244Y65023*
X110209Y65288*
X110106Y65535*
X109944Y65748*
X109731Y65910*
X109484Y66013*
X109219Y66048*
G37*
G36*
X89783Y66127D02*
X88175D01*
Y63919*
X89783*
Y64401*
X90670*
X90723Y64332*
X90933Y64171*
X91177Y64070*
X91439Y64036*
X91701Y64070*
X91945Y64171*
X92155Y64332*
X92316Y64542*
X92417Y64786*
X92452Y65048*
X92417Y65311*
X92316Y65555*
X92155Y65764*
X91945Y65925*
X91701Y66027*
X91439Y66061*
X91177Y66027*
X90933Y65925*
X90723Y65764*
X90670Y65696*
X89783*
Y66127*
G37*
G36*
X49778D02*
X48170D01*
Y63919*
X49778*
Y64401*
X50665*
X50718Y64332*
X50928Y64171*
X51172Y64070*
X51434Y64036*
X51696Y64070*
X51940Y64171*
X52150Y64332*
X52311Y64542*
X52412Y64786*
X52447Y65048*
X52412Y65311*
X52311Y65555*
X52150Y65764*
X51940Y65925*
X51696Y66027*
X51434Y66061*
X51172Y66027*
X50928Y65925*
X50718Y65764*
X50665Y65696*
X49778*
Y66127*
G37*
G36*
X110235Y63499D02*
X109346D01*
Y62610*
X110235*
Y63499*
G37*
G36*
X109092D02*
X108203D01*
Y62610*
X109092*
Y63499*
G37*
G36*
X124579Y64472D02*
X124002D01*
Y63945*
X124579*
Y64472*
G37*
G36*
X136212D02*
X135635D01*
Y63945*
X136212*
Y64472*
G37*
G36*
X135381D02*
X134804D01*
Y63945*
X135381*
Y64472*
G37*
G36*
X29082Y51781D02*
X28767Y51750D01*
X28342Y51622*
X27951Y51412*
X27607Y51131*
X27326Y50787*
X27117Y50396*
X26988Y49971*
X26957Y49656*
X29082*
Y51781*
G37*
G36*
X123722Y51177D02*
X123460Y51142D01*
X123216Y51041*
X123006Y50880*
X122845Y50670*
X122744Y50426*
X122710Y50164*
X122744Y49902*
X122845Y49658*
X123006Y49448*
X123216Y49287*
X123460Y49186*
X123722Y49151*
X123984Y49186*
X124229Y49287*
X124438Y49448*
X124599Y49658*
X124701Y49902*
X124735Y50164*
X124701Y50426*
X124599Y50670*
X124438Y50880*
X124229Y51041*
X123984Y51142*
X123722Y51177*
G37*
G36*
X29336Y51781D02*
Y49656D01*
X31461*
X31430Y49971*
X31301Y50396*
X31092Y50787*
X30811Y51131*
X30467Y51412*
X30076Y51622*
X29651Y51750*
X29336Y51781*
G37*
G36*
X135381D02*
Y49656D01*
X137506*
X137475Y49971*
X137347Y50396*
X137137Y50787*
X136856Y51131*
X136512Y51412*
X136121Y51622*
X135696Y51750*
X135381Y51781*
G37*
G36*
X135127D02*
X134812Y51750D01*
X134387Y51622*
X133996Y51412*
X133652Y51131*
X133371Y50787*
X133162Y50396*
X133033Y49971*
X133002Y49656*
X135127*
Y51781*
G37*
G36*
X31461Y49402D02*
X29336D01*
Y47277*
X29651Y47308*
X30076Y47437*
X30467Y47646*
X30811Y47927*
X31092Y48271*
X31301Y48662*
X31430Y49087*
X31461Y49402*
G37*
G36*
X29082D02*
X26957D01*
X26988Y49087*
X27117Y48662*
X27326Y48271*
X27607Y47927*
X27951Y47646*
X28342Y47437*
X28767Y47308*
X29082Y47277*
Y49402*
G37*
G36*
X135127D02*
X133002D01*
X133033Y49087*
X133162Y48662*
X133371Y48271*
X133652Y47927*
X133996Y47646*
X134387Y47437*
X134812Y47308*
X135127Y47277*
Y49402*
G37*
G36*
X55981Y51177D02*
X55719Y51142D01*
X55474Y51041*
X55265Y50880*
X55104Y50670*
X55002Y50426*
X54968Y50164*
X55002Y49902*
X55104Y49658*
X55265Y49448*
X55474Y49287*
X55719Y49186*
X55981Y49151*
X56243Y49186*
X56487Y49287*
X56697Y49448*
X56858Y49658*
X56959Y49902*
X56993Y50164*
X56959Y50426*
X56858Y50670*
X56697Y50880*
X56487Y51041*
X56243Y51142*
X55981Y51177*
G37*
G36*
X137506Y49402D02*
X135381D01*
Y47277*
X135696Y47308*
X136121Y47437*
X136512Y47646*
X136856Y47927*
X137137Y48271*
X137347Y48662*
X137475Y49087*
X137506Y49402*
G37*
G36*
X110235Y62356D02*
X109346D01*
Y61467*
X110235*
Y62356*
G37*
G36*
X109092D02*
X108203D01*
Y61467*
X109092*
Y62356*
G37*
G36*
X37202D02*
X36321D01*
Y61475*
X36459Y61493*
X36706Y61596*
X36919Y61758*
X37081Y61971*
X37184Y62218*
X37202Y62356*
G37*
G36*
X77207D02*
X76326D01*
Y61475*
X76464Y61493*
X76711Y61596*
X76924Y61758*
X77086Y61971*
X77189Y62218*
X77207Y62356*
G37*
G36*
X76072D02*
X75191D01*
X75209Y62218*
X75312Y61971*
X75474Y61758*
X75687Y61596*
X75934Y61493*
X76072Y61475*
Y62356*
G37*
G36*
X118642Y53717D02*
X118380Y53682D01*
X118136Y53581*
X117926Y53420*
X117765Y53210*
X117664Y52966*
X117630Y52704*
X117664Y52442*
X117765Y52198*
X117926Y51988*
X118136Y51827*
X118380Y51726*
X118642Y51691*
X118905Y51726*
X119149Y51827*
X119358Y51988*
X119519Y52198*
X119621Y52442*
X119655Y52704*
X119621Y52966*
X119519Y53210*
X119358Y53420*
X119149Y53581*
X118905Y53682*
X118642Y53717*
G37*
G36*
X130758Y68535D02*
X130559Y68509D01*
X130374Y68432*
X130215Y68310*
X130093Y68150*
X130055Y68059*
X128787Y66791*
X128675Y66645*
X128646Y66575*
X128604Y66475*
X128580Y66293*
Y54647*
X127384Y53450*
X127266Y53499*
Y53708*
X125258*
Y51700*
X127266*
Y51999*
X127634*
X127816Y52023*
X127916Y52065*
X127986Y52094*
X128132Y52206*
X129783Y53857*
X129895Y54003*
X129929Y54085*
X130054Y54060*
Y53072*
X127863Y50881*
X126977*
X126769Y51041*
X126524Y51142*
X126262Y51177*
X126000Y51142*
X125756Y51041*
X125546Y50880*
X125385Y50670*
X125284Y50426*
X125250Y50164*
X125284Y49902*
X125385Y49658*
X125546Y49448*
X125756Y49287*
X126000Y49186*
X126262Y49151*
X126524Y49186*
X126769Y49287*
X126978Y49448*
X126997Y49472*
X128155*
X128337Y49496*
X128437Y49537*
X128507Y49567*
X128653Y49679*
X131256Y52282*
X131368Y52428*
X131439Y52598*
X131463Y52780*
Y59983*
X131501Y60074*
X131527Y60273*
X131501Y60472*
X131424Y60657*
X131302Y60817*
X131142Y60939*
X130957Y61016*
X130758Y61042*
X130559Y61016*
X130374Y60939*
X130215Y60817*
X130110Y60680*
X129990Y60721*
Y66001*
X131051Y67063*
X131142Y67101*
X131302Y67223*
X131424Y67382*
X131501Y67567*
X131527Y67766*
X131501Y67965*
X131424Y68150*
X131302Y68310*
X131142Y68432*
X130957Y68509*
X130758Y68535*
G37*
G36*
X123722Y53717D02*
X123460Y53682D01*
X123216Y53581*
X123006Y53420*
X122845Y53210*
X122744Y52966*
X122710Y52704*
X122744Y52442*
X122845Y52198*
X123006Y51988*
X123216Y51827*
X123460Y51726*
X123722Y51691*
X123984Y51726*
X124229Y51827*
X124438Y51988*
X124599Y52198*
X124701Y52442*
X124735Y52704*
X124701Y52966*
X124599Y53210*
X124438Y53420*
X124229Y53581*
X123984Y53682*
X123722Y53717*
G37*
G36*
X70230Y62356D02*
X69341D01*
Y61467*
X70230*
Y62356*
G37*
G36*
X69087D02*
X68198D01*
Y61467*
X69087*
Y62356*
G37*
G36*
X132460Y64769D02*
X132094D01*
X132108Y64698*
X132221Y64530*
X132389Y64417*
X132460Y64403*
Y64769*
G37*
G36*
X123748Y71965D02*
X123171D01*
Y71438*
X123748*
Y71965*
G37*
G36*
X57238Y71207D02*
X55630D01*
Y70776*
X54743*
X54690Y70844*
X54480Y71005*
X54236Y71107*
X53974Y71141*
X53712Y71107*
X53468Y71005*
X53258Y70844*
X53097Y70635*
X52996Y70391*
X52961Y70128*
X52996Y69866*
X53097Y69622*
X53258Y69412*
X53468Y69251*
X53712Y69150*
X53974Y69116*
X54236Y69150*
X54480Y69251*
X54690Y69412*
X54743Y69481*
X55630*
Y68999*
X57238*
Y71207*
G37*
G36*
X124579Y71965D02*
X124002D01*
Y71438*
X124579*
Y71965*
G37*
G36*
X136212D02*
X135635D01*
Y71438*
X136212*
Y71965*
G37*
G36*
X135381D02*
X134804D01*
Y71438*
X135381*
Y71965*
G37*
G36*
X89783Y71207D02*
X88175D01*
Y68999*
X89783*
Y69481*
X90670*
X90723Y69412*
X90933Y69251*
X91177Y69150*
X91439Y69116*
X91701Y69150*
X91945Y69251*
X92155Y69412*
X92316Y69622*
X92417Y69866*
X92452Y70128*
X92417Y70391*
X92316Y70635*
X92155Y70844*
X91945Y71005*
X91701Y71107*
X91439Y71141*
X91177Y71107*
X90933Y71005*
X90723Y70844*
X90670Y70776*
X89783*
Y71207*
G37*
G36*
X49778D02*
X48170D01*
Y68999*
X49778*
Y69481*
X50665*
X50718Y69412*
X50928Y69251*
X51172Y69150*
X51434Y69116*
X51696Y69150*
X51940Y69251*
X52150Y69412*
X52311Y69622*
X52412Y69866*
X52447Y70128*
X52412Y70391*
X52311Y70635*
X52150Y70844*
X51940Y71005*
X51696Y71107*
X51434Y71141*
X51172Y71107*
X50928Y71005*
X50718Y70844*
X50665Y70776*
X49778*
Y71207*
G37*
G36*
X47078D02*
X45470D01*
Y70750*
X44598*
X44539Y70828*
X44326Y70990*
X44079Y71093*
X43814Y71128*
X43549Y71093*
X43302Y70990*
X43089Y70828*
X42927Y70615*
X42824Y70368*
X42789Y70103*
X42824Y69838*
X42927Y69591*
X43089Y69378*
X43302Y69216*
X43549Y69113*
X43814Y69078*
X44079Y69113*
X44326Y69216*
X44539Y69378*
X44598Y69456*
X45470*
Y68999*
X47078*
Y71207*
G37*
G36*
X97243D02*
X95635D01*
Y70750*
X94767*
X94695Y70844*
X94485Y71005*
X94241Y71107*
X93979Y71141*
X93717Y71107*
X93473Y71005*
X93263Y70844*
X93102Y70635*
X93001Y70391*
X92966Y70128*
X93001Y69866*
X93102Y69622*
X93263Y69412*
X93473Y69251*
X93717Y69150*
X93979Y69116*
X94241Y69150*
X94485Y69251*
X94695Y69412*
X94728Y69456*
X95635*
Y68999*
X97243*
Y71207*
G37*
G36*
X87083D02*
X85475D01*
Y70750*
X84603*
X84544Y70828*
X84331Y70990*
X84084Y71093*
X83819Y71128*
X83554Y71093*
X83307Y70990*
X83094Y70828*
X82932Y70615*
X82829Y70368*
X82794Y70103*
X82829Y69838*
X82932Y69591*
X83094Y69378*
X83307Y69216*
X83554Y69113*
X83819Y69078*
X84084Y69113*
X84331Y69216*
X84544Y69378*
X84603Y69456*
X85475*
Y68999*
X87083*
Y71207*
G37*
G36*
X120903Y72262D02*
X120537D01*
X120551Y72191*
X120664Y72023*
X120832Y71910*
X120903Y71896*
Y72262*
G37*
G36*
X89783Y73747D02*
X88175D01*
Y71539*
X89783*
Y72021*
X90670*
X90723Y71952*
X90933Y71791*
X91177Y71690*
X91439Y71656*
X91701Y71690*
X91945Y71791*
X92155Y71952*
X92316Y72162*
X92417Y72406*
X92452Y72668*
X92417Y72931*
X92316Y73175*
X92155Y73384*
X91945Y73545*
X91701Y73647*
X91439Y73681*
X91177Y73647*
X90933Y73545*
X90723Y73384*
X90670Y73316*
X89783*
Y73747*
G37*
G36*
X121523Y72262D02*
X121157D01*
Y71896*
X121228Y71910*
X121396Y72023*
X121509Y72191*
X121523Y72262*
G37*
G36*
X133080D02*
X132714D01*
Y71896*
X132785Y71910*
X132953Y72023*
X133066Y72191*
X133080Y72262*
G37*
G36*
X132460D02*
X132094D01*
X132108Y72191*
X132221Y72023*
X132389Y71910*
X132460Y71896*
Y72262*
G37*
G36*
X69214Y73668D02*
X68949Y73633D01*
X68702Y73530*
X68489Y73368*
X68327Y73155*
X68224Y72908*
X68189Y72643*
X68224Y72378*
X68327Y72131*
X68489Y71918*
X68702Y71756*
X68949Y71653*
X69214Y71618*
X69479Y71653*
X69726Y71756*
X69939Y71918*
X70101Y72131*
X70204Y72378*
X70239Y72643*
X70204Y72908*
X70101Y73155*
X69939Y73368*
X69726Y73530*
X69479Y73633*
X69214Y73668*
G37*
G36*
X59938Y73747D02*
X58330D01*
Y71539*
X59938*
Y71996*
X60810*
X60869Y71918*
X61082Y71756*
X61329Y71653*
X61594Y71618*
X61859Y71653*
X62106Y71756*
X62319Y71918*
X62481Y72131*
X62584Y72378*
X62619Y72643*
X62584Y72908*
X62481Y73155*
X62319Y73368*
X62106Y73530*
X61859Y73633*
X61594Y73668*
X61329Y73633*
X61082Y73530*
X60869Y73368*
X60810Y73290*
X59938*
Y73747*
G37*
G36*
X99943D02*
X98335D01*
Y71539*
X99943*
Y71996*
X100815*
X100874Y71918*
X101087Y71756*
X101334Y71653*
X101599Y71618*
X101864Y71653*
X102111Y71756*
X102324Y71918*
X102486Y72131*
X102589Y72378*
X102624Y72643*
X102589Y72908*
X102486Y73155*
X102324Y73368*
X102111Y73530*
X101864Y73633*
X101599Y73668*
X101334Y73633*
X101087Y73530*
X100874Y73368*
X100815Y73290*
X99943*
Y73747*
G37*
G36*
X49778D02*
X48170D01*
Y71539*
X49778*
Y72021*
X50665*
X50718Y71952*
X50928Y71791*
X51172Y71690*
X51434Y71656*
X51696Y71690*
X51940Y71791*
X52150Y71952*
X52311Y72162*
X52412Y72406*
X52447Y72668*
X52412Y72931*
X52311Y73175*
X52150Y73384*
X51940Y73545*
X51696Y73647*
X51434Y73681*
X51172Y73647*
X50928Y73545*
X50718Y73384*
X50665Y73316*
X49778*
Y73747*
G37*
G36*
X109219Y73668D02*
X108954Y73633D01*
X108707Y73530*
X108494Y73368*
X108332Y73155*
X108229Y72908*
X108194Y72643*
X108229Y72378*
X108332Y72131*
X108494Y71918*
X108707Y71756*
X108954Y71653*
X109219Y71618*
X109484Y71653*
X109731Y71756*
X109944Y71918*
X110106Y72131*
X110209Y72378*
X110244Y72643*
X110209Y72908*
X110106Y73155*
X109944Y73368*
X109731Y73530*
X109484Y73633*
X109219Y73668*
G37*
G36*
X59938Y68667D02*
X58330D01*
Y66459*
X59938*
Y66916*
X60810*
X60869Y66838*
X61082Y66676*
X61329Y66573*
X61594Y66538*
X61859Y66573*
X62106Y66676*
X62319Y66838*
X62481Y67051*
X62584Y67298*
X62619Y67563*
X62584Y67828*
X62481Y68075*
X62319Y68288*
X62106Y68450*
X61859Y68553*
X61594Y68588*
X61329Y68553*
X61082Y68450*
X60869Y68288*
X60810Y68210*
X59938*
Y68667*
G37*
G36*
X57238Y66127D02*
X55630D01*
Y65696*
X54743*
X54690Y65764*
X54480Y65925*
X54236Y66027*
X53974Y66061*
X53712Y66027*
X53468Y65925*
X53258Y65764*
X53097Y65555*
X52996Y65311*
X52961Y65048*
X52996Y64786*
X53097Y64542*
X53258Y64332*
X53468Y64171*
X53712Y64070*
X53974Y64036*
X54236Y64070*
X54480Y64171*
X54690Y64332*
X54743Y64401*
X55630*
Y63919*
X57238*
Y66127*
G37*
G36*
X69214Y68588D02*
X68949Y68553D01*
X68702Y68450*
X68489Y68288*
X68327Y68075*
X68224Y67828*
X68189Y67563*
X68224Y67298*
X68327Y67051*
X68489Y66838*
X68702Y66676*
X68949Y66573*
X69214Y66538*
X69479Y66573*
X69726Y66676*
X69939Y66838*
X70101Y67051*
X70204Y67298*
X70239Y67563*
X70204Y67828*
X70101Y68075*
X69939Y68288*
X69726Y68450*
X69479Y68553*
X69214Y68588*
G37*
G36*
X109219D02*
X108954Y68553D01*
X108707Y68450*
X108494Y68288*
X108332Y68075*
X108229Y67828*
X108194Y67563*
X108229Y67298*
X108332Y67051*
X108494Y66838*
X108707Y66676*
X108954Y66573*
X109219Y66538*
X109484Y66573*
X109731Y66676*
X109944Y66838*
X110106Y67051*
X110209Y67298*
X110244Y67563*
X110209Y67828*
X110106Y68075*
X109944Y68288*
X109731Y68450*
X109484Y68553*
X109219Y68588*
G37*
G36*
X99943Y68667D02*
X98335D01*
Y66459*
X99943*
Y66916*
X100815*
X100874Y66838*
X101087Y66676*
X101334Y66573*
X101599Y66538*
X101864Y66573*
X102111Y66676*
X102324Y66838*
X102486Y67051*
X102589Y67298*
X102624Y67563*
X102589Y67828*
X102486Y68075*
X102324Y68288*
X102111Y68450*
X101864Y68553*
X101599Y68588*
X101334Y68553*
X101087Y68450*
X100874Y68288*
X100815Y68210*
X99943*
Y68667*
G37*
G36*
X132460Y65389D02*
X132389Y65375D01*
X132221Y65262*
X132108Y65094*
X132094Y65023*
X132460*
Y65389*
G37*
G36*
X133080Y64769D02*
X132714D01*
Y64403*
X132785Y64417*
X132953Y64530*
X133066Y64698*
X133080Y64769*
G37*
G36*
X132714Y65389D02*
Y65023D01*
X133080*
X133066Y65094*
X132953Y65262*
X132785Y65375*
X132714Y65389*
G37*
G36*
X97243Y66127D02*
X95635D01*
Y65670*
X94767*
X94695Y65764*
X94485Y65925*
X94241Y66027*
X93979Y66061*
X93717Y66027*
X93473Y65925*
X93263Y65764*
X93102Y65555*
X93001Y65311*
X92966Y65048*
X93001Y64786*
X93102Y64542*
X93263Y64332*
X93473Y64171*
X93717Y64070*
X93979Y64036*
X94241Y64070*
X94485Y64171*
X94695Y64332*
X94728Y64376*
X95635*
Y63919*
X97243*
Y66127*
G37*
G36*
X87083D02*
X85475D01*
Y65670*
X84603*
X84544Y65748*
X84331Y65910*
X84084Y66013*
X83819Y66048*
X83554Y66013*
X83307Y65910*
X83094Y65748*
X82932Y65535*
X82829Y65288*
X82794Y65023*
X82829Y64758*
X82932Y64511*
X83094Y64298*
X83307Y64136*
X83554Y64033*
X83819Y63998*
X84084Y64033*
X84331Y64136*
X84544Y64298*
X84603Y64376*
X85475*
Y63919*
X87083*
Y66127*
G37*
G36*
X59938Y71207D02*
X58330D01*
Y68999*
X59938*
Y69456*
X60810*
X60869Y69378*
X61082Y69216*
X61329Y69113*
X61594Y69078*
X61859Y69113*
X62106Y69216*
X62319Y69378*
X62481Y69591*
X62584Y69838*
X62619Y70103*
X62584Y70368*
X62481Y70615*
X62319Y70828*
X62106Y70990*
X61859Y71093*
X61594Y71128*
X61329Y71093*
X61082Y70990*
X60869Y70828*
X60810Y70750*
X59938*
Y71207*
G37*
G36*
X57238Y68667D02*
X55630D01*
Y68236*
X54743*
X54690Y68304*
X54480Y68465*
X54236Y68567*
X53974Y68601*
X53712Y68567*
X53468Y68465*
X53258Y68304*
X53097Y68095*
X52996Y67851*
X52961Y67588*
X52996Y67326*
X53097Y67082*
X53258Y66872*
X53468Y66711*
X53712Y66610*
X53974Y66576*
X54236Y66610*
X54480Y66711*
X54690Y66872*
X54743Y66941*
X55630*
Y66459*
X57238*
Y68667*
G37*
G36*
X69214Y71128D02*
X68949Y71093D01*
X68702Y70990*
X68489Y70828*
X68327Y70615*
X68224Y70368*
X68189Y70103*
X68224Y69838*
X68327Y69591*
X68489Y69378*
X68702Y69216*
X68949Y69113*
X69214Y69078*
X69479Y69113*
X69726Y69216*
X69939Y69378*
X70101Y69591*
X70204Y69838*
X70239Y70103*
X70204Y70368*
X70101Y70615*
X69939Y70828*
X69726Y70990*
X69479Y71093*
X69214Y71128*
G37*
G36*
X109219D02*
X108954Y71093D01*
X108707Y70990*
X108494Y70828*
X108332Y70615*
X108229Y70368*
X108194Y70103*
X108229Y69838*
X108332Y69591*
X108494Y69378*
X108707Y69216*
X108954Y69113*
X109219Y69078*
X109484Y69113*
X109731Y69216*
X109944Y69378*
X110106Y69591*
X110209Y69838*
X110244Y70103*
X110209Y70368*
X110106Y70615*
X109944Y70828*
X109731Y70990*
X109484Y71093*
X109219Y71128*
G37*
G36*
X99943Y71207D02*
X98335D01*
Y68999*
X99943*
Y69456*
X100815*
X100874Y69378*
X101087Y69216*
X101334Y69113*
X101599Y69078*
X101864Y69113*
X102111Y69216*
X102324Y69378*
X102486Y69591*
X102589Y69838*
X102624Y70103*
X102589Y70368*
X102486Y70615*
X102324Y70828*
X102111Y70990*
X101864Y71093*
X101599Y71128*
X101334Y71093*
X101087Y70990*
X100874Y70828*
X100815Y70750*
X99943*
Y71207*
G37*
G36*
X89783Y68667D02*
X88175D01*
Y66459*
X89783*
Y66941*
X90670*
X90723Y66872*
X90933Y66711*
X91177Y66610*
X91439Y66576*
X91701Y66610*
X91945Y66711*
X92155Y66872*
X92316Y67082*
X92417Y67326*
X92452Y67588*
X92417Y67851*
X92316Y68095*
X92155Y68304*
X91945Y68465*
X91701Y68567*
X91439Y68601*
X91177Y68567*
X90933Y68465*
X90723Y68304*
X90670Y68236*
X89783*
Y68667*
G37*
G36*
X49778D02*
X48170D01*
Y66459*
X49778*
Y66941*
X50665*
X50718Y66872*
X50928Y66711*
X51172Y66610*
X51434Y66576*
X51696Y66610*
X51940Y66711*
X52150Y66872*
X52311Y67082*
X52412Y67326*
X52447Y67588*
X52412Y67851*
X52311Y68095*
X52150Y68304*
X51940Y68465*
X51696Y68567*
X51434Y68601*
X51172Y68567*
X50928Y68465*
X50718Y68304*
X50665Y68236*
X49778*
Y68667*
G37*
G36*
X47078D02*
X45470D01*
Y68210*
X44598*
X44539Y68288*
X44326Y68450*
X44079Y68553*
X43814Y68588*
X43549Y68553*
X43302Y68450*
X43089Y68288*
X42927Y68075*
X42824Y67828*
X42789Y67563*
X42824Y67298*
X42927Y67051*
X43089Y66838*
X43302Y66676*
X43549Y66573*
X43814Y66538*
X44079Y66573*
X44326Y66676*
X44539Y66838*
X44598Y66916*
X45470*
Y66459*
X47078*
Y68667*
G37*
G36*
X97243D02*
X95635D01*
Y68210*
X94767*
X94695Y68304*
X94485Y68465*
X94241Y68567*
X93979Y68601*
X93717Y68567*
X93473Y68465*
X93263Y68304*
X93102Y68095*
X93001Y67851*
X92966Y67588*
X93001Y67326*
X93102Y67082*
X93263Y66872*
X93473Y66711*
X93717Y66610*
X93979Y66576*
X94241Y66610*
X94485Y66711*
X94695Y66872*
X94728Y66916*
X95635*
Y66459*
X97243*
Y68667*
G37*
G36*
X87083D02*
X85475D01*
Y68210*
X84603*
X84544Y68288*
X84331Y68450*
X84084Y68553*
X83819Y68588*
X83554Y68553*
X83307Y68450*
X83094Y68288*
X82932Y68075*
X82829Y67828*
X82794Y67563*
X82829Y67298*
X82932Y67051*
X83094Y66838*
X83307Y66676*
X83554Y66573*
X83819Y66538*
X84084Y66573*
X84331Y66676*
X84544Y66838*
X84603Y66916*
X85475*
Y66459*
X87083*
Y68667*
G37*
G36*
X99943Y111847D02*
X98335D01*
Y109639*
X99943*
Y110096*
X100815*
X100874Y110018*
X101087Y109856*
X101334Y109753*
X101599Y109718*
X101864Y109753*
X102111Y109856*
X102324Y110018*
X102486Y110231*
X102589Y110478*
X102624Y110743*
X102589Y111008*
X102486Y111255*
X102324Y111468*
X102111Y111630*
X101864Y111733*
X101599Y111768*
X101334Y111733*
X101087Y111630*
X100874Y111468*
X100815Y111390*
X99943*
Y111847*
G37*
G36*
X76199Y111768D02*
X75934Y111733D01*
X75687Y111630*
X75474Y111468*
X75312Y111255*
X75209Y111008*
X75174Y110743*
X75209Y110478*
X75312Y110231*
X75474Y110018*
X75687Y109856*
X75934Y109753*
X76199Y109718*
X76464Y109753*
X76711Y109856*
X76924Y110018*
X77086Y110231*
X77189Y110478*
X77224Y110743*
X77189Y111008*
X77086Y111255*
X76924Y111468*
X76711Y111630*
X76464Y111733*
X76199Y111768*
G37*
G36*
X49778Y111847D02*
X48170D01*
Y109639*
X49778*
Y110121*
X50665*
X50718Y110052*
X50928Y109891*
X51172Y109790*
X51434Y109756*
X51696Y109790*
X51940Y109891*
X52150Y110052*
X52311Y110262*
X52412Y110506*
X52447Y110768*
X52412Y111031*
X52311Y111275*
X52150Y111484*
X51940Y111645*
X51696Y111747*
X51434Y111781*
X51172Y111747*
X50928Y111645*
X50718Y111484*
X50665Y111416*
X49778*
Y111847*
G37*
G36*
X133984Y112389D02*
X133657Y112346D01*
X133352Y112219*
X133090Y112018*
X132889Y111756*
X132762Y111451*
X132719Y111124*
X132762Y110797*
X132889Y110492*
X133090Y110230*
X133352Y110029*
X133657Y109902*
X133984Y109859*
X134311Y109902*
X134616Y110029*
X134878Y110230*
X135079Y110492*
X135206Y110797*
X135249Y111124*
X135206Y111451*
X135079Y111756*
X134878Y112018*
X134616Y112219*
X134311Y112346*
X133984Y112389*
G37*
G36*
X89783Y111847D02*
X88175D01*
Y109639*
X89783*
Y110121*
X90670*
X90723Y110052*
X90933Y109891*
X91177Y109790*
X91439Y109756*
X91701Y109790*
X91945Y109891*
X92155Y110052*
X92316Y110262*
X92417Y110506*
X92452Y110768*
X92417Y111031*
X92316Y111275*
X92155Y111484*
X91945Y111645*
X91701Y111747*
X91439Y111781*
X91177Y111747*
X90933Y111645*
X90723Y111484*
X90670Y111416*
X89783*
Y111847*
G37*
G36*
X120014Y110489D02*
X119005D01*
X119027Y110318*
X119143Y110040*
X119326Y109801*
X119565Y109618*
X119843Y109502*
X120014Y109480*
Y110489*
G37*
G36*
X57238Y109307D02*
X55630D01*
Y108901*
X54723*
X54690Y108944*
X54480Y109105*
X54236Y109207*
X53974Y109241*
X53712Y109207*
X53468Y109105*
X53258Y108944*
X53097Y108735*
X52996Y108491*
X52961Y108228*
X52996Y107966*
X53097Y107722*
X53258Y107512*
X53468Y107351*
X53712Y107250*
X53974Y107216*
X54236Y107250*
X54480Y107351*
X54690Y107512*
X54762Y107606*
X55630*
Y107099*
X57238*
Y109307*
G37*
G36*
X121277Y110489D02*
X120268D01*
Y109480*
X120439Y109502*
X120717Y109618*
X120956Y109801*
X121139Y110040*
X121255Y110318*
X121277Y110489*
G37*
G36*
X59938Y111847D02*
X58330D01*
Y109639*
X59938*
Y110121*
X60791*
X60869Y110018*
X61082Y109856*
X61329Y109753*
X61594Y109718*
X61859Y109753*
X62106Y109856*
X62319Y110018*
X62481Y110231*
X62584Y110478*
X62619Y110743*
X62584Y111008*
X62481Y111255*
X62319Y111468*
X62106Y111630*
X61859Y111733*
X61594Y111768*
X61329Y111733*
X61082Y111630*
X60869Y111468*
X60830Y111416*
X59938*
Y111847*
G37*
G36*
X36194Y111768D02*
X35929Y111733D01*
X35682Y111630*
X35469Y111468*
X35307Y111255*
X35204Y111008*
X35169Y110743*
X35204Y110478*
X35307Y110231*
X35469Y110018*
X35682Y109856*
X35929Y109753*
X36194Y109718*
X36459Y109753*
X36706Y109856*
X36919Y110018*
X37081Y110231*
X37184Y110478*
X37219Y110743*
X37184Y111008*
X37081Y111255*
X36919Y111468*
X36706Y111630*
X36459Y111733*
X36194Y111768*
G37*
G36*
X109219Y114308D02*
X108954Y114273D01*
X108707Y114170*
X108494Y114008*
X108332Y113795*
X108229Y113548*
X108194Y113283*
X108229Y113018*
X108332Y112771*
X108494Y112558*
X108707Y112396*
X108954Y112293*
X109219Y112258*
X109484Y112293*
X109731Y112396*
X109944Y112558*
X109980Y112606*
X110101Y112565*
Y111461*
X109980Y111420*
X109944Y111468*
X109731Y111630*
X109484Y111733*
X109219Y111768*
X108954Y111733*
X108707Y111630*
X108494Y111468*
X108332Y111255*
X108229Y111008*
X108194Y110743*
X108229Y110478*
X108332Y110231*
X108494Y110018*
X108707Y109856*
X108954Y109753*
X109219Y109718*
X109484Y109753*
X109731Y109856*
X109944Y110018*
X109980Y110066*
X110101Y110025*
Y108921*
X109980Y108880*
X109944Y108928*
X109731Y109090*
X109484Y109193*
X109219Y109228*
X108954Y109193*
X108707Y109090*
X108494Y108928*
X108332Y108715*
X108229Y108468*
X108194Y108203*
X108229Y107938*
X108332Y107691*
X108494Y107478*
X108707Y107316*
X108954Y107213*
X109219Y107178*
X109484Y107213*
X109731Y107316*
X109944Y107478*
X109980Y107526*
X110101Y107485*
Y106381*
X109980Y106340*
X109944Y106388*
X109731Y106550*
X109484Y106653*
X109219Y106688*
X108954Y106653*
X108707Y106550*
X108494Y106388*
X108332Y106175*
X108229Y105928*
X108194Y105663*
X108229Y105398*
X108332Y105151*
X108494Y104938*
X108707Y104776*
X108954Y104673*
X109219Y104638*
X109484Y104673*
X109731Y104776*
X109944Y104938*
X109980Y104986*
X110101Y104945*
Y103841*
X109980Y103800*
X109944Y103848*
X109731Y104010*
X109484Y104113*
X109219Y104148*
X108954Y104113*
X108707Y104010*
X108494Y103848*
X108332Y103635*
X108229Y103388*
X108194Y103123*
X108229Y102858*
X108332Y102611*
X108494Y102398*
X108707Y102236*
X108954Y102133*
X109219Y102098*
X109484Y102133*
X109731Y102236*
X109944Y102398*
X109980Y102446*
X110101Y102405*
Y101301*
X109980Y101260*
X109944Y101308*
X109731Y101470*
X109484Y101573*
X109219Y101608*
X108954Y101573*
X108707Y101470*
X108494Y101308*
X108332Y101095*
X108229Y100848*
X108194Y100583*
X108229Y100318*
X108332Y100071*
X108494Y99858*
X108707Y99696*
X108954Y99593*
X109219Y99558*
X109484Y99593*
X109731Y99696*
X109944Y99858*
X109980Y99906*
X110101Y99865*
Y98761*
X109980Y98720*
X109944Y98768*
X109731Y98930*
X109484Y99033*
X109219Y99068*
X108954Y99033*
X108707Y98930*
X108494Y98768*
X108332Y98555*
X108229Y98308*
X108194Y98043*
X108229Y97778*
X108332Y97531*
X108494Y97318*
X108707Y97156*
X108954Y97053*
X109219Y97018*
X109484Y97053*
X109731Y97156*
X109944Y97318*
X109980Y97366*
X110101Y97325*
Y96221*
X109980Y96180*
X109944Y96228*
X109731Y96390*
X109484Y96493*
X109219Y96528*
X108954Y96493*
X108707Y96390*
X108494Y96228*
X108332Y96015*
X108229Y95768*
X108194Y95503*
X108229Y95238*
X108332Y94991*
X108494Y94778*
X108707Y94616*
X108954Y94513*
X109219Y94478*
X109484Y94513*
X109731Y94616*
X109944Y94778*
X109980Y94826*
X110101Y94785*
Y93979*
X109346*
Y92963*
Y91947*
X110101*
Y91772*
X110010Y91637*
X109971Y91439*
X110010Y91241*
X110101Y91106*
Y86061*
X109980Y86020*
X109944Y86068*
X109731Y86230*
X109484Y86333*
X109346Y86351*
Y85343*
Y84335*
X109484Y84353*
X109731Y84456*
X109944Y84618*
X109980Y84666*
X110101Y84625*
Y83521*
X109980Y83480*
X109944Y83528*
X109731Y83690*
X109484Y83793*
X109219Y83828*
X108954Y83793*
X108707Y83690*
X108494Y83528*
X108332Y83315*
X108229Y83068*
X108194Y82803*
X108229Y82538*
X108332Y82291*
X108494Y82078*
X108707Y81916*
X108954Y81813*
X109219Y81778*
X109484Y81813*
X109731Y81916*
X109944Y82078*
X110106Y82291*
X110119Y82321*
X110241Y82358*
X110291Y82324*
X110489Y82285*
X110637Y82315*
X110736Y82234*
Y80596*
X110645Y80461*
X110606Y80263*
X110645Y80065*
X110758Y79897*
X110926Y79784*
X111124Y79745*
X111272Y79775*
X111371Y79694*
Y78056*
X111280Y77921*
X111241Y77723*
X111280Y77525*
X111393Y77357*
X111561Y77244*
X111759Y77205*
X111907Y77235*
X112006Y77154*
Y75516*
X111915Y75381*
X111876Y75183*
X111915Y74985*
X112028Y74817*
X112196Y74704*
X112394Y74665*
X112542Y74695*
X112641Y74614*
Y72976*
X112550Y72841*
X112511Y72643*
X112550Y72445*
X112663Y72277*
X112831Y72164*
X113029Y72125*
X113177Y72155*
X113276Y72074*
Y70436*
X113185Y70301*
X113146Y70103*
X113185Y69905*
X113298Y69737*
X113466Y69624*
X113664Y69585*
X113812Y69615*
X113911Y69534*
Y67896*
X113820Y67761*
X113781Y67563*
X113820Y67365*
X113933Y67197*
X114101Y67084*
X114299Y67045*
X114447Y67075*
X114546Y66994*
Y65356*
X114455Y65221*
X114416Y65023*
X114455Y64825*
X114568Y64657*
X114736Y64544*
X114934Y64505*
X115132Y64544*
X115300Y64657*
X115313Y64676*
X115435Y64639*
Y64041*
X112487Y61093*
X112346*
X112211Y61184*
X112013Y61223*
X111815Y61184*
X111647Y61071*
X111534Y60903*
X111495Y60705*
X111534Y60507*
X111647Y60339*
X111815Y60226*
X111929Y60204*
X111916Y60077*
X100583*
X100434Y60048*
X100308Y59964*
X97616Y57271*
X97532Y57145*
X97502Y56997*
Y53757*
X97384Y53708*
X97175Y53547*
X97014Y53337*
X96912Y53093*
X96878Y52831*
X96912Y52569*
X97014Y52325*
X97175Y52115*
X97384Y51954*
X97629Y51853*
X97891Y51818*
X98153Y51853*
X98397Y51954*
X98607Y52115*
X98677Y52207*
X98798Y52166*
Y51747*
X98345Y51295*
X96887*
Y49287*
X98895*
Y50746*
X99461Y51312*
X99545Y51438*
X99574Y51586*
Y52100*
X99695Y52141*
X99715Y52115*
X99924Y51954*
X100169Y51853*
X100431Y51818*
X100693Y51853*
X100937Y51954*
X101147Y52115*
X101217Y52207*
X101338Y52166*
Y51747*
X100811Y51220*
X100693Y51269*
X100431Y51304*
X100169Y51269*
X99924Y51168*
X99715Y51007*
X99554Y50797*
X99452Y50553*
X99418Y50291*
X99452Y50029*
X99554Y49785*
X99715Y49575*
X99924Y49414*
X100169Y49313*
X100431Y49278*
X100693Y49313*
X100937Y49414*
X101147Y49575*
X101308Y49785*
X101409Y50029*
X101443Y50291*
X101409Y50553*
X101360Y50671*
X102001Y51312*
X102085Y51438*
X102114Y51586*
Y52100*
X102235Y52141*
X102255Y52115*
X102464Y51954*
X102709Y51853*
X102971Y51818*
X103233Y51853*
X103477Y51954*
X103687Y52115*
X103848Y52325*
X103949Y52569*
X103983Y52831*
X103949Y53093*
X103848Y53337*
X103687Y53547*
X103477Y53708*
X103359Y53757*
Y54804*
X105062Y56507*
X111680*
X111815Y56416*
X112013Y56377*
X112211Y56416*
X112379Y56529*
X112492Y56697*
X112531Y56895*
X112492Y57093*
X112379Y57261*
X112211Y57374*
X112013Y57413*
X111815Y57374*
X111680Y57283*
X104901*
X104752Y57254*
X104626Y57170*
X102696Y55239*
X102612Y55113*
X102582Y54965*
Y53757*
X102464Y53708*
X102255Y53547*
X102235Y53521*
X102114Y53562*
Y56734*
X103157Y57777*
X113664*
X113813Y57806*
X113939Y57890*
X118130Y62081*
X118214Y62207*
X118243Y62356*
Y67653*
X118370Y67662*
X118383Y67567*
X118459Y67382*
X118582Y67223*
X118741Y67101*
X118832Y67063*
X120478Y65417*
Y53429*
X120466Y53420*
X120305Y53210*
X120204Y52966*
X120170Y52704*
X120204Y52442*
X120305Y52198*
X120466Y51988*
X120676Y51827*
X120920Y51726*
X121182Y51691*
X121445Y51726*
X121689Y51827*
X121898Y51988*
X122059Y52198*
X122161Y52442*
X122195Y52704*
X122161Y52966*
X122059Y53210*
X121898Y53420*
X121887Y53429*
Y65709*
X121863Y65891*
X121793Y66061*
X121681Y66207*
X119828Y68059*
X119791Y68150*
X119668Y68310*
X119509Y68432*
X119324Y68509*
X119125Y68535*
X118926Y68509*
X118741Y68432*
X118582Y68310*
X118459Y68150*
X118383Y67965*
X118370Y67871*
X118243Y67879*
Y68291*
X118651Y68699*
X120488*
X122293Y66894*
Y61721*
X122322Y61572*
X122406Y61446*
X122914Y60938*
X123040Y60854*
X123189Y60825*
X123542*
X123677Y60734*
X123875Y60695*
X124073Y60734*
X124241Y60847*
X124353Y61015*
X124393Y61213*
X124353Y61411*
X124263Y61546*
Y61764*
X124579*
Y63072*
Y63164*
Y63691*
X123875*
Y63818*
X123748*
Y64472*
X123171*
X123159*
X123069Y64562*
Y67055*
X123040Y67204*
X122956Y67330*
X120942Y69343*
X120991Y69461*
X121377*
X122406Y68431*
X122532Y68347*
X122681Y68318*
X123542*
X123677Y68227*
X123875Y68188*
X124073Y68227*
X124241Y68340*
X124353Y68508*
X124393Y68706*
X124353Y68904*
X124263Y69039*
Y69257*
X124579*
Y70565*
Y70657*
Y71184*
X123171*
Y70657*
Y70565*
Y69257*
X123486*
Y69094*
X122842*
X121813Y70124*
X121687Y70208*
X121538Y70237*
X118363*
X118239Y70213*
X118214Y70208*
X118088Y70124*
X117345Y69380*
X117227Y69429*
Y76292*
X117635Y76700*
X121377*
X122152Y75924*
X122278Y75840*
X122427Y75811*
X123542*
X123677Y75720*
X123875Y75681*
X124073Y75720*
X124241Y75833*
X124353Y76001*
X124393Y76199*
X124353Y76397*
X124263Y76532*
Y76750*
X124579*
Y78058*
Y78150*
Y78677*
X123171*
Y78150*
Y78058*
Y76750*
X123486*
Y76587*
X122588*
X121813Y77363*
X121687Y77447*
X121538Y77476*
X117474*
X117350Y77452*
X117325Y77447*
X117199Y77363*
X116837Y77000*
X116719Y77049*
Y83277*
X117381Y83939*
X122139*
X122504Y83574*
X122455Y83457*
X119415*
X119324Y83495*
X119125Y83521*
X118926Y83495*
X118741Y83418*
X118582Y83296*
X118459Y83136*
X118383Y82951*
X118356Y82752*
X118383Y82553*
X118459Y82368*
X118582Y82209*
X118741Y82087*
X118926Y82010*
X119125Y81984*
X119324Y82010*
X119415Y82048*
X122440*
X125024Y79463*
Y57889*
X125004Y57874*
X124842Y57661*
X124739Y57414*
X124704Y57149*
X124739Y56884*
X124842Y56637*
X125004Y56424*
X125217Y56262*
X125464Y56159*
X125729Y56124*
X125994Y56159*
X126241Y56262*
X126454Y56424*
X126616Y56637*
X126719Y56884*
X126754Y57149*
X126719Y57414*
X126616Y57661*
X126454Y57874*
X126434Y57889*
Y79755*
X126410Y79937*
X126368Y80037*
X126339Y80107*
X126227Y80253*
X123294Y83186*
X123343Y83304*
X123542*
X123677Y83213*
X123875Y83174*
X124073Y83213*
X124241Y83326*
X124353Y83494*
X124393Y83692*
X124353Y83890*
X124263Y84025*
Y84243*
X124579*
Y85551*
Y85643*
Y86170*
X123171*
Y85643*
Y85551*
Y84243*
X123486*
Y84080*
X123096*
X122575Y84602*
X122449Y84686*
X122300Y84715*
X117220*
X117071Y84686*
X116945Y84602*
X116329Y83985*
X116211Y84034*
Y84801*
X118651Y87241*
X125060*
X128883Y83417*
X129009Y83333*
X129158Y83304*
X130077*
X130133Y83190*
X130093Y83136*
X130016Y82951*
X129990Y82752*
X130016Y82553*
X130093Y82368*
X130215Y82209*
X130374Y82087*
X130559Y82010*
X130758Y81984*
X130957Y82010*
X131142Y82087*
X131302Y82209*
X131424Y82368*
X131501Y82553*
X131527Y82752*
X131501Y82951*
X131424Y83136*
X131383Y83190*
X131439Y83304*
X135175*
X135310Y83213*
X135508Y83174*
X135706Y83213*
X135874Y83326*
X135987Y83494*
X136026Y83692*
X135987Y83890*
X135896Y84025*
Y84243*
X136212*
Y85551*
Y85643*
Y86170*
X134804*
Y85643*
Y85551*
Y84243*
X135120*
Y84080*
X129319*
X125496Y87904*
X125370Y87988*
X125221Y88017*
X118490*
X118341Y87988*
X118215Y87904*
X115548Y85237*
X115464Y85111*
X115449Y85034*
X115322Y85046*
Y86661*
X115413Y86796*
X115452Y86994*
X115413Y87192*
X115322Y87327*
Y95170*
X115413Y95305*
X115452Y95503*
X115413Y95701*
X115300Y95869*
X115132Y95982*
X114934Y96021*
X114786Y95991*
X114687Y96072*
Y97710*
X114778Y97845*
X114817Y98043*
X114778Y98241*
X114665Y98409*
X114497Y98522*
X114299Y98561*
X114151Y98531*
X114052Y98612*
Y100250*
X114143Y100385*
X114182Y100583*
X114143Y100781*
X114030Y100949*
X113862Y101062*
X113664Y101101*
X113516Y101071*
X113417Y101152*
Y102790*
X113508Y102925*
X113547Y103123*
X113508Y103321*
X113395Y103489*
X113227Y103602*
X113029Y103641*
X112881Y103611*
X112782Y103692*
Y105330*
X112873Y105465*
X112912Y105663*
X112873Y105861*
X112760Y106029*
X112592Y106142*
X112394Y106181*
X112246Y106151*
X112147Y106232*
Y107870*
X112238Y108005*
X112277Y108203*
X112238Y108401*
X112125Y108569*
X111957Y108682*
X111759Y108721*
X111611Y108691*
X111512Y108772*
Y110410*
X111603Y110545*
X111642Y110743*
X111603Y110941*
X111490Y111109*
X111322Y111222*
X111124Y111261*
X110976Y111231*
X110877Y111312*
Y112950*
X110968Y113085*
X111007Y113283*
X110968Y113481*
X110855Y113649*
X110687Y113762*
X110489Y113801*
X110291Y113762*
X110241Y113728*
X110119Y113765*
X110106Y113795*
X109944Y114008*
X109731Y114170*
X109484Y114273*
X109219Y114308*
G37*
G36*
X69214D02*
X68949Y114273D01*
X68702Y114170*
X68489Y114008*
X68327Y113795*
X68224Y113548*
X68189Y113283*
X68224Y113018*
X68327Y112771*
X68489Y112558*
X68702Y112396*
X68949Y112293*
X69214Y112258*
X69479Y112293*
X69726Y112396*
X69939Y112558*
X69975Y112606*
X70096Y112565*
Y111461*
X69975Y111420*
X69939Y111468*
X69726Y111630*
X69479Y111733*
X69214Y111768*
X68949Y111733*
X68702Y111630*
X68489Y111468*
X68327Y111255*
X68224Y111008*
X68189Y110743*
X68224Y110478*
X68327Y110231*
X68489Y110018*
X68702Y109856*
X68949Y109753*
X69214Y109718*
X69479Y109753*
X69726Y109856*
X69939Y110018*
X69975Y110066*
X70096Y110025*
Y108921*
X69975Y108880*
X69939Y108928*
X69726Y109090*
X69479Y109193*
X69214Y109228*
X68949Y109193*
X68702Y109090*
X68489Y108928*
X68327Y108715*
X68224Y108468*
X68189Y108203*
X68224Y107938*
X68327Y107691*
X68489Y107478*
X68702Y107316*
X68949Y107213*
X69214Y107178*
X69479Y107213*
X69726Y107316*
X69939Y107478*
X69975Y107526*
X70096Y107485*
Y106381*
X69975Y106340*
X69939Y106388*
X69726Y106550*
X69479Y106653*
X69214Y106688*
X68949Y106653*
X68702Y106550*
X68489Y106388*
X68327Y106175*
X68224Y105928*
X68189Y105663*
X68224Y105398*
X68327Y105151*
X68489Y104938*
X68702Y104776*
X68949Y104673*
X69214Y104638*
X69479Y104673*
X69726Y104776*
X69939Y104938*
X69975Y104986*
X70096Y104945*
Y103841*
X69975Y103800*
X69939Y103848*
X69726Y104010*
X69479Y104113*
X69214Y104148*
X68949Y104113*
X68702Y104010*
X68489Y103848*
X68327Y103635*
X68224Y103388*
X68189Y103123*
X68224Y102858*
X68327Y102611*
X68489Y102398*
X68702Y102236*
X68949Y102133*
X69214Y102098*
X69479Y102133*
X69726Y102236*
X69939Y102398*
X69975Y102446*
X70096Y102405*
Y101301*
X69975Y101260*
X69939Y101308*
X69726Y101470*
X69479Y101573*
X69214Y101608*
X68949Y101573*
X68702Y101470*
X68489Y101308*
X68327Y101095*
X68224Y100848*
X68189Y100583*
X68224Y100318*
X68327Y100071*
X68489Y99858*
X68702Y99696*
X68949Y99593*
X69214Y99558*
X69479Y99593*
X69726Y99696*
X69939Y99858*
X69975Y99906*
X70096Y99865*
Y98761*
X69975Y98720*
X69939Y98768*
X69726Y98930*
X69479Y99033*
X69214Y99068*
X68949Y99033*
X68702Y98930*
X68489Y98768*
X68327Y98555*
X68224Y98308*
X68189Y98043*
X68224Y97778*
X68327Y97531*
X68489Y97318*
X68702Y97156*
X68949Y97053*
X69214Y97018*
X69479Y97053*
X69726Y97156*
X69939Y97318*
X69975Y97366*
X70096Y97325*
Y96221*
X69975Y96180*
X69939Y96228*
X69726Y96390*
X69479Y96493*
X69214Y96528*
X68949Y96493*
X68702Y96390*
X68489Y96228*
X68327Y96015*
X68224Y95768*
X68189Y95503*
X68224Y95238*
X68327Y94991*
X68489Y94778*
X68702Y94616*
X68949Y94513*
X69214Y94478*
X69479Y94513*
X69726Y94616*
X69939Y94778*
X69975Y94826*
X70096Y94785*
Y93979*
X69341*
Y92963*
Y91947*
X70096*
Y91772*
X70005Y91637*
X69966Y91439*
X70005Y91241*
X70096Y91106*
Y86061*
X69975Y86020*
X69939Y86068*
X69726Y86230*
X69479Y86333*
X69341Y86351*
Y85343*
Y84335*
X69479Y84353*
X69726Y84456*
X69939Y84618*
X69975Y84666*
X70096Y84625*
Y83521*
X69975Y83480*
X69939Y83528*
X69726Y83690*
X69479Y83793*
X69214Y83828*
X68949Y83793*
X68702Y83690*
X68489Y83528*
X68327Y83315*
X68224Y83068*
X68189Y82803*
X68224Y82538*
X68327Y82291*
X68489Y82078*
X68702Y81916*
X68949Y81813*
X69214Y81778*
X69479Y81813*
X69726Y81916*
X69939Y82078*
X70101Y82291*
X70114Y82321*
X70236Y82358*
X70286Y82324*
X70484Y82285*
X70632Y82315*
X70731Y82234*
Y80596*
X70640Y80461*
X70601Y80263*
X70640Y80065*
X70753Y79897*
X70921Y79784*
X71119Y79745*
X71267Y79775*
X71366Y79694*
Y78056*
X71275Y77921*
X71236Y77723*
X71275Y77525*
X71388Y77357*
X71556Y77244*
X71754Y77205*
X71902Y77235*
X72001Y77154*
Y75516*
X71910Y75381*
X71871Y75183*
X71910Y74985*
X72023Y74817*
X72191Y74704*
X72389Y74665*
X72537Y74695*
X72636Y74614*
Y72976*
X72545Y72841*
X72506Y72643*
X72545Y72445*
X72658Y72277*
X72826Y72164*
X73024Y72125*
X73172Y72155*
X73271Y72074*
Y70436*
X73180Y70301*
X73141Y70103*
X73180Y69905*
X73293Y69737*
X73461Y69624*
X73659Y69585*
X73807Y69615*
X73906Y69534*
Y67896*
X73815Y67761*
X73776Y67563*
X73815Y67365*
X73928Y67197*
X74096Y67084*
X74294Y67045*
X74442Y67075*
X74541Y66994*
Y65356*
X74450Y65221*
X74411Y65023*
X74450Y64825*
X74563Y64657*
X74731Y64544*
X74929Y64505*
X75127Y64544*
X75177Y64578*
X75299Y64541*
X75312Y64511*
X75474Y64298*
X75687Y64136*
X75934Y64033*
X76199Y63998*
X76464Y64033*
X76711Y64136*
X76924Y64298*
X77086Y64511*
X77189Y64758*
X77224Y65023*
X77189Y65288*
X77086Y65535*
X76924Y65748*
X76711Y65910*
X76464Y66013*
X76199Y66048*
X75934Y66013*
X75687Y65910*
X75474Y65748*
X75438Y65700*
X75317Y65741*
Y66845*
X75438Y66886*
X75474Y66838*
X75687Y66676*
X75934Y66573*
X76199Y66538*
X76464Y66573*
X76711Y66676*
X76924Y66838*
X77086Y67051*
X77189Y67298*
X77224Y67563*
X77189Y67828*
X77086Y68075*
X76924Y68288*
X76711Y68450*
X76464Y68553*
X76199Y68588*
X75934Y68553*
X75687Y68450*
X75474Y68288*
X75438Y68240*
X75317Y68281*
Y69385*
X75438Y69426*
X75474Y69378*
X75687Y69216*
X75934Y69113*
X76199Y69078*
X76464Y69113*
X76711Y69216*
X76924Y69378*
X77086Y69591*
X77189Y69838*
X77224Y70103*
X77189Y70368*
X77086Y70615*
X76924Y70828*
X76711Y70990*
X76464Y71093*
X76199Y71128*
X75934Y71093*
X75687Y70990*
X75474Y70828*
X75438Y70780*
X75317Y70821*
Y71925*
X75438Y71966*
X75474Y71918*
X75687Y71756*
X75934Y71653*
X76199Y71618*
X76464Y71653*
X76711Y71756*
X76924Y71918*
X77086Y72131*
X77189Y72378*
X77224Y72643*
X77189Y72908*
X77086Y73155*
X76924Y73368*
X76711Y73530*
X76464Y73633*
X76199Y73668*
X75934Y73633*
X75687Y73530*
X75474Y73368*
X75438Y73320*
X75317Y73361*
Y74465*
X75438Y74506*
X75474Y74458*
X75687Y74296*
X75934Y74193*
X76199Y74158*
X76464Y74193*
X76711Y74296*
X76924Y74458*
X77086Y74671*
X77189Y74918*
X77224Y75183*
X77189Y75448*
X77086Y75695*
X76924Y75908*
X76711Y76070*
X76464Y76173*
X76199Y76208*
X75934Y76173*
X75687Y76070*
X75474Y75908*
X75438Y75860*
X75317Y75901*
Y77005*
X75438Y77046*
X75474Y76998*
X75687Y76836*
X75934Y76733*
X76199Y76698*
X76464Y76733*
X76711Y76836*
X76924Y76998*
X77086Y77211*
X77189Y77458*
X77224Y77723*
X77189Y77988*
X77086Y78235*
X76924Y78448*
X76711Y78610*
X76464Y78713*
X76199Y78748*
X75934Y78713*
X75687Y78610*
X75474Y78448*
X75438Y78400*
X75317Y78441*
Y79545*
X75438Y79586*
X75474Y79538*
X75687Y79376*
X75934Y79273*
X76199Y79238*
X76464Y79273*
X76711Y79376*
X76924Y79538*
X77086Y79751*
X77189Y79998*
X77224Y80263*
X77189Y80528*
X77086Y80775*
X76924Y80988*
X76711Y81150*
X76464Y81253*
X76199Y81288*
X75934Y81253*
X75687Y81150*
X75474Y80988*
X75438Y80940*
X75317Y80981*
Y82085*
X75438Y82126*
X75474Y82078*
X75687Y81916*
X75934Y81813*
X76199Y81778*
X76464Y81813*
X76711Y81916*
X76924Y82078*
X77086Y82291*
X77189Y82538*
X77224Y82803*
X77189Y83068*
X77086Y83315*
X76924Y83528*
X76711Y83690*
X76464Y83793*
X76199Y83828*
X75934Y83793*
X75687Y83690*
X75474Y83528*
X75438Y83480*
X75317Y83521*
Y84327*
X76072*
Y85343*
Y86359*
X75317*
Y86661*
X75408Y86796*
X75447Y86994*
X75408Y87192*
X75317Y87327*
Y92245*
X75438Y92286*
X75474Y92238*
X75687Y92076*
X75934Y91973*
X76072Y91955*
Y92963*
Y93971*
X75934Y93953*
X75687Y93850*
X75474Y93688*
X75438Y93640*
X75317Y93681*
Y94785*
X75438Y94826*
X75474Y94778*
X75687Y94616*
X75934Y94513*
X76199Y94478*
X76464Y94513*
X76711Y94616*
X76924Y94778*
X77086Y94991*
X77189Y95238*
X77224Y95503*
X77189Y95768*
X77086Y96015*
X76924Y96228*
X76711Y96390*
X76464Y96493*
X76199Y96528*
X75934Y96493*
X75687Y96390*
X75474Y96228*
X75312Y96015*
X75299Y95985*
X75177Y95948*
X75127Y95982*
X74929Y96021*
X74781Y95991*
X74682Y96072*
Y97710*
X74773Y97845*
X74812Y98043*
X74773Y98241*
X74660Y98409*
X74492Y98522*
X74294Y98561*
X74146Y98531*
X74047Y98612*
Y100250*
X74138Y100385*
X74177Y100583*
X74138Y100781*
X74025Y100949*
X73857Y101062*
X73659Y101101*
X73511Y101071*
X73412Y101152*
Y102790*
X73503Y102925*
X73542Y103123*
X73503Y103321*
X73390Y103489*
X73222Y103602*
X73024Y103641*
X72876Y103611*
X72777Y103692*
Y105330*
X72868Y105465*
X72907Y105663*
X72868Y105861*
X72755Y106029*
X72587Y106142*
X72389Y106181*
X72241Y106151*
X72142Y106232*
Y107870*
X72233Y108005*
X72272Y108203*
X72233Y108401*
X72120Y108569*
X71952Y108682*
X71754Y108721*
X71606Y108691*
X71507Y108772*
Y110410*
X71598Y110545*
X71637Y110743*
X71598Y110941*
X71485Y111109*
X71317Y111222*
X71119Y111261*
X70971Y111231*
X70872Y111312*
Y112950*
X70963Y113085*
X71002Y113283*
X70963Y113481*
X70850Y113649*
X70682Y113762*
X70484Y113801*
X70286Y113762*
X70236Y113728*
X70114Y113765*
X70101Y113795*
X69939Y114008*
X69726Y114170*
X69479Y114273*
X69214Y114308*
G37*
G36*
X57238Y111847D02*
X55630D01*
Y111441*
X54723*
X54690Y111484*
X54480Y111645*
X54236Y111747*
X53974Y111781*
X53712Y111747*
X53468Y111645*
X53258Y111484*
X53097Y111275*
X52996Y111031*
X52961Y110768*
X52996Y110506*
X53097Y110262*
X53258Y110052*
X53468Y109891*
X53712Y109790*
X53974Y109756*
X54236Y109790*
X54480Y109891*
X54690Y110052*
X54762Y110146*
X55630*
Y109639*
X57238*
Y111847*
G37*
G36*
X59938Y114387D02*
X58330D01*
Y112179*
X59938*
Y112661*
X60791*
X60869Y112558*
X61082Y112396*
X61329Y112293*
X61594Y112258*
X61859Y112293*
X62106Y112396*
X62319Y112558*
X62481Y112771*
X62584Y113018*
X62619Y113283*
X62584Y113548*
X62481Y113795*
X62319Y114008*
X62106Y114170*
X61859Y114273*
X61594Y114308*
X61329Y114273*
X61082Y114170*
X60869Y114008*
X60830Y113956*
X59938*
Y114387*
G37*
G36*
X36194Y114308D02*
X35929Y114273D01*
X35682Y114170*
X35469Y114008*
X35307Y113795*
X35204Y113548*
X35169Y113283*
X35204Y113018*
X35307Y112771*
X35469Y112558*
X35682Y112396*
X35929Y112293*
X36194Y112258*
X36459Y112293*
X36706Y112396*
X36919Y112558*
X37081Y112771*
X37184Y113018*
X37219Y113283*
X37184Y113548*
X37081Y113795*
X36919Y114008*
X36706Y114170*
X36459Y114273*
X36194Y114308*
G37*
G36*
X120268Y111752D02*
Y110743D01*
X121277*
X121255Y110914*
X121139Y111192*
X120956Y111431*
X120717Y111614*
X120439Y111730*
X120268Y111752*
G37*
G36*
X120014D02*
X119843Y111730D01*
X119565Y111614*
X119326Y111431*
X119143Y111192*
X119027Y110914*
X119005Y110743*
X120014*
Y111752*
G37*
G36*
X87083Y111847D02*
X85475D01*
Y111390*
X84603*
X84544Y111468*
X84331Y111630*
X84084Y111733*
X83819Y111768*
X83554Y111733*
X83307Y111630*
X83094Y111468*
X82932Y111255*
X82829Y111008*
X82794Y110743*
X82829Y110478*
X82932Y110231*
X83094Y110018*
X83307Y109856*
X83554Y109753*
X83819Y109718*
X84084Y109753*
X84331Y109856*
X84544Y110018*
X84603Y110096*
X85475*
Y109639*
X87083*
Y111847*
G37*
G36*
X97243D02*
X95635D01*
Y111416*
X94748*
X94695Y111484*
X94485Y111645*
X94241Y111747*
X93979Y111781*
X93717Y111747*
X93473Y111645*
X93263Y111484*
X93102Y111275*
X93001Y111031*
X92966Y110768*
X93001Y110506*
X93102Y110262*
X93263Y110052*
X93473Y109891*
X93717Y109790*
X93979Y109756*
X94241Y109790*
X94485Y109891*
X94695Y110052*
X94748Y110121*
X95635*
Y109639*
X97243*
Y111847*
G37*
G36*
X47078D02*
X45470D01*
Y111416*
X44578*
X44539Y111468*
X44326Y111630*
X44079Y111733*
X43814Y111768*
X43549Y111733*
X43302Y111630*
X43089Y111468*
X42927Y111255*
X42824Y111008*
X42789Y110743*
X42824Y110478*
X42927Y110231*
X43089Y110018*
X43302Y109856*
X43549Y109753*
X43814Y109718*
X44079Y109753*
X44326Y109856*
X44539Y110018*
X44617Y110121*
X45470*
Y109639*
X47078*
Y111847*
G37*
G36*
Y106767D02*
X45470D01*
Y106336*
X44578*
X44539Y106388*
X44326Y106550*
X44079Y106653*
X43814Y106688*
X43549Y106653*
X43302Y106550*
X43089Y106388*
X42927Y106175*
X42824Y105928*
X42789Y105663*
X42824Y105398*
X42927Y105151*
X43089Y104938*
X43302Y104776*
X43549Y104673*
X43814Y104638*
X44079Y104673*
X44326Y104776*
X44539Y104938*
X44617Y105041*
X45470*
Y104559*
X47078*
Y106767*
G37*
G36*
X87083D02*
X85475D01*
Y106310*
X84603*
X84544Y106388*
X84331Y106550*
X84084Y106653*
X83819Y106688*
X83554Y106653*
X83307Y106550*
X83094Y106388*
X82932Y106175*
X82829Y105928*
X82794Y105663*
X82829Y105398*
X82932Y105151*
X83094Y104938*
X83307Y104776*
X83554Y104673*
X83819Y104638*
X84084Y104673*
X84331Y104776*
X84544Y104938*
X84603Y105016*
X85475*
Y104559*
X87083*
Y106767*
G37*
G36*
X97243D02*
X95635D01*
Y106336*
X94748*
X94695Y106404*
X94485Y106565*
X94241Y106667*
X93979Y106701*
X93717Y106667*
X93473Y106565*
X93263Y106404*
X93102Y106195*
X93001Y105950*
X92966Y105688*
X93001Y105426*
X93102Y105182*
X93263Y104972*
X93473Y104811*
X93717Y104710*
X93979Y104676*
X94241Y104710*
X94485Y104811*
X94695Y104972*
X94748Y105041*
X95635*
Y104559*
X97243*
Y106767*
G37*
G36*
X36194Y109228D02*
X35929Y109193D01*
X35682Y109090*
X35469Y108928*
X35307Y108715*
X35204Y108468*
X35169Y108203*
X35204Y107938*
X35307Y107691*
X35469Y107478*
X35682Y107316*
X35929Y107213*
X36194Y107178*
X36459Y107213*
X36706Y107316*
X36919Y107478*
X37081Y107691*
X37184Y107938*
X37219Y108203*
X37184Y108468*
X37081Y108715*
X36919Y108928*
X36706Y109090*
X36459Y109193*
X36194Y109228*
G37*
G36*
X57238Y106767D02*
X55630D01*
Y106361*
X54723*
X54690Y106404*
X54480Y106565*
X54236Y106667*
X53974Y106701*
X53712Y106667*
X53468Y106565*
X53258Y106404*
X53097Y106195*
X52996Y105950*
X52961Y105688*
X52996Y105426*
X53097Y105182*
X53258Y104972*
X53468Y104811*
X53712Y104710*
X53974Y104676*
X54236Y104710*
X54480Y104811*
X54690Y104972*
X54762Y105066*
X55630*
Y104559*
X57238*
Y106767*
G37*
G36*
X49778D02*
X48170D01*
Y104559*
X49778*
Y105041*
X50665*
X50718Y104972*
X50928Y104811*
X51172Y104710*
X51434Y104676*
X51696Y104710*
X51940Y104811*
X52150Y104972*
X52311Y105182*
X52412Y105426*
X52447Y105688*
X52412Y105950*
X52311Y106195*
X52150Y106404*
X51940Y106565*
X51696Y106667*
X51434Y106701*
X51172Y106667*
X50928Y106565*
X50718Y106404*
X50665Y106336*
X49778*
Y106767*
G37*
G36*
X99943D02*
X98335D01*
Y104559*
X99943*
Y105016*
X100815*
X100874Y104938*
X101087Y104776*
X101334Y104673*
X101599Y104638*
X101864Y104673*
X102111Y104776*
X102324Y104938*
X102486Y105151*
X102589Y105398*
X102624Y105663*
X102589Y105928*
X102486Y106175*
X102324Y106388*
X102111Y106550*
X101864Y106653*
X101599Y106688*
X101334Y106653*
X101087Y106550*
X100874Y106388*
X100815Y106310*
X99943*
Y106767*
G37*
G36*
X89783D02*
X88175D01*
Y104559*
X89783*
Y105041*
X90670*
X90723Y104972*
X90933Y104811*
X91177Y104710*
X91439Y104676*
X91701Y104710*
X91945Y104811*
X92155Y104972*
X92316Y105182*
X92417Y105426*
X92452Y105688*
X92417Y105950*
X92316Y106195*
X92155Y106404*
X91945Y106565*
X91701Y106667*
X91439Y106701*
X91177Y106667*
X90933Y106565*
X90723Y106404*
X90670Y106336*
X89783*
Y106767*
G37*
G36*
X135238Y107187D02*
X134111D01*
Y106060*
X135238*
Y107187*
G37*
G36*
X133857D02*
X132730D01*
Y106060*
X133857*
Y107187*
G37*
G36*
X135238Y108568D02*
X134111D01*
Y107441*
X135238*
Y108568*
G37*
G36*
X133857D02*
X132730D01*
Y107441*
X133857*
Y108568*
G37*
G36*
X87083Y109307D02*
X85475D01*
Y108850*
X84603*
X84544Y108928*
X84331Y109090*
X84084Y109193*
X83819Y109228*
X83554Y109193*
X83307Y109090*
X83094Y108928*
X82932Y108715*
X82829Y108468*
X82794Y108203*
X82829Y107938*
X82932Y107691*
X83094Y107478*
X83307Y107316*
X83554Y107213*
X83819Y107178*
X84084Y107213*
X84331Y107316*
X84544Y107478*
X84603Y107556*
X85475*
Y107099*
X87083*
Y109307*
G37*
G36*
X97243D02*
X95635D01*
Y108876*
X94748*
X94695Y108944*
X94485Y109105*
X94241Y109207*
X93979Y109241*
X93717Y109207*
X93473Y109105*
X93263Y108944*
X93102Y108735*
X93001Y108491*
X92966Y108228*
X93001Y107966*
X93102Y107722*
X93263Y107512*
X93473Y107351*
X93717Y107250*
X93979Y107216*
X94241Y107250*
X94485Y107351*
X94695Y107512*
X94748Y107581*
X95635*
Y107099*
X97243*
Y109307*
G37*
G36*
X47078D02*
X45470D01*
Y108876*
X44578*
X44539Y108928*
X44326Y109090*
X44079Y109193*
X43814Y109228*
X43549Y109193*
X43302Y109090*
X43089Y108928*
X42927Y108715*
X42824Y108468*
X42789Y108203*
X42824Y107938*
X42927Y107691*
X43089Y107478*
X43302Y107316*
X43549Y107213*
X43814Y107178*
X44079Y107213*
X44326Y107316*
X44539Y107478*
X44617Y107581*
X45470*
Y107099*
X47078*
Y109307*
G37*
G36*
X76199Y109228D02*
X75934Y109193D01*
X75687Y109090*
X75474Y108928*
X75312Y108715*
X75209Y108468*
X75174Y108203*
X75209Y107938*
X75312Y107691*
X75474Y107478*
X75687Y107316*
X75934Y107213*
X76199Y107178*
X76464Y107213*
X76711Y107316*
X76924Y107478*
X77086Y107691*
X77189Y107938*
X77224Y108203*
X77189Y108468*
X77086Y108715*
X76924Y108928*
X76711Y109090*
X76464Y109193*
X76199Y109228*
G37*
G36*
X59938Y109307D02*
X58330D01*
Y107099*
X59938*
Y107581*
X60791*
X60869Y107478*
X61082Y107316*
X61329Y107213*
X61594Y107178*
X61859Y107213*
X62106Y107316*
X62319Y107478*
X62481Y107691*
X62584Y107938*
X62619Y108203*
X62584Y108468*
X62481Y108715*
X62319Y108928*
X62106Y109090*
X61859Y109193*
X61594Y109228*
X61329Y109193*
X61082Y109090*
X60869Y108928*
X60830Y108876*
X59938*
Y109307*
G37*
G36*
X99943D02*
X98335D01*
Y107099*
X99943*
Y107556*
X100815*
X100874Y107478*
X101087Y107316*
X101334Y107213*
X101599Y107178*
X101864Y107213*
X102111Y107316*
X102324Y107478*
X102486Y107691*
X102589Y107938*
X102624Y108203*
X102589Y108468*
X102486Y108715*
X102324Y108928*
X102111Y109090*
X101864Y109193*
X101599Y109228*
X101334Y109193*
X101087Y109090*
X100874Y108928*
X100815Y108850*
X99943*
Y109307*
G37*
G36*
X89783D02*
X88175D01*
Y107099*
X89783*
Y107581*
X90670*
X90723Y107512*
X90933Y107351*
X91177Y107250*
X91439Y107216*
X91701Y107250*
X91945Y107351*
X92155Y107512*
X92316Y107722*
X92417Y107966*
X92452Y108228*
X92417Y108491*
X92316Y108735*
X92155Y108944*
X91945Y109105*
X91701Y109207*
X91439Y109241*
X91177Y109207*
X90933Y109105*
X90723Y108944*
X90670Y108876*
X89783*
Y109307*
G37*
G36*
X49778D02*
X48170D01*
Y107099*
X49778*
Y107581*
X50665*
X50718Y107512*
X50928Y107351*
X51172Y107250*
X51434Y107216*
X51696Y107250*
X51940Y107351*
X52150Y107512*
X52311Y107722*
X52412Y107966*
X52447Y108228*
X52412Y108491*
X52311Y108735*
X52150Y108944*
X51940Y109105*
X51696Y109207*
X51434Y109241*
X51172Y109207*
X50928Y109105*
X50718Y108944*
X50665Y108876*
X49778*
Y109307*
G37*
G36*
X76199Y114308D02*
X75934Y114273D01*
X75687Y114170*
X75474Y114008*
X75312Y113795*
X75209Y113548*
X75174Y113283*
X75209Y113018*
X75312Y112771*
X75474Y112558*
X75687Y112396*
X75934Y112293*
X76199Y112258*
X76464Y112293*
X76711Y112396*
X76924Y112558*
X77086Y112771*
X77189Y113018*
X77224Y113283*
X77189Y113548*
X77086Y113795*
X76924Y114008*
X76711Y114170*
X76464Y114273*
X76199Y114308*
G37*
G36*
X39177Y116527D02*
X38650D01*
Y115950*
X39177*
Y116527*
G37*
G36*
X37210Y116839D02*
X36321D01*
Y115950*
X37210*
Y116839*
G37*
G36*
X69087Y116831D02*
X68949Y116813D01*
X68702Y116710*
X68489Y116548*
X68327Y116335*
X68224Y116088*
X68206Y115950*
X69087*
Y116831*
G37*
G36*
X76072Y116839D02*
X75183D01*
Y115950*
X76072*
Y116839*
G37*
G36*
X69341Y116831D02*
Y115950D01*
X70222*
X70204Y116088*
X70101Y116335*
X69939Y116548*
X69726Y116710*
X69479Y116813*
X69341Y116831*
G37*
G36*
X110227Y115696D02*
X109346D01*
Y114815*
X109484Y114833*
X109731Y114936*
X109944Y115098*
X110106Y115311*
X110209Y115558*
X110227Y115696*
G37*
G36*
X109092D02*
X108211D01*
X108229Y115558*
X108332Y115311*
X108494Y115098*
X108707Y114936*
X108954Y114833*
X109092Y114815*
Y115696*
G37*
G36*
X39177D02*
X38650D01*
Y115119*
X39177*
Y115696*
G37*
G36*
X36067Y116839D02*
X35178D01*
Y115950*
X36067*
Y116839*
G37*
G36*
X79182Y115696D02*
X78655D01*
Y115119*
X79182*
Y115696*
G37*
G36*
X29082Y118456D02*
X28767Y118425D01*
X28342Y118297*
X27951Y118087*
X27607Y117806*
X27326Y117462*
X27117Y117071*
X26988Y116646*
X26957Y116331*
X29082*
Y118456*
G37*
G36*
X83819Y116848D02*
X83554Y116813D01*
X83307Y116710*
X83094Y116548*
X82932Y116335*
X82907Y116276*
X81363*
Y116527*
X80055*
X79963*
X79436*
Y115823*
Y115119*
X79963*
X80055*
X81363*
Y115370*
X82907*
X82932Y115311*
X83094Y115098*
X83307Y114936*
X83554Y114833*
X83819Y114798*
X84084Y114833*
X84331Y114936*
X84544Y115098*
X84706Y115311*
X84809Y115558*
X84844Y115823*
X84809Y116088*
X84706Y116335*
X84544Y116548*
X84331Y116710*
X84084Y116813*
X83819Y116848*
G37*
G36*
X29336Y118456D02*
Y116331D01*
X31461*
X31430Y116646*
X31301Y117071*
X31092Y117462*
X30811Y117806*
X30467Y118087*
X30076Y118297*
X29651Y118425*
X29336Y118456*
G37*
G36*
X135381D02*
Y116331D01*
X137506*
X137475Y116646*
X137347Y117071*
X137137Y117462*
X136856Y117806*
X136512Y118087*
X136121Y118297*
X135696Y118425*
X135381Y118456*
G37*
G36*
X135127D02*
X134812Y118425D01*
X134387Y118297*
X133996Y118087*
X133652Y117806*
X133371Y117462*
X133162Y117071*
X133033Y116646*
X133002Y116331*
X135127*
Y118456*
G37*
G36*
X79182Y116527D02*
X78655D01*
Y115950*
X79182*
Y116527*
G37*
G36*
X77215Y116839D02*
X76326D01*
Y115950*
X77215*
Y116839*
G37*
G36*
X109092Y116831D02*
X108954Y116813D01*
X108707Y116710*
X108494Y116548*
X108332Y116335*
X108229Y116088*
X108211Y115950*
X109092*
Y116831*
G37*
G36*
X43814Y116848D02*
X43549Y116813D01*
X43302Y116710*
X43089Y116548*
X42927Y116335*
X42902Y116276*
X41358*
Y116527*
X40050*
X39958*
X39431*
Y115823*
Y115119*
X39958*
X40050*
X41358*
Y115370*
X42902*
X42927Y115311*
X43089Y115098*
X43302Y114936*
X43549Y114833*
X43814Y114798*
X44079Y114833*
X44326Y114936*
X44539Y115098*
X44701Y115311*
X44804Y115558*
X44839Y115823*
X44804Y116088*
X44701Y116335*
X44539Y116548*
X44326Y116710*
X44079Y116813*
X43814Y116848*
G37*
G36*
X109346Y116831D02*
Y115950D01*
X110227*
X110209Y116088*
X110106Y116335*
X109944Y116548*
X109731Y116710*
X109484Y116813*
X109346Y116831*
G37*
G36*
X135127Y116077D02*
X133002D01*
X133033Y115762*
X133162Y115337*
X133371Y114946*
X133652Y114602*
X133996Y114321*
X134387Y114112*
X134812Y113983*
X135127Y113952*
Y116077*
G37*
G36*
X31461D02*
X29336D01*
Y113952*
X29651Y113983*
X30076Y114112*
X30467Y114321*
X30811Y114602*
X31092Y114946*
X31301Y115337*
X31430Y115762*
X31461Y116077*
G37*
G36*
X137506D02*
X135381D01*
Y113952*
X135696Y113983*
X136121Y114112*
X136512Y114321*
X136856Y114602*
X137137Y114946*
X137347Y115337*
X137475Y115762*
X137506Y116077*
G37*
G36*
X97243Y114387D02*
X95635D01*
Y113956*
X94748*
X94695Y114024*
X94485Y114185*
X94241Y114287*
X93979Y114321*
X93717Y114287*
X93473Y114185*
X93263Y114024*
X93102Y113815*
X93001Y113571*
X92966Y113308*
X93001Y113046*
X93102Y112802*
X93263Y112592*
X93473Y112431*
X93717Y112330*
X93979Y112296*
X94241Y112330*
X94485Y112431*
X94695Y112592*
X94748Y112661*
X95635*
Y112179*
X97243*
Y114387*
G37*
G36*
X47078D02*
X45470D01*
Y113956*
X44578*
X44539Y114008*
X44326Y114170*
X44079Y114273*
X43814Y114308*
X43549Y114273*
X43302Y114170*
X43089Y114008*
X42927Y113795*
X42824Y113548*
X42789Y113283*
X42824Y113018*
X42927Y112771*
X43089Y112558*
X43302Y112396*
X43549Y112293*
X43814Y112258*
X44079Y112293*
X44326Y112396*
X44539Y112558*
X44617Y112661*
X45470*
Y112179*
X47078*
Y114387*
G37*
G36*
X49778D02*
X48170D01*
Y112179*
X49778*
Y112661*
X50430*
Y112304*
X52438*
Y114312*
X50430*
Y113956*
X49778*
Y114387*
G37*
G36*
X99943D02*
X98335D01*
Y112179*
X99943*
Y112636*
X100815*
X100874Y112558*
X101087Y112396*
X101334Y112293*
X101599Y112258*
X101864Y112293*
X102111Y112396*
X102324Y112558*
X102486Y112771*
X102589Y113018*
X102624Y113283*
X102589Y113548*
X102486Y113795*
X102324Y114008*
X102111Y114170*
X101864Y114273*
X101599Y114308*
X101334Y114273*
X101087Y114170*
X100874Y114008*
X100815Y113930*
X99943*
Y114387*
G37*
G36*
X89783D02*
X88175D01*
Y112179*
X89783*
Y112661*
X90435*
Y112304*
X92443*
Y114312*
X90435*
Y113956*
X89783*
Y114387*
G37*
G36*
X29082Y116077D02*
X26957D01*
X26988Y115762*
X27117Y115337*
X27326Y114946*
X27607Y114602*
X27951Y114321*
X28342Y114112*
X28767Y113983*
X29082Y113952*
Y116077*
G37*
G36*
X87083Y114387D02*
X85475D01*
Y113930*
X84603*
X84544Y114008*
X84331Y114170*
X84084Y114273*
X83819Y114308*
X83554Y114273*
X83307Y114170*
X83094Y114008*
X82932Y113795*
X82829Y113548*
X82794Y113283*
X82829Y113018*
X82932Y112771*
X83094Y112558*
X83307Y112396*
X83554Y112293*
X83819Y112258*
X84084Y112293*
X84331Y112396*
X84544Y112558*
X84603Y112636*
X85475*
Y112179*
X87083*
Y114387*
G37*
G36*
X76072Y115696D02*
X75183D01*
Y114807*
X76072*
Y115696*
G37*
G36*
X37210D02*
X36321D01*
Y114807*
X37210*
Y115696*
G37*
G36*
X77215D02*
X76326D01*
Y114807*
X77215*
Y115696*
G37*
G36*
X70222D02*
X69341D01*
Y114815*
X69479Y114833*
X69726Y114936*
X69939Y115098*
X70101Y115311*
X70204Y115558*
X70222Y115696*
G37*
G36*
X69087D02*
X68206D01*
X68224Y115558*
X68327Y115311*
X68489Y115098*
X68702Y114936*
X68949Y114833*
X69087Y114815*
Y115696*
G37*
G36*
X58165Y116848D02*
X57900Y116813D01*
X57653Y116710*
X57440Y116548*
X57278Y116335*
X57175Y116088*
X57140Y115823*
X57175Y115558*
X57278Y115311*
X57440Y115098*
X57653Y114936*
X57900Y114833*
X58165Y114798*
X58430Y114833*
X58677Y114936*
X58890Y115098*
X59052Y115311*
X59155Y115558*
X59190Y115823*
X59155Y116088*
X59052Y116335*
X58890Y116548*
X58677Y116710*
X58430Y116813*
X58165Y116848*
G37*
G36*
X57238Y114387D02*
X55630D01*
Y113981*
X54723*
X54690Y114024*
X54480Y114185*
X54236Y114287*
X53974Y114321*
X53712Y114287*
X53468Y114185*
X53258Y114024*
X53097Y113815*
X52996Y113571*
X52961Y113308*
X52996Y113046*
X53097Y112802*
X53258Y112592*
X53468Y112431*
X53712Y112330*
X53974Y112296*
X54236Y112330*
X54480Y112431*
X54690Y112592*
X54762Y112686*
X55630*
Y112179*
X57238*
Y114387*
G37*
G36*
X61594Y116848D02*
X61329Y116813D01*
X61082Y116710*
X60869Y116548*
X60707Y116335*
X60604Y116088*
X60569Y115823*
X60604Y115558*
X60707Y115311*
X60869Y115098*
X61082Y114936*
X61329Y114833*
X61594Y114798*
X61859Y114833*
X62106Y114936*
X62319Y115098*
X62481Y115311*
X62584Y115558*
X62619Y115823*
X62584Y116088*
X62481Y116335*
X62319Y116548*
X62106Y116710*
X61859Y116813*
X61594Y116848*
G37*
G36*
X36067Y115696D02*
X35178D01*
Y114807*
X36067*
Y115696*
G37*
G36*
X101599Y116848D02*
X101334Y116813D01*
X101087Y116710*
X100874Y116548*
X100712Y116335*
X100609Y116088*
X100574Y115823*
X100609Y115558*
X100712Y115311*
X100874Y115098*
X101087Y114936*
X101334Y114833*
X101599Y114798*
X101864Y114833*
X102111Y114936*
X102324Y115098*
X102486Y115311*
X102589Y115558*
X102624Y115823*
X102589Y116088*
X102486Y116335*
X102324Y116548*
X102111Y116710*
X101864Y116813*
X101599Y116848*
G37*
G36*
X65450Y94556D02*
X65379D01*
X65358*
X64050*
Y94305*
X62483*
X62310Y94271*
X62236Y94222*
X62163Y94172*
X61918Y93928*
X61859Y93953*
X61594Y93988*
X61329Y93953*
X61082Y93850*
X60869Y93688*
X60707Y93475*
X60604Y93228*
X60569Y92963*
X60604Y92698*
X60707Y92451*
X60869Y92238*
X61082Y92076*
X61329Y91973*
X61594Y91938*
X61859Y91973*
X62106Y92076*
X62319Y92238*
X62481Y92451*
X62584Y92698*
X62619Y92963*
X62584Y93228*
X62559Y93287*
X62671Y93399*
X64050*
Y93148*
X65358*
X65450*
X65977*
Y93852*
Y94556*
X65450*
G37*
G36*
X106763D02*
X106236D01*
Y93979*
X106763*
Y94556*
G37*
G36*
X105455D02*
X105384D01*
X105363*
X104055*
Y94305*
X102488*
X102315Y94271*
X102241Y94222*
X102168Y94172*
X101923Y93928*
X101864Y93953*
X101599Y93988*
X101334Y93953*
X101087Y93850*
X100874Y93688*
X100712Y93475*
X100609Y93228*
X100574Y92963*
X100609Y92698*
X100712Y92451*
X100874Y92238*
X101087Y92076*
X101334Y91973*
X101599Y91938*
X101864Y91973*
X102111Y92076*
X102324Y92238*
X102486Y92451*
X102589Y92698*
X102624Y92963*
X102589Y93228*
X102564Y93287*
X102676Y93399*
X104055*
Y93148*
X105363*
X105455*
X105982*
Y93852*
Y94556*
X105455*
G37*
G36*
X59938Y96607D02*
X58330D01*
Y94399*
X59938*
Y94881*
X60791*
X60869Y94778*
X61082Y94616*
X61329Y94513*
X61594Y94478*
X61859Y94513*
X62106Y94616*
X62319Y94778*
X62481Y94991*
X62584Y95238*
X62619Y95503*
X62584Y95768*
X62481Y96015*
X62319Y96228*
X62106Y96390*
X61859Y96493*
X61594Y96528*
X61329Y96493*
X61082Y96390*
X60869Y96228*
X60830Y96176*
X59938*
Y96607*
G37*
G36*
X30479Y113801D02*
X30281Y113762D01*
X30113Y113649*
X30000Y113481*
X29961Y113283*
X30000Y113085*
X30091Y112950*
Y91772*
X30000Y91637*
X29961Y91439*
X30000Y91241*
X30091Y91106*
Y83136*
X30000Y83001*
X29961Y82803*
X30000Y82605*
X30091Y82470*
Y57886*
X30120Y57737*
X30204Y57611*
X37197Y50619*
Y49160*
X39205*
Y50985*
X39322Y51033*
X39811Y50544*
X39762Y50426*
X39728Y50164*
X39762Y49902*
X39864Y49658*
X40025Y49448*
X40234Y49287*
X40478Y49186*
X40741Y49151*
X41003Y49186*
X41247Y49287*
X41457Y49448*
X41618Y49658*
X41719Y49902*
X41753Y50164*
X41719Y50426*
X41618Y50670*
X41457Y50880*
X41247Y51041*
X41003Y51142*
X40741Y51177*
X40478Y51142*
X40361Y51093*
X39884Y51570*
Y51973*
X40005Y52014*
X40025Y51988*
X40234Y51827*
X40478Y51726*
X40741Y51691*
X41003Y51726*
X41247Y51827*
X41457Y51988*
X41618Y52198*
X41637Y52243*
X41761Y52219*
Y51573*
X41791Y51424*
X41875Y51298*
X42447Y50727*
X42404Y50670*
X42302Y50426*
X42268Y50164*
X42302Y49902*
X42404Y49658*
X42565Y49448*
X42774Y49287*
X43019Y49186*
X43281Y49151*
X43543Y49186*
X43787Y49287*
X43997Y49448*
X44158Y49658*
X44259Y49902*
X44293Y50164*
X44259Y50426*
X44158Y50670*
X43997Y50880*
X43787Y51041*
X43543Y51142*
X43281Y51177*
X43117Y51155*
X42538Y51734*
Y51865*
X42652Y51921*
X42774Y51827*
X43019Y51726*
X43281Y51691*
X43543Y51726*
X43787Y51827*
X43997Y51988*
X44067Y52080*
X44188Y52039*
Y51409*
X44217Y51260*
X44301Y51134*
X44891Y50544*
X44842Y50426*
X44808Y50164*
X44842Y49902*
X44944Y49658*
X45105Y49448*
X45314Y49287*
X45559Y49186*
X45821Y49151*
X46083Y49186*
X46327Y49287*
X46537Y49448*
X46698Y49658*
X46799Y49902*
X46833Y50164*
X46799Y50426*
X46698Y50670*
X46537Y50880*
X46327Y51041*
X46083Y51142*
X45821Y51177*
X45559Y51142*
X45441Y51093*
X44964Y51570*
Y51973*
X45085Y52014*
X45105Y51988*
X45314Y51827*
X45559Y51726*
X45821Y51691*
X46083Y51726*
X46327Y51827*
X46537Y51988*
X46607Y52080*
X46728Y52039*
Y51409*
X46757Y51260*
X46841Y51134*
X47431Y50544*
X47382Y50426*
X47348Y50164*
X47382Y49902*
X47484Y49658*
X47645Y49448*
X47854Y49287*
X48098Y49186*
X48361Y49151*
X48623Y49186*
X48867Y49287*
X49077Y49448*
X49139Y49529*
X49195*
X49271Y49511*
X49297Y49380*
X49381Y49254*
X50016Y48619*
X50142Y48535*
X50167Y48530*
X50291Y48506*
X52171*
X52319Y48535*
X52445Y48619*
X53061Y49235*
X53179Y49186*
X53441Y49151*
X53703Y49186*
X53947Y49287*
X54157Y49448*
X54318Y49658*
X54419Y49902*
X54453Y50164*
X54419Y50426*
X54318Y50670*
X54157Y50880*
X54101Y50923*
Y50948*
X54125Y51050*
X54250Y51075*
X54376Y51159*
X55011Y51794*
X55095Y51920*
X55100Y51945*
X55110Y51999*
X55234Y52028*
X55265Y51988*
X55474Y51827*
X55719Y51726*
X55981Y51691*
X56243Y51726*
X56487Y51827*
X56697Y51988*
X56858Y52198*
X56959Y52442*
X56993Y52704*
X56959Y52966*
X56858Y53210*
X56697Y53420*
X56487Y53581*
X56243Y53682*
X55981Y53717*
X55719Y53682*
X55474Y53581*
X55265Y53420*
X55245Y53394*
X55124Y53435*
Y56353*
X58707Y59936*
X81660*
X81809Y59965*
X81935Y60049*
X83430Y61544*
X83554Y61493*
X83819Y61458*
X84084Y61493*
X84331Y61596*
X84544Y61758*
X84706Y61971*
X84809Y62218*
X84844Y62483*
X84809Y62748*
X84706Y62995*
X84544Y63208*
X84331Y63370*
X84084Y63473*
X83819Y63508*
X83554Y63473*
X83307Y63370*
X83094Y63208*
X82932Y62995*
X82829Y62748*
X82794Y62483*
X82829Y62218*
X82880Y62094*
X81499Y60712*
X58546*
X58397Y60683*
X58271Y60599*
X54461Y56789*
X54377Y56663*
X54348Y56514*
Y53369*
X54227Y53328*
X54157Y53420*
X53947Y53581*
X53829Y53630*
Y56455*
X60739Y63365*
X60876*
X60917Y63244*
X60869Y63208*
X60707Y62995*
X60604Y62748*
X60569Y62483*
X60604Y62218*
X60707Y61971*
X60869Y61758*
X61082Y61596*
X61329Y61493*
X61594Y61458*
X61859Y61493*
X62106Y61596*
X62319Y61758*
X62481Y61971*
X62506Y62030*
X64050*
Y61779*
X65358*
X65450*
X65977*
Y62483*
Y63187*
X65450*
X65358*
X64050*
Y62936*
X62506*
X62481Y62995*
X62319Y63208*
X62271Y63244*
X62312Y63365*
X62610*
X62759Y63394*
X62885Y63478*
X63774Y64367*
X63858Y64493*
X63887Y64642*
Y92122*
X63978Y92257*
X64017Y92455*
X63978Y92653*
X63865Y92821*
X63697Y92934*
X63499Y92973*
X63301Y92934*
X63133Y92821*
X63020Y92653*
X62981Y92455*
X63020Y92257*
X63111Y92122*
Y64803*
X62449Y64141*
X62312*
X62271Y64262*
X62319Y64298*
X62481Y64511*
X62584Y64758*
X62619Y65023*
X62584Y65288*
X62481Y65535*
X62319Y65748*
X62106Y65910*
X61859Y66013*
X61594Y66048*
X61329Y66013*
X61082Y65910*
X60869Y65748*
X60810Y65670*
X59938*
Y66127*
X58330*
Y63919*
X59938*
Y64376*
X60810*
X60869Y64298*
X60917Y64262*
X60876Y64141*
X60578*
X60429Y64112*
X60303Y64028*
X53166Y56890*
X53082Y56764*
X53052Y56616*
Y53630*
X52934Y53581*
X52725Y53420*
X52564Y53210*
X52462Y52966*
X52428Y52704*
X52462Y52442*
X52564Y52198*
X52725Y51988*
X52783Y51943*
X52743Y51822*
X52171*
X52022Y51793*
X51896Y51709*
X51281Y51093*
X51163Y51142*
X50901Y51177*
X50638Y51142*
X50394Y51041*
X50185Y50880*
X50165Y50854*
X50044Y50895*
Y51973*
X50165Y52014*
X50185Y51988*
X50394Y51827*
X50638Y51726*
X50901Y51691*
X51163Y51726*
X51407Y51827*
X51617Y51988*
X51778Y52198*
X51879Y52442*
X51913Y52704*
X51879Y52966*
X51778Y53210*
X51617Y53420*
X51407Y53581*
X51163Y53682*
X50901Y53717*
X50638Y53682*
X50394Y53581*
X50185Y53420*
X50165Y53394*
X50044Y53435*
Y54355*
X50015Y54504*
X49931Y54630*
X46107Y58453*
Y62356*
X46083Y62480*
X46078Y62505*
X45994Y62631*
X44597Y64028*
X44471Y64112*
X44444Y64226*
X44539Y64298*
X44598Y64376*
X45470*
Y63919*
X47078*
Y66127*
X45470*
Y65670*
X44598*
X44539Y65748*
X44326Y65910*
X44079Y66013*
X43814Y66048*
X43549Y66013*
X43302Y65910*
X43089Y65748*
X42927Y65535*
X42824Y65288*
X42789Y65023*
X42824Y64758*
X42927Y64511*
X43027Y64379*
X42932Y64296*
X41662Y65565*
Y83023*
X42324Y83685*
X43096*
X43137Y83564*
X43089Y83528*
X42927Y83315*
X42824Y83068*
X42789Y82803*
X42824Y82538*
X42927Y82291*
X43089Y82078*
X43302Y81916*
X43549Y81813*
X43814Y81778*
X44079Y81813*
X44326Y81916*
X44539Y82078*
X44598Y82156*
X45470*
Y81699*
X47078*
Y83907*
X45470*
Y83450*
X44598*
X44539Y83528*
X44491Y83564*
X44532Y83685*
X44703*
X44852Y83714*
X44978Y83798*
X45486Y84306*
X45570Y84432*
X45599Y84581*
Y91566*
X45575Y91690*
X45570Y91715*
X45486Y91841*
X44753Y92574*
X44804Y92698*
X44839Y92963*
X44804Y93228*
X44701Y93475*
X44539Y93688*
X44326Y93850*
X44079Y93953*
X43814Y93988*
X43549Y93953*
X43302Y93850*
X43089Y93688*
X42927Y93475*
X42824Y93228*
X42789Y92963*
X42824Y92698*
X42927Y92451*
X43089Y92238*
X43302Y92076*
X43549Y91973*
X43814Y91938*
X44079Y91973*
X44203Y92024*
X44823Y91405*
Y85906*
X44701Y85855*
X44539Y86068*
X44326Y86230*
X44079Y86333*
X43814Y86368*
X43549Y86333*
X43302Y86230*
X43089Y86068*
X42927Y85855*
X42902Y85796*
X41358*
Y86047*
X40050*
X39958*
X39431*
Y85343*
Y84639*
X39958*
X40050*
X41358*
Y84890*
X42902*
X42927Y84831*
X43089Y84618*
X43137Y84582*
X43096Y84461*
X42163*
X42014Y84432*
X41888Y84348*
X40999Y83459*
X40915Y83333*
X40886Y83184*
Y65404*
X40915Y65255*
X40999Y65129*
X42650Y63478*
X42776Y63394*
X42925Y63365*
X43096*
X43137Y63244*
X43089Y63208*
X42927Y62995*
X42824Y62748*
X42789Y62483*
X42824Y62218*
X42927Y61971*
X43089Y61758*
X43302Y61596*
X43426Y61544*
Y58927*
X43455Y58778*
X43539Y58652*
X46728Y55464*
Y53369*
X46607Y53328*
X46537Y53420*
X46327Y53581*
X46209Y53630*
Y53999*
X46179Y54148*
X46095Y54274*
X41803Y58567*
X41677Y58651*
X41528Y58680*
X38260*
X35312Y61628*
Y61765*
X35433Y61806*
X35469Y61758*
X35682Y61596*
X35929Y61493*
X36067Y61475*
Y62483*
Y63491*
X35929Y63473*
X35682Y63370*
X35469Y63208*
X35433Y63160*
X35312Y63201*
Y64305*
X35433Y64346*
X35469Y64298*
X35682Y64136*
X35929Y64033*
X36194Y63998*
X36459Y64033*
X36706Y64136*
X36919Y64298*
X37081Y64511*
X37184Y64758*
X37219Y65023*
X37184Y65288*
X37081Y65535*
X36919Y65748*
X36706Y65910*
X36459Y66013*
X36194Y66048*
X35929Y66013*
X35682Y65910*
X35469Y65748*
X35433Y65700*
X35312Y65741*
Y66845*
X35433Y66886*
X35469Y66838*
X35682Y66676*
X35929Y66573*
X36194Y66538*
X36459Y66573*
X36706Y66676*
X36919Y66838*
X37081Y67051*
X37184Y67298*
X37219Y67563*
X37184Y67828*
X37081Y68075*
X36919Y68288*
X36706Y68450*
X36459Y68553*
X36194Y68588*
X35929Y68553*
X35682Y68450*
X35469Y68288*
X35433Y68240*
X35312Y68281*
Y69385*
X35433Y69426*
X35469Y69378*
X35682Y69216*
X35929Y69113*
X36194Y69078*
X36459Y69113*
X36706Y69216*
X36919Y69378*
X37081Y69591*
X37184Y69838*
X37219Y70103*
X37184Y70368*
X37081Y70615*
X36919Y70828*
X36706Y70990*
X36459Y71093*
X36194Y71128*
X35929Y71093*
X35682Y70990*
X35469Y70828*
X35433Y70780*
X35312Y70821*
Y71925*
X35433Y71966*
X35469Y71918*
X35682Y71756*
X35929Y71653*
X36194Y71618*
X36459Y71653*
X36706Y71756*
X36919Y71918*
X37081Y72131*
X37184Y72378*
X37219Y72643*
X37184Y72908*
X37081Y73155*
X36919Y73368*
X36706Y73530*
X36459Y73633*
X36194Y73668*
X35929Y73633*
X35682Y73530*
X35469Y73368*
X35433Y73320*
X35312Y73361*
Y74465*
X35433Y74506*
X35469Y74458*
X35682Y74296*
X35929Y74193*
X36194Y74158*
X36459Y74193*
X36706Y74296*
X36919Y74458*
X37081Y74671*
X37184Y74918*
X37219Y75183*
X37184Y75448*
X37081Y75695*
X36919Y75908*
X36706Y76070*
X36459Y76173*
X36194Y76208*
X35929Y76173*
X35682Y76070*
X35469Y75908*
X35433Y75860*
X35312Y75901*
Y77005*
X35433Y77046*
X35469Y76998*
X35682Y76836*
X35929Y76733*
X36194Y76698*
X36459Y76733*
X36706Y76836*
X36919Y76998*
X37081Y77211*
X37184Y77458*
X37219Y77723*
X37184Y77988*
X37081Y78235*
X36919Y78448*
X36706Y78610*
X36459Y78713*
X36194Y78748*
X35929Y78713*
X35682Y78610*
X35469Y78448*
X35433Y78400*
X35312Y78441*
Y79545*
X35433Y79586*
X35469Y79538*
X35682Y79376*
X35929Y79273*
X36194Y79238*
X36459Y79273*
X36706Y79376*
X36919Y79538*
X37081Y79751*
X37184Y79998*
X37219Y80263*
X37184Y80528*
X37081Y80775*
X36919Y80988*
X36706Y81150*
X36459Y81253*
X36194Y81288*
X35929Y81253*
X35682Y81150*
X35469Y80988*
X35433Y80940*
X35312Y80981*
Y82085*
X35433Y82126*
X35469Y82078*
X35682Y81916*
X35929Y81813*
X36194Y81778*
X36459Y81813*
X36706Y81916*
X36919Y82078*
X37081Y82291*
X37184Y82538*
X37219Y82803*
X37184Y83068*
X37081Y83315*
X36919Y83528*
X36706Y83690*
X36459Y83793*
X36194Y83828*
X35929Y83793*
X35682Y83690*
X35469Y83528*
X35433Y83480*
X35312Y83521*
Y84327*
X36067*
Y85343*
Y86359*
X35312*
Y86661*
X35403Y86796*
X35442Y86994*
X35403Y87192*
X35312Y87327*
Y92245*
X35433Y92286*
X35469Y92238*
X35682Y92076*
X35929Y91973*
X36067Y91955*
Y92963*
Y93971*
X35929Y93953*
X35682Y93850*
X35469Y93688*
X35433Y93640*
X35312Y93681*
Y94785*
X35433Y94826*
X35469Y94778*
X35682Y94616*
X35929Y94513*
X36194Y94478*
X36459Y94513*
X36706Y94616*
X36919Y94778*
X37081Y94991*
X37184Y95238*
X37219Y95503*
X37184Y95768*
X37081Y96015*
X36919Y96228*
X36706Y96390*
X36459Y96493*
X36194Y96528*
X35929Y96493*
X35682Y96390*
X35469Y96228*
X35307Y96015*
X35294Y95985*
X35172Y95948*
X35122Y95982*
X34924Y96021*
X34776Y95991*
X34677Y96072*
Y97710*
X34768Y97845*
X34807Y98043*
X34768Y98241*
X34655Y98409*
X34487Y98522*
X34289Y98561*
X34141Y98531*
X34042Y98612*
Y100250*
X34133Y100385*
X34172Y100583*
X34133Y100781*
X34020Y100949*
X33852Y101062*
X33654Y101101*
X33506Y101071*
X33407Y101152*
Y102790*
X33498Y102925*
X33537Y103123*
X33498Y103321*
X33385Y103489*
X33217Y103602*
X33019Y103641*
X32871Y103611*
X32772Y103692*
Y105330*
X32863Y105465*
X32902Y105663*
X32863Y105861*
X32750Y106029*
X32582Y106142*
X32384Y106181*
X32236Y106151*
X32137Y106232*
Y107870*
X32228Y108005*
X32267Y108203*
X32228Y108401*
X32115Y108569*
X31947Y108682*
X31749Y108721*
X31601Y108691*
X31502Y108772*
Y110410*
X31593Y110545*
X31632Y110743*
X31593Y110941*
X31480Y111109*
X31312Y111222*
X31114Y111261*
X30966Y111231*
X30867Y111312*
Y112950*
X30958Y113085*
X30997Y113283*
X30958Y113481*
X30845Y113649*
X30677Y113762*
X30479Y113801*
G37*
G36*
X126606Y93713D02*
X124598D01*
Y93162*
X124162*
Y93413*
X122854*
X122762*
X122235*
Y92709*
Y92005*
X122762*
X122854*
X124162*
Y92256*
X124598*
Y91705*
X126606*
Y93713*
G37*
G36*
X106763Y93725D02*
X106236D01*
Y93148*
X106763*
Y93725*
G37*
G36*
X133984Y94225D02*
X133846Y94207D01*
X133599Y94104*
X133386Y93942*
X133224Y93729*
X133121Y93482*
X133103Y93344*
X133984*
Y94225*
G37*
G36*
X66758Y94556D02*
X66231D01*
Y93979*
X66758*
Y94556*
G37*
G36*
X134238Y94225D02*
Y93344D01*
X135119*
X135101Y93482*
X134998Y93729*
X134836Y93942*
X134623Y94104*
X134376Y94207*
X134238Y94225*
G37*
G36*
X57238Y96607D02*
X55630D01*
Y96201*
X54723*
X54690Y96244*
X54480Y96405*
X54236Y96507*
X53974Y96541*
X53712Y96507*
X53468Y96405*
X53258Y96244*
X53097Y96035*
X52996Y95790*
X52961Y95528*
X52996Y95266*
X53097Y95022*
X53258Y94812*
X53468Y94651*
X53712Y94550*
X53974Y94516*
X54236Y94550*
X54480Y94651*
X54690Y94812*
X54762Y94906*
X55630*
Y94399*
X57238*
Y96607*
G37*
G36*
X97243D02*
X95635D01*
Y96176*
X94748*
X94695Y96244*
X94485Y96405*
X94241Y96507*
X93979Y96541*
X93717Y96507*
X93473Y96405*
X93263Y96244*
X93102Y96035*
X93001Y95790*
X92966Y95528*
X93001Y95266*
X93102Y95022*
X93263Y94812*
X93473Y94651*
X93717Y94550*
X93979Y94516*
X94241Y94550*
X94485Y94651*
X94695Y94812*
X94748Y94881*
X95635*
Y94399*
X97243*
Y96607*
G37*
G36*
X134935Y97027D02*
X134408D01*
Y96450*
X134935*
Y97027*
G37*
G36*
X59938Y99147D02*
X58330D01*
Y96939*
X59938*
Y97421*
X60791*
X60869Y97318*
X61082Y97156*
X61329Y97053*
X61594Y97018*
X61859Y97053*
X62106Y97156*
X62319Y97318*
X62481Y97531*
X62584Y97778*
X62619Y98043*
X62584Y98308*
X62481Y98555*
X62319Y98768*
X62106Y98930*
X61859Y99033*
X61594Y99068*
X61329Y99033*
X61082Y98930*
X60869Y98768*
X60830Y98716*
X59938*
Y99147*
G37*
G36*
X36194Y99068D02*
X35929Y99033D01*
X35682Y98930*
X35469Y98768*
X35307Y98555*
X35204Y98308*
X35169Y98043*
X35204Y97778*
X35307Y97531*
X35469Y97318*
X35682Y97156*
X35929Y97053*
X36194Y97018*
X36459Y97053*
X36706Y97156*
X36919Y97318*
X37081Y97531*
X37184Y97778*
X37219Y98043*
X37184Y98308*
X37081Y98555*
X36919Y98768*
X36706Y98930*
X36459Y99033*
X36194Y99068*
G37*
G36*
X49778Y96607D02*
X48170D01*
Y94399*
X49778*
Y94881*
X50665*
X50718Y94812*
X50928Y94651*
X51172Y94550*
X51434Y94516*
X51696Y94550*
X51940Y94651*
X52150Y94812*
X52311Y95022*
X52412Y95266*
X52447Y95528*
X52412Y95790*
X52311Y96035*
X52150Y96244*
X51940Y96405*
X51696Y96507*
X51434Y96541*
X51172Y96507*
X50928Y96405*
X50718Y96244*
X50665Y96176*
X49778*
Y96607*
G37*
G36*
X99943D02*
X98335D01*
Y94399*
X99943*
Y94856*
X100815*
X100874Y94778*
X101087Y94616*
X101334Y94513*
X101599Y94478*
X101864Y94513*
X102111Y94616*
X102324Y94778*
X102486Y94991*
X102589Y95238*
X102624Y95503*
X102589Y95768*
X102486Y96015*
X102324Y96228*
X102111Y96390*
X101864Y96493*
X101599Y96528*
X101334Y96493*
X101087Y96390*
X100874Y96228*
X100815Y96150*
X99943*
Y96607*
G37*
G36*
X89783D02*
X88175D01*
Y94399*
X89783*
Y94881*
X90670*
X90723Y94812*
X90933Y94651*
X91177Y94550*
X91439Y94516*
X91701Y94550*
X91945Y94651*
X92155Y94812*
X92316Y95022*
X92417Y95266*
X92452Y95528*
X92417Y95790*
X92316Y96035*
X92155Y96244*
X91945Y96405*
X91701Y96507*
X91439Y96541*
X91177Y96507*
X90933Y96405*
X90723Y96244*
X90670Y96176*
X89783*
Y96607*
G37*
G36*
X47078D02*
X45470D01*
Y96176*
X44578*
X44539Y96228*
X44326Y96390*
X44079Y96493*
X43814Y96528*
X43549Y96493*
X43302Y96390*
X43089Y96228*
X42927Y96015*
X42824Y95768*
X42789Y95503*
X42824Y95238*
X42927Y94991*
X43089Y94778*
X43302Y94616*
X43549Y94513*
X43814Y94478*
X44079Y94513*
X44326Y94616*
X44539Y94778*
X44617Y94881*
X45470*
Y94399*
X47078*
Y96607*
G37*
G36*
X87083D02*
X85475D01*
Y96150*
X84603*
X84544Y96228*
X84331Y96390*
X84084Y96493*
X83819Y96528*
X83554Y96493*
X83307Y96390*
X83094Y96228*
X82932Y96015*
X82829Y95768*
X82794Y95503*
X82829Y95238*
X82932Y94991*
X83094Y94778*
X83307Y94616*
X83554Y94513*
X83819Y94478*
X84084Y94513*
X84331Y94616*
X84544Y94778*
X84603Y94856*
X85475*
Y94399*
X87083*
Y96607*
G37*
G36*
X83819Y93988D02*
X83554Y93953D01*
X83307Y93850*
X83094Y93688*
X82932Y93475*
X82829Y93228*
X82794Y92963*
X82829Y92698*
X82880Y92574*
X81131Y90825*
X81047Y90699*
X81018Y90550*
Y86311*
X80927Y86176*
X80888Y85978*
X80927Y85780*
X81040Y85612*
X81208Y85499*
X81406Y85460*
X81604Y85499*
X81772Y85612*
X81885Y85780*
X81924Y85978*
X81885Y86176*
X81794Y86311*
Y90389*
X83430Y92024*
X83554Y91973*
X83819Y91938*
X84084Y91973*
X84331Y92076*
X84544Y92238*
X84706Y92451*
X84809Y92698*
X84844Y92963*
X84809Y93228*
X84706Y93475*
X84544Y93688*
X84331Y93850*
X84084Y93953*
X83819Y93988*
G37*
G36*
X122554Y89519D02*
Y89153D01*
X122920*
X122906Y89224*
X122793Y89392*
X122625Y89505*
X122554Y89519*
G37*
G36*
X69087Y92836D02*
X68198D01*
Y91947*
X69087*
Y92836*
G37*
G36*
X37202D02*
X36321D01*
Y91955*
X36459Y91973*
X36706Y92076*
X36919Y92238*
X37081Y92451*
X37184Y92698*
X37202Y92836*
G37*
G36*
X109092D02*
X108203D01*
Y91947*
X109092*
Y92836*
G37*
G36*
X132841Y87614D02*
Y87248D01*
X133207*
X133193Y87319*
X133080Y87487*
X132912Y87600*
X132841Y87614*
G37*
G36*
X132587D02*
X132516Y87600D01*
X132348Y87487*
X132235Y87319*
X132221Y87248*
X132587*
Y87614*
G37*
G36*
X122300Y88899D02*
X121934D01*
X121948Y88828*
X122061Y88660*
X122229Y88547*
X122300Y88533*
Y88899*
G37*
G36*
Y89519D02*
X122229Y89505D01*
X122061Y89392*
X121948Y89224*
X121934Y89153*
X122300*
Y89519*
G37*
G36*
X122920Y88899D02*
X122554D01*
Y88533*
X122625Y88547*
X122793Y88660*
X122906Y88828*
X122920Y88899*
G37*
G36*
X69087Y93979D02*
X68198D01*
Y93090*
X69087*
Y93979*
G37*
G36*
X36321Y93971D02*
Y93090D01*
X37202*
X37184Y93228*
X37081Y93475*
X36919Y93688*
X36706Y93850*
X36459Y93953*
X36321Y93971*
G37*
G36*
X76326D02*
Y93090D01*
X77207*
X77189Y93228*
X77086Y93475*
X76924Y93688*
X76711Y93850*
X76464Y93953*
X76326Y93971*
G37*
G36*
X66758Y93725D02*
X66231D01*
Y93148*
X66758*
Y93725*
G37*
G36*
X109092Y93979D02*
X108203D01*
Y93090*
X109092*
Y93979*
G37*
G36*
X121981Y92582D02*
X121454D01*
Y92005*
X121981*
Y92582*
G37*
G36*
X77207Y92836D02*
X76326D01*
Y91955*
X76464Y91973*
X76711Y92076*
X76924Y92238*
X77086Y92451*
X77189Y92698*
X77207Y92836*
G37*
G36*
X133984Y93090D02*
X133103D01*
X133121Y92952*
X133224Y92705*
X133386Y92492*
X133599Y92330*
X133846Y92227*
X133984Y92209*
Y93090*
G37*
G36*
X121981Y93413D02*
X121454D01*
Y92836*
X121981*
Y93413*
G37*
G36*
X135119Y93090D02*
X134238D01*
Y92209*
X134376Y92227*
X134623Y92330*
X134836Y92492*
X134998Y92705*
X135101Y92952*
X135119Y93090*
G37*
G36*
X76199Y99068D02*
X75934Y99033D01*
X75687Y98930*
X75474Y98768*
X75312Y98555*
X75209Y98308*
X75174Y98043*
X75209Y97778*
X75312Y97531*
X75474Y97318*
X75687Y97156*
X75934Y97053*
X76199Y97018*
X76464Y97053*
X76711Y97156*
X76924Y97318*
X77086Y97531*
X77189Y97778*
X77224Y98043*
X77189Y98308*
X77086Y98555*
X76924Y98768*
X76711Y98930*
X76464Y99033*
X76199Y99068*
G37*
G36*
X57238Y101687D02*
X55630D01*
Y101281*
X54723*
X54690Y101324*
X54480Y101485*
X54236Y101587*
X53974Y101621*
X53712Y101587*
X53468Y101485*
X53258Y101324*
X53097Y101115*
X52996Y100870*
X52961Y100608*
X52996Y100346*
X53097Y100102*
X53258Y99892*
X53468Y99731*
X53712Y99630*
X53974Y99596*
X54236Y99630*
X54480Y99731*
X54690Y99892*
X54762Y99986*
X55630*
Y99479*
X57238*
Y101687*
G37*
G36*
X97243D02*
X95635D01*
Y101256*
X94748*
X94695Y101324*
X94485Y101485*
X94241Y101587*
X93979Y101621*
X93717Y101587*
X93473Y101485*
X93263Y101324*
X93102Y101115*
X93001Y100870*
X92966Y100608*
X93001Y100346*
X93102Y100102*
X93263Y99892*
X93473Y99731*
X93717Y99630*
X93979Y99596*
X94241Y99630*
X94485Y99731*
X94695Y99892*
X94748Y99961*
X95635*
Y99479*
X97243*
Y101687*
G37*
G36*
X36194Y104148D02*
X35929Y104113D01*
X35682Y104010*
X35469Y103848*
X35307Y103635*
X35204Y103388*
X35169Y103123*
X35204Y102858*
X35307Y102611*
X35469Y102398*
X35682Y102236*
X35929Y102133*
X36194Y102098*
X36459Y102133*
X36706Y102236*
X36919Y102398*
X37081Y102611*
X37184Y102858*
X37219Y103123*
X37184Y103388*
X37081Y103635*
X36919Y103848*
X36706Y104010*
X36459Y104113*
X36194Y104148*
G37*
G36*
X76199D02*
X75934Y104113D01*
X75687Y104010*
X75474Y103848*
X75312Y103635*
X75209Y103388*
X75174Y103123*
X75209Y102858*
X75312Y102611*
X75474Y102398*
X75687Y102236*
X75934Y102133*
X76199Y102098*
X76464Y102133*
X76711Y102236*
X76924Y102398*
X77086Y102611*
X77189Y102858*
X77224Y103123*
X77189Y103388*
X77086Y103635*
X76924Y103848*
X76711Y104010*
X76464Y104113*
X76199Y104148*
G37*
G36*
X59938Y104227D02*
X58330D01*
Y102019*
X59938*
Y102501*
X60791*
X60869Y102398*
X61082Y102236*
X61329Y102133*
X61594Y102098*
X61859Y102133*
X62106Y102236*
X62319Y102398*
X62481Y102611*
X62584Y102858*
X62619Y103123*
X62584Y103388*
X62481Y103635*
X62319Y103848*
X62106Y104010*
X61859Y104113*
X61594Y104148*
X61329Y104113*
X61082Y104010*
X60869Y103848*
X60830Y103796*
X59938*
Y104227*
G37*
G36*
X130428Y101972D02*
Y101091D01*
X131309*
X131291Y101229*
X131188Y101476*
X131026Y101689*
X130813Y101851*
X130566Y101954*
X130428Y101972*
G37*
G36*
X130174D02*
X130036Y101954D01*
X129789Y101851*
X129576Y101689*
X129414Y101476*
X129311Y101229*
X129293Y101091*
X130174*
Y101972*
G37*
G36*
X136524Y103297D02*
X136249Y103261D01*
X135992Y103155*
X135772Y102986*
X135603Y102766*
X135497Y102509*
X135461Y102234*
X135497Y101959*
X135530Y101881*
X130997Y97347*
X130898Y97200*
X130864Y97027*
Y94129*
X130805Y94104*
X130592Y93942*
X130430Y93729*
X130327Y93482*
X130292Y93217*
X130327Y92952*
X130430Y92705*
X130592Y92492*
X130805Y92330*
X131052Y92227*
X131317Y92192*
X131582Y92227*
X131829Y92330*
X132042Y92492*
X132204Y92705*
X132307Y92952*
X132342Y93217*
X132307Y93482*
X132204Y93729*
X132042Y93942*
X131829Y94104*
X131770Y94129*
Y96839*
X136171Y101240*
X136249Y101207*
X136524Y101171*
X136799Y101207*
X137056Y101313*
X137276Y101482*
X137445Y101702*
X137551Y101959*
X137587Y102234*
X137551Y102509*
X137445Y102766*
X137276Y102986*
X137056Y103155*
X136799Y103261*
X136524Y103297*
G37*
G36*
X47078Y101687D02*
X45470D01*
Y101256*
X44578*
X44539Y101308*
X44326Y101470*
X44079Y101573*
X43814Y101608*
X43549Y101573*
X43302Y101470*
X43089Y101308*
X42927Y101095*
X42824Y100848*
X42789Y100583*
X42824Y100318*
X42927Y100071*
X43089Y99858*
X43302Y99696*
X43549Y99593*
X43814Y99558*
X44079Y99593*
X44326Y99696*
X44539Y99858*
X44617Y99961*
X45470*
Y99479*
X47078*
Y101687*
G37*
G36*
X87083D02*
X85475D01*
Y101230*
X84603*
X84544Y101308*
X84331Y101470*
X84084Y101573*
X83819Y101608*
X83554Y101573*
X83307Y101470*
X83094Y101308*
X82932Y101095*
X82829Y100848*
X82794Y100583*
X82829Y100318*
X82932Y100071*
X83094Y99858*
X83307Y99696*
X83554Y99593*
X83819Y99558*
X84084Y99593*
X84331Y99696*
X84544Y99858*
X84603Y99936*
X85475*
Y99479*
X87083*
Y101687*
G37*
G36*
X57238Y104227D02*
X55630D01*
Y103821*
X54723*
X54690Y103864*
X54480Y104025*
X54236Y104127*
X53974Y104161*
X53712Y104127*
X53468Y104025*
X53258Y103864*
X53097Y103655*
X52996Y103410*
X52961Y103148*
X52996Y102886*
X53097Y102642*
X53258Y102432*
X53468Y102271*
X53712Y102170*
X53974Y102136*
X54236Y102170*
X54480Y102271*
X54690Y102432*
X54762Y102526*
X55630*
Y102019*
X57238*
Y104227*
G37*
G36*
X97243D02*
X95635D01*
Y103796*
X94748*
X94695Y103864*
X94485Y104025*
X94241Y104127*
X93979Y104161*
X93717Y104127*
X93473Y104025*
X93263Y103864*
X93102Y103655*
X93001Y103410*
X92966Y103148*
X93001Y102886*
X93102Y102642*
X93263Y102432*
X93473Y102271*
X93717Y102170*
X93979Y102136*
X94241Y102170*
X94485Y102271*
X94695Y102432*
X94748Y102501*
X95635*
Y102019*
X97243*
Y104227*
G37*
G36*
X36194Y106688D02*
X35929Y106653D01*
X35682Y106550*
X35469Y106388*
X35307Y106175*
X35204Y105928*
X35169Y105663*
X35204Y105398*
X35307Y105151*
X35469Y104938*
X35682Y104776*
X35929Y104673*
X36194Y104638*
X36459Y104673*
X36706Y104776*
X36919Y104938*
X37081Y105151*
X37184Y105398*
X37219Y105663*
X37184Y105928*
X37081Y106175*
X36919Y106388*
X36706Y106550*
X36459Y106653*
X36194Y106688*
G37*
G36*
X76199D02*
X75934Y106653D01*
X75687Y106550*
X75474Y106388*
X75312Y106175*
X75209Y105928*
X75174Y105663*
X75209Y105398*
X75312Y105151*
X75474Y104938*
X75687Y104776*
X75934Y104673*
X76199Y104638*
X76464Y104673*
X76711Y104776*
X76924Y104938*
X77086Y105151*
X77189Y105398*
X77224Y105663*
X77189Y105928*
X77086Y106175*
X76924Y106388*
X76711Y106550*
X76464Y106653*
X76199Y106688*
G37*
G36*
X59938Y106767D02*
X58330D01*
Y104559*
X59938*
Y105041*
X60791*
X60869Y104938*
X61082Y104776*
X61329Y104673*
X61594Y104638*
X61859Y104673*
X62106Y104776*
X62319Y104938*
X62481Y105151*
X62584Y105398*
X62619Y105663*
X62584Y105928*
X62481Y106175*
X62319Y106388*
X62106Y106550*
X61859Y106653*
X61594Y106688*
X61329Y106653*
X61082Y106550*
X60869Y106388*
X60830Y106336*
X59938*
Y106767*
G37*
G36*
X49778Y104227D02*
X48170D01*
Y102019*
X49778*
Y102501*
X50665*
X50718Y102432*
X50928Y102271*
X51172Y102170*
X51434Y102136*
X51696Y102170*
X51940Y102271*
X52150Y102432*
X52311Y102642*
X52412Y102886*
X52447Y103148*
X52412Y103410*
X52311Y103655*
X52150Y103864*
X51940Y104025*
X51696Y104127*
X51434Y104161*
X51172Y104127*
X50928Y104025*
X50718Y103864*
X50665Y103796*
X49778*
Y104227*
G37*
G36*
X99943D02*
X98335D01*
Y102019*
X99943*
Y102476*
X100815*
X100874Y102398*
X101087Y102236*
X101334Y102133*
X101599Y102098*
X101864Y102133*
X102111Y102236*
X102324Y102398*
X102486Y102611*
X102589Y102858*
X102624Y103123*
X102589Y103388*
X102486Y103635*
X102324Y103848*
X102111Y104010*
X101864Y104113*
X101599Y104148*
X101334Y104113*
X101087Y104010*
X100874Y103848*
X100815Y103770*
X99943*
Y104227*
G37*
G36*
X89783D02*
X88175D01*
Y102019*
X89783*
Y102501*
X90670*
X90723Y102432*
X90933Y102271*
X91177Y102170*
X91439Y102136*
X91701Y102170*
X91945Y102271*
X92155Y102432*
X92316Y102642*
X92417Y102886*
X92452Y103148*
X92417Y103410*
X92316Y103655*
X92155Y103864*
X91945Y104025*
X91701Y104127*
X91439Y104161*
X91177Y104127*
X90933Y104025*
X90723Y103864*
X90670Y103796*
X89783*
Y104227*
G37*
G36*
X47078D02*
X45470D01*
Y103796*
X44578*
X44539Y103848*
X44326Y104010*
X44079Y104113*
X43814Y104148*
X43549Y104113*
X43302Y104010*
X43089Y103848*
X42927Y103635*
X42824Y103388*
X42789Y103123*
X42824Y102858*
X42927Y102611*
X43089Y102398*
X43302Y102236*
X43549Y102133*
X43814Y102098*
X44079Y102133*
X44326Y102236*
X44539Y102398*
X44617Y102501*
X45470*
Y102019*
X47078*
Y104227*
G37*
G36*
X87083D02*
X85475D01*
Y103770*
X84603*
X84544Y103848*
X84331Y104010*
X84084Y104113*
X83819Y104148*
X83554Y104113*
X83307Y104010*
X83094Y103848*
X82932Y103635*
X82829Y103388*
X82794Y103123*
X82829Y102858*
X82932Y102611*
X83094Y102398*
X83307Y102236*
X83554Y102133*
X83819Y102098*
X84084Y102133*
X84331Y102236*
X84544Y102398*
X84603Y102476*
X85475*
Y102019*
X87083*
Y104227*
G37*
G36*
X136524Y100757D02*
X136249Y100721D01*
X135992Y100615*
X135772Y100446*
X135603Y100226*
X135497Y99969*
X135461Y99694*
X135497Y99419*
X135603Y99162*
X135772Y98942*
X135992Y98773*
X136071Y98741*
Y97858*
X135808*
X135716*
X135189*
Y97154*
Y96450*
X135716*
X135808*
X137116*
Y97858*
X136977*
Y98741*
X137056Y98773*
X137276Y98942*
X137445Y99162*
X137551Y99419*
X137587Y99694*
X137551Y99969*
X137445Y100226*
X137276Y100446*
X137056Y100615*
X136799Y100721*
X136524Y100757*
G37*
G36*
X129623Y98297D02*
X129096D01*
Y97720*
X129623*
Y98297*
G37*
G36*
Y99128D02*
X129096D01*
Y98551*
X129623*
Y99128*
G37*
G36*
X47078Y99147D02*
X45470D01*
Y98716*
X44578*
X44539Y98768*
X44326Y98930*
X44079Y99033*
X43814Y99068*
X43549Y99033*
X43302Y98930*
X43089Y98768*
X42927Y98555*
X42824Y98308*
X42789Y98043*
X42824Y97778*
X42927Y97531*
X43089Y97318*
X43302Y97156*
X43549Y97053*
X43814Y97018*
X44079Y97053*
X44326Y97156*
X44539Y97318*
X44617Y97421*
X45470*
Y96939*
X47078*
Y99147*
G37*
G36*
X87083D02*
X85475D01*
Y98690*
X84603*
X84544Y98768*
X84331Y98930*
X84084Y99033*
X83819Y99068*
X83554Y99033*
X83307Y98930*
X83094Y98768*
X82932Y98555*
X82829Y98308*
X82794Y98043*
X82829Y97778*
X82932Y97531*
X83094Y97318*
X83307Y97156*
X83554Y97053*
X83819Y97018*
X84084Y97053*
X84331Y97156*
X84544Y97318*
X84603Y97396*
X85475*
Y96939*
X87083*
Y99147*
G37*
G36*
X49778D02*
X48170D01*
Y96939*
X49778*
Y97421*
X50665*
X50718Y97352*
X50928Y97191*
X51172Y97090*
X51434Y97056*
X51696Y97090*
X51940Y97191*
X52150Y97352*
X52311Y97562*
X52412Y97806*
X52447Y98068*
X52412Y98330*
X52311Y98575*
X52150Y98784*
X51940Y98945*
X51696Y99047*
X51434Y99081*
X51172Y99047*
X50928Y98945*
X50718Y98784*
X50665Y98716*
X49778*
Y99147*
G37*
G36*
X99943D02*
X98335D01*
Y96939*
X99943*
Y97396*
X100815*
X100874Y97318*
X101087Y97156*
X101334Y97053*
X101599Y97018*
X101864Y97053*
X102111Y97156*
X102324Y97318*
X102486Y97531*
X102589Y97778*
X102624Y98043*
X102589Y98308*
X102486Y98555*
X102324Y98768*
X102111Y98930*
X101864Y99033*
X101599Y99068*
X101334Y99033*
X101087Y98930*
X100874Y98768*
X100815Y98690*
X99943*
Y99147*
G37*
G36*
X89783D02*
X88175D01*
Y96939*
X89783*
Y97421*
X90670*
X90723Y97352*
X90933Y97191*
X91177Y97090*
X91439Y97056*
X91701Y97090*
X91945Y97191*
X92155Y97352*
X92316Y97562*
X92417Y97806*
X92452Y98068*
X92417Y98330*
X92316Y98575*
X92155Y98784*
X91945Y98945*
X91701Y99047*
X91439Y99081*
X91177Y99047*
X90933Y98945*
X90723Y98784*
X90670Y98716*
X89783*
Y99147*
G37*
G36*
X127507Y101989D02*
X127242Y101954D01*
X126995Y101851*
X126782Y101689*
X126620Y101476*
X126517Y101229*
X126482Y100964*
X126517Y100699*
X126620Y100452*
X126782Y100239*
X126995Y100077*
X127054Y100052*
Y99128*
X126915*
Y97720*
X128223*
X128315*
X128842*
Y98424*
Y99128*
X128315*
X128223*
X127960*
Y100052*
X128019Y100077*
X128232Y100239*
X128394Y100452*
X128497Y100699*
X128532Y100964*
X128497Y101229*
X128394Y101476*
X128232Y101689*
X128019Y101851*
X127772Y101954*
X127507Y101989*
G37*
G36*
X134935Y97858D02*
X134408D01*
Y97281*
X134935*
Y97858*
G37*
G36*
X49778Y101687D02*
X48170D01*
Y99479*
X49778*
Y99961*
X50665*
X50718Y99892*
X50928Y99731*
X51172Y99630*
X51434Y99596*
X51696Y99630*
X51940Y99731*
X52150Y99892*
X52311Y100102*
X52412Y100346*
X52447Y100608*
X52412Y100870*
X52311Y101115*
X52150Y101324*
X51940Y101485*
X51696Y101587*
X51434Y101621*
X51172Y101587*
X50928Y101485*
X50718Y101324*
X50665Y101256*
X49778*
Y101687*
G37*
G36*
X99943D02*
X98335D01*
Y99479*
X99943*
Y99936*
X100815*
X100874Y99858*
X101087Y99696*
X101334Y99593*
X101599Y99558*
X101864Y99593*
X102111Y99696*
X102324Y99858*
X102486Y100071*
X102589Y100318*
X102624Y100583*
X102589Y100848*
X102486Y101095*
X102324Y101308*
X102111Y101470*
X101864Y101573*
X101599Y101608*
X101334Y101573*
X101087Y101470*
X100874Y101308*
X100815Y101230*
X99943*
Y101687*
G37*
G36*
X89783D02*
X88175D01*
Y99479*
X89783*
Y99961*
X90670*
X90723Y99892*
X90933Y99731*
X91177Y99630*
X91439Y99596*
X91701Y99630*
X91945Y99731*
X92155Y99892*
X92316Y100102*
X92417Y100346*
X92452Y100608*
X92417Y100870*
X92316Y101115*
X92155Y101324*
X91945Y101485*
X91701Y101587*
X91439Y101621*
X91177Y101587*
X90933Y101485*
X90723Y101324*
X90670Y101256*
X89783*
Y101687*
G37*
G36*
X131309Y100837D02*
X130428D01*
Y99956*
X130566Y99974*
X130813Y100077*
X131026Y100239*
X131188Y100452*
X131291Y100699*
X131309Y100837*
G37*
G36*
X130174D02*
X129293D01*
X129311Y100699*
X129414Y100452*
X129576Y100239*
X129789Y100077*
X130036Y99974*
X130174Y99956*
Y100837*
G37*
G36*
X57238Y99147D02*
X55630D01*
Y98741*
X54723*
X54690Y98784*
X54480Y98945*
X54236Y99047*
X53974Y99081*
X53712Y99047*
X53468Y98945*
X53258Y98784*
X53097Y98575*
X52996Y98330*
X52961Y98068*
X52996Y97806*
X53097Y97562*
X53258Y97352*
X53468Y97191*
X53712Y97090*
X53974Y97056*
X54236Y97090*
X54480Y97191*
X54690Y97352*
X54762Y97446*
X55630*
Y96939*
X57238*
Y99147*
G37*
G36*
X97243D02*
X95635D01*
Y98716*
X94748*
X94695Y98784*
X94485Y98945*
X94241Y99047*
X93979Y99081*
X93717Y99047*
X93473Y98945*
X93263Y98784*
X93102Y98575*
X93001Y98330*
X92966Y98068*
X93001Y97806*
X93102Y97562*
X93263Y97352*
X93473Y97191*
X93717Y97090*
X93979Y97056*
X94241Y97090*
X94485Y97191*
X94695Y97352*
X94748Y97421*
X95635*
Y96939*
X97243*
Y99147*
G37*
G36*
X36194Y101608D02*
X35929Y101573D01*
X35682Y101470*
X35469Y101308*
X35307Y101095*
X35204Y100848*
X35169Y100583*
X35204Y100318*
X35307Y100071*
X35469Y99858*
X35682Y99696*
X35929Y99593*
X36194Y99558*
X36459Y99593*
X36706Y99696*
X36919Y99858*
X37081Y100071*
X37184Y100318*
X37219Y100583*
X37184Y100848*
X37081Y101095*
X36919Y101308*
X36706Y101470*
X36459Y101573*
X36194Y101608*
G37*
G36*
X76199D02*
X75934Y101573D01*
X75687Y101470*
X75474Y101308*
X75312Y101095*
X75209Y100848*
X75174Y100583*
X75209Y100318*
X75312Y100071*
X75474Y99858*
X75687Y99696*
X75934Y99593*
X76199Y99558*
X76464Y99593*
X76711Y99696*
X76924Y99858*
X77086Y100071*
X77189Y100318*
X77224Y100583*
X77189Y100848*
X77086Y101095*
X76924Y101308*
X76711Y101470*
X76464Y101573*
X76199Y101608*
G37*
G36*
X59938Y101687D02*
X58330D01*
Y99479*
X59938*
Y99961*
X60791*
X60869Y99858*
X61082Y99696*
X61329Y99593*
X61594Y99558*
X61859Y99593*
X62106Y99696*
X62319Y99858*
X62481Y100071*
X62584Y100318*
X62619Y100583*
X62584Y100848*
X62481Y101095*
X62319Y101308*
X62106Y101470*
X61859Y101573*
X61594Y101608*
X61329Y101573*
X61082Y101470*
X60869Y101308*
X60830Y101256*
X59938*
Y101687*
G37*
%LNlp_led_cube_8x8x8-3*%
%LPD*%
G54D12*
X104709Y93852D03*
X106109D03*
X104709Y62483D03*
X106109D03*
X64704D03*
X66104D03*
X80709Y84454D03*
X79309D03*
X40704Y115823D03*
X39304D03*
X64704Y93852D03*
X66104D03*
X80709Y115823D03*
X79309D03*
X40704Y85343D03*
X39304D03*
X136462Y97154D03*
X135062D03*
X128969Y98424D03*
X127569D03*
X122108Y92709D03*
X123508D03*
G54D16*
X123875Y84897D03*
Y86297D03*
Y77404D03*
Y78804D03*
Y69911D03*
Y71311D03*
Y62418D03*
Y63818D03*
X135508Y84897D03*
Y86297D03*
Y77404D03*
Y78804D03*
Y69911D03*
Y71311D03*
Y62418D03*
Y63818D03*
G54D19*
X131317Y97027D02*
X136524Y102234D01*
X131317Y93217D02*
Y97027D01*
X136524Y97219D02*
Y99694D01*
X127507Y98489D02*
Y100964D01*
X123508Y92709D02*
X125602D01*
X106109Y62483D02*
X109219D01*
X101599D02*
X104709D01*
X101599Y92963D02*
X102488Y93852D01*
X104709*
X106109D02*
X108330D01*
X109219Y92963*
X61594Y62483D02*
X64704D01*
X66104D02*
X69214D01*
X36194Y85343D02*
X39304D01*
X40704D02*
X43814D01*
X36194Y115823D02*
X39304D01*
X40704D02*
X43814D01*
X76199D02*
X79309D01*
X80709D02*
X83819D01*
X68325Y93852D02*
X69214Y92963D01*
X66104Y93852D02*
X68325D01*
X62483D02*
X64704D01*
X61594Y92963D02*
X62483Y93852D01*
X82930Y84454D02*
X83819Y85343D01*
X80709Y84454D02*
X82930D01*
X77088D02*
X79309D01*
X76199Y85343D02*
X77088Y84454D01*
G54D20*
X118490Y87629D02*
X125221D01*
X115823Y84962D02*
X118490Y87629D01*
X115823Y63880D02*
Y84962D01*
X129158Y83692D02*
X135508D01*
X125221Y87629D02*
X129158Y83692D01*
X112648Y60705D02*
X115823Y63880D01*
X112013Y60705D02*
X112648D01*
X104901Y56895D02*
X112013D01*
X102971Y54965D02*
X104901Y56895D01*
X102971Y52831D02*
Y54965D01*
X116331Y83438D02*
X117220Y84327D01*
X116331Y63118D02*
Y83438D01*
X112902Y59689D02*
X116331Y63118D01*
X116839Y76453D02*
X117474Y77088D01*
X116839Y62864D02*
Y76453D01*
X113156Y59181D02*
X116839Y62864D01*
X118363Y69849D02*
X121538D01*
X117347Y68833D02*
X118363Y69849D01*
X117347Y62610D02*
Y68833D01*
X117474Y77088D02*
X121538D01*
X117220Y84327D02*
X122300D01*
X102971Y50291D02*
X104876Y48386D01*
X112648*
X114426Y46608*
X127888*
X136905Y55625*
X135508Y76199D02*
X136905Y74802D01*
Y55625D02*
Y74802D01*
X135508Y54990D02*
Y61213D01*
X127634Y47116D02*
X135508Y54990D01*
X116331Y47116D02*
X127634D01*
X133857Y54101D02*
Y67055D01*
X127380Y47624D02*
X133857Y54101D01*
X116712Y47624D02*
X127380D01*
X100583Y59689D02*
X112902D01*
X117855Y62356D02*
Y68452D01*
X118490Y69087*
X101091Y59181D02*
X113156D01*
X113410Y58673D02*
X117347Y62610D01*
X102488Y58673D02*
X113410D01*
X113664Y58165D02*
X117855Y62356D01*
X118490Y69087D02*
X120649D01*
X102996Y58165D02*
X113664D01*
X113156Y50291D02*
X116331Y47116D01*
X105511Y50291D02*
X113156D01*
X111505Y52831D02*
X116712Y47624D01*
X105511Y52831D02*
X111505D01*
X133857Y67055D02*
X135508Y68706D01*
X101726Y56895D02*
X102996Y58165D01*
X101726Y51586D02*
Y56895D01*
X100431Y50291D02*
X101726Y51586D01*
X120649Y69087D02*
X122681Y67055D01*
Y61721D02*
Y67055D01*
Y61721D02*
X123189Y61213D01*
X123875*
X122681Y68706D02*
X123875D01*
X121538Y69849D02*
X122681Y68706D01*
X100431Y56616D02*
X102488Y58673D01*
X100431Y52831D02*
Y56616D01*
X97891Y50291D02*
X99186Y51586D01*
Y57276*
X101091Y59181*
X121538Y77088D02*
X122427Y76199D01*
X123875*
X97891Y56997D02*
X100583Y59689D01*
X97891Y52831D02*
Y56997D01*
X122300Y84327D02*
X122935Y83692D01*
X123875*
X71754Y77723D02*
Y108203D01*
X111759Y77723D02*
Y108203D01*
X72389Y75183D02*
Y105663D01*
X112394Y75183D02*
Y105663D01*
X73024Y72643D02*
Y103123D01*
X113029Y72643D02*
Y103123D01*
X73659Y70103D02*
Y100583D01*
X113664Y70103D02*
Y100583D01*
X74294Y67563D02*
Y98043D01*
X114299Y67563D02*
Y98043D01*
X74929Y65023D02*
Y95503D01*
X114934Y65023D02*
Y95503D01*
X49656Y49529D02*
Y54355D01*
X45719Y58292D02*
X49656Y54355D01*
X45719Y58292D02*
Y62356D01*
X58546Y60324D02*
X81660D01*
X54736Y56514D02*
X58546Y60324D01*
X54736Y52069D02*
Y56514D01*
X53441Y52704D02*
Y56616D01*
X60578Y63753*
X62610*
X63499Y64642*
Y92455*
X103504Y84073D02*
Y92455D01*
X81406Y90550D02*
X83819Y92963D01*
X81406Y85978D02*
Y90550D01*
X54101Y51434D02*
X54736Y52069D01*
X52171Y51434D02*
X54101D01*
X50901Y50164D02*
X52171Y51434D01*
X50291Y48894D02*
X52171D01*
X49656Y49529D02*
X50291Y48894D01*
X52171D02*
X53441Y50164D01*
X44322Y63753D02*
X45719Y62356D01*
X42925Y63753D02*
X44322D01*
X41274Y65404D02*
X42925Y63753D01*
X41274Y65404D02*
Y83184D01*
X42163Y84073*
X45211Y84581D02*
Y91566D01*
X43814Y92963D02*
X45211Y91566D01*
X44703Y84073D02*
X45211Y84581D01*
X42163Y84073D02*
X44703D01*
X81660Y60324D02*
X83819Y62483D01*
X47116Y51409D02*
X48361Y50164D01*
X47116Y51409D02*
Y55625D01*
X43814Y58927D02*
X47116Y55625D01*
X43814Y58927D02*
Y62483D01*
X45821Y52704D02*
Y53999D01*
X41528Y58292D02*
X45821Y53999D01*
X38099Y58292D02*
X41528D01*
X44576Y51409D02*
Y54228D01*
X41274Y57530D02*
X44576Y54228D01*
X37718Y57530D02*
X41274D01*
X34289Y60959D02*
X37718Y57530D01*
X34924Y61467D02*
X38099Y58292D01*
X41020Y56768D02*
X43281Y54507D01*
X37337Y56768D02*
X41020D01*
X33654Y60451D02*
X37337Y56768D01*
X36956Y56006D02*
X40639D01*
X33019Y59943D02*
X36956Y56006D01*
X40639D02*
X42150Y54495D01*
X39496Y51409D02*
Y53974D01*
X38861Y54609D02*
X39496Y53974D01*
X36067Y54609D02*
X38861D01*
X34924Y61467D02*
Y65023D01*
X34289Y60959D02*
Y67563D01*
X33654Y60451D02*
Y70103D01*
X36575Y55244D02*
X40258D01*
X32384Y59435D02*
X36575Y55244D01*
X32384Y59435D02*
Y75183D01*
X33019Y59943D02*
Y72643D01*
X31749Y58927D02*
X36067Y54609D01*
X31749Y58927D02*
Y77723D01*
X36829Y52704D02*
X38201D01*
X31114Y58419D02*
X36829Y52704D01*
X31114Y58419D02*
Y80263D01*
X30479Y57886D02*
X38201Y50164D01*
X30479Y57886D02*
Y82803D01*
X40741Y52704D02*
Y54761D01*
X40258Y55244D02*
X40741Y54761D01*
X32384Y89534D02*
Y105663D01*
Y75183D02*
Y89534D01*
X42150Y51573D02*
Y54495D01*
X43281Y52704D02*
Y54507D01*
Y50164D02*
Y50442D01*
X42150Y51573D02*
X43281Y50442D01*
X33019Y88899D02*
Y103123D01*
Y72643D02*
Y88899D01*
X33654Y88264D02*
Y100583D01*
Y70103D02*
Y88264D01*
X44576Y51409D02*
X45821Y50164D01*
X34289Y87629D02*
Y98043D01*
Y67563D02*
Y87629D01*
X34924Y86994D02*
Y95503D01*
Y65023D02*
Y86994D01*
X39496Y51409D02*
X40741Y50164D01*
X31749Y90169D02*
Y108203D01*
Y77723D02*
Y90169D01*
X71119Y90804D02*
Y110743D01*
Y80263D02*
Y90804D01*
X111124D02*
Y110743D01*
Y80263D02*
Y90804D01*
X31114D02*
Y110743D01*
Y80263D02*
Y90804D01*
X70484Y91439D02*
Y113283D01*
Y82803D02*
Y91439D01*
X30479D02*
Y113283D01*
Y82803D02*
Y91439D01*
X110489D02*
Y113283D01*
Y82803D02*
Y91439D01*
X123875Y83692D02*
Y84897D01*
Y76199D02*
Y77404D01*
Y68706D02*
Y69911D01*
Y61213D02*
Y62418D01*
X135508Y83692D02*
Y84897D01*
Y76199D02*
Y77404D01*
Y68706D02*
Y69911D01*
Y61213D02*
Y62418D01*
X114934Y86994D02*
Y95503D01*
X114299Y67563D02*
Y87629D01*
X113664Y70103D02*
Y88264D01*
X73659D02*
Y100583D01*
Y70103D02*
Y88264D01*
X113029Y88899D02*
Y103123D01*
Y72643D02*
Y88899D01*
X73024Y72643D02*
Y88899D01*
X112394Y75183D02*
Y89534D01*
X72389D02*
Y105663D01*
Y75183D02*
Y89534D01*
X111759Y77723D02*
Y90169D01*
X71754D02*
Y108203D01*
Y77723D02*
Y90169D01*
G54D21*
X116585Y55879D02*
X119125Y58419D01*
X116585Y49783D02*
Y55879D01*
Y49783D02*
X117855Y48513D01*
X126250Y50177D02*
X128155D01*
X117855Y48513D02*
X119531D01*
X119125Y58419D02*
Y60273D01*
X119531Y48513D02*
X121182Y50164D01*
X119125Y82752D02*
X122732D01*
X125729Y79755*
Y57149D02*
Y79755D01*
X119125Y67766D02*
X121182Y65709D01*
Y52704D02*
Y65709D01*
X129285Y66293D02*
X130758Y67766D01*
X129285Y54355D02*
Y66293D01*
X127634Y52704D02*
X129285Y54355D01*
X130758Y52780D02*
Y60273D01*
X128155Y50177D02*
X130758Y52780D01*
X126262Y52704D02*
X127634D01*
G54D22*
X48974Y82828D02*
X51434D01*
X48974Y80288D02*
X51434D01*
X48974Y77748D02*
X51434D01*
X48974Y75208D02*
X51434D01*
X48974Y72668D02*
X51434D01*
X48974Y70128D02*
X51434D01*
X48974Y67588D02*
X51434D01*
X48974Y65048D02*
X51434D01*
X53974Y82828D02*
X56434D01*
X53974Y80288D02*
X56434D01*
X53974Y77748D02*
X56434D01*
X53974Y75208D02*
X56434D01*
X53974Y72668D02*
X56434D01*
X53974Y70128D02*
X56434D01*
X53974Y67588D02*
X56434D01*
X53974Y65048D02*
X56434D01*
X88979Y82828D02*
X91439D01*
X88979Y80288D02*
X91439D01*
X88979Y77748D02*
X91439D01*
X88979Y75208D02*
X91439D01*
X88979Y72668D02*
X91439D01*
X88979Y70128D02*
X91439D01*
X88979Y67588D02*
X91439D01*
X88979Y65048D02*
X91439D01*
X93979Y65023D02*
X96439D01*
X93979Y67563D02*
X96439D01*
X93979Y70103D02*
X96439D01*
X93979Y72643D02*
X96439D01*
X93979Y75183D02*
X96439D01*
X93979Y77723D02*
X96439D01*
X93979Y80263D02*
X96439D01*
X93979Y82803D02*
X96439D01*
X48974Y113308D02*
X51434D01*
X48974Y110768D02*
X51434D01*
X48974Y108228D02*
X51434D01*
X48974Y105688D02*
X51434D01*
X48974Y103148D02*
X51434D01*
X48974Y100608D02*
X51434D01*
X48974Y98068D02*
X51434D01*
X48974Y95528D02*
X51434D01*
X53974Y95554D02*
X56434D01*
X53974Y98094D02*
X56434D01*
X53974Y100634D02*
X56434D01*
X53974Y103174D02*
X56434D01*
X53974Y105714D02*
X56434D01*
X53974Y108254D02*
X56434D01*
X53974Y110794D02*
X56434D01*
X53974Y113334D02*
X56434D01*
X88979Y113308D02*
X91439D01*
X88979Y110768D02*
X91439D01*
X88979Y108228D02*
X91439D01*
X88979Y105688D02*
X91439D01*
X88979Y103148D02*
X91439D01*
X88979Y100608D02*
X91439D01*
X88979Y98068D02*
X91439D01*
X88979Y95528D02*
X91439D01*
X93979D02*
X96439D01*
X93979Y98068D02*
X96439D01*
X93979Y100608D02*
X96439D01*
X93979Y103148D02*
X96439D01*
X93979Y105688D02*
X96439D01*
X93979Y108228D02*
X96439D01*
X93979Y110768D02*
X96439D01*
X93979Y113308D02*
X96439D01*
X43814D02*
X46274D01*
X43814Y110768D02*
X46274D01*
X43814Y108228D02*
X46274D01*
X43814Y105688D02*
X46274D01*
X43814Y103148D02*
X46274D01*
X43814Y100608D02*
X46274D01*
X43814Y98068D02*
X46274D01*
X43814Y95528D02*
X46274D01*
X59134D02*
X61594D01*
X59134Y98068D02*
X61594D01*
X59134Y100608D02*
X61594D01*
X59134Y103148D02*
X61594D01*
X59134Y105688D02*
X61594D01*
X59134Y108228D02*
X61594D01*
X59134Y110768D02*
X61594D01*
X59134Y113308D02*
X61594D01*
X59134Y65023D02*
X61594D01*
X59134Y67563D02*
X61594D01*
X59134Y72643D02*
X61594D01*
X59134Y70103D02*
X61594D01*
X59134Y75183D02*
X61594D01*
X59134Y77723D02*
X61594D01*
X59134Y80263D02*
X61594D01*
X59134Y82803D02*
X61594D01*
X83819Y113283D02*
X86279D01*
X83819Y110743D02*
X86279D01*
X83819Y108203D02*
X86279D01*
X83819Y105663D02*
X86279D01*
X83819Y103123D02*
X86279D01*
X83819Y100583D02*
X86279D01*
X83819Y95503D02*
X86279D01*
X83819Y98043D02*
X86279D01*
X99139Y95503D02*
X101599D01*
X99139Y98043D02*
X101599D01*
X99139Y100583D02*
X101599D01*
X99139Y103123D02*
X101599D01*
X99139Y105663D02*
X101599D01*
X99139Y108203D02*
X101599D01*
X99139Y110743D02*
X101599D01*
X99139Y113283D02*
X101599D01*
X83819Y65023D02*
X86279D01*
X83819Y67563D02*
X86279D01*
X83819Y70103D02*
X86279D01*
X83819Y72643D02*
X86279D01*
X83819Y75183D02*
X86279D01*
X83819Y77723D02*
X86279D01*
X83819Y80263D02*
X86279D01*
X83819Y82803D02*
X86279D01*
X99139D02*
X101599D01*
X99139Y80263D02*
X101599D01*
X99139Y77723D02*
X101599D01*
X99139Y75183D02*
X101599D01*
X99139Y72643D02*
X101599D01*
X99139Y70103D02*
X101599D01*
X99139Y67563D02*
X101599D01*
X99139Y65023D02*
X101599D01*
X43814D02*
X46274D01*
X43814Y67563D02*
X46274D01*
X43814Y70103D02*
X46274D01*
X43814Y72643D02*
X46274D01*
X43814Y75183D02*
X46274D01*
X43814Y77723D02*
X46274D01*
X43814Y80263D02*
X46274D01*
X43814Y82803D02*
X46274D01*
G54D24*
X115696Y104393D02*
X116585Y103504D01*
Y97916D02*
Y103504D01*
X115696Y104393D02*
Y113664D01*
X111378Y117982D02*
X115696Y113664D01*
X100329Y117982D02*
X111378D01*
X98170Y115823D02*
X100329Y117982D01*
X98170Y85343D02*
Y92963D01*
X58165Y85343D02*
Y92963D01*
G54D25*
X127888Y88010D02*
Y94487D01*
X127126Y95249D02*
X127888Y94487D01*
X125602Y95249D02*
X127126D01*
X122935Y97916D02*
X125602Y95249D01*
X116585Y97916D02*
X122935D01*
G54D28*
X122427Y89026D03*
X129285Y77469D03*
X132587Y72389D03*
Y64896D03*
G54D36*
X69214Y115823D03*
X36194D03*
X69214Y62483D03*
X76199D03*
Y115823D03*
X109219Y62483D03*
G54D38*
X109219Y115886D03*
G54D40*
X133984Y107314D03*
G54D54*
X121030Y72389D03*
X132587Y64896D03*
Y72389D03*
X132714Y87121D03*
X122427Y89026D03*
X129285Y77469D03*
X112013Y60705D03*
Y56895D03*
X63499Y92455D03*
X103504Y84073D03*
Y92455D03*
X81406Y85978D03*
X114934Y86994D03*
X114299Y87629D03*
X113664Y88264D03*
X113029Y88899D03*
X112394Y89534D03*
X111759Y90169D03*
X111124Y90804D03*
X110489Y91439D03*
X74929Y86994D03*
X74294Y87629D03*
X73659Y88264D03*
X73024Y88899D03*
X72389Y89534D03*
X71754Y90169D03*
X71119Y90804D03*
X70484Y91439D03*
X30479D03*
X31114Y90804D03*
X31749Y90169D03*
X32384Y89534D03*
X33019Y88899D03*
X33654Y88264D03*
X34289Y87629D03*
X34924Y86994D03*
X114934Y95503D03*
X114299Y98043D03*
X113664Y100583D03*
X113029Y103123D03*
X112394Y105663D03*
X111759Y108203D03*
X111124Y110743D03*
X110489Y113283D03*
X70484D03*
X71119Y110743D03*
X71754Y108203D03*
X72389Y105663D03*
X73024Y103123D03*
X73659Y100583D03*
X74294Y98043D03*
X74929Y95503D03*
X30479Y113283D03*
X31114Y110743D03*
X31749Y108203D03*
X32384Y105663D03*
X33019Y103123D03*
X33654Y100583D03*
X34289Y98043D03*
X34924Y95503D03*
X74929Y65023D03*
X74294Y67563D03*
X73659Y70103D03*
X73024Y72643D03*
X72389Y75183D03*
X71754Y77723D03*
X71119Y80263D03*
X70484Y82803D03*
X34924Y65023D03*
X34289Y67563D03*
X33654Y70103D03*
X33019Y72643D03*
X32384Y75183D03*
X31749Y77723D03*
X31114Y80263D03*
X30479Y82803D03*
X110489D03*
X111124Y80263D03*
X111759Y77723D03*
X112394Y75183D03*
X113029Y72643D03*
X113664Y70103D03*
X114299Y67563D03*
X114934Y65023D03*
X123875Y83692D03*
Y76199D03*
Y68706D03*
Y61213D03*
X135508Y76199D03*
Y68706D03*
Y61213D03*
Y83692D03*
G54D55*
X125729Y57149D03*
X127888Y88010D03*
X116585Y97916D03*
X127507Y100964D03*
X130301D03*
X58165Y115823D03*
X98170D03*
X58165Y85343D03*
Y92963D03*
X98170Y85343D03*
Y92963D03*
X69214Y80263D03*
Y82803D03*
Y72643D03*
Y75183D03*
Y65023D03*
Y67563D03*
X61594Y82803D03*
Y80263D03*
Y75183D03*
Y72643D03*
Y67563D03*
Y65023D03*
X69214Y70103D03*
Y77723D03*
Y85343D03*
X61594D03*
Y77723D03*
Y70103D03*
Y62483D03*
X109219Y80263D03*
Y82803D03*
Y72643D03*
Y75183D03*
Y65023D03*
Y67563D03*
X101599Y82803D03*
Y80263D03*
Y75183D03*
Y72643D03*
Y67563D03*
Y65023D03*
X109219Y70103D03*
Y77723D03*
Y85343D03*
X101599D03*
Y77723D03*
Y70103D03*
Y62483D03*
X69214Y110743D03*
Y113283D03*
Y103123D03*
Y105663D03*
Y95503D03*
Y98043D03*
X61594Y113283D03*
Y110743D03*
Y105663D03*
Y103123D03*
Y98043D03*
Y95503D03*
X69214Y100583D03*
Y108203D03*
Y115823D03*
X61594D03*
Y108203D03*
Y100583D03*
Y92963D03*
X109219Y110743D03*
Y113283D03*
Y103123D03*
Y105663D03*
Y95503D03*
Y98043D03*
X101599Y113283D03*
Y110743D03*
Y105663D03*
Y103123D03*
Y98043D03*
Y95503D03*
X109219Y100583D03*
Y108203D03*
Y115823D03*
X101599D03*
Y108203D03*
Y100583D03*
Y92963D03*
X36194Y67563D03*
Y65023D03*
Y75183D03*
Y72643D03*
Y82803D03*
Y80263D03*
X43814Y65023D03*
Y67563D03*
Y72643D03*
Y75183D03*
Y80263D03*
Y82803D03*
X36194Y77723D03*
Y70103D03*
Y62483D03*
X43814D03*
Y70103D03*
Y77723D03*
Y85343D03*
X36194Y98043D03*
Y95503D03*
Y105663D03*
Y103123D03*
Y113283D03*
Y110743D03*
X43814Y95503D03*
Y98043D03*
Y103123D03*
Y105663D03*
Y110743D03*
Y113283D03*
X36194Y108203D03*
Y100583D03*
Y92963D03*
X43814D03*
Y100583D03*
Y108203D03*
Y115823D03*
X76199Y98043D03*
Y95503D03*
Y105663D03*
Y103123D03*
Y113283D03*
Y110743D03*
X83819Y95503D03*
Y98043D03*
Y103123D03*
Y105663D03*
Y110743D03*
Y113283D03*
X76199Y108203D03*
Y100583D03*
Y92963D03*
X83819D03*
Y100583D03*
Y108203D03*
Y115823D03*
X76199Y67563D03*
Y65023D03*
Y75183D03*
Y72643D03*
Y82803D03*
Y80263D03*
X83819Y65023D03*
Y67563D03*
Y72643D03*
Y75183D03*
Y80263D03*
Y82803D03*
X76199Y77723D03*
Y70103D03*
Y62483D03*
X83819D03*
Y70103D03*
Y77723D03*
Y85343D03*
X131317Y93217D03*
X134111D03*
G54D56*
X119125Y82752D03*
Y75259D03*
Y67766D03*
Y60273D03*
X130758Y75259D03*
Y67766D03*
Y60273D03*
Y82752D03*
G54D57*
X126262Y52704D03*
X38201Y50164D03*
X97891Y50291D03*
G54D58*
X126262Y50164D03*
X123722Y52704D03*
Y50164D03*
X121182Y52704D03*
Y50164D03*
X118642Y52704D03*
Y50164D03*
X53974Y82828D03*
X51434Y80288D03*
X53974D03*
X51434Y77748D03*
X53974D03*
X51434Y75208D03*
X53974D03*
X51434Y72668D03*
X53974D03*
X51434Y70128D03*
X53974D03*
X51434Y67588D03*
X53974D03*
X51434Y65048D03*
X53974D03*
X125602Y95249D03*
X93979Y82828D03*
X91439Y80288D03*
X93979D03*
X91439Y77748D03*
X93979D03*
X91439Y75208D03*
X93979D03*
X91439Y72668D03*
X93979D03*
X91439Y70128D03*
X93979D03*
X91439Y67588D03*
X93979D03*
X91439Y65048D03*
X93979D03*
X53974Y113308D03*
X51434Y110768D03*
X53974D03*
X51434Y108228D03*
X53974D03*
X51434Y105688D03*
X53974D03*
X51434Y103148D03*
X53974D03*
X51434Y100608D03*
X53974D03*
X51434Y98068D03*
X53974D03*
X51434Y95528D03*
X53974D03*
X93979Y113308D03*
X91439Y110768D03*
X93979D03*
X91439Y108228D03*
X93979D03*
X91439Y105688D03*
X93979D03*
X91439Y103148D03*
X93979D03*
X91439Y100608D03*
X93979D03*
X91439Y98068D03*
X93979D03*
X91439Y95528D03*
X93979D03*
X38201Y52704D03*
X40741Y50164D03*
Y52704D03*
X43281Y50164D03*
Y52704D03*
X45821Y50164D03*
Y52704D03*
X48361Y50164D03*
Y52704D03*
X50901Y50164D03*
Y52704D03*
X53441Y50164D03*
Y52704D03*
X55981Y50164D03*
Y52704D03*
X97891Y52831D03*
X100431Y50291D03*
Y52831D03*
X102971Y50291D03*
Y52831D03*
X105511Y50291D03*
Y52831D03*
G54D59*
X51434Y82828D03*
X125602Y92709D03*
X91439Y82828D03*
X51434Y113308D03*
X91439D03*
G54D60*
X29209Y116204D03*
X135254Y49529D03*
Y116204D03*
X29209Y49529D03*
G54D61*
X69214Y62483D03*
X109219D03*
X69214Y92963D03*
X109219D03*
X36194Y85343D03*
Y115823D03*
X76199D03*
Y85343D03*
G54D62*
X133984Y107314D03*
G54D63*
X133984Y111124D03*
G54D64*
X136524Y102234D03*
Y99694D03*
G54D65*
X120141Y110616D03*
G54D66*
X96439Y110743D03*
X99139D03*
X96439Y105663D03*
X99139D03*
X96439Y100583D03*
X99139D03*
X96439Y95503D03*
X99139D03*
X88979Y98043D03*
X86279D03*
X88979Y103123D03*
X86279D03*
X88979Y108203D03*
X86279D03*
X88979Y113283D03*
X86279D03*
X48974Y103123D03*
X46274D03*
X48974Y95503D03*
X46274D03*
X48974Y108203D03*
X46274D03*
X48974Y113283D03*
X46274D03*
X56434Y95503D03*
X59134D03*
X56434Y100583D03*
X59134D03*
X56434Y105663D03*
X59134D03*
X56434Y110743D03*
X59134D03*
X96439Y80263D03*
X99139D03*
X96439Y75183D03*
X99139D03*
X96439Y70103D03*
X99139D03*
X96439Y65023D03*
X99139D03*
X88979Y67563D03*
X86279D03*
X88979Y72643D03*
X86279D03*
X88979Y77723D03*
X86279D03*
X88979Y82803D03*
X86279D03*
X48974D03*
X46274D03*
X48974Y77723D03*
X46274D03*
X48974Y72643D03*
X46274D03*
X48974Y67563D03*
X46274D03*
X56434Y65023D03*
X59134D03*
X56434Y70103D03*
X59134D03*
X56434Y75183D03*
X59134D03*
X56434Y80263D03*
X59134D03*
X88979Y65023D03*
X86279D03*
X48974Y80263D03*
X46274D03*
X48974Y75183D03*
X46274D03*
X56434Y72643D03*
X59134D03*
X48974Y70103D03*
X46274D03*
X48974Y65023D03*
X46274D03*
X56434Y67563D03*
X59134D03*
X56434Y77723D03*
X59134D03*
X56434Y82803D03*
X59134D03*
X96439Y67563D03*
X99139D03*
X48974Y110743D03*
X46274D03*
X88979D03*
X86279D03*
X96439Y108203D03*
X99139D03*
X56434D03*
X59134D03*
X96439Y77723D03*
X99139D03*
X96439Y103123D03*
X99139D03*
X96439Y113283D03*
X99139D03*
X96439Y72643D03*
X99139D03*
X56434Y103123D03*
X59134D03*
X96439Y82803D03*
X99139D03*
X56434Y113283D03*
X59134D03*
X56434Y98043D03*
X59134D03*
X96439D03*
X99139D03*
X88979Y95503D03*
X86279D03*
X48974Y98043D03*
X46274D03*
X88979Y100583D03*
X86279D03*
X48974D03*
X46274D03*
X88979Y70103D03*
X86279D03*
X88979Y105663D03*
X86279D03*
X48974D03*
X46274D03*
X88979Y75183D03*
X86279D03*
X88979Y80263D03*
X86279D03*
G54D67*
X134047Y93217D03*
G54D68*
X130364Y100964D03*
G54D69*
X69147Y92963D03*
X76266Y85343D03*
X109152Y92963D03*
G54D70*
X132778Y87185D03*
G54D71*
X120141Y110616D03*
G54D72*
X36261Y92959D03*
G54D73*
X36261Y85347D03*
X76266Y92967D03*
G54D74*
X109152Y85379D03*
M02*