%FSLAX43Y43*%
%MOMM*%
%SFA1B1*%

%IPPOS*%
%ADD78C,0.100000*%
%LNlp_led_cube_8x8x8-1*%
%LPD*%
G54D78*
X97789Y110243D02*
Y111243D01*
X97289Y110743D02*
X98289D01*
X95789Y109793D02*
X99789D01*
X95789Y111693D02*
X99789D01*
X95789Y109793D02*
Y111693D01*
X99789Y109793D02*
Y111693D01*
X97789Y105163D02*
Y106163D01*
X97289Y105663D02*
X98289D01*
X95789Y104713D02*
X99789D01*
X95789Y106613D02*
X99789D01*
X95789Y104713D02*
Y106613D01*
X99789Y104713D02*
Y106613D01*
X97789Y100083D02*
Y101083D01*
X97289Y100583D02*
X98289D01*
X95789Y99633D02*
X99789D01*
X95789Y101533D02*
X99789D01*
X95789Y99633D02*
Y101533D01*
X99789Y99633D02*
Y101533D01*
X97789Y95003D02*
Y96003D01*
X97289Y95503D02*
X98289D01*
X95789Y94553D02*
X99789D01*
X95789Y96453D02*
X99789D01*
X95789Y94553D02*
Y96453D01*
X99789Y94553D02*
Y96453D01*
X87629Y97543D02*
Y98543D01*
X87129Y98043D02*
X88129D01*
X85629Y98993D02*
X89629D01*
X85629Y97093D02*
X89629D01*
Y98993*
X85629Y97093D02*
Y98993D01*
X87629Y102623D02*
Y103623D01*
X87129Y103123D02*
X88129D01*
X85629Y104073D02*
X89629D01*
X85629Y102173D02*
X89629D01*
Y104073*
X85629Y102173D02*
Y104073D01*
X87629Y107703D02*
Y108703D01*
X87129Y108203D02*
X88129D01*
X85629Y109153D02*
X89629D01*
X85629Y107253D02*
X89629D01*
Y109153*
X85629Y107253D02*
Y109153D01*
X87629Y112783D02*
Y113783D01*
X87129Y113283D02*
X88129D01*
X85629Y114233D02*
X89629D01*
X85629Y112333D02*
X89629D01*
Y114233*
X85629Y112333D02*
Y114233D01*
X47624Y102623D02*
Y103623D01*
X47124Y103123D02*
X48124D01*
X45624Y104073D02*
X49624D01*
X45624Y102173D02*
X49624D01*
Y104073*
X45624Y102173D02*
Y104073D01*
X47624Y95003D02*
Y96003D01*
X47124Y95503D02*
X48124D01*
X45624Y96453D02*
X49624D01*
X45624Y94553D02*
X49624D01*
Y96453*
X45624Y94553D02*
Y96453D01*
X47624Y107703D02*
Y108703D01*
X47124Y108203D02*
X48124D01*
X45624Y109153D02*
X49624D01*
X45624Y107253D02*
X49624D01*
Y109153*
X45624Y107253D02*
Y109153D01*
X47624Y112783D02*
Y113783D01*
X47124Y113283D02*
X48124D01*
X45624Y114233D02*
X49624D01*
X45624Y112333D02*
X49624D01*
Y114233*
X45624Y112333D02*
Y114233D01*
X57784Y95003D02*
Y96003D01*
X57284Y95503D02*
X58284D01*
X55784Y94553D02*
X59784D01*
X55784Y96453D02*
X59784D01*
X55784Y94553D02*
Y96453D01*
X59784Y94553D02*
Y96453D01*
X57784Y100083D02*
Y101083D01*
X57284Y100583D02*
X58284D01*
X55784Y99633D02*
X59784D01*
X55784Y101533D02*
X59784D01*
X55784Y99633D02*
Y101533D01*
X59784Y99633D02*
Y101533D01*
X57784Y105163D02*
Y106163D01*
X57284Y105663D02*
X58284D01*
X55784Y104713D02*
X59784D01*
X55784Y106613D02*
X59784D01*
X55784Y104713D02*
Y106613D01*
X59784Y104713D02*
Y106613D01*
X57784Y110243D02*
Y111243D01*
X57284Y110743D02*
X58284D01*
X55784Y109793D02*
X59784D01*
X55784Y111693D02*
X59784D01*
X55784Y109793D02*
Y111693D01*
X59784Y109793D02*
Y111693D01*
X97789Y79763D02*
Y80763D01*
X97289Y80263D02*
X98289D01*
X95789Y79313D02*
X99789D01*
X95789Y81213D02*
X99789D01*
X95789Y79313D02*
Y81213D01*
X99789Y79313D02*
Y81213D01*
X97789Y74683D02*
Y75683D01*
X97289Y75183D02*
X98289D01*
X95789Y74233D02*
X99789D01*
X95789Y76133D02*
X99789D01*
X95789Y74233D02*
Y76133D01*
X99789Y74233D02*
Y76133D01*
X97789Y69603D02*
Y70603D01*
X97289Y70103D02*
X98289D01*
X95789Y69153D02*
X99789D01*
X95789Y71053D02*
X99789D01*
X95789Y69153D02*
Y71053D01*
X99789Y69153D02*
Y71053D01*
X97789Y64523D02*
Y65523D01*
X97289Y65023D02*
X98289D01*
X95789Y64073D02*
X99789D01*
X95789Y65973D02*
X99789D01*
X95789Y64073D02*
Y65973D01*
X99789Y64073D02*
Y65973D01*
X87629Y67063D02*
Y68063D01*
X87129Y67563D02*
X88129D01*
X85629Y68513D02*
X89629D01*
X85629Y66613D02*
X89629D01*
Y68513*
X85629Y66613D02*
Y68513D01*
X87629Y72143D02*
Y73143D01*
X87129Y72643D02*
X88129D01*
X85629Y73593D02*
X89629D01*
X85629Y71693D02*
X89629D01*
Y73593*
X85629Y71693D02*
Y73593D01*
X87629Y77223D02*
Y78223D01*
X87129Y77723D02*
X88129D01*
X85629Y78673D02*
X89629D01*
X85629Y76773D02*
X89629D01*
Y78673*
X85629Y76773D02*
Y78673D01*
X87629Y82303D02*
Y83303D01*
X87129Y82803D02*
X88129D01*
X85629Y83753D02*
X89629D01*
X85629Y81853D02*
X89629D01*
Y83753*
X85629Y81853D02*
Y83753D01*
X47624Y82303D02*
Y83303D01*
X47124Y82803D02*
X48124D01*
X45624Y83753D02*
X49624D01*
X45624Y81853D02*
X49624D01*
Y83753*
X45624Y81853D02*
Y83753D01*
X47624Y77223D02*
Y78223D01*
X47124Y77723D02*
X48124D01*
X45624Y78673D02*
X49624D01*
X45624Y76773D02*
X49624D01*
Y78673*
X45624Y76773D02*
Y78673D01*
X47624Y72143D02*
Y73143D01*
X47124Y72643D02*
X48124D01*
X45624Y73593D02*
X49624D01*
X45624Y71693D02*
X49624D01*
Y73593*
X45624Y71693D02*
Y73593D01*
X47624Y67063D02*
Y68063D01*
X47124Y67563D02*
X48124D01*
X45624Y68513D02*
X49624D01*
X45624Y66613D02*
X49624D01*
Y68513*
X45624Y66613D02*
Y68513D01*
X57784Y64523D02*
Y65523D01*
X57284Y65023D02*
X58284D01*
X55784Y64073D02*
X59784D01*
X55784Y65973D02*
X59784D01*
X55784Y64073D02*
Y65973D01*
X59784Y64073D02*
Y65973D01*
X57784Y69603D02*
Y70603D01*
X57284Y70103D02*
X58284D01*
X55784Y69153D02*
X59784D01*
X55784Y71053D02*
X59784D01*
X55784Y69153D02*
Y71053D01*
X59784Y69153D02*
Y71053D01*
X57784Y74683D02*
Y75683D01*
X57284Y75183D02*
X58284D01*
X55784Y74233D02*
X59784D01*
X55784Y76133D02*
X59784D01*
X55784Y74233D02*
Y76133D01*
X59784Y74233D02*
Y76133D01*
X57784Y79763D02*
Y80763D01*
X57284Y80263D02*
X58284D01*
X55784Y79313D02*
X59784D01*
X55784Y81213D02*
X59784D01*
X55784Y79313D02*
Y81213D01*
X59784Y79313D02*
Y81213D01*
X105409Y93377D02*
Y94327D01*
X104934Y93852D02*
X105884D01*
X104209Y93302D02*
X106609D01*
X104209Y94402D02*
X106609D01*
X104209Y93302D02*
Y94402D01*
X106609Y93302D02*
Y94402D01*
X105409Y62008D02*
Y62958D01*
X104934Y62483D02*
X105884D01*
X104209Y61933D02*
X106609D01*
X104209Y63033D02*
X106609D01*
X104209Y61933D02*
Y63033D01*
X106609Y61933D02*
Y63033D01*
X65404Y62008D02*
Y62958D01*
X64929Y62483D02*
X65879D01*
X64204Y61933D02*
X66604D01*
X64204Y63033D02*
X66604D01*
X64204Y61933D02*
Y63033D01*
X66604Y61933D02*
Y63033D01*
X80009Y83979D02*
Y84929D01*
X79534Y84454D02*
X80484D01*
X78809Y85004D02*
X81209D01*
X78809Y83904D02*
X81209D01*
Y85004*
X78809Y83904D02*
Y85004D01*
X40004Y115348D02*
Y116298D01*
X39529Y115823D02*
X40479D01*
X38804Y116373D02*
X41204D01*
X38804Y115273D02*
X41204D01*
Y116373*
X38804Y115273D02*
Y116373D01*
X65404Y93377D02*
Y94327D01*
X64929Y93852D02*
X65879D01*
X64204Y93302D02*
X66604D01*
X64204Y94402D02*
X66604D01*
X64204Y93302D02*
Y94402D01*
X66604Y93302D02*
Y94402D01*
X80009Y115348D02*
Y116298D01*
X79534Y115823D02*
X80484D01*
X78809Y116373D02*
X81209D01*
X78809Y115273D02*
X81209D01*
Y116373*
X78809Y115273D02*
Y116373D01*
X40004Y84868D02*
Y85818D01*
X39529Y85343D02*
X40479D01*
X38804Y85893D02*
X41204D01*
X38804Y84793D02*
X41204D01*
Y85893*
X38804Y84793D02*
Y85893D01*
X87629Y64523D02*
Y65523D01*
X87129Y65023D02*
X88129D01*
X85629Y65973D02*
X89629D01*
X85629Y64073D02*
X89629D01*
Y65973*
X85629Y64073D02*
Y65973D01*
X123400Y85597D02*
X124350D01*
X123875Y85122D02*
Y86072D01*
X124425Y84397D02*
Y86797D01*
X123325Y84397D02*
Y86797D01*
Y84397D02*
X124425D01*
X123325Y86797D02*
X124425D01*
X123400Y78104D02*
X124350D01*
X123875Y77629D02*
Y78579D01*
X124425Y76904D02*
Y79304D01*
X123325Y76904D02*
Y79304D01*
Y76904D02*
X124425D01*
X123325Y79304D02*
X124425D01*
X123400Y70611D02*
X124350D01*
X123875Y70136D02*
Y71086D01*
X124425Y69411D02*
Y71811D01*
X123325Y69411D02*
Y71811D01*
Y69411D02*
X124425D01*
X123325Y71811D02*
X124425D01*
X123400Y63118D02*
X124350D01*
X123875Y62643D02*
Y63593D01*
X124425Y61918D02*
Y64318D01*
X123325Y61918D02*
Y64318D01*
Y61918D02*
X124425D01*
X123325Y64318D02*
X124425D01*
X135033Y85597D02*
X135983D01*
X135508Y85122D02*
Y86072D01*
X136058Y84397D02*
Y86797D01*
X134958Y84397D02*
Y86797D01*
Y84397D02*
X136058D01*
X134958Y86797D02*
X136058D01*
X135033Y78104D02*
X135983D01*
X135508Y77629D02*
Y78579D01*
X136058Y76904D02*
Y79304D01*
X134958Y76904D02*
Y79304D01*
Y76904D02*
X136058D01*
X134958Y79304D02*
X136058D01*
X135033Y70611D02*
X135983D01*
X135508Y70136D02*
Y71086D01*
X136058Y69411D02*
Y71811D01*
X134958Y69411D02*
Y71811D01*
Y69411D02*
X136058D01*
X134958Y71811D02*
X136058D01*
X135033Y63118D02*
X135983D01*
X135508Y62643D02*
Y63593D01*
X136058Y61918D02*
Y64318D01*
X134958Y61918D02*
Y64318D01*
Y61918D02*
X136058D01*
X134958Y64318D02*
X136058D01*
X122986Y70644D02*
Y71594D01*
X122511Y71119D02*
X123461D01*
X121786Y70569D02*
X124186D01*
X121786Y71669D02*
X124186D01*
Y70569D02*
Y71669D01*
X121786Y70569D02*
Y71669D01*
X134619Y70644D02*
Y71594D01*
X134144Y71119D02*
X135094D01*
X133419Y70569D02*
X135819D01*
X133419Y71669D02*
X135819D01*
Y70569D02*
Y71669D01*
X133419Y70569D02*
Y71669D01*
X120319Y65818D02*
Y66768D01*
X119844Y66293D02*
X120794D01*
X119119Y65743D02*
X121519D01*
X119119Y66843D02*
X121519D01*
Y65743D02*
Y66843D01*
X119119Y65743D02*
Y66843D01*
X122986Y65818D02*
Y66768D01*
X122511Y66293D02*
X123461D01*
X121786Y65743D02*
X124186D01*
X121786Y66843D02*
X124186D01*
Y65743D02*
Y66843D01*
X121786Y65743D02*
Y66843D01*
X120319Y70644D02*
Y71594D01*
X119844Y71119D02*
X120794D01*
X119119Y70569D02*
X121519D01*
X119119Y71669D02*
X121519D01*
Y70569D02*
Y71669D01*
X119119Y70569D02*
Y71669D01*
X131952Y70644D02*
Y71594D01*
X131477Y71119D02*
X132427D01*
X130752Y70569D02*
X133152D01*
X130752Y71669D02*
X133152D01*
Y70569D02*
Y71669D01*
X130752Y70569D02*
Y71669D01*
X131952Y65818D02*
Y66768D01*
X131477Y66293D02*
X132427D01*
X130752Y65743D02*
X133152D01*
X130752Y66843D02*
X133152D01*
Y65743D02*
Y66843D01*
X130752Y65743D02*
Y66843D01*
X134619Y65818D02*
Y66768D01*
X134144Y66293D02*
X135094D01*
X133419Y65743D02*
X135819D01*
X133419Y66843D02*
X135819D01*
Y65743D02*
Y66843D01*
X133419Y65743D02*
Y66843D01*
X122986Y58325D02*
Y59275D01*
X122511Y58800D02*
X123461D01*
X121786Y58250D02*
X124186D01*
X121786Y59350D02*
X124186D01*
Y58250D02*
Y59350D01*
X121786Y58250D02*
Y59350D01*
X134619Y58325D02*
Y59275D01*
X134144Y58800D02*
X135094D01*
X133419Y58250D02*
X135819D01*
X133419Y59350D02*
X135819D01*
Y58250D02*
Y59350D01*
X133419Y58250D02*
Y59350D01*
X120319Y63151D02*
Y64101D01*
X119844Y63626D02*
X120794D01*
X119119Y63076D02*
X121519D01*
X119119Y64176D02*
X121519D01*
Y63076D02*
Y64176D01*
X119119Y63076D02*
Y64176D01*
X122986Y63151D02*
Y64101D01*
X122511Y63626D02*
X123461D01*
X121786Y63076D02*
X124186D01*
X121786Y64176D02*
X124186D01*
Y63076D02*
Y64176D01*
X121786Y63076D02*
Y64176D01*
X134619Y63151D02*
Y64101D01*
X134144Y63626D02*
X135094D01*
X133419Y63076D02*
X135819D01*
X133419Y64176D02*
X135819D01*
Y63076D02*
Y64176D01*
X133419Y63076D02*
Y64176D01*
X120319Y58325D02*
Y59275D01*
X119844Y58800D02*
X120794D01*
X119119Y58250D02*
X121519D01*
X119119Y59350D02*
X121519D01*
Y58250D02*
Y59350D01*
X119119Y58250D02*
Y59350D01*
X131952Y63151D02*
Y64101D01*
X131477Y63626D02*
X132427D01*
X130752Y63076D02*
X133152D01*
X130752Y64176D02*
X133152D01*
Y63076D02*
Y64176D01*
X130752Y63076D02*
Y64176D01*
X131952Y58325D02*
Y59275D01*
X131477Y58800D02*
X132427D01*
X130752Y58250D02*
X133152D01*
X130752Y59350D02*
X133152D01*
Y58250D02*
Y59350D01*
X130752Y58250D02*
Y59350D01*
X120903Y67131D02*
Y70281D01*
X122553*
X120903Y67131D02*
X122553D01*
Y70281*
X132536Y67131D02*
Y70281D01*
X134186*
X132536Y67131D02*
X134186D01*
Y70281*
X120903Y59638D02*
Y62788D01*
X122553*
X120903Y59638D02*
X122553D01*
Y62788*
X132536Y59638D02*
Y62788D01*
X134186*
X132536Y59638D02*
X134186D01*
Y62788*
X122986Y80804D02*
Y81754D01*
X122511Y81279D02*
X123461D01*
X121786Y80729D02*
X124186D01*
X121786Y81829D02*
X124186D01*
Y80729D02*
Y81829D01*
X121786Y80729D02*
Y81829D01*
X122986Y85630D02*
Y86580D01*
X122511Y86105D02*
X123461D01*
X121786Y85555D02*
X124186D01*
X121786Y86655D02*
X124186D01*
Y85555D02*
Y86655D01*
X121786Y85555D02*
Y86655D01*
X120319Y80804D02*
Y81754D01*
X119844Y81279D02*
X120794D01*
X119119Y80729D02*
X121519D01*
X119119Y81829D02*
X121519D01*
Y80729D02*
Y81829D01*
X119119Y80729D02*
Y81829D01*
X120319Y85630D02*
Y86580D01*
X119844Y86105D02*
X120794D01*
X119119Y85555D02*
X121519D01*
X119119Y86655D02*
X121519D01*
Y85555D02*
Y86655D01*
X119119Y85555D02*
Y86655D01*
X120903Y82117D02*
Y85267D01*
X122553*
X120903Y82117D02*
X122553D01*
Y85267*
X134619Y80804D02*
Y81754D01*
X134144Y81279D02*
X135094D01*
X133419Y80729D02*
X135819D01*
X133419Y81829D02*
X135819D01*
Y80729D02*
Y81829D01*
X133419Y80729D02*
Y81829D01*
X131952Y80804D02*
Y81754D01*
X131477Y81279D02*
X132427D01*
X130752Y80729D02*
X133152D01*
X130752Y81829D02*
X133152D01*
Y80729D02*
Y81829D01*
X130752Y80729D02*
Y81829D01*
X131952Y85630D02*
Y86580D01*
X131477Y86105D02*
X132427D01*
X130752Y85555D02*
X133152D01*
X130752Y86655D02*
X133152D01*
Y85555D02*
Y86655D01*
X130752Y85555D02*
Y86655D01*
X134619Y85630D02*
Y86580D01*
X134144Y86105D02*
X135094D01*
X133419Y85555D02*
X135819D01*
X133419Y86655D02*
X135819D01*
Y85555D02*
Y86655D01*
X133419Y85555D02*
Y86655D01*
X132536Y82117D02*
Y85267D01*
X134186*
X132536Y82117D02*
X134186D01*
Y85267*
X122986Y73311D02*
Y74261D01*
X122511Y73786D02*
X123461D01*
X121786Y73236D02*
X124186D01*
X121786Y74336D02*
X124186D01*
Y73236D02*
Y74336D01*
X121786Y73236D02*
Y74336D01*
X120319Y78137D02*
Y79087D01*
X119844Y78612D02*
X120794D01*
X119119Y78062D02*
X121519D01*
X119119Y79162D02*
X121519D01*
Y78062D02*
Y79162D01*
X119119Y78062D02*
Y79162D01*
X120319Y73311D02*
Y74261D01*
X119844Y73786D02*
X120794D01*
X119119Y73236D02*
X121519D01*
X119119Y74336D02*
X121519D01*
Y73236D02*
Y74336D01*
X119119Y73236D02*
Y74336D01*
X122986Y78137D02*
Y79087D01*
X122511Y78612D02*
X123461D01*
X121786Y78062D02*
X124186D01*
X121786Y79162D02*
X124186D01*
Y78062D02*
Y79162D01*
X121786Y78062D02*
Y79162D01*
X120903Y74624D02*
Y77774D01*
X122553*
X120903Y74624D02*
X122553D01*
Y77774*
X132536Y74624D02*
Y77774D01*
X134186*
X132536Y74624D02*
X134186D01*
Y77774*
X131952Y78137D02*
Y79087D01*
X131477Y78612D02*
X132427D01*
X130752Y78062D02*
X133152D01*
X130752Y79162D02*
X133152D01*
Y78062D02*
Y79162D01*
X130752Y78062D02*
Y79162D01*
X131952Y73311D02*
Y74261D01*
X131477Y73786D02*
X132427D01*
X130752Y73236D02*
X133152D01*
X130752Y74336D02*
X133152D01*
Y73236D02*
Y74336D01*
X130752Y73236D02*
Y74336D01*
X134619Y78137D02*
Y79087D01*
X134144Y78612D02*
X135094D01*
X133419Y78062D02*
X135819D01*
X133419Y79162D02*
X135819D01*
Y78062D02*
Y79162D01*
X133419Y78062D02*
Y79162D01*
X134619Y73311D02*
Y74261D01*
X134144Y73786D02*
X135094D01*
X133419Y73236D02*
X135819D01*
X133419Y74336D02*
X135819D01*
Y73236D02*
Y74336D01*
X133419Y73236D02*
Y74336D01*
X47624Y79763D02*
Y80763D01*
X47124Y80263D02*
X48124D01*
X45624Y81213D02*
X49624D01*
X45624Y79313D02*
X49624D01*
Y81213*
X45624Y79313D02*
Y81213D01*
X47624Y74683D02*
Y75683D01*
X47124Y75183D02*
X48124D01*
X45624Y76133D02*
X49624D01*
X45624Y74233D02*
X49624D01*
Y76133*
X45624Y74233D02*
Y76133D01*
X57784Y72143D02*
Y73143D01*
X57284Y72643D02*
X58284D01*
X55784Y71693D02*
X59784D01*
X55784Y73593D02*
X59784D01*
X55784Y71693D02*
Y73593D01*
X59784Y71693D02*
Y73593D01*
X47624Y69603D02*
Y70603D01*
X47124Y70103D02*
X48124D01*
X45624Y71053D02*
X49624D01*
X45624Y69153D02*
X49624D01*
Y71053*
X45624Y69153D02*
Y71053D01*
X47624Y64523D02*
Y65523D01*
X47124Y65023D02*
X48124D01*
X45624Y65973D02*
X49624D01*
X45624Y64073D02*
X49624D01*
Y65973*
X45624Y64073D02*
Y65973D01*
X57784Y67063D02*
Y68063D01*
X57284Y67563D02*
X58284D01*
X55784Y66613D02*
X59784D01*
X55784Y68513D02*
X59784D01*
X55784Y66613D02*
Y68513D01*
X59784Y66613D02*
Y68513D01*
X57784Y77223D02*
Y78223D01*
X57284Y77723D02*
X58284D01*
X55784Y76773D02*
X59784D01*
X55784Y78673D02*
X59784D01*
X55784Y76773D02*
Y78673D01*
X59784Y76773D02*
Y78673D01*
X57784Y82303D02*
Y83303D01*
X57284Y82803D02*
X58284D01*
X55784Y81853D02*
X59784D01*
X55784Y83753D02*
X59784D01*
X55784Y81853D02*
Y83753D01*
X59784Y81853D02*
Y83753D01*
X97789Y67063D02*
Y68063D01*
X97289Y67563D02*
X98289D01*
X95789Y66613D02*
X99789D01*
X95789Y68513D02*
X99789D01*
X95789Y66613D02*
Y68513D01*
X99789Y66613D02*
Y68513D01*
X47624Y110243D02*
Y111243D01*
X47124Y110743D02*
X48124D01*
X45624Y111693D02*
X49624D01*
X45624Y109793D02*
X49624D01*
Y111693*
X45624Y109793D02*
Y111693D01*
X87629Y110243D02*
Y111243D01*
X87129Y110743D02*
X88129D01*
X85629Y111693D02*
X89629D01*
X85629Y109793D02*
X89629D01*
Y111693*
X85629Y109793D02*
Y111693D01*
X97789Y107703D02*
Y108703D01*
X97289Y108203D02*
X98289D01*
X95789Y107253D02*
X99789D01*
X95789Y109153D02*
X99789D01*
X95789Y107253D02*
Y109153D01*
X99789Y107253D02*
Y109153D01*
X57784Y107703D02*
Y108703D01*
X57284Y108203D02*
X58284D01*
X55784Y107253D02*
X59784D01*
X55784Y109153D02*
X59784D01*
X55784Y107253D02*
Y109153D01*
X59784Y107253D02*
Y109153D01*
X97789Y77223D02*
Y78223D01*
X97289Y77723D02*
X98289D01*
X95789Y76773D02*
X99789D01*
X95789Y78673D02*
X99789D01*
X95789Y76773D02*
Y78673D01*
X99789Y76773D02*
Y78673D01*
X97789Y102623D02*
Y103623D01*
X97289Y103123D02*
X98289D01*
X95789Y102173D02*
X99789D01*
X95789Y104073D02*
X99789D01*
X95789Y102173D02*
Y104073D01*
X99789Y102173D02*
Y104073D01*
X97789Y112783D02*
Y113783D01*
X97289Y113283D02*
X98289D01*
X95789Y112333D02*
X99789D01*
X95789Y114233D02*
X99789D01*
X95789Y112333D02*
Y114233D01*
X99789Y112333D02*
Y114233D01*
X97789Y72143D02*
Y73143D01*
X97289Y72643D02*
X98289D01*
X95789Y71693D02*
X99789D01*
X95789Y73593D02*
X99789D01*
X95789Y71693D02*
Y73593D01*
X99789Y71693D02*
Y73593D01*
X57784Y102623D02*
Y103623D01*
X57284Y103123D02*
X58284D01*
X55784Y102173D02*
X59784D01*
X55784Y104073D02*
X59784D01*
X55784Y102173D02*
Y104073D01*
X59784Y102173D02*
Y104073D01*
X97789Y82303D02*
Y83303D01*
X97289Y82803D02*
X98289D01*
X95789Y81853D02*
X99789D01*
X95789Y83753D02*
X99789D01*
X95789Y81853D02*
Y83753D01*
X99789Y81853D02*
Y83753D01*
X57784Y112783D02*
Y113783D01*
X57284Y113283D02*
X58284D01*
X55784Y112333D02*
X59784D01*
X55784Y114233D02*
X59784D01*
X55784Y112333D02*
Y114233D01*
X59784Y112333D02*
Y114233D01*
X57784Y97543D02*
Y98543D01*
X57284Y98043D02*
X58284D01*
X55784Y97093D02*
X59784D01*
X55784Y98993D02*
X59784D01*
X55784Y97093D02*
Y98993D01*
X59784Y97093D02*
Y98993D01*
X97789Y97543D02*
Y98543D01*
X97289Y98043D02*
X98289D01*
X95789Y97093D02*
X99789D01*
X95789Y98993D02*
X99789D01*
X95789Y97093D02*
Y98993D01*
X99789Y97093D02*
Y98993D01*
X87629Y95003D02*
Y96003D01*
X87129Y95503D02*
X88129D01*
X85629Y96453D02*
X89629D01*
X85629Y94553D02*
X89629D01*
Y96453*
X85629Y94553D02*
Y96453D01*
X47624Y97543D02*
Y98543D01*
X47124Y98043D02*
X48124D01*
X45624Y98993D02*
X49624D01*
X45624Y97093D02*
X49624D01*
Y98993*
X45624Y97093D02*
Y98993D01*
X87629Y100083D02*
Y101083D01*
X87129Y100583D02*
X88129D01*
X85629Y101533D02*
X89629D01*
X85629Y99633D02*
X89629D01*
Y101533*
X85629Y99633D02*
Y101533D01*
X47624Y100083D02*
Y101083D01*
X47124Y100583D02*
X48124D01*
X45624Y101533D02*
X49624D01*
X45624Y99633D02*
X49624D01*
Y101533*
X45624Y99633D02*
Y101533D01*
X87629Y69603D02*
Y70603D01*
X87129Y70103D02*
X88129D01*
X85629Y71053D02*
X89629D01*
X85629Y69153D02*
X89629D01*
Y71053*
X85629Y69153D02*
Y71053D01*
X87629Y105163D02*
Y106163D01*
X87129Y105663D02*
X88129D01*
X85629Y106613D02*
X89629D01*
X85629Y104713D02*
X89629D01*
Y106613*
X85629Y104713D02*
Y106613D01*
X47624Y105163D02*
Y106163D01*
X47124Y105663D02*
X48124D01*
X45624Y106613D02*
X49624D01*
X45624Y104713D02*
X49624D01*
Y106613*
X45624Y104713D02*
Y106613D01*
X87629Y74683D02*
Y75683D01*
X87129Y75183D02*
X88129D01*
X85629Y76133D02*
X89629D01*
X85629Y74233D02*
X89629D01*
Y76133*
X85629Y74233D02*
Y76133D01*
X87629Y79763D02*
Y80763D01*
X87129Y80263D02*
X88129D01*
X85629Y81213D02*
X89629D01*
X85629Y79313D02*
X89629D01*
Y81213*
X85629Y79313D02*
Y81213D01*
X135762Y96679D02*
Y97629D01*
X135287Y97154D02*
X136237D01*
X134562Y97704D02*
X136962D01*
X134562Y96604D02*
X136962D01*
Y97704*
X134562Y96604D02*
Y97704D01*
X115602Y114807D02*
X116552D01*
X116077Y114332D02*
Y115282D01*
X116627Y113607D02*
Y116007D01*
X115527Y113607D02*
Y116007D01*
X116627*
X115527Y113607D02*
X116627D01*
X123730Y112775D02*
X124680D01*
X124205Y112300D02*
Y113250D01*
X123655Y111575D02*
Y113975D01*
X124755Y111575D02*
Y113975D01*
X123655Y111575D02*
X124755D01*
X123655Y113975D02*
X124755D01*
X118112Y116597D02*
Y118097D01*
X115312Y116597D02*
Y118097D01*
Y116597D02*
X118112D01*
X115312Y118097D02*
X118112D01*
X116212Y117347D02*
X117212D01*
X116712Y116847D02*
Y117847D01*
X121414Y116597D02*
Y118097D01*
X118614Y116597D02*
Y118097D01*
Y116597D02*
X121414D01*
X118614Y118097D02*
X121414D01*
X119514Y117347D02*
X120514D01*
X120014Y116847D02*
Y117847D01*
X123189Y116872D02*
Y117822D01*
X122714Y117347D02*
X123664D01*
X121989Y117897D02*
X124389D01*
X121989Y116797D02*
X124389D01*
X121989D02*
Y117897D01*
X124389Y116797D02*
Y117897D01*
X114078Y110616D02*
X115028D01*
X114553Y110141D02*
Y111091D01*
X114003Y109416D02*
Y111816D01*
X115103Y109416D02*
Y111816D01*
X114003Y109416D02*
X115103D01*
X114003Y111816D02*
X115103D01*
X123349Y104774D02*
X124299D01*
X123824Y104299D02*
Y105249D01*
X123274Y103574D02*
Y105974D01*
X124374Y103574D02*
Y105974D01*
X123274Y103574D02*
X124374D01*
X123274Y105974D02*
X124374D01*
X128269Y97949D02*
Y98899D01*
X127794Y98424D02*
X128744D01*
X127069Y98974D02*
X129469D01*
X127069Y97874D02*
X129469D01*
Y98974*
X127069Y97874D02*
Y98974D01*
X122808Y92234D02*
Y93184D01*
X122333Y92709D02*
X123283D01*
X121608Y92159D02*
X124008D01*
X121608Y93259D02*
X124008D01*
X121608Y92159D02*
Y93259D01*
X124008Y92159D02*
Y93259D01*
M02*