%FSLAX43Y43*%
%MOMM*%
%SFA1B1*%

%IPPOS*%
%ADD10R,2.539995X1.015998*%
%ADD11R,2.299995X2.299995*%
%ADD12R,0.799998X0.899998*%
%ADD13R,0.799998X0.349999*%
%ADD14R,0.449999X2.199996*%
%ADD15R,3.099994X2.399995*%
%ADD16R,0.899998X0.799998*%
%ADD17R,0.999998X1.299997*%
%ADD18R,3.682993X3.047994*%
%ADD19C,0.380999*%
%ADD20C,0.253999*%
%ADD21C,0.888998*%
%ADD22C,0.761998*%
%ADD23C,0.507999*%
%ADD24C,1.015998*%
%ADD25C,1.269997*%
%ADD26R,4.317991X2.920994*%
%ADD27R,4.698991X3.809992*%
%ADD28R,1.269997X1.269997*%
%ADD29R,1.171998X0.819998*%
%ADD30R,1.015998X1.015998*%
%ADD31R,1.142998X1.073998*%
%ADD32R,1.000998X1.073998*%
%ADD33R,1.142998X1.073998*%
%ADD34R,3.301993X2.158996*%
%ADD35R,3.936992X2.539995*%
%ADD36R,2.031996X2.031996*%
%ADD37R,2.023996X2.158996*%
%ADD38R,2.031996X2.158996*%
%ADD39R,2.256995X2.179996*%
%ADD40R,2.793994X2.793994*%
%ADD41R,10.286979X1.777996*%
%ADD42R,10.286979X1.650997*%
%ADD43R,0.634999X0.761998*%
%ADD44R,2.590995X1.777996*%
%ADD45R,1.574997X1.396997*%
%ADD46R,2.539995X1.015998*%
%ADD47R,1.472997X29.971940*%
%ADD48R,2.539995X1.777996*%
%ADD49R,1.523997X1.396997*%
%ADD50R,1.396997X29.971940*%
%ADD51R,7.111986X2.412995*%
%ADD52R,2.793994X6.730987*%
%ADD53R,1.015998X6.730987*%
%ADD54C,0.507999*%
%ADD55C,1.523997*%
%ADD56C,1.015998*%
%ADD57R,1.499997X1.499997*%
%ADD58C,1.499997*%
%ADD59R,1.499997X1.499997*%
%ADD60C,3.999992*%
%ADD61R,1.523997X1.523997*%
%ADD62R,1.999996X1.999996*%
%ADD63C,1.999996*%
%ADD64C,1.599997*%
%ADD65C,1.777996*%
%LNlp_led_cube_8x8x8-1*%
%LPD*%
G36*
X138676Y46107D02*
X25787D01*
Y119626*
X138676*
Y46107*
G37*
%LNlp_led_cube_8x8x8-2*%
%LPC*%
G36*
X109219Y76208D02*
X108954Y76173D01*
X108707Y76070*
X108494Y75908*
X108332Y75695*
X108229Y75448*
X108194Y75183*
X108229Y74918*
X108332Y74671*
X108494Y74458*
X108707Y74296*
X108954Y74193*
X109219Y74158*
X109484Y74193*
X109731Y74296*
X109944Y74458*
X110106Y74671*
X110158Y74795*
X112061*
X112196Y74704*
X112394Y74665*
X112592Y74704*
X112760Y74817*
X112873Y74985*
X112912Y75183*
X112873Y75381*
X112760Y75549*
X112592Y75662*
X112394Y75701*
X112196Y75662*
X112061Y75571*
X110158*
X110106Y75695*
X109944Y75908*
X109731Y76070*
X109484Y76173*
X109219Y76208*
G37*
G36*
X93979Y76221D02*
X93717Y76187D01*
X93473Y76085*
X93263Y75924*
X93102Y75715*
X93001Y75470*
X92966Y75208*
X93001Y74946*
X93102Y74702*
X93263Y74492*
X93473Y74331*
X93717Y74230*
X93979Y74196*
X94241Y74230*
X94485Y74331*
X94695Y74492*
X94856Y74702*
X94957Y74946*
X94992Y75208*
X94957Y75470*
X94856Y75715*
X94695Y75924*
X94485Y76085*
X94241Y76187*
X93979Y76221*
G37*
G36*
X36194Y76208D02*
X35929Y76173D01*
X35682Y76070*
X35469Y75908*
X35307Y75695*
X35255Y75571*
X32717*
X32582Y75662*
X32384Y75701*
X32186Y75662*
X32018Y75549*
X31905Y75381*
X31866Y75183*
X31905Y74985*
X32018Y74817*
X32186Y74704*
X32384Y74665*
X32582Y74704*
X32717Y74795*
X35255*
X35307Y74671*
X35469Y74458*
X35682Y74296*
X35929Y74193*
X36194Y74158*
X36459Y74193*
X36706Y74296*
X36919Y74458*
X37081Y74671*
X37184Y74918*
X37219Y75183*
X37184Y75448*
X37081Y75695*
X36919Y75908*
X36706Y76070*
X36459Y76173*
X36194Y76208*
G37*
G36*
X43814Y78748D02*
X43549Y78713D01*
X43302Y78610*
X43089Y78448*
X42927Y78235*
X42824Y77988*
X42789Y77723*
X42824Y77458*
X42927Y77211*
X43089Y76998*
X43302Y76836*
X43549Y76733*
X43814Y76698*
X44079Y76733*
X44326Y76836*
X44539Y76998*
X44701Y77211*
X44804Y77458*
X44839Y77723*
X44804Y77988*
X44701Y78235*
X44539Y78448*
X44326Y78610*
X44079Y78713*
X43814Y78748*
G37*
G36*
X76199Y76208D02*
X75934Y76173D01*
X75687Y76070*
X75474Y75908*
X75312Y75695*
X75260Y75571*
X72722*
X72587Y75662*
X72389Y75701*
X72191Y75662*
X72056Y75571*
X70153*
X70101Y75695*
X69939Y75908*
X69726Y76070*
X69479Y76173*
X69214Y76208*
X68949Y76173*
X68702Y76070*
X68489Y75908*
X68327Y75695*
X68224Y75448*
X68189Y75183*
X68224Y74918*
X68327Y74671*
X68489Y74458*
X68702Y74296*
X68949Y74193*
X69214Y74158*
X69479Y74193*
X69726Y74296*
X69939Y74458*
X70101Y74671*
X70153Y74795*
X72056*
X72191Y74704*
X72389Y74665*
X72587Y74704*
X72722Y74795*
X75260*
X75312Y74671*
X75474Y74458*
X75687Y74296*
X75934Y74193*
X76199Y74158*
X76464Y74193*
X76711Y74296*
X76924Y74458*
X77086Y74671*
X77189Y74918*
X77224Y75183*
X77189Y75448*
X77086Y75695*
X76924Y75908*
X76711Y76070*
X76464Y76173*
X76199Y76208*
G37*
G36*
X101599D02*
X101334Y76173D01*
X101087Y76070*
X100874Y75908*
X100712Y75695*
X100609Y75448*
X100574Y75183*
X100609Y74918*
X100712Y74671*
X100874Y74458*
X101087Y74296*
X101334Y74193*
X101599Y74158*
X101864Y74193*
X102111Y74296*
X102324Y74458*
X102486Y74671*
X102589Y74918*
X102624Y75183*
X102589Y75448*
X102486Y75695*
X102324Y75908*
X102111Y76070*
X101864Y76173*
X101599Y76208*
G37*
G36*
X83819D02*
X83554Y76173D01*
X83307Y76070*
X83094Y75908*
X82932Y75695*
X82829Y75448*
X82794Y75183*
X82829Y74918*
X82932Y74671*
X83094Y74458*
X83307Y74296*
X83554Y74193*
X83819Y74158*
X84084Y74193*
X84331Y74296*
X84544Y74458*
X84706Y74671*
X84809Y74918*
X84844Y75183*
X84809Y75448*
X84706Y75695*
X84544Y75908*
X84331Y76070*
X84084Y76173*
X83819Y76208*
G37*
G36*
X51434Y76221D02*
X51172Y76187D01*
X50928Y76085*
X50718Y75924*
X50557Y75715*
X50456Y75470*
X50421Y75208*
X50456Y74946*
X50557Y74702*
X50718Y74492*
X50928Y74331*
X51172Y74230*
X51434Y74196*
X51696Y74230*
X51940Y74331*
X52150Y74492*
X52311Y74702*
X52412Y74946*
X52447Y75208*
X52412Y75470*
X52311Y75715*
X52150Y75924*
X51940Y76085*
X51696Y76187*
X51434Y76221*
G37*
G36*
X91439D02*
X91177Y76187D01*
X90933Y76085*
X90723Y75924*
X90562Y75715*
X90461Y75470*
X90426Y75208*
X90461Y74946*
X90562Y74702*
X90723Y74492*
X90933Y74331*
X91177Y74230*
X91439Y74196*
X91701Y74230*
X91945Y74331*
X92155Y74492*
X92316Y74702*
X92417Y74946*
X92452Y75208*
X92417Y75470*
X92316Y75715*
X92155Y75924*
X91945Y76085*
X91701Y76187*
X91439Y76221*
G37*
G36*
X53974D02*
X53712Y76187D01*
X53468Y76085*
X53258Y75924*
X53097Y75715*
X52996Y75470*
X52961Y75208*
X52996Y74946*
X53097Y74702*
X53258Y74492*
X53468Y74331*
X53712Y74230*
X53974Y74196*
X54236Y74230*
X54480Y74331*
X54690Y74492*
X54851Y74702*
X54952Y74946*
X54987Y75208*
X54952Y75470*
X54851Y75715*
X54690Y75924*
X54480Y76085*
X54236Y76187*
X53974Y76221*
G37*
G36*
X93979Y78761D02*
X93717Y78727D01*
X93473Y78625*
X93263Y78464*
X93102Y78255*
X93001Y78010*
X92966Y77748*
X93001Y77486*
X93102Y77242*
X93263Y77032*
X93473Y76871*
X93717Y76770*
X93979Y76736*
X94241Y76770*
X94485Y76871*
X94695Y77032*
X94856Y77242*
X94957Y77486*
X94992Y77748*
X94957Y78010*
X94856Y78255*
X94695Y78464*
X94485Y78625*
X94241Y78727*
X93979Y78761*
G37*
G36*
X91439D02*
X91177Y78727D01*
X90933Y78625*
X90723Y78464*
X90562Y78255*
X90461Y78010*
X90426Y77748*
X90461Y77486*
X90562Y77242*
X90723Y77032*
X90933Y76871*
X91177Y76770*
X91439Y76736*
X91701Y76770*
X91945Y76871*
X92155Y77032*
X92316Y77242*
X92417Y77486*
X92452Y77748*
X92417Y78010*
X92316Y78255*
X92155Y78464*
X91945Y78625*
X91701Y78727*
X91439Y78761*
G37*
G36*
X109219Y78748D02*
X108954Y78713D01*
X108707Y78610*
X108494Y78448*
X108332Y78235*
X108229Y77988*
X108194Y77723*
X108229Y77458*
X108332Y77211*
X108494Y76998*
X108707Y76836*
X108954Y76733*
X109219Y76698*
X109484Y76733*
X109731Y76836*
X109944Y76998*
X110106Y77211*
X110158Y77335*
X111426*
X111561Y77244*
X111759Y77205*
X111957Y77244*
X112125Y77357*
X112238Y77525*
X112277Y77723*
X112238Y77921*
X112125Y78089*
X111957Y78202*
X111759Y78241*
X111561Y78202*
X111426Y78111*
X110158*
X110106Y78235*
X109944Y78448*
X109731Y78610*
X109484Y78713*
X109219Y78748*
G37*
G36*
X36194D02*
X35929Y78713D01*
X35682Y78610*
X35469Y78448*
X35307Y78235*
X35255Y78111*
X32082*
X31947Y78202*
X31749Y78241*
X31551Y78202*
X31383Y78089*
X31270Y77921*
X31231Y77723*
X31270Y77525*
X31383Y77357*
X31551Y77244*
X31749Y77205*
X31947Y77244*
X32082Y77335*
X35255*
X35307Y77211*
X35469Y76998*
X35682Y76836*
X35929Y76733*
X36194Y76698*
X36459Y76733*
X36706Y76836*
X36919Y76998*
X37081Y77211*
X37184Y77458*
X37219Y77723*
X37184Y77988*
X37081Y78235*
X36919Y78448*
X36706Y78610*
X36459Y78713*
X36194Y78748*
G37*
G36*
X124340Y78485D02*
X123813D01*
Y77908*
X124340*
Y78485*
G37*
G36*
X83819Y78748D02*
X83554Y78713D01*
X83307Y78610*
X83094Y78448*
X82932Y78235*
X82829Y77988*
X82794Y77723*
X82829Y77458*
X82932Y77211*
X83094Y76998*
X83307Y76836*
X83554Y76733*
X83819Y76698*
X84084Y76733*
X84331Y76836*
X84544Y76998*
X84706Y77211*
X84809Y77458*
X84844Y77723*
X84809Y77988*
X84706Y78235*
X84544Y78448*
X84331Y78610*
X84084Y78713*
X83819Y78748*
G37*
G36*
X61594D02*
X61329Y78713D01*
X61082Y78610*
X60869Y78448*
X60707Y78235*
X60604Y77988*
X60569Y77723*
X60604Y77458*
X60707Y77211*
X60869Y76998*
X61082Y76836*
X61329Y76733*
X61594Y76698*
X61859Y76733*
X62106Y76836*
X62319Y76998*
X62481Y77211*
X62584Y77458*
X62619Y77723*
X62584Y77988*
X62481Y78235*
X62319Y78448*
X62106Y78610*
X61859Y78713*
X61594Y78748*
G37*
G36*
X101599D02*
X101334Y78713D01*
X101087Y78610*
X100874Y78448*
X100712Y78235*
X100609Y77988*
X100574Y77723*
X100609Y77458*
X100712Y77211*
X100874Y76998*
X101087Y76836*
X101334Y76733*
X101599Y76698*
X101864Y76733*
X102111Y76836*
X102324Y76998*
X102486Y77211*
X102589Y77458*
X102624Y77723*
X102589Y77988*
X102486Y78235*
X102324Y78448*
X102111Y78610*
X101864Y78713*
X101599Y78748*
G37*
G36*
X53974Y78761D02*
X53712Y78727D01*
X53468Y78625*
X53258Y78464*
X53097Y78255*
X52996Y78010*
X52961Y77748*
X52996Y77486*
X53097Y77242*
X53258Y77032*
X53468Y76871*
X53712Y76770*
X53974Y76736*
X54236Y76770*
X54480Y76871*
X54690Y77032*
X54851Y77242*
X54952Y77486*
X54987Y77748*
X54952Y78010*
X54851Y78255*
X54690Y78464*
X54480Y78625*
X54236Y78727*
X53974Y78761*
G37*
G36*
X51434D02*
X51172Y78727D01*
X50928Y78625*
X50718Y78464*
X50557Y78255*
X50456Y78010*
X50421Y77748*
X50456Y77486*
X50557Y77242*
X50718Y77032*
X50928Y76871*
X51172Y76770*
X51434Y76736*
X51696Y76770*
X51940Y76871*
X52150Y77032*
X52311Y77242*
X52412Y77486*
X52447Y77748*
X52412Y78010*
X52311Y78255*
X52150Y78464*
X51940Y78625*
X51696Y78727*
X51434Y78761*
G37*
G36*
X61594Y73668D02*
X61329Y73633D01*
X61082Y73530*
X60869Y73368*
X60707Y73155*
X60604Y72908*
X60569Y72643*
X60604Y72378*
X60707Y72131*
X60869Y71918*
X61082Y71756*
X61329Y71653*
X61594Y71618*
X61859Y71653*
X62106Y71756*
X62319Y71918*
X62481Y72131*
X62584Y72378*
X62619Y72643*
X62584Y72908*
X62481Y73155*
X62319Y73368*
X62106Y73530*
X61859Y73633*
X61594Y73668*
G37*
G36*
X43814D02*
X43549Y73633D01*
X43302Y73530*
X43089Y73368*
X42927Y73155*
X42824Y72908*
X42789Y72643*
X42824Y72378*
X42927Y72131*
X43089Y71918*
X43302Y71756*
X43549Y71653*
X43814Y71618*
X44079Y71653*
X44326Y71756*
X44539Y71918*
X44701Y72131*
X44804Y72378*
X44839Y72643*
X44804Y72908*
X44701Y73155*
X44539Y73368*
X44326Y73530*
X44079Y73633*
X43814Y73668*
G37*
G36*
X83819D02*
X83554Y73633D01*
X83307Y73530*
X83094Y73368*
X82932Y73155*
X82829Y72908*
X82794Y72643*
X82829Y72378*
X82932Y72131*
X83094Y71918*
X83307Y71756*
X83554Y71653*
X83819Y71618*
X84084Y71653*
X84331Y71756*
X84544Y71918*
X84706Y72131*
X84809Y72378*
X84844Y72643*
X84809Y72908*
X84706Y73155*
X84544Y73368*
X84331Y73530*
X84084Y73633*
X83819Y73668*
G37*
G36*
X51434Y73681D02*
X51172Y73647D01*
X50928Y73545*
X50718Y73384*
X50557Y73175*
X50456Y72931*
X50421Y72668*
X50456Y72406*
X50557Y72162*
X50718Y71952*
X50928Y71791*
X51172Y71690*
X51434Y71656*
X51696Y71690*
X51940Y71791*
X52150Y71952*
X52311Y72162*
X52412Y72406*
X52447Y72668*
X52412Y72931*
X52311Y73175*
X52150Y73384*
X51940Y73545*
X51696Y73647*
X51434Y73681*
G37*
G36*
X101599Y73668D02*
X101334Y73633D01*
X101087Y73530*
X100874Y73368*
X100712Y73155*
X100609Y72908*
X100574Y72643*
X100609Y72378*
X100712Y72131*
X100874Y71918*
X101087Y71756*
X101334Y71653*
X101599Y71618*
X101864Y71653*
X102111Y71756*
X102324Y71918*
X102486Y72131*
X102589Y72378*
X102624Y72643*
X102589Y72908*
X102486Y73155*
X102324Y73368*
X102111Y73530*
X101864Y73633*
X101599Y73668*
G37*
G36*
X124340Y70992D02*
X123813D01*
Y70415*
X124340*
Y70992*
G37*
G36*
X109219Y71128D02*
X108954Y71093D01*
X108707Y70990*
X108494Y70828*
X108332Y70615*
X108229Y70368*
X108194Y70103*
X108229Y69838*
X108332Y69591*
X108494Y69378*
X108707Y69216*
X108954Y69113*
X109219Y69078*
X109484Y69113*
X109731Y69216*
X109944Y69378*
X110106Y69591*
X110158Y69715*
X113331*
X113466Y69624*
X113664Y69585*
X113862Y69624*
X114030Y69737*
X114143Y69905*
X114182Y70103*
X114143Y70301*
X114030Y70469*
X113862Y70582*
X113664Y70621*
X113466Y70582*
X113331Y70491*
X110158*
X110106Y70615*
X109944Y70828*
X109731Y70990*
X109484Y71093*
X109219Y71128*
G37*
G36*
X36194D02*
X35929Y71093D01*
X35682Y70990*
X35469Y70828*
X35307Y70615*
X35255Y70491*
X33987*
X33852Y70582*
X33654Y70621*
X33456Y70582*
X33288Y70469*
X33175Y70301*
X33136Y70103*
X33175Y69905*
X33288Y69737*
X33456Y69624*
X33654Y69585*
X33852Y69624*
X33987Y69715*
X35255*
X35307Y69591*
X35469Y69378*
X35682Y69216*
X35929Y69113*
X36194Y69078*
X36459Y69113*
X36706Y69216*
X36919Y69378*
X37081Y69591*
X37184Y69838*
X37219Y70103*
X37184Y70368*
X37081Y70615*
X36919Y70828*
X36706Y70990*
X36459Y71093*
X36194Y71128*
G37*
G36*
X124340Y71823D02*
X123813D01*
Y71246*
X124340*
Y71823*
G37*
G36*
X76199Y71128D02*
X75934Y71093D01*
X75687Y70990*
X75474Y70828*
X75312Y70615*
X75260Y70491*
X73992*
X73857Y70582*
X73659Y70621*
X73461Y70582*
X73326Y70491*
X70153*
X70101Y70615*
X69939Y70828*
X69726Y70990*
X69479Y71093*
X69214Y71128*
X68949Y71093*
X68702Y70990*
X68489Y70828*
X68327Y70615*
X68224Y70368*
X68189Y70103*
X68224Y69838*
X68327Y69591*
X68489Y69378*
X68702Y69216*
X68949Y69113*
X69214Y69078*
X69479Y69113*
X69726Y69216*
X69939Y69378*
X70101Y69591*
X70153Y69715*
X73326*
X73461Y69624*
X73659Y69585*
X73857Y69624*
X73992Y69715*
X75260*
X75312Y69591*
X75474Y69378*
X75687Y69216*
X75934Y69113*
X76199Y69078*
X76464Y69113*
X76711Y69216*
X76924Y69378*
X77086Y69591*
X77189Y69838*
X77224Y70103*
X77189Y70368*
X77086Y70615*
X76924Y70828*
X76711Y70990*
X76464Y71093*
X76199Y71128*
G37*
G36*
X36194Y73668D02*
X35929Y73633D01*
X35682Y73530*
X35469Y73368*
X35307Y73155*
X35255Y73031*
X33352*
X33217Y73122*
X33019Y73161*
X32821Y73122*
X32653Y73009*
X32540Y72841*
X32501Y72643*
X32540Y72445*
X32653Y72277*
X32821Y72164*
X33019Y72125*
X33217Y72164*
X33352Y72255*
X35255*
X35307Y72131*
X35469Y71918*
X35682Y71756*
X35929Y71653*
X36194Y71618*
X36459Y71653*
X36706Y71756*
X36919Y71918*
X37081Y72131*
X37184Y72378*
X37219Y72643*
X37184Y72908*
X37081Y73155*
X36919Y73368*
X36706Y73530*
X36459Y73633*
X36194Y73668*
G37*
G36*
X121157Y72882D02*
Y72516D01*
X121523*
X121509Y72587*
X121396Y72755*
X121228Y72868*
X121157Y72882*
G37*
G36*
X76199Y73668D02*
X75934Y73633D01*
X75687Y73530*
X75474Y73368*
X75312Y73155*
X75260Y73031*
X73357*
X73222Y73122*
X73024Y73161*
X72826Y73122*
X72691Y73031*
X70153*
X70101Y73155*
X69939Y73368*
X69726Y73530*
X69479Y73633*
X69214Y73668*
X68949Y73633*
X68702Y73530*
X68489Y73368*
X68327Y73155*
X68224Y72908*
X68189Y72643*
X68224Y72378*
X68327Y72131*
X68489Y71918*
X68702Y71756*
X68949Y71653*
X69214Y71618*
X69479Y71653*
X69726Y71756*
X69939Y71918*
X70101Y72131*
X70153Y72255*
X72691*
X72826Y72164*
X73024Y72125*
X73222Y72164*
X73357Y72255*
X75260*
X75312Y72131*
X75474Y71918*
X75687Y71756*
X75934Y71653*
X76199Y71618*
X76464Y71653*
X76711Y71756*
X76924Y71918*
X77086Y72131*
X77189Y72378*
X77224Y72643*
X77189Y72908*
X77086Y73155*
X76924Y73368*
X76711Y73530*
X76464Y73633*
X76199Y73668*
G37*
G36*
X61594Y76208D02*
X61329Y76173D01*
X61082Y76070*
X60869Y75908*
X60707Y75695*
X60604Y75448*
X60569Y75183*
X60604Y74918*
X60707Y74671*
X60869Y74458*
X61082Y74296*
X61329Y74193*
X61594Y74158*
X61859Y74193*
X62106Y74296*
X62319Y74458*
X62481Y74671*
X62584Y74918*
X62619Y75183*
X62584Y75448*
X62481Y75695*
X62319Y75908*
X62106Y76070*
X61859Y76173*
X61594Y76208*
G37*
G36*
X43814D02*
X43549Y76173D01*
X43302Y76070*
X43089Y75908*
X42927Y75695*
X42824Y75448*
X42789Y75183*
X42824Y74918*
X42927Y74671*
X43089Y74458*
X43302Y74296*
X43549Y74193*
X43814Y74158*
X44079Y74193*
X44326Y74296*
X44539Y74458*
X44701Y74671*
X44804Y74918*
X44839Y75183*
X44804Y75448*
X44701Y75695*
X44539Y75908*
X44326Y76070*
X44079Y76173*
X43814Y76208*
G37*
G36*
X91439Y73681D02*
X91177Y73647D01*
X90933Y73545*
X90723Y73384*
X90562Y73175*
X90461Y72931*
X90426Y72668*
X90461Y72406*
X90562Y72162*
X90723Y71952*
X90933Y71791*
X91177Y71690*
X91439Y71656*
X91701Y71690*
X91945Y71791*
X92155Y71952*
X92316Y72162*
X92417Y72406*
X92452Y72668*
X92417Y72931*
X92316Y73175*
X92155Y73384*
X91945Y73545*
X91701Y73647*
X91439Y73681*
G37*
G36*
X53974D02*
X53712Y73647D01*
X53468Y73545*
X53258Y73384*
X53097Y73175*
X52996Y72931*
X52961Y72668*
X52996Y72406*
X53097Y72162*
X53258Y71952*
X53468Y71791*
X53712Y71690*
X53974Y71656*
X54236Y71690*
X54480Y71791*
X54690Y71952*
X54851Y72162*
X54952Y72406*
X54987Y72668*
X54952Y72931*
X54851Y73175*
X54690Y73384*
X54480Y73545*
X54236Y73647*
X53974Y73681*
G37*
G36*
X93979D02*
X93717Y73647D01*
X93473Y73545*
X93263Y73384*
X93102Y73175*
X93001Y72931*
X92966Y72668*
X93001Y72406*
X93102Y72162*
X93263Y71952*
X93473Y71791*
X93717Y71690*
X93979Y71656*
X94241Y71690*
X94485Y71791*
X94695Y71952*
X94856Y72162*
X94957Y72406*
X94992Y72668*
X94957Y72931*
X94856Y73175*
X94695Y73384*
X94485Y73545*
X94241Y73647*
X93979Y73681*
G37*
G36*
X120903Y72882D02*
X120832Y72868D01*
X120664Y72755*
X120551Y72587*
X120537Y72516*
X120903*
Y72882*
G37*
G36*
X109219Y73668D02*
X108954Y73633D01*
X108707Y73530*
X108494Y73368*
X108332Y73155*
X108229Y72908*
X108194Y72643*
X108229Y72378*
X108332Y72131*
X108494Y71918*
X108707Y71756*
X108954Y71653*
X109219Y71618*
X109484Y71653*
X109731Y71756*
X109944Y71918*
X110106Y72131*
X110158Y72255*
X112696*
X112831Y72164*
X113029Y72125*
X113227Y72164*
X113395Y72277*
X113508Y72445*
X113547Y72643*
X113508Y72841*
X113395Y73009*
X113227Y73122*
X113029Y73161*
X112831Y73122*
X112696Y73031*
X110158*
X110106Y73155*
X109944Y73368*
X109731Y73530*
X109484Y73633*
X109219Y73668*
G37*
G36*
X76072Y85216D02*
X75183D01*
Y84327*
X76072*
Y85216*
G37*
G36*
X37210D02*
X36321D01*
Y84327*
X37210*
Y85216*
G37*
G36*
X77215D02*
X76326D01*
Y84327*
X77215*
Y85216*
G37*
G36*
X70222D02*
X69341D01*
Y84335*
X69479Y84353*
X69726Y84456*
X69939Y84618*
X70101Y84831*
X70204Y85078*
X70222Y85216*
G37*
G36*
X69087D02*
X68206D01*
X68224Y85078*
X68327Y84831*
X68489Y84618*
X68702Y84456*
X68949Y84353*
X69087Y84335*
Y85216*
G37*
G36*
X109219Y83828D02*
X108954Y83793D01*
X108707Y83690*
X108494Y83528*
X108332Y83315*
X108229Y83068*
X108194Y82803*
X108229Y82538*
X108332Y82291*
X108494Y82078*
X108707Y81916*
X108954Y81813*
X109219Y81778*
X109484Y81813*
X109731Y81916*
X109944Y82078*
X110106Y82291*
X110119Y82321*
X110241Y82358*
X110291Y82324*
X110489Y82285*
X110687Y82324*
X110855Y82437*
X110968Y82605*
X111007Y82803*
X110968Y83001*
X110855Y83169*
X110687Y83282*
X110489Y83321*
X110291Y83282*
X110241Y83248*
X110119Y83285*
X110106Y83315*
X109944Y83528*
X109731Y83690*
X109484Y83793*
X109219Y83828*
G37*
G36*
X92443Y83832D02*
X90435D01*
Y81824*
X92443*
Y83832*
G37*
G36*
X36194Y83828D02*
X35929Y83793D01*
X35682Y83690*
X35469Y83528*
X35307Y83315*
X35255Y83191*
X30812*
X30677Y83282*
X30479Y83321*
X30281Y83282*
X30113Y83169*
X30000Y83001*
X29961Y82803*
X30000Y82605*
X30113Y82437*
X30281Y82324*
X30479Y82285*
X30677Y82324*
X30812Y82415*
X35255*
X35307Y82291*
X35469Y82078*
X35682Y81916*
X35929Y81813*
X36194Y81778*
X36459Y81813*
X36706Y81916*
X36919Y82078*
X37081Y82291*
X37184Y82538*
X37219Y82803*
X37184Y83068*
X37081Y83315*
X36919Y83528*
X36706Y83690*
X36459Y83793*
X36194Y83828*
G37*
G36*
X36067Y85216D02*
X35178D01*
Y84327*
X36067*
Y85216*
G37*
G36*
X76199Y83828D02*
X75934Y83793D01*
X75687Y83690*
X75474Y83528*
X75312Y83315*
X75260Y83191*
X70817*
X70682Y83282*
X70484Y83321*
X70286Y83282*
X70236Y83248*
X70114Y83285*
X70101Y83315*
X69939Y83528*
X69726Y83690*
X69479Y83793*
X69214Y83828*
X68949Y83793*
X68702Y83690*
X68489Y83528*
X68327Y83315*
X68224Y83068*
X68189Y82803*
X68224Y82538*
X68327Y82291*
X68489Y82078*
X68702Y81916*
X68949Y81813*
X69214Y81778*
X69479Y81813*
X69726Y81916*
X69939Y82078*
X70101Y82291*
X70114Y82321*
X70236Y82358*
X70286Y82324*
X70484Y82285*
X70682Y82324*
X70817Y82415*
X75260*
X75312Y82291*
X75474Y82078*
X75687Y81916*
X75934Y81813*
X76199Y81778*
X76464Y81813*
X76711Y81916*
X76924Y82078*
X77086Y82291*
X77189Y82538*
X77224Y82803*
X77189Y83068*
X77086Y83315*
X76924Y83528*
X76711Y83690*
X76464Y83793*
X76199Y83828*
G37*
G36*
X37210Y86359D02*
X36321D01*
Y85470*
X37210*
Y86359*
G37*
G36*
X36067D02*
X35178D01*
Y85470*
X36067*
Y86359*
G37*
G36*
X69087Y86351D02*
X68949Y86333D01*
X68702Y86230*
X68489Y86068*
X68327Y85855*
X68224Y85608*
X68206Y85470*
X69087*
Y86351*
G37*
G36*
X76072Y86359D02*
X75183D01*
Y85470*
X76072*
Y86359*
G37*
G36*
X69341Y86351D02*
Y85470D01*
X70222*
X70204Y85608*
X70101Y85855*
X69939Y86068*
X69726Y86230*
X69479Y86333*
X69341Y86351*
G37*
G36*
X110227Y85216D02*
X109346D01*
Y84335*
X109484Y84353*
X109731Y84456*
X109944Y84618*
X110106Y84831*
X110209Y85078*
X110227Y85216*
G37*
G36*
X109092D02*
X108211D01*
X108229Y85078*
X108332Y84831*
X108494Y84618*
X108707Y84456*
X108954Y84353*
X109092Y84335*
Y85216*
G37*
G36*
X137794Y89920D02*
X124764D01*
X124665Y89900*
X124581Y89844*
X124525Y89760*
X124505Y89661*
Y83776*
X124378Y83764*
X124353Y83890*
X124241Y84058*
X124073Y84171*
X123875Y84210*
X123687Y84173*
X123661Y84194*
X123589Y84302*
Y85061*
X122530*
X122481Y85178*
X122560Y85257*
X122602Y85320*
X122645Y85383*
X122648Y85401*
X122940*
X123032*
X123559*
Y86105*
Y86809*
X123032*
X122940*
X121146*
Y86105*
X120892*
Y86809*
X120365*
X120273*
X118965*
Y85401*
X119230*
Y84205*
X118490*
X118391Y84185*
X118307Y84129*
X118251Y84045*
X118231Y83946*
Y82168*
Y80771*
X118251Y80672*
X118307Y80588*
X118391Y80532*
X118490Y80512*
X120065*
X120164Y80532*
X120229Y80575*
X120273*
X120365*
X122940*
X123032*
X124340*
Y81909*
X124505*
Y76283*
X124378Y76271*
X124353Y76397*
X124241Y76565*
X124073Y76678*
X123875Y76717*
X123687Y76680*
X123661Y76701*
X123589Y76809*
Y77568*
X122530*
X122481Y77685*
X122560Y77764*
X122602Y77827*
X122645Y77890*
X122648Y77908*
X122940*
X123032*
X123559*
Y78612*
Y79316*
X123032*
X122940*
X121146*
Y78612*
X120892*
Y79316*
X120365*
X120273*
X118965*
Y77908*
X119230*
Y76712*
X118490*
X118391Y76692*
X118307Y76636*
X118251Y76552*
X118231Y76453*
Y74675*
Y74015*
X116087Y71871*
X115975Y71725*
X115946Y71655*
X115904Y71555*
X115880Y71373*
Y52221*
X115904Y52039*
X115946Y51940*
X115975Y51869*
X116087Y51723*
X117632Y50178*
X117630Y50164*
X117664Y49902*
X117765Y49658*
X117926Y49448*
X118136Y49287*
X118380Y49186*
X118642Y49151*
X118905Y49186*
X119149Y49287*
X119358Y49448*
X119519Y49658*
X119621Y49902*
X119655Y50164*
X119621Y50426*
X119519Y50670*
X119358Y50880*
X119149Y51041*
X118905Y51142*
X118642Y51177*
X118628Y51175*
X118093Y51710*
X118163Y51816*
X118380Y51726*
X118642Y51691*
X118905Y51726*
X119149Y51827*
X119358Y51988*
X119519Y52198*
X119621Y52442*
X119655Y52704*
X119621Y52966*
X119519Y53210*
X119358Y53420*
X119322Y53448*
Y53936*
X121830Y56444*
X124989*
X125004Y56424*
X125217Y56262*
X125464Y56159*
X125729Y56124*
X125994Y56159*
X126241Y56262*
X126454Y56424*
X126616Y56637*
X126719Y56884*
X126754Y57149*
X126719Y57414*
X126616Y57661*
X126454Y57874*
X126241Y58036*
X125994Y58139*
X125729Y58174*
X125464Y58139*
X125217Y58036*
X125004Y57874*
X124989Y57854*
X121538*
X121356Y57830*
X121186Y57759*
X121040Y57647*
X118119Y54726*
X118007Y54580*
X117978Y54510*
X117936Y54410*
X117912Y54228*
Y53402*
X117765Y53210*
X117664Y52966*
X117630Y52704*
X117664Y52442*
X117754Y52225*
X117649Y52154*
X117290Y52513*
Y71081*
X119227Y73019*
X120065*
X120164Y73039*
X120229Y73082*
X120273*
X120365*
X122940*
X123032*
X124340*
Y74416*
X124505*
Y68790*
X124378Y68778*
X124353Y68904*
X124241Y69072*
X124073Y69185*
X123875Y69224*
X123687Y69187*
X123661Y69208*
X123589Y69316*
Y70075*
X122530*
X122481Y70192*
X122560Y70271*
X122602Y70334*
X122645Y70397*
X122648Y70415*
X122940*
X123032*
X123559*
Y71119*
Y71823*
X123032*
X122940*
X121316*
X121279Y71945*
X121396Y72023*
X121509Y72191*
X121523Y72262*
X120537*
X120551Y72191*
X120664Y72023*
X120781Y71945*
X120744Y71823*
X120365*
X120273*
X118965*
Y70415*
X119230*
Y69219*
X118490*
X118391Y69199*
X118307Y69143*
X118251Y69059*
X118231Y68960*
Y67182*
Y65785*
X118251Y65686*
X118307Y65602*
X118391Y65546*
X118490Y65526*
X120065*
X120164Y65546*
X120229Y65589*
X120273*
X120365*
X122940*
X123032*
X124340*
Y66923*
X124505*
Y61297*
X124378Y61285*
X124353Y61411*
X124241Y61579*
X124073Y61692*
X123875Y61731*
X123687Y61694*
X123661Y61715*
X123589Y61823*
Y62582*
X122530*
X122481Y62699*
X122560Y62778*
X122602Y62841*
X122645Y62904*
X122648Y62922*
X122940*
X123032*
X123559*
Y63626*
Y64330*
X123032*
X122940*
X121146*
Y63626*
X120892*
Y64330*
X120365*
X120273*
X118965*
Y62922*
X119230*
Y61726*
X118490*
X118391Y61706*
X118307Y61650*
X118251Y61566*
X118231Y61467*
Y59689*
Y58292*
X118251Y58193*
X118307Y58109*
X118391Y58053*
X118490Y58033*
X120065*
X120164Y58053*
X120229Y58096*
X120273*
X120365*
X122940*
X123032*
X124340*
Y59430*
X126237*
X126336Y59450*
X126420Y59506*
X126476Y59590*
X126496Y59689*
Y86354*
X129285*
X129384Y86374*
X129468Y86430*
X129524Y86514*
X129544Y86613*
Y87751*
X132630*
Y87743*
X132798*
Y87751*
X136138*
Y83776*
X136012Y83764*
X135987Y83890*
X135874Y84058*
X135706Y84171*
X135508Y84210*
X135320Y84173*
X135294Y84194*
X135222Y84302*
Y85061*
X134163*
X134114Y85178*
X134194Y85257*
X134236Y85320*
X134278Y85383*
X134281Y85401*
X134573*
X134665*
X135192*
Y86105*
Y86809*
X134665*
X134573*
X133251*
X133191Y86921*
X133193Y86923*
X133207Y86994*
X132221*
X132235Y86923*
X132237Y86921*
X132177Y86809*
X131998*
X131906*
X130598*
Y85401*
X130864*
Y84205*
X130174*
X130075Y84185*
X129991Y84129*
X129935Y84045*
X129915Y83946*
Y82168*
Y81508*
X127263Y78856*
X127151Y78710*
X127122Y78640*
X127080Y78540*
X127056Y78358*
Y56806*
X126072Y55822*
X124967*
X124785Y55798*
X124615Y55727*
X124469Y55615*
X123224Y54371*
X123112Y54225*
X123083Y54154*
X123042Y54055*
X123018Y53872*
Y53429*
X123006Y53420*
X122845Y53210*
X122744Y52966*
X122710Y52704*
X122744Y52442*
X122845Y52198*
X123006Y51988*
X123216Y51827*
X123460Y51726*
X123722Y51691*
X123984Y51726*
X124229Y51827*
X124438Y51988*
X124599Y52198*
X124701Y52442*
X124735Y52704*
X124701Y52966*
X124599Y53210*
X124438Y53420*
X124427Y53429*
Y53581*
X125259Y54412*
X126364*
X126546Y54436*
X126646Y54478*
X126716Y54507*
X126862Y54619*
X128259Y56016*
X128371Y56162*
X128442Y56332*
X128454Y56424*
X128580Y56416*
Y49948*
X127850Y49218*
X126876*
X126835Y49338*
X126978Y49448*
X127139Y49658*
X127241Y49902*
X127275Y50164*
X127241Y50426*
X127139Y50670*
X126978Y50880*
X126769Y51041*
X126524Y51142*
X126262Y51177*
X126000Y51142*
X125756Y51041*
X125546Y50880*
X125385Y50670*
X125284Y50426*
X125250Y50164*
X125284Y49902*
X125374Y49685*
X125269Y49614*
X124733Y50150*
X124735Y50164*
X124701Y50426*
X124599Y50670*
X124438Y50880*
X124229Y51041*
X123984Y51142*
X123722Y51177*
X123460Y51142*
X123216Y51041*
X123006Y50880*
X122845Y50670*
X122744Y50426*
X122710Y50164*
X122744Y49902*
X122845Y49658*
X123006Y49448*
X123216Y49287*
X123460Y49186*
X123722Y49151*
X123737Y49153*
X124875Y48015*
X125021Y47903*
X125191Y47832*
X125373Y47808*
X128142*
X128324Y47832*
X128424Y47874*
X128494Y47903*
X128640Y48015*
X129783Y49158*
X129895Y49304*
X129924Y49374*
X129966Y49474*
X129990Y49656*
Y57925*
X130056Y58024*
X130088Y58050*
X130174Y58033*
X131698*
X131797Y58053*
X131862Y58096*
X131906*
X131998*
X134573*
X134665*
X135973*
Y59430*
X137794*
X137893Y59450*
X137977Y59506*
X138033Y59590*
X138053Y59689*
Y89661*
X138033Y89760*
X137977Y89844*
X137893Y89900*
X137794Y89920*
G37*
G36*
X135973Y85978D02*
X135446D01*
Y85401*
X135973*
Y85978*
G37*
G36*
X124340D02*
X123813D01*
Y85401*
X124340*
Y85978*
G37*
G36*
X51434Y81301D02*
X51172Y81267D01*
X50928Y81165*
X50718Y81004*
X50557Y80795*
X50456Y80550*
X50421Y80288*
X50456Y80026*
X50557Y79782*
X50718Y79572*
X50928Y79411*
X51172Y79310*
X51434Y79276*
X51696Y79310*
X51940Y79411*
X52150Y79572*
X52311Y79782*
X52412Y80026*
X52447Y80288*
X52412Y80550*
X52311Y80795*
X52150Y81004*
X51940Y81165*
X51696Y81267*
X51434Y81301*
G37*
G36*
X101599Y81288D02*
X101334Y81253D01*
X101087Y81150*
X100874Y80988*
X100712Y80775*
X100609Y80528*
X100574Y80263*
X100609Y79998*
X100712Y79751*
X100874Y79538*
X101087Y79376*
X101334Y79273*
X101599Y79238*
X101864Y79273*
X102111Y79376*
X102324Y79538*
X102486Y79751*
X102589Y79998*
X102624Y80263*
X102589Y80528*
X102486Y80775*
X102324Y80988*
X102111Y81150*
X101864Y81253*
X101599Y81288*
G37*
G36*
X53974Y81301D02*
X53712Y81267D01*
X53468Y81165*
X53258Y81004*
X53097Y80795*
X52996Y80550*
X52961Y80288*
X52996Y80026*
X53097Y79782*
X53258Y79572*
X53468Y79411*
X53712Y79310*
X53974Y79276*
X54236Y79310*
X54480Y79411*
X54690Y79572*
X54851Y79782*
X54952Y80026*
X54987Y80288*
X54952Y80550*
X54851Y80795*
X54690Y81004*
X54480Y81165*
X54236Y81267*
X53974Y81301*
G37*
G36*
X93979D02*
X93717Y81267D01*
X93473Y81165*
X93263Y81004*
X93102Y80795*
X93001Y80550*
X92966Y80288*
X93001Y80026*
X93102Y79782*
X93263Y79572*
X93473Y79411*
X93717Y79310*
X93979Y79276*
X94241Y79310*
X94485Y79411*
X94695Y79572*
X94856Y79782*
X94957Y80026*
X94992Y80288*
X94957Y80550*
X94856Y80795*
X94695Y81004*
X94485Y81165*
X94241Y81267*
X93979Y81301*
G37*
G36*
X91439D02*
X91177Y81267D01*
X90933Y81165*
X90723Y81004*
X90562Y80795*
X90461Y80550*
X90426Y80288*
X90461Y80026*
X90562Y79782*
X90723Y79572*
X90933Y79411*
X91177Y79310*
X91439Y79276*
X91701Y79310*
X91945Y79411*
X92155Y79572*
X92316Y79782*
X92417Y80026*
X92452Y80288*
X92417Y80550*
X92316Y80795*
X92155Y81004*
X91945Y81165*
X91701Y81267*
X91439Y81301*
G37*
G36*
X124340Y79316D02*
X123813D01*
Y78739*
X124340*
Y79316*
G37*
G36*
X76199Y78748D02*
X75934Y78713D01*
X75687Y78610*
X75474Y78448*
X75312Y78235*
X75260Y78111*
X72087*
X71952Y78202*
X71754Y78241*
X71556Y78202*
X71421Y78111*
X70153*
X70101Y78235*
X69939Y78448*
X69726Y78610*
X69479Y78713*
X69214Y78748*
X68949Y78713*
X68702Y78610*
X68489Y78448*
X68327Y78235*
X68224Y77988*
X68189Y77723*
X68224Y77458*
X68327Y77211*
X68489Y76998*
X68702Y76836*
X68949Y76733*
X69214Y76698*
X69479Y76733*
X69726Y76836*
X69939Y76998*
X70101Y77211*
X70153Y77335*
X71421*
X71556Y77244*
X71754Y77205*
X71952Y77244*
X72087Y77335*
X75260*
X75312Y77211*
X75474Y76998*
X75687Y76836*
X75934Y76733*
X76199Y76698*
X76464Y76733*
X76711Y76836*
X76924Y76998*
X77086Y77211*
X77189Y77458*
X77224Y77723*
X77189Y77988*
X77086Y78235*
X76924Y78448*
X76711Y78610*
X76464Y78713*
X76199Y78748*
G37*
G36*
X43814Y81288D02*
X43549Y81253D01*
X43302Y81150*
X43089Y80988*
X42927Y80775*
X42824Y80528*
X42789Y80263*
X42824Y79998*
X42927Y79751*
X43089Y79538*
X43302Y79376*
X43549Y79273*
X43814Y79238*
X44079Y79273*
X44326Y79376*
X44539Y79538*
X44701Y79751*
X44804Y79998*
X44839Y80263*
X44804Y80528*
X44701Y80775*
X44539Y80988*
X44326Y81150*
X44079Y81253*
X43814Y81288*
G37*
G36*
X83819D02*
X83554Y81253D01*
X83307Y81150*
X83094Y80988*
X82932Y80775*
X82829Y80528*
X82794Y80263*
X82829Y79998*
X82932Y79751*
X83094Y79538*
X83307Y79376*
X83554Y79273*
X83819Y79238*
X84084Y79273*
X84331Y79376*
X84544Y79538*
X84706Y79751*
X84809Y79998*
X84844Y80263*
X84809Y80528*
X84706Y80775*
X84544Y80988*
X84331Y81150*
X84084Y81253*
X83819Y81288*
G37*
G36*
X61594D02*
X61329Y81253D01*
X61082Y81150*
X60869Y80988*
X60707Y80775*
X60604Y80528*
X60569Y80263*
X60604Y79998*
X60707Y79751*
X60869Y79538*
X61082Y79376*
X61329Y79273*
X61594Y79238*
X61859Y79273*
X62106Y79376*
X62319Y79538*
X62481Y79751*
X62584Y79998*
X62619Y80263*
X62584Y80528*
X62481Y80775*
X62319Y80988*
X62106Y81150*
X61859Y81253*
X61594Y81288*
G37*
G36*
X101599Y83828D02*
X101334Y83793D01*
X101087Y83690*
X100874Y83528*
X100712Y83315*
X100609Y83068*
X100574Y82803*
X100609Y82538*
X100712Y82291*
X100874Y82078*
X101087Y81916*
X101334Y81813*
X101599Y81778*
X101864Y81813*
X102111Y81916*
X102324Y82078*
X102486Y82291*
X102589Y82538*
X102624Y82803*
X102589Y83068*
X102486Y83315*
X102324Y83528*
X102111Y83690*
X101864Y83793*
X101599Y83828*
G37*
G36*
X83819D02*
X83554Y83793D01*
X83307Y83690*
X83094Y83528*
X82932Y83315*
X82829Y83068*
X82794Y82803*
X82829Y82538*
X82932Y82291*
X83094Y82078*
X83307Y81916*
X83554Y81813*
X83819Y81778*
X84084Y81813*
X84331Y81916*
X84544Y82078*
X84706Y82291*
X84809Y82538*
X84844Y82803*
X84809Y83068*
X84706Y83315*
X84544Y83528*
X84331Y83690*
X84084Y83793*
X83819Y83828*
G37*
G36*
X53974Y83841D02*
X53712Y83807D01*
X53468Y83705*
X53258Y83544*
X53097Y83335*
X52996Y83090*
X52961Y82828*
X52996Y82566*
X53097Y82322*
X53258Y82112*
X53468Y81951*
X53712Y81850*
X53974Y81816*
X54236Y81850*
X54480Y81951*
X54690Y82112*
X54851Y82322*
X54952Y82566*
X54987Y82828*
X54952Y83090*
X54851Y83335*
X54690Y83544*
X54480Y83705*
X54236Y83807*
X53974Y83841*
G37*
G36*
X52438Y83832D02*
X50430D01*
Y81824*
X52438*
Y83832*
G37*
G36*
X93979Y83841D02*
X93717Y83807D01*
X93473Y83705*
X93263Y83544*
X93102Y83335*
X93001Y83090*
X92966Y82828*
X93001Y82566*
X93102Y82322*
X93263Y82112*
X93473Y81951*
X93717Y81850*
X93979Y81816*
X94241Y81850*
X94485Y81951*
X94695Y82112*
X94856Y82322*
X94957Y82566*
X94992Y82828*
X94957Y83090*
X94856Y83335*
X94695Y83544*
X94485Y83705*
X94241Y83807*
X93979Y83841*
G37*
G36*
X36194Y81288D02*
X35929Y81253D01*
X35682Y81150*
X35469Y80988*
X35307Y80775*
X35255Y80651*
X31447*
X31312Y80742*
X31114Y80781*
X30916Y80742*
X30748Y80629*
X30635Y80461*
X30596Y80263*
X30635Y80065*
X30748Y79897*
X30916Y79784*
X31114Y79745*
X31312Y79784*
X31447Y79875*
X35255*
X35307Y79751*
X35469Y79538*
X35682Y79376*
X35929Y79273*
X36194Y79238*
X36459Y79273*
X36706Y79376*
X36919Y79538*
X37081Y79751*
X37184Y79998*
X37219Y80263*
X37184Y80528*
X37081Y80775*
X36919Y80988*
X36706Y81150*
X36459Y81253*
X36194Y81288*
G37*
G36*
X109219D02*
X108954Y81253D01*
X108707Y81150*
X108494Y80988*
X108332Y80775*
X108229Y80528*
X108194Y80263*
X108229Y79998*
X108332Y79751*
X108494Y79538*
X108707Y79376*
X108954Y79273*
X109219Y79238*
X109484Y79273*
X109731Y79376*
X109944Y79538*
X110106Y79751*
X110158Y79875*
X110791*
X110926Y79784*
X111124Y79745*
X111322Y79784*
X111490Y79897*
X111603Y80065*
X111642Y80263*
X111603Y80461*
X111490Y80629*
X111322Y80742*
X111124Y80781*
X110926Y80742*
X110791Y80651*
X110158*
X110106Y80775*
X109944Y80988*
X109731Y81150*
X109484Y81253*
X109219Y81288*
G37*
G36*
X76199D02*
X75934Y81253D01*
X75687Y81150*
X75474Y80988*
X75312Y80775*
X75260Y80651*
X71452*
X71317Y80742*
X71119Y80781*
X70921Y80742*
X70786Y80651*
X70153*
X70101Y80775*
X69939Y80988*
X69726Y81150*
X69479Y81253*
X69214Y81288*
X68949Y81253*
X68702Y81150*
X68489Y80988*
X68327Y80775*
X68224Y80528*
X68189Y80263*
X68224Y79998*
X68327Y79751*
X68489Y79538*
X68702Y79376*
X68949Y79273*
X69214Y79238*
X69479Y79273*
X69726Y79376*
X69939Y79538*
X70101Y79751*
X70153Y79875*
X70786*
X70921Y79784*
X71119Y79745*
X71317Y79784*
X71452Y79875*
X75260*
X75312Y79751*
X75474Y79538*
X75687Y79376*
X75934Y79273*
X76199Y79238*
X76464Y79273*
X76711Y79376*
X76924Y79538*
X77086Y79751*
X77189Y79998*
X77224Y80263*
X77189Y80528*
X77086Y80775*
X76924Y80988*
X76711Y81150*
X76464Y81253*
X76199Y81288*
G37*
G36*
X61594Y83828D02*
X61329Y83793D01*
X61082Y83690*
X60869Y83528*
X60707Y83315*
X60604Y83068*
X60569Y82803*
X60604Y82538*
X60707Y82291*
X60869Y82078*
X61082Y81916*
X61329Y81813*
X61594Y81778*
X61859Y81813*
X62106Y81916*
X62319Y82078*
X62481Y82291*
X62584Y82538*
X62619Y82803*
X62584Y83068*
X62481Y83315*
X62319Y83528*
X62106Y83690*
X61859Y83793*
X61594Y83828*
G37*
G36*
X43814D02*
X43549Y83793D01*
X43302Y83690*
X43089Y83528*
X42927Y83315*
X42824Y83068*
X42789Y82803*
X42824Y82538*
X42927Y82291*
X43089Y82078*
X43302Y81916*
X43549Y81813*
X43814Y81778*
X44079Y81813*
X44326Y81916*
X44539Y82078*
X44701Y82291*
X44804Y82538*
X44839Y82803*
X44804Y83068*
X44701Y83315*
X44539Y83528*
X44326Y83690*
X44079Y83793*
X43814Y83828*
G37*
G36*
X102971Y53844D02*
X102709Y53809D01*
X102464Y53708*
X102255Y53547*
X102094Y53337*
X101992Y53093*
X101958Y52831*
X101992Y52569*
X102094Y52325*
X102255Y52115*
X102464Y51954*
X102709Y51853*
X102971Y51818*
X103233Y51853*
X103477Y51954*
X103687Y52115*
X103848Y52325*
X103949Y52569*
X103983Y52831*
X103949Y53093*
X103848Y53337*
X103687Y53547*
X103477Y53708*
X103233Y53809*
X102971Y53844*
G37*
G36*
X100431D02*
X100169Y53809D01*
X99924Y53708*
X99715Y53547*
X99554Y53337*
X99452Y53093*
X99418Y52831*
X99452Y52569*
X99554Y52325*
X99715Y52115*
X99924Y51954*
X100169Y51853*
X100431Y51818*
X100693Y51853*
X100937Y51954*
X101147Y52115*
X101308Y52325*
X101409Y52569*
X101443Y52831*
X101409Y53093*
X101308Y53337*
X101147Y53547*
X100937Y53708*
X100693Y53809*
X100431Y53844*
G37*
G36*
X105511D02*
X105248Y53809D01*
X105004Y53708*
X104795Y53547*
X104634Y53337*
X104532Y53093*
X104498Y52831*
X104532Y52569*
X104634Y52325*
X104795Y52115*
X105004Y51954*
X105248Y51853*
X105511Y51818*
X105773Y51853*
X106017Y51954*
X106227Y52115*
X106388Y52325*
X106489Y52569*
X106523Y52831*
X106489Y53093*
X106388Y53337*
X106227Y53547*
X106017Y53708*
X105773Y53809*
X105511Y53844*
G37*
G36*
X61594Y86368D02*
X61329Y86333D01*
X61082Y86230*
X60869Y86068*
X60707Y85855*
X60604Y85608*
X60569Y85343*
X60604Y85078*
X60707Y84831*
X60869Y84618*
X61082Y84456*
X61329Y84353*
X61594Y84318*
X61859Y84353*
X61983Y84404*
X63111Y83277*
Y61755*
X62068Y60712*
X49910*
X49761Y60683*
X49635Y60599*
X48086Y59049*
X48002Y58923*
X47972Y58775*
Y53630*
X47854Y53581*
X47645Y53420*
X47484Y53210*
X47382Y52966*
X47348Y52704*
X47382Y52442*
X47484Y52198*
X47645Y51988*
X47854Y51827*
X48098Y51726*
X48361Y51691*
X48623Y51726*
X48867Y51827*
X49077Y51988*
X49238Y52198*
X49339Y52442*
X49373Y52704*
X49339Y52966*
X49238Y53210*
X49077Y53420*
X48867Y53581*
X48749Y53630*
Y58614*
X50071Y59936*
X62229*
X62378Y59965*
X62504Y60049*
X63774Y61319*
X63858Y61445*
X63887Y61594*
Y83438*
X63858Y83587*
X63774Y83713*
X62533Y84954*
X62584Y85078*
X62619Y85343*
X62584Y85608*
X62481Y85855*
X62319Y86068*
X62106Y86230*
X61859Y86333*
X61594Y86368*
G37*
G36*
X112013Y61223D02*
X111815Y61184D01*
X111647Y61071*
X111534Y60903*
X111495Y60705*
X111534Y60507*
X111625Y60372*
Y57228*
X111534Y57093*
X111495Y56895*
X111534Y56697*
X111647Y56529*
X111815Y56416*
X112013Y56377*
X112211Y56416*
X112379Y56529*
X112492Y56697*
X112531Y56895*
X112492Y57093*
X112401Y57228*
Y60372*
X112492Y60507*
X112531Y60705*
X112492Y60903*
X112379Y61071*
X112211Y61184*
X112013Y61223*
G37*
G36*
X45821Y53717D02*
X45559Y53682D01*
X45314Y53581*
X45105Y53420*
X44944Y53210*
X44842Y52966*
X44808Y52704*
X44842Y52442*
X44944Y52198*
X45105Y51988*
X45314Y51827*
X45559Y51726*
X45821Y51691*
X46083Y51726*
X46327Y51827*
X46537Y51988*
X46698Y52198*
X46799Y52442*
X46833Y52704*
X46799Y52966*
X46698Y53210*
X46537Y53420*
X46327Y53581*
X46083Y53682*
X45821Y53717*
G37*
G36*
X43281D02*
X43019Y53682D01*
X42774Y53581*
X42565Y53420*
X42404Y53210*
X42302Y52966*
X42268Y52704*
X42302Y52442*
X42404Y52198*
X42565Y51988*
X42774Y51827*
X43019Y51726*
X43281Y51691*
X43543Y51726*
X43787Y51827*
X43997Y51988*
X44158Y52198*
X44259Y52442*
X44293Y52704*
X44259Y52966*
X44158Y53210*
X43997Y53420*
X43787Y53581*
X43543Y53682*
X43281Y53717*
G37*
G36*
X121182D02*
X120920Y53682D01*
X120676Y53581*
X120466Y53420*
X120305Y53210*
X120204Y52966*
X120170Y52704*
X120204Y52442*
X120305Y52198*
X120466Y51988*
X120676Y51827*
X120920Y51726*
X121182Y51691*
X121445Y51726*
X121689Y51827*
X121898Y51988*
X122059Y52198*
X122161Y52442*
X122195Y52704*
X122161Y52966*
X122059Y53210*
X121898Y53420*
X121689Y53581*
X121445Y53682*
X121182Y53717*
G37*
G36*
X97891Y53844D02*
X97629Y53809D01*
X97384Y53708*
X97175Y53547*
X97014Y53337*
X96912Y53093*
X96878Y52831*
X96912Y52569*
X97014Y52325*
X97175Y52115*
X97384Y51954*
X97629Y51853*
X97891Y51818*
X98153Y51853*
X98397Y51954*
X98607Y52115*
X98768Y52325*
X98869Y52569*
X98903Y52831*
X98869Y53093*
X98768Y53337*
X98607Y53547*
X98397Y53708*
X98153Y53809*
X97891Y53844*
G37*
G36*
X127266Y53708D02*
X125258D01*
Y51700*
X127266*
Y53708*
G37*
G36*
X36067Y62356D02*
X35186D01*
X35204Y62218*
X35307Y61971*
X35469Y61758*
X35682Y61596*
X35929Y61493*
X36067Y61475*
Y62356*
G37*
G36*
X110235D02*
X109346D01*
Y61467*
X110235*
Y62356*
G37*
G36*
X37202D02*
X36321D01*
Y61475*
X36459Y61493*
X36706Y61596*
X36919Y61758*
X37081Y61971*
X37184Y62218*
X37202Y62356*
G37*
G36*
X77207D02*
X76326D01*
Y61475*
X76464Y61493*
X76711Y61596*
X76924Y61758*
X77086Y61971*
X77189Y62218*
X77207Y62356*
G37*
G36*
X76072D02*
X75191D01*
X75209Y62218*
X75312Y61971*
X75474Y61758*
X75687Y61596*
X75934Y61493*
X76072Y61475*
Y62356*
G37*
G36*
X83819Y63508D02*
X83554Y63473D01*
X83307Y63370*
X83094Y63208*
X82932Y62995*
X82829Y62748*
X82794Y62483*
X82829Y62218*
X82932Y61971*
X83094Y61758*
X83307Y61596*
X83554Y61493*
X83819Y61458*
X84084Y61493*
X84331Y61596*
X84544Y61758*
X84706Y61971*
X84809Y62218*
X84844Y62483*
X84809Y62748*
X84706Y62995*
X84544Y63208*
X84331Y63370*
X84084Y63473*
X83819Y63508*
G37*
G36*
X43814D02*
X43549Y63473D01*
X43302Y63370*
X43089Y63208*
X42927Y62995*
X42824Y62748*
X42789Y62483*
X42824Y62218*
X42927Y61971*
X43089Y61758*
X43302Y61596*
X43549Y61493*
X43814Y61458*
X44079Y61493*
X44326Y61596*
X44539Y61758*
X44701Y61971*
X44804Y62218*
X44839Y62483*
X44804Y62748*
X44701Y62995*
X44539Y63208*
X44326Y63370*
X44079Y63473*
X43814Y63508*
G37*
G36*
X69087Y62356D02*
X68198D01*
Y61467*
X69087*
Y62356*
G37*
G36*
X109092D02*
X108203D01*
Y61467*
X109092*
Y62356*
G37*
G36*
X70230D02*
X69341D01*
Y61467*
X70230*
Y62356*
G37*
G36*
X45821Y51177D02*
X45559Y51142D01*
X45314Y51041*
X45105Y50880*
X44944Y50670*
X44842Y50426*
X44808Y50164*
X44842Y49902*
X44944Y49658*
X45105Y49448*
X45314Y49287*
X45559Y49186*
X45821Y49151*
X46083Y49186*
X46327Y49287*
X46537Y49448*
X46698Y49658*
X46799Y49902*
X46833Y50164*
X46799Y50426*
X46698Y50670*
X46537Y50880*
X46327Y51041*
X46083Y51142*
X45821Y51177*
G37*
G36*
X43281D02*
X43019Y51142D01*
X42774Y51041*
X42565Y50880*
X42404Y50670*
X42302Y50426*
X42268Y50164*
X42302Y49902*
X42404Y49658*
X42565Y49448*
X42774Y49287*
X43019Y49186*
X43281Y49151*
X43543Y49186*
X43787Y49287*
X43997Y49448*
X44158Y49658*
X44259Y49902*
X44293Y50164*
X44259Y50426*
X44158Y50670*
X43997Y50880*
X43787Y51041*
X43543Y51142*
X43281Y51177*
G37*
G36*
X48361D02*
X48098Y51142D01*
X47854Y51041*
X47645Y50880*
X47484Y50670*
X47382Y50426*
X47348Y50164*
X47382Y49902*
X47484Y49658*
X47645Y49448*
X47854Y49287*
X48098Y49186*
X48361Y49151*
X48623Y49186*
X48867Y49287*
X49077Y49448*
X49238Y49658*
X49339Y49902*
X49373Y50164*
X49339Y50426*
X49238Y50670*
X49077Y50880*
X48867Y51041*
X48623Y51142*
X48361Y51177*
G37*
G36*
X39205Y51168D02*
X37197D01*
Y49160*
X39205*
Y51168*
G37*
G36*
X121182Y51177D02*
X120920Y51142D01*
X120676Y51041*
X120466Y50880*
X120305Y50670*
X120204Y50426*
X120170Y50164*
X120204Y49902*
X120305Y49658*
X120466Y49448*
X120676Y49287*
X120920Y49186*
X121182Y49151*
X121445Y49186*
X121689Y49287*
X121898Y49448*
X122059Y49658*
X122161Y49902*
X122195Y50164*
X122161Y50426*
X122059Y50670*
X121898Y50880*
X121689Y51041*
X121445Y51142*
X121182Y51177*
G37*
G36*
X31461Y49402D02*
X29336D01*
Y47277*
X29651Y47308*
X30076Y47437*
X30467Y47646*
X30811Y47927*
X31092Y48271*
X31301Y48662*
X31430Y49087*
X31461Y49402*
G37*
G36*
X29082D02*
X26957D01*
X26988Y49087*
X27117Y48662*
X27326Y48271*
X27607Y47927*
X27951Y47646*
X28342Y47437*
X28767Y47308*
X29082Y47277*
Y49402*
G37*
G36*
X135127D02*
X133002D01*
X133033Y49087*
X133162Y48662*
X133371Y48271*
X133652Y47927*
X133996Y47646*
X134387Y47437*
X134812Y47308*
X135127Y47277*
Y49402*
G37*
G36*
X40741Y51177D02*
X40478Y51142D01*
X40234Y51041*
X40025Y50880*
X39864Y50670*
X39762Y50426*
X39728Y50164*
X39762Y49902*
X39864Y49658*
X40025Y49448*
X40234Y49287*
X40478Y49186*
X40741Y49151*
X41003Y49186*
X41247Y49287*
X41457Y49448*
X41618Y49658*
X41719Y49902*
X41753Y50164*
X41719Y50426*
X41618Y50670*
X41457Y50880*
X41247Y51041*
X41003Y51142*
X40741Y51177*
G37*
G36*
X137506Y49402D02*
X135381D01*
Y47277*
X135696Y47308*
X136121Y47437*
X136512Y47646*
X136856Y47927*
X137137Y48271*
X137347Y48662*
X137475Y49087*
X137506Y49402*
G37*
G36*
X135127Y51781D02*
X134812Y51750D01*
X134387Y51622*
X133996Y51412*
X133652Y51131*
X133371Y50787*
X133162Y50396*
X133033Y49971*
X133002Y49656*
X135127*
Y51781*
G37*
G36*
X29336D02*
Y49656D01*
X31461*
X31430Y49971*
X31301Y50396*
X31092Y50787*
X30811Y51131*
X30467Y51412*
X30076Y51622*
X29651Y51750*
X29336Y51781*
G37*
G36*
X135381D02*
Y49656D01*
X137506*
X137475Y49971*
X137347Y50396*
X137137Y50787*
X136856Y51131*
X136512Y51412*
X136121Y51622*
X135696Y51750*
X135381Y51781*
G37*
G36*
X40741Y53717D02*
X40478Y53682D01*
X40234Y53581*
X40025Y53420*
X39864Y53210*
X39762Y52966*
X39728Y52704*
X39762Y52442*
X39864Y52198*
X40025Y51988*
X40234Y51827*
X40478Y51726*
X40741Y51691*
X41003Y51726*
X41247Y51827*
X41457Y51988*
X41618Y52198*
X41719Y52442*
X41753Y52704*
X41719Y52966*
X41618Y53210*
X41457Y53420*
X41247Y53581*
X41003Y53682*
X40741Y53717*
G37*
G36*
X38201D02*
X37938Y53682D01*
X37694Y53581*
X37485Y53420*
X37324Y53210*
X37222Y52966*
X37188Y52704*
X37222Y52442*
X37324Y52198*
X37485Y51988*
X37694Y51827*
X37938Y51726*
X38201Y51691*
X38463Y51726*
X38707Y51827*
X38917Y51988*
X39078Y52198*
X39179Y52442*
X39213Y52704*
X39179Y52966*
X39078Y53210*
X38917Y53420*
X38707Y53581*
X38463Y53682*
X38201Y53717*
G37*
G36*
X102971Y51304D02*
X102709Y51269D01*
X102464Y51168*
X102255Y51007*
X102094Y50797*
X101992Y50553*
X101958Y50291*
X101992Y50029*
X102094Y49785*
X102255Y49575*
X102464Y49414*
X102709Y49313*
X102971Y49278*
X103233Y49313*
X103477Y49414*
X103687Y49575*
X103848Y49785*
X103949Y50029*
X103983Y50291*
X103949Y50553*
X103848Y50797*
X103687Y51007*
X103477Y51168*
X103233Y51269*
X102971Y51304*
G37*
G36*
X100431D02*
X100169Y51269D01*
X99924Y51168*
X99715Y51007*
X99554Y50797*
X99452Y50553*
X99418Y50291*
X99452Y50029*
X99554Y49785*
X99715Y49575*
X99924Y49414*
X100169Y49313*
X100431Y49278*
X100693Y49313*
X100937Y49414*
X101147Y49575*
X101308Y49785*
X101409Y50029*
X101443Y50291*
X101409Y50553*
X101308Y50797*
X101147Y51007*
X100937Y51168*
X100693Y51269*
X100431Y51304*
G37*
G36*
X105511D02*
X105248Y51269D01*
X105004Y51168*
X104795Y51007*
X104634Y50797*
X104532Y50553*
X104498Y50291*
X104532Y50029*
X104634Y49785*
X104795Y49575*
X105004Y49414*
X105248Y49313*
X105511Y49278*
X105773Y49313*
X106017Y49414*
X106227Y49575*
X106388Y49785*
X106489Y50029*
X106523Y50291*
X106489Y50553*
X106388Y50797*
X106227Y51007*
X106017Y51168*
X105773Y51269*
X105511Y51304*
G37*
G36*
X29082Y51781D02*
X28767Y51750D01*
X28342Y51622*
X27951Y51412*
X27607Y51131*
X27326Y50787*
X27117Y50396*
X26988Y49971*
X26957Y49656*
X29082*
Y51781*
G37*
G36*
X98895Y51295D02*
X96887D01*
Y49287*
X98895*
Y51295*
G37*
G36*
X53974Y68601D02*
X53712Y68567D01*
X53468Y68465*
X53258Y68304*
X53097Y68095*
X52996Y67851*
X52961Y67588*
X52996Y67326*
X53097Y67082*
X53258Y66872*
X53468Y66711*
X53712Y66610*
X53974Y66576*
X54236Y66610*
X54480Y66711*
X54690Y66872*
X54851Y67082*
X54952Y67326*
X54987Y67588*
X54952Y67851*
X54851Y68095*
X54690Y68304*
X54480Y68465*
X54236Y68567*
X53974Y68601*
G37*
G36*
X51434D02*
X51172Y68567D01*
X50928Y68465*
X50718Y68304*
X50557Y68095*
X50456Y67851*
X50421Y67588*
X50456Y67326*
X50557Y67082*
X50718Y66872*
X50928Y66711*
X51172Y66610*
X51434Y66576*
X51696Y66610*
X51940Y66711*
X52150Y66872*
X52311Y67082*
X52412Y67326*
X52447Y67588*
X52412Y67851*
X52311Y68095*
X52150Y68304*
X51940Y68465*
X51696Y68567*
X51434Y68601*
G37*
G36*
X91439D02*
X91177Y68567D01*
X90933Y68465*
X90723Y68304*
X90562Y68095*
X90461Y67851*
X90426Y67588*
X90461Y67326*
X90562Y67082*
X90723Y66872*
X90933Y66711*
X91177Y66610*
X91439Y66576*
X91701Y66610*
X91945Y66711*
X92155Y66872*
X92316Y67082*
X92417Y67326*
X92452Y67588*
X92417Y67851*
X92316Y68095*
X92155Y68304*
X91945Y68465*
X91701Y68567*
X91439Y68601*
G37*
G36*
X109219Y68588D02*
X108954Y68553D01*
X108707Y68450*
X108494Y68288*
X108332Y68075*
X108229Y67828*
X108194Y67563*
X108229Y67298*
X108332Y67051*
X108494Y66838*
X108707Y66676*
X108954Y66573*
X109219Y66538*
X109484Y66573*
X109731Y66676*
X109944Y66838*
X110106Y67051*
X110158Y67175*
X113966*
X114101Y67084*
X114299Y67045*
X114497Y67084*
X114665Y67197*
X114778Y67365*
X114817Y67563*
X114778Y67761*
X114665Y67929*
X114497Y68042*
X114299Y68081*
X114101Y68042*
X113966Y67951*
X110158*
X110106Y68075*
X109944Y68288*
X109731Y68450*
X109484Y68553*
X109219Y68588*
G37*
G36*
X93979Y68601D02*
X93717Y68567D01*
X93473Y68465*
X93263Y68304*
X93102Y68095*
X93001Y67851*
X92966Y67588*
X93001Y67326*
X93102Y67082*
X93263Y66872*
X93473Y66711*
X93717Y66610*
X93979Y66576*
X94241Y66610*
X94485Y66711*
X94695Y66872*
X94856Y67082*
X94957Y67326*
X94992Y67588*
X94957Y67851*
X94856Y68095*
X94695Y68304*
X94485Y68465*
X94241Y68567*
X93979Y68601*
G37*
G36*
X43814Y68588D02*
X43549Y68553D01*
X43302Y68450*
X43089Y68288*
X42927Y68075*
X42824Y67828*
X42789Y67563*
X42824Y67298*
X42927Y67051*
X43089Y66838*
X43302Y66676*
X43549Y66573*
X43814Y66538*
X44079Y66573*
X44326Y66676*
X44539Y66838*
X44701Y67051*
X44804Y67298*
X44839Y67563*
X44804Y67828*
X44701Y68075*
X44539Y68288*
X44326Y68450*
X44079Y68553*
X43814Y68588*
G37*
G36*
X76199Y66048D02*
X75934Y66013D01*
X75687Y65910*
X75474Y65748*
X75312Y65535*
X75299Y65505*
X75177Y65468*
X75127Y65502*
X74929Y65541*
X74731Y65502*
X74596Y65411*
X70153*
X70101Y65535*
X69939Y65748*
X69726Y65910*
X69479Y66013*
X69214Y66048*
X68949Y66013*
X68702Y65910*
X68489Y65748*
X68327Y65535*
X68224Y65288*
X68189Y65023*
X68224Y64758*
X68327Y64511*
X68489Y64298*
X68702Y64136*
X68949Y64033*
X69214Y63998*
X69479Y64033*
X69726Y64136*
X69939Y64298*
X70101Y64511*
X70153Y64635*
X74596*
X74731Y64544*
X74929Y64505*
X75127Y64544*
X75177Y64578*
X75299Y64541*
X75312Y64511*
X75474Y64298*
X75687Y64136*
X75934Y64033*
X76199Y63998*
X76464Y64033*
X76711Y64136*
X76924Y64298*
X77086Y64511*
X77189Y64758*
X77224Y65023*
X77189Y65288*
X77086Y65535*
X76924Y65748*
X76711Y65910*
X76464Y66013*
X76199Y66048*
G37*
G36*
X61594Y68588D02*
X61329Y68553D01*
X61082Y68450*
X60869Y68288*
X60707Y68075*
X60604Y67828*
X60569Y67563*
X60604Y67298*
X60707Y67051*
X60869Y66838*
X61082Y66676*
X61329Y66573*
X61594Y66538*
X61859Y66573*
X62106Y66676*
X62319Y66838*
X62481Y67051*
X62584Y67298*
X62619Y67563*
X62584Y67828*
X62481Y68075*
X62319Y68288*
X62106Y68450*
X61859Y68553*
X61594Y68588*
G37*
G36*
X101599D02*
X101334Y68553D01*
X101087Y68450*
X100874Y68288*
X100712Y68075*
X100609Y67828*
X100574Y67563*
X100609Y67298*
X100712Y67051*
X100874Y66838*
X101087Y66676*
X101334Y66573*
X101599Y66538*
X101864Y66573*
X102111Y66676*
X102324Y66838*
X102486Y67051*
X102589Y67298*
X102624Y67563*
X102589Y67828*
X102486Y68075*
X102324Y68288*
X102111Y68450*
X101864Y68553*
X101599Y68588*
G37*
G36*
X83819D02*
X83554Y68553D01*
X83307Y68450*
X83094Y68288*
X82932Y68075*
X82829Y67828*
X82794Y67563*
X82829Y67298*
X82932Y67051*
X83094Y66838*
X83307Y66676*
X83554Y66573*
X83819Y66538*
X84084Y66573*
X84331Y66676*
X84544Y66838*
X84706Y67051*
X84809Y67298*
X84844Y67563*
X84809Y67828*
X84706Y68075*
X84544Y68288*
X84331Y68450*
X84084Y68553*
X83819Y68588*
G37*
G36*
X51434Y71141D02*
X51172Y71107D01*
X50928Y71005*
X50718Y70844*
X50557Y70635*
X50456Y70391*
X50421Y70128*
X50456Y69866*
X50557Y69622*
X50718Y69412*
X50928Y69251*
X51172Y69150*
X51434Y69116*
X51696Y69150*
X51940Y69251*
X52150Y69412*
X52311Y69622*
X52412Y69866*
X52447Y70128*
X52412Y70391*
X52311Y70635*
X52150Y70844*
X51940Y71005*
X51696Y71107*
X51434Y71141*
G37*
G36*
X101599Y71128D02*
X101334Y71093D01*
X101087Y70990*
X100874Y70828*
X100712Y70615*
X100609Y70368*
X100574Y70103*
X100609Y69838*
X100712Y69591*
X100874Y69378*
X101087Y69216*
X101334Y69113*
X101599Y69078*
X101864Y69113*
X102111Y69216*
X102324Y69378*
X102486Y69591*
X102589Y69838*
X102624Y70103*
X102589Y70368*
X102486Y70615*
X102324Y70828*
X102111Y70990*
X101864Y71093*
X101599Y71128*
G37*
G36*
X53974Y71141D02*
X53712Y71107D01*
X53468Y71005*
X53258Y70844*
X53097Y70635*
X52996Y70391*
X52961Y70128*
X52996Y69866*
X53097Y69622*
X53258Y69412*
X53468Y69251*
X53712Y69150*
X53974Y69116*
X54236Y69150*
X54480Y69251*
X54690Y69412*
X54851Y69622*
X54952Y69866*
X54987Y70128*
X54952Y70391*
X54851Y70635*
X54690Y70844*
X54480Y71005*
X54236Y71107*
X53974Y71141*
G37*
G36*
X93979D02*
X93717Y71107D01*
X93473Y71005*
X93263Y70844*
X93102Y70635*
X93001Y70391*
X92966Y70128*
X93001Y69866*
X93102Y69622*
X93263Y69412*
X93473Y69251*
X93717Y69150*
X93979Y69116*
X94241Y69150*
X94485Y69251*
X94695Y69412*
X94856Y69622*
X94957Y69866*
X94992Y70128*
X94957Y70391*
X94856Y70635*
X94695Y70844*
X94485Y71005*
X94241Y71107*
X93979Y71141*
G37*
G36*
X91439D02*
X91177Y71107D01*
X90933Y71005*
X90723Y70844*
X90562Y70635*
X90461Y70391*
X90426Y70128*
X90461Y69866*
X90562Y69622*
X90723Y69412*
X90933Y69251*
X91177Y69150*
X91439Y69116*
X91701Y69150*
X91945Y69251*
X92155Y69412*
X92316Y69622*
X92417Y69866*
X92452Y70128*
X92417Y70391*
X92316Y70635*
X92155Y70844*
X91945Y71005*
X91701Y71107*
X91439Y71141*
G37*
G36*
X76199Y68588D02*
X75934Y68553D01*
X75687Y68450*
X75474Y68288*
X75312Y68075*
X75260Y67951*
X74627*
X74492Y68042*
X74294Y68081*
X74096Y68042*
X73961Y67951*
X70153*
X70101Y68075*
X69939Y68288*
X69726Y68450*
X69479Y68553*
X69214Y68588*
X68949Y68553*
X68702Y68450*
X68489Y68288*
X68327Y68075*
X68224Y67828*
X68189Y67563*
X68224Y67298*
X68327Y67051*
X68489Y66838*
X68702Y66676*
X68949Y66573*
X69214Y66538*
X69479Y66573*
X69726Y66676*
X69939Y66838*
X70101Y67051*
X70153Y67175*
X73961*
X74096Y67084*
X74294Y67045*
X74492Y67084*
X74627Y67175*
X75260*
X75312Y67051*
X75474Y66838*
X75687Y66676*
X75934Y66573*
X76199Y66538*
X76464Y66573*
X76711Y66676*
X76924Y66838*
X77086Y67051*
X77189Y67298*
X77224Y67563*
X77189Y67828*
X77086Y68075*
X76924Y68288*
X76711Y68450*
X76464Y68553*
X76199Y68588*
G37*
G36*
X36194D02*
X35929Y68553D01*
X35682Y68450*
X35469Y68288*
X35307Y68075*
X35255Y67951*
X34622*
X34487Y68042*
X34289Y68081*
X34091Y68042*
X33923Y67929*
X33810Y67761*
X33771Y67563*
X33810Y67365*
X33923Y67197*
X34091Y67084*
X34289Y67045*
X34487Y67084*
X34622Y67175*
X35255*
X35307Y67051*
X35469Y66838*
X35682Y66676*
X35929Y66573*
X36194Y66538*
X36459Y66573*
X36706Y66676*
X36919Y66838*
X37081Y67051*
X37184Y67298*
X37219Y67563*
X37184Y67828*
X37081Y68075*
X36919Y68288*
X36706Y68450*
X36459Y68553*
X36194Y68588*
G37*
G36*
X43814Y71128D02*
X43549Y71093D01*
X43302Y70990*
X43089Y70828*
X42927Y70615*
X42824Y70368*
X42789Y70103*
X42824Y69838*
X42927Y69591*
X43089Y69378*
X43302Y69216*
X43549Y69113*
X43814Y69078*
X44079Y69113*
X44326Y69216*
X44539Y69378*
X44701Y69591*
X44804Y69838*
X44839Y70103*
X44804Y70368*
X44701Y70615*
X44539Y70828*
X44326Y70990*
X44079Y71093*
X43814Y71128*
G37*
G36*
X83819D02*
X83554Y71093D01*
X83307Y70990*
X83094Y70828*
X82932Y70615*
X82829Y70368*
X82794Y70103*
X82829Y69838*
X82932Y69591*
X83094Y69378*
X83307Y69216*
X83554Y69113*
X83819Y69078*
X84084Y69113*
X84331Y69216*
X84544Y69378*
X84706Y69591*
X84809Y69838*
X84844Y70103*
X84809Y70368*
X84706Y70615*
X84544Y70828*
X84331Y70990*
X84084Y71093*
X83819Y71128*
G37*
G36*
X61594D02*
X61329Y71093D01*
X61082Y70990*
X60869Y70828*
X60707Y70615*
X60604Y70368*
X60569Y70103*
X60604Y69838*
X60707Y69591*
X60869Y69378*
X61082Y69216*
X61329Y69113*
X61594Y69078*
X61859Y69113*
X62106Y69216*
X62319Y69378*
X62481Y69591*
X62584Y69838*
X62619Y70103*
X62584Y70368*
X62481Y70615*
X62319Y70828*
X62106Y70990*
X61859Y71093*
X61594Y71128*
G37*
G36*
X109092Y63499D02*
X108203D01*
Y62610*
X109092*
Y63499*
G37*
G36*
X76326Y63491D02*
Y62610D01*
X77207*
X77189Y62748*
X77086Y62995*
X76924Y63208*
X76711Y63370*
X76464Y63473*
X76326Y63491*
G37*
G36*
X110235Y63499D02*
X109346D01*
Y62610*
X110235*
Y63499*
G37*
G36*
X124340Y64330D02*
X123813D01*
Y63753*
X124340*
Y64330*
G37*
G36*
Y63499D02*
X123813D01*
Y62922*
X124340*
Y63499*
G37*
G36*
X36321Y63491D02*
Y62610D01*
X37202*
X37184Y62748*
X37081Y62995*
X36919Y63208*
X36706Y63370*
X36459Y63473*
X36321Y63491*
G37*
G36*
X36067D02*
X35929Y63473D01*
X35682Y63370*
X35469Y63208*
X35307Y62995*
X35204Y62748*
X35186Y62610*
X36067*
Y63491*
G37*
G36*
X69087Y63499D02*
X68198D01*
Y62610*
X69087*
Y63499*
G37*
G36*
X76072Y63491D02*
X75934Y63473D01*
X75687Y63370*
X75474Y63208*
X75312Y62995*
X75209Y62748*
X75191Y62610*
X76072*
Y63491*
G37*
G36*
X70230Y63499D02*
X69341D01*
Y62610*
X70230*
Y63499*
G37*
G36*
X91439Y66061D02*
X91177Y66027D01*
X90933Y65925*
X90723Y65764*
X90562Y65555*
X90461Y65311*
X90426Y65048*
X90461Y64786*
X90562Y64542*
X90723Y64332*
X90933Y64171*
X91177Y64070*
X91439Y64036*
X91701Y64070*
X91945Y64171*
X92155Y64332*
X92316Y64542*
X92417Y64786*
X92452Y65048*
X92417Y65311*
X92316Y65555*
X92155Y65764*
X91945Y65925*
X91701Y66027*
X91439Y66061*
G37*
G36*
X53974D02*
X53712Y66027D01*
X53468Y65925*
X53258Y65764*
X53097Y65555*
X52996Y65311*
X52961Y65048*
X52996Y64786*
X53097Y64542*
X53258Y64332*
X53468Y64171*
X53712Y64070*
X53974Y64036*
X54236Y64070*
X54480Y64171*
X54690Y64332*
X54851Y64542*
X54952Y64786*
X54987Y65048*
X54952Y65311*
X54851Y65555*
X54690Y65764*
X54480Y65925*
X54236Y66027*
X53974Y66061*
G37*
G36*
X93979D02*
X93717Y66027D01*
X93473Y65925*
X93263Y65764*
X93102Y65555*
X93001Y65311*
X92966Y65048*
X93001Y64786*
X93102Y64542*
X93263Y64332*
X93473Y64171*
X93717Y64070*
X93979Y64036*
X94241Y64070*
X94485Y64171*
X94695Y64332*
X94856Y64542*
X94957Y64786*
X94992Y65048*
X94957Y65311*
X94856Y65555*
X94695Y65764*
X94485Y65925*
X94241Y66027*
X93979Y66061*
G37*
G36*
X36194Y66048D02*
X35929Y66013D01*
X35682Y65910*
X35469Y65748*
X35307Y65535*
X35294Y65505*
X35172Y65468*
X35122Y65502*
X34924Y65541*
X34726Y65502*
X34558Y65389*
X34445Y65221*
X34406Y65023*
X34445Y64825*
X34558Y64657*
X34726Y64544*
X34924Y64505*
X35122Y64544*
X35172Y64578*
X35294Y64541*
X35307Y64511*
X35469Y64298*
X35682Y64136*
X35929Y64033*
X36194Y63998*
X36459Y64033*
X36706Y64136*
X36919Y64298*
X37081Y64511*
X37184Y64758*
X37219Y65023*
X37184Y65288*
X37081Y65535*
X36919Y65748*
X36706Y65910*
X36459Y66013*
X36194Y66048*
G37*
G36*
X109219D02*
X108954Y66013D01*
X108707Y65910*
X108494Y65748*
X108332Y65535*
X108229Y65288*
X108194Y65023*
X108229Y64758*
X108332Y64511*
X108494Y64298*
X108707Y64136*
X108954Y64033*
X109219Y63998*
X109484Y64033*
X109731Y64136*
X109944Y64298*
X110106Y64511*
X110158Y64635*
X114601*
X114736Y64544*
X114934Y64505*
X115132Y64544*
X115300Y64657*
X115413Y64825*
X115452Y65023*
X115413Y65221*
X115300Y65389*
X115132Y65502*
X114934Y65541*
X114736Y65502*
X114601Y65411*
X110158*
X110106Y65535*
X109944Y65748*
X109731Y65910*
X109484Y66013*
X109219Y66048*
G37*
G36*
X61594D02*
X61329Y66013D01*
X61082Y65910*
X60869Y65748*
X60707Y65535*
X60604Y65288*
X60569Y65023*
X60604Y64758*
X60707Y64511*
X60869Y64298*
X61082Y64136*
X61329Y64033*
X61594Y63998*
X61859Y64033*
X62106Y64136*
X62319Y64298*
X62481Y64511*
X62584Y64758*
X62619Y65023*
X62584Y65288*
X62481Y65535*
X62319Y65748*
X62106Y65910*
X61859Y66013*
X61594Y66048*
G37*
G36*
X43814D02*
X43549Y66013D01*
X43302Y65910*
X43089Y65748*
X42927Y65535*
X42824Y65288*
X42789Y65023*
X42824Y64758*
X42927Y64511*
X43089Y64298*
X43302Y64136*
X43549Y64033*
X43814Y63998*
X44079Y64033*
X44326Y64136*
X44539Y64298*
X44701Y64511*
X44804Y64758*
X44839Y65023*
X44804Y65288*
X44701Y65535*
X44539Y65748*
X44326Y65910*
X44079Y66013*
X43814Y66048*
G37*
G36*
X83819D02*
X83554Y66013D01*
X83307Y65910*
X83094Y65748*
X82932Y65535*
X82829Y65288*
X82794Y65023*
X82829Y64758*
X82932Y64511*
X83094Y64298*
X83307Y64136*
X83554Y64033*
X83819Y63998*
X84084Y64033*
X84331Y64136*
X84544Y64298*
X84706Y64511*
X84809Y64758*
X84844Y65023*
X84809Y65288*
X84706Y65535*
X84544Y65748*
X84331Y65910*
X84084Y66013*
X83819Y66048*
G37*
G36*
X51434Y66061D02*
X51172Y66027D01*
X50928Y65925*
X50718Y65764*
X50557Y65555*
X50456Y65311*
X50421Y65048*
X50456Y64786*
X50557Y64542*
X50718Y64332*
X50928Y64171*
X51172Y64070*
X51434Y64036*
X51696Y64070*
X51940Y64171*
X52150Y64332*
X52311Y64542*
X52412Y64786*
X52447Y65048*
X52412Y65311*
X52311Y65555*
X52150Y65764*
X51940Y65925*
X51696Y66027*
X51434Y66061*
G37*
G36*
X101599Y66048D02*
X101334Y66013D01*
X101087Y65910*
X100874Y65748*
X100712Y65535*
X100609Y65288*
X100574Y65023*
X100609Y64758*
X100712Y64511*
X100874Y64298*
X101087Y64136*
X101334Y64033*
X101599Y63998*
X101864Y64033*
X102111Y64136*
X102324Y64298*
X102486Y64511*
X102589Y64758*
X102624Y65023*
X102589Y65288*
X102486Y65535*
X102324Y65748*
X102111Y65910*
X101864Y66013*
X101599Y66048*
G37*
G36*
X118139Y107614D02*
X117787D01*
Y106387*
X118139*
Y107614*
G37*
G36*
X135238Y107187D02*
X134111D01*
Y106060*
X135238*
Y107187*
G37*
G36*
X101599Y109228D02*
X101334Y109193D01*
X101087Y109090*
X100874Y108928*
X100712Y108715*
X100609Y108468*
X100574Y108203*
X100609Y107938*
X100712Y107691*
X100874Y107478*
X101087Y107316*
X101334Y107213*
X101599Y107178*
X101864Y107213*
X102111Y107316*
X102324Y107478*
X102486Y107691*
X102589Y107938*
X102624Y108203*
X102589Y108468*
X102486Y108715*
X102324Y108928*
X102111Y109090*
X101864Y109193*
X101599Y109228*
G37*
G36*
X43814D02*
X43549Y109193D01*
X43302Y109090*
X43089Y108928*
X42927Y108715*
X42824Y108468*
X42789Y108203*
X42824Y107938*
X42927Y107691*
X43089Y107478*
X43302Y107316*
X43549Y107213*
X43814Y107178*
X44079Y107213*
X44326Y107316*
X44539Y107478*
X44701Y107691*
X44804Y107938*
X44839Y108203*
X44804Y108468*
X44701Y108715*
X44539Y108928*
X44326Y109090*
X44079Y109193*
X43814Y109228*
G37*
G36*
X109219Y106688D02*
X108954Y106653D01*
X108707Y106550*
X108494Y106388*
X108332Y106175*
X108229Y105928*
X108194Y105663*
X108229Y105398*
X108332Y105151*
X108494Y104938*
X108707Y104776*
X108954Y104673*
X109219Y104638*
X109484Y104673*
X109731Y104776*
X109944Y104938*
X110106Y105151*
X110158Y105275*
X112061*
X112196Y105184*
X112394Y105145*
X112592Y105184*
X112760Y105297*
X112873Y105465*
X112912Y105663*
X112873Y105861*
X112760Y106029*
X112592Y106142*
X112394Y106181*
X112196Y106142*
X112061Y106051*
X110158*
X110106Y106175*
X109944Y106388*
X109731Y106550*
X109484Y106653*
X109219Y106688*
G37*
G36*
X53974Y106701D02*
X53712Y106667D01*
X53468Y106565*
X53258Y106404*
X53097Y106195*
X52996Y105950*
X52961Y105688*
X52996Y105426*
X53097Y105182*
X53258Y104972*
X53468Y104811*
X53712Y104710*
X53974Y104676*
X54236Y104710*
X54480Y104811*
X54690Y104972*
X54851Y105182*
X54952Y105426*
X54987Y105688*
X54952Y105950*
X54851Y106195*
X54690Y106404*
X54480Y106565*
X54236Y106667*
X53974Y106701*
G37*
G36*
X133857Y107187D02*
X132730D01*
Y106060*
X133857*
Y107187*
G37*
G36*
X36194Y106688D02*
X35929Y106653D01*
X35682Y106550*
X35469Y106388*
X35307Y106175*
X35255Y106051*
X32717*
X32582Y106142*
X32384Y106181*
X32186Y106142*
X32018Y106029*
X31905Y105861*
X31866Y105663*
X31905Y105465*
X32018Y105297*
X32186Y105184*
X32384Y105145*
X32582Y105184*
X32717Y105275*
X35255*
X35307Y105151*
X35469Y104938*
X35682Y104776*
X35929Y104673*
X36194Y104638*
X36459Y104673*
X36706Y104776*
X36919Y104938*
X37081Y105151*
X37184Y105398*
X37219Y105663*
X37184Y105928*
X37081Y106175*
X36919Y106388*
X36706Y106550*
X36459Y106653*
X36194Y106688*
G37*
G36*
Y109228D02*
X35929Y109193D01*
X35682Y109090*
X35469Y108928*
X35307Y108715*
X35255Y108591*
X32082*
X31947Y108682*
X31749Y108721*
X31551Y108682*
X31383Y108569*
X31270Y108401*
X31231Y108203*
X31270Y108005*
X31383Y107837*
X31551Y107724*
X31749Y107685*
X31947Y107724*
X32082Y107815*
X35255*
X35307Y107691*
X35469Y107478*
X35682Y107316*
X35929Y107213*
X36194Y107178*
X36459Y107213*
X36706Y107316*
X36919Y107478*
X37081Y107691*
X37184Y107938*
X37219Y108203*
X37184Y108468*
X37081Y108715*
X36919Y108928*
X36706Y109090*
X36459Y109193*
X36194Y109228*
G37*
G36*
X109219D02*
X108954Y109193D01*
X108707Y109090*
X108494Y108928*
X108332Y108715*
X108229Y108468*
X108194Y108203*
X108229Y107938*
X108332Y107691*
X108494Y107478*
X108707Y107316*
X108954Y107213*
X109219Y107178*
X109484Y107213*
X109731Y107316*
X109944Y107478*
X110106Y107691*
X110158Y107815*
X111426*
X111561Y107724*
X111759Y107685*
X111957Y107724*
X112125Y107837*
X112238Y108005*
X112277Y108203*
X112238Y108401*
X112125Y108569*
X111957Y108682*
X111759Y108721*
X111561Y108682*
X111426Y108591*
X110158*
X110106Y108715*
X109944Y108928*
X109731Y109090*
X109484Y109193*
X109219Y109228*
G37*
G36*
X115257Y109789D02*
X114680D01*
Y109262*
X115257*
Y109789*
G37*
G36*
X114426D02*
X113849D01*
Y109262*
X114426*
Y109789*
G37*
G36*
X53974Y109241D02*
X53712Y109207D01*
X53468Y109105*
X53258Y108944*
X53097Y108735*
X52996Y108491*
X52961Y108228*
X52996Y107966*
X53097Y107722*
X53258Y107512*
X53468Y107351*
X53712Y107250*
X53974Y107216*
X54236Y107250*
X54480Y107351*
X54690Y107512*
X54851Y107722*
X54952Y107966*
X54987Y108228*
X54952Y108491*
X54851Y108735*
X54690Y108944*
X54480Y109105*
X54236Y109207*
X53974Y109241*
G37*
G36*
X51434D02*
X51172Y109207D01*
X50928Y109105*
X50718Y108944*
X50557Y108735*
X50456Y108491*
X50421Y108228*
X50456Y107966*
X50557Y107722*
X50718Y107512*
X50928Y107351*
X51172Y107250*
X51434Y107216*
X51696Y107250*
X51940Y107351*
X52150Y107512*
X52311Y107722*
X52412Y107966*
X52447Y108228*
X52412Y108491*
X52311Y108735*
X52150Y108944*
X51940Y109105*
X51696Y109207*
X51434Y109241*
G37*
G36*
X135238Y108568D02*
X134111D01*
Y107441*
X135238*
Y108568*
G37*
G36*
X133857D02*
X132730D01*
Y107441*
X133857*
Y108568*
G37*
G36*
X51434Y106701D02*
X51172Y106667D01*
X50928Y106565*
X50718Y106404*
X50557Y106195*
X50456Y105950*
X50421Y105688*
X50456Y105426*
X50557Y105182*
X50718Y104972*
X50928Y104811*
X51172Y104710*
X51434Y104676*
X51696Y104710*
X51940Y104811*
X52150Y104972*
X52311Y105182*
X52412Y105426*
X52447Y105688*
X52412Y105950*
X52311Y106195*
X52150Y106404*
X51940Y106565*
X51696Y106667*
X51434Y106701*
G37*
G36*
X130174Y101972D02*
X130036Y101954D01*
X129789Y101851*
X129576Y101689*
X129414Y101476*
X129311Y101229*
X129293Y101091*
X130174*
Y101972*
G37*
G36*
X36194Y101608D02*
X35929Y101573D01*
X35682Y101470*
X35469Y101308*
X35307Y101095*
X35255Y100971*
X33987*
X33852Y101062*
X33654Y101101*
X33456Y101062*
X33288Y100949*
X33175Y100781*
X33136Y100583*
X33175Y100385*
X33288Y100217*
X33456Y100104*
X33654Y100065*
X33852Y100104*
X33987Y100195*
X35255*
X35307Y100071*
X35469Y99858*
X35682Y99696*
X35929Y99593*
X36194Y99558*
X36459Y99593*
X36706Y99696*
X36919Y99858*
X37081Y100071*
X37184Y100318*
X37219Y100583*
X37184Y100848*
X37081Y101095*
X36919Y101308*
X36706Y101470*
X36459Y101573*
X36194Y101608*
G37*
G36*
X136524Y103297D02*
X136249Y103261D01*
X135992Y103155*
X135772Y102986*
X135603Y102766*
X135497Y102509*
X135461Y102234*
X135497Y101959*
X135603Y101702*
X135772Y101482*
X135992Y101313*
X136249Y101207*
X136524Y101171*
X136799Y101207*
X137056Y101313*
X137276Y101482*
X137445Y101702*
X137551Y101959*
X137587Y102234*
X137551Y102509*
X137445Y102766*
X137276Y102986*
X137056Y103155*
X136799Y103261*
X136524Y103297*
G37*
G36*
X133349Y101726D02*
X131952D01*
Y101091*
X133349*
Y101726*
G37*
G36*
X130428Y101972D02*
Y100964D01*
Y99956*
X130566Y99974*
X130813Y100077*
X130977Y100202*
X131698*
Y100964*
Y101726*
X130977*
X130813Y101851*
X130566Y101954*
X130428Y101972*
G37*
G36*
X130174Y100837D02*
X129293D01*
X129311Y100699*
X129414Y100452*
X129576Y100239*
X129789Y100077*
X130036Y99974*
X130174Y99956*
Y100837*
G37*
G36*
X133349D02*
X131952D01*
Y100202*
X133349*
Y100837*
G37*
G36*
X109219Y101608D02*
X108954Y101573D01*
X108707Y101470*
X108494Y101308*
X108332Y101095*
X108229Y100848*
X108194Y100583*
X108229Y100318*
X108332Y100071*
X108494Y99858*
X108707Y99696*
X108954Y99593*
X109219Y99558*
X109484Y99593*
X109731Y99696*
X109944Y99858*
X110106Y100071*
X110158Y100195*
X113331*
X113466Y100104*
X113664Y100065*
X113862Y100104*
X114030Y100217*
X114143Y100385*
X114182Y100583*
X114143Y100781*
X114030Y100949*
X113862Y101062*
X113664Y101101*
X113466Y101062*
X113331Y100971*
X110158*
X110106Y101095*
X109944Y101308*
X109731Y101470*
X109484Y101573*
X109219Y101608*
G37*
G36*
X36194Y104148D02*
X35929Y104113D01*
X35682Y104010*
X35469Y103848*
X35307Y103635*
X35255Y103511*
X33352*
X33217Y103602*
X33019Y103641*
X32821Y103602*
X32653Y103489*
X32540Y103321*
X32501Y103123*
X32540Y102925*
X32653Y102757*
X32821Y102644*
X33019Y102605*
X33217Y102644*
X33352Y102735*
X35255*
X35307Y102611*
X35469Y102398*
X35682Y102236*
X35929Y102133*
X36194Y102098*
X36459Y102133*
X36706Y102236*
X36919Y102398*
X37081Y102611*
X37184Y102858*
X37219Y103123*
X37184Y103388*
X37081Y103635*
X36919Y103848*
X36706Y104010*
X36459Y104113*
X36194Y104148*
G37*
G36*
X109219D02*
X108954Y104113D01*
X108707Y104010*
X108494Y103848*
X108332Y103635*
X108229Y103388*
X108194Y103123*
X108229Y102858*
X108332Y102611*
X108494Y102398*
X108707Y102236*
X108954Y102133*
X109219Y102098*
X109484Y102133*
X109731Y102236*
X109944Y102398*
X110106Y102611*
X110158Y102735*
X112696*
X112831Y102644*
X113029Y102605*
X113227Y102644*
X113395Y102757*
X113508Y102925*
X113547Y103123*
X113508Y103321*
X113395Y103489*
X113227Y103602*
X113029Y103641*
X112831Y103602*
X112696Y103511*
X110158*
X110106Y103635*
X109944Y103848*
X109731Y104010*
X109484Y104113*
X109219Y104148*
G37*
G36*
X101599Y106688D02*
X101334Y106653D01*
X101087Y106550*
X100874Y106388*
X100712Y106175*
X100609Y105928*
X100574Y105663*
X100609Y105398*
X100712Y105151*
X100874Y104938*
X101087Y104776*
X101334Y104673*
X101599Y104638*
X101864Y104673*
X102111Y104776*
X102324Y104938*
X102486Y105151*
X102589Y105398*
X102624Y105663*
X102589Y105928*
X102486Y106175*
X102324Y106388*
X102111Y106550*
X101864Y106653*
X101599Y106688*
G37*
G36*
X43814D02*
X43549Y106653D01*
X43302Y106550*
X43089Y106388*
X42927Y106175*
X42824Y105928*
X42789Y105663*
X42824Y105398*
X42927Y105151*
X43089Y104938*
X43302Y104776*
X43549Y104673*
X43814Y104638*
X44079Y104673*
X44326Y104776*
X44539Y104938*
X44701Y105151*
X44804Y105398*
X44839Y105663*
X44804Y105928*
X44701Y106175*
X44539Y106388*
X44326Y106550*
X44079Y106653*
X43814Y106688*
G37*
G36*
X101599Y104148D02*
X101334Y104113D01*
X101087Y104010*
X100874Y103848*
X100712Y103635*
X100609Y103388*
X100574Y103123*
X100609Y102858*
X100712Y102611*
X100874Y102398*
X101087Y102236*
X101334Y102133*
X101599Y102098*
X101864Y102133*
X102111Y102236*
X102324Y102398*
X102486Y102611*
X102589Y102858*
X102624Y103123*
X102589Y103388*
X102486Y103635*
X102324Y103848*
X102111Y104010*
X101864Y104113*
X101599Y104148*
G37*
G36*
X43814D02*
X43549Y104113D01*
X43302Y104010*
X43089Y103848*
X42927Y103635*
X42824Y103388*
X42789Y103123*
X42824Y102858*
X42927Y102611*
X43089Y102398*
X43302Y102236*
X43549Y102133*
X43814Y102098*
X44079Y102133*
X44326Y102236*
X44539Y102398*
X44701Y102611*
X44804Y102858*
X44839Y103123*
X44804Y103388*
X44701Y103635*
X44539Y103848*
X44326Y104010*
X44079Y104113*
X43814Y104148*
G37*
G36*
X53974Y104161D02*
X53712Y104127D01*
X53468Y104025*
X53258Y103864*
X53097Y103655*
X52996Y103410*
X52961Y103148*
X52996Y102886*
X53097Y102642*
X53258Y102432*
X53468Y102271*
X53712Y102170*
X53974Y102136*
X54236Y102170*
X54480Y102271*
X54690Y102432*
X54851Y102642*
X54952Y102886*
X54987Y103148*
X54952Y103410*
X54851Y103655*
X54690Y103864*
X54480Y104025*
X54236Y104127*
X53974Y104161*
G37*
G36*
X51434D02*
X51172Y104127D01*
X50928Y104025*
X50718Y103864*
X50557Y103655*
X50456Y103410*
X50421Y103148*
X50456Y102886*
X50557Y102642*
X50718Y102432*
X50928Y102271*
X51172Y102170*
X51434Y102136*
X51696Y102170*
X51940Y102271*
X52150Y102432*
X52311Y102642*
X52412Y102886*
X52447Y103148*
X52412Y103410*
X52311Y103655*
X52150Y103864*
X51940Y104025*
X51696Y104127*
X51434Y104161*
G37*
G36*
X43814Y111768D02*
X43549Y111733D01*
X43302Y111630*
X43089Y111468*
X42927Y111255*
X42824Y111008*
X42789Y110743*
X42824Y110478*
X42927Y110231*
X43089Y110018*
X43302Y109856*
X43549Y109753*
X43814Y109718*
X44079Y109753*
X44326Y109856*
X44539Y110018*
X44701Y110231*
X44804Y110478*
X44839Y110743*
X44804Y111008*
X44701Y111255*
X44539Y111468*
X44326Y111630*
X44079Y111733*
X43814Y111768*
G37*
G36*
X109092Y116831D02*
X108954Y116813D01*
X108707Y116710*
X108494Y116548*
X108332Y116335*
X108229Y116088*
X108211Y115950*
X109092*
Y116831*
G37*
G36*
X37210Y116839D02*
X36321D01*
Y115950*
X37210*
Y116839*
G37*
G36*
X116781Y116161D02*
X115373D01*
Y116022*
X115061*
X114888Y115988*
X114814Y115939*
X114741Y115889*
X114233Y115381*
X114134Y115234*
X114100Y115061*
Y111970*
X113849*
Y110662*
Y110570*
Y110043*
X115257*
Y110570*
Y110662*
Y111970*
X115006*
Y114873*
X115249Y115116*
X115373*
Y114853*
Y114761*
Y113453*
X116090*
X116373Y113171*
X116451Y113118*
X116520Y113072*
X116601Y113056*
X116693Y113038*
X117787*
Y112137*
X118337*
Y112070*
Y112047*
Y110743*
X120014*
Y112118*
X119995Y112137*
Y112160*
Y114845*
X119969*
Y114924*
X119935Y115097*
X119836Y115244*
X119191Y115889*
X119044Y115988*
X118871Y116022*
X116781*
Y116161*
G37*
G36*
X109346Y116831D02*
Y115950D01*
X110227*
X110209Y116088*
X110106Y116335*
X109944Y116548*
X109731Y116710*
X109484Y116813*
X109346Y116831*
G37*
G36*
X109092Y115696D02*
X108211D01*
X108229Y115558*
X108332Y115311*
X108494Y115098*
X108707Y114936*
X108954Y114833*
X109092Y114815*
Y115696*
G37*
G36*
X37210D02*
X36321D01*
Y114807*
X37210*
Y115696*
G37*
G36*
X36067Y116839D02*
X35178D01*
Y115950*
X36067*
Y116839*
G37*
G36*
X110227Y115696D02*
X109346D01*
Y114815*
X109484Y114833*
X109731Y114936*
X109944Y115098*
X110106Y115311*
X110209Y115558*
X110227Y115696*
G37*
G36*
X124543Y117220D02*
X124016D01*
Y116643*
X124543*
Y117220*
G37*
G36*
X60324Y118751D02*
X60125Y118724D01*
X59940Y118648*
X59850Y118578*
X59781Y118525*
X58093Y116838*
X57900Y116813*
X57653Y116710*
X57498Y116592*
X44481*
X44326Y116710*
X44079Y116813*
X43814Y116848*
X43549Y116813*
X43302Y116710*
X43089Y116548*
X42927Y116335*
X42824Y116088*
X42789Y115823*
X42824Y115558*
X42927Y115311*
X43089Y115098*
X43302Y114936*
X43549Y114833*
X43814Y114798*
X44079Y114833*
X44326Y114936*
X44481Y115054*
X57396*
Y93630*
X57278Y93475*
X57175Y93228*
X57140Y92963*
X57175Y92698*
X57278Y92451*
X57440Y92238*
X57653Y92076*
X57900Y91973*
X58044Y91954*
X58035Y91827*
X43944*
X43935Y91954*
X44079Y91973*
X44326Y92076*
X44539Y92238*
X44701Y92451*
X44804Y92698*
X44839Y92963*
X44804Y93228*
X44701Y93475*
X44539Y93688*
X44326Y93850*
X44079Y93953*
X43814Y93988*
X43549Y93953*
X43302Y93850*
X43089Y93688*
X42927Y93475*
X42824Y93228*
X42789Y92963*
X42824Y92698*
X42927Y92451*
X43089Y92238*
X43302Y92076*
X43549Y91973*
X43693Y91954*
X43684Y91827*
X36324*
X36315Y91954*
X36459Y91973*
X36706Y92076*
X36919Y92238*
X37081Y92451*
X37184Y92698*
X37202Y92836*
X35186*
X35204Y92698*
X35307Y92451*
X35469Y92238*
X35682Y92076*
X35929Y91973*
X36073Y91954*
X36064Y91827*
X30812*
X30677Y91918*
X30479Y91957*
X30281Y91918*
X30113Y91805*
X30000Y91637*
X29961Y91439*
X30000Y91241*
X30113Y91073*
X30281Y90960*
X30479Y90921*
X30513Y90928*
X30603Y90838*
X30596Y90804*
X30635Y90606*
X30748Y90438*
X30916Y90325*
X31114Y90286*
X31148Y90293*
X31238Y90203*
X31231Y90169*
X31270Y89971*
X31383Y89803*
X31551Y89690*
X31749Y89651*
X31783Y89658*
X31873Y89568*
X31866Y89534*
X31905Y89336*
X32018Y89168*
X32186Y89055*
X32384Y89016*
X32418Y89023*
X32508Y88933*
X32501Y88899*
X32540Y88701*
X32653Y88533*
X32821Y88420*
X33019Y88381*
X33053Y88388*
X33143Y88298*
X33136Y88264*
X33175Y88066*
X33288Y87898*
X33456Y87785*
X33654Y87746*
X33688Y87753*
X33778Y87663*
X33771Y87629*
X33810Y87431*
X33923Y87263*
X34091Y87150*
X34289Y87111*
X34323Y87118*
X34413Y87028*
X34406Y86994*
X34445Y86796*
X34558Y86628*
X34726Y86515*
X34924Y86476*
X35122Y86515*
X35257Y86606*
X74596*
X74731Y86515*
X74929Y86476*
X75127Y86515*
X75262Y86606*
X81309*
X81322Y86479*
X81208Y86457*
X81040Y86344*
X80927Y86176*
X80888Y85978*
X80927Y85780*
X81018Y85645*
Y61882*
X78705Y59569*
X58292*
X58143Y59540*
X58017Y59456*
X54461Y55900*
X54377Y55774*
X54348Y55625*
Y53369*
X54227Y53328*
X54157Y53420*
X53947Y53581*
X53703Y53682*
X53441Y53717*
X53179Y53682*
X52934Y53581*
X52725Y53420*
X52564Y53210*
X52462Y52966*
X52428Y52704*
X52462Y52442*
X52564Y52198*
X52725Y51988*
X52934Y51827*
X53179Y51726*
X53441Y51691*
X53703Y51726*
X53947Y51827*
X54157Y51988*
X54227Y52080*
X54348Y52039*
Y51409*
X54377Y51260*
X54461Y51134*
X55051Y50544*
X55002Y50426*
X54968Y50164*
X55002Y49902*
X55104Y49658*
X55265Y49448*
X55323Y49403*
X55283Y49282*
X54139*
X54098Y49403*
X54157Y49448*
X54318Y49658*
X54419Y49902*
X54453Y50164*
X54419Y50426*
X54318Y50670*
X54157Y50880*
X53947Y51041*
X53703Y51142*
X53441Y51177*
X53179Y51142*
X52934Y51041*
X52725Y50880*
X52705Y50854*
X52584Y50895*
Y51409*
X52555Y51557*
X52471Y51683*
X51830Y52324*
X51879Y52442*
X51913Y52704*
X51879Y52966*
X51778Y53210*
X51617Y53420*
X51407Y53581*
X51163Y53682*
X50901Y53717*
X50638Y53682*
X50394Y53581*
X50185Y53420*
X50024Y53210*
X49922Y52966*
X49888Y52704*
X49922Y52442*
X50024Y52198*
X50185Y51988*
X50394Y51827*
X50638Y51726*
X50901Y51691*
X51163Y51726*
X51281Y51775*
X51808Y51248*
Y50829*
X51687Y50788*
X51617Y50880*
X51407Y51041*
X51163Y51142*
X50901Y51177*
X50638Y51142*
X50394Y51041*
X50185Y50880*
X50024Y50670*
X49922Y50426*
X49888Y50164*
X49922Y49902*
X50024Y49658*
X50185Y49448*
X50394Y49287*
X50638Y49186*
X50901Y49151*
X51163Y49186*
X51407Y49287*
X51617Y49448*
X51687Y49540*
X51808Y49499*
Y49402*
X51837Y49253*
X51921Y49127*
X52429Y48619*
X52555Y48535*
X52704Y48506*
X57276*
X57425Y48535*
X57551Y48619*
X58313Y49381*
X58397Y49507*
X58426Y49656*
Y55845*
X59596Y57015*
X100837*
X100986Y57044*
X101112Y57128*
X105049Y61065*
X105133Y61191*
X105162Y61340*
Y84454*
X105133Y84603*
X105049Y84729*
X104160Y85618*
X104034Y85702*
X103885Y85731*
X102538*
X102486Y85855*
X102324Y86068*
X102111Y86230*
X101864Y86333*
X101599Y86368*
X101334Y86333*
X101087Y86230*
X100874Y86068*
X100712Y85855*
X100609Y85608*
X100574Y85343*
X100609Y85078*
X100712Y84831*
X100874Y84618*
X101087Y84456*
X101334Y84353*
X101599Y84318*
X101864Y84353*
X102111Y84456*
X102324Y84618*
X102486Y84831*
X102538Y84955*
X103724*
X104386Y84293*
Y61501*
X100676Y57791*
X100032*
X100020Y57918*
X100097Y57933*
X100223Y58017*
X103779Y61573*
X103863Y61699*
X103892Y61848*
Y83740*
X103983Y83875*
X104022Y84073*
X103983Y84271*
X103870Y84439*
X103702Y84552*
X103504Y84591*
X103306Y84552*
X103138Y84439*
X103025Y84271*
X102986Y84073*
X103025Y83875*
X103116Y83740*
Y62009*
X99787Y58680*
X78950*
X78938Y58807*
X79015Y58822*
X79141Y58906*
X81681Y61446*
X81765Y61572*
X81794Y61721*
Y85645*
X81885Y85780*
X81924Y85978*
X81885Y86176*
X81772Y86344*
X81604Y86457*
X81490Y86479*
X81503Y86606*
X114601*
X114736Y86515*
X114934Y86476*
X115132Y86515*
X115300Y86628*
X115413Y86796*
X115452Y86994*
X115413Y87192*
X115300Y87360*
X115132Y87473*
X114934Y87512*
X114900Y87505*
X114810Y87595*
X114817Y87629*
X114778Y87827*
X114665Y87995*
X114497Y88108*
X114299Y88147*
X114265Y88140*
X114175Y88230*
X114182Y88264*
X114143Y88462*
X114030Y88630*
X113862Y88743*
X113664Y88782*
X113630Y88775*
X113540Y88865*
X113547Y88899*
X113508Y89097*
X113395Y89265*
X113227Y89378*
X113029Y89417*
X112995Y89410*
X112905Y89500*
X112912Y89534*
X112873Y89732*
X112760Y89900*
X112592Y90013*
X112394Y90052*
X112360Y90045*
X112270Y90135*
X112277Y90169*
X112238Y90367*
X112125Y90535*
X111957Y90648*
X111759Y90687*
X111725Y90680*
X111635Y90770*
X111642Y90804*
X111603Y91002*
X111490Y91170*
X111322Y91283*
X111124Y91322*
X111090Y91315*
X111000Y91405*
X111007Y91439*
X110968Y91637*
X110855Y91805*
X110687Y91918*
X110489Y91957*
X110333Y91926*
X110235Y92007*
Y92836*
X108203*
Y91947*
Y91917*
X108113Y91827*
X103601*
X103588Y91954*
X103702Y91976*
X103870Y92089*
X103983Y92257*
X104022Y92455*
X103983Y92653*
X103892Y92788*
Y113918*
X103863Y114067*
X103779Y114193*
X102538Y115434*
X102589Y115558*
X102624Y115823*
X102589Y116088*
X102486Y116335*
X102324Y116548*
X102111Y116710*
X101864Y116813*
X101599Y116848*
X101334Y116813*
X101087Y116710*
X100874Y116548*
X100712Y116335*
X100609Y116088*
X100574Y115823*
X100609Y115558*
X100712Y115311*
X100874Y115098*
X101087Y114936*
X101334Y114833*
X101599Y114798*
X101864Y114833*
X101988Y114884*
X103116Y113757*
Y92788*
X103025Y92653*
X102986Y92455*
X103025Y92257*
X103138Y92089*
X103306Y91976*
X103420Y91954*
X103407Y91827*
X101729*
X101720Y91954*
X101864Y91973*
X102111Y92076*
X102324Y92238*
X102486Y92451*
X102589Y92698*
X102624Y92963*
X102589Y93228*
X102486Y93475*
X102324Y93688*
X102111Y93850*
X101864Y93953*
X101599Y93988*
X101334Y93953*
X101087Y93850*
X100932Y93732*
X98939*
Y115156*
X99057Y115311*
X99160Y115558*
X99195Y115823*
X99160Y116088*
X99057Y116335*
X98895Y116548*
X98682Y116710*
X98435Y116813*
X98170Y116848*
X97905Y116813*
X97658Y116710*
X97503Y116592*
X84486*
X84331Y116710*
X84084Y116813*
X83891Y116838*
X82203Y118525*
X82044Y118648*
X81990Y118670*
X81859Y118724*
X81660Y118751*
X60324*
G37*
G36*
X116758Y118251D02*
X116687D01*
X116666*
X115158*
Y117800*
X114807*
X114634Y117766*
X114487Y117667*
X112836Y116016*
X112737Y115869*
X112703Y115696*
Y108711*
X112737Y108538*
X112836Y108391*
X114481Y106745*
Y101726*
X114515Y101553*
X114614Y101406*
X116265Y99755*
X116412Y99656*
X116585Y99622*
X117794*
X118418Y98998*
Y95566*
X116014*
Y93770*
X115965Y93697*
X115945Y93598*
Y91820*
X115965Y91721*
X116021Y91637*
X116105Y91581*
X116204Y91561*
X126491*
X126590Y91581*
X126674Y91637*
X126730Y91721*
X126750Y91820*
Y92570*
X128269*
Y92455*
X130641*
X130805Y92330*
X131052Y92227*
X131317Y92192*
X131582Y92227*
X131829Y92330*
X132042Y92492*
X132204Y92705*
X132307Y92952*
X132342Y93217*
X132307Y93482*
X132204Y93729*
X132042Y93942*
X131829Y94104*
X131582Y94207*
X131317Y94242*
X131052Y94207*
X130805Y94104*
X130641Y93979*
X128269*
Y93864*
X126237*
X126199Y93857*
X120204*
Y95566*
X119324*
Y99186*
X119290Y99359*
X119241Y99433*
X119191Y99506*
X118302Y100395*
X118155Y100494*
X117982Y100528*
X116773*
X115387Y101914*
Y106933*
X115353Y107106*
X115254Y107253*
X113609Y108899*
Y115508*
X114995Y116894*
X115158*
Y116443*
X116666*
X116758*
X118266*
Y116894*
X118460*
Y116443*
X119968*
X120060*
X120313*
Y114845*
X120287*
Y112160*
Y112137*
X120268Y112118*
Y110743*
X121945*
Y112047*
Y112070*
X122012Y112137*
X122495*
Y113022*
X123501*
Y112821*
Y112729*
Y111421*
X124909*
Y111622*
X125597*
Y109224*
X121945*
Y110489*
X118337*
Y109162*
X118270Y109095*
X117787*
Y107868*
X118266*
Y107741*
X118393*
Y106387*
X118739*
Y105600*
X116014*
Y102044*
X118826*
X118899Y101995*
X118998Y101975*
X120014*
X120113Y101995*
X120186Y102044*
X120204*
Y102062*
X120253Y102135*
X120273Y102234*
Y103621*
X123120*
Y103420*
X124528*
Y104728*
Y104820*
Y106128*
X123120*
Y105927*
X121534*
X121221Y106240*
X121252Y106363*
X121331Y106387*
X121343*
X121355Y106369*
X121439Y106313*
X121538Y106293*
X126860*
Y101748*
X126831Y101726*
X124459*
Y100202*
X126831*
X126995Y100077*
X127242Y99974*
X127507Y99939*
X127772Y99974*
X128019Y100077*
X128232Y100239*
X128394Y100452*
X128497Y100699*
X128532Y100964*
X128497Y101229*
X128394Y101476*
X128232Y101689*
X128154Y101748*
Y106293*
X128650*
X128749Y106313*
X128833Y106369*
X128889Y106453*
X128909Y106552*
Y108965*
Y113283*
X128889Y113382*
X128833Y113466*
X128749Y113522*
X128650Y113542*
X125856*
X125757Y113522*
X125673Y113466*
X125617Y113382*
X125597Y113283*
Y112528*
X124909*
Y112729*
Y112821*
Y114129*
X123501*
Y113928*
X122495*
Y114845*
X121537*
Y112160*
Y112137*
X121470Y112070*
X121312*
X121245Y112137*
Y112160*
Y114845*
X121219*
Y116443*
X121568*
Y116894*
X121835*
Y116643*
X123143*
X123235*
X123762*
Y117347*
Y118051*
X123235*
X123143*
X121835*
Y117800*
X121568*
Y118251*
X120060*
X119968*
X118460*
Y117800*
X118266*
Y118251*
X116758*
G37*
G36*
X124543Y118051D02*
X124016D01*
Y117474*
X124543*
Y118051*
G37*
G36*
X29336Y118456D02*
Y116331D01*
X31461*
X31430Y116646*
X31301Y117071*
X31092Y117462*
X30811Y117806*
X30467Y118087*
X30076Y118297*
X29651Y118425*
X29336Y118456*
G37*
G36*
X29082D02*
X28767Y118425D01*
X28342Y118297*
X27951Y118087*
X27607Y117806*
X27326Y117462*
X27117Y117071*
X26988Y116646*
X26957Y116331*
X29082*
Y118456*
G37*
G36*
X135381D02*
Y116331D01*
X137506*
X137475Y116646*
X137347Y117071*
X137137Y117462*
X136856Y117806*
X136512Y118087*
X136121Y118297*
X135696Y118425*
X135381Y118456*
G37*
G36*
X135127D02*
X134812Y118425D01*
X134387Y118297*
X133996Y118087*
X133652Y117806*
X133371Y117462*
X133162Y117071*
X133033Y116646*
X133002Y116331*
X135127*
Y118456*
G37*
G36*
X36067Y115696D02*
X35178D01*
Y114807*
X36067*
Y115696*
G37*
G36*
X36194Y111768D02*
X35929Y111733D01*
X35682Y111630*
X35469Y111468*
X35307Y111255*
X35255Y111131*
X31447*
X31312Y111222*
X31114Y111261*
X30916Y111222*
X30748Y111109*
X30635Y110941*
X30596Y110743*
X30635Y110545*
X30748Y110377*
X30916Y110264*
X31114Y110225*
X31312Y110264*
X31447Y110355*
X35255*
X35307Y110231*
X35469Y110018*
X35682Y109856*
X35929Y109753*
X36194Y109718*
X36459Y109753*
X36706Y109856*
X36919Y110018*
X37081Y110231*
X37184Y110478*
X37219Y110743*
X37184Y111008*
X37081Y111255*
X36919Y111468*
X36706Y111630*
X36459Y111733*
X36194Y111768*
G37*
G36*
X109219D02*
X108954Y111733D01*
X108707Y111630*
X108494Y111468*
X108332Y111255*
X108229Y111008*
X108194Y110743*
X108229Y110478*
X108332Y110231*
X108494Y110018*
X108707Y109856*
X108954Y109753*
X109219Y109718*
X109484Y109753*
X109731Y109856*
X109944Y110018*
X110106Y110231*
X110158Y110355*
X110791*
X110926Y110264*
X111124Y110225*
X111322Y110264*
X111490Y110377*
X111603Y110545*
X111642Y110743*
X111603Y110941*
X111490Y111109*
X111322Y111222*
X111124Y111261*
X110926Y111222*
X110791Y111131*
X110158*
X110106Y111255*
X109944Y111468*
X109731Y111630*
X109484Y111733*
X109219Y111768*
G37*
G36*
X101599Y114308D02*
X101334Y114273D01*
X101087Y114170*
X100874Y114008*
X100712Y113795*
X100609Y113548*
X100574Y113283*
X100609Y113018*
X100712Y112771*
X100874Y112558*
X101087Y112396*
X101334Y112293*
X101599Y112258*
X101864Y112293*
X102111Y112396*
X102324Y112558*
X102486Y112771*
X102589Y113018*
X102624Y113283*
X102589Y113548*
X102486Y113795*
X102324Y114008*
X102111Y114170*
X101864Y114273*
X101599Y114308*
G37*
G36*
X43814D02*
X43549Y114273D01*
X43302Y114170*
X43089Y114008*
X42927Y113795*
X42824Y113548*
X42789Y113283*
X42824Y113018*
X42927Y112771*
X43089Y112558*
X43302Y112396*
X43549Y112293*
X43814Y112258*
X44079Y112293*
X44326Y112396*
X44539Y112558*
X44701Y112771*
X44804Y113018*
X44839Y113283*
X44804Y113548*
X44701Y113795*
X44539Y114008*
X44326Y114170*
X44079Y114273*
X43814Y114308*
G37*
G36*
X51434Y111781D02*
X51172Y111747D01*
X50928Y111645*
X50718Y111484*
X50557Y111275*
X50456Y111031*
X50421Y110768*
X50456Y110506*
X50557Y110262*
X50718Y110052*
X50928Y109891*
X51172Y109790*
X51434Y109756*
X51696Y109790*
X51940Y109891*
X52150Y110052*
X52311Y110262*
X52412Y110506*
X52447Y110768*
X52412Y111031*
X52311Y111275*
X52150Y111484*
X51940Y111645*
X51696Y111747*
X51434Y111781*
G37*
G36*
X101599Y111768D02*
X101334Y111733D01*
X101087Y111630*
X100874Y111468*
X100712Y111255*
X100609Y111008*
X100574Y110743*
X100609Y110478*
X100712Y110231*
X100874Y110018*
X101087Y109856*
X101334Y109753*
X101599Y109718*
X101864Y109753*
X102111Y109856*
X102324Y110018*
X102486Y110231*
X102589Y110478*
X102624Y110743*
X102589Y111008*
X102486Y111255*
X102324Y111468*
X102111Y111630*
X101864Y111733*
X101599Y111768*
G37*
G36*
X128657Y117826D02*
X125849D01*
Y115018*
X128657*
X128774Y115066*
X132720Y111120*
X132762Y110797*
X132889Y110492*
X133090Y110230*
X133352Y110029*
X133657Y109902*
X133984Y109859*
X134311Y109902*
X134616Y110029*
X134878Y110230*
X135079Y110492*
X135206Y110797*
X135249Y111124*
X135206Y111451*
X135079Y111756*
X134878Y112018*
X134616Y112219*
X134311Y112346*
X133988Y112388*
X129320Y117056*
X129134Y117199*
X128918Y117288*
X128686Y117319*
X128657*
Y117826*
G37*
G36*
X53974Y111781D02*
X53712Y111747D01*
X53468Y111645*
X53258Y111484*
X53097Y111275*
X52996Y111031*
X52961Y110768*
X52996Y110506*
X53097Y110262*
X53258Y110052*
X53468Y109891*
X53712Y109790*
X53974Y109756*
X54236Y109790*
X54480Y109891*
X54690Y110052*
X54851Y110262*
X54952Y110506*
X54987Y110768*
X54952Y111031*
X54851Y111275*
X54690Y111484*
X54480Y111645*
X54236Y111747*
X53974Y111781*
G37*
G36*
X31461Y116077D02*
X29336D01*
Y113952*
X29651Y113983*
X30076Y114112*
X30467Y114321*
X30811Y114602*
X31092Y114946*
X31301Y115337*
X31430Y115762*
X31461Y116077*
G37*
G36*
X29082D02*
X26957D01*
X26988Y115762*
X27117Y115337*
X27326Y114946*
X27607Y114602*
X27951Y114321*
X28342Y114112*
X28767Y113983*
X29082Y113952*
Y116077*
G37*
G36*
X137506D02*
X135381D01*
Y113952*
X135696Y113983*
X136121Y114112*
X136512Y114321*
X136856Y114602*
X137137Y114946*
X137347Y115337*
X137475Y115762*
X137506Y116077*
G37*
G36*
X135127D02*
X133002D01*
X133033Y115762*
X133162Y115337*
X133371Y114946*
X133652Y114602*
X133996Y114321*
X134387Y114112*
X134812Y113983*
X135127Y113952*
Y116077*
G37*
G36*
X52438Y114312D02*
X50430D01*
Y112304*
X52438*
Y114312*
G37*
G36*
X53974Y114321D02*
X53712Y114287D01*
X53468Y114185*
X53258Y114024*
X53097Y113815*
X52996Y113571*
X52961Y113308*
X52996Y113046*
X53097Y112802*
X53258Y112592*
X53468Y112431*
X53712Y112330*
X53974Y112296*
X54236Y112330*
X54480Y112431*
X54690Y112592*
X54851Y112802*
X54952Y113046*
X54987Y113308*
X54952Y113571*
X54851Y113815*
X54690Y114024*
X54480Y114185*
X54236Y114287*
X53974Y114321*
G37*
G36*
X36194Y114308D02*
X35929Y114273D01*
X35682Y114170*
X35469Y114008*
X35307Y113795*
X35255Y113671*
X30812*
X30677Y113762*
X30479Y113801*
X30281Y113762*
X30113Y113649*
X30000Y113481*
X29961Y113283*
X30000Y113085*
X30113Y112917*
X30281Y112804*
X30479Y112765*
X30677Y112804*
X30812Y112895*
X35255*
X35307Y112771*
X35469Y112558*
X35682Y112396*
X35929Y112293*
X36194Y112258*
X36459Y112293*
X36706Y112396*
X36919Y112558*
X37081Y112771*
X37184Y113018*
X37219Y113283*
X37184Y113548*
X37081Y113795*
X36919Y114008*
X36706Y114170*
X36459Y114273*
X36194Y114308*
G37*
G36*
X109219D02*
X108954Y114273D01*
X108707Y114170*
X108494Y114008*
X108332Y113795*
X108229Y113548*
X108194Y113283*
X108229Y113018*
X108332Y112771*
X108494Y112558*
X108707Y112396*
X108954Y112293*
X109219Y112258*
X109484Y112293*
X109731Y112396*
X109944Y112558*
X110106Y112771*
X110119Y112801*
X110241Y112838*
X110291Y112804*
X110489Y112765*
X110687Y112804*
X110855Y112917*
X110968Y113085*
X111007Y113283*
X110968Y113481*
X110855Y113649*
X110687Y113762*
X110489Y113801*
X110291Y113762*
X110241Y113728*
X110119Y113765*
X110106Y113795*
X109944Y114008*
X109731Y114170*
X109484Y114273*
X109219Y114308*
G37*
G36*
X125602Y96262D02*
X125340Y96227D01*
X125096Y96126*
X124886Y95965*
X124725Y95755*
X124624Y95511*
X124589Y95249*
X124624Y94987*
X124725Y94743*
X124886Y94533*
X125096Y94372*
X125340Y94271*
X125602Y94236*
X125864Y94271*
X126108Y94372*
X126318Y94533*
X126479Y94743*
X126580Y94987*
X126615Y95249*
X126580Y95511*
X126479Y95755*
X126318Y95965*
X126108Y96126*
X125864Y96227*
X125602Y96262*
G37*
G36*
X43814Y96528D02*
X43549Y96493D01*
X43302Y96390*
X43089Y96228*
X42927Y96015*
X42824Y95768*
X42789Y95503*
X42824Y95238*
X42927Y94991*
X43089Y94778*
X43302Y94616*
X43549Y94513*
X43814Y94478*
X44079Y94513*
X44326Y94616*
X44539Y94778*
X44701Y94991*
X44804Y95238*
X44839Y95503*
X44804Y95768*
X44701Y96015*
X44539Y96228*
X44326Y96390*
X44079Y96493*
X43814Y96528*
G37*
G36*
X51434Y96541D02*
X51172Y96507D01*
X50928Y96405*
X50718Y96244*
X50557Y96035*
X50456Y95790*
X50421Y95528*
X50456Y95266*
X50557Y95022*
X50718Y94812*
X50928Y94651*
X51172Y94550*
X51434Y94516*
X51696Y94550*
X51940Y94651*
X52150Y94812*
X52311Y95022*
X52412Y95266*
X52447Y95528*
X52412Y95790*
X52311Y96035*
X52150Y96244*
X51940Y96405*
X51696Y96507*
X51434Y96541*
G37*
G36*
X137159Y93090D02*
X135762D01*
Y92455*
X137159*
Y93090*
G37*
G36*
X134238Y94225D02*
Y93217D01*
Y92209*
X134376Y92227*
X134623Y92330*
X134787Y92455*
X135508*
Y93217*
Y93979*
X134787*
X134623Y94104*
X134376Y94207*
X134238Y94225*
G37*
G36*
X101599Y99068D02*
X101334Y99033D01*
X101087Y98930*
X100874Y98768*
X100712Y98555*
X100609Y98308*
X100574Y98043*
X100609Y97778*
X100712Y97531*
X100874Y97318*
X101087Y97156*
X101334Y97053*
X101599Y97018*
X101864Y97053*
X102111Y97156*
X102324Y97318*
X102486Y97531*
X102589Y97778*
X102624Y98043*
X102589Y98308*
X102486Y98555*
X102324Y98768*
X102111Y98930*
X101864Y99033*
X101599Y99068*
G37*
G36*
X122554Y89519D02*
Y89153D01*
X122920*
X122906Y89224*
X122793Y89392*
X122625Y89505*
X122554Y89519*
G37*
G36*
X122300D02*
X122229Y89505D01*
X122061Y89392*
X121948Y89224*
X121934Y89153*
X122300*
Y89519*
G37*
G36*
X53974Y99081D02*
X53712Y99047D01*
X53468Y98945*
X53258Y98784*
X53097Y98575*
X52996Y98330*
X52961Y98068*
X52996Y97806*
X53097Y97562*
X53258Y97352*
X53468Y97191*
X53712Y97090*
X53974Y97056*
X54236Y97090*
X54480Y97191*
X54690Y97352*
X54851Y97562*
X54952Y97806*
X54987Y98068*
X54952Y98330*
X54851Y98575*
X54690Y98784*
X54480Y98945*
X54236Y99047*
X53974Y99081*
G37*
G36*
X51434D02*
X51172Y99047D01*
X50928Y98945*
X50718Y98784*
X50557Y98575*
X50456Y98330*
X50421Y98068*
X50456Y97806*
X50557Y97562*
X50718Y97352*
X50928Y97191*
X51172Y97090*
X51434Y97056*
X51696Y97090*
X51940Y97191*
X52150Y97352*
X52311Y97562*
X52412Y97806*
X52447Y98068*
X52412Y98330*
X52311Y98575*
X52150Y98784*
X51940Y98945*
X51696Y99047*
X51434Y99081*
G37*
G36*
X133984Y93090D02*
X133103D01*
X133121Y92952*
X133224Y92705*
X133386Y92492*
X133599Y92330*
X133846Y92227*
X133984Y92209*
Y93090*
G37*
G36*
X36194Y96528D02*
X35929Y96493D01*
X35682Y96390*
X35469Y96228*
X35307Y96015*
X35294Y95985*
X35172Y95948*
X35122Y95982*
X34924Y96021*
X34726Y95982*
X34558Y95869*
X34445Y95701*
X34406Y95503*
X34445Y95305*
X34558Y95137*
X34726Y95024*
X34924Y94985*
X35122Y95024*
X35172Y95058*
X35294Y95021*
X35307Y94991*
X35469Y94778*
X35682Y94616*
X35929Y94513*
X36194Y94478*
X36459Y94513*
X36706Y94616*
X36919Y94778*
X37081Y94991*
X37184Y95238*
X37219Y95503*
X37184Y95768*
X37081Y96015*
X36919Y96228*
X36706Y96390*
X36459Y96493*
X36194Y96528*
G37*
G36*
X109219D02*
X108954Y96493D01*
X108707Y96390*
X108494Y96228*
X108332Y96015*
X108229Y95768*
X108194Y95503*
X108229Y95238*
X108332Y94991*
X108494Y94778*
X108707Y94616*
X108954Y94513*
X109219Y94478*
X109484Y94513*
X109731Y94616*
X109944Y94778*
X110106Y94991*
X110158Y95115*
X114601*
X114736Y95024*
X114934Y94985*
X115132Y95024*
X115300Y95137*
X115413Y95305*
X115452Y95503*
X115413Y95701*
X115300Y95869*
X115132Y95982*
X114934Y96021*
X114736Y95982*
X114601Y95891*
X110158*
X110106Y96015*
X109944Y96228*
X109731Y96390*
X109484Y96493*
X109219Y96528*
G37*
G36*
X109092Y93979D02*
X108203D01*
Y93090*
X109092*
Y93979*
G37*
G36*
X110235D02*
X109346D01*
Y93090*
X110235*
Y93979*
G37*
G36*
X133984Y94225D02*
X133846Y94207D01*
X133599Y94104*
X133386Y93942*
X133224Y93729*
X133121Y93482*
X133103Y93344*
X133984*
Y94225*
G37*
G36*
X116585Y98941D02*
X116320Y98906D01*
X116073Y98803*
X115860Y98641*
X115698Y98428*
X115595Y98181*
X115560Y97916*
X115595Y97651*
X115698Y97404*
X115860Y97191*
X116073Y97029*
X116320Y96926*
X116585Y96891*
X116850Y96926*
X117097Y97029*
X117310Y97191*
X117472Y97404*
X117575Y97651*
X117610Y97916*
X117575Y98181*
X117472Y98428*
X117310Y98641*
X117097Y98803*
X116850Y98906*
X116585Y98941*
G37*
G36*
X36321Y93971D02*
Y93090D01*
X37202*
X37184Y93228*
X37081Y93475*
X36919Y93688*
X36706Y93850*
X36459Y93953*
X36321Y93971*
G37*
G36*
X36067D02*
X35929Y93953D01*
X35682Y93850*
X35469Y93688*
X35307Y93475*
X35204Y93228*
X35186Y93090*
X36067*
Y93971*
G37*
G36*
X53974Y96541D02*
X53712Y96507D01*
X53468Y96405*
X53258Y96244*
X53097Y96035*
X52996Y95790*
X52961Y95528*
X52996Y95266*
X53097Y95022*
X53258Y94812*
X53468Y94651*
X53712Y94550*
X53974Y94516*
X54236Y94550*
X54480Y94651*
X54690Y94812*
X54851Y95022*
X54952Y95266*
X54987Y95528*
X54952Y95790*
X54851Y96035*
X54690Y96244*
X54480Y96405*
X54236Y96507*
X53974Y96541*
G37*
G36*
X43814Y99068D02*
X43549Y99033D01*
X43302Y98930*
X43089Y98768*
X42927Y98555*
X42824Y98308*
X42789Y98043*
X42824Y97778*
X42927Y97531*
X43089Y97318*
X43302Y97156*
X43549Y97053*
X43814Y97018*
X44079Y97053*
X44326Y97156*
X44539Y97318*
X44701Y97531*
X44804Y97778*
X44839Y98043*
X44804Y98308*
X44701Y98555*
X44539Y98768*
X44326Y98930*
X44079Y99033*
X43814Y99068*
G37*
G36*
X137159Y93979D02*
X135762D01*
Y93344*
X137159*
Y93979*
G37*
G36*
X124340Y86809D02*
X123813D01*
Y86232*
X124340*
Y86809*
G37*
G36*
X98170Y86368D02*
X97905Y86333D01*
X97658Y86230*
X97503Y86112*
X84486*
X84331Y86230*
X84084Y86333*
X83819Y86368*
X83554Y86333*
X83307Y86230*
X83094Y86068*
X82932Y85855*
X82829Y85608*
X82794Y85343*
X82829Y85078*
X82932Y84831*
X83094Y84618*
X83307Y84456*
X83554Y84353*
X83819Y84318*
X84084Y84353*
X84331Y84456*
X84486Y84574*
X97401*
Y63499*
X97428Y63300*
X97482Y63169*
X97504Y63115*
X97627Y62956*
X98643Y61940*
X98733Y61870*
X98802Y61817*
X98987Y61741*
X99186Y61714*
X100932*
X101087Y61596*
X101334Y61493*
X101599Y61458*
X101864Y61493*
X102111Y61596*
X102324Y61758*
X102486Y61971*
X102589Y62218*
X102624Y62483*
X102589Y62748*
X102486Y62995*
X102324Y63208*
X102111Y63370*
X101864Y63473*
X101599Y63508*
X101334Y63473*
X101087Y63370*
X100932Y63252*
X99504*
X98939Y63817*
Y84676*
X99057Y84831*
X99160Y85078*
X99195Y85343*
X99160Y85608*
X99057Y85855*
X98895Y86068*
X98682Y86230*
X98435Y86333*
X98170Y86368*
G37*
G36*
X101599Y101608D02*
X101334Y101573D01*
X101087Y101470*
X100874Y101308*
X100712Y101095*
X100609Y100848*
X100574Y100583*
X100609Y100318*
X100712Y100071*
X100874Y99858*
X101087Y99696*
X101334Y99593*
X101599Y99558*
X101864Y99593*
X102111Y99696*
X102324Y99858*
X102486Y100071*
X102589Y100318*
X102624Y100583*
X102589Y100848*
X102486Y101095*
X102324Y101308*
X102111Y101470*
X101864Y101573*
X101599Y101608*
G37*
G36*
X136524Y100757D02*
X136249Y100721D01*
X135992Y100615*
X135772Y100446*
X135603Y100226*
X135497Y99969*
X135461Y99694*
X135497Y99419*
X135603Y99162*
X135772Y98942*
X135992Y98773*
X136249Y98667*
X136524Y98631*
X136799Y98667*
X137056Y98773*
X137276Y98942*
X137445Y99162*
X137551Y99419*
X137587Y99694*
X137551Y99969*
X137445Y100226*
X137276Y100446*
X137056Y100615*
X136799Y100721*
X136524Y100757*
G37*
G36*
X43814Y101608D02*
X43549Y101573D01*
X43302Y101470*
X43089Y101308*
X42927Y101095*
X42824Y100848*
X42789Y100583*
X42824Y100318*
X42927Y100071*
X43089Y99858*
X43302Y99696*
X43549Y99593*
X43814Y99558*
X44079Y99593*
X44326Y99696*
X44539Y99858*
X44701Y100071*
X44804Y100318*
X44839Y100583*
X44804Y100848*
X44701Y101095*
X44539Y101308*
X44326Y101470*
X44079Y101573*
X43814Y101608*
G37*
G36*
X135973Y86809D02*
X135446D01*
Y86232*
X135973*
Y86809*
G37*
G36*
X53974Y101621D02*
X53712Y101587D01*
X53468Y101485*
X53258Y101324*
X53097Y101115*
X52996Y100870*
X52961Y100608*
X52996Y100346*
X53097Y100102*
X53258Y99892*
X53468Y99731*
X53712Y99630*
X53974Y99596*
X54236Y99630*
X54480Y99731*
X54690Y99892*
X54851Y100102*
X54952Y100346*
X54987Y100608*
X54952Y100870*
X54851Y101115*
X54690Y101324*
X54480Y101485*
X54236Y101587*
X53974Y101621*
G37*
G36*
X109092Y86351D02*
X108954Y86333D01*
X108707Y86230*
X108494Y86068*
X108332Y85855*
X108229Y85608*
X108211Y85470*
X109092*
Y86351*
G37*
G36*
X77215Y86359D02*
X76326D01*
Y85470*
X77215*
Y86359*
G37*
G36*
X58165Y86368D02*
X57900Y86333D01*
X57653Y86230*
X57498Y86112*
X44481*
X44326Y86230*
X44079Y86333*
X43814Y86368*
X43549Y86333*
X43302Y86230*
X43089Y86068*
X42927Y85855*
X42824Y85608*
X42789Y85343*
X42824Y85078*
X42927Y84831*
X43089Y84618*
X43302Y84456*
X43549Y84353*
X43814Y84318*
X44079Y84353*
X44326Y84456*
X44481Y84574*
X57396*
Y63499*
X57423Y63300*
X57477Y63169*
X57499Y63115*
X57622Y62956*
X58638Y61940*
X58728Y61870*
X58797Y61817*
X58982Y61741*
X59181Y61714*
X60927*
X61082Y61596*
X61329Y61493*
X61594Y61458*
X61859Y61493*
X62106Y61596*
X62319Y61758*
X62481Y61971*
X62584Y62218*
X62619Y62483*
X62584Y62748*
X62481Y62995*
X62319Y63208*
X62106Y63370*
X61859Y63473*
X61594Y63508*
X61329Y63473*
X61082Y63370*
X60927Y63252*
X59499*
X58934Y63817*
Y84676*
X59052Y84831*
X59155Y85078*
X59190Y85343*
X59155Y85608*
X59052Y85855*
X58890Y86068*
X58677Y86230*
X58430Y86333*
X58165Y86368*
G37*
G36*
X109346Y86351D02*
Y85470D01*
X110227*
X110209Y85608*
X110106Y85855*
X109944Y86068*
X109731Y86230*
X109484Y86333*
X109346Y86351*
G37*
G36*
X51434Y101621D02*
X51172Y101587D01*
X50928Y101485*
X50718Y101324*
X50557Y101115*
X50456Y100870*
X50421Y100608*
X50456Y100346*
X50557Y100102*
X50718Y99892*
X50928Y99731*
X51172Y99630*
X51434Y99596*
X51696Y99630*
X51940Y99731*
X52150Y99892*
X52311Y100102*
X52412Y100346*
X52447Y100608*
X52412Y100870*
X52311Y101115*
X52150Y101324*
X51940Y101485*
X51696Y101587*
X51434Y101621*
G37*
G36*
X109219Y99068D02*
X108954Y99033D01*
X108707Y98930*
X108494Y98768*
X108332Y98555*
X108229Y98308*
X108194Y98043*
X108229Y97778*
X108332Y97531*
X108494Y97318*
X108707Y97156*
X108954Y97053*
X109219Y97018*
X109484Y97053*
X109731Y97156*
X109944Y97318*
X110106Y97531*
X110158Y97655*
X113966*
X114101Y97564*
X114299Y97525*
X114497Y97564*
X114665Y97677*
X114778Y97845*
X114817Y98043*
X114778Y98241*
X114665Y98409*
X114497Y98522*
X114299Y98561*
X114101Y98522*
X113966Y98431*
X110158*
X110106Y98555*
X109944Y98768*
X109731Y98930*
X109484Y99033*
X109219Y99068*
G37*
G36*
X36194D02*
X35929Y99033D01*
X35682Y98930*
X35469Y98768*
X35307Y98555*
X35255Y98431*
X34622*
X34487Y98522*
X34289Y98561*
X34091Y98522*
X33923Y98409*
X33810Y98241*
X33771Y98043*
X33810Y97845*
X33923Y97677*
X34091Y97564*
X34289Y97525*
X34487Y97564*
X34622Y97655*
X35255*
X35307Y97531*
X35469Y97318*
X35682Y97156*
X35929Y97053*
X36194Y97018*
X36459Y97053*
X36706Y97156*
X36919Y97318*
X37081Y97531*
X37184Y97778*
X37219Y98043*
X37184Y98308*
X37081Y98555*
X36919Y98768*
X36706Y98930*
X36459Y99033*
X36194Y99068*
G37*
G36*
X122920Y88899D02*
X122554D01*
Y88533*
X122625Y88547*
X122793Y88660*
X122906Y88828*
X122920Y88899*
G37*
G36*
X101599Y96528D02*
X101334Y96493D01*
X101087Y96390*
X100874Y96228*
X100712Y96015*
X100609Y95768*
X100574Y95503*
X100609Y95238*
X100712Y94991*
X100874Y94778*
X101087Y94616*
X101334Y94513*
X101599Y94478*
X101864Y94513*
X102111Y94616*
X102324Y94778*
X102486Y94991*
X102589Y95238*
X102624Y95503*
X102589Y95768*
X102486Y96015*
X102324Y96228*
X102111Y96390*
X101864Y96493*
X101599Y96528*
G37*
G36*
X132587Y87614D02*
X132516Y87600D01*
X132348Y87487*
X132235Y87319*
X132221Y87248*
X132587*
Y87614*
G37*
G36*
X132841D02*
Y87248D01*
X133207*
X133193Y87319*
X133080Y87487*
X132912Y87600*
X132841Y87614*
G37*
G36*
X122300Y88899D02*
X121934D01*
X121948Y88828*
X122061Y88660*
X122229Y88547*
X122300Y88533*
Y88899*
G37*
%LNlp_led_cube_8x8x8-3*%
%LPD*%
G36*
X82804Y115751D02*
X82829Y115558D01*
X82932Y115311*
X83094Y115098*
X83307Y114936*
X83554Y114833*
X83819Y114798*
X84084Y114833*
X84331Y114936*
X84486Y115054*
X97401*
Y93630*
X97283Y93475*
X97180Y93228*
X97145Y92963*
X97180Y92698*
X97283Y92451*
X97445Y92238*
X97658Y92076*
X97905Y91973*
X98049Y91954*
X98040Y91827*
X83949*
X83940Y91954*
X84084Y91973*
X84331Y92076*
X84544Y92238*
X84706Y92451*
X84809Y92698*
X84844Y92963*
X84809Y93228*
X84706Y93475*
X84544Y93688*
X84331Y93850*
X84084Y93953*
X83819Y93988*
X83554Y93953*
X83307Y93850*
X83094Y93688*
X82932Y93475*
X82829Y93228*
X82794Y92963*
X82829Y92698*
X82932Y92451*
X83094Y92238*
X83307Y92076*
X83554Y91973*
X83698Y91954*
X83689Y91827*
X76329*
X76320Y91954*
X76464Y91973*
X76711Y92076*
X76924Y92238*
X77086Y92451*
X77189Y92698*
X77207Y92836*
X75191*
X75209Y92698*
X75312Y92451*
X75474Y92238*
X75687Y92076*
X75934Y91973*
X76078Y91954*
X76069Y91827*
X70817*
X70682Y91918*
X70484Y91957*
X70328Y91926*
X70230Y92007*
Y92836*
X68198*
Y91947*
Y91917*
X68108Y91827*
X63596*
X63583Y91954*
X63697Y91976*
X63865Y92089*
X63978Y92257*
X64017Y92455*
X63978Y92653*
X63887Y92788*
Y113918*
X63858Y114067*
X63774Y114193*
X62533Y115434*
X62584Y115558*
X62619Y115823*
X62584Y116088*
X62481Y116335*
X62319Y116548*
X62106Y116710*
X61859Y116813*
X61594Y116848*
X61329Y116813*
X61082Y116710*
X60869Y116548*
X60707Y116335*
X60604Y116088*
X60569Y115823*
X60604Y115558*
X60707Y115311*
X60869Y115098*
X61082Y114936*
X61329Y114833*
X61594Y114798*
X61859Y114833*
X61983Y114884*
X63111Y113757*
Y92788*
X63020Y92653*
X62981Y92455*
X63020Y92257*
X63133Y92089*
X63301Y91976*
X63415Y91954*
X63402Y91827*
X61724*
X61715Y91954*
X61859Y91973*
X62106Y92076*
X62319Y92238*
X62481Y92451*
X62584Y92698*
X62619Y92963*
X62584Y93228*
X62481Y93475*
X62319Y93688*
X62106Y93850*
X61859Y93953*
X61594Y93988*
X61329Y93953*
X61082Y93850*
X60927Y93732*
X58934*
Y115156*
X59052Y115311*
X59155Y115558*
X59180Y115751*
X60642Y117213*
X81342*
X82804Y115751*
G37*
G36*
X136138Y61297D02*
X136012Y61285D01*
X135987Y61411*
X135874Y61579*
X135706Y61692*
X135508Y61731*
X135320Y61694*
X135294Y61715*
X135222Y61823*
Y62582*
X134163*
X134114Y62699*
X134194Y62778*
X134236Y62841*
X134278Y62904*
X134281Y62922*
X134573*
X134665*
X135192*
Y63626*
Y64330*
X134665*
X134573*
X132873*
X132836Y64452*
X132953Y64530*
X133066Y64698*
X133080Y64769*
X132094*
X132108Y64698*
X132221Y64530*
X132338Y64452*
X132301Y64330*
X131998*
X131906*
X130598*
Y62922*
X130864*
Y61726*
X130174*
X130088Y61709*
X130056Y61735*
X129990Y61834*
Y65418*
X130056Y65517*
X130088Y65543*
X130174Y65526*
X131698*
X131797Y65546*
X131862Y65589*
X131906*
X131998*
X134573*
X134665*
X135973*
Y66923*
X136138*
Y61297*
G37*
G36*
Y76283D02*
X136012Y76271D01*
X135987Y76397*
X135874Y76565*
X135706Y76678*
X135508Y76717*
X135320Y76680*
X135294Y76701*
X135222Y76809*
Y77568*
X134163*
X134114Y77685*
X134194Y77764*
X134236Y77827*
X134278Y77890*
X134281Y77908*
X134573*
X134665*
X135192*
Y78612*
Y79316*
X134665*
X134573*
X132779*
Y78612*
X132525*
Y79316*
X131998*
X131906*
X130598*
Y77908*
X130864*
Y76712*
X130174*
X130075Y76692*
X129991Y76636*
X129935Y76552*
X129915Y76453*
Y74675*
Y74396*
X128787Y73268*
X128675Y73122*
X128646Y73052*
X128604Y72952*
X128592Y72859*
X128466Y72868*
Y78066*
X130911Y80512*
X131698*
X131797Y80532*
X131862Y80575*
X131906*
X131998*
X134573*
X134665*
X135973*
Y81909*
X136138*
Y76283*
G37*
G36*
Y68790D02*
X136012Y68778D01*
X135987Y68904*
X135874Y69072*
X135706Y69185*
X135508Y69224*
X135320Y69187*
X135294Y69208*
X135222Y69316*
Y70075*
X134163*
X134114Y70192*
X134194Y70271*
X134236Y70334*
X134278Y70397*
X134281Y70415*
X134573*
X134665*
X135192*
Y71119*
Y71823*
X134665*
X134573*
X132873*
X132836Y71945*
X132953Y72023*
X133066Y72191*
X133080Y72262*
X132094*
X132108Y72191*
X132221Y72023*
X132338Y71945*
X132301Y71823*
X131998*
X131906*
X130598*
Y70415*
X130864*
Y69219*
X130174*
X130088Y69202*
X130056Y69228*
X129990Y69327*
Y72478*
X130530Y73019*
X131698*
X131797Y73039*
X131862Y73082*
X131906*
X131998*
X134573*
X134665*
X135973*
Y74416*
X136138*
Y68790*
G37*
%LNlp_led_cube_8x8x8-4*%
%LPC*%
G36*
X93979Y111781D02*
X93717Y111747D01*
X93473Y111645*
X93263Y111484*
X93102Y111275*
X93001Y111031*
X92966Y110768*
X93001Y110506*
X93102Y110262*
X93263Y110052*
X93473Y109891*
X93717Y109790*
X93979Y109756*
X94241Y109790*
X94485Y109891*
X94695Y110052*
X94856Y110262*
X94957Y110506*
X94992Y110768*
X94957Y111031*
X94856Y111275*
X94695Y111484*
X94485Y111645*
X94241Y111747*
X93979Y111781*
G37*
G36*
X61594Y114308D02*
X61329Y114273D01*
X61082Y114170*
X60869Y114008*
X60707Y113795*
X60604Y113548*
X60569Y113283*
X60604Y113018*
X60707Y112771*
X60869Y112558*
X61082Y112396*
X61329Y112293*
X61594Y112258*
X61859Y112293*
X62106Y112396*
X62319Y112558*
X62481Y112771*
X62584Y113018*
X62619Y113283*
X62584Y113548*
X62481Y113795*
X62319Y114008*
X62106Y114170*
X61859Y114273*
X61594Y114308*
G37*
G36*
X76199Y111768D02*
X75934Y111733D01*
X75687Y111630*
X75474Y111468*
X75312Y111255*
X75260Y111131*
X71452*
X71317Y111222*
X71119Y111261*
X70921Y111222*
X70786Y111131*
X70153*
X70101Y111255*
X69939Y111468*
X69726Y111630*
X69479Y111733*
X69214Y111768*
X68949Y111733*
X68702Y111630*
X68489Y111468*
X68327Y111255*
X68224Y111008*
X68189Y110743*
X68224Y110478*
X68327Y110231*
X68489Y110018*
X68702Y109856*
X68949Y109753*
X69214Y109718*
X69479Y109753*
X69726Y109856*
X69939Y110018*
X70101Y110231*
X70153Y110355*
X70786*
X70921Y110264*
X71119Y110225*
X71317Y110264*
X71452Y110355*
X75260*
X75312Y110231*
X75474Y110018*
X75687Y109856*
X75934Y109753*
X76199Y109718*
X76464Y109753*
X76711Y109856*
X76924Y110018*
X77086Y110231*
X77189Y110478*
X77224Y110743*
X77189Y111008*
X77086Y111255*
X76924Y111468*
X76711Y111630*
X76464Y111733*
X76199Y111768*
G37*
G36*
X91439Y111781D02*
X91177Y111747D01*
X90933Y111645*
X90723Y111484*
X90562Y111275*
X90461Y111031*
X90426Y110768*
X90461Y110506*
X90562Y110262*
X90723Y110052*
X90933Y109891*
X91177Y109790*
X91439Y109756*
X91701Y109790*
X91945Y109891*
X92155Y110052*
X92316Y110262*
X92417Y110506*
X92452Y110768*
X92417Y111031*
X92316Y111275*
X92155Y111484*
X91945Y111645*
X91701Y111747*
X91439Y111781*
G37*
G36*
X83819Y114308D02*
X83554Y114273D01*
X83307Y114170*
X83094Y114008*
X82932Y113795*
X82829Y113548*
X82794Y113283*
X82829Y113018*
X82932Y112771*
X83094Y112558*
X83307Y112396*
X83554Y112293*
X83819Y112258*
X84084Y112293*
X84331Y112396*
X84544Y112558*
X84706Y112771*
X84809Y113018*
X84844Y113283*
X84809Y113548*
X84706Y113795*
X84544Y114008*
X84331Y114170*
X84084Y114273*
X83819Y114308*
G37*
G36*
X70222Y115696D02*
X69341D01*
Y114815*
X69479Y114833*
X69726Y114936*
X69939Y115098*
X70101Y115311*
X70204Y115558*
X70222Y115696*
G37*
G36*
X69087D02*
X68206D01*
X68224Y115558*
X68327Y115311*
X68489Y115098*
X68702Y114936*
X68949Y114833*
X69087Y114815*
Y115696*
G37*
G36*
X77215D02*
X76326D01*
Y114807*
X77215*
Y115696*
G37*
G36*
X69087Y116831D02*
X68949Y116813D01*
X68702Y116710*
X68489Y116548*
X68327Y116335*
X68224Y116088*
X68206Y115950*
X69087*
Y116831*
G37*
G36*
X77215Y116839D02*
X76326D01*
Y115950*
X77215*
Y116839*
G37*
G36*
X76072D02*
X75183D01*
Y115950*
X76072*
Y116839*
G37*
G36*
X69341Y116831D02*
Y115950D01*
X70222*
X70204Y116088*
X70101Y116335*
X69939Y116548*
X69726Y116710*
X69479Y116813*
X69341Y116831*
G37*
G36*
X76072Y115696D02*
X75183D01*
Y114807*
X76072*
Y115696*
G37*
G36*
X76326Y93971D02*
Y93090D01*
X77207*
X77189Y93228*
X77086Y93475*
X76924Y93688*
X76711Y93850*
X76464Y93953*
X76326Y93971*
G37*
G36*
X92443Y114312D02*
X90435D01*
Y112304*
X92443*
Y114312*
G37*
G36*
X93979Y114321D02*
X93717Y114287D01*
X93473Y114185*
X93263Y114024*
X93102Y113815*
X93001Y113571*
X92966Y113308*
X93001Y113046*
X93102Y112802*
X93263Y112592*
X93473Y112431*
X93717Y112330*
X93979Y112296*
X94241Y112330*
X94485Y112431*
X94695Y112592*
X94856Y112802*
X94957Y113046*
X94992Y113308*
X94957Y113571*
X94856Y113815*
X94695Y114024*
X94485Y114185*
X94241Y114287*
X93979Y114321*
G37*
G36*
X76072Y93971D02*
X75934Y93953D01*
X75687Y93850*
X75474Y93688*
X75312Y93475*
X75209Y93228*
X75191Y93090*
X76072*
Y93971*
G37*
G36*
X69087Y93979D02*
X68198D01*
Y93090*
X69087*
Y93979*
G37*
G36*
X70230D02*
X69341D01*
Y93090*
X70230*
Y93979*
G37*
G36*
X76199Y114308D02*
X75934Y114273D01*
X75687Y114170*
X75474Y114008*
X75312Y113795*
X75260Y113671*
X70817*
X70682Y113762*
X70484Y113801*
X70286Y113762*
X70236Y113728*
X70114Y113765*
X70101Y113795*
X69939Y114008*
X69726Y114170*
X69479Y114273*
X69214Y114308*
X68949Y114273*
X68702Y114170*
X68489Y114008*
X68327Y113795*
X68224Y113548*
X68189Y113283*
X68224Y113018*
X68327Y112771*
X68489Y112558*
X68702Y112396*
X68949Y112293*
X69214Y112258*
X69479Y112293*
X69726Y112396*
X69939Y112558*
X70101Y112771*
X70114Y112801*
X70236Y112838*
X70286Y112804*
X70484Y112765*
X70682Y112804*
X70817Y112895*
X75260*
X75312Y112771*
X75474Y112558*
X75687Y112396*
X75934Y112293*
X76199Y112258*
X76464Y112293*
X76711Y112396*
X76924Y112558*
X77086Y112771*
X77189Y113018*
X77224Y113283*
X77189Y113548*
X77086Y113795*
X76924Y114008*
X76711Y114170*
X76464Y114273*
X76199Y114308*
G37*
G36*
X91439Y99081D02*
X91177Y99047D01*
X90933Y98945*
X90723Y98784*
X90562Y98575*
X90461Y98330*
X90426Y98068*
X90461Y97806*
X90562Y97562*
X90723Y97352*
X90933Y97191*
X91177Y97090*
X91439Y97056*
X91701Y97090*
X91945Y97191*
X92155Y97352*
X92316Y97562*
X92417Y97806*
X92452Y98068*
X92417Y98330*
X92316Y98575*
X92155Y98784*
X91945Y98945*
X91701Y99047*
X91439Y99081*
G37*
G36*
X76199Y104148D02*
X75934Y104113D01*
X75687Y104010*
X75474Y103848*
X75312Y103635*
X75260Y103511*
X73357*
X73222Y103602*
X73024Y103641*
X72826Y103602*
X72691Y103511*
X70153*
X70101Y103635*
X69939Y103848*
X69726Y104010*
X69479Y104113*
X69214Y104148*
X68949Y104113*
X68702Y104010*
X68489Y103848*
X68327Y103635*
X68224Y103388*
X68189Y103123*
X68224Y102858*
X68327Y102611*
X68489Y102398*
X68702Y102236*
X68949Y102133*
X69214Y102098*
X69479Y102133*
X69726Y102236*
X69939Y102398*
X70101Y102611*
X70153Y102735*
X72691*
X72826Y102644*
X73024Y102605*
X73222Y102644*
X73357Y102735*
X75260*
X75312Y102611*
X75474Y102398*
X75687Y102236*
X75934Y102133*
X76199Y102098*
X76464Y102133*
X76711Y102236*
X76924Y102398*
X77086Y102611*
X77189Y102858*
X77224Y103123*
X77189Y103388*
X77086Y103635*
X76924Y103848*
X76711Y104010*
X76464Y104113*
X76199Y104148*
G37*
G36*
X135973Y70992D02*
X135446D01*
Y70415*
X135973*
Y70992*
G37*
G36*
X93979Y104161D02*
X93717Y104127D01*
X93473Y104025*
X93263Y103864*
X93102Y103655*
X93001Y103410*
X92966Y103148*
X93001Y102886*
X93102Y102642*
X93263Y102432*
X93473Y102271*
X93717Y102170*
X93979Y102136*
X94241Y102170*
X94485Y102271*
X94695Y102432*
X94856Y102642*
X94957Y102886*
X94992Y103148*
X94957Y103410*
X94856Y103655*
X94695Y103864*
X94485Y104025*
X94241Y104127*
X93979Y104161*
G37*
G36*
Y99081D02*
X93717Y99047D01*
X93473Y98945*
X93263Y98784*
X93102Y98575*
X93001Y98330*
X92966Y98068*
X93001Y97806*
X93102Y97562*
X93263Y97352*
X93473Y97191*
X93717Y97090*
X93979Y97056*
X94241Y97090*
X94485Y97191*
X94695Y97352*
X94856Y97562*
X94957Y97806*
X94992Y98068*
X94957Y98330*
X94856Y98575*
X94695Y98784*
X94485Y98945*
X94241Y99047*
X93979Y99081*
G37*
G36*
X61594Y106688D02*
X61329Y106653D01*
X61082Y106550*
X60869Y106388*
X60707Y106175*
X60604Y105928*
X60569Y105663*
X60604Y105398*
X60707Y105151*
X60869Y104938*
X61082Y104776*
X61329Y104673*
X61594Y104638*
X61859Y104673*
X62106Y104776*
X62319Y104938*
X62481Y105151*
X62584Y105398*
X62619Y105663*
X62584Y105928*
X62481Y106175*
X62319Y106388*
X62106Y106550*
X61859Y106653*
X61594Y106688*
G37*
G36*
X93979Y106701D02*
X93717Y106667D01*
X93473Y106565*
X93263Y106404*
X93102Y106195*
X93001Y105950*
X92966Y105688*
X93001Y105426*
X93102Y105182*
X93263Y104972*
X93473Y104811*
X93717Y104710*
X93979Y104676*
X94241Y104710*
X94485Y104811*
X94695Y104972*
X94856Y105182*
X94957Y105426*
X94992Y105688*
X94957Y105950*
X94856Y106195*
X94695Y106404*
X94485Y106565*
X94241Y106667*
X93979Y106701*
G37*
G36*
X129778Y77342D02*
X129412D01*
Y76976*
X129483Y76990*
X129651Y77103*
X129764Y77271*
X129778Y77342*
G37*
G36*
X91439Y106701D02*
X91177Y106667D01*
X90933Y106565*
X90723Y106404*
X90562Y106195*
X90461Y105950*
X90426Y105688*
X90461Y105426*
X90562Y105182*
X90723Y104972*
X90933Y104811*
X91177Y104710*
X91439Y104676*
X91701Y104710*
X91945Y104811*
X92155Y104972*
X92316Y105182*
X92417Y105426*
X92452Y105688*
X92417Y105950*
X92316Y106195*
X92155Y106404*
X91945Y106565*
X91701Y106667*
X91439Y106701*
G37*
G36*
X83819Y106688D02*
X83554Y106653D01*
X83307Y106550*
X83094Y106388*
X82932Y106175*
X82829Y105928*
X82794Y105663*
X82829Y105398*
X82932Y105151*
X83094Y104938*
X83307Y104776*
X83554Y104673*
X83819Y104638*
X84084Y104673*
X84331Y104776*
X84544Y104938*
X84706Y105151*
X84809Y105398*
X84844Y105663*
X84809Y105928*
X84706Y106175*
X84544Y106388*
X84331Y106550*
X84084Y106653*
X83819Y106688*
G37*
G36*
X129158Y77342D02*
X128792D01*
X128806Y77271*
X128919Y77103*
X129087Y76990*
X129158Y76976*
Y77342*
G37*
G36*
X91439Y104161D02*
X91177Y104127D01*
X90933Y104025*
X90723Y103864*
X90562Y103655*
X90461Y103410*
X90426Y103148*
X90461Y102886*
X90562Y102642*
X90723Y102432*
X90933Y102271*
X91177Y102170*
X91439Y102136*
X91701Y102170*
X91945Y102271*
X92155Y102432*
X92316Y102642*
X92417Y102886*
X92452Y103148*
X92417Y103410*
X92316Y103655*
X92155Y103864*
X91945Y104025*
X91701Y104127*
X91439Y104161*
G37*
G36*
X132460Y72882D02*
X132389Y72868D01*
X132221Y72755*
X132108Y72587*
X132094Y72516*
X132460*
Y72882*
G37*
G36*
X76199Y101608D02*
X75934Y101573D01*
X75687Y101470*
X75474Y101308*
X75312Y101095*
X75260Y100971*
X73992*
X73857Y101062*
X73659Y101101*
X73461Y101062*
X73326Y100971*
X70153*
X70101Y101095*
X69939Y101308*
X69726Y101470*
X69479Y101573*
X69214Y101608*
X68949Y101573*
X68702Y101470*
X68489Y101308*
X68327Y101095*
X68224Y100848*
X68189Y100583*
X68224Y100318*
X68327Y100071*
X68489Y99858*
X68702Y99696*
X68949Y99593*
X69214Y99558*
X69479Y99593*
X69726Y99696*
X69939Y99858*
X70101Y100071*
X70153Y100195*
X73326*
X73461Y100104*
X73659Y100065*
X73857Y100104*
X73992Y100195*
X75260*
X75312Y100071*
X75474Y99858*
X75687Y99696*
X75934Y99593*
X76199Y99558*
X76464Y99593*
X76711Y99696*
X76924Y99858*
X77086Y100071*
X77189Y100318*
X77224Y100583*
X77189Y100848*
X77086Y101095*
X76924Y101308*
X76711Y101470*
X76464Y101573*
X76199Y101608*
G37*
G36*
X132714Y72882D02*
Y72516D01*
X133080*
X133066Y72587*
X132953Y72755*
X132785Y72868*
X132714Y72882*
G37*
G36*
X93979Y101621D02*
X93717Y101587D01*
X93473Y101485*
X93263Y101324*
X93102Y101115*
X93001Y100870*
X92966Y100608*
X93001Y100346*
X93102Y100102*
X93263Y99892*
X93473Y99731*
X93717Y99630*
X93979Y99596*
X94241Y99630*
X94485Y99731*
X94695Y99892*
X94856Y100102*
X94957Y100346*
X94992Y100608*
X94957Y100870*
X94856Y101115*
X94695Y101324*
X94485Y101485*
X94241Y101587*
X93979Y101621*
G37*
G36*
X91439D02*
X91177Y101587D01*
X90933Y101485*
X90723Y101324*
X90562Y101115*
X90461Y100870*
X90426Y100608*
X90461Y100346*
X90562Y100102*
X90723Y99892*
X90933Y99731*
X91177Y99630*
X91439Y99596*
X91701Y99630*
X91945Y99731*
X92155Y99892*
X92316Y100102*
X92417Y100346*
X92452Y100608*
X92417Y100870*
X92316Y101115*
X92155Y101324*
X91945Y101485*
X91701Y101587*
X91439Y101621*
G37*
G36*
X83819Y101608D02*
X83554Y101573D01*
X83307Y101470*
X83094Y101308*
X82932Y101095*
X82829Y100848*
X82794Y100583*
X82829Y100318*
X82932Y100071*
X83094Y99858*
X83307Y99696*
X83554Y99593*
X83819Y99558*
X84084Y99593*
X84331Y99696*
X84544Y99858*
X84706Y100071*
X84809Y100318*
X84844Y100583*
X84809Y100848*
X84706Y101095*
X84544Y101308*
X84331Y101470*
X84084Y101573*
X83819Y101608*
G37*
G36*
X76199Y99068D02*
X75934Y99033D01*
X75687Y98930*
X75474Y98768*
X75312Y98555*
X75260Y98431*
X74627*
X74492Y98522*
X74294Y98561*
X74096Y98522*
X73961Y98431*
X70153*
X70101Y98555*
X69939Y98768*
X69726Y98930*
X69479Y99033*
X69214Y99068*
X68949Y99033*
X68702Y98930*
X68489Y98768*
X68327Y98555*
X68224Y98308*
X68189Y98043*
X68224Y97778*
X68327Y97531*
X68489Y97318*
X68702Y97156*
X68949Y97053*
X69214Y97018*
X69479Y97053*
X69726Y97156*
X69939Y97318*
X70101Y97531*
X70153Y97655*
X73961*
X74096Y97564*
X74294Y97525*
X74492Y97564*
X74627Y97655*
X75260*
X75312Y97531*
X75474Y97318*
X75687Y97156*
X75934Y97053*
X76199Y97018*
X76464Y97053*
X76711Y97156*
X76924Y97318*
X77086Y97531*
X77189Y97778*
X77224Y98043*
X77189Y98308*
X77086Y98555*
X76924Y98768*
X76711Y98930*
X76464Y99033*
X76199Y99068*
G37*
G36*
X135973Y71823D02*
X135446D01*
Y71246*
X135973*
Y71823*
G37*
G36*
X83819Y104148D02*
X83554Y104113D01*
X83307Y104010*
X83094Y103848*
X82932Y103635*
X82829Y103388*
X82794Y103123*
X82829Y102858*
X82932Y102611*
X83094Y102398*
X83307Y102236*
X83554Y102133*
X83819Y102098*
X84084Y102133*
X84331Y102236*
X84544Y102398*
X84706Y102611*
X84809Y102858*
X84844Y103123*
X84809Y103388*
X84706Y103635*
X84544Y103848*
X84331Y104010*
X84084Y104113*
X83819Y104148*
G37*
G36*
X61594Y101608D02*
X61329Y101573D01*
X61082Y101470*
X60869Y101308*
X60707Y101095*
X60604Y100848*
X60569Y100583*
X60604Y100318*
X60707Y100071*
X60869Y99858*
X61082Y99696*
X61329Y99593*
X61594Y99558*
X61859Y99593*
X62106Y99696*
X62319Y99858*
X62481Y100071*
X62584Y100318*
X62619Y100583*
X62584Y100848*
X62481Y101095*
X62319Y101308*
X62106Y101470*
X61859Y101573*
X61594Y101608*
G37*
G36*
Y104148D02*
X61329Y104113D01*
X61082Y104010*
X60869Y103848*
X60707Y103635*
X60604Y103388*
X60569Y103123*
X60604Y102858*
X60707Y102611*
X60869Y102398*
X61082Y102236*
X61329Y102133*
X61594Y102098*
X61859Y102133*
X62106Y102236*
X62319Y102398*
X62481Y102611*
X62584Y102858*
X62619Y103123*
X62584Y103388*
X62481Y103635*
X62319Y103848*
X62106Y104010*
X61859Y104113*
X61594Y104148*
G37*
G36*
X76199Y109228D02*
X75934Y109193D01*
X75687Y109090*
X75474Y108928*
X75312Y108715*
X75260Y108591*
X72087*
X71952Y108682*
X71754Y108721*
X71556Y108682*
X71421Y108591*
X70153*
X70101Y108715*
X69939Y108928*
X69726Y109090*
X69479Y109193*
X69214Y109228*
X68949Y109193*
X68702Y109090*
X68489Y108928*
X68327Y108715*
X68224Y108468*
X68189Y108203*
X68224Y107938*
X68327Y107691*
X68489Y107478*
X68702Y107316*
X68949Y107213*
X69214Y107178*
X69479Y107213*
X69726Y107316*
X69939Y107478*
X70101Y107691*
X70153Y107815*
X71421*
X71556Y107724*
X71754Y107685*
X71952Y107724*
X72087Y107815*
X75260*
X75312Y107691*
X75474Y107478*
X75687Y107316*
X75934Y107213*
X76199Y107178*
X76464Y107213*
X76711Y107316*
X76924Y107478*
X77086Y107691*
X77189Y107938*
X77224Y108203*
X77189Y108468*
X77086Y108715*
X76924Y108928*
X76711Y109090*
X76464Y109193*
X76199Y109228*
G37*
G36*
X91439Y96541D02*
X91177Y96507D01*
X90933Y96405*
X90723Y96244*
X90562Y96035*
X90461Y95790*
X90426Y95528*
X90461Y95266*
X90562Y95022*
X90723Y94812*
X90933Y94651*
X91177Y94550*
X91439Y94516*
X91701Y94550*
X91945Y94651*
X92155Y94812*
X92316Y95022*
X92417Y95266*
X92452Y95528*
X92417Y95790*
X92316Y96035*
X92155Y96244*
X91945Y96405*
X91701Y96507*
X91439Y96541*
G37*
G36*
X93979D02*
X93717Y96507D01*
X93473Y96405*
X93263Y96244*
X93102Y96035*
X93001Y95790*
X92966Y95528*
X93001Y95266*
X93102Y95022*
X93263Y94812*
X93473Y94651*
X93717Y94550*
X93979Y94516*
X94241Y94550*
X94485Y94651*
X94695Y94812*
X94856Y95022*
X94957Y95266*
X94992Y95528*
X94957Y95790*
X94856Y96035*
X94695Y96244*
X94485Y96405*
X94241Y96507*
X93979Y96541*
G37*
G36*
Y109241D02*
X93717Y109207D01*
X93473Y109105*
X93263Y108944*
X93102Y108735*
X93001Y108491*
X92966Y108228*
X93001Y107966*
X93102Y107722*
X93263Y107512*
X93473Y107351*
X93717Y107250*
X93979Y107216*
X94241Y107250*
X94485Y107351*
X94695Y107512*
X94856Y107722*
X94957Y107966*
X94992Y108228*
X94957Y108491*
X94856Y108735*
X94695Y108944*
X94485Y109105*
X94241Y109207*
X93979Y109241*
G37*
G36*
X135973Y79316D02*
X135446D01*
Y78739*
X135973*
Y79316*
G37*
G36*
Y64330D02*
X135446D01*
Y63753*
X135973*
Y64330*
G37*
G36*
X83819Y96528D02*
X83554Y96493D01*
X83307Y96390*
X83094Y96228*
X82932Y96015*
X82829Y95768*
X82794Y95503*
X82829Y95238*
X82932Y94991*
X83094Y94778*
X83307Y94616*
X83554Y94513*
X83819Y94478*
X84084Y94513*
X84331Y94616*
X84544Y94778*
X84706Y94991*
X84809Y95238*
X84844Y95503*
X84809Y95768*
X84706Y96015*
X84544Y96228*
X84331Y96390*
X84084Y96493*
X83819Y96528*
G37*
G36*
X61594D02*
X61329Y96493D01*
X61082Y96390*
X60869Y96228*
X60707Y96015*
X60604Y95768*
X60569Y95503*
X60604Y95238*
X60707Y94991*
X60869Y94778*
X61082Y94616*
X61329Y94513*
X61594Y94478*
X61859Y94513*
X62106Y94616*
X62319Y94778*
X62481Y94991*
X62584Y95238*
X62619Y95503*
X62584Y95768*
X62481Y96015*
X62319Y96228*
X62106Y96390*
X61859Y96493*
X61594Y96528*
G37*
G36*
X83819Y111768D02*
X83554Y111733D01*
X83307Y111630*
X83094Y111468*
X82932Y111255*
X82829Y111008*
X82794Y110743*
X82829Y110478*
X82932Y110231*
X83094Y110018*
X83307Y109856*
X83554Y109753*
X83819Y109718*
X84084Y109753*
X84331Y109856*
X84544Y110018*
X84706Y110231*
X84809Y110478*
X84844Y110743*
X84809Y111008*
X84706Y111255*
X84544Y111468*
X84331Y111630*
X84084Y111733*
X83819Y111768*
G37*
G36*
X61594D02*
X61329Y111733D01*
X61082Y111630*
X60869Y111468*
X60707Y111255*
X60604Y111008*
X60569Y110743*
X60604Y110478*
X60707Y110231*
X60869Y110018*
X61082Y109856*
X61329Y109753*
X61594Y109718*
X61859Y109753*
X62106Y109856*
X62319Y110018*
X62481Y110231*
X62584Y110478*
X62619Y110743*
X62584Y111008*
X62481Y111255*
X62319Y111468*
X62106Y111630*
X61859Y111733*
X61594Y111768*
G37*
G36*
X135973Y63499D02*
X135446D01*
Y62922*
X135973*
Y63499*
G37*
G36*
X132460Y65389D02*
X132389Y65375D01*
X132221Y65262*
X132108Y65094*
X132094Y65023*
X132460*
Y65389*
G37*
G36*
X129412Y77962D02*
Y77596D01*
X129778*
X129764Y77667*
X129651Y77835*
X129483Y77948*
X129412Y77962*
G37*
G36*
X61594Y99068D02*
X61329Y99033D01*
X61082Y98930*
X60869Y98768*
X60707Y98555*
X60604Y98308*
X60569Y98043*
X60604Y97778*
X60707Y97531*
X60869Y97318*
X61082Y97156*
X61329Y97053*
X61594Y97018*
X61859Y97053*
X62106Y97156*
X62319Y97318*
X62481Y97531*
X62584Y97778*
X62619Y98043*
X62584Y98308*
X62481Y98555*
X62319Y98768*
X62106Y98930*
X61859Y99033*
X61594Y99068*
G37*
G36*
X129158Y77962D02*
X129087Y77948D01*
X128919Y77835*
X128806Y77667*
X128792Y77596*
X129158*
Y77962*
G37*
G36*
X83819Y99068D02*
X83554Y99033D01*
X83307Y98930*
X83094Y98768*
X82932Y98555*
X82829Y98308*
X82794Y98043*
X82829Y97778*
X82932Y97531*
X83094Y97318*
X83307Y97156*
X83554Y97053*
X83819Y97018*
X84084Y97053*
X84331Y97156*
X84544Y97318*
X84706Y97531*
X84809Y97778*
X84844Y98043*
X84809Y98308*
X84706Y98555*
X84544Y98768*
X84331Y98930*
X84084Y99033*
X83819Y99068*
G37*
G36*
X76199Y106688D02*
X75934Y106653D01*
X75687Y106550*
X75474Y106388*
X75312Y106175*
X75260Y106051*
X72722*
X72587Y106142*
X72389Y106181*
X72191Y106142*
X72056Y106051*
X70153*
X70101Y106175*
X69939Y106388*
X69726Y106550*
X69479Y106653*
X69214Y106688*
X68949Y106653*
X68702Y106550*
X68489Y106388*
X68327Y106175*
X68224Y105928*
X68189Y105663*
X68224Y105398*
X68327Y105151*
X68489Y104938*
X68702Y104776*
X68949Y104673*
X69214Y104638*
X69479Y104673*
X69726Y104776*
X69939Y104938*
X70101Y105151*
X70153Y105275*
X72056*
X72191Y105184*
X72389Y105145*
X72587Y105184*
X72722Y105275*
X75260*
X75312Y105151*
X75474Y104938*
X75687Y104776*
X75934Y104673*
X76199Y104638*
X76464Y104673*
X76711Y104776*
X76924Y104938*
X77086Y105151*
X77189Y105398*
X77224Y105663*
X77189Y105928*
X77086Y106175*
X76924Y106388*
X76711Y106550*
X76464Y106653*
X76199Y106688*
G37*
G36*
X135973Y78485D02*
X135446D01*
Y77908*
X135973*
Y78485*
G37*
G36*
X91439Y109241D02*
X91177Y109207D01*
X90933Y109105*
X90723Y108944*
X90562Y108735*
X90461Y108491*
X90426Y108228*
X90461Y107966*
X90562Y107722*
X90723Y107512*
X90933Y107351*
X91177Y107250*
X91439Y107216*
X91701Y107250*
X91945Y107351*
X92155Y107512*
X92316Y107722*
X92417Y107966*
X92452Y108228*
X92417Y108491*
X92316Y108735*
X92155Y108944*
X91945Y109105*
X91701Y109207*
X91439Y109241*
G37*
G36*
X132714Y65389D02*
Y65023D01*
X133080*
X133066Y65094*
X132953Y65262*
X132785Y65375*
X132714Y65389*
G37*
G36*
X76199Y96528D02*
X75934Y96493D01*
X75687Y96390*
X75474Y96228*
X75312Y96015*
X75299Y95985*
X75177Y95948*
X75127Y95982*
X74929Y96021*
X74731Y95982*
X74596Y95891*
X70153*
X70101Y96015*
X69939Y96228*
X69726Y96390*
X69479Y96493*
X69214Y96528*
X68949Y96493*
X68702Y96390*
X68489Y96228*
X68327Y96015*
X68224Y95768*
X68189Y95503*
X68224Y95238*
X68327Y94991*
X68489Y94778*
X68702Y94616*
X68949Y94513*
X69214Y94478*
X69479Y94513*
X69726Y94616*
X69939Y94778*
X70101Y94991*
X70153Y95115*
X74596*
X74731Y95024*
X74929Y94985*
X75127Y95024*
X75177Y95058*
X75299Y95021*
X75312Y94991*
X75474Y94778*
X75687Y94616*
X75934Y94513*
X76199Y94478*
X76464Y94513*
X76711Y94616*
X76924Y94778*
X77086Y94991*
X77189Y95238*
X77224Y95503*
X77189Y95768*
X77086Y96015*
X76924Y96228*
X76711Y96390*
X76464Y96493*
X76199Y96528*
G37*
G36*
X61594Y109228D02*
X61329Y109193D01*
X61082Y109090*
X60869Y108928*
X60707Y108715*
X60604Y108468*
X60569Y108203*
X60604Y107938*
X60707Y107691*
X60869Y107478*
X61082Y107316*
X61329Y107213*
X61594Y107178*
X61859Y107213*
X62106Y107316*
X62319Y107478*
X62481Y107691*
X62584Y107938*
X62619Y108203*
X62584Y108468*
X62481Y108715*
X62319Y108928*
X62106Y109090*
X61859Y109193*
X61594Y109228*
G37*
G36*
X83819D02*
X83554Y109193D01*
X83307Y109090*
X83094Y108928*
X82932Y108715*
X82829Y108468*
X82794Y108203*
X82829Y107938*
X82932Y107691*
X83094Y107478*
X83307Y107316*
X83554Y107213*
X83819Y107178*
X84084Y107213*
X84331Y107316*
X84544Y107478*
X84706Y107691*
X84809Y107938*
X84844Y108203*
X84809Y108468*
X84706Y108715*
X84544Y108928*
X84331Y109090*
X84084Y109193*
X83819Y109228*
G37*
%LNlp_led_cube_8x8x8-5*%
%LPD*%
G54D10*
X131825Y100964D03*
X125983D03*
X135635Y93217D03*
X129793D03*
G54D11*
X127253Y116422D03*
Y111922D03*
G54D12*
X123686Y71119D03*
X122286D03*
X135319D03*
X133919D03*
X121019Y66293D03*
X119619D03*
X123686D03*
X122286D03*
X121019Y71119D03*
X119619D03*
X132652D03*
X131252D03*
X132652Y66293D03*
X131252D03*
X135319D03*
X133919D03*
X123686Y58800D03*
X122286D03*
X135319D03*
X133919D03*
X121019Y63626D03*
X119619D03*
X123686D03*
X122286D03*
X135319D03*
X133919D03*
X121019Y58800D03*
X119619D03*
X132652Y63626D03*
X131252D03*
X132652Y58800D03*
X131252D03*
X123686Y81279D03*
X122286D03*
X123686Y86105D03*
X122286D03*
X121019Y81279D03*
X119619D03*
X121019Y86105D03*
X119619D03*
X135319Y81279D03*
X133919D03*
X132652D03*
X131252D03*
X132652Y86105D03*
X131252D03*
X135319D03*
X133919D03*
X123686Y73786D03*
X122286D03*
X121019Y78612D03*
X119619D03*
X121019Y73786D03*
X119619D03*
X123686Y78612D03*
X122286D03*
X132652D03*
X131252D03*
X132652Y73786D03*
X131252D03*
X135319Y78612D03*
X133919D03*
X135319Y73786D03*
X133919D03*
X122489Y117347D03*
X123889D03*
G54D13*
X122935Y69646D03*
X120522Y68706D03*
Y69646D03*
X122935Y68706D03*
X120522Y67766D03*
X122935D03*
X134568Y69646D03*
X132155Y68706D03*
Y69646D03*
X134568Y68706D03*
X132155Y67766D03*
X134568D03*
X122935Y62153D03*
X120522Y61213D03*
Y62153D03*
X122935Y61213D03*
X120522Y60273D03*
X122935D03*
X134568Y62153D03*
X132155Y61213D03*
Y62153D03*
X134568Y61213D03*
X132155Y60273D03*
X134568D03*
X122935Y84632D03*
X120522Y83692D03*
Y84632D03*
X122935Y83692D03*
X120522Y82752D03*
X122935D03*
X134568Y84632D03*
X132155Y83692D03*
Y84632D03*
X134568Y83692D03*
X132155Y82752D03*
X134568D03*
X122935Y77139D03*
X120522Y76199D03*
Y77139D03*
X122935Y76199D03*
X120522Y75259D03*
X122935D03*
X134568Y77139D03*
X132155Y76199D03*
Y77139D03*
X134568Y76199D03*
X132155Y75259D03*
X134568D03*
G54D14*
X122016Y113491D03*
X119516D03*
X118266D03*
X120766D03*
Y107741D03*
X118266D03*
X119516D03*
X122016D03*
G54D15*
X120141Y110616D03*
G54D16*
X116077Y115507D03*
Y114107D03*
X124205Y112075D03*
Y113475D03*
X114553Y109916D03*
Y111316D03*
X123824Y104074D03*
Y105474D03*
G54D17*
X117512Y117347D03*
X115912D03*
X120814D03*
X119214D03*
G54D18*
X118109Y93788D03*
Y103822D03*
G54D19*
X132652Y71119D02*
Y72324D01*
X121030Y71130D02*
Y72389D01*
X132652Y63626D02*
Y64831D01*
Y86105D02*
Y87059D01*
X115061Y115569D02*
X118871D01*
X124205Y112075D02*
X127100D01*
X113156Y108711D02*
X114934Y106933D01*
Y101726D02*
Y106933D01*
Y101726D02*
X116585Y100075D01*
X118871Y94360D02*
Y99186D01*
X117982Y100075D02*
X118871Y99186D01*
X116585Y100075D02*
X117982D01*
X121346Y105474D02*
X123824D01*
X120766Y106054D02*
X121346Y105474D01*
X120766Y106054D02*
Y107741D01*
X118361Y104074D02*
X123824D01*
X113156Y108711D02*
Y115696D01*
X120818Y117347D02*
X122489D01*
X118871Y115569D02*
X119516Y114924D01*
Y113491D02*
Y114924D01*
X120766Y113491D02*
Y117295D01*
X122032Y113475D02*
X124205D01*
X116693Y113491D02*
X118266D01*
X116077Y114107D02*
X116693Y113491D01*
X114553Y111316D02*
Y115061D01*
X115061Y115569*
X114807Y117347D02*
X115912D01*
X113156Y115696D02*
X114807Y117347D01*
X117512D02*
X119214D01*
G54D20*
X135254Y86170D02*
X135319Y86105D01*
X135254Y86170D02*
Y87121D01*
X132714D02*
X135254D01*
X112013Y56895D02*
Y60705D01*
X118617Y52729D02*
X118642Y52704D01*
X63499Y92455D02*
Y113918D01*
X61594Y115823D02*
X63499Y113918D01*
X58927Y58292D02*
X99948D01*
X100837Y57403D02*
X104774Y61340D01*
X59435Y57403D02*
X100837D01*
X58038Y56006D02*
X59435Y57403D01*
X58292Y59181D02*
X78866D01*
X54736Y55625D02*
X58292Y59181D01*
X54736Y51409D02*
Y55625D01*
X55981Y55346D02*
X58927Y58292D01*
X55981Y52704D02*
Y55346D01*
X57276Y48894D02*
X58038Y49656D01*
X52704Y48894D02*
X57276D01*
X52196Y49402D02*
X52704Y48894D01*
X50901Y52704D02*
X52196Y51409D01*
Y49402D02*
Y51409D01*
X58038Y49656D02*
Y56006D01*
X99948Y58292D02*
X103504Y61848D01*
Y84073*
X104774Y61340D02*
Y84454D01*
X103885Y85343D02*
X104774Y84454D01*
X101599Y85343D02*
X103885D01*
X103504Y92455D02*
Y113918D01*
X101599Y115823D02*
X103504Y113918D01*
X81406Y61721D02*
Y85978D01*
X78866Y59181D02*
X81406Y61721D01*
X48361Y52704D02*
Y58775D01*
X49910Y60324*
X54736Y51409D02*
X55981Y50164D01*
X61594Y85343D02*
X63499Y83438D01*
Y61594D02*
Y83438D01*
X62229Y60324D02*
X63499Y61594D01*
X49910Y60324D02*
X62229D01*
X34924Y86994D02*
X74929D01*
X34289Y87629D02*
X74294D01*
X33654Y88264D02*
X73659D01*
X33019Y88899D02*
X73024D01*
X32384Y89534D02*
X72389D01*
X31749Y90169D02*
X71754D01*
X74929Y86994D02*
X114934D01*
X74294Y87629D02*
X114299D01*
X73659Y88264D02*
X113664D01*
X73024Y88899D02*
X113029D01*
X72389Y89534D02*
X112394D01*
X71754Y90169D02*
X111759D01*
X71119Y90804D02*
X111124D01*
X31114D02*
X71119D01*
X70484Y91439D02*
X110489D01*
X30479D02*
X70484D01*
X109219Y95503D02*
X114934D01*
X109219Y98043D02*
X114299D01*
X109219Y100583D02*
X113664D01*
X109219Y103123D02*
X113029D01*
X109219Y105663D02*
X112394D01*
X109219Y108203D02*
X111759D01*
X109219Y113283D02*
X110489D01*
X109219Y110743D02*
X111124D01*
X69214Y113283D02*
X70484D01*
X69214Y110743D02*
X71119D01*
X69214Y108203D02*
X71754D01*
X69214Y105663D02*
X72389D01*
X69214Y103123D02*
X73024D01*
X69214Y100583D02*
X73659D01*
X69214Y98043D02*
X74294D01*
X69214Y95503D02*
X74929D01*
X70484Y113283D02*
X76199D01*
X71119Y110743D02*
X76199D01*
X71754Y108203D02*
X76199D01*
X72389Y105663D02*
X76199D01*
X73024Y103123D02*
X76199D01*
X73659Y100583D02*
X76199D01*
X74294Y98043D02*
X76199D01*
X74929Y95503D02*
X76199D01*
X30479Y113283D02*
X36194D01*
X31114Y110743D02*
X36194D01*
X31749Y108203D02*
X36194D01*
X32384Y105663D02*
X36194D01*
X33019Y103123D02*
X36194D01*
X34289Y98043D02*
X36194D01*
X34924Y95503D02*
X36194D01*
X33654Y100583D02*
X36194D01*
X33654Y70103D02*
X36194D01*
X34924Y65023D02*
X36194D01*
X34289Y67563D02*
X36194D01*
X33019Y72643D02*
X36194D01*
X32384Y75183D02*
X36194D01*
X31749Y77723D02*
X36194D01*
X31114Y80263D02*
X36194D01*
X30479Y82803D02*
X36194D01*
X74929Y65023D02*
X76199D01*
X74294Y67563D02*
X76199D01*
X73659Y70103D02*
X76199D01*
X73024Y72643D02*
X76199D01*
X72389Y75183D02*
X76199D01*
X71754Y77723D02*
X76199D01*
X71119Y80263D02*
X76199D01*
X70484Y82803D02*
X76199D01*
X109219Y80263D02*
X111124D01*
X109219Y82803D02*
X110489D01*
X109219Y77723D02*
X111759D01*
X109219Y75183D02*
X112394D01*
X109219Y72643D02*
X113029D01*
X109219Y70103D02*
X113664D01*
X109219Y67563D02*
X114299D01*
X109219Y65023D02*
X114934D01*
X69214D02*
X74929D01*
X69214Y67563D02*
X74294D01*
X69214Y70103D02*
X73659D01*
X69214Y72643D02*
X73024D01*
X69214Y75183D02*
X72389D01*
X69214Y77723D02*
X71754D01*
X69214Y80263D02*
X71119D01*
X69214Y82803D02*
X70484D01*
X121652Y81279D02*
Y84009D01*
X122275Y84632*
X122935*
X120522D02*
X121386D01*
X122286Y85532*
Y86105*
X122935Y83692D02*
X123875D01*
X123686Y81279D02*
Y82230D01*
X119619Y83692D02*
Y86105D01*
X121652Y73786D02*
Y76517D01*
X122275Y77139*
X122935*
X120522D02*
X121386D01*
X122286Y78039*
Y78612*
X122935Y76199D02*
X123875D01*
X123686Y73786D02*
Y74737D01*
X119619Y76199D02*
Y78612D01*
Y68706D02*
Y71119D01*
X123686Y66293D02*
Y67244D01*
X122935Y68706D02*
X123875D01*
X122286Y70546D02*
Y71119D01*
X121386Y69646D02*
X122286Y70546D01*
X120522Y69646D02*
X121386D01*
X122275D02*
X122935D01*
X121652Y69023D02*
X122275Y69646D01*
X121652Y66293D02*
Y69023D01*
Y58800D02*
Y61531D01*
X122275Y62153*
X122935*
X120522D02*
X121386D01*
X122286Y63053*
Y63626*
X122935Y61213D02*
X123875D01*
X123686Y58800D02*
Y59751D01*
X119619Y61213D02*
Y63626D01*
X135319Y73786D02*
Y74737D01*
X134568Y76199D02*
X135508D01*
X133908Y77139D02*
X134568D01*
X133285Y76517D02*
X133908Y77139D01*
X133285Y73786D02*
Y76517D01*
X133919Y78039D02*
Y78612D01*
X133019Y77139D02*
X133919Y78039D01*
X132155Y77139D02*
X133019D01*
X131252Y76199D02*
Y78612D01*
Y68706D02*
Y71119D01*
X132155Y69646D02*
X133019D01*
X133919Y70546*
Y71119*
X133285Y66293D02*
Y69023D01*
X133908Y69646*
X134568*
Y68706D02*
X135508D01*
X135319Y66293D02*
Y67244D01*
X131252Y61213D02*
Y63626D01*
X135319Y58800D02*
Y59751D01*
X134568Y61213D02*
X135508D01*
X133919Y63053D02*
Y63626D01*
X133019Y62153D02*
X133919Y63053D01*
X132155Y62153D02*
X133019D01*
X133908D02*
X134568D01*
X133285Y61531D02*
X133908Y62153D01*
X133285Y58800D02*
Y61531D01*
Y81279D02*
Y84009D01*
X133908Y84632*
X134568*
X132155D02*
X133019D01*
X133919Y85532*
Y86105*
X134568Y83692D02*
X135508D01*
X135319Y81279D02*
Y82230D01*
X131252Y83692D02*
Y86105D01*
G54D21*
X116585Y52221D02*
X118642Y50164D01*
X116585Y52221D02*
Y71373D01*
X119125Y73913*
Y75259*
X127761Y78358D02*
X130758Y81355D01*
X127761Y56514D02*
Y78358D01*
X126364Y55117D02*
X127761Y56514D01*
X121538Y57149D02*
X125729D01*
X118617Y54228D02*
X121538Y57149D01*
X118617Y52729D02*
Y54228D01*
X123722Y53872D02*
X124967Y55117D01*
X123722Y52704D02*
Y53872D01*
X124967Y55117D02*
X126364D01*
X130758Y81355D02*
Y82752D01*
Y74243D02*
Y75259D01*
X129285Y72770D02*
X130758Y74243D01*
X129285Y49656D02*
Y72770D01*
X128142Y48513D02*
X129285Y49656D01*
X125373Y48513D02*
X128142D01*
X123722Y50164D02*
X125373Y48513D01*
G54D22*
X127507Y100964D02*
Y107695D01*
X126237Y93217D02*
X129793D01*
G54D23*
X129793Y93217D02*
X131317Y93344D01*
G54D24*
X81660Y117982D02*
X83819Y115823D01*
X60324Y117982D02*
X81660D01*
X58165Y115823D02*
X60324Y117982D01*
X58165Y92963D02*
Y115823D01*
X43814D02*
X58165D01*
X98170Y92963D02*
Y115823D01*
X83819D02*
X98170D01*
X58165Y63499D02*
Y85343D01*
X43814D02*
X58165D01*
Y92963D02*
X61594D01*
X98170D02*
X101599D01*
X98170Y63499D02*
Y85343D01*
X83819D02*
X98170D01*
Y63499D02*
X99186Y62483D01*
X101599*
X59181D02*
X61594D01*
X58165Y63499D02*
X59181Y62483D01*
G54D25*
X128686Y116422D02*
X133984Y111124D01*
X127253Y116422D02*
X128686D01*
G54D26*
X135254Y93154D03*
G54D27*
X131381Y100837D03*
G54D28*
X122427Y89026D03*
G54D29*
X132665Y87219D03*
G54D30*
X129285Y77469D03*
G54D31*
X132651Y64867D03*
G54D32*
X132579Y72360D03*
G54D33*
X121093Y72360D03*
G54D34*
X127634Y87692D03*
G54D35*
X120204Y110616D03*
G54D36*
X36194Y85343D03*
Y115823D03*
Y62483D03*
X69214D03*
X76199D03*
Y85343D03*
Y115823D03*
X109219Y62483D03*
Y85343D03*
G54D37*
X69210Y115759D03*
G54D38*
X36194Y92899D03*
X76199D03*
X109219Y115886D03*
G54D39*
X109205Y93016D03*
G54D40*
X133984Y107314D03*
G54D41*
X121348Y92709D03*
G54D42*
X131254Y88836D03*
G54D43*
X121652Y81279D03*
Y73786D03*
Y66293D03*
Y58800D03*
X133285Y73786D03*
Y66293D03*
Y58800D03*
Y81279D03*
G54D44*
X119785Y83057D03*
Y75564D03*
Y68071D03*
Y60578D03*
G54D45*
X119277Y81469D03*
Y73977D03*
Y66483D03*
Y58991D03*
G54D46*
X123621Y82676D03*
Y60197D03*
Y67690D03*
Y75183D03*
X135254D03*
Y67690D03*
Y60197D03*
Y82676D03*
G54D47*
X125500Y74675D03*
G54D48*
X131444Y75564D03*
Y68071D03*
Y60578D03*
Y83057D03*
G54D49*
X130936Y73977D03*
Y66483D03*
Y58991D03*
Y81469D03*
G54D50*
X137095Y74675D03*
G54D51*
X125094Y107758D03*
G54D52*
X127253Y109918D03*
G54D53*
X119506Y105600D03*
G54D54*
X121030Y72389D03*
X132587Y64896D03*
Y72389D03*
X132714Y87121D03*
X122427Y89026D03*
X129285Y77469D03*
X112013Y60705D03*
Y56895D03*
X63499Y92455D03*
X103504Y84073D03*
Y92455D03*
X81406Y85978D03*
X114934Y86994D03*
X114299Y87629D03*
X113664Y88264D03*
X113029Y88899D03*
X112394Y89534D03*
X111759Y90169D03*
X111124Y90804D03*
X110489Y91439D03*
X74929Y86994D03*
X74294Y87629D03*
X73659Y88264D03*
X73024Y88899D03*
X72389Y89534D03*
X71754Y90169D03*
X71119Y90804D03*
X70484Y91439D03*
X30479D03*
X31114Y90804D03*
X31749Y90169D03*
X32384Y89534D03*
X33019Y88899D03*
X33654Y88264D03*
X34289Y87629D03*
X34924Y86994D03*
X114934Y95503D03*
X114299Y98043D03*
X113664Y100583D03*
X113029Y103123D03*
X112394Y105663D03*
X111759Y108203D03*
X111124Y110743D03*
X110489Y113283D03*
X70484D03*
X71119Y110743D03*
X71754Y108203D03*
X72389Y105663D03*
X73024Y103123D03*
X73659Y100583D03*
X74294Y98043D03*
X74929Y95503D03*
X30479Y113283D03*
X31114Y110743D03*
X31749Y108203D03*
X32384Y105663D03*
X33019Y103123D03*
X33654Y100583D03*
X34289Y98043D03*
X34924Y95503D03*
X74929Y65023D03*
X74294Y67563D03*
X73659Y70103D03*
X73024Y72643D03*
X72389Y75183D03*
X71754Y77723D03*
X71119Y80263D03*
X70484Y82803D03*
X34924Y65023D03*
X34289Y67563D03*
X33654Y70103D03*
X33019Y72643D03*
X32384Y75183D03*
X31749Y77723D03*
X31114Y80263D03*
X30479Y82803D03*
X110489D03*
X111124Y80263D03*
X111759Y77723D03*
X112394Y75183D03*
X113029Y72643D03*
X113664Y70103D03*
X114299Y67563D03*
X114934Y65023D03*
X123875Y83692D03*
Y76199D03*
Y68706D03*
Y61213D03*
X135508Y76199D03*
Y68706D03*
Y61213D03*
Y83692D03*
G54D55*
X125729Y57149D03*
X127888Y88010D03*
X116585Y97916D03*
X127507Y100964D03*
X130301D03*
X58165Y115823D03*
X98170D03*
X58165Y85343D03*
Y92963D03*
X98170Y85343D03*
Y92963D03*
X69214Y80263D03*
Y82803D03*
Y72643D03*
Y75183D03*
Y65023D03*
Y67563D03*
X61594Y82803D03*
Y80263D03*
Y75183D03*
Y72643D03*
Y67563D03*
Y65023D03*
X69214Y70103D03*
Y77723D03*
Y85343D03*
X61594D03*
Y77723D03*
Y70103D03*
Y62483D03*
X109219Y80263D03*
Y82803D03*
Y72643D03*
Y75183D03*
Y65023D03*
Y67563D03*
X101599Y82803D03*
Y80263D03*
Y75183D03*
Y72643D03*
Y67563D03*
Y65023D03*
X109219Y70103D03*
Y77723D03*
Y85343D03*
X101599D03*
Y77723D03*
Y70103D03*
Y62483D03*
X69214Y110743D03*
Y113283D03*
Y103123D03*
Y105663D03*
Y95503D03*
Y98043D03*
X61594Y113283D03*
Y110743D03*
Y105663D03*
Y103123D03*
Y98043D03*
Y95503D03*
X69214Y100583D03*
Y108203D03*
Y115823D03*
X61594D03*
Y108203D03*
Y100583D03*
Y92963D03*
X109219Y110743D03*
Y113283D03*
Y103123D03*
Y105663D03*
Y95503D03*
Y98043D03*
X101599Y113283D03*
Y110743D03*
Y105663D03*
Y103123D03*
Y98043D03*
Y95503D03*
X109219Y100583D03*
Y108203D03*
Y115823D03*
X101599D03*
Y108203D03*
Y100583D03*
Y92963D03*
X36194Y67563D03*
Y65023D03*
Y75183D03*
Y72643D03*
Y82803D03*
Y80263D03*
X43814Y65023D03*
Y67563D03*
Y72643D03*
Y75183D03*
Y80263D03*
Y82803D03*
X36194Y77723D03*
Y70103D03*
Y62483D03*
X43814D03*
Y70103D03*
Y77723D03*
Y85343D03*
X36194Y98043D03*
Y95503D03*
Y105663D03*
Y103123D03*
Y113283D03*
Y110743D03*
X43814Y95503D03*
Y98043D03*
Y103123D03*
Y105663D03*
Y110743D03*
Y113283D03*
X36194Y108203D03*
Y100583D03*
Y92963D03*
X43814D03*
Y100583D03*
Y108203D03*
Y115823D03*
X76199Y98043D03*
Y95503D03*
Y105663D03*
Y103123D03*
Y113283D03*
Y110743D03*
X83819Y95503D03*
Y98043D03*
Y103123D03*
Y105663D03*
Y110743D03*
Y113283D03*
X76199Y108203D03*
Y100583D03*
Y92963D03*
X83819D03*
Y100583D03*
Y108203D03*
Y115823D03*
X76199Y67563D03*
Y65023D03*
Y75183D03*
Y72643D03*
Y82803D03*
Y80263D03*
X83819Y65023D03*
Y67563D03*
Y72643D03*
Y75183D03*
Y80263D03*
Y82803D03*
X76199Y77723D03*
Y70103D03*
Y62483D03*
X83819D03*
Y70103D03*
Y77723D03*
Y85343D03*
X131317Y93217D03*
X134111D03*
G54D56*
X119125Y82752D03*
Y75259D03*
Y67766D03*
Y60273D03*
X130758Y75259D03*
Y67766D03*
Y60273D03*
Y82752D03*
G54D57*
X126262Y52704D03*
X38201Y50164D03*
X97891Y50291D03*
G54D58*
X126262Y50164D03*
X123722Y52704D03*
Y50164D03*
X121182Y52704D03*
Y50164D03*
X118642Y52704D03*
Y50164D03*
X53974Y82828D03*
X51434Y80288D03*
X53974D03*
X51434Y77748D03*
X53974D03*
X51434Y75208D03*
X53974D03*
X51434Y72668D03*
X53974D03*
X51434Y70128D03*
X53974D03*
X51434Y67588D03*
X53974D03*
X51434Y65048D03*
X53974D03*
X125602Y95249D03*
X93979Y82828D03*
X91439Y80288D03*
X93979D03*
X91439Y77748D03*
X93979D03*
X91439Y75208D03*
X93979D03*
X91439Y72668D03*
X93979D03*
X91439Y70128D03*
X93979D03*
X91439Y67588D03*
X93979D03*
X91439Y65048D03*
X93979D03*
X53974Y113308D03*
X51434Y110768D03*
X53974D03*
X51434Y108228D03*
X53974D03*
X51434Y105688D03*
X53974D03*
X51434Y103148D03*
X53974D03*
X51434Y100608D03*
X53974D03*
X51434Y98068D03*
X53974D03*
X51434Y95528D03*
X53974D03*
X93979Y113308D03*
X91439Y110768D03*
X93979D03*
X91439Y108228D03*
X93979D03*
X91439Y105688D03*
X93979D03*
X91439Y103148D03*
X93979D03*
X91439Y100608D03*
X93979D03*
X91439Y98068D03*
X93979D03*
X91439Y95528D03*
X93979D03*
X38201Y52704D03*
X40741Y50164D03*
Y52704D03*
X43281Y50164D03*
Y52704D03*
X45821Y50164D03*
Y52704D03*
X48361Y50164D03*
Y52704D03*
X50901Y50164D03*
Y52704D03*
X53441Y50164D03*
Y52704D03*
X55981Y50164D03*
Y52704D03*
X97891Y52831D03*
X100431Y50291D03*
Y52831D03*
X102971Y50291D03*
Y52831D03*
X105511Y50291D03*
Y52831D03*
G54D59*
X51434Y82828D03*
X125602Y92709D03*
X91439Y82828D03*
X51434Y113308D03*
X91439D03*
G54D60*
X29209Y116204D03*
X135254Y49529D03*
Y116204D03*
X29209Y49529D03*
G54D61*
X69214Y62483D03*
X109219D03*
X69214Y92963D03*
X109219D03*
X36194Y85343D03*
Y115823D03*
X76199D03*
Y85343D03*
G54D62*
X133984Y107314D03*
G54D63*
X133984Y111124D03*
G54D64*
X136524Y102234D03*
Y99694D03*
G54D65*
X120141Y110616D03*
M02*