%FSLAX43Y43*%
%MOMM*%
%SFA1B1*%

%IPPOS*%
%ADD133R,2.234996X0.837998*%
%ADD134R,1.726997X0.710999*%
%ADD135R,2.802994X8.202984*%
%ADD136R,1.002998X1.102998*%
%ADD137R,1.702997X1.902996*%
%ADD138R,0.710999X1.702997*%
%ADD139R,1.102998X1.002998*%
%ADD140R,0.502999X1.402997*%
%ADD141R,1.402997X0.502999*%
%ADD142R,2.742995X1.218998*%
%ADD143R,1.218998X2.742995*%
%ADD144R,1.402997X1.602997*%
%ADD145O,0.802998X2.402995*%
%ADD146O,0.502999X2.002996*%
%ADD147O,2.002996X0.502999*%
%ADD148C,4.962990*%
%ADD149R,1.892996X1.892996*%
%ADD150C,1.892996*%
%ADD151C,0.964998*%
%ADD152C,0.710999*%
%ADD153C,1.726997*%
%ADD154C,1.218998*%
%ADD155R,2.202996X2.202996*%
%ADD156C,2.202996*%
%ADD157R,1.702997X1.702997*%
%ADD158C,1.702997*%
%ADD159C,1.980996*%
%ADD160C,4.202992*%
%ADD161C,1.472997*%
%ADD162C,2.234996*%
%ADD163C,0.203000*%
%ADD164C,1.802996*%
%ADD165R,1.726997X1.726997*%
%ADD166C,3.758992*%
%ADD167C,4.012992*%
%ADD168R,1.702997X1.702997*%
%ADD169C,3.202994*%
%LNlp_led_cube_8x8x8-1*%
%LPD*%
G36*
X67988Y101174D02*
X65788D01*
Y103374*
X67988*
Y101174*
G37*
G36*
X64004D02*
X61804D01*
Y103374*
X64004*
Y101174*
G37*
G36*
X67988Y106174D02*
X65788D01*
Y108374*
X67988*
Y106174*
G37*
G36*
X64004D02*
X61804D01*
Y108374*
X64004*
Y106174*
G37*
G54D133*
X86867Y106552D03*
Y105282D03*
Y104012D03*
Y102742D03*
Y101472D03*
X82041D03*
Y102742D03*
Y104012D03*
Y105282D03*
Y106552D03*
G54D134*
X160057Y86486D03*
Y85216D03*
Y83946D03*
Y82676D03*
X154901D03*
Y83946D03*
Y85216D03*
Y86486D03*
G54D135*
X155387Y93852D03*
X160587D03*
G54D136*
X166688Y91058D03*
X165288D03*
X115950Y78866D03*
X117350D03*
X101283Y105155D03*
X99883D03*
X117350Y77469D03*
X115950D03*
X101283Y106552D03*
X99883D03*
X106487Y71627D03*
X107887D03*
X92139Y101853D03*
X90739D03*
X92139Y105028D03*
X90739D03*
X92139Y106552D03*
X90739D03*
X84011Y75056D03*
X82611D03*
X124140Y72008D03*
X125540D03*
X127315D03*
X128715D03*
X68133Y86359D03*
X69533D03*
X68133Y84962D03*
X69533D03*
Y83565D03*
X68133D03*
X64069Y98678D03*
X65469D03*
X92139Y100456D03*
X90739D03*
G54D137*
X165328Y87858D03*
X168960Y87883D03*
X82371Y78358D03*
X86003Y78383D03*
X167817Y75818D03*
X164185Y75793D03*
G54D138*
X138359Y93692D03*
X139659D03*
X140909D03*
X142309D03*
X142259Y86342D03*
X140959D03*
X139659D03*
X138359D03*
G54D139*
X152272Y91758D03*
Y90358D03*
X165734Y82738D03*
Y84138D03*
X89915Y96073D03*
Y97473D03*
X98424Y103569D03*
Y102169D03*
X92201Y97473D03*
Y96073D03*
X144398Y90739D03*
Y92139D03*
Y87945D03*
Y89345D03*
X121411Y78169D03*
Y76769D03*
X134365Y76772D03*
Y75372D03*
X121411Y81090D03*
Y79690D03*
X55244Y80198D03*
Y81598D03*
X53974Y80198D03*
Y81598D03*
X59054D03*
Y80198D03*
X57784Y81598D03*
Y80198D03*
X61594Y81598D03*
Y80198D03*
X62864Y81598D03*
Y80198D03*
X64134Y81598D03*
Y80198D03*
X65404Y81598D03*
Y80198D03*
X53974Y85913D03*
Y87313D03*
X66674Y80198D03*
Y81598D03*
X71754Y89726D03*
Y88326D03*
X57149Y102426D03*
Y101026D03*
G54D140*
X58209Y96120D03*
X58709D03*
X59209D03*
X59709D03*
X60209D03*
X60709D03*
X61209D03*
X61709D03*
X62209D03*
X62709D03*
X63209D03*
X63709D03*
Y87520D03*
X63209D03*
X62709D03*
X62209D03*
X61709D03*
X61209D03*
X60709D03*
X60209D03*
X59709D03*
X59209D03*
X58709D03*
X58209D03*
G54D141*
X65259Y94570D03*
Y94070D03*
Y93570D03*
Y93070D03*
Y92570D03*
Y92070D03*
Y91570D03*
Y91070D03*
Y90570D03*
Y90070D03*
Y89570D03*
Y89070D03*
X56659D03*
Y89570D03*
Y90070D03*
Y90570D03*
Y91070D03*
Y91570D03*
Y92070D03*
Y92570D03*
Y93070D03*
Y93570D03*
Y94070D03*
Y94570D03*
G54D142*
X141731Y77469D03*
X147573D03*
G54D143*
X155066Y71373D03*
Y77215D03*
G54D144*
X76315Y78358D03*
X78115D03*
G54D145*
X123570Y74815D03*
X124840D03*
X126110D03*
X127380D03*
X128650D03*
X129920D03*
X131190D03*
X132460D03*
X123570Y79615D03*
X124840D03*
X126110D03*
X127380D03*
X128650D03*
X129920D03*
X131190D03*
X132460D03*
G54D146*
X100044Y97338D03*
X100544D03*
X101044D03*
X101544D03*
X102044D03*
X102544D03*
X103044D03*
X103544D03*
X104044D03*
X104544D03*
X105044D03*
X105544D03*
X106044D03*
X106544D03*
X107044D03*
X107544D03*
X108044D03*
X108544D03*
X109044D03*
X109544D03*
X110044D03*
X110544D03*
X111044D03*
X111544D03*
X112044D03*
Y82238D03*
X111544D03*
X111044D03*
X110544D03*
X110044D03*
X109544D03*
X109044D03*
X108544D03*
X108044D03*
X107544D03*
X107044D03*
X106544D03*
X106044D03*
X105544D03*
X105044D03*
X104544D03*
X104044D03*
X103544D03*
X103044D03*
X102544D03*
X102044D03*
X101544D03*
X101044D03*
X100544D03*
X100044D03*
G54D147*
X113594Y95788D03*
Y95288D03*
Y94788D03*
Y94288D03*
Y93788D03*
Y93288D03*
Y92788D03*
Y92288D03*
Y91788D03*
Y91288D03*
Y90788D03*
Y90288D03*
Y89788D03*
Y89288D03*
Y88788D03*
Y88288D03*
Y87788D03*
Y87288D03*
Y86788D03*
Y86288D03*
Y85788D03*
Y85288D03*
Y84788D03*
Y84288D03*
Y83788D03*
X98494D03*
Y84288D03*
Y84788D03*
Y85288D03*
Y85788D03*
Y86288D03*
Y86788D03*
Y87288D03*
Y87788D03*
Y88288D03*
Y88788D03*
Y89288D03*
Y89788D03*
Y90288D03*
Y90788D03*
Y91288D03*
Y91788D03*
Y92288D03*
Y92788D03*
Y93288D03*
Y93788D03*
Y94288D03*
Y94788D03*
Y95288D03*
Y95788D03*
G54D148*
X115139Y65633D03*
X140129D03*
G54D149*
X133174Y67053D03*
G54D150*
X131789Y64213D03*
X130404Y67053D03*
X129019Y64213D03*
X127634Y67053D03*
X126249Y64213D03*
X124864Y67053D03*
X123479Y64213D03*
X122094Y67053D03*
G54D151*
X65150Y95630D03*
X59689Y102488D03*
X93979Y98170D03*
X89153Y98932D03*
X90042Y86740D03*
X91312D03*
X94106Y82803D03*
X90550D03*
X104727Y71627D03*
X86359Y75818D03*
Y74294D03*
X96519Y77215D03*
X97789D03*
X74040Y65023D03*
X104266Y84581D03*
X110235Y86867D03*
X109981Y94995D03*
X102107Y89280D03*
X95630Y89811D03*
X136778Y89788D03*
X135889Y84708D03*
X142309Y91947D03*
X136778Y87248D03*
X132460Y77723D03*
X131190D03*
Y82184D03*
X106171Y91312D03*
X105282Y92201D03*
X106171Y91312D03*
X105282Y92201D03*
X101980Y94614D03*
X102488Y93598D03*
X106425Y99948D03*
X103758Y101980D03*
X102869Y101091D03*
X102996Y99821D03*
X105536Y101345D03*
X82549Y86867D03*
X92455Y87757D03*
X104012Y95249D03*
X106171Y93852D03*
X107060Y93090D03*
X100837Y103123D03*
X89026Y101472D03*
X92201Y99059D03*
G54D152*
X167893Y91058D03*
X153288Y86486D03*
X82549Y97154D03*
X115950Y80771D03*
X110235Y85288D03*
X102615Y105155D03*
X108044Y93788D03*
X118109Y84454D03*
X117474Y85089D03*
X116839Y85724D03*
X116204Y86359D03*
X111124Y89915D03*
X111759Y90550D03*
X54355Y92709D03*
X60233Y94070D03*
X61594Y89407D03*
X59689Y91312D03*
X59209Y89379D03*
X63880Y85851D03*
X56071Y85913D03*
X57784Y85724D03*
X58675Y84962D03*
X61594Y78993D03*
X59054D03*
X60233Y94070D03*
X59689Y100964D03*
X60705Y100202D03*
X62102Y98805D03*
X67055Y92836D03*
X65531Y97154D03*
X56514Y78612D03*
X57784Y78993D03*
X65404Y87502D03*
X67182Y88264D03*
X68960D03*
X64261Y83057D03*
X62864Y78993D03*
X71754Y91567D03*
X69849Y90169D03*
X67563Y78612D03*
X58927Y83819D03*
X60197D03*
X71119Y93598D03*
X61213Y91312D03*
X72389Y92709D03*
X62229Y93598D03*
G54D153*
X70992Y103123D03*
X104202Y62102D03*
X108774D03*
X146049Y77469D03*
X143255D03*
X155066Y75691D03*
Y72897D03*
X65150Y63118D03*
X67690D03*
X56768D03*
X54228D03*
X84454Y69150D03*
X81914D03*
Y71183D03*
X119379Y70103D03*
G54D154*
X74294Y106552D03*
X93598Y105790D03*
X119379Y81090D03*
G54D155*
X172719Y97154D03*
G54D156*
X172719Y100964D03*
G54D157*
X146151Y104774D03*
X114401D03*
G54D158*
X146151Y107314D03*
X148691Y104774D03*
Y107314D03*
X151231Y104774D03*
Y107314D03*
X153771Y104774D03*
Y107314D03*
X174624Y73278D03*
X114401Y107314D03*
X116941Y104774D03*
Y107314D03*
X119481Y104774D03*
Y107314D03*
X122021Y104774D03*
Y107314D03*
X124561Y104774D03*
Y107314D03*
X127101Y104774D03*
Y107314D03*
X129641Y104774D03*
Y107314D03*
X132181Y104774D03*
Y107314D03*
G54D159*
X102933Y64642D03*
X109918D03*
G54D160*
X48894Y62864D03*
X173989D03*
X48894Y107949D03*
X173989D03*
G54D161*
X55244Y76072D03*
X56514Y73532D03*
X57784Y76072D03*
X59054Y73532D03*
X60324Y76072D03*
X62864D03*
X65404D03*
X61594Y73532D03*
X64134D03*
X66674D03*
G54D162*
X69214Y70230D03*
X52704D03*
G54D163*
X66674Y67182D03*
X55244D03*
G54D164*
X74294Y61594D03*
X71754D03*
X94614D03*
X92074D03*
X99694D03*
X97154D03*
X147954D03*
X145414D03*
X153034D03*
X150494D03*
X158749D03*
X156209D03*
G54D165*
X84454Y71183D03*
G54D166*
X89534Y66483D03*
X76834D03*
G54D167*
X165670Y63817D03*
X170116Y66865D03*
X165670Y70039D03*
G54D168*
X174624Y70738D03*
G54D169*
X78498Y89280D03*
X85998D03*
M02*