%FSLAX43Y43*%
%MOMM*%
%SFA1B1*%

%IPPOS*%
%ADD13R,0.899998X0.799998*%
%ADD15R,0.799998X0.899998*%
%ADD60R,1.299997X0.999998*%
%ADD61O,2.099996X0.449999*%
%ADD62R,2.539995X2.793994*%
%ADD63R,1.799996X0.999998*%
%LNlp_led_cube_8x8x8-1*%
%LPD*%
G54D13*
X29336Y60008D03*
Y58608D03*
Y55655D03*
Y57055D03*
X39369Y38034D03*
Y39434D03*
X41528Y38034D03*
Y39434D03*
X73532Y40447D03*
Y41847D03*
X72135Y40447D03*
Y41847D03*
X51815Y36386D03*
Y34986D03*
X50291Y36386D03*
Y34986D03*
X113029Y32192D03*
Y33592D03*
X32130Y45657D03*
Y44257D03*
X57657Y47562D03*
Y46162D03*
Y49337D03*
Y50737D03*
X60578Y62421D03*
Y61021D03*
G54D15*
X125794Y60197D03*
X124394D03*
X116142Y44703D03*
X114742D03*
X54674Y59054D03*
X53274D03*
X54674Y62229D03*
X53274D03*
X61656Y58927D03*
X63056D03*
X71819Y57149D03*
X70419D03*
G54D60*
X35051Y81825D03*
Y80225D03*
X36321Y78396D03*
Y76796D03*
X37591Y81825D03*
Y80225D03*
X38861Y78396D03*
Y76796D03*
X40131Y81825D03*
Y80225D03*
X41401Y78396D03*
Y76796D03*
X47751Y80225D03*
Y81825D03*
X49021Y76796D03*
Y78396D03*
X51561Y76796D03*
Y78396D03*
X50291Y80225D03*
Y81825D03*
X52831Y80225D03*
Y81825D03*
X54101Y76796D03*
Y78396D03*
X42671Y81825D03*
Y80225D03*
X46481Y76796D03*
Y78396D03*
X43941D03*
Y76796D03*
X45211Y80225D03*
Y81825D03*
X61086D03*
Y80225D03*
X76326D03*
Y81825D03*
X90931Y78396D03*
Y76796D03*
X93471D03*
Y78396D03*
X59816D03*
Y76796D03*
X77596D03*
Y78396D03*
X89661Y81825D03*
Y80225D03*
X94741D03*
Y81825D03*
X58546D03*
Y80225D03*
X88391Y78396D03*
Y76796D03*
X114426Y78396D03*
Y76796D03*
X85851Y78396D03*
Y76796D03*
X115696Y80225D03*
Y81825D03*
X116966Y76796D03*
Y78396D03*
X97281Y80225D03*
Y81825D03*
X98551Y76796D03*
Y78396D03*
X62356D03*
Y76796D03*
X75056D03*
Y78396D03*
X73786Y80225D03*
Y81825D03*
X72516Y76796D03*
Y78396D03*
X71246Y80225D03*
Y81825D03*
X64896Y78396D03*
Y76796D03*
X63626Y81825D03*
Y80225D03*
X66166Y81825D03*
Y80225D03*
X69976Y76796D03*
Y78396D03*
X68706Y80225D03*
Y81825D03*
X67436Y78396D03*
Y76796D03*
X92201Y80225D03*
Y81825D03*
X96011Y76796D03*
Y78396D03*
X87121Y81825D03*
Y80225D03*
X84581Y81825D03*
Y80225D03*
X99821D03*
Y81825D03*
X82041Y81698D03*
Y80098D03*
X83311Y78396D03*
Y76796D03*
X101091D03*
Y78396D03*
X113156Y81825D03*
Y80225D03*
X108076Y81825D03*
Y80225D03*
X109346Y78396D03*
Y76796D03*
X120776Y80225D03*
Y81825D03*
X118236Y80225D03*
Y81825D03*
X110616D03*
Y80225D03*
X111886Y78396D03*
Y76796D03*
X119506D03*
Y78396D03*
X105536Y81825D03*
Y80225D03*
X124586Y76796D03*
Y78396D03*
X106806D03*
Y76796D03*
X122046D03*
Y78396D03*
X123316Y80352D03*
Y81952D03*
X37972Y53885D03*
Y52285D03*
G54D61*
X48280Y68959D03*
Y69609D03*
Y70259D03*
Y70909D03*
X41380D03*
Y70259D03*
Y69609D03*
Y68959D03*
Y63764D03*
Y64414D03*
Y65064D03*
Y65714D03*
Y66364D03*
Y67014D03*
Y67664D03*
Y68314D03*
X48280Y63764D03*
Y64414D03*
Y65064D03*
Y65714D03*
Y66364D03*
Y67014D03*
Y67664D03*
Y68314D03*
X71775Y68959D03*
Y69609D03*
Y70259D03*
Y70909D03*
X64875D03*
Y70259D03*
Y69609D03*
Y68959D03*
Y63764D03*
Y64414D03*
Y65064D03*
Y65714D03*
Y66364D03*
Y67014D03*
Y67664D03*
Y68314D03*
X71775Y63764D03*
Y64414D03*
Y65064D03*
Y65714D03*
Y66364D03*
Y67014D03*
Y67664D03*
Y68314D03*
X95270Y68959D03*
Y69609D03*
Y70259D03*
Y70909D03*
X88370D03*
Y70259D03*
Y69609D03*
Y68959D03*
Y63764D03*
Y64414D03*
Y65064D03*
Y65714D03*
Y66364D03*
Y67014D03*
Y67664D03*
Y68314D03*
X95270Y63764D03*
Y64414D03*
Y65064D03*
Y65714D03*
Y66364D03*
Y67014D03*
Y67664D03*
Y68314D03*
X118765Y68959D03*
Y69609D03*
Y70259D03*
Y70909D03*
X111865D03*
Y70259D03*
Y69609D03*
Y68959D03*
Y63764D03*
Y64414D03*
Y65064D03*
Y65714D03*
Y66364D03*
Y67014D03*
Y67664D03*
Y68314D03*
X118765Y63764D03*
Y64414D03*
Y65064D03*
Y65714D03*
Y66364D03*
Y67014D03*
Y67664D03*
Y68314D03*
G54D62*
X60324Y50164D03*
Y46608D03*
G54D63*
X57042Y62178D03*
Y58978D03*
M02*