%FSLAX43Y43*%
%MOMM*%
%SFA1B1*%

%IPPOS*%
%ADD10R,1.199998X1.399997*%
%ADD11O,1.799996X0.299999*%
%ADD12O,0.299999X1.799996*%
%ADD13R,0.899998X0.799998*%
%ADD14R,0.507999X1.299997*%
%ADD15R,0.799998X0.899998*%
%ADD16R,0.634999X2.031996*%
%ADD17O,0.599999X2.199996*%
%ADD18R,2.199996X2.199996*%
%ADD19R,1.199998X0.299999*%
%ADD20R,0.299999X1.199998*%
%ADD21R,2.299995X2.299995*%
%ADD22R,2.539995X1.015998*%
%ADD23R,2.399995X3.099994*%
%ADD24R,2.199996X0.449999*%
%ADD25R,0.849998X0.599999*%
%ADD26R,3.682993X3.047994*%
%ADD27R,2.299995X2.299995*%
%ADD28C,0.253999*%
%ADD29C,0.599999*%
%ADD30C,0.380999*%
%ADD31C,0.507999*%
%ADD32C,0.888998*%
%ADD33C,0.634999*%
%ADD34C,0.761998*%
%ADD35R,9.524981X4.063992*%
%ADD36R,1.904996X3.301993*%
%ADD37R,3.555993X4.063992*%
%ADD38R,11.048978X1.015998*%
%ADD39R,6.730987X3.174994*%
%ADD40R,8.508983X2.158996*%
%ADD41R,3.174994X1.396997*%
%ADD42C,0.507999*%
%ADD43C,1.523997*%
%ADD44C,0.761998*%
%ADD45R,1.523997X1.523997*%
%ADD46C,3.555993*%
%ADD47C,1.499997*%
%ADD48R,1.499997X1.499997*%
%ADD49C,3.999992*%
%ADD50C,3.809992*%
%ADD51R,1.499997X1.499997*%
%ADD52C,1.599997*%
%ADD53C,1.689997*%
%ADD54R,1.689997X1.689997*%
%ADD55C,4.759990*%
%ADD56C,2.031996*%
%ADD57C,1.269997*%
%ADD58C,2.999994*%
%ADD59C,1.777996*%
%LNlp_led_cube_8x8x8-1*%
%LPD*%
G36*
X133095Y25399D02*
X25399D01*
Y90931*
X133095*
Y25399*
G37*
%LNlp_led_cube_8x8x8-2*%
%LPC*%
G36*
X122303Y52264D02*
X121076D01*
Y51912*
X122303*
Y52264*
G37*
G36*
X120822D02*
X119595D01*
Y51912*
X120822*
Y52264*
G37*
G36*
X82749Y52501D02*
X82730Y52402D01*
X82458*
X82340Y52426*
X80840*
X80682Y52395*
X80671Y52387*
X80453*
X80459Y52356*
X80521Y52264*
X80459Y52172*
X80428Y52014*
X80459Y51856*
X80521Y51764*
X80459Y51672*
X80428Y51514*
X80459Y51356*
X80521Y51264*
X80459Y51172*
X80428Y51014*
X80459Y50856*
X80521Y50764*
X80459Y50672*
X80428Y50514*
X80459Y50356*
X80549Y50223*
X80682Y50133*
X80840Y50102*
X82340*
X82498Y50133*
X82631Y50223*
X82721Y50356*
X82752Y50514*
X82721Y50672*
X82659Y50764*
X82721Y50856*
X82752Y51014*
X82721Y51172*
X82659Y51264*
X82721Y51356*
X82752Y51514*
X82749Y51527*
X82830Y51626*
X83470*
X84066Y51030*
Y50993*
X83975Y50858*
X83936Y50660*
X83975Y50461*
X84088Y50293*
X84256Y50181*
X84454Y50142*
X84652Y50181*
X84820Y50293*
X84933Y50461*
X84972Y50660*
X84933Y50858*
X84842Y50993*
Y51191*
X84818Y51315*
X84813Y51340*
X84729Y51466*
X83906Y52289*
X83780Y52373*
X83631Y52402*
X82830*
X82749Y52501*
G37*
G36*
X131063Y56018D02*
X130815Y55969D01*
X130605Y55829*
X130465Y55619*
X130416Y55371*
X130465Y55123*
X130605Y54913*
X130610Y54910*
Y52661*
X129793*
Y52007*
X129539*
Y52661*
X129115*
Y54043*
X127807*
X127715*
X126407*
Y52635*
X126608*
Y52264*
X125345*
Y51714*
X125278*
X125255*
X123951*
Y49910*
Y48106*
X125255*
X125345Y48016*
Y47556*
X128053*
Y47582*
X128454*
Y47416*
Y47324*
Y47123*
X122178*
Y47556*
X122303*
Y48039*
X122370Y48106*
X122393*
X123697*
Y49910*
Y51714*
X122393*
X122370*
X122303Y51781*
Y51658*
X119595*
Y51312*
X110997*
X110898Y51292*
X110814Y51236*
X110758Y51152*
X110738Y51053*
Y50228*
X110679*
Y46672*
X114870*
Y47996*
X115953*
X116194Y47755*
Y47566*
X115993*
Y46158*
X117301*
X117393*
X118701*
Y47566*
X118500*
Y48136*
X119186Y48822*
X119595*
Y48806*
X122280*
X122370Y48716*
Y48514*
X122303*
X122280*
X121939*
X121919Y48518*
X120014*
X119994Y48514*
X119595*
Y47556*
X119755*
Y45726*
X119535*
Y43696*
X119214Y43376*
X117728*
Y43433*
X115356*
X115192Y43558*
X114945Y43661*
X114680Y43696*
X114415Y43661*
X114168Y43558*
X113955Y43396*
X113793Y43183*
X113690Y42936*
X113655Y42671*
X113690Y42406*
X113793Y42159*
X113955Y41946*
X114168Y41784*
X114415Y41681*
X114680Y41646*
X114945Y41681*
X115192Y41784*
X115356Y41909*
X117728*
Y41966*
X119506*
X119688Y41990*
X119788Y42032*
X119858Y42061*
X120004Y42173*
X120749Y42918*
X122343*
Y45726*
X122178*
Y46217*
X128454*
Y46016*
X129862*
X130428*
Y46670*
X130555*
Y46797*
X131259*
Y47324*
Y47416*
Y48724*
X131104*
X131014Y48814*
X131017Y49096*
X131383Y49463*
X131433Y49536*
X131482Y49610*
X131516Y49783*
Y49953*
X131767*
Y51261*
Y51353*
Y52661*
X131516*
Y54910*
X131521Y54913*
X131661Y55123*
X131710Y55371*
X131661Y55619*
X131521Y55829*
X131311Y55969*
X131063Y56018*
G37*
G36*
X75170Y51053D02*
X74675D01*
Y50558*
X74796Y50582*
X75006Y50722*
X75146Y50932*
X75170Y51053*
G37*
G36*
X74421D02*
X73926D01*
X73950Y50932*
X74090Y50722*
X74300Y50582*
X74421Y50558*
Y51053*
G37*
G36*
X74675Y51802D02*
Y51307D01*
X75170*
X75146Y51428*
X75006Y51638*
X74796Y51778*
X74675Y51802*
G37*
G36*
X74421D02*
X74300Y51778D01*
X74090Y51638*
X73950Y51428*
X73926Y51307*
X74421*
Y51802*
G37*
G36*
X104266Y54474D02*
Y53593D01*
X105147*
X105129Y53731*
X105026Y53978*
X104864Y54191*
X104651Y54353*
X104404Y54456*
X104266Y54474*
G37*
G36*
X104012D02*
X103874Y54456D01*
X103627Y54353*
X103414Y54191*
X103252Y53978*
X103149Y53731*
X103131Y53593*
X104012*
Y54474*
G37*
G36*
X52284Y56834D02*
Y55211D01*
X53907*
X53886Y55428*
X53785Y55758*
X53622Y56063*
X53403Y56330*
X53136Y56549*
X52831Y56712*
X52501Y56813*
X52284Y56834*
G37*
G36*
X52030D02*
X51813Y56813D01*
X51483Y56712*
X51178Y56549*
X50911Y56330*
X50692Y56063*
X50529Y55758*
X50428Y55428*
X50407Y55211*
X52030*
Y56834*
G37*
G36*
X105147Y53339D02*
X104266D01*
Y52458*
X104404Y52476*
X104651Y52579*
X104864Y52741*
X105026Y52954*
X105129Y53201*
X105147Y53339*
G37*
G36*
X104012D02*
X103131D01*
X103149Y53201*
X103252Y52954*
X103414Y52741*
X103627Y52579*
X103874Y52476*
X104012Y52458*
Y53339*
G37*
G36*
X53907Y54957D02*
X52284D01*
Y53334*
X52501Y53355*
X52831Y53456*
X53136Y53619*
X53403Y53838*
X53622Y54105*
X53785Y54410*
X53886Y54740*
X53907Y54957*
G37*
G36*
X52030D02*
X50407D01*
X50428Y54740*
X50529Y54410*
X50692Y54105*
X50911Y53838*
X51178Y53619*
X51483Y53456*
X51813Y53355*
X52030Y53334*
Y54957*
G37*
G36*
X75040Y50126D02*
X74882Y50095D01*
X74790Y50033*
X74698Y50095*
X74540Y50126*
X74382Y50095*
X74290Y50033*
X74198Y50095*
X74040Y50126*
X73882Y50095*
X73790Y50033*
X73698Y50095*
X73540Y50126*
X73382Y50095*
X73290Y50033*
X73198Y50095*
X73040Y50126*
X72882Y50095*
X72790Y50033*
X72698Y50095*
X72540Y50126*
X72382Y50095*
X72290Y50033*
X72198Y50095*
X72040Y50126*
X71882Y50095*
X71790Y50033*
X71698Y50095*
X71540Y50126*
X71382Y50095*
X71290Y50033*
X71198Y50095*
X71040Y50126*
X70882Y50095*
X70790Y50033*
X70698Y50095*
X70667Y50101*
Y49883*
X70659Y49872*
X70628Y49714*
Y48964*
Y48214*
X70651Y48096*
Y47824*
X70553Y47805*
X70652Y47724*
Y45290*
X70681Y45141*
X70765Y45015*
X71239Y44542*
Y44152*
X70923*
Y42844*
Y42752*
Y41444*
X71174*
Y35366*
X64454Y28646*
X52384*
X51412Y29618*
X51445Y29696*
X51481Y29971*
X51445Y30246*
X51339Y30503*
X51170Y30723*
X50950Y30892*
X50693Y30998*
X50418Y31034*
X50143Y30998*
X49886Y30892*
X49666Y30723*
X49497Y30503*
X49391Y30246*
X49355Y29971*
X49391Y29696*
X49497Y29439*
X49666Y29219*
X49886Y29050*
X50143Y28944*
X50418Y28908*
X50693Y28944*
X50771Y28977*
X51876Y27873*
X52023Y27774*
X52196Y27740*
X64642*
X64815Y27774*
X64962Y27873*
X71947Y34858*
X72046Y35005*
X72080Y35178*
Y41444*
X72331*
Y42752*
Y42844*
Y44152*
X72015*
Y44703*
X71986Y44852*
X71902Y44978*
X71428Y45451*
Y47724*
X71527Y47805*
X71540Y47802*
X71698Y47833*
X71790Y47895*
X71882Y47833*
X72040Y47802*
X72198Y47833*
X72290Y47895*
X72382Y47833*
X72540Y47802*
X72698Y47833*
X72790Y47895*
X72882Y47833*
X73040Y47802*
X73198Y47833*
X73290Y47895*
X73382Y47833*
X73540Y47802*
X73698Y47833*
X73790Y47895*
X73882Y47833*
X74040Y47802*
X74198Y47833*
X74290Y47895*
X74382Y47833*
X74540Y47802*
X74698Y47833*
X74790Y47895*
X74882Y47833*
X75040Y47802*
X75198Y47833*
X75290Y47895*
X75382Y47833*
X75413Y47827*
Y48045*
X75421Y48056*
X75452Y48214*
Y48964*
Y49714*
X75421Y49872*
X75413Y49883*
Y50101*
X75382Y50095*
X75290Y50033*
X75198Y50095*
X75040Y50126*
G37*
G36*
X131259Y46543D02*
X130682D01*
Y46016*
X131259*
Y46543*
G37*
G36*
X100964Y48722D02*
X100748Y48679D01*
X100565Y48556*
X100442Y48373*
X100399Y48157*
Y46557*
X100442Y46341*
X100565Y46158*
X100748Y46035*
X100964Y45992*
X101180Y46035*
X101363Y46158*
X101486Y46341*
X101529Y46557*
Y48157*
X101486Y48373*
X101363Y48556*
X101180Y48679*
X100964Y48722*
G37*
G36*
X96449Y47230D02*
X96011D01*
Y46017*
X96100Y46035*
X96283Y46158*
X96406Y46341*
X96449Y46557*
Y47230*
G37*
G36*
X95757D02*
X95319D01*
Y46557*
X95362Y46341*
X95485Y46158*
X95668Y46035*
X95757Y46017*
Y47230*
G37*
G36*
X97154Y48722D02*
X96938Y48679D01*
X96755Y48556*
X96632Y48373*
X96589Y48157*
Y46557*
X96632Y46341*
X96755Y46158*
X96938Y46035*
X97154Y45992*
X97370Y46035*
X97553Y46158*
X97676Y46341*
X97719Y46557*
Y48157*
X97676Y48373*
X97553Y48556*
X97370Y48679*
X97154Y48722*
G37*
G36*
X106113Y45784D02*
X104705D01*
Y45257*
Y45165*
Y44964*
X101534*
X101361Y44930*
X101214Y44831*
X100644Y44261*
X100545Y44114*
X100511Y43941*
Y43676*
X100442Y43573*
X100399Y43357*
Y41757*
X100442Y41541*
X100565Y41358*
X100748Y41235*
X100964Y41192*
X101180Y41235*
X101363Y41358*
X101486Y41541*
X101529Y41757*
Y43357*
X101486Y43573*
X101417Y43676*
Y43753*
X101722Y44058*
X104705*
Y43857*
X106113*
Y45165*
Y45257*
Y45784*
G37*
G36*
X99694Y48722D02*
X99478Y48679D01*
X99295Y48556*
X99172Y48373*
X99129Y48157*
Y46557*
X99172Y46341*
X99295Y46158*
X99478Y46035*
X99694Y45992*
X99910Y46035*
X100093Y46158*
X100216Y46341*
X100259Y46557*
Y48157*
X100216Y48373*
X100093Y48556*
X99910Y48679*
X99694Y48722*
G37*
G36*
X98424D02*
X98208Y48679D01*
X98025Y48556*
X97902Y48373*
X97859Y48157*
Y46557*
X97902Y46341*
X98025Y46158*
X98208Y46035*
X98424Y45992*
X98640Y46035*
X98823Y46158*
X98946Y46341*
X98989Y46557*
Y48157*
X98946Y48373*
X98823Y48556*
X98640Y48679*
X98424Y48722*
G37*
G36*
X92582Y50938D02*
X92334Y50889D01*
X92124Y50749*
X91984Y50539*
X91935Y50291*
X91984Y50043*
X92124Y49833*
X92129Y49830*
Y49486*
X91878*
Y48178*
Y48086*
Y46778*
X92129*
Y46565*
X91878*
Y45257*
Y45165*
Y43857*
X93286*
Y44058*
X95126*
X95431Y43753*
Y43676*
X95362Y43573*
X95319Y43357*
Y41757*
X95362Y41541*
X95485Y41358*
X95668Y41235*
X95884Y41192*
X96100Y41235*
X96283Y41358*
X96406Y41541*
X96449Y41757*
Y43357*
X96406Y43573*
X96337Y43676*
Y43941*
X96328Y43988*
X96303Y44114*
X96258Y44182*
X96204Y44261*
X95634Y44831*
X95556Y44884*
X95487Y44930*
X95406Y44946*
X95314Y44964*
X93286*
Y45165*
Y45257*
Y46565*
X93035*
Y46778*
X93286*
Y46979*
X94049*
Y46557*
X94092Y46341*
X94215Y46158*
X94398Y46035*
X94614Y45992*
X94830Y46035*
X95013Y46158*
X95136Y46341*
X95179Y46557*
Y48157*
X95136Y48373*
X95013Y48556*
X94830Y48679*
X94614Y48722*
X94398Y48679*
X94215Y48556*
X94092Y48373*
X94049Y48157*
Y47885*
X93286*
Y48086*
Y48178*
Y49486*
X93035*
Y49830*
X93040Y49833*
X93180Y50043*
X93229Y50291*
X93180Y50539*
X93040Y50749*
X92830Y50889*
X92582Y50938*
G37*
G36*
X82168Y49285D02*
X81970Y49246D01*
X81802Y49133*
X81689Y48965*
X81650Y48767*
X81689Y48569*
X81802Y48401*
X81970Y48288*
X82168Y48249*
X82366Y48288*
X82501Y48379*
X83785*
X84288Y47876*
X84239Y47758*
X82501*
X82366Y47849*
X82168Y47888*
X81970Y47849*
X81802Y47736*
X81689Y47568*
X81650Y47370*
X81689Y47172*
X81802Y47004*
X81970Y46891*
X82168Y46852*
X82366Y46891*
X82501Y46982*
X84293*
X85336Y45939*
Y45147*
X85215Y45106*
X85170Y45165*
X84960Y45326*
X84716Y45427*
X84454Y45462*
X84192Y45427*
X83948Y45326*
X83738Y45165*
X83577Y44955*
X83476Y44711*
X83441Y44449*
X83476Y44187*
X83577Y43943*
X83738Y43733*
X83948Y43572*
X84192Y43471*
X84454Y43436*
X84716Y43471*
X84960Y43572*
X85170Y43733*
X85215Y43792*
X85336Y43751*
Y43179*
X85365Y43030*
X85449Y42904*
X86065Y42289*
X86016Y42171*
X85981Y41909*
X86016Y41647*
X86117Y41403*
X86278Y41193*
X86488Y41032*
X86732Y40931*
X86994Y40896*
X87256Y40931*
X87500Y41032*
X87710Y41193*
X87871Y41403*
X87972Y41647*
X88007Y41909*
X87972Y42171*
X87871Y42415*
X87710Y42625*
X87500Y42786*
X87256Y42887*
X86994Y42922*
X86732Y42887*
X86614Y42838*
X86112Y43340*
Y43751*
X86233Y43792*
X86278Y43733*
X86488Y43572*
X86732Y43471*
X86994Y43436*
X87256Y43471*
X87500Y43572*
X87710Y43733*
X87871Y43943*
X87972Y44187*
X88007Y44449*
X87972Y44711*
X87871Y44955*
X87710Y45165*
X87500Y45326*
X87382Y45375*
Y45719*
X87353Y45868*
X87269Y45994*
X84221Y49042*
X84095Y49126*
X83946Y49155*
X82501*
X82366Y49246*
X82168Y49285*
G37*
G36*
X40447Y49663D02*
X39920D01*
Y49086*
X40447*
Y49663*
G37*
G36*
Y48832D02*
X39920D01*
Y48255*
X40447*
Y48832*
G37*
G36*
X106113Y46565D02*
X105536D01*
Y46038*
X106113*
Y46565*
G37*
G36*
X105282D02*
X104705D01*
Y46038*
X105282*
Y46565*
G37*
G36*
X96011Y48697D02*
Y47484D01*
X96449*
Y48157*
X96406Y48373*
X96283Y48556*
X96100Y48679*
X96011Y48697*
G37*
G36*
X95757D02*
X95668Y48679D01*
X95485Y48556*
X95362Y48373*
X95319Y48157*
Y47484*
X95757*
Y48697*
G37*
G36*
X90238Y60894D02*
X89661D01*
Y60367*
X90238*
Y60894*
G37*
G36*
X89407D02*
X88830D01*
Y60367*
X89407*
Y60894*
G37*
G36*
X93939Y61526D02*
X93558D01*
Y60749*
X93939*
Y61526*
G37*
G36*
X93304D02*
X92923D01*
Y60749*
X93304*
Y61526*
G37*
G36*
X103377Y61210D02*
X103115Y61175D01*
X102871Y61074*
X102661Y60913*
X102500Y60703*
X102399Y60459*
X102364Y60197*
X102399Y59935*
X102500Y59691*
X102661Y59481*
X102871Y59320*
X103115Y59219*
X103377Y59184*
X103639Y59219*
X103883Y59320*
X104093Y59481*
X104254Y59691*
X104355Y59935*
X104390Y60197*
X104355Y60459*
X104254Y60703*
X104093Y60913*
X103883Y61074*
X103639Y61175*
X103377Y61210*
G37*
G36*
X84454Y59041D02*
Y58546D01*
X84949*
X84925Y58667*
X84785Y58877*
X84575Y59017*
X84454Y59041*
G37*
G36*
X93939Y60495D02*
X93558D01*
Y59718*
X93939*
Y60495*
G37*
G36*
X93304D02*
X92923D01*
Y59718*
X93304*
Y60495*
G37*
G36*
X107695Y64373D02*
Y64007D01*
X108061*
X108047Y64078*
X107934Y64246*
X107766Y64359*
X107695Y64373*
G37*
G36*
X107441D02*
X107370Y64359D01*
X107202Y64246*
X107089Y64078*
X107075Y64007*
X107441*
Y64373*
G37*
G36*
X82676Y65010D02*
Y64515D01*
X83171*
X83147Y64636*
X83007Y64846*
X82797Y64986*
X82676Y65010*
G37*
G36*
X82422D02*
X82301Y64986D01*
X82091Y64846*
X81951Y64636*
X81927Y64515*
X82422*
Y65010*
G37*
G36*
X108061Y63753D02*
X107695D01*
Y63387*
X107766Y63401*
X107934Y63514*
X108047Y63682*
X108061Y63753*
G37*
G36*
X107441D02*
X107075D01*
X107089Y63682*
X107202Y63514*
X107370Y63401*
X107441Y63387*
Y63753*
G37*
G36*
X83171Y64261D02*
X82676D01*
Y63766*
X82797Y63790*
X83007Y63930*
X83147Y64140*
X83171Y64261*
G37*
G36*
X82422D02*
X81927D01*
X81951Y64140*
X82091Y63930*
X82301Y63790*
X82422Y63766*
Y64261*
G37*
G36*
X84200Y59041D02*
X84079Y59017D01*
X83869Y58877*
X83729Y58667*
X83705Y58546*
X84200*
Y59041*
G37*
G36*
X130174Y57784D02*
X128777D01*
Y57149*
X130174*
Y57784*
G37*
G36*
X127253Y58919D02*
Y57911D01*
Y56903*
X127391Y56921*
X127638Y57024*
X127802Y57149*
X128523*
Y57911*
Y58673*
X127802*
X127638Y58798*
X127391Y58901*
X127253Y58919*
G37*
G36*
X62991Y57898D02*
Y57403D01*
X63486*
X63462Y57524*
X63322Y57734*
X63112Y57874*
X62991Y57898*
G37*
G36*
X62737D02*
X62616Y57874D01*
X62406Y57734*
X62266Y57524*
X62242Y57403*
X62737*
Y57898*
G37*
G36*
X63486Y57149D02*
X62991D01*
Y56654*
X63112Y56678*
X63322Y56818*
X63462Y57028*
X63486Y57149*
G37*
G36*
X62737D02*
X62242D01*
X62266Y57028*
X62406Y56818*
X62616Y56678*
X62737Y56654*
Y57149*
G37*
G36*
X126999Y57784D02*
X126118D01*
X126136Y57646*
X126239Y57399*
X126401Y57186*
X126614Y57024*
X126861Y56921*
X126999Y56903*
Y57784*
G37*
G36*
X114553Y61345D02*
X105028D01*
X104929Y61325*
X104845Y61269*
X104789Y61185*
X104769Y61086*
Y57022*
X104789Y56923*
X104845Y56839*
X104929Y56783*
X105028Y56763*
X110679*
Y56705*
X114870*
Y57206*
X121284*
Y57149*
X123656*
X123820Y57024*
X124067Y56921*
X124332Y56886*
X124597Y56921*
X124844Y57024*
X125057Y57186*
X125219Y57399*
X125322Y57646*
X125357Y57911*
X125322Y58176*
X125219Y58423*
X125057Y58636*
X124844Y58798*
X124597Y58901*
X124332Y58936*
X124067Y58901*
X123820Y58798*
X123656Y58673*
X121284*
Y58616*
X114870*
Y60261*
X114812*
Y61086*
X114792Y61185*
X114736Y61269*
X114652Y61325*
X114553Y61345*
G37*
G36*
X130174Y58673D02*
X128777D01*
Y58038*
X130174*
Y58673*
G37*
G36*
X126999Y58919D02*
X126861Y58901D01*
X126614Y58798*
X126401Y58636*
X126239Y58423*
X126136Y58176*
X126118Y58038*
X126999*
Y58919*
G37*
G36*
X35178Y58912D02*
Y58546D01*
X35544*
X35530Y58617*
X35417Y58785*
X35249Y58898*
X35178Y58912*
G37*
G36*
X34924D02*
X34853Y58898D01*
X34685Y58785*
X34572Y58617*
X34558Y58546*
X34924*
Y58912*
G37*
G36*
X84949Y58292D02*
X84454D01*
Y57797*
X84575Y57821*
X84785Y57961*
X84925Y58171*
X84949Y58292*
G37*
G36*
X84200D02*
X83705D01*
X83729Y58171*
X83869Y57961*
X84079Y57821*
X84200Y57797*
Y58292*
G37*
G36*
X35544D02*
X35178D01*
Y57926*
X35249Y57940*
X35417Y58053*
X35530Y58221*
X35544Y58292*
G37*
G36*
X34924D02*
X34558D01*
X34572Y58221*
X34685Y58053*
X34853Y57940*
X34924Y57926*
Y58292*
G37*
G36*
X110503Y34899D02*
X107998D01*
Y32394*
X108284Y32416*
X108687Y32513*
X109071Y32672*
X109424Y32888*
X109739Y33158*
X110009Y33473*
X110225Y33826*
X110384Y34210*
X110481Y34613*
X110503Y34899*
G37*
G36*
X107744D02*
X105239D01*
X105261Y34613*
X105358Y34210*
X105517Y33826*
X105733Y33473*
X106003Y33158*
X106318Y32888*
X106672Y32672*
X107055Y32513*
X107458Y32416*
X107744Y32394*
Y34899*
G37*
G36*
X91094Y33479D02*
X90129D01*
X90150Y33319*
X90261Y33052*
X90437Y32822*
X90667Y32646*
X90934Y32535*
X91094Y32514*
Y33479*
G37*
G36*
X93991Y34714D02*
X93704Y34677D01*
X93437Y34566*
X93207Y34390*
X93031Y34160*
X92920Y33893*
X92882Y33606*
X92920Y33319*
X93031Y33052*
X93207Y32822*
X93437Y32646*
X93704Y32535*
X93991Y32498*
X94278Y32535*
X94545Y32646*
X94775Y32822*
X94951Y33052*
X95062Y33319*
X95099Y33606*
X95062Y33893*
X94951Y34160*
X94775Y34390*
X94545Y34566*
X94278Y34677*
X93991Y34714*
G37*
G36*
X46735Y33663D02*
X46470Y33628D01*
X46223Y33525*
X46010Y33363*
X45848Y33150*
X45745Y32903*
X45710Y32638*
X45745Y32373*
X45848Y32126*
X46010Y31913*
X46223Y31751*
X46470Y31648*
X46735Y31613*
X47000Y31648*
X47247Y31751*
X47460Y31913*
X47622Y32126*
X47725Y32373*
X47760Y32638*
X47725Y32903*
X47622Y33150*
X47460Y33363*
X47247Y33525*
X47000Y33628*
X46735Y33663*
G37*
G36*
X44195D02*
X43930Y33628D01*
X43683Y33525*
X43470Y33363*
X43308Y33150*
X43205Y32903*
X43170Y32638*
X43205Y32373*
X43308Y32126*
X43470Y31913*
X43683Y31751*
X43930Y31648*
X44195Y31613*
X44460Y31648*
X44707Y31751*
X44920Y31913*
X45082Y32126*
X45185Y32373*
X45220Y32638*
X45185Y32903*
X45082Y33150*
X44920Y33363*
X44707Y33525*
X44460Y33628*
X44195Y33663*
G37*
G36*
X85513Y34899D02*
X83008D01*
Y32394*
X83294Y32416*
X83697Y32513*
X84080Y32672*
X84434Y32888*
X84749Y33158*
X85019Y33473*
X85235Y33826*
X85394Y34210*
X85491Y34613*
X85513Y34899*
G37*
G36*
X82754D02*
X80249D01*
X80271Y34613*
X80368Y34210*
X80527Y33826*
X80743Y33473*
X81013Y33158*
X81328Y32888*
X81681Y32672*
X82065Y32513*
X82468Y32416*
X82754Y32394*
Y34899*
G37*
G36*
X55117Y35749D02*
X53215D01*
X53241Y35478*
X53358Y35095*
X53546Y34742*
X53800Y34433*
X54110Y34179*
X54463Y33990*
X54846Y33874*
X55117Y33847*
Y35749*
G37*
G36*
X122364Y35874D02*
Y33845D01*
X124393*
X124364Y34141*
X124241Y34548*
X124040Y34923*
X123771Y35252*
X123442Y35521*
X123067Y35722*
X122660Y35845*
X122364Y35874*
G37*
G36*
X67817Y35749D02*
X65915D01*
X65941Y35478*
X66058Y35095*
X66246Y34742*
X66500Y34433*
X66810Y34179*
X67163Y33990*
X67546Y33874*
X67817Y33847*
Y35749*
G37*
G36*
X57273D02*
X55371D01*
Y33847*
X55642Y33874*
X56025Y33990*
X56378Y34179*
X56688Y34433*
X56942Y34742*
X57130Y35095*
X57247Y35478*
X57273Y35749*
G37*
G36*
X91094Y34698D02*
X90934Y34677D01*
X90667Y34566*
X90437Y34390*
X90261Y34160*
X90150Y33893*
X90129Y33733*
X91094*
Y34698*
G37*
G36*
X92313Y33479D02*
X91348D01*
Y32514*
X91508Y32535*
X91775Y32646*
X92005Y32822*
X92181Y33052*
X92292Y33319*
X92313Y33479*
G37*
G36*
X122109Y35874D02*
X121813Y35845D01*
X121406Y35722*
X121031Y35521*
X120702Y35252*
X120433Y34923*
X120232Y34548*
X120109Y34141*
X120080Y33845*
X122109*
Y35874*
G37*
G36*
X91348Y34698D02*
Y33733D01*
X92313*
X92292Y33893*
X92181Y34160*
X92005Y34390*
X91775Y34566*
X91508Y34677*
X91348Y34698*
G37*
G36*
X35813Y33663D02*
X35548Y33628D01*
X35301Y33525*
X35088Y33363*
X34926Y33150*
X34823Y32903*
X34788Y32638*
X34823Y32373*
X34926Y32126*
X35088Y31913*
X35301Y31751*
X35548Y31648*
X35813Y31613*
X36078Y31648*
X36325Y31751*
X36538Y31913*
X36700Y32126*
X36803Y32373*
X36838Y32638*
X36803Y32903*
X36700Y33150*
X36538Y33363*
X36325Y33525*
X36078Y33628*
X35813Y33663*
G37*
G36*
X28701Y30826D02*
Y28701D01*
X30826*
X30795Y29016*
X30666Y29441*
X30457Y29832*
X30176Y30176*
X29832Y30457*
X29441Y30666*
X29016Y30795*
X28701Y30826*
G37*
G36*
X28447D02*
X28132Y30795D01*
X27707Y30666*
X27316Y30457*
X26972Y30176*
X26691Y29832*
X26482Y29441*
X26353Y29016*
X26322Y28701*
X28447*
Y30826*
G37*
G36*
X130047D02*
Y28701D01*
X132172*
X132141Y29016*
X132013Y29441*
X131803Y29832*
X131522Y30176*
X131178Y30457*
X130787Y30666*
X130362Y30795*
X130047Y30826*
G37*
G36*
X129793D02*
X129478Y30795D01*
X129053Y30666*
X128662Y30457*
X128318Y30176*
X128037Y29832*
X127827Y29441*
X127699Y29016*
X127668Y28701*
X129793*
Y30826*
G37*
G36*
X30826Y28447D02*
X28701D01*
Y26322*
X29016Y26353*
X29441Y26482*
X29832Y26691*
X30176Y26972*
X30457Y27316*
X30666Y27707*
X30795Y28132*
X30826Y28447*
G37*
G36*
X28447D02*
X26322D01*
X26353Y28132*
X26482Y27707*
X26691Y27316*
X26972Y26972*
X27316Y26691*
X27707Y26482*
X28132Y26353*
X28447Y26322*
Y28447*
G37*
G36*
X132172D02*
X130047D01*
Y26322*
X130362Y26353*
X130787Y26482*
X131178Y26691*
X131522Y26972*
X131803Y27316*
X132013Y27707*
X132141Y28132*
X132172Y28447*
G37*
G36*
X129793D02*
X127668D01*
X127699Y28132*
X127827Y27707*
X128037Y27316*
X128318Y26972*
X128662Y26691*
X129053Y26482*
X129478Y26353*
X129793Y26322*
Y28447*
G37*
G36*
X122109Y33590D02*
X120080D01*
X120109Y33294*
X120232Y32887*
X120433Y32512*
X120702Y32183*
X121031Y31914*
X121406Y31713*
X121813Y31590*
X122109Y31561*
Y33590*
G37*
G36*
X115569Y31034D02*
X115294Y30998D01*
X115037Y30892*
X114817Y30723*
X114648Y30503*
X114542Y30246*
X114506Y29971*
X114542Y29696*
X114648Y29439*
X114817Y29219*
X115037Y29050*
X115294Y28944*
X115569Y28908*
X115844Y28944*
X116101Y29050*
X116321Y29219*
X116490Y29439*
X116596Y29696*
X116632Y29971*
X116596Y30246*
X116490Y30503*
X116321Y30723*
X116101Y30892*
X115844Y30998*
X115569Y31034*
G37*
G36*
X29336Y54618D02*
X29071Y54583D01*
X28824Y54480*
X28611Y54318*
X28449Y54105*
X28346Y53858*
X28311Y53593*
X28346Y53328*
X28449Y53081*
X28611Y52868*
X28818Y52710*
Y36575*
X28857Y36377*
X28970Y36209*
X32282Y32896*
X32248Y32638*
X32283Y32373*
X32386Y32126*
X32548Y31913*
X32761Y31751*
X33008Y31648*
X33273Y31613*
X33538Y31648*
X33785Y31751*
X33998Y31913*
X34160Y32126*
X34263Y32373*
X34298Y32638*
X34263Y32903*
X34160Y33150*
X33998Y33363*
X33785Y33525*
X33538Y33628*
X33273Y33663*
X33015Y33629*
X29854Y36790*
Y52710*
X30061Y52868*
X30223Y53081*
X30326Y53328*
X30361Y53593*
X30326Y53858*
X30223Y54105*
X30061Y54318*
X29848Y54480*
X29601Y54583*
X29336Y54618*
G37*
G36*
X124393Y33590D02*
X122364D01*
Y31561*
X122660Y31590*
X123067Y31713*
X123442Y31914*
X123771Y32183*
X124040Y32512*
X124241Y32887*
X124364Y33294*
X124393Y33590*
G37*
G36*
X72643Y31034D02*
X72368Y30998D01*
X72111Y30892*
X71891Y30723*
X71722Y30503*
X71616Y30246*
X71580Y29971*
X71616Y29696*
X71722Y29439*
X71891Y29219*
X72111Y29050*
X72368Y28944*
X72643Y28908*
X72918Y28944*
X73175Y29050*
X73395Y29219*
X73564Y29439*
X73670Y29696*
X73706Y29971*
X73670Y30246*
X73564Y30503*
X73395Y30723*
X73175Y30892*
X72918Y30998*
X72643Y31034*
G37*
G36*
X70103D02*
X69828Y30998D01*
X69571Y30892*
X69351Y30723*
X69182Y30503*
X69076Y30246*
X69040Y29971*
X69076Y29696*
X69182Y29439*
X69351Y29219*
X69571Y29050*
X69828Y28944*
X70103Y28908*
X70378Y28944*
X70635Y29050*
X70855Y29219*
X71024Y29439*
X71130Y29696*
X71166Y29971*
X71130Y30246*
X71024Y30503*
X70855Y30723*
X70635Y30892*
X70378Y30998*
X70103Y31034*
G37*
G36*
X113029D02*
X112754Y30998D01*
X112497Y30892*
X112277Y30723*
X112108Y30503*
X112002Y30246*
X111966Y29971*
X112002Y29696*
X112108Y29439*
X112277Y29219*
X112497Y29050*
X112754Y28944*
X113029Y28908*
X113304Y28944*
X113561Y29050*
X113781Y29219*
X113950Y29439*
X114056Y29696*
X114092Y29971*
X114056Y30246*
X113950Y30503*
X113781Y30723*
X113561Y30892*
X113304Y30998*
X113029Y31034*
G37*
G36*
X75310D02*
X75035Y30998D01*
X74778Y30892*
X74558Y30723*
X74389Y30503*
X74283Y30246*
X74247Y29971*
X74283Y29696*
X74389Y29439*
X74558Y29219*
X74778Y29050*
X75035Y28944*
X75310Y28908*
X75585Y28944*
X75842Y29050*
X76062Y29219*
X76231Y29439*
X76337Y29696*
X76373Y29971*
X76337Y30246*
X76231Y30503*
X76062Y30723*
X75842Y30892*
X75585Y30998*
X75310Y31034*
G37*
G36*
X48259Y41031D02*
X47927Y40987D01*
X47619Y40859*
X47353Y40656*
X47150Y40390*
X47022Y40082*
X46978Y39750*
X47022Y39418*
X47150Y39110*
X47353Y38844*
X47619Y38641*
X47927Y38513*
X48259Y38469*
X48591Y38513*
X48899Y38641*
X49165Y38844*
X49368Y39110*
X49496Y39418*
X49540Y39750*
X49496Y40082*
X49368Y40390*
X49165Y40656*
X48899Y40859*
X48591Y40987*
X48259Y41031*
G37*
G36*
X31749D02*
X31417Y40987D01*
X31109Y40859*
X30843Y40656*
X30640Y40390*
X30512Y40082*
X30468Y39750*
X30512Y39418*
X30640Y39110*
X30843Y38844*
X31109Y38641*
X31417Y38513*
X31749Y38469*
X32081Y38513*
X32389Y38641*
X32655Y38844*
X32858Y39110*
X32986Y39418*
X33030Y39750*
X32986Y40082*
X32858Y40390*
X32655Y40656*
X32389Y40859*
X32081Y40987*
X31749Y41031*
G37*
G36*
X84454Y42922D02*
X84192Y42887D01*
X83948Y42786*
X83738Y42625*
X83577Y42415*
X83476Y42171*
X83441Y41909*
X83476Y41647*
X83577Y41403*
X83738Y41193*
X83948Y41032*
X84192Y40931*
X84454Y40896*
X84716Y40931*
X84960Y41032*
X85170Y41193*
X85331Y41403*
X85432Y41647*
X85467Y41909*
X85432Y42171*
X85331Y42415*
X85170Y42625*
X84960Y42786*
X84716Y42887*
X84454Y42922*
G37*
G36*
X99694Y43922D02*
X99478Y43879D01*
X99295Y43756*
X99172Y43573*
X99129Y43357*
Y41757*
X99172Y41541*
X99241Y41438*
Y40581*
X99105*
X99013*
X98812*
Y41350*
X98823Y41358*
X98946Y41541*
X98989Y41757*
Y43357*
X98946Y43573*
X98823Y43756*
X98640Y43879*
X98424Y43922*
X98208Y43879*
X98025Y43756*
X97902Y43573*
X97859Y43357*
Y41757*
X97902Y41541*
X97906Y41535*
Y40581*
X97705*
X97697*
X97607Y40671*
Y41438*
X97676Y41541*
X97719Y41757*
Y43357*
X97676Y43573*
X97553Y43756*
X97370Y43879*
X97154Y43922*
X96938Y43879*
X96755Y43756*
X96632Y43573*
X96589Y43357*
Y41757*
X96632Y41541*
X96701Y41438*
Y40635*
X96647Y40581*
X95930*
X95838*
X95121*
X95067Y40635*
Y41438*
X95136Y41541*
X95179Y41757*
Y43357*
X95136Y43573*
X95013Y43756*
X94830Y43879*
X94614Y43922*
X94398Y43879*
X94215Y43756*
X94092Y43573*
X94049Y43357*
Y41757*
X94092Y41541*
X94161Y41438*
Y40447*
X94195Y40274*
X94294Y40127*
X94530Y39890*
Y39173*
X95838*
X95930*
X97238*
Y39890*
X97474Y40126*
Y40127*
X97573Y40274*
X97579Y40303*
X97705Y40291*
Y39173*
X99013*
X99105*
X100413*
Y40581*
X100147*
Y41438*
X100216Y41541*
X100259Y41757*
Y43357*
X100216Y43573*
X100093Y43756*
X99910Y43879*
X99694Y43922*
G37*
G36*
X62737Y38416D02*
X61856D01*
X61874Y38278*
X61977Y38031*
X62139Y37819*
X62352Y37656*
X62599Y37554*
X62737Y37535*
Y38416*
G37*
G36*
X126809Y38922D02*
Y36893D01*
X128838*
X128809Y37189*
X128686Y37596*
X128485Y37971*
X128216Y38300*
X127887Y38569*
X127512Y38770*
X127105Y38893*
X126809Y38922*
G37*
G36*
X122237Y42110D02*
X121813Y42068D01*
X121406Y41945*
X121031Y41744*
X120702Y41475*
X120433Y41146*
X120232Y40771*
X120109Y40364*
X120067Y39941*
X120109Y39517*
X120232Y39110*
X120433Y38735*
X120702Y38406*
X121031Y38137*
X121406Y37936*
X121813Y37813*
X122237Y37771*
X122660Y37813*
X123067Y37936*
X123442Y38137*
X123771Y38406*
X124040Y38735*
X124241Y39110*
X131063*
X131162Y39130*
X131246Y39186*
X131302Y39270*
X131322Y39369*
Y41528*
X131302Y41627*
X131246Y41711*
X131162Y41767*
X131063Y41787*
X123362*
X123067Y41945*
X122660Y42068*
X122237Y42110*
G37*
G36*
X63872Y38416D02*
X62991D01*
Y37535*
X63129Y37554*
X63376Y37656*
X63589Y37819*
X63751Y38031*
X63854Y38278*
X63872Y38416*
G37*
G36*
X126843Y45726D02*
X124035D01*
Y42918*
X124073*
Y42290*
X124093Y42191*
X124149Y42107*
X124233Y42051*
X124332Y42031*
X131063*
X131162Y42051*
X131246Y42107*
X131302Y42191*
X131322Y42290*
Y45465*
X131302Y45564*
X131246Y45648*
X131162Y45704*
X131063Y45724*
X126843*
Y45726*
G37*
G36*
X110235Y42544D02*
X108838D01*
Y41909*
X110235*
Y42544*
G37*
G36*
X112013Y43679D02*
Y42798D01*
X112894*
X112876Y42936*
X112773Y43183*
X112611Y43396*
X112398Y43558*
X112151Y43661*
X112013Y43679*
G37*
G36*
X110235Y43433D02*
X108838D01*
Y42798*
X110235*
Y43433*
G37*
G36*
X74871Y41844D02*
X74294D01*
Y41317*
X74871*
Y41844*
G37*
G36*
X74040D02*
X73463D01*
Y41317*
X74040*
Y41844*
G37*
G36*
X112894Y42544D02*
X112013D01*
Y41663*
X112151Y41681*
X112398Y41784*
X112611Y41946*
X112773Y42159*
X112876Y42406*
X112894Y42544*
G37*
G36*
X111759Y43679D02*
X111621Y43661D01*
X111374Y43558*
X111210Y43433*
X110489*
Y42671*
Y41909*
X111210*
X111374Y41784*
X111621Y41681*
X111759Y41663*
Y42671*
Y43679*
G37*
G36*
X126554Y38922D02*
X126258Y38893D01*
X125851Y38770*
X125476Y38569*
X125147Y38300*
X124878Y37971*
X124677Y37596*
X124554Y37189*
X124525Y36893*
X126554*
Y38922*
G37*
G36*
X82754Y37658D02*
X82468Y37636D01*
X82065Y37539*
X81681Y37380*
X81328Y37164*
X81013Y36894*
X80743Y36579*
X80527Y36226*
X80368Y35842*
X80271Y35439*
X80249Y35153*
X82754*
Y37658*
G37*
G36*
X45719Y38616D02*
X45346Y38579D01*
X44986Y38471*
X44656Y38294*
X44365Y38056*
X44127Y37765*
X43950Y37435*
X43842Y37075*
X43805Y36702*
X43842Y36329*
X43950Y35969*
X44127Y35639*
X44365Y35348*
X44656Y35110*
X44986Y34933*
X45346Y34825*
X45719Y34788*
X46092Y34825*
X46452Y34933*
X46782Y35110*
X47073Y35348*
X47311Y35639*
X47488Y35969*
X47596Y36329*
X47633Y36702*
X47596Y37075*
X47488Y37435*
X47311Y37765*
X47073Y38056*
X46782Y38294*
X46452Y38471*
X46092Y38579*
X45719Y38616*
G37*
G36*
X107744Y37658D02*
X107458Y37636D01*
X107055Y37539*
X106672Y37380*
X106318Y37164*
X106003Y36894*
X105733Y36579*
X105517Y36226*
X105358Y35842*
X105261Y35439*
X105239Y35153*
X107744*
Y37658*
G37*
G36*
X83008D02*
Y35153D01*
X85513*
X85491Y35439*
X85394Y35842*
X85235Y36226*
X85019Y36579*
X84749Y36894*
X84434Y37164*
X84080Y37380*
X83697Y37539*
X83294Y37636*
X83008Y37658*
G37*
G36*
X126554Y36638D02*
X124525D01*
X124554Y36342*
X124677Y35935*
X124878Y35560*
X125147Y35231*
X125476Y34962*
X125851Y34761*
X126258Y34638*
X126554Y34609*
Y36638*
G37*
G36*
X69973Y35749D02*
X68071D01*
Y33847*
X68342Y33874*
X68725Y33990*
X69078Y34179*
X69388Y34433*
X69642Y34742*
X69830Y35095*
X69947Y35478*
X69973Y35749*
G37*
G36*
X34289Y38616D02*
X33916Y38579D01*
X33556Y38471*
X33226Y38294*
X32935Y38056*
X32697Y37765*
X32520Y37435*
X32412Y37075*
X32375Y36702*
X32412Y36329*
X32520Y35969*
X32697Y35639*
X32935Y35348*
X33226Y35110*
X33556Y34933*
X33916Y34825*
X34289Y34788*
X34662Y34825*
X35022Y34933*
X35352Y35110*
X35643Y35348*
X35881Y35639*
X36058Y35969*
X36166Y36329*
X36203Y36702*
X36166Y37075*
X36058Y37435*
X35881Y37765*
X35643Y38056*
X35352Y38294*
X35022Y38471*
X34662Y38579*
X34289Y38616*
G37*
G36*
X128838Y36638D02*
X126809D01*
Y34609*
X127105Y34638*
X127512Y34761*
X127887Y34962*
X128216Y35231*
X128485Y35560*
X128686Y35935*
X128809Y36342*
X128838Y36638*
G37*
G36*
X55371Y37906D02*
Y36004D01*
X57273*
X57247Y36275*
X57130Y36658*
X56942Y37011*
X56688Y37320*
X56378Y37574*
X56025Y37763*
X55642Y37879*
X55371Y37906*
G37*
G36*
X55117D02*
X54846Y37879D01*
X54463Y37763*
X54110Y37574*
X53800Y37320*
X53546Y37011*
X53358Y36658*
X53241Y36275*
X53215Y36004*
X55117*
Y37906*
G37*
G36*
X68071D02*
Y36004D01*
X69973*
X69947Y36275*
X69830Y36658*
X69642Y37011*
X69388Y37320*
X69078Y37574*
X68725Y37763*
X68342Y37879*
X68071Y37906*
G37*
G36*
X67817D02*
X67546Y37879D01*
X67163Y37763*
X66810Y37574*
X66500Y37320*
X66246Y37011*
X66058Y36658*
X65941Y36275*
X65915Y36004*
X67817*
Y37906*
G37*
G36*
X89836Y37555D02*
X89549Y37517D01*
X89282Y37406*
X89052Y37230*
X88876Y37000*
X88765Y36733*
X88728Y36446*
X88765Y36159*
X88876Y35892*
X89052Y35662*
X89282Y35486*
X89549Y35375*
X89836Y35338*
X90123Y35375*
X90390Y35486*
X90620Y35662*
X90796Y35892*
X90907Y36159*
X90944Y36446*
X90907Y36733*
X90796Y37000*
X90620Y37230*
X90390Y37406*
X90123Y37517*
X89836Y37555*
G37*
G36*
X107998Y37658D02*
Y35153D01*
X110503*
X110481Y35439*
X110384Y35842*
X110225Y36226*
X110009Y36579*
X109739Y36894*
X109424Y37164*
X109071Y37380*
X108687Y37539*
X108284Y37636*
X107998Y37658*
G37*
G36*
X103504Y43922D02*
X103288Y43879D01*
X103105Y43756*
X102982Y43573*
X102939Y43357*
Y41757*
X102982Y41541*
X103051Y41438*
Y36128*
X102427Y35504*
X102015*
Y37545*
X100052*
X100003Y37662*
X100368Y38027*
X101472*
X101645Y38061*
X101792Y38160*
X102554Y38922*
X102653Y39069*
X102687Y39242*
Y41438*
X102756Y41541*
X102799Y41757*
Y43357*
X102756Y43573*
X102633Y43756*
X102450Y43879*
X102234Y43922*
X102018Y43879*
X101835Y43756*
X101712Y43573*
X101669Y43357*
Y41757*
X101712Y41541*
X101781Y41438*
Y39430*
X101284Y38933*
X100180*
X100007Y38899*
X99860Y38800*
X98534Y37475*
X98433Y37517*
X98146Y37555*
X97859Y37517*
X97592Y37406*
X97362Y37230*
X97186Y37000*
X97075Y36733*
X97038Y36446*
X97075Y36159*
X97186Y35892*
X97362Y35662*
X97411Y35624*
X97371Y35504*
X96959*
X96405Y36058*
X96447Y36159*
X96484Y36446*
X96447Y36733*
X96336Y37000*
X96160Y37230*
X95930Y37406*
X95663Y37517*
X95376Y37555*
X95089Y37517*
X94822Y37406*
X94592Y37230*
X94416Y37000*
X94305Y36733*
X94268Y36446*
X94305Y36159*
X94416Y35892*
X94592Y35662*
X94822Y35486*
X95089Y35375*
X95376Y35338*
X95663Y35375*
X95764Y35417*
X96415Y34766*
X96390Y34642*
X96207Y34566*
X95977Y34390*
X95801Y34160*
X95690Y33893*
X95653Y33606*
X95690Y33319*
X95801Y33052*
X95977Y32822*
X96207Y32646*
X96474Y32535*
X96761Y32498*
X97048Y32535*
X97315Y32646*
X97545Y32822*
X97721Y33052*
X97832Y33319*
X97869Y33606*
X97832Y33893*
X97721Y34160*
X97545Y34390*
X97315Y34566*
X97322Y34598*
X98821*
X98861Y34478*
X98747Y34390*
X98571Y34160*
X98460Y33893*
X98423Y33606*
X98460Y33319*
X98571Y33052*
X98747Y32822*
X98977Y32646*
X99244Y32535*
X99531Y32498*
X99818Y32535*
X100085Y32646*
X100315Y32822*
X100491Y33052*
X100602Y33319*
X100639Y33606*
X100602Y33893*
X100491Y34160*
X100315Y34390*
X100085Y34566*
X100092Y34598*
X102615*
X102788Y34632*
X102935Y34731*
X103824Y35620*
X103874Y35693*
X103923Y35767*
X103957Y35940*
Y41438*
X104026Y41541*
X104069Y41757*
Y43357*
X104026Y43573*
X103903Y43756*
X103720Y43879*
X103504Y43922*
G37*
G36*
X92606Y37555D02*
X92319Y37517D01*
X92052Y37406*
X91822Y37230*
X91646Y37000*
X91535Y36733*
X91498Y36446*
X91535Y36159*
X91646Y35892*
X91822Y35662*
X92052Y35486*
X92319Y35375*
X92606Y35338*
X92893Y35375*
X93160Y35486*
X93390Y35662*
X93566Y35892*
X93677Y36159*
X93715Y36446*
X93677Y36733*
X93566Y37000*
X93390Y37230*
X93160Y37406*
X92893Y37517*
X92606Y37555*
G37*
G36*
X113156Y86102D02*
X112894Y86067D01*
X112650Y85966*
X112440Y85805*
X112279Y85595*
X112178Y85351*
X112143Y85089*
X112178Y84827*
X112279Y84583*
X112440Y84373*
X112650Y84212*
X112894Y84111*
X113156Y84076*
X113418Y84111*
X113662Y84212*
X113872Y84373*
X114033Y84583*
X114134Y84827*
X114169Y85089*
X114134Y85351*
X114033Y85595*
X113872Y85805*
X113662Y85966*
X113418Y86067*
X113156Y86102*
G37*
G36*
X110616D02*
X110354Y86067D01*
X110110Y85966*
X109900Y85805*
X109739Y85595*
X109638Y85351*
X109603Y85089*
X109638Y84827*
X109739Y84583*
X109900Y84373*
X110110Y84212*
X110354Y84111*
X110616Y84076*
X110878Y84111*
X111122Y84212*
X111332Y84373*
X111493Y84583*
X111594Y84827*
X111629Y85089*
X111594Y85351*
X111493Y85595*
X111332Y85805*
X111122Y85966*
X110878Y86067*
X110616Y86102*
G37*
G36*
X118236D02*
X117974Y86067D01*
X117730Y85966*
X117520Y85805*
X117359Y85595*
X117258Y85351*
X117223Y85089*
X117258Y84827*
X117359Y84583*
X117520Y84373*
X117730Y84212*
X117974Y84111*
X118236Y84076*
X118498Y84111*
X118742Y84212*
X118952Y84373*
X119113Y84583*
X119214Y84827*
X119249Y85089*
X119214Y85351*
X119113Y85595*
X118952Y85805*
X118742Y85966*
X118498Y86067*
X118236Y86102*
G37*
G36*
X115696D02*
X115434Y86067D01*
X115190Y85966*
X114980Y85805*
X114819Y85595*
X114718Y85351*
X114683Y85089*
X114718Y84827*
X114819Y84583*
X114980Y84373*
X115190Y84212*
X115434Y84111*
X115696Y84076*
X115958Y84111*
X116202Y84212*
X116412Y84373*
X116573Y84583*
X116674Y84827*
X116709Y85089*
X116674Y85351*
X116573Y85595*
X116412Y85805*
X116202Y85966*
X115958Y86067*
X115696Y86102*
G37*
G36*
X108076D02*
X107814Y86067D01*
X107570Y85966*
X107360Y85805*
X107199Y85595*
X107098Y85351*
X107063Y85089*
X107098Y84827*
X107199Y84583*
X107360Y84373*
X107570Y84212*
X107814Y84111*
X108076Y84076*
X108338Y84111*
X108582Y84212*
X108792Y84373*
X108953Y84583*
X109054Y84827*
X109089Y85089*
X109054Y85351*
X108953Y85595*
X108792Y85805*
X108582Y85966*
X108338Y86067*
X108076Y86102*
G37*
G36*
X94741D02*
X94479Y86067D01*
X94235Y85966*
X94025Y85805*
X93864Y85595*
X93763Y85351*
X93728Y85089*
X93763Y84827*
X93864Y84583*
X94025Y84373*
X94235Y84212*
X94479Y84111*
X94741Y84076*
X95003Y84111*
X95247Y84212*
X95457Y84373*
X95618Y84583*
X95719Y84827*
X95754Y85089*
X95719Y85351*
X95618Y85595*
X95457Y85805*
X95247Y85966*
X95003Y86067*
X94741Y86102*
G37*
G36*
X92201D02*
X91939Y86067D01*
X91695Y85966*
X91485Y85805*
X91324Y85595*
X91223Y85351*
X91188Y85089*
X91223Y84827*
X91324Y84583*
X91485Y84373*
X91695Y84212*
X91939Y84111*
X92201Y84076*
X92463Y84111*
X92707Y84212*
X92917Y84373*
X93078Y84583*
X93179Y84827*
X93214Y85089*
X93179Y85351*
X93078Y85595*
X92917Y85805*
X92707Y85966*
X92463Y86067*
X92201Y86102*
G37*
G36*
X99821D02*
X99559Y86067D01*
X99315Y85966*
X99105Y85805*
X98944Y85595*
X98843Y85351*
X98808Y85089*
X98843Y84827*
X98944Y84583*
X99105Y84373*
X99315Y84212*
X99559Y84111*
X99821Y84076*
X100083Y84111*
X100327Y84212*
X100537Y84373*
X100698Y84583*
X100799Y84827*
X100834Y85089*
X100799Y85351*
X100698Y85595*
X100537Y85805*
X100327Y85966*
X100083Y86067*
X99821Y86102*
G37*
G36*
X97281D02*
X97019Y86067D01*
X96775Y85966*
X96565Y85805*
X96404Y85595*
X96303Y85351*
X96268Y85089*
X96303Y84827*
X96404Y84583*
X96565Y84373*
X96775Y84212*
X97019Y84111*
X97281Y84076*
X97543Y84111*
X97787Y84212*
X97997Y84373*
X98158Y84583*
X98259Y84827*
X98294Y85089*
X98259Y85351*
X98158Y85595*
X97997Y85805*
X97787Y85966*
X97543Y86067*
X97281Y86102*
G37*
G36*
X28447Y87629D02*
X26322D01*
X26353Y87314*
X26482Y86889*
X26691Y86498*
X26972Y86154*
X27316Y85873*
X27707Y85663*
X28132Y85535*
X28447Y85504*
Y87629*
G37*
G36*
X106540Y86093D02*
X104532D01*
Y84085*
X106540*
Y86093*
G37*
G36*
X129793Y87629D02*
X127668D01*
X127699Y87314*
X127827Y86889*
X128037Y86498*
X128318Y86154*
X128662Y85873*
X129053Y85663*
X129478Y85535*
X129793Y85504*
Y87629*
G37*
G36*
X30826D02*
X28701D01*
Y85504*
X29016Y85535*
X29441Y85663*
X29832Y85873*
X30176Y86154*
X30457Y86498*
X30666Y86889*
X30795Y87314*
X30826Y87629*
G37*
G36*
X83045Y86093D02*
X81037D01*
Y84085*
X83045*
Y86093*
G37*
G36*
X123316Y86102D02*
X123054Y86067D01*
X122810Y85966*
X122600Y85805*
X122439Y85595*
X122338Y85351*
X122303Y85089*
X122338Y84827*
X122439Y84583*
X122600Y84373*
X122810Y84212*
X123054Y84111*
X123316Y84076*
X123578Y84111*
X123822Y84212*
X124032Y84373*
X124193Y84583*
X124294Y84827*
X124329Y85089*
X124294Y85351*
X124193Y85595*
X124032Y85805*
X123822Y85966*
X123578Y86067*
X123316Y86102*
G37*
G36*
X120776D02*
X120514Y86067D01*
X120270Y85966*
X120060Y85805*
X119899Y85595*
X119798Y85351*
X119763Y85089*
X119798Y84827*
X119899Y84583*
X120060Y84373*
X120270Y84212*
X120514Y84111*
X120776Y84076*
X121038Y84111*
X121282Y84212*
X121492Y84373*
X121653Y84583*
X121754Y84827*
X121789Y85089*
X121754Y85351*
X121653Y85595*
X121492Y85805*
X121282Y85966*
X121038Y86067*
X120776Y86102*
G37*
G36*
X59550Y86093D02*
X57542D01*
Y84085*
X59550*
Y86093*
G37*
G36*
X36055D02*
X34047D01*
Y84085*
X36055*
Y86093*
G37*
G36*
X89661Y86102D02*
X89399Y86067D01*
X89155Y85966*
X88945Y85805*
X88784Y85595*
X88683Y85351*
X88648Y85089*
X88683Y84827*
X88784Y84583*
X88945Y84373*
X89155Y84212*
X89399Y84111*
X89661Y84076*
X89923Y84111*
X90167Y84212*
X90377Y84373*
X90538Y84583*
X90639Y84827*
X90674Y85089*
X90639Y85351*
X90538Y85595*
X90377Y85805*
X90167Y85966*
X89923Y86067*
X89661Y86102*
G37*
G36*
X47751D02*
X47489Y86067D01*
X47245Y85966*
X47035Y85805*
X46874Y85595*
X46773Y85351*
X46738Y85089*
X46773Y84827*
X46874Y84583*
X47035Y84373*
X47245Y84212*
X47489Y84111*
X47751Y84076*
X48013Y84111*
X48257Y84212*
X48467Y84373*
X48628Y84583*
X48729Y84827*
X48764Y85089*
X48729Y85351*
X48628Y85595*
X48467Y85805*
X48257Y85966*
X48013Y86067*
X47751Y86102*
G37*
G36*
X45211D02*
X44949Y86067D01*
X44705Y85966*
X44495Y85805*
X44334Y85595*
X44233Y85351*
X44198Y85089*
X44233Y84827*
X44334Y84583*
X44495Y84373*
X44705Y84212*
X44949Y84111*
X45211Y84076*
X45473Y84111*
X45717Y84212*
X45927Y84373*
X46088Y84583*
X46189Y84827*
X46224Y85089*
X46189Y85351*
X46088Y85595*
X45927Y85805*
X45717Y85966*
X45473Y86067*
X45211Y86102*
G37*
G36*
X52831D02*
X52569Y86067D01*
X52325Y85966*
X52115Y85805*
X51954Y85595*
X51853Y85351*
X51818Y85089*
X51853Y84827*
X51954Y84583*
X52115Y84373*
X52325Y84212*
X52569Y84111*
X52831Y84076*
X53093Y84111*
X53337Y84212*
X53547Y84373*
X53708Y84583*
X53809Y84827*
X53844Y85089*
X53809Y85351*
X53708Y85595*
X53547Y85805*
X53337Y85966*
X53093Y86067*
X52831Y86102*
G37*
G36*
X50291D02*
X50029Y86067D01*
X49785Y85966*
X49575Y85805*
X49414Y85595*
X49313Y85351*
X49278Y85089*
X49313Y84827*
X49414Y84583*
X49575Y84373*
X49785Y84212*
X50029Y84111*
X50291Y84076*
X50553Y84111*
X50797Y84212*
X51007Y84373*
X51168Y84583*
X51269Y84827*
X51304Y85089*
X51269Y85351*
X51168Y85595*
X51007Y85805*
X50797Y85966*
X50553Y86067*
X50291Y86102*
G37*
G36*
X42671D02*
X42409Y86067D01*
X42165Y85966*
X41955Y85805*
X41794Y85595*
X41693Y85351*
X41658Y85089*
X41693Y84827*
X41794Y84583*
X41955Y84373*
X42165Y84212*
X42409Y84111*
X42671Y84076*
X42933Y84111*
X43177Y84212*
X43387Y84373*
X43548Y84583*
X43649Y84827*
X43684Y85089*
X43649Y85351*
X43548Y85595*
X43387Y85805*
X43177Y85966*
X42933Y86067*
X42671Y86102*
G37*
G36*
X113294Y83383D02*
X113121Y83349D01*
X112974Y83250*
X111956Y82233*
X110789*
X110697*
X108989*
Y81667*
X106171*
X106022Y81638*
X105896Y81554*
X103084Y78741*
X102925Y78710*
X102757Y78597*
X102644Y78429*
X102605Y78231*
X102644Y78033*
X102757Y77865*
X102925Y77752*
X103123Y77713*
X103321Y77752*
X103489Y77865*
X103602Y78033*
X103633Y78192*
X103771Y78329*
X103883Y78269*
X103875Y78231*
X103914Y78033*
X104027Y77865*
X104195Y77752*
X104393Y77713*
X104591Y77752*
X104759Y77865*
X104872Y78033*
X104903Y78192*
X106078Y79367*
X112521*
X112670Y79396*
X112796Y79480*
X113640Y80325*
X114888*
X114980*
X116688*
Y80826*
X118641*
Y80817*
Y79709*
X119176*
X119320Y79680*
X120791*
Y78759*
X121415*
X121470Y78748*
X122760*
X123804Y77705*
X123864Y77664*
X123987Y77582*
X124203Y77539*
X128269*
X128485Y77582*
X128668Y77705*
X129350Y78386*
X129539Y78361*
X129801Y78396*
X130045Y78497*
X130255Y78658*
X130416Y78868*
X130517Y79112*
X130552Y79374*
X130517Y79636*
X130416Y79880*
X130255Y80090*
X130045Y80251*
X129801Y80352*
X129539Y80387*
X129277Y80352*
X129033Y80251*
X128823Y80090*
X128662Y79880*
X128561Y79636*
X128526Y79374*
X128551Y79185*
X128035Y78669*
X127483*
Y78759*
Y79059*
X129334Y80910*
X130543*
Y82918*
X128535*
Y81709*
X127600Y80774*
X127483Y80823*
Y81767*
X127025*
X125541Y83250*
X125394Y83349*
X125221Y83383*
X113294*
G37*
G36*
X41398Y78910D02*
X40171D01*
Y77683*
X41398*
Y78910*
G37*
G36*
X40131Y86102D02*
X39869Y86067D01*
X39625Y85966*
X39415Y85805*
X39254Y85595*
X39153Y85351*
X39118Y85089*
X39153Y84827*
X39254Y84583*
X39415Y84373*
X39625Y84212*
X39869Y84111*
X40131Y84076*
X40393Y84111*
X40637Y84212*
X40847Y84373*
X41008Y84583*
X41109Y84827*
X41144Y85089*
X41109Y85351*
X41008Y85595*
X40847Y85805*
X40637Y85966*
X40393Y86067*
X40131Y86102*
G37*
G36*
X37591D02*
X37329Y86067D01*
X37085Y85966*
X36875Y85805*
X36714Y85595*
X36613Y85351*
X36578Y85089*
X36613Y84827*
X36714Y84583*
X36875Y84373*
X37085Y84212*
X37329Y84111*
X37591Y84076*
X37853Y84111*
X38097Y84212*
X38307Y84373*
X38468Y84583*
X38569Y84827*
X38604Y85089*
X38569Y85351*
X38468Y85595*
X38307Y85805*
X38097Y85966*
X37853Y86067*
X37591Y86102*
G37*
G36*
X76326D02*
X76064Y86067D01*
X75820Y85966*
X75610Y85805*
X75449Y85595*
X75348Y85351*
X75313Y85089*
X75348Y84827*
X75449Y84583*
X75610Y84373*
X75820Y84212*
X76064Y84111*
X76326Y84076*
X76588Y84111*
X76832Y84212*
X77042Y84373*
X77203Y84583*
X77304Y84827*
X77339Y85089*
X77304Y85351*
X77203Y85595*
X77042Y85805*
X76832Y85966*
X76588Y86067*
X76326Y86102*
G37*
G36*
X73786D02*
X73524Y86067D01*
X73280Y85966*
X73070Y85805*
X72909Y85595*
X72808Y85351*
X72773Y85089*
X72808Y84827*
X72909Y84583*
X73070Y84373*
X73280Y84212*
X73524Y84111*
X73786Y84076*
X74048Y84111*
X74292Y84212*
X74502Y84373*
X74663Y84583*
X74764Y84827*
X74799Y85089*
X74764Y85351*
X74663Y85595*
X74502Y85805*
X74292Y85966*
X74048Y86067*
X73786Y86102*
G37*
G36*
X87121D02*
X86859Y86067D01*
X86615Y85966*
X86405Y85805*
X86244Y85595*
X86143Y85351*
X86108Y85089*
X86143Y84827*
X86244Y84583*
X86405Y84373*
X86615Y84212*
X86859Y84111*
X87121Y84076*
X87383Y84111*
X87627Y84212*
X87837Y84373*
X87998Y84583*
X88099Y84827*
X88134Y85089*
X88099Y85351*
X87998Y85595*
X87837Y85805*
X87627Y85966*
X87383Y86067*
X87121Y86102*
G37*
G36*
X84581D02*
X84319Y86067D01*
X84075Y85966*
X83865Y85805*
X83704Y85595*
X83603Y85351*
X83568Y85089*
X83603Y84827*
X83704Y84583*
X83865Y84373*
X84075Y84212*
X84319Y84111*
X84581Y84076*
X84843Y84111*
X85087Y84212*
X85297Y84373*
X85458Y84583*
X85559Y84827*
X85594Y85089*
X85559Y85351*
X85458Y85595*
X85297Y85805*
X85087Y85966*
X84843Y86067*
X84581Y86102*
G37*
G36*
X71246D02*
X70984Y86067D01*
X70740Y85966*
X70530Y85805*
X70369Y85595*
X70268Y85351*
X70233Y85089*
X70268Y84827*
X70369Y84583*
X70530Y84373*
X70740Y84212*
X70984Y84111*
X71246Y84076*
X71508Y84111*
X71752Y84212*
X71962Y84373*
X72123Y84583*
X72224Y84827*
X72259Y85089*
X72224Y85351*
X72123Y85595*
X71962Y85805*
X71752Y85966*
X71508Y86067*
X71246Y86102*
G37*
G36*
X63626D02*
X63364Y86067D01*
X63120Y85966*
X62910Y85805*
X62749Y85595*
X62648Y85351*
X62613Y85089*
X62648Y84827*
X62749Y84583*
X62910Y84373*
X63120Y84212*
X63364Y84111*
X63626Y84076*
X63888Y84111*
X64132Y84212*
X64342Y84373*
X64503Y84583*
X64604Y84827*
X64639Y85089*
X64604Y85351*
X64503Y85595*
X64342Y85805*
X64132Y85966*
X63888Y86067*
X63626Y86102*
G37*
G36*
X61086D02*
X60824Y86067D01*
X60580Y85966*
X60370Y85805*
X60209Y85595*
X60108Y85351*
X60073Y85089*
X60108Y84827*
X60209Y84583*
X60370Y84373*
X60580Y84212*
X60824Y84111*
X61086Y84076*
X61348Y84111*
X61592Y84212*
X61802Y84373*
X61963Y84583*
X62064Y84827*
X62099Y85089*
X62064Y85351*
X61963Y85595*
X61802Y85805*
X61592Y85966*
X61348Y86067*
X61086Y86102*
G37*
G36*
X68706D02*
X68444Y86067D01*
X68200Y85966*
X67990Y85805*
X67829Y85595*
X67728Y85351*
X67693Y85089*
X67728Y84827*
X67829Y84583*
X67990Y84373*
X68200Y84212*
X68444Y84111*
X68706Y84076*
X68968Y84111*
X69212Y84212*
X69422Y84373*
X69583Y84583*
X69684Y84827*
X69719Y85089*
X69684Y85351*
X69583Y85595*
X69422Y85805*
X69212Y85966*
X68968Y86067*
X68706Y86102*
G37*
G36*
X66166D02*
X65904Y86067D01*
X65660Y85966*
X65450Y85805*
X65289Y85595*
X65188Y85351*
X65153Y85089*
X65188Y84827*
X65289Y84583*
X65450Y84373*
X65660Y84212*
X65904Y84111*
X66166Y84076*
X66428Y84111*
X66672Y84212*
X66882Y84373*
X67043Y84583*
X67144Y84827*
X67179Y85089*
X67144Y85351*
X67043Y85595*
X66882Y85805*
X66672Y85966*
X66428Y86067*
X66166Y86102*
G37*
G36*
X105536Y88642D02*
X105274Y88607D01*
X105030Y88506*
X104820Y88345*
X104659Y88135*
X104558Y87891*
X104523Y87629*
X104558Y87367*
X104659Y87123*
X104820Y86913*
X105030Y86752*
X105274Y86651*
X105536Y86616*
X105798Y86651*
X106042Y86752*
X106252Y86913*
X106413Y87123*
X106514Y87367*
X106549Y87629*
X106514Y87891*
X106413Y88135*
X106252Y88345*
X106042Y88506*
X105798Y88607*
X105536Y88642*
G37*
G36*
X99821D02*
X99559Y88607D01*
X99315Y88506*
X99105Y88345*
X98944Y88135*
X98843Y87891*
X98808Y87629*
X98843Y87367*
X98944Y87123*
X99105Y86913*
X99315Y86752*
X99559Y86651*
X99821Y86616*
X100083Y86651*
X100327Y86752*
X100537Y86913*
X100698Y87123*
X100799Y87367*
X100834Y87629*
X100799Y87891*
X100698Y88135*
X100537Y88345*
X100327Y88506*
X100083Y88607*
X99821Y88642*
G37*
G36*
X110616D02*
X110354Y88607D01*
X110110Y88506*
X109900Y88345*
X109739Y88135*
X109638Y87891*
X109603Y87629*
X109638Y87367*
X109739Y87123*
X109900Y86913*
X110110Y86752*
X110354Y86651*
X110616Y86616*
X110878Y86651*
X111122Y86752*
X111332Y86913*
X111493Y87123*
X111594Y87367*
X111629Y87629*
X111594Y87891*
X111493Y88135*
X111332Y88345*
X111122Y88506*
X110878Y88607*
X110616Y88642*
G37*
G36*
X108076D02*
X107814Y88607D01*
X107570Y88506*
X107360Y88345*
X107199Y88135*
X107098Y87891*
X107063Y87629*
X107098Y87367*
X107199Y87123*
X107360Y86913*
X107570Y86752*
X107814Y86651*
X108076Y86616*
X108338Y86651*
X108582Y86752*
X108792Y86913*
X108953Y87123*
X109054Y87367*
X109089Y87629*
X109054Y87891*
X108953Y88135*
X108792Y88345*
X108582Y88506*
X108338Y88607*
X108076Y88642*
G37*
G36*
X97281D02*
X97019Y88607D01*
X96775Y88506*
X96565Y88345*
X96404Y88135*
X96303Y87891*
X96268Y87629*
X96303Y87367*
X96404Y87123*
X96565Y86913*
X96775Y86752*
X97019Y86651*
X97281Y86616*
X97543Y86651*
X97787Y86752*
X97997Y86913*
X98158Y87123*
X98259Y87367*
X98294Y87629*
X98259Y87891*
X98158Y88135*
X97997Y88345*
X97787Y88506*
X97543Y88607*
X97281Y88642*
G37*
G36*
X89661D02*
X89399Y88607D01*
X89155Y88506*
X88945Y88345*
X88784Y88135*
X88683Y87891*
X88648Y87629*
X88683Y87367*
X88784Y87123*
X88945Y86913*
X89155Y86752*
X89399Y86651*
X89661Y86616*
X89923Y86651*
X90167Y86752*
X90377Y86913*
X90538Y87123*
X90639Y87367*
X90674Y87629*
X90639Y87891*
X90538Y88135*
X90377Y88345*
X90167Y88506*
X89923Y88607*
X89661Y88642*
G37*
G36*
X87121D02*
X86859Y88607D01*
X86615Y88506*
X86405Y88345*
X86244Y88135*
X86143Y87891*
X86108Y87629*
X86143Y87367*
X86244Y87123*
X86405Y86913*
X86615Y86752*
X86859Y86651*
X87121Y86616*
X87383Y86651*
X87627Y86752*
X87837Y86913*
X87998Y87123*
X88099Y87367*
X88134Y87629*
X88099Y87891*
X87998Y88135*
X87837Y88345*
X87627Y88506*
X87383Y88607*
X87121Y88642*
G37*
G36*
X94741D02*
X94479Y88607D01*
X94235Y88506*
X94025Y88345*
X93864Y88135*
X93763Y87891*
X93728Y87629*
X93763Y87367*
X93864Y87123*
X94025Y86913*
X94235Y86752*
X94479Y86651*
X94741Y86616*
X95003Y86651*
X95247Y86752*
X95457Y86913*
X95618Y87123*
X95719Y87367*
X95754Y87629*
X95719Y87891*
X95618Y88135*
X95457Y88345*
X95247Y88506*
X95003Y88607*
X94741Y88642*
G37*
G36*
X92201D02*
X91939Y88607D01*
X91695Y88506*
X91485Y88345*
X91324Y88135*
X91223Y87891*
X91188Y87629*
X91223Y87367*
X91324Y87123*
X91485Y86913*
X91695Y86752*
X91939Y86651*
X92201Y86616*
X92463Y86651*
X92707Y86752*
X92917Y86913*
X93078Y87123*
X93179Y87367*
X93214Y87629*
X93179Y87891*
X93078Y88135*
X92917Y88345*
X92707Y88506*
X92463Y88607*
X92201Y88642*
G37*
G36*
X28701Y90008D02*
Y87883D01*
X30826*
X30795Y88198*
X30666Y88623*
X30457Y89014*
X30176Y89358*
X29832Y89639*
X29441Y89849*
X29016Y89977*
X28701Y90008*
G37*
G36*
X28447D02*
X28132Y89977D01*
X27707Y89849*
X27316Y89639*
X26972Y89358*
X26691Y89014*
X26482Y88623*
X26353Y88198*
X26322Y87883*
X28447*
Y90008*
G37*
G36*
X130047D02*
Y87883D01*
X132172*
X132141Y88198*
X132013Y88623*
X131803Y89014*
X131522Y89358*
X131178Y89639*
X130787Y89849*
X130362Y89977*
X130047Y90008*
G37*
G36*
X129793D02*
X129478Y89977D01*
X129053Y89849*
X128662Y89639*
X128318Y89358*
X128037Y89014*
X127827Y88623*
X127699Y88198*
X127668Y87883*
X129793*
Y90008*
G37*
G36*
X123316Y88642D02*
X123054Y88607D01*
X122810Y88506*
X122600Y88345*
X122439Y88135*
X122338Y87891*
X122303Y87629*
X122338Y87367*
X122439Y87123*
X122600Y86913*
X122810Y86752*
X123054Y86651*
X123316Y86616*
X123578Y86651*
X123822Y86752*
X124032Y86913*
X124193Y87123*
X124294Y87367*
X124329Y87629*
X124294Y87891*
X124193Y88135*
X124032Y88345*
X123822Y88506*
X123578Y88607*
X123316Y88642*
G37*
G36*
X115696D02*
X115434Y88607D01*
X115190Y88506*
X114980Y88345*
X114819Y88135*
X114718Y87891*
X114683Y87629*
X114718Y87367*
X114819Y87123*
X114980Y86913*
X115190Y86752*
X115434Y86651*
X115696Y86616*
X115958Y86651*
X116202Y86752*
X116412Y86913*
X116573Y87123*
X116674Y87367*
X116709Y87629*
X116674Y87891*
X116573Y88135*
X116412Y88345*
X116202Y88506*
X115958Y88607*
X115696Y88642*
G37*
G36*
X113156D02*
X112894Y88607D01*
X112650Y88506*
X112440Y88345*
X112279Y88135*
X112178Y87891*
X112143Y87629*
X112178Y87367*
X112279Y87123*
X112440Y86913*
X112650Y86752*
X112894Y86651*
X113156Y86616*
X113418Y86651*
X113662Y86752*
X113872Y86913*
X114033Y87123*
X114134Y87367*
X114169Y87629*
X114134Y87891*
X114033Y88135*
X113872Y88345*
X113662Y88506*
X113418Y88607*
X113156Y88642*
G37*
G36*
X120776D02*
X120514Y88607D01*
X120270Y88506*
X120060Y88345*
X119899Y88135*
X119798Y87891*
X119763Y87629*
X119798Y87367*
X119899Y87123*
X120060Y86913*
X120270Y86752*
X120514Y86651*
X120776Y86616*
X121038Y86651*
X121282Y86752*
X121492Y86913*
X121653Y87123*
X121754Y87367*
X121789Y87629*
X121754Y87891*
X121653Y88135*
X121492Y88345*
X121282Y88506*
X121038Y88607*
X120776Y88642*
G37*
G36*
X118236D02*
X117974Y88607D01*
X117730Y88506*
X117520Y88345*
X117359Y88135*
X117258Y87891*
X117223Y87629*
X117258Y87367*
X117359Y87123*
X117520Y86913*
X117730Y86752*
X117974Y86651*
X118236Y86616*
X118498Y86651*
X118742Y86752*
X118952Y86913*
X119113Y87123*
X119214Y87367*
X119249Y87629*
X119214Y87891*
X119113Y88135*
X118952Y88345*
X118742Y88506*
X118498Y88607*
X118236Y88642*
G37*
G36*
X84581D02*
X84319Y88607D01*
X84075Y88506*
X83865Y88345*
X83704Y88135*
X83603Y87891*
X83568Y87629*
X83603Y87367*
X83704Y87123*
X83865Y86913*
X84075Y86752*
X84319Y86651*
X84581Y86616*
X84843Y86651*
X85087Y86752*
X85297Y86913*
X85458Y87123*
X85559Y87367*
X85594Y87629*
X85559Y87891*
X85458Y88135*
X85297Y88345*
X85087Y88506*
X84843Y88607*
X84581Y88642*
G37*
G36*
X47751D02*
X47489Y88607D01*
X47245Y88506*
X47035Y88345*
X46874Y88135*
X46773Y87891*
X46738Y87629*
X46773Y87367*
X46874Y87123*
X47035Y86913*
X47245Y86752*
X47489Y86651*
X47751Y86616*
X48013Y86651*
X48257Y86752*
X48467Y86913*
X48628Y87123*
X48729Y87367*
X48764Y87629*
X48729Y87891*
X48628Y88135*
X48467Y88345*
X48257Y88506*
X48013Y88607*
X47751Y88642*
G37*
G36*
X45211D02*
X44949Y88607D01*
X44705Y88506*
X44495Y88345*
X44334Y88135*
X44233Y87891*
X44198Y87629*
X44233Y87367*
X44334Y87123*
X44495Y86913*
X44705Y86752*
X44949Y86651*
X45211Y86616*
X45473Y86651*
X45717Y86752*
X45927Y86913*
X46088Y87123*
X46189Y87367*
X46224Y87629*
X46189Y87891*
X46088Y88135*
X45927Y88345*
X45717Y88506*
X45473Y88607*
X45211Y88642*
G37*
G36*
X52831D02*
X52569Y88607D01*
X52325Y88506*
X52115Y88345*
X51954Y88135*
X51853Y87891*
X51818Y87629*
X51853Y87367*
X51954Y87123*
X52115Y86913*
X52325Y86752*
X52569Y86651*
X52831Y86616*
X53093Y86651*
X53337Y86752*
X53547Y86913*
X53708Y87123*
X53809Y87367*
X53844Y87629*
X53809Y87891*
X53708Y88135*
X53547Y88345*
X53337Y88506*
X53093Y88607*
X52831Y88642*
G37*
G36*
X50291D02*
X50029Y88607D01*
X49785Y88506*
X49575Y88345*
X49414Y88135*
X49313Y87891*
X49278Y87629*
X49313Y87367*
X49414Y87123*
X49575Y86913*
X49785Y86752*
X50029Y86651*
X50291Y86616*
X50553Y86651*
X50797Y86752*
X51007Y86913*
X51168Y87123*
X51269Y87367*
X51304Y87629*
X51269Y87891*
X51168Y88135*
X51007Y88345*
X50797Y88506*
X50553Y88607*
X50291Y88642*
G37*
G36*
X42671D02*
X42409Y88607D01*
X42165Y88506*
X41955Y88345*
X41794Y88135*
X41693Y87891*
X41658Y87629*
X41693Y87367*
X41794Y87123*
X41955Y86913*
X42165Y86752*
X42409Y86651*
X42671Y86616*
X42933Y86651*
X43177Y86752*
X43387Y86913*
X43548Y87123*
X43649Y87367*
X43684Y87629*
X43649Y87891*
X43548Y88135*
X43387Y88345*
X43177Y88506*
X42933Y88607*
X42671Y88642*
G37*
G36*
X35051D02*
X34789Y88607D01*
X34545Y88506*
X34335Y88345*
X34174Y88135*
X34073Y87891*
X34038Y87629*
X34073Y87367*
X34174Y87123*
X34335Y86913*
X34545Y86752*
X34789Y86651*
X35051Y86616*
X35313Y86651*
X35557Y86752*
X35767Y86913*
X35928Y87123*
X36029Y87367*
X36064Y87629*
X36029Y87891*
X35928Y88135*
X35767Y88345*
X35557Y88506*
X35313Y88607*
X35051Y88642*
G37*
G36*
X132172Y87629D02*
X130047D01*
Y85504*
X130362Y85535*
X130787Y85663*
X131178Y85873*
X131522Y86154*
X131803Y86498*
X132013Y86889*
X132141Y87314*
X132172Y87629*
G37*
G36*
X40131Y88642D02*
X39869Y88607D01*
X39625Y88506*
X39415Y88345*
X39254Y88135*
X39153Y87891*
X39118Y87629*
X39153Y87367*
X39254Y87123*
X39415Y86913*
X39625Y86752*
X39869Y86651*
X40131Y86616*
X40393Y86651*
X40637Y86752*
X40847Y86913*
X41008Y87123*
X41109Y87367*
X41144Y87629*
X41109Y87891*
X41008Y88135*
X40847Y88345*
X40637Y88506*
X40393Y88607*
X40131Y88642*
G37*
G36*
X37591D02*
X37329Y88607D01*
X37085Y88506*
X36875Y88345*
X36714Y88135*
X36613Y87891*
X36578Y87629*
X36613Y87367*
X36714Y87123*
X36875Y86913*
X37085Y86752*
X37329Y86651*
X37591Y86616*
X37853Y86651*
X38097Y86752*
X38307Y86913*
X38468Y87123*
X38569Y87367*
X38604Y87629*
X38569Y87891*
X38468Y88135*
X38307Y88345*
X38097Y88506*
X37853Y88607*
X37591Y88642*
G37*
G36*
X73786D02*
X73524Y88607D01*
X73280Y88506*
X73070Y88345*
X72909Y88135*
X72808Y87891*
X72773Y87629*
X72808Y87367*
X72909Y87123*
X73070Y86913*
X73280Y86752*
X73524Y86651*
X73786Y86616*
X74048Y86651*
X74292Y86752*
X74502Y86913*
X74663Y87123*
X74764Y87367*
X74799Y87629*
X74764Y87891*
X74663Y88135*
X74502Y88345*
X74292Y88506*
X74048Y88607*
X73786Y88642*
G37*
G36*
X71246D02*
X70984Y88607D01*
X70740Y88506*
X70530Y88345*
X70369Y88135*
X70268Y87891*
X70233Y87629*
X70268Y87367*
X70369Y87123*
X70530Y86913*
X70740Y86752*
X70984Y86651*
X71246Y86616*
X71508Y86651*
X71752Y86752*
X71962Y86913*
X72123Y87123*
X72224Y87367*
X72259Y87629*
X72224Y87891*
X72123Y88135*
X71962Y88345*
X71752Y88506*
X71508Y88607*
X71246Y88642*
G37*
G36*
X82041D02*
X81779Y88607D01*
X81535Y88506*
X81325Y88345*
X81164Y88135*
X81063Y87891*
X81028Y87629*
X81063Y87367*
X81164Y87123*
X81325Y86913*
X81535Y86752*
X81779Y86651*
X82041Y86616*
X82303Y86651*
X82547Y86752*
X82757Y86913*
X82918Y87123*
X83019Y87367*
X83054Y87629*
X83019Y87891*
X82918Y88135*
X82757Y88345*
X82547Y88506*
X82303Y88607*
X82041Y88642*
G37*
G36*
X76326D02*
X76064Y88607D01*
X75820Y88506*
X75610Y88345*
X75449Y88135*
X75348Y87891*
X75313Y87629*
X75348Y87367*
X75449Y87123*
X75610Y86913*
X75820Y86752*
X76064Y86651*
X76326Y86616*
X76588Y86651*
X76832Y86752*
X77042Y86913*
X77203Y87123*
X77304Y87367*
X77339Y87629*
X77304Y87891*
X77203Y88135*
X77042Y88345*
X76832Y88506*
X76588Y88607*
X76326Y88642*
G37*
G36*
X68706D02*
X68444Y88607D01*
X68200Y88506*
X67990Y88345*
X67829Y88135*
X67728Y87891*
X67693Y87629*
X67728Y87367*
X67829Y87123*
X67990Y86913*
X68200Y86752*
X68444Y86651*
X68706Y86616*
X68968Y86651*
X69212Y86752*
X69422Y86913*
X69583Y87123*
X69684Y87367*
X69719Y87629*
X69684Y87891*
X69583Y88135*
X69422Y88345*
X69212Y88506*
X68968Y88607*
X68706Y88642*
G37*
G36*
X61086D02*
X60824Y88607D01*
X60580Y88506*
X60370Y88345*
X60209Y88135*
X60108Y87891*
X60073Y87629*
X60108Y87367*
X60209Y87123*
X60370Y86913*
X60580Y86752*
X60824Y86651*
X61086Y86616*
X61348Y86651*
X61592Y86752*
X61802Y86913*
X61963Y87123*
X62064Y87367*
X62099Y87629*
X62064Y87891*
X61963Y88135*
X61802Y88345*
X61592Y88506*
X61348Y88607*
X61086Y88642*
G37*
G36*
X58546D02*
X58284Y88607D01*
X58040Y88506*
X57830Y88345*
X57669Y88135*
X57568Y87891*
X57533Y87629*
X57568Y87367*
X57669Y87123*
X57830Y86913*
X58040Y86752*
X58284Y86651*
X58546Y86616*
X58808Y86651*
X59052Y86752*
X59262Y86913*
X59423Y87123*
X59524Y87367*
X59559Y87629*
X59524Y87891*
X59423Y88135*
X59262Y88345*
X59052Y88506*
X58808Y88607*
X58546Y88642*
G37*
G36*
X66166D02*
X65904Y88607D01*
X65660Y88506*
X65450Y88345*
X65289Y88135*
X65188Y87891*
X65153Y87629*
X65188Y87367*
X65289Y87123*
X65450Y86913*
X65660Y86752*
X65904Y86651*
X66166Y86616*
X66428Y86651*
X66672Y86752*
X66882Y86913*
X67043Y87123*
X67144Y87367*
X67179Y87629*
X67144Y87891*
X67043Y88135*
X66882Y88345*
X66672Y88506*
X66428Y88607*
X66166Y88642*
G37*
G36*
X63626D02*
X63364Y88607D01*
X63120Y88506*
X62910Y88345*
X62749Y88135*
X62648Y87891*
X62613Y87629*
X62648Y87367*
X62749Y87123*
X62910Y86913*
X63120Y86752*
X63364Y86651*
X63626Y86616*
X63888Y86651*
X64132Y86752*
X64342Y86913*
X64503Y87123*
X64604Y87367*
X64639Y87629*
X64604Y87891*
X64503Y88135*
X64342Y88345*
X64132Y88506*
X63888Y88607*
X63626Y88642*
G37*
G36*
X39917Y78910D02*
X38690D01*
Y77683*
X39917*
Y78910*
G37*
G36*
X67550Y65518D02*
X67055D01*
Y65023*
X67176Y65047*
X67386Y65187*
X67526Y65397*
X67550Y65518*
G37*
G36*
X45592Y70217D02*
X45471Y70193D01*
X45261Y70053*
X45121Y69843*
X45097Y69722*
X45592*
Y70217*
G37*
G36*
X66045Y72921D02*
Y72426D01*
X66540*
X66516Y72547*
X66376Y72757*
X66166Y72897*
X66045Y72921*
G37*
G36*
X65791D02*
X65670Y72897D01*
X65460Y72757*
X65320Y72547*
X65296Y72426*
X65791*
Y72921*
G37*
G36*
X66801Y66267D02*
X66680Y66243D01*
X66470Y66103*
X66330Y65893*
X66306Y65772*
X66801*
Y66267*
G37*
G36*
X59244Y76707D02*
X58800D01*
Y75564*
X59244*
Y76707*
G37*
G36*
X60514Y78104D02*
X59372D01*
Y75564*
X60514*
Y78104*
G37*
G36*
X58546Y76707D02*
X58102D01*
Y75564*
X58546*
Y76707*
G37*
G36*
X66801Y65518D02*
X66306D01*
X66330Y65397*
X66470Y65187*
X66680Y65047*
X66801Y65023*
Y65518*
G37*
G36*
X64325Y78104D02*
X63181D01*
Y75564*
X63225Y75459*
X63084Y75317*
X57482*
X57347Y75408*
X57149Y75447*
X56951Y75408*
X56783Y75295*
X56670Y75127*
X56639Y74968*
X53559Y71888*
X49598*
Y72151*
Y72243*
Y72444*
X50284*
Y72219*
X53092*
Y75027*
X50284*
Y73350*
X49598*
Y73551*
X48190*
Y72243*
Y72151*
Y70843*
X48441*
Y70037*
X46928Y68524*
X46180*
X46177Y68529*
X45967Y68669*
X45719Y68718*
X45471Y68669*
X45261Y68529*
X45121Y68319*
X45072Y68071*
X45121Y67823*
X45261Y67613*
X45266Y67610*
Y64214*
X45261Y64211*
X45121Y64001*
X45072Y63753*
X45121Y63505*
X45261Y63295*
X45471Y63155*
X45719Y63106*
X45967Y63155*
X46177Y63295*
X46317Y63505*
X46366Y63753*
X46317Y64001*
X46177Y64211*
X46172Y64214*
Y67610*
X46177Y67613*
X46180Y67618*
X47116*
X47289Y67652*
X47436Y67751*
X49214Y69529*
X49313Y69676*
X49347Y69849*
Y70843*
X49598*
Y71112*
X53720*
X53869Y71141*
X53995Y71225*
X57188Y74419*
X57347Y74450*
X57482Y74541*
X63245*
X63394Y74570*
X63520Y74654*
X64028Y75162*
X64112Y75288*
X64141Y75437*
Y75564*
X64325*
Y78104*
G37*
G36*
X42550Y72921D02*
Y72426D01*
X43045*
X43021Y72547*
X42881Y72757*
X42671Y72897*
X42550Y72921*
G37*
G36*
X42296Y72172D02*
X41801D01*
X41825Y72051*
X41965Y71841*
X42175Y71701*
X42296Y71677*
Y72172*
G37*
G36*
X43045D02*
X42550D01*
Y71677*
X42671Y71701*
X42881Y71841*
X43021Y72051*
X43045Y72172*
G37*
G36*
X45592Y69468D02*
X45097D01*
X45121Y69347*
X45261Y69137*
X45471Y68997*
X45592Y68973*
Y69468*
G37*
G36*
X64325Y73278D02*
X63181D01*
Y70738*
X63365*
Y70611*
X63394Y70462*
X63463Y70359*
X63365Y70278*
X63011Y70633*
X63055Y70738*
Y73278*
X61911*
Y70738*
X62095*
Y70611*
X62124Y70462*
X62208Y70336*
X63605Y68939*
X63731Y68855*
X63756Y68850*
X63880Y68826*
X68754*
X68889Y68735*
X69087Y68696*
X69285Y68735*
X69453Y68848*
X69566Y69016*
X69605Y69214*
X69566Y69412*
X69453Y69580*
X69285Y69693*
X69087Y69732*
X68889Y69693*
X68788Y69626*
X68665Y69656*
X68634Y69714*
X68677Y69778*
X68716Y69976*
X68677Y70174*
X68564Y70342*
X68396Y70455*
X68198Y70494*
X68000Y70455*
X67865Y70364*
X64549*
X64281Y70633*
X64325Y70738*
Y73278*
G37*
G36*
X46341Y69468D02*
X45846D01*
Y68973*
X45967Y68997*
X46177Y69137*
X46317Y69347*
X46341Y69468*
G37*
G36*
X67055Y66267D02*
Y65772D01*
X67550*
X67526Y65893*
X67386Y66103*
X67176Y66243*
X67055Y66267*
G37*
G36*
X42296Y72921D02*
X42175Y72897D01*
X41965Y72757*
X41825Y72547*
X41801Y72426*
X42296*
Y72921*
G37*
G36*
X45846Y70217D02*
Y69722D01*
X46341*
X46317Y69843*
X46177Y70053*
X45967Y70193*
X45846Y70217*
G37*
G36*
X65791Y72172D02*
X65296D01*
X65320Y72051*
X65460Y71841*
X65670Y71701*
X65791Y71677*
Y72172*
G37*
G36*
X66540D02*
X66045D01*
Y71677*
X66166Y71701*
X66376Y71841*
X66516Y72051*
X66540Y72172*
G37*
G36*
X59244Y78104D02*
X58800D01*
Y76961*
X59244*
Y78104*
G37*
G36*
X57022Y77837D02*
Y77342D01*
X57517*
X57493Y77463*
X57353Y77673*
X57143Y77813*
X57022Y77837*
G37*
G36*
X57517Y77088D02*
X57022D01*
Y76593*
X57143Y76617*
X57353Y76757*
X57493Y76967*
X57517Y77088*
G37*
G36*
X58546Y78104D02*
X58102D01*
Y76961*
X58546*
Y78104*
G37*
G36*
X61086D02*
X60642D01*
Y76961*
X61086*
Y78104*
G37*
G36*
X63055D02*
X62610D01*
Y76961*
X63055*
Y78104*
G37*
G36*
X56768Y77837D02*
X56647Y77813D01*
X56437Y77673*
X56297Y77463*
X56273Y77342*
X56768*
Y77837*
G37*
G36*
X61784Y78104D02*
X61340D01*
Y76961*
X61784*
Y78104*
G37*
G36*
X62356D02*
X61911D01*
Y76961*
X62356*
Y78104*
G37*
G36*
X56768Y77088D02*
X56273D01*
X56297Y76967*
X56437Y76757*
X56647Y76617*
X56768Y76593*
Y77088*
G37*
G36*
X62356Y76707D02*
X61911D01*
Y75564*
X62356*
Y76707*
G37*
G36*
X61784D02*
X61340D01*
Y75564*
X61784*
Y76707*
G37*
G36*
X63055D02*
X62610D01*
Y75564*
X63055*
Y76707*
G37*
G36*
X69468Y83318D02*
X35432D01*
X35283Y83289*
X35157Y83205*
X31474Y79522*
X31390Y79396*
X31361Y79247*
Y78691*
X31270Y78556*
X31231Y78358*
X31270Y78160*
X31383Y77992*
X31551Y77879*
X31749Y77840*
X31946Y77879*
X32006Y77767*
X29188Y74950*
X29104Y74824*
X29075Y74675*
Y68277*
X28984Y68142*
X28945Y67944*
X28984Y67746*
X29097Y67578*
X29265Y67465*
X29463Y67426*
X29661Y67465*
X29829Y67578*
X29942Y67746*
X29981Y67944*
X29942Y68142*
X29877Y68239*
X29947Y68345*
X30098Y68315*
X30296Y68354*
X30464Y68467*
X30477Y68486*
X30599Y68449*
Y68105*
X28045Y65552*
X27961Y65426*
X27932Y65277*
Y63705*
X27841Y63570*
X27802Y63372*
X27841Y63174*
X27954Y63006*
X28122Y62893*
X28320Y62854*
X28518Y62893*
X28582Y62936*
X28694Y62876*
Y62610*
X28723Y62461*
X28807Y62335*
X29462Y61680*
X29588Y61596*
X29613Y61591*
X29737Y61567*
X31040*
Y61551*
Y61051*
Y60859*
Y60843*
X30040*
Y61170*
X28632*
Y59862*
Y59770*
Y59026*
X27664Y58059*
X27580Y57933*
X27551Y57784*
Y57653*
X27481Y57607*
X27341Y57397*
X27292Y57149*
X27341Y56901*
X27481Y56691*
X27691Y56551*
X27939Y56502*
X28187Y56551*
X28397Y56691*
X28537Y56901*
X28586Y57149*
X28537Y57397*
X28397Y57607*
X28389Y57685*
X29166Y58462*
X30040*
Y59770*
Y59862*
Y60067*
X31040*
Y60051*
Y59551*
Y59051*
Y58551*
Y58051*
Y57551*
X32748*
Y58051*
Y58551*
Y59051*
Y59551*
Y60051*
Y60551*
Y61051*
Y61551*
Y62051*
Y62551*
Y63051*
Y63859*
X31040*
Y63666*
X30918Y63629*
X30845Y63738*
X30677Y63851*
X30479Y63890*
X30281Y63851*
X30113Y63738*
X30100Y63719*
X29978Y63756*
Y64862*
X32278Y67161*
X32362Y67287*
X32391Y67436*
Y68830*
X32513Y68867*
X32526Y68848*
X32694Y68735*
X32892Y68696*
X33089Y68735*
X33160Y68630*
X33085Y68518*
X33056Y68369*
Y65859*
X33040*
Y64151*
X33056*
Y63201*
X33085Y63052*
X33169Y62926*
X34559Y61537*
X34543Y61455*
X34592Y61207*
X34732Y60997*
X34802Y60951*
Y60312*
X34831Y60163*
X34915Y60037*
X37556Y57397*
Y57259*
X36540*
Y56405*
Y55551*
X36556*
Y54748*
X36585Y54599*
X36669Y54473*
X38332Y52810*
X38458Y52726*
X38538Y52710*
Y52599*
Y51291*
Y51199*
Y49891*
X38854*
Y47751*
X38883Y47602*
X38967Y47476*
X40234Y46209*
X40205Y46086*
X40130Y46060*
X40003Y46226*
X39817Y46369*
X39601Y46458*
X39369Y46489*
X39137Y46458*
X38921Y46369*
X38735Y46226*
X38608Y46060*
X38487Y46101*
Y48894*
X38458Y49043*
X38374Y49169*
X35832Y51710*
Y53470*
X35944Y53530*
X35996Y53495*
X36194Y53456*
X36392Y53495*
X36560Y53608*
X36673Y53776*
X36712Y53974*
X36673Y54172*
X36560Y54340*
X36392Y54453*
X36332Y54464*
Y55551*
X36348*
Y56405*
Y57259*
X34540*
Y56405*
Y55551*
X34556*
Y53266*
X34504Y53214*
X34345Y53183*
X34177Y53070*
X34064Y52902*
X34025Y52704*
X34064Y52506*
X34177Y52338*
X34345Y52225*
X34543Y52186*
X34741Y52225*
X34909Y52338*
X34934Y52375*
X35056Y52338*
Y51549*
X35085Y51400*
X35154Y51297*
X35056Y51216*
X33832Y52440*
Y55551*
X34348*
Y56405*
Y57259*
X34332*
Y58129*
X34303Y58278*
X34219Y58404*
X34073Y58549*
X34074Y58551*
X34034Y58749*
X33922Y58917*
X33754Y59029*
X33556Y59069*
X33357Y59029*
X33189Y58917*
X33077Y58749*
X33038Y58551*
X33077Y58353*
X33189Y58185*
X33357Y58072*
X33474Y58049*
X33556Y57968*
Y57259*
X33040*
Y55551*
X33056*
Y52279*
X33085Y52130*
X33169Y52004*
X36441Y48733*
Y46393*
X36381Y46369*
X36195Y46226*
X36052Y46040*
X35963Y45824*
X35932Y45592*
X35963Y45360*
X36052Y45144*
X36195Y44958*
X36381Y44815*
X36597Y44726*
X36829Y44695*
X37061Y44726*
X37277Y44815*
X37463Y44958*
X37590Y45124*
X37711Y45083*
Y43853*
X37651Y43829*
X37465Y43686*
X37338Y43520*
X37217Y43561*
Y43687*
X37193Y43811*
X37188Y43836*
X37104Y43962*
X36469Y44597*
X36343Y44681*
X36194Y44710*
X35720*
X35130Y45300*
X35155Y45360*
X35186Y45592*
X35155Y45824*
X35066Y46040*
X34923Y46226*
X34737Y46369*
X34521Y46458*
X34289Y46489*
X34057Y46458*
X33841Y46369*
X33655Y46226*
X33512Y46040*
X33423Y45824*
X33392Y45592*
X33423Y45360*
X33512Y45144*
X33655Y44958*
X33841Y44815*
X34057Y44726*
X34289Y44695*
X34521Y44726*
X34581Y44751*
X35284Y44047*
X35308Y44032*
X35296Y43905*
X35111Y43829*
X34925Y43686*
X34782Y43500*
X34693Y43284*
X34662Y43052*
X34693Y42820*
X34782Y42604*
X34925Y42418*
X35111Y42275*
X35327Y42186*
X35559Y42155*
X35791Y42186*
X36007Y42275*
X36193Y42418*
X36290Y42544*
X36441*
X36470Y42395*
X36554Y42269*
X37189Y41634*
X37315Y41550*
X37340Y41545*
X37464Y41521*
X44576*
X44725Y41550*
X44851Y41634*
X45427Y42211*
X45487Y42186*
X45719Y42155*
X45951Y42186*
X46167Y42275*
X46353Y42418*
X46496Y42604*
X46585Y42820*
X46616Y43052*
X46585Y43284*
X46496Y43500*
X46353Y43686*
X46167Y43829*
X45951Y43918*
X45719Y43949*
X45487Y43918*
X45271Y43829*
X45085Y43686*
X44942Y43500*
X44853Y43284*
X44822Y43052*
X44853Y42820*
X44878Y42760*
X44415Y42297*
X43854*
X43813Y42418*
X43956Y42604*
X44045Y42820*
X44076Y43052*
X44045Y43284*
X43956Y43500*
X43813Y43686*
X43627Y43829*
X43411Y43918*
X43179Y43949*
X42947Y43918*
X42731Y43829*
X42545Y43686*
X42402Y43500*
X42313Y43284*
X42282Y43052*
X42313Y42820*
X42402Y42604*
X42545Y42418*
X42504Y42297*
X41314*
X41273Y42418*
X41416Y42604*
X41505Y42820*
X41536Y43052*
X41505Y43284*
X41416Y43500*
X41273Y43686*
X41087Y43829*
X41027Y43853*
Y45083*
X41148Y45124*
X41275Y44958*
X41461Y44815*
X41677Y44726*
X41909Y44695*
X42141Y44726*
X42357Y44815*
X42543Y44958*
X42686Y45144*
X42775Y45360*
X42806Y45592*
X42775Y45824*
X42686Y46040*
X42543Y46226*
X42357Y46369*
X42141Y46458*
X41909Y46489*
X41677Y46458*
X41461Y46369*
X41275Y46226*
X41148Y46060*
X41027Y46101*
Y46354*
X41003Y46478*
X40998Y46503*
X40914Y46629*
X39630Y47912*
Y49891*
X41648*
Y49663*
X41320*
X41228*
X40701*
Y48959*
Y48255*
X41228*
X41320*
X42628*
Y49663*
X42424*
Y49891*
X43045*
Y46608*
X43074Y46459*
X43158Y46333*
X43608Y45884*
X43583Y45824*
X43552Y45592*
X43583Y45360*
X43672Y45144*
X43815Y44958*
X44001Y44815*
X44217Y44726*
X44449Y44695*
X44681Y44726*
X44897Y44815*
X45083Y44958*
X45226Y45144*
X45315Y45360*
X45346Y45592*
X45315Y45824*
X45226Y46040*
X45083Y46226*
X44897Y46369*
X44681Y46458*
X44449Y46489*
X44217Y46458*
X44157Y46433*
X43821Y46769*
Y49891*
X44137*
Y51199*
Y51291*
Y52599*
Y52607*
X44227Y52697*
X44619*
Y52381*
X45927*
X46019*
X47327*
Y53778*
Y55186*
X47061*
Y55306*
X47032Y55455*
X46948Y55581*
X46186Y56343*
X46060Y56427*
X45911Y56456*
X45183*
X44710Y56929*
Y57065*
X44888*
X46296*
Y57189*
X46370Y57238*
X46408Y57259*
X46614Y57121*
X46862Y57072*
X47110Y57121*
X47320Y57261*
X47460Y57471*
X47509Y57719*
X47460Y57967*
X47320Y58177*
X47110Y58317*
X46862Y58366*
X46614Y58317*
X46408Y58179*
X46370Y58200*
X46296Y58249*
Y58373*
Y58465*
Y59567*
X52462*
X52611Y59596*
X52737Y59680*
X53124Y60068*
X53283Y60099*
X53451Y60212*
X53564Y60380*
X53603Y60578*
X53564Y60776*
X53451Y60944*
X53283Y61057*
X53085Y61096*
X52887Y61057*
X52719Y60944*
X52606Y60776*
X52575Y60617*
X52301Y60343*
X50947*
X50910Y60465*
X50911Y60466*
X51024Y60634*
X51063Y60832*
X51108Y60862*
X51109Y60861*
X51307Y60822*
X51505Y60861*
X51673Y60974*
X51786Y61142*
X51825Y61340*
X51786Y61538*
X51695Y61673*
Y64817*
X51786Y64952*
X51825Y65150*
X51786Y65348*
X51673Y65516*
X51505Y65629*
X51307Y65668*
X51109Y65629*
X50941Y65516*
X50828Y65348*
X50789Y65150*
X50801Y65090*
X50711Y65000*
X50545Y65033*
X50347Y64994*
X50179Y64881*
X50066Y64713*
X50027Y64515*
X50066Y64317*
X50157Y64182*
Y61165*
X50066Y61030*
X50027Y60832*
X50066Y60634*
X50179Y60466*
X50180Y60465*
X50143Y60343*
X49169*
X49132Y60465*
X49133Y60466*
X49246Y60634*
X49285Y60832*
X49246Y61030*
X49133Y61198*
X48965Y61311*
X48767Y61350*
X48569Y61311*
X48401Y61198*
X48288Y61030*
X48257Y60871*
X48229Y60843*
X44837*
Y65531*
X44808Y65680*
X44724Y65806*
X43646Y66884*
X43520Y66968*
X43371Y66997*
X42359*
Y67263*
Y67355*
Y68663*
X42028*
Y68991*
X44239Y71202*
X46398*
Y73910*
X43690*
Y71751*
X41479Y69540*
X38676*
Y69806*
X37268*
Y69540*
X34227*
X34078Y69511*
X33952Y69427*
X33483Y68957*
X33371Y69017*
X33410Y69214*
X33371Y69412*
X33280Y69547*
Y71987*
X33379Y72068*
X33527Y72038*
X33725Y72077*
X33860Y72168*
X38690*
Y71202*
X41398*
Y73910*
X38690*
Y72944*
X33860*
X33725Y73035*
X33527Y73074*
X33500Y73210*
X33820Y73530*
X33979Y73561*
X34147Y73674*
X34260Y73842*
X34299Y74040*
X34260Y74238*
X34147Y74406*
X33979Y74519*
X33781Y74558*
X33583Y74519*
X33415Y74406*
X33302Y74238*
X33271Y74079*
X32617Y73426*
X32533Y73300*
X32518Y73223*
X32391Y73235*
Y73752*
X37752Y79113*
X67260*
X70152Y76221*
Y65304*
X70053Y65223*
X70040Y65226*
X69882Y65195*
X69790Y65133*
X69698Y65195*
X69667Y65201*
Y64983*
X69659Y64972*
X69628Y64814*
Y64064*
Y63314*
X69651Y63196*
Y62924*
X69553Y62905*
X69652Y62824*
Y58402*
X67730*
X67649Y58501*
X67652Y58514*
X67621Y58672*
X67559Y58764*
X67621Y58856*
X67652Y59014*
X67621Y59172*
X67559Y59264*
X67621Y59356*
X67652Y59514*
X67621Y59672*
X67559Y59764*
X67621Y59856*
X67652Y60014*
X67621Y60172*
X67559Y60264*
X67621Y60356*
X67652Y60514*
X67621Y60672*
X67559Y60764*
X67621Y60856*
X67652Y61014*
X67621Y61172*
X67559Y61264*
X67621Y61356*
X67652Y61514*
X67621Y61672*
X67559Y61764*
X67621Y61856*
X67652Y62014*
X67621Y62172*
X67559Y62264*
X67621Y62356*
X67652Y62514*
X67621Y62672*
X67531Y62805*
X67398Y62895*
X67240Y62926*
X65740*
X65622Y62902*
X62359*
X61601Y63660*
Y64545*
X61728Y64558*
X61750Y64444*
X61863Y64276*
X62031Y64163*
X62190Y64132*
X62462Y63859*
X62588Y63775*
X62737Y63746*
X62780*
Y63430*
X64088*
X64180*
X65488*
Y63684*
X67628*
Y63314*
X67659Y63156*
X67749Y63023*
X67882Y62933*
X68040Y62902*
X68198Y62933*
X68290Y62995*
X68382Y62933*
X68540Y62902*
X68698Y62933*
X68790Y62995*
X68882Y62933*
X69040Y62902*
X69198Y62933*
X69290Y62995*
X69382Y62933*
X69413Y62927*
Y63145*
X69421Y63156*
X69452Y63314*
Y64064*
Y64814*
X69421Y64972*
X69413Y64983*
Y65201*
X69382Y65195*
X69290Y65133*
X69198Y65195*
X69040Y65226*
X68882Y65195*
X68790Y65133*
X68698Y65195*
X68540Y65226*
X68382Y65195*
X68290Y65133*
X68198Y65195*
X68040Y65226*
X67882Y65195*
X67749Y65105*
X67659Y64972*
X67628Y64814*
Y64460*
X65488*
Y64838*
X64180*
X64088*
X62780*
X62708*
Y64840*
X62617Y64975*
Y65320*
X62933*
Y66628*
Y66720*
Y68028*
X61655*
X61620Y70648*
X61709Y70738*
X61784*
Y73278*
X60642*
Y70738*
X60825*
Y63499*
X60854Y63350*
X60923Y63247*
X60825Y63166*
X60331Y63660*
Y70738*
X60514*
Y73278*
X59372*
Y70738*
X59555*
Y69171*
X58223*
Y67863*
Y67771*
Y66463*
X58539*
Y66289*
X58469Y66243*
X58329Y66033*
X58280Y65785*
X58329Y65537*
X58469Y65327*
X58539Y65281*
Y63372*
X58568Y63223*
X58652Y63097*
X60063Y61687*
Y60139*
X59859*
Y58964*
X59742Y58916*
X59315Y59342*
Y59991*
X59406Y60126*
X59445Y60324*
X59406Y60522*
X59293Y60690*
X59125Y60803*
X58927Y60842*
X58729Y60803*
X58561Y60690*
X58448Y60522*
X58409Y60324*
X58448Y60126*
X58539Y59991*
Y59396*
X58421Y59347*
X57709Y60059*
Y60245*
X57799Y60380*
X57838Y60578*
X57799Y60776*
X57709Y60911*
Y68971*
X58948Y70209*
X59032Y70335*
X59061Y70484*
Y70738*
X59244*
Y73278*
X58102*
Y70738*
X58212*
X58260Y70621*
X57046Y69406*
X56962Y69280*
X56932Y69131*
Y60911*
X56842Y60776*
X56840Y60765*
X56713Y60777*
Y64551*
X56679Y64724*
X56580Y64871*
X53092Y68360*
Y70527*
X50284*
Y67719*
X52451*
X55807Y64363*
Y56204*
X55692Y56063*
X55529Y55758*
X55428Y55428*
X55395Y55084*
X55428Y54740*
X55529Y54410*
X55692Y54105*
X55911Y53838*
X56178Y53619*
X56483Y53456*
X56813Y53355*
X57157Y53321*
X57501Y53355*
X57832Y53456*
X58095Y53597*
X58452Y53239*
X58578Y53155*
X58603Y53150*
X58727Y53126*
X65250*
X65331Y53027*
X65328Y53014*
X65359Y52856*
X65421Y52764*
X65359Y52672*
X65328Y52514*
X65331Y52501*
X65250Y52402*
X62617*
X62482Y52493*
X62284Y52532*
X62086Y52493*
X61918Y52380*
X61805Y52212*
X61766Y52014*
X61805Y51816*
X61918Y51648*
X62086Y51535*
X62284Y51496*
X62482Y51535*
X62610Y51621*
X62729Y51578*
X62752Y51504*
X62625Y51419*
X62512Y51251*
X62473Y51053*
X62512Y50855*
X62625Y50687*
X62793Y50574*
X62991Y50535*
X63189Y50574*
X63357Y50687*
X63470Y50855*
X63501Y51014*
X63613Y51126*
X63945*
X64005Y51014*
X63909Y50870*
X63878Y50711*
X63084Y49917*
X62313*
Y50233*
X61820*
X61107Y50947*
X60981Y51031*
X60832Y51060*
X58165*
X58016Y51031*
X57890Y50947*
X56734Y49790*
X55069*
X54934Y49881*
X54736Y49920*
X54538Y49881*
X54370Y49768*
X54257Y49600*
X54218Y49402*
X54257Y49204*
X54370Y49036*
X54538Y48923*
X54736Y48884*
X54934Y48923*
X55069Y49014*
X56895*
X57044Y49043*
X57170Y49127*
X58326Y50284*
X59605*
Y50233*
Y48825*
Y48520*
X52585*
X52576Y48569*
X52548Y48711*
X52435Y48879*
X51536Y49779*
X51570Y50037*
X51535Y50302*
X51432Y50549*
X51270Y50762*
X51057Y50924*
X50810Y51027*
X50545Y51062*
X50280Y51027*
X50033Y50924*
X49820Y50762*
X49658Y50549*
X49555Y50302*
X49520Y50037*
X49555Y49772*
X49658Y49525*
X49820Y49312*
X50033Y49150*
X50280Y49047*
X50545Y49012*
X50803Y49046*
X51551Y48298*
Y48005*
Y30987*
X51590Y30789*
X51703Y30621*
X51974Y30350*
X51931Y30246*
X51895Y29971*
X51931Y29696*
X52037Y29439*
X52206Y29219*
X52426Y29050*
X52683Y28944*
X52958Y28908*
X53233Y28944*
X53490Y29050*
X53710Y29219*
X53879Y29439*
X53985Y29696*
X54021Y29971*
X53985Y30246*
X53879Y30503*
X53710Y30723*
X53490Y30892*
X53233Y30998*
X52958Y31034*
X52778Y31010*
X52587Y31202*
Y47744*
X53369*
X53382Y47617*
X53268Y47595*
X53100Y47482*
X52987Y47314*
X52948Y47116*
X52987Y46918*
X53100Y46750*
X53268Y46637*
X53466Y46598*
X53664Y46637*
X53799Y46728*
X60959*
X61108Y46757*
X61234Y46841*
X61820Y47428*
X62313*
Y47744*
X63245*
X63394Y47773*
X63520Y47857*
X64427Y48765*
X64586Y48796*
X64754Y48909*
X64867Y49077*
X64898Y49236*
X65764Y50102*
X67240*
X67398Y50133*
X67531Y50223*
X67621Y50356*
X67652Y50514*
X67621Y50672*
X67559Y50764*
X67621Y50856*
X67652Y51014*
X67621Y51172*
X67559Y51264*
X67621Y51356*
X67652Y51514*
X67621Y51672*
X67559Y51764*
X67621Y51856*
X67652Y52014*
X67649Y52027*
X67730Y52126*
X68100*
X68196Y52030*
X68227Y51871*
X68340Y51703*
X68508Y51590*
X68706Y51551*
X68904Y51590*
X69072Y51703*
X69185Y51871*
X69224Y52069*
X69185Y52267*
X69072Y52435*
X69071Y52436*
X69120Y52553*
X69214Y52535*
X69412Y52574*
X69580Y52686*
X69693Y52854*
X69732Y53053*
X69693Y53251*
X69580Y53419*
X69412Y53531*
X69214Y53570*
X69016Y53531*
X68848Y53419*
X68837Y53402*
X67730*
X67649Y53501*
X67652Y53514*
X67621Y53672*
X67559Y53764*
X67621Y53856*
X67652Y54014*
X67621Y54172*
X67559Y54264*
X67621Y54356*
X67652Y54514*
X67621Y54672*
X67559Y54764*
X67621Y54856*
X67652Y55014*
X67621Y55172*
X67559Y55264*
X67621Y55356*
X67627Y55387*
X67409*
X67398Y55395*
X67240Y55426*
X65740*
X65622Y55402*
X65350*
X65331Y55501*
X65250Y55402*
X63255*
X60044Y58614*
X60092Y58731*
X61167*
X61259*
X62567*
Y59732*
X63258Y60422*
X63370Y60362*
X63362Y60324*
X63401Y60126*
X63514Y59958*
X63682Y59845*
X63880Y59806*
X64078Y59845*
X64246Y59958*
X64358Y60126*
X65250*
X65331Y60027*
X65328Y60014*
X65359Y59856*
X65421Y59764*
X65359Y59672*
X65328Y59514*
X65359Y59356*
X65421Y59264*
X65359Y59172*
X65328Y59014*
X65359Y58856*
X65421Y58764*
X65359Y58672*
X65328Y58514*
X65359Y58356*
X65421Y58264*
X65359Y58172*
X65328Y58014*
X65359Y57856*
X65421Y57764*
X65359Y57672*
X65353Y57641*
X65571*
X65582Y57633*
X65740Y57602*
X66490*
Y57426*
X65740*
X65582Y57395*
X65571Y57387*
X65353*
X65359Y57356*
X65421Y57264*
X65359Y57172*
X65328Y57014*
X65359Y56856*
X65421Y56764*
X65359Y56672*
X65328Y56514*
X65359Y56356*
X65421Y56264*
X65359Y56172*
X65328Y56014*
X65359Y55856*
X65421Y55764*
X65359Y55672*
X65353Y55641*
X65571*
X65582Y55633*
X65740Y55602*
X67240*
X67358Y55626*
X67630*
X67649Y55527*
X67730Y55626*
X69972*
X70018Y55556*
X70228Y55416*
X70476Y55367*
X70724Y55416*
X70934Y55556*
X71074Y55766*
X71123Y56014*
X71116Y56049*
X71228Y56109*
X71366Y55972*
Y52838*
X70597*
X70448Y52809*
X70322Y52725*
X68765Y51168*
X68681Y51042*
X68652Y50893*
Y50204*
X68553Y50123*
X68540Y50126*
X68382Y50095*
X68290Y50033*
X68198Y50095*
X68040Y50126*
X67882Y50095*
X67749Y50005*
X67659Y49872*
X67628Y49714*
Y48214*
X67652Y48096*
Y46103*
X67651Y46102*
X67492Y46071*
X67324Y45958*
X67211Y45790*
X67172Y45592*
X67211Y45394*
X67324Y45226*
X67492Y45113*
X67690Y45074*
X67888Y45113*
X68040Y45215*
X68152Y45155*
Y44616*
X68061Y44481*
X68022Y44283*
X68061Y44085*
X68174Y43917*
X68342Y43804*
X68540Y43765*
X68578Y43773*
X68638Y43661*
X67910Y42932*
X60070*
X59921Y42903*
X59795Y42819*
X58652Y41676*
X58568Y41550*
X58539Y41401*
Y39877*
X58568Y39728*
X58652Y39602*
X59367Y38888*
X59334Y38809*
X59299Y38543*
X59334Y38278*
X59437Y38031*
X59599Y37819*
X59812Y37656*
X60059Y37554*
X60324Y37519*
X60589Y37554*
X60836Y37656*
X61049Y37819*
X61211Y38031*
X61314Y38278*
X61349Y38543*
X61314Y38809*
X61211Y39056*
X61049Y39268*
X60836Y39431*
X60589Y39533*
Y39586*
X60836Y39688*
X61049Y39851*
X61211Y40063*
X61314Y40310*
X61349Y40575*
X61314Y40841*
X61263Y40965*
X61731Y41433*
X61848Y41384*
Y39560*
X62336*
X62361Y39435*
X62352Y39431*
X62139Y39268*
X61977Y39056*
X61874Y38809*
X61856Y38671*
X63872*
X63854Y38809*
X63751Y39056*
X63589Y39268*
X63376Y39431*
X63129Y39533*
X63131Y39560*
X63880*
Y41591*
X63936Y41648*
X68325*
X68474Y41677*
X68600Y41761*
X70315Y43476*
X70399Y43602*
X70428Y43751*
Y47724*
X70527Y47805*
X70429Y47824*
Y48096*
X70452Y48214*
Y48964*
Y49714*
X70421Y49872*
X70413Y49883*
Y50101*
X70382Y50095*
X70290Y50033*
X70198Y50095*
X70040Y50126*
X69882Y50095*
X69790Y50033*
X69698Y50095*
X69540Y50126*
X69527Y50123*
X69428Y50204*
Y50732*
X70758Y52062*
X75652*
Y50204*
X75553Y50123*
X75651Y50104*
Y49832*
X75628Y49714*
Y48964*
Y48214*
X75651Y48096*
Y47824*
X75553Y47805*
X75652Y47724*
Y44025*
X75241*
Y43759*
X74871*
Y44025*
X73463*
Y42717*
Y42625*
Y42098*
X74871*
Y42625*
Y42717*
Y42983*
X75241*
Y42717*
Y42625*
Y41317*
X76649*
Y41518*
X78370*
Y40905*
X78727*
Y40272*
X77392Y38938*
X77252Y38728*
X77203Y38480*
Y30803*
X77098Y30723*
X76929Y30503*
X76823Y30246*
X76787Y29971*
X76823Y29696*
X76929Y29439*
X77098Y29219*
X77318Y29050*
X77575Y28944*
X77850Y28908*
X78125Y28944*
X78382Y29050*
X78602Y29219*
X78771Y29439*
X78877Y29696*
X78913Y29971*
X78877Y30246*
X78771Y30503*
X78602Y30723*
X78497Y30803*
Y38212*
X79832Y39546*
X79972Y39756*
X80021Y40004*
Y40905*
X80378*
Y42730*
X80495Y42778*
X80985Y42289*
X80936Y42171*
X80901Y41909*
X80936Y41647*
X81037Y41403*
X81198Y41193*
X81408Y41032*
X81652Y40931*
X81914Y40896*
X82176Y40931*
X82420Y41032*
X82630Y41193*
X82791Y41403*
X82892Y41647*
X82927Y41909*
X82892Y42171*
X82791Y42415*
X82630Y42625*
X82420Y42786*
X82176Y42887*
X81914Y42922*
X81652Y42887*
X81534Y42838*
X81032Y43340*
Y43751*
X81153Y43792*
X81198Y43733*
X81408Y43572*
X81652Y43471*
X81914Y43436*
X82176Y43471*
X82420Y43572*
X82630Y43733*
X82791Y43943*
X82892Y44187*
X82927Y44449*
X82892Y44711*
X82791Y44955*
X82630Y45165*
X82420Y45326*
X82176Y45427*
X81914Y45462*
X81652Y45427*
X81534Y45378*
X79928Y46984*
Y47724*
X80027Y47805*
X80040Y47802*
X80198Y47833*
X80331Y47923*
X80421Y48056*
X80452Y48214*
Y49714*
X80421Y49872*
X80331Y50005*
X80198Y50095*
X80040Y50126*
X79882Y50095*
X79790Y50033*
X79698Y50095*
X79540Y50126*
X79382Y50095*
X79290Y50033*
X79198Y50095*
X79040Y50126*
X79027Y50123*
X78928Y50204*
Y52090*
X79413Y52575*
X79572Y52606*
X79740Y52719*
X79853Y52887*
X79892Y53085*
X79853Y53283*
X79740Y53451*
X79572Y53564*
X79374Y53603*
X79348Y53652*
X79413Y53718*
X79572Y53749*
X79740Y53862*
X79853Y54030*
X79892Y54228*
X79853Y54426*
X79740Y54594*
X79572Y54707*
X79374Y54746*
X79176Y54707*
X79068Y54634*
X78978Y54724*
X79083Y54882*
X79132Y55129*
X79083Y55377*
X78943Y55587*
X78733Y55728*
X78485Y55777*
X78237Y55728*
X78027Y55587*
X77981Y55518*
X76428*
Y60126*
X80350*
X80431Y60027*
X80428Y60014*
X80459Y59856*
X80521Y59764*
X80459Y59672*
X80428Y59514*
X80459Y59356*
X80521Y59264*
X80459Y59172*
X80428Y59014*
X80459Y58856*
X80521Y58764*
X80459Y58672*
X80428Y58514*
X80459Y58356*
X80521Y58264*
X80459Y58172*
X80428Y58014*
X80459Y57856*
X80521Y57764*
X80459Y57672*
X80428Y57514*
X80459Y57356*
X80521Y57264*
X80459Y57172*
X80428Y57014*
X80459Y56856*
X80521Y56764*
X80459Y56672*
X80428Y56514*
X80459Y56356*
X80521Y56264*
X80459Y56172*
X80428Y56014*
X80459Y55856*
X80521Y55764*
X80459Y55672*
X80428Y55514*
X80459Y55356*
X80521Y55264*
X80459Y55172*
X80428Y55014*
X80459Y54856*
X80521Y54764*
X80459Y54672*
X80428Y54514*
X80459Y54356*
X80521Y54264*
X80459Y54172*
X80428Y54014*
X80459Y53856*
X80521Y53764*
X80459Y53672*
X80428Y53514*
X80459Y53356*
X80521Y53264*
X80459Y53172*
X80428Y53014*
X80459Y52856*
X80521Y52764*
X80459Y52672*
X80453Y52641*
X80671*
X80682Y52633*
X80840Y52602*
X82340*
X82498Y52633*
X82509Y52641*
X82727*
X82721Y52672*
X82659Y52764*
X82721Y52856*
X82752Y53014*
X82721Y53172*
X82659Y53264*
X82721Y53356*
X82752Y53514*
X82749Y53527*
X82830Y53626*
X84590*
X84610Y53522*
X84723Y53354*
X84891Y53241*
X85089Y53202*
X85287Y53241*
X85455Y53354*
X85568Y53522*
X85607Y53720*
X85568Y53917*
X85680Y53977*
X87100Y52556*
X87226Y52472*
X87375Y52443*
X90516*
X91037Y51921*
X91163Y51837*
X91188Y51832*
X91312Y51808*
X94467*
X94616Y51837*
X94742Y51921*
X95006Y52185*
X95090Y52311*
X95119Y52460*
Y52518*
X95239*
Y54326*
X94223*
Y52584*
X93939*
Y54326*
X93819*
Y55030*
X93795Y55151*
X93790Y55179*
X93758Y55226*
X93706Y55305*
X93002Y56008*
X93051Y56126*
X94199*
X95643Y54682*
Y54326*
X95523*
Y52518*
X96539*
Y54326*
X96419*
Y54458*
X96537Y54506*
X101846Y49198*
Y48564*
X101835Y48556*
X101712Y48373*
X101669Y48157*
Y46557*
X101712Y46341*
X101835Y46158*
X102018Y46035*
X102234Y45992*
X102450Y46035*
X102633Y46158*
X102756Y46341*
X102799Y46557*
Y48157*
X102756Y48373*
X102633Y48556*
X102622Y48564*
Y49187*
X102740Y49236*
X103116Y48860*
Y48564*
X103105Y48556*
X102982Y48373*
X102939Y48157*
Y46557*
X102982Y46341*
X103105Y46158*
X103288Y46035*
X103504Y45992*
X103720Y46035*
X103903Y46158*
X104026Y46341*
X104069Y46557*
Y48157*
X104026Y48373*
X103903Y48556*
X103892Y48564*
Y49021*
X103863Y49170*
X103779Y49296*
X95246Y57828*
X95306Y57940*
X95503Y57901*
X95701Y57940*
X95869Y58053*
X95982Y58221*
X96013Y58380*
X96356Y58722*
X96440Y58848*
X96445Y58873*
X96469Y58997*
Y59718*
X96589*
Y61526*
Y61562*
X96679Y61652*
X96730*
Y61968*
X97281*
X97430Y61997*
X97556Y62081*
X98064Y62589*
X98148Y62715*
X98177Y62864*
Y63122*
X98247Y63168*
X98250Y63173*
X98932*
X99105Y63207*
X99252Y63306*
X100324Y64377*
X100329Y64376*
X100577Y64425*
X100787Y64565*
X100927Y64775*
X100976Y65023*
X100927Y65271*
X100787Y65481*
X100577Y65621*
X100329Y65670*
X100081Y65621*
X99871Y65481*
X99731Y65271*
X99682Y65023*
X99683Y65018*
X98744Y64079*
X98250*
X98247Y64084*
X98037Y64224*
X97789Y64273*
X97541Y64224*
X97331Y64084*
X97328Y64079*
X92557*
X91577Y65059*
X91578Y65064*
X91529Y65312*
X91389Y65522*
X91179Y65662*
X90931Y65711*
X90683Y65662*
X90473Y65522*
X90333Y65312*
X90284Y65064*
X90333Y64816*
X90473Y64606*
X90683Y64466*
X90931Y64417*
X90936Y64418*
X92049Y63306*
X92196Y63207*
X92369Y63173*
X94022*
Y63060*
Y62744*
X90238*
Y63075*
X88830*
Y61767*
Y61675*
Y61148*
X90238*
Y61675*
Y61767*
Y61968*
X94022*
Y61652*
X94173*
Y61526*
Y59718*
X95189*
Y61526*
Y61562*
X95279Y61652*
X95330*
X95422*
X95573*
Y61526*
Y59718*
X95693*
Y59158*
X95464Y58929*
X95305Y58898*
X95137Y58785*
X95024Y58617*
X94985Y58419*
X95024Y58221*
X95089Y58124*
X95017Y58016*
X94868Y58045*
X91471*
X91459Y58172*
X91601Y58200*
X91727Y58284*
X92406Y58963*
X92490Y59089*
X92519Y59238*
Y59718*
X92639*
Y61526*
X91623*
Y59718*
X91743*
Y59399*
X91291Y58947*
X90610*
X90494Y59025*
X90296Y59064*
X90098Y59025*
X89930Y58912*
X89817Y58744*
X89778Y58546*
X89817Y58348*
X89930Y58180*
X89949Y58167*
X89912Y58045*
X88806*
X88144Y58707*
Y58975*
X88235Y59110*
X88274Y59308*
X88235Y59506*
X88122Y59674*
X87954Y59787*
X87756Y59826*
X87558Y59787*
X87390Y59674*
X87277Y59506*
X87238Y59308*
X87277Y59110*
X87368Y58975*
Y58546*
X87397Y58397*
X87466Y58294*
X87368Y58213*
X86239Y59342*
Y61467*
X86210Y61616*
X86126Y61742*
X85079Y62789*
X84953Y62873*
X84804Y62902*
X82458*
X82340Y62926*
X80840*
X80682Y62895*
X80549Y62805*
X80459Y62672*
X80428Y62514*
X80459Y62356*
X80521Y62264*
X80459Y62172*
X80428Y62014*
X80459Y61856*
X80521Y61764*
X80459Y61672*
X80428Y61514*
X80459Y61356*
X80521Y61264*
X80459Y61172*
X80453Y61141*
X80671*
X80682Y61133*
X80840Y61102*
X82340*
X82498Y61133*
X82509Y61141*
X82727*
X82721Y61172*
X82659Y61264*
X82721Y61356*
X82752Y61514*
X82749Y61527*
X82830Y61626*
X83365*
X84325Y60666*
X84356Y60507*
X84469Y60339*
X84637Y60226*
X84835Y60187*
X85033Y60226*
X85201Y60339*
X85314Y60507*
X85336Y60621*
X85463Y60608*
Y59181*
X85492Y59032*
X85576Y58906*
X87463Y57020*
X87414Y56902*
X82830*
X82749Y57001*
X82752Y57014*
X82721Y57172*
X82659Y57264*
X82721Y57356*
X82752Y57514*
X82721Y57672*
X82659Y57764*
X82721Y57856*
X82752Y58014*
X82721Y58172*
X82659Y58264*
X82721Y58356*
X82752Y58514*
X82721Y58672*
X82659Y58764*
X82721Y58856*
X82752Y59014*
X82721Y59172*
X82659Y59264*
X82721Y59356*
X82752Y59514*
X82721Y59672*
X82659Y59764*
X82721Y59856*
X82752Y60014*
X82721Y60172*
X82659Y60264*
X82721Y60356*
X82752Y60514*
X82721Y60672*
X82659Y60764*
X82721Y60856*
X82727Y60887*
X82509*
X82498Y60895*
X82340Y60926*
X80840*
X80747Y60907*
X80449Y60909*
X80429Y61008*
X80349Y60910*
X76428Y60932*
Y61246*
X76540Y61306*
X76636Y61242*
X76834Y61203*
X77032Y61242*
X77200Y61355*
X77313Y61523*
X77348Y61703*
X77399Y61778*
X77428Y61927*
Y62824*
X77527Y62905*
X77540Y62902*
X77698Y62933*
X77790Y62995*
X77882Y62933*
X78040Y62902*
X78198Y62933*
X78290Y62995*
X78382Y62933*
X78540Y62902*
X78698Y62933*
X78790Y62995*
X78882Y62933*
X79040Y62902*
X79198Y62933*
X79290Y62995*
X79382Y62933*
X79540Y62902*
X79698Y62933*
X79790Y62995*
X79882Y62933*
X80040Y62902*
X80198Y62933*
X80331Y63023*
X80421Y63156*
X80452Y63314*
Y64814*
X80428Y64932*
Y66163*
X81059Y66794*
X101596*
X101633Y66672*
X101614Y66659*
X101501Y66491*
X101462Y66293*
X101501Y66095*
X101592Y65960*
Y64168*
X98276Y60853*
X98192Y60727*
X98163Y60578*
Y57355*
X98072Y57220*
X98033Y57022*
X98072Y56824*
X98185Y56656*
X98353Y56543*
X98551Y56504*
X98749Y56543*
X98917Y56656*
X99030Y56824*
X99069Y57022*
X99030Y57220*
X98939Y57355*
Y60417*
X99315Y60793*
X99433Y60744*
Y57355*
X99342Y57220*
X99303Y57022*
X99342Y56824*
X99455Y56656*
X99623Y56543*
X99821Y56504*
X100019Y56543*
X100187Y56656*
X100300Y56824*
X100339Y57022*
X100300Y57220*
X100209Y57355*
Y60671*
X103398Y63859*
X103482Y63985*
X103511Y64134*
Y65960*
X103602Y66095*
X103641Y66293*
X103602Y66491*
X103489Y66659*
X103343Y66757*
X103321Y66772*
X103323Y66794*
X106264*
X108690Y64367*
X108816Y64283*
X108965Y64254*
X112648*
X112797Y64283*
X112923Y64367*
X113640Y65085*
X114888*
X114980*
X116688*
Y65586*
X118641*
Y65577*
Y64469*
X118737*
Y61907*
X118782Y61684*
X118908Y61495*
X119521Y60882*
X119497Y60705*
X119532Y60440*
X119635Y60193*
X119797Y59980*
X120010Y59818*
X120257Y59715*
X120522Y59680*
X120787Y59715*
X121034Y59818*
X121247Y59980*
X121409Y60193*
X121512Y60440*
X121547Y60705*
X121512Y60970*
X121409Y61217*
X121247Y61430*
X121034Y61592*
X120787Y61695*
X120522Y61730*
X120345Y61706*
X119903Y62148*
Y64440*
X120791*
Y63519*
X121415*
X121470Y63508*
X122760*
X124058Y62211*
X124241Y62088*
X124457Y62045*
X128015*
X128231Y62088*
X128414Y62211*
X129350Y63146*
X129539Y63121*
X129801Y63156*
X130045Y63257*
X130255Y63418*
X130416Y63628*
X130517Y63872*
X130552Y64134*
X130517Y64396*
X130416Y64640*
X130255Y64850*
X130045Y65011*
X129801Y65112*
X129539Y65147*
X129277Y65112*
X129033Y65011*
X128823Y64850*
X128662Y64640*
X128561Y64396*
X128526Y64134*
X128551Y63945*
X127781Y63175*
X124691*
X123543Y64323*
X123591Y64440*
X124654*
X124798Y64469*
X125333*
Y65577*
X124798*
X124654Y65606*
X122149*
Y66527*
X120791*
Y66492*
X116688*
Y66983*
X122239*
X122869Y66354*
X123016Y66255*
X123189Y66221*
X125915*
X126125Y66011*
Y65419*
X127319*
X127368Y65302*
X126693Y64627*
X126125*
Y63519*
X126603*
X126655Y63484*
X126871Y63441*
X127087Y63484*
X127139Y63519*
X127483*
Y63819*
X129350Y65686*
X129539Y65661*
X129801Y65696*
X130045Y65797*
X130255Y65958*
X130416Y66168*
X130517Y66412*
X130552Y66674*
X130517Y66936*
X130416Y67180*
X130255Y67390*
X130045Y67551*
X129801Y67652*
X129539Y67687*
X129277Y67652*
X129033Y67551*
X128823Y67390*
X128662Y67180*
X128561Y66936*
X128526Y66674*
X128551Y66485*
X127600Y65534*
X127483Y65583*
Y66527*
X126891*
X126423Y66994*
X126276Y67093*
X126103Y67127*
X123377*
X122747Y67756*
X122600Y67855*
X122427Y67889*
X113040*
X112867Y67855*
X112720Y67756*
X111956Y66993*
X110789*
X110697*
X109438*
X108323Y68109*
X108197Y68193*
X108107Y68211*
X108048Y68222*
X81257*
X81208Y68340*
X81313Y68445*
X111875*
X112024Y68474*
X112150Y68558*
X113756Y70165*
X115015*
X115107*
X116815*
Y70666*
X118641*
Y70657*
Y69549*
X119176*
X119320Y69520*
X120791*
Y68599*
X121415*
X121470Y68588*
X122760*
X123804Y67545*
X123864Y67505*
X123987Y67422*
X124203Y67379*
X128269*
X128485Y67422*
X128668Y67545*
X129350Y68226*
X129539Y68201*
X129801Y68236*
X130045Y68337*
X130255Y68498*
X130416Y68708*
X130517Y68952*
X130552Y69214*
X130517Y69476*
X130416Y69720*
X130255Y69930*
X130045Y70091*
X129801Y70192*
X129539Y70227*
X129277Y70192*
X129033Y70091*
X128823Y69930*
X128662Y69720*
X128561Y69476*
X128526Y69214*
X128551Y69025*
X128035Y68509*
X127483*
Y68599*
Y68899*
X129350Y70766*
X129539Y70741*
X129801Y70776*
X130045Y70877*
X130255Y71038*
X130416Y71248*
X130517Y71492*
X130552Y71754*
X130517Y72016*
X130416Y72260*
X130255Y72470*
X130045Y72631*
X129801Y72732*
X129539Y72767*
X129277Y72732*
X129033Y72631*
X128823Y72470*
X128662Y72260*
X128561Y72016*
X128526Y71754*
X128551Y71565*
X127600Y70614*
X127483Y70663*
Y71607*
X126644*
X126303Y71947*
X126156Y72046*
X125983Y72080*
X123631*
X122112Y73598*
X122134Y73668*
X122760*
X123804Y72625*
X123864Y72585*
X123987Y72502*
X124203Y72459*
X128269*
X128485Y72502*
X128668Y72625*
X129350Y73306*
X129539Y73281*
X129801Y73316*
X130045Y73417*
X130255Y73578*
X130416Y73788*
X130517Y74032*
X130552Y74294*
X130517Y74556*
X130416Y74800*
X130255Y75010*
X130045Y75171*
X129801Y75272*
X129539Y75307*
X129277Y75272*
X129033Y75171*
X128823Y75010*
X128662Y74800*
X128561Y74556*
X128526Y74294*
X128551Y74105*
X128035Y73589*
X127483*
Y73679*
Y73979*
X129350Y75846*
X129539Y75821*
X129801Y75856*
X130045Y75957*
X130255Y76118*
X130416Y76328*
X130517Y76572*
X130552Y76834*
X130517Y77096*
X130416Y77340*
X130255Y77550*
X130045Y77711*
X129801Y77812*
X129539Y77847*
X129277Y77812*
X129033Y77711*
X128823Y77550*
X128662Y77340*
X128561Y77096*
X128526Y76834*
X128551Y76645*
X127600Y75694*
X127483Y75743*
Y76687*
X126891*
X126423Y77154*
X126276Y77253*
X126103Y77287*
X123377*
X122493Y78170*
X122346Y78269*
X122173Y78303*
X113294*
X113121Y78269*
X112974Y78170*
X111956Y77153*
X110789*
X110697*
X108989*
Y75894*
X108285Y75190*
X84962*
X84813Y75161*
X84687Y75077*
X77265Y67655*
X77181Y67529*
X77152Y67380*
Y65304*
X77053Y65223*
X77040Y65226*
X76882Y65195*
X76790Y65133*
X76698Y65195*
X76667Y65201*
Y64983*
X76659Y64972*
X76628Y64814*
Y64064*
X76452*
Y64814*
X76421Y64972*
X76413Y64983*
Y65201*
X76382Y65195*
X76290Y65133*
X76198Y65195*
X76040Y65226*
X75882Y65195*
X75790Y65133*
X75698Y65195*
X75540Y65226*
X75382Y65195*
X75290Y65133*
X75198Y65195*
X75040Y65226*
X74882Y65195*
X74790Y65133*
X74698Y65195*
X74540Y65226*
X74527Y65223*
X74428Y65304*
Y78358*
X74404Y78482*
X74399Y78507*
X74315Y78633*
X69743Y83205*
X69617Y83289*
X69468Y83318*
G37*
G36*
X61086Y76707D02*
X60642D01*
Y75564*
X61086*
Y76707*
G37*
G36*
X41398Y77429D02*
X40171D01*
Y76202*
X41398*
Y77429*
G37*
G36*
X46398Y78910D02*
X43690D01*
Y76202*
X46398*
Y78910*
G37*
G36*
X39917Y77429D02*
X38690D01*
Y76202*
X39917*
Y77429*
G37*
%LNlp_led_cube_8x8x8-3*%
%LPD*%
G36*
X106449Y71424D02*
Y70165D01*
X108157*
X108249*
X109957*
Y71332*
X111450Y72825*
X121604*
X123123Y71307*
X123270Y71208*
X123443Y71174*
X125795*
X126125Y70844*
Y70652*
X126013Y70592*
X125850Y70701*
X125602Y70750*
X125354Y70701*
X125288Y70657*
X124798*
X124654Y70686*
X122149*
Y71607*
X120791*
Y71572*
X116815*
Y72073*
X115107*
X115015*
X113307*
Y70814*
X111714Y69221*
X81604*
X81555Y69339*
X85614Y73398*
X104475*
X106449Y71424*
G37*
G36*
X43618Y58465D02*
D01*
Y58373*
Y58122*
X43208*
X43073Y58212*
X42875Y58252*
X42677Y58212*
X42509Y58100*
X42396Y57932*
X42357Y57734*
X42396Y57536*
X42509Y57368*
X42677Y57255*
X42875Y57216*
X43073Y57255*
X43208Y57345*
X43618*
Y57065*
X43934*
Y56768*
X43963Y56619*
X44047Y56493*
X44747Y55793*
X44873Y55709*
X45022Y55680*
X45750*
X46126Y55303*
X46078Y55186*
X46019*
X45927*
X44619*
Y54870*
X44576*
X44427Y54841*
X44301Y54757*
X43653Y54108*
X40007*
X39970Y54230*
X39989Y54243*
X40102Y54411*
X40141Y54609*
X40102Y54807*
X39989Y54975*
X39843Y55073*
X39821Y55088*
X39823Y55110*
X40363*
Y54794*
X41671*
X41763*
X42290*
Y55498*
Y56202*
X41763*
X41671*
X40363*
Y55886*
X39530*
X39348Y56068*
Y57259*
X38332*
Y57558*
X38303Y57707*
X38219Y57833*
X38102Y57949*
X38151Y58067*
X39640*
Y58051*
Y57551*
X41348*
Y58051*
Y58551*
Y58567*
X43618*
Y58465*
G37*
G36*
X40951Y68663D02*
D01*
Y67355*
Y67263*
Y65955*
X42359*
Y66221*
X43210*
X44061Y65370*
Y60843*
X43805*
X43745Y60955*
X43785Y61015*
X43824Y61213*
X43785Y61411*
X43672Y61579*
X43504Y61692*
X43306Y61731*
X43108Y61692*
X42940Y61579*
X42827Y61411*
X42814Y61343*
X41348*
Y61359*
Y61551*
Y62051*
Y62551*
Y62859*
X39640*
Y62843*
X38949*
X38912Y62965*
X38973Y63006*
X39086Y63174*
X39117Y63333*
X39219Y63434*
X39303Y63560*
X39332Y63709*
Y64151*
X39348*
Y65859*
X38332*
Y67098*
X38676*
Y68406*
Y68498*
Y68764*
X40951*
Y68663*
G37*
G36*
X78382Y47833D02*
X78540Y47802D01*
X78553Y47805*
X78652Y47724*
Y46561*
X78681Y46412*
X78765Y46286*
X79483Y45569*
X79427Y45455*
X79501Y45445*
Y44449*
Y43453*
X79636Y43471*
X79880Y43572*
X80090Y43733*
X80135Y43792*
X80256Y43751*
Y43179*
X80285Y43030*
X80289Y43025*
X80229Y42913*
X78370*
Y42424*
X76649*
Y42625*
Y42717*
Y44025*
X76428*
Y47724*
X76527Y47805*
X76540Y47802*
X76698Y47833*
X76790Y47895*
X76882Y47833*
X77040Y47802*
X77198Y47833*
X77290Y47895*
X77382Y47833*
X77540Y47802*
X77698Y47833*
X77790Y47895*
X77882Y47833*
X78040Y47802*
X78198Y47833*
X78290Y47895*
X78382Y47833*
G37*
G36*
X34040Y64151D02*
X38556D01*
Y63880*
X38409Y63851*
X38241Y63738*
X38128Y63570*
X38089Y63372*
X38128Y63174*
X38241Y63006*
X38302Y62965*
X38265Y62843*
X37707*
X37703Y62849*
X37535Y62962*
X37337Y63001*
X37139Y62962*
X36971Y62849*
X36858Y62681*
X36819Y62483*
X36858Y62285*
X36971Y62117*
X37139Y62004*
X37313Y61970*
X37300Y61843*
X35694*
X35648Y61913*
X35438Y62053*
X35190Y62102*
X35108Y62086*
X33832Y63362*
Y64151*
X33848*
Y65005*
X34040*
Y64151*
G37*
%LNlp_led_cube_8x8x8-4*%
%LPC*%
G36*
X35686Y63357D02*
X35615Y63343D01*
X35447Y63230*
X35334Y63062*
X35320Y62991*
X35686*
Y63357*
G37*
G36*
X36306Y62737D02*
X35940D01*
Y62371*
X36011Y62385*
X36179Y62498*
X36292Y62666*
X36306Y62737*
G37*
G36*
X35686D02*
X35320D01*
X35334Y62666*
X35447Y62498*
X35615Y62385*
X35686Y62371*
Y62737*
G37*
G36*
X91820Y69976D02*
X91325D01*
X91349Y69855*
X91489Y69645*
X91699Y69505*
X91820Y69481*
Y69976*
G37*
G36*
X35940Y63357D02*
Y62991D01*
X36306*
X36292Y63062*
X36179Y63230*
X36011Y63343*
X35940Y63357*
G37*
G36*
X43545Y64642D02*
X43179D01*
Y64276*
X43250Y64290*
X43418Y64403*
X43531Y64571*
X43545Y64642*
G37*
G36*
X43179Y65262D02*
Y64896D01*
X43545*
X43531Y64967*
X43418Y65135*
X43250Y65248*
X43179Y65262*
G37*
G36*
X42925D02*
X42854Y65248D01*
X42686Y65135*
X42573Y64967*
X42559Y64896*
X42925*
Y65262*
G37*
G36*
Y64642D02*
X42559D01*
X42573Y64571*
X42686Y64403*
X42854Y64290*
X42925Y64276*
Y64642*
G37*
G36*
X41348Y63328D02*
X39640D01*
Y63082*
X41348*
Y63328*
G37*
G36*
X40367Y63859D02*
X39640D01*
Y63582*
X40367*
Y63859*
G37*
G36*
X41348D02*
X40621D01*
Y63582*
X41348*
Y63859*
G37*
G36*
X43560Y55991D02*
Y55625D01*
X43926*
X43912Y55696*
X43799Y55864*
X43631Y55977*
X43560Y55991*
G37*
G36*
X89286Y72921D02*
X89165Y72897D01*
X88955Y72757*
X88815Y72547*
X88791Y72426*
X89286*
Y72921*
G37*
G36*
X112013Y72376D02*
Y71881D01*
X112508*
X112484Y72002*
X112344Y72212*
X112134Y72352*
X112013Y72376*
G37*
G36*
X90035Y72172D02*
X89540D01*
Y71677*
X89661Y71701*
X89871Y71841*
X90011Y72051*
X90035Y72172*
G37*
G36*
X111759Y72376D02*
X111638Y72352D01*
X111428Y72212*
X111288Y72002*
X111264Y71881*
X111759*
Y72376*
G37*
G36*
X79247Y44322D02*
X78378D01*
X78396Y44187*
X78497Y43943*
X78658Y43733*
X78868Y43572*
X79112Y43471*
X79247Y43453*
Y44322*
G37*
G36*
Y45445D02*
X79112Y45427D01*
X78868Y45326*
X78658Y45165*
X78497Y44955*
X78396Y44711*
X78378Y44576*
X79247*
Y45445*
G37*
G36*
X89540Y72921D02*
Y72426D01*
X90035*
X90011Y72547*
X89871Y72757*
X89661Y72897*
X89540Y72921*
G37*
G36*
X43926Y55371D02*
X43560D01*
Y55005*
X43631Y55019*
X43799Y55132*
X43912Y55300*
X43926Y55371*
G37*
G36*
X43071Y56202D02*
X42544D01*
Y55498*
Y54794*
X43071*
Y54994*
X43183Y55054*
X43235Y55019*
X43306Y55005*
Y55498*
Y55991*
X43235Y55977*
X43183Y55942*
X43071Y56002*
Y56202*
G37*
G36*
X91820Y70725D02*
X91699Y70701D01*
X91489Y70561*
X91349Y70351*
X91325Y70230*
X91820*
Y70725*
G37*
G36*
X92074D02*
Y70230D01*
X92569*
X92545Y70351*
X92405Y70561*
X92195Y70701*
X92074Y70725*
G37*
G36*
X104761Y69976D02*
X104266D01*
Y69481*
X104387Y69505*
X104597Y69645*
X104737Y69855*
X104761Y69976*
G37*
G36*
X92569D02*
X92074D01*
Y69481*
X92195Y69505*
X92405Y69645*
X92545Y69855*
X92569Y69976*
G37*
G36*
X104012D02*
X103517D01*
X103541Y69855*
X103681Y69645*
X103891Y69505*
X104012Y69481*
Y69976*
G37*
G36*
X112508Y71627D02*
X112013D01*
Y71132*
X112134Y71156*
X112344Y71296*
X112484Y71506*
X112508Y71627*
G37*
G36*
X89286Y72172D02*
X88791D01*
X88815Y72051*
X88955Y71841*
X89165Y71701*
X89286Y71677*
Y72172*
G37*
G36*
X111759Y71627D02*
X111264D01*
X111288Y71506*
X111428Y71296*
X111638Y71156*
X111759Y71132*
Y71627*
G37*
G36*
X104012Y70725D02*
X103891Y70701D01*
X103681Y70561*
X103541Y70351*
X103517Y70230*
X104012*
Y70725*
G37*
G36*
X104266D02*
Y70230D01*
X104761*
X104737Y70351*
X104597Y70561*
X104387Y70701*
X104266Y70725*
G37*
%LNlp_led_cube_8x8x8-5*%
%LPD*%
G54D10*
X114034Y76199D03*
X115834D03*
X114161Y71119D03*
X115961D03*
X109843Y76199D03*
X111643D03*
X114034Y66039D03*
X115834D03*
X109843D03*
X111643D03*
X114034Y81279D03*
X115834D03*
X109843D03*
X111643D03*
X107303Y71119D03*
X109103D03*
G54D11*
X66490Y62514D03*
Y62014D03*
Y61514D03*
Y61014D03*
Y60514D03*
Y60014D03*
Y59514D03*
Y59014D03*
Y58514D03*
Y58014D03*
Y57514D03*
Y57014D03*
Y56514D03*
Y56014D03*
Y55514D03*
Y55014D03*
Y54514D03*
Y54014D03*
Y53514D03*
Y53014D03*
Y52514D03*
Y52014D03*
Y51514D03*
Y51014D03*
Y50514D03*
X81590D03*
Y51014D03*
Y51514D03*
Y52014D03*
Y52514D03*
Y53014D03*
Y53514D03*
Y54014D03*
Y54514D03*
Y55014D03*
Y55514D03*
Y56014D03*
Y56514D03*
Y57014D03*
Y57514D03*
Y58014D03*
Y58514D03*
Y59014D03*
Y59514D03*
Y60014D03*
Y60514D03*
Y61014D03*
Y61514D03*
Y62014D03*
Y62514D03*
G54D12*
X68040Y48964D03*
X68540D03*
X69040D03*
X69540D03*
X70040D03*
X70540D03*
X71040D03*
X71540D03*
X72040D03*
X72540D03*
X73040D03*
X73540D03*
X74040D03*
X74540D03*
X75040D03*
X75540D03*
X76040D03*
X76540D03*
X77040D03*
X77540D03*
X78040D03*
X78540D03*
X79040D03*
X79540D03*
X80040D03*
Y64064D03*
X79540D03*
X79040D03*
X78540D03*
X78040D03*
X77540D03*
X77040D03*
X76540D03*
X76040D03*
X75540D03*
X75040D03*
X74540D03*
X74040D03*
X73540D03*
X73040D03*
X72540D03*
X72040D03*
X71540D03*
X71040D03*
X70540D03*
X70040D03*
X69540D03*
X69040D03*
X68540D03*
X68040D03*
G54D13*
X71627Y42098D03*
Y43498D03*
X74167Y43371D03*
Y41971D03*
X44322Y59119D03*
Y57719D03*
X89534Y62421D03*
Y61021D03*
X129158Y46670D03*
Y48070D03*
X129666Y52007D03*
Y50607D03*
X131063Y52007D03*
Y50607D03*
X130555Y48070D03*
Y46670D03*
X92582Y45911D03*
Y44511D03*
Y48832D03*
Y47432D03*
X105409Y44511D03*
Y45911D03*
X43433Y51945D03*
Y50545D03*
X39242Y51945D03*
Y50545D03*
X40639Y51945D03*
Y50545D03*
X42036D03*
Y51945D03*
X48894Y71497D03*
Y72897D03*
X45592Y57719D03*
Y59119D03*
X62229Y65974D03*
Y67374D03*
X58927Y67117D03*
Y68517D03*
X75945Y41971D03*
Y43371D03*
X29336Y59116D03*
Y60516D03*
X37972Y67752D03*
Y69152D03*
X41655Y66609D03*
Y68009D03*
G54D14*
X92131Y53422D03*
X93431D03*
X94731D03*
X96031D03*
X96081Y60622D03*
X94681D03*
X93431D03*
X92131D03*
G54D15*
X96076Y62356D03*
X94676D03*
X128461Y53339D03*
X127061D03*
X116647Y46862D03*
X118047D03*
X98359Y39877D03*
X99759D03*
X95184D03*
X96584D03*
X40574Y48959D03*
X41974D03*
X42417Y55498D03*
X41017D03*
X46673Y53085D03*
X45273D03*
Y54482D03*
X46673D03*
X60513Y59435D03*
X61913D03*
X63434Y64134D03*
X64834D03*
X61659Y49529D03*
X60259D03*
X61659Y48132D03*
X60259D03*
G54D16*
X63753Y72008D03*
X62483D03*
X61213D03*
X59943D03*
X58673D03*
Y76834D03*
X59943D03*
X61213D03*
X62483D03*
X63753D03*
G54D17*
X103504Y47357D03*
X102234D03*
X100964D03*
X99694D03*
X98424D03*
X97154D03*
X95884D03*
X94614D03*
X103504Y42557D03*
X102234D03*
X100964D03*
X99694D03*
X98424D03*
X97154D03*
X95884D03*
X94614D03*
G54D18*
X40044Y72556D03*
X45044D03*
X40044Y77556D03*
X45044D03*
G54D19*
X31894Y63455D03*
Y62955D03*
Y62455D03*
Y61955D03*
Y61455D03*
Y60955D03*
Y60455D03*
Y59955D03*
Y59455D03*
Y58955D03*
Y58455D03*
Y57955D03*
X40494D03*
Y58455D03*
Y58955D03*
Y59455D03*
Y59955D03*
Y60455D03*
Y60955D03*
Y61455D03*
Y61955D03*
Y62455D03*
Y62955D03*
Y63455D03*
G54D20*
X33444Y56405D03*
X33944D03*
X34444D03*
X34944D03*
X35444D03*
X35944D03*
X36444D03*
X36944D03*
X37444D03*
X37944D03*
X38444D03*
X38944D03*
Y65005D03*
X38444D03*
X37944D03*
X37444D03*
X36944D03*
X36444D03*
X35944D03*
X35444D03*
X34944D03*
X34444D03*
X33944D03*
X33444D03*
G54D21*
X125439Y44322D03*
X120939D03*
G54D22*
X122808Y57911D03*
X128650D03*
X116204Y42671D03*
X110362D03*
G54D23*
X123824Y49910D03*
G54D24*
X120949Y48035D03*
Y50535D03*
Y51785D03*
Y49285D03*
X126699D03*
Y51785D03*
Y50535D03*
Y48035D03*
G54D25*
X126804Y79313D03*
Y81213D03*
X124654Y80263D03*
X121470Y79313D03*
Y81213D03*
X119320Y80263D03*
X126804Y74233D03*
Y76133D03*
X124654Y75183D03*
X126804Y69153D03*
Y71053D03*
X124654Y70103D03*
X121470Y69153D03*
Y71053D03*
X119320Y70103D03*
X121470Y74233D03*
Y76133D03*
X119320Y75183D03*
X126804Y64073D03*
Y65973D03*
X124654Y65023D03*
X121470Y64073D03*
Y65973D03*
X119320Y65023D03*
G54D26*
X112775Y48450D03*
Y58483D03*
G54D27*
X51688Y69123D03*
Y73623D03*
G54D28*
X46673Y54482D02*
Y55306D01*
X45911Y56068D02*
X46673Y55306D01*
X45022Y56068D02*
X45911D01*
X44322Y56768D02*
X45022Y56068D01*
X44322Y56768D02*
Y57719D01*
X111875Y68833D02*
X114161Y71119D01*
X81152Y68833D02*
X111875D01*
X79040Y66721D02*
X81152Y68833D01*
X108446Y74802D02*
X109843Y76199D01*
X84962Y74802D02*
X108446D01*
X77540Y67380D02*
X84962Y74802D01*
X112129Y74294D02*
X114034Y76199D01*
X85215Y74294D02*
X112129D01*
X78040Y67119D02*
X85215Y74294D01*
X104636Y73786D02*
X107303Y71119D01*
X85453Y73786D02*
X104636D01*
X78540Y66873D02*
X85453Y73786D01*
X80040Y66324D02*
X80898Y67182D01*
X80040Y64064D02*
Y66324D01*
X80898Y67182D02*
X106425D01*
X80788Y67834D02*
X108048D01*
X79523Y66569D02*
X80788Y67834D01*
X79523Y64064D02*
Y66569D01*
X77540Y64064D02*
Y67380D01*
X78040Y64064D02*
Y67119D01*
X78540Y64064D02*
Y66873D01*
X79040Y64064D02*
Y66721D01*
X32892Y73151D02*
X33781Y74040D01*
X32892Y69214D02*
Y73151D01*
X35432Y82930D02*
X69468D01*
X31749Y79247D02*
X35432Y82930D01*
X31749Y78358D02*
Y79247D01*
X28320Y65277D02*
X30987Y67944D01*
X28320Y63372D02*
Y65277D01*
X30987Y67944D02*
Y74421D01*
X31495Y67734D02*
Y74167D01*
X29082Y65321D02*
X31495Y67734D01*
X29082Y62610D02*
Y65321D01*
X30479Y63372D02*
X30896Y62955D01*
X31894*
X29737Y61955D02*
X31894D01*
X29082Y62610D02*
X29737Y61955D01*
X29590Y62864D02*
X29999Y62455D01*
X31894*
X29590Y62864D02*
Y65023D01*
X71540Y64064D02*
Y76921D01*
X67944Y80517D02*
X71540Y76921D01*
X37083Y80517D02*
X67944D01*
X67421Y79501D02*
X70540Y76382D01*
X37591Y79501D02*
X67421D01*
X32003Y73913D02*
X37591Y79501D01*
X67690Y80009D02*
X71040Y76659D01*
X37337Y80009D02*
X67690D01*
X31495Y74167D02*
X37337Y80009D01*
X32003Y67436D02*
Y73913D01*
X29590Y65023D02*
X32003Y67436D01*
X70540Y64064D02*
Y76382D01*
X30987Y74421D02*
X37083Y80517D01*
X71040Y64064D02*
Y76659D01*
X30098Y74421D02*
X36829Y81152D01*
X30098Y68833D02*
Y74421D01*
X69087Y81152D02*
X72540Y77699D01*
X36829Y81152D02*
X69087D01*
Y81787D02*
X73040Y77834D01*
X36575Y81787D02*
X69087D01*
X29463Y74675D02*
X36575Y81787D01*
X69170Y82422D02*
X73548Y78044D01*
X36194Y82422D02*
X69170D01*
X32892Y79120D02*
X36194Y82422D01*
X69468Y82930D02*
X74040Y78358D01*
X29463Y67944D02*
Y74675D01*
X33539Y58534D02*
X33944Y58129D01*
X44245Y59008D02*
X44322Y58955D01*
X44084Y59119D02*
X44245Y59008D01*
X40494Y58955D02*
X44322D01*
X44084Y59119D02*
X44245Y59008D01*
X76040Y55117D02*
Y60514D01*
Y43371D02*
Y48964D01*
X56522Y55744D02*
X57157D01*
X48894Y71500D02*
X53720D01*
X60451Y59435D02*
Y61848D01*
X66490Y53014D02*
X69214D01*
X120939Y44104D02*
Y44322D01*
X71040Y45290D02*
Y48964D01*
Y45290D02*
X71627Y44703D01*
X61784Y42036D02*
X68325D01*
X70040Y43751D02*
Y48964D01*
X60261Y38543D02*
X60324D01*
X58927Y39877D02*
X60261Y38543D01*
X58927Y39877D02*
Y41401D01*
X60070Y42544*
X68071*
X81590Y62514D02*
X84804D01*
X85851Y61467*
X88010Y57022D02*
X94570D01*
X81590Y62014D02*
X83526D01*
X87756Y58546D02*
Y59308D01*
X88645Y57657D02*
X94868D01*
X103504Y47357D02*
Y49021D01*
X35444Y51549D02*
Y56405D01*
Y51549D02*
X38099Y48894D01*
X61913Y59435D02*
Y59627D01*
X63300Y61014*
X66490*
X64388Y69976D02*
X68198D01*
X63753Y70611D02*
X64388Y69976D01*
X61213Y63499D02*
X62198Y62514D01*
X66490*
X61213Y72008D02*
X61275Y67374D01*
X62229*
X59943Y63499D02*
Y72008D01*
Y63499D02*
X61428Y62014D01*
X66490*
X64070Y60514D02*
X66490D01*
X63880Y69214D02*
X69087D01*
X62483Y70611D02*
Y72008D01*
X53466Y47116D02*
X60959D01*
X61659Y48132D02*
X63245D01*
X64388Y49275*
X50545Y60832D02*
Y64515D01*
X51307Y61340D02*
Y65150D01*
X56895Y49402D02*
X58165Y50672D01*
X33444Y52279D02*
Y56405D01*
Y52279D02*
X36829Y48894D01*
X33944Y56405D02*
Y58129D01*
X64834Y64134D02*
X64896Y64072D01*
X68001*
X106425Y67182D02*
X108965Y64642D01*
X112648*
X114034Y66028D02*
Y66039D01*
X108048Y67834D02*
X109843Y66039D01*
X78540Y52251D02*
X79374Y53085D01*
X99821Y60832D02*
X103123Y64134D01*
Y66293*
X105917Y79755D02*
X112521D01*
X101980Y64007D02*
Y66293D01*
X103123Y78231D02*
X106171Y81279D01*
X109843*
X40494Y59955D02*
X45592D01*
X52462*
X53085Y60578*
X35944Y54224D02*
X36194Y53974D01*
X39115Y54609D02*
X39623D01*
X38444Y55280D02*
X39115Y54609D01*
X38444Y55280D02*
Y56405D01*
X38607Y63372D02*
X38944Y63709D01*
Y65005*
Y55923D02*
X39369Y55498D01*
X41017*
X36944Y54748D02*
Y56405D01*
Y54748D02*
X38607Y53085D01*
X45273*
X37444Y55137D02*
Y56405D01*
X38861Y53720D02*
X43814D01*
X37944Y65005D02*
Y67724D01*
X37972Y67752*
X121404Y66039D02*
X121470Y65973D01*
X121404Y71119D02*
X121470Y71053D01*
X121404Y76199D02*
X121470Y76133D01*
X121404Y81279D02*
X121470Y81213D01*
X50962Y72897D02*
X51688Y73623D01*
X34289Y45592D02*
X35559Y44322D01*
X36194*
X36829Y43687*
X39242Y51945D02*
X40639D01*
X39242Y47751D02*
Y50545D01*
Y47751D02*
X40639Y46354D01*
X42036Y49021D02*
Y50545D01*
X40639D02*
X42036D01*
Y51945D02*
X43433D01*
Y46608D02*
Y50545D01*
Y46608D02*
X44449Y45592D01*
X129666Y50607D02*
X129920D01*
X89534Y62421D02*
X89599Y62356D01*
X94676*
Y60627D02*
Y62356D01*
X75945Y43371D02*
X76040D01*
Y60514D02*
X81590D01*
X70040Y57014D02*
Y64064D01*
X69040Y50893D02*
X70597Y52450D01*
X71754*
X76040Y48964D02*
Y52450D01*
X71754D02*
X76040D01*
X71754D02*
Y56133D01*
X70040Y57014D02*
X70873D01*
X76040Y60546D02*
Y64064D01*
X84454Y50660D02*
Y51191D01*
X83631Y52014D02*
X84454Y51191D01*
X63452Y51514D02*
X66490D01*
X62284Y52014D02*
X66490D01*
X58927Y56895D02*
X61808Y54014D01*
X66490*
X58927Y59181D02*
X63094Y55014D01*
X66490*
X57157Y55084D02*
X58727Y53514D01*
X57157Y55084D02*
X58579D01*
X37210Y59054D02*
X37809Y58455D01*
X40494*
X67690Y45592D02*
X68040Y45942D01*
X68540Y44283D02*
Y48964D01*
X34444Y56405D02*
Y57812D01*
X35051Y58419D02*
X35813D01*
X62864Y56387D02*
X63737Y55514D01*
X33944Y63731D02*
X34811Y62864D01*
X40494Y63455D02*
X41865D01*
X43052Y64642*
X70540Y48964D02*
Y50616D01*
X71104Y51180*
X74548D02*
X75540Y50188D01*
X81590Y61014D02*
X83438D01*
Y58419D02*
Y61014D01*
X104520Y69722D02*
X110362D01*
X84795Y54014D02*
X85089Y53720D01*
X81590Y54014D02*
X84795D01*
X87105Y55514D02*
X87375Y55244D01*
X81590Y55514D02*
X87105D01*
X86081Y55014D02*
X87673Y53422D01*
X92131*
X92447Y56014D02*
X93431Y55030D01*
X81590Y54514D02*
X85692D01*
X87375Y52831*
X90677D02*
X91312Y52196D01*
X94360Y56514D02*
X96031Y54843D01*
X34924Y66420D02*
X35444Y65900D01*
X35940Y67817D02*
X36944Y66813D01*
X73540Y78044D02*
X73548D01*
X73540Y64064D02*
Y78044D01*
X33527Y72556D02*
X40044D01*
X37337Y62483D02*
X37365Y62455D01*
X48390Y60455D02*
X48767Y60832D01*
X44449Y60455D02*
Y65531D01*
X41655Y66609D02*
X43371D01*
X40494Y60455D02*
X44449D01*
X43371Y66609D02*
X44449Y65531D01*
X74294Y59435D02*
X74802Y58927D01*
X74294Y61086D02*
X75040Y61832D01*
X40494Y60955D02*
X43048D01*
X74532Y62086D02*
Y63055D01*
X73532Y61086D02*
X74532Y62086D01*
X73532Y60324D02*
Y61086D01*
X45592Y57719D02*
X46862D01*
X60259Y48132D02*
Y49529D01*
X58927Y65785D02*
Y67117D01*
Y63372D02*
Y65785D01*
Y63372D02*
X60451Y61848D01*
X62737Y64134D02*
X63434D01*
X57149Y74929D02*
X63245D01*
X52196Y48132D02*
X60259D01*
X52069Y48005D02*
X52196Y48132D01*
X27939Y57149D02*
Y57784D01*
X38734Y61455D02*
X40494D01*
X33444Y63201D02*
Y65005D01*
X35190Y60312D02*
Y61455D01*
X37944Y56405D02*
Y57558D01*
X33444Y65005D02*
Y68369D01*
X34227Y69152*
X37972*
X42875Y57734D02*
X44307D01*
X44322Y57719*
X37972Y69152D02*
X41640D01*
X68261Y52514D02*
X68706Y52069D01*
X82168Y47370D02*
X84454D01*
X85724Y46100*
X83946Y48767D02*
X86994Y45719D01*
X79540Y46823D02*
Y48964D01*
Y46823D02*
X81914Y44449D01*
X79040Y46561D02*
Y48964D01*
X75540Y61062D02*
Y64064D01*
X76834Y61721D02*
X77040Y61927D01*
Y64064*
X44245Y59008D02*
D01*
X74040Y64064D02*
Y78358D01*
X73040Y64064D02*
Y77834D01*
X44245Y59008D02*
X44322Y58955D01*
X122808Y57911D02*
X123697D01*
X114680Y42671D02*
X116204D01*
X71627Y43498D02*
Y44703D01*
X60324Y40575D02*
X61784Y42036D01*
X68325D02*
X70040Y43751D01*
X68071Y42544D02*
X69540Y44013D01*
Y48964*
X85851Y59181D02*
Y61467D01*
Y59181D02*
X88010Y57022D01*
X94570D02*
X102234Y49358D01*
Y47357D02*
Y49358D01*
X83526Y62014D02*
X84835Y60705D01*
X87756Y58546D02*
X88645Y57657D01*
X94868D02*
X103504Y49021D01*
X34543Y52704D02*
X34944Y53105D01*
Y56405*
X38099Y43052D02*
Y48894D01*
X61975Y61086D02*
X62403Y61514D01*
X66490*
X63753Y70611D02*
Y72008D01*
X61213Y63499D02*
Y72008D01*
X66451Y61975D02*
X66490Y62014D01*
X58927Y68517D02*
X59878D01*
X63880Y60324D02*
X64070Y60514D01*
X62483Y70611D02*
X63880Y69214D01*
X60959Y47116D02*
X61659Y47816D01*
Y48132*
X54736Y49402D02*
X56895D01*
X58165Y50672D02*
X60832D01*
X61659Y49845*
Y49529D02*
Y49845D01*
X64730Y51014D02*
X66490D01*
X36829Y45592D02*
Y48894D01*
X33539Y58534D02*
X33556Y58551D01*
X68001Y64072D02*
X68040Y64064D01*
X112648Y64642D02*
X114034Y66028D01*
X78540Y48964D02*
Y52251D01*
X99821Y57022D02*
Y60832D01*
X104393Y78231D02*
X105917Y79755D01*
X112521D02*
X114034Y81268D01*
Y81279*
X98551Y57022D02*
Y60578D01*
X101980Y64007*
X66490Y56014D02*
X70476D01*
X45592Y59119D02*
Y59955D01*
X57320Y59899D02*
Y60578D01*
Y59899D02*
X62705Y54514D01*
X66490*
X57320Y60578D02*
Y69131D01*
X58673Y70484*
Y72008*
X35944Y54224D02*
Y56405D01*
X38944Y55923D02*
Y56405D01*
X44084Y59119D02*
X44322D01*
X37444Y55137D02*
X38861Y53720D01*
X43814D02*
X44576Y54482D01*
X45273*
X29336Y60516D02*
X29397Y60455D01*
X31894*
X126804Y81213D02*
Y81347D01*
X36829Y42544D02*
Y43687D01*
Y42544D02*
X37464Y41909D01*
X44576*
X45719Y43052*
X40639D02*
Y46354D01*
X41974Y48959D02*
X42036Y49021D01*
X94676Y60627D02*
X94681Y60622D01*
X76052Y55129D02*
X78485D01*
X76040Y55117D02*
X76052Y55129D01*
X76040Y52450D02*
Y55117D01*
X69040Y48964D02*
Y50893D01*
X70873Y57014D02*
X71754Y56133D01*
X66490Y58014D02*
X70016D01*
X66490Y57014D02*
X70040D01*
X74167Y43371D02*
X75945D01*
X76040Y60546D02*
X81590Y60514D01*
Y52014D02*
X83631D01*
X62991Y51053D02*
X63452Y51514D01*
X58927Y59181D02*
Y60324D01*
X58727Y53514D02*
X66490D01*
X38353Y59455D02*
X40494D01*
X37210Y59054D02*
Y59689D01*
X68040Y45942D02*
Y48964D01*
X34444Y57812D02*
X35051Y58419D01*
X35813D02*
X36444Y57788D01*
Y56405D02*
Y57788D01*
X42417Y55498D02*
X43433D01*
X63737Y55514D02*
X66490D01*
X62864Y56387D02*
Y57276D01*
X63102Y57514*
X34811Y62864D02*
X35813D01*
X33944Y63731D02*
Y65005D01*
X43052Y64642D02*
Y64769D01*
X71104Y51180D02*
X74548D01*
X75540Y48964D02*
Y50188D01*
X83438Y58419D02*
X84327D01*
X104139Y70103D02*
X104520Y69722D01*
X110362D02*
X111886Y71246D01*
Y71754*
X95503Y58419D02*
X96081Y58997D01*
Y60622*
X92131Y59238D02*
Y60622D01*
X91452Y58559D02*
X92131Y59238D01*
X90410Y58559D02*
X91452D01*
X81590Y55014D02*
X86081D01*
X81590Y56014D02*
X92447D01*
X93431Y53422D02*
Y55030D01*
X87375Y52831D02*
X90677D01*
X91312Y52196D02*
X94467D01*
X94731Y52460*
Y53422*
X81590Y56514D02*
X94360D01*
X96031Y53422D02*
Y54843D01*
X34289Y66420D02*
X34924D01*
X35444Y65005D02*
Y65900D01*
X35178Y67055D02*
X35944Y66289D01*
Y65005D02*
Y66289D01*
X72540Y64064D02*
Y77699D01*
X34289Y67817D02*
X35940D01*
X36944Y65005D02*
Y66813D01*
X37365Y62455D02*
X40494D01*
X44449Y60455D02*
X48390D01*
X74294Y59435D02*
Y61086D01*
X75040Y61832D02*
Y64064D01*
X43048Y60955D02*
X43306Y61213D01*
X48894Y71497D02*
Y71500D01*
X53720D02*
X57149Y74929D01*
X62229Y64642D02*
Y65974D01*
X60451Y59435D02*
X60513D01*
X62229Y64642D02*
X62737Y64134D01*
X63245Y74929D02*
X63753Y75437D01*
Y76834*
X97789Y62864D02*
Y63626D01*
X97281Y62356D02*
X97789Y62864D01*
X96076Y62356D02*
X97281D01*
X27939Y57784D02*
X29271Y59116D01*
X29336*
X38734Y60705D02*
Y61455D01*
X35190D02*
X38734D01*
X33444Y63201D02*
X35190Y61455D01*
Y60312D02*
X37944Y57558D01*
X41640Y68024D02*
X41655Y68009D01*
X41640Y68024D02*
Y69152D01*
X45044Y72556*
X46673Y53085D02*
Y54482D01*
X66490Y52514D02*
X68261D01*
X85724Y43179D02*
Y46100D01*
Y43179D02*
X86994Y41909D01*
X69214Y53014D02*
Y53053D01*
X82168Y48767D02*
X83946D01*
X86994Y44449D02*
Y45719D01*
X79040Y46561D02*
X80644Y44957D01*
Y43179D02*
Y44957D01*
Y43179D02*
X81914Y41909D01*
X75183Y60705D02*
X75540Y61062D01*
X61659Y49529D02*
X63245D01*
X64388Y50672*
X64730Y51014*
X64388Y49275D02*
X65627Y50514D01*
X66490*
X78040Y48964D02*
Y52894D01*
X79374Y54228*
G54D29*
X126871Y64006D02*
X129539Y66674D01*
X126871Y69086D02*
X129539Y71754D01*
X126871Y74166D02*
X129539Y76834D01*
X126871Y79246D02*
X129539Y81914D01*
X126804Y64073D02*
X126871Y64006D01*
X126804Y69153D02*
X126871Y69086D01*
X126804Y74233D02*
X126871Y74166D01*
X126804Y79313D02*
X126871Y79246D01*
X121470Y64073D02*
X122994D01*
X124457Y62610*
X128015*
X129539Y64134*
X121470Y69153D02*
X122994D01*
X124203Y67944*
X128269*
X129539Y69214*
X121470Y74233D02*
X122994D01*
X124203Y73024*
X128269*
X129539Y74294*
X121470Y79313D02*
X122994D01*
X124203Y78104*
X128269*
X129539Y79374*
G54D30*
X118998Y49275D02*
X120949D01*
X121284*
X75945Y41971D02*
X79374D01*
X121219Y46670D02*
X129158D01*
X127061Y51815D02*
Y53339D01*
X130555Y48070D02*
Y49285D01*
X126699D02*
X130555D01*
Y48070D02*
X130565Y49285D01*
X131063Y49783D02*
Y50607D01*
X129123Y48035D02*
X129158Y48070D01*
X113040Y67436D02*
X122427D01*
X123189Y66674*
X123443Y71627D02*
X125983D01*
X126557Y71053D02*
X126804D01*
X113294Y77850D02*
X122173D01*
X123189Y76834*
X111643Y81279D02*
X113294Y82930D01*
X125221*
X52196Y28193D02*
X64642D01*
X71627Y35178D02*
Y42098D01*
X128461Y50597D02*
Y53339D01*
X126699Y50535D02*
X129594D01*
X129666Y50607*
X112775Y48450D02*
X116141D01*
X116647Y46862D02*
Y47943D01*
X100964Y42557D02*
Y43941D01*
X101534Y44511*
X105409*
X98359Y39877D02*
Y42492D01*
X98424Y42557*
X99694Y39942D02*
X99759Y39877D01*
X99694Y39942D02*
Y42557D01*
X92582Y45911D02*
Y47432D01*
X94539*
X94614Y40447D02*
X95184Y39877D01*
X94614Y40447D02*
Y42557D01*
X97154Y40447D02*
Y42557D01*
X56260Y56006D02*
X56522Y55744D01*
X100180Y38480D02*
X101472D01*
X102234Y39242D02*
Y42557D01*
X96771Y35051D02*
X102615D01*
X103504Y35940D02*
Y42557D01*
X95314Y44511D02*
X95884Y43941D01*
X45719Y68071D02*
X47116D01*
X48894Y69849*
Y71497*
X92582Y48832D02*
Y50291D01*
X97789Y63626D02*
X98932D01*
X92369D02*
X97789D01*
X90931Y65064D02*
X92369Y63626D01*
X131063Y52007D02*
Y55371D01*
X130565Y49285D02*
X131063Y49783D01*
X126699Y48035D02*
X129123D01*
X115834Y66039D02*
X121404D01*
X111643D02*
X113040Y67436D01*
X123189Y66674D02*
X126103D01*
X126804Y65973*
X115961Y71119D02*
X121404D01*
X125983Y71627D02*
X126557Y71053D01*
X115834Y76199D02*
X121404D01*
X111643D02*
X113294Y77850D01*
X123189Y76834D02*
X126103D01*
X126804Y76133*
X115834Y81279D02*
X121404D01*
X125221Y82930D02*
X126804Y81347D01*
X48894Y72897D02*
X50962D01*
X50418Y29971D02*
X52196Y28193D01*
X64642D02*
X71627Y35178D01*
X116141Y48450D02*
X116647Y47943D01*
X118047Y46862D02*
Y48324D01*
X118998Y49275*
X94539Y47432D02*
X94614Y47357D01*
X96584Y39877D02*
X97154Y40447D01*
X56260Y56006D02*
Y64551D01*
X51688Y69123D02*
X56260Y64551D01*
X98146Y36446D02*
X100180Y38480D01*
X101472D02*
X102234Y39242D01*
X95376Y36446D02*
X96771Y35051D01*
X102615D02*
X103504Y35940D01*
X92582Y44511D02*
X95314D01*
X95884Y42557D02*
Y43941D01*
X45719Y63753D02*
Y68071D01*
X98932Y63626D02*
X100329Y65023D01*
X109103Y71119D02*
X111262Y73278D01*
X121792*
X123443Y71627*
G54D31*
X52831Y30225D02*
X53212D01*
X52069Y48005D02*
Y48513D01*
X29336Y36575D02*
Y53593D01*
X50545Y50037D02*
X52069Y48513D01*
Y30987D02*
Y48005D01*
Y30987D02*
X52831Y30225D01*
X50418Y50164D02*
X50545Y50037D01*
X29336Y36575D02*
X33273Y32638D01*
X124654Y70103D02*
X125602D01*
X124654Y75183D02*
X125602D01*
X124654Y80263D02*
X125602D01*
G54D32*
X113347Y57911D02*
X122808D01*
X116204Y42671D02*
X119506D01*
X120939Y44104*
G54D33*
X119320Y61907D02*
X120522Y60705D01*
X119320Y65023D02*
X124654D01*
X119320Y80263D02*
X124654D01*
X119320Y61907D02*
Y65023D01*
Y70103D02*
X124654D01*
X119320Y75183D02*
X124654D01*
G54D34*
X77850Y29971D02*
Y38480D01*
X79374Y40004*
Y41909*
Y41971*
G54D35*
X109790Y59054D03*
G54D36*
X120966Y46608D03*
G54D37*
X112775Y49021D03*
G54D38*
X116521Y50545D03*
G54D39*
X127698Y43878D03*
G54D40*
X126809Y40449D03*
G54D41*
X115886Y49592D03*
G54D42*
X28320Y63372D03*
X30479D03*
X31749Y78358D03*
X53466Y47116D03*
X54736Y49402D03*
X51307Y61340D03*
X50545Y60832D03*
X51307Y65150D03*
X50545Y64515D03*
X74802Y58927D03*
X73532Y60324D03*
X43306Y61213D03*
X48767Y60832D03*
X43052Y64769D03*
X32892Y79120D03*
X33781Y74040D03*
X32892Y69214D03*
X29463Y67944D03*
X30098Y68833D03*
X34289Y66420D03*
X35178Y67055D03*
X34289Y67817D03*
X99821Y57022D03*
X98551D03*
X101980Y66293D03*
X103123D03*
Y78231D03*
X104393D03*
X84454Y50660D03*
X79374Y53085D03*
Y54228D03*
X53085Y60578D03*
X42875Y57734D03*
X38607Y63372D03*
X43433Y55498D03*
X39623Y54609D03*
X35051Y58419D03*
X82168Y47370D03*
Y48767D03*
X75183Y60705D03*
X76834Y61721D03*
X68706Y52069D03*
X69214Y53053D03*
X84835Y60705D03*
X87756Y59308D03*
X68540Y44283D03*
X67690Y45592D03*
X35813Y62864D03*
X37210Y59689D03*
X38353Y59455D03*
X85089Y53720D03*
X95503Y58419D03*
X90296Y58546D03*
X87375Y55244D03*
X33556Y58551D03*
X34543Y52704D03*
X62284Y52014D03*
X62991Y51053D03*
X58927Y56895D03*
Y60324D03*
X57320Y60578D03*
X61975Y61086D03*
X68198Y69976D03*
X63880Y60324D03*
X69087Y69214D03*
X62229Y64642D03*
X57149Y74929D03*
X64388Y49275D03*
Y50672D03*
X33527Y72556D03*
X37337Y62483D03*
X36194Y53974D03*
X107568Y63880D03*
G54D43*
X104139Y53466D03*
X120522Y60705D03*
X62864Y38543D03*
X60324D03*
Y40575D03*
X33273Y32638D03*
X35813D03*
X46735D03*
X44195D03*
X127126Y57911D03*
X124332D03*
X111886Y42671D03*
X114680D03*
X50545Y50037D03*
X29336Y53593D03*
G54D44*
X125602Y80263D03*
Y75183D03*
X78485Y55129D03*
X125602Y70103D03*
X104139D03*
X38734Y60705D03*
X27939Y57149D03*
X35190Y61455D03*
X84327Y58419D03*
X74548Y51180D03*
X82549Y64388D03*
X91947Y70103D03*
X45719Y69595D03*
X62864Y57276D03*
X42423Y72299D03*
X65918D03*
X89413D03*
X111886Y71754D03*
X131063Y55371D03*
X92582Y50291D03*
X45719Y63753D03*
Y68071D03*
X46862Y57719D03*
X58927Y65785D03*
X56895Y77215D03*
X100329Y65023D03*
X97789Y63626D03*
X90931Y65064D03*
X66928Y65645D03*
X70476Y56014D03*
G54D45*
X62864Y40575D03*
G54D46*
X67944Y35876D03*
X55244D03*
G54D47*
X86994Y44449D03*
X84454D03*
X81914D03*
X79374D03*
X86994Y41909D03*
X84454D03*
X81914D03*
X130174Y43179D03*
X52831Y87629D03*
Y85089D03*
X50291Y87629D03*
Y85089D03*
X47751Y87629D03*
Y85089D03*
X45211Y87629D03*
Y85089D03*
X42671Y87629D03*
Y85089D03*
X40131Y87629D03*
Y85089D03*
X37591Y87629D03*
Y85089D03*
X35051Y87629D03*
X76326D03*
Y85089D03*
X73786Y87629D03*
Y85089D03*
X71246Y87629D03*
Y85089D03*
X68706Y87629D03*
Y85089D03*
X66166Y87629D03*
Y85089D03*
X63626Y87629D03*
Y85089D03*
X61086Y87629D03*
Y85089D03*
X58546Y87629D03*
X99821D03*
Y85089D03*
X97281Y87629D03*
Y85089D03*
X94741Y87629D03*
Y85089D03*
X92201Y87629D03*
Y85089D03*
X89661Y87629D03*
Y85089D03*
X87121Y87629D03*
Y85089D03*
X84581Y87629D03*
Y85089D03*
X82041Y87629D03*
X123316D03*
Y85089D03*
X120776Y87629D03*
Y85089D03*
X118236Y87629D03*
Y85089D03*
X115696Y87629D03*
Y85089D03*
X113156Y87629D03*
Y85089D03*
X110616Y87629D03*
Y85089D03*
X108076Y87629D03*
Y85089D03*
X105536Y87629D03*
X129539Y64134D03*
Y66674D03*
Y69214D03*
Y71754D03*
Y74294D03*
Y76834D03*
Y79374D03*
X103377Y60197D03*
G54D48*
X79374Y41909D03*
X35051Y85089D03*
X58546D03*
X82041D03*
X105536D03*
X105917Y60197D03*
G54D49*
X28574Y28574D03*
Y87756D03*
X129920D03*
Y28574D03*
G54D50*
X122237Y39941D03*
X126682Y36765D03*
X122237Y33717D03*
G54D51*
X130174Y40639D03*
X129539Y81914D03*
G54D52*
X113029Y29971D03*
X115569D03*
X75310D03*
X77850D03*
X70103D03*
X72643D03*
X50418D03*
X52958D03*
G54D53*
X89836Y36446D03*
X91221Y33606D03*
X92606Y36446D03*
X93991Y33606D03*
X95376Y36446D03*
X96761Y33606D03*
X98146Y36446D03*
X99531Y33606D03*
G54D54*
X100916Y36446D03*
G54D55*
X107871Y35026D03*
X82881D03*
G54D56*
X31749Y39750D03*
X48259D03*
G54D57*
X45719Y43052D03*
X43179D03*
X40639D03*
X44449Y45592D03*
X41909D03*
X39369D03*
X38099Y43052D03*
X36829Y45592D03*
X35559Y43052D03*
X34289Y45592D03*
G54D58*
X57157Y55084D03*
X52157D03*
G54D59*
X123824Y49910D03*
M02*