%FSLAX43Y43*%
%MOMM*%
%SFA1B1*%

%IPPOS*%
%ADD13R,0.899998X0.799998*%
%ADD15R,0.799998X0.899998*%
%ADD28C,0.253999*%
%ADD30C,0.380999*%
%ADD31C,0.507999*%
%ADD34C,0.761998*%
%ADD40R,8.508983X2.158996*%
%ADD42C,0.507999*%
%ADD43C,1.523997*%
%ADD44C,0.761998*%
%ADD45R,1.523997X1.523997*%
%ADD46C,3.555993*%
%ADD47C,1.499997*%
%ADD48R,1.499997X1.499997*%
%ADD49C,3.999992*%
%ADD50C,3.809992*%
%ADD51R,1.499997X1.499997*%
%ADD52C,1.599997*%
%ADD53C,1.689997*%
%ADD54R,1.689997X1.689997*%
%ADD55C,4.759990*%
%ADD56C,2.031996*%
%ADD57C,1.269997*%
%ADD58C,2.999994*%
%ADD59C,1.777996*%
%ADD60R,1.299997X0.999998*%
%ADD61O,2.099996X0.449999*%
%ADD62R,2.539995X2.793994*%
%ADD63R,1.799996X0.999998*%
%ADD64R,2.285995X2.285995*%
%LNlp_led_cube_8x8x8-1*%
%LPD*%
G36*
X133095Y25399D02*
X25399D01*
Y90931*
X133095*
Y25399*
G37*
%LNlp_led_cube_8x8x8-2*%
%LPC*%
G36*
X80370Y44322D02*
X79501D01*
Y43453*
X79636Y43471*
X79880Y43572*
X80090Y43733*
X80251Y43943*
X80352Y44187*
X80370Y44322*
G37*
G36*
X32003Y44130D02*
X31426D01*
Y43603*
X32003*
Y44130*
G37*
G36*
X32834D02*
X32257D01*
Y43603*
X32834*
Y44130*
G37*
G36*
X112013Y43679D02*
Y42798D01*
X112894*
X112876Y42936*
X112773Y43183*
X112611Y43396*
X112398Y43558*
X112151Y43661*
X112013Y43679*
G37*
G36*
X86994Y45462D02*
X86732Y45427D01*
X86488Y45326*
X86278Y45165*
X86117Y44955*
X86016Y44711*
X85981Y44449*
X86016Y44187*
X86117Y43943*
X86278Y43733*
X86488Y43572*
X86732Y43471*
X86994Y43436*
X87256Y43471*
X87500Y43572*
X87710Y43733*
X87871Y43943*
X87972Y44187*
X88007Y44449*
X87972Y44711*
X87871Y44955*
X87710Y45165*
X87500Y45326*
X87256Y45427*
X86994Y45462*
G37*
G36*
X79247Y44322D02*
X78378D01*
X78396Y44187*
X78497Y43943*
X78658Y43733*
X78868Y43572*
X79112Y43471*
X79247Y43453*
Y44322*
G37*
G36*
X115488Y45407D02*
X115417D01*
X115396*
X114088*
Y43999*
X114227*
Y43583*
X114168Y43558*
X113955Y43396*
X113793Y43183*
X113690Y42936*
X113655Y42671*
X113690Y42406*
X113793Y42159*
X113955Y41946*
X114168Y41784*
X114415Y41681*
X114680Y41646*
X114945Y41681*
X115192Y41784*
X115405Y41946*
X115567Y42159*
X115670Y42406*
X115705Y42671*
X115670Y42936*
X115567Y43183*
X115405Y43396*
X115192Y43558*
X115133Y43583*
Y43999*
X115396*
X115488*
X116015*
Y44703*
Y45407*
X115488*
G37*
G36*
X44449Y46489D02*
X44217Y46458D01*
X44001Y46369*
X43815Y46226*
X43672Y46040*
X43583Y45824*
X43552Y45592*
X43583Y45360*
X43672Y45144*
X43815Y44958*
X44001Y44815*
X44217Y44726*
X44449Y44695*
X44681Y44726*
X44897Y44815*
X45083Y44958*
X45226Y45144*
X45315Y45360*
X45346Y45592*
X45315Y45824*
X45226Y46040*
X45083Y46226*
X44897Y46369*
X44681Y46458*
X44449Y46489*
G37*
G36*
X116796Y45407D02*
X116269D01*
Y44830*
X116796*
Y45407*
G37*
G36*
X57530Y46035D02*
X56953D01*
Y45508*
X57530*
Y46035*
G37*
G36*
X116796Y44576D02*
X116269D01*
Y43999*
X116796*
Y44576*
G37*
G36*
X79247Y45445D02*
X79112Y45427D01*
X78868Y45326*
X78658Y45165*
X78497Y44955*
X78396Y44711*
X78378Y44576*
X79247*
Y45445*
G37*
G36*
X79501D02*
Y44576D01*
X80370*
X80352Y44711*
X80251Y44955*
X80090Y45165*
X79880Y45326*
X79636Y45427*
X79501Y45445*
G37*
G36*
X111759Y43679D02*
X111621Y43661D01*
X111374Y43558*
X111161Y43396*
X110999Y43183*
X110896Y42936*
X110878Y42798*
X111759*
Y43679*
G37*
G36*
X63880Y41591D02*
X61848D01*
Y39560*
X62336*
X62361Y39435*
X62352Y39431*
X62139Y39268*
X61977Y39056*
X61874Y38809*
X61856Y38671*
X63872*
X63854Y38809*
X63751Y39056*
X63589Y39268*
X63376Y39431*
X63129Y39533*
X63131Y39560*
X63880*
Y41591*
G37*
G36*
X81914Y42922D02*
X81652Y42887D01*
X81408Y42786*
X81198Y42625*
X81037Y42415*
X80936Y42171*
X80901Y41909*
X80936Y41647*
X81037Y41403*
X81198Y41193*
X81408Y41032*
X81652Y40931*
X81914Y40896*
X82176Y40931*
X82420Y41032*
X82630Y41193*
X82791Y41403*
X82892Y41647*
X82927Y41909*
X82892Y42171*
X82791Y42415*
X82630Y42625*
X82420Y42786*
X82176Y42887*
X81914Y42922*
G37*
G36*
X86994D02*
X86732Y42887D01*
X86488Y42786*
X86278Y42625*
X86117Y42415*
X86016Y42171*
X85981Y41909*
X86016Y41647*
X86117Y41403*
X86278Y41193*
X86488Y41032*
X86732Y40931*
X86994Y40896*
X87256Y40931*
X87500Y41032*
X87710Y41193*
X87871Y41403*
X87972Y41647*
X88007Y41909*
X87972Y42171*
X87871Y42415*
X87710Y42625*
X87500Y42786*
X87256Y42887*
X86994Y42922*
G37*
G36*
X122237Y42110D02*
X121813Y42068D01*
X121406Y41945*
X121031Y41744*
X120702Y41475*
X120433Y41146*
X120232Y40771*
X120109Y40364*
X120067Y39941*
X120109Y39517*
X120232Y39110*
X120433Y38735*
X120702Y38406*
X121031Y38137*
X121406Y37936*
X121813Y37813*
X122237Y37771*
X122660Y37813*
X123067Y37936*
X123442Y38137*
X123771Y38406*
X124040Y38735*
X124241Y39110*
X131063*
X131162Y39130*
X131246Y39186*
X131302Y39270*
X131322Y39369*
Y41528*
X131302Y41627*
X131246Y41711*
X131162Y41767*
X131063Y41787*
X123362*
X123067Y41945*
X122660Y42068*
X122237Y42110*
G37*
G36*
X31749Y41031D02*
X31417Y40987D01*
X31109Y40859*
X30843Y40656*
X30640Y40390*
X30512Y40082*
X30468Y39750*
X30512Y39418*
X30640Y39110*
X30843Y38844*
X31109Y38641*
X31417Y38513*
X31749Y38469*
X32081Y38513*
X32389Y38641*
X32655Y38844*
X32858Y39110*
X32986Y39418*
X33030Y39750*
X32986Y40082*
X32858Y40390*
X32655Y40656*
X32389Y40859*
X32081Y40987*
X31749Y41031*
G37*
G36*
X48259D02*
X47927Y40987D01*
X47619Y40859*
X47353Y40656*
X47150Y40390*
X47022Y40082*
X46978Y39750*
X47022Y39418*
X47150Y39110*
X47353Y38844*
X47619Y38641*
X47927Y38513*
X48259Y38469*
X48591Y38513*
X48899Y38641*
X49165Y38844*
X49368Y39110*
X49496Y39418*
X49540Y39750*
X49496Y40082*
X49368Y40390*
X49165Y40656*
X48899Y40859*
X48591Y40987*
X48259Y41031*
G37*
G36*
X80378Y42913D02*
X78370D01*
Y40905*
X80378*
Y42913*
G37*
G36*
X45719Y43949D02*
X45487Y43918D01*
X45271Y43829*
X45085Y43686*
X44942Y43500*
X44853Y43284*
X44822Y43052*
X44853Y42820*
X44942Y42604*
X45085Y42418*
X45271Y42275*
X45487Y42186*
X45719Y42155*
X45951Y42186*
X46167Y42275*
X46353Y42418*
X46496Y42604*
X46585Y42820*
X46616Y43052*
X46585Y43284*
X46496Y43500*
X46353Y43686*
X46167Y43829*
X45951Y43918*
X45719Y43949*
G37*
G36*
X130174Y44192D02*
X129912Y44157D01*
X129668Y44056*
X129458Y43895*
X129297Y43685*
X129196Y43441*
X129161Y43179*
X129196Y42917*
X129297Y42673*
X129458Y42463*
X129668Y42302*
X129912Y42201*
X130174Y42166*
X130436Y42201*
X130680Y42302*
X130890Y42463*
X131051Y42673*
X131152Y42917*
X131187Y43179*
X131152Y43441*
X131051Y43685*
X130890Y43895*
X130680Y44056*
X130436Y44157*
X130174Y44192*
G37*
G36*
X67690Y46110D02*
X67492Y46071D01*
X67324Y45958*
X67211Y45790*
X67172Y45592*
X67211Y45394*
X67324Y45226*
X67492Y45113*
X67690Y45074*
X67888Y45113*
X68023Y45204*
X71212*
X73144Y43272*
Y42501*
X72523*
Y43052*
X72499Y43176*
X72494Y43201*
X72410Y43327*
X71179Y44558*
X71053Y44642*
X70904Y44671*
X68873*
X68738Y44762*
X68540Y44801*
X68342Y44762*
X68174Y44649*
X68061Y44481*
X68022Y44283*
X68061Y44085*
X68174Y43917*
X68342Y43804*
X68540Y43765*
X68738Y43804*
X68873Y43895*
X70743*
X71747Y42891*
Y42501*
X71431*
Y41193*
Y41101*
Y39793*
X71682*
Y32191*
X70456Y30965*
X70378Y30998*
X70103Y31034*
X69828Y30998*
X69571Y30892*
X69351Y30723*
X69182Y30503*
X69076Y30246*
X69040Y29971*
X69076Y29696*
X69182Y29439*
X69351Y29219*
X69571Y29050*
X69828Y28944*
X70103Y28908*
X70378Y28944*
X70635Y29050*
X70855Y29219*
X71024Y29439*
X71130Y29696*
X71166Y29971*
X71130Y30246*
X71097Y30324*
X72455Y31683*
X72554Y31830*
X72588Y32003*
Y39793*
X73079*
Y31749*
X73113Y31576*
X73212Y31429*
X74316Y30324*
X74283Y30246*
X74247Y29971*
X74283Y29696*
X74389Y29439*
X74558Y29219*
X74778Y29050*
X75035Y28944*
X75310Y28908*
X75585Y28944*
X75842Y29050*
X76062Y29219*
X76231Y29439*
X76337Y29696*
X76373Y29971*
X76337Y30246*
X76231Y30503*
X76062Y30723*
X75842Y30892*
X75585Y30998*
X75310Y31034*
X75035Y30998*
X74957Y30965*
X73985Y31937*
Y39793*
X74236*
Y41101*
Y41193*
Y42501*
X73920*
Y43433*
X73891Y43582*
X73807Y43708*
X71648Y45867*
X71522Y45951*
X71373Y45980*
X68023*
X67888Y46071*
X67690Y46110*
G37*
G36*
X111759Y42544D02*
X110878D01*
X110896Y42406*
X110999Y42159*
X111161Y41946*
X111374Y41784*
X111621Y41681*
X111759Y41663*
Y42544*
G37*
G36*
X112894D02*
X112013D01*
Y41663*
X112151Y41681*
X112398Y41784*
X112611Y41946*
X112773Y42159*
X112876Y42406*
X112894Y42544*
G37*
G36*
X38099Y43949D02*
X37867Y43918D01*
X37651Y43829*
X37465Y43686*
X37322Y43500*
X37233Y43284*
X37202Y43052*
X37233Y42820*
X37322Y42604*
X37465Y42418*
X37651Y42275*
X37867Y42186*
X38099Y42155*
X38331Y42186*
X38547Y42275*
X38733Y42418*
X38876Y42604*
X38965Y42820*
X38996Y43052*
X38965Y43284*
X38876Y43500*
X38733Y43686*
X38547Y43829*
X38331Y43918*
X38099Y43949*
G37*
G36*
X104012Y54474D02*
X103874Y54456D01*
X103627Y54353*
X103414Y54191*
X103252Y53978*
X103149Y53731*
X103131Y53593*
X104012*
Y54474*
G37*
G36*
X104266D02*
Y53593D01*
X105147*
X105129Y53731*
X105026Y53978*
X104864Y54191*
X104651Y54353*
X104404Y54456*
X104266Y54474*
G37*
G36*
X43306Y55371D02*
X42940D01*
X42954Y55300*
X43067Y55132*
X43235Y55019*
X43306Y55005*
Y55371*
G37*
G36*
X105147Y53339D02*
X104266D01*
Y52458*
X104404Y52476*
X104651Y52579*
X104864Y52741*
X105026Y52954*
X105129Y53201*
X105147Y53339*
G37*
G36*
X57157Y56846D02*
X56813Y56813D01*
X56483Y56712*
X56178Y56549*
X55911Y56330*
X55692Y56063*
X55529Y55758*
X55428Y55428*
X55395Y55084*
X55428Y54740*
X55529Y54410*
X55692Y54105*
X55911Y53838*
X56178Y53619*
X56483Y53456*
X56813Y53355*
X57157Y53321*
X57501Y53355*
X57832Y53456*
X58136Y53619*
X58403Y53838*
X58622Y54105*
X58785Y54410*
X58886Y54740*
X58920Y55084*
X58886Y55428*
X58785Y55758*
X58622Y56063*
X58403Y56330*
X58136Y56549*
X57832Y56712*
X57501Y56813*
X57157Y56846*
G37*
G36*
X53907Y54957D02*
X52284D01*
Y53334*
X52501Y53355*
X52831Y53456*
X53136Y53619*
X53403Y53838*
X53622Y54105*
X53785Y54410*
X53886Y54740*
X53907Y54957*
G37*
G36*
X43926Y55371D02*
X43560D01*
Y55005*
X43631Y55019*
X43799Y55132*
X43912Y55300*
X43926Y55371*
G37*
G36*
X43306Y55991D02*
X43235Y55977D01*
X43067Y55864*
X42954Y55696*
X42940Y55625*
X43306*
Y55991*
G37*
G36*
X43560D02*
Y55625D01*
X43926*
X43912Y55696*
X43799Y55864*
X43631Y55977*
X43560Y55991*
G37*
G36*
X54020Y59758D02*
X53949D01*
X53928*
X53401*
Y59054*
Y58350*
X53928*
X54020*
X55328*
Y58666*
X55888*
Y58224*
X58196*
Y58590*
X58334*
X58539Y58385*
Y57228*
X58448Y57093*
X58409Y56895*
X58448Y56697*
X58561Y56529*
X58729Y56416*
X58927Y56377*
X59125Y56416*
X59293Y56529*
X59406Y56697*
X59445Y56895*
X59406Y57093*
X59315Y57228*
Y58546*
X59291Y58670*
X59286Y58695*
X59202Y58821*
X58770Y59253*
X58644Y59337*
X58495Y59366*
X58196*
Y59732*
X55888*
Y59442*
X55328*
Y59758*
X54020*
G37*
G36*
X52030Y56834D02*
X51813Y56813D01*
X51483Y56712*
X51178Y56549*
X50911Y56330*
X50692Y56063*
X50529Y55758*
X50428Y55428*
X50407Y55211*
X52030*
Y56834*
G37*
G36*
X52284D02*
Y55211D01*
X53907*
X53886Y55428*
X53785Y55758*
X53622Y56063*
X53403Y56330*
X53136Y56549*
X52831Y56712*
X52501Y56813*
X52284Y56834*
G37*
G36*
X71165Y57853D02*
X71094D01*
X71073*
X69765*
Y56445*
X69866*
X69925Y56333*
X69878Y56262*
X69829Y56014*
X69878Y55766*
X70018Y55556*
X70228Y55416*
X70476Y55367*
X70724Y55416*
X70934Y55556*
X71074Y55766*
X71123Y56014*
X71074Y56262*
X71019Y56344*
X71073Y56445*
X71165*
X72473*
Y57853*
X71165*
G37*
G36*
X104012Y53339D02*
X103131D01*
X103149Y53201*
X103252Y52954*
X103414Y52741*
X103627Y52579*
X103874Y52476*
X104012Y52458*
Y53339*
G37*
G36*
X124960Y49783D02*
X123951D01*
Y48774*
X124122Y48796*
X124400Y48912*
X124639Y49095*
X124822Y49334*
X124938Y49612*
X124960Y49783*
G37*
G36*
X123697Y51046D02*
X123526Y51024D01*
X123248Y50908*
X123009Y50725*
X122826Y50486*
X122710Y50208*
X122688Y50037*
X123697*
Y51046*
G37*
G36*
X123951D02*
Y50037D01*
X124960*
X124938Y50208*
X124822Y50486*
X124639Y50725*
X124400Y50908*
X124122Y51024*
X123951Y51046*
G37*
G36*
X58361Y46035D02*
X57784D01*
Y45508*
X58361*
Y46035*
G37*
G36*
X62991Y51571D02*
X62793Y51532D01*
X62625Y51419*
X62512Y51251*
X62473Y51053*
X62512Y50855*
X62603Y50720*
Y48420*
X61965Y47783*
X61848Y47831*
Y48259*
X58800*
Y47950*
X58361*
Y48216*
X56953*
Y46908*
Y46816*
Y46289*
X58361*
Y46816*
Y46908*
Y47174*
X58800*
Y44957*
X61848*
Y46567*
X63266Y47984*
X63350Y48110*
X63379Y48259*
Y50720*
X63470Y50855*
X63509Y51053*
X63470Y51251*
X63357Y51419*
X63189Y51532*
X62991Y51571*
G37*
G36*
X123697Y49783D02*
X122688D01*
X122710Y49612*
X122826Y49334*
X123009Y49095*
X123248Y48912*
X123526Y48796*
X123697Y48774*
Y49783*
G37*
G36*
X74421Y51053D02*
X73926D01*
X73950Y50932*
X74090Y50722*
X74300Y50582*
X74421Y50558*
Y51053*
G37*
G36*
X62284Y52532D02*
X62086Y52493D01*
X61918Y52380*
X61805Y52212*
X61801Y52191*
X61426Y51815*
X58800*
Y49725*
X58361*
Y49991*
Y50083*
Y50610*
X56953*
Y50083*
Y49991*
Y48683*
X58361*
Y48949*
X58800*
Y48513*
X61848*
Y51139*
X62218Y51509*
X62284Y51496*
X62482Y51535*
X62650Y51648*
X62763Y51816*
X62802Y52014*
X62763Y52212*
X62650Y52380*
X62482Y52493*
X62284Y52532*
G37*
G36*
X37845Y52158D02*
X37068D01*
Y51531*
X37845*
Y52158*
G37*
G36*
X38876D02*
X38099D01*
Y51531*
X38876*
Y52158*
G37*
G36*
X75170Y51053D02*
X74675D01*
Y50558*
X74796Y50582*
X75006Y50722*
X75146Y50932*
X75170Y51053*
G37*
G36*
X57530Y51391D02*
X56953D01*
Y50864*
X57530*
Y51391*
G37*
G36*
X58361D02*
X57784D01*
Y50864*
X58361*
Y51391*
G37*
G36*
X99531Y34714D02*
X99244Y34677D01*
X98977Y34566*
X98747Y34390*
X98571Y34160*
X98460Y33893*
X98423Y33606*
X98460Y33319*
X98571Y33052*
X98747Y32822*
X98977Y32646*
X99244Y32535*
X99531Y32498*
X99818Y32535*
X100085Y32646*
X100315Y32822*
X100491Y33052*
X100602Y33319*
X100639Y33606*
X100602Y33893*
X100491Y34160*
X100315Y34390*
X100085Y34566*
X99818Y34677*
X99531Y34714*
G37*
G36*
X91094Y33479D02*
X90129D01*
X90150Y33319*
X90261Y33052*
X90437Y32822*
X90667Y32646*
X90934Y32535*
X91094Y32514*
Y33479*
G37*
G36*
X92313D02*
X91348D01*
Y32514*
X91508Y32535*
X91775Y32646*
X92005Y32822*
X92181Y33052*
X92292Y33319*
X92313Y33479*
G37*
G36*
X110503Y34899D02*
X107998D01*
Y32394*
X108284Y32416*
X108687Y32513*
X109071Y32672*
X109424Y32888*
X109739Y33158*
X110009Y33473*
X110225Y33826*
X110384Y34210*
X110481Y34613*
X110503Y34899*
G37*
G36*
X93991Y34714D02*
X93704Y34677D01*
X93437Y34566*
X93207Y34390*
X93031Y34160*
X92920Y33893*
X92882Y33606*
X92920Y33319*
X93031Y33052*
X93207Y32822*
X93437Y32646*
X93704Y32535*
X93991Y32498*
X94278Y32535*
X94545Y32646*
X94775Y32822*
X94951Y33052*
X95062Y33319*
X95099Y33606*
X95062Y33893*
X94951Y34160*
X94775Y34390*
X94545Y34566*
X94278Y34677*
X93991Y34714*
G37*
G36*
X96761D02*
X96474Y34677D01*
X96207Y34566*
X95977Y34390*
X95801Y34160*
X95690Y33893*
X95653Y33606*
X95690Y33319*
X95801Y33052*
X95977Y32822*
X96207Y32646*
X96474Y32535*
X96761Y32498*
X97048Y32535*
X97315Y32646*
X97545Y32822*
X97721Y33052*
X97832Y33319*
X97869Y33606*
X97832Y33893*
X97721Y34160*
X97545Y34390*
X97315Y34566*
X97048Y34677*
X96761Y34714*
G37*
G36*
X113733Y33465D02*
X112325D01*
Y32938*
Y32846*
Y31538*
X112511*
Y30897*
X112497Y30892*
X112277Y30723*
X112108Y30503*
X112002Y30246*
X111966Y29971*
X112002Y29696*
X112108Y29439*
X112277Y29219*
X112497Y29050*
X112754Y28944*
X113029Y28908*
X113304Y28944*
X113561Y29050*
X113781Y29219*
X113950Y29439*
X114056Y29696*
X114092Y29971*
X114056Y30246*
X113950Y30503*
X113781Y30723*
X113561Y30892*
X113547Y30897*
Y31538*
X113733*
Y32846*
Y32938*
Y33465*
G37*
G36*
X91348Y34698D02*
Y33733D01*
X92313*
X92292Y33893*
X92181Y34160*
X92005Y34390*
X91775Y34566*
X91508Y34677*
X91348Y34698*
G37*
G36*
X122109Y35874D02*
X121813Y35845D01*
X121406Y35722*
X121031Y35521*
X120702Y35252*
X120433Y34923*
X120232Y34548*
X120109Y34141*
X120080Y33845*
X122109*
Y35874*
G37*
G36*
X122364D02*
Y33845D01*
X124393*
X124364Y34141*
X124241Y34548*
X124040Y34923*
X123771Y35252*
X123442Y35521*
X123067Y35722*
X122660Y35845*
X122364Y35874*
G37*
G36*
X112902Y34246D02*
X112325D01*
Y33719*
X112902*
Y34246*
G37*
G36*
X113733D02*
X113156D01*
Y33719*
X113733*
Y34246*
G37*
G36*
X91094Y34698D02*
X90934Y34677D01*
X90667Y34566*
X90437Y34390*
X90261Y34160*
X90150Y33893*
X90129Y33733*
X91094*
Y34698*
G37*
G36*
X107744Y34899D02*
X105239D01*
X105261Y34613*
X105358Y34210*
X105517Y33826*
X105733Y33473*
X106003Y33158*
X106318Y32888*
X106672Y32672*
X107055Y32513*
X107458Y32416*
X107744Y32394*
Y34899*
G37*
G36*
X132172Y28447D02*
X130047D01*
Y26322*
X130362Y26353*
X130787Y26482*
X131178Y26691*
X131522Y26972*
X131803Y27316*
X132013Y27707*
X132141Y28132*
X132172Y28447*
G37*
G36*
X28447Y30826D02*
X28132Y30795D01*
X27707Y30666*
X27316Y30457*
X26972Y30176*
X26691Y29832*
X26482Y29441*
X26353Y29016*
X26322Y28701*
X28447*
Y30826*
G37*
G36*
X28701D02*
Y28701D01*
X30826*
X30795Y29016*
X30666Y29441*
X30457Y29832*
X30176Y30176*
X29832Y30457*
X29441Y30666*
X29016Y30795*
X28701Y30826*
G37*
G36*
X28447Y28447D02*
X26322D01*
X26353Y28132*
X26482Y27707*
X26691Y27316*
X26972Y26972*
X27316Y26691*
X27707Y26482*
X28132Y26353*
X28447Y26322*
Y28447*
G37*
G36*
X30826D02*
X28701D01*
Y26322*
X29016Y26353*
X29441Y26482*
X29832Y26691*
X30176Y26972*
X30457Y27316*
X30666Y27707*
X30795Y28132*
X30826Y28447*
G37*
G36*
X129793D02*
X127668D01*
X127699Y28132*
X127827Y27707*
X128037Y27316*
X128318Y26972*
X128662Y26691*
X129053Y26482*
X129478Y26353*
X129793Y26322*
Y28447*
G37*
G36*
Y30826D02*
X129478Y30795D01*
X129053Y30666*
X128662Y30457*
X128318Y30176*
X128037Y29832*
X127827Y29441*
X127699Y29016*
X127668Y28701*
X129793*
Y30826*
G37*
G36*
X124393Y33590D02*
X122364D01*
Y31561*
X122660Y31590*
X123067Y31713*
X123442Y31914*
X123771Y32183*
X124040Y32512*
X124241Y32887*
X124364Y33294*
X124393Y33590*
G37*
G36*
X82754Y34899D02*
X80249D01*
X80271Y34613*
X80368Y34210*
X80527Y33826*
X80743Y33473*
X81013Y33158*
X81328Y32888*
X81681Y32672*
X82065Y32513*
X82468Y32416*
X82754Y32394*
Y34899*
G37*
G36*
X85513D02*
X83008D01*
Y32394*
X83294Y32416*
X83697Y32513*
X84080Y32672*
X84434Y32888*
X84749Y33158*
X85019Y33473*
X85235Y33826*
X85394Y34210*
X85491Y34613*
X85513Y34899*
G37*
G36*
X130047Y30826D02*
Y28701D01*
X132172*
X132141Y29016*
X132013Y29441*
X131803Y29832*
X131522Y30176*
X131178Y30457*
X130787Y30666*
X130362Y30795*
X130047Y30826*
G37*
G36*
X50418Y31034D02*
X50143Y30998D01*
X49886Y30892*
X49666Y30723*
X49497Y30503*
X49391Y30246*
X49355Y29971*
X49391Y29696*
X49497Y29439*
X49666Y29219*
X49886Y29050*
X50143Y28944*
X50418Y28908*
X50693Y28944*
X50950Y29050*
X51170Y29219*
X51339Y29439*
X51445Y29696*
X51481Y29971*
X51445Y30246*
X51339Y30503*
X51170Y30723*
X50950Y30892*
X50693Y30998*
X50418Y31034*
G37*
G36*
X122109Y33590D02*
X120080D01*
X120109Y33294*
X120232Y32887*
X120433Y32512*
X120702Y32183*
X121031Y31914*
X121406Y31713*
X121813Y31590*
X122109Y31561*
Y33590*
G37*
G36*
X55371Y37906D02*
Y36004D01*
X57273*
X57247Y36275*
X57130Y36658*
X56942Y37011*
X56688Y37320*
X56378Y37574*
X56025Y37763*
X55642Y37879*
X55371Y37906*
G37*
G36*
X67817D02*
X67546Y37879D01*
X67163Y37763*
X66810Y37574*
X66500Y37320*
X66246Y37011*
X66058Y36658*
X65941Y36275*
X65915Y36004*
X67817*
Y37906*
G37*
G36*
X68071D02*
Y36004D01*
X69973*
X69947Y36275*
X69830Y36658*
X69642Y37011*
X69388Y37320*
X69078Y37574*
X68725Y37763*
X68342Y37879*
X68071Y37906*
G37*
G36*
X98146Y37555D02*
X97859Y37517D01*
X97592Y37406*
X97362Y37230*
X97186Y37000*
X97075Y36733*
X97038Y36446*
X97075Y36159*
X97186Y35892*
X97362Y35662*
X97592Y35486*
X97859Y35375*
X98146Y35338*
X98433Y35375*
X98700Y35486*
X98930Y35662*
X99106Y35892*
X99217Y36159*
X99255Y36446*
X99217Y36733*
X99106Y37000*
X98930Y37230*
X98700Y37406*
X98433Y37517*
X98146Y37555*
G37*
G36*
X102015Y37545D02*
X99817D01*
Y35347*
X102015*
Y37545*
G37*
G36*
X55117Y37906D02*
X54846Y37879D01*
X54463Y37763*
X54110Y37574*
X53800Y37320*
X53546Y37011*
X53358Y36658*
X53241Y36275*
X53215Y36004*
X55117*
Y37906*
G37*
G36*
X126554Y38922D02*
X126258Y38893D01*
X125851Y38770*
X125476Y38569*
X125147Y38300*
X124878Y37971*
X124677Y37596*
X124554Y37189*
X124525Y36893*
X126554*
Y38922*
G37*
G36*
X60324Y41600D02*
X60059Y41565D01*
X59812Y41463*
X59599Y41300*
X59437Y41088*
X59334Y40841*
X59299Y40575*
X59334Y40310*
X59437Y40063*
X59599Y39851*
X59812Y39688*
X59969Y39623*
Y39496*
X59812Y39431*
X59599Y39268*
X59437Y39056*
X59334Y38809*
X59299Y38543*
X59334Y38278*
X59437Y38031*
X59599Y37819*
X59812Y37656*
X60059Y37554*
X60324Y37519*
X60589Y37554*
X60836Y37656*
X61049Y37819*
X61211Y38031*
X61314Y38278*
X61349Y38543*
X61314Y38809*
X61211Y39056*
X61049Y39268*
X60836Y39431*
X60589Y39533*
Y39586*
X60836Y39688*
X61049Y39851*
X61211Y40063*
X61314Y40310*
X61349Y40575*
X61314Y40841*
X61211Y41088*
X61049Y41300*
X60836Y41463*
X60589Y41565*
X60324Y41600*
G37*
G36*
X62737Y38416D02*
X61856D01*
X61874Y38278*
X61977Y38031*
X62139Y37819*
X62352Y37656*
X62599Y37554*
X62737Y37535*
Y38416*
G37*
G36*
X63872D02*
X62991D01*
Y37535*
X63129Y37554*
X63376Y37656*
X63589Y37819*
X63751Y38031*
X63854Y38278*
X63872Y38416*
G37*
G36*
X126809Y38922D02*
Y36893D01*
X128838*
X128809Y37189*
X128686Y37596*
X128485Y37971*
X128216Y38300*
X127887Y38569*
X127512Y38770*
X127105Y38893*
X126809Y38922*
G37*
G36*
X41401Y37907D02*
X40824D01*
Y37380*
X41401*
Y37907*
G37*
G36*
X42232D02*
X41655D01*
Y37380*
X42232*
Y37907*
G37*
G36*
X95376Y37555D02*
X95089Y37517D01*
X94822Y37406*
X94592Y37230*
X94416Y37000*
X94305Y36733*
X94268Y36446*
X94305Y36159*
X94416Y35892*
X94592Y35662*
X94822Y35486*
X95089Y35375*
X95376Y35338*
X95663Y35375*
X95930Y35486*
X96160Y35662*
X96336Y35892*
X96447Y36159*
X96484Y36446*
X96447Y36733*
X96336Y37000*
X96160Y37230*
X95930Y37406*
X95663Y37517*
X95376Y37555*
G37*
G36*
X69973Y35749D02*
X68071D01*
Y33847*
X68342Y33874*
X68725Y33990*
X69078Y34179*
X69388Y34433*
X69642Y34742*
X69830Y35095*
X69947Y35478*
X69973Y35749*
G37*
G36*
X126554Y36638D02*
X124525D01*
X124554Y36342*
X124677Y35935*
X124878Y35560*
X125147Y35231*
X125476Y34962*
X125851Y34761*
X126258Y34638*
X126554Y34609*
Y36638*
G37*
G36*
X128838D02*
X126809D01*
Y34609*
X127105Y34638*
X127512Y34761*
X127887Y34962*
X128216Y35231*
X128485Y35560*
X128686Y35935*
X128809Y36342*
X128838Y36638*
G37*
G36*
X55117Y35749D02*
X53215D01*
X53241Y35478*
X53358Y35095*
X53546Y34742*
X53800Y34433*
X54110Y34179*
X54463Y33990*
X54846Y33874*
X55117Y33847*
Y35749*
G37*
G36*
X57273D02*
X55371D01*
Y33847*
X55642Y33874*
X56025Y33990*
X56378Y34179*
X56688Y34433*
X56942Y34742*
X57130Y35095*
X57247Y35478*
X57273Y35749*
G37*
G36*
X67817D02*
X65915D01*
X65941Y35478*
X66058Y35095*
X66246Y34742*
X66500Y34433*
X66810Y34179*
X67163Y33990*
X67546Y33874*
X67817Y33847*
Y35749*
G37*
G36*
X34289Y38616D02*
X33916Y38579D01*
X33556Y38471*
X33226Y38294*
X32935Y38056*
X32697Y37765*
X32520Y37435*
X32412Y37075*
X32375Y36702*
X32412Y36329*
X32520Y35969*
X32697Y35639*
X32935Y35348*
X33226Y35110*
X33556Y34933*
X33916Y34825*
X34289Y34788*
X34662Y34825*
X35022Y34933*
X35352Y35110*
X35643Y35348*
X35881Y35639*
X36058Y35969*
X36166Y36329*
X36203Y36702*
X36166Y37075*
X36058Y37435*
X35881Y37765*
X35643Y38056*
X35352Y38294*
X35022Y38471*
X34662Y38579*
X34289Y38616*
G37*
G36*
X107998Y37658D02*
Y35153D01*
X110503*
X110481Y35439*
X110384Y35842*
X110225Y36226*
X110009Y36579*
X109739Y36894*
X109424Y37164*
X109071Y37380*
X108687Y37539*
X108284Y37636*
X107998Y37658*
G37*
G36*
X89836Y37555D02*
X89549Y37517D01*
X89282Y37406*
X89052Y37230*
X88876Y37000*
X88765Y36733*
X88728Y36446*
X88765Y36159*
X88876Y35892*
X89052Y35662*
X89282Y35486*
X89549Y35375*
X89836Y35338*
X90123Y35375*
X90390Y35486*
X90620Y35662*
X90796Y35892*
X90907Y36159*
X90944Y36446*
X90907Y36733*
X90796Y37000*
X90620Y37230*
X90390Y37406*
X90123Y37517*
X89836Y37555*
G37*
G36*
X92606D02*
X92319Y37517D01*
X92052Y37406*
X91822Y37230*
X91646Y37000*
X91535Y36733*
X91498Y36446*
X91535Y36159*
X91646Y35892*
X91822Y35662*
X92052Y35486*
X92319Y35375*
X92606Y35338*
X92893Y35375*
X93160Y35486*
X93390Y35662*
X93566Y35892*
X93677Y36159*
X93715Y36446*
X93677Y36733*
X93566Y37000*
X93390Y37230*
X93160Y37406*
X92893Y37517*
X92606Y37555*
G37*
G36*
X82754Y37658D02*
X82468Y37636D01*
X82065Y37539*
X81681Y37380*
X81328Y37164*
X81013Y36894*
X80743Y36579*
X80527Y36226*
X80368Y35842*
X80271Y35439*
X80249Y35153*
X82754*
Y37658*
G37*
G36*
X83008D02*
Y35153D01*
X85513*
X85491Y35439*
X85394Y35842*
X85235Y36226*
X85019Y36579*
X84749Y36894*
X84434Y37164*
X84080Y37380*
X83697Y37539*
X83294Y37636*
X83008Y37658*
G37*
G36*
X107744D02*
X107458Y37636D01*
X107055Y37539*
X106672Y37380*
X106318Y37164*
X106003Y36894*
X105733Y36579*
X105517Y36226*
X105358Y35842*
X105261Y35439*
X105239Y35153*
X107744*
Y37658*
G37*
G36*
X62737Y57149D02*
X62242D01*
X62266Y57028*
X62406Y56818*
X62616Y56678*
X62737Y56654*
Y57149*
G37*
G36*
X123316Y88642D02*
X123054Y88607D01*
X122810Y88506*
X122600Y88345*
X122439Y88135*
X122338Y87891*
X122303Y87629*
X122338Y87367*
X122439Y87123*
X122600Y86913*
X122810Y86752*
X123054Y86651*
X123316Y86616*
X123564Y86649*
X124068Y86144*
Y85921*
X123954Y85865*
X123822Y85966*
X123578Y86067*
X123316Y86102*
X123054Y86067*
X122810Y85966*
X122678Y85865*
X122564Y85921*
Y86359*
X122525Y86557*
X122412Y86725*
X121756Y87381*
X121789Y87629*
X121754Y87891*
X121653Y88135*
X121492Y88345*
X121282Y88506*
X121038Y88607*
X120776Y88642*
X120514Y88607*
X120270Y88506*
X120060Y88345*
X119899Y88135*
X119798Y87891*
X119763Y87629*
X119798Y87367*
X119899Y87123*
X120060Y86913*
X120270Y86752*
X120514Y86651*
X120776Y86616*
X121024Y86649*
X121528Y86144*
Y85921*
X121414Y85865*
X121282Y85966*
X121038Y86067*
X120776Y86102*
X120514Y86067*
X120270Y85966*
X120138Y85865*
X120024Y85921*
Y86359*
X119985Y86557*
X119872Y86725*
X119216Y87381*
X119249Y87629*
X119214Y87891*
X119113Y88135*
X118952Y88345*
X118742Y88506*
X118498Y88607*
X118236Y88642*
X117974Y88607*
X117730Y88506*
X117520Y88345*
X117359Y88135*
X117258Y87891*
X117223Y87629*
X117258Y87367*
X117359Y87123*
X117520Y86913*
X117730Y86752*
X117974Y86651*
X118236Y86616*
X118484Y86649*
X118988Y86144*
Y85921*
X118874Y85865*
X118742Y85966*
X118498Y86067*
X118236Y86102*
X117974Y86067*
X117730Y85966*
X117598Y85865*
X117484Y85921*
Y86359*
X117445Y86557*
X117332Y86725*
X116676Y87381*
X116709Y87629*
X116674Y87891*
X116573Y88135*
X116412Y88345*
X116202Y88506*
X115958Y88607*
X115696Y88642*
X115434Y88607*
X115190Y88506*
X114980Y88345*
X114819Y88135*
X114718Y87891*
X114683Y87629*
X114718Y87367*
X114819Y87123*
X114980Y86913*
X115190Y86752*
X115434Y86651*
X115696Y86616*
X115944Y86649*
X116448Y86144*
Y85921*
X116334Y85865*
X116202Y85966*
X115958Y86067*
X115696Y86102*
X115434Y86067*
X115190Y85966*
X115058Y85865*
X114944Y85921*
Y86359*
X114905Y86557*
X114792Y86725*
X114136Y87381*
X114169Y87629*
X114134Y87891*
X114033Y88135*
X113872Y88345*
X113662Y88506*
X113418Y88607*
X113156Y88642*
X112894Y88607*
X112650Y88506*
X112440Y88345*
X112279Y88135*
X112178Y87891*
X112143Y87629*
X112178Y87367*
X112279Y87123*
X112440Y86913*
X112650Y86752*
X112894Y86651*
X113156Y86616*
X113404Y86649*
X113908Y86144*
Y85921*
X113794Y85865*
X113662Y85966*
X113418Y86067*
X113156Y86102*
X112894Y86067*
X112650Y85966*
X112518Y85865*
X112404Y85921*
Y86359*
X112365Y86557*
X112252Y86725*
X111596Y87381*
X111629Y87629*
X111594Y87891*
X111493Y88135*
X111332Y88345*
X111122Y88506*
X110878Y88607*
X110616Y88642*
X110354Y88607*
X110110Y88506*
X109900Y88345*
X109739Y88135*
X109638Y87891*
X109603Y87629*
X109638Y87367*
X109739Y87123*
X109900Y86913*
X110110Y86752*
X110354Y86651*
X110616Y86616*
X110864Y86649*
X111368Y86144*
Y85921*
X111254Y85865*
X111122Y85966*
X110878Y86067*
X110616Y86102*
X110354Y86067*
X110110Y85966*
X109978Y85865*
X109864Y85921*
Y86359*
X109825Y86557*
X109712Y86725*
X109056Y87381*
X109089Y87629*
X109054Y87891*
X108953Y88135*
X108792Y88345*
X108582Y88506*
X108338Y88607*
X108076Y88642*
X107814Y88607*
X107570Y88506*
X107360Y88345*
X107199Y88135*
X107098Y87891*
X107063Y87629*
X107098Y87367*
X107199Y87123*
X107360Y86913*
X107570Y86752*
X107814Y86651*
X108076Y86616*
X108324Y86649*
X108828Y86144*
Y85921*
X108714Y85865*
X108582Y85966*
X108338Y86067*
X108076Y86102*
X107814Y86067*
X107570Y85966*
X107438Y85865*
X107324Y85921*
Y86359*
X107285Y86557*
X107172Y86725*
X106516Y87381*
X106549Y87629*
X106514Y87891*
X106413Y88135*
X106252Y88345*
X106042Y88506*
X105798Y88607*
X105536Y88642*
X105274Y88607*
X105030Y88506*
X104820Y88345*
X104659Y88135*
X104558Y87891*
X104523Y87629*
X104558Y87367*
X104659Y87123*
X104820Y86913*
X105030Y86752*
X105274Y86651*
X105536Y86616*
X105784Y86649*
X106222Y86210*
X106174Y86093*
X104532*
Y84085*
X105018*
Y82579*
X104632*
Y81071*
Y80979*
Y79471*
X105083*
Y69341*
X105117Y69168*
X105216Y69021*
X108613Y65623*
X108565Y65505*
X100789Y65478*
X100787Y65481*
X100577Y65621*
X100329Y65670*
X100081Y65621*
X99871Y65481*
X99731Y65271*
X99682Y65023*
X99731Y64775*
X99871Y64565*
X100081Y64425*
X100329Y64376*
X100577Y64425*
X100787Y64565*
X100791Y64571*
X110490Y64606*
X110570Y64508*
X110577Y64541*
X111865*
Y64287*
X110577*
X110589Y64227*
X110681Y64089*
X110589Y63951*
X110552Y63764*
X110589Y63577*
X110695Y63419*
X110853Y63313*
X111040Y63276*
X112690*
X112877Y63313*
X112927Y63237*
X112867Y63125*
X101125*
X98912Y65339*
X98786Y65423*
X98637Y65452*
X96631*
X96551Y65551*
X96558Y65587*
X93982*
X93989Y65551*
X93909Y65452*
X93004*
X92855Y65423*
X92729Y65339*
X90643Y63252*
X89510*
X89473Y63374*
X89540Y63419*
X89646Y63577*
X89683Y63764*
X89646Y63951*
X89554Y64089*
X89646Y64227*
X89658Y64287*
X87082*
X87094Y64227*
X87186Y64089*
X87094Y63951*
X87057Y63764*
X87094Y63577*
X87200Y63419*
X87267Y63374*
X87230Y63252*
X82031*
X80140Y65143*
X80189Y65261*
X84210*
X84728Y64744*
X84816Y64685*
X84875Y64645*
X85048Y64611*
X86996*
X87076Y64513*
X87082Y64541*
X89658*
X89646Y64601*
X89652Y64611*
X90470*
X90473Y64606*
X90683Y64466*
X90931Y64417*
X91179Y64466*
X91389Y64606*
X91529Y64816*
X91578Y65064*
X91529Y65312*
X91389Y65522*
X91179Y65662*
X90931Y65711*
X90683Y65662*
X90473Y65522*
X90470Y65517*
X89744*
X89664Y65615*
X89683Y65714*
X89646Y65901*
X89554Y66039*
X89646Y66177*
X89683Y66364*
X89646Y66551*
X89554Y66689*
X89646Y66827*
X89683Y67014*
X89646Y67201*
X89554Y67339*
X89646Y67477*
X89683Y67664*
X89646Y67851*
X89554Y67989*
X89646Y68127*
X89683Y68314*
X89646Y68501*
X89556Y68636*
X89646Y68772*
X89683Y68959*
X89646Y69146*
X89554Y69284*
X89646Y69422*
X89683Y69609*
X89646Y69796*
X89652Y69806*
X90296*
X90469Y69840*
X90616Y69939*
X91251Y70574*
X91350Y70721*
X91384Y70894*
Y76042*
X91748*
Y71793*
X91763Y71715*
X91782Y71620*
X91848Y71521*
X91881Y71473*
X92765Y70589*
X92852Y70530*
X92912Y70490*
X92970Y70479*
X93085Y70456*
X93896*
X93976Y70358*
X93957Y70259*
X93994Y70072*
X94086Y69934*
X93994Y69796*
X93957Y69609*
X93994Y69422*
X94086Y69284*
X93994Y69146*
X93957Y68959*
X93994Y68772*
X94084Y68636*
X93994Y68501*
X93957Y68314*
X93994Y68127*
X94086Y67989*
X93994Y67851*
X93957Y67664*
X93994Y67477*
X94086Y67339*
X93994Y67201*
X93957Y67014*
X93994Y66827*
X94086Y66689*
X93994Y66551*
X93957Y66364*
X93994Y66177*
X94086Y66039*
X93994Y65901*
X93982Y65841*
X96558*
X96546Y65901*
X96551Y65911*
X97860*
X98033Y65945*
X98180Y66044*
X101411Y69275*
X101470Y69363*
X101510Y69422*
X101544Y69595*
Y76042*
X101995*
Y77550*
Y77642*
Y79150*
X101609*
Y86359*
X101570Y86557*
X101457Y86725*
X100801Y87381*
X100834Y87629*
X100799Y87891*
X100698Y88135*
X100537Y88345*
X100327Y88506*
X100083Y88607*
X99821Y88642*
X99559Y88607*
X99315Y88506*
X99105Y88345*
X98944Y88135*
X98843Y87891*
X98808Y87629*
X98843Y87367*
X98944Y87123*
X99105Y86913*
X99315Y86752*
X99559Y86651*
X99821Y86616*
X100069Y86649*
X100573Y86144*
Y85921*
X100459Y85865*
X100327Y85966*
X100083Y86067*
X99821Y86102*
X99559Y86067*
X99315Y85966*
X99183Y85865*
X99069Y85921*
Y86359*
X99030Y86557*
X98917Y86725*
X98261Y87381*
X98294Y87629*
X98259Y87891*
X98158Y88135*
X97997Y88345*
X97787Y88506*
X97543Y88607*
X97281Y88642*
X97019Y88607*
X96775Y88506*
X96565Y88345*
X96404Y88135*
X96303Y87891*
X96268Y87629*
X96303Y87367*
X96404Y87123*
X96565Y86913*
X96775Y86752*
X97019Y86651*
X97281Y86616*
X97529Y86649*
X98033Y86144*
Y85921*
X97919Y85865*
X97787Y85966*
X97543Y86067*
X97281Y86102*
X97019Y86067*
X96775Y85966*
X96643Y85865*
X96529Y85921*
Y86359*
X96490Y86557*
X96377Y86725*
X95721Y87381*
X95754Y87629*
X95719Y87891*
X95618Y88135*
X95457Y88345*
X95247Y88506*
X95003Y88607*
X94741Y88642*
X94479Y88607*
X94235Y88506*
X94025Y88345*
X93864Y88135*
X93763Y87891*
X93728Y87629*
X93763Y87367*
X93864Y87123*
X94025Y86913*
X94235Y86752*
X94479Y86651*
X94741Y86616*
X94989Y86649*
X95493Y86144*
Y85921*
X95379Y85865*
X95247Y85966*
X95003Y86067*
X94741Y86102*
X94479Y86067*
X94235Y85966*
X94103Y85865*
X93989Y85921*
Y86359*
X93950Y86557*
X93837Y86725*
X93181Y87381*
X93214Y87629*
X93179Y87891*
X93078Y88135*
X92917Y88345*
X92707Y88506*
X92463Y88607*
X92201Y88642*
X91939Y88607*
X91695Y88506*
X91485Y88345*
X91324Y88135*
X91223Y87891*
X91188Y87629*
X91223Y87367*
X91324Y87123*
X91485Y86913*
X91695Y86752*
X91939Y86651*
X92201Y86616*
X92449Y86649*
X92953Y86144*
Y85921*
X92839Y85865*
X92707Y85966*
X92463Y86067*
X92201Y86102*
X91939Y86067*
X91695Y85966*
X91563Y85865*
X91449Y85921*
Y86359*
X91410Y86557*
X91297Y86725*
X90641Y87381*
X90674Y87629*
X90639Y87891*
X90538Y88135*
X90377Y88345*
X90167Y88506*
X89923Y88607*
X89661Y88642*
X89399Y88607*
X89155Y88506*
X88945Y88345*
X88784Y88135*
X88683Y87891*
X88648Y87629*
X88683Y87367*
X88784Y87123*
X88945Y86913*
X89155Y86752*
X89399Y86651*
X89661Y86616*
X89909Y86649*
X90413Y86144*
Y85921*
X90299Y85865*
X90167Y85966*
X89923Y86067*
X89661Y86102*
X89399Y86067*
X89155Y85966*
X89023Y85865*
X88909Y85921*
Y86359*
X88870Y86557*
X88757Y86725*
X88101Y87381*
X88134Y87629*
X88099Y87891*
X87998Y88135*
X87837Y88345*
X87627Y88506*
X87383Y88607*
X87121Y88642*
X86859Y88607*
X86615Y88506*
X86405Y88345*
X86244Y88135*
X86143Y87891*
X86108Y87629*
X86143Y87367*
X86244Y87123*
X86405Y86913*
X86615Y86752*
X86859Y86651*
X87121Y86616*
X87369Y86649*
X87873Y86144*
Y85921*
X87759Y85865*
X87627Y85966*
X87383Y86067*
X87121Y86102*
X86859Y86067*
X86615Y85966*
X86483Y85865*
X86369Y85921*
Y86359*
X86330Y86557*
X86217Y86725*
X85561Y87381*
X85594Y87629*
X85559Y87891*
X85458Y88135*
X85297Y88345*
X85087Y88506*
X84843Y88607*
X84581Y88642*
X84319Y88607*
X84075Y88506*
X83865Y88345*
X83704Y88135*
X83603Y87891*
X83568Y87629*
X83603Y87367*
X83704Y87123*
X83865Y86913*
X84075Y86752*
X84319Y86651*
X84581Y86616*
X84829Y86649*
X85333Y86144*
Y85921*
X85219Y85865*
X85087Y85966*
X84843Y86067*
X84581Y86102*
X84319Y86067*
X84075Y85966*
X83943Y85865*
X83829Y85921*
Y86359*
X83790Y86557*
X83677Y86725*
X83021Y87381*
X83054Y87629*
X83019Y87891*
X82918Y88135*
X82757Y88345*
X82547Y88506*
X82303Y88607*
X82041Y88642*
X81779Y88607*
X81535Y88506*
X81325Y88345*
X81164Y88135*
X81063Y87891*
X81028Y87629*
X81063Y87367*
X81164Y87123*
X81325Y86913*
X81535Y86752*
X81779Y86651*
X82041Y86616*
X82289Y86649*
X82727Y86210*
X82679Y86093*
X81037*
Y84085*
X81523*
Y82452*
X81137*
Y80944*
Y80852*
Y79344*
X81588*
Y69341*
X81622Y69168*
X81721Y69021*
X84463Y66278*
X84403Y66166*
X84398Y66167*
X74975*
X74926Y66285*
X77872Y69231*
X77971Y69378*
X78005Y69551*
Y76042*
X78500*
Y77550*
Y77642*
Y79150*
X78114*
Y86359*
X78075Y86557*
X77962Y86725*
X77306Y87381*
X77339Y87629*
X77304Y87891*
X77203Y88135*
X77042Y88345*
X76832Y88506*
X76588Y88607*
X76326Y88642*
X76064Y88607*
X75820Y88506*
X75610Y88345*
X75449Y88135*
X75348Y87891*
X75313Y87629*
X75348Y87367*
X75449Y87123*
X75610Y86913*
X75820Y86752*
X76064Y86651*
X76326Y86616*
X76574Y86649*
X77078Y86144*
Y85921*
X76964Y85865*
X76832Y85966*
X76588Y86067*
X76326Y86102*
X76064Y86067*
X75820Y85966*
X75688Y85865*
X75574Y85921*
Y86359*
X75535Y86557*
X75422Y86725*
X74766Y87381*
X74799Y87629*
X74764Y87891*
X74663Y88135*
X74502Y88345*
X74292Y88506*
X74048Y88607*
X73786Y88642*
X73524Y88607*
X73280Y88506*
X73070Y88345*
X72909Y88135*
X72808Y87891*
X72773Y87629*
X72808Y87367*
X72909Y87123*
X73070Y86913*
X73280Y86752*
X73524Y86651*
X73786Y86616*
X74034Y86649*
X74538Y86144*
Y85921*
X74424Y85865*
X74292Y85966*
X74048Y86067*
X73786Y86102*
X73524Y86067*
X73280Y85966*
X73148Y85865*
X73034Y85921*
Y86359*
X72995Y86557*
X72882Y86725*
X72226Y87381*
X72259Y87629*
X72224Y87891*
X72123Y88135*
X71962Y88345*
X71752Y88506*
X71508Y88607*
X71246Y88642*
X70984Y88607*
X70740Y88506*
X70530Y88345*
X70369Y88135*
X70268Y87891*
X70233Y87629*
X70268Y87367*
X70369Y87123*
X70530Y86913*
X70740Y86752*
X70984Y86651*
X71246Y86616*
X71494Y86649*
X71998Y86144*
Y85921*
X71884Y85865*
X71752Y85966*
X71508Y86067*
X71246Y86102*
X70984Y86067*
X70740Y85966*
X70608Y85865*
X70494Y85921*
Y86359*
X70455Y86557*
X70342Y86725*
X69686Y87381*
X69719Y87629*
X69684Y87891*
X69583Y88135*
X69422Y88345*
X69212Y88506*
X68968Y88607*
X68706Y88642*
X68444Y88607*
X68200Y88506*
X67990Y88345*
X67829Y88135*
X67728Y87891*
X67693Y87629*
X67728Y87367*
X67829Y87123*
X67990Y86913*
X68200Y86752*
X68444Y86651*
X68706Y86616*
X68954Y86649*
X69458Y86144*
Y85921*
X69344Y85865*
X69212Y85966*
X68968Y86067*
X68706Y86102*
X68444Y86067*
X68200Y85966*
X68068Y85865*
X67954Y85921*
Y86359*
X67915Y86557*
X67802Y86725*
X67146Y87381*
X67179Y87629*
X67144Y87891*
X67043Y88135*
X66882Y88345*
X66672Y88506*
X66428Y88607*
X66166Y88642*
X65904Y88607*
X65660Y88506*
X65450Y88345*
X65289Y88135*
X65188Y87891*
X65153Y87629*
X65188Y87367*
X65289Y87123*
X65450Y86913*
X65660Y86752*
X65904Y86651*
X66166Y86616*
X66414Y86649*
X66918Y86144*
Y85921*
X66804Y85865*
X66672Y85966*
X66428Y86067*
X66166Y86102*
X65904Y86067*
X65660Y85966*
X65528Y85865*
X65414Y85921*
Y86359*
X65375Y86557*
X65262Y86725*
X64606Y87381*
X64639Y87629*
X64604Y87891*
X64503Y88135*
X64342Y88345*
X64132Y88506*
X63888Y88607*
X63626Y88642*
X63364Y88607*
X63120Y88506*
X62910Y88345*
X62749Y88135*
X62648Y87891*
X62613Y87629*
X62648Y87367*
X62749Y87123*
X62910Y86913*
X63120Y86752*
X63364Y86651*
X63626Y86616*
X63874Y86649*
X64378Y86144*
Y85921*
X64264Y85865*
X64132Y85966*
X63888Y86067*
X63626Y86102*
X63364Y86067*
X63120Y85966*
X62988Y85865*
X62874Y85921*
Y86359*
X62835Y86557*
X62722Y86725*
X62066Y87381*
X62099Y87629*
X62064Y87891*
X61963Y88135*
X61802Y88345*
X61592Y88506*
X61348Y88607*
X61086Y88642*
X60824Y88607*
X60580Y88506*
X60370Y88345*
X60209Y88135*
X60108Y87891*
X60073Y87629*
X60108Y87367*
X60209Y87123*
X60370Y86913*
X60580Y86752*
X60824Y86651*
X61086Y86616*
X61334Y86649*
X61838Y86144*
Y85921*
X61724Y85865*
X61592Y85966*
X61348Y86067*
X61086Y86102*
X60824Y86067*
X60580Y85966*
X60448Y85865*
X60334Y85921*
Y86359*
X60295Y86557*
X60182Y86725*
X59526Y87381*
X59559Y87629*
X59524Y87891*
X59423Y88135*
X59262Y88345*
X59052Y88506*
X58808Y88607*
X58546Y88642*
X58284Y88607*
X58040Y88506*
X57830Y88345*
X57669Y88135*
X57568Y87891*
X57533Y87629*
X57568Y87367*
X57669Y87123*
X57830Y86913*
X58040Y86752*
X58284Y86651*
X58546Y86616*
X58794Y86649*
X59232Y86210*
X59184Y86093*
X57542*
Y84085*
X58028*
Y82579*
X57642*
Y81071*
Y80979*
Y79471*
X58093*
Y69341*
X58117Y69222*
X58005Y69162*
X57537Y69629*
Y74596*
X57628Y74731*
X57667Y74929*
X57628Y75127*
X57515Y75295*
X57347Y75408*
X57149Y75447*
X56951Y75408*
X56783Y75295*
X56670Y75127*
X56631Y74929*
X56670Y74731*
X56761Y74596*
Y69468*
X56790Y69319*
X56874Y69193*
X58539Y67529*
Y66289*
X58469Y66243*
X58329Y66033*
X58280Y65785*
X58329Y65537*
X58469Y65327*
X58474Y65324*
Y64957*
X57734Y64217*
X51077*
X51024Y64317*
X51063Y64515*
X51051Y64575*
X51141Y64665*
X51307Y64632*
X51505Y64671*
X51673Y64784*
X51786Y64952*
X51825Y65150*
X51786Y65348*
X51673Y65516*
X51505Y65629*
X51307Y65668*
X51109Y65629*
X50974Y65538*
X50282*
X50133Y65509*
X50049Y65452*
X49641*
X49561Y65551*
X49568Y65587*
X46992*
X47004Y65527*
X47096Y65389*
X47004Y65251*
X46967Y65064*
X47004Y64877*
X47096Y64739*
X47004Y64601*
X46967Y64414*
X46986Y64315*
X46906Y64217*
X46167*
X45967Y64351*
X45719Y64400*
X45471Y64351*
X45261Y64211*
X45121Y64001*
X45072Y63753*
X45121Y63505*
X45261Y63295*
X45266Y63292*
Y58862*
X45300Y58689*
X45399Y58542*
X46216Y57724*
X46215Y57719*
X46264Y57471*
X46404Y57261*
X46409Y57258*
Y53212*
X46412Y53195*
X46410Y53179*
X46429Y53109*
X46443Y53039*
X46453Y53024*
X46457Y53008*
X46502Y52951*
X46542Y52892*
X46556Y52882*
X46566Y52869*
X49554Y50293*
X49520Y50037*
X49555Y49772*
X49658Y49525*
X49758Y49393*
X49663Y49310*
X44964Y54008*
Y59943*
X44935Y60092*
X44851Y60218*
X43816Y61252*
X43785Y61411*
X43672Y61579*
X43504Y61692*
X43306Y61731*
X43108Y61692*
X42940Y61579*
X42827Y61411*
X42788Y61213*
X42827Y61015*
X42940Y60847*
X43108Y60734*
X43267Y60703*
X44188Y59782*
Y53847*
X44217Y53698*
X44301Y53572*
X54715Y43158*
X54841Y43074*
X54990Y43045*
X63118*
X63267Y43074*
X63393Y43158*
X68219Y47984*
X68303Y48110*
X68332Y48259*
Y51573*
X68444Y51633*
X68508Y51590*
X68706Y51551*
X68904Y51590*
X69039Y51681*
X73984*
X74044Y51569*
X73950Y51428*
X73926Y51307*
X75170*
X75146Y51428*
X75006Y51638*
X75019Y51681*
X75530*
X80115Y47095*
X80241Y47011*
X80390Y46982*
X81835*
X81970Y46891*
X82168Y46852*
X82366Y46891*
X82534Y47004*
X82647Y47172*
X82669Y47286*
X82796Y47273*
Y45147*
X82675Y45106*
X82630Y45165*
X82420Y45326*
X82176Y45427*
X81914Y45462*
X81652Y45427*
X81408Y45326*
X81198Y45165*
X81037Y44955*
X80936Y44711*
X80901Y44449*
X80936Y44187*
X81037Y43943*
X81198Y43733*
X81408Y43572*
X81652Y43471*
X81914Y43436*
X82176Y43471*
X82420Y43572*
X82630Y43733*
X82675Y43792*
X82796Y43751*
Y43179*
X82825Y43030*
X82909Y42904*
X83525Y42289*
X83476Y42171*
X83441Y41909*
X83476Y41647*
X83577Y41403*
X83738Y41193*
X83948Y41032*
X84192Y40931*
X84454Y40896*
X84716Y40931*
X84960Y41032*
X85170Y41193*
X85331Y41403*
X85432Y41647*
X85467Y41909*
X85432Y42171*
X85331Y42415*
X85170Y42625*
X84960Y42786*
X84716Y42887*
X84454Y42922*
X84192Y42887*
X84074Y42838*
X83572Y43340*
Y43751*
X83693Y43792*
X83738Y43733*
X83948Y43572*
X84192Y43471*
X84454Y43436*
X84716Y43471*
X84960Y43572*
X85170Y43733*
X85331Y43943*
X85432Y44187*
X85467Y44449*
X85432Y44711*
X85331Y44955*
X85170Y45165*
X84960Y45326*
X84842Y45375*
Y48767*
X84813Y48916*
X84729Y49042*
X83078Y50693*
X82952Y50777*
X82953Y50792*
X83773*
X83944Y50620*
X83975Y50461*
X84088Y50293*
X84256Y50181*
X84454Y50142*
X84652Y50181*
X84820Y50293*
X84933Y50461*
X84972Y50660*
X84933Y50858*
X84820Y51026*
X84652Y51138*
X84493Y51170*
X84208Y51455*
X84082Y51539*
X84084Y51554*
X97281*
X97430Y51583*
X97556Y51667*
X100096Y54207*
X100180Y54333*
X100209Y54482*
Y56689*
X100300Y56824*
X100339Y57022*
X100300Y57220*
X100187Y57388*
X100019Y57501*
X99821Y57540*
X99623Y57501*
X99455Y57388*
X99342Y57220*
X99303Y57022*
X99342Y56824*
X99433Y56689*
Y54643*
X99057Y54267*
X98939Y54316*
Y56689*
X99030Y56824*
X99069Y57022*
X99030Y57220*
X98917Y57388*
X98749Y57501*
X98551Y57540*
X98353Y57501*
X98185Y57388*
X98072Y57220*
X98033Y57022*
X98072Y56824*
X98163Y56689*
Y54262*
X96739Y52838*
X81313*
X79884Y54267*
X79853Y54426*
X79740Y54594*
X79572Y54707*
X79374Y54746*
X79176Y54707*
X79068Y54634*
X78978Y54724*
X79083Y54882*
X79132Y55129*
X79083Y55377*
X78943Y55587*
X78733Y55728*
X78485Y55777*
X78237Y55728*
X78027Y55587*
X77979Y55515*
X77857Y55552*
Y60544*
X78125Y60811*
X78209Y60937*
X78238Y61086*
Y62102*
X78209Y62251*
X78125Y62377*
X77617Y62885*
X77491Y62969*
X77342Y62998*
X76326*
X76177Y62969*
X76051Y62885*
X74908Y61742*
X74824Y61616*
X74795Y61467*
Y61038*
X74704Y60903*
X74665Y60705*
X74704Y60507*
X74817Y60339*
X74836Y60326*
X74799Y60204*
X74201*
X74042Y60363*
X74011Y60522*
X73898Y60690*
X73730Y60803*
X73532Y60842*
X73334Y60803*
X73166Y60690*
X73053Y60522*
X73014Y60324*
X73053Y60126*
X73166Y59958*
X73334Y59845*
X73493Y59814*
X73765Y59541*
X73891Y59457*
X74040Y59428*
X74418*
X74455Y59306*
X74436Y59293*
X74323Y59125*
X74284Y58927*
X74323Y58729*
X74414Y58594*
Y55742*
X73669Y54997*
X68706*
X68557Y54968*
X68431Y54884*
X67161Y53614*
X67077Y53488*
X67048Y53339*
Y48674*
X62703Y44329*
X55405*
X53209Y46525*
X53269Y46637*
X53466Y46598*
X53664Y46637*
X53832Y46750*
X53945Y46918*
X53984Y47116*
X53945Y47314*
X53854Y47449*
Y49568*
X53972Y49617*
X54226Y49363*
X54257Y49204*
X54370Y49036*
X54538Y48923*
X54736Y48884*
X54934Y48923*
X55102Y49036*
X55215Y49204*
X55254Y49402*
X55215Y49600*
X55102Y49768*
X54934Y49881*
X54775Y49912*
X51250Y53438*
X51325Y53540*
X51483Y53456*
X51813Y53355*
X52030Y53334*
Y54957*
X50407*
X50428Y54740*
X50529Y54410*
X50613Y54252*
X50511Y54177*
X50267Y54421*
Y57925*
X51582Y59240*
X51666Y59366*
X51695Y59514*
Y61007*
X51786Y61142*
X51825Y61340*
X51786Y61538*
X51673Y61706*
X51505Y61819*
X51307Y61858*
X51109Y61819*
X50941Y61706*
X50828Y61538*
X50789Y61340*
X50744Y61310*
X50743Y61311*
X50545Y61350*
X50347Y61311*
X50179Y61198*
X50066Y61030*
X50027Y60832*
X50066Y60634*
X50157Y60499*
Y59723*
X49273Y58839*
X49155Y58888*
Y60499*
X49246Y60634*
X49285Y60832*
X49246Y61030*
X49133Y61198*
X48965Y61311*
X48767Y61350*
X48569Y61311*
X48401Y61198*
X48288Y61030*
X48249Y60832*
X48288Y60634*
X48379Y60499*
Y53847*
X48408Y53698*
X48492Y53572*
X50969Y51096*
X50898Y50991*
X50810Y51027*
X50545Y51062*
X50280Y51027*
X50152Y50974*
X47315Y53420*
Y57258*
X47320Y57261*
X47460Y57471*
X47509Y57719*
X47460Y57967*
X47320Y58177*
X47110Y58317*
X46862Y58366*
X46857Y58365*
X46172Y59050*
Y63292*
X46177Y63295*
X46187Y63311*
X47278*
X47455Y63276*
X49105*
X49282Y63311*
X57922*
X58095Y63345*
X58242Y63444*
X59247Y64449*
X59297Y64522*
X59346Y64596*
X59380Y64769*
Y65324*
X59385Y65327*
X59431Y65397*
X60925*
X61719Y64603*
X61750Y64444*
X61841Y64309*
Y64233*
X60683Y63075*
X59874*
Y61767*
Y61675*
Y60367*
X61282*
Y60698*
X61642*
X61777Y60607*
X61975Y60568*
X62173Y60607*
X62308Y60698*
X63384*
X63444Y60586*
X63401Y60522*
X63362Y60324*
X63401Y60126*
X63492Y59991*
Y59912*
X63211Y59631*
X62402*
X62310*
X61783*
Y58927*
Y58223*
X62310*
X62402*
X63710*
Y59032*
X64155Y59476*
X64218Y59571*
X64239Y59602*
X64255Y59684*
X64268Y59751*
Y59936*
X65868*
X66017Y59965*
X66143Y60049*
X68708Y62614*
X68826Y62566*
Y60739*
X64113Y56027*
X64029Y55901*
X64000Y55752*
Y51005*
X63909Y50870*
X63870Y50672*
X63909Y50474*
X64022Y50306*
X64190Y50193*
X64388Y50154*
X64585Y50193*
X64645Y50081*
X64349Y49785*
X64190Y49754*
X64022Y49641*
X63909Y49473*
X63870Y49275*
X63909Y49077*
X64022Y48909*
X64190Y48796*
X64388Y48757*
X64586Y48796*
X64754Y48909*
X64867Y49077*
X64898Y49236*
X65552Y49889*
X65636Y50015*
X65665Y50164*
Y55337*
X69997Y59668*
X70081Y59794*
X70110Y59943*
Y63719*
X70383Y63992*
X70495Y63932*
X70462Y63764*
X70499Y63577*
X70605Y63419*
X70763Y63313*
X70950Y63276*
X72600*
X72777Y63311*
X78921*
X80832Y61401*
X80915Y61345*
X80979Y61302*
X81066Y61285*
X81152Y61268*
X84544*
X84581Y61146*
X84469Y61071*
X84356Y60903*
X84317Y60705*
X84356Y60507*
X84447Y60372*
Y60070*
X84476Y59921*
X84560Y59795*
X85322Y59033*
X85448Y58949*
X85597Y58920*
X87423*
X87558Y58829*
X87756Y58790*
X87954Y58829*
X88122Y58942*
X88235Y59110*
X88274Y59308*
X88235Y59506*
X88122Y59674*
X87954Y59787*
X87756Y59826*
X87558Y59787*
X87423Y59696*
X85758*
X85223Y60231*
Y60372*
X85314Y60507*
X85353Y60705*
X85314Y60903*
X85201Y61071*
X85089Y61146*
X85126Y61268*
X91566*
X91739Y61302*
X91886Y61401*
X93797Y63311*
X94268*
X94445Y63276*
X96095*
X96272Y63311*
X97236*
X97331Y63168*
X97541Y63028*
X97789Y62979*
X98037Y63028*
X98247Y63168*
X98387Y63378*
X98436Y63626*
X98398Y63820*
X98510Y63880*
X100435Y61954*
X100561Y61870*
X100710Y61841*
X113283*
X113432Y61870*
X113558Y61954*
X115629Y64026*
X117404*
X117484Y63927*
X117452Y63764*
X117489Y63577*
X117595Y63419*
X117753Y63313*
X117940Y63276*
X119590*
X119767Y63311*
X120069*
Y61617*
X120010Y61592*
X119797Y61430*
X119738Y61352*
X112013*
X111765Y61303*
X111555Y61163*
X108570Y58177*
X104788*
X104024Y58941*
Y59428*
X104093Y59481*
X104254Y59691*
X104355Y59935*
X104390Y60197*
X104355Y60459*
X104254Y60703*
X104093Y60913*
X103883Y61074*
X103639Y61175*
X103377Y61210*
X103115Y61175*
X102871Y61074*
X102661Y60913*
X102500Y60703*
X102399Y60459*
X102364Y60197*
X102399Y59935*
X102500Y59691*
X102661Y59481*
X102730Y59428*
Y58673*
X102779Y58425*
X102919Y58215*
X104062Y57072*
X104272Y56932*
X104520Y56883*
X108838*
X109086Y56932*
X109296Y57072*
X112281Y60058*
X119738*
X119797Y59980*
X119875Y59921*
Y44844*
X115111Y40081*
X115108Y40076*
X103187*
X93227Y50279*
X93229Y50291*
X93180Y50539*
X93040Y50749*
X92830Y50889*
X92582Y50938*
X92334Y50889*
X92124Y50749*
X91984Y50539*
X91935Y50291*
X91984Y50043*
X92124Y49833*
X92334Y49693*
X92580Y49644*
X102672Y39306*
X102674Y39305*
X102676Y39303*
X102747Y39255*
X102818Y39206*
X102820*
X102823Y39204*
X102907Y39188*
X102991Y39170*
X102993*
X102996*
X114922*
Y30803*
X114817Y30723*
X114648Y30503*
X114542Y30246*
X114506Y29971*
X114542Y29696*
X114648Y29439*
X114817Y29219*
X114870Y29179*
X114878Y29052*
X113777Y27951*
X78497*
Y29139*
X78602Y29219*
X78771Y29439*
X78877Y29696*
X78913Y29971*
X78877Y30246*
X78771Y30503*
X78602Y30723*
X78382Y30892*
X78125Y30998*
X77850Y31034*
X77575Y30998*
X77318Y30892*
X77098Y30723*
X76929Y30503*
X76823Y30246*
X76787Y29971*
X76823Y29696*
X76929Y29439*
X77098Y29219*
X77203Y29139*
Y27951*
X73161*
Y29045*
X73175Y29050*
X73395Y29219*
X73564Y29439*
X73670Y29696*
X73706Y29971*
X73670Y30246*
X73564Y30503*
X73395Y30723*
X73175Y30892*
X72918Y30998*
X72643Y31034*
X72368Y30998*
X72111Y30892*
X71891Y30723*
X71722Y30503*
X71616Y30246*
X71580Y29971*
X71616Y29696*
X71722Y29439*
X71891Y29219*
X72111Y29050*
X72125Y29045*
Y27951*
X53476*
Y29045*
X53490Y29050*
X53710Y29219*
X53879Y29439*
X53985Y29696*
X54021Y29971*
X53985Y30246*
X53879Y30503*
X53710Y30723*
X53490Y30892*
X53233Y30998*
X52958Y31034*
X52683Y30998*
X52426Y30892*
X52206Y30723*
X52037Y30503*
X51931Y30246*
X51895Y29971*
X51931Y29696*
X52037Y29439*
X52206Y29219*
X52426Y29050*
X52440Y29045*
Y27951*
X44713*
Y31755*
X44920Y31913*
X45082Y32126*
X45185Y32373*
X45220Y32638*
X45185Y32903*
X45082Y33150*
X44920Y33363*
X44707Y33525*
X44460Y33628*
X44195Y33663*
X43930Y33628*
X43683Y33525*
X43470Y33363*
X43308Y33150*
X43205Y32903*
X43170Y32638*
X43205Y32373*
X43308Y32126*
X43470Y31913*
X43677Y31755*
Y27951*
X35192*
X33920Y29223*
Y31854*
X33998Y31913*
X34160Y32126*
X34263Y32373*
X34298Y32638*
X34263Y32903*
X34212Y33027*
X35085Y33901*
X36321*
X36363Y33909*
X36422Y33797*
X36202Y33577*
X36078Y33628*
X35813Y33663*
X35548Y33628*
X35301Y33525*
X35088Y33363*
X34926Y33150*
X34823Y32903*
X34788Y32638*
X34823Y32373*
X34926Y32126*
X35088Y31913*
X35301Y31751*
X35548Y31648*
X35813Y31613*
X36078Y31648*
X36325Y31751*
X36538Y31913*
X36700Y32126*
X36803Y32373*
X36838Y32638*
X36803Y32903*
X36752Y33027*
X37625Y33901*
X49594*
X49675Y33917*
X49743Y33930*
X49806Y33972*
X49869Y34014*
X50186Y34332*
X50995*
X51111*
X51427*
Y33815*
X50638Y33026*
X47674*
X47622Y33150*
X47460Y33363*
X47247Y33525*
X47000Y33628*
X46735Y33663*
X46470Y33628*
X46223Y33525*
X46010Y33363*
X45848Y33150*
X45745Y32903*
X45710Y32638*
X45745Y32373*
X45848Y32126*
X46010Y31913*
X46223Y31751*
X46470Y31648*
X46735Y31613*
X47000Y31648*
X47247Y31751*
X47460Y31913*
X47622Y32126*
X47674Y32250*
X50799*
X50948Y32279*
X51074Y32363*
X52090Y33379*
X52174Y33505*
X52179Y33530*
X52203Y33654*
Y34332*
X52519*
Y35640*
Y35732*
Y37040*
X52203*
Y37591*
X52174Y37740*
X52090Y37866*
X51314Y38641*
Y46100*
X51285Y46249*
X51201Y46375*
X38741Y58834*
Y59122*
X38832Y59257*
X38871Y59455*
X38832Y59653*
X38719Y59821*
X38551Y59934*
X38353Y59973*
X38155Y59934*
X37987Y59821*
X37874Y59653*
X37835Y59455*
X37874Y59257*
X37965Y59122*
Y58888*
X37847Y58839*
X37598Y59088*
Y59356*
X37689Y59491*
X37728Y59689*
X37689Y59887*
X37576Y60055*
X37408Y60168*
X37210Y60207*
X37012Y60168*
X36844Y60055*
X36731Y59887*
X36709Y59773*
X36582Y59786*
Y60036*
X37244Y60698*
X37845*
X37991Y60727*
X37997Y60722*
X38120Y60539*
X38136Y60457*
X38276Y60247*
X38486Y60107*
X38734Y60058*
X38982Y60107*
X39192Y60247*
X39238Y60317*
X39743*
X42365Y57695*
X42396Y57536*
X42509Y57368*
X42677Y57255*
X42875Y57216*
X43073Y57255*
X43241Y57368*
X43353Y57536*
X43393Y57734*
X43353Y57932*
X43241Y58100*
X43073Y58212*
X42914Y58244*
X40178Y60980*
X40052Y61064*
X39904Y61093*
X39238*
X39192Y61163*
X38982Y61303*
X38734Y61352*
X38709Y61400*
X38882Y61573*
X38966Y61699*
X38995Y61848*
Y63039*
X39086Y63174*
X39125Y63372*
X39086Y63570*
X38973Y63738*
X38805Y63851*
X38607Y63890*
X38409Y63851*
X38241Y63738*
X38128Y63570*
X38089Y63372*
X38128Y63174*
X38219Y63039*
Y62009*
X37684Y61474*
X37083*
X36934Y61445*
X36808Y61361*
X35919Y60472*
X35835Y60346*
X35806Y60197*
Y54307*
X35715Y54172*
X35676Y53974*
X35715Y53776*
X35828Y53608*
X35996Y53495*
X36194Y53456*
X36392Y53495*
X36527Y53586*
X37068*
Y53131*
Y53039*
Y52412*
X38876*
Y53039*
Y53131*
Y53497*
X38899*
X39048Y53526*
X39174Y53610*
X39662Y54099*
X39821Y54130*
X39989Y54243*
X40102Y54411*
X40141Y54609*
X40102Y54807*
X39989Y54975*
X39821Y55088*
X39623Y55127*
X39425Y55088*
X39257Y54975*
X39144Y54807*
X39113Y54648*
X38993Y54529*
X38876Y54577*
Y54639*
X37068*
Y54362*
X36582*
Y59592*
X36709Y59605*
X36731Y59491*
X36822Y59356*
Y58927*
X36851Y58778*
X36935Y58652*
X49903Y45685*
Y37040*
X49587*
Y35732*
Y35640*
Y34831*
X49433Y34677*
X45893*
X45887Y34804*
X46092Y34825*
X46452Y34933*
X46782Y35110*
X47073Y35348*
X47311Y35639*
X47488Y35969*
X47596Y36329*
X47633Y36702*
X47596Y37075*
X47488Y37435*
X47311Y37765*
X47073Y38056*
X46782Y38294*
X46452Y38471*
X46092Y38579*
X45719Y38616*
X45346Y38579*
X44986Y38471*
X44656Y38294*
X44365Y38056*
X44127Y37765*
X43950Y37435*
X43842Y37075*
X43805Y36702*
X43842Y36329*
X43950Y35969*
X44127Y35639*
X44365Y35348*
X44656Y35110*
X44986Y34933*
X45346Y34825*
X45551Y34804*
X45545Y34677*
X37464*
X37422Y34669*
X37363Y34781*
X39644Y37062*
X39728Y37188*
X39757Y37337*
Y37380*
X40073*
Y38688*
Y38780*
Y39046*
X40824*
Y38780*
Y38688*
Y38161*
X42232*
Y38688*
Y38780*
Y40088*
X41916*
Y41113*
X42984Y42181*
X43179Y42155*
X43411Y42186*
X43627Y42275*
X43813Y42418*
X43956Y42604*
X44045Y42820*
X44076Y43052*
X44045Y43284*
X43956Y43500*
X43813Y43686*
X43627Y43829*
X43411Y43918*
X43218Y43944*
X42565Y44597*
X42439Y44681*
X42290Y44710*
Y44788*
X42357Y44815*
X42543Y44958*
X42686Y45144*
X42775Y45360*
X42806Y45592*
X42775Y45824*
X42686Y46040*
X42543Y46226*
X42357Y46369*
X42141Y46458*
X41909Y46489*
X41677Y46458*
X41617Y46433*
X40787Y47264*
X40661Y47348*
X40512Y47377*
X36228*
X34931Y48674*
Y52371*
X35022Y52506*
X35061Y52704*
X35022Y52902*
X34909Y53070*
X34741Y53183*
X34543Y53222*
X34345Y53183*
X34177Y53070*
X34164Y53051*
X34042Y53088*
Y58395*
X34074Y58551*
X34034Y58749*
X33922Y58917*
X33754Y59029*
X33556Y59069*
X33357Y59029*
X33189Y58917*
X33077Y58749*
X33038Y58551*
X33077Y58353*
X33189Y58185*
X33266Y58134*
Y48513*
X33295Y48364*
X33379Y48238*
X35171Y46447*
Y46101*
X35050Y46060*
X34923Y46226*
X34737Y46369*
X34521Y46458*
X34289Y46489*
X34057Y46458*
X33841Y46369*
X33655Y46226*
X33512Y46040*
X33488Y45980*
X32834*
Y46311*
X31426*
Y45003*
Y44911*
Y44384*
X32834*
Y44911*
Y45003*
Y45204*
X33488*
X33512Y45144*
X33655Y44958*
X33841Y44815*
X34057Y44726*
X34289Y44695*
X34521Y44726*
X34737Y44815*
X34923Y44958*
X35050Y45124*
X35171Y45083*
Y43853*
X35111Y43829*
X34925Y43686*
X34782Y43500*
X34693Y43284*
X34662Y43052*
X34693Y42820*
X34782Y42604*
X34925Y42418*
X35111Y42275*
X35327Y42186*
X35559Y42155*
X35791Y42186*
X36007Y42275*
X36193Y42418*
X36336Y42604*
X36425Y42820*
X36456Y43052*
X36425Y43284*
X36336Y43500*
X36193Y43686*
X36007Y43829*
X35947Y43853*
Y45083*
X36068Y45124*
X36195Y44958*
X36381Y44815*
X36597Y44726*
X36829Y44695*
X37061Y44726*
X37277Y44815*
X37463Y44958*
X37606Y45144*
X37695Y45360*
X37726Y45592*
X37695Y45824*
X37606Y46040*
X37463Y46226*
X37277Y46369*
X37061Y46458*
X36829Y46489*
Y46511*
X36919Y46601*
X39248*
X39256Y46474*
X39137Y46458*
X38921Y46369*
X38735Y46226*
X38592Y46040*
X38503Y45824*
X38472Y45592*
X38503Y45360*
X38592Y45144*
X38735Y44958*
X38921Y44815*
X39137Y44726*
X39369Y44695*
X39601Y44726*
X39661Y44751*
X40364Y44047*
X40388Y44032*
X40376Y43905*
X40191Y43829*
X40005Y43686*
X39862Y43500*
X39773Y43284*
X39742Y43052*
X39773Y42820*
X39862Y42604*
X40005Y42418*
X40191Y42275*
X40407Y42186*
X40639Y42155*
X40871Y42186*
X41087Y42275*
X41273Y42418*
X41416Y42604*
X41505Y42820*
X41536Y43052*
X41505Y43284*
X41416Y43500*
X41273Y43686*
X41087Y43829*
X40894Y43909*
X40871Y43918*
X40872Y43934*
X42129*
X42472Y43591*
X42402Y43500*
X42313Y43284*
X42282Y43052*
X42313Y42820*
X42375Y42670*
X41253Y41549*
X41169Y41423*
X41140Y41274*
Y40088*
X40824*
Y39822*
X40073*
Y40088*
X38665*
Y38780*
Y38688*
Y37380*
X38697*
X38745Y37263*
X36160Y34677*
X34924*
X34775Y34648*
X34649Y34564*
X33662Y33577*
X33538Y33628*
X33273Y33663*
X33008Y33628*
X32761Y33525*
X32548Y33363*
X32386Y33150*
X32283Y32903*
X32248Y32638*
X32283Y32373*
X32386Y32126*
X32548Y31913*
X32626Y31854*
Y28955*
X32675Y28707*
X32815Y28497*
X34466Y26846*
X34676Y26706*
X34924Y26657*
X114045*
X114293Y26706*
X114503Y26846*
X116027Y28370*
X116167Y28580*
X116216Y28828*
Y29139*
X116321Y29219*
X116490Y29439*
X116596Y29696*
X116632Y29971*
X116596Y30246*
X116490Y30503*
X116321Y30723*
X116216Y30803*
Y39355*
X120980Y44118*
X121120Y44328*
X121169Y44576*
Y59921*
X121247Y59980*
X121409Y60193*
X121512Y60440*
X121547Y60705*
X121528Y60851*
X125968Y65292*
X126036Y65392*
X126081Y65460*
X126120Y65658*
Y69735*
X126200Y69855*
X126249Y70103*
X126200Y70351*
X126120Y70471*
Y74815*
X126200Y74935*
X126228Y75077*
X126730Y75579*
X126843Y75747*
X126882Y75945*
Y79501*
X126843Y79699*
X126730Y79867*
X126228Y80369*
X126200Y80511*
X126060Y80721*
X125850Y80861*
X125602Y80910*
X125354Y80861*
X125216Y80769*
X125104Y80829*
Y86359*
X125065Y86557*
X124952Y86725*
X124296Y87381*
X124329Y87629*
X124294Y87891*
X124193Y88135*
X124032Y88345*
X123822Y88506*
X123578Y88607*
X123316Y88642*
G37*
G36*
X45719Y68718D02*
X45471Y68669D01*
X45261Y68529*
X45121Y68319*
X45072Y68071*
X45121Y67823*
X45261Y67613*
X45471Y67473*
X45719Y67424*
X45967Y67473*
X46177Y67613*
X46317Y67823*
X46366Y68071*
X46317Y68319*
X46177Y68529*
X45967Y68669*
X45719Y68718*
G37*
G36*
X52831Y88642D02*
X52569Y88607D01*
X52325Y88506*
X52115Y88345*
X51954Y88135*
X51853Y87891*
X51818Y87629*
X51853Y87367*
X51954Y87123*
X52115Y86913*
X52325Y86752*
X52569Y86651*
X52831Y86616*
X53079Y86649*
X53583Y86144*
Y85921*
X53469Y85865*
X53337Y85966*
X53093Y86067*
X52831Y86102*
X52569Y86067*
X52325Y85966*
X52193Y85865*
X52079Y85921*
Y86359*
X52040Y86557*
X51927Y86725*
X51271Y87381*
X51304Y87629*
X51269Y87891*
X51168Y88135*
X51007Y88345*
X50797Y88506*
X50553Y88607*
X50291Y88642*
X50029Y88607*
X49785Y88506*
X49575Y88345*
X49414Y88135*
X49313Y87891*
X49278Y87629*
X49313Y87367*
X49414Y87123*
X49575Y86913*
X49785Y86752*
X50029Y86651*
X50291Y86616*
X50539Y86649*
X51043Y86144*
Y85921*
X50929Y85865*
X50797Y85966*
X50553Y86067*
X50291Y86102*
X50029Y86067*
X49785Y85966*
X49653Y85865*
X49539Y85921*
Y86359*
X49500Y86557*
X49387Y86725*
X48731Y87381*
X48764Y87629*
X48729Y87891*
X48628Y88135*
X48467Y88345*
X48257Y88506*
X48013Y88607*
X47751Y88642*
X47489Y88607*
X47245Y88506*
X47035Y88345*
X46874Y88135*
X46773Y87891*
X46738Y87629*
X46773Y87367*
X46874Y87123*
X47035Y86913*
X47245Y86752*
X47489Y86651*
X47751Y86616*
X47999Y86649*
X48503Y86144*
Y85921*
X48389Y85865*
X48257Y85966*
X48013Y86067*
X47751Y86102*
X47489Y86067*
X47245Y85966*
X47113Y85865*
X46999Y85921*
Y86359*
X46960Y86557*
X46847Y86725*
X46191Y87381*
X46224Y87629*
X46189Y87891*
X46088Y88135*
X45927Y88345*
X45717Y88506*
X45473Y88607*
X45211Y88642*
X44949Y88607*
X44705Y88506*
X44495Y88345*
X44334Y88135*
X44233Y87891*
X44198Y87629*
X44233Y87367*
X44334Y87123*
X44495Y86913*
X44705Y86752*
X44949Y86651*
X45211Y86616*
X45459Y86649*
X45963Y86144*
Y85921*
X45849Y85865*
X45717Y85966*
X45473Y86067*
X45211Y86102*
X44949Y86067*
X44705Y85966*
X44573Y85865*
X44459Y85921*
Y86359*
X44420Y86557*
X44307Y86725*
X43651Y87381*
X43684Y87629*
X43649Y87891*
X43548Y88135*
X43387Y88345*
X43177Y88506*
X42933Y88607*
X42671Y88642*
X42409Y88607*
X42165Y88506*
X41955Y88345*
X41794Y88135*
X41693Y87891*
X41658Y87629*
X41693Y87367*
X41794Y87123*
X41955Y86913*
X42165Y86752*
X42409Y86651*
X42671Y86616*
X42919Y86649*
X43423Y86144*
Y85921*
X43309Y85865*
X43177Y85966*
X42933Y86067*
X42671Y86102*
X42409Y86067*
X42165Y85966*
X42033Y85865*
X41919Y85921*
Y86359*
X41880Y86557*
X41767Y86725*
X41111Y87381*
X41144Y87629*
X41109Y87891*
X41008Y88135*
X40847Y88345*
X40637Y88506*
X40393Y88607*
X40131Y88642*
X39869Y88607*
X39625Y88506*
X39415Y88345*
X39254Y88135*
X39153Y87891*
X39118Y87629*
X39153Y87367*
X39254Y87123*
X39415Y86913*
X39625Y86752*
X39869Y86651*
X40131Y86616*
X40379Y86649*
X40883Y86144*
Y85921*
X40769Y85865*
X40637Y85966*
X40393Y86067*
X40131Y86102*
X39869Y86067*
X39625Y85966*
X39493Y85865*
X39379Y85921*
Y86359*
X39340Y86557*
X39227Y86725*
X38571Y87381*
X38604Y87629*
X38569Y87891*
X38468Y88135*
X38307Y88345*
X38097Y88506*
X37853Y88607*
X37591Y88642*
X37329Y88607*
X37085Y88506*
X36875Y88345*
X36714Y88135*
X36613Y87891*
X36578Y87629*
X36613Y87367*
X36714Y87123*
X36875Y86913*
X37085Y86752*
X37329Y86651*
X37591Y86616*
X37839Y86649*
X38343Y86144*
Y85921*
X38229Y85865*
X38097Y85966*
X37853Y86067*
X37591Y86102*
X37329Y86067*
X37085Y85966*
X36953Y85865*
X36839Y85921*
Y86359*
X36800Y86557*
X36687Y86725*
X36031Y87381*
X36064Y87629*
X36029Y87891*
X35928Y88135*
X35767Y88345*
X35557Y88506*
X35313Y88607*
X35051Y88642*
X34789Y88607*
X34545Y88506*
X34335Y88345*
X34174Y88135*
X34073Y87891*
X34038Y87629*
X34073Y87367*
X34174Y87123*
X34335Y86913*
X34545Y86752*
X34789Y86651*
X35051Y86616*
X35299Y86649*
X35737Y86210*
X35689Y86093*
X34047*
Y84085*
X34533*
Y82579*
X34147*
Y81071*
Y80979*
Y79471*
X34598*
Y69494*
X34480Y69445*
X33915Y70010*
Y72223*
X34006Y72358*
X34045Y72556*
X34006Y72754*
X33893Y72922*
X33725Y73035*
X33566Y73066*
X32137Y74495*
Y78025*
X32228Y78160*
X32267Y78358*
X32228Y78556*
X32115Y78724*
X31947Y78837*
X31749Y78876*
X31551Y78837*
X31383Y78724*
X31270Y78556*
X31231Y78358*
X31270Y78160*
X31361Y78025*
Y74334*
X31390Y74185*
X31474Y74059*
X33017Y72517*
X33048Y72358*
X33139Y72223*
Y69849*
X33151Y69788*
X33061Y69698*
X32892Y69732*
X32694Y69693*
X32526Y69580*
X32413Y69412*
X32374Y69214*
X32413Y69016*
X32526Y68848*
X32694Y68735*
X32853Y68704*
X33779Y67778*
X33810Y67619*
X33853Y67555*
X33793Y67443*
X32037*
X30608Y68872*
X30577Y69031*
X30464Y69199*
X30296Y69312*
X30098Y69351*
X29900Y69312*
X29732Y69199*
X29619Y69031*
X29580Y68833*
X29619Y68635*
X29684Y68538*
X29614Y68432*
X29463Y68462*
X29265Y68423*
X29097Y68310*
X28984Y68142*
X28945Y67944*
X28984Y67746*
X29097Y67578*
X29265Y67465*
X29424Y67434*
X30712Y66145*
X30838Y66061*
X30987Y66032*
X33956*
X34091Y65941*
X34289Y65902*
X34487Y65941*
X34655Y66054*
X34768Y66222*
X34807Y66420*
X34777Y66571*
X34883Y66641*
X34980Y66576*
X35178Y66537*
X35376Y66576*
X35544Y66689*
X35657Y66857*
X35682Y66986*
X35804Y67023*
X36949Y65878*
Y62816*
X36858Y62681*
X36819Y62483*
X36858Y62285*
X36971Y62117*
X37139Y62004*
X37337Y61965*
X37535Y62004*
X37703Y62117*
X37816Y62285*
X37855Y62483*
X37816Y62681*
X37725Y62816*
Y65860*
X37843Y65908*
X38358Y65394*
X38505Y65295*
X38678Y65261*
X40006*
X40086Y65163*
X40092Y65191*
X41380*
Y64937*
X40092*
X40104Y64877*
X40196Y64739*
X40104Y64601*
X40092Y64541*
X42668*
X42693Y64414*
X42668Y64287*
X42786Y64336*
X42854Y64290*
X42925Y64276*
Y64769*
Y65262*
X42854Y65248*
X42775Y65195*
X42658Y65244*
X42656Y65251*
X42564Y65389*
X42656Y65527*
X42693Y65714*
X42656Y65901*
X42564Y66039*
X42656Y66177*
X42693Y66364*
X42656Y66551*
X42564Y66689*
X42656Y66827*
X42693Y67014*
X42656Y67201*
X42564Y67339*
X42656Y67477*
X42693Y67664*
X42656Y67851*
X42564Y67989*
X42656Y68127*
X42693Y68314*
X42656Y68501*
X42566Y68636*
X42656Y68772*
X42693Y68959*
X42656Y69146*
X42564Y69284*
X42656Y69422*
X42693Y69609*
X42656Y69796*
X42662Y69806*
X43404*
X43577Y69840*
X43724Y69939*
X44261Y70476*
X44360Y70623*
X44394Y70796*
Y76042*
X44758*
Y71881*
X44792Y71708*
X44891Y71561*
X45863Y70589*
X45951Y70530*
X46010Y70490*
X46183Y70456*
X46906*
X46986Y70358*
X46967Y70259*
X47004Y70072*
X47096Y69934*
X47004Y69796*
X46967Y69609*
X47004Y69422*
X47096Y69284*
X47004Y69146*
X46967Y68959*
X47004Y68772*
X47094Y68636*
X47004Y68501*
X46967Y68314*
X47004Y68127*
X47096Y67989*
X47004Y67851*
X46967Y67664*
X47004Y67477*
X47096Y67339*
X47004Y67201*
X46967Y67014*
X47004Y66827*
X47096Y66689*
X47004Y66551*
X46967Y66364*
X47004Y66177*
X47096Y66039*
X47004Y65901*
X46992Y65841*
X49568*
X49556Y65901*
X49585Y65955*
X50914*
X51087Y65989*
X51234Y66088*
X54421Y69275*
X54520Y69422*
X54554Y69595*
Y76042*
X55005*
Y77550*
Y77642*
Y79150*
X54619*
Y86359*
X54580Y86557*
X54467Y86725*
X53811Y87381*
X53844Y87629*
X53809Y87891*
X53708Y88135*
X53547Y88345*
X53337Y88506*
X53093Y88607*
X52831Y88642*
G37*
G36*
X28447Y90008D02*
X28132Y89977D01*
X27707Y89849*
X27316Y89639*
X26972Y89358*
X26691Y89014*
X26482Y88623*
X26353Y88198*
X26322Y87883*
X28447*
Y90008*
G37*
G36*
X129539Y67687D02*
X129277Y67652D01*
X129033Y67551*
X128823Y67390*
X128662Y67180*
X128561Y66936*
X128526Y66674*
X128561Y66412*
X128662Y66168*
X128823Y65958*
X129033Y65797*
X129277Y65696*
X129539Y65661*
X129801Y65696*
X130045Y65797*
X130255Y65958*
X130416Y66168*
X130517Y66412*
X130552Y66674*
X130517Y66936*
X130416Y67180*
X130255Y67390*
X130045Y67551*
X129801Y67652*
X129539Y67687*
G37*
G36*
X91820Y69976D02*
X91325D01*
X91349Y69855*
X91489Y69645*
X91699Y69505*
X91820Y69481*
Y69976*
G37*
G36*
X92569D02*
X92074D01*
Y69481*
X92195Y69505*
X92405Y69645*
X92545Y69855*
X92569Y69976*
G37*
G36*
X46341Y69468D02*
X45846D01*
Y68973*
X45967Y68997*
X46177Y69137*
X46317Y69347*
X46341Y69468*
G37*
G36*
X129539Y70227D02*
X129277Y70192D01*
X129033Y70091*
X128823Y69930*
X128662Y69720*
X128561Y69476*
X128526Y69214*
X128561Y68952*
X128662Y68708*
X128823Y68498*
X129033Y68337*
X129277Y68236*
X129539Y68201*
X129801Y68236*
X130045Y68337*
X130255Y68498*
X130416Y68708*
X130517Y68952*
X130552Y69214*
X130517Y69476*
X130416Y69720*
X130255Y69930*
X130045Y70091*
X129801Y70192*
X129539Y70227*
G37*
G36*
X45592Y69468D02*
X45097D01*
X45121Y69347*
X45261Y69137*
X45471Y68997*
X45592Y68973*
Y69468*
G37*
G36*
X107695Y64373D02*
Y64007D01*
X108061*
X108047Y64078*
X107934Y64246*
X107766Y64359*
X107695Y64373*
G37*
G36*
X43545Y64642D02*
X43179D01*
Y64276*
X43250Y64290*
X43418Y64403*
X43531Y64571*
X43545Y64642*
G37*
G36*
X107441Y64373D02*
X107370Y64359D01*
X107202Y64246*
X107089Y64078*
X107075Y64007*
X107441*
Y64373*
G37*
G36*
X82422Y64261D02*
X81927D01*
X81951Y64140*
X82091Y63930*
X82301Y63790*
X82422Y63766*
Y64261*
G37*
G36*
X83171D02*
X82676D01*
Y63766*
X82797Y63790*
X83007Y63930*
X83147Y64140*
X83171Y64261*
G37*
G36*
X43179Y65262D02*
Y64896D01*
X43545*
X43531Y64967*
X43418Y65135*
X43250Y65248*
X43179Y65262*
G37*
G36*
X28701Y90008D02*
Y87883D01*
X30826*
X30795Y88198*
X30666Y88623*
X30457Y89014*
X30176Y89358*
X29832Y89639*
X29441Y89849*
X29016Y89977*
X28701Y90008*
G37*
G36*
X129793D02*
X129478Y89977D01*
X129053Y89849*
X128662Y89639*
X128318Y89358*
X128037Y89014*
X127827Y88623*
X127699Y88198*
X127668Y87883*
X129793*
Y90008*
G37*
G36*
X82422Y65010D02*
X82301Y64986D01*
X82091Y64846*
X81951Y64636*
X81927Y64515*
X82422*
Y65010*
G37*
G36*
X82676D02*
Y64515D01*
X83171*
X83147Y64636*
X83007Y64846*
X82797Y64986*
X82676Y65010*
G37*
G36*
X104761Y69976D02*
X104266D01*
Y69481*
X104387Y69505*
X104597Y69645*
X104737Y69855*
X104761Y69976*
G37*
G36*
X57022Y77837D02*
Y77342D01*
X57517*
X57493Y77463*
X57353Y77673*
X57143Y77813*
X57022Y77837*
G37*
G36*
X56768D02*
X56647Y77813D01*
X56437Y77673*
X56297Y77463*
X56273Y77342*
X56768*
Y77837*
G37*
G36*
X104393Y78749D02*
X104195Y78710D01*
X104027Y78597*
X103914Y78429*
X103883Y78270*
X103745Y78133*
X103646Y78186*
X103634Y78194*
X103641Y78231*
X103602Y78429*
X103489Y78597*
X103321Y78710*
X103123Y78749*
X102925Y78710*
X102757Y78597*
X102644Y78429*
X102605Y78231*
X102644Y78033*
X102735Y77898*
Y72677*
X102213Y72156*
X102129Y72030*
X102100Y71881*
Y67343*
X101705Y66949*
X101621Y66823*
X101592Y66674*
Y66626*
X101501Y66491*
X101462Y66293*
X101501Y66095*
X101614Y65927*
X101782Y65814*
X101980Y65775*
X102178Y65814*
X102346Y65927*
X102459Y66095*
X102488Y66243*
X102615*
X102644Y66095*
X102757Y65927*
X102925Y65814*
X103123Y65775*
X103321Y65814*
X103489Y65927*
X103602Y66095*
X103641Y66293*
X103602Y66491*
X103511Y66626*
Y69680*
X103633Y69717*
X103681Y69645*
X103891Y69505*
X104012Y69481*
Y70103*
Y70725*
X103891Y70701*
X103681Y70561*
X103633Y70489*
X103511Y70526*
Y71593*
X104287Y72368*
X104371Y72494*
X104400Y72643*
Y77689*
X104432Y77721*
X104591Y77752*
X104759Y77865*
X104872Y78033*
X104911Y78231*
X104872Y78429*
X104759Y78597*
X104591Y78710*
X104393Y78749*
G37*
G36*
X130543Y82918D02*
X128535D01*
Y80910*
X130543*
Y82918*
G37*
G36*
X129539Y80387D02*
X129277Y80352D01*
X129033Y80251*
X128823Y80090*
X128662Y79880*
X128561Y79636*
X128526Y79374*
X128561Y79112*
X128662Y78868*
X128823Y78658*
X129033Y78497*
X129277Y78396*
X129539Y78361*
X129801Y78396*
X130045Y78497*
X130255Y78658*
X130416Y78868*
X130517Y79112*
X130552Y79374*
X130517Y79636*
X130416Y79880*
X130255Y80090*
X130045Y80251*
X129801Y80352*
X129539Y80387*
G37*
G36*
X32892Y79638D02*
X32694Y79599D01*
X32526Y79486*
X32413Y79318*
X32374Y79120*
X32413Y78922*
X32504Y78787*
Y74929*
X32533Y74780*
X32617Y74654*
X33271Y74001*
X33302Y73842*
X33415Y73674*
X33583Y73561*
X33781Y73522*
X33979Y73561*
X34147Y73674*
X34260Y73842*
X34299Y74040*
X34260Y74238*
X34147Y74406*
X33979Y74519*
X33820Y74550*
X33280Y75090*
Y78787*
X33371Y78922*
X33410Y79120*
X33371Y79318*
X33258Y79486*
X33090Y79599*
X32892Y79638*
G37*
G36*
X129539Y75307D02*
X129277Y75272D01*
X129033Y75171*
X128823Y75010*
X128662Y74800*
X128561Y74556*
X128526Y74294*
X128561Y74032*
X128662Y73788*
X128823Y73578*
X129033Y73417*
X129277Y73316*
X129539Y73281*
X129801Y73316*
X130045Y73417*
X130255Y73578*
X130416Y73788*
X130517Y74032*
X130552Y74294*
X130517Y74556*
X130416Y74800*
X130255Y75010*
X130045Y75171*
X129801Y75272*
X129539Y75307*
G37*
G36*
Y77847D02*
X129277Y77812D01*
X129033Y77711*
X128823Y77550*
X128662Y77340*
X128561Y77096*
X128526Y76834*
X128561Y76572*
X128662Y76328*
X128823Y76118*
X129033Y75957*
X129277Y75856*
X129539Y75821*
X129801Y75856*
X130045Y75957*
X130255Y76118*
X130416Y76328*
X130517Y76572*
X130552Y76834*
X130517Y77096*
X130416Y77340*
X130255Y77550*
X130045Y77711*
X129801Y77812*
X129539Y77847*
G37*
G36*
X57517Y77088D02*
X57022D01*
Y76593*
X57143Y76617*
X57353Y76757*
X57493Y76967*
X57517Y77088*
G37*
G36*
X56768D02*
X56273D01*
X56297Y76967*
X56437Y76757*
X56647Y76617*
X56768Y76593*
Y77088*
G37*
G36*
X92074Y70725D02*
Y70230D01*
X92569*
X92545Y70351*
X92405Y70561*
X92195Y70701*
X92074Y70725*
G37*
G36*
X104266D02*
Y70230D01*
X104761*
X104737Y70351*
X104597Y70561*
X104387Y70701*
X104266Y70725*
G37*
G36*
X91820D02*
X91699Y70701D01*
X91489Y70561*
X91349Y70351*
X91325Y70230*
X91820*
Y70725*
G37*
G36*
X45592Y70217D02*
X45471Y70193D01*
X45261Y70053*
X45121Y69843*
X45097Y69722*
X45592*
Y70217*
G37*
G36*
X45846D02*
Y69722D01*
X46341*
X46317Y69843*
X46177Y70053*
X45967Y70193*
X45846Y70217*
G37*
G36*
X30826Y87629D02*
X28701D01*
Y85504*
X29016Y85535*
X29441Y85663*
X29832Y85873*
X30176Y86154*
X30457Y86498*
X30666Y86889*
X30795Y87314*
X30826Y87629*
G37*
G36*
X28447D02*
X26322D01*
X26353Y87314*
X26482Y86889*
X26691Y86498*
X26972Y86154*
X27316Y85873*
X27707Y85663*
X28132Y85535*
X28447Y85504*
Y87629*
G37*
G36*
X129793D02*
X127668D01*
X127699Y87314*
X127827Y86889*
X128037Y86498*
X128318Y86154*
X128662Y85873*
X129053Y85663*
X129478Y85535*
X129793Y85504*
Y87629*
G37*
G36*
X129539Y72767D02*
X129277Y72732D01*
X129033Y72631*
X128823Y72470*
X128662Y72260*
X128561Y72016*
X128526Y71754*
X128561Y71492*
X128662Y71248*
X128823Y71038*
X129033Y70877*
X129277Y70776*
X129539Y70741*
X129801Y70776*
X130045Y70877*
X130255Y71038*
X130416Y71248*
X130517Y71492*
X130552Y71754*
X130517Y72016*
X130416Y72260*
X130255Y72470*
X130045Y72631*
X129801Y72732*
X129539Y72767*
G37*
G36*
X132172Y87629D02*
X130047D01*
Y85504*
X130362Y85535*
X130787Y85663*
X131178Y85873*
X131522Y86154*
X131803Y86498*
X132013Y86889*
X132141Y87314*
X132172Y87629*
G37*
G36*
X34924Y58912D02*
X34853Y58898D01*
X34685Y58785*
X34572Y58617*
X34558Y58546*
X34924*
Y58912*
G37*
G36*
X35178D02*
Y58546D01*
X35544*
X35530Y58617*
X35417Y58785*
X35249Y58898*
X35178Y58912*
G37*
G36*
X53147Y58927D02*
X52620D01*
Y58350*
X53147*
Y58927*
G37*
G36*
X127253Y58919D02*
Y58038D01*
X128134*
X128116Y58176*
X128013Y58423*
X127851Y58636*
X127638Y58798*
X127391Y58901*
X127253Y58919*
G37*
G36*
X61529Y58800D02*
X61002D01*
Y58223*
X61529*
Y58800*
G37*
G36*
X53147Y59758D02*
X52620D01*
Y59181*
X53147*
Y59758*
G37*
G36*
X106921Y61201D02*
X104913D01*
Y59193*
X106921*
Y61201*
G37*
G36*
X61529Y59631D02*
X61002D01*
Y59054*
X61529*
Y59631*
G37*
G36*
X84200Y59041D02*
X84079Y59017D01*
X83869Y58877*
X83729Y58667*
X83705Y58546*
X84200*
Y59041*
G37*
G36*
X84454D02*
Y58546D01*
X84949*
X84925Y58667*
X84785Y58877*
X84575Y59017*
X84454Y59041*
G37*
G36*
X126999Y58919D02*
X126861Y58901D01*
X126614Y58798*
X126401Y58636*
X126239Y58423*
X126136Y58176*
X126118Y58038*
X126999*
Y58919*
G37*
G36*
X62737Y57898D02*
X62616Y57874D01*
X62406Y57734*
X62266Y57524*
X62242Y57403*
X62737*
Y57898*
G37*
G36*
X62991D02*
Y57403D01*
X63486*
X63462Y57524*
X63322Y57734*
X63112Y57874*
X62991Y57898*
G37*
G36*
X128134Y57784D02*
X127253D01*
Y56903*
X127391Y56921*
X127638Y57024*
X127851Y57186*
X128013Y57399*
X128116Y57646*
X128134Y57784*
G37*
G36*
X63486Y57149D02*
X62991D01*
Y56654*
X63112Y56678*
X63322Y56818*
X63462Y57028*
X63486Y57149*
G37*
G36*
X126999Y57784D02*
X126118D01*
X126136Y57646*
X126239Y57399*
X126401Y57186*
X126614Y57024*
X126861Y56921*
X126999Y56903*
Y57784*
G37*
G36*
X34924Y58292D02*
X34558D01*
X34572Y58221*
X34685Y58053*
X34853Y57940*
X34924Y57926*
Y58292*
G37*
G36*
X35544D02*
X35178D01*
Y57926*
X35249Y57940*
X35417Y58053*
X35530Y58221*
X35544Y58292*
G37*
G36*
X90296Y59064D02*
X90098Y59025D01*
X89930Y58912*
X89817Y58744*
X89778Y58546*
X89817Y58348*
X89908Y58213*
Y56675*
X88865Y55632*
X87708*
X87573Y55723*
X87375Y55762*
X87177Y55723*
X87009Y55610*
X86896Y55442*
X86857Y55244*
X86896Y55046*
X87009Y54878*
X87177Y54765*
X87375Y54726*
X87573Y54765*
X87708Y54856*
X89026*
X89175Y54885*
X89278Y54954*
X89359Y54856*
X88611Y54108*
X85422*
X85287Y54199*
X85089Y54238*
X84891Y54199*
X84723Y54086*
X84610Y53918*
X84571Y53720*
X84610Y53522*
X84723Y53354*
X84891Y53241*
X85089Y53202*
X85287Y53241*
X85422Y53332*
X88772*
X88921Y53361*
X89047Y53445*
X93632Y58031*
X95170*
X95305Y57940*
X95503Y57901*
X95701Y57940*
X95869Y58053*
X95982Y58221*
X96021Y58419*
X95982Y58617*
X95869Y58785*
X95701Y58898*
X95503Y58937*
X95305Y58898*
X95170Y58807*
X93471*
X93322Y58778*
X93196Y58694*
X90684Y56181*
X90586Y56262*
X90655Y56365*
X90684Y56514*
Y58213*
X90775Y58348*
X90814Y58546*
X90775Y58744*
X90662Y58912*
X90494Y59025*
X90296Y59064*
G37*
G36*
X84200Y58292D02*
X83705D01*
X83729Y58171*
X83869Y57961*
X84079Y57821*
X84200Y57797*
Y58292*
G37*
G36*
X84949D02*
X84454D01*
Y57797*
X84575Y57821*
X84785Y57961*
X84925Y58171*
X84949Y58292*
G37*
G36*
X36306Y62737D02*
X35940D01*
Y62371*
X36011Y62385*
X36179Y62498*
X36292Y62666*
X36306Y62737*
G37*
G36*
X35686Y63357D02*
X35615Y63343D01*
X35447Y63230*
X35334Y63062*
X35320Y62991*
X35686*
Y63357*
G37*
G36*
X35940D02*
Y62991D01*
X36306*
X36292Y63062*
X36179Y63230*
X36011Y63343*
X35940Y63357*
G37*
G36*
X53147Y62102D02*
X52620D01*
Y61525*
X53147*
Y62102*
G37*
G36*
Y62933D02*
X52620D01*
Y62356*
X53147*
Y62933*
G37*
G36*
X35686Y62737D02*
X35320D01*
X35334Y62666*
X35447Y62498*
X35615Y62385*
X35686Y62371*
Y62737*
G37*
G36*
X107441Y63753D02*
X107075D01*
X107089Y63682*
X107202Y63514*
X107370Y63401*
X107441Y63387*
Y63753*
G37*
G36*
X108061D02*
X107695D01*
Y63387*
X107766Y63401*
X107934Y63514*
X108047Y63682*
X108061Y63753*
G37*
G36*
X30479Y63890D02*
X30281Y63851D01*
X30146Y63760*
X28653*
X28518Y63851*
X28320Y63890*
X28122Y63851*
X27954Y63738*
X27841Y63570*
X27802Y63372*
X27841Y63174*
X27954Y63006*
X28122Y62893*
X28320Y62854*
X28518Y62893*
X28653Y62984*
X30146*
X30281Y62893*
X30479Y62854*
X30677Y62893*
X30845Y63006*
X30958Y63174*
X30997Y63372*
X30958Y63570*
X30845Y63738*
X30677Y63851*
X30479Y63890*
G37*
G36*
X129539Y65147D02*
X129277Y65112D01*
X129033Y65011*
X128823Y64850*
X128662Y64640*
X128561Y64396*
X128526Y64134*
X128561Y63872*
X128662Y63628*
X128823Y63418*
X129033Y63257*
X129277Y63156*
X129539Y63121*
X129801Y63156*
X130045Y63257*
X130255Y63418*
X130416Y63628*
X130517Y63872*
X130552Y64134*
X130517Y64396*
X130416Y64640*
X130255Y64850*
X130045Y65011*
X129801Y65112*
X129539Y65147*
G37*
G36*
X42668Y64287D02*
X40092D01*
X40104Y64227*
X40196Y64089*
X40104Y63951*
X40067Y63764*
X40104Y63577*
X40210Y63419*
X40368Y63313*
X40555Y63276*
X42205*
X42392Y63313*
X42550Y63419*
X42656Y63577*
X42693Y63764*
X42656Y63951*
X42564Y64089*
X42656Y64227*
X42668Y64287*
G37*
G36*
X130047Y90008D02*
Y87883D01*
X132172*
X132141Y88198*
X132013Y88623*
X131803Y89014*
X131522Y89358*
X131178Y89639*
X130787Y89849*
X130362Y89977*
X130047Y90008*
G37*
G36*
X29209Y60662D02*
X28632D01*
Y60135*
X29209*
Y60662*
G37*
G36*
X54020Y62933D02*
X53949D01*
X53928*
X53401*
Y62229*
Y61525*
X53928*
X54020*
X55328*
Y61841*
X55888*
Y61424*
X58196*
Y61790*
X58436*
X58539Y61687*
Y60657*
X58448Y60522*
X58409Y60324*
X58448Y60126*
X58561Y59958*
X58729Y59845*
X58927Y59806*
X59125Y59845*
X59293Y59958*
X59406Y60126*
X59445Y60324*
X59406Y60522*
X59315Y60657*
Y61848*
X59286Y61997*
X59202Y62123*
X58872Y62453*
X58746Y62537*
X58597Y62566*
X58196*
Y62932*
X55888*
Y62617*
X55328*
Y62933*
X54020*
G37*
G36*
X126448Y60901D02*
X125921D01*
Y60324*
X126448*
Y60901*
G37*
G36*
X30040Y60662D02*
X29463D01*
Y60135*
X30040*
Y60662*
G37*
G36*
X35190Y62102D02*
X34942Y62053D01*
X34732Y61913*
X34729Y61908*
X33261*
X33088Y61874*
X32941Y61775*
X30226Y59061*
X30040*
Y59262*
Y59354*
Y59881*
X28632*
Y59354*
Y59262*
Y57954*
X28883*
Y57709*
X28632*
Y57602*
X28400*
X28397Y57607*
X28187Y57747*
X27939Y57796*
X27691Y57747*
X27481Y57607*
X27341Y57397*
X27292Y57149*
X27341Y56901*
X27481Y56691*
X27691Y56551*
X27939Y56502*
X28187Y56551*
X28397Y56691*
X28400Y56696*
X28632*
Y56401*
Y56309*
Y55001*
X28883*
Y54505*
X28824Y54480*
X28611Y54318*
X28449Y54105*
X28346Y53858*
X28311Y53593*
X28346Y53328*
X28449Y53081*
X28611Y52868*
X28824Y52706*
X29071Y52603*
X29336Y52568*
X29601Y52603*
X29848Y52706*
X30061Y52868*
X30223Y53081*
X30326Y53328*
X30361Y53593*
X30326Y53858*
X30223Y54105*
X30061Y54318*
X29848Y54480*
X29789Y54505*
Y55001*
X30040*
Y56309*
Y56401*
Y57709*
X29789*
Y57954*
X30040*
Y58155*
X30414*
X30587Y58189*
X30734Y58288*
X33449Y61002*
X34729*
X34732Y60997*
X34942Y60857*
X35190Y60808*
X35438Y60857*
X35648Y60997*
X35788Y61207*
X35837Y61455*
X35788Y61703*
X35648Y61913*
X35438Y62053*
X35190Y62102*
G37*
G36*
X57320Y61096D02*
X57122Y61057D01*
X56987Y60966*
X53418*
X53283Y61057*
X53085Y61096*
X52887Y61057*
X52719Y60944*
X52606Y60776*
X52567Y60578*
X52606Y60380*
X52719Y60212*
X52887Y60099*
X53085Y60060*
X53283Y60099*
X53418Y60190*
X56987*
X57122Y60099*
X57320Y60060*
X57519Y60099*
X57687Y60212*
X57799Y60380*
X57838Y60578*
X57799Y60776*
X57687Y60944*
X57519Y61057*
X57320Y61096*
G37*
G36*
X126448Y60070D02*
X125921D01*
Y59493*
X126448*
Y60070*
G37*
G36*
X125140Y60901D02*
X125069D01*
X125048*
X123740*
Y59493*
X123941*
Y58849*
X123820Y58798*
X123607Y58636*
X123445Y58423*
X123346Y58186*
X123278Y58084*
X123244Y57911*
X123278Y57738*
X123346Y57636*
X123445Y57399*
X123607Y57186*
X123820Y57024*
X123879Y56999*
Y56514*
X123913Y56341*
X124012Y56194*
X125155Y55051*
X125302Y54952*
X125475Y54918*
X130602*
X130605Y54913*
X130815Y54773*
X131063Y54724*
X131311Y54773*
X131521Y54913*
X131661Y55123*
X131710Y55371*
X131661Y55619*
X131521Y55829*
X131311Y55969*
X131063Y56018*
X130815Y55969*
X130605Y55829*
X130602Y55824*
X125663*
X124785Y56702*
Y56999*
X124844Y57024*
X125057Y57186*
X125219Y57399*
X125322Y57646*
X125357Y57911*
X125322Y58176*
X125219Y58423*
X125057Y58636*
X124847Y58796*
Y59493*
X125048*
X125140*
X125667*
Y60197*
Y60901*
X125140*
G37*
%LNlp_led_cube_8x8x8-3*%
%LPD*%
G36*
X90478Y71082D02*
X90108Y70712D01*
X89744*
X89664Y70810*
X89658Y70782*
X88370*
Y70909*
X88243*
Y71397*
X87545*
X87358Y71360*
X87200Y71254*
X87188Y71236*
X87066Y71273*
Y71312*
X89981Y74228*
X90080Y74375*
X90114Y74548*
Y76042*
X90478*
Y71082*
G37*
G36*
X113973D02*
X113603Y70712D01*
X113239*
X113159Y70810*
X113153Y70782*
X111865*
Y71036*
X113153*
X113141Y71096*
X113035Y71254*
X112877Y71360*
X112690Y71397*
X112542*
X112484Y71506*
X112508Y71627*
X111886*
Y71754*
X111759*
Y72376*
X111806Y72386*
X111747Y72498*
X113476Y74228*
X113575Y74375*
X113609Y74548*
Y76042*
X113973*
Y71082*
G37*
G36*
X68209Y71837D02*
X68224Y71759D01*
X68243Y71664*
X68309Y71565*
X68342Y71517*
X69270Y70589*
X69357Y70530*
X69417Y70490*
X69475Y70479*
X69590Y70456*
X70401*
X70481Y70358*
X70462Y70259*
X70499Y70072*
X70591Y69934*
X70499Y69796*
X70462Y69609*
X70499Y69422*
X70591Y69284*
X70499Y69146*
X70462Y68959*
X70499Y68772*
X70589Y68636*
X70499Y68501*
X70462Y68314*
X70499Y68127*
X70591Y67989*
X70499Y67851*
X70462Y67664*
X70499Y67477*
X70591Y67339*
X70499Y67201*
X70462Y67014*
X70499Y66827*
X70591Y66689*
X70499Y66551*
X70462Y66364*
X70499Y66177*
X70591Y66039*
X70499Y65901*
X70462Y65714*
X70494Y65551*
X70414Y65452*
X70017*
X69893Y65428*
X69868Y65423*
X69742Y65339*
X69212Y64808*
X69094Y64857*
Y68672*
X69126Y68704*
X69285Y68735*
X69453Y68848*
X69566Y69016*
X69605Y69214*
X69566Y69412*
X69453Y69580*
X69285Y69693*
X69087Y69732*
X68889Y69693*
X68721Y69580*
X68708Y69561*
X68586Y69598*
Y69643*
X68677Y69778*
X68716Y69976*
X68677Y70174*
X68564Y70342*
X68396Y70455*
X68198Y70494*
X68000Y70455*
X67832Y70342*
X67719Y70174*
X67680Y69976*
X67719Y69778*
X67810Y69643*
Y63533*
X65751Y61474*
X62308*
X62173Y61565*
X61975Y61604*
X61777Y61565*
X61642Y61474*
X61282*
Y61675*
Y61767*
Y62576*
X62504Y63797*
X62588Y63923*
X62617Y64072*
Y64309*
X62708Y64444*
X62747Y64642*
X62708Y64840*
X62595Y65008*
X62427Y65121*
X62268Y65152*
X62168Y65252*
X62173Y65261*
X63501*
X63581Y65163*
X63587Y65191*
X66163*
X66151Y65251*
X66059Y65389*
X66151Y65527*
X66164Y65592*
X66291*
X66281Y65645*
X66305Y65767*
X66178*
X66151Y65901*
X66059Y66039*
X66151Y66177*
X66188Y66364*
X66151Y66551*
X66059Y66689*
X66151Y66827*
X66188Y67014*
X66151Y67201*
X66059Y67339*
X66151Y67477*
X66188Y67664*
X66151Y67851*
X66059Y67989*
X66151Y68127*
X66188Y68314*
X66151Y68501*
X66061Y68636*
X66151Y68772*
X66188Y68959*
X66151Y69146*
X66059Y69284*
X66151Y69422*
X66188Y69609*
X66151Y69796*
X66157Y69806*
X66801*
X66974Y69840*
X67121Y69939*
X67712Y70530*
X67771Y70618*
X67811Y70677*
X67845Y70850*
Y76042*
X68209*
Y71837*
G37*
G36*
X43488Y70984D02*
X43216Y70712D01*
X42754*
X42674Y70810*
X42668Y70782*
X41380*
Y70909*
X41253*
Y71397*
X40555*
X40368Y71360*
X40210Y71254*
X40198Y71236*
X40076Y71273*
Y71312*
X42991Y74228*
X43090Y74375*
X43124Y74548*
Y76042*
X43488*
Y70984*
G37*
G36*
X66939Y71038D02*
X66613Y70712D01*
X66249*
X66169Y70810*
X66163Y70782*
X64875*
Y70909*
X64748*
Y71397*
X64050*
X63863Y71360*
X63705Y71254*
X63693Y71236*
X63571Y71273*
Y71312*
X66486Y74228*
X66585Y74375*
X66619Y74548*
Y76042*
X66939*
Y71038*
G37*
%LNlp_led_cube_8x8x8-4*%
%LPC*%
G36*
X89540Y72921D02*
Y72426D01*
X90035*
X90011Y72547*
X89871Y72757*
X89661Y72897*
X89540Y72921*
G37*
G36*
X42205Y71397D02*
X41507D01*
Y71036*
X42668*
X42656Y71096*
X42550Y71254*
X42392Y71360*
X42205Y71397*
G37*
G36*
X67055Y66267D02*
Y65772D01*
X67550*
X67526Y65893*
X67386Y66103*
X67176Y66243*
X67055Y66267*
G37*
G36*
X65700Y71397D02*
X65002D01*
Y71036*
X66163*
X66151Y71096*
X66045Y71254*
X65887Y71360*
X65700Y71397*
G37*
G36*
X42296Y72172D02*
X41801D01*
X41825Y72051*
X41965Y71841*
X42175Y71701*
X42296Y71677*
Y72172*
G37*
G36*
X89195Y71397D02*
X88497D01*
Y71036*
X89658*
X89646Y71096*
X89540Y71254*
X89382Y71360*
X89195Y71397*
G37*
G36*
X66163Y64937D02*
X63587D01*
X63599Y64877*
X63691Y64739*
X63599Y64601*
X63587Y64541*
X66163*
X66151Y64601*
X66059Y64739*
X66151Y64877*
X66163Y64937*
G37*
G36*
Y64287D02*
X63587D01*
X63599Y64227*
X63691Y64089*
X63599Y63951*
X63562Y63764*
X63599Y63577*
X63705Y63419*
X63863Y63313*
X64050Y63276*
X65700*
X65887Y63313*
X66045Y63419*
X66151Y63577*
X66188Y63764*
X66151Y63951*
X66059Y64089*
X66151Y64227*
X66163Y64287*
G37*
G36*
X66801Y65518D02*
X66306D01*
X66330Y65397*
X66470Y65187*
X66680Y65047*
X66801Y65023*
Y65518*
G37*
G36*
Y66267D02*
X66680Y66243D01*
X66470Y66103*
X66330Y65893*
X66306Y65772*
X66801*
Y66267*
G37*
G36*
X67550Y65518D02*
X67055D01*
Y65023*
X67176Y65047*
X67386Y65187*
X67526Y65397*
X67550Y65518*
G37*
G36*
X43045Y72172D02*
X42550D01*
Y71677*
X42671Y71701*
X42881Y71841*
X43021Y72051*
X43045Y72172*
G37*
G36*
X42550Y72921D02*
Y72426D01*
X43045*
X43021Y72547*
X42881Y72757*
X42671Y72897*
X42550Y72921*
G37*
G36*
X42296D02*
X42175Y72897D01*
X41965Y72757*
X41825Y72547*
X41801Y72426*
X42296*
Y72921*
G37*
G36*
X65791D02*
X65670Y72897D01*
X65460Y72757*
X65320Y72547*
X65296Y72426*
X65791*
Y72921*
G37*
G36*
X89286D02*
X89165Y72897D01*
X88955Y72757*
X88815Y72547*
X88791Y72426*
X89286*
Y72921*
G37*
G36*
X66045D02*
Y72426D01*
X66540*
X66516Y72547*
X66376Y72757*
X66166Y72897*
X66045Y72921*
G37*
G36*
X66540Y72172D02*
X66045D01*
Y71677*
X66166Y71701*
X66376Y71841*
X66516Y72051*
X66540Y72172*
G37*
G36*
X65791D02*
X65296D01*
X65320Y72051*
X65460Y71841*
X65670Y71701*
X65791Y71677*
Y72172*
G37*
G36*
X89286D02*
X88791D01*
X88815Y72051*
X88955Y71841*
X89165Y71701*
X89286Y71677*
Y72172*
G37*
G36*
X112013Y72376D02*
Y71881D01*
X112508*
X112484Y72002*
X112344Y72212*
X112134Y72352*
X112013Y72376*
G37*
G36*
X90035Y72172D02*
X89540D01*
Y71677*
X89661Y71701*
X89871Y71841*
X90011Y72051*
X90035Y72172*
G37*
%LNlp_led_cube_8x8x8-5*%
%LPD*%
G54D13*
X29336Y60008D03*
Y58608D03*
Y55655D03*
Y57055D03*
X39369Y38034D03*
Y39434D03*
X41528Y38034D03*
Y39434D03*
X73532Y40447D03*
Y41847D03*
X72135Y40447D03*
Y41847D03*
X51815Y36386D03*
Y34986D03*
X50291Y36386D03*
Y34986D03*
X113029Y32192D03*
Y33592D03*
X32130Y45657D03*
Y44257D03*
X57657Y47562D03*
Y46162D03*
Y49337D03*
Y50737D03*
X60578Y62421D03*
Y61021D03*
G54D15*
X125794Y60197D03*
X124394D03*
X116142Y44703D03*
X114742D03*
X54674Y59054D03*
X53274D03*
X54674Y62229D03*
X53274D03*
X61656Y58927D03*
X63056D03*
X71819Y57149D03*
X70419D03*
G54D28*
X28320Y63372D02*
X30479D01*
X30098Y68833D02*
X31876Y67055D01*
X30987Y66420D02*
X34289D01*
X29463Y67944D02*
X30987Y66420D01*
X32892Y74929D02*
X33781Y74040D01*
X32892Y74929D02*
Y79120D01*
X66928Y64769D02*
Y65064D01*
X114615Y42736D02*
X114680Y42671D01*
X84835Y60070D02*
Y60705D01*
Y60070D02*
X85597Y59308D01*
X87756*
X34543Y48513D02*
Y52704D01*
Y48513D02*
X36067Y46989D01*
X40512*
X41909Y45592*
X60578Y61021D02*
X60643Y61086D01*
X61975*
X65912*
X68198Y63372*
Y69976*
X63056Y58927D02*
X63880Y59751D01*
Y60324*
X65868*
X68706Y63162*
Y68833*
X69087Y69214*
X53466Y47116D02*
Y49910D01*
X49275Y54101D02*
X53466Y49910D01*
X49275Y54101D02*
Y58292D01*
X50545Y59562*
Y60832*
X50444Y64414D02*
X50545Y64515D01*
X48280Y64414D02*
X50444D01*
X65277Y55498D02*
X69722Y59943D01*
Y63880*
X70256Y64414*
X71775*
X79602*
X81660Y62356*
X91185*
X93243Y64414*
X95270*
X98525*
X100710Y62229*
X113283*
X115468Y64414*
X118765*
X50282Y65150D02*
X51307D01*
X50196Y65064D02*
X50282Y65150D01*
X48280Y65064D02*
X50196D01*
X51307Y59514D02*
Y61340D01*
X49878Y58086D02*
X51307Y59514D01*
X49878Y54260D02*
Y58086D01*
Y54260D02*
X54609Y49529D01*
X64388Y50672D02*
Y55752D01*
X69214Y60578*
Y64261*
X70017Y65064*
X71775*
X79670*
X81870Y62864*
X90804*
X93004Y65064*
X95270*
X98637*
X100964Y62737*
X113029*
X115356Y65064*
X118765*
X33556Y58551D02*
X33654Y58453D01*
Y48513D02*
Y58453D01*
Y48513D02*
X35559Y46608D01*
Y43052D02*
Y46608D01*
X79374Y53085D02*
X80517Y51942D01*
X97281*
X99821Y54482*
Y57022*
X103123Y66293D02*
Y71754D01*
X104012Y72643*
Y77850*
X104393Y78231*
X96900Y52450D02*
X98551Y54101D01*
Y57022*
X101980Y66293D02*
Y66674D01*
X102488Y67182*
Y71881*
X103123Y72516*
Y78231*
X70476Y56014D02*
Y57092D01*
X70419Y57149D02*
X70476Y57092D01*
X53085Y60578D02*
X57320D01*
X36194Y53974D02*
X37883D01*
X37972Y53885*
X38899*
X39623Y54609*
X36194Y53974D02*
Y60197D01*
X37083Y61086*
X37845*
X38607Y61848*
Y63372*
X46735Y32638D02*
X50799D01*
X51815Y33654*
Y34986*
X35813Y32638D02*
X37464Y34289D01*
X49594*
X50291Y34986*
X32195Y45592D02*
X34289D01*
X32130Y45657D02*
X32195Y45592D01*
X39369Y39434D02*
X41528D01*
Y41274*
X43179Y42925*
Y43052*
Y43433*
X42290Y44322D02*
X43179Y43433D01*
X40639Y44322D02*
X42290D01*
X39369Y45592D02*
X40639Y44322D01*
X78485Y52704D02*
Y55129D01*
Y52704D02*
X80009Y51180D01*
X83934*
X84454Y50660*
X57657Y47562D02*
X59370D01*
X60324Y46608D02*
X61340D01*
X62991Y48259*
Y51053*
X57657Y49337D02*
X59497D01*
X54674Y59054D02*
X56966D01*
X57042Y58978*
X58495*
X58927Y58546*
Y56895D02*
Y58546D01*
X54674Y62229D02*
X56991D01*
X57042Y62178*
X58597*
X58927Y61848*
Y60324D02*
Y61848D01*
X38353Y58673D02*
Y59455D01*
Y58673D02*
X50926Y46100D01*
Y38480D02*
Y46100D01*
Y38480D02*
X51815Y37591D01*
Y36386D02*
Y37591D01*
X37210Y58927D02*
Y59689D01*
Y58927D02*
X50291Y45846D01*
Y36386D02*
Y45846D01*
X67690Y45592D02*
X71373D01*
X73532Y43433*
Y41847D02*
Y43433D01*
X72135Y41847D02*
Y43052D01*
X42697Y64414D02*
X43052Y64769D01*
X41380Y64414D02*
X42697D01*
X111865Y70909D02*
X111886Y70930D01*
X64875Y64414D02*
Y65064D01*
Y64414D02*
X66573D01*
X66928Y64769*
X64875Y65064D02*
X66928D01*
Y65645*
X85089Y53720D02*
X88772D01*
X93471Y58419*
X95503*
X87375Y55244D02*
X89026D01*
X90296Y56514*
Y58546*
X31876Y67055D02*
X35178D01*
X32892Y69214D02*
X34289Y67817D01*
X31749Y74334D02*
X33527Y72556D01*
X31749Y74334D02*
Y78358D01*
X33527Y69849D02*
Y72556D01*
Y69849D02*
X37337Y66039D01*
Y62483D02*
Y66039D01*
X48767Y53847D02*
Y60832D01*
Y53847D02*
X52323Y50291D01*
Y46862D02*
Y50291D01*
Y46862D02*
X55244Y43941D01*
X62864*
X67436Y48513*
Y53339*
X68706Y54609*
X73830*
X74802Y55581*
Y58927*
X43306Y61213D02*
X44576Y59943D01*
Y53847D02*
Y59943D01*
Y53847D02*
X54990Y43433D01*
X63118*
X67944Y48259*
Y53085*
X68960Y54101*
X74040*
X75691Y55752*
Y59308*
X75183Y59816D02*
X75691Y59308D01*
X74040Y59816D02*
X75183D01*
X73532Y60324D02*
X74040Y59816D01*
X58927Y65785D02*
X61086D01*
X62229Y64642*
X58927Y65785D02*
Y67690D01*
X57149Y69468D02*
X58927Y67690D01*
X57149Y69468D02*
Y74929D01*
X62229Y64072D02*
Y64642D01*
X60578Y62421D02*
X62229Y64072D01*
X33273Y32638D02*
X34924Y34289D01*
X36321*
X39369Y37337*
Y38034*
X120522Y60705D02*
X120649D01*
X29242Y57149D02*
X29336Y57055D01*
X38734Y60705D02*
X39904D01*
X42875Y57734*
X68706Y52069D02*
X75691D01*
X80390Y47370*
X82168*
X69214Y53053D02*
X75596D01*
X79882Y48767*
X82168*
X75183Y60705D02*
Y61467D01*
X76326Y62610*
X77342*
X77850Y62102*
Y61086D02*
Y62102D01*
X77469Y60705D02*
X77850Y61086D01*
X77469Y52831D02*
Y60705D01*
Y52831D02*
X79882Y50418D01*
X82803*
X84454Y48767*
Y44449D02*
Y48767D01*
X76834Y52704D02*
Y61721D01*
Y52704D02*
X79755Y49783D01*
X82676*
X83184Y49275*
Y43179D02*
Y49275D01*
Y43179D02*
X84454Y41909D01*
X68540Y44283D02*
X70904D01*
X72135Y43052*
X64388Y49275D02*
X65277Y50164D01*
Y55498*
X62174Y52014D02*
X62284D01*
X60324Y50164D02*
X62174Y52014D01*
X79374Y54228D02*
X81152Y52450D01*
X96900*
X41380Y65064D02*
X42757D01*
X43052Y64769*
G54D30*
X123697Y57911D02*
X124332Y57276D01*
X114680Y42671D02*
Y44703D01*
X48280Y68325D02*
X50164D01*
X124332Y57911D02*
X124394Y57973D01*
Y60197*
X125475Y55371D02*
X131063D01*
X124332Y56514D02*
X125475Y55371D01*
X124332Y56514D02*
Y57276D01*
X114680Y44703D02*
X114742D01*
X69590Y70909D02*
X71775D01*
X68662Y71837D02*
X69590Y70909D01*
X68662Y71837D02*
Y80181D01*
X68706Y80225*
X69932Y76752D02*
X69976Y76796D01*
X69932Y75266D02*
Y76752D01*
Y75266D02*
X70567Y74631D01*
Y74622D02*
Y74631D01*
Y74622D02*
X73488Y71701D01*
Y70694D02*
Y71701D01*
X73053Y70259D02*
X73488Y70694D01*
X71775Y70259D02*
X73053D01*
X64875D02*
X66801D01*
X67392Y70850*
Y76752*
X67436Y76796*
X71775Y69609D02*
X73292D01*
X74123Y70440*
Y72091*
X71246Y74968D02*
X74123Y72091D01*
X71246Y74968D02*
Y80225D01*
X63612Y69609D02*
X64875D01*
X63118Y70103D02*
X63612Y69609D01*
X63118Y70103D02*
Y71500D01*
X66166Y74548*
Y80225*
X71775Y68959D02*
X73531D01*
X74758Y70186*
Y72472*
X72472Y74758D02*
X74758Y72472D01*
X72472Y74758D02*
Y76752D01*
X72516Y76796*
X63373Y68959D02*
X64875D01*
X62483Y69849D02*
X63373Y68959D01*
X62483Y69849D02*
Y71881D01*
X64896Y74294*
Y76796*
X71775Y68314D02*
X73648D01*
X75393Y70059*
Y72853*
X73786Y74460D02*
X75393Y72853D01*
X73786Y74460D02*
Y80225D01*
X63129Y68314D02*
X64875D01*
X61848Y69595D02*
X63129Y68314D01*
X61848Y69595D02*
Y72262D01*
X63626Y74040*
Y80225*
X92201Y71793D02*
Y80225D01*
Y71793D02*
X93085Y70909D01*
X95270*
X71775Y67664D02*
X73887D01*
X76028Y69805*
Y73234*
X75012Y74250D02*
X76028Y73234D01*
X75012Y74250D02*
Y76752D01*
X75056Y76796*
X62890Y67664D02*
X64875D01*
X61213Y69341D02*
X62890Y67664D01*
X61213Y69341D02*
Y72643D01*
X62356Y73786*
Y76796*
X93471Y75222D02*
Y76796D01*
Y75222D02*
X94062Y74631D01*
Y74622D02*
Y74631D01*
Y74622D02*
X96983Y71701D01*
Y70694D02*
Y71701D01*
X96548Y70259D02*
X96983Y70694D01*
X95270Y70259D02*
X96548D01*
X88370D02*
X90296D01*
X90931Y70894*
Y76796*
X71775Y67014D02*
X74126D01*
X76663Y69551*
Y73742*
X76326Y74079D02*
X76663Y73742D01*
X76326Y74079D02*
Y80225D01*
X61086Y73532D02*
Y80225D01*
X60578Y73024D02*
X61086Y73532D01*
X60578Y69087D02*
Y73024D01*
Y69087D02*
X62607Y67058D01*
X64831*
X64875Y67014*
X95270Y69609D02*
X96787D01*
X97618Y70440*
Y72091*
X94741Y74968D02*
X97618Y72091D01*
X94741Y74968D02*
Y80225D01*
X87107Y69609D02*
X88370D01*
X86613Y70103D02*
X87107Y69609D01*
X86613Y70103D02*
Y71500D01*
X89661Y74548*
Y80225*
X71775Y66364D02*
X74365D01*
X77552Y69551*
Y76752*
X77596Y76796*
X59816Y68960D02*
Y76796D01*
Y68960D02*
X62412Y66364D01*
X64875*
X95270Y68959D02*
X97026D01*
X98253Y70186*
Y72472*
X96011Y74714D02*
X98253Y72472D01*
X96011Y74714D02*
Y76796D01*
X86868Y68959D02*
X88370D01*
X85978Y69849D02*
X86868Y68959D01*
X85978Y69849D02*
Y71881D01*
X88391Y74294*
Y76796*
X58546Y69341D02*
Y80225D01*
Y69341D02*
X62173Y65714D01*
X64875*
X115696Y71793D02*
Y80225D01*
Y71793D02*
X116580Y70909D01*
X118765*
X95270Y68314D02*
X97143D01*
X98888Y70059*
Y72853*
X97281Y74460D02*
X98888Y72853D01*
X97281Y74460D02*
Y80225D01*
X86624Y68314D02*
X88370D01*
X85343Y69595D02*
X86624Y68314D01*
X85343Y69595D02*
Y72262D01*
X87121Y74040*
Y80225*
X116966Y75222D02*
Y76796D01*
X116961Y75217D02*
X116966Y75222D01*
X116961Y75217D02*
X120478Y71701D01*
Y70694D02*
Y71701D01*
X120043Y70259D02*
X120478Y70694D01*
X118765Y70259D02*
X120043D01*
X111865D02*
X113791D01*
X114426Y70894*
Y76796*
X95270Y67664D02*
X97382D01*
X99523Y69805*
Y73234*
X98551Y74206D02*
X99523Y73234D01*
X98551Y74206D02*
Y76796D01*
X86385Y67664D02*
X88370D01*
X84708Y69341D02*
X86385Y67664D01*
X84708Y69341D02*
Y72643D01*
X85851Y73786*
Y76796*
X118765Y69609D02*
X120282D01*
X121113Y70440*
Y72091*
X118236Y74968D02*
X121113Y72091D01*
X118236Y74968D02*
Y80225D01*
X110602Y69609D02*
X111865D01*
X110108Y70103D02*
X110602Y69609D01*
X110108Y70103D02*
Y71500D01*
X113156Y74548*
Y80225*
X95270Y67014D02*
X97621D01*
X100158Y69551*
Y73742*
X99821Y74079D02*
X100158Y73742D01*
X99821Y74079D02*
Y80225D01*
X84581Y73532D02*
Y80225D01*
X84073Y73024D02*
X84581Y73532D01*
X84073Y69087D02*
Y73024D01*
Y69087D02*
X86102Y67058D01*
X88326*
X88370Y67014*
X118765Y68959D02*
X120521D01*
X121748Y70186*
Y72472*
X119506Y74714D02*
X121748Y72472D01*
X119506Y74714D02*
Y76796D01*
X110363Y68959D02*
X111865D01*
X109473Y69849D02*
X110363Y68959D01*
X109473Y69849D02*
Y71881D01*
X111886Y74294*
Y76796*
X95270Y66364D02*
X97860D01*
X101091Y69595*
Y76796*
X83311Y68960D02*
Y76796D01*
Y68960D02*
X85907Y66364D01*
X88370*
X118765Y68314D02*
X120638D01*
X122383Y70059*
Y72853*
X120776Y74460D02*
X122383Y72853D01*
X120776Y74460D02*
Y80225D01*
X110119Y68314D02*
X111865D01*
X108838Y69595D02*
X110119Y68314D01*
X108838Y69595D02*
Y72262D01*
X110616Y74040*
Y80225*
X82041Y69341D02*
Y80098D01*
Y69341D02*
X85668Y65714D01*
X88370*
X118765Y67664D02*
X120877D01*
X123018Y69805*
Y73234*
X122046Y74206D02*
X123018Y73234D01*
X122046Y74206D02*
Y76796D01*
X109880Y67664D02*
X111865D01*
X108203Y69341D02*
X109880Y67664D01*
X108203Y69341D02*
Y72643D01*
X109346Y73786*
Y76796*
X123316Y74079D02*
Y80225D01*
Y74079D02*
X123653Y73742D01*
Y69551D02*
Y73742D01*
X121116Y67014D02*
X123653Y69551D01*
X118765Y67014D02*
X121116D01*
X108076Y73532D02*
Y80225D01*
X107568Y73024D02*
X108076Y73532D01*
X107568Y69087D02*
Y73024D01*
Y69087D02*
X109597Y67058D01*
X111821*
X111865Y67014*
X118765Y66364D02*
X121355D01*
X124586Y69595*
Y76796*
X106806Y68960D02*
Y76796D01*
Y68960D02*
X109402Y66364D01*
X111865*
X105536Y69341D02*
Y80225D01*
Y69341D02*
X109163Y65714D01*
X111865*
X45211Y71881D02*
Y80225D01*
Y71881D02*
X46183Y70909D01*
X48280*
X46481Y75310D02*
Y76796D01*
Y75310D02*
X47116Y74675D01*
Y74666D02*
Y74675D01*
Y74666D02*
X50037Y71745D01*
Y70738D02*
Y71745D01*
X49558Y70259D02*
X50037Y70738D01*
X48280Y70259D02*
X49558D01*
X41380D02*
X43404D01*
X43941Y70796*
Y76796*
X48280Y69609D02*
X49797D01*
X50672Y70484*
Y72135*
X47751Y75056D02*
X50672Y72135D01*
X47751Y75056D02*
Y80225D01*
X40117Y69609D02*
X41380D01*
X39623Y70103D02*
X40117Y69609D01*
X39623Y70103D02*
Y71500D01*
X42671Y74548*
Y80225*
X48280Y68959D02*
X50036D01*
X51307Y70230*
Y72516*
X49021Y74802D02*
X51307Y72516D01*
X49021Y74802D02*
Y76796D01*
X39878Y68959D02*
X41380D01*
X38988Y69849D02*
X39878Y68959D01*
X38988Y69849D02*
Y71881D01*
X41401Y74294*
Y76796*
X48280Y68314D02*
Y68325D01*
X50164D02*
X51942Y70103D01*
Y72897*
X50291Y74548D02*
X51942Y72897D01*
X50291Y74548D02*
Y80225D01*
X39634Y68314D02*
X41380D01*
X38353Y69595D02*
X39634Y68314D01*
X38353Y69595D02*
Y72262D01*
X40131Y74040*
Y80225*
X48280Y67664D02*
X50392D01*
X52577Y69849*
Y73278*
X51561Y74294D02*
X52577Y73278D01*
X51561Y74294D02*
Y76796D01*
X39395Y67664D02*
X41380D01*
X37718Y69341D02*
X39395Y67664D01*
X37718Y69341D02*
Y72643D01*
X38861Y73786*
Y76796*
X48280Y67014D02*
X50631D01*
X53212Y69595*
Y73786*
X52831Y74167D02*
X53212Y73786D01*
X52831Y74167D02*
Y80225D01*
X37591Y73532D02*
Y80225D01*
X37083Y73024D02*
X37591Y73532D01*
X37083Y69087D02*
Y73024D01*
Y69087D02*
X39112Y67058D01*
X41336*
X41380Y67014*
X48280Y66364D02*
X48324Y66408D01*
X50914*
X54101Y69595*
Y76796*
X36321Y68960D02*
Y76796D01*
Y68960D02*
X38917Y66364D01*
X41380*
X35051Y69341D02*
Y80225D01*
Y69341D02*
X38678Y65714D01*
X41380*
X73532Y31749D02*
X75310Y29971D01*
X73532Y31749D02*
Y40447D01*
X70103Y29971D02*
X72135Y32003D01*
Y40447*
X111886Y70930D02*
Y71754D01*
X118765Y63764D02*
X120511D01*
X46862Y53212D02*
Y57719D01*
Y53212D02*
X50545Y50037D01*
X45719Y58862D02*
X46862Y57719D01*
X45719Y58862D02*
Y63753D01*
X45730Y63764*
X48280*
X57922*
X58927Y64769*
Y65785*
X29336Y53593D02*
Y55655D01*
X92582Y50291D02*
X102996Y39623D01*
X115569*
X120522Y60705D02*
Y65404D01*
X120212Y65714D02*
X120522Y65404D01*
X118765Y65714D02*
X120212D01*
X114355D02*
X118765D01*
X113705Y65064D02*
X114355Y65714D01*
X111865Y65064D02*
X113705D01*
X100329Y65023D02*
X111865Y65064D01*
X88370D02*
X90931D01*
X85048D02*
X88370D01*
X84398Y65714D02*
X85048Y65064D01*
X71775Y65714D02*
X84398D01*
X93609Y63764D02*
X95270D01*
X91566Y61721D02*
X93609Y63764D01*
X81152Y61721D02*
X91566D01*
X79109Y63764D02*
X81152Y61721D01*
X71775Y63764D02*
X79109D01*
X27939Y57149D02*
X29242D01*
X29336Y57055D02*
Y58608D01*
X30414*
X33261Y61455*
X35190*
X95270Y63764D02*
X97651D01*
X97789Y63626*
G54D31*
X113029Y29971D02*
Y32192D01*
X44195Y27304D02*
Y32638D01*
X52958Y27304D02*
Y29971D01*
X72643Y27304D02*
Y29971D01*
X120649Y60705D02*
X125602Y65658D01*
Y70103*
Y75183*
X126364Y75945*
Y79501*
X125602Y80263D02*
X126364Y79501D01*
X123316Y87629D02*
X124586Y86359D01*
Y78396D02*
Y86359D01*
X123316Y81952D02*
Y85089D01*
X120776Y87629D02*
X122046Y86359D01*
Y78396D02*
Y86359D01*
X120776Y81952D02*
Y85089D01*
X118236Y87629D02*
X119506Y86359D01*
Y78396D02*
Y86359D01*
X118236Y81952D02*
Y85089D01*
X115696Y87629D02*
X116966Y86359D01*
Y78396D02*
Y86359D01*
X115696Y81952D02*
Y85089D01*
X113156Y87629D02*
X114426Y86359D01*
Y78396D02*
Y86359D01*
X113156Y81952D02*
Y85089D01*
X110616Y87629D02*
X111886Y86359D01*
Y78396D02*
Y86359D01*
X110616Y81952D02*
Y85089D01*
X108076Y87629D02*
X109346Y86359D01*
Y78396D02*
Y86359D01*
X108076Y81952D02*
Y85089D01*
X105536Y87629D02*
X106806Y86359D01*
Y78396D02*
Y86359D01*
X105536Y81952D02*
Y85089D01*
X99821Y87629D02*
X101091Y86359D01*
Y78396D02*
Y86359D01*
X99821Y81952D02*
Y85089D01*
X97281Y87629D02*
X98551Y86359D01*
Y78396D02*
Y86359D01*
X97281Y81825D02*
Y85089D01*
X94741Y87629D02*
X96011Y86359D01*
Y78396D02*
Y86359D01*
X94741Y81825D02*
Y85089D01*
X92201Y87629D02*
X93471Y86359D01*
Y78396D02*
Y86359D01*
X92201Y81825D02*
Y85089D01*
X89661Y87629D02*
X90931Y86359D01*
Y78396D02*
Y86359D01*
X89661Y81952D02*
Y85089D01*
X87121Y87629D02*
X88391Y86359D01*
Y78396D02*
Y86359D01*
X87121Y81952D02*
Y85089D01*
X84581Y87629D02*
X85851Y86359D01*
Y78396D02*
Y86359D01*
X84581Y81952D02*
Y85089D01*
X82041Y87629D02*
X83311Y86359D01*
Y78396D02*
Y86359D01*
X82041Y81952D02*
Y85089D01*
X76326Y87629D02*
X77596Y86359D01*
Y78396D02*
Y86359D01*
X76326Y81825D02*
Y85089D01*
X73786Y87629D02*
X75056Y86359D01*
Y78396D02*
Y86359D01*
X73786Y81825D02*
Y85089D01*
X71246Y87629D02*
X72516Y86359D01*
Y78396D02*
Y86359D01*
X71246Y81825D02*
Y85089D01*
X68706Y87629D02*
X69976Y86359D01*
Y78396D02*
Y86359D01*
X68706Y81825D02*
Y85089D01*
X66166Y87629D02*
X67436Y86359D01*
Y78396D02*
Y86359D01*
X66166Y81825D02*
Y85089D01*
X63626Y87629D02*
X64896Y86359D01*
Y78396D02*
Y86359D01*
X63626Y81825D02*
Y85089D01*
X61086Y87629D02*
X62356Y86359D01*
Y78396D02*
Y86359D01*
X61086Y81825D02*
Y85089D01*
X58546Y87629D02*
X59816Y86359D01*
Y78396D02*
Y86359D01*
X58546Y81825D02*
Y85089D01*
X52831Y87629D02*
X54101Y86359D01*
Y78396D02*
Y86359D01*
X52831Y81825D02*
Y85089D01*
X50291Y87629D02*
X51561Y86359D01*
Y78396D02*
Y86359D01*
X50291Y81825D02*
Y85089D01*
X47751Y87629D02*
X49021Y86359D01*
Y78396D02*
Y86359D01*
X47751Y81825D02*
Y85089D01*
X45211Y87629D02*
X46481Y86359D01*
Y78396D02*
Y86359D01*
X45211Y81825D02*
Y85089D01*
X42671Y87629D02*
X43941Y86359D01*
Y78396D02*
Y86359D01*
X42671Y81825D02*
Y85089D01*
X40131Y87629D02*
X41401Y86359D01*
Y78396D02*
Y86359D01*
X40131Y81825D02*
Y85089D01*
X37591Y87629D02*
X38861Y86359D01*
Y78396D02*
Y86359D01*
X37591Y81825D02*
Y85089D01*
X35051Y87629D02*
X36321Y86359D01*
Y78396D02*
Y86359D01*
X35051Y81825D02*
Y85089D01*
G54D34*
X72643Y27304D02*
X114045D01*
X34924D02*
X44195D01*
X52958D02*
X72643D01*
X44195D02*
X52958D01*
X77850Y27431D02*
Y29971D01*
X33273Y28955D02*
Y32638D01*
Y28955D02*
X34924Y27304D01*
X114045D02*
X115569Y28828D01*
Y29971*
X120522Y44576D02*
Y60705D01*
X115569Y29971D02*
Y39623D01*
X120522Y44576*
X112013Y60705D02*
X120522D01*
X108838Y57530D02*
X112013Y60705D01*
X104520Y57530D02*
X108838D01*
X103377Y58673D02*
X104520Y57530D01*
X103377Y58673D02*
Y60197D01*
G54D40*
X126809Y40449D03*
G54D42*
X28320Y63372D03*
X30479D03*
X31749Y78358D03*
X53466Y47116D03*
X54736Y49402D03*
X51307Y61340D03*
X50545Y60832D03*
X51307Y65150D03*
X50545Y64515D03*
X74802Y58927D03*
X73532Y60324D03*
X43306Y61213D03*
X48767Y60832D03*
X43052Y64769D03*
X32892Y79120D03*
X33781Y74040D03*
X32892Y69214D03*
X29463Y67944D03*
X30098Y68833D03*
X34289Y66420D03*
X35178Y67055D03*
X34289Y67817D03*
X99821Y57022D03*
X98551D03*
X101980Y66293D03*
X103123D03*
Y78231D03*
X104393D03*
X84454Y50660D03*
X79374Y53085D03*
Y54228D03*
X53085Y60578D03*
X42875Y57734D03*
X38607Y63372D03*
X43433Y55498D03*
X39623Y54609D03*
X35051Y58419D03*
X82168Y47370D03*
Y48767D03*
X75183Y60705D03*
X76834Y61721D03*
X68706Y52069D03*
X69214Y53053D03*
X84835Y60705D03*
X87756Y59308D03*
X68540Y44283D03*
X67690Y45592D03*
X35813Y62864D03*
X37210Y59689D03*
X38353Y59455D03*
X85089Y53720D03*
X95503Y58419D03*
X90296Y58546D03*
X87375Y55244D03*
X33556Y58551D03*
X34543Y52704D03*
X62284Y52014D03*
X62991Y51053D03*
X58927Y56895D03*
Y60324D03*
X57320Y60578D03*
X61975Y61086D03*
X68198Y69976D03*
X63880Y60324D03*
X69087Y69214D03*
X62229Y64642D03*
X57149Y74929D03*
X64388Y49275D03*
Y50672D03*
X33527Y72556D03*
X37337Y62483D03*
X36194Y53974D03*
X107568Y63880D03*
G54D43*
X104139Y53466D03*
X120522Y60705D03*
X62864Y38543D03*
X60324D03*
Y40575D03*
X33273Y32638D03*
X35813D03*
X46735D03*
X44195D03*
X127126Y57911D03*
X124332D03*
X111886Y42671D03*
X114680D03*
X50545Y50037D03*
X29336Y53593D03*
G54D44*
X125602Y80263D03*
Y75183D03*
X78485Y55129D03*
X125602Y70103D03*
X104139D03*
X38734Y60705D03*
X27939Y57149D03*
X35190Y61455D03*
X84327Y58419D03*
X74548Y51180D03*
X82549Y64388D03*
X91947Y70103D03*
X45719Y69595D03*
X62864Y57276D03*
X42423Y72299D03*
X65918D03*
X89413D03*
X111886Y71754D03*
X131063Y55371D03*
X92582Y50291D03*
X45719Y63753D03*
Y68071D03*
X46862Y57719D03*
X58927Y65785D03*
X56895Y77215D03*
X100329Y65023D03*
X97789Y63626D03*
X90931Y65064D03*
X66928Y65645D03*
X70476Y56014D03*
G54D45*
X62864Y40575D03*
G54D46*
X67944Y35876D03*
X55244D03*
G54D47*
X86994Y44449D03*
X84454D03*
X81914D03*
X79374D03*
X86994Y41909D03*
X84454D03*
X81914D03*
X130174Y43179D03*
X52831Y87629D03*
Y85089D03*
X50291Y87629D03*
Y85089D03*
X47751Y87629D03*
Y85089D03*
X45211Y87629D03*
Y85089D03*
X42671Y87629D03*
Y85089D03*
X40131Y87629D03*
Y85089D03*
X37591Y87629D03*
Y85089D03*
X35051Y87629D03*
X76326D03*
Y85089D03*
X73786Y87629D03*
Y85089D03*
X71246Y87629D03*
Y85089D03*
X68706Y87629D03*
Y85089D03*
X66166Y87629D03*
Y85089D03*
X63626Y87629D03*
Y85089D03*
X61086Y87629D03*
Y85089D03*
X58546Y87629D03*
X99821D03*
Y85089D03*
X97281Y87629D03*
Y85089D03*
X94741Y87629D03*
Y85089D03*
X92201Y87629D03*
Y85089D03*
X89661Y87629D03*
Y85089D03*
X87121Y87629D03*
Y85089D03*
X84581Y87629D03*
Y85089D03*
X82041Y87629D03*
X123316D03*
Y85089D03*
X120776Y87629D03*
Y85089D03*
X118236Y87629D03*
Y85089D03*
X115696Y87629D03*
Y85089D03*
X113156Y87629D03*
Y85089D03*
X110616Y87629D03*
Y85089D03*
X108076Y87629D03*
Y85089D03*
X105536Y87629D03*
X129539Y64134D03*
Y66674D03*
Y69214D03*
Y71754D03*
Y74294D03*
Y76834D03*
Y79374D03*
X103377Y60197D03*
G54D48*
X79374Y41909D03*
X35051Y85089D03*
X58546D03*
X82041D03*
X105536D03*
X105917Y60197D03*
G54D49*
X28574Y28574D03*
Y87756D03*
X129920D03*
Y28574D03*
G54D50*
X122237Y39941D03*
X126682Y36765D03*
X122237Y33717D03*
G54D51*
X130174Y40639D03*
X129539Y81914D03*
G54D52*
X113029Y29971D03*
X115569D03*
X75310D03*
X77850D03*
X70103D03*
X72643D03*
X50418D03*
X52958D03*
G54D53*
X89836Y36446D03*
X91221Y33606D03*
X92606Y36446D03*
X93991Y33606D03*
X95376Y36446D03*
X96761Y33606D03*
X98146Y36446D03*
X99531Y33606D03*
G54D54*
X100916Y36446D03*
G54D55*
X107871Y35026D03*
X82881D03*
G54D56*
X31749Y39750D03*
X48259D03*
G54D57*
X45719Y43052D03*
X43179D03*
X40639D03*
X44449Y45592D03*
X41909D03*
X39369D03*
X38099Y43052D03*
X36829Y45592D03*
X35559Y43052D03*
X34289Y45592D03*
G54D58*
X57157Y55084D03*
X52157D03*
G54D59*
X123824Y49910D03*
G54D60*
X35051Y81825D03*
Y80225D03*
X36321Y78396D03*
Y76796D03*
X37591Y81825D03*
Y80225D03*
X38861Y78396D03*
Y76796D03*
X40131Y81825D03*
Y80225D03*
X41401Y78396D03*
Y76796D03*
X47751Y80225D03*
Y81825D03*
X49021Y76796D03*
Y78396D03*
X51561Y76796D03*
Y78396D03*
X50291Y80225D03*
Y81825D03*
X52831Y80225D03*
Y81825D03*
X54101Y76796D03*
Y78396D03*
X42671Y81825D03*
Y80225D03*
X46481Y76796D03*
Y78396D03*
X43941D03*
Y76796D03*
X45211Y80225D03*
Y81825D03*
X61086D03*
Y80225D03*
X76326D03*
Y81825D03*
X90931Y78396D03*
Y76796D03*
X93471D03*
Y78396D03*
X59816D03*
Y76796D03*
X77596D03*
Y78396D03*
X89661Y81825D03*
Y80225D03*
X94741D03*
Y81825D03*
X58546D03*
Y80225D03*
X88391Y78396D03*
Y76796D03*
X114426Y78396D03*
Y76796D03*
X85851Y78396D03*
Y76796D03*
X115696Y80225D03*
Y81825D03*
X116966Y76796D03*
Y78396D03*
X97281Y80225D03*
Y81825D03*
X98551Y76796D03*
Y78396D03*
X62356D03*
Y76796D03*
X75056D03*
Y78396D03*
X73786Y80225D03*
Y81825D03*
X72516Y76796D03*
Y78396D03*
X71246Y80225D03*
Y81825D03*
X64896Y78396D03*
Y76796D03*
X63626Y81825D03*
Y80225D03*
X66166Y81825D03*
Y80225D03*
X69976Y76796D03*
Y78396D03*
X68706Y80225D03*
Y81825D03*
X67436Y78396D03*
Y76796D03*
X92201Y80225D03*
Y81825D03*
X96011Y76796D03*
Y78396D03*
X87121Y81825D03*
Y80225D03*
X84581Y81825D03*
Y80225D03*
X99821D03*
Y81825D03*
X82041Y81698D03*
Y80098D03*
X83311Y78396D03*
Y76796D03*
X101091D03*
Y78396D03*
X113156Y81825D03*
Y80225D03*
X108076Y81825D03*
Y80225D03*
X109346Y78396D03*
Y76796D03*
X120776Y80225D03*
Y81825D03*
X118236Y80225D03*
Y81825D03*
X110616D03*
Y80225D03*
X111886Y78396D03*
Y76796D03*
X119506D03*
Y78396D03*
X105536Y81825D03*
Y80225D03*
X124586Y76796D03*
Y78396D03*
X106806D03*
Y76796D03*
X122046D03*
Y78396D03*
X123316Y80352D03*
Y81952D03*
X37972Y53885D03*
Y52285D03*
G54D61*
X48280Y68959D03*
Y69609D03*
Y70259D03*
Y70909D03*
X41380D03*
Y70259D03*
Y69609D03*
Y68959D03*
Y63764D03*
Y64414D03*
Y65064D03*
Y65714D03*
Y66364D03*
Y67014D03*
Y67664D03*
Y68314D03*
X48280Y63764D03*
Y64414D03*
Y65064D03*
Y65714D03*
Y66364D03*
Y67014D03*
Y67664D03*
Y68314D03*
X71775Y68959D03*
Y69609D03*
Y70259D03*
Y70909D03*
X64875D03*
Y70259D03*
Y69609D03*
Y68959D03*
Y63764D03*
Y64414D03*
Y65064D03*
Y65714D03*
Y66364D03*
Y67014D03*
Y67664D03*
Y68314D03*
X71775Y63764D03*
Y64414D03*
Y65064D03*
Y65714D03*
Y66364D03*
Y67014D03*
Y67664D03*
Y68314D03*
X95270Y68959D03*
Y69609D03*
Y70259D03*
Y70909D03*
X88370D03*
Y70259D03*
Y69609D03*
Y68959D03*
Y63764D03*
Y64414D03*
Y65064D03*
Y65714D03*
Y66364D03*
Y67014D03*
Y67664D03*
Y68314D03*
X95270Y63764D03*
Y64414D03*
Y65064D03*
Y65714D03*
Y66364D03*
Y67014D03*
Y67664D03*
Y68314D03*
X118765Y68959D03*
Y69609D03*
Y70259D03*
Y70909D03*
X111865D03*
Y70259D03*
Y69609D03*
Y68959D03*
Y63764D03*
Y64414D03*
Y65064D03*
Y65714D03*
Y66364D03*
Y67014D03*
Y67664D03*
Y68314D03*
X118765Y63764D03*
Y64414D03*
Y65064D03*
Y65714D03*
Y66364D03*
Y67014D03*
Y67664D03*
Y68314D03*
G54D62*
X60324Y50164D03*
Y46608D03*
G54D63*
X57042Y62178D03*
Y58978D03*
G54D64*
X123824Y49910D03*
M02*