%FSLAX43Y43*%
%MOMM*%
%SFA1B1*%

%IPPOS*%
%ADD10R,0.799998X0.899998*%
%ADD11R,0.899998X0.799998*%
%ADD67R,0.999998X1.299997*%
%ADD68R,0.999998X1.799996*%
%ADD69R,2.793994X2.539995*%
%LNlp_led_cube_8x8x8-1*%
%LPD*%
G54D10*
X103693Y89280D03*
X105093D03*
X85154Y75818D03*
X83754D03*
X85154Y74294D03*
X83754D03*
X81087Y78612D03*
X82487D03*
X87059D03*
X85659D03*
X94806Y78104D03*
X93406D03*
X89850D03*
X91250D03*
X87564Y74294D03*
X88964D03*
X87564Y75818D03*
X88964D03*
G54D11*
X64261Y80198D03*
Y81598D03*
X56006Y80198D03*
Y81598D03*
X66039Y85662D03*
Y84262D03*
X62864Y64831D03*
Y66231D03*
X59054Y64831D03*
Y66231D03*
X61721Y70038D03*
Y71438D03*
X60324Y70038D03*
Y71438D03*
X147954Y65088D03*
Y63688D03*
X145414Y65088D03*
Y63688D03*
X156209Y65088D03*
Y63688D03*
X97154Y65088D03*
Y63688D03*
X94614Y65088D03*
Y63688D03*
X71754Y65088D03*
Y63688D03*
G54D67*
X55587Y89788D03*
X57187D03*
G54D68*
X82473Y80918D03*
X85673D03*
G54D69*
X94106Y80644D03*
X90550D03*
M02*