%FSLAX43Y43*%
%MOMM*%
%SFA1B1*%

%IPPOS*%
%ADD83R,1.002998X1.102998*%
%ADD84R,1.102998X1.002998*%
%ADD85O,0.802998X2.402995*%
%ADD86R,0.710999X1.702997*%
%ADD87R,2.502995X2.502995*%
%ADD88R,1.402997X1.602997*%
%ADD89O,2.002996X0.502999*%
%ADD90O,0.502999X2.002996*%
%ADD91R,2.742995X1.218998*%
%ADD92R,1.218998X2.742995*%
%ADD93R,1.402997X0.502999*%
%ADD94R,0.502999X1.402997*%
%ADD95R,2.234996X0.837998*%
%ADD96R,1.202998X2.602995*%
%ADD97R,3.502993X2.602995*%
%ADD98C,1.702997*%
%ADD99R,1.702997X1.702997*%
%ADD100C,4.202992*%
%ADD101C,0.964998*%
%ADD102C,3.202994*%
%ADD103C,0.710999*%
%ADD104C,1.218998*%
%ADD105C,1.726997*%
%ADD106R,1.702997X1.702997*%
%ADD107C,4.012992*%
%ADD108C,1.802996*%
%ADD109C,4.962990*%
%ADD110R,1.892996X1.892996*%
%ADD111C,1.892996*%
%ADD112C,3.758992*%
%ADD113R,1.726997X1.726997*%
%ADD114C,0.203000*%
%ADD115C,2.234996*%
%ADD116C,1.472997*%
%ADD117C,1.980996*%
%ADD118C,2.202996*%
%ADD119R,2.202996X2.202996*%
%LNlp_led_cube_8x8x8-1*%
%LPD*%
G36*
X68242Y101174D02*
X66042D01*
Y103374*
X68242*
Y101174*
G37*
G36*
X63242D02*
X61042D01*
Y103374*
X63242*
Y101174*
G37*
G36*
X68242Y106174D02*
X66042D01*
Y108374*
X68242*
Y106174*
G37*
G36*
X63242D02*
X61042D01*
Y108374*
X63242*
Y106174*
G37*
G54D83*
X90739Y100456D03*
X92139D03*
X65469Y98678D03*
X64069D03*
X68133Y83565D03*
X69533D03*
Y84962D03*
X68133D03*
X69533Y86359D03*
X68133D03*
X128715Y72008D03*
X127315D03*
X125540D03*
X124140D03*
X82611Y75056D03*
X84011D03*
X90739Y106552D03*
X92139D03*
X90739Y105028D03*
X92139D03*
X90739Y101853D03*
X92139D03*
X107887Y71627D03*
X106487D03*
X99883Y106552D03*
X101283D03*
X115950Y77469D03*
X117350D03*
X99883Y105155D03*
X101283D03*
X117350Y78866D03*
X115950D03*
X162240Y91439D03*
X163640D03*
G54D84*
X57149Y101026D03*
Y102426D03*
X71754Y88326D03*
Y89726D03*
X66674Y81598D03*
Y80198D03*
X53974Y87313D03*
Y85913D03*
X65404Y80198D03*
Y81598D03*
X64134Y80198D03*
Y81598D03*
X62864Y80198D03*
Y81598D03*
X61594Y80198D03*
Y81598D03*
X57784Y80198D03*
Y81598D03*
X59054Y80198D03*
Y81598D03*
X53974D03*
Y80198D03*
X55244Y81598D03*
Y80198D03*
X121411Y79690D03*
Y81090D03*
X134365Y75372D03*
Y76772D03*
X121411Y76769D03*
Y78169D03*
X144398Y89345D03*
Y87945D03*
Y92139D03*
Y90739D03*
X92201Y96073D03*
Y97473D03*
X98424Y102169D03*
Y103569D03*
X89915Y97473D03*
Y96073D03*
X166750Y83249D03*
Y81849D03*
G54D85*
X132460Y79615D03*
X131190D03*
X129920D03*
X128650D03*
X127380D03*
X126110D03*
X124840D03*
X123570D03*
X132460Y74815D03*
X131190D03*
X129920D03*
X128650D03*
X127380D03*
X126110D03*
X124840D03*
X123570D03*
G54D86*
X138359Y86342D03*
X139659D03*
X140959D03*
X142259D03*
X142309Y93692D03*
X140909D03*
X139659D03*
X138359D03*
G54D87*
X86069Y78358D03*
X81569D03*
X164246Y76199D03*
X168746D03*
G54D88*
X78115Y78358D03*
X76315D03*
G54D89*
X98494Y95788D03*
Y95288D03*
Y94788D03*
Y94288D03*
Y93788D03*
Y93288D03*
Y92788D03*
Y92288D03*
Y91788D03*
Y91288D03*
Y90788D03*
Y90288D03*
Y89788D03*
Y89288D03*
Y88788D03*
Y88288D03*
Y87788D03*
Y87288D03*
Y86788D03*
Y86288D03*
Y85788D03*
Y85288D03*
Y84788D03*
Y84288D03*
Y83788D03*
X113594D03*
Y84288D03*
Y84788D03*
Y85288D03*
Y85788D03*
Y86288D03*
Y86788D03*
Y87288D03*
Y87788D03*
Y88288D03*
Y88788D03*
Y89288D03*
Y89788D03*
Y90288D03*
Y90788D03*
Y91288D03*
Y91788D03*
Y92288D03*
Y92788D03*
Y93288D03*
Y93788D03*
Y94288D03*
Y94788D03*
Y95288D03*
Y95788D03*
G54D90*
X100044Y82238D03*
X100544D03*
X101044D03*
X101544D03*
X102044D03*
X102544D03*
X103044D03*
X103544D03*
X104044D03*
X104544D03*
X105044D03*
X105544D03*
X106044D03*
X106544D03*
X107044D03*
X107544D03*
X108044D03*
X108544D03*
X109044D03*
X109544D03*
X110044D03*
X110544D03*
X111044D03*
X111544D03*
X112044D03*
Y97338D03*
X111544D03*
X111044D03*
X110544D03*
X110044D03*
X109544D03*
X109044D03*
X108544D03*
X108044D03*
X107544D03*
X107044D03*
X106544D03*
X106044D03*
X105544D03*
X105044D03*
X104544D03*
X104044D03*
X103544D03*
X103044D03*
X102544D03*
X102044D03*
X101544D03*
X101044D03*
X100544D03*
X100044D03*
G54D91*
X155447Y74802D03*
X149605D03*
G54D92*
X152399Y88645D03*
Y82803D03*
G54D93*
X56659Y94570D03*
Y94070D03*
Y93570D03*
Y93070D03*
Y92570D03*
Y92070D03*
Y91570D03*
Y91070D03*
Y90570D03*
Y90070D03*
Y89570D03*
Y89070D03*
X65259D03*
Y89570D03*
Y90070D03*
Y90570D03*
Y91070D03*
Y91570D03*
Y92070D03*
Y92570D03*
Y93070D03*
Y93570D03*
Y94070D03*
Y94570D03*
G54D94*
X58209Y87520D03*
X58709D03*
X59209D03*
X59709D03*
X60209D03*
X60709D03*
X61209D03*
X61709D03*
X62209D03*
X62709D03*
X63209D03*
X63709D03*
Y96120D03*
X63209D03*
X62709D03*
X62209D03*
X61709D03*
X61209D03*
X60709D03*
X60209D03*
X59709D03*
X59209D03*
X58709D03*
X58209D03*
G54D95*
X86867Y106552D03*
Y105282D03*
Y104012D03*
Y102742D03*
Y101472D03*
X82041D03*
Y102742D03*
Y104012D03*
Y105282D03*
Y106552D03*
G54D96*
X159116Y82697D03*
X161416D03*
X163716D03*
G54D97*
X161416Y88497D03*
G54D98*
X132181Y107314D03*
Y104774D03*
X129641Y107314D03*
Y104774D03*
X127101Y107314D03*
Y104774D03*
X124561Y107314D03*
Y104774D03*
X122021Y107314D03*
Y104774D03*
X119481Y107314D03*
Y104774D03*
X116941Y107314D03*
Y104774D03*
X114401Y107314D03*
X174624Y73278D03*
X153771Y107314D03*
Y104774D03*
X151231Y107314D03*
Y104774D03*
X148691Y107314D03*
Y104774D03*
X146151Y107314D03*
G54D99*
X114401Y104774D03*
X146151D03*
G54D100*
X173989Y107949D03*
X48894D03*
X173989Y62864D03*
X48894D03*
G54D101*
X92201Y99059D03*
X89026Y101472D03*
X100837Y103123D03*
X107060Y93090D03*
X106171Y93852D03*
X104012Y95249D03*
X92455Y87757D03*
X82549Y86867D03*
X105536Y101345D03*
X102996Y99821D03*
X102869Y101091D03*
X103758Y101980D03*
X106425Y99948D03*
X102488Y93598D03*
X101980Y94614D03*
X105282Y92201D03*
X106171Y91312D03*
X105282Y92201D03*
X106171Y91312D03*
X131190Y82184D03*
Y77723D03*
X132460D03*
X136778Y87248D03*
X142309Y91947D03*
X135889Y84708D03*
X136778Y89788D03*
X95630Y89811D03*
X102107Y89280D03*
X109981Y94995D03*
X110235Y86867D03*
X104266Y84581D03*
X74040Y65023D03*
X97789Y77215D03*
X96519D03*
X86359Y74294D03*
Y75818D03*
X104727Y71627D03*
X90550Y82803D03*
X94106D03*
X91312Y86740D03*
X90042D03*
X89153Y98932D03*
X93979Y98170D03*
X59689Y102488D03*
G54D102*
X85998Y89280D03*
X78498D03*
G54D103*
X62229Y93598D03*
X72389Y92709D03*
X61213Y91312D03*
X71119Y93598D03*
X60197Y83819D03*
X58927D03*
X67563Y78612D03*
X69849Y90169D03*
X71754Y91567D03*
X62864Y78993D03*
X64261Y83057D03*
X68960Y88264D03*
X67182D03*
X65404Y87502D03*
X57784Y78993D03*
X56514Y78612D03*
X65531Y97154D03*
X67055Y92836D03*
X62102Y98805D03*
X60705Y100202D03*
X59689Y100964D03*
X60233Y94070D03*
X59054Y78993D03*
X61594D03*
X58675Y84962D03*
X57784Y85724D03*
X56071Y85913D03*
X63880Y85851D03*
X59209Y89379D03*
X59689Y91312D03*
X61594Y89407D03*
X60233Y94070D03*
X54355Y92709D03*
X111759Y90550D03*
X111124Y89915D03*
X116204Y86359D03*
X116839Y85724D03*
X117474Y85089D03*
X118109Y84454D03*
X108044Y93788D03*
X102615Y105155D03*
X110235Y85288D03*
X115950Y80771D03*
X82549Y97154D03*
G54D104*
X119379Y81090D03*
X93598Y105790D03*
X74294Y106552D03*
G54D105*
X119379Y70103D03*
X81914Y71183D03*
Y69150D03*
X84454D03*
X54228Y63118D03*
X56768D03*
X67690D03*
X65150D03*
X151129Y74802D03*
X153923D03*
X152399Y84327D03*
Y87121D03*
X108774Y62102D03*
X104202D03*
X70992Y103123D03*
G54D106*
X174624Y70738D03*
G54D107*
X165670Y70039D03*
X170116Y66865D03*
X165670Y63817D03*
G54D108*
X156209Y61594D03*
X158749D03*
X150494D03*
X153034D03*
X145414D03*
X147954D03*
X97154D03*
X99694D03*
X92074D03*
X94614D03*
X71754D03*
X74294D03*
G54D109*
X115139Y65633D03*
X140129D03*
G54D110*
X133174Y67053D03*
G54D111*
X131789Y64213D03*
X130404Y67053D03*
X129019Y64213D03*
X127634Y67053D03*
X126249Y64213D03*
X124864Y67053D03*
X123479Y64213D03*
X122094Y67053D03*
G54D112*
X76834Y66483D03*
X89534D03*
G54D113*
X84454Y71183D03*
G54D114*
X55244Y67182D03*
X66674D03*
G54D115*
X52704Y70230D03*
X69214D03*
G54D116*
X66674Y73532D03*
X64134D03*
X61594D03*
X65404Y76072D03*
X62864D03*
X60324D03*
X59054Y73532D03*
X57784Y76072D03*
X56514Y73532D03*
X55244Y76072D03*
G54D117*
X109918Y64642D03*
X102933D03*
G54D118*
X172719Y100964D03*
G54D119*
X172719Y97154D03*
M02*